<?xml version="1.0" encoding="utf-8"?>
<svg xmlns="http://www.w3.org/2000/svg" xmlns:xlink="http://www.w3.org/1999/xlink" width="600" height="400" viewBox="0 0 2400 1600">
<defs>
  <clipPath id="clip470">
    <rect x="0" y="0" width="2400" height="1600"/>
  </clipPath>
</defs>
<path clip-path="url(#clip470)" d="
M0 1600 L2400 1600 L2400 0 L0 0  Z
  " fill="#ffffff" fill-rule="evenodd" fill-opacity="1"/>
<defs>
  <clipPath id="clip471">
    <rect x="480" y="0" width="1681" height="1600"/>
  </clipPath>
</defs>
<path clip-path="url(#clip470)" d="
M188.104 1474.16 L2352.76 1474.16 L2352.76 47.2441 L188.104 47.2441  Z
  " fill="#ffffff" fill-rule="evenodd" fill-opacity="1"/>
<defs>
  <clipPath id="clip472">
    <rect x="188" y="47" width="2166" height="1428"/>
  </clipPath>
</defs>
<polyline clip-path="url(#clip472)" style="stroke:#000000; stroke-linecap:butt; stroke-linejoin:round; stroke-width:2; stroke-opacity:0.1; fill:none" points="
  -8515.49,1474.16 -8515.49,47.2441 
  "/>
<polyline clip-path="url(#clip472)" style="stroke:#000000; stroke-linecap:butt; stroke-linejoin:round; stroke-width:2; stroke-opacity:0.1; fill:none" points="
  249.368,1474.16 249.368,47.2441 
  "/>
<polyline clip-path="url(#clip472)" style="stroke:#000000; stroke-linecap:butt; stroke-linejoin:round; stroke-width:2; stroke-opacity:0.1; fill:none" points="
  9014.23,1474.16 9014.23,47.2441 
  "/>
<polyline clip-path="url(#clip472)" style="stroke:#000000; stroke-linecap:butt; stroke-linejoin:round; stroke-width:2; stroke-opacity:0.1; fill:none" points="
  17779.1,1474.16 17779.1,47.2441 
  "/>
<polyline clip-path="url(#clip472)" style="stroke:#000000; stroke-linecap:butt; stroke-linejoin:round; stroke-width:2; stroke-opacity:0.1; fill:none" points="
  26543.9,1474.16 26543.9,47.2441 
  "/>
<polyline clip-path="url(#clip470)" style="stroke:#000000; stroke-linecap:butt; stroke-linejoin:round; stroke-width:4; stroke-opacity:1; fill:none" points="
  188.104,1474.16 2352.76,1474.16 
  "/>
<polyline clip-path="url(#clip470)" style="stroke:#000000; stroke-linecap:butt; stroke-linejoin:round; stroke-width:4; stroke-opacity:1; fill:none" points="
  -8515.49,1474.16 -8515.49,1455.27 
  "/>
<polyline clip-path="url(#clip470)" style="stroke:#000000; stroke-linecap:butt; stroke-linejoin:round; stroke-width:4; stroke-opacity:1; fill:none" points="
  249.368,1474.16 249.368,1455.27 
  "/>
<polyline clip-path="url(#clip470)" style="stroke:#000000; stroke-linecap:butt; stroke-linejoin:round; stroke-width:4; stroke-opacity:1; fill:none" points="
  9014.23,1474.16 9014.23,1455.27 
  "/>
<polyline clip-path="url(#clip470)" style="stroke:#000000; stroke-linecap:butt; stroke-linejoin:round; stroke-width:4; stroke-opacity:1; fill:none" points="
  17779.1,1474.16 17779.1,1455.27 
  "/>
<polyline clip-path="url(#clip470)" style="stroke:#000000; stroke-linecap:butt; stroke-linejoin:round; stroke-width:4; stroke-opacity:1; fill:none" points="
  26543.9,1474.16 26543.9,1455.27 
  "/>
<path clip-path="url(#clip470)" d="M-8550.51 1552.44 L-8542.87 1552.44 L-8542.87 1526.07 L-8551.18 1527.74 L-8551.18 1523.48 L-8542.91 1521.81 L-8538.24 1521.81 L-8538.24 1552.44 L-8530.6 1552.44 L-8530.6 1556.37 L-8550.51 1556.37 L-8550.51 1552.44 Z" fill="#000000" fill-rule="evenodd" fill-opacity="1" /><path clip-path="url(#clip470)" d="M-8511.16 1524.89 Q-8514.77 1524.89 -8516.6 1528.46 Q-8518.4 1532 -8518.4 1539.13 Q-8518.4 1546.23 -8516.6 1549.8 Q-8514.77 1553.34 -8511.16 1553.34 Q-8507.52 1553.34 -8505.72 1549.8 Q-8503.89 1546.23 -8503.89 1539.13 Q-8503.89 1532 -8505.72 1528.46 Q-8507.52 1524.89 -8511.16 1524.89 M-8511.16 1521.19 Q-8505.35 1521.19 -8502.29 1525.79 Q-8499.21 1530.38 -8499.21 1539.13 Q-8499.21 1547.85 -8502.29 1552.46 Q-8505.35 1557.04 -8511.16 1557.04 Q-8516.97 1557.04 -8520.04 1552.46 Q-8523.1 1547.85 -8523.1 1539.13 Q-8523.1 1530.38 -8520.04 1525.79 Q-8516.97 1521.19 -8511.16 1521.19 Z" fill="#000000" fill-rule="evenodd" fill-opacity="1" /><path clip-path="url(#clip470)" d="M-8489.51 1503.38 Q-8492.44 1503.38 -8493.93 1506.28 Q-8495.39 1509.16 -8495.39 1514.95 Q-8495.39 1520.72 -8493.93 1523.62 Q-8492.44 1526.5 -8489.51 1526.5 Q-8486.55 1526.5 -8485.09 1523.62 Q-8483.6 1520.72 -8483.6 1514.95 Q-8483.6 1509.16 -8485.09 1506.28 Q-8486.55 1503.38 -8489.51 1503.38 M-8489.51 1500.37 Q-8484.79 1500.37 -8482.3 1504.12 Q-8479.8 1507.84 -8479.8 1514.95 Q-8479.8 1522.04 -8482.3 1525.78 Q-8484.79 1529.51 -8489.51 1529.51 Q-8494.23 1529.51 -8496.73 1525.78 Q-8499.21 1522.04 -8499.21 1514.95 Q-8499.21 1507.84 -8496.73 1504.12 Q-8494.23 1500.37 -8489.51 1500.37 Z" fill="#000000" fill-rule="evenodd" fill-opacity="1" /><path clip-path="url(#clip470)" d="M214.811 1552.44 L222.45 1552.44 L222.45 1526.07 L214.14 1527.74 L214.14 1523.48 L222.404 1521.81 L227.08 1521.81 L227.08 1552.44 L234.719 1552.44 L234.719 1556.37 L214.811 1556.37 L214.811 1552.44 Z" fill="#000000" fill-rule="evenodd" fill-opacity="1" /><path clip-path="url(#clip470)" d="M254.163 1524.89 Q250.552 1524.89 248.723 1528.46 Q246.918 1532 246.918 1539.13 Q246.918 1546.23 248.723 1549.8 Q250.552 1553.34 254.163 1553.34 Q257.797 1553.34 259.603 1549.8 Q261.432 1546.23 261.432 1539.13 Q261.432 1532 259.603 1528.46 Q257.797 1524.89 254.163 1524.89 M254.163 1521.19 Q259.973 1521.19 263.029 1525.79 Q266.108 1530.38 266.108 1539.13 Q266.108 1547.85 263.029 1552.46 Q259.973 1557.04 254.163 1557.04 Q248.353 1557.04 245.274 1552.46 Q242.219 1547.85 242.219 1539.13 Q242.219 1530.38 245.274 1525.79 Q248.353 1521.19 254.163 1521.19 Z" fill="#000000" fill-rule="evenodd" fill-opacity="1" /><path clip-path="url(#clip470)" d="M278.803 1513.82 Q281.53 1514.4 283.053 1516.25 Q284.596 1518.09 284.596 1520.8 Q284.596 1524.96 281.737 1527.23 Q278.878 1529.51 273.612 1529.51 Q271.844 1529.51 269.963 1529.15 Q268.101 1528.81 266.108 1528.12 L266.108 1524.45 Q267.687 1525.37 269.568 1525.84 Q271.449 1526.31 273.499 1526.31 Q277.072 1526.31 278.934 1524.9 Q280.815 1523.49 280.815 1520.8 Q280.815 1518.32 279.066 1516.92 Q277.336 1515.51 274.232 1515.51 L270.96 1515.51 L270.96 1512.39 L274.383 1512.39 Q277.185 1512.39 278.671 1511.28 Q280.157 1510.15 280.157 1508.05 Q280.157 1505.88 278.615 1504.74 Q277.091 1503.57 274.232 1503.57 Q272.671 1503.57 270.885 1503.91 Q269.098 1504.25 266.954 1504.96 L266.954 1501.58 Q269.117 1500.98 270.998 1500.67 Q272.897 1500.37 274.571 1500.37 Q278.897 1500.37 281.417 1502.35 Q283.937 1504.3 283.937 1507.65 Q283.937 1509.98 282.602 1511.6 Q281.267 1513.2 278.803 1513.82 Z" fill="#000000" fill-rule="evenodd" fill-opacity="1" /><path clip-path="url(#clip470)" d="M8979.22 1552.44 L8986.86 1552.44 L8986.86 1526.07 L8978.55 1527.74 L8978.55 1523.48 L8986.81 1521.81 L8991.49 1521.81 L8991.49 1552.44 L8999.13 1552.44 L8999.13 1556.37 L8979.22 1556.37 L8979.22 1552.44 Z" fill="#000000" fill-rule="evenodd" fill-opacity="1" /><path clip-path="url(#clip470)" d="M9018.57 1524.89 Q9014.96 1524.89 9013.13 1528.46 Q9011.32 1532 9011.32 1539.13 Q9011.32 1546.23 9013.13 1549.8 Q9014.96 1553.34 9018.57 1553.34 Q9022.2 1553.34 9024.01 1549.8 Q9025.84 1546.23 9025.84 1539.13 Q9025.84 1532 9024.01 1528.46 Q9022.2 1524.89 9018.57 1524.89 M9018.57 1521.19 Q9024.38 1521.19 9027.44 1525.79 Q9030.51 1530.38 9030.51 1539.13 Q9030.51 1547.85 9027.44 1552.46 Q9024.38 1557.04 9018.57 1557.04 Q9012.76 1557.04 9009.68 1552.46 Q9006.63 1547.85 9006.63 1539.13 Q9006.63 1530.38 9009.68 1525.79 Q9012.76 1521.19 9018.57 1521.19 Z" fill="#000000" fill-rule="evenodd" fill-opacity="1" /><path clip-path="url(#clip470)" d="M9040.54 1513.41 Q9037.98 1513.41 9036.48 1515.16 Q9034.99 1516.91 9034.99 1519.95 Q9034.99 1522.98 9036.48 1524.75 Q9037.98 1526.5 9040.54 1526.5 Q9043.1 1526.5 9044.58 1524.75 Q9046.09 1522.98 9046.09 1519.95 Q9046.09 1516.91 9044.58 1515.16 Q9043.1 1513.41 9040.54 1513.41 M9048.08 1501.5 L9048.08 1504.96 Q9046.65 1504.29 9045.18 1503.93 Q9043.74 1503.57 9042.31 1503.57 Q9038.55 1503.57 9036.55 1506.11 Q9034.58 1508.65 9034.29 1513.78 Q9035.4 1512.15 9037.08 1511.28 Q9038.75 1510.4 9040.76 1510.4 Q9045 1510.4 9047.44 1512.97 Q9049.91 1515.53 9049.91 1519.95 Q9049.91 1524.28 9047.35 1526.89 Q9044.79 1529.51 9040.54 1529.51 Q9035.67 1529.51 9033.09 1525.78 Q9030.51 1522.04 9030.51 1514.95 Q9030.51 1508.29 9033.67 1504.34 Q9036.83 1500.37 9042.16 1500.37 Q9043.59 1500.37 9045.03 1500.66 Q9046.5 1500.94 9048.08 1501.5 Z" fill="#000000" fill-rule="evenodd" fill-opacity="1" /><path clip-path="url(#clip470)" d="M17744.1 1552.44 L17751.7 1552.44 L17751.7 1526.07 L17743.4 1527.74 L17743.4 1523.48 L17751.7 1521.81 L17756.4 1521.81 L17756.4 1552.44 L17764 1552.44 L17764 1556.37 L17744.1 1556.37 L17744.1 1552.44 Z" fill="#000000" fill-rule="evenodd" fill-opacity="1" /><path clip-path="url(#clip470)" d="M17783.4 1524.89 Q17779.8 1524.89 17778 1528.46 Q17776.2 1532 17776.2 1539.13 Q17776.2 1546.23 17778 1549.8 Q17779.8 1553.34 17783.4 1553.34 Q17787.1 1553.34 17788.9 1549.8 Q17790.7 1546.23 17790.7 1539.13 Q17790.7 1532 17788.9 1528.46 Q17787.1 1524.89 17783.4 1524.89 M17783.4 1521.19 Q17789.2 1521.19 17792.3 1525.79 Q17795.4 1530.38 17795.4 1539.13 Q17795.4 1547.85 17792.3 1552.46 Q17789.2 1557.04 17783.4 1557.04 Q17777.6 1557.04 17774.5 1552.46 Q17771.5 1547.85 17771.5 1539.13 Q17771.5 1530.38 17774.5 1525.79 Q17777.6 1521.19 17783.4 1521.19 Z" fill="#000000" fill-rule="evenodd" fill-opacity="1" /><path clip-path="url(#clip470)" d="M17797.2 1528.38 L17797.2 1524.92 Q17798.6 1525.59 17800.1 1525.95 Q17801.6 1526.31 17803 1526.31 Q17806.7 1526.31 17808.7 1523.79 Q17810.7 1521.25 17811 1516.1 Q17809.9 1517.71 17808.2 1518.58 Q17806.5 1519.44 17804.5 1519.44 Q17800.3 1519.44 17797.8 1516.91 Q17795.4 1514.35 17795.4 1509.93 Q17795.4 1505.6 17797.9 1502.99 Q17800.5 1500.37 17804.7 1500.37 Q17809.6 1500.37 17812.2 1504.12 Q17814.8 1507.84 17814.8 1514.95 Q17814.8 1521.59 17811.6 1525.56 Q17808.5 1529.51 17803.1 1529.51 Q17801.7 1529.51 17800.2 1529.22 Q17798.8 1528.94 17797.2 1528.38 M17804.7 1516.47 Q17807.3 1516.47 17808.8 1514.72 Q17810.3 1512.97 17810.3 1509.93 Q17810.3 1506.9 17808.8 1505.15 Q17807.3 1503.38 17804.7 1503.38 Q17802.2 1503.38 17800.7 1505.15 Q17799.2 1506.9 17799.2 1509.93 Q17799.2 1512.97 17800.7 1514.72 Q17802.2 1516.47 17804.7 1516.47 Z" fill="#000000" fill-rule="evenodd" fill-opacity="1" /><path clip-path="url(#clip470)" d="M26498.2 1552.44 L26505.8 1552.44 L26505.8 1526.07 L26497.5 1527.74 L26497.5 1523.48 L26505.8 1521.81 L26510.4 1521.81 L26510.4 1552.44 L26518.1 1552.44 L26518.1 1556.37 L26498.2 1556.37 L26498.2 1552.44 Z" fill="#000000" fill-rule="evenodd" fill-opacity="1" /><path clip-path="url(#clip470)" d="M26537.5 1524.89 Q26533.9 1524.89 26532.1 1528.46 Q26530.3 1532 26530.3 1539.13 Q26530.3 1546.23 26532.1 1549.8 Q26533.9 1553.34 26537.5 1553.34 Q26541.2 1553.34 26543 1549.8 Q26544.8 1546.23 26544.8 1539.13 Q26544.8 1532 26543 1528.46 Q26541.2 1524.89 26537.5 1524.89 M26537.5 1521.19 Q26543.3 1521.19 26546.4 1525.79 Q26549.5 1530.38 26549.5 1539.13 Q26549.5 1547.85 26546.4 1552.46 Q26543.3 1557.04 26537.5 1557.04 Q26531.7 1557.04 26528.6 1552.46 Q26525.6 1547.85 26525.6 1539.13 Q26525.6 1530.38 26528.6 1525.79 Q26531.7 1521.19 26537.5 1521.19 Z" fill="#000000" fill-rule="evenodd" fill-opacity="1" /><path clip-path="url(#clip470)" d="M26550 1525.76 L26556.2 1525.76 L26556.2 1504.34 L26549.5 1505.7 L26549.5 1502.24 L26556.2 1500.88 L26560 1500.88 L26560 1525.76 L26566.2 1525.76 L26566.2 1528.96 L26550 1528.96 L26550 1525.76 Z" fill="#000000" fill-rule="evenodd" fill-opacity="1" /><path clip-path="url(#clip470)" d="M26577.1 1525.76 L26590.4 1525.76 L26590.4 1528.96 L26572.6 1528.96 L26572.6 1525.76 Q26574.7 1523.53 26578.4 1519.76 Q26582.2 1515.98 26583.1 1514.89 Q26585 1512.84 26585.7 1511.43 Q26586.4 1510 26586.4 1508.63 Q26586.4 1506.39 26584.8 1504.98 Q26583.3 1503.57 26580.8 1503.57 Q26579 1503.57 26577 1504.19 Q26575 1504.81 26572.7 1506.07 L26572.7 1502.24 Q26575 1501.31 26577 1500.84 Q26579 1500.37 26580.7 1500.37 Q26585 1500.37 26587.6 1502.56 Q26590.2 1504.74 26590.2 1508.39 Q26590.2 1510.12 26589.6 1511.68 Q26588.9 1513.22 26587.2 1515.33 Q26586.8 1515.87 26584.2 1518.49 Q26581.7 1521.08 26577.1 1525.76 Z" fill="#000000" fill-rule="evenodd" fill-opacity="1" /><polyline clip-path="url(#clip472)" style="stroke:#000000; stroke-linecap:butt; stroke-linejoin:round; stroke-width:2; stroke-opacity:0.1; fill:none" points="
  188.104,1429.57 2352.76,1429.57 
  "/>
<polyline clip-path="url(#clip472)" style="stroke:#000000; stroke-linecap:butt; stroke-linejoin:round; stroke-width:2; stroke-opacity:0.1; fill:none" points="
  188.104,926.131 2352.76,926.131 
  "/>
<polyline clip-path="url(#clip472)" style="stroke:#000000; stroke-linecap:butt; stroke-linejoin:round; stroke-width:2; stroke-opacity:0.1; fill:none" points="
  188.104,422.691 2352.76,422.691 
  "/>
<polyline clip-path="url(#clip470)" style="stroke:#000000; stroke-linecap:butt; stroke-linejoin:round; stroke-width:4; stroke-opacity:1; fill:none" points="
  188.104,1474.16 188.104,47.2441 
  "/>
<polyline clip-path="url(#clip470)" style="stroke:#000000; stroke-linecap:butt; stroke-linejoin:round; stroke-width:4; stroke-opacity:1; fill:none" points="
  188.104,1429.57 207.002,1429.57 
  "/>
<polyline clip-path="url(#clip470)" style="stroke:#000000; stroke-linecap:butt; stroke-linejoin:round; stroke-width:4; stroke-opacity:1; fill:none" points="
  188.104,926.131 207.002,926.131 
  "/>
<polyline clip-path="url(#clip470)" style="stroke:#000000; stroke-linecap:butt; stroke-linejoin:round; stroke-width:4; stroke-opacity:1; fill:none" points="
  188.104,422.691 207.002,422.691 
  "/>
<path clip-path="url(#clip470)" d="M51.9643 1449.36 L59.6032 1449.36 L59.6032 1423 L51.2931 1424.66 L51.2931 1420.41 L59.5569 1418.74 L64.2328 1418.74 L64.2328 1449.36 L71.8716 1449.36 L71.8716 1453.3 L51.9643 1453.3 L51.9643 1449.36 Z" fill="#000000" fill-rule="evenodd" fill-opacity="1" /><path clip-path="url(#clip470)" d="M91.316 1421.82 Q87.7049 1421.82 85.8762 1425.38 Q84.0707 1428.92 84.0707 1436.05 Q84.0707 1443.16 85.8762 1446.72 Q87.7049 1450.27 91.316 1450.27 Q94.9502 1450.27 96.7558 1446.72 Q98.5845 1443.16 98.5845 1436.05 Q98.5845 1428.92 96.7558 1425.38 Q94.9502 1421.82 91.316 1421.82 M91.316 1418.11 Q97.1261 1418.11 100.182 1422.72 Q103.26 1427.3 103.26 1436.05 Q103.26 1444.78 100.182 1449.39 Q97.1261 1453.97 91.316 1453.97 Q85.5058 1453.97 82.4271 1449.39 Q79.3716 1444.78 79.3716 1436.05 Q79.3716 1427.3 82.4271 1422.72 Q85.5058 1418.11 91.316 1418.11 Z" fill="#000000" fill-rule="evenodd" fill-opacity="1" /><path clip-path="url(#clip470)" d="M103.26 1412.22 L127.372 1412.22 L127.372 1415.41 L103.26 1415.41 L103.26 1412.22 Z" fill="#000000" fill-rule="evenodd" fill-opacity="1" /><path clip-path="url(#clip470)" d="M138.845 1422.69 L152.104 1422.69 L152.104 1425.89 L134.274 1425.89 L134.274 1422.69 Q136.437 1420.45 140.161 1416.69 Q143.904 1412.91 144.863 1411.82 Q146.688 1409.77 147.402 1408.36 Q148.136 1406.93 148.136 1405.56 Q148.136 1403.32 146.556 1401.91 Q144.995 1400.5 142.475 1400.5 Q140.688 1400.5 138.694 1401.12 Q136.719 1401.74 134.462 1403 L134.462 1399.16 Q136.757 1398.24 138.751 1397.77 Q140.744 1397.3 142.399 1397.3 Q146.763 1397.3 149.358 1399.48 Q151.954 1401.66 151.954 1405.31 Q151.954 1407.04 151.295 1408.6 Q150.656 1410.15 148.944 1412.25 Q148.474 1412.8 145.954 1415.41 Q143.434 1418.01 138.845 1422.69 Z" fill="#000000" fill-rule="evenodd" fill-opacity="1" /><path clip-path="url(#clip470)" d="M51.6634 945.924 L59.3023 945.924 L59.3023 919.558 L50.9921 921.225 L50.9921 916.965 L59.256 915.299 L63.9319 915.299 L63.9319 945.924 L71.5707 945.924 L71.5707 949.859 L51.6634 949.859 L51.6634 945.924 Z" fill="#000000" fill-rule="evenodd" fill-opacity="1" /><path clip-path="url(#clip470)" d="M91.0151 918.378 Q87.404 918.378 85.5753 921.942 Q83.7697 925.484 83.7697 932.614 Q83.7697 939.72 85.5753 943.285 Q87.404 946.826 91.0151 946.826 Q94.6493 946.826 96.4548 943.285 Q98.2835 939.72 98.2835 932.614 Q98.2835 925.484 96.4548 921.942 Q94.6493 918.378 91.0151 918.378 M91.0151 914.674 Q96.8252 914.674 99.8808 919.28 Q102.959 923.864 102.959 932.614 Q102.959 941.34 99.8808 945.947 Q96.8252 950.53 91.0151 950.53 Q85.2049 950.53 82.1262 945.947 Q79.0707 941.34 79.0707 932.614 Q79.0707 923.864 82.1262 919.28 Q85.2049 914.674 91.0151 914.674 Z" fill="#000000" fill-rule="evenodd" fill-opacity="1" /><path clip-path="url(#clip470)" d="M102.959 908.775 L127.071 908.775 L127.071 911.972 L102.959 911.972 L102.959 908.775 Z" fill="#000000" fill-rule="evenodd" fill-opacity="1" /><path clip-path="url(#clip470)" d="M135.929 919.251 L142.136 919.251 L142.136 897.829 L135.384 899.183 L135.384 895.723 L142.098 894.368 L145.898 894.368 L145.898 919.251 L152.104 919.251 L152.104 922.448 L135.929 922.448 L135.929 919.251 Z" fill="#000000" fill-rule="evenodd" fill-opacity="1" /><path clip-path="url(#clip470)" d="M81.3985 442.484 L89.0374 442.484 L89.0374 416.118 L80.7272 417.785 L80.7272 413.525 L88.9911 411.859 L93.667 411.859 L93.667 442.484 L101.306 442.484 L101.306 446.419 L81.3985 446.419 L81.3985 442.484 Z" fill="#000000" fill-rule="evenodd" fill-opacity="1" /><path clip-path="url(#clip470)" d="M120.75 414.938 Q117.139 414.938 115.31 418.502 Q113.505 422.044 113.505 429.174 Q113.505 436.28 115.31 439.845 Q117.139 443.386 120.75 443.386 Q124.384 443.386 126.19 439.845 Q128.019 436.28 128.019 429.174 Q128.019 422.044 126.19 418.502 Q124.384 414.938 120.75 414.938 M120.75 411.234 Q126.56 411.234 129.616 415.84 Q132.695 420.424 132.695 429.174 Q132.695 437.9 129.616 442.507 Q126.56 447.09 120.75 447.09 Q114.94 447.09 111.861 442.507 Q108.806 437.9 108.806 429.174 Q108.806 420.424 111.861 415.84 Q114.94 411.234 120.75 411.234 Z" fill="#000000" fill-rule="evenodd" fill-opacity="1" /><path clip-path="url(#clip470)" d="M142.399 393.43 Q139.465 393.43 137.98 396.326 Q136.513 399.204 136.513 404.997 Q136.513 410.771 137.98 413.667 Q139.465 416.545 142.399 416.545 Q145.352 416.545 146.819 413.667 Q148.305 410.771 148.305 404.997 Q148.305 399.204 146.819 396.326 Q145.352 393.43 142.399 393.43 M142.399 390.421 Q147.12 390.421 149.603 394.163 Q152.104 397.887 152.104 404.997 Q152.104 412.087 149.603 415.83 Q147.12 419.554 142.399 419.554 Q137.679 419.554 135.177 415.83 Q132.695 412.087 132.695 404.997 Q132.695 397.887 135.177 394.163 Q137.679 390.421 142.399 390.421 Z" fill="#000000" fill-rule="evenodd" fill-opacity="1" /><circle clip-path="url(#clip472)" cx="249.368" cy="1433.78" r="14" fill="#009af9" fill-rule="evenodd" fill-opacity="1" stroke="#000000" stroke-opacity="1" stroke-width="3.2"/>
<circle clip-path="url(#clip472)" cx="1128.86" cy="783.771" r="14" fill="#009af9" fill-rule="evenodd" fill-opacity="1" stroke="#000000" stroke-opacity="1" stroke-width="3.2"/>
<circle clip-path="url(#clip472)" cx="1643.33" cy="783.514" r="14" fill="#009af9" fill-rule="evenodd" fill-opacity="1" stroke="#000000" stroke-opacity="1" stroke-width="3.2"/>
<circle clip-path="url(#clip472)" cx="2008.36" cy="604.059" r="14" fill="#009af9" fill-rule="evenodd" fill-opacity="1" stroke="#000000" stroke-opacity="1" stroke-width="3.2"/>
<circle clip-path="url(#clip472)" cx="2291.49" cy="467.826" r="14" fill="#009af9" fill-rule="evenodd" fill-opacity="1" stroke="#000000" stroke-opacity="1" stroke-width="3.2"/>
<polyline clip-path="url(#clip472)" style="stroke:#e26f46; stroke-linecap:butt; stroke-linejoin:round; stroke-width:4; stroke-opacity:1; fill:none" points="
  249.368,1143.3 1128.86,688.645 1643.33,422.691 2008.36,233.994 2291.49,87.6286 
  "/>
<path clip-path="url(#clip470)" d="
M1987.65 250.328 L2280.6 250.328 L2280.6 94.8081 L1987.65 94.8081  Z
  " fill="#ffffff" fill-rule="evenodd" fill-opacity="1"/>
<polyline clip-path="url(#clip470)" style="stroke:#000000; stroke-linecap:butt; stroke-linejoin:round; stroke-width:4; stroke-opacity:1; fill:none" points="
  1987.65,250.328 2280.6,250.328 2280.6,94.8081 1987.65,94.8081 1987.65,250.328 
  "/>
<circle clip-path="url(#clip470)" cx="2083.86" cy="146.648" r="23" fill="#009af9" fill-rule="evenodd" fill-opacity="1" stroke="#000000" stroke-opacity="1" stroke-width="5.12"/>
<path clip-path="url(#clip470)" d="M2193.91 166.336 Q2192.1 170.965 2190.39 172.377 Q2188.68 173.789 2185.81 173.789 L2182.41 173.789 L2182.41 170.224 L2184.91 170.224 Q2186.66 170.224 2187.64 169.391 Q2188.61 168.558 2189.79 165.456 L2190.55 163.511 L2180.07 138.002 L2184.58 138.002 L2192.68 158.28 L2200.78 138.002 L2205.3 138.002 L2193.91 166.336 Z" fill="#000000" fill-rule="evenodd" fill-opacity="1" /><path clip-path="url(#clip470)" d="M2212.59 159.993 L2220.23 159.993 L2220.23 133.627 L2211.92 135.294 L2211.92 131.035 L2220.18 129.368 L2224.86 129.368 L2224.86 159.993 L2232.5 159.993 L2232.5 163.928 L2212.59 163.928 L2212.59 159.993 Z" fill="#000000" fill-rule="evenodd" fill-opacity="1" /><polyline clip-path="url(#clip470)" style="stroke:#e26f46; stroke-linecap:butt; stroke-linejoin:round; stroke-width:4; stroke-opacity:1; fill:none" points="
  2011.71,198.488 2156.02,198.488 
  "/>
<path clip-path="url(#clip470)" d="M2193.91 218.176 Q2192.1 222.805 2190.39 224.217 Q2188.68 225.629 2185.81 225.629 L2182.41 225.629 L2182.41 222.064 L2184.91 222.064 Q2186.66 222.064 2187.64 221.231 Q2188.61 220.398 2189.79 217.296 L2190.55 215.351 L2180.07 189.842 L2184.58 189.842 L2192.68 210.12 L2200.78 189.842 L2205.3 189.842 L2193.91 218.176 Z" fill="#000000" fill-rule="evenodd" fill-opacity="1" /><path clip-path="url(#clip470)" d="M2215.81 211.833 L2232.13 211.833 L2232.13 215.768 L2210.18 215.768 L2210.18 211.833 Q2212.84 209.078 2217.43 204.449 Q2222.03 199.796 2223.22 198.453 Q2225.46 195.93 2226.34 194.194 Q2227.24 192.435 2227.24 190.745 Q2227.24 187.99 2225.3 186.254 Q2223.38 184.518 2220.28 184.518 Q2218.08 184.518 2215.62 185.282 Q2213.19 186.046 2210.41 187.597 L2210.41 182.875 Q2213.24 181.741 2215.69 181.162 Q2218.15 180.583 2220.18 180.583 Q2225.55 180.583 2228.75 183.268 Q2231.94 185.953 2231.94 190.444 Q2231.94 192.574 2231.13 194.495 Q2230.34 196.393 2228.24 198.986 Q2227.66 199.657 2224.56 202.875 Q2221.46 206.069 2215.81 211.833 Z" fill="#000000" fill-rule="evenodd" fill-opacity="1" /></svg>
