<?xml version="1.0" encoding="utf-8"?>
<svg xmlns="http://www.w3.org/2000/svg" xmlns:xlink="http://www.w3.org/1999/xlink" width="600" height="400" viewBox="0 0 2400 1600">
<defs>
  <clipPath id="clip990">
    <rect x="0" y="0" width="2400" height="1600"/>
  </clipPath>
</defs>
<path clip-path="url(#clip990)" d="
M0 1600 L2400 1600 L2400 0 L0 0  Z
  " fill="#ffffff" fill-rule="evenodd" fill-opacity="1"/>
<defs>
  <clipPath id="clip991">
    <rect x="480" y="0" width="1681" height="1600"/>
  </clipPath>
</defs>
<path clip-path="url(#clip990)" d="
M193.936 1486.45 L2112.76 1486.45 L2112.76 47.2441 L193.936 47.2441  Z
  " fill="#ffffff" fill-rule="evenodd" fill-opacity="1"/>
<defs>
  <clipPath id="clip992">
    <rect x="193" y="47" width="1920" height="1440"/>
  </clipPath>
</defs>
<polyline clip-path="url(#clip992)" style="stroke:#000000; stroke-linecap:butt; stroke-linejoin:round; stroke-width:2; stroke-opacity:0.1; fill:none" points="
  248.242,1486.45 248.242,47.2441 
  "/>
<polyline clip-path="url(#clip992)" style="stroke:#000000; stroke-linecap:butt; stroke-linejoin:round; stroke-width:2; stroke-opacity:0.1; fill:none" points="
  700.794,1486.45 700.794,47.2441 
  "/>
<polyline clip-path="url(#clip992)" style="stroke:#000000; stroke-linecap:butt; stroke-linejoin:round; stroke-width:2; stroke-opacity:0.1; fill:none" points="
  1153.35,1486.45 1153.35,47.2441 
  "/>
<polyline clip-path="url(#clip992)" style="stroke:#000000; stroke-linecap:butt; stroke-linejoin:round; stroke-width:2; stroke-opacity:0.1; fill:none" points="
  1605.9,1486.45 1605.9,47.2441 
  "/>
<polyline clip-path="url(#clip992)" style="stroke:#000000; stroke-linecap:butt; stroke-linejoin:round; stroke-width:2; stroke-opacity:0.1; fill:none" points="
  2058.45,1486.45 2058.45,47.2441 
  "/>
<polyline clip-path="url(#clip990)" style="stroke:#000000; stroke-linecap:butt; stroke-linejoin:round; stroke-width:4; stroke-opacity:1; fill:none" points="
  193.936,1486.45 2112.76,1486.45 
  "/>
<polyline clip-path="url(#clip990)" style="stroke:#000000; stroke-linecap:butt; stroke-linejoin:round; stroke-width:4; stroke-opacity:1; fill:none" points="
  248.242,1486.45 248.242,1467.55 
  "/>
<polyline clip-path="url(#clip990)" style="stroke:#000000; stroke-linecap:butt; stroke-linejoin:round; stroke-width:4; stroke-opacity:1; fill:none" points="
  700.794,1486.45 700.794,1467.55 
  "/>
<polyline clip-path="url(#clip990)" style="stroke:#000000; stroke-linecap:butt; stroke-linejoin:round; stroke-width:4; stroke-opacity:1; fill:none" points="
  1153.35,1486.45 1153.35,1467.55 
  "/>
<polyline clip-path="url(#clip990)" style="stroke:#000000; stroke-linecap:butt; stroke-linejoin:round; stroke-width:4; stroke-opacity:1; fill:none" points="
  1605.9,1486.45 1605.9,1467.55 
  "/>
<polyline clip-path="url(#clip990)" style="stroke:#000000; stroke-linecap:butt; stroke-linejoin:round; stroke-width:4; stroke-opacity:1; fill:none" points="
  2058.45,1486.45 2058.45,1467.55 
  "/>
<path clip-path="url(#clip990)" d="M194.77 1530.29 L224.446 1530.29 L224.446 1534.23 L194.77 1534.23 L194.77 1530.29 Z" fill="#000000" fill-rule="evenodd" fill-opacity="1" /><path clip-path="url(#clip990)" d="M235.349 1543.18 L242.988 1543.18 L242.988 1516.82 L234.677 1518.49 L234.677 1514.23 L242.941 1512.56 L247.617 1512.56 L247.617 1543.18 L255.256 1543.18 L255.256 1547.12 L235.349 1547.12 L235.349 1543.18 Z" fill="#000000" fill-rule="evenodd" fill-opacity="1" /><path clip-path="url(#clip990)" d="M264.7 1541.24 L269.585 1541.24 L269.585 1547.12 L264.7 1547.12 L264.7 1541.24 Z" fill="#000000" fill-rule="evenodd" fill-opacity="1" /><path clip-path="url(#clip990)" d="M289.77 1515.64 Q286.159 1515.64 284.33 1519.2 Q282.524 1522.75 282.524 1529.87 Q282.524 1536.98 284.33 1540.55 Q286.159 1544.09 289.77 1544.09 Q293.404 1544.09 295.21 1540.55 Q297.038 1536.98 297.038 1529.87 Q297.038 1522.75 295.21 1519.2 Q293.404 1515.64 289.77 1515.64 M289.77 1511.93 Q295.58 1511.93 298.635 1516.54 Q301.714 1521.12 301.714 1529.87 Q301.714 1538.6 298.635 1543.21 Q295.58 1547.79 289.77 1547.79 Q283.96 1547.79 280.881 1543.21 Q277.825 1538.6 277.825 1529.87 Q277.825 1521.12 280.881 1516.54 Q283.96 1511.93 289.77 1511.93 Z" fill="#000000" fill-rule="evenodd" fill-opacity="1" /><path clip-path="url(#clip990)" d="M647.82 1530.29 L677.496 1530.29 L677.496 1534.23 L647.82 1534.23 L647.82 1530.29 Z" fill="#000000" fill-rule="evenodd" fill-opacity="1" /><path clip-path="url(#clip990)" d="M697.588 1515.64 Q693.977 1515.64 692.148 1519.2 Q690.343 1522.75 690.343 1529.87 Q690.343 1536.98 692.148 1540.55 Q693.977 1544.09 697.588 1544.09 Q701.222 1544.09 703.028 1540.55 Q704.857 1536.98 704.857 1529.87 Q704.857 1522.75 703.028 1519.2 Q701.222 1515.64 697.588 1515.64 M697.588 1511.93 Q703.398 1511.93 706.454 1516.54 Q709.532 1521.12 709.532 1529.87 Q709.532 1538.6 706.454 1543.21 Q703.398 1547.79 697.588 1547.79 Q691.778 1547.79 688.699 1543.21 Q685.644 1538.6 685.644 1529.87 Q685.644 1521.12 688.699 1516.54 Q691.778 1511.93 697.588 1511.93 Z" fill="#000000" fill-rule="evenodd" fill-opacity="1" /><path clip-path="url(#clip990)" d="M717.75 1541.24 L722.634 1541.24 L722.634 1547.12 L717.75 1547.12 L717.75 1541.24 Z" fill="#000000" fill-rule="evenodd" fill-opacity="1" /><path clip-path="url(#clip990)" d="M732.866 1512.56 L751.222 1512.56 L751.222 1516.5 L737.148 1516.5 L737.148 1524.97 Q738.167 1524.62 739.185 1524.46 Q740.204 1524.27 741.222 1524.27 Q747.009 1524.27 750.389 1527.44 Q753.768 1530.62 753.768 1536.03 Q753.768 1541.61 750.296 1544.71 Q746.824 1547.79 740.505 1547.79 Q738.329 1547.79 736.06 1547.42 Q733.815 1547.05 731.407 1546.31 L731.407 1541.61 Q733.491 1542.74 735.713 1543.3 Q737.935 1543.86 740.412 1543.86 Q744.417 1543.86 746.754 1541.75 Q749.092 1539.64 749.092 1536.03 Q749.092 1532.42 746.754 1530.31 Q744.417 1528.21 740.412 1528.21 Q738.537 1528.21 736.662 1528.62 Q734.81 1529.04 732.866 1529.92 L732.866 1512.56 Z" fill="#000000" fill-rule="evenodd" fill-opacity="1" /><path clip-path="url(#clip990)" d="M1130.73 1515.64 Q1127.12 1515.64 1125.29 1519.2 Q1123.49 1522.75 1123.49 1529.87 Q1123.49 1536.98 1125.29 1540.55 Q1127.12 1544.09 1130.73 1544.09 Q1134.36 1544.09 1136.17 1540.55 Q1138 1536.98 1138 1529.87 Q1138 1522.75 1136.17 1519.2 Q1134.36 1515.64 1130.73 1515.64 M1130.73 1511.93 Q1136.54 1511.93 1139.6 1516.54 Q1142.67 1521.12 1142.67 1529.87 Q1142.67 1538.6 1139.6 1543.21 Q1136.54 1547.79 1130.73 1547.79 Q1124.92 1547.79 1121.84 1543.21 Q1118.79 1538.6 1118.79 1529.87 Q1118.79 1521.12 1121.84 1516.54 Q1124.92 1511.93 1130.73 1511.93 Z" fill="#000000" fill-rule="evenodd" fill-opacity="1" /><path clip-path="url(#clip990)" d="M1150.89 1541.24 L1155.78 1541.24 L1155.78 1547.12 L1150.89 1547.12 L1150.89 1541.24 Z" fill="#000000" fill-rule="evenodd" fill-opacity="1" /><path clip-path="url(#clip990)" d="M1175.96 1515.64 Q1172.35 1515.64 1170.52 1519.2 Q1168.72 1522.75 1168.72 1529.87 Q1168.72 1536.98 1170.52 1540.55 Q1172.35 1544.09 1175.96 1544.09 Q1179.6 1544.09 1181.4 1540.55 Q1183.23 1536.98 1183.23 1529.87 Q1183.23 1522.75 1181.4 1519.2 Q1179.6 1515.64 1175.96 1515.64 M1175.96 1511.93 Q1181.77 1511.93 1184.83 1516.54 Q1187.91 1521.12 1187.91 1529.87 Q1187.91 1538.6 1184.83 1543.21 Q1181.77 1547.79 1175.96 1547.79 Q1170.15 1547.79 1167.07 1543.21 Q1164.02 1538.6 1164.02 1529.87 Q1164.02 1521.12 1167.07 1516.54 Q1170.15 1511.93 1175.96 1511.93 Z" fill="#000000" fill-rule="evenodd" fill-opacity="1" /><path clip-path="url(#clip990)" d="M1583.78 1515.64 Q1580.17 1515.64 1578.34 1519.2 Q1576.53 1522.75 1576.53 1529.87 Q1576.53 1536.98 1578.34 1540.55 Q1580.17 1544.09 1583.78 1544.09 Q1587.41 1544.09 1589.22 1540.55 Q1591.05 1536.98 1591.05 1529.87 Q1591.05 1522.75 1589.22 1519.2 Q1587.41 1515.64 1583.78 1515.64 M1583.78 1511.93 Q1589.59 1511.93 1592.65 1516.54 Q1595.72 1521.12 1595.72 1529.87 Q1595.72 1538.6 1592.65 1543.21 Q1589.59 1547.79 1583.78 1547.79 Q1577.97 1547.79 1574.89 1543.21 Q1571.84 1538.6 1571.84 1529.87 Q1571.84 1521.12 1574.89 1516.54 Q1577.97 1511.93 1583.78 1511.93 Z" fill="#000000" fill-rule="evenodd" fill-opacity="1" /><path clip-path="url(#clip990)" d="M1603.94 1541.24 L1608.83 1541.24 L1608.83 1547.12 L1603.94 1547.12 L1603.94 1541.24 Z" fill="#000000" fill-rule="evenodd" fill-opacity="1" /><path clip-path="url(#clip990)" d="M1619.06 1512.56 L1637.41 1512.56 L1637.41 1516.5 L1623.34 1516.5 L1623.34 1524.97 Q1624.36 1524.62 1625.38 1524.46 Q1626.4 1524.27 1627.41 1524.27 Q1633.2 1524.27 1636.58 1527.44 Q1639.96 1530.62 1639.96 1536.03 Q1639.96 1541.61 1636.49 1544.71 Q1633.02 1547.79 1626.7 1547.79 Q1624.52 1547.79 1622.25 1547.42 Q1620.01 1547.05 1617.6 1546.31 L1617.6 1541.61 Q1619.68 1542.74 1621.9 1543.3 Q1624.13 1543.86 1626.6 1543.86 Q1630.61 1543.86 1632.95 1541.75 Q1635.28 1539.64 1635.28 1536.03 Q1635.28 1532.42 1632.95 1530.31 Q1630.61 1528.21 1626.6 1528.21 Q1624.73 1528.21 1622.85 1528.62 Q1621 1529.04 1619.06 1529.92 L1619.06 1512.56 Z" fill="#000000" fill-rule="evenodd" fill-opacity="1" /><path clip-path="url(#clip990)" d="M2025.6 1543.18 L2033.24 1543.18 L2033.24 1516.82 L2024.93 1518.49 L2024.93 1514.23 L2033.2 1512.56 L2037.87 1512.56 L2037.87 1543.18 L2045.51 1543.18 L2045.51 1547.12 L2025.6 1547.12 L2025.6 1543.18 Z" fill="#000000" fill-rule="evenodd" fill-opacity="1" /><path clip-path="url(#clip990)" d="M2054.95 1541.24 L2059.84 1541.24 L2059.84 1547.12 L2054.95 1547.12 L2054.95 1541.24 Z" fill="#000000" fill-rule="evenodd" fill-opacity="1" /><path clip-path="url(#clip990)" d="M2080.02 1515.64 Q2076.41 1515.64 2074.58 1519.2 Q2072.78 1522.75 2072.78 1529.87 Q2072.78 1536.98 2074.58 1540.55 Q2076.41 1544.09 2080.02 1544.09 Q2083.66 1544.09 2085.46 1540.55 Q2087.29 1536.98 2087.29 1529.87 Q2087.29 1522.75 2085.46 1519.2 Q2083.66 1515.64 2080.02 1515.64 M2080.02 1511.93 Q2085.83 1511.93 2088.89 1516.54 Q2091.97 1521.12 2091.97 1529.87 Q2091.97 1538.6 2088.89 1543.21 Q2085.83 1547.79 2080.02 1547.79 Q2074.21 1547.79 2071.13 1543.21 Q2068.08 1538.6 2068.08 1529.87 Q2068.08 1521.12 2071.13 1516.54 Q2074.21 1511.93 2080.02 1511.93 Z" fill="#000000" fill-rule="evenodd" fill-opacity="1" /><polyline clip-path="url(#clip992)" style="stroke:#000000; stroke-linecap:butt; stroke-linejoin:round; stroke-width:2; stroke-opacity:0.1; fill:none" points="
  193.936,1445.72 2112.76,1445.72 
  "/>
<polyline clip-path="url(#clip992)" style="stroke:#000000; stroke-linecap:butt; stroke-linejoin:round; stroke-width:2; stroke-opacity:0.1; fill:none" points="
  193.936,1106.28 2112.76,1106.28 
  "/>
<polyline clip-path="url(#clip992)" style="stroke:#000000; stroke-linecap:butt; stroke-linejoin:round; stroke-width:2; stroke-opacity:0.1; fill:none" points="
  193.936,766.846 2112.76,766.846 
  "/>
<polyline clip-path="url(#clip992)" style="stroke:#000000; stroke-linecap:butt; stroke-linejoin:round; stroke-width:2; stroke-opacity:0.1; fill:none" points="
  193.936,427.411 2112.76,427.411 
  "/>
<polyline clip-path="url(#clip992)" style="stroke:#000000; stroke-linecap:butt; stroke-linejoin:round; stroke-width:2; stroke-opacity:0.1; fill:none" points="
  193.936,87.9763 2112.76,87.9763 
  "/>
<polyline clip-path="url(#clip990)" style="stroke:#000000; stroke-linecap:butt; stroke-linejoin:round; stroke-width:4; stroke-opacity:1; fill:none" points="
  193.936,1486.45 193.936,47.2441 
  "/>
<polyline clip-path="url(#clip990)" style="stroke:#000000; stroke-linecap:butt; stroke-linejoin:round; stroke-width:4; stroke-opacity:1; fill:none" points="
  193.936,1445.72 210.733,1445.72 
  "/>
<polyline clip-path="url(#clip990)" style="stroke:#000000; stroke-linecap:butt; stroke-linejoin:round; stroke-width:4; stroke-opacity:1; fill:none" points="
  193.936,1106.28 210.733,1106.28 
  "/>
<polyline clip-path="url(#clip990)" style="stroke:#000000; stroke-linecap:butt; stroke-linejoin:round; stroke-width:4; stroke-opacity:1; fill:none" points="
  193.936,766.846 210.733,766.846 
  "/>
<polyline clip-path="url(#clip990)" style="stroke:#000000; stroke-linecap:butt; stroke-linejoin:round; stroke-width:4; stroke-opacity:1; fill:none" points="
  193.936,427.411 210.733,427.411 
  "/>
<polyline clip-path="url(#clip990)" style="stroke:#000000; stroke-linecap:butt; stroke-linejoin:round; stroke-width:4; stroke-opacity:1; fill:none" points="
  193.936,87.9763 210.733,87.9763 
  "/>
<path clip-path="url(#clip990)" d="M50.9921 1446.17 L80.6679 1446.17 L80.6679 1450.1 L50.9921 1450.1 L50.9921 1446.17 Z" fill="#000000" fill-rule="evenodd" fill-opacity="1" /><path clip-path="url(#clip990)" d="M91.5706 1459.06 L99.2095 1459.06 L99.2095 1432.69 L90.8993 1434.36 L90.8993 1430.1 L99.1632 1428.44 L103.839 1428.44 L103.839 1459.06 L111.478 1459.06 L111.478 1463 L91.5706 1463 L91.5706 1459.06 Z" fill="#000000" fill-rule="evenodd" fill-opacity="1" /><path clip-path="url(#clip990)" d="M120.922 1457.12 L125.807 1457.12 L125.807 1463 L120.922 1463 L120.922 1457.12 Z" fill="#000000" fill-rule="evenodd" fill-opacity="1" /><path clip-path="url(#clip990)" d="M145.992 1431.51 Q142.381 1431.51 140.552 1435.08 Q138.746 1438.62 138.746 1445.75 Q138.746 1452.86 140.552 1456.42 Q142.381 1459.96 145.992 1459.96 Q149.626 1459.96 151.431 1456.42 Q153.26 1452.86 153.26 1445.75 Q153.26 1438.62 151.431 1435.08 Q149.626 1431.51 145.992 1431.51 M145.992 1427.81 Q151.802 1427.81 154.857 1432.42 Q157.936 1437 157.936 1445.75 Q157.936 1454.48 154.857 1459.08 Q151.802 1463.67 145.992 1463.67 Q140.181 1463.67 137.103 1459.08 Q134.047 1454.48 134.047 1445.75 Q134.047 1437 137.103 1432.42 Q140.181 1427.81 145.992 1427.81 Z" fill="#000000" fill-rule="evenodd" fill-opacity="1" /><path clip-path="url(#clip990)" d="M51.9875 1106.73 L81.6633 1106.73 L81.6633 1110.67 L51.9875 1110.67 L51.9875 1106.73 Z" fill="#000000" fill-rule="evenodd" fill-opacity="1" /><path clip-path="url(#clip990)" d="M101.756 1092.08 Q98.1447 1092.08 96.316 1095.64 Q94.5104 1099.19 94.5104 1106.32 Q94.5104 1113.42 96.316 1116.99 Q98.1447 1120.53 101.756 1120.53 Q105.39 1120.53 107.196 1116.99 Q109.024 1113.42 109.024 1106.32 Q109.024 1099.19 107.196 1095.64 Q105.39 1092.08 101.756 1092.08 M101.756 1088.38 Q107.566 1088.38 110.621 1092.98 Q113.7 1097.57 113.7 1106.32 Q113.7 1115.04 110.621 1119.65 Q107.566 1124.23 101.756 1124.23 Q95.9456 1124.23 92.8669 1119.65 Q89.8114 1115.04 89.8114 1106.32 Q89.8114 1097.57 92.8669 1092.98 Q95.9456 1088.38 101.756 1088.38 Z" fill="#000000" fill-rule="evenodd" fill-opacity="1" /><path clip-path="url(#clip990)" d="M121.918 1117.68 L126.802 1117.68 L126.802 1123.56 L121.918 1123.56 L121.918 1117.68 Z" fill="#000000" fill-rule="evenodd" fill-opacity="1" /><path clip-path="url(#clip990)" d="M137.033 1089 L155.39 1089 L155.39 1092.94 L141.316 1092.94 L141.316 1101.41 Q142.334 1101.06 143.353 1100.9 Q144.371 1100.71 145.39 1100.71 Q151.177 1100.71 154.556 1103.89 Q157.936 1107.06 157.936 1112.47 Q157.936 1118.05 154.464 1121.15 Q150.992 1124.23 144.672 1124.23 Q142.496 1124.23 140.228 1123.86 Q137.982 1123.49 135.575 1122.75 L135.575 1118.05 Q137.658 1119.19 139.881 1119.74 Q142.103 1120.3 144.58 1120.3 Q148.584 1120.3 150.922 1118.19 Q153.26 1116.08 153.26 1112.47 Q153.26 1108.86 150.922 1106.76 Q148.584 1104.65 144.58 1104.65 Q142.705 1104.65 140.83 1105.07 Q138.978 1105.48 137.033 1106.36 L137.033 1089 Z" fill="#000000" fill-rule="evenodd" fill-opacity="1" /><path clip-path="url(#clip990)" d="M100.76 752.645 Q97.1493 752.645 95.3206 756.209 Q93.515 759.751 93.515 766.881 Q93.515 773.987 95.3206 777.552 Q97.1493 781.094 100.76 781.094 Q104.395 781.094 106.2 777.552 Q108.029 773.987 108.029 766.881 Q108.029 759.751 106.2 756.209 Q104.395 752.645 100.76 752.645 M100.76 748.941 Q106.571 748.941 109.626 753.547 Q112.705 758.131 112.705 766.881 Q112.705 775.608 109.626 780.214 Q106.571 784.797 100.76 784.797 Q94.9502 784.797 91.8715 780.214 Q88.816 775.608 88.816 766.881 Q88.816 758.131 91.8715 753.547 Q94.9502 748.941 100.76 748.941 Z" fill="#000000" fill-rule="evenodd" fill-opacity="1" /><path clip-path="url(#clip990)" d="M120.922 778.246 L125.807 778.246 L125.807 784.126 L120.922 784.126 L120.922 778.246 Z" fill="#000000" fill-rule="evenodd" fill-opacity="1" /><path clip-path="url(#clip990)" d="M145.992 752.645 Q142.381 752.645 140.552 756.209 Q138.746 759.751 138.746 766.881 Q138.746 773.987 140.552 777.552 Q142.381 781.094 145.992 781.094 Q149.626 781.094 151.431 777.552 Q153.26 773.987 153.26 766.881 Q153.26 759.751 151.431 756.209 Q149.626 752.645 145.992 752.645 M145.992 748.941 Q151.802 748.941 154.857 753.547 Q157.936 758.131 157.936 766.881 Q157.936 775.608 154.857 780.214 Q151.802 784.797 145.992 784.797 Q140.181 784.797 137.103 780.214 Q134.047 775.608 134.047 766.881 Q134.047 758.131 137.103 753.547 Q140.181 748.941 145.992 748.941 Z" fill="#000000" fill-rule="evenodd" fill-opacity="1" /><path clip-path="url(#clip990)" d="M101.756 413.21 Q98.1447 413.21 96.316 416.775 Q94.5104 420.316 94.5104 427.446 Q94.5104 434.552 96.316 438.117 Q98.1447 441.659 101.756 441.659 Q105.39 441.659 107.196 438.117 Q109.024 434.552 109.024 427.446 Q109.024 420.316 107.196 416.775 Q105.39 413.21 101.756 413.21 M101.756 409.506 Q107.566 409.506 110.621 414.113 Q113.7 418.696 113.7 427.446 Q113.7 436.173 110.621 440.779 Q107.566 445.362 101.756 445.362 Q95.9456 445.362 92.8669 440.779 Q89.8114 436.173 89.8114 427.446 Q89.8114 418.696 92.8669 414.113 Q95.9456 409.506 101.756 409.506 Z" fill="#000000" fill-rule="evenodd" fill-opacity="1" /><path clip-path="url(#clip990)" d="M121.918 438.812 L126.802 438.812 L126.802 444.691 L121.918 444.691 L121.918 438.812 Z" fill="#000000" fill-rule="evenodd" fill-opacity="1" /><path clip-path="url(#clip990)" d="M137.033 410.131 L155.39 410.131 L155.39 414.066 L141.316 414.066 L141.316 422.538 Q142.334 422.191 143.353 422.029 Q144.371 421.844 145.39 421.844 Q151.177 421.844 154.556 425.015 Q157.936 428.187 157.936 433.603 Q157.936 439.182 154.464 442.284 Q150.992 445.362 144.672 445.362 Q142.496 445.362 140.228 444.992 Q137.982 444.622 135.575 443.881 L135.575 439.182 Q137.658 440.316 139.881 440.872 Q142.103 441.427 144.58 441.427 Q148.584 441.427 150.922 439.321 Q153.26 437.214 153.26 433.603 Q153.26 429.992 150.922 427.886 Q148.584 425.779 144.58 425.779 Q142.705 425.779 140.83 426.196 Q138.978 426.613 137.033 427.492 L137.033 410.131 Z" fill="#000000" fill-rule="evenodd" fill-opacity="1" /><path clip-path="url(#clip990)" d="M91.5706 101.321 L99.2095 101.321 L99.2095 74.9555 L90.8993 76.6222 L90.8993 72.3629 L99.1632 70.6963 L103.839 70.6963 L103.839 101.321 L111.478 101.321 L111.478 105.256 L91.5706 105.256 L91.5706 101.321 Z" fill="#000000" fill-rule="evenodd" fill-opacity="1" /><path clip-path="url(#clip990)" d="M120.922 99.3767 L125.807 99.3767 L125.807 105.256 L120.922 105.256 L120.922 99.3767 Z" fill="#000000" fill-rule="evenodd" fill-opacity="1" /><path clip-path="url(#clip990)" d="M145.992 73.775 Q142.381 73.775 140.552 77.3398 Q138.746 80.8814 138.746 88.011 Q138.746 95.1174 140.552 98.6822 Q142.381 102.224 145.992 102.224 Q149.626 102.224 151.431 98.6822 Q153.26 95.1174 153.26 88.011 Q153.26 80.8814 151.431 77.3398 Q149.626 73.775 145.992 73.775 M145.992 70.0713 Q151.802 70.0713 154.857 74.6777 Q157.936 79.261 157.936 88.011 Q157.936 96.7378 154.857 101.344 Q151.802 105.928 145.992 105.928 Q140.181 105.928 137.103 101.344 Q134.047 96.7378 134.047 88.011 Q134.047 79.261 137.103 74.6777 Q140.181 70.0713 145.992 70.0713 Z" fill="#000000" fill-rule="evenodd" fill-opacity="1" /><polyline clip-path="url(#clip992)" style="stroke:#009af9; stroke-linecap:butt; stroke-linejoin:round; stroke-width:16; stroke-opacity:1; fill:none" points="
  1967.94,155.863 1805.02,1194.53 1796.87,559.112 1704.83,939.754 1672.73,704.465 1612.48,843.231 1576.75,755.452 1532.89,805.44 1500.08,772.157 1466.11,789.666 
  1437.88,776.613 1410.73,782.327 1387.05,776.862 1365.02,778.365 1345.39,775.811 1327.38,775.871 1311.18,774.484 1296.41,774.101 1283.07,773.224 1270.95,772.75 
  1259.98,772.125 1250.02,771.677 1241,771.198 1232.81,770.809 1225.39,770.429 1218.67,770.1 1212.57,769.793 1207.04,769.52 1202.03,769.269 1197.48,769.043 
  1193.36,768.838 1189.62,768.652 1186.24,768.483 1183.17,768.331 1180.38,768.192 1177.86,768.066 1175.57,767.952 1173.49,767.849 1171.61,767.755 1169.91,767.67 
  1168.36,767.594 1166.96,767.524 1165.69,767.46 1164.54,767.403 1163.49,767.351 1162.54,767.304 1161.69,767.261 1160.91,767.222 1160.2,767.187 1159.56,767.155 
  1158.98,767.127 1158.45,767.1 1157.98,767.077 1157.55,767.055 1157.15,767.036 1156.8,767.018 1156.48,767.002 1156.18,766.987 1155.92,766.974 1155.68,766.962 
  1155.46,766.951 1155.26,766.941 1155.08,766.933 1154.92,766.924 1154.77,766.917 1154.64,766.91 1154.52,766.904 1154.41,766.899 1154.31,766.894 1154.22,766.89 
  1154.14,766.885 1154.07,766.882 1154,766.878 1153.94,766.875 1153.88,766.873 1153.83,766.87 1153.79,766.868 1153.75,766.866 1153.71,766.864 1153.67,766.862 
  1153.64,766.861 1153.62,766.859 1153.59,766.858 1153.57,766.857 1153.55,766.856 1153.53,766.855 1153.51,766.854 1153.5,766.853 1153.48,766.853 1153.47,766.852 
  1153.46,766.852 1153.45,766.851 1153.44,766.851 1153.43,766.85 1153.42,766.85 1153.41,766.849 1153.41,766.849 1153.4,766.849 1153.4,766.849 1153.39,766.848 
  1153.39,766.848 1153.38,766.848 1153.38,766.848 1153.38,766.848 1153.37,766.847 1153.37,766.847 1153.37,766.847 1153.37,766.847 1153.37,766.847 1153.36,766.847 
  1153.36,766.847 1153.36,766.847 1153.36,766.847 1153.36,766.847 1153.36,766.847 1153.36,766.846 1153.35,766.846 
  "/>
<circle clip-path="url(#clip992)" cx="1967.94" cy="155.863" r="14" fill="#009af9" fill-rule="evenodd" fill-opacity="1" stroke="#000000" stroke-opacity="1" stroke-width="3.2"/>
<circle clip-path="url(#clip992)" cx="1805.02" cy="1194.53" r="14" fill="#009af9" fill-rule="evenodd" fill-opacity="1" stroke="#000000" stroke-opacity="1" stroke-width="3.2"/>
<circle clip-path="url(#clip992)" cx="1796.87" cy="559.112" r="14" fill="#009af9" fill-rule="evenodd" fill-opacity="1" stroke="#000000" stroke-opacity="1" stroke-width="3.2"/>
<circle clip-path="url(#clip992)" cx="1704.83" cy="939.754" r="14" fill="#009af9" fill-rule="evenodd" fill-opacity="1" stroke="#000000" stroke-opacity="1" stroke-width="3.2"/>
<circle clip-path="url(#clip992)" cx="1672.73" cy="704.465" r="14" fill="#009af9" fill-rule="evenodd" fill-opacity="1" stroke="#000000" stroke-opacity="1" stroke-width="3.2"/>
<circle clip-path="url(#clip992)" cx="1612.48" cy="843.231" r="14" fill="#009af9" fill-rule="evenodd" fill-opacity="1" stroke="#000000" stroke-opacity="1" stroke-width="3.2"/>
<circle clip-path="url(#clip992)" cx="1576.75" cy="755.452" r="14" fill="#009af9" fill-rule="evenodd" fill-opacity="1" stroke="#000000" stroke-opacity="1" stroke-width="3.2"/>
<circle clip-path="url(#clip992)" cx="1532.89" cy="805.44" r="14" fill="#009af9" fill-rule="evenodd" fill-opacity="1" stroke="#000000" stroke-opacity="1" stroke-width="3.2"/>
<circle clip-path="url(#clip992)" cx="1500.08" cy="772.157" r="14" fill="#009af9" fill-rule="evenodd" fill-opacity="1" stroke="#000000" stroke-opacity="1" stroke-width="3.2"/>
<circle clip-path="url(#clip992)" cx="1466.11" cy="789.666" r="14" fill="#009af9" fill-rule="evenodd" fill-opacity="1" stroke="#000000" stroke-opacity="1" stroke-width="3.2"/>
<circle clip-path="url(#clip992)" cx="1437.88" cy="776.613" r="14" fill="#009af9" fill-rule="evenodd" fill-opacity="1" stroke="#000000" stroke-opacity="1" stroke-width="3.2"/>
<circle clip-path="url(#clip992)" cx="1410.73" cy="782.327" r="14" fill="#009af9" fill-rule="evenodd" fill-opacity="1" stroke="#000000" stroke-opacity="1" stroke-width="3.2"/>
<circle clip-path="url(#clip992)" cx="1387.05" cy="776.862" r="14" fill="#009af9" fill-rule="evenodd" fill-opacity="1" stroke="#000000" stroke-opacity="1" stroke-width="3.2"/>
<circle clip-path="url(#clip992)" cx="1365.02" cy="778.365" r="14" fill="#009af9" fill-rule="evenodd" fill-opacity="1" stroke="#000000" stroke-opacity="1" stroke-width="3.2"/>
<circle clip-path="url(#clip992)" cx="1345.39" cy="775.811" r="14" fill="#009af9" fill-rule="evenodd" fill-opacity="1" stroke="#000000" stroke-opacity="1" stroke-width="3.2"/>
<circle clip-path="url(#clip992)" cx="1327.38" cy="775.871" r="14" fill="#009af9" fill-rule="evenodd" fill-opacity="1" stroke="#000000" stroke-opacity="1" stroke-width="3.2"/>
<circle clip-path="url(#clip992)" cx="1311.18" cy="774.484" r="14" fill="#009af9" fill-rule="evenodd" fill-opacity="1" stroke="#000000" stroke-opacity="1" stroke-width="3.2"/>
<circle clip-path="url(#clip992)" cx="1296.41" cy="774.101" r="14" fill="#009af9" fill-rule="evenodd" fill-opacity="1" stroke="#000000" stroke-opacity="1" stroke-width="3.2"/>
<circle clip-path="url(#clip992)" cx="1283.07" cy="773.224" r="14" fill="#009af9" fill-rule="evenodd" fill-opacity="1" stroke="#000000" stroke-opacity="1" stroke-width="3.2"/>
<circle clip-path="url(#clip992)" cx="1270.95" cy="772.75" r="14" fill="#009af9" fill-rule="evenodd" fill-opacity="1" stroke="#000000" stroke-opacity="1" stroke-width="3.2"/>
<circle clip-path="url(#clip992)" cx="1259.98" cy="772.125" r="14" fill="#009af9" fill-rule="evenodd" fill-opacity="1" stroke="#000000" stroke-opacity="1" stroke-width="3.2"/>
<circle clip-path="url(#clip992)" cx="1250.02" cy="771.677" r="14" fill="#009af9" fill-rule="evenodd" fill-opacity="1" stroke="#000000" stroke-opacity="1" stroke-width="3.2"/>
<circle clip-path="url(#clip992)" cx="1241" cy="771.198" r="14" fill="#009af9" fill-rule="evenodd" fill-opacity="1" stroke="#000000" stroke-opacity="1" stroke-width="3.2"/>
<circle clip-path="url(#clip992)" cx="1232.81" cy="770.809" r="14" fill="#009af9" fill-rule="evenodd" fill-opacity="1" stroke="#000000" stroke-opacity="1" stroke-width="3.2"/>
<circle clip-path="url(#clip992)" cx="1225.39" cy="770.429" r="14" fill="#009af9" fill-rule="evenodd" fill-opacity="1" stroke="#000000" stroke-opacity="1" stroke-width="3.2"/>
<circle clip-path="url(#clip992)" cx="1218.67" cy="770.1" r="14" fill="#009af9" fill-rule="evenodd" fill-opacity="1" stroke="#000000" stroke-opacity="1" stroke-width="3.2"/>
<circle clip-path="url(#clip992)" cx="1212.57" cy="769.793" r="14" fill="#009af9" fill-rule="evenodd" fill-opacity="1" stroke="#000000" stroke-opacity="1" stroke-width="3.2"/>
<circle clip-path="url(#clip992)" cx="1207.04" cy="769.52" r="14" fill="#009af9" fill-rule="evenodd" fill-opacity="1" stroke="#000000" stroke-opacity="1" stroke-width="3.2"/>
<circle clip-path="url(#clip992)" cx="1202.03" cy="769.269" r="14" fill="#009af9" fill-rule="evenodd" fill-opacity="1" stroke="#000000" stroke-opacity="1" stroke-width="3.2"/>
<circle clip-path="url(#clip992)" cx="1197.48" cy="769.043" r="14" fill="#009af9" fill-rule="evenodd" fill-opacity="1" stroke="#000000" stroke-opacity="1" stroke-width="3.2"/>
<circle clip-path="url(#clip992)" cx="1193.36" cy="768.838" r="14" fill="#009af9" fill-rule="evenodd" fill-opacity="1" stroke="#000000" stroke-opacity="1" stroke-width="3.2"/>
<circle clip-path="url(#clip992)" cx="1189.62" cy="768.652" r="14" fill="#009af9" fill-rule="evenodd" fill-opacity="1" stroke="#000000" stroke-opacity="1" stroke-width="3.2"/>
<circle clip-path="url(#clip992)" cx="1186.24" cy="768.483" r="14" fill="#009af9" fill-rule="evenodd" fill-opacity="1" stroke="#000000" stroke-opacity="1" stroke-width="3.2"/>
<circle clip-path="url(#clip992)" cx="1183.17" cy="768.331" r="14" fill="#009af9" fill-rule="evenodd" fill-opacity="1" stroke="#000000" stroke-opacity="1" stroke-width="3.2"/>
<circle clip-path="url(#clip992)" cx="1180.38" cy="768.192" r="14" fill="#009af9" fill-rule="evenodd" fill-opacity="1" stroke="#000000" stroke-opacity="1" stroke-width="3.2"/>
<circle clip-path="url(#clip992)" cx="1177.86" cy="768.066" r="14" fill="#009af9" fill-rule="evenodd" fill-opacity="1" stroke="#000000" stroke-opacity="1" stroke-width="3.2"/>
<circle clip-path="url(#clip992)" cx="1175.57" cy="767.952" r="14" fill="#009af9" fill-rule="evenodd" fill-opacity="1" stroke="#000000" stroke-opacity="1" stroke-width="3.2"/>
<circle clip-path="url(#clip992)" cx="1173.49" cy="767.849" r="14" fill="#009af9" fill-rule="evenodd" fill-opacity="1" stroke="#000000" stroke-opacity="1" stroke-width="3.2"/>
<circle clip-path="url(#clip992)" cx="1171.61" cy="767.755" r="14" fill="#009af9" fill-rule="evenodd" fill-opacity="1" stroke="#000000" stroke-opacity="1" stroke-width="3.2"/>
<circle clip-path="url(#clip992)" cx="1169.91" cy="767.67" r="14" fill="#009af9" fill-rule="evenodd" fill-opacity="1" stroke="#000000" stroke-opacity="1" stroke-width="3.2"/>
<circle clip-path="url(#clip992)" cx="1168.36" cy="767.594" r="14" fill="#009af9" fill-rule="evenodd" fill-opacity="1" stroke="#000000" stroke-opacity="1" stroke-width="3.2"/>
<circle clip-path="url(#clip992)" cx="1166.96" cy="767.524" r="14" fill="#009af9" fill-rule="evenodd" fill-opacity="1" stroke="#000000" stroke-opacity="1" stroke-width="3.2"/>
<circle clip-path="url(#clip992)" cx="1165.69" cy="767.46" r="14" fill="#009af9" fill-rule="evenodd" fill-opacity="1" stroke="#000000" stroke-opacity="1" stroke-width="3.2"/>
<circle clip-path="url(#clip992)" cx="1164.54" cy="767.403" r="14" fill="#009af9" fill-rule="evenodd" fill-opacity="1" stroke="#000000" stroke-opacity="1" stroke-width="3.2"/>
<circle clip-path="url(#clip992)" cx="1163.49" cy="767.351" r="14" fill="#009af9" fill-rule="evenodd" fill-opacity="1" stroke="#000000" stroke-opacity="1" stroke-width="3.2"/>
<circle clip-path="url(#clip992)" cx="1162.54" cy="767.304" r="14" fill="#009af9" fill-rule="evenodd" fill-opacity="1" stroke="#000000" stroke-opacity="1" stroke-width="3.2"/>
<circle clip-path="url(#clip992)" cx="1161.69" cy="767.261" r="14" fill="#009af9" fill-rule="evenodd" fill-opacity="1" stroke="#000000" stroke-opacity="1" stroke-width="3.2"/>
<circle clip-path="url(#clip992)" cx="1160.91" cy="767.222" r="14" fill="#009af9" fill-rule="evenodd" fill-opacity="1" stroke="#000000" stroke-opacity="1" stroke-width="3.2"/>
<circle clip-path="url(#clip992)" cx="1160.2" cy="767.187" r="14" fill="#009af9" fill-rule="evenodd" fill-opacity="1" stroke="#000000" stroke-opacity="1" stroke-width="3.2"/>
<circle clip-path="url(#clip992)" cx="1159.56" cy="767.155" r="14" fill="#009af9" fill-rule="evenodd" fill-opacity="1" stroke="#000000" stroke-opacity="1" stroke-width="3.2"/>
<circle clip-path="url(#clip992)" cx="1158.98" cy="767.127" r="14" fill="#009af9" fill-rule="evenodd" fill-opacity="1" stroke="#000000" stroke-opacity="1" stroke-width="3.2"/>
<circle clip-path="url(#clip992)" cx="1158.45" cy="767.1" r="14" fill="#009af9" fill-rule="evenodd" fill-opacity="1" stroke="#000000" stroke-opacity="1" stroke-width="3.2"/>
<circle clip-path="url(#clip992)" cx="1157.98" cy="767.077" r="14" fill="#009af9" fill-rule="evenodd" fill-opacity="1" stroke="#000000" stroke-opacity="1" stroke-width="3.2"/>
<circle clip-path="url(#clip992)" cx="1157.55" cy="767.055" r="14" fill="#009af9" fill-rule="evenodd" fill-opacity="1" stroke="#000000" stroke-opacity="1" stroke-width="3.2"/>
<circle clip-path="url(#clip992)" cx="1157.15" cy="767.036" r="14" fill="#009af9" fill-rule="evenodd" fill-opacity="1" stroke="#000000" stroke-opacity="1" stroke-width="3.2"/>
<circle clip-path="url(#clip992)" cx="1156.8" cy="767.018" r="14" fill="#009af9" fill-rule="evenodd" fill-opacity="1" stroke="#000000" stroke-opacity="1" stroke-width="3.2"/>
<circle clip-path="url(#clip992)" cx="1156.48" cy="767.002" r="14" fill="#009af9" fill-rule="evenodd" fill-opacity="1" stroke="#000000" stroke-opacity="1" stroke-width="3.2"/>
<circle clip-path="url(#clip992)" cx="1156.18" cy="766.987" r="14" fill="#009af9" fill-rule="evenodd" fill-opacity="1" stroke="#000000" stroke-opacity="1" stroke-width="3.2"/>
<circle clip-path="url(#clip992)" cx="1155.92" cy="766.974" r="14" fill="#009af9" fill-rule="evenodd" fill-opacity="1" stroke="#000000" stroke-opacity="1" stroke-width="3.2"/>
<circle clip-path="url(#clip992)" cx="1155.68" cy="766.962" r="14" fill="#009af9" fill-rule="evenodd" fill-opacity="1" stroke="#000000" stroke-opacity="1" stroke-width="3.2"/>
<circle clip-path="url(#clip992)" cx="1155.46" cy="766.951" r="14" fill="#009af9" fill-rule="evenodd" fill-opacity="1" stroke="#000000" stroke-opacity="1" stroke-width="3.2"/>
<circle clip-path="url(#clip992)" cx="1155.26" cy="766.941" r="14" fill="#009af9" fill-rule="evenodd" fill-opacity="1" stroke="#000000" stroke-opacity="1" stroke-width="3.2"/>
<circle clip-path="url(#clip992)" cx="1155.08" cy="766.933" r="14" fill="#009af9" fill-rule="evenodd" fill-opacity="1" stroke="#000000" stroke-opacity="1" stroke-width="3.2"/>
<circle clip-path="url(#clip992)" cx="1154.92" cy="766.924" r="14" fill="#009af9" fill-rule="evenodd" fill-opacity="1" stroke="#000000" stroke-opacity="1" stroke-width="3.2"/>
<circle clip-path="url(#clip992)" cx="1154.77" cy="766.917" r="14" fill="#009af9" fill-rule="evenodd" fill-opacity="1" stroke="#000000" stroke-opacity="1" stroke-width="3.2"/>
<circle clip-path="url(#clip992)" cx="1154.64" cy="766.91" r="14" fill="#009af9" fill-rule="evenodd" fill-opacity="1" stroke="#000000" stroke-opacity="1" stroke-width="3.2"/>
<circle clip-path="url(#clip992)" cx="1154.52" cy="766.904" r="14" fill="#009af9" fill-rule="evenodd" fill-opacity="1" stroke="#000000" stroke-opacity="1" stroke-width="3.2"/>
<circle clip-path="url(#clip992)" cx="1154.41" cy="766.899" r="14" fill="#009af9" fill-rule="evenodd" fill-opacity="1" stroke="#000000" stroke-opacity="1" stroke-width="3.2"/>
<circle clip-path="url(#clip992)" cx="1154.31" cy="766.894" r="14" fill="#009af9" fill-rule="evenodd" fill-opacity="1" stroke="#000000" stroke-opacity="1" stroke-width="3.2"/>
<circle clip-path="url(#clip992)" cx="1154.22" cy="766.89" r="14" fill="#009af9" fill-rule="evenodd" fill-opacity="1" stroke="#000000" stroke-opacity="1" stroke-width="3.2"/>
<circle clip-path="url(#clip992)" cx="1154.14" cy="766.885" r="14" fill="#009af9" fill-rule="evenodd" fill-opacity="1" stroke="#000000" stroke-opacity="1" stroke-width="3.2"/>
<circle clip-path="url(#clip992)" cx="1154.07" cy="766.882" r="14" fill="#009af9" fill-rule="evenodd" fill-opacity="1" stroke="#000000" stroke-opacity="1" stroke-width="3.2"/>
<circle clip-path="url(#clip992)" cx="1154" cy="766.878" r="14" fill="#009af9" fill-rule="evenodd" fill-opacity="1" stroke="#000000" stroke-opacity="1" stroke-width="3.2"/>
<circle clip-path="url(#clip992)" cx="1153.94" cy="766.875" r="14" fill="#009af9" fill-rule="evenodd" fill-opacity="1" stroke="#000000" stroke-opacity="1" stroke-width="3.2"/>
<circle clip-path="url(#clip992)" cx="1153.88" cy="766.873" r="14" fill="#009af9" fill-rule="evenodd" fill-opacity="1" stroke="#000000" stroke-opacity="1" stroke-width="3.2"/>
<circle clip-path="url(#clip992)" cx="1153.83" cy="766.87" r="14" fill="#009af9" fill-rule="evenodd" fill-opacity="1" stroke="#000000" stroke-opacity="1" stroke-width="3.2"/>
<circle clip-path="url(#clip992)" cx="1153.79" cy="766.868" r="14" fill="#009af9" fill-rule="evenodd" fill-opacity="1" stroke="#000000" stroke-opacity="1" stroke-width="3.2"/>
<circle clip-path="url(#clip992)" cx="1153.75" cy="766.866" r="14" fill="#009af9" fill-rule="evenodd" fill-opacity="1" stroke="#000000" stroke-opacity="1" stroke-width="3.2"/>
<circle clip-path="url(#clip992)" cx="1153.71" cy="766.864" r="14" fill="#009af9" fill-rule="evenodd" fill-opacity="1" stroke="#000000" stroke-opacity="1" stroke-width="3.2"/>
<circle clip-path="url(#clip992)" cx="1153.67" cy="766.862" r="14" fill="#009af9" fill-rule="evenodd" fill-opacity="1" stroke="#000000" stroke-opacity="1" stroke-width="3.2"/>
<circle clip-path="url(#clip992)" cx="1153.64" cy="766.861" r="14" fill="#009af9" fill-rule="evenodd" fill-opacity="1" stroke="#000000" stroke-opacity="1" stroke-width="3.2"/>
<circle clip-path="url(#clip992)" cx="1153.62" cy="766.859" r="14" fill="#009af9" fill-rule="evenodd" fill-opacity="1" stroke="#000000" stroke-opacity="1" stroke-width="3.2"/>
<circle clip-path="url(#clip992)" cx="1153.59" cy="766.858" r="14" fill="#009af9" fill-rule="evenodd" fill-opacity="1" stroke="#000000" stroke-opacity="1" stroke-width="3.2"/>
<circle clip-path="url(#clip992)" cx="1153.57" cy="766.857" r="14" fill="#009af9" fill-rule="evenodd" fill-opacity="1" stroke="#000000" stroke-opacity="1" stroke-width="3.2"/>
<circle clip-path="url(#clip992)" cx="1153.55" cy="766.856" r="14" fill="#009af9" fill-rule="evenodd" fill-opacity="1" stroke="#000000" stroke-opacity="1" stroke-width="3.2"/>
<circle clip-path="url(#clip992)" cx="1153.53" cy="766.855" r="14" fill="#009af9" fill-rule="evenodd" fill-opacity="1" stroke="#000000" stroke-opacity="1" stroke-width="3.2"/>
<circle clip-path="url(#clip992)" cx="1153.51" cy="766.854" r="14" fill="#009af9" fill-rule="evenodd" fill-opacity="1" stroke="#000000" stroke-opacity="1" stroke-width="3.2"/>
<circle clip-path="url(#clip992)" cx="1153.5" cy="766.853" r="14" fill="#009af9" fill-rule="evenodd" fill-opacity="1" stroke="#000000" stroke-opacity="1" stroke-width="3.2"/>
<circle clip-path="url(#clip992)" cx="1153.48" cy="766.853" r="14" fill="#009af9" fill-rule="evenodd" fill-opacity="1" stroke="#000000" stroke-opacity="1" stroke-width="3.2"/>
<circle clip-path="url(#clip992)" cx="1153.47" cy="766.852" r="14" fill="#009af9" fill-rule="evenodd" fill-opacity="1" stroke="#000000" stroke-opacity="1" stroke-width="3.2"/>
<circle clip-path="url(#clip992)" cx="1153.46" cy="766.852" r="14" fill="#009af9" fill-rule="evenodd" fill-opacity="1" stroke="#000000" stroke-opacity="1" stroke-width="3.2"/>
<circle clip-path="url(#clip992)" cx="1153.45" cy="766.851" r="14" fill="#009af9" fill-rule="evenodd" fill-opacity="1" stroke="#000000" stroke-opacity="1" stroke-width="3.2"/>
<circle clip-path="url(#clip992)" cx="1153.44" cy="766.851" r="14" fill="#009af9" fill-rule="evenodd" fill-opacity="1" stroke="#000000" stroke-opacity="1" stroke-width="3.2"/>
<circle clip-path="url(#clip992)" cx="1153.43" cy="766.85" r="14" fill="#009af9" fill-rule="evenodd" fill-opacity="1" stroke="#000000" stroke-opacity="1" stroke-width="3.2"/>
<circle clip-path="url(#clip992)" cx="1153.42" cy="766.85" r="14" fill="#009af9" fill-rule="evenodd" fill-opacity="1" stroke="#000000" stroke-opacity="1" stroke-width="3.2"/>
<circle clip-path="url(#clip992)" cx="1153.41" cy="766.849" r="14" fill="#009af9" fill-rule="evenodd" fill-opacity="1" stroke="#000000" stroke-opacity="1" stroke-width="3.2"/>
<circle clip-path="url(#clip992)" cx="1153.41" cy="766.849" r="14" fill="#009af9" fill-rule="evenodd" fill-opacity="1" stroke="#000000" stroke-opacity="1" stroke-width="3.2"/>
<circle clip-path="url(#clip992)" cx="1153.4" cy="766.849" r="14" fill="#009af9" fill-rule="evenodd" fill-opacity="1" stroke="#000000" stroke-opacity="1" stroke-width="3.2"/>
<circle clip-path="url(#clip992)" cx="1153.4" cy="766.849" r="14" fill="#009af9" fill-rule="evenodd" fill-opacity="1" stroke="#000000" stroke-opacity="1" stroke-width="3.2"/>
<circle clip-path="url(#clip992)" cx="1153.39" cy="766.848" r="14" fill="#009af9" fill-rule="evenodd" fill-opacity="1" stroke="#000000" stroke-opacity="1" stroke-width="3.2"/>
<circle clip-path="url(#clip992)" cx="1153.39" cy="766.848" r="14" fill="#009af9" fill-rule="evenodd" fill-opacity="1" stroke="#000000" stroke-opacity="1" stroke-width="3.2"/>
<circle clip-path="url(#clip992)" cx="1153.38" cy="766.848" r="14" fill="#009af9" fill-rule="evenodd" fill-opacity="1" stroke="#000000" stroke-opacity="1" stroke-width="3.2"/>
<circle clip-path="url(#clip992)" cx="1153.38" cy="766.848" r="14" fill="#009af9" fill-rule="evenodd" fill-opacity="1" stroke="#000000" stroke-opacity="1" stroke-width="3.2"/>
<circle clip-path="url(#clip992)" cx="1153.38" cy="766.848" r="14" fill="#009af9" fill-rule="evenodd" fill-opacity="1" stroke="#000000" stroke-opacity="1" stroke-width="3.2"/>
<circle clip-path="url(#clip992)" cx="1153.37" cy="766.847" r="14" fill="#009af9" fill-rule="evenodd" fill-opacity="1" stroke="#000000" stroke-opacity="1" stroke-width="3.2"/>
<circle clip-path="url(#clip992)" cx="1153.37" cy="766.847" r="14" fill="#009af9" fill-rule="evenodd" fill-opacity="1" stroke="#000000" stroke-opacity="1" stroke-width="3.2"/>
<circle clip-path="url(#clip992)" cx="1153.37" cy="766.847" r="14" fill="#009af9" fill-rule="evenodd" fill-opacity="1" stroke="#000000" stroke-opacity="1" stroke-width="3.2"/>
<circle clip-path="url(#clip992)" cx="1153.37" cy="766.847" r="14" fill="#009af9" fill-rule="evenodd" fill-opacity="1" stroke="#000000" stroke-opacity="1" stroke-width="3.2"/>
<circle clip-path="url(#clip992)" cx="1153.37" cy="766.847" r="14" fill="#009af9" fill-rule="evenodd" fill-opacity="1" stroke="#000000" stroke-opacity="1" stroke-width="3.2"/>
<circle clip-path="url(#clip992)" cx="1153.36" cy="766.847" r="14" fill="#009af9" fill-rule="evenodd" fill-opacity="1" stroke="#000000" stroke-opacity="1" stroke-width="3.2"/>
<circle clip-path="url(#clip992)" cx="1153.36" cy="766.847" r="14" fill="#009af9" fill-rule="evenodd" fill-opacity="1" stroke="#000000" stroke-opacity="1" stroke-width="3.2"/>
<circle clip-path="url(#clip992)" cx="1153.36" cy="766.847" r="14" fill="#009af9" fill-rule="evenodd" fill-opacity="1" stroke="#000000" stroke-opacity="1" stroke-width="3.2"/>
<circle clip-path="url(#clip992)" cx="1153.36" cy="766.847" r="14" fill="#009af9" fill-rule="evenodd" fill-opacity="1" stroke="#000000" stroke-opacity="1" stroke-width="3.2"/>
<circle clip-path="url(#clip992)" cx="1153.36" cy="766.847" r="14" fill="#009af9" fill-rule="evenodd" fill-opacity="1" stroke="#000000" stroke-opacity="1" stroke-width="3.2"/>
<circle clip-path="url(#clip992)" cx="1153.36" cy="766.847" r="14" fill="#009af9" fill-rule="evenodd" fill-opacity="1" stroke="#000000" stroke-opacity="1" stroke-width="3.2"/>
<circle clip-path="url(#clip992)" cx="1153.36" cy="766.846" r="14" fill="#009af9" fill-rule="evenodd" fill-opacity="1" stroke="#000000" stroke-opacity="1" stroke-width="3.2"/>
<circle clip-path="url(#clip992)" cx="1153.35" cy="766.846" r="14" fill="#009af9" fill-rule="evenodd" fill-opacity="1" stroke="#000000" stroke-opacity="1" stroke-width="3.2"/>
<polyline clip-path="url(#clip992)" style="stroke:#f1e864; stroke-linecap:butt; stroke-linejoin:round; stroke-width:16; stroke-opacity:1; fill:none" points="
  248.242,1421.23 310.663,1426.75 373.084,1432.11 435.505,1437.32 497.926,1442.38 540.522,1445.72 
  "/>
<polyline clip-path="url(#clip992)" style="stroke:#ba3655; stroke-linecap:butt; stroke-linejoin:round; stroke-width:16; stroke-opacity:1; fill:none" points="
  248.242,1220.95 310.663,1227.34 373.084,1233.54 435.505,1239.54 497.926,1245.33 560.347,1250.91 622.768,1256.29 648.917,1258.44 685.189,1261.18 747.61,1265.69 
  810.031,1269.98 872.452,1274.07 934.873,1277.94 997.294,1281.59 1059.71,1285.02 1122.14,1288.22 1184.56,1291.19 1246.98,1293.92 1309.4,1296.42 1371.82,1298.68 
  1434.24,1300.69 1496.66,1302.45 1559.08,1303.95 1621.5,1305.19 1625.96,1305.26 1683.92,1306.09 1746.34,1306.73 1808.77,1307.13 1871.19,1307.27 1933.61,1307.15 
  1996.03,1306.77 2058.45,1306.12 
  "/>
<polyline clip-path="url(#clip992)" style="stroke:#d04544; stroke-linecap:butt; stroke-linejoin:round; stroke-width:16; stroke-opacity:1; fill:none" points="
  2058.45,1339.01 1996.03,1339.48 1933.61,1339.68 1871.19,1339.62 1808.77,1339.3 1746.34,1338.73 1683.92,1337.91 1621.5,1336.84 1559.08,1335.54 1496.66,1334 
  1434.24,1332.22 1371.82,1330.21 1309.4,1327.98 1246.98,1325.53 1184.56,1322.86 1122.14,1319.97 1059.71,1316.87 997.294,1313.56 934.873,1310.04 872.452,1306.32 
  855.546,1305.26 810.031,1302.16 747.61,1297.68 685.189,1293.01 622.768,1288.12 560.347,1283.04 497.926,1277.76 435.505,1272.29 373.084,1266.63 310.663,1260.78 
  286.539,1258.44 248.242,1254.41 
  "/>
<polyline clip-path="url(#clip992)" style="stroke:#a12b61; stroke-linecap:butt; stroke-linejoin:round; stroke-width:16; stroke-opacity:1; fill:none" points="
  248.242,1185.05 310.663,1191.86 373.084,1198.47 435.505,1204.86 497.926,1211.03 504.228,1211.62 560.347,1216.47 622.768,1221.63 685.189,1226.59 747.61,1231.31 
  810.031,1235.82 872.452,1240.09 934.873,1244.13 997.294,1247.93 1059.71,1251.49 1122.14,1254.8 1184.56,1257.86 1197.49,1258.44 1246.98,1260.46 1309.4,1262.77 
  1371.82,1264.83 1434.24,1266.64 1496.66,1268.2 1559.08,1269.5 1621.5,1270.54 1683.92,1271.31 1746.34,1271.81 1808.77,1272.03 1871.19,1271.97 1933.61,1271.62 
  1996.03,1270.98 2058.45,1270.05 
  "/>
<polyline clip-path="url(#clip992)" style="stroke:#88216a; stroke-linecap:butt; stroke-linejoin:round; stroke-width:16; stroke-opacity:1; fill:none" points="
  2058.45,1231.19 1996.03,1232.5 1933.61,1233.46 1871.19,1234.11 1808.77,1234.43 1746.34,1234.43 1683.92,1234.12 1621.5,1233.52 1559.08,1232.61 1496.66,1231.41 
  1434.24,1229.93 1371.82,1228.17 1309.4,1226.13 1246.98,1223.83 1184.56,1221.25 1122.14,1218.42 1059.71,1215.34 997.294,1212 990.739,1211.62 934.873,1208.07 
  872.452,1203.84 810.031,1199.35 747.61,1194.61 685.189,1189.62 622.768,1184.39 560.347,1178.93 497.926,1173.23 435.505,1167.31 410.194,1164.8 373.084,1160.74 
  310.663,1153.66 248.242,1146.34 
  "/>
<polyline clip-path="url(#clip992)" style="stroke:#6e186e; stroke-linecap:butt; stroke-linejoin:round; stroke-width:16; stroke-opacity:1; fill:none" points="
  248.242,1103.77 310.663,1111.68 362.141,1117.99 373.084,1119.18 435.505,1125.74 497.926,1132.05 560.347,1138.11 622.768,1143.91 685.189,1149.46 747.61,1154.74 
  810.031,1159.75 872.452,1164.48 876.977,1164.8 934.873,1168.48 997.294,1172.18 1059.71,1175.61 1122.14,1178.77 1184.56,1181.64 1246.98,1184.22 1309.4,1186.51 
  1371.82,1188.49 1434.24,1190.17 1496.66,1191.54 1559.08,1192.59 1621.5,1193.3 1683.92,1193.69 1746.34,1193.73 1808.77,1193.42 1871.19,1192.75 1933.61,1191.72 
  1996.03,1190.31 2058.45,1188.52 
  "/>
<polyline clip-path="url(#clip992)" style="stroke:#550f6d; stroke-linecap:butt; stroke-linejoin:round; stroke-width:16; stroke-opacity:1; fill:none" points="
  2058.45,1140.42 1996.03,1142.88 1933.61,1144.89 1871.19,1146.47 1808.77,1147.62 1746.34,1148.36 1683.92,1148.69 1621.5,1148.63 1559.08,1148.19 1496.66,1147.37 
  1434.24,1146.18 1371.82,1144.64 1309.4,1142.75 1246.98,1140.52 1184.56,1137.95 1122.14,1135.06 1059.71,1131.86 997.294,1128.34 934.873,1124.53 872.452,1120.41 
  838.12,1117.99 810.031,1115.74 747.61,1110.43 685.189,1104.81 622.768,1098.9 560.347,1092.7 497.926,1086.22 435.505,1079.46 373.084,1072.44 362.28,1071.17 
  310.663,1064.27 248.242,1055.65 
  "/>
<polyline clip-path="url(#clip992)" style="stroke:#3b0964; stroke-linecap:butt; stroke-linejoin:round; stroke-width:16; stroke-opacity:1; fill:none" points="
  248.242,999.159 310.663,1008.65 373.084,1017.85 418.897,1024.35 435.505,1026.38 497.926,1033.65 560.347,1040.62 622.768,1047.27 685.189,1053.6 747.61,1059.59 
  810.031,1065.24 872.452,1070.54 880.44,1071.17 934.873,1074.88 997.294,1078.8 1059.71,1082.37 1122.14,1085.59 1184.56,1088.45 1246.98,1090.94 1309.4,1093.04 
  1371.82,1094.75 1434.24,1096.06 1496.66,1096.95 1559.08,1097.42 1621.5,1097.45 1683.92,1097.02 1746.34,1096.13 1808.77,1094.76 1871.19,1092.9 1933.61,1090.53 
  1996.03,1087.64 2058.45,1084.21 
  "/>
<polyline clip-path="url(#clip992)" style="stroke:#1f0c47; stroke-linecap:butt; stroke-linejoin:round; stroke-width:16; stroke-opacity:1; fill:none" points="
  2058.45,1012.87 1996.03,1019.02 1933.61,1024.3 1933.01,1024.35 1871.19,1027.92 1808.77,1030.89 1746.34,1033.25 1683.92,1035.02 1621.5,1036.22 1559.08,1036.87 
  1496.66,1036.99 1434.24,1036.6 1371.82,1035.7 1309.4,1034.33 1246.98,1032.49 1184.56,1030.2 1122.14,1027.47 1060.31,1024.35 1059.71,1024.31 997.294,1020.06 
  934.873,1015.34 872.452,1010.18 810.031,1004.6 747.61,998.605 685.189,992.211 622.768,985.432 560.347,978.282 554.159,977.53 497.926,969.321 435.505,959.818 
  373.084,949.951 310.663,939.735 257.382,930.711 248.242,928.792 
  "/>
<polyline clip-path="url(#clip992)" style="stroke:#090621; stroke-linecap:butt; stroke-linejoin:round; stroke-width:16; stroke-opacity:1; fill:none" points="
  248.242,809.012 310.663,832.66 322.636,837.074 373.084,849.403 435.505,864.217 497.926,878.625 521.802,883.892 560.347,890.177 622.768,899.818 685.189,908.963 
  747.61,917.584 810.031,925.652 852.486,930.711 872.452,932.569 934.873,937.799 997.294,942.482 1059.71,946.593 1122.14,950.105 1184.56,952.991 1246.98,955.221 
  1309.4,956.761 1371.82,957.579 1434.24,957.637 1496.66,956.896 1559.08,955.316 1621.5,952.852 1683.92,949.454 1746.34,945.073 1808.77,939.654 1871.19,933.136 
  1891.15,930.711 1933.61,923.087 1996.03,909.973 2058.45,894.68 
  "/>
<polyline clip-path="url(#clip992)" style="stroke:#090621; stroke-linecap:butt; stroke-linejoin:round; stroke-width:16; stroke-opacity:1; fill:none" points="
  2058.45,724.68 1996.03,701.032 1984.06,696.618 1933.61,684.289 1871.19,669.475 1808.77,655.067 1784.89,649.799 1746.34,643.515 1683.92,633.874 1621.5,624.729 
  1559.08,616.108 1496.66,608.04 1454.21,602.981 1434.24,601.123 1371.82,595.893 1309.4,591.21 1246.98,587.099 1184.56,583.587 1122.14,580.701 1059.71,578.471 
  997.294,576.931 934.873,576.113 872.452,576.055 810.031,576.795 747.61,578.376 685.189,580.84 622.768,584.238 560.347,588.619 497.926,594.038 435.505,600.556 
  415.54,602.981 373.084,610.605 310.663,623.718 248.242,639.012 
  "/>
<polyline clip-path="url(#clip992)" style="stroke:#1f0c47; stroke-linecap:butt; stroke-linejoin:round; stroke-width:16; stroke-opacity:1; fill:none" points="
  248.242,520.825 310.663,514.668 373.084,509.387 373.684,509.344 435.505,505.777 497.926,502.807 560.347,500.447 622.768,498.676 685.189,497.474 747.61,496.822 
  810.031,496.701 872.452,497.095 934.873,497.987 997.294,499.36 1059.71,501.2 1122.14,503.491 1184.56,506.22 1246.38,509.344 1246.98,509.38 1309.4,513.635 
  1371.82,518.35 1434.24,523.507 1496.66,529.091 1559.08,535.087 1621.5,541.481 1683.92,548.26 1746.34,555.41 1752.53,556.162 1808.77,564.371 1871.19,573.874 
  1933.61,583.741 1996.03,593.957 2049.31,602.981 2058.45,604.9 
  "/>
<polyline clip-path="url(#clip992)" style="stroke:#3b0964; stroke-linecap:butt; stroke-linejoin:round; stroke-width:16; stroke-opacity:1; fill:none" points="
  2058.45,534.533 1996.03,525.039 1933.61,515.845 1887.8,509.344 1871.19,507.316 1808.77,500.043 1746.34,493.076 1683.92,486.424 1621.5,480.096 1559.08,474.101 
  1496.66,468.449 1434.24,463.151 1426.25,462.525 1371.82,458.814 1309.4,454.897 1246.98,451.323 1184.56,448.102 1122.14,445.244 1059.71,442.757 997.294,440.652 
  934.873,438.94 872.452,437.632 810.031,436.739 747.61,436.273 685.189,436.246 622.768,436.67 560.347,437.56 497.926,438.928 435.505,440.79 373.084,443.159 
  310.663,446.052 248.242,449.485 
  "/>
<polyline clip-path="url(#clip992)" style="stroke:#550f6d; stroke-linecap:butt; stroke-linejoin:round; stroke-width:16; stroke-opacity:1; fill:none" points="
  248.242,393.277 310.663,390.815 373.084,388.801 435.505,387.223 497.926,386.071 560.347,385.334 622.768,385 685.189,385.061 747.61,385.506 810.031,386.325 
  872.452,387.511 934.873,389.054 997.294,390.945 1059.71,393.176 1122.14,395.74 1184.56,398.628 1246.98,401.833 1309.4,405.347 1371.82,409.164 1434.24,413.277 
  1468.57,415.706 1496.66,417.948 1559.08,423.263 1621.5,428.88 1683.92,434.793 1746.34,440.994 1808.77,447.476 1871.19,454.232 1933.61,461.256 1944.41,462.525 
  1996.03,469.42 2058.45,478.043 
  "/>
<polyline clip-path="url(#clip992)" style="stroke:#6e186e; stroke-linecap:butt; stroke-linejoin:round; stroke-width:16; stroke-opacity:1; fill:none" points="
  2058.45,429.921 1996.03,422.013 1944.55,415.706 1933.61,414.509 1871.19,407.956 1808.77,401.646 1746.34,395.585 1683.92,389.778 1621.5,384.231 1559.08,378.95 
  1496.66,373.94 1434.24,369.208 1429.71,368.888 1371.82,365.208 1309.4,361.508 1246.98,358.078 1184.56,354.925 1122.14,352.055 1059.71,349.473 997.294,347.185 
  934.873,345.197 872.452,343.517 810.031,342.151 747.61,341.105 685.189,340.387 622.768,340.004 560.347,339.963 497.926,340.273 435.505,340.94 373.084,341.974 
  310.663,343.382 248.242,345.174 
  "/>
<polyline clip-path="url(#clip992)" style="stroke:#88216a; stroke-linecap:butt; stroke-linejoin:round; stroke-width:16; stroke-opacity:1; fill:none" points="
  248.242,302.501 310.663,301.197 373.084,300.227 435.505,299.586 497.926,299.267 560.347,299.263 622.768,299.568 685.189,300.176 747.61,301.081 810.031,302.277 
  872.452,303.76 934.873,305.522 997.294,307.559 1059.71,309.866 1122.14,312.438 1184.56,315.269 1246.98,318.355 1309.4,321.691 1315.95,322.069 1371.82,325.62 
  1434.24,329.853 1496.66,334.342 1559.08,339.082 1621.5,344.069 1683.92,349.297 1746.34,354.762 1808.77,360.46 1871.19,366.385 1896.5,368.888 1933.61,372.949 
  1996.03,380.034 2058.45,387.348 
  "/>
<polyline clip-path="url(#clip992)" style="stroke:#a12b61; stroke-linecap:butt; stroke-linejoin:round; stroke-width:16; stroke-opacity:1; fill:none" points="
  2058.45,348.645 1996.03,341.828 1933.61,335.223 1871.19,328.834 1808.77,322.666 1802.46,322.069 1746.34,317.227 1683.92,312.058 1621.5,307.107 1559.08,302.377 
  1496.66,297.873 1434.24,293.599 1371.82,289.559 1309.4,285.758 1246.98,282.199 1184.56,278.888 1122.14,275.829 1109.2,275.251 1059.71,273.23 997.294,270.925 
  934.873,268.864 872.452,267.052 810.031,265.494 747.61,264.193 685.189,263.155 622.768,262.384 560.347,261.885 497.926,261.663 435.505,261.723 373.084,262.07 
  310.663,262.709 248.242,263.646 
  "/>
<polyline clip-path="url(#clip992)" style="stroke:#ba3655; stroke-linecap:butt; stroke-linejoin:round; stroke-width:16; stroke-opacity:1; fill:none" points="
  248.242,227.575 310.663,226.924 373.084,226.541 435.505,226.422 497.926,226.562 560.347,226.957 622.768,227.603 680.73,228.432 685.189,228.502 747.61,229.744 
  810.031,231.247 872.452,233.005 934.873,235.014 997.294,237.27 1059.71,239.768 1122.14,242.504 1184.56,245.475 1246.98,248.676 1309.4,252.104 1371.82,255.754 
  1434.24,259.623 1496.66,263.707 1559.08,268.003 1621.5,272.508 1657.77,275.251 1683.92,277.404 1746.34,282.778 1808.77,288.363 1871.19,294.156 1933.61,300.153 
  1996.03,306.351 2058.45,312.746 
  "/>
<polyline clip-path="url(#clip992)" style="stroke:#d04544; stroke-linecap:butt; stroke-linejoin:round; stroke-width:16; stroke-opacity:1; fill:none" points="
  2058.45,279.284 2020.15,275.251 1996.03,272.911 1933.61,267.062 1871.19,261.4 1808.77,255.929 1746.34,250.65 1683.92,245.569 1621.5,240.687 1559.08,236.008 
  1496.66,231.536 1451.15,228.432 1434.24,227.367 1371.82,223.65 1309.4,220.135 1246.98,216.826 1184.56,213.725 1122.14,210.837 1059.71,208.164 997.294,205.71 
  934.873,203.478 872.452,201.472 810.031,199.696 747.61,198.153 685.189,196.847 622.768,195.782 560.347,194.962 497.926,194.39 435.505,194.072 373.084,194.011 
  310.663,194.212 248.242,194.678 
  "/>
<polyline clip-path="url(#clip992)" style="stroke:#e35832; stroke-linecap:butt; stroke-linejoin:round; stroke-width:16; stroke-opacity:1; fill:none" points="
  248.242,163.421 310.663,163.154 373.084,163.129 435.505,163.342 497.926,163.79 560.347,164.469 622.768,165.377 685.189,166.508 747.61,167.861 810.031,169.432 
  872.452,171.217 934.873,173.214 997.294,175.419 1059.71,177.83 1122.14,180.443 1148.04,181.613 1184.56,183.392 1246.98,186.649 1309.4,190.114 1371.82,193.782 
  1434.24,197.652 1496.66,201.719 1559.08,205.981 1621.5,210.435 1683.92,215.078 1746.34,219.908 1808.77,224.921 1850.9,228.432 1871.19,230.258 1933.61,236.085 
  1996.03,242.098 2058.45,248.293 
  "/>
<polyline clip-path="url(#clip992)" style="stroke:#f0701e; stroke-linecap:butt; stroke-linejoin:round; stroke-width:16; stroke-opacity:1; fill:none" points="
  2058.45,218.477 1996.03,212.619 1933.61,206.933 1871.19,201.421 1808.77,196.085 1746.34,190.929 1683.92,185.955 1627.31,181.613 1621.5,181.199 1559.08,176.941 
  1496.66,172.862 1434.24,168.966 1371.82,165.253 1309.4,161.728 1246.98,158.393 1184.56,155.25 1122.14,152.302 1059.71,149.553 997.294,147.005 934.873,144.661 
  872.452,142.524 810.031,140.597 747.61,138.883 685.189,137.385 622.768,136.108 560.347,135.053 540.84,134.795 497.926,134.267 435.505,133.714 373.084,133.377 
  310.663,133.259 248.242,133.363 
  "/>
<polyline clip-path="url(#clip992)" style="stroke:#f98c09; stroke-linecap:butt; stroke-linejoin:round; stroke-width:16; stroke-opacity:1; fill:none" points="
  248.242,105.491 310.663,105.519 373.084,105.768 435.505,106.236 497.926,106.918 560.347,107.811 622.768,108.914 685.189,110.223 747.61,111.735 810.031,113.448 
  872.452,115.358 934.873,117.464 997.294,119.761 1059.71,122.249 1122.14,124.923 1184.56,127.783 1246.98,130.824 1309.4,134.046 1323.11,134.795 1371.82,137.645 
  1434.24,141.487 1496.66,145.513 1559.08,149.719 1621.5,154.103 1683.92,158.664 1746.34,163.397 1808.77,168.302 1871.19,173.375 1933.61,178.614 1968.18,181.613 
  1996.03,184.205 2058.45,190.201 
  "/>
<polyline clip-path="url(#clip992)" style="stroke:#fbaa0e; stroke-linecap:butt; stroke-linejoin:round; stroke-width:16; stroke-opacity:1; fill:none" points="
  2058.45,163.34 1996.03,157.656 1933.61,152.133 1871.19,146.773 1808.77,141.578 1746.34,136.551 1723.72,134.795 1683.92,131.906 1621.5,127.546 1559.08,123.35 
  1496.66,119.323 1434.24,115.464 1371.82,111.778 1309.4,108.266 1246.98,104.93 1184.56,101.773 1122.14,98.7972 1059.71,96.0051 997.294,93.3993 934.873,90.9821 
  872.452,88.7561 848.428,87.9763 
  "/>
<polyline clip-path="url(#clip992)" style="stroke:#f8c931; stroke-linecap:butt; stroke-linejoin:round; stroke-width:16; stroke-opacity:1; fill:none" points="
  1402.4,87.9763 1434.24,89.91 1496.66,93.8796 1559.08,98.0179 1621.5,102.323 1683.92,106.792 1746.34,111.423 1808.77,116.215 1871.19,121.164 1933.61,126.27 
  1996.03,131.53 
  "/>
<polyline clip-path="url(#clip992)" style="stroke:#f8c931; stroke-linecap:butt; stroke-linejoin:round; stroke-width:16; stroke-opacity:1; fill:none" points="
  2033.62,134.795 2058.45,137.096 
  "/>
<polyline clip-path="url(#clip992)" style="stroke:#f1e864; stroke-linecap:butt; stroke-linejoin:round; stroke-width:16; stroke-opacity:1; fill:none" points="
  2058.45,112.459 1996.03,106.944 
  "/>
<polyline clip-path="url(#clip992)" style="stroke:#f1e864; stroke-linecap:butt; stroke-linejoin:round; stroke-width:16; stroke-opacity:1; fill:none" points="
  1766.17,87.9763 1808.77,91.3142 1871.19,96.3696 1933.61,101.58 1996.03,106.944 
  "/>
<polyline clip-path="url(#clip992)" style="stroke:#e35832; stroke-linecap:butt; stroke-linejoin:round; stroke-width:16; stroke-opacity:1; fill:none" points="
  2058.45,1370.27 1996.03,1370.54 1933.61,1370.56 1871.19,1370.35 1808.77,1369.9 1746.34,1369.22 1683.92,1368.32 1621.5,1367.18 1559.08,1365.83 1496.66,1364.26 
  1434.24,1362.47 1371.82,1360.48 1309.4,1358.27 1246.98,1355.86 1184.56,1353.25 1158.65,1352.08 1122.14,1350.3 1059.71,1347.04 997.294,1343.58 934.873,1339.91 
  872.452,1336.04 810.031,1331.97 747.61,1327.71 685.189,1323.26 622.768,1318.61 560.347,1313.78 497.926,1308.77 455.792,1305.26 435.505,1303.43 373.084,1297.61 
  310.663,1291.59 248.242,1285.4 
  "/>
<polyline clip-path="url(#clip992)" style="stroke:#f0701e; stroke-linecap:butt; stroke-linejoin:round; stroke-width:16; stroke-opacity:1; fill:none" points="
  248.242,1315.21 310.663,1321.07 373.084,1326.76 435.505,1332.27 497.926,1337.61 560.347,1342.76 622.768,1347.74 679.384,1352.08 685.189,1352.49 747.61,1356.75 
  810.031,1360.83 872.452,1364.73 934.873,1368.44 997.294,1371.96 1059.71,1375.3 1122.14,1378.44 1184.56,1381.39 1246.98,1384.14 1309.4,1386.69 1371.82,1389.03 
  1434.24,1391.17 1496.66,1393.1 1559.08,1394.81 1621.5,1396.31 1683.92,1397.58 1746.34,1398.64 1765.85,1398.9 1808.77,1399.42 1871.19,1399.98 1933.61,1400.32 
  1996.03,1400.43 2058.45,1400.33 
  "/>
<polyline clip-path="url(#clip992)" style="stroke:#f98c09; stroke-linecap:butt; stroke-linejoin:round; stroke-width:16; stroke-opacity:1; fill:none" points="
  2058.45,1428.2 1996.03,1428.17 1933.61,1427.92 1871.19,1427.46 1808.77,1426.77 1746.34,1425.88 1683.92,1424.78 1621.5,1423.47 1559.08,1421.96 1496.66,1420.24 
  1434.24,1418.33 1371.82,1416.23 1309.4,1413.93 1246.98,1411.44 1184.56,1408.77 1122.14,1405.91 1059.71,1402.87 997.294,1399.65 983.58,1398.9 934.873,1396.05 
  872.452,1392.2 810.031,1388.18 747.61,1383.97 685.189,1379.59 622.768,1375.03 560.347,1370.29 497.926,1365.39 435.505,1360.32 373.084,1355.08 338.508,1352.08 
  310.663,1349.49 248.242,1343.49 
  "/>
<polyline clip-path="url(#clip992)" style="stroke:#fbaa0e; stroke-linecap:butt; stroke-linejoin:round; stroke-width:16; stroke-opacity:1; fill:none" points="
  248.242,1370.35 310.663,1376.04 373.084,1381.56 435.505,1386.92 497.926,1392.11 560.347,1397.14 582.975,1398.9 622.768,1401.79 685.189,1406.15 747.61,1410.34 
  810.031,1414.37 872.452,1418.23 934.873,1421.91 997.294,1425.43 1059.71,1428.76 1122.14,1431.92 1184.56,1434.89 1246.98,1437.69 1309.4,1440.29 1371.82,1442.71 
  1434.24,1444.94 1458.26,1445.72 
  "/>
<polyline clip-path="url(#clip992)" style="stroke:#f8c931; stroke-linecap:butt; stroke-linejoin:round; stroke-width:16; stroke-opacity:1; fill:none" points="
  904.295,1445.72 872.452,1443.78 810.031,1439.81 747.61,1435.67 685.189,1431.37 622.768,1426.9 560.347,1422.27 497.926,1417.48 435.505,1412.53 373.084,1407.42 
  310.663,1402.16 273.069,1398.9 248.242,1396.6 
  "/>
<defs>
  <clipPath id="clip993">
    <rect x="2160" y="47" width="73" height="1440"/>
  </clipPath>
</defs>
<polyline clip-path="url(#clip993)" style="stroke:#0a0723; stroke-linecap:butt; stroke-linejoin:round; stroke-width:16; stroke-opacity:1; fill:none" points="
  2160.76,1396.5 2232.76,1396.5 
  "/>
<polyline clip-path="url(#clip993)" style="stroke:#200c4a; stroke-linecap:butt; stroke-linejoin:round; stroke-width:16; stroke-opacity:1; fill:none" points="
  2160.76,1306.55 2232.76,1306.55 
  "/>
<polyline clip-path="url(#clip993)" style="stroke:#3c0965; stroke-linecap:butt; stroke-linejoin:round; stroke-width:16; stroke-opacity:1; fill:none" points="
  2160.76,1216.6 2232.76,1216.6 
  "/>
<polyline clip-path="url(#clip993)" style="stroke:#570f6d; stroke-linecap:butt; stroke-linejoin:round; stroke-width:16; stroke-opacity:1; fill:none" points="
  2160.76,1126.65 2232.76,1126.65 
  "/>
<polyline clip-path="url(#clip993)" style="stroke:#70196e; stroke-linecap:butt; stroke-linejoin:round; stroke-width:16; stroke-opacity:1; fill:none" points="
  2160.76,1036.7 2232.76,1036.7 
  "/>
<polyline clip-path="url(#clip993)" style="stroke:#892269; stroke-linecap:butt; stroke-linejoin:round; stroke-width:16; stroke-opacity:1; fill:none" points="
  2160.76,946.746 2232.76,946.746 
  "/>
<polyline clip-path="url(#clip993)" style="stroke:#a32b61; stroke-linecap:butt; stroke-linejoin:round; stroke-width:16; stroke-opacity:1; fill:none" points="
  2160.76,856.796 2232.76,856.796 
  "/>
<polyline clip-path="url(#clip993)" style="stroke:#bb3754; stroke-linecap:butt; stroke-linejoin:round; stroke-width:16; stroke-opacity:1; fill:none" points="
  2160.76,766.846 2232.76,766.846 
  "/>
<polyline clip-path="url(#clip993)" style="stroke:#d04544; stroke-linecap:butt; stroke-linejoin:round; stroke-width:16; stroke-opacity:1; fill:none" points="
  2160.76,676.896 2232.76,676.896 
  "/>
<polyline clip-path="url(#clip993)" style="stroke:#e35832; stroke-linecap:butt; stroke-linejoin:round; stroke-width:16; stroke-opacity:1; fill:none" points="
  2160.76,586.946 2232.76,586.946 
  "/>
<polyline clip-path="url(#clip993)" style="stroke:#f0701e; stroke-linecap:butt; stroke-linejoin:round; stroke-width:16; stroke-opacity:1; fill:none" points="
  2160.76,496.995 2232.76,496.995 
  "/>
<polyline clip-path="url(#clip993)" style="stroke:#f98c09; stroke-linecap:butt; stroke-linejoin:round; stroke-width:16; stroke-opacity:1; fill:none" points="
  2160.76,407.045 2232.76,407.045 
  "/>
<polyline clip-path="url(#clip993)" style="stroke:#fbaa0e; stroke-linecap:butt; stroke-linejoin:round; stroke-width:16; stroke-opacity:1; fill:none" points="
  2160.76,317.095 2232.76,317.095 
  "/>
<polyline clip-path="url(#clip993)" style="stroke:#f8c931; stroke-linecap:butt; stroke-linejoin:round; stroke-width:16; stroke-opacity:1; fill:none" points="
  2160.76,227.145 2232.76,227.145 
  "/>
<polyline clip-path="url(#clip993)" style="stroke:#f1e864; stroke-linecap:butt; stroke-linejoin:round; stroke-width:16; stroke-opacity:1; fill:none" points="
  2160.76,137.194 2232.76,137.194 
  "/>
<path clip-path="url(#clip990)" d="M2269.43 1345.88 L2277.07 1345.88 L2277.07 1319.51 L2268.76 1321.18 L2268.76 1316.92 L2277.02 1315.25 L2281.7 1315.25 L2281.7 1345.88 L2289.33 1345.88 L2289.33 1349.81 L2269.43 1349.81 L2269.43 1345.88 Z" fill="#000000" fill-rule="evenodd" fill-opacity="1" /><path clip-path="url(#clip990)" d="M2274.38 1194.24 L2290.7 1194.24 L2290.7 1198.18 L2268.76 1198.18 L2268.76 1194.24 Q2271.42 1191.49 2276 1186.86 Q2280.61 1182.2 2281.79 1180.86 Q2284.03 1178.34 2284.91 1176.6 Q2285.82 1174.84 2285.82 1173.15 Q2285.82 1170.4 2283.87 1168.66 Q2281.95 1166.93 2278.85 1166.93 Q2276.65 1166.93 2274.2 1167.69 Q2271.77 1168.45 2268.99 1170.01 L2268.99 1165.28 Q2271.81 1164.15 2274.27 1163.57 Q2276.72 1162.99 2278.76 1162.99 Q2284.13 1162.99 2287.32 1165.68 Q2290.52 1168.36 2290.52 1172.85 Q2290.52 1174.98 2289.7 1176.9 Q2288.92 1178.8 2286.81 1181.39 Q2286.23 1182.07 2283.13 1185.28 Q2280.03 1188.48 2274.38 1194.24 Z" fill="#000000" fill-rule="evenodd" fill-opacity="1" /><path clip-path="url(#clip990)" d="M2284.38 1027.9 Q2287.74 1028.62 2289.61 1030.89 Q2291.51 1033.16 2291.51 1036.49 Q2291.51 1041.61 2287.99 1044.41 Q2284.47 1047.21 2277.99 1047.21 Q2275.82 1047.21 2273.5 1046.77 Q2271.21 1046.35 2268.76 1045.5 L2268.76 1040.98 Q2270.7 1042.12 2273.02 1042.7 Q2275.33 1043.28 2277.85 1043.28 Q2282.25 1043.28 2284.54 1041.54 Q2286.86 1039.8 2286.86 1036.49 Q2286.86 1033.44 2284.7 1031.72 Q2282.58 1029.99 2278.76 1029.99 L2274.73 1029.99 L2274.73 1026.15 L2278.94 1026.15 Q2282.39 1026.15 2284.22 1024.78 Q2286.05 1023.39 2286.05 1020.8 Q2286.05 1018.14 2284.15 1016.72 Q2282.27 1015.29 2278.76 1015.29 Q2276.83 1015.29 2274.64 1015.71 Q2272.44 1016.12 2269.8 1017 L2269.8 1012.84 Q2272.46 1012.09 2274.77 1011.72 Q2277.11 1011.35 2279.17 1011.35 Q2284.5 1011.35 2287.6 1013.78 Q2290.7 1016.19 2290.7 1020.31 Q2290.7 1023.18 2289.06 1025.17 Q2287.41 1027.14 2284.38 1027.9 Z" fill="#000000" fill-rule="evenodd" fill-opacity="1" /><path clip-path="url(#clip990)" d="M2284.36 864.415 L2272.55 882.864 L2284.36 882.864 L2284.36 864.415 M2283.13 860.341 L2289.01 860.341 L2289.01 882.864 L2293.94 882.864 L2293.94 886.753 L2289.01 886.753 L2289.01 894.901 L2284.36 894.901 L2284.36 886.753 L2268.76 886.753 L2268.76 882.239 L2283.13 860.341 Z" fill="#000000" fill-rule="evenodd" fill-opacity="1" /><path clip-path="url(#clip990)" d="M2270.21 708.704 L2288.57 708.704 L2288.57 712.639 L2274.5 712.639 L2274.5 721.111 Q2275.52 720.764 2276.53 720.602 Q2277.55 720.417 2278.57 720.417 Q2284.36 720.417 2287.74 723.588 Q2291.12 726.759 2291.12 732.176 Q2291.12 737.755 2287.64 740.857 Q2284.17 743.935 2277.85 743.935 Q2275.68 743.935 2273.41 743.565 Q2271.16 743.195 2268.76 742.454 L2268.76 737.755 Q2270.84 738.889 2273.06 739.445 Q2275.28 740 2277.76 740 Q2281.77 740 2284.1 737.894 Q2286.44 735.787 2286.44 732.176 Q2286.44 728.565 2284.1 726.458 Q2281.77 724.352 2277.76 724.352 Q2275.89 724.352 2274.01 724.769 Q2272.16 725.185 2270.21 726.065 L2270.21 708.704 Z" fill="#000000" fill-rule="evenodd" fill-opacity="1" /><path clip-path="url(#clip990)" d="M2281.09 572.483 Q2277.95 572.483 2276.09 574.636 Q2274.27 576.789 2274.27 580.539 Q2274.27 584.265 2276.09 586.441 Q2277.95 588.594 2281.09 588.594 Q2284.24 588.594 2286.07 586.441 Q2287.92 584.265 2287.92 580.539 Q2287.92 576.789 2286.07 574.636 Q2284.24 572.483 2281.09 572.483 M2290.38 557.83 L2290.38 562.09 Q2288.62 561.256 2286.81 560.816 Q2285.03 560.377 2283.27 560.377 Q2278.64 560.377 2276.19 563.502 Q2273.76 566.627 2273.41 572.946 Q2274.77 570.932 2276.83 569.867 Q2278.89 568.779 2281.37 568.779 Q2286.58 568.779 2289.59 571.951 Q2292.62 575.099 2292.62 580.539 Q2292.62 585.863 2289.47 589.08 Q2286.33 592.298 2281.09 592.298 Q2275.1 592.298 2271.93 587.714 Q2268.76 583.108 2268.76 574.381 Q2268.76 566.187 2272.64 561.326 Q2276.53 556.441 2283.08 556.441 Q2284.84 556.441 2286.63 556.789 Q2288.43 557.136 2290.38 557.83 Z" fill="#000000" fill-rule="evenodd" fill-opacity="1" /><path clip-path="url(#clip990)" d="M2268.76 405.429 L2290.98 405.429 L2290.98 407.42 L2278.43 439.989 L2273.55 439.989 L2285.35 409.364 L2268.76 409.364 L2268.76 405.429 Z" fill="#000000" fill-rule="evenodd" fill-opacity="1" /><path clip-path="url(#clip990)" d="M2280.61 271.94 Q2277.27 271.94 2275.35 273.722 Q2273.45 275.504 2273.45 278.629 Q2273.45 281.754 2275.35 283.537 Q2277.27 285.319 2280.61 285.319 Q2283.94 285.319 2285.86 283.537 Q2287.78 281.731 2287.78 278.629 Q2287.78 275.504 2285.86 273.722 Q2283.96 271.94 2280.61 271.94 M2275.93 269.949 Q2272.92 269.208 2271.23 267.148 Q2269.57 265.088 2269.57 262.125 Q2269.57 257.981 2272.51 255.574 Q2275.47 253.167 2280.61 253.167 Q2285.77 253.167 2288.71 255.574 Q2291.65 257.981 2291.65 262.125 Q2291.65 265.088 2289.96 267.148 Q2288.29 269.208 2285.31 269.949 Q2288.69 270.736 2290.56 273.028 Q2292.46 275.319 2292.46 278.629 Q2292.46 283.652 2289.38 286.338 Q2286.33 289.023 2280.61 289.023 Q2274.89 289.023 2271.81 286.338 Q2268.76 283.652 2268.76 278.629 Q2268.76 275.319 2270.65 273.028 Q2272.55 270.736 2275.93 269.949 M2274.22 262.565 Q2274.22 265.25 2275.89 266.754 Q2277.58 268.259 2280.61 268.259 Q2283.62 268.259 2285.31 266.754 Q2287.02 265.25 2287.02 262.565 Q2287.02 259.879 2285.31 258.375 Q2283.62 256.87 2280.61 256.87 Q2277.58 256.87 2275.89 258.375 Q2274.22 259.879 2274.22 262.565 Z" fill="#000000" fill-rule="evenodd" fill-opacity="1" /><path clip-path="url(#clip990)" d="M2270.98 135.996 L2270.98 131.737 Q2272.74 132.571 2274.54 133.01 Q2276.35 133.45 2278.08 133.45 Q2282.71 133.45 2285.14 130.348 Q2287.6 127.223 2287.95 120.881 Q2286.6 122.872 2284.54 123.936 Q2282.48 125.001 2279.98 125.001 Q2274.8 125.001 2271.77 121.876 Q2268.76 118.728 2268.76 113.288 Q2268.76 107.964 2271.9 104.747 Q2275.05 101.529 2280.28 101.529 Q2286.28 101.529 2289.43 106.135 Q2292.6 110.719 2292.6 119.469 Q2292.6 127.64 2288.71 132.524 Q2284.84 137.385 2278.29 137.385 Q2276.53 137.385 2274.73 137.038 Q2272.92 136.691 2270.98 135.996 M2280.28 121.344 Q2283.43 121.344 2285.26 119.191 Q2287.11 117.038 2287.11 113.288 Q2287.11 109.561 2285.26 107.409 Q2283.43 105.233 2280.28 105.233 Q2277.14 105.233 2275.28 107.409 Q2273.45 109.561 2273.45 113.288 Q2273.45 117.038 2275.28 119.191 Q2277.14 121.344 2280.28 121.344 Z" fill="#000000" fill-rule="evenodd" fill-opacity="1" /><polyline clip-path="url(#clip990)" style="stroke:#000000; stroke-linecap:butt; stroke-linejoin:round; stroke-width:4; stroke-opacity:1; fill:none" points="
  2232.76,1486.45 2232.76,1336.16 2256.76,1336.16 2232.76,1336.16 2232.76,1184.53 2256.76,1184.53 2232.76,1184.53 2232.76,1032.89 2256.76,1032.89 2232.76,1032.89 
  2232.76,881.25 2256.76,881.25 2232.76,881.25 2232.76,729.613 2256.76,729.613 2232.76,729.613 2232.76,577.975 2256.76,577.975 2232.76,577.975 2232.76,426.338 
  2256.76,426.338 2232.76,426.338 2232.76,274.7 2256.76,274.7 2232.76,274.7 2232.76,123.063 2256.76,123.063 2232.76,123.063 2232.76,47.2441 
  "/>
<path clip-path="url(#clip990)" d="
M1783.16 198.898 L2048.8 198.898 L2048.8 95.2176 L1783.16 95.2176  Z
  " fill="#ffffff" fill-rule="evenodd" fill-opacity="1"/>
<polyline clip-path="url(#clip990)" style="stroke:#000000; stroke-linecap:butt; stroke-linejoin:round; stroke-width:4; stroke-opacity:1; fill:none" points="
  1783.16,198.898 2048.8,198.898 2048.8,95.2176 1783.16,95.2176 1783.16,198.898 
  "/>
<polyline clip-path="url(#clip990)" style="stroke:#009af9; stroke-linecap:butt; stroke-linejoin:round; stroke-width:4; stroke-opacity:1; fill:none" points="
  1804.48,147.058 1932.4,147.058 
  "/>
<circle clip-path="url(#clip990)" cx="1868.44" cy="147.058" r="23" fill="#009af9" fill-rule="evenodd" fill-opacity="1" stroke="#000000" stroke-opacity="1" stroke-width="5.12"/>
<path clip-path="url(#clip990)" d="M1967.57 166.745 Q1965.76 171.375 1964.05 172.787 Q1962.34 174.199 1959.47 174.199 L1956.06 174.199 L1956.06 170.634 L1958.56 170.634 Q1960.32 170.634 1961.29 169.8 Q1962.27 168.967 1963.45 165.865 L1964.21 163.921 L1953.72 138.412 L1958.24 138.412 L1966.34 158.689 L1974.44 138.412 L1978.96 138.412 L1967.57 166.745 Z" fill="#000000" fill-rule="evenodd" fill-opacity="1" /><path clip-path="url(#clip990)" d="M1986.25 160.402 L1993.89 160.402 L1993.89 134.037 L1985.58 135.703 L1985.58 131.444 L1993.84 129.778 L1998.52 129.778 L1998.52 160.402 L2006.15 160.402 L2006.15 164.338 L1986.25 164.338 L1986.25 160.402 Z" fill="#000000" fill-rule="evenodd" fill-opacity="1" /></svg>
