<?xml version="1.0" encoding="utf-8"?>
<svg xmlns="http://www.w3.org/2000/svg" xmlns:xlink="http://www.w3.org/1999/xlink" width="600" height="400" viewBox="0 0 2400 1600">
<defs>
  <clipPath id="clip950">
    <rect x="0" y="0" width="2400" height="1600"/>
  </clipPath>
</defs>
<path clip-path="url(#clip950)" d="
M0 1600 L2400 1600 L2400 0 L0 0  Z
  " fill="#ffffff" fill-rule="evenodd" fill-opacity="1"/>
<defs>
  <clipPath id="clip951">
    <rect x="480" y="0" width="1681" height="1600"/>
  </clipPath>
</defs>
<path clip-path="url(#clip950)" d="
M213.607 1486.45 L2352.76 1486.45 L2352.76 47.2441 L213.607 47.2441  Z
  " fill="#ffffff" fill-rule="evenodd" fill-opacity="1"/>
<defs>
  <clipPath id="clip952">
    <rect x="213" y="47" width="2140" height="1440"/>
  </clipPath>
</defs>
<polyline clip-path="url(#clip952)" style="stroke:#000000; stroke-linecap:butt; stroke-linejoin:round; stroke-width:2; stroke-opacity:0.1; fill:none" points="
  256.752,1486.45 256.752,47.2441 
  "/>
<polyline clip-path="url(#clip952)" style="stroke:#000000; stroke-linecap:butt; stroke-linejoin:round; stroke-width:2; stroke-opacity:0.1; fill:none" points="
  691.68,1486.45 691.68,47.2441 
  "/>
<polyline clip-path="url(#clip952)" style="stroke:#000000; stroke-linecap:butt; stroke-linejoin:round; stroke-width:2; stroke-opacity:0.1; fill:none" points="
  1126.61,1486.45 1126.61,47.2441 
  "/>
<polyline clip-path="url(#clip952)" style="stroke:#000000; stroke-linecap:butt; stroke-linejoin:round; stroke-width:2; stroke-opacity:0.1; fill:none" points="
  1561.54,1486.45 1561.54,47.2441 
  "/>
<polyline clip-path="url(#clip952)" style="stroke:#000000; stroke-linecap:butt; stroke-linejoin:round; stroke-width:2; stroke-opacity:0.1; fill:none" points="
  1996.46,1486.45 1996.46,47.2441 
  "/>
<polyline clip-path="url(#clip950)" style="stroke:#000000; stroke-linecap:butt; stroke-linejoin:round; stroke-width:4; stroke-opacity:1; fill:none" points="
  213.607,1486.45 2352.76,1486.45 
  "/>
<polyline clip-path="url(#clip950)" style="stroke:#000000; stroke-linecap:butt; stroke-linejoin:round; stroke-width:4; stroke-opacity:1; fill:none" points="
  256.752,1486.45 256.752,1467.55 
  "/>
<polyline clip-path="url(#clip950)" style="stroke:#000000; stroke-linecap:butt; stroke-linejoin:round; stroke-width:4; stroke-opacity:1; fill:none" points="
  691.68,1486.45 691.68,1467.55 
  "/>
<polyline clip-path="url(#clip950)" style="stroke:#000000; stroke-linecap:butt; stroke-linejoin:round; stroke-width:4; stroke-opacity:1; fill:none" points="
  1126.61,1486.45 1126.61,1467.55 
  "/>
<polyline clip-path="url(#clip950)" style="stroke:#000000; stroke-linecap:butt; stroke-linejoin:round; stroke-width:4; stroke-opacity:1; fill:none" points="
  1561.54,1486.45 1561.54,1467.55 
  "/>
<polyline clip-path="url(#clip950)" style="stroke:#000000; stroke-linecap:butt; stroke-linejoin:round; stroke-width:4; stroke-opacity:1; fill:none" points="
  1996.46,1486.45 1996.46,1467.55 
  "/>
<path clip-path="url(#clip950)" d="M256.752 1515.64 Q253.141 1515.64 251.313 1519.2 Q249.507 1522.75 249.507 1529.87 Q249.507 1536.98 251.313 1540.55 Q253.141 1544.09 256.752 1544.09 Q260.387 1544.09 262.192 1540.55 Q264.021 1536.98 264.021 1529.87 Q264.021 1522.75 262.192 1519.2 Q260.387 1515.64 256.752 1515.64 M256.752 1511.93 Q262.562 1511.93 265.618 1516.54 Q268.697 1521.12 268.697 1529.87 Q268.697 1538.6 265.618 1543.21 Q262.562 1547.79 256.752 1547.79 Q250.942 1547.79 247.863 1543.21 Q244.808 1538.6 244.808 1529.87 Q244.808 1521.12 247.863 1516.54 Q250.942 1511.93 256.752 1511.93 Z" fill="#000000" fill-rule="evenodd" fill-opacity="1" /><path clip-path="url(#clip950)" d="M670.951 1543.18 L687.27 1543.18 L687.27 1547.12 L665.326 1547.12 L665.326 1543.18 Q667.988 1540.43 672.571 1535.8 Q677.178 1531.15 678.358 1529.81 Q680.604 1527.28 681.483 1525.55 Q682.386 1523.79 682.386 1522.1 Q682.386 1519.34 680.442 1517.61 Q678.52 1515.87 675.419 1515.87 Q673.219 1515.87 670.766 1516.63 Q668.335 1517.4 665.557 1518.95 L665.557 1514.23 Q668.382 1513.09 670.835 1512.51 Q673.289 1511.93 675.326 1511.93 Q680.696 1511.93 683.891 1514.62 Q687.085 1517.31 687.085 1521.8 Q687.085 1523.93 686.275 1525.85 Q685.488 1527.74 683.381 1530.34 Q682.803 1531.01 679.701 1534.23 Q676.599 1537.42 670.951 1543.18 Z" fill="#000000" fill-rule="evenodd" fill-opacity="1" /><path clip-path="url(#clip950)" d="M697.131 1512.56 L715.488 1512.56 L715.488 1516.5 L701.414 1516.5 L701.414 1524.97 Q702.432 1524.62 703.451 1524.46 Q704.469 1524.27 705.488 1524.27 Q711.275 1524.27 714.654 1527.44 Q718.034 1530.62 718.034 1536.03 Q718.034 1541.61 714.562 1544.71 Q711.09 1547.79 704.77 1547.79 Q702.594 1547.79 700.326 1547.42 Q698.08 1547.05 695.673 1546.31 L695.673 1541.61 Q697.756 1542.74 699.979 1543.3 Q702.201 1543.86 704.678 1543.86 Q708.682 1543.86 711.02 1541.75 Q713.358 1539.64 713.358 1536.03 Q713.358 1532.42 711.02 1530.31 Q708.682 1528.21 704.678 1528.21 Q702.803 1528.21 700.928 1528.62 Q699.076 1529.04 697.131 1529.92 L697.131 1512.56 Z" fill="#000000" fill-rule="evenodd" fill-opacity="1" /><path clip-path="url(#clip950)" d="M1101.31 1512.56 L1119.66 1512.56 L1119.66 1516.5 L1105.59 1516.5 L1105.59 1524.97 Q1106.61 1524.62 1107.63 1524.46 Q1108.64 1524.27 1109.66 1524.27 Q1115.45 1524.27 1118.83 1527.44 Q1122.21 1530.62 1122.21 1536.03 Q1122.21 1541.61 1118.74 1544.71 Q1115.27 1547.79 1108.95 1547.79 Q1106.77 1547.79 1104.5 1547.42 Q1102.26 1547.05 1099.85 1546.31 L1099.85 1541.61 Q1101.93 1542.74 1104.15 1543.3 Q1106.38 1543.86 1108.85 1543.86 Q1112.86 1543.86 1115.2 1541.75 Q1117.53 1539.64 1117.53 1536.03 Q1117.53 1532.42 1115.2 1530.31 Q1112.86 1528.21 1108.85 1528.21 Q1106.98 1528.21 1105.1 1528.62 Q1103.25 1529.04 1101.31 1529.92 L1101.31 1512.56 Z" fill="#000000" fill-rule="evenodd" fill-opacity="1" /><path clip-path="url(#clip950)" d="M1141.42 1515.64 Q1137.81 1515.64 1135.98 1519.2 Q1134.18 1522.75 1134.18 1529.87 Q1134.18 1536.98 1135.98 1540.55 Q1137.81 1544.09 1141.42 1544.09 Q1145.06 1544.09 1146.86 1540.55 Q1148.69 1536.98 1148.69 1529.87 Q1148.69 1522.75 1146.86 1519.2 Q1145.06 1515.64 1141.42 1515.64 M1141.42 1511.93 Q1147.23 1511.93 1150.29 1516.54 Q1153.37 1521.12 1153.37 1529.87 Q1153.37 1538.6 1150.29 1543.21 Q1147.23 1547.79 1141.42 1547.79 Q1135.61 1547.79 1132.53 1543.21 Q1129.48 1538.6 1129.48 1529.87 Q1129.48 1521.12 1132.53 1516.54 Q1135.61 1511.93 1141.42 1511.93 Z" fill="#000000" fill-rule="evenodd" fill-opacity="1" /><path clip-path="url(#clip950)" d="M1535.39 1512.56 L1557.61 1512.56 L1557.61 1514.55 L1545.07 1547.12 L1540.18 1547.12 L1551.99 1516.5 L1535.39 1516.5 L1535.39 1512.56 Z" fill="#000000" fill-rule="evenodd" fill-opacity="1" /><path clip-path="url(#clip950)" d="M1566.78 1512.56 L1585.13 1512.56 L1585.13 1516.5 L1571.06 1516.5 L1571.06 1524.97 Q1572.08 1524.62 1573.1 1524.46 Q1574.12 1524.27 1575.13 1524.27 Q1580.92 1524.27 1584.3 1527.44 Q1587.68 1530.62 1587.68 1536.03 Q1587.68 1541.61 1584.21 1544.71 Q1580.74 1547.79 1574.42 1547.79 Q1572.24 1547.79 1569.97 1547.42 Q1567.73 1547.05 1565.32 1546.31 L1565.32 1541.61 Q1567.4 1542.74 1569.63 1543.3 Q1571.85 1543.86 1574.32 1543.86 Q1578.33 1543.86 1580.67 1541.75 Q1583.01 1539.64 1583.01 1536.03 Q1583.01 1532.42 1580.67 1530.31 Q1578.33 1528.21 1574.32 1528.21 Q1572.45 1528.21 1570.57 1528.62 Q1568.72 1529.04 1566.78 1529.92 L1566.78 1512.56 Z" fill="#000000" fill-rule="evenodd" fill-opacity="1" /><path clip-path="url(#clip950)" d="M1956.07 1543.18 L1963.71 1543.18 L1963.71 1516.82 L1955.4 1518.49 L1955.4 1514.23 L1963.66 1512.56 L1968.34 1512.56 L1968.34 1543.18 L1975.98 1543.18 L1975.98 1547.12 L1956.07 1547.12 L1956.07 1543.18 Z" fill="#000000" fill-rule="evenodd" fill-opacity="1" /><path clip-path="url(#clip950)" d="M1995.42 1515.64 Q1991.81 1515.64 1989.98 1519.2 Q1988.18 1522.75 1988.18 1529.87 Q1988.18 1536.98 1989.98 1540.55 Q1991.81 1544.09 1995.42 1544.09 Q1999.06 1544.09 2000.86 1540.55 Q2002.69 1536.98 2002.69 1529.87 Q2002.69 1522.75 2000.86 1519.2 Q1999.06 1515.64 1995.42 1515.64 M1995.42 1511.93 Q2001.23 1511.93 2004.29 1516.54 Q2007.37 1521.12 2007.37 1529.87 Q2007.37 1538.6 2004.29 1543.21 Q2001.23 1547.79 1995.42 1547.79 Q1989.61 1547.79 1986.53 1543.21 Q1983.48 1538.6 1983.48 1529.87 Q1983.48 1521.12 1986.53 1516.54 Q1989.61 1511.93 1995.42 1511.93 Z" fill="#000000" fill-rule="evenodd" fill-opacity="1" /><path clip-path="url(#clip950)" d="M2025.58 1515.64 Q2021.97 1515.64 2020.14 1519.2 Q2018.34 1522.75 2018.34 1529.87 Q2018.34 1536.98 2020.14 1540.55 Q2021.97 1544.09 2025.58 1544.09 Q2029.22 1544.09 2031.02 1540.55 Q2032.85 1536.98 2032.85 1529.87 Q2032.85 1522.75 2031.02 1519.2 Q2029.22 1515.64 2025.58 1515.64 M2025.58 1511.93 Q2031.39 1511.93 2034.45 1516.54 Q2037.53 1521.12 2037.53 1529.87 Q2037.53 1538.6 2034.45 1543.21 Q2031.39 1547.79 2025.58 1547.79 Q2019.77 1547.79 2016.69 1543.21 Q2013.64 1538.6 2013.64 1529.87 Q2013.64 1521.12 2016.69 1516.54 Q2019.77 1511.93 2025.58 1511.93 Z" fill="#000000" fill-rule="evenodd" fill-opacity="1" /><polyline clip-path="url(#clip952)" style="stroke:#000000; stroke-linecap:butt; stroke-linejoin:round; stroke-width:2; stroke-opacity:0.1; fill:none" points="
  213.607,1402.33 2352.76,1402.33 
  "/>
<polyline clip-path="url(#clip952)" style="stroke:#000000; stroke-linecap:butt; stroke-linejoin:round; stroke-width:2; stroke-opacity:0.1; fill:none" points="
  213.607,798.652 2352.76,798.652 
  "/>
<polyline clip-path="url(#clip952)" style="stroke:#000000; stroke-linecap:butt; stroke-linejoin:round; stroke-width:2; stroke-opacity:0.1; fill:none" points="
  213.607,194.973 2352.76,194.973 
  "/>
<polyline clip-path="url(#clip950)" style="stroke:#000000; stroke-linecap:butt; stroke-linejoin:round; stroke-width:4; stroke-opacity:1; fill:none" points="
  213.607,1486.45 213.607,47.2441 
  "/>
<polyline clip-path="url(#clip950)" style="stroke:#000000; stroke-linecap:butt; stroke-linejoin:round; stroke-width:4; stroke-opacity:1; fill:none" points="
  213.607,1402.33 232.505,1402.33 
  "/>
<polyline clip-path="url(#clip950)" style="stroke:#000000; stroke-linecap:butt; stroke-linejoin:round; stroke-width:4; stroke-opacity:1; fill:none" points="
  213.607,798.652 232.505,798.652 
  "/>
<polyline clip-path="url(#clip950)" style="stroke:#000000; stroke-linecap:butt; stroke-linejoin:round; stroke-width:4; stroke-opacity:1; fill:none" points="
  213.607,194.973 232.505,194.973 
  "/>
<path clip-path="url(#clip950)" d="M51.6634 1422.12 L59.3023 1422.12 L59.3023 1395.76 L50.9921 1397.42 L50.9921 1393.16 L59.256 1391.5 L63.9319 1391.5 L63.9319 1422.12 L71.5707 1422.12 L71.5707 1426.06 L51.6634 1426.06 L51.6634 1422.12 Z" fill="#000000" fill-rule="evenodd" fill-opacity="1" /><path clip-path="url(#clip950)" d="M91.0151 1394.58 Q87.404 1394.58 85.5753 1398.14 Q83.7697 1401.68 83.7697 1408.81 Q83.7697 1415.92 85.5753 1419.48 Q87.404 1423.03 91.0151 1423.03 Q94.6493 1423.03 96.4548 1419.48 Q98.2835 1415.92 98.2835 1408.81 Q98.2835 1401.68 96.4548 1398.14 Q94.6493 1394.58 91.0151 1394.58 M91.0151 1390.87 Q96.8252 1390.87 99.8808 1395.48 Q102.959 1400.06 102.959 1408.81 Q102.959 1417.54 99.8808 1422.15 Q96.8252 1426.73 91.0151 1426.73 Q85.2049 1426.73 82.1262 1422.15 Q79.0707 1417.54 79.0707 1408.81 Q79.0707 1400.06 82.1262 1395.48 Q85.2049 1390.87 91.0151 1390.87 Z" fill="#000000" fill-rule="evenodd" fill-opacity="1" /><path clip-path="url(#clip950)" d="M102.959 1384.97 L127.071 1384.97 L127.071 1388.17 L102.959 1388.17 L102.959 1384.97 Z" fill="#000000" fill-rule="evenodd" fill-opacity="1" /><path clip-path="url(#clip950)" d="M135.929 1395.45 L142.136 1395.45 L142.136 1374.03 L135.384 1375.38 L135.384 1371.92 L142.098 1370.57 L145.898 1370.57 L145.898 1395.45 L152.104 1395.45 L152.104 1398.65 L135.929 1398.65 L135.929 1395.45 Z" fill="#000000" fill-rule="evenodd" fill-opacity="1" /><path clip-path="url(#clip950)" d="M167.903 1373.07 Q164.969 1373.07 163.483 1375.97 Q162.016 1378.84 162.016 1384.64 Q162.016 1390.41 163.483 1393.31 Q164.969 1396.18 167.903 1396.18 Q170.855 1396.18 172.322 1393.31 Q173.808 1390.41 173.808 1384.64 Q173.808 1378.84 172.322 1375.97 Q170.855 1373.07 167.903 1373.07 M167.903 1370.06 Q172.623 1370.06 175.106 1373.8 Q177.607 1377.53 177.607 1384.64 Q177.607 1391.73 175.106 1395.47 Q172.623 1399.19 167.903 1399.19 Q163.182 1399.19 160.68 1395.47 Q158.198 1391.73 158.198 1384.64 Q158.198 1377.53 160.68 1373.8 Q163.182 1370.06 167.903 1370.06 Z" fill="#000000" fill-rule="evenodd" fill-opacity="1" /><path clip-path="url(#clip950)" d="M76.9787 818.444 L84.6175 818.444 L84.6175 792.079 L76.3074 793.745 L76.3074 789.486 L84.5712 787.819 L89.2471 787.819 L89.2471 818.444 L96.886 818.444 L96.886 822.379 L76.9787 822.379 L76.9787 818.444 Z" fill="#000000" fill-rule="evenodd" fill-opacity="1" /><path clip-path="url(#clip950)" d="M116.33 790.898 Q112.719 790.898 110.891 794.463 Q109.085 798.004 109.085 805.134 Q109.085 812.24 110.891 815.805 Q112.719 819.347 116.33 819.347 Q119.965 819.347 121.77 815.805 Q123.599 812.24 123.599 805.134 Q123.599 798.004 121.77 794.463 Q119.965 790.898 116.33 790.898 M116.33 787.194 Q122.14 787.194 125.196 791.801 Q128.275 796.384 128.275 805.134 Q128.275 813.861 125.196 818.467 Q122.14 823.051 116.33 823.051 Q110.52 823.051 107.441 818.467 Q104.386 813.861 104.386 805.134 Q104.386 796.384 107.441 791.801 Q110.52 787.194 116.33 787.194 Z" fill="#000000" fill-rule="evenodd" fill-opacity="1" /><path clip-path="url(#clip950)" d="M128.275 781.296 L152.386 781.296 L152.386 784.493 L128.275 784.493 L128.275 781.296 Z" fill="#000000" fill-rule="evenodd" fill-opacity="1" /><path clip-path="url(#clip950)" d="M160.624 766.889 L175.539 766.889 L175.539 770.086 L164.103 770.086 L164.103 776.97 Q164.931 776.688 165.759 776.556 Q166.586 776.406 167.414 776.406 Q172.116 776.406 174.862 778.982 Q177.607 781.559 177.607 785.96 Q177.607 790.493 174.786 793.013 Q171.965 795.514 166.831 795.514 Q165.063 795.514 163.22 795.213 Q161.395 794.913 159.439 794.311 L159.439 790.493 Q161.132 791.414 162.937 791.866 Q164.743 792.317 166.755 792.317 Q170.009 792.317 171.909 790.606 Q173.808 788.894 173.808 785.96 Q173.808 783.026 171.909 781.314 Q170.009 779.603 166.755 779.603 Q165.232 779.603 163.709 779.942 Q162.204 780.28 160.624 780.995 L160.624 766.889 Z" fill="#000000" fill-rule="evenodd" fill-opacity="1" /><path clip-path="url(#clip950)" d="M106.902 214.766 L114.541 214.766 L114.541 188.4 L106.231 190.067 L106.231 185.808 L114.494 184.141 L119.17 184.141 L119.17 214.766 L126.809 214.766 L126.809 218.701 L106.902 218.701 L106.902 214.766 Z" fill="#000000" fill-rule="evenodd" fill-opacity="1" /><path clip-path="url(#clip950)" d="M146.253 187.22 Q142.642 187.22 140.814 190.784 Q139.008 194.326 139.008 201.456 Q139.008 208.562 140.814 212.127 Q142.642 215.668 146.253 215.668 Q149.888 215.668 151.693 212.127 Q153.522 208.562 153.522 201.456 Q153.522 194.326 151.693 190.784 Q149.888 187.22 146.253 187.22 M146.253 183.516 Q152.064 183.516 155.119 188.122 Q158.198 192.706 158.198 201.456 Q158.198 210.182 155.119 214.789 Q152.064 219.372 146.253 219.372 Q140.443 219.372 137.365 214.789 Q134.309 210.182 134.309 201.456 Q134.309 192.706 137.365 188.122 Q140.443 183.516 146.253 183.516 Z" fill="#000000" fill-rule="evenodd" fill-opacity="1" /><path clip-path="url(#clip950)" d="M167.903 165.712 Q164.969 165.712 163.483 168.608 Q162.016 171.486 162.016 177.279 Q162.016 183.053 163.483 185.949 Q164.969 188.827 167.903 188.827 Q170.855 188.827 172.322 185.949 Q173.808 183.053 173.808 177.279 Q173.808 171.486 172.322 168.608 Q170.855 165.712 167.903 165.712 M167.903 162.703 Q172.623 162.703 175.106 166.445 Q177.607 170.169 177.607 177.279 Q177.607 184.369 175.106 188.112 Q172.623 191.836 167.903 191.836 Q163.182 191.836 160.68 188.112 Q158.198 184.369 158.198 177.279 Q158.198 170.169 160.68 166.445 Q163.182 162.703 167.903 162.703 Z" fill="#000000" fill-rule="evenodd" fill-opacity="1" /><polyline clip-path="url(#clip952)" style="stroke:#009af9; stroke-linecap:butt; stroke-linejoin:round; stroke-width:16; stroke-opacity:1; fill:none" points="
  274.149,87.9763 291.547,137.704 308.944,184.572 326.341,226.377 343.738,260.806 361.135,287.009 378.532,306.359 395.929,321.27 413.326,333.764 430.723,345.065 
  448.12,355.808 465.518,366.295 482.915,376.668 500.312,386.989 517.709,397.286 535.106,407.573 552.503,417.855 569.9,428.136 587.297,438.415 604.694,448.694 
  622.092,458.973 639.489,469.251 656.886,479.53 674.283,489.809 691.68,500.087 709.077,510.366 726.474,520.644 743.871,530.923 761.268,541.201 778.666,551.48 
  796.063,561.759 813.46,572.037 830.857,582.316 848.254,592.594 865.651,602.873 883.048,613.151 900.445,623.43 917.842,633.709 935.24,643.987 952.637,654.266 
  970.034,664.544 987.431,674.823 1004.83,685.101 1022.23,695.38 1039.62,705.659 1057.02,715.937 1074.42,726.216 1091.81,736.494 1109.21,746.773 1126.61,757.051 
  1144,767.33 1161.4,777.609 1178.8,787.887 1196.2,798.166 1213.59,808.444 1230.99,818.723 1248.39,829.001 1265.78,839.28 1283.18,849.559 1300.58,859.837 
  1317.98,870.116 1335.37,880.394 1352.77,890.673 1370.17,900.951 1387.56,911.23 1404.96,921.509 1422.36,931.787 1439.76,942.066 1457.15,952.344 1474.55,962.623 
  1491.95,972.901 1509.34,983.18 1526.74,993.459 1544.14,1003.74 1561.54,1014.02 1578.93,1024.29 1596.33,1034.57 1613.73,1044.85 1631.12,1055.13 1648.52,1065.41 
  1665.92,1075.69 1683.32,1085.97 1700.71,1096.24 1718.11,1106.52 1735.51,1116.8 1752.9,1127.08 1770.3,1137.36 1787.7,1147.64 1805.09,1157.92 1822.49,1168.19 
  1839.89,1178.47 1857.29,1188.75 1874.68,1199.03 1892.08,1209.31 1909.48,1219.59 1926.87,1229.87 1944.27,1240.14 1961.67,1250.42 1979.07,1260.7 1996.46,1270.98 
  2013.86,1281.26 2031.26,1291.54 2048.65,1301.82 2066.05,1312.09 2083.45,1322.37 2100.85,1332.65 2118.24,1342.93 2135.64,1353.21 2153.04,1363.49 2170.43,1373.77 
  2187.83,1384.04 2205.23,1394.32 2222.63,1404.6 2240.02,1414.88 2257.42,1425.16 2274.82,1435.44 2292.21,1445.72 
  "/>
<path clip-path="url(#clip950)" d="
M1991.34 198.898 L2281.45 198.898 L2281.45 95.2176 L1991.34 95.2176  Z
  " fill="#ffffff" fill-rule="evenodd" fill-opacity="1"/>
<polyline clip-path="url(#clip950)" style="stroke:#000000; stroke-linecap:butt; stroke-linejoin:round; stroke-width:4; stroke-opacity:1; fill:none" points="
  1991.34,198.898 2281.45,198.898 2281.45,95.2176 1991.34,95.2176 1991.34,198.898 
  "/>
<polyline clip-path="url(#clip950)" style="stroke:#009af9; stroke-linecap:butt; stroke-linejoin:round; stroke-width:4; stroke-opacity:1; fill:none" points="
  2015.11,147.058 2157.72,147.058 
  "/>
<path clip-path="url(#clip950)" d="M2195.33 166.745 Q2193.52 171.375 2191.81 172.787 Q2190.1 174.199 2187.22 174.199 L2183.82 174.199 L2183.82 170.634 L2186.32 170.634 Q2188.08 170.634 2189.05 169.8 Q2190.03 168.967 2191.21 165.865 L2191.97 163.921 L2181.48 138.412 L2186 138.412 L2194.1 158.689 L2202.2 138.412 L2206.72 138.412 L2195.33 166.745 Z" fill="#000000" fill-rule="evenodd" fill-opacity="1" /><path clip-path="url(#clip950)" d="M2214.01 160.402 L2221.65 160.402 L2221.65 134.037 L2213.34 135.703 L2213.34 131.444 L2221.6 129.778 L2226.28 129.778 L2226.28 160.402 L2233.91 160.402 L2233.91 164.338 L2214.01 164.338 L2214.01 160.402 Z" fill="#000000" fill-rule="evenodd" fill-opacity="1" /></svg>
