<?xml version="1.0" encoding="utf-8"?>
<svg xmlns="http://www.w3.org/2000/svg" xmlns:xlink="http://www.w3.org/1999/xlink" width="600" height="400" viewBox="0 0 2400 1600">
<defs>
  <clipPath id="clip940">
    <rect x="0" y="0" width="2400" height="1600"/>
  </clipPath>
</defs>
<path clip-path="url(#clip940)" d="
M0 1600 L2400 1600 L2400 0 L0 0  Z
  " fill="#ffffff" fill-rule="evenodd" fill-opacity="1"/>
<defs>
  <clipPath id="clip941">
    <rect x="480" y="0" width="1681" height="1600"/>
  </clipPath>
</defs>
<path clip-path="url(#clip940)" d="
M186.76 1486.45 L2352.76 1486.45 L2352.76 47.2441 L186.76 47.2441  Z
  " fill="#ffffff" fill-rule="evenodd" fill-opacity="1"/>
<defs>
  <clipPath id="clip942">
    <rect x="186" y="47" width="2167" height="1440"/>
  </clipPath>
</defs>
<polyline clip-path="url(#clip942)" style="stroke:#000000; stroke-linecap:butt; stroke-linejoin:round; stroke-width:2; stroke-opacity:0.1; fill:none" points="
  248.062,1486.45 248.062,47.2441 
  "/>
<polyline clip-path="url(#clip942)" style="stroke:#000000; stroke-linecap:butt; stroke-linejoin:round; stroke-width:2; stroke-opacity:0.1; fill:none" points="
  758.91,1486.45 758.91,47.2441 
  "/>
<polyline clip-path="url(#clip942)" style="stroke:#000000; stroke-linecap:butt; stroke-linejoin:round; stroke-width:2; stroke-opacity:0.1; fill:none" points="
  1269.76,1486.45 1269.76,47.2441 
  "/>
<polyline clip-path="url(#clip942)" style="stroke:#000000; stroke-linecap:butt; stroke-linejoin:round; stroke-width:2; stroke-opacity:0.1; fill:none" points="
  1780.61,1486.45 1780.61,47.2441 
  "/>
<polyline clip-path="url(#clip942)" style="stroke:#000000; stroke-linecap:butt; stroke-linejoin:round; stroke-width:2; stroke-opacity:0.1; fill:none" points="
  2291.45,1486.45 2291.45,47.2441 
  "/>
<polyline clip-path="url(#clip940)" style="stroke:#000000; stroke-linecap:butt; stroke-linejoin:round; stroke-width:4; stroke-opacity:1; fill:none" points="
  186.76,1486.45 2352.76,1486.45 
  "/>
<polyline clip-path="url(#clip940)" style="stroke:#000000; stroke-linecap:butt; stroke-linejoin:round; stroke-width:4; stroke-opacity:1; fill:none" points="
  248.062,1486.45 248.062,1467.55 
  "/>
<polyline clip-path="url(#clip940)" style="stroke:#000000; stroke-linecap:butt; stroke-linejoin:round; stroke-width:4; stroke-opacity:1; fill:none" points="
  758.91,1486.45 758.91,1467.55 
  "/>
<polyline clip-path="url(#clip940)" style="stroke:#000000; stroke-linecap:butt; stroke-linejoin:round; stroke-width:4; stroke-opacity:1; fill:none" points="
  1269.76,1486.45 1269.76,1467.55 
  "/>
<polyline clip-path="url(#clip940)" style="stroke:#000000; stroke-linecap:butt; stroke-linejoin:round; stroke-width:4; stroke-opacity:1; fill:none" points="
  1780.61,1486.45 1780.61,1467.55 
  "/>
<polyline clip-path="url(#clip940)" style="stroke:#000000; stroke-linecap:butt; stroke-linejoin:round; stroke-width:4; stroke-opacity:1; fill:none" points="
  2291.45,1486.45 2291.45,1467.55 
  "/>
<path clip-path="url(#clip940)" d="M194.59 1532.02 L224.266 1532.02 L224.266 1535.95 L194.59 1535.95 L194.59 1532.02 Z" fill="#000000" fill-rule="evenodd" fill-opacity="1" /><path clip-path="url(#clip940)" d="M235.168 1544.91 L242.807 1544.91 L242.807 1518.55 L234.497 1520.21 L234.497 1515.95 L242.761 1514.29 L247.437 1514.29 L247.437 1544.91 L255.076 1544.91 L255.076 1548.85 L235.168 1548.85 L235.168 1544.91 Z" fill="#000000" fill-rule="evenodd" fill-opacity="1" /><path clip-path="url(#clip940)" d="M264.52 1542.97 L269.404 1542.97 L269.404 1548.85 L264.52 1548.85 L264.52 1542.97 Z" fill="#000000" fill-rule="evenodd" fill-opacity="1" /><path clip-path="url(#clip940)" d="M289.589 1517.37 Q285.978 1517.37 284.15 1520.93 Q282.344 1524.47 282.344 1531.6 Q282.344 1538.71 284.15 1542.27 Q285.978 1545.82 289.589 1545.82 Q293.224 1545.82 295.029 1542.27 Q296.858 1538.71 296.858 1531.6 Q296.858 1524.47 295.029 1520.93 Q293.224 1517.37 289.589 1517.37 M289.589 1513.66 Q295.4 1513.66 298.455 1518.27 Q301.534 1522.85 301.534 1531.6 Q301.534 1540.33 298.455 1544.94 Q295.4 1549.52 289.589 1549.52 Q283.779 1549.52 280.701 1544.94 Q277.645 1540.33 277.645 1531.6 Q277.645 1522.85 280.701 1518.27 Q283.779 1513.66 289.589 1513.66 Z" fill="#000000" fill-rule="evenodd" fill-opacity="1" /><path clip-path="url(#clip940)" d="M705.936 1532.02 L735.611 1532.02 L735.611 1535.95 L705.936 1535.95 L705.936 1532.02 Z" fill="#000000" fill-rule="evenodd" fill-opacity="1" /><path clip-path="url(#clip940)" d="M755.704 1517.37 Q752.093 1517.37 750.264 1520.93 Q748.459 1524.47 748.459 1531.6 Q748.459 1538.71 750.264 1542.27 Q752.093 1545.82 755.704 1545.82 Q759.338 1545.82 761.144 1542.27 Q762.972 1538.71 762.972 1531.6 Q762.972 1524.47 761.144 1520.93 Q759.338 1517.37 755.704 1517.37 M755.704 1513.66 Q761.514 1513.66 764.57 1518.27 Q767.648 1522.85 767.648 1531.6 Q767.648 1540.33 764.57 1544.94 Q761.514 1549.52 755.704 1549.52 Q749.894 1549.52 746.815 1544.94 Q743.76 1540.33 743.76 1531.6 Q743.76 1522.85 746.815 1518.27 Q749.894 1513.66 755.704 1513.66 Z" fill="#000000" fill-rule="evenodd" fill-opacity="1" /><path clip-path="url(#clip940)" d="M775.866 1542.97 L780.75 1542.97 L780.75 1548.85 L775.866 1548.85 L775.866 1542.97 Z" fill="#000000" fill-rule="evenodd" fill-opacity="1" /><path clip-path="url(#clip940)" d="M790.982 1514.29 L809.338 1514.29 L809.338 1518.22 L795.264 1518.22 L795.264 1526.7 Q796.282 1526.35 797.301 1526.19 Q798.319 1526 799.338 1526 Q805.125 1526 808.505 1529.17 Q811.884 1532.34 811.884 1537.76 Q811.884 1543.34 808.412 1546.44 Q804.94 1549.52 798.62 1549.52 Q796.444 1549.52 794.176 1549.15 Q791.931 1548.78 789.523 1548.04 L789.523 1543.34 Q791.607 1544.47 793.829 1545.03 Q796.051 1545.58 798.528 1545.58 Q802.532 1545.58 804.87 1543.48 Q807.208 1541.37 807.208 1537.76 Q807.208 1534.15 804.87 1532.04 Q802.532 1529.94 798.528 1529.94 Q796.653 1529.94 794.778 1530.35 Q792.926 1530.77 790.982 1531.65 L790.982 1514.29 Z" fill="#000000" fill-rule="evenodd" fill-opacity="1" /><path clip-path="url(#clip940)" d="M1247.14 1517.37 Q1243.53 1517.37 1241.7 1520.93 Q1239.9 1524.47 1239.9 1531.6 Q1239.9 1538.71 1241.7 1542.27 Q1243.53 1545.82 1247.14 1545.82 Q1250.78 1545.82 1252.58 1542.27 Q1254.41 1538.71 1254.41 1531.6 Q1254.41 1524.47 1252.58 1520.93 Q1250.78 1517.37 1247.14 1517.37 M1247.14 1513.66 Q1252.95 1513.66 1256.01 1518.27 Q1259.09 1522.85 1259.09 1531.6 Q1259.09 1540.33 1256.01 1544.94 Q1252.95 1549.52 1247.14 1549.52 Q1241.33 1549.52 1238.25 1544.94 Q1235.2 1540.33 1235.2 1531.6 Q1235.2 1522.85 1238.25 1518.27 Q1241.33 1513.66 1247.14 1513.66 Z" fill="#000000" fill-rule="evenodd" fill-opacity="1" /><path clip-path="url(#clip940)" d="M1267.3 1542.97 L1272.19 1542.97 L1272.19 1548.85 L1267.3 1548.85 L1267.3 1542.97 Z" fill="#000000" fill-rule="evenodd" fill-opacity="1" /><path clip-path="url(#clip940)" d="M1292.37 1517.37 Q1288.76 1517.37 1286.93 1520.93 Q1285.13 1524.47 1285.13 1531.6 Q1285.13 1538.71 1286.93 1542.27 Q1288.76 1545.82 1292.37 1545.82 Q1296.01 1545.82 1297.81 1542.27 Q1299.64 1538.71 1299.64 1531.6 Q1299.64 1524.47 1297.81 1520.93 Q1296.01 1517.37 1292.37 1517.37 M1292.37 1513.66 Q1298.18 1513.66 1301.24 1518.27 Q1304.32 1522.85 1304.32 1531.6 Q1304.32 1540.33 1301.24 1544.94 Q1298.18 1549.52 1292.37 1549.52 Q1286.56 1549.52 1283.48 1544.94 Q1280.43 1540.33 1280.43 1531.6 Q1280.43 1522.85 1283.48 1518.27 Q1286.56 1513.66 1292.37 1513.66 Z" fill="#000000" fill-rule="evenodd" fill-opacity="1" /><path clip-path="url(#clip940)" d="M1758.49 1517.37 Q1754.88 1517.37 1753.05 1520.93 Q1751.24 1524.47 1751.24 1531.6 Q1751.24 1538.71 1753.05 1542.27 Q1754.88 1545.82 1758.49 1545.82 Q1762.12 1545.82 1763.93 1542.27 Q1765.76 1538.71 1765.76 1531.6 Q1765.76 1524.47 1763.93 1520.93 Q1762.12 1517.37 1758.49 1517.37 M1758.49 1513.66 Q1764.3 1513.66 1767.35 1518.27 Q1770.43 1522.85 1770.43 1531.6 Q1770.43 1540.33 1767.35 1544.94 Q1764.3 1549.52 1758.49 1549.52 Q1752.68 1549.52 1749.6 1544.94 Q1746.54 1540.33 1746.54 1531.6 Q1746.54 1522.85 1749.6 1518.27 Q1752.68 1513.66 1758.49 1513.66 Z" fill="#000000" fill-rule="evenodd" fill-opacity="1" /><path clip-path="url(#clip940)" d="M1778.65 1542.97 L1783.53 1542.97 L1783.53 1548.85 L1778.65 1548.85 L1778.65 1542.97 Z" fill="#000000" fill-rule="evenodd" fill-opacity="1" /><path clip-path="url(#clip940)" d="M1793.77 1514.29 L1812.12 1514.29 L1812.12 1518.22 L1798.05 1518.22 L1798.05 1526.7 Q1799.07 1526.35 1800.09 1526.19 Q1801.1 1526 1802.12 1526 Q1807.91 1526 1811.29 1529.17 Q1814.67 1532.34 1814.67 1537.76 Q1814.67 1543.34 1811.2 1546.44 Q1807.72 1549.52 1801.4 1549.52 Q1799.23 1549.52 1796.96 1549.15 Q1794.71 1548.78 1792.31 1548.04 L1792.31 1543.34 Q1794.39 1544.47 1796.61 1545.03 Q1798.84 1545.58 1801.31 1545.58 Q1805.32 1545.58 1807.65 1543.48 Q1809.99 1541.37 1809.99 1537.76 Q1809.99 1534.15 1807.65 1532.04 Q1805.32 1529.94 1801.31 1529.94 Q1799.44 1529.94 1797.56 1530.35 Q1795.71 1530.77 1793.77 1531.65 L1793.77 1514.29 Z" fill="#000000" fill-rule="evenodd" fill-opacity="1" /><path clip-path="url(#clip940)" d="M2258.61 1544.91 L2266.25 1544.91 L2266.25 1518.55 L2257.94 1520.21 L2257.94 1515.95 L2266.2 1514.29 L2270.88 1514.29 L2270.88 1544.91 L2278.51 1544.91 L2278.51 1548.85 L2258.61 1548.85 L2258.61 1544.91 Z" fill="#000000" fill-rule="evenodd" fill-opacity="1" /><path clip-path="url(#clip940)" d="M2287.96 1542.97 L2292.84 1542.97 L2292.84 1548.85 L2287.96 1548.85 L2287.96 1542.97 Z" fill="#000000" fill-rule="evenodd" fill-opacity="1" /><path clip-path="url(#clip940)" d="M2313.03 1517.37 Q2309.42 1517.37 2307.59 1520.93 Q2305.78 1524.47 2305.78 1531.6 Q2305.78 1538.71 2307.59 1542.27 Q2309.42 1545.82 2313.03 1545.82 Q2316.66 1545.82 2318.47 1542.27 Q2320.3 1538.71 2320.3 1531.6 Q2320.3 1524.47 2318.47 1520.93 Q2316.66 1517.37 2313.03 1517.37 M2313.03 1513.66 Q2318.84 1513.66 2321.89 1518.27 Q2324.97 1522.85 2324.97 1531.6 Q2324.97 1540.33 2321.89 1544.94 Q2318.84 1549.52 2313.03 1549.52 Q2307.22 1549.52 2304.14 1544.94 Q2301.08 1540.33 2301.08 1531.6 Q2301.08 1522.85 2304.14 1518.27 Q2307.22 1513.66 2313.03 1513.66 Z" fill="#000000" fill-rule="evenodd" fill-opacity="1" /><polyline clip-path="url(#clip942)" style="stroke:#000000; stroke-linecap:butt; stroke-linejoin:round; stroke-width:2; stroke-opacity:0.1; fill:none" points="
  186.76,1445.72 2352.76,1445.72 
  "/>
<polyline clip-path="url(#clip942)" style="stroke:#000000; stroke-linecap:butt; stroke-linejoin:round; stroke-width:2; stroke-opacity:0.1; fill:none" points="
  186.76,1104.79 2352.76,1104.79 
  "/>
<polyline clip-path="url(#clip942)" style="stroke:#000000; stroke-linecap:butt; stroke-linejoin:round; stroke-width:2; stroke-opacity:0.1; fill:none" points="
  186.76,763.862 2352.76,763.862 
  "/>
<polyline clip-path="url(#clip942)" style="stroke:#000000; stroke-linecap:butt; stroke-linejoin:round; stroke-width:2; stroke-opacity:0.1; fill:none" points="
  186.76,422.935 2352.76,422.935 
  "/>
<polyline clip-path="url(#clip942)" style="stroke:#000000; stroke-linecap:butt; stroke-linejoin:round; stroke-width:2; stroke-opacity:0.1; fill:none" points="
  186.76,82.0087 2352.76,82.0087 
  "/>
<polyline clip-path="url(#clip940)" style="stroke:#000000; stroke-linecap:butt; stroke-linejoin:round; stroke-width:4; stroke-opacity:1; fill:none" points="
  186.76,1486.45 186.76,47.2441 
  "/>
<polyline clip-path="url(#clip940)" style="stroke:#000000; stroke-linecap:butt; stroke-linejoin:round; stroke-width:4; stroke-opacity:1; fill:none" points="
  186.76,1445.72 205.658,1445.72 
  "/>
<polyline clip-path="url(#clip940)" style="stroke:#000000; stroke-linecap:butt; stroke-linejoin:round; stroke-width:4; stroke-opacity:1; fill:none" points="
  186.76,1104.79 205.658,1104.79 
  "/>
<polyline clip-path="url(#clip940)" style="stroke:#000000; stroke-linecap:butt; stroke-linejoin:round; stroke-width:4; stroke-opacity:1; fill:none" points="
  186.76,763.862 205.658,763.862 
  "/>
<polyline clip-path="url(#clip940)" style="stroke:#000000; stroke-linecap:butt; stroke-linejoin:round; stroke-width:4; stroke-opacity:1; fill:none" points="
  186.76,422.935 205.658,422.935 
  "/>
<polyline clip-path="url(#clip940)" style="stroke:#000000; stroke-linecap:butt; stroke-linejoin:round; stroke-width:4; stroke-opacity:1; fill:none" points="
  186.76,82.0087 205.658,82.0087 
  "/>
<path clip-path="url(#clip940)" d="M63.4226 1431.51 Q59.8115 1431.51 57.9828 1435.08 Q56.1773 1438.62 56.1773 1445.75 Q56.1773 1452.86 57.9828 1456.42 Q59.8115 1459.96 63.4226 1459.96 Q67.0569 1459.96 68.8624 1456.42 Q70.6911 1452.86 70.6911 1445.75 Q70.6911 1438.62 68.8624 1435.08 Q67.0569 1431.51 63.4226 1431.51 M63.4226 1427.81 Q69.2328 1427.81 72.2883 1432.42 Q75.367 1437 75.367 1445.75 Q75.367 1454.48 72.2883 1459.08 Q69.2328 1463.67 63.4226 1463.67 Q57.6125 1463.67 54.5338 1459.08 Q51.4782 1454.48 51.4782 1445.75 Q51.4782 1437 54.5338 1432.42 Q57.6125 1427.81 63.4226 1427.81 Z" fill="#000000" fill-rule="evenodd" fill-opacity="1" /><path clip-path="url(#clip940)" d="M83.5845 1457.12 L88.4688 1457.12 L88.4688 1463 L83.5845 1463 L83.5845 1457.12 Z" fill="#000000" fill-rule="evenodd" fill-opacity="1" /><path clip-path="url(#clip940)" d="M108.654 1431.51 Q105.043 1431.51 103.214 1435.08 Q101.409 1438.62 101.409 1445.75 Q101.409 1452.86 103.214 1456.42 Q105.043 1459.96 108.654 1459.96 Q112.288 1459.96 114.094 1456.42 Q115.922 1452.86 115.922 1445.75 Q115.922 1438.62 114.094 1435.08 Q112.288 1431.51 108.654 1431.51 M108.654 1427.81 Q114.464 1427.81 117.52 1432.42 Q120.598 1437 120.598 1445.75 Q120.598 1454.48 117.52 1459.08 Q114.464 1463.67 108.654 1463.67 Q102.844 1463.67 99.765 1459.08 Q96.7095 1454.48 96.7095 1445.75 Q96.7095 1437 99.765 1432.42 Q102.844 1427.81 108.654 1427.81 Z" fill="#000000" fill-rule="evenodd" fill-opacity="1" /><path clip-path="url(#clip940)" d="M138.816 1431.51 Q135.205 1431.51 133.376 1435.08 Q131.57 1438.62 131.57 1445.75 Q131.57 1452.86 133.376 1456.42 Q135.205 1459.96 138.816 1459.96 Q142.45 1459.96 144.256 1456.42 Q146.084 1452.86 146.084 1445.75 Q146.084 1438.62 144.256 1435.08 Q142.45 1431.51 138.816 1431.51 M138.816 1427.81 Q144.626 1427.81 147.681 1432.42 Q150.76 1437 150.76 1445.75 Q150.76 1454.48 147.681 1459.08 Q144.626 1463.67 138.816 1463.67 Q133.006 1463.67 129.927 1459.08 Q126.871 1454.48 126.871 1445.75 Q126.871 1437 129.927 1432.42 Q133.006 1427.81 138.816 1427.81 Z" fill="#000000" fill-rule="evenodd" fill-opacity="1" /><path clip-path="url(#clip940)" d="M64.6495 1090.59 Q61.0384 1090.59 59.2097 1094.15 Q57.4041 1097.69 57.4041 1104.82 Q57.4041 1111.93 59.2097 1115.49 Q61.0384 1119.04 64.6495 1119.04 Q68.2837 1119.04 70.0892 1115.49 Q71.9179 1111.93 71.9179 1104.82 Q71.9179 1097.69 70.0892 1094.15 Q68.2837 1090.59 64.6495 1090.59 M64.6495 1086.88 Q70.4596 1086.88 73.5152 1091.49 Q76.5938 1096.07 76.5938 1104.82 Q76.5938 1113.55 73.5152 1118.16 Q70.4596 1122.74 64.6495 1122.74 Q58.8393 1122.74 55.7606 1118.16 Q52.7051 1113.55 52.7051 1104.82 Q52.7051 1096.07 55.7606 1091.49 Q58.8393 1086.88 64.6495 1086.88 Z" fill="#000000" fill-rule="evenodd" fill-opacity="1" /><path clip-path="url(#clip940)" d="M84.8114 1116.19 L89.6956 1116.19 L89.6956 1122.07 L84.8114 1122.07 L84.8114 1116.19 Z" fill="#000000" fill-rule="evenodd" fill-opacity="1" /><path clip-path="url(#clip940)" d="M109.881 1090.59 Q106.27 1090.59 104.441 1094.15 Q102.635 1097.69 102.635 1104.82 Q102.635 1111.93 104.441 1115.49 Q106.27 1119.04 109.881 1119.04 Q113.515 1119.04 115.32 1115.49 Q117.149 1111.93 117.149 1104.82 Q117.149 1097.69 115.32 1094.15 Q113.515 1090.59 109.881 1090.59 M109.881 1086.88 Q115.691 1086.88 118.746 1091.49 Q121.825 1096.07 121.825 1104.82 Q121.825 1113.55 118.746 1118.16 Q115.691 1122.74 109.881 1122.74 Q104.071 1122.74 100.992 1118.16 Q97.9363 1113.55 97.9363 1104.82 Q97.9363 1096.07 100.992 1091.49 Q104.071 1086.88 109.881 1086.88 Z" fill="#000000" fill-rule="evenodd" fill-opacity="1" /><path clip-path="url(#clip940)" d="M130.853 1118.13 L138.492 1118.13 L138.492 1091.77 L130.182 1093.43 L130.182 1089.18 L138.445 1087.51 L143.121 1087.51 L143.121 1118.13 L150.76 1118.13 L150.76 1122.07 L130.853 1122.07 L130.853 1118.13 Z" fill="#000000" fill-rule="evenodd" fill-opacity="1" /><path clip-path="url(#clip940)" d="M65.0198 749.661 Q61.4087 749.661 59.58 753.226 Q57.7745 756.767 57.7745 763.897 Q57.7745 771.003 59.58 774.568 Q61.4087 778.11 65.0198 778.11 Q68.6541 778.11 70.4596 774.568 Q72.2883 771.003 72.2883 763.897 Q72.2883 756.767 70.4596 753.226 Q68.6541 749.661 65.0198 749.661 M65.0198 745.957 Q70.83 745.957 73.8855 750.564 Q76.9642 755.147 76.9642 763.897 Q76.9642 772.624 73.8855 777.23 Q70.83 781.813 65.0198 781.813 Q59.2097 781.813 56.131 777.23 Q53.0754 772.624 53.0754 763.897 Q53.0754 755.147 56.131 750.564 Q59.2097 745.957 65.0198 745.957 Z" fill="#000000" fill-rule="evenodd" fill-opacity="1" /><path clip-path="url(#clip940)" d="M85.1818 775.263 L90.066 775.263 L90.066 781.142 L85.1818 781.142 L85.1818 775.263 Z" fill="#000000" fill-rule="evenodd" fill-opacity="1" /><path clip-path="url(#clip940)" d="M110.251 749.661 Q106.64 749.661 104.811 753.226 Q103.006 756.767 103.006 763.897 Q103.006 771.003 104.811 774.568 Q106.64 778.11 110.251 778.11 Q113.885 778.11 115.691 774.568 Q117.52 771.003 117.52 763.897 Q117.52 756.767 115.691 753.226 Q113.885 749.661 110.251 749.661 M110.251 745.957 Q116.061 745.957 119.117 750.564 Q122.195 755.147 122.195 763.897 Q122.195 772.624 119.117 777.23 Q116.061 781.813 110.251 781.813 Q104.441 781.813 101.362 777.23 Q98.3067 772.624 98.3067 763.897 Q98.3067 755.147 101.362 750.564 Q104.441 745.957 110.251 745.957 Z" fill="#000000" fill-rule="evenodd" fill-opacity="1" /><path clip-path="url(#clip940)" d="M134.441 777.207 L150.76 777.207 L150.76 781.142 L128.816 781.142 L128.816 777.207 Q131.478 774.452 136.061 769.823 Q140.668 765.17 141.848 763.827 Q144.093 761.304 144.973 759.568 Q145.876 757.809 145.876 756.119 Q145.876 753.365 143.931 751.628 Q142.01 749.892 138.908 749.892 Q136.709 749.892 134.256 750.656 Q131.825 751.42 129.047 752.971 L129.047 748.249 Q131.871 747.115 134.325 746.536 Q136.779 745.957 138.816 745.957 Q144.186 745.957 147.38 748.642 Q150.575 751.328 150.575 755.818 Q150.575 757.948 149.765 759.869 Q148.978 761.767 146.871 764.36 Q146.293 765.031 143.191 768.249 Q140.089 771.443 134.441 777.207 Z" fill="#000000" fill-rule="evenodd" fill-opacity="1" /><path clip-path="url(#clip940)" d="M64.0708 408.734 Q60.4597 408.734 58.631 412.299 Q56.8254 415.841 56.8254 422.97 Q56.8254 430.077 58.631 433.641 Q60.4597 437.183 64.0708 437.183 Q67.705 437.183 69.5105 433.641 Q71.3392 430.077 71.3392 422.97 Q71.3392 415.841 69.5105 412.299 Q67.705 408.734 64.0708 408.734 M64.0708 405.03 Q69.8809 405.03 72.9365 409.637 Q76.0151 414.22 76.0151 422.97 Q76.0151 431.697 72.9365 436.303 Q69.8809 440.887 64.0708 440.887 Q58.2606 440.887 55.1819 436.303 Q52.1264 431.697 52.1264 422.97 Q52.1264 414.22 55.1819 409.637 Q58.2606 405.03 64.0708 405.03 Z" fill="#000000" fill-rule="evenodd" fill-opacity="1" /><path clip-path="url(#clip940)" d="M84.2327 434.336 L89.1169 434.336 L89.1169 440.215 L84.2327 440.215 L84.2327 434.336 Z" fill="#000000" fill-rule="evenodd" fill-opacity="1" /><path clip-path="url(#clip940)" d="M109.302 408.734 Q105.691 408.734 103.862 412.299 Q102.057 415.841 102.057 422.97 Q102.057 430.077 103.862 433.641 Q105.691 437.183 109.302 437.183 Q112.936 437.183 114.742 433.641 Q116.57 430.077 116.57 422.97 Q116.57 415.841 114.742 412.299 Q112.936 408.734 109.302 408.734 M109.302 405.03 Q115.112 405.03 118.168 409.637 Q121.246 414.22 121.246 422.97 Q121.246 431.697 118.168 436.303 Q115.112 440.887 109.302 440.887 Q103.492 440.887 100.413 436.303 Q97.3576 431.697 97.3576 422.97 Q97.3576 414.22 100.413 409.637 Q103.492 405.03 109.302 405.03 Z" fill="#000000" fill-rule="evenodd" fill-opacity="1" /><path clip-path="url(#clip940)" d="M143.631 421.581 Q146.987 422.299 148.862 424.567 Q150.76 426.836 150.76 430.169 Q150.76 435.285 147.242 438.086 Q143.723 440.887 137.242 440.887 Q135.066 440.887 132.751 440.447 Q130.459 440.03 128.006 439.174 L128.006 434.66 Q129.95 435.794 132.265 436.373 Q134.58 436.952 137.103 436.952 Q141.501 436.952 143.793 435.215 Q146.107 433.479 146.107 430.169 Q146.107 427.114 143.955 425.401 Q141.825 423.665 138.006 423.665 L133.978 423.665 L133.978 419.822 L138.191 419.822 Q141.64 419.822 143.468 418.456 Q145.297 417.067 145.297 414.475 Q145.297 411.813 143.399 410.401 Q141.524 408.966 138.006 408.966 Q136.084 408.966 133.885 409.382 Q131.686 409.799 129.047 410.679 L129.047 406.512 Q131.709 405.771 134.024 405.401 Q136.362 405.03 138.422 405.03 Q143.746 405.03 146.848 407.461 Q149.95 409.868 149.95 413.989 Q149.95 416.859 148.306 418.85 Q146.663 420.817 143.631 421.581 Z" fill="#000000" fill-rule="evenodd" fill-opacity="1" /><path clip-path="url(#clip940)" d="M62.9365 67.8073 Q59.3254 67.8073 57.4967 71.3721 Q55.6912 74.9138 55.6912 82.0434 Q55.6912 89.1498 57.4967 92.7146 Q59.3254 96.2563 62.9365 96.2563 Q66.5707 96.2563 68.3763 92.7146 Q70.205 89.1498 70.205 82.0434 Q70.205 74.9138 68.3763 71.3721 Q66.5707 67.8073 62.9365 67.8073 M62.9365 64.1037 Q68.7467 64.1037 71.8022 68.7101 Q74.8809 73.2934 74.8809 82.0434 Q74.8809 90.7702 71.8022 95.3766 Q68.7467 99.96 62.9365 99.96 Q57.1264 99.96 54.0477 95.3766 Q50.9921 90.7702 50.9921 82.0434 Q50.9921 73.2934 54.0477 68.7101 Q57.1264 64.1037 62.9365 64.1037 Z" fill="#000000" fill-rule="evenodd" fill-opacity="1" /><path clip-path="url(#clip940)" d="M83.0984 93.4091 L87.9827 93.4091 L87.9827 99.2887 L83.0984 99.2887 L83.0984 93.4091 Z" fill="#000000" fill-rule="evenodd" fill-opacity="1" /><path clip-path="url(#clip940)" d="M108.168 67.8073 Q104.557 67.8073 102.728 71.3721 Q100.922 74.9138 100.922 82.0434 Q100.922 89.1498 102.728 92.7146 Q104.557 96.2563 108.168 96.2563 Q111.802 96.2563 113.608 92.7146 Q115.436 89.1498 115.436 82.0434 Q115.436 74.9138 113.608 71.3721 Q111.802 67.8073 108.168 67.8073 M108.168 64.1037 Q113.978 64.1037 117.033 68.7101 Q120.112 73.2934 120.112 82.0434 Q120.112 90.7702 117.033 95.3766 Q113.978 99.96 108.168 99.96 Q102.358 99.96 99.2789 95.3766 Q96.2234 90.7702 96.2234 82.0434 Q96.2234 73.2934 99.2789 68.7101 Q102.358 64.1037 108.168 64.1037 Z" fill="#000000" fill-rule="evenodd" fill-opacity="1" /><path clip-path="url(#clip940)" d="M141.177 68.8027 L129.371 87.2517 L141.177 87.2517 L141.177 68.8027 M139.95 64.7287 L145.83 64.7287 L145.83 87.2517 L150.76 87.2517 L150.76 91.1406 L145.83 91.1406 L145.83 99.2887 L141.177 99.2887 L141.177 91.1406 L125.575 91.1406 L125.575 86.6267 L139.95 64.7287 Z" fill="#000000" fill-rule="evenodd" fill-opacity="1" /><polyline clip-path="url(#clip942)" style="stroke:#009af9; stroke-linecap:butt; stroke-linejoin:round; stroke-width:16; stroke-opacity:1; fill:none" points="
  248.062,1445.72 308.072,1405.45 430.631,1323.87 576.341,1226.43 698.899,1144.76 758.91,1103.57 818.92,1065.83 941.479,981.74 1087.19,886.671 1209.75,803.51 
  1269.76,775.683 1329.77,710.927 1452.33,653.708 1598.04,533.215 1720.6,466.058 1780.61,295.304 1840.62,519.466 1963.18,174.878 2108.89,326.282 2231.44,87.9763 
  2291.45,1445.72 
  "/>
<circle clip-path="url(#clip942)" cx="248.062" cy="1445.72" r="14" fill="#009af9" fill-rule="evenodd" fill-opacity="1" stroke="#000000" stroke-opacity="1" stroke-width="3.2"/>
<circle clip-path="url(#clip942)" cx="308.072" cy="1405.45" r="14" fill="#009af9" fill-rule="evenodd" fill-opacity="1" stroke="#000000" stroke-opacity="1" stroke-width="3.2"/>
<circle clip-path="url(#clip942)" cx="430.631" cy="1323.87" r="14" fill="#009af9" fill-rule="evenodd" fill-opacity="1" stroke="#000000" stroke-opacity="1" stroke-width="3.2"/>
<circle clip-path="url(#clip942)" cx="576.341" cy="1226.43" r="14" fill="#009af9" fill-rule="evenodd" fill-opacity="1" stroke="#000000" stroke-opacity="1" stroke-width="3.2"/>
<circle clip-path="url(#clip942)" cx="698.899" cy="1144.76" r="14" fill="#009af9" fill-rule="evenodd" fill-opacity="1" stroke="#000000" stroke-opacity="1" stroke-width="3.2"/>
<circle clip-path="url(#clip942)" cx="758.91" cy="1103.57" r="14" fill="#009af9" fill-rule="evenodd" fill-opacity="1" stroke="#000000" stroke-opacity="1" stroke-width="3.2"/>
<circle clip-path="url(#clip942)" cx="818.92" cy="1065.83" r="14" fill="#009af9" fill-rule="evenodd" fill-opacity="1" stroke="#000000" stroke-opacity="1" stroke-width="3.2"/>
<circle clip-path="url(#clip942)" cx="941.479" cy="981.74" r="14" fill="#009af9" fill-rule="evenodd" fill-opacity="1" stroke="#000000" stroke-opacity="1" stroke-width="3.2"/>
<circle clip-path="url(#clip942)" cx="1087.19" cy="886.671" r="14" fill="#009af9" fill-rule="evenodd" fill-opacity="1" stroke="#000000" stroke-opacity="1" stroke-width="3.2"/>
<circle clip-path="url(#clip942)" cx="1209.75" cy="803.51" r="14" fill="#009af9" fill-rule="evenodd" fill-opacity="1" stroke="#000000" stroke-opacity="1" stroke-width="3.2"/>
<circle clip-path="url(#clip942)" cx="1269.76" cy="775.683" r="14" fill="#009af9" fill-rule="evenodd" fill-opacity="1" stroke="#000000" stroke-opacity="1" stroke-width="3.2"/>
<circle clip-path="url(#clip942)" cx="1329.77" cy="710.927" r="14" fill="#009af9" fill-rule="evenodd" fill-opacity="1" stroke="#000000" stroke-opacity="1" stroke-width="3.2"/>
<circle clip-path="url(#clip942)" cx="1452.33" cy="653.708" r="14" fill="#009af9" fill-rule="evenodd" fill-opacity="1" stroke="#000000" stroke-opacity="1" stroke-width="3.2"/>
<circle clip-path="url(#clip942)" cx="1598.04" cy="533.215" r="14" fill="#009af9" fill-rule="evenodd" fill-opacity="1" stroke="#000000" stroke-opacity="1" stroke-width="3.2"/>
<circle clip-path="url(#clip942)" cx="1720.6" cy="466.058" r="14" fill="#009af9" fill-rule="evenodd" fill-opacity="1" stroke="#000000" stroke-opacity="1" stroke-width="3.2"/>
<circle clip-path="url(#clip942)" cx="1780.61" cy="295.304" r="14" fill="#009af9" fill-rule="evenodd" fill-opacity="1" stroke="#000000" stroke-opacity="1" stroke-width="3.2"/>
<circle clip-path="url(#clip942)" cx="1840.62" cy="519.466" r="14" fill="#009af9" fill-rule="evenodd" fill-opacity="1" stroke="#000000" stroke-opacity="1" stroke-width="3.2"/>
<circle clip-path="url(#clip942)" cx="1963.18" cy="174.878" r="14" fill="#009af9" fill-rule="evenodd" fill-opacity="1" stroke="#000000" stroke-opacity="1" stroke-width="3.2"/>
<circle clip-path="url(#clip942)" cx="2108.89" cy="326.282" r="14" fill="#009af9" fill-rule="evenodd" fill-opacity="1" stroke="#000000" stroke-opacity="1" stroke-width="3.2"/>
<circle clip-path="url(#clip942)" cx="2231.44" cy="87.9763" r="14" fill="#009af9" fill-rule="evenodd" fill-opacity="1" stroke="#000000" stroke-opacity="1" stroke-width="3.2"/>
<circle clip-path="url(#clip942)" cx="2291.45" cy="1445.72" r="14" fill="#009af9" fill-rule="evenodd" fill-opacity="1" stroke="#000000" stroke-opacity="1" stroke-width="3.2"/>
<path clip-path="url(#clip940)" d="
M1987.46 198.898 L2280.56 198.898 L2280.56 95.2176 L1987.46 95.2176  Z
  " fill="#ffffff" fill-rule="evenodd" fill-opacity="1"/>
<polyline clip-path="url(#clip940)" style="stroke:#000000; stroke-linecap:butt; stroke-linejoin:round; stroke-width:4; stroke-opacity:1; fill:none" points="
  1987.46,198.898 2280.56,198.898 2280.56,95.2176 1987.46,95.2176 1987.46,198.898 
  "/>
<polyline clip-path="url(#clip940)" style="stroke:#009af9; stroke-linecap:butt; stroke-linejoin:round; stroke-width:4; stroke-opacity:1; fill:none" points="
  2011.53,147.058 2155.93,147.058 
  "/>
<circle clip-path="url(#clip940)" cx="2083.73" cy="147.058" r="23" fill="#009af9" fill-rule="evenodd" fill-opacity="1" stroke="#000000" stroke-opacity="1" stroke-width="5.12"/>
<path clip-path="url(#clip940)" d="M2193.84 166.745 Q2192.03 171.375 2190.32 172.787 Q2188.6 174.199 2185.73 174.199 L2182.33 174.199 L2182.33 170.634 L2184.83 170.634 Q2186.59 170.634 2187.56 169.8 Q2188.53 168.967 2189.71 165.865 L2190.48 163.921 L2179.99 138.412 L2184.51 138.412 L2192.61 158.689 L2200.71 138.412 L2205.22 138.412 L2193.84 166.745 Z" fill="#000000" fill-rule="evenodd" fill-opacity="1" /><path clip-path="url(#clip940)" d="M2212.52 160.402 L2220.15 160.402 L2220.15 134.037 L2211.84 135.703 L2211.84 131.444 L2220.11 129.778 L2224.78 129.778 L2224.78 160.402 L2232.42 160.402 L2232.42 164.338 L2212.52 164.338 L2212.52 160.402 Z" fill="#000000" fill-rule="evenodd" fill-opacity="1" /></svg>
