<?xml version="1.0" encoding="utf-8"?>
<svg xmlns="http://www.w3.org/2000/svg" xmlns:xlink="http://www.w3.org/1999/xlink" width="600" height="400" viewBox="0 0 2400 1600">
<defs>
  <clipPath id="clip210">
    <rect x="0" y="0" width="2400" height="1600"/>
  </clipPath>
</defs>
<path clip-path="url(#clip210)" d="
M0 1600 L2400 1600 L2400 0 L0 0  Z
  " fill="#ffffff" fill-rule="evenodd" fill-opacity="1"/>
<defs>
  <clipPath id="clip211">
    <rect x="480" y="0" width="1681" height="1600"/>
  </clipPath>
</defs>
<path clip-path="url(#clip210)" d="
M193.936 1486.45 L2352.76 1486.45 L2352.76 47.2441 L193.936 47.2441  Z
  " fill="#ffffff" fill-rule="evenodd" fill-opacity="1"/>
<defs>
  <clipPath id="clip212">
    <rect x="193" y="47" width="2160" height="1440"/>
  </clipPath>
</defs>
<polyline clip-path="url(#clip212)" style="stroke:#000000; stroke-linecap:butt; stroke-linejoin:round; stroke-width:2; stroke-opacity:0.1; fill:none" points="
  193.936,1486.45 193.936,47.2441 
  "/>
<polyline clip-path="url(#clip212)" style="stroke:#000000; stroke-linecap:butt; stroke-linejoin:round; stroke-width:2; stroke-opacity:0.1; fill:none" points="
  553.739,1486.45 553.739,47.2441 
  "/>
<polyline clip-path="url(#clip212)" style="stroke:#000000; stroke-linecap:butt; stroke-linejoin:round; stroke-width:2; stroke-opacity:0.1; fill:none" points="
  913.543,1486.45 913.543,47.2441 
  "/>
<polyline clip-path="url(#clip212)" style="stroke:#000000; stroke-linecap:butt; stroke-linejoin:round; stroke-width:2; stroke-opacity:0.1; fill:none" points="
  1273.35,1486.45 1273.35,47.2441 
  "/>
<polyline clip-path="url(#clip212)" style="stroke:#000000; stroke-linecap:butt; stroke-linejoin:round; stroke-width:2; stroke-opacity:0.1; fill:none" points="
  1633.15,1486.45 1633.15,47.2441 
  "/>
<polyline clip-path="url(#clip212)" style="stroke:#000000; stroke-linecap:butt; stroke-linejoin:round; stroke-width:2; stroke-opacity:0.1; fill:none" points="
  1992.95,1486.45 1992.95,47.2441 
  "/>
<polyline clip-path="url(#clip212)" style="stroke:#000000; stroke-linecap:butt; stroke-linejoin:round; stroke-width:2; stroke-opacity:0.1; fill:none" points="
  2352.76,1486.45 2352.76,47.2441 
  "/>
<polyline clip-path="url(#clip210)" style="stroke:#000000; stroke-linecap:butt; stroke-linejoin:round; stroke-width:4; stroke-opacity:1; fill:none" points="
  193.936,1486.45 2352.76,1486.45 
  "/>
<polyline clip-path="url(#clip210)" style="stroke:#000000; stroke-linecap:butt; stroke-linejoin:round; stroke-width:4; stroke-opacity:1; fill:none" points="
  193.936,1486.45 193.936,1467.55 
  "/>
<polyline clip-path="url(#clip210)" style="stroke:#000000; stroke-linecap:butt; stroke-linejoin:round; stroke-width:4; stroke-opacity:1; fill:none" points="
  553.739,1486.45 553.739,1467.55 
  "/>
<polyline clip-path="url(#clip210)" style="stroke:#000000; stroke-linecap:butt; stroke-linejoin:round; stroke-width:4; stroke-opacity:1; fill:none" points="
  913.543,1486.45 913.543,1467.55 
  "/>
<polyline clip-path="url(#clip210)" style="stroke:#000000; stroke-linecap:butt; stroke-linejoin:round; stroke-width:4; stroke-opacity:1; fill:none" points="
  1273.35,1486.45 1273.35,1467.55 
  "/>
<polyline clip-path="url(#clip210)" style="stroke:#000000; stroke-linecap:butt; stroke-linejoin:round; stroke-width:4; stroke-opacity:1; fill:none" points="
  1633.15,1486.45 1633.15,1467.55 
  "/>
<polyline clip-path="url(#clip210)" style="stroke:#000000; stroke-linecap:butt; stroke-linejoin:round; stroke-width:4; stroke-opacity:1; fill:none" points="
  1992.95,1486.45 1992.95,1467.55 
  "/>
<polyline clip-path="url(#clip210)" style="stroke:#000000; stroke-linecap:butt; stroke-linejoin:round; stroke-width:4; stroke-opacity:1; fill:none" points="
  2352.76,1486.45 2352.76,1467.55 
  "/>
<path clip-path="url(#clip210)" d="M163.404 1530.29 L193.08 1530.29 L193.08 1534.23 L163.404 1534.23 L163.404 1530.29 Z" fill="#000000" fill-rule="evenodd" fill-opacity="1" /><path clip-path="url(#clip210)" d="M217.339 1528.49 Q220.695 1529.2 222.57 1531.47 Q224.468 1533.74 224.468 1537.07 Q224.468 1542.19 220.95 1544.99 Q217.431 1547.79 210.95 1547.79 Q208.774 1547.79 206.459 1547.35 Q204.167 1546.93 201.714 1546.08 L201.714 1541.56 Q203.658 1542.7 205.973 1543.28 Q208.288 1543.86 210.811 1543.86 Q215.209 1543.86 217.501 1542.12 Q219.815 1540.38 219.815 1537.07 Q219.815 1534.02 217.663 1532.31 Q215.533 1530.57 211.714 1530.57 L207.686 1530.57 L207.686 1526.73 L211.899 1526.73 Q215.348 1526.73 217.177 1525.36 Q219.005 1523.97 219.005 1521.38 Q219.005 1518.72 217.107 1517.31 Q215.232 1515.87 211.714 1515.87 Q209.792 1515.87 207.593 1516.29 Q205.394 1516.7 202.755 1517.58 L202.755 1513.42 Q205.417 1512.68 207.732 1512.31 Q210.07 1511.93 212.13 1511.93 Q217.454 1511.93 220.556 1514.37 Q223.658 1516.77 223.658 1520.89 Q223.658 1523.76 222.015 1525.75 Q220.371 1527.72 217.339 1528.49 Z" fill="#000000" fill-rule="evenodd" fill-opacity="1" /><path clip-path="url(#clip210)" d="M523.682 1530.29 L553.357 1530.29 L553.357 1534.23 L523.682 1534.23 L523.682 1530.29 Z" fill="#000000" fill-rule="evenodd" fill-opacity="1" /><path clip-path="url(#clip210)" d="M567.478 1543.18 L583.797 1543.18 L583.797 1547.12 L561.853 1547.12 L561.853 1543.18 Q564.515 1540.43 569.098 1535.8 Q573.704 1531.15 574.885 1529.81 Q577.13 1527.28 578.01 1525.55 Q578.913 1523.79 578.913 1522.1 Q578.913 1519.34 576.968 1517.61 Q575.047 1515.87 571.945 1515.87 Q569.746 1515.87 567.292 1516.63 Q564.862 1517.4 562.084 1518.95 L562.084 1514.23 Q564.908 1513.09 567.362 1512.51 Q569.816 1511.93 571.853 1511.93 Q577.223 1511.93 580.417 1514.62 Q583.612 1517.31 583.612 1521.8 Q583.612 1523.93 582.802 1525.85 Q582.015 1527.74 579.908 1530.34 Q579.329 1531.01 576.228 1534.23 Q573.126 1537.42 567.478 1543.18 Z" fill="#000000" fill-rule="evenodd" fill-opacity="1" /><path clip-path="url(#clip210)" d="M883.3 1530.29 L912.976 1530.29 L912.976 1534.23 L883.3 1534.23 L883.3 1530.29 Z" fill="#000000" fill-rule="evenodd" fill-opacity="1" /><path clip-path="url(#clip210)" d="M923.878 1543.18 L931.517 1543.18 L931.517 1516.82 L923.207 1518.49 L923.207 1514.23 L931.471 1512.56 L936.147 1512.56 L936.147 1543.18 L943.786 1543.18 L943.786 1547.12 L923.878 1547.12 L923.878 1543.18 Z" fill="#000000" fill-rule="evenodd" fill-opacity="1" /><path clip-path="url(#clip210)" d="M1273.35 1515.64 Q1269.73 1515.64 1267.91 1519.2 Q1266.1 1522.75 1266.1 1529.87 Q1266.1 1536.98 1267.91 1540.55 Q1269.73 1544.09 1273.35 1544.09 Q1276.98 1544.09 1278.79 1540.55 Q1280.61 1536.98 1280.61 1529.87 Q1280.61 1522.75 1278.79 1519.2 Q1276.98 1515.64 1273.35 1515.64 M1273.35 1511.93 Q1279.16 1511.93 1282.21 1516.54 Q1285.29 1521.12 1285.29 1529.87 Q1285.29 1538.6 1282.21 1543.21 Q1279.16 1547.79 1273.35 1547.79 Q1267.54 1547.79 1264.46 1543.21 Q1261.4 1538.6 1261.4 1529.87 Q1261.4 1521.12 1264.46 1516.54 Q1267.54 1511.93 1273.35 1511.93 Z" fill="#000000" fill-rule="evenodd" fill-opacity="1" /><path clip-path="url(#clip210)" d="M1623.53 1543.18 L1631.17 1543.18 L1631.17 1516.82 L1622.86 1518.49 L1622.86 1514.23 L1631.12 1512.56 L1635.8 1512.56 L1635.8 1543.18 L1643.44 1543.18 L1643.44 1547.12 L1623.53 1547.12 L1623.53 1543.18 Z" fill="#000000" fill-rule="evenodd" fill-opacity="1" /><path clip-path="url(#clip210)" d="M1987.61 1543.18 L2003.92 1543.18 L2003.92 1547.12 L1981.98 1547.12 L1981.98 1543.18 Q1984.64 1540.43 1989.23 1535.8 Q1993.83 1531.15 1995.01 1529.81 Q1997.26 1527.28 1998.14 1525.55 Q1999.04 1523.79 1999.04 1522.1 Q1999.04 1519.34 1997.1 1517.61 Q1995.17 1515.87 1992.07 1515.87 Q1989.87 1515.87 1987.42 1516.63 Q1984.99 1517.4 1982.21 1518.95 L1982.21 1514.23 Q1985.04 1513.09 1987.49 1512.51 Q1989.94 1511.93 1991.98 1511.93 Q1997.35 1511.93 2000.55 1514.62 Q2003.74 1517.31 2003.74 1521.8 Q2003.74 1523.93 2002.93 1525.85 Q2002.14 1527.74 2000.04 1530.34 Q1999.46 1531.01 1996.36 1534.23 Q1993.25 1537.42 1987.61 1543.18 Z" fill="#000000" fill-rule="evenodd" fill-opacity="1" /><path clip-path="url(#clip210)" d="M2357 1528.49 Q2360.36 1529.2 2362.24 1531.47 Q2364.13 1533.74 2364.13 1537.07 Q2364.13 1542.19 2360.61 1544.99 Q2357.1 1547.79 2350.61 1547.79 Q2348.44 1547.79 2346.12 1547.35 Q2343.83 1546.93 2341.38 1546.08 L2341.38 1541.56 Q2343.32 1542.7 2345.64 1543.28 Q2347.95 1543.86 2350.48 1543.86 Q2354.87 1543.86 2357.17 1542.12 Q2359.48 1540.38 2359.48 1537.07 Q2359.48 1534.02 2357.33 1532.31 Q2355.2 1530.57 2351.38 1530.57 L2347.35 1530.57 L2347.35 1526.73 L2351.56 1526.73 Q2355.01 1526.73 2356.84 1525.36 Q2358.67 1523.97 2358.67 1521.38 Q2358.67 1518.72 2356.77 1517.31 Q2354.9 1515.87 2351.38 1515.87 Q2349.46 1515.87 2347.26 1516.29 Q2345.06 1516.7 2342.42 1517.58 L2342.42 1513.42 Q2345.08 1512.68 2347.4 1512.31 Q2349.74 1511.93 2351.8 1511.93 Q2357.12 1511.93 2360.22 1514.37 Q2363.32 1516.77 2363.32 1520.89 Q2363.32 1523.76 2361.68 1525.75 Q2360.04 1527.72 2357 1528.49 Z" fill="#000000" fill-rule="evenodd" fill-opacity="1" /><polyline clip-path="url(#clip212)" style="stroke:#000000; stroke-linecap:butt; stroke-linejoin:round; stroke-width:2; stroke-opacity:0.1; fill:none" points="
  193.936,1452.54 2352.76,1452.54 
  "/>
<polyline clip-path="url(#clip212)" style="stroke:#000000; stroke-linecap:butt; stroke-linejoin:round; stroke-width:2; stroke-opacity:0.1; fill:none" points="
  193.936,1111.38 2352.76,1111.38 
  "/>
<polyline clip-path="url(#clip212)" style="stroke:#000000; stroke-linecap:butt; stroke-linejoin:round; stroke-width:2; stroke-opacity:0.1; fill:none" points="
  193.936,770.223 2352.76,770.223 
  "/>
<polyline clip-path="url(#clip212)" style="stroke:#000000; stroke-linecap:butt; stroke-linejoin:round; stroke-width:2; stroke-opacity:0.1; fill:none" points="
  193.936,429.062 2352.76,429.062 
  "/>
<polyline clip-path="url(#clip212)" style="stroke:#000000; stroke-linecap:butt; stroke-linejoin:round; stroke-width:2; stroke-opacity:0.1; fill:none" points="
  193.936,87.9015 2352.76,87.9015 
  "/>
<polyline clip-path="url(#clip210)" style="stroke:#000000; stroke-linecap:butt; stroke-linejoin:round; stroke-width:4; stroke-opacity:1; fill:none" points="
  193.936,1486.45 193.936,47.2441 
  "/>
<polyline clip-path="url(#clip210)" style="stroke:#000000; stroke-linecap:butt; stroke-linejoin:round; stroke-width:4; stroke-opacity:1; fill:none" points="
  193.936,1452.54 212.834,1452.54 
  "/>
<polyline clip-path="url(#clip210)" style="stroke:#000000; stroke-linecap:butt; stroke-linejoin:round; stroke-width:4; stroke-opacity:1; fill:none" points="
  193.936,1111.38 212.834,1111.38 
  "/>
<polyline clip-path="url(#clip210)" style="stroke:#000000; stroke-linecap:butt; stroke-linejoin:round; stroke-width:4; stroke-opacity:1; fill:none" points="
  193.936,770.223 212.834,770.223 
  "/>
<polyline clip-path="url(#clip210)" style="stroke:#000000; stroke-linecap:butt; stroke-linejoin:round; stroke-width:4; stroke-opacity:1; fill:none" points="
  193.936,429.062 212.834,429.062 
  "/>
<polyline clip-path="url(#clip210)" style="stroke:#000000; stroke-linecap:butt; stroke-linejoin:round; stroke-width:4; stroke-opacity:1; fill:none" points="
  193.936,87.9015 212.834,87.9015 
  "/>
<path clip-path="url(#clip210)" d="M50.9921 1453 L80.6679 1453 L80.6679 1456.93 L50.9921 1456.93 L50.9921 1453 Z" fill="#000000" fill-rule="evenodd" fill-opacity="1" /><path clip-path="url(#clip210)" d="M91.5706 1465.89 L99.2095 1465.89 L99.2095 1439.52 L90.8993 1441.19 L90.8993 1436.93 L99.1632 1435.26 L103.839 1435.26 L103.839 1465.89 L111.478 1465.89 L111.478 1469.82 L91.5706 1469.82 L91.5706 1465.89 Z" fill="#000000" fill-rule="evenodd" fill-opacity="1" /><path clip-path="url(#clip210)" d="M120.922 1463.94 L125.807 1463.94 L125.807 1469.82 L120.922 1469.82 L120.922 1463.94 Z" fill="#000000" fill-rule="evenodd" fill-opacity="1" /><path clip-path="url(#clip210)" d="M145.992 1438.34 Q142.381 1438.34 140.552 1441.91 Q138.746 1445.45 138.746 1452.58 Q138.746 1459.69 140.552 1463.25 Q142.381 1466.79 145.992 1466.79 Q149.626 1466.79 151.431 1463.25 Q153.26 1459.69 153.26 1452.58 Q153.26 1445.45 151.431 1441.91 Q149.626 1438.34 145.992 1438.34 M145.992 1434.64 Q151.802 1434.64 154.857 1439.25 Q157.936 1443.83 157.936 1452.58 Q157.936 1461.31 154.857 1465.91 Q151.802 1470.5 145.992 1470.5 Q140.181 1470.5 137.103 1465.91 Q134.047 1461.31 134.047 1452.58 Q134.047 1443.83 137.103 1439.25 Q140.181 1434.64 145.992 1434.64 Z" fill="#000000" fill-rule="evenodd" fill-opacity="1" /><path clip-path="url(#clip210)" d="M51.9875 1111.83 L81.6633 1111.83 L81.6633 1115.77 L51.9875 1115.77 L51.9875 1111.83 Z" fill="#000000" fill-rule="evenodd" fill-opacity="1" /><path clip-path="url(#clip210)" d="M101.756 1097.18 Q98.1447 1097.18 96.316 1100.75 Q94.5104 1104.29 94.5104 1111.42 Q94.5104 1118.52 96.316 1122.09 Q98.1447 1125.63 101.756 1125.63 Q105.39 1125.63 107.196 1122.09 Q109.024 1118.52 109.024 1111.42 Q109.024 1104.29 107.196 1100.75 Q105.39 1097.18 101.756 1097.18 M101.756 1093.48 Q107.566 1093.48 110.621 1098.08 Q113.7 1102.67 113.7 1111.42 Q113.7 1120.14 110.621 1124.75 Q107.566 1129.33 101.756 1129.33 Q95.9456 1129.33 92.8669 1124.75 Q89.8114 1120.14 89.8114 1111.42 Q89.8114 1102.67 92.8669 1098.08 Q95.9456 1093.48 101.756 1093.48 Z" fill="#000000" fill-rule="evenodd" fill-opacity="1" /><path clip-path="url(#clip210)" d="M121.918 1122.78 L126.802 1122.78 L126.802 1128.66 L121.918 1128.66 L121.918 1122.78 Z" fill="#000000" fill-rule="evenodd" fill-opacity="1" /><path clip-path="url(#clip210)" d="M137.033 1094.1 L155.39 1094.1 L155.39 1098.04 L141.316 1098.04 L141.316 1106.51 Q142.334 1106.16 143.353 1106 Q144.371 1105.82 145.39 1105.82 Q151.177 1105.82 154.556 1108.99 Q157.936 1112.16 157.936 1117.58 Q157.936 1123.15 154.464 1126.26 Q150.992 1129.33 144.672 1129.33 Q142.496 1129.33 140.228 1128.96 Q137.982 1128.59 135.575 1127.85 L135.575 1123.15 Q137.658 1124.29 139.881 1124.84 Q142.103 1125.4 144.58 1125.4 Q148.584 1125.4 150.922 1123.29 Q153.26 1121.19 153.26 1117.58 Q153.26 1113.96 150.922 1111.86 Q148.584 1109.75 144.58 1109.75 Q142.705 1109.75 140.83 1110.17 Q138.978 1110.58 137.033 1111.46 L137.033 1094.1 Z" fill="#000000" fill-rule="evenodd" fill-opacity="1" /><path clip-path="url(#clip210)" d="M100.76 756.021 Q97.1493 756.021 95.3206 759.586 Q93.515 763.128 93.515 770.257 Q93.515 777.364 95.3206 780.929 Q97.1493 784.47 100.76 784.47 Q104.395 784.47 106.2 780.929 Q108.029 777.364 108.029 770.257 Q108.029 763.128 106.2 759.586 Q104.395 756.021 100.76 756.021 M100.76 752.318 Q106.571 752.318 109.626 756.924 Q112.705 761.508 112.705 770.257 Q112.705 778.984 109.626 783.591 Q106.571 788.174 100.76 788.174 Q94.9502 788.174 91.8715 783.591 Q88.816 778.984 88.816 770.257 Q88.816 761.508 91.8715 756.924 Q94.9502 752.318 100.76 752.318 Z" fill="#000000" fill-rule="evenodd" fill-opacity="1" /><path clip-path="url(#clip210)" d="M120.922 781.623 L125.807 781.623 L125.807 787.503 L120.922 787.503 L120.922 781.623 Z" fill="#000000" fill-rule="evenodd" fill-opacity="1" /><path clip-path="url(#clip210)" d="M145.992 756.021 Q142.381 756.021 140.552 759.586 Q138.746 763.128 138.746 770.257 Q138.746 777.364 140.552 780.929 Q142.381 784.47 145.992 784.47 Q149.626 784.47 151.431 780.929 Q153.26 777.364 153.26 770.257 Q153.26 763.128 151.431 759.586 Q149.626 756.021 145.992 756.021 M145.992 752.318 Q151.802 752.318 154.857 756.924 Q157.936 761.508 157.936 770.257 Q157.936 778.984 154.857 783.591 Q151.802 788.174 145.992 788.174 Q140.181 788.174 137.103 783.591 Q134.047 778.984 134.047 770.257 Q134.047 761.508 137.103 756.924 Q140.181 752.318 145.992 752.318 Z" fill="#000000" fill-rule="evenodd" fill-opacity="1" /><path clip-path="url(#clip210)" d="M101.756 414.861 Q98.1447 414.861 96.316 418.426 Q94.5104 421.967 94.5104 429.097 Q94.5104 436.203 96.316 439.768 Q98.1447 443.31 101.756 443.31 Q105.39 443.31 107.196 439.768 Q109.024 436.203 109.024 429.097 Q109.024 421.967 107.196 418.426 Q105.39 414.861 101.756 414.861 M101.756 411.157 Q107.566 411.157 110.621 415.764 Q113.7 420.347 113.7 429.097 Q113.7 437.824 110.621 442.43 Q107.566 447.013 101.756 447.013 Q95.9456 447.013 92.8669 442.43 Q89.8114 437.824 89.8114 429.097 Q89.8114 420.347 92.8669 415.764 Q95.9456 411.157 101.756 411.157 Z" fill="#000000" fill-rule="evenodd" fill-opacity="1" /><path clip-path="url(#clip210)" d="M121.918 440.463 L126.802 440.463 L126.802 446.342 L121.918 446.342 L121.918 440.463 Z" fill="#000000" fill-rule="evenodd" fill-opacity="1" /><path clip-path="url(#clip210)" d="M137.033 411.782 L155.39 411.782 L155.39 415.717 L141.316 415.717 L141.316 424.189 Q142.334 423.842 143.353 423.68 Q144.371 423.495 145.39 423.495 Q151.177 423.495 154.556 426.666 Q157.936 429.838 157.936 435.254 Q157.936 440.833 154.464 443.935 Q150.992 447.013 144.672 447.013 Q142.496 447.013 140.228 446.643 Q137.982 446.273 135.575 445.532 L135.575 440.833 Q137.658 441.967 139.881 442.523 Q142.103 443.078 144.58 443.078 Q148.584 443.078 150.922 440.972 Q153.26 438.865 153.26 435.254 Q153.26 431.643 150.922 429.537 Q148.584 427.43 144.58 427.43 Q142.705 427.43 140.83 427.847 Q138.978 428.264 137.033 429.143 L137.033 411.782 Z" fill="#000000" fill-rule="evenodd" fill-opacity="1" /><path clip-path="url(#clip210)" d="M91.5706 101.246 L99.2095 101.246 L99.2095 74.8807 L90.8993 76.5474 L90.8993 72.2881 L99.1632 70.6215 L103.839 70.6215 L103.839 101.246 L111.478 101.246 L111.478 105.181 L91.5706 105.181 L91.5706 101.246 Z" fill="#000000" fill-rule="evenodd" fill-opacity="1" /><path clip-path="url(#clip210)" d="M120.922 99.3019 L125.807 99.3019 L125.807 105.181 L120.922 105.181 L120.922 99.3019 Z" fill="#000000" fill-rule="evenodd" fill-opacity="1" /><path clip-path="url(#clip210)" d="M145.992 73.7002 Q142.381 73.7002 140.552 77.265 Q138.746 80.8066 138.746 87.9362 Q138.746 95.0427 140.552 98.6075 Q142.381 102.149 145.992 102.149 Q149.626 102.149 151.431 98.6075 Q153.26 95.0427 153.26 87.9362 Q153.26 80.8066 151.431 77.265 Q149.626 73.7002 145.992 73.7002 M145.992 69.9965 Q151.802 69.9965 154.857 74.603 Q157.936 79.1863 157.936 87.9362 Q157.936 96.663 154.857 101.269 Q151.802 105.853 145.992 105.853 Q140.181 105.853 137.103 101.269 Q134.047 96.663 134.047 87.9362 Q134.047 79.1863 137.103 74.603 Q140.181 69.9965 145.992 69.9965 Z" fill="#000000" fill-rule="evenodd" fill-opacity="1" /><polyline clip-path="url(#clip212)" style="stroke:#009af9; stroke-linecap:butt; stroke-linejoin:round; stroke-width:4; stroke-opacity:1; fill:none" points="
  193.936,1445.72 199.207,1444.23 204.477,1442.61 209.748,1440.83 215.019,1438.92 263.754,1414.47 312.488,1378.22 361.223,1330.84 409.958,1273.18 439.246,1234.03 
  468.533,1191.8 497.821,1146.78 527.109,1099.27 576.633,1014.14 626.158,924.402 733.753,721.745 832.946,538.311 886.119,446.351 939.292,361.452 1000.9,274.344 
  1062.5,201.737 1089.88,174.701 1117.25,151.11 1144.63,131.101 1172,114.79 1220.01,95.3846 1268.02,87.9763 1320.36,93.7184 1372.7,113.752 1425.36,147.897 
  1478.01,195.345 1536.23,262.06 1594.44,342.049 1649.83,428.575 1705.23,523.182 1820.41,735.891 1917.38,918.561 1976.57,1025.63 2035.76,1125.8 2091.4,1211.25 
  2147.04,1286.18 2191.61,1337.39 2236.18,1379.91 2280.75,1413.09 2325.32,1436.42 2332.18,1439.11 2339.04,1441.55 2345.9,1443.76 2352.76,1445.72 
  "/>
<polyline clip-path="url(#clip212)" style="stroke:#e26f46; stroke-linecap:butt; stroke-linejoin:round; stroke-width:4; stroke-opacity:1; fill:none" points="
  433.805,1365.85 673.674,1048.94 913.543,612.671 1153.41,243.87 1393.28,100.467 1633.15,243.87 1873.02,612.671 2112.89,1048.94 2352.76,1365.85 
  "/>
<circle clip-path="url(#clip212)" cx="433.805" cy="1365.85" r="14" fill="#e26f46" fill-rule="evenodd" fill-opacity="1" stroke="#000000" stroke-opacity="1" stroke-width="3.2"/>
<circle clip-path="url(#clip212)" cx="673.674" cy="1048.94" r="14" fill="#e26f46" fill-rule="evenodd" fill-opacity="1" stroke="#000000" stroke-opacity="1" stroke-width="3.2"/>
<circle clip-path="url(#clip212)" cx="913.543" cy="612.671" r="14" fill="#e26f46" fill-rule="evenodd" fill-opacity="1" stroke="#000000" stroke-opacity="1" stroke-width="3.2"/>
<circle clip-path="url(#clip212)" cx="1153.41" cy="243.87" r="14" fill="#e26f46" fill-rule="evenodd" fill-opacity="1" stroke="#000000" stroke-opacity="1" stroke-width="3.2"/>
<circle clip-path="url(#clip212)" cx="1393.28" cy="100.467" r="14" fill="#e26f46" fill-rule="evenodd" fill-opacity="1" stroke="#000000" stroke-opacity="1" stroke-width="3.2"/>
<circle clip-path="url(#clip212)" cx="1633.15" cy="243.87" r="14" fill="#e26f46" fill-rule="evenodd" fill-opacity="1" stroke="#000000" stroke-opacity="1" stroke-width="3.2"/>
<circle clip-path="url(#clip212)" cx="1873.02" cy="612.671" r="14" fill="#e26f46" fill-rule="evenodd" fill-opacity="1" stroke="#000000" stroke-opacity="1" stroke-width="3.2"/>
<circle clip-path="url(#clip212)" cx="2112.89" cy="1048.94" r="14" fill="#e26f46" fill-rule="evenodd" fill-opacity="1" stroke="#000000" stroke-opacity="1" stroke-width="3.2"/>
<circle clip-path="url(#clip212)" cx="2352.76" cy="1365.85" r="14" fill="#e26f46" fill-rule="evenodd" fill-opacity="1" stroke="#000000" stroke-opacity="1" stroke-width="3.2"/>
<polyline clip-path="url(#clip212)" style="stroke:#3da44d; stroke-linecap:butt; stroke-linejoin:round; stroke-width:4; stroke-opacity:1; fill:none" points="
  193.936,1365.85 433.805,1048.94 673.674,612.671 913.543,243.87 1153.41,100.467 1393.28,243.87 1633.15,612.671 1873.02,1048.94 2112.89,1365.85 
  "/>
<circle clip-path="url(#clip212)" cx="193.936" cy="1365.85" r="14" fill="#3da44d" fill-rule="evenodd" fill-opacity="1" stroke="#000000" stroke-opacity="1" stroke-width="3.2"/>
<circle clip-path="url(#clip212)" cx="433.805" cy="1048.94" r="14" fill="#3da44d" fill-rule="evenodd" fill-opacity="1" stroke="#000000" stroke-opacity="1" stroke-width="3.2"/>
<circle clip-path="url(#clip212)" cx="673.674" cy="612.671" r="14" fill="#3da44d" fill-rule="evenodd" fill-opacity="1" stroke="#000000" stroke-opacity="1" stroke-width="3.2"/>
<circle clip-path="url(#clip212)" cx="913.543" cy="243.87" r="14" fill="#3da44d" fill-rule="evenodd" fill-opacity="1" stroke="#000000" stroke-opacity="1" stroke-width="3.2"/>
<circle clip-path="url(#clip212)" cx="1153.41" cy="100.467" r="14" fill="#3da44d" fill-rule="evenodd" fill-opacity="1" stroke="#000000" stroke-opacity="1" stroke-width="3.2"/>
<circle clip-path="url(#clip212)" cx="1393.28" cy="243.87" r="14" fill="#3da44d" fill-rule="evenodd" fill-opacity="1" stroke="#000000" stroke-opacity="1" stroke-width="3.2"/>
<circle clip-path="url(#clip212)" cx="1633.15" cy="612.671" r="14" fill="#3da44d" fill-rule="evenodd" fill-opacity="1" stroke="#000000" stroke-opacity="1" stroke-width="3.2"/>
<circle clip-path="url(#clip212)" cx="1873.02" cy="1048.94" r="14" fill="#3da44d" fill-rule="evenodd" fill-opacity="1" stroke="#000000" stroke-opacity="1" stroke-width="3.2"/>
<circle clip-path="url(#clip212)" cx="2112.89" cy="1365.85" r="14" fill="#3da44d" fill-rule="evenodd" fill-opacity="1" stroke="#000000" stroke-opacity="1" stroke-width="3.2"/>
<polyline clip-path="url(#clip212)" style="stroke:#c271d2; stroke-linecap:butt; stroke-linejoin:round; stroke-width:4; stroke-opacity:1; fill:none" points="
  433.805,1207.4 673.674,830.805 913.543,428.271 1153.41,172.169 1393.28,172.169 1633.15,428.271 1873.02,830.805 2112.89,1207.4 
  "/>
<circle clip-path="url(#clip212)" cx="433.805" cy="1207.4" r="14" fill="#c271d2" fill-rule="evenodd" fill-opacity="1" stroke="#000000" stroke-opacity="1" stroke-width="3.2"/>
<circle clip-path="url(#clip212)" cx="673.674" cy="830.805" r="14" fill="#c271d2" fill-rule="evenodd" fill-opacity="1" stroke="#000000" stroke-opacity="1" stroke-width="3.2"/>
<circle clip-path="url(#clip212)" cx="913.543" cy="428.271" r="14" fill="#c271d2" fill-rule="evenodd" fill-opacity="1" stroke="#000000" stroke-opacity="1" stroke-width="3.2"/>
<circle clip-path="url(#clip212)" cx="1153.41" cy="172.169" r="14" fill="#c271d2" fill-rule="evenodd" fill-opacity="1" stroke="#000000" stroke-opacity="1" stroke-width="3.2"/>
<circle clip-path="url(#clip212)" cx="1393.28" cy="172.169" r="14" fill="#c271d2" fill-rule="evenodd" fill-opacity="1" stroke="#000000" stroke-opacity="1" stroke-width="3.2"/>
<circle clip-path="url(#clip212)" cx="1633.15" cy="428.271" r="14" fill="#c271d2" fill-rule="evenodd" fill-opacity="1" stroke="#000000" stroke-opacity="1" stroke-width="3.2"/>
<circle clip-path="url(#clip212)" cx="1873.02" cy="830.805" r="14" fill="#c271d2" fill-rule="evenodd" fill-opacity="1" stroke="#000000" stroke-opacity="1" stroke-width="3.2"/>
<circle clip-path="url(#clip212)" cx="2112.89" cy="1207.4" r="14" fill="#c271d2" fill-rule="evenodd" fill-opacity="1" stroke="#000000" stroke-opacity="1" stroke-width="3.2"/>
<path clip-path="url(#clip210)" d="
M1913.61 354.418 L2280.8 354.418 L2280.8 95.2176 L1913.61 95.2176  Z
  " fill="#ffffff" fill-rule="evenodd" fill-opacity="1"/>
<polyline clip-path="url(#clip210)" style="stroke:#000000; stroke-linecap:butt; stroke-linejoin:round; stroke-width:4; stroke-opacity:1; fill:none" points="
  1913.61,354.418 2280.8,354.418 2280.8,95.2176 1913.61,95.2176 1913.61,354.418 
  "/>
<polyline clip-path="url(#clip210)" style="stroke:#009af9; stroke-linecap:butt; stroke-linejoin:round; stroke-width:4; stroke-opacity:1; fill:none" points="
  1937.6,147.058 2081.52,147.058 
  "/>
<path clip-path="url(#clip210)" d="M2119.35 166.745 Q2117.54 171.375 2115.83 172.787 Q2114.12 174.199 2111.25 174.199 L2107.85 174.199 L2107.85 170.634 L2110.35 170.634 Q2112.1 170.634 2113.08 169.8 Q2114.05 168.967 2115.23 165.865 L2115.99 163.921 L2105.51 138.412 L2110.02 138.412 L2118.12 158.689 L2126.22 138.412 L2130.74 138.412 L2119.35 166.745 Z" fill="#000000" fill-rule="evenodd" fill-opacity="1" /><path clip-path="url(#clip210)" d="M2138.03 160.402 L2145.67 160.402 L2145.67 134.037 L2137.36 135.703 L2137.36 131.444 L2145.62 129.778 L2150.3 129.778 L2150.3 160.402 L2157.94 160.402 L2157.94 164.338 L2138.03 164.338 L2138.03 160.402 Z" fill="#000000" fill-rule="evenodd" fill-opacity="1" /><polyline clip-path="url(#clip210)" style="stroke:#e26f46; stroke-linecap:butt; stroke-linejoin:round; stroke-width:4; stroke-opacity:1; fill:none" points="
  1937.6,198.898 2081.52,198.898 
  "/>
<circle clip-path="url(#clip210)" cx="2009.56" cy="198.898" r="23" fill="#e26f46" fill-rule="evenodd" fill-opacity="1" stroke="#000000" stroke-opacity="1" stroke-width="5.12"/>
<path clip-path="url(#clip210)" d="M2124.42 194.187 L2124.42 180.159 L2128.68 180.159 L2128.68 216.178 L2124.42 216.178 L2124.42 212.289 Q2123.08 214.603 2121.02 215.738 Q2118.98 216.849 2116.11 216.849 Q2111.41 216.849 2108.45 213.099 Q2105.51 209.349 2105.51 203.238 Q2105.51 197.127 2108.45 193.377 Q2111.41 189.627 2116.11 189.627 Q2118.98 189.627 2121.02 190.761 Q2123.08 191.872 2124.42 194.187 M2109.91 203.238 Q2109.91 207.937 2111.83 210.622 Q2113.77 213.284 2117.15 213.284 Q2120.53 213.284 2122.47 210.622 Q2124.42 207.937 2124.42 203.238 Q2124.42 198.539 2122.47 195.877 Q2120.53 193.192 2117.15 193.192 Q2113.77 193.192 2111.83 195.877 Q2109.91 198.539 2109.91 203.238 Z" fill="#000000" fill-rule="evenodd" fill-opacity="1" /><path clip-path="url(#clip210)" d="M2137.45 190.252 L2141.71 190.252 L2141.71 216.178 L2137.45 216.178 L2137.45 190.252 M2137.45 180.159 L2141.71 180.159 L2141.71 185.553 L2137.45 185.553 L2137.45 180.159 Z" fill="#000000" fill-rule="evenodd" fill-opacity="1" /><path clip-path="url(#clip210)" d="M2163.75 180.159 L2163.75 183.701 L2159.67 183.701 Q2157.38 183.701 2156.48 184.627 Q2155.6 185.553 2155.6 187.96 L2155.6 190.252 L2162.61 190.252 L2162.61 193.562 L2155.6 193.562 L2155.6 216.178 L2151.32 216.178 L2151.32 193.562 L2147.24 193.562 L2147.24 190.252 L2151.32 190.252 L2151.32 188.446 Q2151.32 184.118 2153.33 182.15 Q2155.35 180.159 2159.72 180.159 L2163.75 180.159 Z" fill="#000000" fill-rule="evenodd" fill-opacity="1" /><path clip-path="url(#clip210)" d="M2180.44 180.159 L2180.44 183.701 L2176.36 183.701 Q2174.07 183.701 2173.17 184.627 Q2172.29 185.553 2172.29 187.96 L2172.29 190.252 L2179.3 190.252 L2179.3 193.562 L2172.29 193.562 L2172.29 216.178 L2168.01 216.178 L2168.01 193.562 L2163.93 193.562 L2163.93 190.252 L2168.01 190.252 L2168.01 188.446 Q2168.01 184.118 2170.02 182.15 Q2172.03 180.159 2176.41 180.159 L2180.44 180.159 Z" fill="#000000" fill-rule="evenodd" fill-opacity="1" /><path clip-path="url(#clip210)" d="M2185.41 212.242 L2193.05 212.242 L2193.05 185.877 L2184.74 187.543 L2184.74 183.284 L2193.01 181.618 L2197.68 181.618 L2197.68 212.242 L2205.32 212.242 L2205.32 216.178 L2185.41 216.178 L2185.41 212.242 Z" fill="#000000" fill-rule="evenodd" fill-opacity="1" /><path clip-path="url(#clip210)" d="M2214.16 180.159 L2218.42 180.159 L2218.42 216.178 L2214.16 216.178 L2214.16 180.159 Z" fill="#000000" fill-rule="evenodd" fill-opacity="1" /><polyline clip-path="url(#clip210)" style="stroke:#3da44d; stroke-linecap:butt; stroke-linejoin:round; stroke-width:4; stroke-opacity:1; fill:none" points="
  1937.6,250.738 2081.52,250.738 
  "/>
<circle clip-path="url(#clip210)" cx="2009.56" cy="250.738" r="23" fill="#3da44d" fill-rule="evenodd" fill-opacity="1" stroke="#000000" stroke-opacity="1" stroke-width="5.12"/>
<path clip-path="url(#clip210)" d="M2124.42 246.027 L2124.42 231.999 L2128.68 231.999 L2128.68 268.018 L2124.42 268.018 L2124.42 264.129 Q2123.08 266.443 2121.02 267.578 Q2118.98 268.689 2116.11 268.689 Q2111.41 268.689 2108.45 264.939 Q2105.51 261.189 2105.51 255.078 Q2105.51 248.967 2108.45 245.217 Q2111.41 241.467 2116.11 241.467 Q2118.98 241.467 2121.02 242.601 Q2123.08 243.712 2124.42 246.027 M2109.91 255.078 Q2109.91 259.777 2111.83 262.462 Q2113.77 265.124 2117.15 265.124 Q2120.53 265.124 2122.47 262.462 Q2124.42 259.777 2124.42 255.078 Q2124.42 250.379 2122.47 247.717 Q2120.53 245.032 2117.15 245.032 Q2113.77 245.032 2111.83 247.717 Q2109.91 250.379 2109.91 255.078 Z" fill="#000000" fill-rule="evenodd" fill-opacity="1" /><path clip-path="url(#clip210)" d="M2137.45 242.092 L2141.71 242.092 L2141.71 268.018 L2137.45 268.018 L2137.45 242.092 M2137.45 231.999 L2141.71 231.999 L2141.71 237.393 L2137.45 237.393 L2137.45 231.999 Z" fill="#000000" fill-rule="evenodd" fill-opacity="1" /><path clip-path="url(#clip210)" d="M2163.75 231.999 L2163.75 235.541 L2159.67 235.541 Q2157.38 235.541 2156.48 236.467 Q2155.6 237.393 2155.6 239.8 L2155.6 242.092 L2162.61 242.092 L2162.61 245.402 L2155.6 245.402 L2155.6 268.018 L2151.32 268.018 L2151.32 245.402 L2147.24 245.402 L2147.24 242.092 L2151.32 242.092 L2151.32 240.286 Q2151.32 235.958 2153.33 233.99 Q2155.35 231.999 2159.72 231.999 L2163.75 231.999 Z" fill="#000000" fill-rule="evenodd" fill-opacity="1" /><path clip-path="url(#clip210)" d="M2180.44 231.999 L2180.44 235.541 L2176.36 235.541 Q2174.07 235.541 2173.17 236.467 Q2172.29 237.393 2172.29 239.8 L2172.29 242.092 L2179.3 242.092 L2179.3 245.402 L2172.29 245.402 L2172.29 268.018 L2168.01 268.018 L2168.01 245.402 L2163.93 245.402 L2163.93 242.092 L2168.01 242.092 L2168.01 240.286 Q2168.01 235.958 2170.02 233.99 Q2172.03 231.999 2176.41 231.999 L2180.44 231.999 Z" fill="#000000" fill-rule="evenodd" fill-opacity="1" /><path clip-path="url(#clip210)" d="M2185.41 264.082 L2193.05 264.082 L2193.05 237.717 L2184.74 239.383 L2184.74 235.124 L2193.01 233.458 L2197.68 233.458 L2197.68 264.082 L2205.32 264.082 L2205.32 268.018 L2185.41 268.018 L2185.41 264.082 Z" fill="#000000" fill-rule="evenodd" fill-opacity="1" /><path clip-path="url(#clip210)" d="M2229.19 246.073 Q2228.47 245.657 2227.61 245.471 Q2226.78 245.263 2225.76 245.263 Q2222.15 245.263 2220.21 247.624 Q2218.28 249.962 2218.28 254.36 L2218.28 268.018 L2214 268.018 L2214 242.092 L2218.28 242.092 L2218.28 246.12 Q2219.63 243.758 2221.78 242.624 Q2223.93 241.467 2227.01 241.467 Q2227.45 241.467 2227.98 241.536 Q2228.52 241.583 2229.16 241.698 L2229.19 246.073 Z" fill="#000000" fill-rule="evenodd" fill-opacity="1" /><polyline clip-path="url(#clip210)" style="stroke:#c271d2; stroke-linecap:butt; stroke-linejoin:round; stroke-width:4; stroke-opacity:1; fill:none" points="
  1937.6,302.578 2081.52,302.578 
  "/>
<circle clip-path="url(#clip210)" cx="2009.56" cy="302.578" r="23" fill="#c271d2" fill-rule="evenodd" fill-opacity="1" stroke="#000000" stroke-opacity="1" stroke-width="5.12"/>
<path clip-path="url(#clip210)" d="M2124.42 297.867 L2124.42 283.839 L2128.68 283.839 L2128.68 319.858 L2124.42 319.858 L2124.42 315.969 Q2123.08 318.283 2121.02 319.418 Q2118.98 320.529 2116.11 320.529 Q2111.41 320.529 2108.45 316.779 Q2105.51 313.029 2105.51 306.918 Q2105.51 300.807 2108.45 297.057 Q2111.41 293.307 2116.11 293.307 Q2118.98 293.307 2121.02 294.441 Q2123.08 295.552 2124.42 297.867 M2109.91 306.918 Q2109.91 311.617 2111.83 314.302 Q2113.77 316.964 2117.15 316.964 Q2120.53 316.964 2122.47 314.302 Q2124.42 311.617 2124.42 306.918 Q2124.42 302.219 2122.47 299.557 Q2120.53 296.872 2117.15 296.872 Q2113.77 296.872 2111.83 299.557 Q2109.91 302.219 2109.91 306.918 Z" fill="#000000" fill-rule="evenodd" fill-opacity="1" /><path clip-path="url(#clip210)" d="M2137.45 293.932 L2141.71 293.932 L2141.71 319.858 L2137.45 319.858 L2137.45 293.932 M2137.45 283.839 L2141.71 283.839 L2141.71 289.233 L2137.45 289.233 L2137.45 283.839 Z" fill="#000000" fill-rule="evenodd" fill-opacity="1" /><path clip-path="url(#clip210)" d="M2163.75 283.839 L2163.75 287.381 L2159.67 287.381 Q2157.38 287.381 2156.48 288.307 Q2155.6 289.233 2155.6 291.64 L2155.6 293.932 L2162.61 293.932 L2162.61 297.242 L2155.6 297.242 L2155.6 319.858 L2151.32 319.858 L2151.32 297.242 L2147.24 297.242 L2147.24 293.932 L2151.32 293.932 L2151.32 292.126 Q2151.32 287.798 2153.33 285.83 Q2155.35 283.839 2159.72 283.839 L2163.75 283.839 Z" fill="#000000" fill-rule="evenodd" fill-opacity="1" /><path clip-path="url(#clip210)" d="M2180.44 283.839 L2180.44 287.381 L2176.36 287.381 Q2174.07 287.381 2173.17 288.307 Q2172.29 289.233 2172.29 291.64 L2172.29 293.932 L2179.3 293.932 L2179.3 297.242 L2172.29 297.242 L2172.29 319.858 L2168.01 319.858 L2168.01 297.242 L2163.93 297.242 L2163.93 293.932 L2168.01 293.932 L2168.01 292.126 Q2168.01 287.798 2170.02 285.83 Q2172.03 283.839 2176.41 283.839 L2180.44 283.839 Z" fill="#000000" fill-rule="evenodd" fill-opacity="1" /><path clip-path="url(#clip210)" d="M2185.41 315.922 L2193.05 315.922 L2193.05 289.557 L2184.74 291.223 L2184.74 286.964 L2193.01 285.298 L2197.68 285.298 L2197.68 315.922 L2205.32 315.922 L2205.32 319.858 L2185.41 319.858 L2185.41 315.922 Z" fill="#000000" fill-rule="evenodd" fill-opacity="1" /><path clip-path="url(#clip210)" d="M2232.82 294.927 L2232.82 298.909 Q2231.02 297.913 2229.19 297.427 Q2227.38 296.918 2225.53 296.918 Q2221.39 296.918 2219.09 299.557 Q2216.8 302.172 2216.8 306.918 Q2216.8 311.663 2219.09 314.302 Q2221.39 316.918 2225.53 316.918 Q2227.38 316.918 2229.19 316.432 Q2231.02 315.922 2232.82 314.927 L2232.82 318.862 Q2231.04 319.696 2229.12 320.112 Q2227.22 320.529 2225.07 320.529 Q2219.21 320.529 2215.76 316.848 Q2212.31 313.168 2212.31 306.918 Q2212.31 300.575 2215.78 296.941 Q2219.28 293.307 2225.34 293.307 Q2227.31 293.307 2229.19 293.723 Q2231.06 294.117 2232.82 294.927 Z" fill="#000000" fill-rule="evenodd" fill-opacity="1" /></svg>
