<?xml version="1.0" encoding="utf-8"?>
<svg xmlns="http://www.w3.org/2000/svg" xmlns:xlink="http://www.w3.org/1999/xlink" width="600" height="400" viewBox="0 0 2400 1600">
<defs>
  <clipPath id="clip160">
    <rect x="0" y="0" width="2400" height="1600"/>
  </clipPath>
</defs>
<path clip-path="url(#clip160)" d="
M0 1600 L2400 1600 L2400 0 L0 0  Z
  " fill="#ffffff" fill-rule="evenodd" fill-opacity="1"/>
<defs>
  <clipPath id="clip161">
    <rect x="480" y="0" width="1681" height="1600"/>
  </clipPath>
</defs>
<path clip-path="url(#clip160)" d="
M193.936 1486.45 L2352.76 1486.45 L2352.76 47.2441 L193.936 47.2441  Z
  " fill="#ffffff" fill-rule="evenodd" fill-opacity="1"/>
<defs>
  <clipPath id="clip162">
    <rect x="193" y="47" width="2160" height="1440"/>
  </clipPath>
</defs>
<polyline clip-path="url(#clip162)" style="stroke:#000000; stroke-linecap:butt; stroke-linejoin:round; stroke-width:2; stroke-opacity:0.1; fill:none" points="
  193.936,1486.45 193.936,47.2441 
  "/>
<polyline clip-path="url(#clip162)" style="stroke:#000000; stroke-linecap:butt; stroke-linejoin:round; stroke-width:2; stroke-opacity:0.1; fill:none" points="
  553.739,1486.45 553.739,47.2441 
  "/>
<polyline clip-path="url(#clip162)" style="stroke:#000000; stroke-linecap:butt; stroke-linejoin:round; stroke-width:2; stroke-opacity:0.1; fill:none" points="
  913.543,1486.45 913.543,47.2441 
  "/>
<polyline clip-path="url(#clip162)" style="stroke:#000000; stroke-linecap:butt; stroke-linejoin:round; stroke-width:2; stroke-opacity:0.1; fill:none" points="
  1273.35,1486.45 1273.35,47.2441 
  "/>
<polyline clip-path="url(#clip162)" style="stroke:#000000; stroke-linecap:butt; stroke-linejoin:round; stroke-width:2; stroke-opacity:0.1; fill:none" points="
  1633.15,1486.45 1633.15,47.2441 
  "/>
<polyline clip-path="url(#clip162)" style="stroke:#000000; stroke-linecap:butt; stroke-linejoin:round; stroke-width:2; stroke-opacity:0.1; fill:none" points="
  1992.95,1486.45 1992.95,47.2441 
  "/>
<polyline clip-path="url(#clip162)" style="stroke:#000000; stroke-linecap:butt; stroke-linejoin:round; stroke-width:2; stroke-opacity:0.1; fill:none" points="
  2352.76,1486.45 2352.76,47.2441 
  "/>
<polyline clip-path="url(#clip160)" style="stroke:#000000; stroke-linecap:butt; stroke-linejoin:round; stroke-width:4; stroke-opacity:1; fill:none" points="
  193.936,1486.45 2352.76,1486.45 
  "/>
<polyline clip-path="url(#clip160)" style="stroke:#000000; stroke-linecap:butt; stroke-linejoin:round; stroke-width:4; stroke-opacity:1; fill:none" points="
  193.936,1486.45 193.936,1467.55 
  "/>
<polyline clip-path="url(#clip160)" style="stroke:#000000; stroke-linecap:butt; stroke-linejoin:round; stroke-width:4; stroke-opacity:1; fill:none" points="
  553.739,1486.45 553.739,1467.55 
  "/>
<polyline clip-path="url(#clip160)" style="stroke:#000000; stroke-linecap:butt; stroke-linejoin:round; stroke-width:4; stroke-opacity:1; fill:none" points="
  913.543,1486.45 913.543,1467.55 
  "/>
<polyline clip-path="url(#clip160)" style="stroke:#000000; stroke-linecap:butt; stroke-linejoin:round; stroke-width:4; stroke-opacity:1; fill:none" points="
  1273.35,1486.45 1273.35,1467.55 
  "/>
<polyline clip-path="url(#clip160)" style="stroke:#000000; stroke-linecap:butt; stroke-linejoin:round; stroke-width:4; stroke-opacity:1; fill:none" points="
  1633.15,1486.45 1633.15,1467.55 
  "/>
<polyline clip-path="url(#clip160)" style="stroke:#000000; stroke-linecap:butt; stroke-linejoin:round; stroke-width:4; stroke-opacity:1; fill:none" points="
  1992.95,1486.45 1992.95,1467.55 
  "/>
<polyline clip-path="url(#clip160)" style="stroke:#000000; stroke-linecap:butt; stroke-linejoin:round; stroke-width:4; stroke-opacity:1; fill:none" points="
  2352.76,1486.45 2352.76,1467.55 
  "/>
<path clip-path="url(#clip160)" d="M163.404 1530.29 L193.08 1530.29 L193.08 1534.23 L163.404 1534.23 L163.404 1530.29 Z" fill="#000000" fill-rule="evenodd" fill-opacity="1" /><path clip-path="url(#clip160)" d="M217.339 1528.49 Q220.695 1529.2 222.57 1531.47 Q224.468 1533.74 224.468 1537.07 Q224.468 1542.19 220.95 1544.99 Q217.431 1547.79 210.95 1547.79 Q208.774 1547.79 206.459 1547.35 Q204.167 1546.93 201.714 1546.08 L201.714 1541.56 Q203.658 1542.7 205.973 1543.28 Q208.288 1543.86 210.811 1543.86 Q215.209 1543.86 217.501 1542.12 Q219.815 1540.38 219.815 1537.07 Q219.815 1534.02 217.663 1532.31 Q215.533 1530.57 211.714 1530.57 L207.686 1530.57 L207.686 1526.73 L211.899 1526.73 Q215.348 1526.73 217.177 1525.36 Q219.005 1523.97 219.005 1521.38 Q219.005 1518.72 217.107 1517.31 Q215.232 1515.87 211.714 1515.87 Q209.792 1515.87 207.593 1516.29 Q205.394 1516.7 202.755 1517.58 L202.755 1513.42 Q205.417 1512.68 207.732 1512.31 Q210.07 1511.93 212.13 1511.93 Q217.454 1511.93 220.556 1514.37 Q223.658 1516.77 223.658 1520.89 Q223.658 1523.76 222.015 1525.75 Q220.371 1527.72 217.339 1528.49 Z" fill="#000000" fill-rule="evenodd" fill-opacity="1" /><path clip-path="url(#clip160)" d="M523.682 1530.29 L553.357 1530.29 L553.357 1534.23 L523.682 1534.23 L523.682 1530.29 Z" fill="#000000" fill-rule="evenodd" fill-opacity="1" /><path clip-path="url(#clip160)" d="M567.478 1543.18 L583.797 1543.18 L583.797 1547.12 L561.853 1547.12 L561.853 1543.18 Q564.515 1540.43 569.098 1535.8 Q573.704 1531.15 574.885 1529.81 Q577.13 1527.28 578.01 1525.55 Q578.913 1523.79 578.913 1522.1 Q578.913 1519.34 576.968 1517.61 Q575.047 1515.87 571.945 1515.87 Q569.746 1515.87 567.292 1516.63 Q564.862 1517.4 562.084 1518.95 L562.084 1514.23 Q564.908 1513.09 567.362 1512.51 Q569.816 1511.93 571.853 1511.93 Q577.223 1511.93 580.417 1514.62 Q583.612 1517.31 583.612 1521.8 Q583.612 1523.93 582.802 1525.85 Q582.015 1527.74 579.908 1530.34 Q579.329 1531.01 576.228 1534.23 Q573.126 1537.42 567.478 1543.18 Z" fill="#000000" fill-rule="evenodd" fill-opacity="1" /><path clip-path="url(#clip160)" d="M883.3 1530.29 L912.976 1530.29 L912.976 1534.23 L883.3 1534.23 L883.3 1530.29 Z" fill="#000000" fill-rule="evenodd" fill-opacity="1" /><path clip-path="url(#clip160)" d="M923.878 1543.18 L931.517 1543.18 L931.517 1516.82 L923.207 1518.49 L923.207 1514.23 L931.471 1512.56 L936.147 1512.56 L936.147 1543.18 L943.786 1543.18 L943.786 1547.12 L923.878 1547.12 L923.878 1543.18 Z" fill="#000000" fill-rule="evenodd" fill-opacity="1" /><path clip-path="url(#clip160)" d="M1273.35 1515.64 Q1269.73 1515.64 1267.91 1519.2 Q1266.1 1522.75 1266.1 1529.87 Q1266.1 1536.98 1267.91 1540.55 Q1269.73 1544.09 1273.35 1544.09 Q1276.98 1544.09 1278.79 1540.55 Q1280.61 1536.98 1280.61 1529.87 Q1280.61 1522.75 1278.79 1519.2 Q1276.98 1515.64 1273.35 1515.64 M1273.35 1511.93 Q1279.16 1511.93 1282.21 1516.54 Q1285.29 1521.12 1285.29 1529.87 Q1285.29 1538.6 1282.21 1543.21 Q1279.16 1547.79 1273.35 1547.79 Q1267.54 1547.79 1264.46 1543.21 Q1261.4 1538.6 1261.4 1529.87 Q1261.4 1521.12 1264.46 1516.54 Q1267.54 1511.93 1273.35 1511.93 Z" fill="#000000" fill-rule="evenodd" fill-opacity="1" /><path clip-path="url(#clip160)" d="M1623.53 1543.18 L1631.17 1543.18 L1631.17 1516.82 L1622.86 1518.49 L1622.86 1514.23 L1631.12 1512.56 L1635.8 1512.56 L1635.8 1543.18 L1643.44 1543.18 L1643.44 1547.12 L1623.53 1547.12 L1623.53 1543.18 Z" fill="#000000" fill-rule="evenodd" fill-opacity="1" /><path clip-path="url(#clip160)" d="M1987.61 1543.18 L2003.92 1543.18 L2003.92 1547.12 L1981.98 1547.12 L1981.98 1543.18 Q1984.64 1540.43 1989.23 1535.8 Q1993.83 1531.15 1995.01 1529.81 Q1997.26 1527.28 1998.14 1525.55 Q1999.04 1523.79 1999.04 1522.1 Q1999.04 1519.34 1997.1 1517.61 Q1995.17 1515.87 1992.07 1515.87 Q1989.87 1515.87 1987.42 1516.63 Q1984.99 1517.4 1982.21 1518.95 L1982.21 1514.23 Q1985.04 1513.09 1987.49 1512.51 Q1989.94 1511.93 1991.98 1511.93 Q1997.35 1511.93 2000.55 1514.62 Q2003.74 1517.31 2003.74 1521.8 Q2003.74 1523.93 2002.93 1525.85 Q2002.14 1527.74 2000.04 1530.34 Q1999.46 1531.01 1996.36 1534.23 Q1993.25 1537.42 1987.61 1543.18 Z" fill="#000000" fill-rule="evenodd" fill-opacity="1" /><path clip-path="url(#clip160)" d="M2357 1528.49 Q2360.36 1529.2 2362.24 1531.47 Q2364.13 1533.74 2364.13 1537.07 Q2364.13 1542.19 2360.61 1544.99 Q2357.1 1547.79 2350.61 1547.79 Q2348.44 1547.79 2346.12 1547.35 Q2343.83 1546.93 2341.38 1546.08 L2341.38 1541.56 Q2343.32 1542.7 2345.64 1543.28 Q2347.95 1543.86 2350.48 1543.86 Q2354.87 1543.86 2357.17 1542.12 Q2359.48 1540.38 2359.48 1537.07 Q2359.48 1534.02 2357.33 1532.31 Q2355.2 1530.57 2351.38 1530.57 L2347.35 1530.57 L2347.35 1526.73 L2351.56 1526.73 Q2355.01 1526.73 2356.84 1525.36 Q2358.67 1523.97 2358.67 1521.38 Q2358.67 1518.72 2356.77 1517.31 Q2354.9 1515.87 2351.38 1515.87 Q2349.46 1515.87 2347.26 1516.29 Q2345.06 1516.7 2342.42 1517.58 L2342.42 1513.42 Q2345.08 1512.68 2347.4 1512.31 Q2349.74 1511.93 2351.8 1511.93 Q2357.12 1511.93 2360.22 1514.37 Q2363.32 1516.77 2363.32 1520.89 Q2363.32 1523.76 2361.68 1525.75 Q2360.04 1527.72 2357 1528.49 Z" fill="#000000" fill-rule="evenodd" fill-opacity="1" /><polyline clip-path="url(#clip162)" style="stroke:#000000; stroke-linecap:butt; stroke-linejoin:round; stroke-width:2; stroke-opacity:0.1; fill:none" points="
  193.936,1448.21 2352.76,1448.21 
  "/>
<polyline clip-path="url(#clip162)" style="stroke:#000000; stroke-linecap:butt; stroke-linejoin:round; stroke-width:2; stroke-opacity:0.1; fill:none" points="
  193.936,1107.53 2352.76,1107.53 
  "/>
<polyline clip-path="url(#clip162)" style="stroke:#000000; stroke-linecap:butt; stroke-linejoin:round; stroke-width:2; stroke-opacity:0.1; fill:none" points="
  193.936,766.846 2352.76,766.846 
  "/>
<polyline clip-path="url(#clip162)" style="stroke:#000000; stroke-linecap:butt; stroke-linejoin:round; stroke-width:2; stroke-opacity:0.1; fill:none" points="
  193.936,426.162 2352.76,426.162 
  "/>
<polyline clip-path="url(#clip162)" style="stroke:#000000; stroke-linecap:butt; stroke-linejoin:round; stroke-width:2; stroke-opacity:0.1; fill:none" points="
  193.936,85.4785 2352.76,85.4785 
  "/>
<polyline clip-path="url(#clip160)" style="stroke:#000000; stroke-linecap:butt; stroke-linejoin:round; stroke-width:4; stroke-opacity:1; fill:none" points="
  193.936,1486.45 193.936,47.2441 
  "/>
<polyline clip-path="url(#clip160)" style="stroke:#000000; stroke-linecap:butt; stroke-linejoin:round; stroke-width:4; stroke-opacity:1; fill:none" points="
  193.936,1448.21 212.834,1448.21 
  "/>
<polyline clip-path="url(#clip160)" style="stroke:#000000; stroke-linecap:butt; stroke-linejoin:round; stroke-width:4; stroke-opacity:1; fill:none" points="
  193.936,1107.53 212.834,1107.53 
  "/>
<polyline clip-path="url(#clip160)" style="stroke:#000000; stroke-linecap:butt; stroke-linejoin:round; stroke-width:4; stroke-opacity:1; fill:none" points="
  193.936,766.846 212.834,766.846 
  "/>
<polyline clip-path="url(#clip160)" style="stroke:#000000; stroke-linecap:butt; stroke-linejoin:round; stroke-width:4; stroke-opacity:1; fill:none" points="
  193.936,426.162 212.834,426.162 
  "/>
<polyline clip-path="url(#clip160)" style="stroke:#000000; stroke-linecap:butt; stroke-linejoin:round; stroke-width:4; stroke-opacity:1; fill:none" points="
  193.936,85.4785 212.834,85.4785 
  "/>
<path clip-path="url(#clip160)" d="M50.9921 1448.66 L80.6679 1448.66 L80.6679 1452.6 L50.9921 1452.6 L50.9921 1448.66 Z" fill="#000000" fill-rule="evenodd" fill-opacity="1" /><path clip-path="url(#clip160)" d="M91.5706 1461.56 L99.2095 1461.56 L99.2095 1435.19 L90.8993 1436.86 L90.8993 1432.6 L99.1632 1430.93 L103.839 1430.93 L103.839 1461.56 L111.478 1461.56 L111.478 1465.49 L91.5706 1465.49 L91.5706 1461.56 Z" fill="#000000" fill-rule="evenodd" fill-opacity="1" /><path clip-path="url(#clip160)" d="M120.922 1459.61 L125.807 1459.61 L125.807 1465.49 L120.922 1465.49 L120.922 1459.61 Z" fill="#000000" fill-rule="evenodd" fill-opacity="1" /><path clip-path="url(#clip160)" d="M145.992 1434.01 Q142.381 1434.01 140.552 1437.58 Q138.746 1441.12 138.746 1448.25 Q138.746 1455.35 140.552 1458.92 Q142.381 1462.46 145.992 1462.46 Q149.626 1462.46 151.431 1458.92 Q153.26 1455.35 153.26 1448.25 Q153.26 1441.12 151.431 1437.58 Q149.626 1434.01 145.992 1434.01 M145.992 1430.31 Q151.802 1430.31 154.857 1434.91 Q157.936 1439.5 157.936 1448.25 Q157.936 1456.98 154.857 1461.58 Q151.802 1466.16 145.992 1466.16 Q140.181 1466.16 137.103 1461.58 Q134.047 1456.98 134.047 1448.25 Q134.047 1439.5 137.103 1434.91 Q140.181 1430.31 145.992 1430.31 Z" fill="#000000" fill-rule="evenodd" fill-opacity="1" /><path clip-path="url(#clip160)" d="M51.9875 1107.98 L81.6633 1107.98 L81.6633 1111.92 L51.9875 1111.92 L51.9875 1107.98 Z" fill="#000000" fill-rule="evenodd" fill-opacity="1" /><path clip-path="url(#clip160)" d="M101.756 1093.33 Q98.1447 1093.33 96.316 1096.89 Q94.5104 1100.43 94.5104 1107.56 Q94.5104 1114.67 96.316 1118.24 Q98.1447 1121.78 101.756 1121.78 Q105.39 1121.78 107.196 1118.24 Q109.024 1114.67 109.024 1107.56 Q109.024 1100.43 107.196 1096.89 Q105.39 1093.33 101.756 1093.33 M101.756 1089.62 Q107.566 1089.62 110.621 1094.23 Q113.7 1098.81 113.7 1107.56 Q113.7 1116.29 110.621 1120.9 Q107.566 1125.48 101.756 1125.48 Q95.9456 1125.48 92.8669 1120.9 Q89.8114 1116.29 89.8114 1107.56 Q89.8114 1098.81 92.8669 1094.23 Q95.9456 1089.62 101.756 1089.62 Z" fill="#000000" fill-rule="evenodd" fill-opacity="1" /><path clip-path="url(#clip160)" d="M121.918 1118.93 L126.802 1118.93 L126.802 1124.81 L121.918 1124.81 L121.918 1118.93 Z" fill="#000000" fill-rule="evenodd" fill-opacity="1" /><path clip-path="url(#clip160)" d="M137.033 1090.25 L155.39 1090.25 L155.39 1094.18 L141.316 1094.18 L141.316 1102.66 Q142.334 1102.31 143.353 1102.15 Q144.371 1101.96 145.39 1101.96 Q151.177 1101.96 154.556 1105.13 Q157.936 1108.31 157.936 1113.72 Q157.936 1119.3 154.464 1122.4 Q150.992 1125.48 144.672 1125.48 Q142.496 1125.48 140.228 1125.11 Q137.982 1124.74 135.575 1124 L135.575 1119.3 Q137.658 1120.43 139.881 1120.99 Q142.103 1121.55 144.58 1121.55 Q148.584 1121.55 150.922 1119.44 Q153.26 1117.33 153.26 1113.72 Q153.26 1110.11 150.922 1108 Q148.584 1105.9 144.58 1105.9 Q142.705 1105.9 140.83 1106.31 Q138.978 1106.73 137.033 1107.61 L137.033 1090.25 Z" fill="#000000" fill-rule="evenodd" fill-opacity="1" /><path clip-path="url(#clip160)" d="M100.76 752.645 Q97.1493 752.645 95.3206 756.209 Q93.515 759.751 93.515 766.881 Q93.515 773.987 95.3206 777.552 Q97.1493 781.094 100.76 781.094 Q104.395 781.094 106.2 777.552 Q108.029 773.987 108.029 766.881 Q108.029 759.751 106.2 756.209 Q104.395 752.645 100.76 752.645 M100.76 748.941 Q106.571 748.941 109.626 753.547 Q112.705 758.131 112.705 766.881 Q112.705 775.608 109.626 780.214 Q106.571 784.797 100.76 784.797 Q94.9502 784.797 91.8715 780.214 Q88.816 775.608 88.816 766.881 Q88.816 758.131 91.8715 753.547 Q94.9502 748.941 100.76 748.941 Z" fill="#000000" fill-rule="evenodd" fill-opacity="1" /><path clip-path="url(#clip160)" d="M120.922 778.246 L125.807 778.246 L125.807 784.126 L120.922 784.126 L120.922 778.246 Z" fill="#000000" fill-rule="evenodd" fill-opacity="1" /><path clip-path="url(#clip160)" d="M145.992 752.645 Q142.381 752.645 140.552 756.209 Q138.746 759.751 138.746 766.881 Q138.746 773.987 140.552 777.552 Q142.381 781.094 145.992 781.094 Q149.626 781.094 151.431 777.552 Q153.26 773.987 153.26 766.881 Q153.26 759.751 151.431 756.209 Q149.626 752.645 145.992 752.645 M145.992 748.941 Q151.802 748.941 154.857 753.547 Q157.936 758.131 157.936 766.881 Q157.936 775.608 154.857 780.214 Q151.802 784.797 145.992 784.797 Q140.181 784.797 137.103 780.214 Q134.047 775.608 134.047 766.881 Q134.047 758.131 137.103 753.547 Q140.181 748.941 145.992 748.941 Z" fill="#000000" fill-rule="evenodd" fill-opacity="1" /><path clip-path="url(#clip160)" d="M101.756 411.961 Q98.1447 411.961 96.316 415.526 Q94.5104 419.067 94.5104 426.197 Q94.5104 433.303 96.316 436.868 Q98.1447 440.41 101.756 440.41 Q105.39 440.41 107.196 436.868 Q109.024 433.303 109.024 426.197 Q109.024 419.067 107.196 415.526 Q105.39 411.961 101.756 411.961 M101.756 408.257 Q107.566 408.257 110.621 412.864 Q113.7 417.447 113.7 426.197 Q113.7 434.924 110.621 439.53 Q107.566 444.114 101.756 444.114 Q95.9456 444.114 92.8669 439.53 Q89.8114 434.924 89.8114 426.197 Q89.8114 417.447 92.8669 412.864 Q95.9456 408.257 101.756 408.257 Z" fill="#000000" fill-rule="evenodd" fill-opacity="1" /><path clip-path="url(#clip160)" d="M121.918 437.563 L126.802 437.563 L126.802 443.442 L121.918 443.442 L121.918 437.563 Z" fill="#000000" fill-rule="evenodd" fill-opacity="1" /><path clip-path="url(#clip160)" d="M137.033 408.882 L155.39 408.882 L155.39 412.817 L141.316 412.817 L141.316 421.29 Q142.334 420.942 143.353 420.78 Q144.371 420.595 145.39 420.595 Q151.177 420.595 154.556 423.766 Q157.936 426.938 157.936 432.354 Q157.936 437.933 154.464 441.035 Q150.992 444.114 144.672 444.114 Q142.496 444.114 140.228 443.743 Q137.982 443.373 135.575 442.632 L135.575 437.933 Q137.658 439.067 139.881 439.623 Q142.103 440.178 144.58 440.178 Q148.584 440.178 150.922 438.072 Q153.26 435.965 153.26 432.354 Q153.26 428.743 150.922 426.637 Q148.584 424.53 144.58 424.53 Q142.705 424.53 140.83 424.947 Q138.978 425.364 137.033 426.243 L137.033 408.882 Z" fill="#000000" fill-rule="evenodd" fill-opacity="1" /><path clip-path="url(#clip160)" d="M91.5706 98.8233 L99.2095 98.8233 L99.2095 72.4577 L90.8993 74.1244 L90.8993 69.8651 L99.1632 68.1985 L103.839 68.1985 L103.839 98.8233 L111.478 98.8233 L111.478 102.758 L91.5706 102.758 L91.5706 98.8233 Z" fill="#000000" fill-rule="evenodd" fill-opacity="1" /><path clip-path="url(#clip160)" d="M120.922 96.8789 L125.807 96.8789 L125.807 102.758 L120.922 102.758 L120.922 96.8789 Z" fill="#000000" fill-rule="evenodd" fill-opacity="1" /><path clip-path="url(#clip160)" d="M145.992 71.2772 Q142.381 71.2772 140.552 74.8419 Q138.746 78.3836 138.746 85.5132 Q138.746 92.6196 140.552 96.1844 Q142.381 99.7261 145.992 99.7261 Q149.626 99.7261 151.431 96.1844 Q153.26 92.6196 153.26 85.5132 Q153.26 78.3836 151.431 74.8419 Q149.626 71.2772 145.992 71.2772 M145.992 67.5735 Q151.802 67.5735 154.857 72.1799 Q157.936 76.7632 157.936 85.5132 Q157.936 94.24 154.857 98.8465 Q151.802 103.43 145.992 103.43 Q140.181 103.43 137.103 98.8465 Q134.047 94.24 134.047 85.5132 Q134.047 76.7632 137.103 72.1799 Q140.181 67.5735 145.992 67.5735 Z" fill="#000000" fill-rule="evenodd" fill-opacity="1" /><circle clip-path="url(#clip162)" cx="1633.15" cy="234.149" r="14" fill="#009af9" fill-rule="evenodd" fill-opacity="1" stroke="#000000" stroke-opacity="1" stroke-width="3.2"/>
<path clip-path="url(#clip162)" d="M928.065 1258.25 L928.065 1290.25 L960.065 1290.25 L960.065 1258.25 L928.065 1258.25 Z" fill="#e26f46" fill-rule="evenodd" fill-opacity="1" stroke="#000000" stroke-opacity="1" stroke-width="3.2"/>
<path clip-path="url(#clip162)" d="M1516.95 334.368 L1513.19 345.184 L1501.73 345.424 L1510.87 352.352 L1507.54 363.312 L1516.95 356.768 L1526.36 363.312 L1523.03 352.352 L1532.16 345.424 L1520.71 345.184 L1516.95 334.368 Z" fill="#3da44d" fill-rule="evenodd" fill-opacity="1" stroke="#000000" stroke-opacity="1" stroke-width="3.2"/>
<path clip-path="url(#clip162)" d="M1182.57 927.246 L1166.57 943.246 L1182.57 959.246 L1198.57 943.246 L1182.57 927.246 Z" fill="#c271d2" fill-rule="evenodd" fill-opacity="1" stroke="#000000" stroke-opacity="1" stroke-width="3.2"/>
<path clip-path="url(#clip162)" d="M1277.65 774.281 L1263.8 766.281 L1263.8 750.281 L1277.65 742.281 L1291.51 750.281 L1291.51 766.281 Z" fill="#ac8d18" fill-rule="evenodd" fill-opacity="1" stroke="#000000" stroke-opacity="1" stroke-width="3.2"/>
<line clip-path="url(#clip162)" x1="1273.35" y1="766.847" x2="1273.35" y2="750.847" style="stroke:#00a9ad; stroke-width:3.2; stroke-opacity:1"/>
<line clip-path="url(#clip162)" x1="1273.35" y1="766.847" x2="1257.35" y2="766.847" style="stroke:#00a9ad; stroke-width:3.2; stroke-opacity:1"/>
<line clip-path="url(#clip162)" x1="1273.35" y1="766.847" x2="1273.35" y2="782.847" style="stroke:#00a9ad; stroke-width:3.2; stroke-opacity:1"/>
<line clip-path="url(#clip162)" x1="1273.35" y1="766.847" x2="1289.35" y2="766.847" style="stroke:#00a9ad; stroke-width:3.2; stroke-opacity:1"/>
<line clip-path="url(#clip162)" x1="1273.35" y1="766.846" x2="1257.35" y2="750.846" style="stroke:#ed5d92; stroke-width:3.2; stroke-opacity:1"/>
<line clip-path="url(#clip162)" x1="1273.35" y1="766.846" x2="1257.35" y2="782.846" style="stroke:#ed5d92; stroke-width:3.2; stroke-opacity:1"/>
<line clip-path="url(#clip162)" x1="1273.35" y1="766.846" x2="1289.35" y2="782.846" style="stroke:#ed5d92; stroke-width:3.2; stroke-opacity:1"/>
<line clip-path="url(#clip162)" x1="1273.35" y1="766.846" x2="1289.35" y2="750.846" style="stroke:#ed5d92; stroke-width:3.2; stroke-opacity:1"/>
<path clip-path="url(#clip162)" d="M1273.35 750.846 L1257.35 782.846 L1289.35 782.846 L1273.35 750.846 Z" fill="#c68125" fill-rule="evenodd" fill-opacity="1" stroke="#000000" stroke-opacity="1" stroke-width="3.2"/>
<path clip-path="url(#clip162)" d="M1289.35 750.846 L1257.35 750.846 L1273.35 782.846 L1289.35 750.846 Z" fill="#00a98d" fill-rule="evenodd" fill-opacity="1" stroke="#000000" stroke-opacity="1" stroke-width="3.2"/>
<path clip-path="url(#clip162)" d="M1286.15 766.846 L1266.95 755.646 L1266.95 778.046 L1286.15 766.846 Z" fill="#8e971d" fill-rule="evenodd" fill-opacity="1" stroke="#000000" stroke-opacity="1" stroke-width="3.2"/>
<path clip-path="url(#clip162)" d="M1260.55 766.846 L1279.75 778.046 L1279.75 755.646 L1260.55 766.846 Z" fill="#00a8cb" fill-rule="evenodd" fill-opacity="1" stroke="#000000" stroke-opacity="1" stroke-width="3.2"/>
<polyline clip-path="url(#clip162)" style="stroke:#9b7fe8; stroke-linecap:butt; stroke-linejoin:round; stroke-width:4; stroke-opacity:1; fill:none" points="
  193.936,1445.72 215.019,1445.39 409.958,1439.44 527.109,1430.94 626.158,1417.73 733.753,1392.18 832.946,1351.37 886.119,1319.45 939.292,1278.44 1000.9,1217.42 
  1062.5,1140.13 1117.25,1057.4 1172,962.685 1220.01,872.052 1268.02,777.438 1320.36,673.942 1372.7,574.637 1425.36,482.965 1478.01,402.243 1536.23,327.177 
  1594.44,266.816 1649.83,221.732 1705.23,186.895 1762.82,159.516 1820.41,139.213 1868.89,126.367 1917.38,116.52 2035.76,101.212 2147.04,93.7419 2325.32,88.4091 
  2352.76,87.9763 
  "/>
<path clip-path="url(#clip160)" d="
M1957.11 1438.47 L2280.8 1438.47 L2280.8 764.554 L1957.11 764.554  Z
  " fill="#ffffff" fill-rule="evenodd" fill-opacity="1"/>
<polyline clip-path="url(#clip160)" style="stroke:#000000; stroke-linecap:butt; stroke-linejoin:round; stroke-width:4; stroke-opacity:1; fill:none" points="
  1957.11,1438.47 2280.8,1438.47 2280.8,764.554 1957.11,764.554 1957.11,1438.47 
  "/>
<polyline clip-path="url(#clip160)" style="stroke:#009af9; stroke-linecap:butt; stroke-linejoin:round; stroke-width:4; stroke-opacity:1; fill:none" points="
  1981.09,816.394 2125.02,816.394 
  "/>
<circle clip-path="url(#clip160)" cx="2053.05" cy="816.394" r="23" fill="#009af9" fill-rule="evenodd" fill-opacity="1" stroke="#000000" stroke-opacity="1" stroke-width="5.12"/>
<path clip-path="url(#clip160)" d="M2162.84 836.082 Q2161.04 840.711 2159.33 842.123 Q2157.61 843.535 2154.74 843.535 L2151.34 843.535 L2151.34 839.971 L2153.84 839.971 Q2155.6 839.971 2156.57 839.137 Q2157.54 838.304 2158.72 835.202 L2159.49 833.258 L2149 807.749 L2153.52 807.749 L2161.62 828.026 L2169.72 807.749 L2174.23 807.749 L2162.84 836.082 Z" fill="#000000" fill-rule="evenodd" fill-opacity="1" /><path clip-path="url(#clip160)" d="M2181.53 829.739 L2189.16 829.739 L2189.16 803.374 L2180.85 805.04 L2180.85 800.781 L2189.12 799.114 L2193.79 799.114 L2193.79 829.739 L2201.43 829.739 L2201.43 833.674 L2181.53 833.674 L2181.53 829.739 Z" fill="#000000" fill-rule="evenodd" fill-opacity="1" /><polyline clip-path="url(#clip160)" style="stroke:#e26f46; stroke-linecap:butt; stroke-linejoin:round; stroke-width:4; stroke-opacity:1; fill:none" points="
  1981.09,868.234 2125.02,868.234 
  "/>
<path clip-path="url(#clip160)" d="M2027.45 842.634 L2027.45 893.834 L2078.65 893.834 L2078.65 842.634 L2027.45 842.634 Z" fill="#e26f46" fill-rule="evenodd" fill-opacity="1" stroke="#000000" stroke-opacity="1" stroke-width="5.12"/>
<path clip-path="url(#clip160)" d="M2162.84 887.922 Q2161.04 892.551 2159.33 893.963 Q2157.61 895.375 2154.74 895.375 L2151.34 895.375 L2151.34 891.811 L2153.84 891.811 Q2155.6 891.811 2156.57 890.977 Q2157.54 890.144 2158.72 887.042 L2159.49 885.098 L2149 859.589 L2153.52 859.589 L2161.62 879.866 L2169.72 859.589 L2174.23 859.589 L2162.84 887.922 Z" fill="#000000" fill-rule="evenodd" fill-opacity="1" /><path clip-path="url(#clip160)" d="M2184.74 881.579 L2201.06 881.579 L2201.06 885.514 L2179.12 885.514 L2179.12 881.579 Q2181.78 878.825 2186.36 874.195 Q2190.97 869.542 2192.15 868.2 Q2194.4 865.677 2195.28 863.94 Q2196.18 862.181 2196.18 860.491 Q2196.18 857.737 2194.23 856.001 Q2192.31 854.265 2189.21 854.265 Q2187.01 854.265 2184.56 855.028 Q2182.13 855.792 2179.35 857.343 L2179.35 852.621 Q2182.17 851.487 2184.63 850.908 Q2187.08 850.329 2189.12 850.329 Q2194.49 850.329 2197.68 853.015 Q2200.88 855.7 2200.88 860.19 Q2200.88 862.32 2200.07 864.241 Q2199.28 866.14 2197.17 868.732 Q2196.59 869.403 2193.49 872.621 Q2190.39 875.815 2184.74 881.579 Z" fill="#000000" fill-rule="evenodd" fill-opacity="1" /><polyline clip-path="url(#clip160)" style="stroke:#3da44d; stroke-linecap:butt; stroke-linejoin:round; stroke-width:4; stroke-opacity:1; fill:none" points="
  1981.09,920.074 2125.02,920.074 
  "/>
<path clip-path="url(#clip160)" d="M2053.05 894.474 L2047.04 911.78 L2028.71 912.164 L2043.33 923.249 L2038 940.785 L2053.05 930.314 L2068.11 940.785 L2062.78 923.249 L2077.4 912.164 L2059.07 911.78 L2053.05 894.474 Z" fill="#3da44d" fill-rule="evenodd" fill-opacity="1" stroke="#000000" stroke-opacity="1" stroke-width="5.12"/>
<path clip-path="url(#clip160)" d="M2162.84 939.762 Q2161.04 944.391 2159.33 945.803 Q2157.61 947.215 2154.74 947.215 L2151.34 947.215 L2151.34 943.651 L2153.84 943.651 Q2155.6 943.651 2156.57 942.817 Q2157.54 941.984 2158.72 938.882 L2159.49 936.938 L2149 911.429 L2153.52 911.429 L2161.62 931.706 L2169.72 911.429 L2174.23 911.429 L2162.84 939.762 Z" fill="#000000" fill-rule="evenodd" fill-opacity="1" /><path clip-path="url(#clip160)" d="M2194.88 918.72 Q2198.24 919.438 2200.11 921.706 Q2202.01 923.975 2202.01 927.308 Q2202.01 932.424 2198.49 935.225 Q2194.97 938.026 2188.49 938.026 Q2186.32 938.026 2184 937.586 Q2181.71 937.169 2179.26 936.313 L2179.26 931.799 Q2181.2 932.933 2183.52 933.512 Q2185.83 934.091 2188.35 934.091 Q2192.75 934.091 2195.04 932.354 Q2197.36 930.618 2197.36 927.308 Q2197.36 924.253 2195.21 922.54 Q2193.08 920.804 2189.26 920.804 L2185.23 920.804 L2185.23 916.961 L2189.44 916.961 Q2192.89 916.961 2194.72 915.595 Q2196.55 914.206 2196.55 911.614 Q2196.55 908.952 2194.65 907.54 Q2192.78 906.105 2189.26 906.105 Q2187.34 906.105 2185.14 906.521 Q2182.94 906.938 2180.3 907.818 L2180.3 903.651 Q2182.96 902.91 2185.28 902.54 Q2187.61 902.169 2189.67 902.169 Q2195 902.169 2198.1 904.6 Q2201.2 907.007 2201.2 911.128 Q2201.2 913.998 2199.56 915.989 Q2197.91 917.956 2194.88 918.72 Z" fill="#000000" fill-rule="evenodd" fill-opacity="1" /><polyline clip-path="url(#clip160)" style="stroke:#c271d2; stroke-linecap:butt; stroke-linejoin:round; stroke-width:4; stroke-opacity:1; fill:none" points="
  1981.09,971.914 2125.02,971.914 
  "/>
<path clip-path="url(#clip160)" d="M2053.05 946.314 L2027.45 971.914 L2053.05 997.514 L2078.65 971.914 L2053.05 946.314 Z" fill="#c271d2" fill-rule="evenodd" fill-opacity="1" stroke="#000000" stroke-opacity="1" stroke-width="5.12"/>
<path clip-path="url(#clip160)" d="M2162.84 991.602 Q2161.04 996.231 2159.33 997.643 Q2157.61 999.055 2154.74 999.055 L2151.34 999.055 L2151.34 995.491 L2153.84 995.491 Q2155.6 995.491 2156.57 994.657 Q2157.54 993.824 2158.72 990.722 L2159.49 988.778 L2149 963.269 L2153.52 963.269 L2161.62 983.546 L2169.72 963.269 L2174.23 963.269 L2162.84 991.602 Z" fill="#000000" fill-rule="evenodd" fill-opacity="1" /><path clip-path="url(#clip160)" d="M2193.56 958.708 L2181.76 977.157 L2193.56 977.157 L2193.56 958.708 M2192.34 954.634 L2198.22 954.634 L2198.22 977.157 L2203.15 977.157 L2203.15 981.046 L2198.22 981.046 L2198.22 989.194 L2193.56 989.194 L2193.56 981.046 L2177.96 981.046 L2177.96 976.532 L2192.34 954.634 Z" fill="#000000" fill-rule="evenodd" fill-opacity="1" /><polyline clip-path="url(#clip160)" style="stroke:#ac8d18; stroke-linecap:butt; stroke-linejoin:round; stroke-width:4; stroke-opacity:1; fill:none" points="
  1981.09,1023.75 2125.02,1023.75 
  "/>
<path clip-path="url(#clip160)" d="M2053.05 1049.35 L2030.89 1036.55 L2030.89 1010.95 L2053.05 998.154 L2075.22 1010.95 L2075.22 1036.55 Z" fill="#ac8d18" fill-rule="evenodd" fill-opacity="1" stroke="#000000" stroke-opacity="1" stroke-width="5.12"/>
<path clip-path="url(#clip160)" d="M2162.84 1043.44 Q2161.04 1048.07 2159.33 1049.48 Q2157.61 1050.9 2154.74 1050.9 L2151.34 1050.9 L2151.34 1047.33 L2153.84 1047.33 Q2155.6 1047.33 2156.57 1046.5 Q2157.54 1045.66 2158.72 1042.56 L2159.49 1040.62 L2149 1015.11 L2153.52 1015.11 L2161.62 1035.39 L2169.72 1015.11 L2174.23 1015.11 L2162.84 1043.44 Z" fill="#000000" fill-rule="evenodd" fill-opacity="1" /><path clip-path="url(#clip160)" d="M2180.76 1006.47 L2199.12 1006.47 L2199.12 1010.41 L2185.04 1010.41 L2185.04 1018.88 Q2186.06 1018.53 2187.08 1018.37 Q2188.1 1018.19 2189.12 1018.19 Q2194.91 1018.19 2198.28 1021.36 Q2201.66 1024.53 2201.66 1029.95 Q2201.66 1035.53 2198.19 1038.63 Q2194.72 1041.71 2188.4 1041.71 Q2186.22 1041.71 2183.96 1041.34 Q2181.71 1040.96 2179.3 1040.22 L2179.3 1035.53 Q2181.39 1036.66 2183.61 1037.21 Q2185.83 1037.77 2188.31 1037.77 Q2192.31 1037.77 2194.65 1035.66 Q2196.99 1033.56 2196.99 1029.95 Q2196.99 1026.34 2194.65 1024.23 Q2192.31 1022.12 2188.31 1022.12 Q2186.43 1022.12 2184.56 1022.54 Q2182.71 1022.96 2180.76 1023.84 L2180.76 1006.47 Z" fill="#000000" fill-rule="evenodd" fill-opacity="1" /><polyline clip-path="url(#clip160)" style="stroke:#00a9ad; stroke-linecap:butt; stroke-linejoin:round; stroke-width:4; stroke-opacity:1; fill:none" points="
  1981.09,1075.59 2125.02,1075.59 
  "/>
<line clip-path="url(#clip160)" x1="2053.05" y1="1075.59" x2="2053.05" y2="1049.99" style="stroke:#00a9ad; stroke-width:3.2; stroke-opacity:1"/>
<line clip-path="url(#clip160)" x1="2053.05" y1="1075.59" x2="2027.45" y2="1075.59" style="stroke:#00a9ad; stroke-width:3.2; stroke-opacity:1"/>
<line clip-path="url(#clip160)" x1="2053.05" y1="1075.59" x2="2053.05" y2="1101.19" style="stroke:#00a9ad; stroke-width:3.2; stroke-opacity:1"/>
<line clip-path="url(#clip160)" x1="2053.05" y1="1075.59" x2="2078.65" y2="1075.59" style="stroke:#00a9ad; stroke-width:3.2; stroke-opacity:1"/>
<path clip-path="url(#clip160)" d="M2162.84 1095.28 Q2161.04 1099.91 2159.33 1101.32 Q2157.61 1102.74 2154.74 1102.74 L2151.34 1102.74 L2151.34 1099.17 L2153.84 1099.17 Q2155.6 1099.17 2156.57 1098.34 Q2157.54 1097.5 2158.72 1094.4 L2159.49 1092.46 L2149 1066.95 L2153.52 1066.95 L2161.62 1087.23 L2169.72 1066.95 L2174.23 1066.95 L2162.84 1095.28 Z" fill="#000000" fill-rule="evenodd" fill-opacity="1" /><path clip-path="url(#clip160)" d="M2191.29 1073.73 Q2188.15 1073.73 2186.29 1075.88 Q2184.47 1078.04 2184.47 1081.79 Q2184.47 1085.51 2186.29 1087.69 Q2188.15 1089.84 2191.29 1089.84 Q2194.44 1089.84 2196.27 1087.69 Q2198.12 1085.51 2198.12 1081.79 Q2198.12 1078.04 2196.27 1075.88 Q2194.44 1073.73 2191.29 1073.73 M2200.58 1059.08 L2200.58 1063.34 Q2198.82 1062.5 2197.01 1062.06 Q2195.23 1061.62 2193.47 1061.62 Q2188.84 1061.62 2186.39 1064.75 Q2183.96 1067.87 2183.61 1074.19 Q2184.97 1072.18 2187.03 1071.12 Q2189.09 1070.03 2191.57 1070.03 Q2196.78 1070.03 2199.79 1073.2 Q2202.82 1076.35 2202.82 1081.79 Q2202.82 1087.11 2199.67 1090.33 Q2196.53 1093.55 2191.29 1093.55 Q2185.3 1093.55 2182.13 1088.96 Q2178.96 1084.36 2178.96 1075.63 Q2178.96 1067.43 2182.84 1062.57 Q2186.73 1057.69 2193.28 1057.69 Q2195.04 1057.69 2196.83 1058.04 Q2198.63 1058.38 2200.58 1059.08 Z" fill="#000000" fill-rule="evenodd" fill-opacity="1" /><polyline clip-path="url(#clip160)" style="stroke:#ed5d92; stroke-linecap:butt; stroke-linejoin:round; stroke-width:4; stroke-opacity:1; fill:none" points="
  1981.09,1127.43 2125.02,1127.43 
  "/>
<line clip-path="url(#clip160)" x1="2053.05" y1="1127.43" x2="2027.45" y2="1101.83" style="stroke:#ed5d92; stroke-width:3.2; stroke-opacity:1"/>
<line clip-path="url(#clip160)" x1="2053.05" y1="1127.43" x2="2027.45" y2="1153.03" style="stroke:#ed5d92; stroke-width:3.2; stroke-opacity:1"/>
<line clip-path="url(#clip160)" x1="2053.05" y1="1127.43" x2="2078.65" y2="1153.03" style="stroke:#ed5d92; stroke-width:3.2; stroke-opacity:1"/>
<line clip-path="url(#clip160)" x1="2053.05" y1="1127.43" x2="2078.65" y2="1101.83" style="stroke:#ed5d92; stroke-width:3.2; stroke-opacity:1"/>
<path clip-path="url(#clip160)" d="M2162.84 1147.12 Q2161.04 1151.75 2159.33 1153.16 Q2157.61 1154.58 2154.74 1154.58 L2151.34 1154.58 L2151.34 1151.01 L2153.84 1151.01 Q2155.6 1151.01 2156.57 1150.18 Q2157.54 1149.34 2158.72 1146.24 L2159.49 1144.3 L2149 1118.79 L2153.52 1118.79 L2161.62 1139.07 L2169.72 1118.79 L2174.23 1118.79 L2162.84 1147.12 Z" fill="#000000" fill-rule="evenodd" fill-opacity="1" /><path clip-path="url(#clip160)" d="M2179.53 1110.15 L2201.76 1110.15 L2201.76 1112.15 L2189.21 1144.71 L2184.33 1144.71 L2196.13 1114.09 L2179.53 1114.09 L2179.53 1110.15 Z" fill="#000000" fill-rule="evenodd" fill-opacity="1" /><polyline clip-path="url(#clip160)" style="stroke:#c68125; stroke-linecap:butt; stroke-linejoin:round; stroke-width:4; stroke-opacity:1; fill:none" points="
  1981.09,1179.27 2125.02,1179.27 
  "/>
<path clip-path="url(#clip160)" d="M2053.05 1153.67 L2027.45 1204.87 L2078.65 1204.87 L2053.05 1153.67 Z" fill="#c68125" fill-rule="evenodd" fill-opacity="1" stroke="#000000" stroke-opacity="1" stroke-width="5.12"/>
<path clip-path="url(#clip160)" d="M2162.84 1198.96 Q2161.04 1203.59 2159.33 1205 Q2157.61 1206.42 2154.74 1206.42 L2151.34 1206.42 L2151.34 1202.85 L2153.84 1202.85 Q2155.6 1202.85 2156.57 1202.02 Q2157.54 1201.18 2158.72 1198.08 L2159.49 1196.14 L2149 1170.63 L2153.52 1170.63 L2161.62 1190.91 L2169.72 1170.63 L2174.23 1170.63 L2162.84 1198.96 Z" fill="#000000" fill-rule="evenodd" fill-opacity="1" /><path clip-path="url(#clip160)" d="M2190.72 1180.14 Q2187.38 1180.14 2185.46 1181.92 Q2183.56 1183.71 2183.56 1186.83 Q2183.56 1189.96 2185.46 1191.74 Q2187.38 1193.52 2190.72 1193.52 Q2194.05 1193.52 2195.97 1191.74 Q2197.89 1189.93 2197.89 1186.83 Q2197.89 1183.71 2195.97 1181.92 Q2194.07 1180.14 2190.72 1180.14 M2186.04 1178.15 Q2183.03 1177.41 2181.34 1175.35 Q2179.67 1173.29 2179.67 1170.33 Q2179.67 1166.18 2182.61 1163.78 Q2185.58 1161.37 2190.72 1161.37 Q2195.88 1161.37 2198.82 1163.78 Q2201.76 1166.18 2201.76 1170.33 Q2201.76 1173.29 2200.07 1175.35 Q2198.4 1177.41 2195.41 1178.15 Q2198.79 1178.94 2200.67 1181.23 Q2202.57 1183.52 2202.57 1186.83 Q2202.57 1191.86 2199.49 1194.54 Q2196.43 1197.23 2190.72 1197.23 Q2185 1197.23 2181.92 1194.54 Q2178.86 1191.86 2178.86 1186.83 Q2178.86 1183.52 2180.76 1181.23 Q2182.66 1178.94 2186.04 1178.15 M2184.33 1170.77 Q2184.33 1173.45 2185.99 1174.96 Q2187.68 1176.46 2190.72 1176.46 Q2193.72 1176.46 2195.41 1174.96 Q2197.13 1173.45 2197.13 1170.77 Q2197.13 1168.08 2195.41 1166.58 Q2193.72 1165.07 2190.72 1165.07 Q2187.68 1165.07 2185.99 1166.58 Q2184.33 1168.08 2184.33 1170.77 Z" fill="#000000" fill-rule="evenodd" fill-opacity="1" /><polyline clip-path="url(#clip160)" style="stroke:#00a98d; stroke-linecap:butt; stroke-linejoin:round; stroke-width:4; stroke-opacity:1; fill:none" points="
  1981.09,1231.11 2125.02,1231.11 
  "/>
<path clip-path="url(#clip160)" d="M2078.65 1205.51 L2027.45 1205.51 L2053.05 1256.71 L2078.65 1205.51 Z" fill="#00a98d" fill-rule="evenodd" fill-opacity="1" stroke="#000000" stroke-opacity="1" stroke-width="5.12"/>
<path clip-path="url(#clip160)" d="M2162.84 1250.8 Q2161.04 1255.43 2159.33 1256.84 Q2157.61 1258.26 2154.74 1258.26 L2151.34 1258.26 L2151.34 1254.69 L2153.84 1254.69 Q2155.6 1254.69 2156.57 1253.86 Q2157.54 1253.02 2158.72 1249.92 L2159.49 1247.98 L2149 1222.47 L2153.52 1222.47 L2161.62 1242.75 L2169.72 1222.47 L2174.23 1222.47 L2162.84 1250.8 Z" fill="#000000" fill-rule="evenodd" fill-opacity="1" /><path clip-path="url(#clip160)" d="M2180.85 1247.68 L2180.85 1243.42 Q2182.61 1244.25 2184.42 1244.69 Q2186.22 1245.13 2187.96 1245.13 Q2192.59 1245.13 2195.02 1242.03 Q2197.47 1238.9 2197.82 1232.56 Q2196.48 1234.55 2194.42 1235.62 Q2192.36 1236.68 2189.86 1236.68 Q2184.67 1236.68 2181.64 1233.56 Q2178.63 1230.41 2178.63 1224.97 Q2178.63 1219.64 2181.78 1216.43 Q2184.93 1213.21 2190.16 1213.21 Q2196.15 1213.21 2199.3 1217.82 Q2202.47 1222.4 2202.47 1231.15 Q2202.47 1239.32 2198.59 1244.2 Q2194.72 1249.07 2188.17 1249.07 Q2186.41 1249.07 2184.6 1248.72 Q2182.8 1248.37 2180.85 1247.68 M2190.16 1233.02 Q2193.31 1233.02 2195.14 1230.87 Q2196.99 1228.72 2196.99 1224.97 Q2196.99 1221.24 2195.14 1219.09 Q2193.31 1216.91 2190.16 1216.91 Q2187.01 1216.91 2185.16 1219.09 Q2183.33 1221.24 2183.33 1224.97 Q2183.33 1228.72 2185.16 1230.87 Q2187.01 1233.02 2190.16 1233.02 Z" fill="#000000" fill-rule="evenodd" fill-opacity="1" /><polyline clip-path="url(#clip160)" style="stroke:#8e971d; stroke-linecap:butt; stroke-linejoin:round; stroke-width:4; stroke-opacity:1; fill:none" points="
  1981.09,1282.95 2125.02,1282.95 
  "/>
<path clip-path="url(#clip160)" d="M2073.53 1282.95 L2042.81 1265.03 L2042.81 1300.87 L2073.53 1282.95 Z" fill="#8e971d" fill-rule="evenodd" fill-opacity="1" stroke="#000000" stroke-opacity="1" stroke-width="5.12"/>
<path clip-path="url(#clip160)" d="M2162.84 1302.64 Q2161.04 1307.27 2159.33 1308.68 Q2157.61 1310.1 2154.74 1310.1 L2151.34 1310.1 L2151.34 1306.53 L2153.84 1306.53 Q2155.6 1306.53 2156.57 1305.7 Q2157.54 1304.86 2158.72 1301.76 L2159.49 1299.82 L2149 1274.31 L2153.52 1274.31 L2161.62 1294.59 L2169.72 1274.31 L2174.23 1274.31 L2162.84 1302.64 Z" fill="#000000" fill-rule="evenodd" fill-opacity="1" /><path clip-path="url(#clip160)" d="M2181.53 1296.3 L2189.16 1296.3 L2189.16 1269.93 L2180.85 1271.6 L2180.85 1267.34 L2189.12 1265.67 L2193.79 1265.67 L2193.79 1296.3 L2201.43 1296.3 L2201.43 1300.23 L2181.53 1300.23 L2181.53 1296.3 Z" fill="#000000" fill-rule="evenodd" fill-opacity="1" /><path clip-path="url(#clip160)" d="M2220.88 1268.75 Q2217.27 1268.75 2215.44 1272.32 Q2213.63 1275.86 2213.63 1282.99 Q2213.63 1290.1 2215.44 1293.66 Q2217.27 1297.2 2220.88 1297.2 Q2224.51 1297.2 2226.32 1293.66 Q2228.15 1290.1 2228.15 1282.99 Q2228.15 1275.86 2226.32 1272.32 Q2224.51 1268.75 2220.88 1268.75 M2220.88 1265.05 Q2226.69 1265.05 2229.74 1269.66 Q2232.82 1274.24 2232.82 1282.99 Q2232.82 1291.72 2229.74 1296.32 Q2226.69 1300.91 2220.88 1300.91 Q2215.07 1300.91 2211.99 1296.32 Q2208.93 1291.72 2208.93 1282.99 Q2208.93 1274.24 2211.99 1269.66 Q2215.07 1265.05 2220.88 1265.05 Z" fill="#000000" fill-rule="evenodd" fill-opacity="1" /><polyline clip-path="url(#clip160)" style="stroke:#00a8cb; stroke-linecap:butt; stroke-linejoin:round; stroke-width:4; stroke-opacity:1; fill:none" points="
  1981.09,1334.79 2125.02,1334.79 
  "/>
<path clip-path="url(#clip160)" d="M2032.57 1334.79 L2063.29 1352.71 L2063.29 1316.87 L2032.57 1334.79 Z" fill="#00a8cb" fill-rule="evenodd" fill-opacity="1" stroke="#000000" stroke-opacity="1" stroke-width="5.12"/>
<path clip-path="url(#clip160)" d="M2162.84 1354.48 Q2161.04 1359.11 2159.33 1360.52 Q2157.61 1361.94 2154.74 1361.94 L2151.34 1361.94 L2151.34 1358.37 L2153.84 1358.37 Q2155.6 1358.37 2156.57 1357.54 Q2157.54 1356.7 2158.72 1353.6 L2159.49 1351.66 L2149 1326.15 L2153.52 1326.15 L2161.62 1346.43 L2169.72 1326.15 L2174.23 1326.15 L2162.84 1354.48 Z" fill="#000000" fill-rule="evenodd" fill-opacity="1" /><path clip-path="url(#clip160)" d="M2181.53 1348.14 L2189.16 1348.14 L2189.16 1321.77 L2180.85 1323.44 L2180.85 1319.18 L2189.12 1317.51 L2193.79 1317.51 L2193.79 1348.14 L2201.43 1348.14 L2201.43 1352.07 L2181.53 1352.07 L2181.53 1348.14 Z" fill="#000000" fill-rule="evenodd" fill-opacity="1" /><path clip-path="url(#clip160)" d="M2211.69 1348.14 L2219.33 1348.14 L2219.33 1321.77 L2211.02 1323.44 L2211.02 1319.18 L2219.28 1317.51 L2223.96 1317.51 L2223.96 1348.14 L2231.59 1348.14 L2231.59 1352.07 L2211.69 1352.07 L2211.69 1348.14 Z" fill="#000000" fill-rule="evenodd" fill-opacity="1" /><polyline clip-path="url(#clip160)" style="stroke:#9b7fe8; stroke-linecap:butt; stroke-linejoin:round; stroke-width:4; stroke-opacity:1; fill:none" points="
  1981.09,1386.63 2125.02,1386.63 
  "/>
<path clip-path="url(#clip160)" d="M2162.84 1406.32 Q2161.04 1410.95 2159.33 1412.36 Q2157.61 1413.78 2154.74 1413.78 L2151.34 1413.78 L2151.34 1410.21 L2153.84 1410.21 Q2155.6 1410.21 2156.57 1409.38 Q2157.54 1408.54 2158.72 1405.44 L2159.49 1403.5 L2149 1377.99 L2153.52 1377.99 L2161.62 1398.27 L2169.72 1377.99 L2174.23 1377.99 L2162.84 1406.32 Z" fill="#000000" fill-rule="evenodd" fill-opacity="1" /><path clip-path="url(#clip160)" d="M2181.53 1399.98 L2189.16 1399.98 L2189.16 1373.61 L2180.85 1375.28 L2180.85 1371.02 L2189.12 1369.35 L2193.79 1369.35 L2193.79 1399.98 L2201.43 1399.98 L2201.43 1403.91 L2181.53 1403.91 L2181.53 1399.98 Z" fill="#000000" fill-rule="evenodd" fill-opacity="1" /><path clip-path="url(#clip160)" d="M2214.9 1399.98 L2231.22 1399.98 L2231.22 1403.91 L2209.28 1403.91 L2209.28 1399.98 Q2211.94 1397.22 2216.53 1392.6 Q2221.13 1387.94 2222.31 1386.6 Q2224.56 1384.08 2225.44 1382.34 Q2226.34 1380.58 2226.34 1378.89 Q2226.34 1376.14 2224.4 1374.4 Q2222.47 1372.66 2219.37 1372.66 Q2217.17 1372.66 2214.72 1373.43 Q2212.29 1374.19 2209.51 1375.74 L2209.51 1371.02 Q2212.34 1369.89 2214.79 1369.31 Q2217.24 1368.73 2219.28 1368.73 Q2224.65 1368.73 2227.84 1371.41 Q2231.04 1374.1 2231.04 1378.59 Q2231.04 1380.72 2230.23 1382.64 Q2229.44 1384.54 2227.34 1387.13 Q2226.76 1387.8 2223.65 1391.02 Q2220.55 1394.22 2214.9 1399.98 Z" fill="#000000" fill-rule="evenodd" fill-opacity="1" /></svg>
