<?xml version="1.0" encoding="utf-8"?>
<svg xmlns="http://www.w3.org/2000/svg" xmlns:xlink="http://www.w3.org/1999/xlink" width="600" height="400" viewBox="0 0 2400 1600">
<defs>
  <clipPath id="clip760">
    <rect x="0" y="0" width="2400" height="1600"/>
  </clipPath>
</defs>
<path clip-path="url(#clip760)" d="
M0 1600 L2400 1600 L2400 0 L0 0  Z
  " fill="#ffffff" fill-rule="evenodd" fill-opacity="1"/>
<defs>
  <clipPath id="clip761">
    <rect x="480" y="0" width="1681" height="1600"/>
  </clipPath>
</defs>
<defs>
  <clipPath id="clip762">
    <rect x="193" y="47" width="2160" height="1440"/>
  </clipPath>
</defs>
<path clip-path="url(#clip760)" d="
M213.607 1474.16 L2352.76 1474.16 L2352.76 47.2441 L213.607 47.2441  Z
  " fill="#ffffff" fill-rule="evenodd" fill-opacity="1"/>
<defs>
  <clipPath id="clip763">
    <rect x="213" y="47" width="2140" height="1428"/>
  </clipPath>
</defs>
<polyline clip-path="url(#clip763)" style="stroke:#000000; stroke-linecap:butt; stroke-linejoin:round; stroke-width:2; stroke-opacity:0.1; fill:none" points="
  665.119,1474.16 665.119,47.2441 
  "/>
<polyline clip-path="url(#clip763)" style="stroke:#000000; stroke-linecap:butt; stroke-linejoin:round; stroke-width:2; stroke-opacity:0.1; fill:none" points="
  1622.81,1474.16 1622.81,47.2441 
  "/>
<polyline clip-path="url(#clip760)" style="stroke:#000000; stroke-linecap:butt; stroke-linejoin:round; stroke-width:4; stroke-opacity:1; fill:none" points="
  213.607,1474.16 2352.76,1474.16 
  "/>
<polyline clip-path="url(#clip760)" style="stroke:#000000; stroke-linecap:butt; stroke-linejoin:round; stroke-width:4; stroke-opacity:1; fill:none" points="
  665.119,1474.16 665.119,1455.27 
  "/>
<polyline clip-path="url(#clip760)" style="stroke:#000000; stroke-linecap:butt; stroke-linejoin:round; stroke-width:4; stroke-opacity:1; fill:none" points="
  1622.81,1474.16 1622.81,1455.27 
  "/>
<path clip-path="url(#clip760)" d="M615.385 1552.44 L623.023 1552.44 L623.023 1526.07 L614.713 1527.74 L614.713 1523.48 L622.977 1521.81 L627.653 1521.81 L627.653 1552.44 L635.292 1552.44 L635.292 1556.37 L615.385 1556.37 L615.385 1552.44 Z" fill="#000000" fill-rule="evenodd" fill-opacity="1" /><path clip-path="url(#clip760)" d="M654.736 1524.89 Q651.125 1524.89 649.296 1528.46 Q647.491 1532 647.491 1539.13 Q647.491 1546.23 649.296 1549.8 Q651.125 1553.34 654.736 1553.34 Q658.37 1553.34 660.176 1549.8 Q662.005 1546.23 662.005 1539.13 Q662.005 1532 660.176 1528.46 Q658.37 1524.89 654.736 1524.89 M654.736 1521.19 Q660.546 1521.19 663.602 1525.79 Q666.681 1530.38 666.681 1539.13 Q666.681 1547.85 663.602 1552.46 Q660.546 1557.04 654.736 1557.04 Q648.926 1557.04 645.847 1552.46 Q642.792 1547.85 642.792 1539.13 Q642.792 1530.38 645.847 1525.79 Q648.926 1521.19 654.736 1521.19 Z" fill="#000000" fill-rule="evenodd" fill-opacity="1" /><path clip-path="url(#clip760)" d="M666.681 1515.29 L690.792 1515.29 L690.792 1518.49 L666.681 1518.49 L666.681 1515.29 Z" fill="#000000" fill-rule="evenodd" fill-opacity="1" /><path clip-path="url(#clip760)" d="M702.265 1525.76 L715.524 1525.76 L715.524 1528.96 L697.695 1528.96 L697.695 1525.76 Q699.857 1523.53 703.581 1519.76 Q707.324 1515.98 708.283 1514.89 Q710.108 1512.84 710.822 1511.43 Q711.556 1510 711.556 1508.63 Q711.556 1506.39 709.976 1504.98 Q708.415 1503.57 705.895 1503.57 Q704.108 1503.57 702.114 1504.19 Q700.14 1504.81 697.883 1506.07 L697.883 1502.24 Q700.177 1501.31 702.171 1500.84 Q704.164 1500.37 705.82 1500.37 Q710.183 1500.37 712.778 1502.56 Q715.374 1504.74 715.374 1508.39 Q715.374 1510.12 714.716 1511.68 Q714.076 1513.22 712.365 1515.33 Q711.894 1515.87 709.374 1518.49 Q706.854 1521.08 702.265 1525.76 Z" fill="#000000" fill-rule="evenodd" fill-opacity="1" /><path clip-path="url(#clip760)" d="M1572.93 1552.44 L1580.57 1552.44 L1580.57 1526.07 L1572.26 1527.74 L1572.26 1523.48 L1580.52 1521.81 L1585.2 1521.81 L1585.2 1552.44 L1592.84 1552.44 L1592.84 1556.37 L1572.93 1556.37 L1572.93 1552.44 Z" fill="#000000" fill-rule="evenodd" fill-opacity="1" /><path clip-path="url(#clip760)" d="M1612.28 1524.89 Q1608.67 1524.89 1606.84 1528.46 Q1605.04 1532 1605.04 1539.13 Q1605.04 1546.23 1606.84 1549.8 Q1608.67 1553.34 1612.28 1553.34 Q1615.92 1553.34 1617.72 1549.8 Q1619.55 1546.23 1619.55 1539.13 Q1619.55 1532 1617.72 1528.46 Q1615.92 1524.89 1612.28 1524.89 M1612.28 1521.19 Q1618.09 1521.19 1621.15 1525.79 Q1624.23 1530.38 1624.23 1539.13 Q1624.23 1547.85 1621.15 1552.46 Q1618.09 1557.04 1612.28 1557.04 Q1606.47 1557.04 1603.39 1552.46 Q1600.34 1547.85 1600.34 1539.13 Q1600.34 1530.38 1603.39 1525.79 Q1606.47 1521.19 1612.28 1521.19 Z" fill="#000000" fill-rule="evenodd" fill-opacity="1" /><path clip-path="url(#clip760)" d="M1624.23 1515.29 L1648.34 1515.29 L1648.34 1518.49 L1624.23 1518.49 L1624.23 1515.29 Z" fill="#000000" fill-rule="evenodd" fill-opacity="1" /><path clip-path="url(#clip760)" d="M1657.2 1525.76 L1663.4 1525.76 L1663.4 1504.34 L1656.65 1505.7 L1656.65 1502.24 L1663.36 1500.88 L1667.16 1500.88 L1667.16 1525.76 L1673.37 1525.76 L1673.37 1528.96 L1657.2 1528.96 L1657.2 1525.76 Z" fill="#000000" fill-rule="evenodd" fill-opacity="1" /><polyline clip-path="url(#clip763)" style="stroke:#000000; stroke-linecap:butt; stroke-linejoin:round; stroke-width:2; stroke-opacity:0.1; fill:none" points="
  213.607,1281.72 2352.76,1281.72 
  "/>
<polyline clip-path="url(#clip763)" style="stroke:#000000; stroke-linecap:butt; stroke-linejoin:round; stroke-width:2; stroke-opacity:0.1; fill:none" points="
  213.607,666.145 2352.76,666.145 
  "/>
<polyline clip-path="url(#clip763)" style="stroke:#000000; stroke-linecap:butt; stroke-linejoin:round; stroke-width:2; stroke-opacity:0.1; fill:none" points="
  213.607,50.5672 2352.76,50.5672 
  "/>
<polyline clip-path="url(#clip760)" style="stroke:#000000; stroke-linecap:butt; stroke-linejoin:round; stroke-width:4; stroke-opacity:1; fill:none" points="
  213.607,1474.16 213.607,47.2441 
  "/>
<polyline clip-path="url(#clip760)" style="stroke:#000000; stroke-linecap:butt; stroke-linejoin:round; stroke-width:4; stroke-opacity:1; fill:none" points="
  213.607,1281.72 232.505,1281.72 
  "/>
<polyline clip-path="url(#clip760)" style="stroke:#000000; stroke-linecap:butt; stroke-linejoin:round; stroke-width:4; stroke-opacity:1; fill:none" points="
  213.607,666.145 232.505,666.145 
  "/>
<polyline clip-path="url(#clip760)" style="stroke:#000000; stroke-linecap:butt; stroke-linejoin:round; stroke-width:4; stroke-opacity:1; fill:none" points="
  213.607,50.5672 232.505,50.5672 
  "/>
<path clip-path="url(#clip760)" d="M51.6634 1301.51 L59.3023 1301.51 L59.3023 1275.15 L50.9921 1276.82 L50.9921 1272.56 L59.256 1270.89 L63.9319 1270.89 L63.9319 1301.51 L71.5707 1301.51 L71.5707 1305.45 L51.6634 1305.45 L51.6634 1301.51 Z" fill="#000000" fill-rule="evenodd" fill-opacity="1" /><path clip-path="url(#clip760)" d="M91.0151 1273.97 Q87.404 1273.97 85.5753 1277.53 Q83.7697 1281.08 83.7697 1288.2 Q83.7697 1295.31 85.5753 1298.88 Q87.404 1302.42 91.0151 1302.42 Q94.6493 1302.42 96.4548 1298.88 Q98.2835 1295.31 98.2835 1288.2 Q98.2835 1281.08 96.4548 1277.53 Q94.6493 1273.97 91.0151 1273.97 M91.0151 1270.27 Q96.8252 1270.27 99.8808 1274.87 Q102.959 1279.45 102.959 1288.2 Q102.959 1296.93 99.8808 1301.54 Q96.8252 1306.12 91.0151 1306.12 Q85.2049 1306.12 82.1262 1301.54 Q79.0707 1296.93 79.0707 1288.2 Q79.0707 1279.45 82.1262 1274.87 Q85.2049 1270.27 91.0151 1270.27 Z" fill="#000000" fill-rule="evenodd" fill-opacity="1" /><path clip-path="url(#clip760)" d="M102.959 1264.37 L127.071 1264.37 L127.071 1267.56 L102.959 1267.56 L102.959 1264.37 Z" fill="#000000" fill-rule="evenodd" fill-opacity="1" /><path clip-path="url(#clip760)" d="M135.929 1274.84 L142.136 1274.84 L142.136 1253.42 L135.384 1254.77 L135.384 1251.31 L142.098 1249.96 L145.898 1249.96 L145.898 1274.84 L152.104 1274.84 L152.104 1278.04 L135.929 1278.04 L135.929 1274.84 Z" fill="#000000" fill-rule="evenodd" fill-opacity="1" /><path clip-path="url(#clip760)" d="M167.903 1252.46 Q164.969 1252.46 163.483 1255.36 Q162.016 1258.24 162.016 1264.03 Q162.016 1269.8 163.483 1272.7 Q164.969 1275.58 167.903 1275.58 Q170.855 1275.58 172.322 1272.7 Q173.808 1269.8 173.808 1264.03 Q173.808 1258.24 172.322 1255.36 Q170.855 1252.46 167.903 1252.46 M167.903 1249.45 Q172.623 1249.45 175.106 1253.19 Q177.607 1256.92 177.607 1264.03 Q177.607 1271.12 175.106 1274.86 Q172.623 1278.59 167.903 1278.59 Q163.182 1278.59 160.68 1274.86 Q158.198 1271.12 158.198 1264.03 Q158.198 1256.92 160.68 1253.19 Q163.182 1249.45 167.903 1249.45 Z" fill="#000000" fill-rule="evenodd" fill-opacity="1" /><path clip-path="url(#clip760)" d="M76.9787 685.937 L84.6175 685.937 L84.6175 659.572 L76.3074 661.238 L76.3074 656.979 L84.5712 655.312 L89.2471 655.312 L89.2471 685.937 L96.886 685.937 L96.886 689.872 L76.9787 689.872 L76.9787 685.937 Z" fill="#000000" fill-rule="evenodd" fill-opacity="1" /><path clip-path="url(#clip760)" d="M116.33 658.391 Q112.719 658.391 110.891 661.956 Q109.085 665.498 109.085 672.627 Q109.085 679.734 110.891 683.298 Q112.719 686.84 116.33 686.84 Q119.965 686.84 121.77 683.298 Q123.599 679.734 123.599 672.627 Q123.599 665.498 121.77 661.956 Q119.965 658.391 116.33 658.391 M116.33 654.687 Q122.14 654.687 125.196 659.294 Q128.275 663.877 128.275 672.627 Q128.275 681.354 125.196 685.96 Q122.14 690.544 116.33 690.544 Q110.52 690.544 107.441 685.96 Q104.386 681.354 104.386 672.627 Q104.386 663.877 107.441 659.294 Q110.52 654.687 116.33 654.687 Z" fill="#000000" fill-rule="evenodd" fill-opacity="1" /><path clip-path="url(#clip760)" d="M128.275 648.789 L152.386 648.789 L152.386 651.986 L128.275 651.986 L128.275 648.789 Z" fill="#000000" fill-rule="evenodd" fill-opacity="1" /><path clip-path="url(#clip760)" d="M160.624 634.382 L175.539 634.382 L175.539 637.579 L164.103 637.579 L164.103 644.463 Q164.931 644.181 165.759 644.049 Q166.586 643.899 167.414 643.899 Q172.116 643.899 174.862 646.475 Q177.607 649.052 177.607 653.453 Q177.607 657.986 174.786 660.506 Q171.965 663.007 166.831 663.007 Q165.063 663.007 163.22 662.707 Q161.395 662.406 159.439 661.804 L159.439 657.986 Q161.132 658.907 162.937 659.359 Q164.743 659.81 166.755 659.81 Q170.009 659.81 171.909 658.099 Q173.808 656.387 173.808 653.453 Q173.808 650.519 171.909 648.808 Q170.009 647.096 166.755 647.096 Q165.232 647.096 163.709 647.435 Q162.204 647.773 160.624 648.488 L160.624 634.382 Z" fill="#000000" fill-rule="evenodd" fill-opacity="1" /><path clip-path="url(#clip760)" d="M106.902 70.3596 L114.541 70.3596 L114.541 43.994 L106.231 45.6607 L106.231 41.4014 L114.494 39.7348 L119.17 39.7348 L119.17 70.3596 L126.809 70.3596 L126.809 74.2948 L106.902 74.2948 L106.902 70.3596 Z" fill="#000000" fill-rule="evenodd" fill-opacity="1" /><path clip-path="url(#clip760)" d="M146.253 42.8135 Q142.642 42.8135 140.814 46.3783 Q139.008 49.9199 139.008 57.0495 Q139.008 64.1559 140.814 67.7207 Q142.642 71.2624 146.253 71.2624 Q149.888 71.2624 151.693 67.7207 Q153.522 64.1559 153.522 57.0495 Q153.522 49.9199 151.693 46.3783 Q149.888 42.8135 146.253 42.8135 M146.253 39.1098 Q152.064 39.1098 155.119 43.7162 Q158.198 48.2995 158.198 57.0495 Q158.198 65.7763 155.119 70.3828 Q152.064 74.9661 146.253 74.9661 Q140.443 74.9661 137.365 70.3828 Q134.309 65.7763 134.309 57.0495 Q134.309 48.2995 137.365 43.7162 Q140.443 39.1098 146.253 39.1098 Z" fill="#000000" fill-rule="evenodd" fill-opacity="1" /><path clip-path="url(#clip760)" d="M167.903 21.3058 Q164.969 21.3058 163.483 24.2022 Q162.016 27.0798 162.016 32.8726 Q162.016 38.6466 163.483 41.543 Q164.969 44.4206 167.903 44.4206 Q170.855 44.4206 172.322 41.543 Q173.808 38.6466 173.808 32.8726 Q173.808 27.0798 172.322 24.2022 Q170.855 21.3058 167.903 21.3058 M167.903 18.2966 Q172.623 18.2966 175.106 22.0393 Q177.607 25.7632 177.607 32.8726 Q177.607 39.9631 175.106 43.7059 Q172.623 47.4298 167.903 47.4298 Q163.182 47.4298 160.68 43.7059 Q158.198 39.9631 158.198 32.8726 Q158.198 25.7632 160.68 22.0393 Q163.182 18.2966 167.903 18.2966 Z" fill="#000000" fill-rule="evenodd" fill-opacity="1" /><polyline clip-path="url(#clip763)" style="stroke:#009af9; stroke-linecap:butt; stroke-linejoin:round; stroke-width:4; stroke-opacity:1; fill:none" points="
  2292.21,160.99 2003.92,235.796 1715.62,309.994 1427.33,384.122 1139.03,458.244 850.739,532.366 562.444,606.489 274.149,680.612 
  "/>
<circle clip-path="url(#clip763)" cx="2292.21" cy="160.99" r="14" fill="#009af9" fill-rule="evenodd" fill-opacity="1" stroke="#000000" stroke-opacity="1" stroke-width="3.2"/>
<circle clip-path="url(#clip763)" cx="2003.92" cy="235.796" r="14" fill="#009af9" fill-rule="evenodd" fill-opacity="1" stroke="#000000" stroke-opacity="1" stroke-width="3.2"/>
<circle clip-path="url(#clip763)" cx="1715.62" cy="309.994" r="14" fill="#009af9" fill-rule="evenodd" fill-opacity="1" stroke="#000000" stroke-opacity="1" stroke-width="3.2"/>
<circle clip-path="url(#clip763)" cx="1427.33" cy="384.122" r="14" fill="#009af9" fill-rule="evenodd" fill-opacity="1" stroke="#000000" stroke-opacity="1" stroke-width="3.2"/>
<circle clip-path="url(#clip763)" cx="1139.03" cy="458.244" r="14" fill="#009af9" fill-rule="evenodd" fill-opacity="1" stroke="#000000" stroke-opacity="1" stroke-width="3.2"/>
<circle clip-path="url(#clip763)" cx="850.739" cy="532.366" r="14" fill="#009af9" fill-rule="evenodd" fill-opacity="1" stroke="#000000" stroke-opacity="1" stroke-width="3.2"/>
<circle clip-path="url(#clip763)" cx="562.444" cy="606.489" r="14" fill="#009af9" fill-rule="evenodd" fill-opacity="1" stroke="#000000" stroke-opacity="1" stroke-width="3.2"/>
<circle clip-path="url(#clip763)" cx="274.149" cy="680.612" r="14" fill="#009af9" fill-rule="evenodd" fill-opacity="1" stroke="#000000" stroke-opacity="1" stroke-width="3.2"/>
<polyline clip-path="url(#clip763)" style="stroke:#e26f46; stroke-linecap:butt; stroke-linejoin:round; stroke-width:4; stroke-opacity:1; fill:none" points="
  2292.21,396.198 2003.92,544.331 1715.62,692.552 1427.33,840.791 1139.03,989.036 850.739,1137.28 562.444,1285.53 274.149,1433.78 
  "/>
<path clip-path="url(#clip763)" d="M2276.21 380.198 L2276.21 412.198 L2308.21 412.198 L2308.21 380.198 L2276.21 380.198 Z" fill="#e26f46" fill-rule="evenodd" fill-opacity="1" stroke="#000000" stroke-opacity="1" stroke-width="3.2"/>
<path clip-path="url(#clip763)" d="M1987.92 528.331 L1987.92 560.331 L2019.92 560.331 L2019.92 528.331 L1987.92 528.331 Z" fill="#e26f46" fill-rule="evenodd" fill-opacity="1" stroke="#000000" stroke-opacity="1" stroke-width="3.2"/>
<path clip-path="url(#clip763)" d="M1699.62 676.552 L1699.62 708.552 L1731.62 708.552 L1731.62 676.552 L1699.62 676.552 Z" fill="#e26f46" fill-rule="evenodd" fill-opacity="1" stroke="#000000" stroke-opacity="1" stroke-width="3.2"/>
<path clip-path="url(#clip763)" d="M1411.33 824.791 L1411.33 856.791 L1443.33 856.791 L1443.33 824.791 L1411.33 824.791 Z" fill="#e26f46" fill-rule="evenodd" fill-opacity="1" stroke="#000000" stroke-opacity="1" stroke-width="3.2"/>
<path clip-path="url(#clip763)" d="M1123.03 973.036 L1123.03 1005.04 L1155.03 1005.04 L1155.03 973.036 L1123.03 973.036 Z" fill="#e26f46" fill-rule="evenodd" fill-opacity="1" stroke="#000000" stroke-opacity="1" stroke-width="3.2"/>
<path clip-path="url(#clip763)" d="M834.739 1121.28 L834.739 1153.28 L866.739 1153.28 L866.739 1121.28 L834.739 1121.28 Z" fill="#e26f46" fill-rule="evenodd" fill-opacity="1" stroke="#000000" stroke-opacity="1" stroke-width="3.2"/>
<path clip-path="url(#clip763)" d="M546.444 1269.53 L546.444 1301.53 L578.444 1301.53 L578.444 1269.53 L546.444 1269.53 Z" fill="#e26f46" fill-rule="evenodd" fill-opacity="1" stroke="#000000" stroke-opacity="1" stroke-width="3.2"/>
<path clip-path="url(#clip763)" d="M258.149 1417.78 L258.149 1449.78 L290.149 1449.78 L290.149 1417.78 L258.149 1417.78 Z" fill="#e26f46" fill-rule="evenodd" fill-opacity="1" stroke="#000000" stroke-opacity="1" stroke-width="3.2"/>
<polyline clip-path="url(#clip763)" style="stroke:#3da44d; stroke-linecap:butt; stroke-linejoin:round; stroke-width:4; stroke-opacity:1; fill:none" points="
  2292.21,87.6286 2003.92,124.69 1715.62,161.752 1427.33,198.813 1139.03,235.875 850.739,272.936 562.444,309.997 274.149,347.059 
  "/>
<polyline clip-path="url(#clip763)" style="stroke:#c271d2; stroke-linecap:butt; stroke-linejoin:round; stroke-width:4; stroke-opacity:1; fill:none" points="
  2292.21,124.69 2003.92,198.813 1715.62,272.936 1427.33,347.059 1139.03,421.182 850.739,495.305 562.444,569.428 274.149,643.551 
  "/>
<polyline clip-path="url(#clip763)" style="stroke:#ac8d18; stroke-linecap:butt; stroke-linejoin:round; stroke-width:4; stroke-opacity:1; fill:none" points="
  2292.21,161.752 2003.92,272.936 1715.62,384.12 1427.33,495.305 1139.03,606.489 850.739,717.674 562.444,828.858 274.149,940.042 
  "/>
<polyline clip-path="url(#clip763)" style="stroke:#00a9ad; stroke-linecap:butt; stroke-linejoin:round; stroke-width:4; stroke-opacity:1; fill:none" points="
  2292.21,198.813 2003.92,347.059 1715.62,495.305 1427.33,643.551 1139.03,791.797 850.739,940.042 562.444,1088.29 274.149,1236.53 
  "/>
<path clip-path="url(#clip760)" d="
M284.912 457.688 L633.567 457.688 L633.567 94.8081 L284.912 94.8081  Z
  " fill="#ffffff" fill-rule="evenodd" fill-opacity="1"/>
<polyline clip-path="url(#clip760)" style="stroke:#000000; stroke-linecap:butt; stroke-linejoin:round; stroke-width:4; stroke-opacity:1; fill:none" points="
  284.912,457.688 633.567,457.688 633.567,94.8081 284.912,94.8081 284.912,457.688 
  "/>
<polyline clip-path="url(#clip760)" style="stroke:#009af9; stroke-linecap:butt; stroke-linejoin:round; stroke-width:4; stroke-opacity:1; fill:none" points="
  308.681,146.648 451.291,146.648 
  "/>
<circle clip-path="url(#clip760)" cx="379.986" cy="146.648" r="23" fill="#009af9" fill-rule="evenodd" fill-opacity="1" stroke="#000000" stroke-opacity="1" stroke-width="5.12"/>
<path clip-path="url(#clip760)" d="M496.772 148.28 L496.772 163.928 L492.513 163.928 L492.513 148.419 Q492.513 144.738 491.077 142.91 Q489.642 141.081 486.772 141.081 Q483.323 141.081 481.332 143.28 Q479.341 145.479 479.341 149.275 L479.341 163.928 L475.059 163.928 L475.059 127.91 L479.341 127.91 L479.341 142.03 Q480.869 139.692 482.929 138.535 Q485.013 137.377 487.721 137.377 Q492.188 137.377 494.48 140.155 Q496.772 142.91 496.772 148.28 Z" fill="#000000" fill-rule="evenodd" fill-opacity="1" /><path clip-path="url(#clip760)" d="M527.443 149.9 L527.443 151.984 L507.86 151.984 Q508.137 156.382 510.499 158.697 Q512.883 160.988 517.119 160.988 Q519.573 160.988 521.864 160.386 Q524.179 159.785 526.448 158.581 L526.448 162.609 Q524.156 163.581 521.749 164.09 Q519.341 164.599 516.864 164.599 Q510.661 164.599 507.026 160.988 Q503.415 157.377 503.415 151.22 Q503.415 144.854 506.841 141.127 Q510.29 137.377 516.124 137.377 Q521.355 137.377 524.387 140.757 Q527.443 144.113 527.443 149.9 M523.184 148.65 Q523.137 145.155 521.216 143.072 Q519.318 140.988 516.17 140.988 Q512.605 140.988 510.452 143.002 Q508.323 145.016 507.999 148.674 L523.184 148.65 Z" fill="#000000" fill-rule="evenodd" fill-opacity="1" /><path clip-path="url(#clip760)" d="M533.994 153.697 L533.994 138.002 L538.253 138.002 L538.253 153.535 Q538.253 157.215 539.688 159.067 Q541.123 160.896 543.994 160.896 Q547.443 160.896 549.434 158.697 Q551.447 156.498 551.447 152.701 L551.447 138.002 L555.707 138.002 L555.707 163.928 L551.447 163.928 L551.447 159.947 Q549.897 162.308 547.836 163.465 Q545.799 164.599 543.091 164.599 Q538.623 164.599 536.309 161.822 Q533.994 159.044 533.994 153.697 M544.711 137.377 L544.711 137.377 Z" fill="#000000" fill-rule="evenodd" fill-opacity="1" /><path clip-path="url(#clip760)" d="M586.031 148.28 L586.031 163.928 L581.771 163.928 L581.771 148.419 Q581.771 144.738 580.336 142.91 Q578.901 141.081 576.031 141.081 Q572.582 141.081 570.591 143.28 Q568.6 145.479 568.6 149.275 L568.6 163.928 L564.318 163.928 L564.318 138.002 L568.6 138.002 L568.6 142.03 Q570.128 139.692 572.188 138.535 Q574.271 137.377 576.98 137.377 Q581.447 137.377 583.739 140.155 Q586.031 142.91 586.031 148.28 Z" fill="#000000" fill-rule="evenodd" fill-opacity="1" /><polyline clip-path="url(#clip760)" style="stroke:#e26f46; stroke-linecap:butt; stroke-linejoin:round; stroke-width:4; stroke-opacity:1; fill:none" points="
  308.681,198.488 451.291,198.488 
  "/>
<path clip-path="url(#clip760)" d="M354.386 172.888 L354.386 224.088 L405.586 224.088 L405.586 172.888 L354.386 172.888 Z" fill="#e26f46" fill-rule="evenodd" fill-opacity="1" stroke="#000000" stroke-opacity="1" stroke-width="5.12"/>
<path clip-path="url(#clip760)" d="M490.244 193.824 Q489.526 193.407 488.67 193.222 Q487.837 193.014 486.818 193.014 Q483.207 193.014 481.263 195.375 Q479.341 197.713 479.341 202.111 L479.341 215.768 L475.059 215.768 L475.059 189.842 L479.341 189.842 L479.341 193.87 Q480.684 191.509 482.837 190.375 Q484.989 189.217 488.068 189.217 Q488.508 189.217 489.04 189.287 Q489.573 189.333 490.221 189.449 L490.244 193.824 Z" fill="#000000" fill-rule="evenodd" fill-opacity="1" /><path clip-path="url(#clip760)" d="M494.55 179.75 L498.832 179.75 L498.832 201.023 L511.54 189.842 L516.98 189.842 L503.23 201.972 L517.559 215.768 L512.003 215.768 L498.832 203.106 L498.832 215.768 L494.55 215.768 L494.55 179.75 Z" fill="#000000" fill-rule="evenodd" fill-opacity="1" /><path clip-path="url(#clip760)" d="M535.614 185.282 L523.809 203.731 L535.614 203.731 L535.614 185.282 M534.387 181.208 L540.267 181.208 L540.267 203.731 L545.197 203.731 L545.197 207.62 L540.267 207.62 L540.267 215.768 L535.614 215.768 L535.614 207.62 L520.012 207.62 L520.012 203.106 L534.387 181.208 Z" fill="#000000" fill-rule="evenodd" fill-opacity="1" /><polyline clip-path="url(#clip760)" style="stroke:#3da44d; stroke-linecap:butt; stroke-linejoin:round; stroke-width:4; stroke-opacity:1; fill:none" points="
  308.681,250.328 451.291,250.328 
  "/>
<path clip-path="url(#clip760)" d="M498.599 267.428 Q498.599 267.616 498.388 268.342 Q498.177 269.068 497.662 270.192 Q497.17 271.316 496.49 272.347 Q495.811 273.354 494.687 274.104 Q493.586 274.83 492.321 274.83 Q490.635 274.83 489.511 273.705 Q488.386 272.581 488.386 270.895 Q488.386 270.661 488.41 270.426 Q488.433 270.192 488.457 270.052 Q488.48 269.888 488.55 269.63 Q488.644 269.349 488.667 269.232 Q488.714 269.115 488.831 268.763 Q488.972 268.389 489.019 268.248 Q491.993 260.659 491.993 257.497 Q491.993 254.148 489.393 254.148 Q487.075 254.148 484.779 255.834 Q483.725 256.677 482.718 258.176 Q481.711 259.675 481.524 260.238 Q481.313 261.456 481.008 262.392 Q480.868 263.048 480.188 265.601 L479.134 269.934 L478.221 273.565 Q478.034 274.08 477.518 274.455 Q477.003 274.83 476.441 274.83 Q475.972 274.83 475.504 274.502 Q475.059 274.197 475.059 273.471 Q475.059 273.096 475.246 272.417 L482.203 244.779 L482.343 243.842 Q482.343 243.561 482.226 243.42 Q482.133 243.256 481.57 243.139 Q481.032 243.022 479.954 243.022 Q479.509 243.022 479.298 242.999 Q479.111 242.975 478.947 242.858 Q478.783 242.718 478.783 242.436 Q478.783 242.038 478.947 241.827 Q479.134 241.593 479.275 241.546 Q479.416 241.5 479.697 241.476 Q480.095 241.453 481.43 241.336 Q482.765 241.195 483.913 241.101 Q485.06 241.008 485.552 241.008 Q485.833 241.008 485.974 241.148 Q486.138 241.265 486.161 241.406 L486.185 241.523 L482.437 256.771 Q485.412 253.094 489.534 253.094 Q492.204 253.094 493.633 254.476 Q495.062 255.834 495.062 258.223 Q495.062 260.964 492.134 268.763 Q491.267 270.942 491.267 272.183 Q491.267 273.003 491.525 273.378 Q491.806 273.752 492.415 273.752 Q493.352 273.752 494.172 273.214 Q495.015 272.651 495.6 271.738 Q496.186 270.801 496.584 269.864 Q497.006 268.904 497.31 267.826 Q497.498 267.241 497.591 267.1 Q497.708 266.96 498.036 266.96 Q498.599 266.96 498.599 267.428 Z" fill="#000000" fill-rule="evenodd" fill-opacity="1" /><path clip-path="url(#clip760)" d="M503.476 228.816 L503.476 227.766 Q507.509 227.766 509.591 225.619 Q510.165 225.619 510.264 225.75 Q510.362 225.881 510.362 226.488 L510.362 245.326 Q510.362 246.326 510.854 246.638 Q511.346 246.949 513.494 246.949 L514.559 246.949 L514.559 247.982 Q513.379 247.884 509.116 247.884 Q504.853 247.884 503.689 247.982 L503.689 246.949 L504.755 246.949 Q506.87 246.949 507.378 246.654 Q507.886 246.343 507.886 245.326 L507.886 227.93 Q506.132 228.816 503.476 228.816 Z" fill="#000000" fill-rule="evenodd" fill-opacity="1" /><polyline clip-path="url(#clip760)" style="stroke:#c271d2; stroke-linecap:butt; stroke-linejoin:round; stroke-width:4; stroke-opacity:1; fill:none" points="
  308.681,302.168 451.291,302.168 
  "/>
<path clip-path="url(#clip760)" d="M498.599 319.268 Q498.599 319.456 498.388 320.182 Q498.177 320.908 497.662 322.032 Q497.17 323.156 496.49 324.187 Q495.811 325.194 494.687 325.944 Q493.586 326.67 492.321 326.67 Q490.635 326.67 489.511 325.545 Q488.386 324.421 488.386 322.735 Q488.386 322.501 488.41 322.266 Q488.433 322.032 488.457 321.892 Q488.48 321.728 488.55 321.47 Q488.644 321.189 488.667 321.072 Q488.714 320.955 488.831 320.603 Q488.972 320.229 489.019 320.088 Q491.993 312.499 491.993 309.337 Q491.993 305.988 489.393 305.988 Q487.075 305.988 484.779 307.674 Q483.725 308.517 482.718 310.016 Q481.711 311.515 481.524 312.078 Q481.313 313.296 481.008 314.232 Q480.868 314.888 480.188 317.441 L479.134 321.774 L478.221 325.405 Q478.034 325.92 477.518 326.295 Q477.003 326.67 476.441 326.67 Q475.972 326.67 475.504 326.342 Q475.059 326.037 475.059 325.311 Q475.059 324.936 475.246 324.257 L482.203 296.619 L482.343 295.682 Q482.343 295.401 482.226 295.26 Q482.133 295.096 481.57 294.979 Q481.032 294.862 479.954 294.862 Q479.509 294.862 479.298 294.839 Q479.111 294.815 478.947 294.698 Q478.783 294.558 478.783 294.276 Q478.783 293.878 478.947 293.667 Q479.134 293.433 479.275 293.386 Q479.416 293.34 479.697 293.316 Q480.095 293.293 481.43 293.176 Q482.765 293.035 483.913 292.941 Q485.06 292.848 485.552 292.848 Q485.833 292.848 485.974 292.988 Q486.138 293.105 486.161 293.246 L486.185 293.363 L482.437 308.611 Q485.412 304.934 489.534 304.934 Q492.204 304.934 493.633 306.316 Q495.062 307.674 495.062 310.063 Q495.062 312.804 492.134 320.603 Q491.267 322.782 491.267 324.023 Q491.267 324.843 491.525 325.218 Q491.806 325.592 492.415 325.592 Q493.352 325.592 494.172 325.054 Q495.015 324.491 495.6 323.578 Q496.186 322.641 496.584 321.704 Q497.006 320.744 497.31 319.666 Q497.498 319.081 497.591 318.94 Q497.708 318.8 498.036 318.8 Q498.599 318.8 498.599 319.268 Z" fill="#000000" fill-rule="evenodd" fill-opacity="1" /><path clip-path="url(#clip760)" d="M503.476 299.822 Q503.476 299.216 503.525 299.035 Q503.591 298.855 503.853 298.576 L510.296 291.395 Q513.822 287.427 513.822 283.968 Q513.822 281.722 512.641 280.115 Q511.477 278.508 509.329 278.508 Q507.853 278.508 506.607 279.41 Q505.361 280.312 504.787 281.918 Q504.886 281.886 505.23 281.886 Q506.066 281.886 506.525 282.41 Q507.001 282.935 507.001 283.64 Q507.001 284.542 506.411 284.984 Q505.837 285.411 505.263 285.411 Q505.033 285.411 504.722 285.361 Q504.427 285.312 503.951 284.853 Q503.476 284.378 503.476 283.541 Q503.476 281.197 505.247 279.328 Q507.034 277.459 509.755 277.459 Q512.838 277.459 514.854 279.295 Q516.888 281.115 516.888 283.968 Q516.888 284.968 516.576 285.886 Q516.281 286.788 515.871 287.493 Q515.477 288.198 514.395 289.329 Q513.313 290.46 512.444 291.264 Q511.575 292.067 509.624 293.772 L506.066 297.232 L512.116 297.232 Q515.068 297.232 515.297 296.97 Q515.625 296.494 516.035 293.986 L516.888 293.986 L515.937 299.822 L503.476 299.822 Z" fill="#000000" fill-rule="evenodd" fill-opacity="1" /><polyline clip-path="url(#clip760)" style="stroke:#ac8d18; stroke-linecap:butt; stroke-linejoin:round; stroke-width:4; stroke-opacity:1; fill:none" points="
  308.681,354.008 451.291,354.008 
  "/>
<path clip-path="url(#clip760)" d="M498.599 371.475 Q498.599 371.662 498.388 372.388 Q498.177 373.114 497.662 374.238 Q497.17 375.363 496.49 376.393 Q495.811 377.401 494.687 378.15 Q493.586 378.876 492.321 378.876 Q490.635 378.876 489.511 377.752 Q488.386 376.628 488.386 374.941 Q488.386 374.707 488.41 374.473 Q488.433 374.238 488.457 374.098 Q488.48 373.934 488.55 373.676 Q488.644 373.395 488.667 373.278 Q488.714 373.161 488.831 372.81 Q488.972 372.435 489.019 372.294 Q491.993 364.706 491.993 361.544 Q491.993 358.194 489.393 358.194 Q487.075 358.194 484.779 359.881 Q483.725 360.724 482.718 362.223 Q481.711 363.722 481.524 364.284 Q481.313 365.502 481.008 366.439 Q480.868 367.095 480.188 369.648 L479.134 373.981 L478.221 377.611 Q478.034 378.127 477.518 378.501 Q477.003 378.876 476.441 378.876 Q475.972 378.876 475.504 378.548 Q475.059 378.244 475.059 377.518 Q475.059 377.143 475.246 376.464 L482.203 348.825 L482.343 347.888 Q482.343 347.607 482.226 347.467 Q482.133 347.303 481.57 347.186 Q481.032 347.068 479.954 347.068 Q479.509 347.068 479.298 347.045 Q479.111 347.022 478.947 346.904 Q478.783 346.764 478.783 346.483 Q478.783 346.085 478.947 345.874 Q479.134 345.64 479.275 345.593 Q479.416 345.546 479.697 345.523 Q480.095 345.499 481.43 345.382 Q482.765 345.241 483.913 345.148 Q485.06 345.054 485.552 345.054 Q485.833 345.054 485.974 345.195 Q486.138 345.312 486.161 345.452 L486.185 345.569 L482.437 360.817 Q485.412 357.14 489.534 357.14 Q492.204 357.14 493.633 358.522 Q495.062 359.881 495.062 362.27 Q495.062 365.01 492.134 372.81 Q491.267 374.988 491.267 376.229 Q491.267 377.049 491.525 377.424 Q491.806 377.799 492.415 377.799 Q493.352 377.799 494.172 377.26 Q495.015 376.698 495.6 375.784 Q496.186 374.847 496.584 373.911 Q497.006 372.95 497.31 371.873 Q497.498 371.287 497.591 371.147 Q497.708 371.006 498.036 371.006 Q498.599 371.006 498.599 371.475 Z" fill="#000000" fill-rule="evenodd" fill-opacity="1" /><path clip-path="url(#clip760)" d="M503.476 346.771 Q503.476 345.771 504.05 345.295 Q504.624 344.82 505.361 344.82 Q506.132 344.82 506.673 345.328 Q507.23 345.82 507.23 346.689 Q507.23 347.623 506.575 348.148 Q505.935 348.673 505.017 348.542 Q505.82 349.886 507.296 350.493 Q508.788 351.099 510.165 351.099 Q511.608 351.099 512.772 349.853 Q513.953 348.607 513.953 345.558 Q513.953 342.967 512.936 341.475 Q511.936 339.983 509.952 339.983 L508.477 339.983 Q507.968 339.983 507.821 339.934 Q507.673 339.885 507.673 339.606 Q507.673 339.278 508.181 339.212 Q508.69 339.212 509.493 339.114 Q511.444 339.048 512.477 337.36 Q513.412 335.786 513.412 333.539 Q513.412 331.49 512.428 330.637 Q511.461 329.768 510.198 329.768 Q509.018 329.768 507.722 330.26 Q506.427 330.752 505.722 331.851 Q507.804 331.851 507.804 333.539 Q507.804 334.277 507.329 334.769 Q506.87 335.245 506.099 335.245 Q505.361 335.245 504.869 334.786 Q504.378 334.31 504.378 333.507 Q504.378 331.588 506.083 330.26 Q507.804 328.932 510.329 328.932 Q512.821 328.932 514.658 330.244 Q516.51 331.556 516.51 333.572 Q516.51 335.556 515.199 337.179 Q513.887 338.802 511.805 339.475 Q514.363 339.983 515.887 341.721 Q517.412 343.442 517.412 345.558 Q517.412 348.181 515.346 350.116 Q513.28 352.034 510.264 352.034 Q507.476 352.034 505.476 350.525 Q503.476 349.017 503.476 346.771 Z" fill="#000000" fill-rule="evenodd" fill-opacity="1" /><polyline clip-path="url(#clip760)" style="stroke:#00a9ad; stroke-linecap:butt; stroke-linejoin:round; stroke-width:4; stroke-opacity:1; fill:none" points="
  308.681,405.848 451.291,405.848 
  "/>
<path clip-path="url(#clip760)" d="M498.599 423.078 Q498.599 423.266 498.388 423.992 Q498.177 424.718 497.662 425.842 Q497.17 426.967 496.49 427.997 Q495.811 429.004 494.687 429.754 Q493.586 430.48 492.321 430.48 Q490.635 430.48 489.511 429.356 Q488.386 428.231 488.386 426.545 Q488.386 426.311 488.41 426.076 Q488.433 425.842 488.457 425.702 Q488.48 425.538 488.55 425.28 Q488.644 424.999 488.667 424.882 Q488.714 424.765 488.831 424.413 Q488.972 424.039 489.019 423.898 Q491.993 416.309 491.993 413.147 Q491.993 409.798 489.393 409.798 Q487.075 409.798 484.779 411.484 Q483.725 412.327 482.718 413.827 Q481.711 415.326 481.524 415.888 Q481.313 417.106 481.008 418.043 Q480.868 418.698 480.188 421.251 L479.134 425.585 L478.221 429.215 Q478.034 429.73 477.518 430.105 Q477.003 430.48 476.441 430.48 Q475.972 430.48 475.504 430.152 Q475.059 429.847 475.059 429.121 Q475.059 428.747 475.246 428.067 L482.203 400.429 L482.343 399.492 Q482.343 399.211 482.226 399.07 Q482.133 398.906 481.57 398.789 Q481.032 398.672 479.954 398.672 Q479.509 398.672 479.298 398.649 Q479.111 398.625 478.947 398.508 Q478.783 398.368 478.783 398.087 Q478.783 397.688 478.947 397.478 Q479.134 397.243 479.275 397.197 Q479.416 397.15 479.697 397.126 Q480.095 397.103 481.43 396.986 Q482.765 396.845 483.913 396.752 Q485.06 396.658 485.552 396.658 Q485.833 396.658 485.974 396.798 Q486.138 396.916 486.161 397.056 L486.185 397.173 L482.437 412.421 Q485.412 408.744 489.534 408.744 Q492.204 408.744 493.633 410.126 Q495.062 411.484 495.062 413.873 Q495.062 416.614 492.134 424.413 Q491.267 426.592 491.267 427.833 Q491.267 428.653 491.525 429.028 Q491.806 429.402 492.415 429.402 Q493.352 429.402 494.172 428.864 Q495.015 428.302 495.6 427.388 Q496.186 426.451 496.584 425.514 Q497.006 424.554 497.31 423.477 Q497.498 422.891 497.591 422.75 Q497.708 422.61 498.036 422.61 Q498.599 422.61 498.599 423.078 Z" fill="#000000" fill-rule="evenodd" fill-opacity="1" /><path clip-path="url(#clip760)" d="M503.476 398.202 L503.476 397.169 L513.789 381.413 Q514.051 381.003 514.461 381.02 Q514.838 381.02 514.92 381.167 Q515.002 381.315 515.002 381.889 L515.002 397.169 L518.363 397.169 L518.363 398.202 L515.002 398.202 L515.002 401.121 Q515.002 402.088 515.396 402.4 Q515.805 402.711 517.543 402.711 L518.248 402.711 L518.248 403.744 Q516.871 403.646 513.69 403.646 Q510.526 403.646 509.149 403.744 L509.149 402.711 L509.854 402.711 Q511.592 402.711 512.002 402.416 Q512.411 402.105 512.411 401.121 L512.411 398.202 L503.476 398.202 M504.427 397.169 L512.608 397.169 L512.608 384.643 L504.427 397.169 Z" fill="#000000" fill-rule="evenodd" fill-opacity="1" /></svg>
