<?xml version="1.0" encoding="utf-8"?>
<svg xmlns="http://www.w3.org/2000/svg" xmlns:xlink="http://www.w3.org/1999/xlink" width="600" height="400" viewBox="0 0 2400 1600">
<defs>
  <clipPath id="clip960">
    <rect x="0" y="0" width="2400" height="1600"/>
  </clipPath>
</defs>
<path clip-path="url(#clip960)" d="
M0 1600 L2400 1600 L2400 0 L0 0  Z
  " fill="#ffffff" fill-rule="evenodd" fill-opacity="1"/>
<defs>
  <clipPath id="clip961">
    <rect x="480" y="0" width="1681" height="1600"/>
  </clipPath>
</defs>
<path clip-path="url(#clip960)" d="
M193.936 1486.45 L2352.76 1486.45 L2352.76 47.2441 L193.936 47.2441  Z
  " fill="#ffffff" fill-rule="evenodd" fill-opacity="1"/>
<defs>
  <clipPath id="clip962">
    <rect x="193" y="47" width="2160" height="1440"/>
  </clipPath>
</defs>
<polyline clip-path="url(#clip962)" style="stroke:#000000; stroke-linecap:butt; stroke-linejoin:round; stroke-width:2; stroke-opacity:0.1; fill:none" points="
  255.035,1486.45 255.035,47.2441 
  "/>
<polyline clip-path="url(#clip962)" style="stroke:#000000; stroke-linecap:butt; stroke-linejoin:round; stroke-width:2; stroke-opacity:0.1; fill:none" points="
  594.472,1486.45 594.472,47.2441 
  "/>
<polyline clip-path="url(#clip962)" style="stroke:#000000; stroke-linecap:butt; stroke-linejoin:round; stroke-width:2; stroke-opacity:0.1; fill:none" points="
  933.909,1486.45 933.909,47.2441 
  "/>
<polyline clip-path="url(#clip962)" style="stroke:#000000; stroke-linecap:butt; stroke-linejoin:round; stroke-width:2; stroke-opacity:0.1; fill:none" points="
  1273.35,1486.45 1273.35,47.2441 
  "/>
<polyline clip-path="url(#clip962)" style="stroke:#000000; stroke-linecap:butt; stroke-linejoin:round; stroke-width:2; stroke-opacity:0.1; fill:none" points="
  1612.78,1486.45 1612.78,47.2441 
  "/>
<polyline clip-path="url(#clip962)" style="stroke:#000000; stroke-linecap:butt; stroke-linejoin:round; stroke-width:2; stroke-opacity:0.1; fill:none" points="
  1952.22,1486.45 1952.22,47.2441 
  "/>
<polyline clip-path="url(#clip962)" style="stroke:#000000; stroke-linecap:butt; stroke-linejoin:round; stroke-width:2; stroke-opacity:0.1; fill:none" points="
  2291.66,1486.45 2291.66,47.2441 
  "/>
<polyline clip-path="url(#clip960)" style="stroke:#000000; stroke-linecap:butt; stroke-linejoin:round; stroke-width:4; stroke-opacity:1; fill:none" points="
  193.936,1486.45 2352.76,1486.45 
  "/>
<polyline clip-path="url(#clip960)" style="stroke:#000000; stroke-linecap:butt; stroke-linejoin:round; stroke-width:4; stroke-opacity:1; fill:none" points="
  255.035,1486.45 255.035,1467.55 
  "/>
<polyline clip-path="url(#clip960)" style="stroke:#000000; stroke-linecap:butt; stroke-linejoin:round; stroke-width:4; stroke-opacity:1; fill:none" points="
  594.472,1486.45 594.472,1467.55 
  "/>
<polyline clip-path="url(#clip960)" style="stroke:#000000; stroke-linecap:butt; stroke-linejoin:round; stroke-width:4; stroke-opacity:1; fill:none" points="
  933.909,1486.45 933.909,1467.55 
  "/>
<polyline clip-path="url(#clip960)" style="stroke:#000000; stroke-linecap:butt; stroke-linejoin:round; stroke-width:4; stroke-opacity:1; fill:none" points="
  1273.35,1486.45 1273.35,1467.55 
  "/>
<polyline clip-path="url(#clip960)" style="stroke:#000000; stroke-linecap:butt; stroke-linejoin:round; stroke-width:4; stroke-opacity:1; fill:none" points="
  1612.78,1486.45 1612.78,1467.55 
  "/>
<polyline clip-path="url(#clip960)" style="stroke:#000000; stroke-linecap:butt; stroke-linejoin:round; stroke-width:4; stroke-opacity:1; fill:none" points="
  1952.22,1486.45 1952.22,1467.55 
  "/>
<polyline clip-path="url(#clip960)" style="stroke:#000000; stroke-linecap:butt; stroke-linejoin:round; stroke-width:4; stroke-opacity:1; fill:none" points="
  2291.66,1486.45 2291.66,1467.55 
  "/>
<path clip-path="url(#clip960)" d="M255.035 1515.64 Q251.424 1515.64 249.595 1519.2 Q247.789 1522.75 247.789 1529.87 Q247.789 1536.98 249.595 1540.55 Q251.424 1544.09 255.035 1544.09 Q258.669 1544.09 260.474 1540.55 Q262.303 1536.98 262.303 1529.87 Q262.303 1522.75 260.474 1519.2 Q258.669 1515.64 255.035 1515.64 M255.035 1511.93 Q260.845 1511.93 263.9 1516.54 Q266.979 1521.12 266.979 1529.87 Q266.979 1538.6 263.9 1543.21 Q260.845 1547.79 255.035 1547.79 Q249.225 1547.79 246.146 1543.21 Q243.09 1538.6 243.09 1529.87 Q243.09 1521.12 246.146 1516.54 Q249.225 1511.93 255.035 1511.93 Z" fill="#000000" fill-rule="evenodd" fill-opacity="1" /><path clip-path="url(#clip960)" d="M584.854 1543.18 L592.493 1543.18 L592.493 1516.82 L584.182 1518.49 L584.182 1514.23 L592.446 1512.56 L597.122 1512.56 L597.122 1543.18 L604.761 1543.18 L604.761 1547.12 L584.854 1547.12 L584.854 1543.18 Z" fill="#000000" fill-rule="evenodd" fill-opacity="1" /><path clip-path="url(#clip960)" d="M928.562 1543.18 L944.881 1543.18 L944.881 1547.12 L922.937 1547.12 L922.937 1543.18 Q925.599 1540.43 930.182 1535.8 Q934.788 1531.15 935.969 1529.81 Q938.214 1527.28 939.094 1525.55 Q939.997 1523.79 939.997 1522.1 Q939.997 1519.34 938.052 1517.61 Q936.131 1515.87 933.029 1515.87 Q930.83 1515.87 928.376 1516.63 Q925.946 1517.4 923.168 1518.95 L923.168 1514.23 Q925.992 1513.09 928.446 1512.51 Q930.9 1511.93 932.937 1511.93 Q938.307 1511.93 941.501 1514.62 Q944.696 1517.31 944.696 1521.8 Q944.696 1523.93 943.886 1525.85 Q943.099 1527.74 940.992 1530.34 Q940.413 1531.01 937.312 1534.23 Q934.21 1537.42 928.562 1543.18 Z" fill="#000000" fill-rule="evenodd" fill-opacity="1" /><path clip-path="url(#clip960)" d="M1277.59 1528.49 Q1280.95 1529.2 1282.83 1531.47 Q1284.72 1533.74 1284.72 1537.07 Q1284.72 1542.19 1281.2 1544.99 Q1277.69 1547.79 1271.2 1547.79 Q1269.03 1547.79 1266.71 1547.35 Q1264.42 1546.93 1261.97 1546.08 L1261.97 1541.56 Q1263.91 1542.7 1266.23 1543.28 Q1268.54 1543.86 1271.07 1543.86 Q1275.46 1543.86 1277.76 1542.12 Q1280.07 1540.38 1280.07 1537.07 Q1280.07 1534.02 1277.92 1532.31 Q1275.79 1530.57 1271.97 1530.57 L1267.94 1530.57 L1267.94 1526.73 L1272.15 1526.73 Q1275.6 1526.73 1277.43 1525.36 Q1279.26 1523.97 1279.26 1521.38 Q1279.26 1518.72 1277.36 1517.31 Q1275.49 1515.87 1271.97 1515.87 Q1270.05 1515.87 1267.85 1516.29 Q1265.65 1516.7 1263.01 1517.58 L1263.01 1513.42 Q1265.67 1512.68 1267.99 1512.31 Q1270.33 1511.93 1272.39 1511.93 Q1277.71 1511.93 1280.81 1514.37 Q1283.91 1516.77 1283.91 1520.89 Q1283.91 1523.76 1282.27 1525.75 Q1280.63 1527.72 1277.59 1528.49 Z" fill="#000000" fill-rule="evenodd" fill-opacity="1" /><path clip-path="url(#clip960)" d="M1615.79 1516.63 L1603.99 1535.08 L1615.79 1535.08 L1615.79 1516.63 M1614.57 1512.56 L1620.45 1512.56 L1620.45 1535.08 L1625.38 1535.08 L1625.38 1538.97 L1620.45 1538.97 L1620.45 1547.12 L1615.79 1547.12 L1615.79 1538.97 L1600.19 1538.97 L1600.19 1534.46 L1614.57 1512.56 Z" fill="#000000" fill-rule="evenodd" fill-opacity="1" /><path clip-path="url(#clip960)" d="M1942.5 1512.56 L1960.85 1512.56 L1960.85 1516.5 L1946.78 1516.5 L1946.78 1524.97 Q1947.8 1524.62 1948.82 1524.46 Q1949.84 1524.27 1950.85 1524.27 Q1956.64 1524.27 1960.02 1527.44 Q1963.4 1530.62 1963.4 1536.03 Q1963.4 1541.61 1959.93 1544.71 Q1956.46 1547.79 1950.14 1547.79 Q1947.96 1547.79 1945.69 1547.42 Q1943.45 1547.05 1941.04 1546.31 L1941.04 1541.61 Q1943.12 1542.74 1945.35 1543.3 Q1947.57 1543.86 1950.04 1543.86 Q1954.05 1543.86 1956.39 1541.75 Q1958.72 1539.64 1958.72 1536.03 Q1958.72 1532.42 1956.39 1530.31 Q1954.05 1528.21 1950.04 1528.21 Q1948.17 1528.21 1946.29 1528.62 Q1944.44 1529.04 1942.5 1529.92 L1942.5 1512.56 Z" fill="#000000" fill-rule="evenodd" fill-opacity="1" /><path clip-path="url(#clip960)" d="M2292.06 1527.98 Q2288.91 1527.98 2287.06 1530.13 Q2285.23 1532.28 2285.23 1536.03 Q2285.23 1539.76 2287.06 1541.93 Q2288.91 1544.09 2292.06 1544.09 Q2295.21 1544.09 2297.04 1541.93 Q2298.89 1539.76 2298.89 1536.03 Q2298.89 1532.28 2297.04 1530.13 Q2295.21 1527.98 2292.06 1527.98 M2301.34 1513.32 L2301.34 1517.58 Q2299.59 1516.75 2297.78 1516.31 Q2296 1515.87 2294.24 1515.87 Q2289.61 1515.87 2287.15 1519 Q2284.72 1522.12 2284.38 1528.44 Q2285.74 1526.43 2287.8 1525.36 Q2289.86 1524.27 2292.34 1524.27 Q2297.55 1524.27 2300.56 1527.44 Q2303.59 1530.59 2303.59 1536.03 Q2303.59 1541.36 2300.44 1544.57 Q2297.29 1547.79 2292.06 1547.79 Q2286.07 1547.79 2282.9 1543.21 Q2279.72 1538.6 2279.72 1529.87 Q2279.72 1521.68 2283.61 1516.82 Q2287.5 1511.93 2294.05 1511.93 Q2295.81 1511.93 2297.59 1512.28 Q2299.4 1512.63 2301.34 1513.32 Z" fill="#000000" fill-rule="evenodd" fill-opacity="1" /><polyline clip-path="url(#clip962)" style="stroke:#000000; stroke-linecap:butt; stroke-linejoin:round; stroke-width:2; stroke-opacity:0.1; fill:none" points="
  193.936,1445.76 2352.76,1445.76 
  "/>
<polyline clip-path="url(#clip962)" style="stroke:#000000; stroke-linecap:butt; stroke-linejoin:round; stroke-width:2; stroke-opacity:0.1; fill:none" points="
  193.936,1106.31 2352.76,1106.31 
  "/>
<polyline clip-path="url(#clip962)" style="stroke:#000000; stroke-linecap:butt; stroke-linejoin:round; stroke-width:2; stroke-opacity:0.1; fill:none" points="
  193.936,766.866 2352.76,766.866 
  "/>
<polyline clip-path="url(#clip962)" style="stroke:#000000; stroke-linecap:butt; stroke-linejoin:round; stroke-width:2; stroke-opacity:0.1; fill:none" points="
  193.936,427.421 2352.76,427.421 
  "/>
<polyline clip-path="url(#clip962)" style="stroke:#000000; stroke-linecap:butt; stroke-linejoin:round; stroke-width:2; stroke-opacity:0.1; fill:none" points="
  193.936,87.9763 2352.76,87.9763 
  "/>
<polyline clip-path="url(#clip960)" style="stroke:#000000; stroke-linecap:butt; stroke-linejoin:round; stroke-width:4; stroke-opacity:1; fill:none" points="
  193.936,1486.45 193.936,47.2441 
  "/>
<polyline clip-path="url(#clip960)" style="stroke:#000000; stroke-linecap:butt; stroke-linejoin:round; stroke-width:4; stroke-opacity:1; fill:none" points="
  193.936,1445.76 212.834,1445.76 
  "/>
<polyline clip-path="url(#clip960)" style="stroke:#000000; stroke-linecap:butt; stroke-linejoin:round; stroke-width:4; stroke-opacity:1; fill:none" points="
  193.936,1106.31 212.834,1106.31 
  "/>
<polyline clip-path="url(#clip960)" style="stroke:#000000; stroke-linecap:butt; stroke-linejoin:round; stroke-width:4; stroke-opacity:1; fill:none" points="
  193.936,766.866 212.834,766.866 
  "/>
<polyline clip-path="url(#clip960)" style="stroke:#000000; stroke-linecap:butt; stroke-linejoin:round; stroke-width:4; stroke-opacity:1; fill:none" points="
  193.936,427.421 212.834,427.421 
  "/>
<polyline clip-path="url(#clip960)" style="stroke:#000000; stroke-linecap:butt; stroke-linejoin:round; stroke-width:4; stroke-opacity:1; fill:none" points="
  193.936,87.9763 212.834,87.9763 
  "/>
<path clip-path="url(#clip960)" d="M50.9921 1446.21 L80.6679 1446.21 L80.6679 1450.14 L50.9921 1450.14 L50.9921 1446.21 Z" fill="#000000" fill-rule="evenodd" fill-opacity="1" /><path clip-path="url(#clip960)" d="M91.5706 1459.1 L99.2095 1459.1 L99.2095 1432.74 L90.8993 1434.4 L90.8993 1430.14 L99.1632 1428.48 L103.839 1428.48 L103.839 1459.1 L111.478 1459.1 L111.478 1463.04 L91.5706 1463.04 L91.5706 1459.1 Z" fill="#000000" fill-rule="evenodd" fill-opacity="1" /><path clip-path="url(#clip960)" d="M120.922 1457.16 L125.807 1457.16 L125.807 1463.04 L120.922 1463.04 L120.922 1457.16 Z" fill="#000000" fill-rule="evenodd" fill-opacity="1" /><path clip-path="url(#clip960)" d="M145.992 1431.55 Q142.381 1431.55 140.552 1435.12 Q138.746 1438.66 138.746 1445.79 Q138.746 1452.9 140.552 1456.46 Q142.381 1460 145.992 1460 Q149.626 1460 151.431 1456.46 Q153.26 1452.9 153.26 1445.79 Q153.26 1438.66 151.431 1435.12 Q149.626 1431.55 145.992 1431.55 M145.992 1427.85 Q151.802 1427.85 154.857 1432.46 Q157.936 1437.04 157.936 1445.79 Q157.936 1454.52 154.857 1459.12 Q151.802 1463.71 145.992 1463.71 Q140.181 1463.71 137.103 1459.12 Q134.047 1454.52 134.047 1445.79 Q134.047 1437.04 137.103 1432.46 Q140.181 1427.85 145.992 1427.85 Z" fill="#000000" fill-rule="evenodd" fill-opacity="1" /><path clip-path="url(#clip960)" d="M51.9875 1106.76 L81.6633 1106.76 L81.6633 1110.7 L51.9875 1110.7 L51.9875 1106.76 Z" fill="#000000" fill-rule="evenodd" fill-opacity="1" /><path clip-path="url(#clip960)" d="M101.756 1092.11 Q98.1447 1092.11 96.316 1095.67 Q94.5104 1099.22 94.5104 1106.35 Q94.5104 1113.45 96.316 1117.02 Q98.1447 1120.56 101.756 1120.56 Q105.39 1120.56 107.196 1117.02 Q109.024 1113.45 109.024 1106.35 Q109.024 1099.22 107.196 1095.67 Q105.39 1092.11 101.756 1092.11 M101.756 1088.41 Q107.566 1088.41 110.621 1093.01 Q113.7 1097.6 113.7 1106.35 Q113.7 1115.07 110.621 1119.68 Q107.566 1124.26 101.756 1124.26 Q95.9456 1124.26 92.8669 1119.68 Q89.8114 1115.07 89.8114 1106.35 Q89.8114 1097.6 92.8669 1093.01 Q95.9456 1088.41 101.756 1088.41 Z" fill="#000000" fill-rule="evenodd" fill-opacity="1" /><path clip-path="url(#clip960)" d="M121.918 1117.71 L126.802 1117.71 L126.802 1123.59 L121.918 1123.59 L121.918 1117.71 Z" fill="#000000" fill-rule="evenodd" fill-opacity="1" /><path clip-path="url(#clip960)" d="M137.033 1089.03 L155.39 1089.03 L155.39 1092.97 L141.316 1092.97 L141.316 1101.44 Q142.334 1101.09 143.353 1100.93 Q144.371 1100.74 145.39 1100.74 Q151.177 1100.74 154.556 1103.92 Q157.936 1107.09 157.936 1112.5 Q157.936 1118.08 154.464 1121.18 Q150.992 1124.26 144.672 1124.26 Q142.496 1124.26 140.228 1123.89 Q137.982 1123.52 135.575 1122.78 L135.575 1118.08 Q137.658 1119.22 139.881 1119.77 Q142.103 1120.33 144.58 1120.33 Q148.584 1120.33 150.922 1118.22 Q153.26 1116.11 153.26 1112.5 Q153.26 1108.89 150.922 1106.79 Q148.584 1104.68 144.58 1104.68 Q142.705 1104.68 140.83 1105.1 Q138.978 1105.51 137.033 1106.39 L137.033 1089.03 Z" fill="#000000" fill-rule="evenodd" fill-opacity="1" /><path clip-path="url(#clip960)" d="M100.76 752.665 Q97.1493 752.665 95.3206 756.23 Q93.515 759.771 93.515 766.901 Q93.515 774.007 95.3206 777.572 Q97.1493 781.114 100.76 781.114 Q104.395 781.114 106.2 777.572 Q108.029 774.007 108.029 766.901 Q108.029 759.771 106.2 756.23 Q104.395 752.665 100.76 752.665 M100.76 748.961 Q106.571 748.961 109.626 753.568 Q112.705 758.151 112.705 766.901 Q112.705 775.628 109.626 780.234 Q106.571 784.818 100.76 784.818 Q94.9502 784.818 91.8715 780.234 Q88.816 775.628 88.816 766.901 Q88.816 758.151 91.8715 753.568 Q94.9502 748.961 100.76 748.961 Z" fill="#000000" fill-rule="evenodd" fill-opacity="1" /><path clip-path="url(#clip960)" d="M120.922 778.267 L125.807 778.267 L125.807 784.146 L120.922 784.146 L120.922 778.267 Z" fill="#000000" fill-rule="evenodd" fill-opacity="1" /><path clip-path="url(#clip960)" d="M145.992 752.665 Q142.381 752.665 140.552 756.23 Q138.746 759.771 138.746 766.901 Q138.746 774.007 140.552 777.572 Q142.381 781.114 145.992 781.114 Q149.626 781.114 151.431 777.572 Q153.26 774.007 153.26 766.901 Q153.26 759.771 151.431 756.23 Q149.626 752.665 145.992 752.665 M145.992 748.961 Q151.802 748.961 154.857 753.568 Q157.936 758.151 157.936 766.901 Q157.936 775.628 154.857 780.234 Q151.802 784.818 145.992 784.818 Q140.181 784.818 137.103 780.234 Q134.047 775.628 134.047 766.901 Q134.047 758.151 137.103 753.568 Q140.181 748.961 145.992 748.961 Z" fill="#000000" fill-rule="evenodd" fill-opacity="1" /><path clip-path="url(#clip960)" d="M101.756 413.22 Q98.1447 413.22 96.316 416.785 Q94.5104 420.326 94.5104 427.456 Q94.5104 434.562 96.316 438.127 Q98.1447 441.669 101.756 441.669 Q105.39 441.669 107.196 438.127 Q109.024 434.562 109.024 427.456 Q109.024 420.326 107.196 416.785 Q105.39 413.22 101.756 413.22 M101.756 409.516 Q107.566 409.516 110.621 414.123 Q113.7 418.706 113.7 427.456 Q113.7 436.183 110.621 440.789 Q107.566 445.373 101.756 445.373 Q95.9456 445.373 92.8669 440.789 Q89.8114 436.183 89.8114 427.456 Q89.8114 418.706 92.8669 414.123 Q95.9456 409.516 101.756 409.516 Z" fill="#000000" fill-rule="evenodd" fill-opacity="1" /><path clip-path="url(#clip960)" d="M121.918 438.822 L126.802 438.822 L126.802 444.701 L121.918 444.701 L121.918 438.822 Z" fill="#000000" fill-rule="evenodd" fill-opacity="1" /><path clip-path="url(#clip960)" d="M137.033 410.141 L155.39 410.141 L155.39 414.076 L141.316 414.076 L141.316 422.549 Q142.334 422.201 143.353 422.039 Q144.371 421.854 145.39 421.854 Q151.177 421.854 154.556 425.025 Q157.936 428.197 157.936 433.613 Q157.936 439.192 154.464 442.294 Q150.992 445.373 144.672 445.373 Q142.496 445.373 140.228 445.002 Q137.982 444.632 135.575 443.891 L135.575 439.192 Q137.658 440.326 139.881 440.882 Q142.103 441.437 144.58 441.437 Q148.584 441.437 150.922 439.331 Q153.26 437.224 153.26 433.613 Q153.26 430.002 150.922 427.896 Q148.584 425.789 144.58 425.789 Q142.705 425.789 140.83 426.206 Q138.978 426.623 137.033 427.502 L137.033 410.141 Z" fill="#000000" fill-rule="evenodd" fill-opacity="1" /><path clip-path="url(#clip960)" d="M91.5706 101.321 L99.2095 101.321 L99.2095 74.9555 L90.8993 76.6222 L90.8993 72.3629 L99.1632 70.6963 L103.839 70.6963 L103.839 101.321 L111.478 101.321 L111.478 105.256 L91.5706 105.256 L91.5706 101.321 Z" fill="#000000" fill-rule="evenodd" fill-opacity="1" /><path clip-path="url(#clip960)" d="M120.922 99.3767 L125.807 99.3767 L125.807 105.256 L120.922 105.256 L120.922 99.3767 Z" fill="#000000" fill-rule="evenodd" fill-opacity="1" /><path clip-path="url(#clip960)" d="M145.992 73.775 Q142.381 73.775 140.552 77.3398 Q138.746 80.8814 138.746 88.011 Q138.746 95.1174 140.552 98.6822 Q142.381 102.224 145.992 102.224 Q149.626 102.224 151.431 98.6822 Q153.26 95.1174 153.26 88.011 Q153.26 80.8814 151.431 77.3398 Q149.626 73.775 145.992 73.775 M145.992 70.0713 Q151.802 70.0713 154.857 74.6777 Q157.936 79.261 157.936 88.011 Q157.936 96.7378 154.857 101.344 Q151.802 105.928 145.992 105.928 Q140.181 105.928 137.103 101.344 Q134.047 96.7378 134.047 88.011 Q134.047 79.261 137.103 74.6777 Q140.181 70.0713 145.992 70.0713 Z" fill="#000000" fill-rule="evenodd" fill-opacity="1" /><polyline clip-path="url(#clip962)" style="stroke:#009af9; stroke-linecap:butt; stroke-linejoin:round; stroke-width:4; stroke-opacity:1; fill:none" points="
  255.035,87.9763 933.909,993.163 1612.78,993.163 2291.66,490.281 
  "/>
<circle clip-path="url(#clip962)" cx="255.035" cy="87.9763" r="14" fill="#009af9" fill-rule="evenodd" fill-opacity="1" stroke="#000000" stroke-opacity="1" stroke-width="3.2"/>
<circle clip-path="url(#clip962)" cx="933.909" cy="993.163" r="14" fill="#009af9" fill-rule="evenodd" fill-opacity="1" stroke="#000000" stroke-opacity="1" stroke-width="3.2"/>
<circle clip-path="url(#clip962)" cx="1612.78" cy="993.163" r="14" fill="#009af9" fill-rule="evenodd" fill-opacity="1" stroke="#000000" stroke-opacity="1" stroke-width="3.2"/>
<circle clip-path="url(#clip962)" cx="2291.66" cy="490.281" r="14" fill="#009af9" fill-rule="evenodd" fill-opacity="1" stroke="#000000" stroke-opacity="1" stroke-width="3.2"/>
<polyline clip-path="url(#clip962)" style="stroke:#e26f46; stroke-linecap:butt; stroke-linejoin:round; stroke-width:4; stroke-opacity:1; fill:none" points="
  255.035,766.866 933.909,314.273 1612.78,1068.6 2291.66,817.154 
  "/>
<path clip-path="url(#clip962)" d="M239.035 750.866 L239.035 782.866 L271.035 782.866 L271.035 750.866 L239.035 750.866 Z" fill="#e26f46" fill-rule="evenodd" fill-opacity="1" stroke="#000000" stroke-opacity="1" stroke-width="3.2"/>
<path clip-path="url(#clip962)" d="M917.909 298.273 L917.909 330.273 L949.909 330.273 L949.909 298.273 L917.909 298.273 Z" fill="#e26f46" fill-rule="evenodd" fill-opacity="1" stroke="#000000" stroke-opacity="1" stroke-width="3.2"/>
<path clip-path="url(#clip962)" d="M1596.78 1052.6 L1596.78 1084.6 L1628.78 1084.6 L1628.78 1052.6 L1596.78 1052.6 Z" fill="#e26f46" fill-rule="evenodd" fill-opacity="1" stroke="#000000" stroke-opacity="1" stroke-width="3.2"/>
<path clip-path="url(#clip962)" d="M2275.66 801.154 L2275.66 833.154 L2307.66 833.154 L2307.66 801.154 L2275.66 801.154 Z" fill="#e26f46" fill-rule="evenodd" fill-opacity="1" stroke="#000000" stroke-opacity="1" stroke-width="3.2"/>
<polyline clip-path="url(#clip962)" style="stroke:#3da44d; stroke-linecap:butt; stroke-linejoin:round; stroke-width:4; stroke-opacity:1; fill:none" points="
  255.035,766.866 264.979,746.979 274.924,727.109 366.877,547.203 458.829,383.318 514.089,297.598 569.348,224.288 616.07,173.432 662.791,133.802 713.544,104.34 
  764.296,89.662 811.085,89.5158 857.875,102.22 908.038,129.834 958.201,171.335 1016.32,235.578 1074.44,315.358 1126.09,397.421 1177.74,488.021 1223.03,572.847 
  1268.32,661.121 1367.08,857.938 1466.43,1048.17 1521.35,1144.03 1576.27,1230.04 1628.52,1300.67 1680.78,1358.68 1707.95,1383.38 1735.11,1404.13 1762.28,1420.8 
  1789.45,1433.29 1835.18,1444.65 1880.92,1443.72 1936.76,1425.96 1992.6,1390.41 2045.09,1341.62 2097.58,1279.11 2139.63,1220.13 2181.68,1154.21 2223.73,1082.36 
  2265.77,1005.67 2272.24,993.508 2278.72,981.268 2285.19,968.95 2291.66,956.559 
  "/>
<polyline clip-path="url(#clip962)" style="stroke:#c271d2; stroke-linecap:butt; stroke-linejoin:round; stroke-width:4; stroke-opacity:1; fill:none" points="
  255.035,87.9763 260.007,88.0491 264.979,88.2676 269.952,88.6317 274.924,89.1414 320.9,100.717 366.877,124.496 412.853,160.042 458.829,206.704 514.089,276.276 
  569.348,358.821 616.07,437.127 662.791,521.671 764.296,719.055 857.875,905.201 908.038,1001.56 958.201,1092.8 1016.32,1189.51 1074.44,1273.85 1100.26,1306.7 
  1126.09,1336.43 1151.91,1362.86 1177.74,1385.85 1223.03,1417.44 1268.32,1437.47 1317.7,1445.72 1367.08,1439.62 1416.75,1419.15 1466.43,1384.73 1521.35,1331.35 
  1576.27,1263.22 1628.52,1186.32 1680.78,1099.51 1789.45,896.367 1880.92,714.265 1936.76,604.129 1992.6,498.388 2045.09,405.55 2097.58,321.334 2139.63,261.456 
  2181.68,209.324 2223.73,165.737 2265.77,131.361 2272.24,126.925 2278.72,122.721 2285.19,118.751 2291.66,115.016 
  "/>
<path clip-path="url(#clip960)" d="
M1986.78 354.418 L2280.8 354.418 L2280.8 95.2176 L1986.78 95.2176  Z
  " fill="#ffffff" fill-rule="evenodd" fill-opacity="1"/>
<polyline clip-path="url(#clip960)" style="stroke:#000000; stroke-linecap:butt; stroke-linejoin:round; stroke-width:4; stroke-opacity:1; fill:none" points="
  1986.78,354.418 2280.8,354.418 2280.8,95.2176 1986.78,95.2176 1986.78,354.418 
  "/>
<polyline clip-path="url(#clip960)" style="stroke:#009af9; stroke-linecap:butt; stroke-linejoin:round; stroke-width:4; stroke-opacity:1; fill:none" points="
  2010.77,147.058 2154.69,147.058 
  "/>
<circle clip-path="url(#clip960)" cx="2082.73" cy="147.058" r="23" fill="#009af9" fill-rule="evenodd" fill-opacity="1" stroke="#000000" stroke-opacity="1" stroke-width="5.12"/>
<path clip-path="url(#clip960)" d="M2192.52 166.745 Q2190.72 171.375 2189 172.787 Q2187.29 174.199 2184.42 174.199 L2181.02 174.199 L2181.02 170.634 L2183.52 170.634 Q2185.28 170.634 2186.25 169.8 Q2187.22 168.967 2188.4 165.865 L2189.16 163.921 L2178.68 138.412 L2183.19 138.412 L2191.29 158.689 L2199.4 138.412 L2203.91 138.412 L2192.52 166.745 Z" fill="#000000" fill-rule="evenodd" fill-opacity="1" /><path clip-path="url(#clip960)" d="M2211.2 160.402 L2218.84 160.402 L2218.84 134.037 L2210.53 135.703 L2210.53 131.444 L2218.79 129.778 L2223.47 129.778 L2223.47 160.402 L2231.11 160.402 L2231.11 164.338 L2211.2 164.338 L2211.2 160.402 Z" fill="#000000" fill-rule="evenodd" fill-opacity="1" /><polyline clip-path="url(#clip960)" style="stroke:#e26f46; stroke-linecap:butt; stroke-linejoin:round; stroke-width:4; stroke-opacity:1; fill:none" points="
  2010.77,198.898 2154.69,198.898 
  "/>
<path clip-path="url(#clip960)" d="M2057.13 173.298 L2057.13 224.498 L2108.33 224.498 L2108.33 173.298 L2057.13 173.298 Z" fill="#e26f46" fill-rule="evenodd" fill-opacity="1" stroke="#000000" stroke-opacity="1" stroke-width="5.12"/>
<path clip-path="url(#clip960)" d="M2192.52 218.585 Q2190.72 223.215 2189 224.627 Q2187.29 226.039 2184.42 226.039 L2181.02 226.039 L2181.02 222.474 L2183.52 222.474 Q2185.28 222.474 2186.25 221.64 Q2187.22 220.807 2188.4 217.705 L2189.16 215.761 L2178.68 190.252 L2183.19 190.252 L2191.29 210.529 L2199.4 190.252 L2203.91 190.252 L2192.52 218.585 Z" fill="#000000" fill-rule="evenodd" fill-opacity="1" /><path clip-path="url(#clip960)" d="M2214.42 212.242 L2230.74 212.242 L2230.74 216.178 L2208.79 216.178 L2208.79 212.242 Q2211.46 209.488 2216.04 204.858 Q2220.65 200.205 2221.83 198.863 Q2224.07 196.34 2224.95 194.604 Q2225.85 192.844 2225.85 191.155 Q2225.85 188.4 2223.91 186.664 Q2221.99 184.928 2218.89 184.928 Q2216.69 184.928 2214.23 185.692 Q2211.8 186.455 2209.03 188.006 L2209.03 183.284 Q2211.85 182.15 2214.3 181.571 Q2216.76 180.993 2218.79 180.993 Q2224.16 180.993 2227.36 183.678 Q2230.55 186.363 2230.55 190.854 Q2230.55 192.983 2229.74 194.905 Q2228.96 196.803 2226.85 199.395 Q2226.27 200.067 2223.17 203.284 Q2220.07 206.479 2214.42 212.242 Z" fill="#000000" fill-rule="evenodd" fill-opacity="1" /><polyline clip-path="url(#clip960)" style="stroke:#3da44d; stroke-linecap:butt; stroke-linejoin:round; stroke-width:4; stroke-opacity:1; fill:none" points="
  2010.77,250.738 2154.69,250.738 
  "/>
<path clip-path="url(#clip960)" d="M2192.52 270.425 Q2190.72 275.055 2189 276.467 Q2187.29 277.879 2184.42 277.879 L2181.02 277.879 L2181.02 274.314 L2183.52 274.314 Q2185.28 274.314 2186.25 273.48 Q2187.22 272.647 2188.4 269.545 L2189.16 267.601 L2178.68 242.092 L2183.19 242.092 L2191.29 262.369 L2199.4 242.092 L2203.91 242.092 L2192.52 270.425 Z" fill="#000000" fill-rule="evenodd" fill-opacity="1" /><path clip-path="url(#clip960)" d="M2224.56 249.383 Q2227.91 250.101 2229.79 252.369 Q2231.69 254.638 2231.69 257.971 Q2231.69 263.087 2228.17 265.888 Q2224.65 268.689 2218.17 268.689 Q2215.99 268.689 2213.68 268.249 Q2211.39 267.832 2208.93 266.976 L2208.93 262.462 Q2210.88 263.596 2213.19 264.175 Q2215.51 264.754 2218.03 264.754 Q2222.43 264.754 2224.72 263.018 Q2227.03 261.281 2227.03 257.971 Q2227.03 254.916 2224.88 253.203 Q2222.75 251.467 2218.93 251.467 L2214.9 251.467 L2214.9 247.624 L2219.12 247.624 Q2222.57 247.624 2224.4 246.258 Q2226.22 244.87 2226.22 242.277 Q2226.22 239.615 2224.33 238.203 Q2222.45 236.768 2218.93 236.768 Q2217.01 236.768 2214.81 237.184 Q2212.61 237.601 2209.97 238.481 L2209.97 234.314 Q2212.64 233.573 2214.95 233.203 Q2217.29 232.833 2219.35 232.833 Q2224.67 232.833 2227.78 235.263 Q2230.88 237.67 2230.88 241.791 Q2230.88 244.661 2229.23 246.652 Q2227.59 248.62 2224.56 249.383 Z" fill="#000000" fill-rule="evenodd" fill-opacity="1" /><polyline clip-path="url(#clip960)" style="stroke:#c271d2; stroke-linecap:butt; stroke-linejoin:round; stroke-width:4; stroke-opacity:1; fill:none" points="
  2010.77,302.578 2154.69,302.578 
  "/>
<path clip-path="url(#clip960)" d="M2192.52 322.265 Q2190.72 326.895 2189 328.307 Q2187.29 329.719 2184.42 329.719 L2181.02 329.719 L2181.02 326.154 L2183.52 326.154 Q2185.28 326.154 2186.25 325.32 Q2187.22 324.487 2188.4 321.385 L2189.16 319.441 L2178.68 293.932 L2183.19 293.932 L2191.29 314.209 L2199.4 293.932 L2203.91 293.932 L2192.52 322.265 Z" fill="#000000" fill-rule="evenodd" fill-opacity="1" /><path clip-path="url(#clip960)" d="M2223.24 289.372 L2211.43 307.821 L2223.24 307.821 L2223.24 289.372 M2222.01 285.298 L2227.89 285.298 L2227.89 307.821 L2232.82 307.821 L2232.82 311.709 L2227.89 311.709 L2227.89 319.858 L2223.24 319.858 L2223.24 311.709 L2207.64 311.709 L2207.64 307.196 L2222.01 285.298 Z" fill="#000000" fill-rule="evenodd" fill-opacity="1" /></svg>
