<?xml version="1.0" encoding="utf-8"?>
<svg xmlns="http://www.w3.org/2000/svg" xmlns:xlink="http://www.w3.org/1999/xlink" width="600" height="400" viewBox="0 0 2400 1600">
<defs>
  <clipPath id="clip580">
    <rect x="0" y="0" width="2400" height="1600"/>
  </clipPath>
</defs>
<path clip-path="url(#clip580)" d="
M0 1600 L2400 1600 L2400 0 L0 0  Z
  " fill="#ffffff" fill-rule="evenodd" fill-opacity="1"/>
<defs>
  <clipPath id="clip581">
    <rect x="480" y="0" width="1681" height="1600"/>
  </clipPath>
</defs>
<path clip-path="url(#clip580)" d="
M156.112 1486.45 L2352.76 1486.45 L2352.76 47.2441 L156.112 47.2441  Z
  " fill="#ffffff" fill-rule="evenodd" fill-opacity="1"/>
<defs>
  <clipPath id="clip582">
    <rect x="156" y="47" width="2198" height="1440"/>
  </clipPath>
</defs>
<polyline clip-path="url(#clip582)" style="stroke:#000000; stroke-linecap:butt; stroke-linejoin:round; stroke-width:2; stroke-opacity:0.1; fill:none" points="
  218.281,1486.45 218.281,47.2441 
  "/>
<polyline clip-path="url(#clip582)" style="stroke:#000000; stroke-linecap:butt; stroke-linejoin:round; stroke-width:2; stroke-opacity:0.1; fill:none" points="
  736.358,1486.45 736.358,47.2441 
  "/>
<polyline clip-path="url(#clip582)" style="stroke:#000000; stroke-linecap:butt; stroke-linejoin:round; stroke-width:2; stroke-opacity:0.1; fill:none" points="
  1254.43,1486.45 1254.43,47.2441 
  "/>
<polyline clip-path="url(#clip582)" style="stroke:#000000; stroke-linecap:butt; stroke-linejoin:round; stroke-width:2; stroke-opacity:0.1; fill:none" points="
  1772.51,1486.45 1772.51,47.2441 
  "/>
<polyline clip-path="url(#clip582)" style="stroke:#000000; stroke-linecap:butt; stroke-linejoin:round; stroke-width:2; stroke-opacity:0.1; fill:none" points="
  2290.59,1486.45 2290.59,47.2441 
  "/>
<polyline clip-path="url(#clip580)" style="stroke:#000000; stroke-linecap:butt; stroke-linejoin:round; stroke-width:4; stroke-opacity:1; fill:none" points="
  156.112,1486.45 2352.76,1486.45 
  "/>
<polyline clip-path="url(#clip580)" style="stroke:#000000; stroke-linecap:butt; stroke-linejoin:round; stroke-width:4; stroke-opacity:1; fill:none" points="
  218.281,1486.45 218.281,1467.55 
  "/>
<polyline clip-path="url(#clip580)" style="stroke:#000000; stroke-linecap:butt; stroke-linejoin:round; stroke-width:4; stroke-opacity:1; fill:none" points="
  736.358,1486.45 736.358,1467.55 
  "/>
<polyline clip-path="url(#clip580)" style="stroke:#000000; stroke-linecap:butt; stroke-linejoin:round; stroke-width:4; stroke-opacity:1; fill:none" points="
  1254.43,1486.45 1254.43,1467.55 
  "/>
<polyline clip-path="url(#clip580)" style="stroke:#000000; stroke-linecap:butt; stroke-linejoin:round; stroke-width:4; stroke-opacity:1; fill:none" points="
  1772.51,1486.45 1772.51,1467.55 
  "/>
<polyline clip-path="url(#clip580)" style="stroke:#000000; stroke-linecap:butt; stroke-linejoin:round; stroke-width:4; stroke-opacity:1; fill:none" points="
  2290.59,1486.45 2290.59,1467.55 
  "/>
<path clip-path="url(#clip580)" d="M164.809 1530.29 L194.485 1530.29 L194.485 1534.23 L164.809 1534.23 L164.809 1530.29 Z" fill="#000000" fill-rule="evenodd" fill-opacity="1" /><path clip-path="url(#clip580)" d="M205.388 1543.18 L213.027 1543.18 L213.027 1516.82 L204.717 1518.49 L204.717 1514.23 L212.98 1512.56 L217.656 1512.56 L217.656 1543.18 L225.295 1543.18 L225.295 1547.12 L205.388 1547.12 L205.388 1543.18 Z" fill="#000000" fill-rule="evenodd" fill-opacity="1" /><path clip-path="url(#clip580)" d="M234.74 1541.24 L239.624 1541.24 L239.624 1547.12 L234.74 1547.12 L234.74 1541.24 Z" fill="#000000" fill-rule="evenodd" fill-opacity="1" /><path clip-path="url(#clip580)" d="M259.809 1515.64 Q256.198 1515.64 254.369 1519.2 Q252.564 1522.75 252.564 1529.87 Q252.564 1536.98 254.369 1540.55 Q256.198 1544.09 259.809 1544.09 Q263.443 1544.09 265.249 1540.55 Q267.077 1536.98 267.077 1529.87 Q267.077 1522.75 265.249 1519.2 Q263.443 1515.64 259.809 1515.64 M259.809 1511.93 Q265.619 1511.93 268.675 1516.54 Q271.753 1521.12 271.753 1529.87 Q271.753 1538.6 268.675 1543.21 Q265.619 1547.79 259.809 1547.79 Q253.999 1547.79 250.92 1543.21 Q247.864 1538.6 247.864 1529.87 Q247.864 1521.12 250.92 1516.54 Q253.999 1511.93 259.809 1511.93 Z" fill="#000000" fill-rule="evenodd" fill-opacity="1" /><path clip-path="url(#clip580)" d="M683.383 1530.29 L713.059 1530.29 L713.059 1534.23 L683.383 1534.23 L683.383 1530.29 Z" fill="#000000" fill-rule="evenodd" fill-opacity="1" /><path clip-path="url(#clip580)" d="M733.152 1515.64 Q729.541 1515.64 727.712 1519.2 Q725.906 1522.75 725.906 1529.87 Q725.906 1536.98 727.712 1540.55 Q729.541 1544.09 733.152 1544.09 Q736.786 1544.09 738.591 1540.55 Q740.42 1536.98 740.42 1529.87 Q740.42 1522.75 738.591 1519.2 Q736.786 1515.64 733.152 1515.64 M733.152 1511.93 Q738.962 1511.93 742.017 1516.54 Q745.096 1521.12 745.096 1529.87 Q745.096 1538.6 742.017 1543.21 Q738.962 1547.79 733.152 1547.79 Q727.341 1547.79 724.263 1543.21 Q721.207 1538.6 721.207 1529.87 Q721.207 1521.12 724.263 1516.54 Q727.341 1511.93 733.152 1511.93 Z" fill="#000000" fill-rule="evenodd" fill-opacity="1" /><path clip-path="url(#clip580)" d="M753.314 1541.24 L758.198 1541.24 L758.198 1547.12 L753.314 1547.12 L753.314 1541.24 Z" fill="#000000" fill-rule="evenodd" fill-opacity="1" /><path clip-path="url(#clip580)" d="M768.429 1512.56 L786.786 1512.56 L786.786 1516.5 L772.712 1516.5 L772.712 1524.97 Q773.73 1524.62 774.749 1524.46 Q775.767 1524.27 776.786 1524.27 Q782.573 1524.27 785.952 1527.44 Q789.332 1530.62 789.332 1536.03 Q789.332 1541.61 785.86 1544.71 Q782.387 1547.79 776.068 1547.79 Q773.892 1547.79 771.624 1547.42 Q769.378 1547.05 766.971 1546.31 L766.971 1541.61 Q769.054 1542.74 771.276 1543.3 Q773.499 1543.86 775.975 1543.86 Q779.98 1543.86 782.318 1541.75 Q784.656 1539.64 784.656 1536.03 Q784.656 1532.42 782.318 1530.31 Q779.98 1528.21 775.975 1528.21 Q774.101 1528.21 772.226 1528.62 Q770.374 1529.04 768.429 1529.92 L768.429 1512.56 Z" fill="#000000" fill-rule="evenodd" fill-opacity="1" /><path clip-path="url(#clip580)" d="M1231.82 1515.64 Q1228.21 1515.64 1226.38 1519.2 Q1224.57 1522.75 1224.57 1529.87 Q1224.57 1536.98 1226.38 1540.55 Q1228.21 1544.09 1231.82 1544.09 Q1235.45 1544.09 1237.26 1540.55 Q1239.09 1536.98 1239.09 1529.87 Q1239.09 1522.75 1237.26 1519.2 Q1235.45 1515.64 1231.82 1515.64 M1231.82 1511.93 Q1237.63 1511.93 1240.68 1516.54 Q1243.76 1521.12 1243.76 1529.87 Q1243.76 1538.6 1240.68 1543.21 Q1237.63 1547.79 1231.82 1547.79 Q1226.01 1547.79 1222.93 1543.21 Q1219.87 1538.6 1219.87 1529.87 Q1219.87 1521.12 1222.93 1516.54 Q1226.01 1511.93 1231.82 1511.93 Z" fill="#000000" fill-rule="evenodd" fill-opacity="1" /><path clip-path="url(#clip580)" d="M1251.98 1541.24 L1256.86 1541.24 L1256.86 1547.12 L1251.98 1547.12 L1251.98 1541.24 Z" fill="#000000" fill-rule="evenodd" fill-opacity="1" /><path clip-path="url(#clip580)" d="M1277.05 1515.64 Q1273.44 1515.64 1271.61 1519.2 Q1269.8 1522.75 1269.8 1529.87 Q1269.8 1536.98 1271.61 1540.55 Q1273.44 1544.09 1277.05 1544.09 Q1280.68 1544.09 1282.49 1540.55 Q1284.32 1536.98 1284.32 1529.87 Q1284.32 1522.75 1282.49 1519.2 Q1280.68 1515.64 1277.05 1515.64 M1277.05 1511.93 Q1282.86 1511.93 1285.92 1516.54 Q1288.99 1521.12 1288.99 1529.87 Q1288.99 1538.6 1285.92 1543.21 Q1282.86 1547.79 1277.05 1547.79 Q1271.24 1547.79 1268.16 1543.21 Q1265.11 1538.6 1265.11 1529.87 Q1265.11 1521.12 1268.16 1516.54 Q1271.24 1511.93 1277.05 1511.93 Z" fill="#000000" fill-rule="evenodd" fill-opacity="1" /><path clip-path="url(#clip580)" d="M1750.39 1515.64 Q1746.78 1515.64 1744.95 1519.2 Q1743.15 1522.75 1743.15 1529.87 Q1743.15 1536.98 1744.95 1540.55 Q1746.78 1544.09 1750.39 1544.09 Q1754.03 1544.09 1755.83 1540.55 Q1757.66 1536.98 1757.66 1529.87 Q1757.66 1522.75 1755.83 1519.2 Q1754.03 1515.64 1750.39 1515.64 M1750.39 1511.93 Q1756.2 1511.93 1759.26 1516.54 Q1762.34 1521.12 1762.34 1529.87 Q1762.34 1538.6 1759.26 1543.21 Q1756.2 1547.79 1750.39 1547.79 Q1744.58 1547.79 1741.5 1543.21 Q1738.45 1538.6 1738.45 1529.87 Q1738.45 1521.12 1741.5 1516.54 Q1744.58 1511.93 1750.39 1511.93 Z" fill="#000000" fill-rule="evenodd" fill-opacity="1" /><path clip-path="url(#clip580)" d="M1770.55 1541.24 L1775.44 1541.24 L1775.44 1547.12 L1770.55 1547.12 L1770.55 1541.24 Z" fill="#000000" fill-rule="evenodd" fill-opacity="1" /><path clip-path="url(#clip580)" d="M1785.67 1512.56 L1804.03 1512.56 L1804.03 1516.5 L1789.95 1516.5 L1789.95 1524.97 Q1790.97 1524.62 1791.99 1524.46 Q1793.01 1524.27 1794.03 1524.27 Q1799.81 1524.27 1803.19 1527.44 Q1806.57 1530.62 1806.57 1536.03 Q1806.57 1541.61 1803.1 1544.71 Q1799.63 1547.79 1793.31 1547.79 Q1791.13 1547.79 1788.86 1547.42 Q1786.62 1547.05 1784.21 1546.31 L1784.21 1541.61 Q1786.3 1542.74 1788.52 1543.3 Q1790.74 1543.86 1793.22 1543.86 Q1797.22 1543.86 1799.56 1541.75 Q1801.9 1539.64 1801.9 1536.03 Q1801.9 1532.42 1799.56 1530.31 Q1797.22 1528.21 1793.22 1528.21 Q1791.34 1528.21 1789.47 1528.62 Q1787.61 1529.04 1785.67 1529.92 L1785.67 1512.56 Z" fill="#000000" fill-rule="evenodd" fill-opacity="1" /><path clip-path="url(#clip580)" d="M2257.74 1543.18 L2265.38 1543.18 L2265.38 1516.82 L2257.07 1518.49 L2257.07 1514.23 L2265.33 1512.56 L2270.01 1512.56 L2270.01 1543.18 L2277.65 1543.18 L2277.65 1547.12 L2257.74 1547.12 L2257.74 1543.18 Z" fill="#000000" fill-rule="evenodd" fill-opacity="1" /><path clip-path="url(#clip580)" d="M2287.09 1541.24 L2291.98 1541.24 L2291.98 1547.12 L2287.09 1547.12 L2287.09 1541.24 Z" fill="#000000" fill-rule="evenodd" fill-opacity="1" /><path clip-path="url(#clip580)" d="M2312.16 1515.64 Q2308.55 1515.64 2306.72 1519.2 Q2304.92 1522.75 2304.92 1529.87 Q2304.92 1536.98 2306.72 1540.55 Q2308.55 1544.09 2312.16 1544.09 Q2315.79 1544.09 2317.6 1540.55 Q2319.43 1536.98 2319.43 1529.87 Q2319.43 1522.75 2317.6 1519.2 Q2315.79 1515.64 2312.16 1515.64 M2312.16 1511.93 Q2317.97 1511.93 2321.03 1516.54 Q2324.11 1521.12 2324.11 1529.87 Q2324.11 1538.6 2321.03 1543.21 Q2317.97 1547.79 2312.16 1547.79 Q2306.35 1547.79 2303.27 1543.21 Q2300.22 1538.6 2300.22 1529.87 Q2300.22 1521.12 2303.27 1516.54 Q2306.35 1511.93 2312.16 1511.93 Z" fill="#000000" fill-rule="evenodd" fill-opacity="1" /><polyline clip-path="url(#clip582)" style="stroke:#000000; stroke-linecap:butt; stroke-linejoin:round; stroke-width:2; stroke-opacity:0.1; fill:none" points="
  156.112,1445.72 2352.76,1445.72 
  "/>
<polyline clip-path="url(#clip582)" style="stroke:#000000; stroke-linecap:butt; stroke-linejoin:round; stroke-width:2; stroke-opacity:0.1; fill:none" points="
  156.112,1106.28 2352.76,1106.28 
  "/>
<polyline clip-path="url(#clip582)" style="stroke:#000000; stroke-linecap:butt; stroke-linejoin:round; stroke-width:2; stroke-opacity:0.1; fill:none" points="
  156.112,766.846 2352.76,766.846 
  "/>
<polyline clip-path="url(#clip582)" style="stroke:#000000; stroke-linecap:butt; stroke-linejoin:round; stroke-width:2; stroke-opacity:0.1; fill:none" points="
  156.112,427.411 2352.76,427.411 
  "/>
<polyline clip-path="url(#clip582)" style="stroke:#000000; stroke-linecap:butt; stroke-linejoin:round; stroke-width:2; stroke-opacity:0.1; fill:none" points="
  156.112,87.9763 2352.76,87.9763 
  "/>
<polyline clip-path="url(#clip580)" style="stroke:#000000; stroke-linecap:butt; stroke-linejoin:round; stroke-width:4; stroke-opacity:1; fill:none" points="
  156.112,1486.45 156.112,47.2441 
  "/>
<polyline clip-path="url(#clip580)" style="stroke:#000000; stroke-linecap:butt; stroke-linejoin:round; stroke-width:4; stroke-opacity:1; fill:none" points="
  156.112,1445.72 175.01,1445.72 
  "/>
<polyline clip-path="url(#clip580)" style="stroke:#000000; stroke-linecap:butt; stroke-linejoin:round; stroke-width:4; stroke-opacity:1; fill:none" points="
  156.112,1106.28 175.01,1106.28 
  "/>
<polyline clip-path="url(#clip580)" style="stroke:#000000; stroke-linecap:butt; stroke-linejoin:round; stroke-width:4; stroke-opacity:1; fill:none" points="
  156.112,766.846 175.01,766.846 
  "/>
<polyline clip-path="url(#clip580)" style="stroke:#000000; stroke-linecap:butt; stroke-linejoin:round; stroke-width:4; stroke-opacity:1; fill:none" points="
  156.112,427.411 175.01,427.411 
  "/>
<polyline clip-path="url(#clip580)" style="stroke:#000000; stroke-linecap:butt; stroke-linejoin:round; stroke-width:4; stroke-opacity:1; fill:none" points="
  156.112,87.9763 175.01,87.9763 
  "/>
<path clip-path="url(#clip580)" d="M62.9365 1431.51 Q59.3254 1431.51 57.4967 1435.08 Q55.6912 1438.62 55.6912 1445.75 Q55.6912 1452.86 57.4967 1456.42 Q59.3254 1459.96 62.9365 1459.96 Q66.5707 1459.96 68.3763 1456.42 Q70.205 1452.86 70.205 1445.75 Q70.205 1438.62 68.3763 1435.08 Q66.5707 1431.51 62.9365 1431.51 M62.9365 1427.81 Q68.7467 1427.81 71.8022 1432.42 Q74.8809 1437 74.8809 1445.75 Q74.8809 1454.48 71.8022 1459.08 Q68.7467 1463.67 62.9365 1463.67 Q57.1264 1463.67 54.0477 1459.08 Q50.9921 1454.48 50.9921 1445.75 Q50.9921 1437 54.0477 1432.42 Q57.1264 1427.81 62.9365 1427.81 Z" fill="#000000" fill-rule="evenodd" fill-opacity="1" /><path clip-path="url(#clip580)" d="M83.0984 1457.12 L87.9827 1457.12 L87.9827 1463 L83.0984 1463 L83.0984 1457.12 Z" fill="#000000" fill-rule="evenodd" fill-opacity="1" /><path clip-path="url(#clip580)" d="M108.168 1431.51 Q104.557 1431.51 102.728 1435.08 Q100.922 1438.62 100.922 1445.75 Q100.922 1452.86 102.728 1456.42 Q104.557 1459.96 108.168 1459.96 Q111.802 1459.96 113.608 1456.42 Q115.436 1452.86 115.436 1445.75 Q115.436 1438.62 113.608 1435.08 Q111.802 1431.51 108.168 1431.51 M108.168 1427.81 Q113.978 1427.81 117.033 1432.42 Q120.112 1437 120.112 1445.75 Q120.112 1454.48 117.033 1459.08 Q113.978 1463.67 108.168 1463.67 Q102.358 1463.67 99.2789 1459.08 Q96.2234 1454.48 96.2234 1445.75 Q96.2234 1437 99.2789 1432.42 Q102.358 1427.81 108.168 1427.81 Z" fill="#000000" fill-rule="evenodd" fill-opacity="1" /><path clip-path="url(#clip580)" d="M63.9319 1092.08 Q60.3208 1092.08 58.4921 1095.64 Q56.6865 1099.19 56.6865 1106.32 Q56.6865 1113.42 58.4921 1116.99 Q60.3208 1120.53 63.9319 1120.53 Q67.5661 1120.53 69.3717 1116.99 Q71.2004 1113.42 71.2004 1106.32 Q71.2004 1099.19 69.3717 1095.64 Q67.5661 1092.08 63.9319 1092.08 M63.9319 1088.38 Q69.742 1088.38 72.7976 1092.98 Q75.8763 1097.57 75.8763 1106.32 Q75.8763 1115.04 72.7976 1119.65 Q69.742 1124.23 63.9319 1124.23 Q58.1217 1124.23 55.043 1119.65 Q51.9875 1115.04 51.9875 1106.32 Q51.9875 1097.57 55.043 1092.98 Q58.1217 1088.38 63.9319 1088.38 Z" fill="#000000" fill-rule="evenodd" fill-opacity="1" /><path clip-path="url(#clip580)" d="M84.0938 1117.68 L88.978 1117.68 L88.978 1123.56 L84.0938 1123.56 L84.0938 1117.68 Z" fill="#000000" fill-rule="evenodd" fill-opacity="1" /><path clip-path="url(#clip580)" d="M99.2095 1089 L117.566 1089 L117.566 1092.94 L103.492 1092.94 L103.492 1101.41 Q104.51 1101.06 105.529 1100.9 Q106.547 1100.71 107.566 1100.71 Q113.353 1100.71 116.733 1103.89 Q120.112 1107.06 120.112 1112.47 Q120.112 1118.05 116.64 1121.15 Q113.168 1124.23 106.848 1124.23 Q104.672 1124.23 102.404 1123.86 Q100.159 1123.49 97.7511 1122.75 L97.7511 1118.05 Q99.8345 1119.19 102.057 1119.74 Q104.279 1120.3 106.756 1120.3 Q110.76 1120.3 113.098 1118.19 Q115.436 1116.08 115.436 1112.47 Q115.436 1108.86 113.098 1106.76 Q110.76 1104.65 106.756 1104.65 Q104.881 1104.65 103.006 1105.07 Q101.154 1105.48 99.2095 1106.36 L99.2095 1089 Z" fill="#000000" fill-rule="evenodd" fill-opacity="1" /><path clip-path="url(#clip580)" d="M53.7467 780.191 L61.3856 780.191 L61.3856 753.825 L53.0754 755.492 L53.0754 751.233 L61.3393 749.566 L66.0152 749.566 L66.0152 780.191 L73.654 780.191 L73.654 784.126 L53.7467 784.126 L53.7467 780.191 Z" fill="#000000" fill-rule="evenodd" fill-opacity="1" /><path clip-path="url(#clip580)" d="M83.0984 778.246 L87.9827 778.246 L87.9827 784.126 L83.0984 784.126 L83.0984 778.246 Z" fill="#000000" fill-rule="evenodd" fill-opacity="1" /><path clip-path="url(#clip580)" d="M108.168 752.645 Q104.557 752.645 102.728 756.209 Q100.922 759.751 100.922 766.881 Q100.922 773.987 102.728 777.552 Q104.557 781.094 108.168 781.094 Q111.802 781.094 113.608 777.552 Q115.436 773.987 115.436 766.881 Q115.436 759.751 113.608 756.209 Q111.802 752.645 108.168 752.645 M108.168 748.941 Q113.978 748.941 117.033 753.547 Q120.112 758.131 120.112 766.881 Q120.112 775.608 117.033 780.214 Q113.978 784.797 108.168 784.797 Q102.358 784.797 99.2789 780.214 Q96.2234 775.608 96.2234 766.881 Q96.2234 758.131 99.2789 753.547 Q102.358 748.941 108.168 748.941 Z" fill="#000000" fill-rule="evenodd" fill-opacity="1" /><path clip-path="url(#clip580)" d="M54.7421 440.756 L62.381 440.756 L62.381 414.39 L54.0708 416.057 L54.0708 411.798 L62.3347 410.131 L67.0106 410.131 L67.0106 440.756 L74.6494 440.756 L74.6494 444.691 L54.7421 444.691 L54.7421 440.756 Z" fill="#000000" fill-rule="evenodd" fill-opacity="1" /><path clip-path="url(#clip580)" d="M84.0938 438.812 L88.978 438.812 L88.978 444.691 L84.0938 444.691 L84.0938 438.812 Z" fill="#000000" fill-rule="evenodd" fill-opacity="1" /><path clip-path="url(#clip580)" d="M99.2095 410.131 L117.566 410.131 L117.566 414.066 L103.492 414.066 L103.492 422.538 Q104.51 422.191 105.529 422.029 Q106.547 421.844 107.566 421.844 Q113.353 421.844 116.733 425.015 Q120.112 428.187 120.112 433.603 Q120.112 439.182 116.64 442.284 Q113.168 445.362 106.848 445.362 Q104.672 445.362 102.404 444.992 Q100.159 444.622 97.7511 443.881 L97.7511 439.182 Q99.8345 440.316 102.057 440.872 Q104.279 441.427 106.756 441.427 Q110.76 441.427 113.098 439.321 Q115.436 437.214 115.436 433.603 Q115.436 429.992 113.098 427.886 Q110.76 425.779 106.756 425.779 Q104.881 425.779 103.006 426.196 Q101.154 426.613 99.2095 427.492 L99.2095 410.131 Z" fill="#000000" fill-rule="evenodd" fill-opacity="1" /><path clip-path="url(#clip580)" d="M56.9643 101.321 L73.2837 101.321 L73.2837 105.256 L51.3393 105.256 L51.3393 101.321 Q54.0014 98.5665 58.5847 93.9369 Q63.1911 89.2841 64.3717 87.9416 Q66.617 85.4184 67.4967 83.6823 Q68.3994 81.9231 68.3994 80.2333 Q68.3994 77.4786 66.455 75.7425 Q64.5337 74.0064 61.4319 74.0064 Q59.2328 74.0064 56.7791 74.7703 Q54.3486 75.5342 51.5708 77.0851 L51.5708 72.3629 Q54.3949 71.2287 56.8486 70.65 Q59.3023 70.0713 61.3393 70.0713 Q66.7096 70.0713 69.9041 72.7565 Q73.0985 75.4416 73.0985 79.9323 Q73.0985 82.062 72.2883 83.9832 Q71.5013 85.8814 69.3948 88.474 Q68.8161 89.1453 65.7143 92.3628 Q62.6124 95.5573 56.9643 101.321 Z" fill="#000000" fill-rule="evenodd" fill-opacity="1" /><path clip-path="url(#clip580)" d="M83.0984 99.3767 L87.9827 99.3767 L87.9827 105.256 L83.0984 105.256 L83.0984 99.3767 Z" fill="#000000" fill-rule="evenodd" fill-opacity="1" /><path clip-path="url(#clip580)" d="M108.168 73.775 Q104.557 73.775 102.728 77.3398 Q100.922 80.8814 100.922 88.011 Q100.922 95.1174 102.728 98.6822 Q104.557 102.224 108.168 102.224 Q111.802 102.224 113.608 98.6822 Q115.436 95.1174 115.436 88.011 Q115.436 80.8814 113.608 77.3398 Q111.802 73.775 108.168 73.775 M108.168 70.0713 Q113.978 70.0713 117.033 74.6777 Q120.112 79.261 120.112 88.011 Q120.112 96.7378 117.033 101.344 Q113.978 105.928 108.168 105.928 Q102.358 105.928 99.2789 101.344 Q96.2234 96.7378 96.2234 88.011 Q96.2234 79.261 99.2789 74.6777 Q102.358 70.0713 108.168 70.0713 Z" fill="#000000" fill-rule="evenodd" fill-opacity="1" /><polyline clip-path="url(#clip582)" style="stroke:#009af9; stroke-linecap:butt; stroke-linejoin:round; stroke-width:4; stroke-opacity:1; fill:none" points="
  218.281,1445.72 327.35,1374.26 436.419,1302.8 545.487,1231.34 654.556,1159.88 763.625,1088.42 872.694,1016.96 981.762,945.496 1090.83,874.036 1199.9,802.576 
  1308.97,731.116 1418.04,659.656 1527.11,588.196 1636.17,516.736 1745.24,445.276 1854.31,373.816 1963.38,302.356 2072.45,230.896 2181.52,159.436 2290.59,87.9763 
  
  "/>
<circle clip-path="url(#clip582)" cx="218.281" cy="1445.72" r="14" fill="#009af9" fill-rule="evenodd" fill-opacity="1" stroke="#000000" stroke-opacity="1" stroke-width="3.2"/>
<circle clip-path="url(#clip582)" cx="327.35" cy="1374.26" r="14" fill="#009af9" fill-rule="evenodd" fill-opacity="1" stroke="#000000" stroke-opacity="1" stroke-width="3.2"/>
<circle clip-path="url(#clip582)" cx="436.419" cy="1302.8" r="14" fill="#009af9" fill-rule="evenodd" fill-opacity="1" stroke="#000000" stroke-opacity="1" stroke-width="3.2"/>
<circle clip-path="url(#clip582)" cx="545.487" cy="1231.34" r="14" fill="#009af9" fill-rule="evenodd" fill-opacity="1" stroke="#000000" stroke-opacity="1" stroke-width="3.2"/>
<circle clip-path="url(#clip582)" cx="654.556" cy="1159.88" r="14" fill="#009af9" fill-rule="evenodd" fill-opacity="1" stroke="#000000" stroke-opacity="1" stroke-width="3.2"/>
<circle clip-path="url(#clip582)" cx="763.625" cy="1088.42" r="14" fill="#009af9" fill-rule="evenodd" fill-opacity="1" stroke="#000000" stroke-opacity="1" stroke-width="3.2"/>
<circle clip-path="url(#clip582)" cx="872.694" cy="1016.96" r="14" fill="#009af9" fill-rule="evenodd" fill-opacity="1" stroke="#000000" stroke-opacity="1" stroke-width="3.2"/>
<circle clip-path="url(#clip582)" cx="981.762" cy="945.496" r="14" fill="#009af9" fill-rule="evenodd" fill-opacity="1" stroke="#000000" stroke-opacity="1" stroke-width="3.2"/>
<circle clip-path="url(#clip582)" cx="1090.83" cy="874.036" r="14" fill="#009af9" fill-rule="evenodd" fill-opacity="1" stroke="#000000" stroke-opacity="1" stroke-width="3.2"/>
<circle clip-path="url(#clip582)" cx="1199.9" cy="802.576" r="14" fill="#009af9" fill-rule="evenodd" fill-opacity="1" stroke="#000000" stroke-opacity="1" stroke-width="3.2"/>
<circle clip-path="url(#clip582)" cx="1308.97" cy="731.116" r="14" fill="#009af9" fill-rule="evenodd" fill-opacity="1" stroke="#000000" stroke-opacity="1" stroke-width="3.2"/>
<circle clip-path="url(#clip582)" cx="1418.04" cy="659.656" r="14" fill="#009af9" fill-rule="evenodd" fill-opacity="1" stroke="#000000" stroke-opacity="1" stroke-width="3.2"/>
<circle clip-path="url(#clip582)" cx="1527.11" cy="588.196" r="14" fill="#009af9" fill-rule="evenodd" fill-opacity="1" stroke="#000000" stroke-opacity="1" stroke-width="3.2"/>
<circle clip-path="url(#clip582)" cx="1636.17" cy="516.736" r="14" fill="#009af9" fill-rule="evenodd" fill-opacity="1" stroke="#000000" stroke-opacity="1" stroke-width="3.2"/>
<circle clip-path="url(#clip582)" cx="1745.24" cy="445.276" r="14" fill="#009af9" fill-rule="evenodd" fill-opacity="1" stroke="#000000" stroke-opacity="1" stroke-width="3.2"/>
<circle clip-path="url(#clip582)" cx="1854.31" cy="373.816" r="14" fill="#009af9" fill-rule="evenodd" fill-opacity="1" stroke="#000000" stroke-opacity="1" stroke-width="3.2"/>
<circle clip-path="url(#clip582)" cx="1963.38" cy="302.356" r="14" fill="#009af9" fill-rule="evenodd" fill-opacity="1" stroke="#000000" stroke-opacity="1" stroke-width="3.2"/>
<circle clip-path="url(#clip582)" cx="2072.45" cy="230.896" r="14" fill="#009af9" fill-rule="evenodd" fill-opacity="1" stroke="#000000" stroke-opacity="1" stroke-width="3.2"/>
<circle clip-path="url(#clip582)" cx="2181.52" cy="159.436" r="14" fill="#009af9" fill-rule="evenodd" fill-opacity="1" stroke="#000000" stroke-opacity="1" stroke-width="3.2"/>
<circle clip-path="url(#clip582)" cx="2290.59" cy="87.9763" r="14" fill="#009af9" fill-rule="evenodd" fill-opacity="1" stroke="#000000" stroke-opacity="1" stroke-width="3.2"/>
<polyline clip-path="url(#clip582)" style="stroke:#e26f46; stroke-linecap:butt; stroke-linejoin:round; stroke-width:4; stroke-opacity:1; fill:none" points="
  218.281,1445.72 327.35,1445.72 436.419,1445.72 545.487,1445.72 654.556,1445.72 763.625,1445.72 872.694,1445.72 981.762,1445.72 1090.83,1445.72 1199.9,1445.72 
  1308.97,1445.72 1418.04,1445.72 1527.11,1445.72 1636.17,1445.72 1745.24,1445.72 1854.31,1445.72 1963.38,1445.72 2072.45,1445.72 2181.52,1445.72 2290.59,766.846 
  
  "/>
<path clip-path="url(#clip582)" d="M202.281 1429.72 L202.281 1461.72 L234.281 1461.72 L234.281 1429.72 L202.281 1429.72 Z" fill="#e26f46" fill-rule="evenodd" fill-opacity="1" stroke="#000000" stroke-opacity="1" stroke-width="3.2"/>
<path clip-path="url(#clip582)" d="M311.35 1429.72 L311.35 1461.72 L343.35 1461.72 L343.35 1429.72 L311.35 1429.72 Z" fill="#e26f46" fill-rule="evenodd" fill-opacity="1" stroke="#000000" stroke-opacity="1" stroke-width="3.2"/>
<path clip-path="url(#clip582)" d="M420.419 1429.72 L420.419 1461.72 L452.419 1461.72 L452.419 1429.72 L420.419 1429.72 Z" fill="#e26f46" fill-rule="evenodd" fill-opacity="1" stroke="#000000" stroke-opacity="1" stroke-width="3.2"/>
<path clip-path="url(#clip582)" d="M529.487 1429.72 L529.487 1461.72 L561.487 1461.72 L561.487 1429.72 L529.487 1429.72 Z" fill="#e26f46" fill-rule="evenodd" fill-opacity="1" stroke="#000000" stroke-opacity="1" stroke-width="3.2"/>
<path clip-path="url(#clip582)" d="M638.556 1429.72 L638.556 1461.72 L670.556 1461.72 L670.556 1429.72 L638.556 1429.72 Z" fill="#e26f46" fill-rule="evenodd" fill-opacity="1" stroke="#000000" stroke-opacity="1" stroke-width="3.2"/>
<path clip-path="url(#clip582)" d="M747.625 1429.72 L747.625 1461.72 L779.625 1461.72 L779.625 1429.72 L747.625 1429.72 Z" fill="#e26f46" fill-rule="evenodd" fill-opacity="1" stroke="#000000" stroke-opacity="1" stroke-width="3.2"/>
<path clip-path="url(#clip582)" d="M856.694 1429.72 L856.694 1461.72 L888.694 1461.72 L888.694 1429.72 L856.694 1429.72 Z" fill="#e26f46" fill-rule="evenodd" fill-opacity="1" stroke="#000000" stroke-opacity="1" stroke-width="3.2"/>
<path clip-path="url(#clip582)" d="M965.762 1429.72 L965.762 1461.72 L997.762 1461.72 L997.762 1429.72 L965.762 1429.72 Z" fill="#e26f46" fill-rule="evenodd" fill-opacity="1" stroke="#000000" stroke-opacity="1" stroke-width="3.2"/>
<path clip-path="url(#clip582)" d="M1074.83 1429.72 L1074.83 1461.72 L1106.83 1461.72 L1106.83 1429.72 L1074.83 1429.72 Z" fill="#e26f46" fill-rule="evenodd" fill-opacity="1" stroke="#000000" stroke-opacity="1" stroke-width="3.2"/>
<path clip-path="url(#clip582)" d="M1183.9 1429.72 L1183.9 1461.72 L1215.9 1461.72 L1215.9 1429.72 L1183.9 1429.72 Z" fill="#e26f46" fill-rule="evenodd" fill-opacity="1" stroke="#000000" stroke-opacity="1" stroke-width="3.2"/>
<path clip-path="url(#clip582)" d="M1292.97 1429.72 L1292.97 1461.72 L1324.97 1461.72 L1324.97 1429.72 L1292.97 1429.72 Z" fill="#e26f46" fill-rule="evenodd" fill-opacity="1" stroke="#000000" stroke-opacity="1" stroke-width="3.2"/>
<path clip-path="url(#clip582)" d="M1402.04 1429.72 L1402.04 1461.72 L1434.04 1461.72 L1434.04 1429.72 L1402.04 1429.72 Z" fill="#e26f46" fill-rule="evenodd" fill-opacity="1" stroke="#000000" stroke-opacity="1" stroke-width="3.2"/>
<path clip-path="url(#clip582)" d="M1511.11 1429.72 L1511.11 1461.72 L1543.11 1461.72 L1543.11 1429.72 L1511.11 1429.72 Z" fill="#e26f46" fill-rule="evenodd" fill-opacity="1" stroke="#000000" stroke-opacity="1" stroke-width="3.2"/>
<path clip-path="url(#clip582)" d="M1620.17 1429.72 L1620.17 1461.72 L1652.17 1461.72 L1652.17 1429.72 L1620.17 1429.72 Z" fill="#e26f46" fill-rule="evenodd" fill-opacity="1" stroke="#000000" stroke-opacity="1" stroke-width="3.2"/>
<path clip-path="url(#clip582)" d="M1729.24 1429.72 L1729.24 1461.72 L1761.24 1461.72 L1761.24 1429.72 L1729.24 1429.72 Z" fill="#e26f46" fill-rule="evenodd" fill-opacity="1" stroke="#000000" stroke-opacity="1" stroke-width="3.2"/>
<path clip-path="url(#clip582)" d="M1838.31 1429.72 L1838.31 1461.72 L1870.31 1461.72 L1870.31 1429.72 L1838.31 1429.72 Z" fill="#e26f46" fill-rule="evenodd" fill-opacity="1" stroke="#000000" stroke-opacity="1" stroke-width="3.2"/>
<path clip-path="url(#clip582)" d="M1947.38 1429.72 L1947.38 1461.72 L1979.38 1461.72 L1979.38 1429.72 L1947.38 1429.72 Z" fill="#e26f46" fill-rule="evenodd" fill-opacity="1" stroke="#000000" stroke-opacity="1" stroke-width="3.2"/>
<path clip-path="url(#clip582)" d="M2056.45 1429.72 L2056.45 1461.72 L2088.45 1461.72 L2088.45 1429.72 L2056.45 1429.72 Z" fill="#e26f46" fill-rule="evenodd" fill-opacity="1" stroke="#000000" stroke-opacity="1" stroke-width="3.2"/>
<path clip-path="url(#clip582)" d="M2165.52 1429.72 L2165.52 1461.72 L2197.52 1461.72 L2197.52 1429.72 L2165.52 1429.72 Z" fill="#e26f46" fill-rule="evenodd" fill-opacity="1" stroke="#000000" stroke-opacity="1" stroke-width="3.2"/>
<path clip-path="url(#clip582)" d="M2274.59 750.846 L2274.59 782.846 L2306.59 782.846 L2306.59 750.846 L2274.59 750.846 Z" fill="#e26f46" fill-rule="evenodd" fill-opacity="1" stroke="#000000" stroke-opacity="1" stroke-width="3.2"/>
<polyline clip-path="url(#clip582)" style="stroke:#3da44d; stroke-linecap:butt; stroke-linejoin:round; stroke-width:4; stroke-opacity:1; fill:none" points="
  218.281,1445.72 327.35,1409.99 436.419,1374.26 545.487,1338.53 654.556,1302.8 763.625,1267.07 872.694,1231.34 981.762,1195.61 1090.83,1159.88 1199.9,1124.15 
  1308.97,1088.42 1418.04,1052.69 1527.11,1016.96 1636.17,981.226 1745.24,945.496 1854.31,909.766 1963.38,874.036 2072.45,838.306 2181.52,802.576 2290.59,766.846 
  
  "/>
<path clip-path="url(#clip582)" d="M218.281 1429.72 L214.521 1440.53 L203.065 1440.77 L212.201 1447.7 L208.873 1458.66 L218.281 1452.12 L227.689 1458.66 L224.361 1447.7 L233.497 1440.77 L222.041 1440.53 L218.281 1429.72 Z" fill="#3da44d" fill-rule="evenodd" fill-opacity="1" stroke="#000000" stroke-opacity="1" stroke-width="3.2"/>
<path clip-path="url(#clip582)" d="M327.35 1393.99 L323.59 1404.8 L312.134 1405.04 L321.27 1411.97 L317.942 1422.93 L327.35 1416.39 L336.758 1422.93 L333.43 1411.97 L342.566 1405.04 L331.11 1404.8 L327.35 1393.99 Z" fill="#3da44d" fill-rule="evenodd" fill-opacity="1" stroke="#000000" stroke-opacity="1" stroke-width="3.2"/>
<path clip-path="url(#clip582)" d="M436.419 1358.26 L432.659 1369.07 L421.203 1369.31 L430.339 1376.24 L427.011 1387.2 L436.419 1380.66 L445.827 1387.2 L442.499 1376.24 L451.635 1369.31 L440.179 1369.07 L436.419 1358.26 Z" fill="#3da44d" fill-rule="evenodd" fill-opacity="1" stroke="#000000" stroke-opacity="1" stroke-width="3.2"/>
<path clip-path="url(#clip582)" d="M545.487 1322.53 L541.727 1333.34 L530.271 1333.58 L539.407 1340.51 L536.079 1351.47 L545.487 1344.93 L554.895 1351.47 L551.567 1340.51 L560.703 1333.58 L549.247 1333.34 L545.487 1322.53 Z" fill="#3da44d" fill-rule="evenodd" fill-opacity="1" stroke="#000000" stroke-opacity="1" stroke-width="3.2"/>
<path clip-path="url(#clip582)" d="M654.556 1286.8 L650.796 1297.61 L639.34 1297.85 L648.476 1304.78 L645.148 1315.74 L654.556 1309.2 L663.964 1315.74 L660.636 1304.78 L669.772 1297.85 L658.316 1297.61 L654.556 1286.8 Z" fill="#3da44d" fill-rule="evenodd" fill-opacity="1" stroke="#000000" stroke-opacity="1" stroke-width="3.2"/>
<path clip-path="url(#clip582)" d="M763.625 1251.07 L759.865 1261.88 L748.409 1262.12 L757.545 1269.05 L754.217 1280.01 L763.625 1273.47 L773.033 1280.01 L769.705 1269.05 L778.841 1262.12 L767.385 1261.88 L763.625 1251.07 Z" fill="#3da44d" fill-rule="evenodd" fill-opacity="1" stroke="#000000" stroke-opacity="1" stroke-width="3.2"/>
<path clip-path="url(#clip582)" d="M872.694 1215.34 L868.934 1226.15 L857.478 1226.39 L866.614 1233.32 L863.286 1244.28 L872.694 1237.74 L882.102 1244.28 L878.774 1233.32 L887.91 1226.39 L876.454 1226.15 L872.694 1215.34 Z" fill="#3da44d" fill-rule="evenodd" fill-opacity="1" stroke="#000000" stroke-opacity="1" stroke-width="3.2"/>
<path clip-path="url(#clip582)" d="M981.762 1179.61 L978.002 1190.42 L966.546 1190.66 L975.682 1197.59 L972.354 1208.55 L981.762 1202.01 L991.17 1208.55 L987.842 1197.59 L996.978 1190.66 L985.522 1190.42 L981.762 1179.61 Z" fill="#3da44d" fill-rule="evenodd" fill-opacity="1" stroke="#000000" stroke-opacity="1" stroke-width="3.2"/>
<path clip-path="url(#clip582)" d="M1090.83 1143.88 L1087.07 1154.69 L1075.61 1154.93 L1084.75 1161.86 L1081.42 1172.82 L1090.83 1166.28 L1100.24 1172.82 L1096.91 1161.86 L1106.05 1154.93 L1094.59 1154.69 L1090.83 1143.88 Z" fill="#3da44d" fill-rule="evenodd" fill-opacity="1" stroke="#000000" stroke-opacity="1" stroke-width="3.2"/>
<path clip-path="url(#clip582)" d="M1199.9 1108.15 L1196.14 1118.96 L1184.68 1119.2 L1193.82 1126.13 L1190.49 1137.09 L1199.9 1130.55 L1209.31 1137.09 L1205.98 1126.13 L1215.12 1119.2 L1203.66 1118.96 L1199.9 1108.15 Z" fill="#3da44d" fill-rule="evenodd" fill-opacity="1" stroke="#000000" stroke-opacity="1" stroke-width="3.2"/>
<path clip-path="url(#clip582)" d="M1308.97 1072.42 L1305.21 1083.23 L1293.75 1083.47 L1302.89 1090.4 L1299.56 1101.36 L1308.97 1094.82 L1318.38 1101.36 L1315.05 1090.4 L1324.18 1083.47 L1312.73 1083.23 L1308.97 1072.42 Z" fill="#3da44d" fill-rule="evenodd" fill-opacity="1" stroke="#000000" stroke-opacity="1" stroke-width="3.2"/>
<path clip-path="url(#clip582)" d="M1418.04 1036.69 L1414.28 1047.5 L1402.82 1047.74 L1411.96 1054.67 L1408.63 1065.63 L1418.04 1059.09 L1427.45 1065.63 L1424.12 1054.67 L1433.25 1047.74 L1421.8 1047.5 L1418.04 1036.69 Z" fill="#3da44d" fill-rule="evenodd" fill-opacity="1" stroke="#000000" stroke-opacity="1" stroke-width="3.2"/>
<path clip-path="url(#clip582)" d="M1527.11 1000.96 L1523.35 1011.77 L1511.89 1012.01 L1521.03 1018.94 L1517.7 1029.9 L1527.11 1023.36 L1536.51 1029.9 L1533.19 1018.94 L1542.32 1012.01 L1530.87 1011.77 L1527.11 1000.96 Z" fill="#3da44d" fill-rule="evenodd" fill-opacity="1" stroke="#000000" stroke-opacity="1" stroke-width="3.2"/>
<path clip-path="url(#clip582)" d="M1636.17 965.226 L1632.41 976.042 L1620.96 976.282 L1630.09 983.21 L1626.77 994.17 L1636.17 987.626 L1645.58 994.17 L1642.25 983.21 L1651.39 976.282 L1639.93 976.042 L1636.17 965.226 Z" fill="#3da44d" fill-rule="evenodd" fill-opacity="1" stroke="#000000" stroke-opacity="1" stroke-width="3.2"/>
<path clip-path="url(#clip582)" d="M1745.24 929.496 L1741.48 940.312 L1730.03 940.552 L1739.16 947.48 L1735.84 958.44 L1745.24 951.896 L1754.65 958.44 L1751.32 947.48 L1760.46 940.552 L1749 940.312 L1745.24 929.496 Z" fill="#3da44d" fill-rule="evenodd" fill-opacity="1" stroke="#000000" stroke-opacity="1" stroke-width="3.2"/>
<path clip-path="url(#clip582)" d="M1854.31 893.766 L1850.55 904.582 L1839.1 904.822 L1848.23 911.75 L1844.9 922.71 L1854.31 916.166 L1863.72 922.71 L1860.39 911.75 L1869.53 904.822 L1858.07 904.582 L1854.31 893.766 Z" fill="#3da44d" fill-rule="evenodd" fill-opacity="1" stroke="#000000" stroke-opacity="1" stroke-width="3.2"/>
<path clip-path="url(#clip582)" d="M1963.38 858.036 L1959.62 868.852 L1948.16 869.092 L1957.3 876.02 L1953.97 886.98 L1963.38 880.436 L1972.79 886.98 L1969.46 876.02 L1978.6 869.092 L1967.14 868.852 L1963.38 858.036 Z" fill="#3da44d" fill-rule="evenodd" fill-opacity="1" stroke="#000000" stroke-opacity="1" stroke-width="3.2"/>
<path clip-path="url(#clip582)" d="M2072.45 822.306 L2068.69 833.122 L2057.23 833.362 L2066.37 840.29 L2063.04 851.25 L2072.45 844.706 L2081.86 851.25 L2078.53 840.29 L2087.67 833.362 L2076.21 833.122 L2072.45 822.306 Z" fill="#3da44d" fill-rule="evenodd" fill-opacity="1" stroke="#000000" stroke-opacity="1" stroke-width="3.2"/>
<path clip-path="url(#clip582)" d="M2181.52 786.576 L2177.76 797.392 L2166.3 797.632 L2175.44 804.56 L2172.11 815.52 L2181.52 808.976 L2190.93 815.52 L2187.6 804.56 L2196.73 797.632 L2185.28 797.392 L2181.52 786.576 Z" fill="#3da44d" fill-rule="evenodd" fill-opacity="1" stroke="#000000" stroke-opacity="1" stroke-width="3.2"/>
<path clip-path="url(#clip582)" d="M2290.59 750.846 L2286.83 761.662 L2275.37 761.902 L2284.51 768.83 L2281.18 779.79 L2290.59 773.246 L2299.99 779.79 L2296.67 768.83 L2305.8 761.902 L2294.35 761.662 L2290.59 750.846 Z" fill="#3da44d" fill-rule="evenodd" fill-opacity="1" stroke="#000000" stroke-opacity="1" stroke-width="3.2"/>
<polyline clip-path="url(#clip582)" style="stroke:#c271d2; stroke-linecap:butt; stroke-linejoin:round; stroke-width:4; stroke-opacity:1; fill:none" points="
  218.281,1445.72 327.35,1409.99 436.419,1374.26 545.487,1338.53 654.556,1302.8 763.625,1267.07 872.694,1231.34 981.762,1195.61 1090.83,1159.88 1199.9,1124.15 
  1308.97,1088.42 1418.04,1052.69 1527.11,1016.96 1636.17,981.226 1745.24,945.496 1854.31,909.766 1963.38,874.036 2072.45,838.306 2181.52,802.576 2290.59,766.846 
  
  "/>
<path clip-path="url(#clip582)" d="M218.281 1429.72 L202.281 1445.72 L218.281 1461.72 L234.281 1445.72 L218.281 1429.72 Z" fill="#c271d2" fill-rule="evenodd" fill-opacity="1" stroke="#000000" stroke-opacity="1" stroke-width="3.2"/>
<path clip-path="url(#clip582)" d="M327.35 1393.99 L311.35 1409.99 L327.35 1425.99 L343.35 1409.99 L327.35 1393.99 Z" fill="#c271d2" fill-rule="evenodd" fill-opacity="1" stroke="#000000" stroke-opacity="1" stroke-width="3.2"/>
<path clip-path="url(#clip582)" d="M436.419 1358.26 L420.419 1374.26 L436.419 1390.26 L452.419 1374.26 L436.419 1358.26 Z" fill="#c271d2" fill-rule="evenodd" fill-opacity="1" stroke="#000000" stroke-opacity="1" stroke-width="3.2"/>
<path clip-path="url(#clip582)" d="M545.487 1322.53 L529.487 1338.53 L545.487 1354.53 L561.487 1338.53 L545.487 1322.53 Z" fill="#c271d2" fill-rule="evenodd" fill-opacity="1" stroke="#000000" stroke-opacity="1" stroke-width="3.2"/>
<path clip-path="url(#clip582)" d="M654.556 1286.8 L638.556 1302.8 L654.556 1318.8 L670.556 1302.8 L654.556 1286.8 Z" fill="#c271d2" fill-rule="evenodd" fill-opacity="1" stroke="#000000" stroke-opacity="1" stroke-width="3.2"/>
<path clip-path="url(#clip582)" d="M763.625 1251.07 L747.625 1267.07 L763.625 1283.07 L779.625 1267.07 L763.625 1251.07 Z" fill="#c271d2" fill-rule="evenodd" fill-opacity="1" stroke="#000000" stroke-opacity="1" stroke-width="3.2"/>
<path clip-path="url(#clip582)" d="M872.694 1215.34 L856.694 1231.34 L872.694 1247.34 L888.694 1231.34 L872.694 1215.34 Z" fill="#c271d2" fill-rule="evenodd" fill-opacity="1" stroke="#000000" stroke-opacity="1" stroke-width="3.2"/>
<path clip-path="url(#clip582)" d="M981.762 1179.61 L965.762 1195.61 L981.762 1211.61 L997.762 1195.61 L981.762 1179.61 Z" fill="#c271d2" fill-rule="evenodd" fill-opacity="1" stroke="#000000" stroke-opacity="1" stroke-width="3.2"/>
<path clip-path="url(#clip582)" d="M1090.83 1143.88 L1074.83 1159.88 L1090.83 1175.88 L1106.83 1159.88 L1090.83 1143.88 Z" fill="#c271d2" fill-rule="evenodd" fill-opacity="1" stroke="#000000" stroke-opacity="1" stroke-width="3.2"/>
<path clip-path="url(#clip582)" d="M1199.9 1108.15 L1183.9 1124.15 L1199.9 1140.15 L1215.9 1124.15 L1199.9 1108.15 Z" fill="#c271d2" fill-rule="evenodd" fill-opacity="1" stroke="#000000" stroke-opacity="1" stroke-width="3.2"/>
<path clip-path="url(#clip582)" d="M1308.97 1072.42 L1292.97 1088.42 L1308.97 1104.42 L1324.97 1088.42 L1308.97 1072.42 Z" fill="#c271d2" fill-rule="evenodd" fill-opacity="1" stroke="#000000" stroke-opacity="1" stroke-width="3.2"/>
<path clip-path="url(#clip582)" d="M1418.04 1036.69 L1402.04 1052.69 L1418.04 1068.69 L1434.04 1052.69 L1418.04 1036.69 Z" fill="#c271d2" fill-rule="evenodd" fill-opacity="1" stroke="#000000" stroke-opacity="1" stroke-width="3.2"/>
<path clip-path="url(#clip582)" d="M1527.11 1000.96 L1511.11 1016.96 L1527.11 1032.96 L1543.11 1016.96 L1527.11 1000.96 Z" fill="#c271d2" fill-rule="evenodd" fill-opacity="1" stroke="#000000" stroke-opacity="1" stroke-width="3.2"/>
<path clip-path="url(#clip582)" d="M1636.17 965.226 L1620.17 981.226 L1636.17 997.226 L1652.17 981.226 L1636.17 965.226 Z" fill="#c271d2" fill-rule="evenodd" fill-opacity="1" stroke="#000000" stroke-opacity="1" stroke-width="3.2"/>
<path clip-path="url(#clip582)" d="M1745.24 929.496 L1729.24 945.496 L1745.24 961.496 L1761.24 945.496 L1745.24 929.496 Z" fill="#c271d2" fill-rule="evenodd" fill-opacity="1" stroke="#000000" stroke-opacity="1" stroke-width="3.2"/>
<path clip-path="url(#clip582)" d="M1854.31 893.766 L1838.31 909.766 L1854.31 925.766 L1870.31 909.766 L1854.31 893.766 Z" fill="#c271d2" fill-rule="evenodd" fill-opacity="1" stroke="#000000" stroke-opacity="1" stroke-width="3.2"/>
<path clip-path="url(#clip582)" d="M1963.38 858.036 L1947.38 874.036 L1963.38 890.036 L1979.38 874.036 L1963.38 858.036 Z" fill="#c271d2" fill-rule="evenodd" fill-opacity="1" stroke="#000000" stroke-opacity="1" stroke-width="3.2"/>
<path clip-path="url(#clip582)" d="M2072.45 822.306 L2056.45 838.306 L2072.45 854.306 L2088.45 838.306 L2072.45 822.306 Z" fill="#c271d2" fill-rule="evenodd" fill-opacity="1" stroke="#000000" stroke-opacity="1" stroke-width="3.2"/>
<path clip-path="url(#clip582)" d="M2181.52 786.576 L2165.52 802.576 L2181.52 818.576 L2197.52 802.576 L2181.52 786.576 Z" fill="#c271d2" fill-rule="evenodd" fill-opacity="1" stroke="#000000" stroke-opacity="1" stroke-width="3.2"/>
<path clip-path="url(#clip582)" d="M2290.59 750.846 L2274.59 766.846 L2290.59 782.846 L2306.59 766.846 L2290.59 750.846 Z" fill="#c271d2" fill-rule="evenodd" fill-opacity="1" stroke="#000000" stroke-opacity="1" stroke-width="3.2"/>
<polyline clip-path="url(#clip582)" style="stroke:#ac8d18; stroke-linecap:butt; stroke-linejoin:round; stroke-width:4; stroke-opacity:1; fill:none" points="
  218.281,1445.72 327.35,1409.99 436.419,1374.26 545.487,1338.53 654.556,1302.8 763.625,1267.07 872.694,1231.34 981.762,1195.61 1090.83,1159.88 1199.9,1124.15 
  1308.97,1088.42 1418.04,1052.69 1527.11,1016.96 1636.17,981.226 1745.24,945.496 1854.31,909.766 1963.38,874.036 2072.45,838.306 2181.52,802.576 2290.59,766.846 
  
  "/>
<path clip-path="url(#clip582)" d="M218.281 1461.72 L204.425 1453.72 L204.425 1437.72 L218.281 1429.72 L232.137 1437.72 L232.137 1453.72 Z" fill="#ac8d18" fill-rule="evenodd" fill-opacity="1" stroke="#000000" stroke-opacity="1" stroke-width="3.2"/>
<path clip-path="url(#clip582)" d="M327.35 1425.99 L313.494 1417.99 L313.494 1401.99 L327.35 1393.99 L341.206 1401.99 L341.206 1417.99 Z" fill="#ac8d18" fill-rule="evenodd" fill-opacity="1" stroke="#000000" stroke-opacity="1" stroke-width="3.2"/>
<path clip-path="url(#clip582)" d="M436.419 1390.26 L422.563 1382.26 L422.563 1366.26 L436.419 1358.26 L450.275 1366.26 L450.275 1382.26 Z" fill="#ac8d18" fill-rule="evenodd" fill-opacity="1" stroke="#000000" stroke-opacity="1" stroke-width="3.2"/>
<path clip-path="url(#clip582)" d="M545.487 1354.53 L531.631 1346.53 L531.631 1330.53 L545.487 1322.53 L559.343 1330.53 L559.343 1346.53 Z" fill="#ac8d18" fill-rule="evenodd" fill-opacity="1" stroke="#000000" stroke-opacity="1" stroke-width="3.2"/>
<path clip-path="url(#clip582)" d="M654.556 1318.8 L640.7 1310.8 L640.7 1294.8 L654.556 1286.8 L668.412 1294.8 L668.412 1310.8 Z" fill="#ac8d18" fill-rule="evenodd" fill-opacity="1" stroke="#000000" stroke-opacity="1" stroke-width="3.2"/>
<path clip-path="url(#clip582)" d="M763.625 1283.07 L749.769 1275.07 L749.769 1259.07 L763.625 1251.07 L777.481 1259.07 L777.481 1275.07 Z" fill="#ac8d18" fill-rule="evenodd" fill-opacity="1" stroke="#000000" stroke-opacity="1" stroke-width="3.2"/>
<path clip-path="url(#clip582)" d="M872.694 1247.34 L858.838 1239.34 L858.838 1223.34 L872.694 1215.34 L886.55 1223.34 L886.55 1239.34 Z" fill="#ac8d18" fill-rule="evenodd" fill-opacity="1" stroke="#000000" stroke-opacity="1" stroke-width="3.2"/>
<path clip-path="url(#clip582)" d="M981.762 1211.61 L967.906 1203.61 L967.906 1187.61 L981.762 1179.61 L995.618 1187.61 L995.618 1203.61 Z" fill="#ac8d18" fill-rule="evenodd" fill-opacity="1" stroke="#000000" stroke-opacity="1" stroke-width="3.2"/>
<path clip-path="url(#clip582)" d="M1090.83 1175.88 L1076.97 1167.88 L1076.97 1151.88 L1090.83 1143.88 L1104.69 1151.88 L1104.69 1167.88 Z" fill="#ac8d18" fill-rule="evenodd" fill-opacity="1" stroke="#000000" stroke-opacity="1" stroke-width="3.2"/>
<path clip-path="url(#clip582)" d="M1199.9 1140.15 L1186.04 1132.15 L1186.04 1116.15 L1199.9 1108.15 L1213.76 1116.15 L1213.76 1132.15 Z" fill="#ac8d18" fill-rule="evenodd" fill-opacity="1" stroke="#000000" stroke-opacity="1" stroke-width="3.2"/>
<path clip-path="url(#clip582)" d="M1308.97 1104.42 L1295.11 1096.42 L1295.11 1080.42 L1308.97 1072.42 L1322.82 1080.42 L1322.82 1096.42 Z" fill="#ac8d18" fill-rule="evenodd" fill-opacity="1" stroke="#000000" stroke-opacity="1" stroke-width="3.2"/>
<path clip-path="url(#clip582)" d="M1418.04 1068.69 L1404.18 1060.69 L1404.18 1044.69 L1418.04 1036.69 L1431.89 1044.69 L1431.89 1060.69 Z" fill="#ac8d18" fill-rule="evenodd" fill-opacity="1" stroke="#000000" stroke-opacity="1" stroke-width="3.2"/>
<path clip-path="url(#clip582)" d="M1527.11 1032.96 L1513.25 1024.96 L1513.25 1008.96 L1527.11 1000.96 L1540.96 1008.96 L1540.96 1024.96 Z" fill="#ac8d18" fill-rule="evenodd" fill-opacity="1" stroke="#000000" stroke-opacity="1" stroke-width="3.2"/>
<path clip-path="url(#clip582)" d="M1636.17 997.226 L1622.32 989.226 L1622.32 973.226 L1636.17 965.226 L1650.03 973.226 L1650.03 989.226 Z" fill="#ac8d18" fill-rule="evenodd" fill-opacity="1" stroke="#000000" stroke-opacity="1" stroke-width="3.2"/>
<path clip-path="url(#clip582)" d="M1745.24 961.496 L1731.39 953.496 L1731.39 937.496 L1745.24 929.496 L1759.1 937.496 L1759.1 953.496 Z" fill="#ac8d18" fill-rule="evenodd" fill-opacity="1" stroke="#000000" stroke-opacity="1" stroke-width="3.2"/>
<path clip-path="url(#clip582)" d="M1854.31 925.766 L1840.46 917.766 L1840.46 901.766 L1854.31 893.766 L1868.17 901.766 L1868.17 917.766 Z" fill="#ac8d18" fill-rule="evenodd" fill-opacity="1" stroke="#000000" stroke-opacity="1" stroke-width="3.2"/>
<path clip-path="url(#clip582)" d="M1963.38 890.036 L1949.52 882.036 L1949.52 866.036 L1963.38 858.036 L1977.24 866.036 L1977.24 882.036 Z" fill="#ac8d18" fill-rule="evenodd" fill-opacity="1" stroke="#000000" stroke-opacity="1" stroke-width="3.2"/>
<path clip-path="url(#clip582)" d="M2072.45 854.306 L2058.59 846.306 L2058.59 830.306 L2072.45 822.306 L2086.31 830.306 L2086.31 846.306 Z" fill="#ac8d18" fill-rule="evenodd" fill-opacity="1" stroke="#000000" stroke-opacity="1" stroke-width="3.2"/>
<path clip-path="url(#clip582)" d="M2181.52 818.576 L2167.66 810.576 L2167.66 794.576 L2181.52 786.576 L2195.37 794.576 L2195.37 810.576 Z" fill="#ac8d18" fill-rule="evenodd" fill-opacity="1" stroke="#000000" stroke-opacity="1" stroke-width="3.2"/>
<path clip-path="url(#clip582)" d="M2290.59 782.846 L2276.73 774.846 L2276.73 758.846 L2290.59 750.846 L2304.44 758.846 L2304.44 774.846 Z" fill="#ac8d18" fill-rule="evenodd" fill-opacity="1" stroke="#000000" stroke-opacity="1" stroke-width="3.2"/>
<polyline clip-path="url(#clip582)" style="stroke:#00a9ad; stroke-linecap:butt; stroke-linejoin:round; stroke-width:4; stroke-opacity:1; fill:none" points="
  218.281,1445.72 327.35,1409.99 436.419,1374.26 545.487,1338.53 654.556,1302.8 763.625,1267.07 872.694,1231.34 981.762,1195.61 1090.83,1159.88 1199.9,1124.15 
  1308.97,1088.42 1418.04,1052.69 1527.11,1016.96 1636.17,981.226 1745.24,945.496 1854.31,909.766 1963.38,874.036 2072.45,838.306 2181.52,802.576 2290.59,766.846 
  
  "/>
<line clip-path="url(#clip582)" x1="218.281" y1="1445.72" x2="218.281" y2="1429.72" style="stroke:#00a9ad; stroke-width:3.2; stroke-opacity:1"/>
<line clip-path="url(#clip582)" x1="218.281" y1="1445.72" x2="202.281" y2="1445.72" style="stroke:#00a9ad; stroke-width:3.2; stroke-opacity:1"/>
<line clip-path="url(#clip582)" x1="218.281" y1="1445.72" x2="218.281" y2="1461.72" style="stroke:#00a9ad; stroke-width:3.2; stroke-opacity:1"/>
<line clip-path="url(#clip582)" x1="218.281" y1="1445.72" x2="234.281" y2="1445.72" style="stroke:#00a9ad; stroke-width:3.2; stroke-opacity:1"/>
<line clip-path="url(#clip582)" x1="327.35" y1="1409.99" x2="327.35" y2="1393.99" style="stroke:#00a9ad; stroke-width:3.2; stroke-opacity:1"/>
<line clip-path="url(#clip582)" x1="327.35" y1="1409.99" x2="311.35" y2="1409.99" style="stroke:#00a9ad; stroke-width:3.2; stroke-opacity:1"/>
<line clip-path="url(#clip582)" x1="327.35" y1="1409.99" x2="327.35" y2="1425.99" style="stroke:#00a9ad; stroke-width:3.2; stroke-opacity:1"/>
<line clip-path="url(#clip582)" x1="327.35" y1="1409.99" x2="343.35" y2="1409.99" style="stroke:#00a9ad; stroke-width:3.2; stroke-opacity:1"/>
<line clip-path="url(#clip582)" x1="436.419" y1="1374.26" x2="436.419" y2="1358.26" style="stroke:#00a9ad; stroke-width:3.2; stroke-opacity:1"/>
<line clip-path="url(#clip582)" x1="436.419" y1="1374.26" x2="420.419" y2="1374.26" style="stroke:#00a9ad; stroke-width:3.2; stroke-opacity:1"/>
<line clip-path="url(#clip582)" x1="436.419" y1="1374.26" x2="436.419" y2="1390.26" style="stroke:#00a9ad; stroke-width:3.2; stroke-opacity:1"/>
<line clip-path="url(#clip582)" x1="436.419" y1="1374.26" x2="452.419" y2="1374.26" style="stroke:#00a9ad; stroke-width:3.2; stroke-opacity:1"/>
<line clip-path="url(#clip582)" x1="545.487" y1="1338.53" x2="545.487" y2="1322.53" style="stroke:#00a9ad; stroke-width:3.2; stroke-opacity:1"/>
<line clip-path="url(#clip582)" x1="545.487" y1="1338.53" x2="529.487" y2="1338.53" style="stroke:#00a9ad; stroke-width:3.2; stroke-opacity:1"/>
<line clip-path="url(#clip582)" x1="545.487" y1="1338.53" x2="545.487" y2="1354.53" style="stroke:#00a9ad; stroke-width:3.2; stroke-opacity:1"/>
<line clip-path="url(#clip582)" x1="545.487" y1="1338.53" x2="561.487" y2="1338.53" style="stroke:#00a9ad; stroke-width:3.2; stroke-opacity:1"/>
<line clip-path="url(#clip582)" x1="654.556" y1="1302.8" x2="654.556" y2="1286.8" style="stroke:#00a9ad; stroke-width:3.2; stroke-opacity:1"/>
<line clip-path="url(#clip582)" x1="654.556" y1="1302.8" x2="638.556" y2="1302.8" style="stroke:#00a9ad; stroke-width:3.2; stroke-opacity:1"/>
<line clip-path="url(#clip582)" x1="654.556" y1="1302.8" x2="654.556" y2="1318.8" style="stroke:#00a9ad; stroke-width:3.2; stroke-opacity:1"/>
<line clip-path="url(#clip582)" x1="654.556" y1="1302.8" x2="670.556" y2="1302.8" style="stroke:#00a9ad; stroke-width:3.2; stroke-opacity:1"/>
<line clip-path="url(#clip582)" x1="763.625" y1="1267.07" x2="763.625" y2="1251.07" style="stroke:#00a9ad; stroke-width:3.2; stroke-opacity:1"/>
<line clip-path="url(#clip582)" x1="763.625" y1="1267.07" x2="747.625" y2="1267.07" style="stroke:#00a9ad; stroke-width:3.2; stroke-opacity:1"/>
<line clip-path="url(#clip582)" x1="763.625" y1="1267.07" x2="763.625" y2="1283.07" style="stroke:#00a9ad; stroke-width:3.2; stroke-opacity:1"/>
<line clip-path="url(#clip582)" x1="763.625" y1="1267.07" x2="779.625" y2="1267.07" style="stroke:#00a9ad; stroke-width:3.2; stroke-opacity:1"/>
<line clip-path="url(#clip582)" x1="872.694" y1="1231.34" x2="872.694" y2="1215.34" style="stroke:#00a9ad; stroke-width:3.2; stroke-opacity:1"/>
<line clip-path="url(#clip582)" x1="872.694" y1="1231.34" x2="856.694" y2="1231.34" style="stroke:#00a9ad; stroke-width:3.2; stroke-opacity:1"/>
<line clip-path="url(#clip582)" x1="872.694" y1="1231.34" x2="872.694" y2="1247.34" style="stroke:#00a9ad; stroke-width:3.2; stroke-opacity:1"/>
<line clip-path="url(#clip582)" x1="872.694" y1="1231.34" x2="888.694" y2="1231.34" style="stroke:#00a9ad; stroke-width:3.2; stroke-opacity:1"/>
<line clip-path="url(#clip582)" x1="981.762" y1="1195.61" x2="981.762" y2="1179.61" style="stroke:#00a9ad; stroke-width:3.2; stroke-opacity:1"/>
<line clip-path="url(#clip582)" x1="981.762" y1="1195.61" x2="965.762" y2="1195.61" style="stroke:#00a9ad; stroke-width:3.2; stroke-opacity:1"/>
<line clip-path="url(#clip582)" x1="981.762" y1="1195.61" x2="981.762" y2="1211.61" style="stroke:#00a9ad; stroke-width:3.2; stroke-opacity:1"/>
<line clip-path="url(#clip582)" x1="981.762" y1="1195.61" x2="997.762" y2="1195.61" style="stroke:#00a9ad; stroke-width:3.2; stroke-opacity:1"/>
<line clip-path="url(#clip582)" x1="1090.83" y1="1159.88" x2="1090.83" y2="1143.88" style="stroke:#00a9ad; stroke-width:3.2; stroke-opacity:1"/>
<line clip-path="url(#clip582)" x1="1090.83" y1="1159.88" x2="1074.83" y2="1159.88" style="stroke:#00a9ad; stroke-width:3.2; stroke-opacity:1"/>
<line clip-path="url(#clip582)" x1="1090.83" y1="1159.88" x2="1090.83" y2="1175.88" style="stroke:#00a9ad; stroke-width:3.2; stroke-opacity:1"/>
<line clip-path="url(#clip582)" x1="1090.83" y1="1159.88" x2="1106.83" y2="1159.88" style="stroke:#00a9ad; stroke-width:3.2; stroke-opacity:1"/>
<line clip-path="url(#clip582)" x1="1199.9" y1="1124.15" x2="1199.9" y2="1108.15" style="stroke:#00a9ad; stroke-width:3.2; stroke-opacity:1"/>
<line clip-path="url(#clip582)" x1="1199.9" y1="1124.15" x2="1183.9" y2="1124.15" style="stroke:#00a9ad; stroke-width:3.2; stroke-opacity:1"/>
<line clip-path="url(#clip582)" x1="1199.9" y1="1124.15" x2="1199.9" y2="1140.15" style="stroke:#00a9ad; stroke-width:3.2; stroke-opacity:1"/>
<line clip-path="url(#clip582)" x1="1199.9" y1="1124.15" x2="1215.9" y2="1124.15" style="stroke:#00a9ad; stroke-width:3.2; stroke-opacity:1"/>
<line clip-path="url(#clip582)" x1="1308.97" y1="1088.42" x2="1308.97" y2="1072.42" style="stroke:#00a9ad; stroke-width:3.2; stroke-opacity:1"/>
<line clip-path="url(#clip582)" x1="1308.97" y1="1088.42" x2="1292.97" y2="1088.42" style="stroke:#00a9ad; stroke-width:3.2; stroke-opacity:1"/>
<line clip-path="url(#clip582)" x1="1308.97" y1="1088.42" x2="1308.97" y2="1104.42" style="stroke:#00a9ad; stroke-width:3.2; stroke-opacity:1"/>
<line clip-path="url(#clip582)" x1="1308.97" y1="1088.42" x2="1324.97" y2="1088.42" style="stroke:#00a9ad; stroke-width:3.2; stroke-opacity:1"/>
<line clip-path="url(#clip582)" x1="1418.04" y1="1052.69" x2="1418.04" y2="1036.69" style="stroke:#00a9ad; stroke-width:3.2; stroke-opacity:1"/>
<line clip-path="url(#clip582)" x1="1418.04" y1="1052.69" x2="1402.04" y2="1052.69" style="stroke:#00a9ad; stroke-width:3.2; stroke-opacity:1"/>
<line clip-path="url(#clip582)" x1="1418.04" y1="1052.69" x2="1418.04" y2="1068.69" style="stroke:#00a9ad; stroke-width:3.2; stroke-opacity:1"/>
<line clip-path="url(#clip582)" x1="1418.04" y1="1052.69" x2="1434.04" y2="1052.69" style="stroke:#00a9ad; stroke-width:3.2; stroke-opacity:1"/>
<line clip-path="url(#clip582)" x1="1527.11" y1="1016.96" x2="1527.11" y2="1000.96" style="stroke:#00a9ad; stroke-width:3.2; stroke-opacity:1"/>
<line clip-path="url(#clip582)" x1="1527.11" y1="1016.96" x2="1511.11" y2="1016.96" style="stroke:#00a9ad; stroke-width:3.2; stroke-opacity:1"/>
<line clip-path="url(#clip582)" x1="1527.11" y1="1016.96" x2="1527.11" y2="1032.96" style="stroke:#00a9ad; stroke-width:3.2; stroke-opacity:1"/>
<line clip-path="url(#clip582)" x1="1527.11" y1="1016.96" x2="1543.11" y2="1016.96" style="stroke:#00a9ad; stroke-width:3.2; stroke-opacity:1"/>
<line clip-path="url(#clip582)" x1="1636.17" y1="981.226" x2="1636.17" y2="965.226" style="stroke:#00a9ad; stroke-width:3.2; stroke-opacity:1"/>
<line clip-path="url(#clip582)" x1="1636.17" y1="981.226" x2="1620.17" y2="981.226" style="stroke:#00a9ad; stroke-width:3.2; stroke-opacity:1"/>
<line clip-path="url(#clip582)" x1="1636.17" y1="981.226" x2="1636.17" y2="997.226" style="stroke:#00a9ad; stroke-width:3.2; stroke-opacity:1"/>
<line clip-path="url(#clip582)" x1="1636.17" y1="981.226" x2="1652.17" y2="981.226" style="stroke:#00a9ad; stroke-width:3.2; stroke-opacity:1"/>
<line clip-path="url(#clip582)" x1="1745.24" y1="945.496" x2="1745.24" y2="929.496" style="stroke:#00a9ad; stroke-width:3.2; stroke-opacity:1"/>
<line clip-path="url(#clip582)" x1="1745.24" y1="945.496" x2="1729.24" y2="945.496" style="stroke:#00a9ad; stroke-width:3.2; stroke-opacity:1"/>
<line clip-path="url(#clip582)" x1="1745.24" y1="945.496" x2="1745.24" y2="961.496" style="stroke:#00a9ad; stroke-width:3.2; stroke-opacity:1"/>
<line clip-path="url(#clip582)" x1="1745.24" y1="945.496" x2="1761.24" y2="945.496" style="stroke:#00a9ad; stroke-width:3.2; stroke-opacity:1"/>
<line clip-path="url(#clip582)" x1="1854.31" y1="909.766" x2="1854.31" y2="893.766" style="stroke:#00a9ad; stroke-width:3.2; stroke-opacity:1"/>
<line clip-path="url(#clip582)" x1="1854.31" y1="909.766" x2="1838.31" y2="909.766" style="stroke:#00a9ad; stroke-width:3.2; stroke-opacity:1"/>
<line clip-path="url(#clip582)" x1="1854.31" y1="909.766" x2="1854.31" y2="925.766" style="stroke:#00a9ad; stroke-width:3.2; stroke-opacity:1"/>
<line clip-path="url(#clip582)" x1="1854.31" y1="909.766" x2="1870.31" y2="909.766" style="stroke:#00a9ad; stroke-width:3.2; stroke-opacity:1"/>
<line clip-path="url(#clip582)" x1="1963.38" y1="874.036" x2="1963.38" y2="858.036" style="stroke:#00a9ad; stroke-width:3.2; stroke-opacity:1"/>
<line clip-path="url(#clip582)" x1="1963.38" y1="874.036" x2="1947.38" y2="874.036" style="stroke:#00a9ad; stroke-width:3.2; stroke-opacity:1"/>
<line clip-path="url(#clip582)" x1="1963.38" y1="874.036" x2="1963.38" y2="890.036" style="stroke:#00a9ad; stroke-width:3.2; stroke-opacity:1"/>
<line clip-path="url(#clip582)" x1="1963.38" y1="874.036" x2="1979.38" y2="874.036" style="stroke:#00a9ad; stroke-width:3.2; stroke-opacity:1"/>
<line clip-path="url(#clip582)" x1="2072.45" y1="838.306" x2="2072.45" y2="822.306" style="stroke:#00a9ad; stroke-width:3.2; stroke-opacity:1"/>
<line clip-path="url(#clip582)" x1="2072.45" y1="838.306" x2="2056.45" y2="838.306" style="stroke:#00a9ad; stroke-width:3.2; stroke-opacity:1"/>
<line clip-path="url(#clip582)" x1="2072.45" y1="838.306" x2="2072.45" y2="854.306" style="stroke:#00a9ad; stroke-width:3.2; stroke-opacity:1"/>
<line clip-path="url(#clip582)" x1="2072.45" y1="838.306" x2="2088.45" y2="838.306" style="stroke:#00a9ad; stroke-width:3.2; stroke-opacity:1"/>
<line clip-path="url(#clip582)" x1="2181.52" y1="802.576" x2="2181.52" y2="786.576" style="stroke:#00a9ad; stroke-width:3.2; stroke-opacity:1"/>
<line clip-path="url(#clip582)" x1="2181.52" y1="802.576" x2="2165.52" y2="802.576" style="stroke:#00a9ad; stroke-width:3.2; stroke-opacity:1"/>
<line clip-path="url(#clip582)" x1="2181.52" y1="802.576" x2="2181.52" y2="818.576" style="stroke:#00a9ad; stroke-width:3.2; stroke-opacity:1"/>
<line clip-path="url(#clip582)" x1="2181.52" y1="802.576" x2="2197.52" y2="802.576" style="stroke:#00a9ad; stroke-width:3.2; stroke-opacity:1"/>
<line clip-path="url(#clip582)" x1="2290.59" y1="766.846" x2="2290.59" y2="750.846" style="stroke:#00a9ad; stroke-width:3.2; stroke-opacity:1"/>
<line clip-path="url(#clip582)" x1="2290.59" y1="766.846" x2="2274.59" y2="766.846" style="stroke:#00a9ad; stroke-width:3.2; stroke-opacity:1"/>
<line clip-path="url(#clip582)" x1="2290.59" y1="766.846" x2="2290.59" y2="782.846" style="stroke:#00a9ad; stroke-width:3.2; stroke-opacity:1"/>
<line clip-path="url(#clip582)" x1="2290.59" y1="766.846" x2="2306.59" y2="766.846" style="stroke:#00a9ad; stroke-width:3.2; stroke-opacity:1"/>
<path clip-path="url(#clip580)" d="
M1981.32 458.098 L2279.53 458.098 L2279.53 95.2176 L1981.32 95.2176  Z
  " fill="#ffffff" fill-rule="evenodd" fill-opacity="1"/>
<polyline clip-path="url(#clip580)" style="stroke:#000000; stroke-linecap:butt; stroke-linejoin:round; stroke-width:4; stroke-opacity:1; fill:none" points="
  1981.32,458.098 2279.53,458.098 2279.53,95.2176 1981.32,95.2176 1981.32,458.098 
  "/>
<polyline clip-path="url(#clip580)" style="stroke:#009af9; stroke-linecap:butt; stroke-linejoin:round; stroke-width:4; stroke-opacity:1; fill:none" points="
  2005.73,147.058 2152.17,147.058 
  "/>
<circle clip-path="url(#clip580)" cx="2078.95" cy="147.058" r="23" fill="#009af9" fill-rule="evenodd" fill-opacity="1" stroke="#000000" stroke-opacity="1" stroke-width="5.12"/>
<path clip-path="url(#clip580)" d="M2190.42 166.745 Q2188.61 171.375 2186.9 172.787 Q2185.19 174.199 2182.32 174.199 L2178.91 174.199 L2178.91 170.634 L2181.41 170.634 Q2183.17 170.634 2184.15 169.8 Q2185.12 168.967 2186.3 165.865 L2187.06 163.921 L2176.58 138.412 L2181.09 138.412 L2189.19 158.689 L2197.29 138.412 L2201.81 138.412 L2190.42 166.745 Z" fill="#000000" fill-rule="evenodd" fill-opacity="1" /><path clip-path="url(#clip580)" d="M2209.1 160.402 L2216.74 160.402 L2216.74 134.037 L2208.43 135.703 L2208.43 131.444 L2216.69 129.778 L2221.37 129.778 L2221.37 160.402 L2229.01 160.402 L2229.01 164.338 L2209.1 164.338 L2209.1 160.402 Z" fill="#000000" fill-rule="evenodd" fill-opacity="1" /><polyline clip-path="url(#clip580)" style="stroke:#e26f46; stroke-linecap:butt; stroke-linejoin:round; stroke-width:4; stroke-opacity:1; fill:none" points="
  2005.73,198.898 2152.17,198.898 
  "/>
<path clip-path="url(#clip580)" d="M2053.35 173.298 L2053.35 224.498 L2104.55 224.498 L2104.55 173.298 L2053.35 173.298 Z" fill="#e26f46" fill-rule="evenodd" fill-opacity="1" stroke="#000000" stroke-opacity="1" stroke-width="5.12"/>
<path clip-path="url(#clip580)" d="M2190.42 218.585 Q2188.61 223.215 2186.9 224.627 Q2185.19 226.039 2182.32 226.039 L2178.91 226.039 L2178.91 222.474 L2181.41 222.474 Q2183.17 222.474 2184.15 221.64 Q2185.12 220.807 2186.3 217.705 L2187.06 215.761 L2176.58 190.252 L2181.09 190.252 L2189.19 210.529 L2197.29 190.252 L2201.81 190.252 L2190.42 218.585 Z" fill="#000000" fill-rule="evenodd" fill-opacity="1" /><path clip-path="url(#clip580)" d="M2212.32 212.242 L2228.64 212.242 L2228.64 216.178 L2206.69 216.178 L2206.69 212.242 Q2209.35 209.488 2213.94 204.858 Q2218.54 200.205 2219.72 198.863 Q2221.97 196.34 2222.85 194.604 Q2223.75 192.844 2223.75 191.155 Q2223.75 188.4 2221.81 186.664 Q2219.89 184.928 2216.79 184.928 Q2214.59 184.928 2212.13 185.692 Q2209.7 186.455 2206.92 188.006 L2206.92 183.284 Q2209.75 182.15 2212.2 181.571 Q2214.66 180.993 2216.69 180.993 Q2222.06 180.993 2225.26 183.678 Q2228.45 186.363 2228.45 190.854 Q2228.45 192.983 2227.64 194.905 Q2226.85 196.803 2224.75 199.395 Q2224.17 200.067 2221.07 203.284 Q2217.97 206.479 2212.32 212.242 Z" fill="#000000" fill-rule="evenodd" fill-opacity="1" /><polyline clip-path="url(#clip580)" style="stroke:#3da44d; stroke-linecap:butt; stroke-linejoin:round; stroke-width:4; stroke-opacity:1; fill:none" points="
  2005.73,250.738 2152.17,250.738 
  "/>
<path clip-path="url(#clip580)" d="M2078.95 225.138 L2072.93 242.443 L2054.6 242.827 L2069.22 253.912 L2063.9 271.448 L2078.95 260.978 L2094 271.448 L2088.68 253.912 L2103.29 242.827 L2084.96 242.443 L2078.95 225.138 Z" fill="#3da44d" fill-rule="evenodd" fill-opacity="1" stroke="#000000" stroke-opacity="1" stroke-width="5.12"/>
<path clip-path="url(#clip580)" d="M2190.42 270.425 Q2188.61 275.055 2186.9 276.467 Q2185.19 277.879 2182.32 277.879 L2178.91 277.879 L2178.91 274.314 L2181.41 274.314 Q2183.17 274.314 2184.15 273.48 Q2185.12 272.647 2186.3 269.545 L2187.06 267.601 L2176.58 242.092 L2181.09 242.092 L2189.19 262.369 L2197.29 242.092 L2201.81 242.092 L2190.42 270.425 Z" fill="#000000" fill-rule="evenodd" fill-opacity="1" /><path clip-path="url(#clip580)" d="M2222.46 249.383 Q2225.81 250.101 2227.69 252.369 Q2229.59 254.638 2229.59 257.971 Q2229.59 263.087 2226.07 265.888 Q2222.55 268.689 2216.07 268.689 Q2213.89 268.689 2211.58 268.249 Q2209.29 267.832 2206.83 266.976 L2206.83 262.462 Q2208.78 263.596 2211.09 264.175 Q2213.41 264.754 2215.93 264.754 Q2220.33 264.754 2222.62 263.018 Q2224.93 261.281 2224.93 257.971 Q2224.93 254.916 2222.78 253.203 Q2220.65 251.467 2216.83 251.467 L2212.8 251.467 L2212.8 247.624 L2217.02 247.624 Q2220.47 247.624 2222.29 246.258 Q2224.12 244.87 2224.12 242.277 Q2224.12 239.615 2222.22 238.203 Q2220.35 236.768 2216.83 236.768 Q2214.91 236.768 2212.71 237.184 Q2210.51 237.601 2207.87 238.481 L2207.87 234.314 Q2210.54 233.573 2212.85 233.203 Q2215.19 232.833 2217.25 232.833 Q2222.57 232.833 2225.67 235.263 Q2228.78 237.67 2228.78 241.791 Q2228.78 244.661 2227.13 246.652 Q2225.49 248.62 2222.46 249.383 Z" fill="#000000" fill-rule="evenodd" fill-opacity="1" /><polyline clip-path="url(#clip580)" style="stroke:#c271d2; stroke-linecap:butt; stroke-linejoin:round; stroke-width:4; stroke-opacity:1; fill:none" points="
  2005.73,302.578 2152.17,302.578 
  "/>
<path clip-path="url(#clip580)" d="M2078.95 276.978 L2053.35 302.578 L2078.95 328.178 L2104.55 302.578 L2078.95 276.978 Z" fill="#c271d2" fill-rule="evenodd" fill-opacity="1" stroke="#000000" stroke-opacity="1" stroke-width="5.12"/>
<path clip-path="url(#clip580)" d="M2190.42 322.265 Q2188.61 326.895 2186.9 328.307 Q2185.19 329.719 2182.32 329.719 L2178.91 329.719 L2178.91 326.154 L2181.41 326.154 Q2183.17 326.154 2184.15 325.32 Q2185.12 324.487 2186.3 321.385 L2187.06 319.441 L2176.58 293.932 L2181.09 293.932 L2189.19 314.209 L2197.29 293.932 L2201.81 293.932 L2190.42 322.265 Z" fill="#000000" fill-rule="evenodd" fill-opacity="1" /><path clip-path="url(#clip580)" d="M2221.14 289.372 L2209.33 307.821 L2221.14 307.821 L2221.14 289.372 M2219.91 285.298 L2225.79 285.298 L2225.79 307.821 L2230.72 307.821 L2230.72 311.709 L2225.79 311.709 L2225.79 319.858 L2221.14 319.858 L2221.14 311.709 L2205.54 311.709 L2205.54 307.196 L2219.91 285.298 Z" fill="#000000" fill-rule="evenodd" fill-opacity="1" /><polyline clip-path="url(#clip580)" style="stroke:#ac8d18; stroke-linecap:butt; stroke-linejoin:round; stroke-width:4; stroke-opacity:1; fill:none" points="
  2005.73,354.418 2152.17,354.418 
  "/>
<path clip-path="url(#clip580)" d="M2078.95 380.018 L2056.78 367.218 L2056.78 341.618 L2078.95 328.818 L2101.12 341.618 L2101.12 367.218 Z" fill="#ac8d18" fill-rule="evenodd" fill-opacity="1" stroke="#000000" stroke-opacity="1" stroke-width="5.12"/>
<path clip-path="url(#clip580)" d="M2190.42 374.105 Q2188.61 378.735 2186.9 380.147 Q2185.19 381.559 2182.32 381.559 L2178.91 381.559 L2178.91 377.994 L2181.41 377.994 Q2183.17 377.994 2184.15 377.16 Q2185.12 376.327 2186.3 373.225 L2187.06 371.281 L2176.58 345.772 L2181.09 345.772 L2189.19 366.049 L2197.29 345.772 L2201.81 345.772 L2190.42 374.105 Z" fill="#000000" fill-rule="evenodd" fill-opacity="1" /><path clip-path="url(#clip580)" d="M2208.34 337.138 L2226.69 337.138 L2226.69 341.073 L2212.62 341.073 L2212.62 349.545 Q2213.64 349.198 2214.66 349.036 Q2215.67 348.85 2216.69 348.85 Q2222.48 348.85 2225.86 352.022 Q2229.24 355.193 2229.24 360.61 Q2229.24 366.188 2225.77 369.29 Q2222.29 372.369 2215.97 372.369 Q2213.8 372.369 2211.53 371.998 Q2209.29 371.628 2206.88 370.887 L2206.88 366.188 Q2208.96 367.323 2211.18 367.878 Q2213.41 368.434 2215.88 368.434 Q2219.89 368.434 2222.22 366.327 Q2224.56 364.221 2224.56 360.61 Q2224.56 356.999 2222.22 354.892 Q2219.89 352.786 2215.88 352.786 Q2214.01 352.786 2212.13 353.202 Q2210.28 353.619 2208.34 354.499 L2208.34 337.138 Z" fill="#000000" fill-rule="evenodd" fill-opacity="1" /><polyline clip-path="url(#clip580)" style="stroke:#00a9ad; stroke-linecap:butt; stroke-linejoin:round; stroke-width:4; stroke-opacity:1; fill:none" points="
  2005.73,406.258 2152.17,406.258 
  "/>
<line clip-path="url(#clip580)" x1="2078.95" y1="406.258" x2="2078.95" y2="380.658" style="stroke:#00a9ad; stroke-width:3.2; stroke-opacity:1"/>
<line clip-path="url(#clip580)" x1="2078.95" y1="406.258" x2="2053.35" y2="406.258" style="stroke:#00a9ad; stroke-width:3.2; stroke-opacity:1"/>
<line clip-path="url(#clip580)" x1="2078.95" y1="406.258" x2="2078.95" y2="431.858" style="stroke:#00a9ad; stroke-width:3.2; stroke-opacity:1"/>
<line clip-path="url(#clip580)" x1="2078.95" y1="406.258" x2="2104.55" y2="406.258" style="stroke:#00a9ad; stroke-width:3.2; stroke-opacity:1"/>
<path clip-path="url(#clip580)" d="M2190.42 425.945 Q2188.61 430.575 2186.9 431.987 Q2185.19 433.399 2182.32 433.399 L2178.91 433.399 L2178.91 429.834 L2181.41 429.834 Q2183.17 429.834 2184.15 429 Q2185.12 428.167 2186.3 425.065 L2187.06 423.121 L2176.58 397.612 L2181.09 397.612 L2189.19 417.889 L2197.29 397.612 L2201.81 397.612 L2190.42 425.945 Z" fill="#000000" fill-rule="evenodd" fill-opacity="1" /><path clip-path="url(#clip580)" d="M2218.87 404.394 Q2215.72 404.394 2213.87 406.547 Q2212.04 408.7 2212.04 412.45 Q2212.04 416.176 2213.87 418.352 Q2215.72 420.505 2218.87 420.505 Q2222.02 420.505 2223.85 418.352 Q2225.7 416.176 2225.7 412.45 Q2225.7 408.7 2223.85 406.547 Q2222.02 404.394 2218.87 404.394 M2228.15 389.741 L2228.15 394.001 Q2226.39 393.167 2224.59 392.728 Q2222.8 392.288 2221.04 392.288 Q2216.41 392.288 2213.96 395.413 Q2211.53 398.538 2211.18 404.857 Q2212.55 402.843 2214.61 401.778 Q2216.67 400.69 2219.15 400.69 Q2224.35 400.69 2227.36 403.862 Q2230.4 407.01 2230.4 412.45 Q2230.4 417.774 2227.25 420.991 Q2224.1 424.209 2218.87 424.209 Q2212.87 424.209 2209.7 419.626 Q2206.53 415.019 2206.53 406.292 Q2206.53 398.098 2210.42 393.237 Q2214.31 388.353 2220.86 388.353 Q2222.62 388.353 2224.4 388.7 Q2226.21 389.047 2228.15 389.741 Z" fill="#000000" fill-rule="evenodd" fill-opacity="1" /></svg>
