<?xml version="1.0" encoding="utf-8"?>
<svg xmlns="http://www.w3.org/2000/svg" xmlns:xlink="http://www.w3.org/1999/xlink" width="600" height="400" viewBox="0 0 2400 1600">
<defs>
  <clipPath id="clip380">
    <rect x="0" y="0" width="2400" height="1600"/>
  </clipPath>
</defs>
<path clip-path="url(#clip380)" d="
M0 1600 L2400 1600 L2400 0 L0 0  Z
  " fill="#ffffff" fill-rule="evenodd" fill-opacity="1"/>
<defs>
  <clipPath id="clip381">
    <rect x="480" y="0" width="1681" height="1600"/>
  </clipPath>
</defs>
<path clip-path="url(#clip380)" d="
M156.598 1486.45 L2352.76 1486.45 L2352.76 47.2441 L156.598 47.2441  Z
  " fill="#ffffff" fill-rule="evenodd" fill-opacity="1"/>
<defs>
  <clipPath id="clip382">
    <rect x="156" y="47" width="2197" height="1440"/>
  </clipPath>
</defs>
<polyline clip-path="url(#clip382)" style="stroke:#000000; stroke-linecap:butt; stroke-linejoin:round; stroke-width:2; stroke-opacity:0.1; fill:none" points="
  477.734,1486.45 477.734,47.2441 
  "/>
<polyline clip-path="url(#clip382)" style="stroke:#000000; stroke-linecap:butt; stroke-linejoin:round; stroke-width:2; stroke-opacity:0.1; fill:none" points="
  866.206,1486.45 866.206,47.2441 
  "/>
<polyline clip-path="url(#clip382)" style="stroke:#000000; stroke-linecap:butt; stroke-linejoin:round; stroke-width:2; stroke-opacity:0.1; fill:none" points="
  1254.68,1486.45 1254.68,47.2441 
  "/>
<polyline clip-path="url(#clip382)" style="stroke:#000000; stroke-linecap:butt; stroke-linejoin:round; stroke-width:2; stroke-opacity:0.1; fill:none" points="
  1643.15,1486.45 1643.15,47.2441 
  "/>
<polyline clip-path="url(#clip382)" style="stroke:#000000; stroke-linecap:butt; stroke-linejoin:round; stroke-width:2; stroke-opacity:0.1; fill:none" points="
  2031.62,1486.45 2031.62,47.2441 
  "/>
<polyline clip-path="url(#clip380)" style="stroke:#000000; stroke-linecap:butt; stroke-linejoin:round; stroke-width:4; stroke-opacity:1; fill:none" points="
  156.598,1486.45 2352.76,1486.45 
  "/>
<polyline clip-path="url(#clip380)" style="stroke:#000000; stroke-linecap:butt; stroke-linejoin:round; stroke-width:4; stroke-opacity:1; fill:none" points="
  477.734,1486.45 477.734,1467.55 
  "/>
<polyline clip-path="url(#clip380)" style="stroke:#000000; stroke-linecap:butt; stroke-linejoin:round; stroke-width:4; stroke-opacity:1; fill:none" points="
  866.206,1486.45 866.206,1467.55 
  "/>
<polyline clip-path="url(#clip380)" style="stroke:#000000; stroke-linecap:butt; stroke-linejoin:round; stroke-width:4; stroke-opacity:1; fill:none" points="
  1254.68,1486.45 1254.68,1467.55 
  "/>
<polyline clip-path="url(#clip380)" style="stroke:#000000; stroke-linecap:butt; stroke-linejoin:round; stroke-width:4; stroke-opacity:1; fill:none" points="
  1643.15,1486.45 1643.15,1467.55 
  "/>
<polyline clip-path="url(#clip380)" style="stroke:#000000; stroke-linecap:butt; stroke-linejoin:round; stroke-width:4; stroke-opacity:1; fill:none" points="
  2031.62,1486.45 2031.62,1467.55 
  "/>
<path clip-path="url(#clip380)" d="M481.982 1530.21 Q485.339 1530.93 487.214 1533.2 Q489.112 1535.47 489.112 1538.8 Q489.112 1543.92 485.593 1546.72 Q482.075 1549.52 475.593 1549.52 Q473.417 1549.52 471.103 1549.08 Q468.811 1548.66 466.357 1547.81 L466.357 1543.29 Q468.302 1544.43 470.616 1545.01 Q472.931 1545.58 475.454 1545.58 Q479.853 1545.58 482.144 1543.85 Q484.459 1542.11 484.459 1538.8 Q484.459 1535.75 482.306 1534.03 Q480.177 1532.3 476.357 1532.3 L472.329 1532.3 L472.329 1528.45 L476.542 1528.45 Q479.991 1528.45 481.82 1527.09 Q483.649 1525.7 483.649 1523.11 Q483.649 1520.45 481.751 1519.03 Q479.876 1517.6 476.357 1517.6 Q474.436 1517.6 472.237 1518.01 Q470.038 1518.43 467.399 1519.31 L467.399 1515.14 Q470.061 1514.4 472.376 1514.03 Q474.714 1513.66 476.774 1513.66 Q482.098 1513.66 485.2 1516.09 Q488.302 1518.5 488.302 1522.62 Q488.302 1525.49 486.658 1527.48 Q485.015 1529.45 481.982 1530.21 Z" fill="#000000" fill-rule="evenodd" fill-opacity="1" /><path clip-path="url(#clip380)" d="M866.611 1529.7 Q863.463 1529.7 861.611 1531.86 Q859.782 1534.01 859.782 1537.76 Q859.782 1541.49 861.611 1543.66 Q863.463 1545.82 866.611 1545.82 Q869.759 1545.82 871.588 1543.66 Q873.44 1541.49 873.44 1537.76 Q873.44 1534.01 871.588 1531.86 Q869.759 1529.7 866.611 1529.7 M875.893 1515.05 L875.893 1519.31 Q874.134 1518.48 872.328 1518.04 Q870.546 1517.6 868.787 1517.6 Q864.157 1517.6 861.703 1520.72 Q859.273 1523.85 858.926 1530.17 Q860.291 1528.15 862.352 1527.09 Q864.412 1526 866.889 1526 Q872.097 1526 875.106 1529.17 Q878.139 1532.32 878.139 1537.76 Q878.139 1543.08 874.99 1546.3 Q871.842 1549.52 866.611 1549.52 Q860.616 1549.52 857.444 1544.94 Q854.273 1540.33 854.273 1531.6 Q854.273 1523.41 858.162 1518.55 Q862.051 1513.66 868.602 1513.66 Q870.361 1513.66 872.143 1514.01 Q873.949 1514.36 875.893 1515.05 Z" fill="#000000" fill-rule="evenodd" fill-opacity="1" /><path clip-path="url(#clip380)" d="M1244.98 1548.13 L1244.98 1543.87 Q1246.74 1544.7 1248.54 1545.14 Q1250.35 1545.58 1252.08 1545.58 Q1256.71 1545.58 1259.14 1542.48 Q1261.6 1539.36 1261.95 1533.01 Q1260.6 1535.01 1258.54 1536.07 Q1256.48 1537.13 1253.98 1537.13 Q1248.8 1537.13 1245.77 1534.01 Q1242.76 1530.86 1242.76 1525.42 Q1242.76 1520.1 1245.9 1516.88 Q1249.05 1513.66 1254.28 1513.66 Q1260.28 1513.66 1263.43 1518.27 Q1266.6 1522.85 1266.6 1531.6 Q1266.6 1539.77 1262.71 1544.66 Q1258.84 1549.52 1252.29 1549.52 Q1250.53 1549.52 1248.73 1549.17 Q1246.92 1548.82 1244.98 1548.13 M1254.28 1533.48 Q1257.43 1533.48 1259.26 1531.32 Q1261.11 1529.17 1261.11 1525.42 Q1261.11 1521.7 1259.26 1519.54 Q1257.43 1517.37 1254.28 1517.37 Q1251.14 1517.37 1249.28 1519.54 Q1247.45 1521.7 1247.45 1525.42 Q1247.45 1529.17 1249.28 1531.32 Q1251.14 1533.48 1254.28 1533.48 Z" fill="#000000" fill-rule="evenodd" fill-opacity="1" /><path clip-path="url(#clip380)" d="M1618.63 1544.91 L1626.27 1544.91 L1626.27 1518.55 L1617.96 1520.21 L1617.96 1515.95 L1626.23 1514.29 L1630.9 1514.29 L1630.9 1544.91 L1638.54 1544.91 L1638.54 1548.85 L1618.63 1548.85 L1618.63 1544.91 Z" fill="#000000" fill-rule="evenodd" fill-opacity="1" /><path clip-path="url(#clip380)" d="M1652.01 1544.91 L1668.33 1544.91 L1668.33 1548.85 L1646.39 1548.85 L1646.39 1544.91 Q1649.05 1542.16 1653.63 1537.53 Q1658.24 1532.88 1659.42 1531.53 Q1661.67 1529.01 1662.55 1527.27 Q1663.45 1525.51 1663.45 1523.82 Q1663.45 1521.07 1661.5 1519.33 Q1659.58 1517.6 1656.48 1517.6 Q1654.28 1517.6 1651.83 1518.36 Q1649.4 1519.13 1646.62 1520.68 L1646.62 1515.95 Q1649.44 1514.82 1651.9 1514.24 Q1654.35 1513.66 1656.39 1513.66 Q1661.76 1513.66 1664.95 1516.35 Q1668.15 1519.03 1668.15 1523.52 Q1668.15 1525.65 1667.34 1527.57 Q1666.55 1529.47 1664.44 1532.07 Q1663.87 1532.74 1660.76 1535.95 Q1657.66 1539.15 1652.01 1544.91 Z" fill="#000000" fill-rule="evenodd" fill-opacity="1" /><path clip-path="url(#clip380)" d="M2006.8 1544.91 L2014.44 1544.91 L2014.44 1518.55 L2006.13 1520.21 L2006.13 1515.95 L2014.4 1514.29 L2019.07 1514.29 L2019.07 1544.91 L2026.71 1544.91 L2026.71 1548.85 L2006.8 1548.85 L2006.8 1544.91 Z" fill="#000000" fill-rule="evenodd" fill-opacity="1" /><path clip-path="url(#clip380)" d="M2036.2 1514.29 L2054.56 1514.29 L2054.56 1518.22 L2040.49 1518.22 L2040.49 1526.7 Q2041.5 1526.35 2042.52 1526.19 Q2043.54 1526 2044.56 1526 Q2050.35 1526 2053.73 1529.17 Q2057.11 1532.34 2057.11 1537.76 Q2057.11 1543.34 2053.63 1546.44 Q2050.16 1549.52 2043.84 1549.52 Q2041.67 1549.52 2039.4 1549.15 Q2037.15 1548.78 2034.74 1548.04 L2034.74 1543.34 Q2036.83 1544.47 2039.05 1545.03 Q2041.27 1545.58 2043.75 1545.58 Q2047.75 1545.58 2050.09 1543.48 Q2052.43 1541.37 2052.43 1537.76 Q2052.43 1534.15 2050.09 1532.04 Q2047.75 1529.94 2043.75 1529.94 Q2041.87 1529.94 2040 1530.35 Q2038.15 1530.77 2036.2 1531.65 L2036.2 1514.29 Z" fill="#000000" fill-rule="evenodd" fill-opacity="1" /><polyline clip-path="url(#clip382)" style="stroke:#000000; stroke-linecap:butt; stroke-linejoin:round; stroke-width:2; stroke-opacity:0.1; fill:none" points="
  156.598,1445.72 2352.76,1445.72 
  "/>
<polyline clip-path="url(#clip382)" style="stroke:#000000; stroke-linecap:butt; stroke-linejoin:round; stroke-width:2; stroke-opacity:0.1; fill:none" points="
  156.598,1174.17 2352.76,1174.17 
  "/>
<polyline clip-path="url(#clip382)" style="stroke:#000000; stroke-linecap:butt; stroke-linejoin:round; stroke-width:2; stroke-opacity:0.1; fill:none" points="
  156.598,902.62 2352.76,902.62 
  "/>
<polyline clip-path="url(#clip382)" style="stroke:#000000; stroke-linecap:butt; stroke-linejoin:round; stroke-width:2; stroke-opacity:0.1; fill:none" points="
  156.598,631.072 2352.76,631.072 
  "/>
<polyline clip-path="url(#clip382)" style="stroke:#000000; stroke-linecap:butt; stroke-linejoin:round; stroke-width:2; stroke-opacity:0.1; fill:none" points="
  156.598,359.524 2352.76,359.524 
  "/>
<polyline clip-path="url(#clip382)" style="stroke:#000000; stroke-linecap:butt; stroke-linejoin:round; stroke-width:2; stroke-opacity:0.1; fill:none" points="
  156.598,87.9763 2352.76,87.9763 
  "/>
<polyline clip-path="url(#clip380)" style="stroke:#000000; stroke-linecap:butt; stroke-linejoin:round; stroke-width:4; stroke-opacity:1; fill:none" points="
  156.598,1486.45 156.598,47.2441 
  "/>
<polyline clip-path="url(#clip380)" style="stroke:#000000; stroke-linecap:butt; stroke-linejoin:round; stroke-width:4; stroke-opacity:1; fill:none" points="
  156.598,1445.72 175.496,1445.72 
  "/>
<polyline clip-path="url(#clip380)" style="stroke:#000000; stroke-linecap:butt; stroke-linejoin:round; stroke-width:4; stroke-opacity:1; fill:none" points="
  156.598,1174.17 175.496,1174.17 
  "/>
<polyline clip-path="url(#clip380)" style="stroke:#000000; stroke-linecap:butt; stroke-linejoin:round; stroke-width:4; stroke-opacity:1; fill:none" points="
  156.598,902.62 175.496,902.62 
  "/>
<polyline clip-path="url(#clip380)" style="stroke:#000000; stroke-linecap:butt; stroke-linejoin:round; stroke-width:4; stroke-opacity:1; fill:none" points="
  156.598,631.072 175.496,631.072 
  "/>
<polyline clip-path="url(#clip380)" style="stroke:#000000; stroke-linecap:butt; stroke-linejoin:round; stroke-width:4; stroke-opacity:1; fill:none" points="
  156.598,359.524 175.496,359.524 
  "/>
<polyline clip-path="url(#clip380)" style="stroke:#000000; stroke-linecap:butt; stroke-linejoin:round; stroke-width:4; stroke-opacity:1; fill:none" points="
  156.598,87.9763 175.496,87.9763 
  "/>
<path clip-path="url(#clip380)" d="M63.4226 1431.51 Q59.8115 1431.51 57.9828 1435.08 Q56.1773 1438.62 56.1773 1445.75 Q56.1773 1452.86 57.9828 1456.42 Q59.8115 1459.96 63.4226 1459.96 Q67.0569 1459.96 68.8624 1456.42 Q70.6911 1452.86 70.6911 1445.75 Q70.6911 1438.62 68.8624 1435.08 Q67.0569 1431.51 63.4226 1431.51 M63.4226 1427.81 Q69.2328 1427.81 72.2883 1432.42 Q75.367 1437 75.367 1445.75 Q75.367 1454.48 72.2883 1459.08 Q69.2328 1463.67 63.4226 1463.67 Q57.6125 1463.67 54.5338 1459.08 Q51.4782 1454.48 51.4782 1445.75 Q51.4782 1437 54.5338 1432.42 Q57.6125 1427.81 63.4226 1427.81 Z" fill="#000000" fill-rule="evenodd" fill-opacity="1" /><path clip-path="url(#clip380)" d="M83.5845 1457.12 L88.4688 1457.12 L88.4688 1463 L83.5845 1463 L83.5845 1457.12 Z" fill="#000000" fill-rule="evenodd" fill-opacity="1" /><path clip-path="url(#clip380)" d="M108.654 1431.51 Q105.043 1431.51 103.214 1435.08 Q101.409 1438.62 101.409 1445.75 Q101.409 1452.86 103.214 1456.42 Q105.043 1459.96 108.654 1459.96 Q112.288 1459.96 114.094 1456.42 Q115.922 1452.86 115.922 1445.75 Q115.922 1438.62 114.094 1435.08 Q112.288 1431.51 108.654 1431.51 M108.654 1427.81 Q114.464 1427.81 117.52 1432.42 Q120.598 1437 120.598 1445.75 Q120.598 1454.48 117.52 1459.08 Q114.464 1463.67 108.654 1463.67 Q102.844 1463.67 99.765 1459.08 Q96.7095 1454.48 96.7095 1445.75 Q96.7095 1437 99.765 1432.42 Q102.844 1427.81 108.654 1427.81 Z" fill="#000000" fill-rule="evenodd" fill-opacity="1" /><path clip-path="url(#clip380)" d="M64.6495 1159.97 Q61.0384 1159.97 59.2097 1163.53 Q57.4041 1167.07 57.4041 1174.2 Q57.4041 1181.31 59.2097 1184.87 Q61.0384 1188.42 64.6495 1188.42 Q68.2837 1188.42 70.0892 1184.87 Q71.9179 1181.31 71.9179 1174.2 Q71.9179 1167.07 70.0892 1163.53 Q68.2837 1159.97 64.6495 1159.97 M64.6495 1156.26 Q70.4596 1156.26 73.5152 1160.87 Q76.5938 1165.45 76.5938 1174.2 Q76.5938 1182.93 73.5152 1187.54 Q70.4596 1192.12 64.6495 1192.12 Q58.8393 1192.12 55.7606 1187.54 Q52.7051 1182.93 52.7051 1174.2 Q52.7051 1165.45 55.7606 1160.87 Q58.8393 1156.26 64.6495 1156.26 Z" fill="#000000" fill-rule="evenodd" fill-opacity="1" /><path clip-path="url(#clip380)" d="M84.8114 1185.57 L89.6956 1185.57 L89.6956 1191.45 L84.8114 1191.45 L84.8114 1185.57 Z" fill="#000000" fill-rule="evenodd" fill-opacity="1" /><path clip-path="url(#clip380)" d="M100.691 1187.51 L108.33 1187.51 L108.33 1161.15 L100.02 1162.81 L100.02 1158.55 L108.283 1156.89 L112.959 1156.89 L112.959 1187.51 L120.598 1187.51 L120.598 1191.45 L100.691 1191.45 L100.691 1187.51 Z" fill="#000000" fill-rule="evenodd" fill-opacity="1" /><path clip-path="url(#clip380)" d="M65.0198 888.419 Q61.4087 888.419 59.58 891.983 Q57.7745 895.525 57.7745 902.655 Q57.7745 909.761 59.58 913.326 Q61.4087 916.868 65.0198 916.868 Q68.6541 916.868 70.4596 913.326 Q72.2883 909.761 72.2883 902.655 Q72.2883 895.525 70.4596 891.983 Q68.6541 888.419 65.0198 888.419 M65.0198 884.715 Q70.83 884.715 73.8855 889.321 Q76.9642 893.905 76.9642 902.655 Q76.9642 911.381 73.8855 915.988 Q70.83 920.571 65.0198 920.571 Q59.2097 920.571 56.131 915.988 Q53.0754 911.381 53.0754 902.655 Q53.0754 893.905 56.131 889.321 Q59.2097 884.715 65.0198 884.715 Z" fill="#000000" fill-rule="evenodd" fill-opacity="1" /><path clip-path="url(#clip380)" d="M85.1818 914.02 L90.066 914.02 L90.066 919.9 L85.1818 919.9 L85.1818 914.02 Z" fill="#000000" fill-rule="evenodd" fill-opacity="1" /><path clip-path="url(#clip380)" d="M104.279 915.965 L120.598 915.965 L120.598 919.9 L98.6539 919.9 L98.6539 915.965 Q101.316 913.21 105.899 908.581 Q110.506 903.928 111.686 902.585 Q113.932 900.062 114.811 898.326 Q115.714 896.567 115.714 894.877 Q115.714 892.122 113.77 890.386 Q111.848 888.65 108.746 888.65 Q106.547 888.65 104.094 889.414 Q101.663 890.178 98.8854 891.729 L98.8854 887.007 Q101.709 885.872 104.163 885.294 Q106.617 884.715 108.654 884.715 Q114.024 884.715 117.219 887.4 Q120.413 890.085 120.413 894.576 Q120.413 896.706 119.603 898.627 Q118.816 900.525 116.709 903.118 Q116.131 903.789 113.029 907.006 Q109.927 910.201 104.279 915.965 Z" fill="#000000" fill-rule="evenodd" fill-opacity="1" /><path clip-path="url(#clip380)" d="M64.0708 616.871 Q60.4597 616.871 58.631 620.436 Q56.8254 623.977 56.8254 631.107 Q56.8254 638.213 58.631 641.778 Q60.4597 645.32 64.0708 645.32 Q67.705 645.32 69.5105 641.778 Q71.3392 638.213 71.3392 631.107 Q71.3392 623.977 69.5105 620.436 Q67.705 616.871 64.0708 616.871 M64.0708 613.167 Q69.8809 613.167 72.9365 617.774 Q76.0151 622.357 76.0151 631.107 Q76.0151 639.834 72.9365 644.44 Q69.8809 649.023 64.0708 649.023 Q58.2606 649.023 55.1819 644.44 Q52.1264 639.834 52.1264 631.107 Q52.1264 622.357 55.1819 617.774 Q58.2606 613.167 64.0708 613.167 Z" fill="#000000" fill-rule="evenodd" fill-opacity="1" /><path clip-path="url(#clip380)" d="M84.2327 642.472 L89.1169 642.472 L89.1169 648.352 L84.2327 648.352 L84.2327 642.472 Z" fill="#000000" fill-rule="evenodd" fill-opacity="1" /><path clip-path="url(#clip380)" d="M113.469 629.718 Q116.825 630.435 118.7 632.704 Q120.598 634.972 120.598 638.306 Q120.598 643.422 117.08 646.222 Q113.561 649.023 107.08 649.023 Q104.904 649.023 102.589 648.584 Q100.297 648.167 97.8437 647.31 L97.8437 642.797 Q99.7882 643.931 102.103 644.509 Q104.418 645.088 106.941 645.088 Q111.339 645.088 113.631 643.352 Q115.945 641.616 115.945 638.306 Q115.945 635.25 113.793 633.537 Q111.663 631.801 107.844 631.801 L103.816 631.801 L103.816 627.959 L108.029 627.959 Q111.478 627.959 113.307 626.593 Q115.135 625.204 115.135 622.611 Q115.135 619.949 113.237 618.537 Q111.362 617.102 107.844 617.102 Q105.922 617.102 103.723 617.519 Q101.524 617.936 98.8854 618.815 L98.8854 614.649 Q101.547 613.908 103.862 613.537 Q106.2 613.167 108.26 613.167 Q113.584 613.167 116.686 615.598 Q119.788 618.005 119.788 622.125 Q119.788 624.996 118.145 626.986 Q116.501 628.954 113.469 629.718 Z" fill="#000000" fill-rule="evenodd" fill-opacity="1" /><path clip-path="url(#clip380)" d="M62.9365 345.323 Q59.3254 345.323 57.4967 348.888 Q55.6912 352.429 55.6912 359.559 Q55.6912 366.665 57.4967 370.23 Q59.3254 373.772 62.9365 373.772 Q66.5707 373.772 68.3763 370.23 Q70.205 366.665 70.205 359.559 Q70.205 352.429 68.3763 348.888 Q66.5707 345.323 62.9365 345.323 M62.9365 341.619 Q68.7467 341.619 71.8022 346.226 Q74.8809 350.809 74.8809 359.559 Q74.8809 368.286 71.8022 372.892 Q68.7467 377.475 62.9365 377.475 Q57.1264 377.475 54.0477 372.892 Q50.9921 368.286 50.9921 359.559 Q50.9921 350.809 54.0477 346.226 Q57.1264 341.619 62.9365 341.619 Z" fill="#000000" fill-rule="evenodd" fill-opacity="1" /><path clip-path="url(#clip380)" d="M83.0984 370.925 L87.9827 370.925 L87.9827 376.804 L83.0984 376.804 L83.0984 370.925 Z" fill="#000000" fill-rule="evenodd" fill-opacity="1" /><path clip-path="url(#clip380)" d="M111.015 346.318 L99.2095 364.767 L111.015 364.767 L111.015 346.318 M109.788 342.244 L115.668 342.244 L115.668 364.767 L120.598 364.767 L120.598 368.656 L115.668 368.656 L115.668 376.804 L111.015 376.804 L111.015 368.656 L95.4132 368.656 L95.4132 364.142 L109.788 342.244 Z" fill="#000000" fill-rule="evenodd" fill-opacity="1" /><path clip-path="url(#clip380)" d="M64.418 73.775 Q60.8069 73.775 58.9782 77.3398 Q57.1726 80.8814 57.1726 88.011 Q57.1726 95.1174 58.9782 98.6822 Q60.8069 102.224 64.418 102.224 Q68.0522 102.224 69.8578 98.6822 Q71.6865 95.1174 71.6865 88.011 Q71.6865 80.8814 69.8578 77.3398 Q68.0522 73.775 64.418 73.775 M64.418 70.0713 Q70.2281 70.0713 73.2837 74.6777 Q76.3624 79.261 76.3624 88.011 Q76.3624 96.7378 73.2837 101.344 Q70.2281 105.928 64.418 105.928 Q58.6078 105.928 55.5291 101.344 Q52.4736 96.7378 52.4736 88.011 Q52.4736 79.261 55.5291 74.6777 Q58.6078 70.0713 64.418 70.0713 Z" fill="#000000" fill-rule="evenodd" fill-opacity="1" /><path clip-path="url(#clip380)" d="M84.5799 99.3767 L89.4641 99.3767 L89.4641 105.256 L84.5799 105.256 L84.5799 99.3767 Z" fill="#000000" fill-rule="evenodd" fill-opacity="1" /><path clip-path="url(#clip380)" d="M99.6956 70.6963 L118.052 70.6963 L118.052 74.6314 L103.978 74.6314 L103.978 83.1036 Q104.996 82.7564 106.015 82.5944 Q107.033 82.4092 108.052 82.4092 Q113.839 82.4092 117.219 85.5805 Q120.598 88.7517 120.598 94.1684 Q120.598 99.747 117.126 102.849 Q113.654 105.928 107.334 105.928 Q105.159 105.928 102.89 105.557 Q100.645 105.187 98.2372 104.446 L98.2372 99.747 Q100.321 100.881 102.543 101.437 Q104.765 101.992 107.242 101.992 Q111.246 101.992 113.584 99.8859 Q115.922 97.7795 115.922 94.1684 Q115.922 90.5573 113.584 88.4508 Q111.246 86.3443 107.242 86.3443 Q105.367 86.3443 103.492 86.761 Q101.64 87.1777 99.6956 88.0573 L99.6956 70.6963 Z" fill="#000000" fill-rule="evenodd" fill-opacity="1" /><polyline clip-path="url(#clip382)" style="stroke:#009af9; stroke-linecap:butt; stroke-linejoin:round; stroke-width:16; stroke-opacity:1; fill:none" points="
  218.754,1445.72 348.244,1221.39 477.734,851.705 607.225,554.754 736.715,427.411 866.206,320.309 995.696,172.835 1125.19,98.0969 1254.68,87.9763 1384.17,98.0969 
  1513.66,172.835 1643.15,320.309 1772.64,427.411 1902.13,554.754 2031.62,851.705 2161.11,1221.39 2290.6,1445.72 
  "/>
<circle clip-path="url(#clip382)" cx="218.754" cy="1445.72" r="14" fill="#009af9" fill-rule="evenodd" fill-opacity="1" stroke="#000000" stroke-opacity="1" stroke-width="3.2"/>
<circle clip-path="url(#clip382)" cx="348.244" cy="1221.39" r="14" fill="#009af9" fill-rule="evenodd" fill-opacity="1" stroke="#000000" stroke-opacity="1" stroke-width="3.2"/>
<circle clip-path="url(#clip382)" cx="477.734" cy="851.705" r="14" fill="#009af9" fill-rule="evenodd" fill-opacity="1" stroke="#000000" stroke-opacity="1" stroke-width="3.2"/>
<circle clip-path="url(#clip382)" cx="607.225" cy="554.754" r="14" fill="#009af9" fill-rule="evenodd" fill-opacity="1" stroke="#000000" stroke-opacity="1" stroke-width="3.2"/>
<circle clip-path="url(#clip382)" cx="736.715" cy="427.411" r="14" fill="#009af9" fill-rule="evenodd" fill-opacity="1" stroke="#000000" stroke-opacity="1" stroke-width="3.2"/>
<circle clip-path="url(#clip382)" cx="866.206" cy="320.309" r="14" fill="#009af9" fill-rule="evenodd" fill-opacity="1" stroke="#000000" stroke-opacity="1" stroke-width="3.2"/>
<circle clip-path="url(#clip382)" cx="995.696" cy="172.835" r="14" fill="#009af9" fill-rule="evenodd" fill-opacity="1" stroke="#000000" stroke-opacity="1" stroke-width="3.2"/>
<circle clip-path="url(#clip382)" cx="1125.19" cy="98.0969" r="14" fill="#009af9" fill-rule="evenodd" fill-opacity="1" stroke="#000000" stroke-opacity="1" stroke-width="3.2"/>
<circle clip-path="url(#clip382)" cx="1254.68" cy="87.9763" r="14" fill="#009af9" fill-rule="evenodd" fill-opacity="1" stroke="#000000" stroke-opacity="1" stroke-width="3.2"/>
<circle clip-path="url(#clip382)" cx="1384.17" cy="98.0969" r="14" fill="#009af9" fill-rule="evenodd" fill-opacity="1" stroke="#000000" stroke-opacity="1" stroke-width="3.2"/>
<circle clip-path="url(#clip382)" cx="1513.66" cy="172.835" r="14" fill="#009af9" fill-rule="evenodd" fill-opacity="1" stroke="#000000" stroke-opacity="1" stroke-width="3.2"/>
<circle clip-path="url(#clip382)" cx="1643.15" cy="320.309" r="14" fill="#009af9" fill-rule="evenodd" fill-opacity="1" stroke="#000000" stroke-opacity="1" stroke-width="3.2"/>
<circle clip-path="url(#clip382)" cx="1772.64" cy="427.411" r="14" fill="#009af9" fill-rule="evenodd" fill-opacity="1" stroke="#000000" stroke-opacity="1" stroke-width="3.2"/>
<circle clip-path="url(#clip382)" cx="1902.13" cy="554.754" r="14" fill="#009af9" fill-rule="evenodd" fill-opacity="1" stroke="#000000" stroke-opacity="1" stroke-width="3.2"/>
<circle clip-path="url(#clip382)" cx="2031.62" cy="851.705" r="14" fill="#009af9" fill-rule="evenodd" fill-opacity="1" stroke="#000000" stroke-opacity="1" stroke-width="3.2"/>
<circle clip-path="url(#clip382)" cx="2161.11" cy="1221.39" r="14" fill="#009af9" fill-rule="evenodd" fill-opacity="1" stroke="#000000" stroke-opacity="1" stroke-width="3.2"/>
<circle clip-path="url(#clip382)" cx="2290.6" cy="1445.72" r="14" fill="#009af9" fill-rule="evenodd" fill-opacity="1" stroke="#000000" stroke-opacity="1" stroke-width="3.2"/>
<path clip-path="url(#clip380)" d="
M1983.1 198.898 L2279.55 198.898 L2279.55 95.2176 L1983.1 95.2176  Z
  " fill="#ffffff" fill-rule="evenodd" fill-opacity="1"/>
<polyline clip-path="url(#clip380)" style="stroke:#000000; stroke-linecap:butt; stroke-linejoin:round; stroke-width:4; stroke-opacity:1; fill:none" points="
  1983.1,198.898 2279.55,198.898 2279.55,95.2176 1983.1,95.2176 1983.1,198.898 
  "/>
<polyline clip-path="url(#clip380)" style="stroke:#009af9; stroke-linecap:butt; stroke-linejoin:round; stroke-width:4; stroke-opacity:1; fill:none" points="
  2007.5,147.058 2153.92,147.058 
  "/>
<circle clip-path="url(#clip380)" cx="2080.71" cy="147.058" r="23" fill="#009af9" fill-rule="evenodd" fill-opacity="1" stroke="#000000" stroke-opacity="1" stroke-width="5.12"/>
<path clip-path="url(#clip380)" d="M2192.16 166.745 Q2190.35 171.375 2188.64 172.787 Q2186.93 174.199 2184.06 174.199 L2180.65 174.199 L2180.65 170.634 L2183.15 170.634 Q2184.91 170.634 2185.89 169.8 Q2186.86 168.967 2188.04 165.865 L2188.8 163.921 L2178.32 138.412 L2182.83 138.412 L2190.93 158.689 L2199.03 138.412 L2203.55 138.412 L2192.16 166.745 Z" fill="#000000" fill-rule="evenodd" fill-opacity="1" /><path clip-path="url(#clip380)" d="M2210.84 160.402 L2218.48 160.402 L2218.48 134.037 L2210.17 135.703 L2210.17 131.444 L2218.43 129.778 L2223.11 129.778 L2223.11 160.402 L2230.75 160.402 L2230.75 164.338 L2210.84 164.338 L2210.84 160.402 Z" fill="#000000" fill-rule="evenodd" fill-opacity="1" /></svg>
