<?xml version="1.0" encoding="utf-8"?>
<svg xmlns="http://www.w3.org/2000/svg" xmlns:xlink="http://www.w3.org/1999/xlink" width="600" height="400" viewBox="0 0 2400 1600">
<defs>
  <clipPath id="clip020">
    <rect x="0" y="0" width="2400" height="1600"/>
  </clipPath>
</defs>
<path clip-path="url(#clip020)" d="
M0 1600 L2400 1600 L2400 0 L0 0  Z
  " fill="#ffffff" fill-rule="evenodd" fill-opacity="1"/>
<defs>
  <clipPath id="clip021">
    <rect x="480" y="0" width="1681" height="1600"/>
  </clipPath>
</defs>
<path clip-path="url(#clip020)" d="
M251.842 1410.9 L2352.76 1410.9 L2352.76 47.2441 L251.842 47.2441  Z
  " fill="#ffffff" fill-rule="evenodd" fill-opacity="1"/>
<defs>
  <clipPath id="clip022">
    <rect x="251" y="47" width="2102" height="1365"/>
  </clipPath>
</defs>
<polyline clip-path="url(#clip022)" style="stroke:#000000; stroke-linecap:butt; stroke-linejoin:round; stroke-width:2; stroke-opacity:0.1; fill:none" points="
  390.337,1410.9 390.337,47.2441 
  "/>
<polyline clip-path="url(#clip022)" style="stroke:#000000; stroke-linecap:butt; stroke-linejoin:round; stroke-width:2; stroke-opacity:0.1; fill:none" points="
  1387.92,1410.9 1387.92,47.2441 
  "/>
<polyline clip-path="url(#clip020)" style="stroke:#000000; stroke-linecap:butt; stroke-linejoin:round; stroke-width:4; stroke-opacity:1; fill:none" points="
  251.842,1410.9 2352.76,1410.9 
  "/>
<polyline clip-path="url(#clip020)" style="stroke:#000000; stroke-linecap:butt; stroke-linejoin:round; stroke-width:4; stroke-opacity:1; fill:none" points="
  390.337,1410.9 390.337,1392 
  "/>
<polyline clip-path="url(#clip020)" style="stroke:#000000; stroke-linecap:butt; stroke-linejoin:round; stroke-width:4; stroke-opacity:1; fill:none" points="
  1387.92,1410.9 1387.92,1392 
  "/>
<path clip-path="url(#clip020)" d="M327.701 1489.17 L335.34 1489.17 L335.34 1462.8 L327.03 1464.47 L327.03 1460.21 L335.293 1458.54 L339.969 1458.54 L339.969 1489.17 L347.608 1489.17 L347.608 1493.1 L327.701 1493.1 L327.701 1489.17 Z" fill="#000000" fill-rule="evenodd" fill-opacity="1" /><path clip-path="url(#clip020)" d="M367.053 1461.62 Q363.441 1461.62 361.613 1465.19 Q359.807 1468.73 359.807 1475.86 Q359.807 1482.97 361.613 1486.53 Q363.441 1490.07 367.053 1490.07 Q370.687 1490.07 372.492 1486.53 Q374.321 1482.97 374.321 1475.86 Q374.321 1468.73 372.492 1465.19 Q370.687 1461.62 367.053 1461.62 M367.053 1457.92 Q372.863 1457.92 375.918 1462.53 Q378.997 1467.11 378.997 1475.86 Q378.997 1484.59 375.918 1489.19 Q372.863 1493.78 367.053 1493.78 Q361.242 1493.78 358.164 1489.19 Q355.108 1484.59 355.108 1475.86 Q355.108 1467.11 358.164 1462.53 Q361.242 1457.92 367.053 1457.92 Z" fill="#000000" fill-rule="evenodd" fill-opacity="1" /><path clip-path="url(#clip020)" d="M378.997 1452.02 L403.108 1452.02 L403.108 1455.22 L378.997 1455.22 L378.997 1452.02 Z" fill="#000000" fill-rule="evenodd" fill-opacity="1" /><path clip-path="url(#clip020)" d="M411.967 1462.5 L418.173 1462.5 L418.173 1441.07 L411.421 1442.43 L411.421 1438.97 L418.136 1437.61 L421.935 1437.61 L421.935 1462.5 L428.142 1462.5 L428.142 1465.69 L411.967 1465.69 L411.967 1462.5 Z" fill="#000000" fill-rule="evenodd" fill-opacity="1" /><path clip-path="url(#clip020)" d="M443.94 1440.11 Q441.006 1440.11 439.52 1443.01 Q438.053 1445.89 438.053 1451.68 Q438.053 1457.46 439.52 1460.35 Q441.006 1463.23 443.94 1463.23 Q446.893 1463.23 448.36 1460.35 Q449.846 1457.46 449.846 1451.68 Q449.846 1445.89 448.36 1443.01 Q446.893 1440.11 443.94 1440.11 M443.94 1437.11 Q448.661 1437.11 451.143 1440.85 Q453.645 1444.57 453.645 1451.68 Q453.645 1458.77 451.143 1462.51 Q448.661 1466.24 443.94 1466.24 Q439.219 1466.24 436.718 1462.51 Q434.235 1458.77 434.235 1451.68 Q434.235 1444.57 436.718 1440.85 Q439.219 1437.11 443.94 1437.11 Z" fill="#000000" fill-rule="evenodd" fill-opacity="1" /><path clip-path="url(#clip020)" d="M1352.9 1489.17 L1360.54 1489.17 L1360.54 1462.8 L1352.23 1464.47 L1352.23 1460.21 L1360.49 1458.54 L1365.17 1458.54 L1365.17 1489.17 L1372.81 1489.17 L1372.81 1493.1 L1352.9 1493.1 L1352.9 1489.17 Z" fill="#000000" fill-rule="evenodd" fill-opacity="1" /><path clip-path="url(#clip020)" d="M1392.25 1461.62 Q1388.64 1461.62 1386.81 1465.19 Q1385.01 1468.73 1385.01 1475.86 Q1385.01 1482.97 1386.81 1486.53 Q1388.64 1490.07 1392.25 1490.07 Q1395.89 1490.07 1397.69 1486.53 Q1399.52 1482.97 1399.52 1475.86 Q1399.52 1468.73 1397.69 1465.19 Q1395.89 1461.62 1392.25 1461.62 M1392.25 1457.92 Q1398.06 1457.92 1401.12 1462.53 Q1404.2 1467.11 1404.2 1475.86 Q1404.2 1484.59 1401.12 1489.19 Q1398.06 1493.78 1392.25 1493.78 Q1386.44 1493.78 1383.36 1489.19 Q1380.31 1484.59 1380.31 1475.86 Q1380.31 1467.11 1383.36 1462.53 Q1386.44 1457.92 1392.25 1457.92 Z" fill="#000000" fill-rule="evenodd" fill-opacity="1" /><path clip-path="url(#clip020)" d="M1413.9 1440.11 Q1410.97 1440.11 1409.48 1443.01 Q1408.02 1445.89 1408.02 1451.68 Q1408.02 1457.46 1409.48 1460.35 Q1410.97 1463.23 1413.9 1463.23 Q1416.86 1463.23 1418.32 1460.35 Q1419.81 1457.46 1419.81 1451.68 Q1419.81 1445.89 1418.32 1443.01 Q1416.86 1440.11 1413.9 1440.11 M1413.9 1437.11 Q1418.62 1437.11 1421.11 1440.85 Q1423.61 1444.57 1423.61 1451.68 Q1423.61 1458.77 1421.11 1462.51 Q1418.62 1466.24 1413.9 1466.24 Q1409.18 1466.24 1406.68 1462.51 Q1404.2 1458.77 1404.2 1451.68 Q1404.2 1444.57 1406.68 1440.85 Q1409.18 1437.11 1413.9 1437.11 Z" fill="#000000" fill-rule="evenodd" fill-opacity="1" /><path clip-path="url(#clip020)" d="M1265.46 1539.91 L1265.46 1545.38 Q1262.97 1544.01 1260.46 1543.34 Q1257.98 1542.64 1255.43 1542.64 Q1249.73 1542.64 1246.58 1546.27 Q1243.43 1549.87 1243.43 1556.39 Q1243.43 1562.92 1246.58 1566.55 Q1249.73 1570.14 1255.43 1570.14 Q1257.98 1570.14 1260.46 1569.47 Q1262.97 1568.77 1265.46 1567.41 L1265.46 1572.82 Q1263.01 1573.96 1260.37 1574.54 Q1257.76 1575.11 1254.8 1575.11 Q1246.74 1575.11 1242 1570.05 Q1237.26 1564.99 1237.26 1556.39 Q1237.26 1547.67 1242.03 1542.68 Q1246.84 1537.68 1255.18 1537.68 Q1257.88 1537.68 1260.46 1538.25 Q1263.04 1538.79 1265.46 1539.91 Z" fill="#000000" fill-rule="evenodd" fill-opacity="1" /><path clip-path="url(#clip020)" d="M1289.46 1542.64 Q1284.75 1542.64 1282.01 1546.34 Q1279.27 1550 1279.27 1556.39 Q1279.27 1562.79 1281.98 1566.48 Q1284.71 1570.14 1289.46 1570.14 Q1294.14 1570.14 1296.87 1566.45 Q1299.61 1562.76 1299.61 1556.39 Q1299.61 1550.06 1296.87 1546.37 Q1294.14 1542.64 1289.46 1542.64 M1289.46 1537.68 Q1297.1 1537.68 1301.46 1542.64 Q1305.82 1547.61 1305.82 1556.39 Q1305.82 1565.15 1301.46 1570.14 Q1297.1 1575.11 1289.46 1575.11 Q1281.79 1575.11 1277.43 1570.14 Q1273.1 1565.15 1273.1 1556.39 Q1273.1 1547.61 1277.43 1542.64 Q1281.79 1537.68 1289.46 1537.68 Z" fill="#000000" fill-rule="evenodd" fill-opacity="1" /><path clip-path="url(#clip020)" d="M1338.25 1539.59 L1338.25 1545.13 Q1335.77 1543.85 1333.09 1543.22 Q1330.42 1542.58 1327.56 1542.58 Q1323.19 1542.58 1321 1543.92 Q1318.83 1545.25 1318.83 1547.93 Q1318.83 1549.96 1320.39 1551.14 Q1321.95 1552.29 1326.66 1553.34 L1328.67 1553.78 Q1334.91 1555.12 1337.52 1557.57 Q1340.16 1559.99 1340.16 1564.35 Q1340.16 1569.32 1336.21 1572.21 Q1332.3 1575.11 1325.42 1575.11 Q1322.56 1575.11 1319.44 1574.54 Q1316.35 1573.99 1312.91 1572.88 L1312.91 1566.83 Q1316.16 1568.52 1319.31 1569.38 Q1322.46 1570.21 1325.55 1570.21 Q1329.69 1570.21 1331.92 1568.81 Q1334.14 1567.37 1334.14 1564.8 Q1334.14 1562.41 1332.52 1561.14 Q1330.93 1559.86 1325.49 1558.68 L1323.45 1558.21 Q1318.01 1557.06 1315.59 1554.71 Q1313.17 1552.32 1313.17 1548.18 Q1313.17 1543.15 1316.73 1540.42 Q1320.3 1537.68 1326.85 1537.68 Q1330.1 1537.68 1332.97 1538.16 Q1335.83 1538.63 1338.25 1539.59 Z" fill="#000000" fill-rule="evenodd" fill-opacity="1" /><path clip-path="url(#clip020)" d="M1355.28 1528.42 L1355.28 1538.54 L1367.34 1538.54 L1367.34 1543.09 L1355.28 1543.09 L1355.28 1562.44 Q1355.28 1566.8 1356.46 1568.04 Q1357.66 1569.28 1361.33 1569.28 L1367.34 1569.28 L1367.34 1574.19 L1361.33 1574.19 Q1354.55 1574.19 1351.97 1571.67 Q1349.39 1569.12 1349.39 1562.44 L1349.39 1543.09 L1345.09 1543.09 L1345.09 1538.54 L1349.39 1538.54 L1349.39 1528.42 L1355.28 1528.42 Z" fill="#000000" fill-rule="evenodd" fill-opacity="1" /><polyline clip-path="url(#clip022)" style="stroke:#000000; stroke-linecap:butt; stroke-linejoin:round; stroke-width:2; stroke-opacity:0.1; fill:none" points="
  251.842,1094.75 2352.76,1094.75 
  "/>
<polyline clip-path="url(#clip022)" style="stroke:#000000; stroke-linecap:butt; stroke-linejoin:round; stroke-width:2; stroke-opacity:0.1; fill:none" points="
  251.842,511.992 2352.76,511.992 
  "/>
<polyline clip-path="url(#clip020)" style="stroke:#000000; stroke-linecap:butt; stroke-linejoin:round; stroke-width:4; stroke-opacity:1; fill:none" points="
  251.842,1410.9 251.842,47.2441 
  "/>
<polyline clip-path="url(#clip020)" style="stroke:#000000; stroke-linecap:butt; stroke-linejoin:round; stroke-width:4; stroke-opacity:1; fill:none" points="
  251.842,1094.75 270.74,1094.75 
  "/>
<polyline clip-path="url(#clip020)" style="stroke:#000000; stroke-linecap:butt; stroke-linejoin:round; stroke-width:4; stroke-opacity:1; fill:none" points="
  251.842,511.992 270.74,511.992 
  "/>
<path clip-path="url(#clip020)" d="M114.931 1114.54 L122.57 1114.54 L122.57 1088.17 L114.26 1089.84 L114.26 1085.58 L122.524 1083.92 L127.2 1083.92 L127.2 1114.54 L134.839 1114.54 L134.839 1118.48 L114.931 1118.48 L114.931 1114.54 Z" fill="#000000" fill-rule="evenodd" fill-opacity="1" /><path clip-path="url(#clip020)" d="M154.283 1086.99 Q150.672 1086.99 148.843 1090.56 Q147.038 1094.1 147.038 1101.23 Q147.038 1108.34 148.843 1111.9 Q150.672 1115.44 154.283 1115.44 Q157.917 1115.44 159.723 1111.9 Q161.552 1108.34 161.552 1101.23 Q161.552 1094.1 159.723 1090.56 Q157.917 1086.99 154.283 1086.99 M154.283 1083.29 Q160.093 1083.29 163.149 1087.9 Q166.227 1092.48 166.227 1101.23 Q166.227 1109.96 163.149 1114.56 Q160.093 1119.15 154.283 1119.15 Q148.473 1119.15 145.394 1114.56 Q142.339 1109.96 142.339 1101.23 Q142.339 1092.48 145.394 1087.9 Q148.473 1083.29 154.283 1083.29 Z" fill="#000000" fill-rule="evenodd" fill-opacity="1" /><path clip-path="url(#clip020)" d="M166.227 1077.39 L190.339 1077.39 L190.339 1080.59 L166.227 1080.59 L166.227 1077.39 Z" fill="#000000" fill-rule="evenodd" fill-opacity="1" /><path clip-path="url(#clip020)" d="M210.05 1075.92 Q212.777 1076.51 214.3 1078.35 Q215.842 1080.19 215.842 1082.9 Q215.842 1087.06 212.984 1089.33 Q210.125 1091.61 204.859 1091.61 Q203.091 1091.61 201.21 1091.25 Q199.348 1090.91 197.354 1090.22 L197.354 1086.55 Q198.934 1087.47 200.815 1087.94 Q202.696 1088.41 204.746 1088.41 Q208.319 1088.41 210.181 1087 Q212.062 1085.59 212.062 1082.9 Q212.062 1080.42 210.313 1079.03 Q208.583 1077.62 205.479 1077.62 L202.207 1077.62 L202.207 1074.5 L205.63 1074.5 Q208.432 1074.5 209.918 1073.39 Q211.404 1072.26 211.404 1070.15 Q211.404 1067.99 209.861 1066.84 Q208.338 1065.67 205.479 1065.67 Q203.918 1065.67 202.132 1066.01 Q200.345 1066.35 198.201 1067.07 L198.201 1063.68 Q200.364 1063.08 202.244 1062.78 Q204.144 1062.48 205.818 1062.48 Q210.144 1062.48 212.664 1064.45 Q215.184 1066.41 215.184 1069.76 Q215.184 1072.09 213.849 1073.71 Q212.513 1075.3 210.05 1075.92 Z" fill="#000000" fill-rule="evenodd" fill-opacity="1" /><path clip-path="url(#clip020)" d="M145.137 531.784 L152.776 531.784 L152.776 505.419 L144.465 507.085 L144.465 502.826 L152.729 501.159 L157.405 501.159 L157.405 531.784 L165.044 531.784 L165.044 535.719 L145.137 535.719 L145.137 531.784 Z" fill="#000000" fill-rule="evenodd" fill-opacity="1" /><path clip-path="url(#clip020)" d="M184.488 504.238 Q180.877 504.238 179.049 507.803 Q177.243 511.345 177.243 518.474 Q177.243 525.581 179.049 529.145 Q180.877 532.687 184.488 532.687 Q188.123 532.687 189.928 529.145 Q191.757 525.581 191.757 518.474 Q191.757 511.345 189.928 507.803 Q188.123 504.238 184.488 504.238 M184.488 500.534 Q190.299 500.534 193.354 505.141 Q196.433 509.724 196.433 518.474 Q196.433 527.201 193.354 531.807 Q190.299 536.391 184.488 536.391 Q178.678 536.391 175.6 531.807 Q172.544 527.201 172.544 518.474 Q172.544 509.724 175.6 505.141 Q178.678 500.534 184.488 500.534 Z" fill="#000000" fill-rule="evenodd" fill-opacity="1" /><path clip-path="url(#clip020)" d="M206.138 482.731 Q203.204 482.731 201.718 485.627 Q200.251 488.504 200.251 494.297 Q200.251 500.071 201.718 502.968 Q203.204 505.845 206.138 505.845 Q209.09 505.845 210.557 502.968 Q212.043 500.071 212.043 494.297 Q212.043 488.504 210.557 485.627 Q209.09 482.731 206.138 482.731 M206.138 479.721 Q210.858 479.721 213.341 483.464 Q215.842 487.188 215.842 494.297 Q215.842 501.388 213.341 505.131 Q210.858 508.855 206.138 508.855 Q201.417 508.855 198.915 505.131 Q196.433 501.388 196.433 494.297 Q196.433 487.188 198.915 483.464 Q201.417 479.721 206.138 479.721 Z" fill="#000000" fill-rule="evenodd" fill-opacity="1" /><path clip-path="url(#clip020)" d="M44.7161 773.137 L47.5806 773.137 L47.5806 800.064 Q53.6281 799.682 56.8109 796.435 Q59.9619 793.157 59.9619 787.332 Q59.9619 783.959 59.1344 780.808 Q58.3069 777.625 56.6518 774.506 L62.1899 774.506 Q63.5267 777.657 64.227 780.967 Q64.9272 784.277 64.9272 787.683 Q64.9272 796.213 59.9619 801.21 Q54.9967 806.175 46.5303 806.175 Q37.7774 806.175 32.6531 801.464 Q27.4968 796.722 27.4968 788.701 Q27.4968 781.508 32.1438 777.338 Q36.7589 773.137 44.7161 773.137 M42.9973 778.993 Q38.1912 779.057 35.3266 781.699 Q32.4621 784.309 32.4621 788.637 Q32.4621 793.539 35.2312 796.499 Q38.0002 799.427 43.0292 799.873 L42.9973 778.993 Z" fill="#000000" fill-rule="evenodd" fill-opacity="1" /><path clip-path="url(#clip020)" d="M33.8307 742.868 Q33.2578 743.855 33.0032 745.032 Q32.7167 746.178 32.7167 747.579 Q32.7167 752.544 35.9632 755.218 Q39.1779 757.859 45.2253 757.859 L64.0042 757.859 L64.0042 763.748 L28.3562 763.748 L28.3562 757.859 L33.8944 757.859 Q30.6479 756.013 29.0883 753.053 Q27.4968 750.093 27.4968 745.86 Q27.4968 745.255 27.5923 744.523 Q27.656 743.791 27.8151 742.9 L33.8307 742.868 Z" fill="#000000" fill-rule="evenodd" fill-opacity="1" /><path clip-path="url(#clip020)" d="M33.8307 717.214 Q33.2578 718.201 33.0032 719.379 Q32.7167 720.524 32.7167 721.925 Q32.7167 726.89 35.9632 729.564 Q39.1779 732.205 45.2253 732.205 L64.0042 732.205 L64.0042 738.094 L28.3562 738.094 L28.3562 732.205 L33.8944 732.205 Q30.6479 730.359 29.0883 727.399 Q27.4968 724.439 27.4968 720.206 Q27.4968 719.601 27.5923 718.869 Q27.656 718.137 27.8151 717.246 L33.8307 717.214 Z" fill="#000000" fill-rule="evenodd" fill-opacity="1" /><path clip-path="url(#clip020)" d="M32.4621 698.69 Q32.4621 703.401 36.1542 706.138 Q39.8145 708.875 46.212 708.875 Q52.6095 708.875 56.3017 706.17 Q59.9619 703.432 59.9619 698.69 Q59.9619 694.011 56.2698 691.274 Q52.5777 688.537 46.212 688.537 Q39.8781 688.537 36.186 691.274 Q32.4621 694.011 32.4621 698.69 M27.4968 698.69 Q27.4968 691.051 32.4621 686.691 Q37.4273 682.33 46.212 682.33 Q54.9649 682.33 59.9619 686.691 Q64.9272 691.051 64.9272 698.69 Q64.9272 706.361 59.9619 710.721 Q54.9649 715.05 46.212 715.05 Q37.4273 715.05 32.4621 710.721 Q27.4968 706.361 27.4968 698.69 Z" fill="#000000" fill-rule="evenodd" fill-opacity="1" /><path clip-path="url(#clip020)" d="M33.8307 651.966 Q33.2578 652.952 33.0032 654.13 Q32.7167 655.276 32.7167 656.676 Q32.7167 661.642 35.9632 664.315 Q39.1779 666.957 45.2253 666.957 L64.0042 666.957 L64.0042 672.845 L28.3562 672.845 L28.3562 666.957 L33.8944 666.957 Q30.6479 665.111 29.0883 662.151 Q27.4968 659.191 27.4968 654.958 Q27.4968 654.353 27.5923 653.621 Q27.656 652.889 27.8151 651.998 L33.8307 651.966 Z" fill="#000000" fill-rule="evenodd" fill-opacity="1" /><polyline clip-path="url(#clip022)" style="stroke:#009af9; stroke-linecap:butt; stroke-linejoin:round; stroke-width:16; stroke-opacity:1; fill:none" points="
  311.302,85.838 491.483,202.789 671.665,319.741 851.846,436.692 1032.03,553.643 1212.21,670.595 1392.39,787.546 1572.57,904.497 1752.75,1021.45 1932.93,1138.4 
  2113.11,1255.35 2293.3,1372.3 
  "/>
<path clip-path="url(#clip020)" d="
M1996.86 196.379 L2282.73 196.379 L2282.73 92.6992 L1996.86 92.6992  Z
  " fill="#ffffff" fill-rule="evenodd" fill-opacity="1"/>
<polyline clip-path="url(#clip020)" style="stroke:#000000; stroke-linecap:butt; stroke-linejoin:round; stroke-width:4; stroke-opacity:1; fill:none" points="
  1996.86,196.379 2282.73,196.379 2282.73,92.6992 1996.86,92.6992 1996.86,196.379 
  "/>
<polyline clip-path="url(#clip020)" style="stroke:#009af9; stroke-linecap:butt; stroke-linejoin:round; stroke-width:4; stroke-opacity:1; fill:none" points="
  2020.2,144.539 2160.26,144.539 
  "/>
<path clip-path="url(#clip020)" d="M2197.45 164.227 Q2195.65 168.856 2193.93 170.268 Q2192.22 171.68 2189.35 171.68 L2185.95 171.68 L2185.95 168.115 L2188.45 168.115 Q2190.21 168.115 2191.18 167.282 Q2192.15 166.449 2193.33 163.347 L2194.09 161.403 L2183.61 135.893 L2188.12 135.893 L2196.22 156.171 L2204.33 135.893 L2208.84 135.893 L2197.45 164.227 Z" fill="#000000" fill-rule="evenodd" fill-opacity="1" /><path clip-path="url(#clip020)" d="M2216.13 157.884 L2223.77 157.884 L2223.77 131.518 L2215.46 133.185 L2215.46 128.926 L2223.72 127.259 L2228.4 127.259 L2228.4 157.884 L2236.04 157.884 L2236.04 161.819 L2216.13 161.819 L2216.13 157.884 Z" fill="#000000" fill-rule="evenodd" fill-opacity="1" /></svg>
