<?xml version="1.0" encoding="utf-8"?>
<svg xmlns="http://www.w3.org/2000/svg" xmlns:xlink="http://www.w3.org/1999/xlink" width="600" height="400" viewBox="0 0 2400 1600">
<defs>
  <clipPath id="clip730">
    <rect x="0" y="0" width="2400" height="1600"/>
  </clipPath>
</defs>
<path clip-path="url(#clip730)" d="
M0 1600 L2400 1600 L2400 0 L0 0  Z
  " fill="#ffffff" fill-rule="evenodd" fill-opacity="1"/>
<defs>
  <clipPath id="clip731">
    <rect x="480" y="0" width="1681" height="1600"/>
  </clipPath>
</defs>
<path clip-path="url(#clip730)" d="
M156.598 1486.45 L2352.76 1486.45 L2352.76 47.2441 L156.598 47.2441  Z
  " fill="#ffffff" fill-rule="evenodd" fill-opacity="1"/>
<defs>
  <clipPath id="clip732">
    <rect x="156" y="47" width="2197" height="1440"/>
  </clipPath>
</defs>
<polyline clip-path="url(#clip732)" style="stroke:#000000; stroke-linecap:butt; stroke-linejoin:round; stroke-width:2; stroke-opacity:0.1; fill:none" points="
  218.754,1486.45 218.754,47.2441 
  "/>
<polyline clip-path="url(#clip732)" style="stroke:#000000; stroke-linecap:butt; stroke-linejoin:round; stroke-width:2; stroke-opacity:0.1; fill:none" points="
  564.061,1486.45 564.061,47.2441 
  "/>
<polyline clip-path="url(#clip732)" style="stroke:#000000; stroke-linecap:butt; stroke-linejoin:round; stroke-width:2; stroke-opacity:0.1; fill:none" points="
  909.369,1486.45 909.369,47.2441 
  "/>
<polyline clip-path="url(#clip732)" style="stroke:#000000; stroke-linecap:butt; stroke-linejoin:round; stroke-width:2; stroke-opacity:0.1; fill:none" points="
  1254.68,1486.45 1254.68,47.2441 
  "/>
<polyline clip-path="url(#clip732)" style="stroke:#000000; stroke-linecap:butt; stroke-linejoin:round; stroke-width:2; stroke-opacity:0.1; fill:none" points="
  1599.98,1486.45 1599.98,47.2441 
  "/>
<polyline clip-path="url(#clip732)" style="stroke:#000000; stroke-linecap:butt; stroke-linejoin:round; stroke-width:2; stroke-opacity:0.1; fill:none" points="
  1945.29,1486.45 1945.29,47.2441 
  "/>
<polyline clip-path="url(#clip732)" style="stroke:#000000; stroke-linecap:butt; stroke-linejoin:round; stroke-width:2; stroke-opacity:0.1; fill:none" points="
  2290.6,1486.45 2290.6,47.2441 
  "/>
<polyline clip-path="url(#clip730)" style="stroke:#000000; stroke-linecap:butt; stroke-linejoin:round; stroke-width:4; stroke-opacity:1; fill:none" points="
  156.598,1486.45 2352.76,1486.45 
  "/>
<polyline clip-path="url(#clip730)" style="stroke:#000000; stroke-linecap:butt; stroke-linejoin:round; stroke-width:4; stroke-opacity:1; fill:none" points="
  218.754,1486.45 218.754,1467.55 
  "/>
<polyline clip-path="url(#clip730)" style="stroke:#000000; stroke-linecap:butt; stroke-linejoin:round; stroke-width:4; stroke-opacity:1; fill:none" points="
  564.061,1486.45 564.061,1467.55 
  "/>
<polyline clip-path="url(#clip730)" style="stroke:#000000; stroke-linecap:butt; stroke-linejoin:round; stroke-width:4; stroke-opacity:1; fill:none" points="
  909.369,1486.45 909.369,1467.55 
  "/>
<polyline clip-path="url(#clip730)" style="stroke:#000000; stroke-linecap:butt; stroke-linejoin:round; stroke-width:4; stroke-opacity:1; fill:none" points="
  1254.68,1486.45 1254.68,1467.55 
  "/>
<polyline clip-path="url(#clip730)" style="stroke:#000000; stroke-linecap:butt; stroke-linejoin:round; stroke-width:4; stroke-opacity:1; fill:none" points="
  1599.98,1486.45 1599.98,1467.55 
  "/>
<polyline clip-path="url(#clip730)" style="stroke:#000000; stroke-linecap:butt; stroke-linejoin:round; stroke-width:4; stroke-opacity:1; fill:none" points="
  1945.29,1486.45 1945.29,1467.55 
  "/>
<polyline clip-path="url(#clip730)" style="stroke:#000000; stroke-linecap:butt; stroke-linejoin:round; stroke-width:4; stroke-opacity:1; fill:none" points="
  2290.6,1486.45 2290.6,1467.55 
  "/>
<path clip-path="url(#clip730)" d="M188.221 1530.29 L217.897 1530.29 L217.897 1534.23 L188.221 1534.23 L188.221 1530.29 Z" fill="#000000" fill-rule="evenodd" fill-opacity="1" /><path clip-path="url(#clip730)" d="M242.156 1528.49 Q245.513 1529.2 247.388 1531.47 Q249.286 1533.74 249.286 1537.07 Q249.286 1542.19 245.767 1544.99 Q242.249 1547.79 235.767 1547.79 Q233.592 1547.79 231.277 1547.35 Q228.985 1546.93 226.531 1546.08 L226.531 1541.56 Q228.476 1542.7 230.791 1543.28 Q233.105 1543.86 235.629 1543.86 Q240.027 1543.86 242.318 1542.12 Q244.633 1540.38 244.633 1537.07 Q244.633 1534.02 242.48 1532.31 Q240.351 1530.57 236.531 1530.57 L232.504 1530.57 L232.504 1526.73 L236.717 1526.73 Q240.166 1526.73 241.994 1525.36 Q243.823 1523.97 243.823 1521.38 Q243.823 1518.72 241.925 1517.31 Q240.05 1515.87 236.531 1515.87 Q234.61 1515.87 232.411 1516.29 Q230.212 1516.7 227.573 1517.58 L227.573 1513.42 Q230.235 1512.68 232.55 1512.31 Q234.888 1511.93 236.948 1511.93 Q242.272 1511.93 245.374 1514.37 Q248.476 1516.77 248.476 1520.89 Q248.476 1523.76 246.832 1525.75 Q245.189 1527.72 242.156 1528.49 Z" fill="#000000" fill-rule="evenodd" fill-opacity="1" /><path clip-path="url(#clip730)" d="M534.004 1530.29 L563.68 1530.29 L563.68 1534.23 L534.004 1534.23 L534.004 1530.29 Z" fill="#000000" fill-rule="evenodd" fill-opacity="1" /><path clip-path="url(#clip730)" d="M577.8 1543.18 L594.119 1543.18 L594.119 1547.12 L572.175 1547.12 L572.175 1543.18 Q574.837 1540.43 579.42 1535.8 Q584.027 1531.15 585.207 1529.81 Q587.453 1527.28 588.332 1525.55 Q589.235 1523.79 589.235 1522.1 Q589.235 1519.34 587.29 1517.61 Q585.369 1515.87 582.267 1515.87 Q580.068 1515.87 577.615 1516.63 Q575.184 1517.4 572.406 1518.95 L572.406 1514.23 Q575.23 1513.09 577.684 1512.51 Q580.138 1511.93 582.175 1511.93 Q587.545 1511.93 590.74 1514.62 Q593.934 1517.31 593.934 1521.8 Q593.934 1523.93 593.124 1525.85 Q592.337 1527.74 590.23 1530.34 Q589.652 1531.01 586.55 1534.23 Q583.448 1537.42 577.8 1543.18 Z" fill="#000000" fill-rule="evenodd" fill-opacity="1" /><path clip-path="url(#clip730)" d="M879.126 1530.29 L908.802 1530.29 L908.802 1534.23 L879.126 1534.23 L879.126 1530.29 Z" fill="#000000" fill-rule="evenodd" fill-opacity="1" /><path clip-path="url(#clip730)" d="M919.705 1543.18 L927.344 1543.18 L927.344 1516.82 L919.034 1518.49 L919.034 1514.23 L927.297 1512.56 L931.973 1512.56 L931.973 1543.18 L939.612 1543.18 L939.612 1547.12 L919.705 1547.12 L919.705 1543.18 Z" fill="#000000" fill-rule="evenodd" fill-opacity="1" /><path clip-path="url(#clip730)" d="M1254.68 1515.64 Q1251.07 1515.64 1249.24 1519.2 Q1247.43 1522.75 1247.43 1529.87 Q1247.43 1536.98 1249.24 1540.55 Q1251.07 1544.09 1254.68 1544.09 Q1258.31 1544.09 1260.12 1540.55 Q1261.95 1536.98 1261.95 1529.87 Q1261.95 1522.75 1260.12 1519.2 Q1258.31 1515.64 1254.68 1515.64 M1254.68 1511.93 Q1260.49 1511.93 1263.54 1516.54 Q1266.62 1521.12 1266.62 1529.87 Q1266.62 1538.6 1263.54 1543.21 Q1260.49 1547.79 1254.68 1547.79 Q1248.87 1547.79 1245.79 1543.21 Q1242.73 1538.6 1242.73 1529.87 Q1242.73 1521.12 1245.79 1516.54 Q1248.87 1511.93 1254.68 1511.93 Z" fill="#000000" fill-rule="evenodd" fill-opacity="1" /><path clip-path="url(#clip730)" d="M1590.37 1543.18 L1598.01 1543.18 L1598.01 1516.82 L1589.7 1518.49 L1589.7 1514.23 L1597.96 1512.56 L1602.64 1512.56 L1602.64 1543.18 L1610.27 1543.18 L1610.27 1547.12 L1590.37 1547.12 L1590.37 1543.18 Z" fill="#000000" fill-rule="evenodd" fill-opacity="1" /><path clip-path="url(#clip730)" d="M1939.95 1543.18 L1956.26 1543.18 L1956.26 1547.12 L1934.32 1547.12 L1934.32 1543.18 Q1936.98 1540.43 1941.57 1535.8 Q1946.17 1531.15 1947.35 1529.81 Q1949.6 1527.28 1950.48 1525.55 Q1951.38 1523.79 1951.38 1522.1 Q1951.38 1519.34 1949.44 1517.61 Q1947.51 1515.87 1944.41 1515.87 Q1942.21 1515.87 1939.76 1516.63 Q1937.33 1517.4 1934.55 1518.95 L1934.55 1514.23 Q1937.38 1513.09 1939.83 1512.51 Q1942.28 1511.93 1944.32 1511.93 Q1949.69 1511.93 1952.89 1514.62 Q1956.08 1517.31 1956.08 1521.8 Q1956.08 1523.93 1955.27 1525.85 Q1954.48 1527.74 1952.38 1530.34 Q1951.8 1531.01 1948.7 1534.23 Q1945.59 1537.42 1939.95 1543.18 Z" fill="#000000" fill-rule="evenodd" fill-opacity="1" /><path clip-path="url(#clip730)" d="M2294.85 1528.49 Q2298.2 1529.2 2300.08 1531.47 Q2301.98 1533.74 2301.98 1537.07 Q2301.98 1542.19 2298.46 1544.99 Q2294.94 1547.79 2288.46 1547.79 Q2286.28 1547.79 2283.97 1547.35 Q2281.68 1546.93 2279.22 1546.08 L2279.22 1541.56 Q2281.17 1542.7 2283.48 1543.28 Q2285.8 1543.86 2288.32 1543.86 Q2292.72 1543.86 2295.01 1542.12 Q2297.33 1540.38 2297.33 1537.07 Q2297.33 1534.02 2295.17 1532.31 Q2293.04 1530.57 2289.22 1530.57 L2285.2 1530.57 L2285.2 1526.73 L2289.41 1526.73 Q2292.86 1526.73 2294.69 1525.36 Q2296.51 1523.97 2296.51 1521.38 Q2296.51 1518.72 2294.62 1517.31 Q2292.74 1515.87 2289.22 1515.87 Q2287.3 1515.87 2285.1 1516.29 Q2282.9 1516.7 2280.26 1517.58 L2280.26 1513.42 Q2282.93 1512.68 2285.24 1512.31 Q2287.58 1511.93 2289.64 1511.93 Q2294.96 1511.93 2298.07 1514.37 Q2301.17 1516.77 2301.17 1520.89 Q2301.17 1523.76 2299.52 1525.75 Q2297.88 1527.72 2294.85 1528.49 Z" fill="#000000" fill-rule="evenodd" fill-opacity="1" /><polyline clip-path="url(#clip732)" style="stroke:#000000; stroke-linecap:butt; stroke-linejoin:round; stroke-width:2; stroke-opacity:0.1; fill:none" points="
  156.598,1445.72 2352.76,1445.72 
  "/>
<polyline clip-path="url(#clip732)" style="stroke:#000000; stroke-linecap:butt; stroke-linejoin:round; stroke-width:2; stroke-opacity:0.1; fill:none" points="
  156.598,1153.25 2352.76,1153.25 
  "/>
<polyline clip-path="url(#clip732)" style="stroke:#000000; stroke-linecap:butt; stroke-linejoin:round; stroke-width:2; stroke-opacity:0.1; fill:none" points="
  156.598,860.789 2352.76,860.789 
  "/>
<polyline clip-path="url(#clip732)" style="stroke:#000000; stroke-linecap:butt; stroke-linejoin:round; stroke-width:2; stroke-opacity:0.1; fill:none" points="
  156.598,568.326 2352.76,568.326 
  "/>
<polyline clip-path="url(#clip732)" style="stroke:#000000; stroke-linecap:butt; stroke-linejoin:round; stroke-width:2; stroke-opacity:0.1; fill:none" points="
  156.598,275.863 2352.76,275.863 
  "/>
<polyline clip-path="url(#clip730)" style="stroke:#000000; stroke-linecap:butt; stroke-linejoin:round; stroke-width:4; stroke-opacity:1; fill:none" points="
  156.598,1486.45 156.598,47.2441 
  "/>
<polyline clip-path="url(#clip730)" style="stroke:#000000; stroke-linecap:butt; stroke-linejoin:round; stroke-width:4; stroke-opacity:1; fill:none" points="
  156.598,1445.72 175.496,1445.72 
  "/>
<polyline clip-path="url(#clip730)" style="stroke:#000000; stroke-linecap:butt; stroke-linejoin:round; stroke-width:4; stroke-opacity:1; fill:none" points="
  156.598,1153.25 175.496,1153.25 
  "/>
<polyline clip-path="url(#clip730)" style="stroke:#000000; stroke-linecap:butt; stroke-linejoin:round; stroke-width:4; stroke-opacity:1; fill:none" points="
  156.598,860.789 175.496,860.789 
  "/>
<polyline clip-path="url(#clip730)" style="stroke:#000000; stroke-linecap:butt; stroke-linejoin:round; stroke-width:4; stroke-opacity:1; fill:none" points="
  156.598,568.326 175.496,568.326 
  "/>
<polyline clip-path="url(#clip730)" style="stroke:#000000; stroke-linecap:butt; stroke-linejoin:round; stroke-width:4; stroke-opacity:1; fill:none" points="
  156.598,275.863 175.496,275.863 
  "/>
<path clip-path="url(#clip730)" d="M63.4226 1431.51 Q59.8115 1431.51 57.9828 1435.08 Q56.1773 1438.62 56.1773 1445.75 Q56.1773 1452.86 57.9828 1456.42 Q59.8115 1459.96 63.4226 1459.96 Q67.0569 1459.96 68.8624 1456.42 Q70.6911 1452.86 70.6911 1445.75 Q70.6911 1438.62 68.8624 1435.08 Q67.0569 1431.51 63.4226 1431.51 M63.4226 1427.81 Q69.2328 1427.81 72.2883 1432.42 Q75.367 1437 75.367 1445.75 Q75.367 1454.48 72.2883 1459.08 Q69.2328 1463.67 63.4226 1463.67 Q57.6125 1463.67 54.5338 1459.08 Q51.4782 1454.48 51.4782 1445.75 Q51.4782 1437 54.5338 1432.42 Q57.6125 1427.81 63.4226 1427.81 Z" fill="#000000" fill-rule="evenodd" fill-opacity="1" /><path clip-path="url(#clip730)" d="M83.5845 1457.12 L88.4688 1457.12 L88.4688 1463 L83.5845 1463 L83.5845 1457.12 Z" fill="#000000" fill-rule="evenodd" fill-opacity="1" /><path clip-path="url(#clip730)" d="M108.654 1431.51 Q105.043 1431.51 103.214 1435.08 Q101.409 1438.62 101.409 1445.75 Q101.409 1452.86 103.214 1456.42 Q105.043 1459.96 108.654 1459.96 Q112.288 1459.96 114.094 1456.42 Q115.922 1452.86 115.922 1445.75 Q115.922 1438.62 114.094 1435.08 Q112.288 1431.51 108.654 1431.51 M108.654 1427.81 Q114.464 1427.81 117.52 1432.42 Q120.598 1437 120.598 1445.75 Q120.598 1454.48 117.52 1459.08 Q114.464 1463.67 108.654 1463.67 Q102.844 1463.67 99.765 1459.08 Q96.7095 1454.48 96.7095 1445.75 Q96.7095 1437 99.765 1432.42 Q102.844 1427.81 108.654 1427.81 Z" fill="#000000" fill-rule="evenodd" fill-opacity="1" /><path clip-path="url(#clip730)" d="M64.6495 1139.05 Q61.0384 1139.05 59.2097 1142.62 Q57.4041 1146.16 57.4041 1153.29 Q57.4041 1160.39 59.2097 1163.96 Q61.0384 1167.5 64.6495 1167.5 Q68.2837 1167.5 70.0892 1163.96 Q71.9179 1160.39 71.9179 1153.29 Q71.9179 1146.16 70.0892 1142.62 Q68.2837 1139.05 64.6495 1139.05 M64.6495 1135.35 Q70.4596 1135.35 73.5152 1139.95 Q76.5938 1144.54 76.5938 1153.29 Q76.5938 1162.01 73.5152 1166.62 Q70.4596 1171.2 64.6495 1171.2 Q58.8393 1171.2 55.7606 1166.62 Q52.7051 1162.01 52.7051 1153.29 Q52.7051 1144.54 55.7606 1139.95 Q58.8393 1135.35 64.6495 1135.35 Z" fill="#000000" fill-rule="evenodd" fill-opacity="1" /><path clip-path="url(#clip730)" d="M84.8114 1164.65 L89.6956 1164.65 L89.6956 1170.53 L84.8114 1170.53 L84.8114 1164.65 Z" fill="#000000" fill-rule="evenodd" fill-opacity="1" /><path clip-path="url(#clip730)" d="M100.691 1166.6 L108.33 1166.6 L108.33 1140.23 L100.02 1141.9 L100.02 1137.64 L108.283 1135.97 L112.959 1135.97 L112.959 1166.6 L120.598 1166.6 L120.598 1170.53 L100.691 1170.53 L100.691 1166.6 Z" fill="#000000" fill-rule="evenodd" fill-opacity="1" /><path clip-path="url(#clip730)" d="M65.0198 846.588 Q61.4087 846.588 59.58 850.153 Q57.7745 853.694 57.7745 860.824 Q57.7745 867.93 59.58 871.495 Q61.4087 875.037 65.0198 875.037 Q68.6541 875.037 70.4596 871.495 Q72.2883 867.93 72.2883 860.824 Q72.2883 853.694 70.4596 850.153 Q68.6541 846.588 65.0198 846.588 M65.0198 842.884 Q70.83 842.884 73.8855 847.491 Q76.9642 852.074 76.9642 860.824 Q76.9642 869.551 73.8855 874.157 Q70.83 878.741 65.0198 878.741 Q59.2097 878.741 56.131 874.157 Q53.0754 869.551 53.0754 860.824 Q53.0754 852.074 56.131 847.491 Q59.2097 842.884 65.0198 842.884 Z" fill="#000000" fill-rule="evenodd" fill-opacity="1" /><path clip-path="url(#clip730)" d="M85.1818 872.19 L90.066 872.19 L90.066 878.069 L85.1818 878.069 L85.1818 872.19 Z" fill="#000000" fill-rule="evenodd" fill-opacity="1" /><path clip-path="url(#clip730)" d="M104.279 874.134 L120.598 874.134 L120.598 878.069 L98.6539 878.069 L98.6539 874.134 Q101.316 871.38 105.899 866.75 Q110.506 862.097 111.686 860.755 Q113.932 858.231 114.811 856.495 Q115.714 854.736 115.714 853.046 Q115.714 850.292 113.77 848.556 Q111.848 846.819 108.746 846.819 Q106.547 846.819 104.094 847.583 Q101.663 848.347 98.8854 849.898 L98.8854 845.176 Q101.709 844.042 104.163 843.463 Q106.617 842.884 108.654 842.884 Q114.024 842.884 117.219 845.569 Q120.413 848.255 120.413 852.745 Q120.413 854.875 119.603 856.796 Q118.816 858.694 116.709 861.287 Q116.131 861.958 113.029 865.176 Q109.927 868.37 104.279 874.134 Z" fill="#000000" fill-rule="evenodd" fill-opacity="1" /><path clip-path="url(#clip730)" d="M64.0708 554.125 Q60.4597 554.125 58.631 557.69 Q56.8254 561.231 56.8254 568.361 Q56.8254 575.467 58.631 579.032 Q60.4597 582.574 64.0708 582.574 Q67.705 582.574 69.5105 579.032 Q71.3392 575.467 71.3392 568.361 Q71.3392 561.231 69.5105 557.69 Q67.705 554.125 64.0708 554.125 M64.0708 550.421 Q69.8809 550.421 72.9365 555.028 Q76.0151 559.611 76.0151 568.361 Q76.0151 577.088 72.9365 581.694 Q69.8809 586.277 64.0708 586.277 Q58.2606 586.277 55.1819 581.694 Q52.1264 577.088 52.1264 568.361 Q52.1264 559.611 55.1819 555.028 Q58.2606 550.421 64.0708 550.421 Z" fill="#000000" fill-rule="evenodd" fill-opacity="1" /><path clip-path="url(#clip730)" d="M84.2327 579.727 L89.1169 579.727 L89.1169 585.606 L84.2327 585.606 L84.2327 579.727 Z" fill="#000000" fill-rule="evenodd" fill-opacity="1" /><path clip-path="url(#clip730)" d="M113.469 566.972 Q116.825 567.69 118.7 569.958 Q120.598 572.227 120.598 575.56 Q120.598 580.676 117.08 583.476 Q113.561 586.277 107.08 586.277 Q104.904 586.277 102.589 585.838 Q100.297 585.421 97.8437 584.564 L97.8437 580.051 Q99.7882 581.185 102.103 581.764 Q104.418 582.342 106.941 582.342 Q111.339 582.342 113.631 580.606 Q115.945 578.87 115.945 575.56 Q115.945 572.504 113.793 570.791 Q111.663 569.055 107.844 569.055 L103.816 569.055 L103.816 565.213 L108.029 565.213 Q111.478 565.213 113.307 563.847 Q115.135 562.458 115.135 559.865 Q115.135 557.203 113.237 555.791 Q111.362 554.356 107.844 554.356 Q105.922 554.356 103.723 554.773 Q101.524 555.19 98.8854 556.069 L98.8854 551.903 Q101.547 551.162 103.862 550.791 Q106.2 550.421 108.26 550.421 Q113.584 550.421 116.686 552.852 Q119.788 555.259 119.788 559.379 Q119.788 562.25 118.145 564.24 Q116.501 566.208 113.469 566.972 Z" fill="#000000" fill-rule="evenodd" fill-opacity="1" /><path clip-path="url(#clip730)" d="M62.9365 261.662 Q59.3254 261.662 57.4967 265.226 Q55.6912 268.768 55.6912 275.898 Q55.6912 283.004 57.4967 286.569 Q59.3254 290.111 62.9365 290.111 Q66.5707 290.111 68.3763 286.569 Q70.205 283.004 70.205 275.898 Q70.205 268.768 68.3763 265.226 Q66.5707 261.662 62.9365 261.662 M62.9365 257.958 Q68.7467 257.958 71.8022 262.564 Q74.8809 267.148 74.8809 275.898 Q74.8809 284.624 71.8022 289.231 Q68.7467 293.814 62.9365 293.814 Q57.1264 293.814 54.0477 289.231 Q50.9921 284.624 50.9921 275.898 Q50.9921 267.148 54.0477 262.564 Q57.1264 257.958 62.9365 257.958 Z" fill="#000000" fill-rule="evenodd" fill-opacity="1" /><path clip-path="url(#clip730)" d="M83.0984 287.263 L87.9827 287.263 L87.9827 293.143 L83.0984 293.143 L83.0984 287.263 Z" fill="#000000" fill-rule="evenodd" fill-opacity="1" /><path clip-path="url(#clip730)" d="M111.015 262.657 L99.2095 281.106 L111.015 281.106 L111.015 262.657 M109.788 258.583 L115.668 258.583 L115.668 281.106 L120.598 281.106 L120.598 284.995 L115.668 284.995 L115.668 293.143 L111.015 293.143 L111.015 284.995 L95.4132 284.995 L95.4132 280.481 L109.788 258.583 Z" fill="#000000" fill-rule="evenodd" fill-opacity="1" /><polyline clip-path="url(#clip732)" style="stroke:#009af9; stroke-linecap:butt; stroke-linejoin:round; stroke-width:4; stroke-opacity:1; fill:none" points="
  218.754,1445.72 448.959,974.178 679.164,559.514 909.369,251.74 1139.57,87.9763 1369.78,87.9763 1599.98,251.74 1830.19,559.514 2060.4,974.178 2290.6,1445.72 
  
  "/>
<path clip-path="url(#clip730)" d="
M1983.1 198.898 L2279.55 198.898 L2279.55 95.2176 L1983.1 95.2176  Z
  " fill="#ffffff" fill-rule="evenodd" fill-opacity="1"/>
<polyline clip-path="url(#clip730)" style="stroke:#000000; stroke-linecap:butt; stroke-linejoin:round; stroke-width:4; stroke-opacity:1; fill:none" points="
  1983.1,198.898 2279.55,198.898 2279.55,95.2176 1983.1,95.2176 1983.1,198.898 
  "/>
<polyline clip-path="url(#clip730)" style="stroke:#009af9; stroke-linecap:butt; stroke-linejoin:round; stroke-width:4; stroke-opacity:1; fill:none" points="
  2007.5,147.058 2153.92,147.058 
  "/>
<path clip-path="url(#clip730)" d="M2192.16 166.745 Q2190.35 171.375 2188.64 172.787 Q2186.93 174.199 2184.06 174.199 L2180.65 174.199 L2180.65 170.634 L2183.15 170.634 Q2184.91 170.634 2185.89 169.8 Q2186.86 168.967 2188.04 165.865 L2188.8 163.921 L2178.32 138.412 L2182.83 138.412 L2190.93 158.689 L2199.03 138.412 L2203.55 138.412 L2192.16 166.745 Z" fill="#000000" fill-rule="evenodd" fill-opacity="1" /><path clip-path="url(#clip730)" d="M2210.84 160.402 L2218.48 160.402 L2218.48 134.037 L2210.17 135.703 L2210.17 131.444 L2218.43 129.778 L2223.11 129.778 L2223.11 160.402 L2230.75 160.402 L2230.75 164.338 L2210.84 164.338 L2210.84 160.402 Z" fill="#000000" fill-rule="evenodd" fill-opacity="1" /></svg>
