<?xml version="1.0" encoding="utf-8"?>
<svg xmlns="http://www.w3.org/2000/svg" xmlns:xlink="http://www.w3.org/1999/xlink" width="600" height="400" viewBox="0 0 2400 1600">
<defs>
  <clipPath id="clip460">
    <rect x="0" y="0" width="2400" height="1600"/>
  </clipPath>
</defs>
<path clip-path="url(#clip460)" d="
M0 1600 L2400 1600 L2400 0 L0 0  Z
  " fill="#ffffff" fill-rule="evenodd" fill-opacity="1"/>
<defs>
  <clipPath id="clip461">
    <rect x="480" y="0" width="1681" height="1600"/>
  </clipPath>
</defs>
<path clip-path="url(#clip460)" d="
M189.496 1474.16 L2352.76 1474.16 L2352.76 47.2441 L189.496 47.2441  Z
  " fill="#ffffff" fill-rule="evenodd" fill-opacity="1"/>
<defs>
  <clipPath id="clip462">
    <rect x="189" y="47" width="2164" height="1428"/>
  </clipPath>
</defs>
<polyline clip-path="url(#clip462)" style="stroke:#000000; stroke-linecap:butt; stroke-linejoin:round; stroke-width:2; stroke-opacity:0.1; fill:none" points="
  259.449,1474.16 259.449,47.2441 
  "/>
<polyline clip-path="url(#clip462)" style="stroke:#000000; stroke-linecap:butt; stroke-linejoin:round; stroke-width:2; stroke-opacity:0.1; fill:none" points="
  1106.88,1474.16 1106.88,47.2441 
  "/>
<polyline clip-path="url(#clip462)" style="stroke:#000000; stroke-linecap:butt; stroke-linejoin:round; stroke-width:2; stroke-opacity:0.1; fill:none" points="
  1954.31,1474.16 1954.31,47.2441 
  "/>
<polyline clip-path="url(#clip460)" style="stroke:#000000; stroke-linecap:butt; stroke-linejoin:round; stroke-width:4; stroke-opacity:1; fill:none" points="
  189.496,1474.16 2352.76,1474.16 
  "/>
<polyline clip-path="url(#clip460)" style="stroke:#000000; stroke-linecap:butt; stroke-linejoin:round; stroke-width:4; stroke-opacity:1; fill:none" points="
  259.449,1474.16 259.449,1455.27 
  "/>
<polyline clip-path="url(#clip460)" style="stroke:#000000; stroke-linecap:butt; stroke-linejoin:round; stroke-width:4; stroke-opacity:1; fill:none" points="
  1106.88,1474.16 1106.88,1455.27 
  "/>
<polyline clip-path="url(#clip460)" style="stroke:#000000; stroke-linecap:butt; stroke-linejoin:round; stroke-width:4; stroke-opacity:1; fill:none" points="
  1954.31,1474.16 1954.31,1455.27 
  "/>
<path clip-path="url(#clip460)" d="M209.329 1552.44 L216.968 1552.44 L216.968 1526.07 L208.658 1527.74 L208.658 1523.48 L216.921 1521.81 L221.597 1521.81 L221.597 1552.44 L229.236 1552.44 L229.236 1556.37 L209.329 1556.37 L209.329 1552.44 Z" fill="#000000" fill-rule="evenodd" fill-opacity="1" /><path clip-path="url(#clip460)" d="M248.681 1524.89 Q245.069 1524.89 243.241 1528.46 Q241.435 1532 241.435 1539.13 Q241.435 1546.23 243.241 1549.8 Q245.069 1553.34 248.681 1553.34 Q252.315 1553.34 254.12 1549.8 Q255.949 1546.23 255.949 1539.13 Q255.949 1532 254.12 1528.46 Q252.315 1524.89 248.681 1524.89 M248.681 1521.19 Q254.491 1521.19 257.546 1525.79 Q260.625 1530.38 260.625 1539.13 Q260.625 1547.85 257.546 1552.46 Q254.491 1557.04 248.681 1557.04 Q242.87 1557.04 239.792 1552.46 Q236.736 1547.85 236.736 1539.13 Q236.736 1530.38 239.792 1525.79 Q242.87 1521.19 248.681 1521.19 Z" fill="#000000" fill-rule="evenodd" fill-opacity="1" /><path clip-path="url(#clip460)" d="M260.625 1515.29 L284.737 1515.29 L284.737 1518.49 L260.625 1518.49 L260.625 1515.29 Z" fill="#000000" fill-rule="evenodd" fill-opacity="1" /><path clip-path="url(#clip460)" d="M304.447 1513.82 Q307.174 1514.4 308.698 1516.25 Q310.24 1518.09 310.24 1520.8 Q310.24 1524.96 307.381 1527.23 Q304.522 1529.51 299.256 1529.51 Q297.488 1529.51 295.607 1529.15 Q293.745 1528.81 291.752 1528.12 L291.752 1524.45 Q293.332 1525.37 295.212 1525.84 Q297.093 1526.31 299.143 1526.31 Q302.717 1526.31 304.579 1524.9 Q306.459 1523.49 306.459 1520.8 Q306.459 1518.32 304.71 1516.92 Q302.98 1515.51 299.877 1515.51 L296.604 1515.51 L296.604 1512.39 L300.027 1512.39 Q302.83 1512.39 304.315 1511.28 Q305.801 1510.15 305.801 1508.05 Q305.801 1505.88 304.259 1504.74 Q302.736 1503.57 299.877 1503.57 Q298.316 1503.57 296.529 1503.91 Q294.742 1504.25 292.598 1504.96 L292.598 1501.58 Q294.761 1500.98 296.642 1500.67 Q298.541 1500.37 300.215 1500.37 Q304.541 1500.37 307.061 1502.35 Q309.582 1504.3 309.582 1507.65 Q309.582 1509.98 308.246 1511.6 Q306.911 1513.2 304.447 1513.82 Z" fill="#000000" fill-rule="evenodd" fill-opacity="1" /><path clip-path="url(#clip460)" d="M1057.14 1552.44 L1064.78 1552.44 L1064.78 1526.07 L1056.47 1527.74 L1056.47 1523.48 L1064.74 1521.81 L1069.41 1521.81 L1069.41 1552.44 L1077.05 1552.44 L1077.05 1556.37 L1057.14 1556.37 L1057.14 1552.44 Z" fill="#000000" fill-rule="evenodd" fill-opacity="1" /><path clip-path="url(#clip460)" d="M1096.49 1524.89 Q1092.88 1524.89 1091.05 1528.46 Q1089.25 1532 1089.25 1539.13 Q1089.25 1546.23 1091.05 1549.8 Q1092.88 1553.34 1096.49 1553.34 Q1100.13 1553.34 1101.93 1549.8 Q1103.76 1546.23 1103.76 1539.13 Q1103.76 1532 1101.93 1528.46 Q1100.13 1524.89 1096.49 1524.89 M1096.49 1521.19 Q1102.3 1521.19 1105.36 1525.79 Q1108.44 1530.38 1108.44 1539.13 Q1108.44 1547.85 1105.36 1552.46 Q1102.3 1557.04 1096.49 1557.04 Q1090.68 1557.04 1087.61 1552.46 Q1084.55 1547.85 1084.55 1539.13 Q1084.55 1530.38 1087.61 1525.79 Q1090.68 1521.19 1096.49 1521.19 Z" fill="#000000" fill-rule="evenodd" fill-opacity="1" /><path clip-path="url(#clip460)" d="M1108.44 1515.29 L1132.55 1515.29 L1132.55 1518.49 L1108.44 1518.49 L1108.44 1515.29 Z" fill="#000000" fill-rule="evenodd" fill-opacity="1" /><path clip-path="url(#clip460)" d="M1144.02 1525.76 L1157.28 1525.76 L1157.28 1528.96 L1139.45 1528.96 L1139.45 1525.76 Q1141.62 1523.53 1145.34 1519.76 Q1149.08 1515.98 1150.04 1514.89 Q1151.87 1512.84 1152.58 1511.43 Q1153.31 1510 1153.31 1508.63 Q1153.31 1506.39 1151.73 1504.98 Q1150.17 1503.57 1147.65 1503.57 Q1145.87 1503.57 1143.87 1504.19 Q1141.9 1504.81 1139.64 1506.07 L1139.64 1502.24 Q1141.94 1501.31 1143.93 1500.84 Q1145.92 1500.37 1147.58 1500.37 Q1151.94 1500.37 1154.54 1502.56 Q1157.13 1504.74 1157.13 1508.39 Q1157.13 1510.12 1156.47 1511.68 Q1155.83 1513.22 1154.12 1515.33 Q1153.65 1515.87 1151.13 1518.49 Q1148.61 1521.08 1144.02 1525.76 Z" fill="#000000" fill-rule="evenodd" fill-opacity="1" /><path clip-path="url(#clip460)" d="M1904.42 1552.44 L1912.06 1552.44 L1912.06 1526.07 L1903.75 1527.74 L1903.75 1523.48 L1912.01 1521.81 L1916.69 1521.81 L1916.69 1552.44 L1924.33 1552.44 L1924.33 1556.37 L1904.42 1556.37 L1904.42 1552.44 Z" fill="#000000" fill-rule="evenodd" fill-opacity="1" /><path clip-path="url(#clip460)" d="M1943.77 1524.89 Q1940.16 1524.89 1938.33 1528.46 Q1936.53 1532 1936.53 1539.13 Q1936.53 1546.23 1938.33 1549.8 Q1940.16 1553.34 1943.77 1553.34 Q1947.41 1553.34 1949.21 1549.8 Q1951.04 1546.23 1951.04 1539.13 Q1951.04 1532 1949.21 1528.46 Q1947.41 1524.89 1943.77 1524.89 M1943.77 1521.19 Q1949.58 1521.19 1952.64 1525.79 Q1955.72 1530.38 1955.72 1539.13 Q1955.72 1547.85 1952.64 1552.46 Q1949.58 1557.04 1943.77 1557.04 Q1937.96 1557.04 1934.88 1552.46 Q1931.83 1547.85 1931.83 1539.13 Q1931.83 1530.38 1934.88 1525.79 Q1937.96 1521.19 1943.77 1521.19 Z" fill="#000000" fill-rule="evenodd" fill-opacity="1" /><path clip-path="url(#clip460)" d="M1955.72 1515.29 L1979.83 1515.29 L1979.83 1518.49 L1955.72 1518.49 L1955.72 1515.29 Z" fill="#000000" fill-rule="evenodd" fill-opacity="1" /><path clip-path="url(#clip460)" d="M1988.69 1525.76 L1994.89 1525.76 L1994.89 1504.34 L1988.14 1505.7 L1988.14 1502.24 L1994.86 1500.88 L1998.66 1500.88 L1998.66 1525.76 L2004.86 1525.76 L2004.86 1528.96 L1988.69 1528.96 L1988.69 1525.76 Z" fill="#000000" fill-rule="evenodd" fill-opacity="1" /><polyline clip-path="url(#clip462)" style="stroke:#000000; stroke-linecap:butt; stroke-linejoin:round; stroke-width:2; stroke-opacity:0.1; fill:none" points="
  189.496,1429.14 2352.76,1429.14 
  "/>
<polyline clip-path="url(#clip462)" style="stroke:#000000; stroke-linecap:butt; stroke-linejoin:round; stroke-width:2; stroke-opacity:0.1; fill:none" points="
  189.496,1203.66 2352.76,1203.66 
  "/>
<polyline clip-path="url(#clip462)" style="stroke:#000000; stroke-linecap:butt; stroke-linejoin:round; stroke-width:2; stroke-opacity:0.1; fill:none" points="
  189.496,978.18 2352.76,978.18 
  "/>
<polyline clip-path="url(#clip462)" style="stroke:#000000; stroke-linecap:butt; stroke-linejoin:round; stroke-width:2; stroke-opacity:0.1; fill:none" points="
  189.496,752.703 2352.76,752.703 
  "/>
<polyline clip-path="url(#clip462)" style="stroke:#000000; stroke-linecap:butt; stroke-linejoin:round; stroke-width:2; stroke-opacity:0.1; fill:none" points="
  189.496,527.225 2352.76,527.225 
  "/>
<polyline clip-path="url(#clip462)" style="stroke:#000000; stroke-linecap:butt; stroke-linejoin:round; stroke-width:2; stroke-opacity:0.1; fill:none" points="
  189.496,301.747 2352.76,301.747 
  "/>
<polyline clip-path="url(#clip462)" style="stroke:#000000; stroke-linecap:butt; stroke-linejoin:round; stroke-width:2; stroke-opacity:0.1; fill:none" points="
  189.496,76.2698 2352.76,76.2698 
  "/>
<polyline clip-path="url(#clip460)" style="stroke:#000000; stroke-linecap:butt; stroke-linejoin:round; stroke-width:4; stroke-opacity:1; fill:none" points="
  189.496,1474.16 189.496,47.2441 
  "/>
<polyline clip-path="url(#clip460)" style="stroke:#000000; stroke-linecap:butt; stroke-linejoin:round; stroke-width:4; stroke-opacity:1; fill:none" points="
  189.496,1429.14 208.394,1429.14 
  "/>
<polyline clip-path="url(#clip460)" style="stroke:#000000; stroke-linecap:butt; stroke-linejoin:round; stroke-width:4; stroke-opacity:1; fill:none" points="
  189.496,1203.66 208.394,1203.66 
  "/>
<polyline clip-path="url(#clip460)" style="stroke:#000000; stroke-linecap:butt; stroke-linejoin:round; stroke-width:4; stroke-opacity:1; fill:none" points="
  189.496,978.18 208.394,978.18 
  "/>
<polyline clip-path="url(#clip460)" style="stroke:#000000; stroke-linecap:butt; stroke-linejoin:round; stroke-width:4; stroke-opacity:1; fill:none" points="
  189.496,752.703 208.394,752.703 
  "/>
<polyline clip-path="url(#clip460)" style="stroke:#000000; stroke-linecap:butt; stroke-linejoin:round; stroke-width:4; stroke-opacity:1; fill:none" points="
  189.496,527.225 208.394,527.225 
  "/>
<polyline clip-path="url(#clip460)" style="stroke:#000000; stroke-linecap:butt; stroke-linejoin:round; stroke-width:4; stroke-opacity:1; fill:none" points="
  189.496,301.747 208.394,301.747 
  "/>
<polyline clip-path="url(#clip460)" style="stroke:#000000; stroke-linecap:butt; stroke-linejoin:round; stroke-width:4; stroke-opacity:1; fill:none" points="
  189.496,76.2698 208.394,76.2698 
  "/>
<path clip-path="url(#clip460)" d="M51.9267 1448.93 L59.5656 1448.93 L59.5656 1422.56 L51.2554 1424.23 L51.2554 1419.97 L59.5193 1418.3 L64.1952 1418.3 L64.1952 1448.93 L71.834 1448.93 L71.834 1452.86 L51.9267 1452.86 L51.9267 1448.93 Z" fill="#000000" fill-rule="evenodd" fill-opacity="1" /><path clip-path="url(#clip460)" d="M91.2784 1421.38 Q87.6673 1421.38 85.8386 1424.95 Q84.033 1428.49 84.033 1435.62 Q84.033 1442.72 85.8386 1446.29 Q87.6673 1449.83 91.2784 1449.83 Q94.9126 1449.83 96.7182 1446.29 Q98.5468 1442.72 98.5468 1435.62 Q98.5468 1428.49 96.7182 1424.95 Q94.9126 1421.38 91.2784 1421.38 M91.2784 1417.68 Q97.0885 1417.68 100.144 1422.28 Q103.223 1426.87 103.223 1435.62 Q103.223 1444.34 100.144 1448.95 Q97.0885 1453.53 91.2784 1453.53 Q85.4682 1453.53 82.3895 1448.95 Q79.334 1444.34 79.334 1435.62 Q79.334 1426.87 82.3895 1422.28 Q85.4682 1417.68 91.2784 1417.68 Z" fill="#000000" fill-rule="evenodd" fill-opacity="1" /><path clip-path="url(#clip460)" d="M103.223 1411.78 L127.334 1411.78 L127.334 1414.98 L103.223 1414.98 L103.223 1411.78 Z" fill="#000000" fill-rule="evenodd" fill-opacity="1" /><path clip-path="url(#clip460)" d="M144.13 1409.9 Q141.572 1409.9 140.067 1411.65 Q138.581 1413.4 138.581 1416.44 Q138.581 1419.47 140.067 1421.24 Q141.572 1422.99 144.13 1422.99 Q146.688 1422.99 148.173 1421.24 Q149.678 1419.47 149.678 1416.44 Q149.678 1413.4 148.173 1411.65 Q146.688 1409.9 144.13 1409.9 M151.672 1397.99 L151.672 1401.45 Q150.242 1400.78 148.775 1400.42 Q147.327 1400.06 145.898 1400.06 Q142.136 1400.06 140.142 1402.6 Q138.168 1405.14 137.885 1410.27 Q138.995 1408.64 140.669 1407.77 Q142.343 1406.89 144.355 1406.89 Q148.587 1406.89 151.032 1409.47 Q153.496 1412.02 153.496 1416.44 Q153.496 1420.77 150.938 1423.38 Q148.38 1426 144.13 1426 Q139.258 1426 136.682 1422.27 Q134.105 1418.53 134.105 1411.44 Q134.105 1404.78 137.265 1400.83 Q140.425 1396.86 145.747 1396.86 Q147.177 1396.86 148.625 1397.15 Q150.092 1397.43 151.672 1397.99 Z" fill="#000000" fill-rule="evenodd" fill-opacity="1" /><path clip-path="url(#clip460)" d="M52.8671 1223.45 L60.506 1223.45 L60.506 1197.08 L52.1958 1198.75 L52.1958 1194.49 L60.4597 1192.83 L65.1356 1192.83 L65.1356 1223.45 L72.7744 1223.45 L72.7744 1227.39 L52.8671 1227.39 L52.8671 1223.45 Z" fill="#000000" fill-rule="evenodd" fill-opacity="1" /><path clip-path="url(#clip460)" d="M92.2188 1195.9 Q88.6077 1195.9 86.779 1199.47 Q84.9734 1203.01 84.9734 1210.14 Q84.9734 1217.25 86.779 1220.81 Q88.6077 1224.35 92.2188 1224.35 Q95.853 1224.35 97.6585 1220.81 Q99.4872 1217.25 99.4872 1210.14 Q99.4872 1203.01 97.6585 1199.47 Q95.853 1195.9 92.2188 1195.9 M92.2188 1192.2 Q98.0289 1192.2 101.084 1196.81 Q104.163 1201.39 104.163 1210.14 Q104.163 1218.87 101.084 1223.47 Q98.0289 1228.06 92.2188 1228.06 Q86.4086 1228.06 83.3299 1223.47 Q80.2744 1218.87 80.2744 1210.14 Q80.2744 1201.39 83.3299 1196.81 Q86.4086 1192.2 92.2188 1192.2 Z" fill="#000000" fill-rule="evenodd" fill-opacity="1" /><path clip-path="url(#clip460)" d="M104.163 1186.3 L128.275 1186.3 L128.275 1189.5 L104.163 1189.5 L104.163 1186.3 Z" fill="#000000" fill-rule="evenodd" fill-opacity="1" /><path clip-path="url(#clip460)" d="M136.513 1171.89 L151.427 1171.89 L151.427 1175.09 L139.992 1175.09 L139.992 1181.98 Q140.819 1181.69 141.647 1181.56 Q142.475 1181.41 143.302 1181.41 Q148.004 1181.41 150.75 1183.99 Q153.496 1186.56 153.496 1190.97 Q153.496 1195.5 150.675 1198.02 Q147.854 1200.52 142.719 1200.52 Q140.951 1200.52 139.108 1200.22 Q137.284 1199.92 135.328 1199.32 L135.328 1195.5 Q137.02 1196.42 138.826 1196.87 Q140.631 1197.32 142.644 1197.32 Q145.898 1197.32 147.797 1195.61 Q149.697 1193.9 149.697 1190.97 Q149.697 1188.03 147.797 1186.32 Q145.898 1184.61 142.644 1184.61 Q141.12 1184.61 139.597 1184.95 Q138.092 1185.29 136.513 1186 L136.513 1171.89 Z" fill="#000000" fill-rule="evenodd" fill-opacity="1" /><path clip-path="url(#clip460)" d="M51.6634 997.973 L59.3023 997.973 L59.3023 971.607 L50.9921 973.274 L50.9921 969.014 L59.256 967.348 L63.9319 967.348 L63.9319 997.973 L71.5707 997.973 L71.5707 1001.91 L51.6634 1001.91 L51.6634 997.973 Z" fill="#000000" fill-rule="evenodd" fill-opacity="1" /><path clip-path="url(#clip460)" d="M91.0151 970.426 Q87.404 970.426 85.5753 973.991 Q83.7697 977.533 83.7697 984.662 Q83.7697 991.769 85.5753 995.334 Q87.404 998.875 91.0151 998.875 Q94.6493 998.875 96.4548 995.334 Q98.2835 991.769 98.2835 984.662 Q98.2835 977.533 96.4548 973.991 Q94.6493 970.426 91.0151 970.426 M91.0151 966.723 Q96.8252 966.723 99.8808 971.329 Q102.959 975.913 102.959 984.662 Q102.959 993.389 99.8808 997.996 Q96.8252 1002.58 91.0151 1002.58 Q85.2049 1002.58 82.1262 997.996 Q79.0707 993.389 79.0707 984.662 Q79.0707 975.913 82.1262 971.329 Q85.2049 966.723 91.0151 966.723 Z" fill="#000000" fill-rule="evenodd" fill-opacity="1" /><path clip-path="url(#clip460)" d="M102.959 960.824 L127.071 960.824 L127.071 964.021 L102.959 964.021 L102.959 960.824 Z" fill="#000000" fill-rule="evenodd" fill-opacity="1" /><path clip-path="url(#clip460)" d="M145.71 949.727 L136.118 964.717 L145.71 964.717 L145.71 949.727 M144.713 946.417 L149.49 946.417 L149.49 964.717 L153.496 964.717 L153.496 967.877 L149.49 967.877 L149.49 974.497 L145.71 974.497 L145.71 967.877 L133.033 967.877 L133.033 964.209 L144.713 946.417 Z" fill="#000000" fill-rule="evenodd" fill-opacity="1" /><path clip-path="url(#clip460)" d="M52.585 772.495 L60.2238 772.495 L60.2238 746.129 L51.9137 747.796 L51.9137 743.537 L60.1776 741.87 L64.8535 741.87 L64.8535 772.495 L72.4923 772.495 L72.4923 776.43 L52.585 776.43 L52.585 772.495 Z" fill="#000000" fill-rule="evenodd" fill-opacity="1" /><path clip-path="url(#clip460)" d="M91.9366 744.949 Q88.3255 744.949 86.4969 748.514 Q84.6913 752.055 84.6913 759.185 Q84.6913 766.291 86.4969 769.856 Q88.3255 773.398 91.9366 773.398 Q95.5709 773.398 97.3764 769.856 Q99.2051 766.291 99.2051 759.185 Q99.2051 752.055 97.3764 748.514 Q95.5709 744.949 91.9366 744.949 M91.9366 741.245 Q97.7468 741.245 100.802 745.852 Q103.881 750.435 103.881 759.185 Q103.881 767.912 100.802 772.518 Q97.7468 777.101 91.9366 777.101 Q86.1265 777.101 83.0478 772.518 Q79.9923 767.912 79.9923 759.185 Q79.9923 750.435 83.0478 745.852 Q86.1265 741.245 91.9366 741.245 Z" fill="#000000" fill-rule="evenodd" fill-opacity="1" /><path clip-path="url(#clip460)" d="M103.881 735.346 L127.993 735.346 L127.993 738.544 L103.881 738.544 L103.881 735.346 Z" fill="#000000" fill-rule="evenodd" fill-opacity="1" /><path clip-path="url(#clip460)" d="M147.703 733.879 Q150.43 734.463 151.954 736.306 Q153.496 738.149 153.496 740.857 Q153.496 745.014 150.637 747.289 Q147.778 749.565 142.512 749.565 Q140.744 749.565 138.863 749.208 Q137.002 748.869 135.008 748.173 L135.008 744.506 Q136.588 745.427 138.469 745.898 Q140.349 746.368 142.399 746.368 Q145.973 746.368 147.835 744.957 Q149.716 743.547 149.716 740.857 Q149.716 738.375 147.966 736.983 Q146.236 735.572 143.133 735.572 L139.86 735.572 L139.86 732.45 L143.283 732.45 Q146.086 732.45 147.571 731.34 Q149.057 730.212 149.057 728.106 Q149.057 725.943 147.515 724.795 Q145.992 723.629 143.133 723.629 Q141.572 723.629 139.785 723.968 Q137.998 724.306 135.854 725.021 L135.854 721.636 Q138.017 721.034 139.898 720.733 Q141.797 720.432 143.471 720.432 Q147.797 720.432 150.317 722.407 Q152.838 724.363 152.838 727.711 Q152.838 730.043 151.502 731.66 Q150.167 733.259 147.703 733.879 Z" fill="#000000" fill-rule="evenodd" fill-opacity="1" /><path clip-path="url(#clip460)" d="M53.3561 547.017 L60.995 547.017 L60.995 520.652 L52.6848 522.318 L52.6848 518.059 L60.9487 516.393 L65.6246 516.393 L65.6246 547.017 L73.2634 547.017 L73.2634 550.953 L53.3561 550.953 L53.3561 547.017 Z" fill="#000000" fill-rule="evenodd" fill-opacity="1" /><path clip-path="url(#clip460)" d="M92.7078 519.471 Q89.0967 519.471 87.268 523.036 Q85.4624 526.578 85.4624 533.707 Q85.4624 540.814 87.268 544.379 Q89.0967 547.92 92.7078 547.92 Q96.342 547.92 98.1475 544.379 Q99.9762 540.814 99.9762 533.707 Q99.9762 526.578 98.1475 523.036 Q96.342 519.471 92.7078 519.471 M92.7078 515.768 Q98.5179 515.768 101.573 520.374 Q104.652 524.957 104.652 533.707 Q104.652 542.434 101.573 547.041 Q98.5179 551.624 92.7078 551.624 Q86.8976 551.624 83.8189 547.041 Q80.7634 542.434 80.7634 533.707 Q80.7634 524.957 83.8189 520.374 Q86.8976 515.768 92.7078 515.768 Z" fill="#000000" fill-rule="evenodd" fill-opacity="1" /><path clip-path="url(#clip460)" d="M104.652 509.869 L128.764 509.869 L128.764 513.066 L104.652 513.066 L104.652 509.869 Z" fill="#000000" fill-rule="evenodd" fill-opacity="1" /><path clip-path="url(#clip460)" d="M140.236 520.345 L153.496 520.345 L153.496 523.542 L135.666 523.542 L135.666 520.345 Q137.829 518.107 141.553 514.345 Q145.296 510.565 146.255 509.474 Q148.079 507.424 148.794 506.013 Q149.527 504.584 149.527 503.211 Q149.527 500.973 147.948 499.562 Q146.387 498.152 143.866 498.152 Q142.08 498.152 140.086 498.772 Q138.111 499.393 135.854 500.653 L135.854 496.816 Q138.149 495.895 140.142 495.425 Q142.136 494.954 143.791 494.954 Q148.155 494.954 150.75 497.136 Q153.345 499.318 153.345 502.966 Q153.345 504.697 152.687 506.258 Q152.048 507.8 150.336 509.907 Q149.866 510.452 147.346 513.066 Q144.826 515.662 140.236 520.345 Z" fill="#000000" fill-rule="evenodd" fill-opacity="1" /><path clip-path="url(#clip460)" d="M53.0552 321.54 L60.694 321.54 L60.694 295.174 L52.3839 296.841 L52.3839 292.582 L60.6477 290.915 L65.3236 290.915 L65.3236 321.54 L72.9625 321.54 L72.9625 325.475 L53.0552 325.475 L53.0552 321.54 Z" fill="#000000" fill-rule="evenodd" fill-opacity="1" /><path clip-path="url(#clip460)" d="M92.4068 293.994 Q88.7957 293.994 86.967 297.558 Q85.1615 301.1 85.1615 308.23 Q85.1615 315.336 86.967 318.901 Q88.7957 322.443 92.4068 322.443 Q96.0411 322.443 97.8466 318.901 Q99.6753 315.336 99.6753 308.23 Q99.6753 301.1 97.8466 297.558 Q96.0411 293.994 92.4068 293.994 M92.4068 290.29 Q98.217 290.29 101.273 294.896 Q104.351 299.48 104.351 308.23 Q104.351 316.956 101.273 321.563 Q98.217 326.146 92.4068 326.146 Q86.5967 326.146 83.518 321.563 Q80.4625 316.956 80.4625 308.23 Q80.4625 299.48 83.518 294.896 Q86.5967 290.29 92.4068 290.29 Z" fill="#000000" fill-rule="evenodd" fill-opacity="1" /><path clip-path="url(#clip460)" d="M104.351 284.391 L128.463 284.391 L128.463 287.589 L104.351 287.589 L104.351 284.391 Z" fill="#000000" fill-rule="evenodd" fill-opacity="1" /><path clip-path="url(#clip460)" d="M137.321 294.867 L143.528 294.867 L143.528 273.445 L136.776 274.799 L136.776 271.339 L143.49 269.985 L147.289 269.985 L147.289 294.867 L153.496 294.867 L153.496 298.065 L137.321 298.065 L137.321 294.867 Z" fill="#000000" fill-rule="evenodd" fill-opacity="1" /><path clip-path="url(#clip460)" d="M82.7903 96.0622 L90.4291 96.0622 L90.4291 69.6966 L82.119 71.3633 L82.119 67.104 L90.3828 65.4374 L95.0587 65.4374 L95.0587 96.0622 L102.698 96.0622 L102.698 99.9974 L82.7903 99.9974 L82.7903 96.0622 Z" fill="#000000" fill-rule="evenodd" fill-opacity="1" /><path clip-path="url(#clip460)" d="M122.142 68.5161 Q118.531 68.5161 116.702 72.0809 Q114.897 75.6225 114.897 82.7521 Q114.897 89.8585 116.702 93.4233 Q118.531 96.965 122.142 96.965 Q125.776 96.965 127.582 93.4233 Q129.41 89.8585 129.41 82.7521 Q129.41 75.6225 127.582 72.0809 Q125.776 68.5161 122.142 68.5161 M122.142 64.8124 Q127.952 64.8124 131.008 69.4188 Q134.086 74.0021 134.086 82.7521 Q134.086 91.4789 131.008 96.0854 Q127.952 100.669 122.142 100.669 Q116.332 100.669 113.253 96.0854 Q110.198 91.4789 110.198 82.7521 Q110.198 74.0021 113.253 69.4188 Q116.332 64.8124 122.142 64.8124 Z" fill="#000000" fill-rule="evenodd" fill-opacity="1" /><path clip-path="url(#clip460)" d="M143.791 47.0084 Q140.857 47.0084 139.371 49.9048 Q137.904 52.7824 137.904 58.5752 Q137.904 64.3492 139.371 67.2456 Q140.857 70.1232 143.791 70.1232 Q146.744 70.1232 148.211 67.2456 Q149.697 64.3492 149.697 58.5752 Q149.697 52.7824 148.211 49.9048 Q146.744 47.0084 143.791 47.0084 M143.791 43.9992 Q148.512 43.9992 150.994 47.7419 Q153.496 51.4659 153.496 58.5752 Q153.496 65.6657 150.994 69.4085 Q148.512 73.1324 143.791 73.1324 Q139.07 73.1324 136.569 69.4085 Q134.086 65.6657 134.086 58.5752 Q134.086 51.4659 136.569 47.7419 Q139.07 43.9992 143.791 43.9992 Z" fill="#000000" fill-rule="evenodd" fill-opacity="1" /><polyline clip-path="url(#clip462)" style="stroke:#009af9; stroke-linecap:butt; stroke-linejoin:round; stroke-width:4; stroke-opacity:1; fill:none" points="
  2291.53,87.6286 2036.43,161.243 1781.33,234.376 1526.23,305.065 1271.13,374.473 1016.02,443.057 760.923,511.312 505.822,579.378 250.72,647.349 
  "/>
<circle clip-path="url(#clip462)" cx="2291.53" cy="87.6286" r="14" fill="#009af9" fill-rule="evenodd" fill-opacity="1" stroke="#000000" stroke-opacity="1" stroke-width="3.2"/>
<circle clip-path="url(#clip462)" cx="2036.43" cy="161.243" r="14" fill="#009af9" fill-rule="evenodd" fill-opacity="1" stroke="#000000" stroke-opacity="1" stroke-width="3.2"/>
<circle clip-path="url(#clip462)" cx="1781.33" cy="234.376" r="14" fill="#009af9" fill-rule="evenodd" fill-opacity="1" stroke="#000000" stroke-opacity="1" stroke-width="3.2"/>
<circle clip-path="url(#clip462)" cx="1526.23" cy="305.065" r="14" fill="#009af9" fill-rule="evenodd" fill-opacity="1" stroke="#000000" stroke-opacity="1" stroke-width="3.2"/>
<circle clip-path="url(#clip462)" cx="1271.13" cy="374.473" r="14" fill="#009af9" fill-rule="evenodd" fill-opacity="1" stroke="#000000" stroke-opacity="1" stroke-width="3.2"/>
<circle clip-path="url(#clip462)" cx="1016.02" cy="443.057" r="14" fill="#009af9" fill-rule="evenodd" fill-opacity="1" stroke="#000000" stroke-opacity="1" stroke-width="3.2"/>
<circle clip-path="url(#clip462)" cx="760.923" cy="511.312" r="14" fill="#009af9" fill-rule="evenodd" fill-opacity="1" stroke="#000000" stroke-opacity="1" stroke-width="3.2"/>
<circle clip-path="url(#clip462)" cx="505.822" cy="579.378" r="14" fill="#009af9" fill-rule="evenodd" fill-opacity="1" stroke="#000000" stroke-opacity="1" stroke-width="3.2"/>
<circle clip-path="url(#clip462)" cx="250.72" cy="647.349" r="14" fill="#009af9" fill-rule="evenodd" fill-opacity="1" stroke="#000000" stroke-opacity="1" stroke-width="3.2"/>
<polyline clip-path="url(#clip462)" style="stroke:#e26f46; stroke-linecap:butt; stroke-linejoin:round; stroke-width:4; stroke-opacity:1; fill:none" points="
  2291.53,87.6286 2036.43,161.243 1781.33,234.376 1526.23,305.065 1271.13,374.473 1016.02,443.057 760.923,511.312 505.822,579.378 250.72,647.349 
  "/>
<circle clip-path="url(#clip462)" cx="2291.53" cy="87.6286" r="14" fill="#e26f46" fill-rule="evenodd" fill-opacity="1" stroke="#000000" stroke-opacity="1" stroke-width="3.2"/>
<circle clip-path="url(#clip462)" cx="2036.43" cy="161.243" r="14" fill="#e26f46" fill-rule="evenodd" fill-opacity="1" stroke="#000000" stroke-opacity="1" stroke-width="3.2"/>
<circle clip-path="url(#clip462)" cx="1781.33" cy="234.376" r="14" fill="#e26f46" fill-rule="evenodd" fill-opacity="1" stroke="#000000" stroke-opacity="1" stroke-width="3.2"/>
<circle clip-path="url(#clip462)" cx="1526.23" cy="305.065" r="14" fill="#e26f46" fill-rule="evenodd" fill-opacity="1" stroke="#000000" stroke-opacity="1" stroke-width="3.2"/>
<circle clip-path="url(#clip462)" cx="1271.13" cy="374.473" r="14" fill="#e26f46" fill-rule="evenodd" fill-opacity="1" stroke="#000000" stroke-opacity="1" stroke-width="3.2"/>
<circle clip-path="url(#clip462)" cx="1016.02" cy="443.057" r="14" fill="#e26f46" fill-rule="evenodd" fill-opacity="1" stroke="#000000" stroke-opacity="1" stroke-width="3.2"/>
<circle clip-path="url(#clip462)" cx="760.923" cy="511.312" r="14" fill="#e26f46" fill-rule="evenodd" fill-opacity="1" stroke="#000000" stroke-opacity="1" stroke-width="3.2"/>
<circle clip-path="url(#clip462)" cx="505.822" cy="579.378" r="14" fill="#e26f46" fill-rule="evenodd" fill-opacity="1" stroke="#000000" stroke-opacity="1" stroke-width="3.2"/>
<circle clip-path="url(#clip462)" cx="250.72" cy="647.349" r="14" fill="#e26f46" fill-rule="evenodd" fill-opacity="1" stroke="#000000" stroke-opacity="1" stroke-width="3.2"/>
<polyline clip-path="url(#clip462)" style="stroke:#3da44d; stroke-linecap:butt; stroke-linejoin:round; stroke-width:4; stroke-opacity:1; fill:none" points="
  2291.53,195.928 2036.43,294.798 1781.33,433.934 1526.23,573.994 1271.13,712.392 1016.02,849.574 760.923,986.065 505.822,1122.19 250.72,1258.13 
  "/>
<circle clip-path="url(#clip462)" cx="2291.53" cy="195.928" r="14" fill="#3da44d" fill-rule="evenodd" fill-opacity="1" stroke="#000000" stroke-opacity="1" stroke-width="3.2"/>
<circle clip-path="url(#clip462)" cx="2036.43" cy="294.798" r="14" fill="#3da44d" fill-rule="evenodd" fill-opacity="1" stroke="#000000" stroke-opacity="1" stroke-width="3.2"/>
<circle clip-path="url(#clip462)" cx="1781.33" cy="433.934" r="14" fill="#3da44d" fill-rule="evenodd" fill-opacity="1" stroke="#000000" stroke-opacity="1" stroke-width="3.2"/>
<circle clip-path="url(#clip462)" cx="1526.23" cy="573.994" r="14" fill="#3da44d" fill-rule="evenodd" fill-opacity="1" stroke="#000000" stroke-opacity="1" stroke-width="3.2"/>
<circle clip-path="url(#clip462)" cx="1271.13" cy="712.392" r="14" fill="#3da44d" fill-rule="evenodd" fill-opacity="1" stroke="#000000" stroke-opacity="1" stroke-width="3.2"/>
<circle clip-path="url(#clip462)" cx="1016.02" cy="849.574" r="14" fill="#3da44d" fill-rule="evenodd" fill-opacity="1" stroke="#000000" stroke-opacity="1" stroke-width="3.2"/>
<circle clip-path="url(#clip462)" cx="760.923" cy="986.065" r="14" fill="#3da44d" fill-rule="evenodd" fill-opacity="1" stroke="#000000" stroke-opacity="1" stroke-width="3.2"/>
<circle clip-path="url(#clip462)" cx="505.822" cy="1122.19" r="14" fill="#3da44d" fill-rule="evenodd" fill-opacity="1" stroke="#000000" stroke-opacity="1" stroke-width="3.2"/>
<circle clip-path="url(#clip462)" cx="250.72" cy="1258.13" r="14" fill="#3da44d" fill-rule="evenodd" fill-opacity="1" stroke="#000000" stroke-opacity="1" stroke-width="3.2"/>
<polyline clip-path="url(#clip462)" style="stroke:#c271d2; stroke-linecap:butt; stroke-linejoin:round; stroke-width:4; stroke-opacity:1; fill:none" points="
  2291.53,347.772 2036.43,483.523 1781.33,619.274 1526.23,755.025 1271.13,890.776 1016.02,1026.53 760.923,1162.28 505.822,1298.03 250.72,1433.78 
  "/>
<path clip-path="url(#clip460)" d="
M1912.97 354.008 L2280.65 354.008 L2280.65 94.8081 L1912.97 94.8081  Z
  " fill="#ffffff" fill-rule="evenodd" fill-opacity="1"/>
<polyline clip-path="url(#clip460)" style="stroke:#000000; stroke-linecap:butt; stroke-linejoin:round; stroke-width:4; stroke-opacity:1; fill:none" points="
  1912.97,354.008 2280.65,354.008 2280.65,94.8081 1912.97,94.8081 1912.97,354.008 
  "/>
<polyline clip-path="url(#clip460)" style="stroke:#009af9; stroke-linecap:butt; stroke-linejoin:round; stroke-width:4; stroke-opacity:1; fill:none" points="
  1937.01,146.648 2081.22,146.648 
  "/>
<circle clip-path="url(#clip460)" cx="2009.12" cy="146.648" r="23" fill="#009af9" fill-rule="evenodd" fill-opacity="1" stroke="#000000" stroke-opacity="1" stroke-width="5.12"/>
<path clip-path="url(#clip460)" d="M2124.17 141.937 L2124.17 127.91 L2128.43 127.91 L2128.43 163.928 L2124.17 163.928 L2124.17 160.039 Q2122.83 162.354 2120.77 163.488 Q2118.73 164.599 2115.86 164.599 Q2111.16 164.599 2108.2 160.849 Q2105.26 157.099 2105.26 150.988 Q2105.26 144.877 2108.2 141.127 Q2111.16 137.377 2115.86 137.377 Q2118.73 137.377 2120.77 138.512 Q2122.83 139.623 2124.17 141.937 M2109.66 150.988 Q2109.66 155.687 2111.58 158.373 Q2113.52 161.035 2116.9 161.035 Q2120.28 161.035 2122.23 158.373 Q2124.17 155.687 2124.17 150.988 Q2124.17 146.289 2122.23 143.627 Q2120.28 140.942 2116.9 140.942 Q2113.52 140.942 2111.58 143.627 Q2109.66 146.289 2109.66 150.988 Z" fill="#000000" fill-rule="evenodd" fill-opacity="1" /><path clip-path="url(#clip460)" d="M2137.2 138.002 L2141.46 138.002 L2141.46 163.928 L2137.2 163.928 L2137.2 138.002 M2137.2 127.91 L2141.46 127.91 L2141.46 133.303 L2137.2 133.303 L2137.2 127.91 Z" fill="#000000" fill-rule="evenodd" fill-opacity="1" /><path clip-path="url(#clip460)" d="M2163.5 127.91 L2163.5 131.451 L2159.43 131.451 Q2157.14 131.451 2156.23 132.377 Q2155.35 133.303 2155.35 135.711 L2155.35 138.002 L2162.37 138.002 L2162.37 141.312 L2155.35 141.312 L2155.35 163.928 L2151.07 163.928 L2151.07 141.312 L2147 141.312 L2147 138.002 L2151.07 138.002 L2151.07 136.197 Q2151.07 131.868 2153.08 129.901 Q2155.1 127.91 2159.47 127.91 L2163.5 127.91 Z" fill="#000000" fill-rule="evenodd" fill-opacity="1" /><path clip-path="url(#clip460)" d="M2180.19 127.91 L2180.19 131.451 L2176.12 131.451 Q2173.83 131.451 2172.92 132.377 Q2172.04 133.303 2172.04 135.711 L2172.04 138.002 L2179.06 138.002 L2179.06 141.312 L2172.04 141.312 L2172.04 163.928 L2167.76 163.928 L2167.76 141.312 L2163.69 141.312 L2163.69 138.002 L2167.76 138.002 L2167.76 136.197 Q2167.76 131.868 2169.77 129.901 Q2171.79 127.91 2176.16 127.91 L2180.19 127.91 Z" fill="#000000" fill-rule="evenodd" fill-opacity="1" /><path clip-path="url(#clip460)" d="M2185.17 159.993 L2192.81 159.993 L2192.81 133.627 L2184.5 135.294 L2184.5 131.035 L2192.76 129.368 L2197.44 129.368 L2197.44 159.993 L2205.07 159.993 L2205.07 163.928 L2185.17 163.928 L2185.17 159.993 Z" fill="#000000" fill-rule="evenodd" fill-opacity="1" /><path clip-path="url(#clip460)" d="M2213.92 127.91 L2218.18 127.91 L2218.18 163.928 L2213.92 163.928 L2213.92 127.91 Z" fill="#000000" fill-rule="evenodd" fill-opacity="1" /><polyline clip-path="url(#clip460)" style="stroke:#e26f46; stroke-linecap:butt; stroke-linejoin:round; stroke-width:4; stroke-opacity:1; fill:none" points="
  1937.01,198.488 2081.22,198.488 
  "/>
<circle clip-path="url(#clip460)" cx="2009.12" cy="198.488" r="23" fill="#e26f46" fill-rule="evenodd" fill-opacity="1" stroke="#000000" stroke-opacity="1" stroke-width="5.12"/>
<path clip-path="url(#clip460)" d="M2124.17 193.777 L2124.17 179.75 L2128.43 179.75 L2128.43 215.768 L2124.17 215.768 L2124.17 211.879 Q2122.83 214.194 2120.77 215.328 Q2118.73 216.439 2115.86 216.439 Q2111.16 216.439 2108.2 212.689 Q2105.26 208.939 2105.26 202.828 Q2105.26 196.717 2108.2 192.967 Q2111.16 189.217 2115.86 189.217 Q2118.73 189.217 2120.77 190.352 Q2122.83 191.463 2124.17 193.777 M2109.66 202.828 Q2109.66 207.527 2111.58 210.213 Q2113.52 212.875 2116.9 212.875 Q2120.28 212.875 2122.23 210.213 Q2124.17 207.527 2124.17 202.828 Q2124.17 198.129 2122.23 195.467 Q2120.28 192.782 2116.9 192.782 Q2113.52 192.782 2111.58 195.467 Q2109.66 198.129 2109.66 202.828 Z" fill="#000000" fill-rule="evenodd" fill-opacity="1" /><path clip-path="url(#clip460)" d="M2137.2 189.842 L2141.46 189.842 L2141.46 215.768 L2137.2 215.768 L2137.2 189.842 M2137.2 179.75 L2141.46 179.75 L2141.46 185.143 L2137.2 185.143 L2137.2 179.75 Z" fill="#000000" fill-rule="evenodd" fill-opacity="1" /><path clip-path="url(#clip460)" d="M2163.5 179.75 L2163.5 183.291 L2159.43 183.291 Q2157.14 183.291 2156.23 184.217 Q2155.35 185.143 2155.35 187.551 L2155.35 189.842 L2162.37 189.842 L2162.37 193.152 L2155.35 193.152 L2155.35 215.768 L2151.07 215.768 L2151.07 193.152 L2147 193.152 L2147 189.842 L2151.07 189.842 L2151.07 188.037 Q2151.07 183.708 2153.08 181.741 Q2155.1 179.75 2159.47 179.75 L2163.5 179.75 Z" fill="#000000" fill-rule="evenodd" fill-opacity="1" /><path clip-path="url(#clip460)" d="M2180.19 179.75 L2180.19 183.291 L2176.12 183.291 Q2173.83 183.291 2172.92 184.217 Q2172.04 185.143 2172.04 187.551 L2172.04 189.842 L2179.06 189.842 L2179.06 193.152 L2172.04 193.152 L2172.04 215.768 L2167.76 215.768 L2167.76 193.152 L2163.69 193.152 L2163.69 189.842 L2167.76 189.842 L2167.76 188.037 Q2167.76 183.708 2169.77 181.741 Q2171.79 179.75 2176.16 179.75 L2180.19 179.75 Z" fill="#000000" fill-rule="evenodd" fill-opacity="1" /><path clip-path="url(#clip460)" d="M2185.17 211.833 L2192.81 211.833 L2192.81 185.467 L2184.5 187.134 L2184.5 182.875 L2192.76 181.208 L2197.44 181.208 L2197.44 211.833 L2205.07 211.833 L2205.07 215.768 L2185.17 215.768 L2185.17 211.833 Z" fill="#000000" fill-rule="evenodd" fill-opacity="1" /><path clip-path="url(#clip460)" d="M2228.94 193.824 Q2228.22 193.407 2227.37 193.222 Q2226.53 193.014 2225.51 193.014 Q2221.9 193.014 2219.96 195.375 Q2218.04 197.713 2218.04 202.111 L2218.04 215.768 L2213.76 215.768 L2213.76 189.842 L2218.04 189.842 L2218.04 193.87 Q2219.38 191.509 2221.53 190.375 Q2223.69 189.217 2226.76 189.217 Q2227.2 189.217 2227.74 189.287 Q2228.27 189.333 2228.92 189.449 L2228.94 193.824 Z" fill="#000000" fill-rule="evenodd" fill-opacity="1" /><polyline clip-path="url(#clip460)" style="stroke:#3da44d; stroke-linecap:butt; stroke-linejoin:round; stroke-width:4; stroke-opacity:1; fill:none" points="
  1937.01,250.328 2081.22,250.328 
  "/>
<circle clip-path="url(#clip460)" cx="2009.12" cy="250.328" r="23" fill="#3da44d" fill-rule="evenodd" fill-opacity="1" stroke="#000000" stroke-opacity="1" stroke-width="5.12"/>
<path clip-path="url(#clip460)" d="M2124.17 245.617 L2124.17 231.59 L2128.43 231.59 L2128.43 267.608 L2124.17 267.608 L2124.17 263.719 Q2122.83 266.034 2120.77 267.168 Q2118.73 268.279 2115.86 268.279 Q2111.16 268.279 2108.2 264.529 Q2105.26 260.779 2105.26 254.668 Q2105.26 248.557 2108.2 244.807 Q2111.16 241.057 2115.86 241.057 Q2118.73 241.057 2120.77 242.192 Q2122.83 243.303 2124.17 245.617 M2109.66 254.668 Q2109.66 259.367 2111.58 262.053 Q2113.52 264.715 2116.9 264.715 Q2120.28 264.715 2122.23 262.053 Q2124.17 259.367 2124.17 254.668 Q2124.17 249.969 2122.23 247.307 Q2120.28 244.622 2116.9 244.622 Q2113.52 244.622 2111.58 247.307 Q2109.66 249.969 2109.66 254.668 Z" fill="#000000" fill-rule="evenodd" fill-opacity="1" /><path clip-path="url(#clip460)" d="M2137.2 241.682 L2141.46 241.682 L2141.46 267.608 L2137.2 267.608 L2137.2 241.682 M2137.2 231.59 L2141.46 231.59 L2141.46 236.983 L2137.2 236.983 L2137.2 231.59 Z" fill="#000000" fill-rule="evenodd" fill-opacity="1" /><path clip-path="url(#clip460)" d="M2163.5 231.59 L2163.5 235.131 L2159.43 235.131 Q2157.14 235.131 2156.23 236.057 Q2155.35 236.983 2155.35 239.391 L2155.35 241.682 L2162.37 241.682 L2162.37 244.992 L2155.35 244.992 L2155.35 267.608 L2151.07 267.608 L2151.07 244.992 L2147 244.992 L2147 241.682 L2151.07 241.682 L2151.07 239.877 Q2151.07 235.548 2153.08 233.581 Q2155.1 231.59 2159.47 231.59 L2163.5 231.59 Z" fill="#000000" fill-rule="evenodd" fill-opacity="1" /><path clip-path="url(#clip460)" d="M2180.19 231.59 L2180.19 235.131 L2176.12 235.131 Q2173.83 235.131 2172.92 236.057 Q2172.04 236.983 2172.04 239.391 L2172.04 241.682 L2179.06 241.682 L2179.06 244.992 L2172.04 244.992 L2172.04 267.608 L2167.76 267.608 L2167.76 244.992 L2163.69 244.992 L2163.69 241.682 L2167.76 241.682 L2167.76 239.877 Q2167.76 235.548 2169.77 233.581 Q2171.79 231.59 2176.16 231.59 L2180.19 231.59 Z" fill="#000000" fill-rule="evenodd" fill-opacity="1" /><path clip-path="url(#clip460)" d="M2185.17 263.673 L2192.81 263.673 L2192.81 237.307 L2184.5 238.974 L2184.5 234.715 L2192.76 233.048 L2197.44 233.048 L2197.44 263.673 L2205.07 263.673 L2205.07 267.608 L2185.17 267.608 L2185.17 263.673 Z" fill="#000000" fill-rule="evenodd" fill-opacity="1" /><path clip-path="url(#clip460)" d="M2232.57 242.678 L2232.57 246.659 Q2230.77 245.664 2228.94 245.178 Q2227.14 244.668 2225.28 244.668 Q2221.14 244.668 2218.85 247.307 Q2216.56 249.923 2216.56 254.668 Q2216.56 259.414 2218.85 262.053 Q2221.14 264.668 2225.28 264.668 Q2227.14 264.668 2228.94 264.182 Q2230.77 263.673 2232.57 262.678 L2232.57 266.613 Q2230.79 267.446 2228.87 267.863 Q2226.97 268.279 2224.82 268.279 Q2218.96 268.279 2215.51 264.599 Q2212.07 260.918 2212.07 254.668 Q2212.07 248.326 2215.54 244.692 Q2219.03 241.057 2225.1 241.057 Q2227.07 241.057 2228.94 241.474 Q2230.82 241.868 2232.57 242.678 Z" fill="#000000" fill-rule="evenodd" fill-opacity="1" /><polyline clip-path="url(#clip460)" style="stroke:#c271d2; stroke-linecap:butt; stroke-linejoin:round; stroke-width:4; stroke-opacity:1; fill:none" points="
  1937.01,302.168 2081.22,302.168 
  "/>
<path clip-path="url(#clip460)" d="M2119.1 321.856 Q2117.3 326.485 2115.58 327.897 Q2113.87 329.309 2111 329.309 L2107.6 329.309 L2107.6 325.744 L2110.1 325.744 Q2111.86 325.744 2112.83 324.911 Q2113.8 324.078 2114.98 320.976 L2115.75 319.031 L2105.26 293.522 L2109.77 293.522 L2117.88 313.8 L2125.98 293.522 L2130.49 293.522 L2119.1 321.856 Z" fill="#000000" fill-rule="evenodd" fill-opacity="1" /><path clip-path="url(#clip460)" d="M2149.82 288.962 L2138.02 307.411 L2149.82 307.411 L2149.82 288.962 M2148.59 284.888 L2154.47 284.888 L2154.47 307.411 L2159.4 307.411 L2159.4 311.3 L2154.47 311.3 L2154.47 319.448 L2149.82 319.448 L2149.82 311.3 L2134.22 311.3 L2134.22 306.786 L2148.59 284.888 Z" fill="#000000" fill-rule="evenodd" fill-opacity="1" /></svg>
