<?xml version="1.0" encoding="utf-8"?>
<svg xmlns="http://www.w3.org/2000/svg" xmlns:xlink="http://www.w3.org/1999/xlink" width="600" height="400" viewBox="0 0 2400 1600">
<defs>
  <clipPath id="clip490">
    <rect x="0" y="0" width="2400" height="1600"/>
  </clipPath>
</defs>
<path clip-path="url(#clip490)" d="
M0 1600 L2400 1600 L2400 0 L0 0  Z
  " fill="#ffffff" fill-rule="evenodd" fill-opacity="1"/>
<defs>
  <clipPath id="clip491">
    <rect x="480" y="0" width="1681" height="1600"/>
  </clipPath>
</defs>
<defs>
  <clipPath id="clip492">
    <rect x="193" y="47" width="2160" height="1440"/>
  </clipPath>
</defs>
<path clip-path="url(#clip490)" d="
M189.233 1474.16 L2352.76 1474.16 L2352.76 47.2441 L189.233 47.2441  Z
  " fill="#ffffff" fill-rule="evenodd" fill-opacity="1"/>
<defs>
  <clipPath id="clip493">
    <rect x="189" y="47" width="2165" height="1428"/>
  </clipPath>
</defs>
<polyline clip-path="url(#clip493)" style="stroke:#000000; stroke-linecap:butt; stroke-linejoin:round; stroke-width:2; stroke-opacity:0.1; fill:none" points="
  260.441,1474.16 260.441,47.2441 
  "/>
<polyline clip-path="url(#clip493)" style="stroke:#000000; stroke-linecap:butt; stroke-linejoin:round; stroke-width:2; stroke-opacity:0.1; fill:none" points="
  1229.05,1474.16 1229.05,47.2441 
  "/>
<polyline clip-path="url(#clip493)" style="stroke:#000000; stroke-linecap:butt; stroke-linejoin:round; stroke-width:2; stroke-opacity:0.1; fill:none" points="
  2197.66,1474.16 2197.66,47.2441 
  "/>
<polyline clip-path="url(#clip490)" style="stroke:#000000; stroke-linecap:butt; stroke-linejoin:round; stroke-width:4; stroke-opacity:1; fill:none" points="
  189.233,1474.16 2352.76,1474.16 
  "/>
<polyline clip-path="url(#clip490)" style="stroke:#000000; stroke-linecap:butt; stroke-linejoin:round; stroke-width:4; stroke-opacity:1; fill:none" points="
  260.441,1474.16 260.441,1455.27 
  "/>
<polyline clip-path="url(#clip490)" style="stroke:#000000; stroke-linecap:butt; stroke-linejoin:round; stroke-width:4; stroke-opacity:1; fill:none" points="
  1229.05,1474.16 1229.05,1455.27 
  "/>
<polyline clip-path="url(#clip490)" style="stroke:#000000; stroke-linecap:butt; stroke-linejoin:round; stroke-width:4; stroke-opacity:1; fill:none" points="
  2197.66,1474.16 2197.66,1455.27 
  "/>
<path clip-path="url(#clip490)" d="M210.321 1552.44 L217.96 1552.44 L217.96 1526.07 L209.65 1527.74 L209.65 1523.48 L217.914 1521.81 L222.59 1521.81 L222.59 1552.44 L230.229 1552.44 L230.229 1556.37 L210.321 1556.37 L210.321 1552.44 Z" fill="#000000" fill-rule="evenodd" fill-opacity="1" /><path clip-path="url(#clip490)" d="M249.673 1524.89 Q246.062 1524.89 244.233 1528.46 Q242.428 1532 242.428 1539.13 Q242.428 1546.23 244.233 1549.8 Q246.062 1553.34 249.673 1553.34 Q253.307 1553.34 255.113 1549.8 Q256.941 1546.23 256.941 1539.13 Q256.941 1532 255.113 1528.46 Q253.307 1524.89 249.673 1524.89 M249.673 1521.19 Q255.483 1521.19 258.539 1525.79 Q261.617 1530.38 261.617 1539.13 Q261.617 1547.85 258.539 1552.46 Q255.483 1557.04 249.673 1557.04 Q243.863 1557.04 240.784 1552.46 Q237.728 1547.85 237.728 1539.13 Q237.728 1530.38 240.784 1525.79 Q243.863 1521.19 249.673 1521.19 Z" fill="#000000" fill-rule="evenodd" fill-opacity="1" /><path clip-path="url(#clip490)" d="M261.617 1515.29 L285.729 1515.29 L285.729 1518.49 L261.617 1518.49 L261.617 1515.29 Z" fill="#000000" fill-rule="evenodd" fill-opacity="1" /><path clip-path="url(#clip490)" d="M305.439 1513.82 Q308.166 1514.4 309.69 1516.25 Q311.232 1518.09 311.232 1520.8 Q311.232 1524.96 308.373 1527.23 Q305.515 1529.51 300.248 1529.51 Q298.48 1529.51 296.6 1529.15 Q294.738 1528.81 292.744 1528.12 L292.744 1524.45 Q294.324 1525.37 296.205 1525.84 Q298.085 1526.31 300.136 1526.31 Q303.709 1526.31 305.571 1524.9 Q307.452 1523.49 307.452 1520.8 Q307.452 1518.32 305.703 1516.92 Q303.972 1515.51 300.869 1515.51 L297.596 1515.51 L297.596 1512.39 L301.02 1512.39 Q303.822 1512.39 305.308 1511.28 Q306.793 1510.15 306.793 1508.05 Q306.793 1505.88 305.251 1504.74 Q303.728 1503.57 300.869 1503.57 Q299.308 1503.57 297.521 1503.91 Q295.735 1504.25 293.59 1504.96 L293.59 1501.58 Q295.753 1500.98 297.634 1500.67 Q299.534 1500.37 301.208 1500.37 Q305.533 1500.37 308.054 1502.35 Q310.574 1504.3 310.574 1507.65 Q310.574 1509.98 309.238 1511.6 Q307.903 1513.2 305.439 1513.82 Z" fill="#000000" fill-rule="evenodd" fill-opacity="1" /><path clip-path="url(#clip490)" d="M1179.31 1552.44 L1186.95 1552.44 L1186.95 1526.07 L1178.64 1527.74 L1178.64 1523.48 L1186.91 1521.81 L1191.58 1521.81 L1191.58 1552.44 L1199.22 1552.44 L1199.22 1556.37 L1179.31 1556.37 L1179.31 1552.44 Z" fill="#000000" fill-rule="evenodd" fill-opacity="1" /><path clip-path="url(#clip490)" d="M1218.67 1524.89 Q1215.05 1524.89 1213.23 1528.46 Q1211.42 1532 1211.42 1539.13 Q1211.42 1546.23 1213.23 1549.8 Q1215.05 1553.34 1218.67 1553.34 Q1222.3 1553.34 1224.11 1549.8 Q1225.93 1546.23 1225.93 1539.13 Q1225.93 1532 1224.11 1528.46 Q1222.3 1524.89 1218.67 1524.89 M1218.67 1521.19 Q1224.48 1521.19 1227.53 1525.79 Q1230.61 1530.38 1230.61 1539.13 Q1230.61 1547.85 1227.53 1552.46 Q1224.48 1557.04 1218.67 1557.04 Q1212.86 1557.04 1209.78 1552.46 Q1206.72 1547.85 1206.72 1539.13 Q1206.72 1530.38 1209.78 1525.79 Q1212.86 1521.19 1218.67 1521.19 Z" fill="#000000" fill-rule="evenodd" fill-opacity="1" /><path clip-path="url(#clip490)" d="M1230.61 1515.29 L1254.72 1515.29 L1254.72 1518.49 L1230.61 1518.49 L1230.61 1515.29 Z" fill="#000000" fill-rule="evenodd" fill-opacity="1" /><path clip-path="url(#clip490)" d="M1266.19 1525.76 L1279.45 1525.76 L1279.45 1528.96 L1261.62 1528.96 L1261.62 1525.76 Q1263.79 1523.53 1267.51 1519.76 Q1271.25 1515.98 1272.21 1514.89 Q1274.04 1512.84 1274.75 1511.43 Q1275.49 1510 1275.49 1508.63 Q1275.49 1506.39 1273.91 1504.98 Q1272.34 1503.57 1269.82 1503.57 Q1268.04 1503.57 1266.04 1504.19 Q1264.07 1504.81 1261.81 1506.07 L1261.81 1502.24 Q1264.11 1501.31 1266.1 1500.84 Q1268.09 1500.37 1269.75 1500.37 Q1274.11 1500.37 1276.71 1502.56 Q1279.3 1504.74 1279.3 1508.39 Q1279.3 1510.12 1278.65 1511.68 Q1278.01 1513.22 1276.29 1515.33 Q1275.82 1515.87 1273.3 1518.49 Q1270.78 1521.08 1266.19 1525.76 Z" fill="#000000" fill-rule="evenodd" fill-opacity="1" /><path clip-path="url(#clip490)" d="M2147.77 1552.44 L2155.41 1552.44 L2155.41 1526.07 L2147.1 1527.74 L2147.1 1523.48 L2155.36 1521.81 L2160.04 1521.81 L2160.04 1552.44 L2167.68 1552.44 L2167.68 1556.37 L2147.77 1556.37 L2147.77 1552.44 Z" fill="#000000" fill-rule="evenodd" fill-opacity="1" /><path clip-path="url(#clip490)" d="M2187.12 1524.89 Q2183.51 1524.89 2181.68 1528.46 Q2179.88 1532 2179.88 1539.13 Q2179.88 1546.23 2181.68 1549.8 Q2183.51 1553.34 2187.12 1553.34 Q2190.76 1553.34 2192.56 1549.8 Q2194.39 1546.23 2194.39 1539.13 Q2194.39 1532 2192.56 1528.46 Q2190.76 1524.89 2187.12 1524.89 M2187.12 1521.19 Q2192.93 1521.19 2195.99 1525.79 Q2199.07 1530.38 2199.07 1539.13 Q2199.07 1547.85 2195.99 1552.46 Q2192.93 1557.04 2187.12 1557.04 Q2181.31 1557.04 2178.23 1552.46 Q2175.18 1547.85 2175.18 1539.13 Q2175.18 1530.38 2178.23 1525.79 Q2181.31 1521.19 2187.12 1521.19 Z" fill="#000000" fill-rule="evenodd" fill-opacity="1" /><path clip-path="url(#clip490)" d="M2199.07 1515.29 L2223.18 1515.29 L2223.18 1518.49 L2199.07 1518.49 L2199.07 1515.29 Z" fill="#000000" fill-rule="evenodd" fill-opacity="1" /><path clip-path="url(#clip490)" d="M2232.04 1525.76 L2238.24 1525.76 L2238.24 1504.34 L2231.49 1505.7 L2231.49 1502.24 L2238.21 1500.88 L2242.01 1500.88 L2242.01 1525.76 L2248.21 1525.76 L2248.21 1528.96 L2232.04 1528.96 L2232.04 1525.76 Z" fill="#000000" fill-rule="evenodd" fill-opacity="1" /><polyline clip-path="url(#clip493)" style="stroke:#000000; stroke-linecap:butt; stroke-linejoin:round; stroke-width:2; stroke-opacity:0.1; fill:none" points="
  189.233,1428.74 2352.76,1428.74 
  "/>
<polyline clip-path="url(#clip493)" style="stroke:#000000; stroke-linecap:butt; stroke-linejoin:round; stroke-width:2; stroke-opacity:0.1; fill:none" points="
  189.233,695.365 2352.76,695.365 
  "/>
<polyline clip-path="url(#clip490)" style="stroke:#000000; stroke-linecap:butt; stroke-linejoin:round; stroke-width:4; stroke-opacity:1; fill:none" points="
  189.233,1474.16 189.233,47.2441 
  "/>
<polyline clip-path="url(#clip490)" style="stroke:#000000; stroke-linecap:butt; stroke-linejoin:round; stroke-width:4; stroke-opacity:1; fill:none" points="
  189.233,1428.74 208.13,1428.74 
  "/>
<polyline clip-path="url(#clip490)" style="stroke:#000000; stroke-linecap:butt; stroke-linejoin:round; stroke-width:4; stroke-opacity:1; fill:none" points="
  189.233,695.365 208.13,695.365 
  "/>
<path clip-path="url(#clip490)" d="M51.6634 1448.54 L59.3023 1448.54 L59.3023 1422.17 L50.9921 1423.84 L50.9921 1419.58 L59.256 1417.91 L63.9319 1417.91 L63.9319 1448.54 L71.5707 1448.54 L71.5707 1452.47 L51.6634 1452.47 L51.6634 1448.54 Z" fill="#000000" fill-rule="evenodd" fill-opacity="1" /><path clip-path="url(#clip490)" d="M91.0151 1420.99 Q87.404 1420.99 85.5753 1424.56 Q83.7697 1428.1 83.7697 1435.23 Q83.7697 1442.33 85.5753 1445.9 Q87.404 1449.44 91.0151 1449.44 Q94.6493 1449.44 96.4548 1445.9 Q98.2835 1442.33 98.2835 1435.23 Q98.2835 1428.1 96.4548 1424.56 Q94.6493 1420.99 91.0151 1420.99 M91.0151 1417.29 Q96.8252 1417.29 99.8808 1421.89 Q102.959 1426.48 102.959 1435.23 Q102.959 1443.95 99.8808 1448.56 Q96.8252 1453.14 91.0151 1453.14 Q85.2049 1453.14 82.1262 1448.56 Q79.0707 1443.95 79.0707 1435.23 Q79.0707 1426.48 82.1262 1421.89 Q85.2049 1417.29 91.0151 1417.29 Z" fill="#000000" fill-rule="evenodd" fill-opacity="1" /><path clip-path="url(#clip490)" d="M102.959 1411.39 L127.071 1411.39 L127.071 1414.59 L102.959 1414.59 L102.959 1411.39 Z" fill="#000000" fill-rule="evenodd" fill-opacity="1" /><path clip-path="url(#clip490)" d="M143.866 1409.51 Q141.308 1409.51 139.804 1411.26 Q138.318 1413.01 138.318 1416.05 Q138.318 1419.08 139.804 1420.85 Q141.308 1422.6 143.866 1422.6 Q146.424 1422.6 147.91 1420.85 Q149.415 1419.08 149.415 1416.05 Q149.415 1413.01 147.91 1411.26 Q146.424 1409.51 143.866 1409.51 M151.408 1397.6 L151.408 1401.06 Q149.979 1400.39 148.512 1400.03 Q147.064 1399.67 145.634 1399.67 Q141.873 1399.67 139.879 1402.21 Q137.904 1404.75 137.622 1409.88 Q138.732 1408.25 140.406 1407.38 Q142.08 1406.5 144.092 1406.5 Q148.324 1406.5 150.769 1409.07 Q153.233 1411.63 153.233 1416.05 Q153.233 1420.38 150.675 1422.99 Q148.117 1425.61 143.866 1425.61 Q138.995 1425.61 136.418 1421.88 Q133.842 1418.14 133.842 1411.05 Q133.842 1404.39 137.002 1400.44 Q140.161 1396.47 145.484 1396.47 Q146.913 1396.47 148.361 1396.76 Q149.828 1397.04 151.408 1397.6 Z" fill="#000000" fill-rule="evenodd" fill-opacity="1" /><path clip-path="url(#clip490)" d="M52.3217 715.157 L59.9605 715.157 L59.9605 688.792 L51.6504 690.458 L51.6504 686.199 L59.9142 684.532 L64.5901 684.532 L64.5901 715.157 L72.229 715.157 L72.229 719.092 L52.3217 719.092 L52.3217 715.157 Z" fill="#000000" fill-rule="evenodd" fill-opacity="1" /><path clip-path="url(#clip490)" d="M91.6733 687.611 Q88.0622 687.611 86.2335 691.176 Q84.428 694.718 84.428 701.847 Q84.428 708.954 86.2335 712.518 Q88.0622 716.06 91.6733 716.06 Q95.3076 716.06 97.1131 712.518 Q98.9418 708.954 98.9418 701.847 Q98.9418 694.718 97.1131 691.176 Q95.3076 687.611 91.6733 687.611 M91.6733 683.907 Q97.4835 683.907 100.539 688.514 Q103.618 693.097 103.618 701.847 Q103.618 710.574 100.539 715.18 Q97.4835 719.764 91.6733 719.764 Q85.8632 719.764 82.7845 715.18 Q79.729 710.574 79.729 701.847 Q79.729 693.097 82.7845 688.514 Q85.8632 683.907 91.6733 683.907 Z" fill="#000000" fill-rule="evenodd" fill-opacity="1" /><path clip-path="url(#clip490)" d="M103.618 678.009 L127.729 678.009 L127.729 681.206 L103.618 681.206 L103.618 678.009 Z" fill="#000000" fill-rule="evenodd" fill-opacity="1" /><path clip-path="url(#clip490)" d="M147.44 676.542 Q150.167 677.125 151.69 678.968 Q153.233 680.811 153.233 683.52 Q153.233 687.676 150.374 689.952 Q147.515 692.227 142.249 692.227 Q140.481 692.227 138.6 691.87 Q136.738 691.532 134.745 690.836 L134.745 687.168 Q136.324 688.09 138.205 688.56 Q140.086 689.03 142.136 689.03 Q145.71 689.03 147.571 687.62 Q149.452 686.209 149.452 683.52 Q149.452 681.037 147.703 679.645 Q145.973 678.235 142.87 678.235 L139.597 678.235 L139.597 675.112 L143.02 675.112 Q145.822 675.112 147.308 674.003 Q148.794 672.874 148.794 670.768 Q148.794 668.605 147.252 667.458 Q145.728 666.292 142.87 666.292 Q141.308 666.292 139.522 666.63 Q137.735 666.969 135.591 667.683 L135.591 664.298 Q137.754 663.696 139.635 663.395 Q141.534 663.094 143.208 663.094 Q147.534 663.094 150.054 665.069 Q152.574 667.025 152.574 670.373 Q152.574 672.705 151.239 674.323 Q149.904 675.921 147.44 676.542 Z" fill="#000000" fill-rule="evenodd" fill-opacity="1" /><polyline clip-path="url(#clip493)" style="stroke:#009af9; stroke-linecap:butt; stroke-linejoin:round; stroke-width:4; stroke-opacity:1; fill:none" points="
  2291.52,87.6286 1999.94,205.54 1708.36,313.978 1416.78,413.798 1125.2,505.674 833.624,590.853 542.044,671.174 250.464,748.433 
  "/>
<circle clip-path="url(#clip493)" cx="2291.52" cy="87.6286" r="14" fill="#009af9" fill-rule="evenodd" fill-opacity="1" stroke="#000000" stroke-opacity="1" stroke-width="3.2"/>
<circle clip-path="url(#clip493)" cx="1999.94" cy="205.54" r="14" fill="#009af9" fill-rule="evenodd" fill-opacity="1" stroke="#000000" stroke-opacity="1" stroke-width="3.2"/>
<circle clip-path="url(#clip493)" cx="1708.36" cy="313.978" r="14" fill="#009af9" fill-rule="evenodd" fill-opacity="1" stroke="#000000" stroke-opacity="1" stroke-width="3.2"/>
<circle clip-path="url(#clip493)" cx="1416.78" cy="413.798" r="14" fill="#009af9" fill-rule="evenodd" fill-opacity="1" stroke="#000000" stroke-opacity="1" stroke-width="3.2"/>
<circle clip-path="url(#clip493)" cx="1125.2" cy="505.674" r="14" fill="#009af9" fill-rule="evenodd" fill-opacity="1" stroke="#000000" stroke-opacity="1" stroke-width="3.2"/>
<circle clip-path="url(#clip493)" cx="833.624" cy="590.853" r="14" fill="#009af9" fill-rule="evenodd" fill-opacity="1" stroke="#000000" stroke-opacity="1" stroke-width="3.2"/>
<circle clip-path="url(#clip493)" cx="542.044" cy="671.174" r="14" fill="#009af9" fill-rule="evenodd" fill-opacity="1" stroke="#000000" stroke-opacity="1" stroke-width="3.2"/>
<circle clip-path="url(#clip493)" cx="250.464" cy="748.433" r="14" fill="#009af9" fill-rule="evenodd" fill-opacity="1" stroke="#000000" stroke-opacity="1" stroke-width="3.2"/>
<polyline clip-path="url(#clip493)" style="stroke:#e26f46; stroke-linecap:butt; stroke-linejoin:round; stroke-width:4; stroke-opacity:1; fill:none" points="
  2291.52,182.755 1999.94,256.344 1708.36,329.934 1416.78,403.524 1125.2,477.114 833.624,550.703 542.044,624.293 250.464,697.883 
  "/>
<polyline clip-path="url(#clip493)" style="stroke:#3da44d; stroke-linecap:butt; stroke-linejoin:round; stroke-width:4; stroke-opacity:1; fill:none" points="
  2291.52,403.524 1999.94,550.703 1708.36,697.883 1416.78,845.062 1125.2,992.242 833.624,1139.42 542.044,1286.6 250.464,1433.78 
  "/>
<path clip-path="url(#clip490)" d="
M261.35 302.168 L554.172 302.168 L554.172 94.8081 L261.35 94.8081  Z
  " fill="#ffffff" fill-rule="evenodd" fill-opacity="1"/>
<polyline clip-path="url(#clip490)" style="stroke:#000000; stroke-linecap:butt; stroke-linejoin:round; stroke-width:4; stroke-opacity:1; fill:none" points="
  261.35,302.168 554.172,302.168 554.172,94.8081 261.35,94.8081 261.35,302.168 
  "/>
<polyline clip-path="url(#clip490)" style="stroke:#009af9; stroke-linecap:butt; stroke-linejoin:round; stroke-width:4; stroke-opacity:1; fill:none" points="
  285.389,146.648 429.624,146.648 
  "/>
<circle clip-path="url(#clip490)" cx="357.507" cy="146.648" r="23" fill="#009af9" fill-rule="evenodd" fill-opacity="1" stroke="#000000" stroke-opacity="1" stroke-width="5.12"/>
<path clip-path="url(#clip490)" d="M467.506 166.336 Q465.7 170.965 463.987 172.377 Q462.274 173.789 459.404 173.789 L456.001 173.789 L456.001 170.224 L458.501 170.224 Q460.26 170.224 461.233 169.391 Q462.205 168.558 463.385 165.456 L464.149 163.511 L453.663 138.002 L458.177 138.002 L466.279 158.28 L474.381 138.002 L478.895 138.002 L467.506 166.336 Z" fill="#000000" fill-rule="evenodd" fill-opacity="1" /><path clip-path="url(#clip490)" d="M486.186 159.993 L493.825 159.993 L493.825 133.627 L485.515 135.294 L485.515 131.035 L493.779 129.368 L498.455 129.368 L498.455 159.993 L506.094 159.993 L506.094 163.928 L486.186 163.928 L486.186 159.993 Z" fill="#000000" fill-rule="evenodd" fill-opacity="1" /><polyline clip-path="url(#clip490)" style="stroke:#e26f46; stroke-linecap:butt; stroke-linejoin:round; stroke-width:4; stroke-opacity:1; fill:none" points="
  285.389,198.488 429.624,198.488 
  "/>
<path clip-path="url(#clip490)" d="M477.203 207.836 Q477.203 208.024 476.992 208.75 Q476.781 209.476 476.266 210.6 Q475.774 211.724 475.095 212.755 Q474.416 213.762 473.291 214.512 Q472.19 215.238 470.926 215.238 Q469.239 215.238 468.115 214.113 Q466.991 212.989 466.991 211.303 Q466.991 211.069 467.014 210.834 Q467.037 210.6 467.061 210.46 Q467.084 210.296 467.155 210.038 Q467.248 209.757 467.272 209.64 Q467.319 209.523 467.436 209.171 Q467.576 208.797 467.623 208.656 Q470.598 201.067 470.598 197.905 Q470.598 194.556 467.998 194.556 Q465.679 194.556 463.384 196.242 Q462.33 197.085 461.322 198.584 Q460.315 200.083 460.128 200.646 Q459.917 201.864 459.613 202.8 Q459.472 203.456 458.793 206.009 L457.739 210.342 L456.825 213.973 Q456.638 214.488 456.123 214.863 Q455.607 215.238 455.045 215.238 Q454.577 215.238 454.108 214.91 Q453.663 214.605 453.663 213.879 Q453.663 213.505 453.851 212.825 L460.807 185.187 L460.948 184.25 Q460.948 183.969 460.831 183.828 Q460.737 183.664 460.175 183.547 Q459.636 183.43 458.559 183.43 Q458.113 183.43 457.903 183.407 Q457.715 183.383 457.551 183.266 Q457.387 183.126 457.387 182.845 Q457.387 182.446 457.551 182.236 Q457.739 182.001 457.879 181.954 Q458.02 181.908 458.301 181.884 Q458.699 181.861 460.034 181.744 Q461.369 181.603 462.517 181.509 Q463.665 181.416 464.156 181.416 Q464.438 181.416 464.578 181.556 Q464.742 181.673 464.765 181.814 L464.789 181.931 L461.041 197.179 Q464.016 193.502 468.138 193.502 Q470.808 193.502 472.237 194.884 Q473.666 196.242 473.666 198.631 Q473.666 201.372 470.738 209.171 Q469.872 211.35 469.872 212.591 Q469.872 213.411 470.129 213.786 Q470.41 214.16 471.019 214.16 Q471.956 214.16 472.776 213.622 Q473.619 213.059 474.205 212.146 Q474.79 211.209 475.188 210.272 Q475.61 209.312 475.915 208.234 Q476.102 207.649 476.196 207.508 Q476.313 207.368 476.641 207.368 Q477.203 207.368 477.203 207.836 Z" fill="#000000" fill-rule="evenodd" fill-opacity="1" /><polyline clip-path="url(#clip490)" style="stroke:#3da44d; stroke-linecap:butt; stroke-linejoin:round; stroke-width:4; stroke-opacity:1; fill:none" points="
  285.389,250.328 429.624,250.328 
  "/>
<path clip-path="url(#clip490)" d="M477.203 267.428 Q477.203 267.616 476.992 268.342 Q476.781 269.068 476.266 270.192 Q475.774 271.316 475.095 272.347 Q474.416 273.354 473.291 274.104 Q472.19 274.83 470.926 274.83 Q469.239 274.83 468.115 273.705 Q466.991 272.581 466.991 270.895 Q466.991 270.661 467.014 270.426 Q467.037 270.192 467.061 270.052 Q467.084 269.888 467.155 269.63 Q467.248 269.349 467.272 269.232 Q467.319 269.115 467.436 268.763 Q467.576 268.389 467.623 268.248 Q470.598 260.659 470.598 257.497 Q470.598 254.148 467.998 254.148 Q465.679 254.148 463.384 255.834 Q462.33 256.677 461.322 258.176 Q460.315 259.675 460.128 260.238 Q459.917 261.456 459.613 262.392 Q459.472 263.048 458.793 265.601 L457.739 269.934 L456.825 273.565 Q456.638 274.08 456.123 274.455 Q455.607 274.83 455.045 274.83 Q454.577 274.83 454.108 274.502 Q453.663 274.197 453.663 273.471 Q453.663 273.096 453.851 272.417 L460.807 244.779 L460.948 243.842 Q460.948 243.561 460.831 243.42 Q460.737 243.256 460.175 243.139 Q459.636 243.022 458.559 243.022 Q458.113 243.022 457.903 242.999 Q457.715 242.975 457.551 242.858 Q457.387 242.718 457.387 242.436 Q457.387 242.038 457.551 241.827 Q457.739 241.593 457.879 241.546 Q458.02 241.5 458.301 241.476 Q458.699 241.453 460.034 241.336 Q461.369 241.195 462.517 241.101 Q463.665 241.008 464.156 241.008 Q464.438 241.008 464.578 241.148 Q464.742 241.265 464.765 241.406 L464.789 241.523 L461.041 256.771 Q464.016 253.094 468.138 253.094 Q470.808 253.094 472.237 254.476 Q473.666 255.834 473.666 258.223 Q473.666 260.964 470.738 268.763 Q469.872 270.942 469.872 272.183 Q469.872 273.003 470.129 273.378 Q470.41 273.752 471.019 273.752 Q471.956 273.752 472.776 273.214 Q473.619 272.651 474.205 271.738 Q474.79 270.801 475.188 269.864 Q475.61 268.904 475.915 267.826 Q476.102 267.241 476.196 267.1 Q476.313 266.96 476.641 266.96 Q477.203 266.96 477.203 267.428 Z" fill="#000000" fill-rule="evenodd" fill-opacity="1" /><path clip-path="url(#clip490)" d="M482.08 247.982 Q482.08 247.376 482.129 247.195 Q482.195 247.015 482.457 246.736 L488.901 239.555 Q492.426 235.587 492.426 232.128 Q492.426 229.882 491.245 228.275 Q490.081 226.668 487.933 226.668 Q486.458 226.668 485.212 227.57 Q483.966 228.472 483.392 230.078 Q483.49 230.046 483.834 230.046 Q484.671 230.046 485.13 230.57 Q485.605 231.095 485.605 231.8 Q485.605 232.702 485.015 233.144 Q484.441 233.571 483.867 233.571 Q483.638 233.571 483.326 233.521 Q483.031 233.472 482.556 233.013 Q482.08 232.538 482.08 231.701 Q482.08 229.357 483.851 227.488 Q485.638 225.619 488.36 225.619 Q491.442 225.619 493.459 227.455 Q495.492 229.275 495.492 232.128 Q495.492 233.128 495.18 234.046 Q494.885 234.948 494.475 235.653 Q494.082 236.358 493 237.489 Q491.918 238.62 491.049 239.424 Q490.18 240.227 488.229 241.932 L484.671 245.392 L490.721 245.392 Q493.672 245.392 493.901 245.13 Q494.229 244.654 494.639 242.146 L495.492 242.146 L494.541 247.982 L482.08 247.982 Z" fill="#000000" fill-rule="evenodd" fill-opacity="1" /></svg>
