<?xml version="1.0" encoding="utf-8"?>
<svg xmlns="http://www.w3.org/2000/svg" xmlns:xlink="http://www.w3.org/1999/xlink" width="600" height="400" viewBox="0 0 2400 1600">
<defs>
  <clipPath id="clip490">
    <rect x="0" y="0" width="2400" height="1600"/>
  </clipPath>
</defs>
<path clip-path="url(#clip490)" d="
M0 1600 L2400 1600 L2400 0 L0 0  Z
  " fill="#ffffff" fill-rule="evenodd" fill-opacity="1"/>
<defs>
  <clipPath id="clip491">
    <rect x="480" y="0" width="1681" height="1600"/>
  </clipPath>
</defs>
<path clip-path="url(#clip490)" d="
M432.029 1423.18 L2352.76 1423.18 L2352.76 47.2441 L432.029 47.2441  Z
  " fill="#ffffff" fill-rule="evenodd" fill-opacity="1"/>
<defs>
  <clipPath id="clip492">
    <rect x="432" y="47" width="1922" height="1377"/>
  </clipPath>
</defs>
<polyline clip-path="url(#clip492)" style="stroke:#000000; stroke-linecap:butt; stroke-linejoin:round; stroke-width:2; stroke-opacity:0.1; fill:none" points="
  486.39,1423.18 486.39,47.2441 
  "/>
<polyline clip-path="url(#clip492)" style="stroke:#000000; stroke-linecap:butt; stroke-linejoin:round; stroke-width:2; stroke-opacity:0.1; fill:none" points="
  878.346,1423.18 878.346,47.2441 
  "/>
<polyline clip-path="url(#clip492)" style="stroke:#000000; stroke-linecap:butt; stroke-linejoin:round; stroke-width:2; stroke-opacity:0.1; fill:none" points="
  1270.3,1423.18 1270.3,47.2441 
  "/>
<polyline clip-path="url(#clip492)" style="stroke:#000000; stroke-linecap:butt; stroke-linejoin:round; stroke-width:2; stroke-opacity:0.1; fill:none" points="
  1662.26,1423.18 1662.26,47.2441 
  "/>
<polyline clip-path="url(#clip492)" style="stroke:#000000; stroke-linecap:butt; stroke-linejoin:round; stroke-width:2; stroke-opacity:0.1; fill:none" points="
  2054.21,1423.18 2054.21,47.2441 
  "/>
<polyline clip-path="url(#clip490)" style="stroke:#000000; stroke-linecap:butt; stroke-linejoin:round; stroke-width:4; stroke-opacity:1; fill:none" points="
  432.029,1423.18 2352.76,1423.18 
  "/>
<polyline clip-path="url(#clip490)" style="stroke:#000000; stroke-linecap:butt; stroke-linejoin:round; stroke-width:4; stroke-opacity:1; fill:none" points="
  486.39,1423.18 486.39,1404.28 
  "/>
<polyline clip-path="url(#clip490)" style="stroke:#000000; stroke-linecap:butt; stroke-linejoin:round; stroke-width:4; stroke-opacity:1; fill:none" points="
  878.346,1423.18 878.346,1404.28 
  "/>
<polyline clip-path="url(#clip490)" style="stroke:#000000; stroke-linecap:butt; stroke-linejoin:round; stroke-width:4; stroke-opacity:1; fill:none" points="
  1270.3,1423.18 1270.3,1404.28 
  "/>
<polyline clip-path="url(#clip490)" style="stroke:#000000; stroke-linecap:butt; stroke-linejoin:round; stroke-width:4; stroke-opacity:1; fill:none" points="
  1662.26,1423.18 1662.26,1404.28 
  "/>
<polyline clip-path="url(#clip490)" style="stroke:#000000; stroke-linecap:butt; stroke-linejoin:round; stroke-width:4; stroke-opacity:1; fill:none" points="
  2054.21,1423.18 2054.21,1404.28 
  "/>
<path clip-path="url(#clip490)" d="M433.612 1452.37 Q430.001 1452.37 428.172 1455.94 Q426.367 1459.48 426.367 1466.61 Q426.367 1473.71 428.172 1477.28 Q430.001 1480.82 433.612 1480.82 Q437.246 1480.82 439.052 1477.28 Q440.881 1473.71 440.881 1466.61 Q440.881 1459.48 439.052 1455.94 Q437.246 1452.37 433.612 1452.37 M433.612 1448.67 Q439.422 1448.67 442.478 1453.27 Q445.557 1457.86 445.557 1466.61 Q445.557 1475.33 442.478 1479.94 Q439.422 1484.52 433.612 1484.52 Q427.802 1484.52 424.723 1479.94 Q421.668 1475.33 421.668 1466.61 Q421.668 1457.86 424.723 1453.27 Q427.802 1448.67 433.612 1448.67 Z" fill="#000000" fill-rule="evenodd" fill-opacity="1" /><path clip-path="url(#clip490)" d="M453.774 1477.97 L458.658 1477.97 L458.658 1483.85 L453.774 1483.85 L453.774 1477.97 Z" fill="#000000" fill-rule="evenodd" fill-opacity="1" /><path clip-path="url(#clip490)" d="M478.843 1452.37 Q475.232 1452.37 473.404 1455.94 Q471.598 1459.48 471.598 1466.61 Q471.598 1473.71 473.404 1477.28 Q475.232 1480.82 478.843 1480.82 Q482.478 1480.82 484.283 1477.28 Q486.112 1473.71 486.112 1466.61 Q486.112 1459.48 484.283 1455.94 Q482.478 1452.37 478.843 1452.37 M478.843 1448.67 Q484.654 1448.67 487.709 1453.27 Q490.788 1457.86 490.788 1466.61 Q490.788 1475.33 487.709 1479.94 Q484.654 1484.52 478.843 1484.52 Q473.033 1484.52 469.955 1479.94 Q466.899 1475.33 466.899 1466.61 Q466.899 1457.86 469.955 1453.27 Q473.033 1448.67 478.843 1448.67 Z" fill="#000000" fill-rule="evenodd" fill-opacity="1" /><path clip-path="url(#clip490)" d="M509.005 1452.37 Q505.394 1452.37 503.565 1455.94 Q501.76 1459.48 501.76 1466.61 Q501.76 1473.71 503.565 1477.28 Q505.394 1480.82 509.005 1480.82 Q512.64 1480.82 514.445 1477.28 Q516.274 1473.71 516.274 1466.61 Q516.274 1459.48 514.445 1455.94 Q512.64 1452.37 509.005 1452.37 M509.005 1448.67 Q514.815 1448.67 517.871 1453.27 Q520.95 1457.86 520.95 1466.61 Q520.95 1475.33 517.871 1479.94 Q514.815 1484.52 509.005 1484.52 Q503.195 1484.52 500.116 1479.94 Q497.061 1475.33 497.061 1466.61 Q497.061 1457.86 500.116 1453.27 Q503.195 1448.67 509.005 1448.67 Z" fill="#000000" fill-rule="evenodd" fill-opacity="1" /><path clip-path="url(#clip490)" d="M539.167 1452.37 Q535.556 1452.37 533.727 1455.94 Q531.922 1459.48 531.922 1466.61 Q531.922 1473.71 533.727 1477.28 Q535.556 1480.82 539.167 1480.82 Q542.801 1480.82 544.607 1477.28 Q546.436 1473.71 546.436 1466.61 Q546.436 1459.48 544.607 1455.94 Q542.801 1452.37 539.167 1452.37 M539.167 1448.67 Q544.977 1448.67 548.033 1453.27 Q551.112 1457.86 551.112 1466.61 Q551.112 1475.33 548.033 1479.94 Q544.977 1484.52 539.167 1484.52 Q533.357 1484.52 530.278 1479.94 Q527.223 1475.33 527.223 1466.61 Q527.223 1457.86 530.278 1453.27 Q533.357 1448.67 539.167 1448.67 Z" fill="#000000" fill-rule="evenodd" fill-opacity="1" /><path clip-path="url(#clip490)" d="M826.066 1452.37 Q822.455 1452.37 820.626 1455.94 Q818.82 1459.48 818.82 1466.61 Q818.82 1473.71 820.626 1477.28 Q822.455 1480.82 826.066 1480.82 Q829.7 1480.82 831.506 1477.28 Q833.334 1473.71 833.334 1466.61 Q833.334 1459.48 831.506 1455.94 Q829.7 1452.37 826.066 1452.37 M826.066 1448.67 Q831.876 1448.67 834.931 1453.27 Q838.01 1457.86 838.01 1466.61 Q838.01 1475.33 834.931 1479.94 Q831.876 1484.52 826.066 1484.52 Q820.256 1484.52 817.177 1479.94 Q814.121 1475.33 814.121 1466.61 Q814.121 1457.86 817.177 1453.27 Q820.256 1448.67 826.066 1448.67 Z" fill="#000000" fill-rule="evenodd" fill-opacity="1" /><path clip-path="url(#clip490)" d="M846.228 1477.97 L851.112 1477.97 L851.112 1483.85 L846.228 1483.85 L846.228 1477.97 Z" fill="#000000" fill-rule="evenodd" fill-opacity="1" /><path clip-path="url(#clip490)" d="M871.297 1452.37 Q867.686 1452.37 865.857 1455.94 Q864.052 1459.48 864.052 1466.61 Q864.052 1473.71 865.857 1477.28 Q867.686 1480.82 871.297 1480.82 Q874.931 1480.82 876.737 1477.28 Q878.565 1473.71 878.565 1466.61 Q878.565 1459.48 876.737 1455.94 Q874.931 1452.37 871.297 1452.37 M871.297 1448.67 Q877.107 1448.67 880.163 1453.27 Q883.241 1457.86 883.241 1466.61 Q883.241 1475.33 880.163 1479.94 Q877.107 1484.52 871.297 1484.52 Q865.487 1484.52 862.408 1479.94 Q859.353 1475.33 859.353 1466.61 Q859.353 1457.86 862.408 1453.27 Q865.487 1448.67 871.297 1448.67 Z" fill="#000000" fill-rule="evenodd" fill-opacity="1" /><path clip-path="url(#clip490)" d="M895.487 1479.92 L911.806 1479.92 L911.806 1483.85 L889.862 1483.85 L889.862 1479.92 Q892.524 1477.16 897.107 1472.53 Q901.714 1467.88 902.894 1466.54 Q905.139 1464.01 906.019 1462.28 Q906.922 1460.52 906.922 1458.83 Q906.922 1456.07 904.977 1454.34 Q903.056 1452.6 899.954 1452.6 Q897.755 1452.6 895.302 1453.37 Q892.871 1454.13 890.093 1455.68 L890.093 1450.96 Q892.917 1449.82 895.371 1449.25 Q897.825 1448.67 899.862 1448.67 Q905.232 1448.67 908.426 1451.35 Q911.621 1454.04 911.621 1458.53 Q911.621 1460.66 910.811 1462.58 Q910.024 1464.48 907.917 1467.07 Q907.338 1467.74 904.237 1470.96 Q901.135 1474.15 895.487 1479.92 Z" fill="#000000" fill-rule="evenodd" fill-opacity="1" /><path clip-path="url(#clip490)" d="M921.667 1449.29 L940.023 1449.29 L940.023 1453.23 L925.949 1453.23 L925.949 1461.7 Q926.968 1461.35 927.987 1461.19 Q929.005 1461 930.024 1461 Q935.811 1461 939.19 1464.18 Q942.57 1467.35 942.57 1472.76 Q942.57 1478.34 939.098 1481.44 Q935.625 1484.52 929.306 1484.52 Q927.13 1484.52 924.862 1484.15 Q922.616 1483.78 920.209 1483.04 L920.209 1478.34 Q922.292 1479.48 924.514 1480.03 Q926.737 1480.59 929.213 1480.59 Q933.218 1480.59 935.556 1478.48 Q937.894 1476.38 937.894 1472.76 Q937.894 1469.15 935.556 1467.05 Q933.218 1464.94 929.213 1464.94 Q927.338 1464.94 925.463 1465.36 Q923.612 1465.77 921.667 1466.65 L921.667 1449.29 Z" fill="#000000" fill-rule="evenodd" fill-opacity="1" /><path clip-path="url(#clip490)" d="M1217.52 1452.37 Q1213.91 1452.37 1212.08 1455.94 Q1210.28 1459.48 1210.28 1466.61 Q1210.28 1473.71 1212.08 1477.28 Q1213.91 1480.82 1217.52 1480.82 Q1221.16 1480.82 1222.96 1477.28 Q1224.79 1473.71 1224.79 1466.61 Q1224.79 1459.48 1222.96 1455.94 Q1221.16 1452.37 1217.52 1452.37 M1217.52 1448.67 Q1223.33 1448.67 1226.39 1453.27 Q1229.47 1457.86 1229.47 1466.61 Q1229.47 1475.33 1226.39 1479.94 Q1223.33 1484.52 1217.52 1484.52 Q1211.71 1484.52 1208.64 1479.94 Q1205.58 1475.33 1205.58 1466.61 Q1205.58 1457.86 1208.64 1453.27 Q1211.71 1448.67 1217.52 1448.67 Z" fill="#000000" fill-rule="evenodd" fill-opacity="1" /><path clip-path="url(#clip490)" d="M1237.69 1477.97 L1242.57 1477.97 L1242.57 1483.85 L1237.69 1483.85 L1237.69 1477.97 Z" fill="#000000" fill-rule="evenodd" fill-opacity="1" /><path clip-path="url(#clip490)" d="M1262.76 1452.37 Q1259.14 1452.37 1257.32 1455.94 Q1255.51 1459.48 1255.51 1466.61 Q1255.51 1473.71 1257.32 1477.28 Q1259.14 1480.82 1262.76 1480.82 Q1266.39 1480.82 1268.2 1477.28 Q1270.02 1473.71 1270.02 1466.61 Q1270.02 1459.48 1268.2 1455.94 Q1266.39 1452.37 1262.76 1452.37 M1262.76 1448.67 Q1268.57 1448.67 1271.62 1453.27 Q1274.7 1457.86 1274.7 1466.61 Q1274.7 1475.33 1271.62 1479.94 Q1268.57 1484.52 1262.76 1484.52 Q1256.95 1484.52 1253.87 1479.94 Q1250.81 1475.33 1250.81 1466.61 Q1250.81 1457.86 1253.87 1453.27 Q1256.95 1448.67 1262.76 1448.67 Z" fill="#000000" fill-rule="evenodd" fill-opacity="1" /><path clip-path="url(#clip490)" d="M1282.96 1449.29 L1301.32 1449.29 L1301.32 1453.23 L1287.25 1453.23 L1287.25 1461.7 Q1288.26 1461.35 1289.28 1461.19 Q1290.3 1461 1291.32 1461 Q1297.11 1461 1300.49 1464.18 Q1303.87 1467.35 1303.87 1472.76 Q1303.87 1478.34 1300.39 1481.44 Q1296.92 1484.52 1290.6 1484.52 Q1288.43 1484.52 1286.16 1484.15 Q1283.91 1483.78 1281.51 1483.04 L1281.51 1478.34 Q1283.59 1479.48 1285.81 1480.03 Q1288.03 1480.59 1290.51 1480.59 Q1294.51 1480.59 1296.85 1478.48 Q1299.19 1476.38 1299.19 1472.76 Q1299.19 1469.15 1296.85 1467.05 Q1294.51 1464.94 1290.51 1464.94 Q1288.63 1464.94 1286.76 1465.36 Q1284.91 1465.77 1282.96 1466.65 L1282.96 1449.29 Z" fill="#000000" fill-rule="evenodd" fill-opacity="1" /><path clip-path="url(#clip490)" d="M1323.08 1452.37 Q1319.47 1452.37 1317.64 1455.94 Q1315.83 1459.48 1315.83 1466.61 Q1315.83 1473.71 1317.64 1477.28 Q1319.47 1480.82 1323.08 1480.82 Q1326.71 1480.82 1328.52 1477.28 Q1330.35 1473.71 1330.35 1466.61 Q1330.35 1459.48 1328.52 1455.94 Q1326.71 1452.37 1323.08 1452.37 M1323.08 1448.67 Q1328.89 1448.67 1331.94 1453.27 Q1335.02 1457.86 1335.02 1466.61 Q1335.02 1475.33 1331.94 1479.94 Q1328.89 1484.52 1323.08 1484.52 Q1317.27 1484.52 1314.19 1479.94 Q1311.13 1475.33 1311.13 1466.61 Q1311.13 1457.86 1314.19 1453.27 Q1317.27 1448.67 1323.08 1448.67 Z" fill="#000000" fill-rule="evenodd" fill-opacity="1" /><path clip-path="url(#clip490)" d="M1609.98 1452.37 Q1606.37 1452.37 1604.54 1455.94 Q1602.73 1459.48 1602.73 1466.61 Q1602.73 1473.71 1604.54 1477.28 Q1606.37 1480.82 1609.98 1480.82 Q1613.61 1480.82 1615.42 1477.28 Q1617.25 1473.71 1617.25 1466.61 Q1617.25 1459.48 1615.42 1455.94 Q1613.61 1452.37 1609.98 1452.37 M1609.98 1448.67 Q1615.79 1448.67 1618.84 1453.27 Q1621.92 1457.86 1621.92 1466.61 Q1621.92 1475.33 1618.84 1479.94 Q1615.79 1484.52 1609.98 1484.52 Q1604.17 1484.52 1601.09 1479.94 Q1598.03 1475.33 1598.03 1466.61 Q1598.03 1457.86 1601.09 1453.27 Q1604.17 1448.67 1609.98 1448.67 Z" fill="#000000" fill-rule="evenodd" fill-opacity="1" /><path clip-path="url(#clip490)" d="M1630.14 1477.97 L1635.02 1477.97 L1635.02 1483.85 L1630.14 1483.85 L1630.14 1477.97 Z" fill="#000000" fill-rule="evenodd" fill-opacity="1" /><path clip-path="url(#clip490)" d="M1655.21 1452.37 Q1651.6 1452.37 1649.77 1455.94 Q1647.96 1459.48 1647.96 1466.61 Q1647.96 1473.71 1649.77 1477.28 Q1651.6 1480.82 1655.21 1480.82 Q1658.84 1480.82 1660.65 1477.28 Q1662.48 1473.71 1662.48 1466.61 Q1662.48 1459.48 1660.65 1455.94 Q1658.84 1452.37 1655.21 1452.37 M1655.21 1448.67 Q1661.02 1448.67 1664.07 1453.27 Q1667.15 1457.86 1667.15 1466.61 Q1667.15 1475.33 1664.07 1479.94 Q1661.02 1484.52 1655.21 1484.52 Q1649.4 1484.52 1646.32 1479.94 Q1643.26 1475.33 1643.26 1466.61 Q1643.26 1457.86 1646.32 1453.27 Q1649.4 1448.67 1655.21 1448.67 Z" fill="#000000" fill-rule="evenodd" fill-opacity="1" /><path clip-path="url(#clip490)" d="M1674.19 1449.29 L1696.41 1449.29 L1696.41 1451.28 L1683.87 1483.85 L1678.98 1483.85 L1690.79 1453.23 L1674.19 1453.23 L1674.19 1449.29 Z" fill="#000000" fill-rule="evenodd" fill-opacity="1" /><path clip-path="url(#clip490)" d="M1705.58 1449.29 L1723.94 1449.29 L1723.94 1453.23 L1709.86 1453.23 L1709.86 1461.7 Q1710.88 1461.35 1711.9 1461.19 Q1712.92 1461 1713.94 1461 Q1719.72 1461 1723.1 1464.18 Q1726.48 1467.35 1726.48 1472.76 Q1726.48 1478.34 1723.01 1481.44 Q1719.54 1484.52 1713.22 1484.52 Q1711.04 1484.52 1708.77 1484.15 Q1706.53 1483.78 1704.12 1483.04 L1704.12 1478.34 Q1706.2 1479.48 1708.43 1480.03 Q1710.65 1480.59 1713.13 1480.59 Q1717.13 1480.59 1719.47 1478.48 Q1721.81 1476.38 1721.81 1472.76 Q1721.81 1469.15 1719.47 1467.05 Q1717.13 1464.94 1713.13 1464.94 Q1711.25 1464.94 1709.38 1465.36 Q1707.52 1465.77 1705.58 1466.65 L1705.58 1449.29 Z" fill="#000000" fill-rule="evenodd" fill-opacity="1" /><path clip-path="url(#clip490)" d="M2001.44 1452.37 Q1997.82 1452.37 1996 1455.94 Q1994.19 1459.48 1994.19 1466.61 Q1994.19 1473.71 1996 1477.28 Q1997.82 1480.82 2001.44 1480.82 Q2005.07 1480.82 2006.88 1477.28 Q2008.7 1473.71 2008.7 1466.61 Q2008.7 1459.48 2006.88 1455.94 Q2005.07 1452.37 2001.44 1452.37 M2001.44 1448.67 Q2007.25 1448.67 2010.3 1453.27 Q2013.38 1457.86 2013.38 1466.61 Q2013.38 1475.33 2010.3 1479.94 Q2007.25 1484.52 2001.44 1484.52 Q1995.63 1484.52 1992.55 1479.94 Q1989.49 1475.33 1989.49 1466.61 Q1989.49 1457.86 1992.55 1453.27 Q1995.63 1448.67 2001.44 1448.67 Z" fill="#000000" fill-rule="evenodd" fill-opacity="1" /><path clip-path="url(#clip490)" d="M2021.6 1477.97 L2026.48 1477.97 L2026.48 1483.85 L2021.6 1483.85 L2021.6 1477.97 Z" fill="#000000" fill-rule="evenodd" fill-opacity="1" /><path clip-path="url(#clip490)" d="M2037.48 1479.92 L2045.12 1479.92 L2045.12 1453.55 L2036.81 1455.22 L2036.81 1450.96 L2045.07 1449.29 L2049.75 1449.29 L2049.75 1479.92 L2057.38 1479.92 L2057.38 1483.85 L2037.48 1483.85 L2037.48 1479.92 Z" fill="#000000" fill-rule="evenodd" fill-opacity="1" /><path clip-path="url(#clip490)" d="M2076.83 1452.37 Q2073.22 1452.37 2071.39 1455.94 Q2069.58 1459.48 2069.58 1466.61 Q2069.58 1473.71 2071.39 1477.28 Q2073.22 1480.82 2076.83 1480.82 Q2080.46 1480.82 2082.27 1477.28 Q2084.1 1473.71 2084.1 1466.61 Q2084.1 1459.48 2082.27 1455.94 Q2080.46 1452.37 2076.83 1452.37 M2076.83 1448.67 Q2082.64 1448.67 2085.69 1453.27 Q2088.77 1457.86 2088.77 1466.61 Q2088.77 1475.33 2085.69 1479.94 Q2082.64 1484.52 2076.83 1484.52 Q2071.02 1484.52 2067.94 1479.94 Q2064.88 1475.33 2064.88 1466.61 Q2064.88 1457.86 2067.94 1453.27 Q2071.02 1448.67 2076.83 1448.67 Z" fill="#000000" fill-rule="evenodd" fill-opacity="1" /><path clip-path="url(#clip490)" d="M2106.99 1452.37 Q2103.38 1452.37 2101.55 1455.94 Q2099.75 1459.48 2099.75 1466.61 Q2099.75 1473.71 2101.55 1477.28 Q2103.38 1480.82 2106.99 1480.82 Q2110.63 1480.82 2112.43 1477.28 Q2114.26 1473.71 2114.26 1466.61 Q2114.26 1459.48 2112.43 1455.94 Q2110.63 1452.37 2106.99 1452.37 M2106.99 1448.67 Q2112.8 1448.67 2115.86 1453.27 Q2118.94 1457.86 2118.94 1466.61 Q2118.94 1475.33 2115.86 1479.94 Q2112.8 1484.52 2106.99 1484.52 Q2101.18 1484.52 2098.1 1479.94 Q2095.05 1475.33 2095.05 1466.61 Q2095.05 1457.86 2098.1 1453.27 Q2101.18 1448.67 2106.99 1448.67 Z" fill="#000000" fill-rule="evenodd" fill-opacity="1" /><path clip-path="url(#clip490)" d="M1334.97 1545.76 Q1337.04 1546.46 1338.98 1548.76 Q1340.96 1551.05 1342.93 1555.06 L1349.46 1568.04 L1342.55 1568.04 L1336.47 1555.85 Q1334.11 1551.08 1331.89 1549.52 Q1329.69 1547.96 1325.87 1547.96 L1318.87 1547.96 L1318.87 1568.04 L1312.44 1568.04 L1312.44 1520.52 L1326.95 1520.52 Q1335.1 1520.52 1339.11 1523.93 Q1343.12 1527.34 1343.12 1534.21 Q1343.12 1538.7 1341.02 1541.66 Q1338.95 1544.62 1334.97 1545.76 M1318.87 1525.81 L1318.87 1542.68 L1326.95 1542.68 Q1331.6 1542.68 1333.96 1540.54 Q1336.34 1538.38 1336.34 1534.21 Q1336.34 1530.04 1333.96 1527.94 Q1331.6 1525.81 1326.95 1525.81 L1318.87 1525.81 Z" fill="#000000" fill-rule="evenodd" fill-opacity="1" /><path clip-path="url(#clip490)" d="M1385.04 1548.76 L1385.04 1551.62 L1358.11 1551.62 Q1358.5 1557.67 1361.74 1560.85 Q1365.02 1564 1370.84 1564 Q1374.22 1564 1377.37 1563.17 Q1380.55 1562.35 1383.67 1560.69 L1383.67 1566.23 Q1380.52 1567.57 1377.21 1568.27 Q1373.9 1568.97 1370.49 1568.97 Q1361.96 1568.97 1356.97 1564 Q1352 1559.04 1352 1550.57 Q1352 1541.82 1356.71 1536.69 Q1361.46 1531.54 1369.48 1531.54 Q1376.67 1531.54 1380.84 1536.18 Q1385.04 1540.8 1385.04 1548.76 M1379.18 1547.04 Q1379.12 1542.23 1376.48 1539.37 Q1373.87 1536.5 1369.54 1536.5 Q1364.64 1536.5 1361.68 1539.27 Q1358.75 1542.04 1358.3 1547.07 L1379.18 1547.04 Z" fill="#000000" fill-rule="evenodd" fill-opacity="1" /><path clip-path="url(#clip490)" d="M1408.72 1518.58 Q1404.46 1525.9 1402.39 1533.06 Q1400.32 1540.23 1400.32 1547.58 Q1400.32 1554.93 1402.39 1562.16 Q1404.49 1569.35 1408.72 1576.64 L1403.63 1576.64 Q1398.85 1569.16 1396.47 1561.93 Q1394.11 1554.71 1394.11 1547.58 Q1394.11 1540.48 1396.47 1533.29 Q1398.82 1526.09 1403.63 1518.58 L1408.72 1518.58 Z" fill="#000000" fill-rule="evenodd" fill-opacity="1" /><path clip-path="url(#clip490)" d="M1449.72 1532.4 L1436.83 1549.74 L1450.38 1568.04 L1443.48 1568.04 L1433.1 1554.04 L1422.73 1568.04 L1415.82 1568.04 L1429.66 1549.39 L1417 1532.4 L1423.9 1532.4 L1433.36 1545.1 L1442.81 1532.4 L1449.72 1532.4 Z" fill="#000000" fill-rule="evenodd" fill-opacity="1" /><path clip-path="url(#clip490)" d="M1457.74 1518.58 L1462.83 1518.58 Q1467.6 1526.09 1469.96 1533.29 Q1472.35 1540.48 1472.35 1547.58 Q1472.35 1554.71 1469.96 1561.93 Q1467.6 1569.16 1462.83 1576.64 L1457.74 1576.64 Q1461.97 1569.35 1464.04 1562.16 Q1466.14 1554.93 1466.14 1547.58 Q1466.14 1540.23 1464.04 1533.06 Q1461.97 1525.9 1457.74 1518.58 Z" fill="#000000" fill-rule="evenodd" fill-opacity="1" /><polyline clip-path="url(#clip492)" style="stroke:#000000; stroke-linecap:butt; stroke-linejoin:round; stroke-width:2; stroke-opacity:0.1; fill:none" points="
  432.029,1667.38 2352.76,1667.38 
  "/>
<polyline clip-path="url(#clip492)" style="stroke:#000000; stroke-linecap:butt; stroke-linejoin:round; stroke-width:2; stroke-opacity:0.1; fill:none" points="
  432.029,1201.29 2352.76,1201.29 
  "/>
<polyline clip-path="url(#clip492)" style="stroke:#000000; stroke-linecap:butt; stroke-linejoin:round; stroke-width:2; stroke-opacity:0.1; fill:none" points="
  432.029,735.212 2352.76,735.212 
  "/>
<polyline clip-path="url(#clip492)" style="stroke:#000000; stroke-linecap:butt; stroke-linejoin:round; stroke-width:2; stroke-opacity:0.1; fill:none" points="
  432.029,269.129 2352.76,269.129 
  "/>
<polyline clip-path="url(#clip492)" style="stroke:#000000; stroke-linecap:butt; stroke-linejoin:round; stroke-width:2; stroke-opacity:0.1; fill:none" points="
  432.029,-196.953 2352.76,-196.953 
  "/>
<polyline clip-path="url(#clip490)" style="stroke:#000000; stroke-linecap:butt; stroke-linejoin:round; stroke-width:4; stroke-opacity:1; fill:none" points="
  432.029,1423.18 432.029,47.2441 
  "/>
<polyline clip-path="url(#clip490)" style="stroke:#000000; stroke-linecap:butt; stroke-linejoin:round; stroke-width:4; stroke-opacity:1; fill:none" points="
  432.029,1667.38 450.927,1667.38 
  "/>
<polyline clip-path="url(#clip490)" style="stroke:#000000; stroke-linecap:butt; stroke-linejoin:round; stroke-width:4; stroke-opacity:1; fill:none" points="
  432.029,1201.29 450.927,1201.29 
  "/>
<polyline clip-path="url(#clip490)" style="stroke:#000000; stroke-linecap:butt; stroke-linejoin:round; stroke-width:4; stroke-opacity:1; fill:none" points="
  432.029,735.212 450.927,735.212 
  "/>
<polyline clip-path="url(#clip490)" style="stroke:#000000; stroke-linecap:butt; stroke-linejoin:round; stroke-width:4; stroke-opacity:1; fill:none" points="
  432.029,269.129 450.927,269.129 
  "/>
<polyline clip-path="url(#clip490)" style="stroke:#000000; stroke-linecap:butt; stroke-linejoin:round; stroke-width:4; stroke-opacity:1; fill:none" points="
  432.029,-196.953 450.927,-196.953 
  "/>
<path clip-path="url(#clip490)" d="M114.26 1674.28 L143.936 1674.28 L143.936 1678.21 L114.26 1678.21 L114.26 1674.28 Z" fill="#000000" fill-rule="evenodd" fill-opacity="1" /><path clip-path="url(#clip490)" d="M164.607 1671.96 Q161.459 1671.96 159.607 1674.11 Q157.778 1676.27 157.778 1680.02 Q157.778 1683.74 159.607 1685.92 Q161.459 1688.07 164.607 1688.07 Q167.755 1688.07 169.584 1685.92 Q171.436 1683.74 171.436 1680.02 Q171.436 1676.27 169.584 1674.11 Q167.755 1671.96 164.607 1671.96 M173.889 1657.31 L173.889 1661.57 Q172.13 1660.73 170.325 1660.29 Q168.542 1659.86 166.783 1659.86 Q162.153 1659.86 159.7 1662.98 Q157.269 1666.11 156.922 1672.42 Q158.288 1670.41 160.348 1669.35 Q162.408 1668.26 164.885 1668.26 Q170.093 1668.26 173.102 1671.43 Q176.135 1674.58 176.135 1680.02 Q176.135 1685.34 172.987 1688.56 Q169.839 1691.78 164.607 1691.78 Q158.612 1691.78 155.44 1687.19 Q152.269 1682.59 152.269 1673.86 Q152.269 1665.67 156.158 1660.8 Q160.047 1655.92 166.598 1655.92 Q168.357 1655.92 170.139 1656.27 Q171.945 1656.61 173.889 1657.31 Z" fill="#000000" fill-rule="evenodd" fill-opacity="1" /><path clip-path="url(#clip490)" d="M184.19 1685.23 L189.075 1685.23 L189.075 1691.1 L184.19 1691.1 L184.19 1685.23 Z" fill="#000000" fill-rule="evenodd" fill-opacity="1" /><path clip-path="url(#clip490)" d="M209.26 1659.62 Q205.649 1659.62 203.82 1663.19 Q202.014 1666.73 202.014 1673.86 Q202.014 1680.97 203.82 1684.53 Q205.649 1688.07 209.26 1688.07 Q212.894 1688.07 214.699 1684.53 Q216.528 1680.97 216.528 1673.86 Q216.528 1666.73 214.699 1663.19 Q212.894 1659.62 209.26 1659.62 M209.26 1655.92 Q215.07 1655.92 218.125 1660.53 Q221.204 1665.11 221.204 1673.86 Q221.204 1682.59 218.125 1687.19 Q215.07 1691.78 209.26 1691.78 Q203.449 1691.78 200.371 1687.19 Q197.315 1682.59 197.315 1673.86 Q197.315 1665.11 200.371 1660.53 Q203.449 1655.92 209.26 1655.92 Z" fill="#000000" fill-rule="evenodd" fill-opacity="1" /><path clip-path="url(#clip490)" d="M257.593 1665.64 L247.014 1676.27 L257.593 1686.85 L254.838 1689.65 L244.213 1679.02 L233.588 1689.65 L230.857 1686.85 L241.412 1676.27 L230.857 1665.64 L233.588 1662.84 L244.213 1673.47 L254.838 1662.84 L257.593 1665.64 Z" fill="#000000" fill-rule="evenodd" fill-opacity="1" /><path clip-path="url(#clip490)" d="M269.954 1687.17 L277.593 1687.17 L277.593 1660.8 L269.282 1662.47 L269.282 1658.21 L277.546 1656.54 L282.222 1656.54 L282.222 1687.17 L289.861 1687.17 L289.861 1691.1 L269.954 1691.1 L269.954 1687.17 Z" fill="#000000" fill-rule="evenodd" fill-opacity="1" /><path clip-path="url(#clip490)" d="M309.305 1659.62 Q305.694 1659.62 303.866 1663.19 Q302.06 1666.73 302.06 1673.86 Q302.06 1680.97 303.866 1684.53 Q305.694 1688.07 309.305 1688.07 Q312.94 1688.07 314.745 1684.53 Q316.574 1680.97 316.574 1673.86 Q316.574 1666.73 314.745 1663.19 Q312.94 1659.62 309.305 1659.62 M309.305 1655.92 Q315.116 1655.92 318.171 1660.53 Q321.25 1665.11 321.25 1673.86 Q321.25 1682.59 318.171 1687.19 Q315.116 1691.78 309.305 1691.78 Q303.495 1691.78 300.417 1687.19 Q297.361 1682.59 297.361 1673.86 Q297.361 1665.11 300.417 1660.53 Q303.495 1655.92 309.305 1655.92 Z" fill="#000000" fill-rule="evenodd" fill-opacity="1" /><path clip-path="url(#clip490)" d="M321.25 1650.02 L345.361 1650.02 L345.361 1653.22 L321.25 1653.22 L321.25 1650.02 Z" fill="#000000" fill-rule="evenodd" fill-opacity="1" /><path clip-path="url(#clip490)" d="M354.22 1660.5 L360.426 1660.5 L360.426 1639.08 L353.674 1640.43 L353.674 1636.97 L360.389 1635.61 L364.188 1635.61 L364.188 1660.5 L370.394 1660.5 L370.394 1663.69 L354.22 1663.69 L354.22 1660.5 Z" fill="#000000" fill-rule="evenodd" fill-opacity="1" /><path clip-path="url(#clip490)" d="M386.663 1648.14 Q384.105 1648.14 382.601 1649.89 Q381.115 1651.64 381.115 1654.69 Q381.115 1657.71 382.601 1659.48 Q384.105 1661.23 386.663 1661.23 Q389.221 1661.23 390.707 1659.48 Q392.212 1657.71 392.212 1654.69 Q392.212 1651.64 390.707 1649.89 Q389.221 1648.14 386.663 1648.14 M394.205 1636.24 L394.205 1639.7 Q392.776 1639.02 391.309 1638.66 Q389.861 1638.3 388.431 1638.3 Q384.67 1638.3 382.676 1640.84 Q380.701 1643.38 380.419 1648.52 Q381.529 1646.88 383.203 1646.02 Q384.876 1645.13 386.889 1645.13 Q391.121 1645.13 393.566 1647.71 Q396.029 1650.27 396.029 1654.69 Q396.029 1659.01 393.472 1661.63 Q390.914 1664.24 386.663 1664.24 Q381.792 1664.24 379.215 1660.52 Q376.639 1656.77 376.639 1649.68 Q376.639 1643.02 379.798 1639.08 Q382.958 1635.11 388.281 1635.11 Q389.71 1635.11 391.158 1635.39 Q392.625 1635.67 394.205 1636.24 Z" fill="#000000" fill-rule="evenodd" fill-opacity="1" /><path clip-path="url(#clip490)" d="M114.26 1208.19 L143.936 1208.19 L143.936 1212.13 L114.26 1212.13 L114.26 1208.19 Z" fill="#000000" fill-rule="evenodd" fill-opacity="1" /><path clip-path="url(#clip490)" d="M168.195 1206.39 Q171.552 1207.11 173.427 1209.37 Q175.325 1211.64 175.325 1214.98 Q175.325 1220.09 171.806 1222.89 Q168.288 1225.69 161.806 1225.69 Q159.63 1225.69 157.315 1225.25 Q155.024 1224.84 152.57 1223.98 L152.57 1219.47 Q154.515 1220.6 156.829 1221.18 Q159.144 1221.76 161.667 1221.76 Q166.065 1221.76 168.357 1220.02 Q170.672 1218.29 170.672 1214.98 Q170.672 1211.92 168.519 1210.21 Q166.39 1208.47 162.57 1208.47 L158.542 1208.47 L158.542 1204.63 L162.755 1204.63 Q166.204 1204.63 168.033 1203.26 Q169.862 1201.87 169.862 1199.28 Q169.862 1196.62 167.964 1195.21 Q166.089 1193.77 162.57 1193.77 Q160.649 1193.77 158.45 1194.19 Q156.251 1194.61 153.612 1195.49 L153.612 1191.32 Q156.274 1190.58 158.589 1190.21 Q160.927 1189.84 162.987 1189.84 Q168.311 1189.84 171.413 1192.27 Q174.514 1194.68 174.514 1198.8 Q174.514 1201.67 172.871 1203.66 Q171.227 1205.62 168.195 1206.39 Z" fill="#000000" fill-rule="evenodd" fill-opacity="1" /><path clip-path="url(#clip490)" d="M184.19 1219.14 L189.075 1219.14 L189.075 1225.02 L184.19 1225.02 L184.19 1219.14 Z" fill="#000000" fill-rule="evenodd" fill-opacity="1" /><path clip-path="url(#clip490)" d="M209.26 1193.54 Q205.649 1193.54 203.82 1197.11 Q202.014 1200.65 202.014 1207.78 Q202.014 1214.88 203.82 1218.45 Q205.649 1221.99 209.26 1221.99 Q212.894 1221.99 214.699 1218.45 Q216.528 1214.88 216.528 1207.78 Q216.528 1200.65 214.699 1197.11 Q212.894 1193.54 209.26 1193.54 M209.26 1189.84 Q215.07 1189.84 218.125 1194.44 Q221.204 1199.03 221.204 1207.78 Q221.204 1216.5 218.125 1221.11 Q215.07 1225.69 209.26 1225.69 Q203.449 1225.69 200.371 1221.11 Q197.315 1216.5 197.315 1207.78 Q197.315 1199.03 200.371 1194.44 Q203.449 1189.84 209.26 1189.84 Z" fill="#000000" fill-rule="evenodd" fill-opacity="1" /><path clip-path="url(#clip490)" d="M257.593 1199.56 L247.014 1210.18 L257.593 1220.76 L254.838 1223.56 L244.213 1212.94 L233.588 1223.56 L230.857 1220.76 L241.412 1210.18 L230.857 1199.56 L233.588 1196.76 L244.213 1207.38 L254.838 1196.76 L257.593 1199.56 Z" fill="#000000" fill-rule="evenodd" fill-opacity="1" /><path clip-path="url(#clip490)" d="M269.954 1221.09 L277.593 1221.09 L277.593 1194.72 L269.282 1196.39 L269.282 1192.13 L277.546 1190.46 L282.222 1190.46 L282.222 1221.09 L289.861 1221.09 L289.861 1225.02 L269.954 1225.02 L269.954 1221.09 Z" fill="#000000" fill-rule="evenodd" fill-opacity="1" /><path clip-path="url(#clip490)" d="M309.305 1193.54 Q305.694 1193.54 303.866 1197.11 Q302.06 1200.65 302.06 1207.78 Q302.06 1214.88 303.866 1218.45 Q305.694 1221.99 309.305 1221.99 Q312.94 1221.99 314.745 1218.45 Q316.574 1214.88 316.574 1207.78 Q316.574 1200.65 314.745 1197.11 Q312.94 1193.54 309.305 1193.54 M309.305 1189.84 Q315.116 1189.84 318.171 1194.44 Q321.25 1199.03 321.25 1207.78 Q321.25 1216.5 318.171 1221.11 Q315.116 1225.69 309.305 1225.69 Q303.495 1225.69 300.417 1221.11 Q297.361 1216.5 297.361 1207.78 Q297.361 1199.03 300.417 1194.44 Q303.495 1189.84 309.305 1189.84 Z" fill="#000000" fill-rule="evenodd" fill-opacity="1" /><path clip-path="url(#clip490)" d="M321.25 1183.94 L345.361 1183.94 L345.361 1187.14 L321.25 1187.14 L321.25 1183.94 Z" fill="#000000" fill-rule="evenodd" fill-opacity="1" /><path clip-path="url(#clip490)" d="M354.22 1194.41 L360.426 1194.41 L360.426 1172.99 L353.674 1174.35 L353.674 1170.89 L360.389 1169.53 L364.188 1169.53 L364.188 1194.41 L370.394 1194.41 L370.394 1197.61 L354.22 1197.61 L354.22 1194.41 Z" fill="#000000" fill-rule="evenodd" fill-opacity="1" /><path clip-path="url(#clip490)" d="M386.663 1182.06 Q384.105 1182.06 382.601 1183.81 Q381.115 1185.56 381.115 1188.6 Q381.115 1191.63 382.601 1193.4 Q384.105 1195.15 386.663 1195.15 Q389.221 1195.15 390.707 1193.4 Q392.212 1191.63 392.212 1188.6 Q392.212 1185.56 390.707 1183.81 Q389.221 1182.06 386.663 1182.06 M394.205 1170.15 L394.205 1173.61 Q392.776 1172.94 391.309 1172.58 Q389.861 1172.22 388.431 1172.22 Q384.67 1172.22 382.676 1174.76 Q380.701 1177.3 380.419 1182.43 Q381.529 1180.8 383.203 1179.93 Q384.876 1179.05 386.889 1179.05 Q391.121 1179.05 393.566 1181.63 Q396.029 1184.18 396.029 1188.6 Q396.029 1192.93 393.472 1195.54 Q390.914 1198.16 386.663 1198.16 Q381.792 1198.16 379.215 1194.43 Q376.639 1190.69 376.639 1183.6 Q376.639 1176.94 379.798 1172.99 Q382.958 1169.02 388.281 1169.02 Q389.71 1169.02 391.158 1169.31 Q392.625 1169.59 394.205 1170.15 Z" fill="#000000" fill-rule="evenodd" fill-opacity="1" /><path clip-path="url(#clip490)" d="M384.085 721.011 Q380.474 721.011 378.645 724.575 Q376.84 728.117 376.84 735.247 Q376.84 742.353 378.645 745.918 Q380.474 749.46 384.085 749.46 Q387.719 749.46 389.525 745.918 Q391.354 742.353 391.354 735.247 Q391.354 728.117 389.525 724.575 Q387.719 721.011 384.085 721.011 M384.085 717.307 Q389.895 717.307 392.951 721.913 Q396.029 726.497 396.029 735.247 Q396.029 743.973 392.951 748.58 Q389.895 753.163 384.085 753.163 Q378.275 753.163 375.196 748.58 Q372.141 743.973 372.141 735.247 Q372.141 726.497 375.196 721.913 Q378.275 717.307 384.085 717.307 Z" fill="#000000" fill-rule="evenodd" fill-opacity="1" /><path clip-path="url(#clip490)" d="M168.195 274.223 Q171.552 274.94 173.427 277.209 Q175.325 279.477 175.325 282.811 Q175.325 287.926 171.806 290.727 Q168.288 293.528 161.806 293.528 Q159.63 293.528 157.315 293.088 Q155.024 292.672 152.57 291.815 L152.57 287.301 Q154.515 288.436 156.829 289.014 Q159.144 289.593 161.667 289.593 Q166.065 289.593 168.357 287.857 Q170.672 286.121 170.672 282.811 Q170.672 279.755 168.519 278.042 Q166.39 276.306 162.57 276.306 L158.542 276.306 L158.542 272.463 L162.755 272.463 Q166.204 272.463 168.033 271.098 Q169.862 269.709 169.862 267.116 Q169.862 264.454 167.964 263.042 Q166.089 261.607 162.57 261.607 Q160.649 261.607 158.45 262.024 Q156.251 262.44 153.612 263.32 L153.612 259.153 Q156.274 258.413 158.589 258.042 Q160.927 257.672 162.987 257.672 Q168.311 257.672 171.413 260.102 Q174.514 262.51 174.514 266.63 Q174.514 269.501 172.871 271.491 Q171.227 273.459 168.195 274.223 Z" fill="#000000" fill-rule="evenodd" fill-opacity="1" /><path clip-path="url(#clip490)" d="M184.19 286.977 L189.075 286.977 L189.075 292.857 L184.19 292.857 L184.19 286.977 Z" fill="#000000" fill-rule="evenodd" fill-opacity="1" /><path clip-path="url(#clip490)" d="M209.26 261.376 Q205.649 261.376 203.82 264.94 Q202.014 268.482 202.014 275.612 Q202.014 282.718 203.82 286.283 Q205.649 289.824 209.26 289.824 Q212.894 289.824 214.699 286.283 Q216.528 282.718 216.528 275.612 Q216.528 268.482 214.699 264.94 Q212.894 261.376 209.26 261.376 M209.26 257.672 Q215.07 257.672 218.125 262.278 Q221.204 266.862 221.204 275.612 Q221.204 284.338 218.125 288.945 Q215.07 293.528 209.26 293.528 Q203.449 293.528 200.371 288.945 Q197.315 284.338 197.315 275.612 Q197.315 266.862 200.371 262.278 Q203.449 257.672 209.26 257.672 Z" fill="#000000" fill-rule="evenodd" fill-opacity="1" /><path clip-path="url(#clip490)" d="M257.593 267.394 L247.014 278.019 L257.593 288.598 L254.838 291.399 L244.213 280.774 L233.588 291.399 L230.857 288.598 L241.412 278.019 L230.857 267.394 L233.588 264.593 L244.213 275.218 L254.838 264.593 L257.593 267.394 Z" fill="#000000" fill-rule="evenodd" fill-opacity="1" /><path clip-path="url(#clip490)" d="M269.954 288.922 L277.593 288.922 L277.593 262.556 L269.282 264.223 L269.282 259.964 L277.546 258.297 L282.222 258.297 L282.222 288.922 L289.861 288.922 L289.861 292.857 L269.954 292.857 L269.954 288.922 Z" fill="#000000" fill-rule="evenodd" fill-opacity="1" /><path clip-path="url(#clip490)" d="M309.305 261.376 Q305.694 261.376 303.866 264.94 Q302.06 268.482 302.06 275.612 Q302.06 282.718 303.866 286.283 Q305.694 289.824 309.305 289.824 Q312.94 289.824 314.745 286.283 Q316.574 282.718 316.574 275.612 Q316.574 268.482 314.745 264.94 Q312.94 261.376 309.305 261.376 M309.305 257.672 Q315.116 257.672 318.171 262.278 Q321.25 266.862 321.25 275.612 Q321.25 284.338 318.171 288.945 Q315.116 293.528 309.305 293.528 Q303.495 293.528 300.417 288.945 Q297.361 284.338 297.361 275.612 Q297.361 266.862 300.417 262.278 Q303.495 257.672 309.305 257.672 Z" fill="#000000" fill-rule="evenodd" fill-opacity="1" /><path clip-path="url(#clip490)" d="M321.25 251.773 L345.361 251.773 L345.361 254.971 L321.25 254.971 L321.25 251.773 Z" fill="#000000" fill-rule="evenodd" fill-opacity="1" /><path clip-path="url(#clip490)" d="M354.22 262.249 L360.426 262.249 L360.426 240.827 L353.674 242.181 L353.674 238.721 L360.389 237.366 L364.188 237.366 L364.188 262.249 L370.394 262.249 L370.394 265.446 L354.22 265.446 L354.22 262.249 Z" fill="#000000" fill-rule="evenodd" fill-opacity="1" /><path clip-path="url(#clip490)" d="M386.663 249.892 Q384.105 249.892 382.601 251.642 Q381.115 253.391 381.115 256.438 Q381.115 259.466 382.601 261.234 Q384.105 262.983 386.663 262.983 Q389.221 262.983 390.707 261.234 Q392.212 259.466 392.212 256.438 Q392.212 253.391 390.707 251.642 Q389.221 249.892 386.663 249.892 M394.205 237.987 L394.205 241.448 Q392.776 240.771 391.309 240.413 Q389.861 240.056 388.431 240.056 Q384.67 240.056 382.676 242.595 Q380.701 245.134 380.419 250.269 Q381.529 248.632 383.203 247.767 Q384.876 246.883 386.889 246.883 Q391.121 246.883 393.566 249.46 Q396.029 252.018 396.029 256.438 Q396.029 260.763 393.472 263.378 Q390.914 265.992 386.663 265.992 Q381.792 265.992 379.215 262.268 Q376.639 258.525 376.639 251.435 Q376.639 244.777 379.798 240.827 Q382.958 236.859 388.281 236.859 Q389.71 236.859 391.158 237.141 Q392.625 237.423 394.205 237.987 Z" fill="#000000" fill-rule="evenodd" fill-opacity="1" /><path clip-path="url(#clip490)" d="M164.607 -192.369 Q161.459 -192.369 159.607 -190.216 Q157.778 -188.064 157.778 -184.314 Q157.778 -180.587 159.607 -178.411 Q161.459 -176.258 164.607 -176.258 Q167.755 -176.258 169.584 -178.411 Q171.436 -180.587 171.436 -184.314 Q171.436 -188.064 169.584 -190.216 Q167.755 -192.369 164.607 -192.369 M173.889 -207.022 L173.889 -202.763 Q172.13 -203.596 170.325 -204.036 Q168.542 -204.476 166.783 -204.476 Q162.153 -204.476 159.7 -201.351 Q157.269 -198.226 156.922 -191.906 Q158.288 -193.92 160.348 -194.985 Q162.408 -196.073 164.885 -196.073 Q170.093 -196.073 173.102 -192.902 Q176.135 -189.754 176.135 -184.314 Q176.135 -178.99 172.987 -175.772 Q169.839 -172.555 164.607 -172.555 Q158.612 -172.555 155.44 -177.138 Q152.269 -181.744 152.269 -190.471 Q152.269 -198.666 156.158 -203.527 Q160.047 -208.411 166.598 -208.411 Q168.357 -208.411 170.139 -208.064 Q171.945 -207.716 173.889 -207.022 Z" fill="#000000" fill-rule="evenodd" fill-opacity="1" /><path clip-path="url(#clip490)" d="M184.19 -179.105 L189.075 -179.105 L189.075 -173.226 L184.19 -173.226 L184.19 -179.105 Z" fill="#000000" fill-rule="evenodd" fill-opacity="1" /><path clip-path="url(#clip490)" d="M209.26 -204.707 Q205.649 -204.707 203.82 -201.142 Q202.014 -197.601 202.014 -190.471 Q202.014 -183.365 203.82 -179.8 Q205.649 -176.258 209.26 -176.258 Q212.894 -176.258 214.699 -179.8 Q216.528 -183.365 216.528 -190.471 Q216.528 -197.601 214.699 -201.142 Q212.894 -204.707 209.26 -204.707 M209.26 -208.411 Q215.07 -208.411 218.125 -203.804 Q221.204 -199.221 221.204 -190.471 Q221.204 -181.744 218.125 -177.138 Q215.07 -172.555 209.26 -172.555 Q203.449 -172.555 200.371 -177.138 Q197.315 -181.744 197.315 -190.471 Q197.315 -199.221 200.371 -203.804 Q203.449 -208.411 209.26 -208.411 Z" fill="#000000" fill-rule="evenodd" fill-opacity="1" /><path clip-path="url(#clip490)" d="M257.593 -198.689 L247.014 -188.064 L257.593 -177.485 L254.838 -174.684 L244.213 -185.309 L233.588 -174.684 L230.857 -177.485 L241.412 -188.064 L230.857 -198.689 L233.588 -201.49 L244.213 -190.865 L254.838 -201.49 L257.593 -198.689 Z" fill="#000000" fill-rule="evenodd" fill-opacity="1" /><path clip-path="url(#clip490)" d="M269.954 -177.161 L277.593 -177.161 L277.593 -203.527 L269.282 -201.86 L269.282 -206.119 L277.546 -207.786 L282.222 -207.786 L282.222 -177.161 L289.861 -177.161 L289.861 -173.226 L269.954 -173.226 L269.954 -177.161 Z" fill="#000000" fill-rule="evenodd" fill-opacity="1" /><path clip-path="url(#clip490)" d="M309.305 -204.707 Q305.694 -204.707 303.866 -201.142 Q302.06 -197.601 302.06 -190.471 Q302.06 -183.365 303.866 -179.8 Q305.694 -176.258 309.305 -176.258 Q312.94 -176.258 314.745 -179.8 Q316.574 -183.365 316.574 -190.471 Q316.574 -197.601 314.745 -201.142 Q312.94 -204.707 309.305 -204.707 M309.305 -208.411 Q315.116 -208.411 318.171 -203.804 Q321.25 -199.221 321.25 -190.471 Q321.25 -181.744 318.171 -177.138 Q315.116 -172.555 309.305 -172.555 Q303.495 -172.555 300.417 -177.138 Q297.361 -181.744 297.361 -190.471 Q297.361 -199.221 300.417 -203.804 Q303.495 -208.411 309.305 -208.411 Z" fill="#000000" fill-rule="evenodd" fill-opacity="1" /><path clip-path="url(#clip490)" d="M321.25 -214.309 L345.361 -214.309 L345.361 -211.112 L321.25 -211.112 L321.25 -214.309 Z" fill="#000000" fill-rule="evenodd" fill-opacity="1" /><path clip-path="url(#clip490)" d="M354.22 -203.834 L360.426 -203.834 L360.426 -225.256 L353.674 -223.901 L353.674 -227.362 L360.389 -228.716 L364.188 -228.716 L364.188 -203.834 L370.394 -203.834 L370.394 -200.636 L354.22 -200.636 L354.22 -203.834 Z" fill="#000000" fill-rule="evenodd" fill-opacity="1" /><path clip-path="url(#clip490)" d="M386.663 -216.19 Q384.105 -216.19 382.601 -214.441 Q381.115 -212.692 381.115 -209.645 Q381.115 -206.617 382.601 -204.849 Q384.105 -203.1 386.663 -203.1 Q389.221 -203.1 390.707 -204.849 Q392.212 -206.617 392.212 -209.645 Q392.212 -212.692 390.707 -214.441 Q389.221 -216.19 386.663 -216.19 M394.205 -228.096 L394.205 -224.635 Q392.776 -225.312 391.309 -225.669 Q389.861 -226.027 388.431 -226.027 Q384.67 -226.027 382.676 -223.488 Q380.701 -220.949 380.419 -215.814 Q381.529 -217.45 383.203 -218.316 Q384.876 -219.199 386.889 -219.199 Q391.121 -219.199 393.566 -216.623 Q396.029 -214.065 396.029 -209.645 Q396.029 -205.319 393.472 -202.705 Q390.914 -200.091 386.663 -200.091 Q381.792 -200.091 379.215 -203.815 Q376.639 -207.557 376.639 -214.648 Q376.639 -221.306 379.798 -225.256 Q382.958 -229.224 388.281 -229.224 Q389.71 -229.224 391.158 -228.942 Q392.625 -228.66 394.205 -228.096 Z" fill="#000000" fill-rule="evenodd" fill-opacity="1" /><path clip-path="url(#clip490)" d="M16.4842 815.293 L16.4842 808.863 L64.0042 808.863 L64.0042 815.293 L16.4842 815.293 Z" fill="#000000" fill-rule="evenodd" fill-opacity="1" /><path clip-path="url(#clip490)" d="M35.1993 768.568 Q31.2526 766.372 29.3747 763.317 Q27.4968 760.261 27.4968 756.123 Q27.4968 750.553 31.4117 747.53 Q35.2948 744.506 42.4881 744.506 L64.0042 744.506 L64.0042 750.394 L42.679 750.394 Q37.5546 750.394 35.072 752.208 Q32.5894 754.023 32.5894 757.747 Q32.5894 762.298 35.6131 764.94 Q38.6368 767.582 43.8567 767.582 L64.0042 767.582 L64.0042 773.47 L42.679 773.47 Q37.5228 773.47 35.072 775.284 Q32.5894 777.098 32.5894 780.886 Q32.5894 785.374 35.6449 788.016 Q38.6686 790.657 43.8567 790.657 L64.0042 790.657 L64.0042 796.546 L28.3562 796.546 L28.3562 790.657 L33.8944 790.657 Q30.616 788.652 29.0564 785.851 Q27.4968 783.05 27.4968 779.199 Q27.4968 775.316 29.4702 772.61 Q31.4436 769.873 35.1993 768.568 Z" fill="#000000" fill-rule="evenodd" fill-opacity="1" /><path clip-path="url(#clip490)" d="M14.5426 718.757 Q21.8632 723.022 29.0246 725.09 Q36.186 727.159 43.5384 727.159 Q50.8908 727.159 58.1159 725.09 Q65.3091 722.99 72.5979 718.757 L72.5979 723.849 Q65.1182 728.623 57.8931 731.011 Q50.668 733.366 43.5384 733.366 Q36.4406 733.366 29.2474 731.011 Q22.0542 728.655 14.5426 723.849 L14.5426 718.757 Z" fill="#000000" fill-rule="evenodd" fill-opacity="1" /><path clip-path="url(#clip490)" d="M28.3562 677.761 L45.7028 690.652 L64.0042 677.093 L64.0042 684 L49.9996 694.376 L64.0042 704.752 L64.0042 711.659 L45.3526 697.813 L28.3562 710.481 L28.3562 703.574 L41.0558 694.121 L28.3562 684.668 L28.3562 677.761 Z" fill="#000000" fill-rule="evenodd" fill-opacity="1" /><path clip-path="url(#clip490)" d="M14.5426 669.741 L14.5426 664.648 Q22.0542 659.874 29.2474 657.519 Q36.4406 655.131 43.5384 655.131 Q50.668 655.131 57.8931 657.519 Q65.1182 659.874 72.5979 664.648 L72.5979 669.741 Q65.3091 665.507 58.1159 663.439 Q50.8908 661.338 43.5384 661.338 Q36.186 661.338 29.0246 663.439 Q21.8632 665.507 14.5426 669.741 Z" fill="#000000" fill-rule="evenodd" fill-opacity="1" /><circle clip-path="url(#clip492)" cx="486.39" cy="735.212" r="14" fill="#009af9" fill-rule="evenodd" fill-opacity="1" stroke="#000000" stroke-opacity="1" stroke-width="3.2"/>
<circle clip-path="url(#clip492)" cx="486.39" cy="874.914" r="14" fill="#009af9" fill-rule="evenodd" fill-opacity="1" stroke="#000000" stroke-opacity="1" stroke-width="3.2"/>
<circle clip-path="url(#clip492)" cx="486.39" cy="595.51" r="14" fill="#009af9" fill-rule="evenodd" fill-opacity="1" stroke="#000000" stroke-opacity="1" stroke-width="3.2"/>
<circle clip-path="url(#clip492)" cx="486.39" cy="735.212" r="14" fill="#009af9" fill-rule="evenodd" fill-opacity="1" stroke="#000000" stroke-opacity="1" stroke-width="3.2"/>
<circle clip-path="url(#clip492)" cx="486.39" cy="1157.37" r="14" fill="#009af9" fill-rule="evenodd" fill-opacity="1" stroke="#000000" stroke-opacity="1" stroke-width="3.2"/>
<circle clip-path="url(#clip492)" cx="486.39" cy="313.051" r="14" fill="#009af9" fill-rule="evenodd" fill-opacity="1" stroke="#000000" stroke-opacity="1" stroke-width="3.2"/>
<circle clip-path="url(#clip492)" cx="486.39" cy="1115.36" r="14" fill="#009af9" fill-rule="evenodd" fill-opacity="1" stroke="#000000" stroke-opacity="1" stroke-width="3.2"/>
<circle clip-path="url(#clip492)" cx="486.39" cy="355.064" r="14" fill="#009af9" fill-rule="evenodd" fill-opacity="1" stroke="#000000" stroke-opacity="1" stroke-width="3.2"/>
<circle clip-path="url(#clip492)" cx="486.39" cy="756.878" r="14" fill="#009af9" fill-rule="evenodd" fill-opacity="1" stroke="#000000" stroke-opacity="1" stroke-width="3.2"/>
<circle clip-path="url(#clip492)" cx="486.39" cy="713.546" r="14" fill="#009af9" fill-rule="evenodd" fill-opacity="1" stroke="#000000" stroke-opacity="1" stroke-width="3.2"/>
<circle clip-path="url(#clip492)" cx="486.39" cy="735.212" r="14" fill="#009af9" fill-rule="evenodd" fill-opacity="1" stroke="#000000" stroke-opacity="1" stroke-width="3.2"/>
<circle clip-path="url(#clip492)" cx="486.39" cy="748.106" r="14" fill="#009af9" fill-rule="evenodd" fill-opacity="1" stroke="#000000" stroke-opacity="1" stroke-width="3.2"/>
<circle clip-path="url(#clip492)" cx="486.39" cy="722.318" r="14" fill="#009af9" fill-rule="evenodd" fill-opacity="1" stroke="#000000" stroke-opacity="1" stroke-width="3.2"/>
<circle clip-path="url(#clip492)" cx="486.39" cy="735.212" r="14" fill="#009af9" fill-rule="evenodd" fill-opacity="1" stroke="#000000" stroke-opacity="1" stroke-width="3.2"/>
<circle clip-path="url(#clip492)" cx="486.39" cy="879.128" r="14" fill="#009af9" fill-rule="evenodd" fill-opacity="1" stroke="#000000" stroke-opacity="1" stroke-width="3.2"/>
<circle clip-path="url(#clip492)" cx="486.39" cy="591.296" r="14" fill="#009af9" fill-rule="evenodd" fill-opacity="1" stroke="#000000" stroke-opacity="1" stroke-width="3.2"/>
<circle clip-path="url(#clip492)" cx="486.39" cy="759.613" r="14" fill="#009af9" fill-rule="evenodd" fill-opacity="1" stroke="#000000" stroke-opacity="1" stroke-width="3.2"/>
<circle clip-path="url(#clip492)" cx="486.39" cy="710.811" r="14" fill="#009af9" fill-rule="evenodd" fill-opacity="1" stroke="#000000" stroke-opacity="1" stroke-width="3.2"/>
<circle clip-path="url(#clip492)" cx="486.39" cy="735.212" r="14" fill="#009af9" fill-rule="evenodd" fill-opacity="1" stroke="#000000" stroke-opacity="1" stroke-width="3.2"/>
<circle clip-path="url(#clip492)" cx="486.39" cy="1267.82" r="14" fill="#009af9" fill-rule="evenodd" fill-opacity="1" stroke="#000000" stroke-opacity="1" stroke-width="3.2"/>
<circle clip-path="url(#clip492)" cx="486.39" cy="202.605" r="14" fill="#009af9" fill-rule="evenodd" fill-opacity="1" stroke="#000000" stroke-opacity="1" stroke-width="3.2"/>
<circle clip-path="url(#clip492)" cx="486.39" cy="1019.29" r="14" fill="#009af9" fill-rule="evenodd" fill-opacity="1" stroke="#000000" stroke-opacity="1" stroke-width="3.2"/>
<circle clip-path="url(#clip492)" cx="486.39" cy="451.134" r="14" fill="#009af9" fill-rule="evenodd" fill-opacity="1" stroke="#000000" stroke-opacity="1" stroke-width="3.2"/>
<circle clip-path="url(#clip492)" cx="486.39" cy="735.212" r="14" fill="#009af9" fill-rule="evenodd" fill-opacity="1" stroke="#000000" stroke-opacity="1" stroke-width="3.2"/>
<circle clip-path="url(#clip492)" cx="486.39" cy="735.212" r="14" fill="#009af9" fill-rule="evenodd" fill-opacity="1" stroke="#000000" stroke-opacity="1" stroke-width="3.2"/>
<circle clip-path="url(#clip492)" cx="2193.85" cy="735.212" r="14" fill="#009af9" fill-rule="evenodd" fill-opacity="1" stroke="#000000" stroke-opacity="1" stroke-width="3.2"/>
<circle clip-path="url(#clip492)" cx="2194.64" cy="735.212" r="14" fill="#009af9" fill-rule="evenodd" fill-opacity="1" stroke="#000000" stroke-opacity="1" stroke-width="3.2"/>
<circle clip-path="url(#clip492)" cx="2196.22" cy="735.212" r="14" fill="#009af9" fill-rule="evenodd" fill-opacity="1" stroke="#000000" stroke-opacity="1" stroke-width="3.2"/>
<circle clip-path="url(#clip492)" cx="2198.56" cy="735.212" r="14" fill="#009af9" fill-rule="evenodd" fill-opacity="1" stroke="#000000" stroke-opacity="1" stroke-width="3.2"/>
<circle clip-path="url(#clip492)" cx="2201.62" cy="735.212" r="14" fill="#009af9" fill-rule="evenodd" fill-opacity="1" stroke="#000000" stroke-opacity="1" stroke-width="3.2"/>
<circle clip-path="url(#clip492)" cx="2205.35" cy="735.212" r="14" fill="#009af9" fill-rule="evenodd" fill-opacity="1" stroke="#000000" stroke-opacity="1" stroke-width="3.2"/>
<circle clip-path="url(#clip492)" cx="2209.71" cy="735.212" r="14" fill="#009af9" fill-rule="evenodd" fill-opacity="1" stroke="#000000" stroke-opacity="1" stroke-width="3.2"/>
<circle clip-path="url(#clip492)" cx="2214.62" cy="735.212" r="14" fill="#009af9" fill-rule="evenodd" fill-opacity="1" stroke="#000000" stroke-opacity="1" stroke-width="3.2"/>
<circle clip-path="url(#clip492)" cx="2220.01" cy="735.212" r="14" fill="#009af9" fill-rule="evenodd" fill-opacity="1" stroke="#000000" stroke-opacity="1" stroke-width="3.2"/>
<circle clip-path="url(#clip492)" cx="2225.8" cy="735.212" r="14" fill="#009af9" fill-rule="evenodd" fill-opacity="1" stroke="#000000" stroke-opacity="1" stroke-width="3.2"/>
<circle clip-path="url(#clip492)" cx="2231.9" cy="735.212" r="14" fill="#009af9" fill-rule="evenodd" fill-opacity="1" stroke="#000000" stroke-opacity="1" stroke-width="3.2"/>
<circle clip-path="url(#clip492)" cx="2238.22" cy="735.212" r="14" fill="#009af9" fill-rule="evenodd" fill-opacity="1" stroke="#000000" stroke-opacity="1" stroke-width="3.2"/>
<circle clip-path="url(#clip492)" cx="2244.65" cy="735.212" r="14" fill="#009af9" fill-rule="evenodd" fill-opacity="1" stroke="#000000" stroke-opacity="1" stroke-width="3.2"/>
<circle clip-path="url(#clip492)" cx="2251.12" cy="735.212" r="14" fill="#009af9" fill-rule="evenodd" fill-opacity="1" stroke="#000000" stroke-opacity="1" stroke-width="3.2"/>
<circle clip-path="url(#clip492)" cx="2257.51" cy="735.212" r="14" fill="#009af9" fill-rule="evenodd" fill-opacity="1" stroke="#000000" stroke-opacity="1" stroke-width="3.2"/>
<circle clip-path="url(#clip492)" cx="2263.73" cy="735.212" r="14" fill="#009af9" fill-rule="evenodd" fill-opacity="1" stroke="#000000" stroke-opacity="1" stroke-width="3.2"/>
<circle clip-path="url(#clip492)" cx="2269.68" cy="735.212" r="14" fill="#009af9" fill-rule="evenodd" fill-opacity="1" stroke="#000000" stroke-opacity="1" stroke-width="3.2"/>
<circle clip-path="url(#clip492)" cx="2275.28" cy="735.212" r="14" fill="#009af9" fill-rule="evenodd" fill-opacity="1" stroke="#000000" stroke-opacity="1" stroke-width="3.2"/>
<circle clip-path="url(#clip492)" cx="2280.44" cy="735.212" r="14" fill="#009af9" fill-rule="evenodd" fill-opacity="1" stroke="#000000" stroke-opacity="1" stroke-width="3.2"/>
<circle clip-path="url(#clip492)" cx="2285.09" cy="735.212" r="14" fill="#009af9" fill-rule="evenodd" fill-opacity="1" stroke="#000000" stroke-opacity="1" stroke-width="3.2"/>
<circle clip-path="url(#clip492)" cx="2289.14" cy="735.212" r="14" fill="#009af9" fill-rule="evenodd" fill-opacity="1" stroke="#000000" stroke-opacity="1" stroke-width="3.2"/>
<circle clip-path="url(#clip492)" cx="2292.54" cy="735.212" r="14" fill="#009af9" fill-rule="evenodd" fill-opacity="1" stroke="#000000" stroke-opacity="1" stroke-width="3.2"/>
<circle clip-path="url(#clip492)" cx="2295.25" cy="735.212" r="14" fill="#009af9" fill-rule="evenodd" fill-opacity="1" stroke="#000000" stroke-opacity="1" stroke-width="3.2"/>
<circle clip-path="url(#clip492)" cx="2297.21" cy="735.212" r="14" fill="#009af9" fill-rule="evenodd" fill-opacity="1" stroke="#000000" stroke-opacity="1" stroke-width="3.2"/>
<circle clip-path="url(#clip492)" cx="2298.4" cy="735.212" r="14" fill="#009af9" fill-rule="evenodd" fill-opacity="1" stroke="#000000" stroke-opacity="1" stroke-width="3.2"/>
<path clip-path="url(#clip490)" d="
M2022.89 196.789 L2288.73 196.789 L2288.73 93.1086 L2022.89 93.1086  Z
  " fill="#ffffff" fill-rule="evenodd" fill-opacity="1"/>
<polyline clip-path="url(#clip490)" style="stroke:#000000; stroke-linecap:butt; stroke-linejoin:round; stroke-width:4; stroke-opacity:1; fill:none" points="
  2022.89,196.789 2288.73,196.789 2288.73,93.1086 2022.89,93.1086 2022.89,196.789 
  "/>
<circle clip-path="url(#clip490)" cx="2108.25" cy="144.949" r="23" fill="#009af9" fill-rule="evenodd" fill-opacity="1" stroke="#000000" stroke-opacity="1" stroke-width="5.12"/>
<path clip-path="url(#clip490)" d="M2207.46 164.636 Q2205.66 169.266 2203.94 170.678 Q2202.23 172.09 2199.36 172.09 L2195.96 172.09 L2195.96 168.525 L2198.46 168.525 Q2200.22 168.525 2201.19 167.692 Q2202.16 166.858 2203.34 163.756 L2204.1 161.812 L2193.62 136.303 L2198.13 136.303 L2206.23 156.581 L2214.34 136.303 L2218.85 136.303 L2207.46 164.636 Z" fill="#000000" fill-rule="evenodd" fill-opacity="1" /><path clip-path="url(#clip490)" d="M2226.14 158.293 L2233.78 158.293 L2233.78 131.928 L2225.47 133.595 L2225.47 129.335 L2233.73 127.669 L2238.41 127.669 L2238.41 158.293 L2246.05 158.293 L2246.05 162.229 L2226.14 162.229 L2226.14 158.293 Z" fill="#000000" fill-rule="evenodd" fill-opacity="1" /></svg>
