<?xml version="1.0" encoding="utf-8"?>
<svg xmlns="http://www.w3.org/2000/svg" xmlns:xlink="http://www.w3.org/1999/xlink" width="600" height="400" viewBox="0 0 2400 1600">
<defs>
  <clipPath id="clip540">
    <rect x="0" y="0" width="2400" height="1600"/>
  </clipPath>
</defs>
<path clip-path="url(#clip540)" d="
M0 1600 L2400 1600 L2400 0 L0 0  Z
  " fill="#ffffff" fill-rule="evenodd" fill-opacity="1"/>
<defs>
  <clipPath id="clip541">
    <rect x="480" y="0" width="1681" height="1600"/>
  </clipPath>
</defs>
<path clip-path="url(#clip540)" d="
M213.607 1486.45 L2352.76 1486.45 L2352.76 47.2441 L213.607 47.2441  Z
  " fill="#ffffff" fill-rule="evenodd" fill-opacity="1"/>
<defs>
  <clipPath id="clip542">
    <rect x="213" y="47" width="2140" height="1440"/>
  </clipPath>
</defs>
<polyline clip-path="url(#clip542)" style="stroke:#000000; stroke-linecap:butt; stroke-linejoin:round; stroke-width:2; stroke-opacity:0.1; fill:none" points="
  274.149,1486.45 274.149,47.2441 
  "/>
<polyline clip-path="url(#clip542)" style="stroke:#000000; stroke-linecap:butt; stroke-linejoin:round; stroke-width:2; stroke-opacity:0.1; fill:none" points="
  778.666,1486.45 778.666,47.2441 
  "/>
<polyline clip-path="url(#clip542)" style="stroke:#000000; stroke-linecap:butt; stroke-linejoin:round; stroke-width:2; stroke-opacity:0.1; fill:none" points="
  1283.18,1486.45 1283.18,47.2441 
  "/>
<polyline clip-path="url(#clip542)" style="stroke:#000000; stroke-linecap:butt; stroke-linejoin:round; stroke-width:2; stroke-opacity:0.1; fill:none" points="
  1787.7,1486.45 1787.7,47.2441 
  "/>
<polyline clip-path="url(#clip542)" style="stroke:#000000; stroke-linecap:butt; stroke-linejoin:round; stroke-width:2; stroke-opacity:0.1; fill:none" points="
  2292.21,1486.45 2292.21,47.2441 
  "/>
<polyline clip-path="url(#clip540)" style="stroke:#000000; stroke-linecap:butt; stroke-linejoin:round; stroke-width:4; stroke-opacity:1; fill:none" points="
  213.607,1486.45 2352.76,1486.45 
  "/>
<polyline clip-path="url(#clip540)" style="stroke:#000000; stroke-linecap:butt; stroke-linejoin:round; stroke-width:4; stroke-opacity:1; fill:none" points="
  274.149,1486.45 274.149,1467.55 
  "/>
<polyline clip-path="url(#clip540)" style="stroke:#000000; stroke-linecap:butt; stroke-linejoin:round; stroke-width:4; stroke-opacity:1; fill:none" points="
  778.666,1486.45 778.666,1467.55 
  "/>
<polyline clip-path="url(#clip540)" style="stroke:#000000; stroke-linecap:butt; stroke-linejoin:round; stroke-width:4; stroke-opacity:1; fill:none" points="
  1283.18,1486.45 1283.18,1467.55 
  "/>
<polyline clip-path="url(#clip540)" style="stroke:#000000; stroke-linecap:butt; stroke-linejoin:round; stroke-width:4; stroke-opacity:1; fill:none" points="
  1787.7,1486.45 1787.7,1467.55 
  "/>
<polyline clip-path="url(#clip540)" style="stroke:#000000; stroke-linecap:butt; stroke-linejoin:round; stroke-width:4; stroke-opacity:1; fill:none" points="
  2292.21,1486.45 2292.21,1467.55 
  "/>
<path clip-path="url(#clip540)" d="M264.531 1543.18 L272.17 1543.18 L272.17 1516.82 L263.86 1518.49 L263.86 1514.23 L272.124 1512.56 L276.8 1512.56 L276.8 1543.18 L284.439 1543.18 L284.439 1547.12 L264.531 1547.12 L264.531 1543.18 Z" fill="#000000" fill-rule="evenodd" fill-opacity="1" /><path clip-path="url(#clip540)" d="M773.318 1543.18 L789.638 1543.18 L789.638 1547.12 L767.693 1547.12 L767.693 1543.18 Q770.355 1540.43 774.939 1535.8 Q779.545 1531.15 780.726 1529.81 Q782.971 1527.28 783.851 1525.55 Q784.753 1523.79 784.753 1522.1 Q784.753 1519.34 782.809 1517.61 Q780.888 1515.87 777.786 1515.87 Q775.587 1515.87 773.133 1516.63 Q770.703 1517.4 767.925 1518.95 L767.925 1514.23 Q770.749 1513.09 773.203 1512.51 Q775.656 1511.93 777.693 1511.93 Q783.064 1511.93 786.258 1514.62 Q789.453 1517.31 789.453 1521.8 Q789.453 1523.93 788.642 1525.85 Q787.855 1527.74 785.749 1530.34 Q785.17 1531.01 782.068 1534.23 Q778.966 1537.42 773.318 1543.18 Z" fill="#000000" fill-rule="evenodd" fill-opacity="1" /><path clip-path="url(#clip540)" d="M1287.43 1528.49 Q1290.79 1529.2 1292.66 1531.47 Q1294.56 1533.74 1294.56 1537.07 Q1294.56 1542.19 1291.04 1544.99 Q1287.52 1547.79 1281.04 1547.79 Q1278.86 1547.79 1276.55 1547.35 Q1274.26 1546.93 1271.8 1546.08 L1271.8 1541.56 Q1273.75 1542.7 1276.06 1543.28 Q1278.38 1543.86 1280.9 1543.86 Q1285.3 1543.86 1287.59 1542.12 Q1289.91 1540.38 1289.91 1537.07 Q1289.91 1534.02 1287.75 1532.31 Q1285.62 1530.57 1281.8 1530.57 L1277.78 1530.57 L1277.78 1526.73 L1281.99 1526.73 Q1285.44 1526.73 1287.27 1525.36 Q1289.1 1523.97 1289.1 1521.38 Q1289.1 1518.72 1287.2 1517.31 Q1285.32 1515.87 1281.8 1515.87 Q1279.88 1515.87 1277.68 1516.29 Q1275.48 1516.7 1272.85 1517.58 L1272.85 1513.42 Q1275.51 1512.68 1277.82 1512.31 Q1280.16 1511.93 1282.22 1511.93 Q1287.55 1511.93 1290.65 1514.37 Q1293.75 1516.77 1293.75 1520.89 Q1293.75 1523.76 1292.11 1525.75 Q1290.46 1527.72 1287.43 1528.49 Z" fill="#000000" fill-rule="evenodd" fill-opacity="1" /><path clip-path="url(#clip540)" d="M1790.71 1516.63 L1778.9 1535.08 L1790.71 1535.08 L1790.71 1516.63 M1789.48 1512.56 L1795.36 1512.56 L1795.36 1535.08 L1800.29 1535.08 L1800.29 1538.97 L1795.36 1538.97 L1795.36 1547.12 L1790.71 1547.12 L1790.71 1538.97 L1775.11 1538.97 L1775.11 1534.46 L1789.48 1512.56 Z" fill="#000000" fill-rule="evenodd" fill-opacity="1" /><path clip-path="url(#clip540)" d="M2282.49 1512.56 L2300.85 1512.56 L2300.85 1516.5 L2286.77 1516.5 L2286.77 1524.97 Q2287.79 1524.62 2288.81 1524.46 Q2289.83 1524.27 2290.85 1524.27 Q2296.64 1524.27 2300.01 1527.44 Q2303.39 1530.62 2303.39 1536.03 Q2303.39 1541.61 2299.92 1544.71 Q2296.45 1547.79 2290.13 1547.79 Q2287.95 1547.79 2285.69 1547.42 Q2283.44 1547.05 2281.03 1546.31 L2281.03 1541.61 Q2283.12 1542.74 2285.34 1543.3 Q2287.56 1543.86 2290.04 1543.86 Q2294.04 1543.86 2296.38 1541.75 Q2298.72 1539.64 2298.72 1536.03 Q2298.72 1532.42 2296.38 1530.31 Q2294.04 1528.21 2290.04 1528.21 Q2288.16 1528.21 2286.29 1528.62 Q2284.44 1529.04 2282.49 1529.92 L2282.49 1512.56 Z" fill="#000000" fill-rule="evenodd" fill-opacity="1" /><polyline clip-path="url(#clip542)" style="stroke:#000000; stroke-linecap:butt; stroke-linejoin:round; stroke-width:2; stroke-opacity:0.1; fill:none" points="
  213.607,1134.87 2352.76,1134.87 
  "/>
<polyline clip-path="url(#clip542)" style="stroke:#000000; stroke-linecap:butt; stroke-linejoin:round; stroke-width:2; stroke-opacity:0.1; fill:none" points="
  213.607,697.043 2352.76,697.043 
  "/>
<polyline clip-path="url(#clip542)" style="stroke:#000000; stroke-linecap:butt; stroke-linejoin:round; stroke-width:2; stroke-opacity:0.1; fill:none" points="
  213.607,259.21 2352.76,259.21 
  "/>
<polyline clip-path="url(#clip540)" style="stroke:#000000; stroke-linecap:butt; stroke-linejoin:round; stroke-width:4; stroke-opacity:1; fill:none" points="
  213.607,1486.45 213.607,47.2441 
  "/>
<polyline clip-path="url(#clip540)" style="stroke:#000000; stroke-linecap:butt; stroke-linejoin:round; stroke-width:4; stroke-opacity:1; fill:none" points="
  213.607,1134.87 232.505,1134.87 
  "/>
<polyline clip-path="url(#clip540)" style="stroke:#000000; stroke-linecap:butt; stroke-linejoin:round; stroke-width:4; stroke-opacity:1; fill:none" points="
  213.607,697.043 232.505,697.043 
  "/>
<polyline clip-path="url(#clip540)" style="stroke:#000000; stroke-linecap:butt; stroke-linejoin:round; stroke-width:4; stroke-opacity:1; fill:none" points="
  213.607,259.21 232.505,259.21 
  "/>
<path clip-path="url(#clip540)" d="M51.6634 1154.67 L59.3023 1154.67 L59.3023 1128.3 L50.9921 1129.97 L50.9921 1125.71 L59.256 1124.04 L63.9319 1124.04 L63.9319 1154.67 L71.5707 1154.67 L71.5707 1158.6 L51.6634 1158.6 L51.6634 1154.67 Z" fill="#000000" fill-rule="evenodd" fill-opacity="1" /><path clip-path="url(#clip540)" d="M91.0151 1127.12 Q87.404 1127.12 85.5753 1130.69 Q83.7697 1134.23 83.7697 1141.36 Q83.7697 1148.46 85.5753 1152.03 Q87.404 1155.57 91.0151 1155.57 Q94.6493 1155.57 96.4548 1152.03 Q98.2835 1148.46 98.2835 1141.36 Q98.2835 1134.23 96.4548 1130.69 Q94.6493 1127.12 91.0151 1127.12 M91.0151 1123.42 Q96.8252 1123.42 99.8808 1128.02 Q102.959 1132.61 102.959 1141.36 Q102.959 1150.08 99.8808 1154.69 Q96.8252 1159.27 91.0151 1159.27 Q85.2049 1159.27 82.1262 1154.69 Q79.0707 1150.08 79.0707 1141.36 Q79.0707 1132.61 82.1262 1128.02 Q85.2049 1123.42 91.0151 1123.42 Z" fill="#000000" fill-rule="evenodd" fill-opacity="1" /><path clip-path="url(#clip540)" d="M102.959 1117.52 L127.071 1117.52 L127.071 1120.72 L102.959 1120.72 L102.959 1117.52 Z" fill="#000000" fill-rule="evenodd" fill-opacity="1" /><path clip-path="url(#clip540)" d="M135.929 1127.99 L142.136 1127.99 L142.136 1106.57 L135.384 1107.93 L135.384 1104.47 L142.098 1103.11 L145.898 1103.11 L145.898 1127.99 L152.104 1127.99 L152.104 1131.19 L135.929 1131.19 L135.929 1127.99 Z" fill="#000000" fill-rule="evenodd" fill-opacity="1" /><path clip-path="url(#clip540)" d="M167.903 1105.61 Q164.969 1105.61 163.483 1108.51 Q162.016 1111.39 162.016 1117.18 Q162.016 1122.95 163.483 1125.85 Q164.969 1128.73 167.903 1128.73 Q170.855 1128.73 172.322 1125.85 Q173.808 1122.95 173.808 1117.18 Q173.808 1111.39 172.322 1108.51 Q170.855 1105.61 167.903 1105.61 M167.903 1102.6 Q172.623 1102.6 175.106 1106.35 Q177.607 1110.07 177.607 1117.18 Q177.607 1124.27 175.106 1128.01 Q172.623 1131.74 167.903 1131.74 Q163.182 1131.74 160.68 1128.01 Q158.198 1124.27 158.198 1117.18 Q158.198 1110.07 160.68 1106.35 Q163.182 1102.6 167.903 1102.6 Z" fill="#000000" fill-rule="evenodd" fill-opacity="1" /><path clip-path="url(#clip540)" d="M76.9787 716.835 L84.6175 716.835 L84.6175 690.469 L76.3074 692.136 L76.3074 687.877 L84.5712 686.21 L89.2471 686.21 L89.2471 716.835 L96.886 716.835 L96.886 720.77 L76.9787 720.77 L76.9787 716.835 Z" fill="#000000" fill-rule="evenodd" fill-opacity="1" /><path clip-path="url(#clip540)" d="M116.33 689.289 Q112.719 689.289 110.891 692.854 Q109.085 696.395 109.085 703.525 Q109.085 710.631 110.891 714.196 Q112.719 717.738 116.33 717.738 Q119.965 717.738 121.77 714.196 Q123.599 710.631 123.599 703.525 Q123.599 696.395 121.77 692.854 Q119.965 689.289 116.33 689.289 M116.33 685.585 Q122.14 685.585 125.196 690.192 Q128.275 694.775 128.275 703.525 Q128.275 712.252 125.196 716.858 Q122.14 721.441 116.33 721.441 Q110.52 721.441 107.441 716.858 Q104.386 712.252 104.386 703.525 Q104.386 694.775 107.441 690.192 Q110.52 685.585 116.33 685.585 Z" fill="#000000" fill-rule="evenodd" fill-opacity="1" /><path clip-path="url(#clip540)" d="M128.275 679.687 L152.386 679.687 L152.386 682.884 L128.275 682.884 L128.275 679.687 Z" fill="#000000" fill-rule="evenodd" fill-opacity="1" /><path clip-path="url(#clip540)" d="M160.624 665.28 L175.539 665.28 L175.539 668.477 L164.103 668.477 L164.103 675.361 Q164.931 675.079 165.759 674.947 Q166.586 674.796 167.414 674.796 Q172.116 674.796 174.862 677.373 Q177.607 679.95 177.607 684.351 Q177.607 688.884 174.786 691.404 Q171.965 693.905 166.831 693.905 Q165.063 693.905 163.22 693.604 Q161.395 693.303 159.439 692.701 L159.439 688.884 Q161.132 689.805 162.937 690.256 Q164.743 690.708 166.755 690.708 Q170.009 690.708 171.909 688.996 Q173.808 687.285 173.808 684.351 Q173.808 681.417 171.909 679.705 Q170.009 677.994 166.755 677.994 Q165.232 677.994 163.709 678.332 Q162.204 678.671 160.624 679.386 L160.624 665.28 Z" fill="#000000" fill-rule="evenodd" fill-opacity="1" /><path clip-path="url(#clip540)" d="M106.902 279.003 L114.541 279.003 L114.541 252.637 L106.231 254.304 L106.231 250.044 L114.494 248.378 L119.17 248.378 L119.17 279.003 L126.809 279.003 L126.809 282.938 L106.902 282.938 L106.902 279.003 Z" fill="#000000" fill-rule="evenodd" fill-opacity="1" /><path clip-path="url(#clip540)" d="M146.253 251.457 Q142.642 251.457 140.814 255.021 Q139.008 258.563 139.008 265.693 Q139.008 272.799 140.814 276.364 Q142.642 279.905 146.253 279.905 Q149.888 279.905 151.693 276.364 Q153.522 272.799 153.522 265.693 Q153.522 258.563 151.693 255.021 Q149.888 251.457 146.253 251.457 M146.253 247.753 Q152.064 247.753 155.119 252.359 Q158.198 256.943 158.198 265.693 Q158.198 274.419 155.119 279.026 Q152.064 283.609 146.253 283.609 Q140.443 283.609 137.365 279.026 Q134.309 274.419 134.309 265.693 Q134.309 256.943 137.365 252.359 Q140.443 247.753 146.253 247.753 Z" fill="#000000" fill-rule="evenodd" fill-opacity="1" /><path clip-path="url(#clip540)" d="M167.903 229.949 Q164.969 229.949 163.483 232.845 Q162.016 235.723 162.016 241.516 Q162.016 247.29 163.483 250.186 Q164.969 253.064 167.903 253.064 Q170.855 253.064 172.322 250.186 Q173.808 247.29 173.808 241.516 Q173.808 235.723 172.322 232.845 Q170.855 229.949 167.903 229.949 M167.903 226.94 Q172.623 226.94 175.106 230.682 Q177.607 234.406 177.607 241.516 Q177.607 248.606 175.106 252.349 Q172.623 256.073 167.903 256.073 Q163.182 256.073 160.68 252.349 Q158.198 248.606 158.198 241.516 Q158.198 234.406 160.68 230.682 Q163.182 226.94 167.903 226.94 Z" fill="#000000" fill-rule="evenodd" fill-opacity="1" /><polyline clip-path="url(#clip542)" style="stroke:#009af9; stroke-linecap:butt; stroke-linejoin:round; stroke-width:4; stroke-opacity:1; fill:none" points="
  274.149,87.9763 778.666,87.9786 1283.18,1422.89 1787.7,1445.72 2292.21,1437.51 
  "/>
<circle clip-path="url(#clip542)" cx="274.149" cy="87.9763" r="14" fill="#009af9" fill-rule="evenodd" fill-opacity="1" stroke="#000000" stroke-opacity="1" stroke-width="3.2"/>
<circle clip-path="url(#clip542)" cx="778.666" cy="87.9786" r="14" fill="#009af9" fill-rule="evenodd" fill-opacity="1" stroke="#000000" stroke-opacity="1" stroke-width="3.2"/>
<circle clip-path="url(#clip542)" cx="1283.18" cy="1422.89" r="14" fill="#009af9" fill-rule="evenodd" fill-opacity="1" stroke="#000000" stroke-opacity="1" stroke-width="3.2"/>
<circle clip-path="url(#clip542)" cx="1787.7" cy="1445.72" r="14" fill="#009af9" fill-rule="evenodd" fill-opacity="1" stroke="#000000" stroke-opacity="1" stroke-width="3.2"/>
<circle clip-path="url(#clip542)" cx="2292.21" cy="1437.51" r="14" fill="#009af9" fill-rule="evenodd" fill-opacity="1" stroke="#000000" stroke-opacity="1" stroke-width="3.2"/>
<path clip-path="url(#clip540)" d="
M1991.34 198.898 L2281.45 198.898 L2281.45 95.2176 L1991.34 95.2176  Z
  " fill="#ffffff" fill-rule="evenodd" fill-opacity="1"/>
<polyline clip-path="url(#clip540)" style="stroke:#000000; stroke-linecap:butt; stroke-linejoin:round; stroke-width:4; stroke-opacity:1; fill:none" points="
  1991.34,198.898 2281.45,198.898 2281.45,95.2176 1991.34,95.2176 1991.34,198.898 
  "/>
<polyline clip-path="url(#clip540)" style="stroke:#009af9; stroke-linecap:butt; stroke-linejoin:round; stroke-width:4; stroke-opacity:1; fill:none" points="
  2015.11,147.058 2157.72,147.058 
  "/>
<circle clip-path="url(#clip540)" cx="2086.41" cy="147.058" r="23" fill="#009af9" fill-rule="evenodd" fill-opacity="1" stroke="#000000" stroke-opacity="1" stroke-width="5.12"/>
<path clip-path="url(#clip540)" d="M2195.33 166.745 Q2193.52 171.375 2191.81 172.787 Q2190.1 174.199 2187.22 174.199 L2183.82 174.199 L2183.82 170.634 L2186.32 170.634 Q2188.08 170.634 2189.05 169.8 Q2190.03 168.967 2191.21 165.865 L2191.97 163.921 L2181.48 138.412 L2186 138.412 L2194.1 158.689 L2202.2 138.412 L2206.72 138.412 L2195.33 166.745 Z" fill="#000000" fill-rule="evenodd" fill-opacity="1" /><path clip-path="url(#clip540)" d="M2214.01 160.402 L2221.65 160.402 L2221.65 134.037 L2213.34 135.703 L2213.34 131.444 L2221.6 129.778 L2226.28 129.778 L2226.28 160.402 L2233.91 160.402 L2233.91 164.338 L2214.01 164.338 L2214.01 160.402 Z" fill="#000000" fill-rule="evenodd" fill-opacity="1" /></svg>
