<?xml version="1.0" encoding="utf-8"?>
<svg xmlns="http://www.w3.org/2000/svg" xmlns:xlink="http://www.w3.org/1999/xlink" width="600" height="400" viewBox="0 0 2400 1600">
<defs>
  <clipPath id="clip750">
    <rect x="0" y="0" width="2400" height="1600"/>
  </clipPath>
</defs>
<path clip-path="url(#clip750)" d="
M0 1600 L2400 1600 L2400 0 L0 0  Z
  " fill="#ffffff" fill-rule="evenodd" fill-opacity="1"/>
<defs>
  <clipPath id="clip751">
    <rect x="480" y="0" width="1681" height="1600"/>
  </clipPath>
</defs>
<path clip-path="url(#clip750)" d="
M186.274 1486.45 L2352.76 1486.45 L2352.76 47.2441 L186.274 47.2441  Z
  " fill="#ffffff" fill-rule="evenodd" fill-opacity="1"/>
<defs>
  <clipPath id="clip752">
    <rect x="186" y="47" width="2167" height="1440"/>
  </clipPath>
</defs>
<polyline clip-path="url(#clip752)" style="stroke:#000000; stroke-linecap:butt; stroke-linejoin:round; stroke-width:2; stroke-opacity:0.1; fill:none" points="
  247.59,1486.45 247.59,47.2441 
  "/>
<polyline clip-path="url(#clip752)" style="stroke:#000000; stroke-linecap:butt; stroke-linejoin:round; stroke-width:2; stroke-opacity:0.1; fill:none" points="
  758.552,1486.45 758.552,47.2441 
  "/>
<polyline clip-path="url(#clip752)" style="stroke:#000000; stroke-linecap:butt; stroke-linejoin:round; stroke-width:2; stroke-opacity:0.1; fill:none" points="
  1269.51,1486.45 1269.51,47.2441 
  "/>
<polyline clip-path="url(#clip752)" style="stroke:#000000; stroke-linecap:butt; stroke-linejoin:round; stroke-width:2; stroke-opacity:0.1; fill:none" points="
  1780.48,1486.45 1780.48,47.2441 
  "/>
<polyline clip-path="url(#clip752)" style="stroke:#000000; stroke-linecap:butt; stroke-linejoin:round; stroke-width:2; stroke-opacity:0.1; fill:none" points="
  2291.44,1486.45 2291.44,47.2441 
  "/>
<polyline clip-path="url(#clip750)" style="stroke:#000000; stroke-linecap:butt; stroke-linejoin:round; stroke-width:4; stroke-opacity:1; fill:none" points="
  186.274,1486.45 2352.76,1486.45 
  "/>
<polyline clip-path="url(#clip750)" style="stroke:#000000; stroke-linecap:butt; stroke-linejoin:round; stroke-width:4; stroke-opacity:1; fill:none" points="
  247.59,1486.45 247.59,1467.55 
  "/>
<polyline clip-path="url(#clip750)" style="stroke:#000000; stroke-linecap:butt; stroke-linejoin:round; stroke-width:4; stroke-opacity:1; fill:none" points="
  758.552,1486.45 758.552,1467.55 
  "/>
<polyline clip-path="url(#clip750)" style="stroke:#000000; stroke-linecap:butt; stroke-linejoin:round; stroke-width:4; stroke-opacity:1; fill:none" points="
  1269.51,1486.45 1269.51,1467.55 
  "/>
<polyline clip-path="url(#clip750)" style="stroke:#000000; stroke-linecap:butt; stroke-linejoin:round; stroke-width:4; stroke-opacity:1; fill:none" points="
  1780.48,1486.45 1780.48,1467.55 
  "/>
<polyline clip-path="url(#clip750)" style="stroke:#000000; stroke-linecap:butt; stroke-linejoin:round; stroke-width:4; stroke-opacity:1; fill:none" points="
  2291.44,1486.45 2291.44,1467.55 
  "/>
<path clip-path="url(#clip750)" d="M194.118 1530.29 L223.793 1530.29 L223.793 1534.23 L194.118 1534.23 L194.118 1530.29 Z" fill="#000000" fill-rule="evenodd" fill-opacity="1" /><path clip-path="url(#clip750)" d="M234.696 1543.18 L242.335 1543.18 L242.335 1516.82 L234.025 1518.49 L234.025 1514.23 L242.289 1512.56 L246.965 1512.56 L246.965 1543.18 L254.603 1543.18 L254.603 1547.12 L234.696 1547.12 L234.696 1543.18 Z" fill="#000000" fill-rule="evenodd" fill-opacity="1" /><path clip-path="url(#clip750)" d="M264.048 1541.24 L268.932 1541.24 L268.932 1547.12 L264.048 1547.12 L264.048 1541.24 Z" fill="#000000" fill-rule="evenodd" fill-opacity="1" /><path clip-path="url(#clip750)" d="M289.117 1515.64 Q285.506 1515.64 283.677 1519.2 Q281.872 1522.75 281.872 1529.87 Q281.872 1536.98 283.677 1540.55 Q285.506 1544.09 289.117 1544.09 Q292.751 1544.09 294.557 1540.55 Q296.386 1536.98 296.386 1529.87 Q296.386 1522.75 294.557 1519.2 Q292.751 1515.64 289.117 1515.64 M289.117 1511.93 Q294.927 1511.93 297.983 1516.54 Q301.061 1521.12 301.061 1529.87 Q301.061 1538.6 297.983 1543.21 Q294.927 1547.79 289.117 1547.79 Q283.307 1547.79 280.228 1543.21 Q277.173 1538.6 277.173 1529.87 Q277.173 1521.12 280.228 1516.54 Q283.307 1511.93 289.117 1511.93 Z" fill="#000000" fill-rule="evenodd" fill-opacity="1" /><path clip-path="url(#clip750)" d="M705.578 1530.29 L735.254 1530.29 L735.254 1534.23 L705.578 1534.23 L705.578 1530.29 Z" fill="#000000" fill-rule="evenodd" fill-opacity="1" /><path clip-path="url(#clip750)" d="M755.346 1515.64 Q751.735 1515.64 749.906 1519.2 Q748.101 1522.75 748.101 1529.87 Q748.101 1536.98 749.906 1540.55 Q751.735 1544.09 755.346 1544.09 Q758.98 1544.09 760.786 1540.55 Q762.615 1536.98 762.615 1529.87 Q762.615 1522.75 760.786 1519.2 Q758.98 1515.64 755.346 1515.64 M755.346 1511.93 Q761.156 1511.93 764.212 1516.54 Q767.291 1521.12 767.291 1529.87 Q767.291 1538.6 764.212 1543.21 Q761.156 1547.79 755.346 1547.79 Q749.536 1547.79 746.457 1543.21 Q743.402 1538.6 743.402 1529.87 Q743.402 1521.12 746.457 1516.54 Q749.536 1511.93 755.346 1511.93 Z" fill="#000000" fill-rule="evenodd" fill-opacity="1" /><path clip-path="url(#clip750)" d="M775.508 1541.24 L780.392 1541.24 L780.392 1547.12 L775.508 1547.12 L775.508 1541.24 Z" fill="#000000" fill-rule="evenodd" fill-opacity="1" /><path clip-path="url(#clip750)" d="M790.624 1512.56 L808.98 1512.56 L808.98 1516.5 L794.906 1516.5 L794.906 1524.97 Q795.925 1524.62 796.943 1524.46 Q797.962 1524.27 798.98 1524.27 Q804.767 1524.27 808.147 1527.44 Q811.526 1530.62 811.526 1536.03 Q811.526 1541.61 808.054 1544.71 Q804.582 1547.79 798.263 1547.79 Q796.087 1547.79 793.818 1547.42 Q791.573 1547.05 789.166 1546.31 L789.166 1541.61 Q791.249 1542.74 793.471 1543.3 Q795.693 1543.86 798.17 1543.86 Q802.175 1543.86 804.513 1541.75 Q806.851 1539.64 806.851 1536.03 Q806.851 1532.42 804.513 1530.31 Q802.175 1528.21 798.17 1528.21 Q796.295 1528.21 794.42 1528.62 Q792.568 1529.04 790.624 1529.92 L790.624 1512.56 Z" fill="#000000" fill-rule="evenodd" fill-opacity="1" /><path clip-path="url(#clip750)" d="M1246.9 1515.64 Q1243.29 1515.64 1241.46 1519.2 Q1239.65 1522.75 1239.65 1529.87 Q1239.65 1536.98 1241.46 1540.55 Q1243.29 1544.09 1246.9 1544.09 Q1250.53 1544.09 1252.34 1540.55 Q1254.17 1536.98 1254.17 1529.87 Q1254.17 1522.75 1252.34 1519.2 Q1250.53 1515.64 1246.9 1515.64 M1246.9 1511.93 Q1252.71 1511.93 1255.77 1516.54 Q1258.84 1521.12 1258.84 1529.87 Q1258.84 1538.6 1255.77 1543.21 Q1252.71 1547.79 1246.9 1547.79 Q1241.09 1547.79 1238.01 1543.21 Q1234.95 1538.6 1234.95 1529.87 Q1234.95 1521.12 1238.01 1516.54 Q1241.09 1511.93 1246.9 1511.93 Z" fill="#000000" fill-rule="evenodd" fill-opacity="1" /><path clip-path="url(#clip750)" d="M1267.06 1541.24 L1271.95 1541.24 L1271.95 1547.12 L1267.06 1547.12 L1267.06 1541.24 Z" fill="#000000" fill-rule="evenodd" fill-opacity="1" /><path clip-path="url(#clip750)" d="M1292.13 1515.64 Q1288.52 1515.64 1286.69 1519.2 Q1284.89 1522.75 1284.89 1529.87 Q1284.89 1536.98 1286.69 1540.55 Q1288.52 1544.09 1292.13 1544.09 Q1295.76 1544.09 1297.57 1540.55 Q1299.4 1536.98 1299.4 1529.87 Q1299.4 1522.75 1297.57 1519.2 Q1295.76 1515.64 1292.13 1515.64 M1292.13 1511.93 Q1297.94 1511.93 1301 1516.54 Q1304.07 1521.12 1304.07 1529.87 Q1304.07 1538.6 1301 1543.21 Q1297.94 1547.79 1292.13 1547.79 Q1286.32 1547.79 1283.24 1543.21 Q1280.19 1538.6 1280.19 1529.87 Q1280.19 1521.12 1283.24 1516.54 Q1286.32 1511.93 1292.13 1511.93 Z" fill="#000000" fill-rule="evenodd" fill-opacity="1" /><path clip-path="url(#clip750)" d="M1758.36 1515.64 Q1754.75 1515.64 1752.92 1519.2 Q1751.11 1522.75 1751.11 1529.87 Q1751.11 1536.98 1752.92 1540.55 Q1754.75 1544.09 1758.36 1544.09 Q1761.99 1544.09 1763.8 1540.55 Q1765.63 1536.98 1765.63 1529.87 Q1765.63 1522.75 1763.8 1519.2 Q1761.99 1515.64 1758.36 1515.64 M1758.36 1511.93 Q1764.17 1511.93 1767.23 1516.54 Q1770.3 1521.12 1770.3 1529.87 Q1770.3 1538.6 1767.23 1543.21 Q1764.17 1547.79 1758.36 1547.79 Q1752.55 1547.79 1749.47 1543.21 Q1746.42 1538.6 1746.42 1529.87 Q1746.42 1521.12 1749.47 1516.54 Q1752.55 1511.93 1758.36 1511.93 Z" fill="#000000" fill-rule="evenodd" fill-opacity="1" /><path clip-path="url(#clip750)" d="M1778.52 1541.24 L1783.41 1541.24 L1783.41 1547.12 L1778.52 1547.12 L1778.52 1541.24 Z" fill="#000000" fill-rule="evenodd" fill-opacity="1" /><path clip-path="url(#clip750)" d="M1793.64 1512.56 L1811.99 1512.56 L1811.99 1516.5 L1797.92 1516.5 L1797.92 1524.97 Q1798.94 1524.62 1799.96 1524.46 Q1800.98 1524.27 1801.99 1524.27 Q1807.78 1524.27 1811.16 1527.44 Q1814.54 1530.62 1814.54 1536.03 Q1814.54 1541.61 1811.07 1544.71 Q1807.6 1547.79 1801.28 1547.79 Q1799.1 1547.79 1796.83 1547.42 Q1794.59 1547.05 1792.18 1546.31 L1792.18 1541.61 Q1794.26 1542.74 1796.48 1543.3 Q1798.71 1543.86 1801.18 1543.86 Q1805.19 1543.86 1807.53 1541.75 Q1809.86 1539.64 1809.86 1536.03 Q1809.86 1532.42 1807.53 1530.31 Q1805.19 1528.21 1801.18 1528.21 Q1799.31 1528.21 1797.43 1528.62 Q1795.58 1529.04 1793.64 1529.92 L1793.64 1512.56 Z" fill="#000000" fill-rule="evenodd" fill-opacity="1" /><path clip-path="url(#clip750)" d="M2258.59 1543.18 L2266.23 1543.18 L2266.23 1516.82 L2257.92 1518.49 L2257.92 1514.23 L2266.19 1512.56 L2270.86 1512.56 L2270.86 1543.18 L2278.5 1543.18 L2278.5 1547.12 L2258.59 1547.12 L2258.59 1543.18 Z" fill="#000000" fill-rule="evenodd" fill-opacity="1" /><path clip-path="url(#clip750)" d="M2287.95 1541.24 L2292.83 1541.24 L2292.83 1547.12 L2287.95 1547.12 L2287.95 1541.24 Z" fill="#000000" fill-rule="evenodd" fill-opacity="1" /><path clip-path="url(#clip750)" d="M2313.01 1515.64 Q2309.4 1515.64 2307.57 1519.2 Q2305.77 1522.75 2305.77 1529.87 Q2305.77 1536.98 2307.57 1540.55 Q2309.4 1544.09 2313.01 1544.09 Q2316.65 1544.09 2318.45 1540.55 Q2320.28 1536.98 2320.28 1529.87 Q2320.28 1522.75 2318.45 1519.2 Q2316.65 1515.64 2313.01 1515.64 M2313.01 1511.93 Q2318.82 1511.93 2321.88 1516.54 Q2324.96 1521.12 2324.96 1529.87 Q2324.96 1538.6 2321.88 1543.21 Q2318.82 1547.79 2313.01 1547.79 Q2307.2 1547.79 2304.13 1543.21 Q2301.07 1538.6 2301.07 1529.87 Q2301.07 1521.12 2304.13 1516.54 Q2307.2 1511.93 2313.01 1511.93 Z" fill="#000000" fill-rule="evenodd" fill-opacity="1" /><polyline clip-path="url(#clip752)" style="stroke:#000000; stroke-linecap:butt; stroke-linejoin:round; stroke-width:2; stroke-opacity:0.1; fill:none" points="
  186.274,1445.72 2352.76,1445.72 
  "/>
<polyline clip-path="url(#clip752)" style="stroke:#000000; stroke-linecap:butt; stroke-linejoin:round; stroke-width:2; stroke-opacity:0.1; fill:none" points="
  186.274,1203.34 2352.76,1203.34 
  "/>
<polyline clip-path="url(#clip752)" style="stroke:#000000; stroke-linecap:butt; stroke-linejoin:round; stroke-width:2; stroke-opacity:0.1; fill:none" points="
  186.274,960.966 2352.76,960.966 
  "/>
<polyline clip-path="url(#clip752)" style="stroke:#000000; stroke-linecap:butt; stroke-linejoin:round; stroke-width:2; stroke-opacity:0.1; fill:none" points="
  186.274,718.59 2352.76,718.59 
  "/>
<polyline clip-path="url(#clip752)" style="stroke:#000000; stroke-linecap:butt; stroke-linejoin:round; stroke-width:2; stroke-opacity:0.1; fill:none" points="
  186.274,476.215 2352.76,476.215 
  "/>
<polyline clip-path="url(#clip752)" style="stroke:#000000; stroke-linecap:butt; stroke-linejoin:round; stroke-width:2; stroke-opacity:0.1; fill:none" points="
  186.274,233.84 2352.76,233.84 
  "/>
<polyline clip-path="url(#clip750)" style="stroke:#000000; stroke-linecap:butt; stroke-linejoin:round; stroke-width:4; stroke-opacity:1; fill:none" points="
  186.274,1486.45 186.274,47.2441 
  "/>
<polyline clip-path="url(#clip750)" style="stroke:#000000; stroke-linecap:butt; stroke-linejoin:round; stroke-width:4; stroke-opacity:1; fill:none" points="
  186.274,1445.72 205.172,1445.72 
  "/>
<polyline clip-path="url(#clip750)" style="stroke:#000000; stroke-linecap:butt; stroke-linejoin:round; stroke-width:4; stroke-opacity:1; fill:none" points="
  186.274,1203.34 205.172,1203.34 
  "/>
<polyline clip-path="url(#clip750)" style="stroke:#000000; stroke-linecap:butt; stroke-linejoin:round; stroke-width:4; stroke-opacity:1; fill:none" points="
  186.274,960.966 205.172,960.966 
  "/>
<polyline clip-path="url(#clip750)" style="stroke:#000000; stroke-linecap:butt; stroke-linejoin:round; stroke-width:4; stroke-opacity:1; fill:none" points="
  186.274,718.59 205.172,718.59 
  "/>
<polyline clip-path="url(#clip750)" style="stroke:#000000; stroke-linecap:butt; stroke-linejoin:round; stroke-width:4; stroke-opacity:1; fill:none" points="
  186.274,476.215 205.172,476.215 
  "/>
<polyline clip-path="url(#clip750)" style="stroke:#000000; stroke-linecap:butt; stroke-linejoin:round; stroke-width:4; stroke-opacity:1; fill:none" points="
  186.274,233.84 205.172,233.84 
  "/>
<path clip-path="url(#clip750)" d="M62.9365 1431.51 Q59.3254 1431.51 57.4967 1435.08 Q55.6912 1438.62 55.6912 1445.75 Q55.6912 1452.86 57.4967 1456.42 Q59.3254 1459.96 62.9365 1459.96 Q66.5707 1459.96 68.3763 1456.42 Q70.205 1452.86 70.205 1445.75 Q70.205 1438.62 68.3763 1435.08 Q66.5707 1431.51 62.9365 1431.51 M62.9365 1427.81 Q68.7467 1427.81 71.8022 1432.42 Q74.8809 1437 74.8809 1445.75 Q74.8809 1454.48 71.8022 1459.08 Q68.7467 1463.67 62.9365 1463.67 Q57.1264 1463.67 54.0477 1459.08 Q50.9921 1454.48 50.9921 1445.75 Q50.9921 1437 54.0477 1432.42 Q57.1264 1427.81 62.9365 1427.81 Z" fill="#000000" fill-rule="evenodd" fill-opacity="1" /><path clip-path="url(#clip750)" d="M83.0984 1457.12 L87.9827 1457.12 L87.9827 1463 L83.0984 1463 L83.0984 1457.12 Z" fill="#000000" fill-rule="evenodd" fill-opacity="1" /><path clip-path="url(#clip750)" d="M108.168 1431.51 Q104.557 1431.51 102.728 1435.08 Q100.922 1438.62 100.922 1445.75 Q100.922 1452.86 102.728 1456.42 Q104.557 1459.96 108.168 1459.96 Q111.802 1459.96 113.608 1456.42 Q115.436 1452.86 115.436 1445.75 Q115.436 1438.62 113.608 1435.08 Q111.802 1431.51 108.168 1431.51 M108.168 1427.81 Q113.978 1427.81 117.033 1432.42 Q120.112 1437 120.112 1445.75 Q120.112 1454.48 117.033 1459.08 Q113.978 1463.67 108.168 1463.67 Q102.358 1463.67 99.2789 1459.08 Q96.2234 1454.48 96.2234 1445.75 Q96.2234 1437 99.2789 1432.42 Q102.358 1427.81 108.168 1427.81 Z" fill="#000000" fill-rule="evenodd" fill-opacity="1" /><path clip-path="url(#clip750)" d="M138.33 1431.51 Q134.719 1431.51 132.89 1435.08 Q131.084 1438.62 131.084 1445.75 Q131.084 1452.86 132.89 1456.42 Q134.719 1459.96 138.33 1459.96 Q141.964 1459.96 143.769 1456.42 Q145.598 1452.86 145.598 1445.75 Q145.598 1438.62 143.769 1435.08 Q141.964 1431.51 138.33 1431.51 M138.33 1427.81 Q144.14 1427.81 147.195 1432.42 Q150.274 1437 150.274 1445.75 Q150.274 1454.48 147.195 1459.08 Q144.14 1463.67 138.33 1463.67 Q132.519 1463.67 129.441 1459.08 Q126.385 1454.48 126.385 1445.75 Q126.385 1437 129.441 1432.42 Q132.519 1427.81 138.33 1427.81 Z" fill="#000000" fill-rule="evenodd" fill-opacity="1" /><path clip-path="url(#clip750)" d="M63.9319 1189.14 Q60.3208 1189.14 58.4921 1192.7 Q56.6865 1196.25 56.6865 1203.38 Q56.6865 1210.48 58.4921 1214.05 Q60.3208 1217.59 63.9319 1217.59 Q67.5661 1217.59 69.3717 1214.05 Q71.2004 1210.48 71.2004 1203.38 Q71.2004 1196.25 69.3717 1192.7 Q67.5661 1189.14 63.9319 1189.14 M63.9319 1185.44 Q69.742 1185.44 72.7976 1190.04 Q75.8763 1194.63 75.8763 1203.38 Q75.8763 1212.1 72.7976 1216.71 Q69.742 1221.29 63.9319 1221.29 Q58.1217 1221.29 55.043 1216.71 Q51.9875 1212.1 51.9875 1203.38 Q51.9875 1194.63 55.043 1190.04 Q58.1217 1185.44 63.9319 1185.44 Z" fill="#000000" fill-rule="evenodd" fill-opacity="1" /><path clip-path="url(#clip750)" d="M84.0938 1214.74 L88.978 1214.74 L88.978 1220.62 L84.0938 1220.62 L84.0938 1214.74 Z" fill="#000000" fill-rule="evenodd" fill-opacity="1" /><path clip-path="url(#clip750)" d="M103.191 1216.69 L119.51 1216.69 L119.51 1220.62 L97.566 1220.62 L97.566 1216.69 Q100.228 1213.93 104.811 1209.3 Q109.418 1204.65 110.598 1203.31 Q112.844 1200.78 113.723 1199.05 Q114.626 1197.29 114.626 1195.6 Q114.626 1192.84 112.682 1191.11 Q110.76 1189.37 107.658 1189.37 Q105.459 1189.37 103.006 1190.13 Q100.575 1190.9 97.7974 1192.45 L97.7974 1187.73 Q100.621 1186.59 103.075 1186.01 Q105.529 1185.44 107.566 1185.44 Q112.936 1185.44 116.131 1188.12 Q119.325 1190.81 119.325 1195.3 Q119.325 1197.43 118.515 1199.35 Q117.728 1201.25 115.621 1203.84 Q115.043 1204.51 111.941 1207.73 Q108.839 1210.92 103.191 1216.69 Z" fill="#000000" fill-rule="evenodd" fill-opacity="1" /><path clip-path="url(#clip750)" d="M129.371 1186.06 L147.728 1186.06 L147.728 1190 L133.654 1190 L133.654 1198.47 Q134.672 1198.12 135.691 1197.96 Q136.709 1197.77 137.728 1197.77 Q143.515 1197.77 146.894 1200.94 Q150.274 1204.12 150.274 1209.53 Q150.274 1215.11 146.802 1218.21 Q143.33 1221.29 137.01 1221.29 Q134.834 1221.29 132.566 1220.92 Q130.32 1220.55 127.913 1219.81 L127.913 1215.11 Q129.996 1216.25 132.219 1216.8 Q134.441 1217.36 136.918 1217.36 Q140.922 1217.36 143.26 1215.25 Q145.598 1213.14 145.598 1209.53 Q145.598 1205.92 143.26 1203.82 Q140.922 1201.71 136.918 1201.71 Q135.043 1201.71 133.168 1202.13 Q131.316 1202.54 129.371 1203.42 L129.371 1186.06 Z" fill="#000000" fill-rule="evenodd" fill-opacity="1" /><path clip-path="url(#clip750)" d="M62.9365 946.764 Q59.3254 946.764 57.4967 950.329 Q55.6912 953.871 55.6912 961 Q55.6912 968.107 57.4967 971.671 Q59.3254 975.213 62.9365 975.213 Q66.5707 975.213 68.3763 971.671 Q70.205 968.107 70.205 961 Q70.205 953.871 68.3763 950.329 Q66.5707 946.764 62.9365 946.764 M62.9365 943.061 Q68.7467 943.061 71.8022 947.667 Q74.8809 952.25 74.8809 961 Q74.8809 969.727 71.8022 974.333 Q68.7467 978.917 62.9365 978.917 Q57.1264 978.917 54.0477 974.333 Q50.9921 969.727 50.9921 961 Q50.9921 952.25 54.0477 947.667 Q57.1264 943.061 62.9365 943.061 Z" fill="#000000" fill-rule="evenodd" fill-opacity="1" /><path clip-path="url(#clip750)" d="M83.0984 972.366 L87.9827 972.366 L87.9827 978.246 L83.0984 978.246 L83.0984 972.366 Z" fill="#000000" fill-rule="evenodd" fill-opacity="1" /><path clip-path="url(#clip750)" d="M98.2141 943.686 L116.57 943.686 L116.57 947.621 L102.496 947.621 L102.496 956.093 Q103.515 955.746 104.534 955.584 Q105.552 955.398 106.571 955.398 Q112.358 955.398 115.737 958.57 Q119.117 961.741 119.117 967.158 Q119.117 972.736 115.645 975.838 Q112.172 978.917 105.853 978.917 Q103.677 978.917 101.409 978.546 Q99.1632 978.176 96.7558 977.435 L96.7558 972.736 Q98.8391 973.871 101.061 974.426 Q103.284 974.982 105.76 974.982 Q109.765 974.982 112.103 972.875 Q114.441 970.769 114.441 967.158 Q114.441 963.547 112.103 961.44 Q109.765 959.334 105.76 959.334 Q103.885 959.334 102.01 959.75 Q100.159 960.167 98.2141 961.047 L98.2141 943.686 Z" fill="#000000" fill-rule="evenodd" fill-opacity="1" /><path clip-path="url(#clip750)" d="M138.33 946.764 Q134.719 946.764 132.89 950.329 Q131.084 953.871 131.084 961 Q131.084 968.107 132.89 971.671 Q134.719 975.213 138.33 975.213 Q141.964 975.213 143.769 971.671 Q145.598 968.107 145.598 961 Q145.598 953.871 143.769 950.329 Q141.964 946.764 138.33 946.764 M138.33 943.061 Q144.14 943.061 147.195 947.667 Q150.274 952.25 150.274 961 Q150.274 969.727 147.195 974.333 Q144.14 978.917 138.33 978.917 Q132.519 978.917 129.441 974.333 Q126.385 969.727 126.385 961 Q126.385 952.25 129.441 947.667 Q132.519 943.061 138.33 943.061 Z" fill="#000000" fill-rule="evenodd" fill-opacity="1" /><path clip-path="url(#clip750)" d="M63.9319 704.389 Q60.3208 704.389 58.4921 707.954 Q56.6865 711.496 56.6865 718.625 Q56.6865 725.732 58.4921 729.296 Q60.3208 732.838 63.9319 732.838 Q67.5661 732.838 69.3717 729.296 Q71.2004 725.732 71.2004 718.625 Q71.2004 711.496 69.3717 707.954 Q67.5661 704.389 63.9319 704.389 M63.9319 700.685 Q69.742 700.685 72.7976 705.292 Q75.8763 709.875 75.8763 718.625 Q75.8763 727.352 72.7976 731.958 Q69.742 736.542 63.9319 736.542 Q58.1217 736.542 55.043 731.958 Q51.9875 727.352 51.9875 718.625 Q51.9875 709.875 55.043 705.292 Q58.1217 700.685 63.9319 700.685 Z" fill="#000000" fill-rule="evenodd" fill-opacity="1" /><path clip-path="url(#clip750)" d="M84.0938 729.991 L88.978 729.991 L88.978 735.87 L84.0938 735.87 L84.0938 729.991 Z" fill="#000000" fill-rule="evenodd" fill-opacity="1" /><path clip-path="url(#clip750)" d="M97.9826 701.31 L120.205 701.31 L120.205 703.301 L107.658 735.87 L102.774 735.87 L114.58 705.246 L97.9826 705.246 L97.9826 701.31 Z" fill="#000000" fill-rule="evenodd" fill-opacity="1" /><path clip-path="url(#clip750)" d="M129.371 701.31 L147.728 701.31 L147.728 705.246 L133.654 705.246 L133.654 713.718 Q134.672 713.371 135.691 713.208 Q136.709 713.023 137.728 713.023 Q143.515 713.023 146.894 716.195 Q150.274 719.366 150.274 724.783 Q150.274 730.361 146.802 733.463 Q143.33 736.542 137.01 736.542 Q134.834 736.542 132.566 736.171 Q130.32 735.801 127.913 735.06 L127.913 730.361 Q129.996 731.495 132.219 732.051 Q134.441 732.607 136.918 732.607 Q140.922 732.607 143.26 730.5 Q145.598 728.394 145.598 724.783 Q145.598 721.171 143.26 719.065 Q140.922 716.958 136.918 716.958 Q135.043 716.958 133.168 717.375 Q131.316 717.792 129.371 718.671 L129.371 701.31 Z" fill="#000000" fill-rule="evenodd" fill-opacity="1" /><path clip-path="url(#clip750)" d="M53.7467 489.56 L61.3856 489.56 L61.3856 463.195 L53.0754 464.861 L53.0754 460.602 L61.3393 458.935 L66.0152 458.935 L66.0152 489.56 L73.654 489.56 L73.654 493.495 L53.7467 493.495 L53.7467 489.56 Z" fill="#000000" fill-rule="evenodd" fill-opacity="1" /><path clip-path="url(#clip750)" d="M83.0984 487.616 L87.9827 487.616 L87.9827 493.495 L83.0984 493.495 L83.0984 487.616 Z" fill="#000000" fill-rule="evenodd" fill-opacity="1" /><path clip-path="url(#clip750)" d="M108.168 462.014 Q104.557 462.014 102.728 465.579 Q100.922 469.12 100.922 476.25 Q100.922 483.356 102.728 486.921 Q104.557 490.463 108.168 490.463 Q111.802 490.463 113.608 486.921 Q115.436 483.356 115.436 476.25 Q115.436 469.12 113.608 465.579 Q111.802 462.014 108.168 462.014 M108.168 458.31 Q113.978 458.31 117.033 462.917 Q120.112 467.5 120.112 476.25 Q120.112 484.977 117.033 489.583 Q113.978 494.167 108.168 494.167 Q102.358 494.167 99.2789 489.583 Q96.2234 484.977 96.2234 476.25 Q96.2234 467.5 99.2789 462.917 Q102.358 458.31 108.168 458.31 Z" fill="#000000" fill-rule="evenodd" fill-opacity="1" /><path clip-path="url(#clip750)" d="M138.33 462.014 Q134.719 462.014 132.89 465.579 Q131.084 469.12 131.084 476.25 Q131.084 483.356 132.89 486.921 Q134.719 490.463 138.33 490.463 Q141.964 490.463 143.769 486.921 Q145.598 483.356 145.598 476.25 Q145.598 469.12 143.769 465.579 Q141.964 462.014 138.33 462.014 M138.33 458.31 Q144.14 458.31 147.195 462.917 Q150.274 467.5 150.274 476.25 Q150.274 484.977 147.195 489.583 Q144.14 494.167 138.33 494.167 Q132.519 494.167 129.441 489.583 Q126.385 484.977 126.385 476.25 Q126.385 467.5 129.441 462.917 Q132.519 458.31 138.33 458.31 Z" fill="#000000" fill-rule="evenodd" fill-opacity="1" /><path clip-path="url(#clip750)" d="M54.7421 247.185 L62.381 247.185 L62.381 220.819 L54.0708 222.486 L54.0708 218.227 L62.3347 216.56 L67.0106 216.56 L67.0106 247.185 L74.6494 247.185 L74.6494 251.12 L54.7421 251.12 L54.7421 247.185 Z" fill="#000000" fill-rule="evenodd" fill-opacity="1" /><path clip-path="url(#clip750)" d="M84.0938 245.241 L88.978 245.241 L88.978 251.12 L84.0938 251.12 L84.0938 245.241 Z" fill="#000000" fill-rule="evenodd" fill-opacity="1" /><path clip-path="url(#clip750)" d="M103.191 247.185 L119.51 247.185 L119.51 251.12 L97.566 251.12 L97.566 247.185 Q100.228 244.43 104.811 239.801 Q109.418 235.148 110.598 233.806 Q112.844 231.282 113.723 229.546 Q114.626 227.787 114.626 226.097 Q114.626 223.343 112.682 221.606 Q110.76 219.87 107.658 219.87 Q105.459 219.87 103.006 220.634 Q100.575 221.398 97.7974 222.949 L97.7974 218.227 Q100.621 217.093 103.075 216.514 Q105.529 215.935 107.566 215.935 Q112.936 215.935 116.131 218.62 Q119.325 221.306 119.325 225.796 Q119.325 227.926 118.515 229.847 Q117.728 231.745 115.621 234.338 Q115.043 235.009 111.941 238.227 Q108.839 241.421 103.191 247.185 Z" fill="#000000" fill-rule="evenodd" fill-opacity="1" /><path clip-path="url(#clip750)" d="M129.371 216.56 L147.728 216.56 L147.728 220.495 L133.654 220.495 L133.654 228.968 Q134.672 228.62 135.691 228.458 Q136.709 228.273 137.728 228.273 Q143.515 228.273 146.894 231.444 Q150.274 234.616 150.274 240.032 Q150.274 245.611 146.802 248.713 Q143.33 251.792 137.01 251.792 Q134.834 251.792 132.566 251.421 Q130.32 251.051 127.913 250.31 L127.913 245.611 Q129.996 246.745 132.219 247.301 Q134.441 247.856 136.918 247.856 Q140.922 247.856 143.26 245.75 Q145.598 243.643 145.598 240.032 Q145.598 236.421 143.26 234.315 Q140.922 232.208 136.918 232.208 Q135.043 232.208 133.168 232.625 Q131.316 233.042 129.371 233.921 L129.371 216.56 Z" fill="#000000" fill-rule="evenodd" fill-opacity="1" /><polyline clip-path="url(#clip752)" style="stroke:#009af9; stroke-linecap:butt; stroke-linejoin:round; stroke-width:4; stroke-opacity:1; fill:none" points="
  247.59,1445.72 355.161,1294.85 462.732,1143.99 570.303,993.13 677.874,842.268 785.445,691.406 893.016,540.544 1000.59,389.682 1108.16,238.82 1215.73,87.9763 
  1323.3,145.976 1430.87,182.67 1538.44,219.363 1646.01,256.056 1753.58,292.749 1861.16,329.442 1968.73,366.136 2076.3,402.829 2183.87,439.522 2291.44,476.215 
  
  "/>
<circle clip-path="url(#clip752)" cx="247.59" cy="1445.72" r="14" fill="#009af9" fill-rule="evenodd" fill-opacity="1" stroke="#000000" stroke-opacity="1" stroke-width="3.2"/>
<circle clip-path="url(#clip752)" cx="355.161" cy="1294.85" r="14" fill="#009af9" fill-rule="evenodd" fill-opacity="1" stroke="#000000" stroke-opacity="1" stroke-width="3.2"/>
<circle clip-path="url(#clip752)" cx="462.732" cy="1143.99" r="14" fill="#009af9" fill-rule="evenodd" fill-opacity="1" stroke="#000000" stroke-opacity="1" stroke-width="3.2"/>
<circle clip-path="url(#clip752)" cx="570.303" cy="993.13" r="14" fill="#009af9" fill-rule="evenodd" fill-opacity="1" stroke="#000000" stroke-opacity="1" stroke-width="3.2"/>
<circle clip-path="url(#clip752)" cx="677.874" cy="842.268" r="14" fill="#009af9" fill-rule="evenodd" fill-opacity="1" stroke="#000000" stroke-opacity="1" stroke-width="3.2"/>
<circle clip-path="url(#clip752)" cx="785.445" cy="691.406" r="14" fill="#009af9" fill-rule="evenodd" fill-opacity="1" stroke="#000000" stroke-opacity="1" stroke-width="3.2"/>
<circle clip-path="url(#clip752)" cx="893.016" cy="540.544" r="14" fill="#009af9" fill-rule="evenodd" fill-opacity="1" stroke="#000000" stroke-opacity="1" stroke-width="3.2"/>
<circle clip-path="url(#clip752)" cx="1000.59" cy="389.682" r="14" fill="#009af9" fill-rule="evenodd" fill-opacity="1" stroke="#000000" stroke-opacity="1" stroke-width="3.2"/>
<circle clip-path="url(#clip752)" cx="1108.16" cy="238.82" r="14" fill="#009af9" fill-rule="evenodd" fill-opacity="1" stroke="#000000" stroke-opacity="1" stroke-width="3.2"/>
<circle clip-path="url(#clip752)" cx="1215.73" cy="87.9763" r="14" fill="#009af9" fill-rule="evenodd" fill-opacity="1" stroke="#000000" stroke-opacity="1" stroke-width="3.2"/>
<circle clip-path="url(#clip752)" cx="1323.3" cy="145.976" r="14" fill="#009af9" fill-rule="evenodd" fill-opacity="1" stroke="#000000" stroke-opacity="1" stroke-width="3.2"/>
<circle clip-path="url(#clip752)" cx="1430.87" cy="182.67" r="14" fill="#009af9" fill-rule="evenodd" fill-opacity="1" stroke="#000000" stroke-opacity="1" stroke-width="3.2"/>
<circle clip-path="url(#clip752)" cx="1538.44" cy="219.363" r="14" fill="#009af9" fill-rule="evenodd" fill-opacity="1" stroke="#000000" stroke-opacity="1" stroke-width="3.2"/>
<circle clip-path="url(#clip752)" cx="1646.01" cy="256.056" r="14" fill="#009af9" fill-rule="evenodd" fill-opacity="1" stroke="#000000" stroke-opacity="1" stroke-width="3.2"/>
<circle clip-path="url(#clip752)" cx="1753.58" cy="292.749" r="14" fill="#009af9" fill-rule="evenodd" fill-opacity="1" stroke="#000000" stroke-opacity="1" stroke-width="3.2"/>
<circle clip-path="url(#clip752)" cx="1861.16" cy="329.442" r="14" fill="#009af9" fill-rule="evenodd" fill-opacity="1" stroke="#000000" stroke-opacity="1" stroke-width="3.2"/>
<circle clip-path="url(#clip752)" cx="1968.73" cy="366.136" r="14" fill="#009af9" fill-rule="evenodd" fill-opacity="1" stroke="#000000" stroke-opacity="1" stroke-width="3.2"/>
<circle clip-path="url(#clip752)" cx="2076.3" cy="402.829" r="14" fill="#009af9" fill-rule="evenodd" fill-opacity="1" stroke="#000000" stroke-opacity="1" stroke-width="3.2"/>
<circle clip-path="url(#clip752)" cx="2183.87" cy="439.522" r="14" fill="#009af9" fill-rule="evenodd" fill-opacity="1" stroke="#000000" stroke-opacity="1" stroke-width="3.2"/>
<circle clip-path="url(#clip752)" cx="2291.44" cy="476.215" r="14" fill="#009af9" fill-rule="evenodd" fill-opacity="1" stroke="#000000" stroke-opacity="1" stroke-width="3.2"/>
<path clip-path="url(#clip750)" d="
M1987.39 1438.47 L2280.54 1438.47 L2280.54 1334.79 L1987.39 1334.79  Z
  " fill="#ffffff" fill-rule="evenodd" fill-opacity="1"/>
<polyline clip-path="url(#clip750)" style="stroke:#000000; stroke-linecap:butt; stroke-linejoin:round; stroke-width:4; stroke-opacity:1; fill:none" points="
  1987.39,1438.47 2280.54,1438.47 2280.54,1334.79 1987.39,1334.79 1987.39,1438.47 
  "/>
<polyline clip-path="url(#clip750)" style="stroke:#009af9; stroke-linecap:butt; stroke-linejoin:round; stroke-width:4; stroke-opacity:1; fill:none" points="
  2011.46,1386.63 2155.89,1386.63 
  "/>
<circle clip-path="url(#clip750)" cx="2083.68" cy="1386.63" r="23" fill="#009af9" fill-rule="evenodd" fill-opacity="1" stroke="#000000" stroke-opacity="1" stroke-width="5.12"/>
<path clip-path="url(#clip750)" d="M2193.81 1406.32 Q2192 1410.95 2190.29 1412.36 Q2188.58 1413.78 2185.71 1413.78 L2182.3 1413.78 L2182.3 1410.21 L2184.8 1410.21 Q2186.56 1410.21 2187.53 1409.38 Q2188.51 1408.54 2189.69 1405.44 L2190.45 1403.5 L2179.97 1377.99 L2184.48 1377.99 L2192.58 1398.27 L2200.68 1377.99 L2205.2 1377.99 L2193.81 1406.32 Z" fill="#000000" fill-rule="evenodd" fill-opacity="1" /><path clip-path="url(#clip750)" d="M2212.49 1399.98 L2220.13 1399.98 L2220.13 1373.61 L2211.82 1375.28 L2211.82 1371.02 L2220.08 1369.35 L2224.76 1369.35 L2224.76 1399.98 L2232.4 1399.98 L2232.4 1403.91 L2212.49 1403.91 L2212.49 1399.98 Z" fill="#000000" fill-rule="evenodd" fill-opacity="1" /></svg>
