<?xml version="1.0" encoding="utf-8"?>
<svg xmlns="http://www.w3.org/2000/svg" xmlns:xlink="http://www.w3.org/1999/xlink" width="600" height="400" viewBox="0 0 2400 1600">
<defs>
  <clipPath id="clip740">
    <rect x="0" y="0" width="2400" height="1600"/>
  </clipPath>
</defs>
<path clip-path="url(#clip740)" d="
M0 1600 L2400 1600 L2400 0 L0 0  Z
  " fill="#ffffff" fill-rule="evenodd" fill-opacity="1"/>
<defs>
  <clipPath id="clip741">
    <rect x="480" y="0" width="1681" height="1600"/>
  </clipPath>
</defs>
<path clip-path="url(#clip740)" d="
M156.112 1486.45 L2352.76 1486.45 L2352.76 47.2441 L156.112 47.2441  Z
  " fill="#ffffff" fill-rule="evenodd" fill-opacity="1"/>
<defs>
  <clipPath id="clip742">
    <rect x="156" y="47" width="2198" height="1440"/>
  </clipPath>
</defs>
<polyline clip-path="url(#clip742)" style="stroke:#000000; stroke-linecap:butt; stroke-linejoin:round; stroke-width:2; stroke-opacity:0.1; fill:none" points="
  218.281,1486.45 218.281,47.2441 
  "/>
<polyline clip-path="url(#clip742)" style="stroke:#000000; stroke-linecap:butt; stroke-linejoin:round; stroke-width:2; stroke-opacity:0.1; fill:none" points="
  736.358,1486.45 736.358,47.2441 
  "/>
<polyline clip-path="url(#clip742)" style="stroke:#000000; stroke-linecap:butt; stroke-linejoin:round; stroke-width:2; stroke-opacity:0.1; fill:none" points="
  1254.43,1486.45 1254.43,47.2441 
  "/>
<polyline clip-path="url(#clip742)" style="stroke:#000000; stroke-linecap:butt; stroke-linejoin:round; stroke-width:2; stroke-opacity:0.1; fill:none" points="
  1772.51,1486.45 1772.51,47.2441 
  "/>
<polyline clip-path="url(#clip742)" style="stroke:#000000; stroke-linecap:butt; stroke-linejoin:round; stroke-width:2; stroke-opacity:0.1; fill:none" points="
  2290.59,1486.45 2290.59,47.2441 
  "/>
<polyline clip-path="url(#clip740)" style="stroke:#000000; stroke-linecap:butt; stroke-linejoin:round; stroke-width:4; stroke-opacity:1; fill:none" points="
  156.112,1486.45 2352.76,1486.45 
  "/>
<polyline clip-path="url(#clip740)" style="stroke:#000000; stroke-linecap:butt; stroke-linejoin:round; stroke-width:4; stroke-opacity:1; fill:none" points="
  218.281,1486.45 218.281,1467.55 
  "/>
<polyline clip-path="url(#clip740)" style="stroke:#000000; stroke-linecap:butt; stroke-linejoin:round; stroke-width:4; stroke-opacity:1; fill:none" points="
  736.358,1486.45 736.358,1467.55 
  "/>
<polyline clip-path="url(#clip740)" style="stroke:#000000; stroke-linecap:butt; stroke-linejoin:round; stroke-width:4; stroke-opacity:1; fill:none" points="
  1254.43,1486.45 1254.43,1467.55 
  "/>
<polyline clip-path="url(#clip740)" style="stroke:#000000; stroke-linecap:butt; stroke-linejoin:round; stroke-width:4; stroke-opacity:1; fill:none" points="
  1772.51,1486.45 1772.51,1467.55 
  "/>
<polyline clip-path="url(#clip740)" style="stroke:#000000; stroke-linecap:butt; stroke-linejoin:round; stroke-width:4; stroke-opacity:1; fill:none" points="
  2290.59,1486.45 2290.59,1467.55 
  "/>
<path clip-path="url(#clip740)" d="M164.809 1530.29 L194.485 1530.29 L194.485 1534.23 L164.809 1534.23 L164.809 1530.29 Z" fill="#000000" fill-rule="evenodd" fill-opacity="1" /><path clip-path="url(#clip740)" d="M205.388 1543.18 L213.027 1543.18 L213.027 1516.82 L204.717 1518.49 L204.717 1514.23 L212.98 1512.56 L217.656 1512.56 L217.656 1543.18 L225.295 1543.18 L225.295 1547.12 L205.388 1547.12 L205.388 1543.18 Z" fill="#000000" fill-rule="evenodd" fill-opacity="1" /><path clip-path="url(#clip740)" d="M234.74 1541.24 L239.624 1541.24 L239.624 1547.12 L234.74 1547.12 L234.74 1541.24 Z" fill="#000000" fill-rule="evenodd" fill-opacity="1" /><path clip-path="url(#clip740)" d="M259.809 1515.64 Q256.198 1515.64 254.369 1519.2 Q252.564 1522.75 252.564 1529.87 Q252.564 1536.98 254.369 1540.55 Q256.198 1544.09 259.809 1544.09 Q263.443 1544.09 265.249 1540.55 Q267.077 1536.98 267.077 1529.87 Q267.077 1522.75 265.249 1519.2 Q263.443 1515.64 259.809 1515.64 M259.809 1511.93 Q265.619 1511.93 268.675 1516.54 Q271.753 1521.12 271.753 1529.87 Q271.753 1538.6 268.675 1543.21 Q265.619 1547.79 259.809 1547.79 Q253.999 1547.79 250.92 1543.21 Q247.864 1538.6 247.864 1529.87 Q247.864 1521.12 250.92 1516.54 Q253.999 1511.93 259.809 1511.93 Z" fill="#000000" fill-rule="evenodd" fill-opacity="1" /><path clip-path="url(#clip740)" d="M683.383 1530.29 L713.059 1530.29 L713.059 1534.23 L683.383 1534.23 L683.383 1530.29 Z" fill="#000000" fill-rule="evenodd" fill-opacity="1" /><path clip-path="url(#clip740)" d="M733.152 1515.64 Q729.541 1515.64 727.712 1519.2 Q725.906 1522.75 725.906 1529.87 Q725.906 1536.98 727.712 1540.55 Q729.541 1544.09 733.152 1544.09 Q736.786 1544.09 738.591 1540.55 Q740.42 1536.98 740.42 1529.87 Q740.42 1522.75 738.591 1519.2 Q736.786 1515.64 733.152 1515.64 M733.152 1511.93 Q738.962 1511.93 742.017 1516.54 Q745.096 1521.12 745.096 1529.87 Q745.096 1538.6 742.017 1543.21 Q738.962 1547.79 733.152 1547.79 Q727.341 1547.79 724.263 1543.21 Q721.207 1538.6 721.207 1529.87 Q721.207 1521.12 724.263 1516.54 Q727.341 1511.93 733.152 1511.93 Z" fill="#000000" fill-rule="evenodd" fill-opacity="1" /><path clip-path="url(#clip740)" d="M753.314 1541.24 L758.198 1541.24 L758.198 1547.12 L753.314 1547.12 L753.314 1541.24 Z" fill="#000000" fill-rule="evenodd" fill-opacity="1" /><path clip-path="url(#clip740)" d="M768.429 1512.56 L786.786 1512.56 L786.786 1516.5 L772.712 1516.5 L772.712 1524.97 Q773.73 1524.62 774.749 1524.46 Q775.767 1524.27 776.786 1524.27 Q782.573 1524.27 785.952 1527.44 Q789.332 1530.62 789.332 1536.03 Q789.332 1541.61 785.86 1544.71 Q782.387 1547.79 776.068 1547.79 Q773.892 1547.79 771.624 1547.42 Q769.378 1547.05 766.971 1546.31 L766.971 1541.61 Q769.054 1542.74 771.276 1543.3 Q773.499 1543.86 775.975 1543.86 Q779.98 1543.86 782.318 1541.75 Q784.656 1539.64 784.656 1536.03 Q784.656 1532.42 782.318 1530.31 Q779.98 1528.21 775.975 1528.21 Q774.101 1528.21 772.226 1528.62 Q770.374 1529.04 768.429 1529.92 L768.429 1512.56 Z" fill="#000000" fill-rule="evenodd" fill-opacity="1" /><path clip-path="url(#clip740)" d="M1231.82 1515.64 Q1228.21 1515.64 1226.38 1519.2 Q1224.57 1522.75 1224.57 1529.87 Q1224.57 1536.98 1226.38 1540.55 Q1228.21 1544.09 1231.82 1544.09 Q1235.45 1544.09 1237.26 1540.55 Q1239.09 1536.98 1239.09 1529.87 Q1239.09 1522.75 1237.26 1519.2 Q1235.45 1515.64 1231.82 1515.64 M1231.82 1511.93 Q1237.63 1511.93 1240.68 1516.54 Q1243.76 1521.12 1243.76 1529.87 Q1243.76 1538.6 1240.68 1543.21 Q1237.63 1547.79 1231.82 1547.79 Q1226.01 1547.79 1222.93 1543.21 Q1219.87 1538.6 1219.87 1529.87 Q1219.87 1521.12 1222.93 1516.54 Q1226.01 1511.93 1231.82 1511.93 Z" fill="#000000" fill-rule="evenodd" fill-opacity="1" /><path clip-path="url(#clip740)" d="M1251.98 1541.24 L1256.86 1541.24 L1256.86 1547.12 L1251.98 1547.12 L1251.98 1541.24 Z" fill="#000000" fill-rule="evenodd" fill-opacity="1" /><path clip-path="url(#clip740)" d="M1277.05 1515.64 Q1273.44 1515.64 1271.61 1519.2 Q1269.8 1522.75 1269.8 1529.87 Q1269.8 1536.98 1271.61 1540.55 Q1273.44 1544.09 1277.05 1544.09 Q1280.68 1544.09 1282.49 1540.55 Q1284.32 1536.98 1284.32 1529.87 Q1284.32 1522.75 1282.49 1519.2 Q1280.68 1515.64 1277.05 1515.64 M1277.05 1511.93 Q1282.86 1511.93 1285.92 1516.54 Q1288.99 1521.12 1288.99 1529.87 Q1288.99 1538.6 1285.92 1543.21 Q1282.86 1547.79 1277.05 1547.79 Q1271.24 1547.79 1268.16 1543.21 Q1265.11 1538.6 1265.11 1529.87 Q1265.11 1521.12 1268.16 1516.54 Q1271.24 1511.93 1277.05 1511.93 Z" fill="#000000" fill-rule="evenodd" fill-opacity="1" /><path clip-path="url(#clip740)" d="M1750.39 1515.64 Q1746.78 1515.64 1744.95 1519.2 Q1743.15 1522.75 1743.15 1529.87 Q1743.15 1536.98 1744.95 1540.55 Q1746.78 1544.09 1750.39 1544.09 Q1754.03 1544.09 1755.83 1540.55 Q1757.66 1536.98 1757.66 1529.87 Q1757.66 1522.75 1755.83 1519.2 Q1754.03 1515.64 1750.39 1515.64 M1750.39 1511.93 Q1756.2 1511.93 1759.26 1516.54 Q1762.34 1521.12 1762.34 1529.87 Q1762.34 1538.6 1759.26 1543.21 Q1756.2 1547.79 1750.39 1547.79 Q1744.58 1547.79 1741.5 1543.21 Q1738.45 1538.6 1738.45 1529.87 Q1738.45 1521.12 1741.5 1516.54 Q1744.58 1511.93 1750.39 1511.93 Z" fill="#000000" fill-rule="evenodd" fill-opacity="1" /><path clip-path="url(#clip740)" d="M1770.55 1541.24 L1775.44 1541.24 L1775.44 1547.12 L1770.55 1547.12 L1770.55 1541.24 Z" fill="#000000" fill-rule="evenodd" fill-opacity="1" /><path clip-path="url(#clip740)" d="M1785.67 1512.56 L1804.03 1512.56 L1804.03 1516.5 L1789.95 1516.5 L1789.95 1524.97 Q1790.97 1524.62 1791.99 1524.46 Q1793.01 1524.27 1794.03 1524.27 Q1799.81 1524.27 1803.19 1527.44 Q1806.57 1530.62 1806.57 1536.03 Q1806.57 1541.61 1803.1 1544.71 Q1799.63 1547.79 1793.31 1547.79 Q1791.13 1547.79 1788.86 1547.42 Q1786.62 1547.05 1784.21 1546.31 L1784.21 1541.61 Q1786.3 1542.74 1788.52 1543.3 Q1790.74 1543.86 1793.22 1543.86 Q1797.22 1543.86 1799.56 1541.75 Q1801.9 1539.64 1801.9 1536.03 Q1801.9 1532.42 1799.56 1530.31 Q1797.22 1528.21 1793.22 1528.21 Q1791.34 1528.21 1789.47 1528.62 Q1787.61 1529.04 1785.67 1529.92 L1785.67 1512.56 Z" fill="#000000" fill-rule="evenodd" fill-opacity="1" /><path clip-path="url(#clip740)" d="M2257.74 1543.18 L2265.38 1543.18 L2265.38 1516.82 L2257.07 1518.49 L2257.07 1514.23 L2265.33 1512.56 L2270.01 1512.56 L2270.01 1543.18 L2277.65 1543.18 L2277.65 1547.12 L2257.74 1547.12 L2257.74 1543.18 Z" fill="#000000" fill-rule="evenodd" fill-opacity="1" /><path clip-path="url(#clip740)" d="M2287.09 1541.24 L2291.98 1541.24 L2291.98 1547.12 L2287.09 1547.12 L2287.09 1541.24 Z" fill="#000000" fill-rule="evenodd" fill-opacity="1" /><path clip-path="url(#clip740)" d="M2312.16 1515.64 Q2308.55 1515.64 2306.72 1519.2 Q2304.92 1522.75 2304.92 1529.87 Q2304.92 1536.98 2306.72 1540.55 Q2308.55 1544.09 2312.16 1544.09 Q2315.79 1544.09 2317.6 1540.55 Q2319.43 1536.98 2319.43 1529.87 Q2319.43 1522.75 2317.6 1519.2 Q2315.79 1515.64 2312.16 1515.64 M2312.16 1511.93 Q2317.97 1511.93 2321.03 1516.54 Q2324.11 1521.12 2324.11 1529.87 Q2324.11 1538.6 2321.03 1543.21 Q2317.97 1547.79 2312.16 1547.79 Q2306.35 1547.79 2303.27 1543.21 Q2300.22 1538.6 2300.22 1529.87 Q2300.22 1521.12 2303.27 1516.54 Q2306.35 1511.93 2312.16 1511.93 Z" fill="#000000" fill-rule="evenodd" fill-opacity="1" /><polyline clip-path="url(#clip742)" style="stroke:#000000; stroke-linecap:butt; stroke-linejoin:round; stroke-width:2; stroke-opacity:0.1; fill:none" points="
  156.112,1445.72 2352.76,1445.72 
  "/>
<polyline clip-path="url(#clip742)" style="stroke:#000000; stroke-linecap:butt; stroke-linejoin:round; stroke-width:2; stroke-opacity:0.1; fill:none" points="
  156.112,1106.28 2352.76,1106.28 
  "/>
<polyline clip-path="url(#clip742)" style="stroke:#000000; stroke-linecap:butt; stroke-linejoin:round; stroke-width:2; stroke-opacity:0.1; fill:none" points="
  156.112,766.846 2352.76,766.846 
  "/>
<polyline clip-path="url(#clip742)" style="stroke:#000000; stroke-linecap:butt; stroke-linejoin:round; stroke-width:2; stroke-opacity:0.1; fill:none" points="
  156.112,427.411 2352.76,427.411 
  "/>
<polyline clip-path="url(#clip742)" style="stroke:#000000; stroke-linecap:butt; stroke-linejoin:round; stroke-width:2; stroke-opacity:0.1; fill:none" points="
  156.112,87.9763 2352.76,87.9763 
  "/>
<polyline clip-path="url(#clip740)" style="stroke:#000000; stroke-linecap:butt; stroke-linejoin:round; stroke-width:4; stroke-opacity:1; fill:none" points="
  156.112,1486.45 156.112,47.2441 
  "/>
<polyline clip-path="url(#clip740)" style="stroke:#000000; stroke-linecap:butt; stroke-linejoin:round; stroke-width:4; stroke-opacity:1; fill:none" points="
  156.112,1445.72 175.01,1445.72 
  "/>
<polyline clip-path="url(#clip740)" style="stroke:#000000; stroke-linecap:butt; stroke-linejoin:round; stroke-width:4; stroke-opacity:1; fill:none" points="
  156.112,1106.28 175.01,1106.28 
  "/>
<polyline clip-path="url(#clip740)" style="stroke:#000000; stroke-linecap:butt; stroke-linejoin:round; stroke-width:4; stroke-opacity:1; fill:none" points="
  156.112,766.846 175.01,766.846 
  "/>
<polyline clip-path="url(#clip740)" style="stroke:#000000; stroke-linecap:butt; stroke-linejoin:round; stroke-width:4; stroke-opacity:1; fill:none" points="
  156.112,427.411 175.01,427.411 
  "/>
<polyline clip-path="url(#clip740)" style="stroke:#000000; stroke-linecap:butt; stroke-linejoin:round; stroke-width:4; stroke-opacity:1; fill:none" points="
  156.112,87.9763 175.01,87.9763 
  "/>
<path clip-path="url(#clip740)" d="M62.9365 1431.51 Q59.3254 1431.51 57.4967 1435.08 Q55.6912 1438.62 55.6912 1445.75 Q55.6912 1452.86 57.4967 1456.42 Q59.3254 1459.96 62.9365 1459.96 Q66.5707 1459.96 68.3763 1456.42 Q70.205 1452.86 70.205 1445.75 Q70.205 1438.62 68.3763 1435.08 Q66.5707 1431.51 62.9365 1431.51 M62.9365 1427.81 Q68.7467 1427.81 71.8022 1432.42 Q74.8809 1437 74.8809 1445.75 Q74.8809 1454.48 71.8022 1459.08 Q68.7467 1463.67 62.9365 1463.67 Q57.1264 1463.67 54.0477 1459.08 Q50.9921 1454.48 50.9921 1445.75 Q50.9921 1437 54.0477 1432.42 Q57.1264 1427.81 62.9365 1427.81 Z" fill="#000000" fill-rule="evenodd" fill-opacity="1" /><path clip-path="url(#clip740)" d="M83.0984 1457.12 L87.9827 1457.12 L87.9827 1463 L83.0984 1463 L83.0984 1457.12 Z" fill="#000000" fill-rule="evenodd" fill-opacity="1" /><path clip-path="url(#clip740)" d="M108.168 1431.51 Q104.557 1431.51 102.728 1435.08 Q100.922 1438.62 100.922 1445.75 Q100.922 1452.86 102.728 1456.42 Q104.557 1459.96 108.168 1459.96 Q111.802 1459.96 113.608 1456.42 Q115.436 1452.86 115.436 1445.75 Q115.436 1438.62 113.608 1435.08 Q111.802 1431.51 108.168 1431.51 M108.168 1427.81 Q113.978 1427.81 117.033 1432.42 Q120.112 1437 120.112 1445.75 Q120.112 1454.48 117.033 1459.08 Q113.978 1463.67 108.168 1463.67 Q102.358 1463.67 99.2789 1459.08 Q96.2234 1454.48 96.2234 1445.75 Q96.2234 1437 99.2789 1432.42 Q102.358 1427.81 108.168 1427.81 Z" fill="#000000" fill-rule="evenodd" fill-opacity="1" /><path clip-path="url(#clip740)" d="M63.9319 1092.08 Q60.3208 1092.08 58.4921 1095.64 Q56.6865 1099.19 56.6865 1106.32 Q56.6865 1113.42 58.4921 1116.99 Q60.3208 1120.53 63.9319 1120.53 Q67.5661 1120.53 69.3717 1116.99 Q71.2004 1113.42 71.2004 1106.32 Q71.2004 1099.19 69.3717 1095.64 Q67.5661 1092.08 63.9319 1092.08 M63.9319 1088.38 Q69.742 1088.38 72.7976 1092.98 Q75.8763 1097.57 75.8763 1106.32 Q75.8763 1115.04 72.7976 1119.65 Q69.742 1124.23 63.9319 1124.23 Q58.1217 1124.23 55.043 1119.65 Q51.9875 1115.04 51.9875 1106.32 Q51.9875 1097.57 55.043 1092.98 Q58.1217 1088.38 63.9319 1088.38 Z" fill="#000000" fill-rule="evenodd" fill-opacity="1" /><path clip-path="url(#clip740)" d="M84.0938 1117.68 L88.978 1117.68 L88.978 1123.56 L84.0938 1123.56 L84.0938 1117.68 Z" fill="#000000" fill-rule="evenodd" fill-opacity="1" /><path clip-path="url(#clip740)" d="M99.2095 1089 L117.566 1089 L117.566 1092.94 L103.492 1092.94 L103.492 1101.41 Q104.51 1101.06 105.529 1100.9 Q106.547 1100.71 107.566 1100.71 Q113.353 1100.71 116.733 1103.89 Q120.112 1107.06 120.112 1112.47 Q120.112 1118.05 116.64 1121.15 Q113.168 1124.23 106.848 1124.23 Q104.672 1124.23 102.404 1123.86 Q100.159 1123.49 97.7511 1122.75 L97.7511 1118.05 Q99.8345 1119.19 102.057 1119.74 Q104.279 1120.3 106.756 1120.3 Q110.76 1120.3 113.098 1118.19 Q115.436 1116.08 115.436 1112.47 Q115.436 1108.86 113.098 1106.76 Q110.76 1104.65 106.756 1104.65 Q104.881 1104.65 103.006 1105.07 Q101.154 1105.48 99.2095 1106.36 L99.2095 1089 Z" fill="#000000" fill-rule="evenodd" fill-opacity="1" /><path clip-path="url(#clip740)" d="M53.7467 780.191 L61.3856 780.191 L61.3856 753.825 L53.0754 755.492 L53.0754 751.233 L61.3393 749.566 L66.0152 749.566 L66.0152 780.191 L73.654 780.191 L73.654 784.126 L53.7467 784.126 L53.7467 780.191 Z" fill="#000000" fill-rule="evenodd" fill-opacity="1" /><path clip-path="url(#clip740)" d="M83.0984 778.246 L87.9827 778.246 L87.9827 784.126 L83.0984 784.126 L83.0984 778.246 Z" fill="#000000" fill-rule="evenodd" fill-opacity="1" /><path clip-path="url(#clip740)" d="M108.168 752.645 Q104.557 752.645 102.728 756.209 Q100.922 759.751 100.922 766.881 Q100.922 773.987 102.728 777.552 Q104.557 781.094 108.168 781.094 Q111.802 781.094 113.608 777.552 Q115.436 773.987 115.436 766.881 Q115.436 759.751 113.608 756.209 Q111.802 752.645 108.168 752.645 M108.168 748.941 Q113.978 748.941 117.033 753.547 Q120.112 758.131 120.112 766.881 Q120.112 775.608 117.033 780.214 Q113.978 784.797 108.168 784.797 Q102.358 784.797 99.2789 780.214 Q96.2234 775.608 96.2234 766.881 Q96.2234 758.131 99.2789 753.547 Q102.358 748.941 108.168 748.941 Z" fill="#000000" fill-rule="evenodd" fill-opacity="1" /><path clip-path="url(#clip740)" d="M54.7421 440.756 L62.381 440.756 L62.381 414.39 L54.0708 416.057 L54.0708 411.798 L62.3347 410.131 L67.0106 410.131 L67.0106 440.756 L74.6494 440.756 L74.6494 444.691 L54.7421 444.691 L54.7421 440.756 Z" fill="#000000" fill-rule="evenodd" fill-opacity="1" /><path clip-path="url(#clip740)" d="M84.0938 438.812 L88.978 438.812 L88.978 444.691 L84.0938 444.691 L84.0938 438.812 Z" fill="#000000" fill-rule="evenodd" fill-opacity="1" /><path clip-path="url(#clip740)" d="M99.2095 410.131 L117.566 410.131 L117.566 414.066 L103.492 414.066 L103.492 422.538 Q104.51 422.191 105.529 422.029 Q106.547 421.844 107.566 421.844 Q113.353 421.844 116.733 425.015 Q120.112 428.187 120.112 433.603 Q120.112 439.182 116.64 442.284 Q113.168 445.362 106.848 445.362 Q104.672 445.362 102.404 444.992 Q100.159 444.622 97.7511 443.881 L97.7511 439.182 Q99.8345 440.316 102.057 440.872 Q104.279 441.427 106.756 441.427 Q110.76 441.427 113.098 439.321 Q115.436 437.214 115.436 433.603 Q115.436 429.992 113.098 427.886 Q110.76 425.779 106.756 425.779 Q104.881 425.779 103.006 426.196 Q101.154 426.613 99.2095 427.492 L99.2095 410.131 Z" fill="#000000" fill-rule="evenodd" fill-opacity="1" /><path clip-path="url(#clip740)" d="M56.9643 101.321 L73.2837 101.321 L73.2837 105.256 L51.3393 105.256 L51.3393 101.321 Q54.0014 98.5665 58.5847 93.9369 Q63.1911 89.2841 64.3717 87.9416 Q66.617 85.4184 67.4967 83.6823 Q68.3994 81.9231 68.3994 80.2333 Q68.3994 77.4786 66.455 75.7425 Q64.5337 74.0064 61.4319 74.0064 Q59.2328 74.0064 56.7791 74.7703 Q54.3486 75.5342 51.5708 77.0851 L51.5708 72.3629 Q54.3949 71.2287 56.8486 70.65 Q59.3023 70.0713 61.3393 70.0713 Q66.7096 70.0713 69.9041 72.7565 Q73.0985 75.4416 73.0985 79.9323 Q73.0985 82.062 72.2883 83.9832 Q71.5013 85.8814 69.3948 88.474 Q68.8161 89.1453 65.7143 92.3628 Q62.6124 95.5573 56.9643 101.321 Z" fill="#000000" fill-rule="evenodd" fill-opacity="1" /><path clip-path="url(#clip740)" d="M83.0984 99.3767 L87.9827 99.3767 L87.9827 105.256 L83.0984 105.256 L83.0984 99.3767 Z" fill="#000000" fill-rule="evenodd" fill-opacity="1" /><path clip-path="url(#clip740)" d="M108.168 73.775 Q104.557 73.775 102.728 77.3398 Q100.922 80.8814 100.922 88.011 Q100.922 95.1174 102.728 98.6822 Q104.557 102.224 108.168 102.224 Q111.802 102.224 113.608 98.6822 Q115.436 95.1174 115.436 88.011 Q115.436 80.8814 113.608 77.3398 Q111.802 73.775 108.168 73.775 M108.168 70.0713 Q113.978 70.0713 117.033 74.6777 Q120.112 79.261 120.112 88.011 Q120.112 96.7378 117.033 101.344 Q113.978 105.928 108.168 105.928 Q102.358 105.928 99.2789 101.344 Q96.2234 96.7378 96.2234 88.011 Q96.2234 79.261 99.2789 74.6777 Q102.358 70.0713 108.168 70.0713 Z" fill="#000000" fill-rule="evenodd" fill-opacity="1" /><polyline clip-path="url(#clip742)" style="stroke:#009af9; stroke-linecap:butt; stroke-linejoin:round; stroke-width:4; stroke-opacity:1; fill:none" points="
  218.281,1445.72 327.35,1374.26 436.419,1302.8 545.487,1231.34 654.556,1159.88 763.625,1088.42 872.694,1016.96 981.762,945.496 1090.83,874.036 1199.9,802.576 
  1308.97,731.116 1418.04,659.656 1527.11,588.196 1636.17,516.736 1745.24,445.276 1854.31,373.816 1963.38,302.356 2072.45,230.896 2181.52,159.436 2290.59,87.9763 
  
  "/>
<circle clip-path="url(#clip742)" cx="218.281" cy="1445.72" r="14" fill="#009af9" fill-rule="evenodd" fill-opacity="1" stroke="#000000" stroke-opacity="1" stroke-width="3.2"/>
<circle clip-path="url(#clip742)" cx="327.35" cy="1374.26" r="14" fill="#009af9" fill-rule="evenodd" fill-opacity="1" stroke="#000000" stroke-opacity="1" stroke-width="3.2"/>
<circle clip-path="url(#clip742)" cx="436.419" cy="1302.8" r="14" fill="#009af9" fill-rule="evenodd" fill-opacity="1" stroke="#000000" stroke-opacity="1" stroke-width="3.2"/>
<circle clip-path="url(#clip742)" cx="545.487" cy="1231.34" r="14" fill="#009af9" fill-rule="evenodd" fill-opacity="1" stroke="#000000" stroke-opacity="1" stroke-width="3.2"/>
<circle clip-path="url(#clip742)" cx="654.556" cy="1159.88" r="14" fill="#009af9" fill-rule="evenodd" fill-opacity="1" stroke="#000000" stroke-opacity="1" stroke-width="3.2"/>
<circle clip-path="url(#clip742)" cx="763.625" cy="1088.42" r="14" fill="#009af9" fill-rule="evenodd" fill-opacity="1" stroke="#000000" stroke-opacity="1" stroke-width="3.2"/>
<circle clip-path="url(#clip742)" cx="872.694" cy="1016.96" r="14" fill="#009af9" fill-rule="evenodd" fill-opacity="1" stroke="#000000" stroke-opacity="1" stroke-width="3.2"/>
<circle clip-path="url(#clip742)" cx="981.762" cy="945.496" r="14" fill="#009af9" fill-rule="evenodd" fill-opacity="1" stroke="#000000" stroke-opacity="1" stroke-width="3.2"/>
<circle clip-path="url(#clip742)" cx="1090.83" cy="874.036" r="14" fill="#009af9" fill-rule="evenodd" fill-opacity="1" stroke="#000000" stroke-opacity="1" stroke-width="3.2"/>
<circle clip-path="url(#clip742)" cx="1199.9" cy="802.576" r="14" fill="#009af9" fill-rule="evenodd" fill-opacity="1" stroke="#000000" stroke-opacity="1" stroke-width="3.2"/>
<circle clip-path="url(#clip742)" cx="1308.97" cy="731.116" r="14" fill="#009af9" fill-rule="evenodd" fill-opacity="1" stroke="#000000" stroke-opacity="1" stroke-width="3.2"/>
<circle clip-path="url(#clip742)" cx="1418.04" cy="659.656" r="14" fill="#009af9" fill-rule="evenodd" fill-opacity="1" stroke="#000000" stroke-opacity="1" stroke-width="3.2"/>
<circle clip-path="url(#clip742)" cx="1527.11" cy="588.196" r="14" fill="#009af9" fill-rule="evenodd" fill-opacity="1" stroke="#000000" stroke-opacity="1" stroke-width="3.2"/>
<circle clip-path="url(#clip742)" cx="1636.17" cy="516.736" r="14" fill="#009af9" fill-rule="evenodd" fill-opacity="1" stroke="#000000" stroke-opacity="1" stroke-width="3.2"/>
<circle clip-path="url(#clip742)" cx="1745.24" cy="445.276" r="14" fill="#009af9" fill-rule="evenodd" fill-opacity="1" stroke="#000000" stroke-opacity="1" stroke-width="3.2"/>
<circle clip-path="url(#clip742)" cx="1854.31" cy="373.816" r="14" fill="#009af9" fill-rule="evenodd" fill-opacity="1" stroke="#000000" stroke-opacity="1" stroke-width="3.2"/>
<circle clip-path="url(#clip742)" cx="1963.38" cy="302.356" r="14" fill="#009af9" fill-rule="evenodd" fill-opacity="1" stroke="#000000" stroke-opacity="1" stroke-width="3.2"/>
<circle clip-path="url(#clip742)" cx="2072.45" cy="230.896" r="14" fill="#009af9" fill-rule="evenodd" fill-opacity="1" stroke="#000000" stroke-opacity="1" stroke-width="3.2"/>
<circle clip-path="url(#clip742)" cx="2181.52" cy="159.436" r="14" fill="#009af9" fill-rule="evenodd" fill-opacity="1" stroke="#000000" stroke-opacity="1" stroke-width="3.2"/>
<circle clip-path="url(#clip742)" cx="2290.59" cy="87.9763" r="14" fill="#009af9" fill-rule="evenodd" fill-opacity="1" stroke="#000000" stroke-opacity="1" stroke-width="3.2"/>
<polyline clip-path="url(#clip742)" style="stroke:#e26f46; stroke-linecap:butt; stroke-linejoin:round; stroke-width:4; stroke-opacity:1; fill:none" points="
  218.281,1445.72 327.35,1244.26 436.419,1090.61 545.487,976.187 654.556,893.36 763.625,835.442 872.694,796.64 981.762,772.026 1090.83,757.496 1199.9,749.73 
  1308.97,746.143 1418.04,744.838 1527.11,744.537 1636.17,744.52 1745.24,744.521 1854.31,744.578 1963.38,744.87 2072.45,746.282 2181.52,750.144 2290.59,766.846 
  
  "/>
<path clip-path="url(#clip742)" d="M202.281 1429.72 L202.281 1461.72 L234.281 1461.72 L234.281 1429.72 L202.281 1429.72 Z" fill="#e26f46" fill-rule="evenodd" fill-opacity="1" stroke="#000000" stroke-opacity="1" stroke-width="3.2"/>
<path clip-path="url(#clip742)" d="M311.35 1228.26 L311.35 1260.26 L343.35 1260.26 L343.35 1228.26 L311.35 1228.26 Z" fill="#e26f46" fill-rule="evenodd" fill-opacity="1" stroke="#000000" stroke-opacity="1" stroke-width="3.2"/>
<path clip-path="url(#clip742)" d="M420.419 1074.61 L420.419 1106.61 L452.419 1106.61 L452.419 1074.61 L420.419 1074.61 Z" fill="#e26f46" fill-rule="evenodd" fill-opacity="1" stroke="#000000" stroke-opacity="1" stroke-width="3.2"/>
<path clip-path="url(#clip742)" d="M529.487 960.187 L529.487 992.187 L561.487 992.187 L561.487 960.187 L529.487 960.187 Z" fill="#e26f46" fill-rule="evenodd" fill-opacity="1" stroke="#000000" stroke-opacity="1" stroke-width="3.2"/>
<path clip-path="url(#clip742)" d="M638.556 877.36 L638.556 909.36 L670.556 909.36 L670.556 877.36 L638.556 877.36 Z" fill="#e26f46" fill-rule="evenodd" fill-opacity="1" stroke="#000000" stroke-opacity="1" stroke-width="3.2"/>
<path clip-path="url(#clip742)" d="M747.625 819.442 L747.625 851.442 L779.625 851.442 L779.625 819.442 L747.625 819.442 Z" fill="#e26f46" fill-rule="evenodd" fill-opacity="1" stroke="#000000" stroke-opacity="1" stroke-width="3.2"/>
<path clip-path="url(#clip742)" d="M856.694 780.64 L856.694 812.64 L888.694 812.64 L888.694 780.64 L856.694 780.64 Z" fill="#e26f46" fill-rule="evenodd" fill-opacity="1" stroke="#000000" stroke-opacity="1" stroke-width="3.2"/>
<path clip-path="url(#clip742)" d="M965.762 756.026 L965.762 788.026 L997.762 788.026 L997.762 756.026 L965.762 756.026 Z" fill="#e26f46" fill-rule="evenodd" fill-opacity="1" stroke="#000000" stroke-opacity="1" stroke-width="3.2"/>
<path clip-path="url(#clip742)" d="M1074.83 741.496 L1074.83 773.496 L1106.83 773.496 L1106.83 741.496 L1074.83 741.496 Z" fill="#e26f46" fill-rule="evenodd" fill-opacity="1" stroke="#000000" stroke-opacity="1" stroke-width="3.2"/>
<path clip-path="url(#clip742)" d="M1183.9 733.73 L1183.9 765.73 L1215.9 765.73 L1215.9 733.73 L1183.9 733.73 Z" fill="#e26f46" fill-rule="evenodd" fill-opacity="1" stroke="#000000" stroke-opacity="1" stroke-width="3.2"/>
<path clip-path="url(#clip742)" d="M1292.97 730.143 L1292.97 762.143 L1324.97 762.143 L1324.97 730.143 L1292.97 730.143 Z" fill="#e26f46" fill-rule="evenodd" fill-opacity="1" stroke="#000000" stroke-opacity="1" stroke-width="3.2"/>
<path clip-path="url(#clip742)" d="M1402.04 728.838 L1402.04 760.838 L1434.04 760.838 L1434.04 728.838 L1402.04 728.838 Z" fill="#e26f46" fill-rule="evenodd" fill-opacity="1" stroke="#000000" stroke-opacity="1" stroke-width="3.2"/>
<path clip-path="url(#clip742)" d="M1511.11 728.537 L1511.11 760.537 L1543.11 760.537 L1543.11 728.537 L1511.11 728.537 Z" fill="#e26f46" fill-rule="evenodd" fill-opacity="1" stroke="#000000" stroke-opacity="1" stroke-width="3.2"/>
<path clip-path="url(#clip742)" d="M1620.17 728.52 L1620.17 760.52 L1652.17 760.52 L1652.17 728.52 L1620.17 728.52 Z" fill="#e26f46" fill-rule="evenodd" fill-opacity="1" stroke="#000000" stroke-opacity="1" stroke-width="3.2"/>
<path clip-path="url(#clip742)" d="M1729.24 728.521 L1729.24 760.521 L1761.24 760.521 L1761.24 728.521 L1729.24 728.521 Z" fill="#e26f46" fill-rule="evenodd" fill-opacity="1" stroke="#000000" stroke-opacity="1" stroke-width="3.2"/>
<path clip-path="url(#clip742)" d="M1838.31 728.578 L1838.31 760.578 L1870.31 760.578 L1870.31 728.578 L1838.31 728.578 Z" fill="#e26f46" fill-rule="evenodd" fill-opacity="1" stroke="#000000" stroke-opacity="1" stroke-width="3.2"/>
<path clip-path="url(#clip742)" d="M1947.38 728.87 L1947.38 760.87 L1979.38 760.87 L1979.38 728.87 L1947.38 728.87 Z" fill="#e26f46" fill-rule="evenodd" fill-opacity="1" stroke="#000000" stroke-opacity="1" stroke-width="3.2"/>
<path clip-path="url(#clip742)" d="M2056.45 730.282 L2056.45 762.282 L2088.45 762.282 L2088.45 730.282 L2056.45 730.282 Z" fill="#e26f46" fill-rule="evenodd" fill-opacity="1" stroke="#000000" stroke-opacity="1" stroke-width="3.2"/>
<path clip-path="url(#clip742)" d="M2165.52 734.144 L2165.52 766.144 L2197.52 766.144 L2197.52 734.144 L2165.52 734.144 Z" fill="#e26f46" fill-rule="evenodd" fill-opacity="1" stroke="#000000" stroke-opacity="1" stroke-width="3.2"/>
<path clip-path="url(#clip742)" d="M2274.59 750.846 L2274.59 782.846 L2306.59 782.846 L2306.59 750.846 L2274.59 750.846 Z" fill="#e26f46" fill-rule="evenodd" fill-opacity="1" stroke="#000000" stroke-opacity="1" stroke-width="3.2"/>
<polyline clip-path="url(#clip742)" style="stroke:#3da44d; stroke-linecap:butt; stroke-linejoin:round; stroke-width:4; stroke-opacity:1; fill:none" points="
  218.281,1445.72 327.35,1201.04 436.419,1032.34 545.487,919.893 654.556,847.929 763.625,804.106 872.694,779.029 981.762,765.784 1090.83,759.499 1199.9,756.934 
  1308.97,756.1 1418.04,755.915 1527.11,755.897 1636.17,755.897 1745.24,755.897 1854.31,755.915 1963.38,756.069 2072.45,756.837 2181.52,759.264 2290.59,766.846 
  
  "/>
<path clip-path="url(#clip742)" d="M218.281 1429.72 L214.521 1440.53 L203.065 1440.77 L212.201 1447.7 L208.873 1458.66 L218.281 1452.12 L227.689 1458.66 L224.361 1447.7 L233.497 1440.77 L222.041 1440.53 L218.281 1429.72 Z" fill="#3da44d" fill-rule="evenodd" fill-opacity="1" stroke="#000000" stroke-opacity="1" stroke-width="3.2"/>
<path clip-path="url(#clip742)" d="M327.35 1185.04 L323.59 1195.86 L312.134 1196.1 L321.27 1203.02 L317.942 1213.98 L327.35 1207.44 L336.758 1213.98 L333.43 1203.02 L342.566 1196.1 L331.11 1195.86 L327.35 1185.04 Z" fill="#3da44d" fill-rule="evenodd" fill-opacity="1" stroke="#000000" stroke-opacity="1" stroke-width="3.2"/>
<path clip-path="url(#clip742)" d="M436.419 1016.34 L432.659 1027.15 L421.203 1027.39 L430.339 1034.32 L427.011 1045.28 L436.419 1038.74 L445.827 1045.28 L442.499 1034.32 L451.635 1027.39 L440.179 1027.15 L436.419 1016.34 Z" fill="#3da44d" fill-rule="evenodd" fill-opacity="1" stroke="#000000" stroke-opacity="1" stroke-width="3.2"/>
<path clip-path="url(#clip742)" d="M545.487 903.893 L541.727 914.709 L530.271 914.949 L539.407 921.877 L536.079 932.837 L545.487 926.293 L554.895 932.837 L551.567 921.877 L560.703 914.949 L549.247 914.709 L545.487 903.893 Z" fill="#3da44d" fill-rule="evenodd" fill-opacity="1" stroke="#000000" stroke-opacity="1" stroke-width="3.2"/>
<path clip-path="url(#clip742)" d="M654.556 831.929 L650.796 842.745 L639.34 842.985 L648.476 849.913 L645.148 860.873 L654.556 854.329 L663.964 860.873 L660.636 849.913 L669.772 842.985 L658.316 842.745 L654.556 831.929 Z" fill="#3da44d" fill-rule="evenodd" fill-opacity="1" stroke="#000000" stroke-opacity="1" stroke-width="3.2"/>
<path clip-path="url(#clip742)" d="M763.625 788.106 L759.865 798.922 L748.409 799.162 L757.545 806.09 L754.217 817.05 L763.625 810.506 L773.033 817.05 L769.705 806.09 L778.841 799.162 L767.385 798.922 L763.625 788.106 Z" fill="#3da44d" fill-rule="evenodd" fill-opacity="1" stroke="#000000" stroke-opacity="1" stroke-width="3.2"/>
<path clip-path="url(#clip742)" d="M872.694 763.029 L868.934 773.845 L857.478 774.085 L866.614 781.013 L863.286 791.973 L872.694 785.429 L882.102 791.973 L878.774 781.013 L887.91 774.085 L876.454 773.845 L872.694 763.029 Z" fill="#3da44d" fill-rule="evenodd" fill-opacity="1" stroke="#000000" stroke-opacity="1" stroke-width="3.2"/>
<path clip-path="url(#clip742)" d="M981.762 749.784 L978.002 760.6 L966.546 760.84 L975.682 767.768 L972.354 778.728 L981.762 772.184 L991.17 778.728 L987.842 767.768 L996.978 760.84 L985.522 760.6 L981.762 749.784 Z" fill="#3da44d" fill-rule="evenodd" fill-opacity="1" stroke="#000000" stroke-opacity="1" stroke-width="3.2"/>
<path clip-path="url(#clip742)" d="M1090.83 743.499 L1087.07 754.315 L1075.61 754.555 L1084.75 761.483 L1081.42 772.443 L1090.83 765.899 L1100.24 772.443 L1096.91 761.483 L1106.05 754.555 L1094.59 754.315 L1090.83 743.499 Z" fill="#3da44d" fill-rule="evenodd" fill-opacity="1" stroke="#000000" stroke-opacity="1" stroke-width="3.2"/>
<path clip-path="url(#clip742)" d="M1199.9 740.934 L1196.14 751.75 L1184.68 751.99 L1193.82 758.918 L1190.49 769.878 L1199.9 763.334 L1209.31 769.878 L1205.98 758.918 L1215.12 751.99 L1203.66 751.75 L1199.9 740.934 Z" fill="#3da44d" fill-rule="evenodd" fill-opacity="1" stroke="#000000" stroke-opacity="1" stroke-width="3.2"/>
<path clip-path="url(#clip742)" d="M1308.97 740.1 L1305.21 750.916 L1293.75 751.156 L1302.89 758.084 L1299.56 769.044 L1308.97 762.5 L1318.38 769.044 L1315.05 758.084 L1324.18 751.156 L1312.73 750.916 L1308.97 740.1 Z" fill="#3da44d" fill-rule="evenodd" fill-opacity="1" stroke="#000000" stroke-opacity="1" stroke-width="3.2"/>
<path clip-path="url(#clip742)" d="M1418.04 739.915 L1414.28 750.731 L1402.82 750.971 L1411.96 757.899 L1408.63 768.859 L1418.04 762.315 L1427.45 768.859 L1424.12 757.899 L1433.25 750.971 L1421.8 750.731 L1418.04 739.915 Z" fill="#3da44d" fill-rule="evenodd" fill-opacity="1" stroke="#000000" stroke-opacity="1" stroke-width="3.2"/>
<path clip-path="url(#clip742)" d="M1527.11 739.897 L1523.35 750.713 L1511.89 750.953 L1521.03 757.881 L1517.7 768.841 L1527.11 762.297 L1536.51 768.841 L1533.19 757.881 L1542.32 750.953 L1530.87 750.713 L1527.11 739.897 Z" fill="#3da44d" fill-rule="evenodd" fill-opacity="1" stroke="#000000" stroke-opacity="1" stroke-width="3.2"/>
<path clip-path="url(#clip742)" d="M1636.17 739.897 L1632.41 750.713 L1620.96 750.953 L1630.09 757.881 L1626.77 768.841 L1636.17 762.297 L1645.58 768.841 L1642.25 757.881 L1651.39 750.953 L1639.93 750.713 L1636.17 739.897 Z" fill="#3da44d" fill-rule="evenodd" fill-opacity="1" stroke="#000000" stroke-opacity="1" stroke-width="3.2"/>
<path clip-path="url(#clip742)" d="M1745.24 739.897 L1741.48 750.713 L1730.03 750.953 L1739.16 757.881 L1735.84 768.841 L1745.24 762.297 L1754.65 768.841 L1751.32 757.881 L1760.46 750.953 L1749 750.713 L1745.24 739.897 Z" fill="#3da44d" fill-rule="evenodd" fill-opacity="1" stroke="#000000" stroke-opacity="1" stroke-width="3.2"/>
<path clip-path="url(#clip742)" d="M1854.31 739.915 L1850.55 750.731 L1839.1 750.971 L1848.23 757.899 L1844.9 768.859 L1854.31 762.315 L1863.72 768.859 L1860.39 757.899 L1869.53 750.971 L1858.07 750.731 L1854.31 739.915 Z" fill="#3da44d" fill-rule="evenodd" fill-opacity="1" stroke="#000000" stroke-opacity="1" stroke-width="3.2"/>
<path clip-path="url(#clip742)" d="M1963.38 740.069 L1959.62 750.885 L1948.16 751.125 L1957.3 758.053 L1953.97 769.013 L1963.38 762.469 L1972.79 769.013 L1969.46 758.053 L1978.6 751.125 L1967.14 750.885 L1963.38 740.069 Z" fill="#3da44d" fill-rule="evenodd" fill-opacity="1" stroke="#000000" stroke-opacity="1" stroke-width="3.2"/>
<path clip-path="url(#clip742)" d="M2072.45 740.837 L2068.69 751.653 L2057.23 751.893 L2066.37 758.821 L2063.04 769.781 L2072.45 763.237 L2081.86 769.781 L2078.53 758.821 L2087.67 751.893 L2076.21 751.653 L2072.45 740.837 Z" fill="#3da44d" fill-rule="evenodd" fill-opacity="1" stroke="#000000" stroke-opacity="1" stroke-width="3.2"/>
<path clip-path="url(#clip742)" d="M2181.52 743.264 L2177.76 754.08 L2166.3 754.32 L2175.44 761.248 L2172.11 772.208 L2181.52 765.664 L2190.93 772.208 L2187.6 761.248 L2196.73 754.32 L2185.28 754.08 L2181.52 743.264 Z" fill="#3da44d" fill-rule="evenodd" fill-opacity="1" stroke="#000000" stroke-opacity="1" stroke-width="3.2"/>
<path clip-path="url(#clip742)" d="M2290.59 750.846 L2286.83 761.662 L2275.37 761.902 L2284.51 768.83 L2281.18 779.79 L2290.59 773.246 L2299.99 779.79 L2296.67 768.83 L2305.8 761.902 L2294.35 761.662 L2290.59 750.846 Z" fill="#3da44d" fill-rule="evenodd" fill-opacity="1" stroke="#000000" stroke-opacity="1" stroke-width="3.2"/>
<polyline clip-path="url(#clip742)" style="stroke:#c271d2; stroke-linecap:butt; stroke-linejoin:round; stroke-width:4; stroke-opacity:1; fill:none" points="
  218.281,1445.72 327.35,1187.27 436.419,1015.01 545.487,904.391 654.556,836.474 763.625,797.003 872.694,775.592 981.762,764.968 1090.83,760.289 1199.9,758.549 
  1308.97,758.049 1418.04,757.956 1527.11,757.949 1636.17,757.949 1745.24,757.949 1854.31,757.962 1963.38,758.093 2072.45,758.742 2181.52,760.877 2290.59,766.846 
  
  "/>
<path clip-path="url(#clip742)" d="M218.281 1429.72 L202.281 1445.72 L218.281 1461.72 L234.281 1445.72 L218.281 1429.72 Z" fill="#c271d2" fill-rule="evenodd" fill-opacity="1" stroke="#000000" stroke-opacity="1" stroke-width="3.2"/>
<path clip-path="url(#clip742)" d="M327.35 1171.27 L311.35 1187.27 L327.35 1203.27 L343.35 1187.27 L327.35 1171.27 Z" fill="#c271d2" fill-rule="evenodd" fill-opacity="1" stroke="#000000" stroke-opacity="1" stroke-width="3.2"/>
<path clip-path="url(#clip742)" d="M436.419 999.009 L420.419 1015.01 L436.419 1031.01 L452.419 1015.01 L436.419 999.009 Z" fill="#c271d2" fill-rule="evenodd" fill-opacity="1" stroke="#000000" stroke-opacity="1" stroke-width="3.2"/>
<path clip-path="url(#clip742)" d="M545.487 888.391 L529.487 904.391 L545.487 920.391 L561.487 904.391 L545.487 888.391 Z" fill="#c271d2" fill-rule="evenodd" fill-opacity="1" stroke="#000000" stroke-opacity="1" stroke-width="3.2"/>
<path clip-path="url(#clip742)" d="M654.556 820.474 L638.556 836.474 L654.556 852.474 L670.556 836.474 L654.556 820.474 Z" fill="#c271d2" fill-rule="evenodd" fill-opacity="1" stroke="#000000" stroke-opacity="1" stroke-width="3.2"/>
<path clip-path="url(#clip742)" d="M763.625 781.003 L747.625 797.003 L763.625 813.003 L779.625 797.003 L763.625 781.003 Z" fill="#c271d2" fill-rule="evenodd" fill-opacity="1" stroke="#000000" stroke-opacity="1" stroke-width="3.2"/>
<path clip-path="url(#clip742)" d="M872.694 759.592 L856.694 775.592 L872.694 791.592 L888.694 775.592 L872.694 759.592 Z" fill="#c271d2" fill-rule="evenodd" fill-opacity="1" stroke="#000000" stroke-opacity="1" stroke-width="3.2"/>
<path clip-path="url(#clip742)" d="M981.762 748.968 L965.762 764.968 L981.762 780.968 L997.762 764.968 L981.762 748.968 Z" fill="#c271d2" fill-rule="evenodd" fill-opacity="1" stroke="#000000" stroke-opacity="1" stroke-width="3.2"/>
<path clip-path="url(#clip742)" d="M1090.83 744.289 L1074.83 760.289 L1090.83 776.289 L1106.83 760.289 L1090.83 744.289 Z" fill="#c271d2" fill-rule="evenodd" fill-opacity="1" stroke="#000000" stroke-opacity="1" stroke-width="3.2"/>
<path clip-path="url(#clip742)" d="M1199.9 742.549 L1183.9 758.549 L1199.9 774.549 L1215.9 758.549 L1199.9 742.549 Z" fill="#c271d2" fill-rule="evenodd" fill-opacity="1" stroke="#000000" stroke-opacity="1" stroke-width="3.2"/>
<path clip-path="url(#clip742)" d="M1308.97 742.049 L1292.97 758.049 L1308.97 774.049 L1324.97 758.049 L1308.97 742.049 Z" fill="#c271d2" fill-rule="evenodd" fill-opacity="1" stroke="#000000" stroke-opacity="1" stroke-width="3.2"/>
<path clip-path="url(#clip742)" d="M1418.04 741.956 L1402.04 757.956 L1418.04 773.956 L1434.04 757.956 L1418.04 741.956 Z" fill="#c271d2" fill-rule="evenodd" fill-opacity="1" stroke="#000000" stroke-opacity="1" stroke-width="3.2"/>
<path clip-path="url(#clip742)" d="M1527.11 741.949 L1511.11 757.949 L1527.11 773.949 L1543.11 757.949 L1527.11 741.949 Z" fill="#c271d2" fill-rule="evenodd" fill-opacity="1" stroke="#000000" stroke-opacity="1" stroke-width="3.2"/>
<path clip-path="url(#clip742)" d="M1636.17 741.949 L1620.17 757.949 L1636.17 773.949 L1652.17 757.949 L1636.17 741.949 Z" fill="#c271d2" fill-rule="evenodd" fill-opacity="1" stroke="#000000" stroke-opacity="1" stroke-width="3.2"/>
<path clip-path="url(#clip742)" d="M1745.24 741.949 L1729.24 757.949 L1745.24 773.949 L1761.24 757.949 L1745.24 741.949 Z" fill="#c271d2" fill-rule="evenodd" fill-opacity="1" stroke="#000000" stroke-opacity="1" stroke-width="3.2"/>
<path clip-path="url(#clip742)" d="M1854.31 741.962 L1838.31 757.962 L1854.31 773.962 L1870.31 757.962 L1854.31 741.962 Z" fill="#c271d2" fill-rule="evenodd" fill-opacity="1" stroke="#000000" stroke-opacity="1" stroke-width="3.2"/>
<path clip-path="url(#clip742)" d="M1963.38 742.093 L1947.38 758.093 L1963.38 774.093 L1979.38 758.093 L1963.38 742.093 Z" fill="#c271d2" fill-rule="evenodd" fill-opacity="1" stroke="#000000" stroke-opacity="1" stroke-width="3.2"/>
<path clip-path="url(#clip742)" d="M2072.45 742.742 L2056.45 758.742 L2072.45 774.742 L2088.45 758.742 L2072.45 742.742 Z" fill="#c271d2" fill-rule="evenodd" fill-opacity="1" stroke="#000000" stroke-opacity="1" stroke-width="3.2"/>
<path clip-path="url(#clip742)" d="M2181.52 744.877 L2165.52 760.877 L2181.52 776.877 L2197.52 760.877 L2181.52 744.877 Z" fill="#c271d2" fill-rule="evenodd" fill-opacity="1" stroke="#000000" stroke-opacity="1" stroke-width="3.2"/>
<path clip-path="url(#clip742)" d="M2290.59 750.846 L2274.59 766.846 L2290.59 782.846 L2306.59 766.846 L2290.59 750.846 Z" fill="#c271d2" fill-rule="evenodd" fill-opacity="1" stroke="#000000" stroke-opacity="1" stroke-width="3.2"/>
<polyline clip-path="url(#clip742)" style="stroke:#ac8d18; stroke-linecap:butt; stroke-linejoin:round; stroke-width:4; stroke-opacity:1; fill:none" points="
  218.281,1445.72 327.35,1182.81 436.419,1009.53 545.487,899.612 654.556,833.044 763.625,794.95 872.694,774.649 981.762,764.781 1090.83,760.542 1199.9,759.014 
  1308.97,758.592 1418.04,758.518 1527.11,758.513 1636.17,758.513 1745.24,758.513 1854.31,758.525 1963.38,758.649 2072.45,759.265 2181.52,761.316 2290.59,766.846 
  
  "/>
<path clip-path="url(#clip742)" d="M218.281 1461.72 L204.425 1453.72 L204.425 1437.72 L218.281 1429.72 L232.137 1437.72 L232.137 1453.72 Z" fill="#ac8d18" fill-rule="evenodd" fill-opacity="1" stroke="#000000" stroke-opacity="1" stroke-width="3.2"/>
<path clip-path="url(#clip742)" d="M327.35 1198.81 L313.494 1190.81 L313.494 1174.81 L327.35 1166.81 L341.206 1174.81 L341.206 1190.81 Z" fill="#ac8d18" fill-rule="evenodd" fill-opacity="1" stroke="#000000" stroke-opacity="1" stroke-width="3.2"/>
<path clip-path="url(#clip742)" d="M436.419 1025.53 L422.563 1017.53 L422.563 1001.53 L436.419 993.527 L450.275 1001.53 L450.275 1017.53 Z" fill="#ac8d18" fill-rule="evenodd" fill-opacity="1" stroke="#000000" stroke-opacity="1" stroke-width="3.2"/>
<path clip-path="url(#clip742)" d="M545.487 915.612 L531.631 907.612 L531.631 891.612 L545.487 883.612 L559.343 891.612 L559.343 907.612 Z" fill="#ac8d18" fill-rule="evenodd" fill-opacity="1" stroke="#000000" stroke-opacity="1" stroke-width="3.2"/>
<path clip-path="url(#clip742)" d="M654.556 849.044 L640.7 841.044 L640.7 825.044 L654.556 817.044 L668.412 825.044 L668.412 841.044 Z" fill="#ac8d18" fill-rule="evenodd" fill-opacity="1" stroke="#000000" stroke-opacity="1" stroke-width="3.2"/>
<path clip-path="url(#clip742)" d="M763.625 810.95 L749.769 802.95 L749.769 786.95 L763.625 778.95 L777.481 786.95 L777.481 802.95 Z" fill="#ac8d18" fill-rule="evenodd" fill-opacity="1" stroke="#000000" stroke-opacity="1" stroke-width="3.2"/>
<path clip-path="url(#clip742)" d="M872.694 790.649 L858.838 782.649 L858.838 766.649 L872.694 758.649 L886.55 766.649 L886.55 782.649 Z" fill="#ac8d18" fill-rule="evenodd" fill-opacity="1" stroke="#000000" stroke-opacity="1" stroke-width="3.2"/>
<path clip-path="url(#clip742)" d="M981.762 780.781 L967.906 772.781 L967.906 756.781 L981.762 748.781 L995.618 756.781 L995.618 772.781 Z" fill="#ac8d18" fill-rule="evenodd" fill-opacity="1" stroke="#000000" stroke-opacity="1" stroke-width="3.2"/>
<path clip-path="url(#clip742)" d="M1090.83 776.542 L1076.97 768.542 L1076.97 752.542 L1090.83 744.542 L1104.69 752.542 L1104.69 768.542 Z" fill="#ac8d18" fill-rule="evenodd" fill-opacity="1" stroke="#000000" stroke-opacity="1" stroke-width="3.2"/>
<path clip-path="url(#clip742)" d="M1199.9 775.014 L1186.04 767.014 L1186.04 751.014 L1199.9 743.014 L1213.76 751.014 L1213.76 767.014 Z" fill="#ac8d18" fill-rule="evenodd" fill-opacity="1" stroke="#000000" stroke-opacity="1" stroke-width="3.2"/>
<path clip-path="url(#clip742)" d="M1308.97 774.592 L1295.11 766.592 L1295.11 750.592 L1308.97 742.592 L1322.82 750.592 L1322.82 766.592 Z" fill="#ac8d18" fill-rule="evenodd" fill-opacity="1" stroke="#000000" stroke-opacity="1" stroke-width="3.2"/>
<path clip-path="url(#clip742)" d="M1418.04 774.518 L1404.18 766.518 L1404.18 750.518 L1418.04 742.518 L1431.89 750.518 L1431.89 766.518 Z" fill="#ac8d18" fill-rule="evenodd" fill-opacity="1" stroke="#000000" stroke-opacity="1" stroke-width="3.2"/>
<path clip-path="url(#clip742)" d="M1527.11 774.513 L1513.25 766.513 L1513.25 750.513 L1527.11 742.513 L1540.96 750.513 L1540.96 766.513 Z" fill="#ac8d18" fill-rule="evenodd" fill-opacity="1" stroke="#000000" stroke-opacity="1" stroke-width="3.2"/>
<path clip-path="url(#clip742)" d="M1636.17 774.513 L1622.32 766.513 L1622.32 750.513 L1636.17 742.513 L1650.03 750.513 L1650.03 766.513 Z" fill="#ac8d18" fill-rule="evenodd" fill-opacity="1" stroke="#000000" stroke-opacity="1" stroke-width="3.2"/>
<path clip-path="url(#clip742)" d="M1745.24 774.513 L1731.39 766.513 L1731.39 750.513 L1745.24 742.513 L1759.1 750.513 L1759.1 766.513 Z" fill="#ac8d18" fill-rule="evenodd" fill-opacity="1" stroke="#000000" stroke-opacity="1" stroke-width="3.2"/>
<path clip-path="url(#clip742)" d="M1854.31 774.525 L1840.46 766.525 L1840.46 750.525 L1854.31 742.525 L1868.17 750.525 L1868.17 766.525 Z" fill="#ac8d18" fill-rule="evenodd" fill-opacity="1" stroke="#000000" stroke-opacity="1" stroke-width="3.2"/>
<path clip-path="url(#clip742)" d="M1963.38 774.649 L1949.52 766.649 L1949.52 750.649 L1963.38 742.649 L1977.24 750.649 L1977.24 766.649 Z" fill="#ac8d18" fill-rule="evenodd" fill-opacity="1" stroke="#000000" stroke-opacity="1" stroke-width="3.2"/>
<path clip-path="url(#clip742)" d="M2072.45 775.265 L2058.59 767.265 L2058.59 751.265 L2072.45 743.265 L2086.31 751.265 L2086.31 767.265 Z" fill="#ac8d18" fill-rule="evenodd" fill-opacity="1" stroke="#000000" stroke-opacity="1" stroke-width="3.2"/>
<path clip-path="url(#clip742)" d="M2181.52 777.316 L2167.66 769.316 L2167.66 753.316 L2181.52 745.316 L2195.37 753.316 L2195.37 769.316 Z" fill="#ac8d18" fill-rule="evenodd" fill-opacity="1" stroke="#000000" stroke-opacity="1" stroke-width="3.2"/>
<path clip-path="url(#clip742)" d="M2290.59 782.846 L2276.73 774.846 L2276.73 758.846 L2290.59 750.846 L2304.44 758.846 L2304.44 774.846 Z" fill="#ac8d18" fill-rule="evenodd" fill-opacity="1" stroke="#000000" stroke-opacity="1" stroke-width="3.2"/>
<path clip-path="url(#clip740)" d="
M1981.32 1438.47 L2279.53 1438.47 L2279.53 1127.43 L1981.32 1127.43  Z
  " fill="#ffffff" fill-rule="evenodd" fill-opacity="1"/>
<polyline clip-path="url(#clip740)" style="stroke:#000000; stroke-linecap:butt; stroke-linejoin:round; stroke-width:4; stroke-opacity:1; fill:none" points="
  1981.32,1438.47 2279.53,1438.47 2279.53,1127.43 1981.32,1127.43 1981.32,1438.47 
  "/>
<polyline clip-path="url(#clip740)" style="stroke:#009af9; stroke-linecap:butt; stroke-linejoin:round; stroke-width:4; stroke-opacity:1; fill:none" points="
  2005.73,1179.27 2152.17,1179.27 
  "/>
<circle clip-path="url(#clip740)" cx="2078.95" cy="1179.27" r="23" fill="#009af9" fill-rule="evenodd" fill-opacity="1" stroke="#000000" stroke-opacity="1" stroke-width="5.12"/>
<path clip-path="url(#clip740)" d="M2190.42 1198.96 Q2188.61 1203.59 2186.9 1205 Q2185.19 1206.42 2182.32 1206.42 L2178.91 1206.42 L2178.91 1202.85 L2181.41 1202.85 Q2183.17 1202.85 2184.15 1202.02 Q2185.12 1201.18 2186.3 1198.08 L2187.06 1196.14 L2176.58 1170.63 L2181.09 1170.63 L2189.19 1190.91 L2197.29 1170.63 L2201.81 1170.63 L2190.42 1198.96 Z" fill="#000000" fill-rule="evenodd" fill-opacity="1" /><path clip-path="url(#clip740)" d="M2209.1 1192.62 L2216.74 1192.62 L2216.74 1166.25 L2208.43 1167.92 L2208.43 1163.66 L2216.69 1161.99 L2221.37 1161.99 L2221.37 1192.62 L2229.01 1192.62 L2229.01 1196.55 L2209.1 1196.55 L2209.1 1192.62 Z" fill="#000000" fill-rule="evenodd" fill-opacity="1" /><polyline clip-path="url(#clip740)" style="stroke:#e26f46; stroke-linecap:butt; stroke-linejoin:round; stroke-width:4; stroke-opacity:1; fill:none" points="
  2005.73,1231.11 2152.17,1231.11 
  "/>
<path clip-path="url(#clip740)" d="M2053.35 1205.51 L2053.35 1256.71 L2104.55 1256.71 L2104.55 1205.51 L2053.35 1205.51 Z" fill="#e26f46" fill-rule="evenodd" fill-opacity="1" stroke="#000000" stroke-opacity="1" stroke-width="5.12"/>
<path clip-path="url(#clip740)" d="M2190.42 1250.8 Q2188.61 1255.43 2186.9 1256.84 Q2185.19 1258.26 2182.32 1258.26 L2178.91 1258.26 L2178.91 1254.69 L2181.41 1254.69 Q2183.17 1254.69 2184.15 1253.86 Q2185.12 1253.02 2186.3 1249.92 L2187.06 1247.98 L2176.58 1222.47 L2181.09 1222.47 L2189.19 1242.75 L2197.29 1222.47 L2201.81 1222.47 L2190.42 1250.8 Z" fill="#000000" fill-rule="evenodd" fill-opacity="1" /><path clip-path="url(#clip740)" d="M2212.32 1244.46 L2228.64 1244.46 L2228.64 1248.39 L2206.69 1248.39 L2206.69 1244.46 Q2209.35 1241.7 2213.94 1237.08 Q2218.54 1232.42 2219.72 1231.08 Q2221.97 1228.56 2222.85 1226.82 Q2223.75 1225.06 2223.75 1223.37 Q2223.75 1220.62 2221.81 1218.88 Q2219.89 1217.14 2216.79 1217.14 Q2214.59 1217.14 2212.13 1217.91 Q2209.7 1218.67 2206.92 1220.22 L2206.92 1215.5 Q2209.75 1214.37 2212.2 1213.79 Q2214.66 1213.21 2216.69 1213.21 Q2222.06 1213.21 2225.26 1215.89 Q2228.45 1218.58 2228.45 1223.07 Q2228.45 1225.2 2227.64 1227.12 Q2226.85 1229.02 2224.75 1231.61 Q2224.17 1232.28 2221.07 1235.5 Q2217.97 1238.7 2212.32 1244.46 Z" fill="#000000" fill-rule="evenodd" fill-opacity="1" /><polyline clip-path="url(#clip740)" style="stroke:#3da44d; stroke-linecap:butt; stroke-linejoin:round; stroke-width:4; stroke-opacity:1; fill:none" points="
  2005.73,1282.95 2152.17,1282.95 
  "/>
<path clip-path="url(#clip740)" d="M2078.95 1257.35 L2072.93 1274.66 L2054.6 1275.04 L2069.22 1286.13 L2063.9 1303.66 L2078.95 1293.19 L2094 1303.66 L2088.68 1286.13 L2103.29 1275.04 L2084.96 1274.66 L2078.95 1257.35 Z" fill="#3da44d" fill-rule="evenodd" fill-opacity="1" stroke="#000000" stroke-opacity="1" stroke-width="5.12"/>
<path clip-path="url(#clip740)" d="M2190.42 1302.64 Q2188.61 1307.27 2186.9 1308.68 Q2185.19 1310.1 2182.32 1310.1 L2178.91 1310.1 L2178.91 1306.53 L2181.41 1306.53 Q2183.17 1306.53 2184.15 1305.7 Q2185.12 1304.86 2186.3 1301.76 L2187.06 1299.82 L2176.58 1274.31 L2181.09 1274.31 L2189.19 1294.59 L2197.29 1274.31 L2201.81 1274.31 L2190.42 1302.64 Z" fill="#000000" fill-rule="evenodd" fill-opacity="1" /><path clip-path="url(#clip740)" d="M2222.46 1281.6 Q2225.81 1282.32 2227.69 1284.59 Q2229.59 1286.85 2229.59 1290.19 Q2229.59 1295.3 2226.07 1298.1 Q2222.55 1300.91 2216.07 1300.91 Q2213.89 1300.91 2211.58 1300.47 Q2209.29 1300.05 2206.83 1299.19 L2206.83 1294.68 Q2208.78 1295.81 2211.09 1296.39 Q2213.41 1296.97 2215.93 1296.97 Q2220.33 1296.97 2222.62 1295.23 Q2224.93 1293.5 2224.93 1290.19 Q2224.93 1287.13 2222.78 1285.42 Q2220.65 1283.68 2216.83 1283.68 L2212.8 1283.68 L2212.8 1279.84 L2217.02 1279.84 Q2220.47 1279.84 2222.29 1278.48 Q2224.12 1277.09 2224.12 1274.49 Q2224.12 1271.83 2222.22 1270.42 Q2220.35 1268.98 2216.83 1268.98 Q2214.91 1268.98 2212.71 1269.4 Q2210.51 1269.82 2207.87 1270.7 L2207.87 1266.53 Q2210.54 1265.79 2212.85 1265.42 Q2215.19 1265.05 2217.25 1265.05 Q2222.57 1265.05 2225.67 1267.48 Q2228.78 1269.89 2228.78 1274.01 Q2228.78 1276.88 2227.13 1278.87 Q2225.49 1280.84 2222.46 1281.6 Z" fill="#000000" fill-rule="evenodd" fill-opacity="1" /><polyline clip-path="url(#clip740)" style="stroke:#c271d2; stroke-linecap:butt; stroke-linejoin:round; stroke-width:4; stroke-opacity:1; fill:none" points="
  2005.73,1334.79 2152.17,1334.79 
  "/>
<path clip-path="url(#clip740)" d="M2078.95 1309.19 L2053.35 1334.79 L2078.95 1360.39 L2104.55 1334.79 L2078.95 1309.19 Z" fill="#c271d2" fill-rule="evenodd" fill-opacity="1" stroke="#000000" stroke-opacity="1" stroke-width="5.12"/>
<path clip-path="url(#clip740)" d="M2190.42 1354.48 Q2188.61 1359.11 2186.9 1360.52 Q2185.19 1361.94 2182.32 1361.94 L2178.91 1361.94 L2178.91 1358.37 L2181.41 1358.37 Q2183.17 1358.37 2184.15 1357.54 Q2185.12 1356.7 2186.3 1353.6 L2187.06 1351.66 L2176.58 1326.15 L2181.09 1326.15 L2189.19 1346.43 L2197.29 1326.15 L2201.81 1326.15 L2190.42 1354.48 Z" fill="#000000" fill-rule="evenodd" fill-opacity="1" /><path clip-path="url(#clip740)" d="M2221.14 1321.59 L2209.33 1340.04 L2221.14 1340.04 L2221.14 1321.59 M2219.91 1317.51 L2225.79 1317.51 L2225.79 1340.04 L2230.72 1340.04 L2230.72 1343.93 L2225.79 1343.93 L2225.79 1352.07 L2221.14 1352.07 L2221.14 1343.93 L2205.54 1343.93 L2205.54 1339.41 L2219.91 1317.51 Z" fill="#000000" fill-rule="evenodd" fill-opacity="1" /><polyline clip-path="url(#clip740)" style="stroke:#ac8d18; stroke-linecap:butt; stroke-linejoin:round; stroke-width:4; stroke-opacity:1; fill:none" points="
  2005.73,1386.63 2152.17,1386.63 
  "/>
<path clip-path="url(#clip740)" d="M2078.95 1412.23 L2056.78 1399.43 L2056.78 1373.83 L2078.95 1361.03 L2101.12 1373.83 L2101.12 1399.43 Z" fill="#ac8d18" fill-rule="evenodd" fill-opacity="1" stroke="#000000" stroke-opacity="1" stroke-width="5.12"/>
<path clip-path="url(#clip740)" d="M2190.42 1406.32 Q2188.61 1410.95 2186.9 1412.36 Q2185.19 1413.78 2182.32 1413.78 L2178.91 1413.78 L2178.91 1410.21 L2181.41 1410.21 Q2183.17 1410.21 2184.15 1409.38 Q2185.12 1408.54 2186.3 1405.44 L2187.06 1403.5 L2176.58 1377.99 L2181.09 1377.99 L2189.19 1398.27 L2197.29 1377.99 L2201.81 1377.99 L2190.42 1406.32 Z" fill="#000000" fill-rule="evenodd" fill-opacity="1" /><path clip-path="url(#clip740)" d="M2208.34 1369.35 L2226.69 1369.35 L2226.69 1373.29 L2212.62 1373.29 L2212.62 1381.76 Q2213.64 1381.41 2214.66 1381.25 Q2215.67 1381.07 2216.69 1381.07 Q2222.48 1381.07 2225.86 1384.24 Q2229.24 1387.41 2229.24 1392.83 Q2229.24 1398.41 2225.77 1401.51 Q2222.29 1404.59 2215.97 1404.59 Q2213.8 1404.59 2211.53 1404.22 Q2209.29 1403.84 2206.88 1403.1 L2206.88 1398.41 Q2208.96 1399.54 2211.18 1400.09 Q2213.41 1400.65 2215.88 1400.65 Q2219.89 1400.65 2222.22 1398.54 Q2224.56 1396.44 2224.56 1392.83 Q2224.56 1389.22 2222.22 1387.11 Q2219.89 1385 2215.88 1385 Q2214.01 1385 2212.13 1385.42 Q2210.28 1385.84 2208.34 1386.72 L2208.34 1369.35 Z" fill="#000000" fill-rule="evenodd" fill-opacity="1" /></svg>
