<?xml version="1.0" encoding="utf-8"?>
<svg xmlns="http://www.w3.org/2000/svg" xmlns:xlink="http://www.w3.org/1999/xlink" width="600" height="400" viewBox="0 0 2400 1600">
<defs>
  <clipPath id="clip790">
    <rect x="0" y="0" width="2400" height="1600"/>
  </clipPath>
</defs>
<path clip-path="url(#clip790)" d="
M0 1600 L2400 1600 L2400 0 L0 0  Z
  " fill="#ffffff" fill-rule="evenodd" fill-opacity="1"/>
<defs>
  <clipPath id="clip791">
    <rect x="480" y="0" width="1681" height="1600"/>
  </clipPath>
</defs>
<path clip-path="url(#clip790)" d="
M156.598 1486.45 L2352.76 1486.45 L2352.76 47.2441 L156.598 47.2441  Z
  " fill="#ffffff" fill-rule="evenodd" fill-opacity="1"/>
<defs>
  <clipPath id="clip792">
    <rect x="156" y="47" width="2197" height="1440"/>
  </clipPath>
</defs>
<polyline clip-path="url(#clip792)" style="stroke:#000000; stroke-linecap:butt; stroke-linejoin:round; stroke-width:2; stroke-opacity:0.1; fill:none" points="
  218.754,1486.45 218.754,47.2441 
  "/>
<polyline clip-path="url(#clip792)" style="stroke:#000000; stroke-linecap:butt; stroke-linejoin:round; stroke-width:2; stroke-opacity:0.1; fill:none" points="
  736.715,1486.45 736.715,47.2441 
  "/>
<polyline clip-path="url(#clip792)" style="stroke:#000000; stroke-linecap:butt; stroke-linejoin:round; stroke-width:2; stroke-opacity:0.1; fill:none" points="
  1254.68,1486.45 1254.68,47.2441 
  "/>
<polyline clip-path="url(#clip792)" style="stroke:#000000; stroke-linecap:butt; stroke-linejoin:round; stroke-width:2; stroke-opacity:0.1; fill:none" points="
  1772.64,1486.45 1772.64,47.2441 
  "/>
<polyline clip-path="url(#clip792)" style="stroke:#000000; stroke-linecap:butt; stroke-linejoin:round; stroke-width:2; stroke-opacity:0.1; fill:none" points="
  2290.6,1486.45 2290.6,47.2441 
  "/>
<polyline clip-path="url(#clip790)" style="stroke:#000000; stroke-linecap:butt; stroke-linejoin:round; stroke-width:4; stroke-opacity:1; fill:none" points="
  156.598,1486.45 2352.76,1486.45 
  "/>
<polyline clip-path="url(#clip790)" style="stroke:#000000; stroke-linecap:butt; stroke-linejoin:round; stroke-width:4; stroke-opacity:1; fill:none" points="
  218.754,1486.45 218.754,1467.55 
  "/>
<polyline clip-path="url(#clip790)" style="stroke:#000000; stroke-linecap:butt; stroke-linejoin:round; stroke-width:4; stroke-opacity:1; fill:none" points="
  736.715,1486.45 736.715,1467.55 
  "/>
<polyline clip-path="url(#clip790)" style="stroke:#000000; stroke-linecap:butt; stroke-linejoin:round; stroke-width:4; stroke-opacity:1; fill:none" points="
  1254.68,1486.45 1254.68,1467.55 
  "/>
<polyline clip-path="url(#clip790)" style="stroke:#000000; stroke-linecap:butt; stroke-linejoin:round; stroke-width:4; stroke-opacity:1; fill:none" points="
  1772.64,1486.45 1772.64,1467.55 
  "/>
<polyline clip-path="url(#clip790)" style="stroke:#000000; stroke-linecap:butt; stroke-linejoin:round; stroke-width:4; stroke-opacity:1; fill:none" points="
  2290.6,1486.45 2290.6,1467.55 
  "/>
<path clip-path="url(#clip790)" d="M165.282 1530.29 L194.957 1530.29 L194.957 1534.23 L165.282 1534.23 L165.282 1530.29 Z" fill="#000000" fill-rule="evenodd" fill-opacity="1" /><path clip-path="url(#clip790)" d="M205.86 1543.18 L213.499 1543.18 L213.499 1516.82 L205.189 1518.49 L205.189 1514.23 L213.453 1512.56 L218.129 1512.56 L218.129 1543.18 L225.767 1543.18 L225.767 1547.12 L205.86 1547.12 L205.86 1543.18 Z" fill="#000000" fill-rule="evenodd" fill-opacity="1" /><path clip-path="url(#clip790)" d="M235.212 1541.24 L240.096 1541.24 L240.096 1547.12 L235.212 1547.12 L235.212 1541.24 Z" fill="#000000" fill-rule="evenodd" fill-opacity="1" /><path clip-path="url(#clip790)" d="M260.281 1515.64 Q256.67 1515.64 254.841 1519.2 Q253.036 1522.75 253.036 1529.87 Q253.036 1536.98 254.841 1540.55 Q256.67 1544.09 260.281 1544.09 Q263.915 1544.09 265.721 1540.55 Q267.55 1536.98 267.55 1529.87 Q267.55 1522.75 265.721 1519.2 Q263.915 1515.64 260.281 1515.64 M260.281 1511.93 Q266.091 1511.93 269.147 1516.54 Q272.226 1521.12 272.226 1529.87 Q272.226 1538.6 269.147 1543.21 Q266.091 1547.79 260.281 1547.79 Q254.471 1547.79 251.392 1543.21 Q248.337 1538.6 248.337 1529.87 Q248.337 1521.12 251.392 1516.54 Q254.471 1511.93 260.281 1511.93 Z" fill="#000000" fill-rule="evenodd" fill-opacity="1" /><path clip-path="url(#clip790)" d="M683.741 1530.29 L713.417 1530.29 L713.417 1534.23 L683.741 1534.23 L683.741 1530.29 Z" fill="#000000" fill-rule="evenodd" fill-opacity="1" /><path clip-path="url(#clip790)" d="M733.509 1515.64 Q729.898 1515.64 728.07 1519.2 Q726.264 1522.75 726.264 1529.87 Q726.264 1536.98 728.07 1540.55 Q729.898 1544.09 733.509 1544.09 Q737.144 1544.09 738.949 1540.55 Q740.778 1536.98 740.778 1529.87 Q740.778 1522.75 738.949 1519.2 Q737.144 1515.64 733.509 1515.64 M733.509 1511.93 Q739.32 1511.93 742.375 1516.54 Q745.454 1521.12 745.454 1529.87 Q745.454 1538.6 742.375 1543.21 Q739.32 1547.79 733.509 1547.79 Q727.699 1547.79 724.621 1543.21 Q721.565 1538.6 721.565 1529.87 Q721.565 1521.12 724.621 1516.54 Q727.699 1511.93 733.509 1511.93 Z" fill="#000000" fill-rule="evenodd" fill-opacity="1" /><path clip-path="url(#clip790)" d="M753.671 1541.24 L758.556 1541.24 L758.556 1547.12 L753.671 1547.12 L753.671 1541.24 Z" fill="#000000" fill-rule="evenodd" fill-opacity="1" /><path clip-path="url(#clip790)" d="M768.787 1512.56 L787.143 1512.56 L787.143 1516.5 L773.069 1516.5 L773.069 1524.97 Q774.088 1524.62 775.106 1524.46 Q776.125 1524.27 777.143 1524.27 Q782.93 1524.27 786.31 1527.44 Q789.69 1530.62 789.69 1536.03 Q789.69 1541.61 786.217 1544.71 Q782.745 1547.79 776.426 1547.79 Q774.25 1547.79 771.981 1547.42 Q769.736 1547.05 767.329 1546.31 L767.329 1541.61 Q769.412 1542.74 771.634 1543.3 Q773.856 1543.86 776.333 1543.86 Q780.338 1543.86 782.676 1541.75 Q785.014 1539.64 785.014 1536.03 Q785.014 1532.42 782.676 1530.31 Q780.338 1528.21 776.333 1528.21 Q774.458 1528.21 772.583 1528.62 Q770.731 1529.04 768.787 1529.92 L768.787 1512.56 Z" fill="#000000" fill-rule="evenodd" fill-opacity="1" /><path clip-path="url(#clip790)" d="M1232.06 1515.64 Q1228.45 1515.64 1226.62 1519.2 Q1224.82 1522.75 1224.82 1529.87 Q1224.82 1536.98 1226.62 1540.55 Q1228.45 1544.09 1232.06 1544.09 Q1235.7 1544.09 1237.5 1540.55 Q1239.33 1536.98 1239.33 1529.87 Q1239.33 1522.75 1237.5 1519.2 Q1235.7 1515.64 1232.06 1515.64 M1232.06 1511.93 Q1237.87 1511.93 1240.93 1516.54 Q1244.01 1521.12 1244.01 1529.87 Q1244.01 1538.6 1240.93 1543.21 Q1237.87 1547.79 1232.06 1547.79 Q1226.25 1547.79 1223.17 1543.21 Q1220.12 1538.6 1220.12 1529.87 Q1220.12 1521.12 1223.17 1516.54 Q1226.25 1511.93 1232.06 1511.93 Z" fill="#000000" fill-rule="evenodd" fill-opacity="1" /><path clip-path="url(#clip790)" d="M1252.22 1541.24 L1257.11 1541.24 L1257.11 1547.12 L1252.22 1547.12 L1252.22 1541.24 Z" fill="#000000" fill-rule="evenodd" fill-opacity="1" /><path clip-path="url(#clip790)" d="M1277.29 1515.64 Q1273.68 1515.64 1271.85 1519.2 Q1270.05 1522.75 1270.05 1529.87 Q1270.05 1536.98 1271.85 1540.55 Q1273.68 1544.09 1277.29 1544.09 Q1280.93 1544.09 1282.73 1540.55 Q1284.56 1536.98 1284.56 1529.87 Q1284.56 1522.75 1282.73 1519.2 Q1280.93 1515.64 1277.29 1515.64 M1277.29 1511.93 Q1283.1 1511.93 1286.16 1516.54 Q1289.24 1521.12 1289.24 1529.87 Q1289.24 1538.6 1286.16 1543.21 Q1283.1 1547.79 1277.29 1547.79 Q1271.48 1547.79 1268.4 1543.21 Q1265.35 1538.6 1265.35 1529.87 Q1265.35 1521.12 1268.4 1516.54 Q1271.48 1511.93 1277.29 1511.93 Z" fill="#000000" fill-rule="evenodd" fill-opacity="1" /><path clip-path="url(#clip790)" d="M1750.52 1515.64 Q1746.91 1515.64 1745.08 1519.2 Q1743.28 1522.75 1743.28 1529.87 Q1743.28 1536.98 1745.08 1540.55 Q1746.91 1544.09 1750.52 1544.09 Q1754.16 1544.09 1755.96 1540.55 Q1757.79 1536.98 1757.79 1529.87 Q1757.79 1522.75 1755.96 1519.2 Q1754.16 1515.64 1750.52 1515.64 M1750.52 1511.93 Q1756.33 1511.93 1759.39 1516.54 Q1762.47 1521.12 1762.47 1529.87 Q1762.47 1538.6 1759.39 1543.21 Q1756.33 1547.79 1750.52 1547.79 Q1744.71 1547.79 1741.63 1543.21 Q1738.58 1538.6 1738.58 1529.87 Q1738.58 1521.12 1741.63 1516.54 Q1744.71 1511.93 1750.52 1511.93 Z" fill="#000000" fill-rule="evenodd" fill-opacity="1" /><path clip-path="url(#clip790)" d="M1770.68 1541.24 L1775.57 1541.24 L1775.57 1547.12 L1770.68 1547.12 L1770.68 1541.24 Z" fill="#000000" fill-rule="evenodd" fill-opacity="1" /><path clip-path="url(#clip790)" d="M1785.8 1512.56 L1804.15 1512.56 L1804.15 1516.5 L1790.08 1516.5 L1790.08 1524.97 Q1791.1 1524.62 1792.12 1524.46 Q1793.14 1524.27 1794.15 1524.27 Q1799.94 1524.27 1803.32 1527.44 Q1806.7 1530.62 1806.7 1536.03 Q1806.7 1541.61 1803.23 1544.71 Q1799.76 1547.79 1793.44 1547.79 Q1791.26 1547.79 1788.99 1547.42 Q1786.75 1547.05 1784.34 1546.31 L1784.34 1541.61 Q1786.42 1542.74 1788.65 1543.3 Q1790.87 1543.86 1793.34 1543.86 Q1797.35 1543.86 1799.69 1541.75 Q1802.03 1539.64 1802.03 1536.03 Q1802.03 1532.42 1799.69 1530.31 Q1797.35 1528.21 1793.34 1528.21 Q1791.47 1528.21 1789.59 1528.62 Q1787.74 1529.04 1785.8 1529.92 L1785.8 1512.56 Z" fill="#000000" fill-rule="evenodd" fill-opacity="1" /><path clip-path="url(#clip790)" d="M2257.75 1543.18 L2265.39 1543.18 L2265.39 1516.82 L2257.08 1518.49 L2257.08 1514.23 L2265.35 1512.56 L2270.02 1512.56 L2270.02 1543.18 L2277.66 1543.18 L2277.66 1547.12 L2257.75 1547.12 L2257.75 1543.18 Z" fill="#000000" fill-rule="evenodd" fill-opacity="1" /><path clip-path="url(#clip790)" d="M2287.11 1541.24 L2291.99 1541.24 L2291.99 1547.12 L2287.11 1547.12 L2287.11 1541.24 Z" fill="#000000" fill-rule="evenodd" fill-opacity="1" /><path clip-path="url(#clip790)" d="M2312.17 1515.64 Q2308.56 1515.64 2306.73 1519.2 Q2304.93 1522.75 2304.93 1529.87 Q2304.93 1536.98 2306.73 1540.55 Q2308.56 1544.09 2312.17 1544.09 Q2315.81 1544.09 2317.61 1540.55 Q2319.44 1536.98 2319.44 1529.87 Q2319.44 1522.75 2317.61 1519.2 Q2315.81 1515.64 2312.17 1515.64 M2312.17 1511.93 Q2317.98 1511.93 2321.04 1516.54 Q2324.12 1521.12 2324.12 1529.87 Q2324.12 1538.6 2321.04 1543.21 Q2317.98 1547.79 2312.17 1547.79 Q2306.36 1547.79 2303.29 1543.21 Q2300.23 1538.6 2300.23 1529.87 Q2300.23 1521.12 2303.29 1516.54 Q2306.36 1511.93 2312.17 1511.93 Z" fill="#000000" fill-rule="evenodd" fill-opacity="1" /><polyline clip-path="url(#clip792)" style="stroke:#000000; stroke-linecap:butt; stroke-linejoin:round; stroke-width:2; stroke-opacity:0.1; fill:none" points="
  156.598,1282.79 2352.76,1282.79 
  "/>
<polyline clip-path="url(#clip792)" style="stroke:#000000; stroke-linecap:butt; stroke-linejoin:round; stroke-width:2; stroke-opacity:0.1; fill:none" points="
  156.598,984.084 2352.76,984.084 
  "/>
<polyline clip-path="url(#clip792)" style="stroke:#000000; stroke-linecap:butt; stroke-linejoin:round; stroke-width:2; stroke-opacity:0.1; fill:none" points="
  156.598,685.382 2352.76,685.382 
  "/>
<polyline clip-path="url(#clip792)" style="stroke:#000000; stroke-linecap:butt; stroke-linejoin:round; stroke-width:2; stroke-opacity:0.1; fill:none" points="
  156.598,386.679 2352.76,386.679 
  "/>
<polyline clip-path="url(#clip792)" style="stroke:#000000; stroke-linecap:butt; stroke-linejoin:round; stroke-width:2; stroke-opacity:0.1; fill:none" points="
  156.598,87.9763 2352.76,87.9763 
  "/>
<polyline clip-path="url(#clip790)" style="stroke:#000000; stroke-linecap:butt; stroke-linejoin:round; stroke-width:4; stroke-opacity:1; fill:none" points="
  156.598,1486.45 156.598,47.2441 
  "/>
<polyline clip-path="url(#clip790)" style="stroke:#000000; stroke-linecap:butt; stroke-linejoin:round; stroke-width:4; stroke-opacity:1; fill:none" points="
  156.598,1282.79 175.496,1282.79 
  "/>
<polyline clip-path="url(#clip790)" style="stroke:#000000; stroke-linecap:butt; stroke-linejoin:round; stroke-width:4; stroke-opacity:1; fill:none" points="
  156.598,984.084 175.496,984.084 
  "/>
<polyline clip-path="url(#clip790)" style="stroke:#000000; stroke-linecap:butt; stroke-linejoin:round; stroke-width:4; stroke-opacity:1; fill:none" points="
  156.598,685.382 175.496,685.382 
  "/>
<polyline clip-path="url(#clip790)" style="stroke:#000000; stroke-linecap:butt; stroke-linejoin:round; stroke-width:4; stroke-opacity:1; fill:none" points="
  156.598,386.679 175.496,386.679 
  "/>
<polyline clip-path="url(#clip790)" style="stroke:#000000; stroke-linecap:butt; stroke-linejoin:round; stroke-width:4; stroke-opacity:1; fill:none" points="
  156.598,87.9763 175.496,87.9763 
  "/>
<path clip-path="url(#clip790)" d="M65.0198 1268.59 Q61.4087 1268.59 59.58 1272.15 Q57.7745 1275.69 57.7745 1282.82 Q57.7745 1289.93 59.58 1293.49 Q61.4087 1297.03 65.0198 1297.03 Q68.6541 1297.03 70.4596 1293.49 Q72.2883 1289.93 72.2883 1282.82 Q72.2883 1275.69 70.4596 1272.15 Q68.6541 1268.59 65.0198 1268.59 M65.0198 1264.88 Q70.83 1264.88 73.8855 1269.49 Q76.9642 1274.07 76.9642 1282.82 Q76.9642 1291.55 73.8855 1296.15 Q70.83 1300.74 65.0198 1300.74 Q59.2097 1300.74 56.131 1296.15 Q53.0754 1291.55 53.0754 1282.82 Q53.0754 1274.07 56.131 1269.49 Q59.2097 1264.88 65.0198 1264.88 Z" fill="#000000" fill-rule="evenodd" fill-opacity="1" /><path clip-path="url(#clip790)" d="M85.1818 1294.19 L90.066 1294.19 L90.066 1300.07 L85.1818 1300.07 L85.1818 1294.19 Z" fill="#000000" fill-rule="evenodd" fill-opacity="1" /><path clip-path="url(#clip790)" d="M104.279 1296.13 L120.598 1296.13 L120.598 1300.07 L98.6539 1300.07 L98.6539 1296.13 Q101.316 1293.38 105.899 1288.75 Q110.506 1284.09 111.686 1282.75 Q113.932 1280.23 114.811 1278.49 Q115.714 1276.73 115.714 1275.04 Q115.714 1272.29 113.77 1270.55 Q111.848 1268.82 108.746 1268.82 Q106.547 1268.82 104.094 1269.58 Q101.663 1270.34 98.8854 1271.9 L98.8854 1267.17 Q101.709 1266.04 104.163 1265.46 Q106.617 1264.88 108.654 1264.88 Q114.024 1264.88 117.219 1267.57 Q120.413 1270.25 120.413 1274.74 Q120.413 1276.87 119.603 1278.79 Q118.816 1280.69 116.709 1283.28 Q116.131 1283.96 113.029 1287.17 Q109.927 1290.37 104.279 1296.13 Z" fill="#000000" fill-rule="evenodd" fill-opacity="1" /><path clip-path="url(#clip790)" d="M62.9365 969.883 Q59.3254 969.883 57.4967 973.448 Q55.6912 976.989 55.6912 984.119 Q55.6912 991.225 57.4967 994.79 Q59.3254 998.332 62.9365 998.332 Q66.5707 998.332 68.3763 994.79 Q70.205 991.225 70.205 984.119 Q70.205 976.989 68.3763 973.448 Q66.5707 969.883 62.9365 969.883 M62.9365 966.179 Q68.7467 966.179 71.8022 970.786 Q74.8809 975.369 74.8809 984.119 Q74.8809 992.846 71.8022 997.452 Q68.7467 1002.04 62.9365 1002.04 Q57.1264 1002.04 54.0477 997.452 Q50.9921 992.846 50.9921 984.119 Q50.9921 975.369 54.0477 970.786 Q57.1264 966.179 62.9365 966.179 Z" fill="#000000" fill-rule="evenodd" fill-opacity="1" /><path clip-path="url(#clip790)" d="M83.0984 995.485 L87.9827 995.485 L87.9827 1001.36 L83.0984 1001.36 L83.0984 995.485 Z" fill="#000000" fill-rule="evenodd" fill-opacity="1" /><path clip-path="url(#clip790)" d="M111.015 970.878 L99.2095 989.327 L111.015 989.327 L111.015 970.878 M109.788 966.804 L115.668 966.804 L115.668 989.327 L120.598 989.327 L120.598 993.216 L115.668 993.216 L115.668 1001.36 L111.015 1001.36 L111.015 993.216 L95.4132 993.216 L95.4132 988.702 L109.788 966.804 Z" fill="#000000" fill-rule="evenodd" fill-opacity="1" /><path clip-path="url(#clip790)" d="M63.2606 671.18 Q59.6495 671.18 57.8208 674.745 Q56.0152 678.287 56.0152 685.416 Q56.0152 692.523 57.8208 696.088 Q59.6495 699.629 63.2606 699.629 Q66.8948 699.629 68.7004 696.088 Q70.5291 692.523 70.5291 685.416 Q70.5291 678.287 68.7004 674.745 Q66.8948 671.18 63.2606 671.18 M63.2606 667.477 Q69.0707 667.477 72.1263 672.083 Q75.205 676.666 75.205 685.416 Q75.205 694.143 72.1263 698.75 Q69.0707 703.333 63.2606 703.333 Q57.4504 703.333 54.3717 698.75 Q51.3162 694.143 51.3162 685.416 Q51.3162 676.666 54.3717 672.083 Q57.4504 667.477 63.2606 667.477 Z" fill="#000000" fill-rule="evenodd" fill-opacity="1" /><path clip-path="url(#clip790)" d="M83.4225 696.782 L88.3067 696.782 L88.3067 702.662 L83.4225 702.662 L83.4225 696.782 Z" fill="#000000" fill-rule="evenodd" fill-opacity="1" /><path clip-path="url(#clip790)" d="M109.071 683.518 Q105.922 683.518 104.071 685.671 Q102.242 687.824 102.242 691.574 Q102.242 695.301 104.071 697.476 Q105.922 699.629 109.071 699.629 Q112.219 699.629 114.047 697.476 Q115.899 695.301 115.899 691.574 Q115.899 687.824 114.047 685.671 Q112.219 683.518 109.071 683.518 M118.353 668.866 L118.353 673.125 Q116.594 672.291 114.788 671.852 Q113.006 671.412 111.246 671.412 Q106.617 671.412 104.163 674.537 Q101.733 677.662 101.385 683.981 Q102.751 681.967 104.811 680.902 Q106.871 679.815 109.348 679.815 Q114.557 679.815 117.566 682.986 Q120.598 686.134 120.598 691.574 Q120.598 696.898 117.45 700.115 Q114.302 703.333 109.071 703.333 Q103.075 703.333 99.9039 698.75 Q96.7326 694.143 96.7326 685.416 Q96.7326 677.222 100.621 672.361 Q104.51 667.477 111.061 667.477 Q112.82 667.477 114.603 667.824 Q116.408 668.171 118.353 668.866 Z" fill="#000000" fill-rule="evenodd" fill-opacity="1" /><path clip-path="url(#clip790)" d="M63.5152 372.478 Q59.9041 372.478 58.0754 376.042 Q56.2699 379.584 56.2699 386.714 Q56.2699 393.82 58.0754 397.385 Q59.9041 400.927 63.5152 400.927 Q67.1494 400.927 68.955 397.385 Q70.7837 393.82 70.7837 386.714 Q70.7837 379.584 68.955 376.042 Q67.1494 372.478 63.5152 372.478 M63.5152 368.774 Q69.3254 368.774 72.3809 373.38 Q75.4596 377.964 75.4596 386.714 Q75.4596 395.44 72.3809 400.047 Q69.3254 404.63 63.5152 404.63 Q57.7051 404.63 54.6264 400.047 Q51.5708 395.44 51.5708 386.714 Q51.5708 377.964 54.6264 373.38 Q57.7051 368.774 63.5152 368.774 Z" fill="#000000" fill-rule="evenodd" fill-opacity="1" /><path clip-path="url(#clip790)" d="M83.6771 398.079 L88.5614 398.079 L88.5614 403.959 L83.6771 403.959 L83.6771 398.079 Z" fill="#000000" fill-rule="evenodd" fill-opacity="1" /><path clip-path="url(#clip790)" d="M108.746 387.547 Q105.413 387.547 103.492 389.329 Q101.594 391.112 101.594 394.237 Q101.594 397.362 103.492 399.144 Q105.413 400.927 108.746 400.927 Q112.08 400.927 114.001 399.144 Q115.922 397.339 115.922 394.237 Q115.922 391.112 114.001 389.329 Q112.103 387.547 108.746 387.547 M104.071 385.556 Q101.061 384.816 99.3715 382.755 Q97.7048 380.695 97.7048 377.732 Q97.7048 373.589 100.645 371.181 Q103.608 368.774 108.746 368.774 Q113.908 368.774 116.848 371.181 Q119.788 373.589 119.788 377.732 Q119.788 380.695 118.098 382.755 Q116.432 384.816 113.445 385.556 Q116.825 386.343 118.7 388.635 Q120.598 390.927 120.598 394.237 Q120.598 399.26 117.52 401.945 Q114.464 404.63 108.746 404.63 Q103.029 404.63 99.9502 401.945 Q96.8947 399.26 96.8947 394.237 Q96.8947 390.927 98.7928 388.635 Q100.691 386.343 104.071 385.556 M102.358 378.172 Q102.358 380.857 104.024 382.362 Q105.714 383.866 108.746 383.866 Q111.756 383.866 113.445 382.362 Q115.158 380.857 115.158 378.172 Q115.158 375.487 113.445 373.982 Q111.756 372.478 108.746 372.478 Q105.714 372.478 104.024 373.982 Q102.358 375.487 102.358 378.172 Z" fill="#000000" fill-rule="evenodd" fill-opacity="1" /><path clip-path="url(#clip790)" d="M54.2328 101.321 L61.8717 101.321 L61.8717 74.9555 L53.5616 76.6222 L53.5616 72.3629 L61.8254 70.6963 L66.5013 70.6963 L66.5013 101.321 L74.1402 101.321 L74.1402 105.256 L54.2328 105.256 L54.2328 101.321 Z" fill="#000000" fill-rule="evenodd" fill-opacity="1" /><path clip-path="url(#clip790)" d="M83.5845 99.3767 L88.4688 99.3767 L88.4688 105.256 L83.5845 105.256 L83.5845 99.3767 Z" fill="#000000" fill-rule="evenodd" fill-opacity="1" /><path clip-path="url(#clip790)" d="M108.654 73.775 Q105.043 73.775 103.214 77.3398 Q101.409 80.8814 101.409 88.011 Q101.409 95.1174 103.214 98.6822 Q105.043 102.224 108.654 102.224 Q112.288 102.224 114.094 98.6822 Q115.922 95.1174 115.922 88.011 Q115.922 80.8814 114.094 77.3398 Q112.288 73.775 108.654 73.775 M108.654 70.0713 Q114.464 70.0713 117.52 74.6777 Q120.598 79.261 120.598 88.011 Q120.598 96.7378 117.52 101.344 Q114.464 105.928 108.654 105.928 Q102.844 105.928 99.765 101.344 Q96.7095 96.7378 96.7095 88.011 Q96.7095 79.261 99.765 74.6777 Q102.844 70.0713 108.654 70.0713 Z" fill="#000000" fill-rule="evenodd" fill-opacity="1" /><circle clip-path="url(#clip792)" cx="218.754" cy="1445.72" r="14" fill="#009af9" fill-rule="evenodd" fill-opacity="1" stroke="#000000" stroke-opacity="1" stroke-width="3.2"/>
<circle clip-path="url(#clip792)" cx="244.726" cy="1439.32" r="14" fill="#009af9" fill-rule="evenodd" fill-opacity="1" stroke="#000000" stroke-opacity="1" stroke-width="3.2"/>
<circle clip-path="url(#clip792)" cx="321.342" cy="1417.68" r="14" fill="#009af9" fill-rule="evenodd" fill-opacity="1" stroke="#000000" stroke-opacity="1" stroke-width="3.2"/>
<circle clip-path="url(#clip792)" cx="444.76" cy="1371.51" r="14" fill="#009af9" fill-rule="evenodd" fill-opacity="1" stroke="#000000" stroke-opacity="1" stroke-width="3.2"/>
<circle clip-path="url(#clip792)" cx="608.789" cy="1275.9" r="14" fill="#009af9" fill-rule="evenodd" fill-opacity="1" stroke="#000000" stroke-opacity="1" stroke-width="3.2"/>
<circle clip-path="url(#clip792)" cx="805.207" cy="1063.37" r="14" fill="#009af9" fill-rule="evenodd" fill-opacity="1" stroke="#000000" stroke-opacity="1" stroke-width="3.2"/>
<circle clip-path="url(#clip792)" cx="1024.16" cy="582.588" r="14" fill="#009af9" fill-rule="evenodd" fill-opacity="1" stroke="#000000" stroke-opacity="1" stroke-width="3.2"/>
<circle clip-path="url(#clip792)" cx="1254.68" cy="87.9763" r="14" fill="#009af9" fill-rule="evenodd" fill-opacity="1" stroke="#000000" stroke-opacity="1" stroke-width="3.2"/>
<circle clip-path="url(#clip792)" cx="1485.19" cy="582.588" r="14" fill="#009af9" fill-rule="evenodd" fill-opacity="1" stroke="#000000" stroke-opacity="1" stroke-width="3.2"/>
<circle clip-path="url(#clip792)" cx="1704.15" cy="1063.37" r="14" fill="#009af9" fill-rule="evenodd" fill-opacity="1" stroke="#000000" stroke-opacity="1" stroke-width="3.2"/>
<circle clip-path="url(#clip792)" cx="1900.56" cy="1275.9" r="14" fill="#009af9" fill-rule="evenodd" fill-opacity="1" stroke="#000000" stroke-opacity="1" stroke-width="3.2"/>
<circle clip-path="url(#clip792)" cx="2064.59" cy="1371.51" r="14" fill="#009af9" fill-rule="evenodd" fill-opacity="1" stroke="#000000" stroke-opacity="1" stroke-width="3.2"/>
<circle clip-path="url(#clip792)" cx="2188.01" cy="1417.68" r="14" fill="#009af9" fill-rule="evenodd" fill-opacity="1" stroke="#000000" stroke-opacity="1" stroke-width="3.2"/>
<circle clip-path="url(#clip792)" cx="2264.63" cy="1439.32" r="14" fill="#009af9" fill-rule="evenodd" fill-opacity="1" stroke="#000000" stroke-opacity="1" stroke-width="3.2"/>
<circle clip-path="url(#clip792)" cx="2290.6" cy="1445.72" r="14" fill="#009af9" fill-rule="evenodd" fill-opacity="1" stroke="#000000" stroke-opacity="1" stroke-width="3.2"/>
<polyline clip-path="url(#clip792)" style="stroke:#e26f46; stroke-linecap:butt; stroke-linejoin:round; stroke-width:4; stroke-opacity:1; fill:none" points="
  218.754,1445.72 228.87,1443.27 238.987,1440.77 332.53,1414.13 426.073,1379.61 482.288,1353.79 538.504,1323.07 586.033,1292.39 633.562,1256.45 685.193,1210.16 
  736.823,1154.64 784.422,1093.52 832.02,1021 857.535,976.761 883.051,928.427 908.566,875.766 934.081,818.624 993.205,669.186 1052.33,500.44 1104.87,346.284 
  1157.41,208.968 1180.45,160.907 1203.49,123.573 1226.53,98.9239 1249.56,88.34 1274.68,93.525 1299.8,115.784 1324.92,153.619 1350.03,204.637 1400.57,335.159 
  1451.1,482.929 1506.97,644.018 1562.84,789.139 1589.42,850.862 1616,907.689 1642.58,959.742 1669.16,1007.25 1724.43,1092.82 1779.7,1162.98 1826.23,1212.18 
  1872.76,1253.96 1929.57,1296.7 1986.37,1332.11 2039.77,1360.02 2093.17,1383.71 2178.72,1414.74 2264.27,1439.22 2277.43,1442.52 2290.6,1445.72 
  "/>
<polyline clip-path="url(#clip792)" style="stroke:#3da44d; stroke-linecap:butt; stroke-linejoin:round; stroke-width:4; stroke-opacity:1; fill:none" points="
  218.754,1445.72 228.87,1441.91 238.987,1440.01 332.53,1412.38 426.073,1376.6 482.288,1359.99 538.504,1332.58 586.033,1296.66 633.562,1251.5 736.823,1142.28 
  832.02,1027.28 857.535,988.347 883.051,943.839 908.566,892.925 934.081,835.172 993.205,676.381 1052.33,494.362 1078.6,412.503 1104.87,334.041 1131.14,262.01 
  1157.41,199.365 1180.45,154.284 1203.49,120.022 1226.53,97.7673 1249.56,88.3006 1274.68,92.9316 1299.8,112.958 1324.92,147.543 1350.03,195.258 1375.3,254.552 
  1400.57,322.82 1425.83,397.454 1451.1,475.753 1479.03,563.422 1506.97,649.122 1534.9,730.16 1562.84,804.546 1589.42,868.044 1616,924.081 1642.58,972.922 
  1669.16,1015.35 1724.43,1088.22 1779.7,1150.03 1826.23,1199.74 1872.76,1248.42 1929.57,1302.01 1986.37,1341.75 2039.77,1364.27 2093.17,1379.38 2178.72,1413.29 
  2264.27,1439.28 2277.43,1441.2 2290.6,1445.72 
  "/>
<path clip-path="url(#clip790)" d="
M1982.52 302.578 L2279.55 302.578 L2279.55 95.2176 L1982.52 95.2176  Z
  " fill="#ffffff" fill-rule="evenodd" fill-opacity="1"/>
<polyline clip-path="url(#clip790)" style="stroke:#000000; stroke-linecap:butt; stroke-linejoin:round; stroke-width:4; stroke-opacity:1; fill:none" points="
  1982.52,302.578 2279.55,302.578 2279.55,95.2176 1982.52,95.2176 1982.52,302.578 
  "/>
<circle clip-path="url(#clip790)" cx="2080.13" cy="147.058" r="23" fill="#009af9" fill-rule="evenodd" fill-opacity="1" stroke="#000000" stroke-opacity="1" stroke-width="5.12"/>
<path clip-path="url(#clip790)" d="M2191.58 166.745 Q2189.78 171.375 2188.06 172.787 Q2186.35 174.199 2183.48 174.199 L2180.08 174.199 L2180.08 170.634 L2182.58 170.634 Q2184.34 170.634 2185.31 169.8 Q2186.28 168.967 2187.46 165.865 L2188.22 163.921 L2177.74 138.412 L2182.25 138.412 L2190.35 158.689 L2198.46 138.412 L2202.97 138.412 L2191.58 166.745 Z" fill="#000000" fill-rule="evenodd" fill-opacity="1" /><path clip-path="url(#clip790)" d="M2210.26 160.402 L2217.9 160.402 L2217.9 134.037 L2209.59 135.703 L2209.59 131.444 L2217.85 129.778 L2222.53 129.778 L2222.53 160.402 L2230.17 160.402 L2230.17 164.338 L2210.26 164.338 L2210.26 160.402 Z" fill="#000000" fill-rule="evenodd" fill-opacity="1" /><polyline clip-path="url(#clip790)" style="stroke:#e26f46; stroke-linecap:butt; stroke-linejoin:round; stroke-width:4; stroke-opacity:1; fill:none" points="
  2006.93,198.898 2153.34,198.898 
  "/>
<path clip-path="url(#clip790)" d="M2191.58 218.585 Q2189.78 223.215 2188.06 224.627 Q2186.35 226.039 2183.48 226.039 L2180.08 226.039 L2180.08 222.474 L2182.58 222.474 Q2184.34 222.474 2185.31 221.64 Q2186.28 220.807 2187.46 217.705 L2188.22 215.761 L2177.74 190.252 L2182.25 190.252 L2190.35 210.529 L2198.46 190.252 L2202.97 190.252 L2191.58 218.585 Z" fill="#000000" fill-rule="evenodd" fill-opacity="1" /><path clip-path="url(#clip790)" d="M2213.48 212.242 L2229.8 212.242 L2229.8 216.178 L2207.85 216.178 L2207.85 212.242 Q2210.52 209.488 2215.1 204.858 Q2219.71 200.205 2220.89 198.863 Q2223.13 196.34 2224.01 194.604 Q2224.91 192.844 2224.91 191.155 Q2224.91 188.4 2222.97 186.664 Q2221.05 184.928 2217.95 184.928 Q2215.75 184.928 2213.29 185.692 Q2210.86 186.455 2208.09 188.006 L2208.09 183.284 Q2210.91 182.15 2213.36 181.571 Q2215.82 180.993 2217.85 180.993 Q2223.22 180.993 2226.42 183.678 Q2229.61 186.363 2229.61 190.854 Q2229.61 192.983 2228.8 194.905 Q2228.02 196.803 2225.91 199.395 Q2225.33 200.067 2222.23 203.284 Q2219.13 206.479 2213.48 212.242 Z" fill="#000000" fill-rule="evenodd" fill-opacity="1" /><polyline clip-path="url(#clip790)" style="stroke:#3da44d; stroke-linecap:butt; stroke-linejoin:round; stroke-width:4; stroke-opacity:1; fill:none" points="
  2006.93,250.738 2153.34,250.738 
  "/>
<path clip-path="url(#clip790)" d="M2191.58 270.425 Q2189.78 275.055 2188.06 276.467 Q2186.35 277.879 2183.48 277.879 L2180.08 277.879 L2180.08 274.314 L2182.58 274.314 Q2184.34 274.314 2185.31 273.48 Q2186.28 272.647 2187.46 269.545 L2188.22 267.601 L2177.74 242.092 L2182.25 242.092 L2190.35 262.369 L2198.46 242.092 L2202.97 242.092 L2191.58 270.425 Z" fill="#000000" fill-rule="evenodd" fill-opacity="1" /><path clip-path="url(#clip790)" d="M2223.62 249.383 Q2226.97 250.101 2228.85 252.369 Q2230.75 254.638 2230.75 257.971 Q2230.75 263.087 2227.23 265.888 Q2223.71 268.689 2217.23 268.689 Q2215.05 268.689 2212.74 268.249 Q2210.45 267.832 2207.99 266.976 L2207.99 262.462 Q2209.94 263.596 2212.25 264.175 Q2214.57 264.754 2217.09 264.754 Q2221.49 264.754 2223.78 263.018 Q2226.09 261.281 2226.09 257.971 Q2226.09 254.916 2223.94 253.203 Q2221.81 251.467 2217.99 251.467 L2213.96 251.467 L2213.96 247.624 L2218.18 247.624 Q2221.63 247.624 2223.46 246.258 Q2225.28 244.87 2225.28 242.277 Q2225.28 239.615 2223.39 238.203 Q2221.51 236.768 2217.99 236.768 Q2216.07 236.768 2213.87 237.184 Q2211.67 237.601 2209.03 238.481 L2209.03 234.314 Q2211.7 233.573 2214.01 233.203 Q2216.35 232.833 2218.41 232.833 Q2223.73 232.833 2226.84 235.263 Q2229.94 237.67 2229.94 241.791 Q2229.94 244.661 2228.29 246.652 Q2226.65 248.62 2223.62 249.383 Z" fill="#000000" fill-rule="evenodd" fill-opacity="1" /></svg>
