<?xml version="1.0" encoding="utf-8"?>
<svg xmlns="http://www.w3.org/2000/svg" xmlns:xlink="http://www.w3.org/1999/xlink" width="600" height="400" viewBox="0 0 2400 1600">
<defs>
  <clipPath id="clip140">
    <rect x="0" y="0" width="2400" height="1600"/>
  </clipPath>
</defs>
<path clip-path="url(#clip140)" d="
M0 1600 L2400 1600 L2400 0 L0 0  Z
  " fill="#ffffff" fill-rule="evenodd" fill-opacity="1"/>
<defs>
  <clipPath id="clip141">
    <rect x="480" y="0" width="1681" height="1600"/>
  </clipPath>
</defs>
<path clip-path="url(#clip140)" d="
M213.607 1486.45 L2352.76 1486.45 L2352.76 47.2441 L213.607 47.2441  Z
  " fill="#ffffff" fill-rule="evenodd" fill-opacity="1"/>
<defs>
  <clipPath id="clip142">
    <rect x="213" y="47" width="2140" height="1440"/>
  </clipPath>
</defs>
<polyline clip-path="url(#clip142)" style="stroke:#000000; stroke-linecap:butt; stroke-linejoin:round; stroke-width:2; stroke-opacity:0.1; fill:none" points="
  699.005,1486.45 699.005,47.2441 
  "/>
<polyline clip-path="url(#clip142)" style="stroke:#000000; stroke-linecap:butt; stroke-linejoin:round; stroke-width:2; stroke-opacity:0.1; fill:none" points="
  1230.07,1486.45 1230.07,47.2441 
  "/>
<polyline clip-path="url(#clip142)" style="stroke:#000000; stroke-linecap:butt; stroke-linejoin:round; stroke-width:2; stroke-opacity:0.1; fill:none" points="
  1761.14,1486.45 1761.14,47.2441 
  "/>
<polyline clip-path="url(#clip142)" style="stroke:#000000; stroke-linecap:butt; stroke-linejoin:round; stroke-width:2; stroke-opacity:0.1; fill:none" points="
  2292.21,1486.45 2292.21,47.2441 
  "/>
<polyline clip-path="url(#clip140)" style="stroke:#000000; stroke-linecap:butt; stroke-linejoin:round; stroke-width:4; stroke-opacity:1; fill:none" points="
  213.607,1486.45 2352.76,1486.45 
  "/>
<polyline clip-path="url(#clip140)" style="stroke:#000000; stroke-linecap:butt; stroke-linejoin:round; stroke-width:4; stroke-opacity:1; fill:none" points="
  699.005,1486.45 699.005,1467.55 
  "/>
<polyline clip-path="url(#clip140)" style="stroke:#000000; stroke-linecap:butt; stroke-linejoin:round; stroke-width:4; stroke-opacity:1; fill:none" points="
  1230.07,1486.45 1230.07,1467.55 
  "/>
<polyline clip-path="url(#clip140)" style="stroke:#000000; stroke-linecap:butt; stroke-linejoin:round; stroke-width:4; stroke-opacity:1; fill:none" points="
  1761.14,1486.45 1761.14,1467.55 
  "/>
<polyline clip-path="url(#clip140)" style="stroke:#000000; stroke-linecap:butt; stroke-linejoin:round; stroke-width:4; stroke-opacity:1; fill:none" points="
  2292.21,1486.45 2292.21,1467.55 
  "/>
<path clip-path="url(#clip140)" d="M689.283 1512.56 L707.639 1512.56 L707.639 1516.5 L693.565 1516.5 L693.565 1524.97 Q694.584 1524.62 695.602 1524.46 Q696.621 1524.27 697.639 1524.27 Q703.426 1524.27 706.806 1527.44 Q710.186 1530.62 710.186 1536.03 Q710.186 1541.61 706.713 1544.71 Q703.241 1547.79 696.922 1547.79 Q694.746 1547.79 692.477 1547.42 Q690.232 1547.05 687.825 1546.31 L687.825 1541.61 Q689.908 1542.74 692.13 1543.3 Q694.352 1543.86 696.829 1543.86 Q700.834 1543.86 703.172 1541.75 Q705.51 1539.64 705.51 1536.03 Q705.51 1532.42 703.172 1530.31 Q700.834 1528.21 696.829 1528.21 Q694.954 1528.21 693.079 1528.62 Q691.227 1529.04 689.283 1529.92 L689.283 1512.56 Z" fill="#000000" fill-rule="evenodd" fill-opacity="1" /><path clip-path="url(#clip140)" d="M1204.76 1543.18 L1212.4 1543.18 L1212.4 1516.82 L1204.09 1518.49 L1204.09 1514.23 L1212.35 1512.56 L1217.03 1512.56 L1217.03 1543.18 L1224.67 1543.18 L1224.67 1547.12 L1204.76 1547.12 L1204.76 1543.18 Z" fill="#000000" fill-rule="evenodd" fill-opacity="1" /><path clip-path="url(#clip140)" d="M1244.11 1515.64 Q1240.5 1515.64 1238.67 1519.2 Q1236.87 1522.75 1236.87 1529.87 Q1236.87 1536.98 1238.67 1540.55 Q1240.5 1544.09 1244.11 1544.09 Q1247.75 1544.09 1249.55 1540.55 Q1251.38 1536.98 1251.38 1529.87 Q1251.38 1522.75 1249.55 1519.2 Q1247.75 1515.64 1244.11 1515.64 M1244.11 1511.93 Q1249.92 1511.93 1252.98 1516.54 Q1256.06 1521.12 1256.06 1529.87 Q1256.06 1538.6 1252.98 1543.21 Q1249.92 1547.79 1244.11 1547.79 Q1238.3 1547.79 1235.23 1543.21 Q1232.17 1538.6 1232.17 1529.87 Q1232.17 1521.12 1235.23 1516.54 Q1238.3 1511.93 1244.11 1511.93 Z" fill="#000000" fill-rule="evenodd" fill-opacity="1" /><path clip-path="url(#clip140)" d="M1736.33 1543.18 L1743.97 1543.18 L1743.97 1516.82 L1735.66 1518.49 L1735.66 1514.23 L1743.92 1512.56 L1748.6 1512.56 L1748.6 1543.18 L1756.24 1543.18 L1756.24 1547.12 L1736.33 1547.12 L1736.33 1543.18 Z" fill="#000000" fill-rule="evenodd" fill-opacity="1" /><path clip-path="url(#clip140)" d="M1765.73 1512.56 L1784.08 1512.56 L1784.08 1516.5 L1770.01 1516.5 L1770.01 1524.97 Q1771.03 1524.62 1772.05 1524.46 Q1773.07 1524.27 1774.08 1524.27 Q1779.87 1524.27 1783.25 1527.44 Q1786.63 1530.62 1786.63 1536.03 Q1786.63 1541.61 1783.16 1544.71 Q1779.69 1547.79 1773.37 1547.79 Q1771.19 1547.79 1768.92 1547.42 Q1766.68 1547.05 1764.27 1546.31 L1764.27 1541.61 Q1766.35 1542.74 1768.57 1543.3 Q1770.8 1543.86 1773.27 1543.86 Q1777.28 1543.86 1779.62 1541.75 Q1781.95 1539.64 1781.95 1536.03 Q1781.95 1532.42 1779.62 1530.31 Q1777.28 1528.21 1773.27 1528.21 Q1771.4 1528.21 1769.52 1528.62 Q1767.67 1529.04 1765.73 1529.92 L1765.73 1512.56 Z" fill="#000000" fill-rule="evenodd" fill-opacity="1" /><path clip-path="url(#clip140)" d="M2270.99 1543.18 L2287.31 1543.18 L2287.31 1547.12 L2265.36 1547.12 L2265.36 1543.18 Q2268.02 1540.43 2272.61 1535.8 Q2277.21 1531.15 2278.39 1529.81 Q2280.64 1527.28 2281.52 1525.55 Q2282.42 1523.79 2282.42 1522.1 Q2282.42 1519.34 2280.48 1517.61 Q2278.56 1515.87 2275.45 1515.87 Q2273.26 1515.87 2270.8 1516.63 Q2268.37 1517.4 2265.59 1518.95 L2265.59 1514.23 Q2268.42 1513.09 2270.87 1512.51 Q2273.33 1511.93 2275.36 1511.93 Q2280.73 1511.93 2283.93 1514.62 Q2287.12 1517.31 2287.12 1521.8 Q2287.12 1523.93 2286.31 1525.85 Q2285.52 1527.74 2283.42 1530.34 Q2282.84 1531.01 2279.74 1534.23 Q2276.64 1537.42 2270.99 1543.18 Z" fill="#000000" fill-rule="evenodd" fill-opacity="1" /><path clip-path="url(#clip140)" d="M2307.12 1515.64 Q2303.51 1515.64 2301.68 1519.2 Q2299.88 1522.75 2299.88 1529.87 Q2299.88 1536.98 2301.68 1540.55 Q2303.51 1544.09 2307.12 1544.09 Q2310.76 1544.09 2312.56 1540.55 Q2314.39 1536.98 2314.39 1529.87 Q2314.39 1522.75 2312.56 1519.2 Q2310.76 1515.64 2307.12 1515.64 M2307.12 1511.93 Q2312.93 1511.93 2315.99 1516.54 Q2319.07 1521.12 2319.07 1529.87 Q2319.07 1538.6 2315.99 1543.21 Q2312.93 1547.79 2307.12 1547.79 Q2301.31 1547.79 2298.23 1543.21 Q2295.18 1538.6 2295.18 1529.87 Q2295.18 1521.12 2298.23 1516.54 Q2301.31 1511.93 2307.12 1511.93 Z" fill="#000000" fill-rule="evenodd" fill-opacity="1" /><polyline clip-path="url(#clip142)" style="stroke:#000000; stroke-linecap:butt; stroke-linejoin:round; stroke-width:2; stroke-opacity:0.1; fill:none" points="
  213.607,1219.02 2352.76,1219.02 
  "/>
<polyline clip-path="url(#clip142)" style="stroke:#000000; stroke-linecap:butt; stroke-linejoin:round; stroke-width:2; stroke-opacity:0.1; fill:none" points="
  213.607,739.246 2352.76,739.246 
  "/>
<polyline clip-path="url(#clip142)" style="stroke:#000000; stroke-linecap:butt; stroke-linejoin:round; stroke-width:2; stroke-opacity:0.1; fill:none" points="
  213.607,259.477 2352.76,259.477 
  "/>
<polyline clip-path="url(#clip140)" style="stroke:#000000; stroke-linecap:butt; stroke-linejoin:round; stroke-width:4; stroke-opacity:1; fill:none" points="
  213.607,1486.45 213.607,47.2441 
  "/>
<polyline clip-path="url(#clip140)" style="stroke:#000000; stroke-linecap:butt; stroke-linejoin:round; stroke-width:4; stroke-opacity:1; fill:none" points="
  213.607,1219.02 232.505,1219.02 
  "/>
<polyline clip-path="url(#clip140)" style="stroke:#000000; stroke-linecap:butt; stroke-linejoin:round; stroke-width:4; stroke-opacity:1; fill:none" points="
  213.607,739.246 232.505,739.246 
  "/>
<polyline clip-path="url(#clip140)" style="stroke:#000000; stroke-linecap:butt; stroke-linejoin:round; stroke-width:4; stroke-opacity:1; fill:none" points="
  213.607,259.477 232.505,259.477 
  "/>
<path clip-path="url(#clip140)" d="M51.6634 1238.81 L59.3023 1238.81 L59.3023 1212.44 L50.9921 1214.11 L50.9921 1209.85 L59.256 1208.18 L63.9319 1208.18 L63.9319 1238.81 L71.5707 1238.81 L71.5707 1242.74 L51.6634 1242.74 L51.6634 1238.81 Z" fill="#000000" fill-rule="evenodd" fill-opacity="1" /><path clip-path="url(#clip140)" d="M91.0151 1211.26 Q87.404 1211.26 85.5753 1214.83 Q83.7697 1218.37 83.7697 1225.5 Q83.7697 1232.6 85.5753 1236.17 Q87.404 1239.71 91.0151 1239.71 Q94.6493 1239.71 96.4548 1236.17 Q98.2835 1232.6 98.2835 1225.5 Q98.2835 1218.37 96.4548 1214.83 Q94.6493 1211.26 91.0151 1211.26 M91.0151 1207.56 Q96.8252 1207.56 99.8808 1212.16 Q102.959 1216.75 102.959 1225.5 Q102.959 1234.22 99.8808 1238.83 Q96.8252 1243.41 91.0151 1243.41 Q85.2049 1243.41 82.1262 1238.83 Q79.0707 1234.22 79.0707 1225.5 Q79.0707 1216.75 82.1262 1212.16 Q85.2049 1207.56 91.0151 1207.56 Z" fill="#000000" fill-rule="evenodd" fill-opacity="1" /><path clip-path="url(#clip140)" d="M102.959 1201.66 L127.071 1201.66 L127.071 1204.86 L102.959 1204.86 L102.959 1201.66 Z" fill="#000000" fill-rule="evenodd" fill-opacity="1" /><path clip-path="url(#clip140)" d="M135.929 1212.14 L142.136 1212.14 L142.136 1190.71 L135.384 1192.07 L135.384 1188.61 L142.098 1187.25 L145.898 1187.25 L145.898 1212.14 L152.104 1212.14 L152.104 1215.33 L135.929 1215.33 L135.929 1212.14 Z" fill="#000000" fill-rule="evenodd" fill-opacity="1" /><path clip-path="url(#clip140)" d="M167.903 1189.75 Q164.969 1189.75 163.483 1192.65 Q162.016 1195.53 162.016 1201.32 Q162.016 1207.09 163.483 1209.99 Q164.969 1212.87 167.903 1212.87 Q170.855 1212.87 172.322 1209.99 Q173.808 1207.09 173.808 1201.32 Q173.808 1195.53 172.322 1192.65 Q170.855 1189.75 167.903 1189.75 M167.903 1186.74 Q172.623 1186.74 175.106 1190.49 Q177.607 1194.21 177.607 1201.32 Q177.607 1208.41 175.106 1212.15 Q172.623 1215.88 167.903 1215.88 Q163.182 1215.88 160.68 1212.15 Q158.198 1208.41 158.198 1201.32 Q158.198 1194.21 160.68 1190.49 Q163.182 1186.74 167.903 1186.74 Z" fill="#000000" fill-rule="evenodd" fill-opacity="1" /><path clip-path="url(#clip140)" d="M76.9787 759.038 L84.6175 759.038 L84.6175 732.673 L76.3074 734.339 L76.3074 730.08 L84.5712 728.413 L89.2471 728.413 L89.2471 759.038 L96.886 759.038 L96.886 762.973 L76.9787 762.973 L76.9787 759.038 Z" fill="#000000" fill-rule="evenodd" fill-opacity="1" /><path clip-path="url(#clip140)" d="M116.33 731.492 Q112.719 731.492 110.891 735.057 Q109.085 738.599 109.085 745.728 Q109.085 752.835 110.891 756.399 Q112.719 759.941 116.33 759.941 Q119.965 759.941 121.77 756.399 Q123.599 752.835 123.599 745.728 Q123.599 738.599 121.77 735.057 Q119.965 731.492 116.33 731.492 M116.33 727.788 Q122.14 727.788 125.196 732.395 Q128.275 736.978 128.275 745.728 Q128.275 754.455 125.196 759.061 Q122.14 763.645 116.33 763.645 Q110.52 763.645 107.441 759.061 Q104.386 754.455 104.386 745.728 Q104.386 736.978 107.441 732.395 Q110.52 727.788 116.33 727.788 Z" fill="#000000" fill-rule="evenodd" fill-opacity="1" /><path clip-path="url(#clip140)" d="M128.275 721.89 L152.386 721.89 L152.386 725.087 L128.275 725.087 L128.275 721.89 Z" fill="#000000" fill-rule="evenodd" fill-opacity="1" /><path clip-path="url(#clip140)" d="M160.624 707.483 L175.539 707.483 L175.539 710.68 L164.103 710.68 L164.103 717.564 Q164.931 717.282 165.759 717.15 Q166.586 717 167.414 717 Q172.116 717 174.862 719.576 Q177.607 722.153 177.607 726.554 Q177.607 731.087 174.786 733.607 Q171.965 736.108 166.831 736.108 Q165.063 736.108 163.22 735.808 Q161.395 735.507 159.439 734.905 L159.439 731.087 Q161.132 732.008 162.937 732.46 Q164.743 732.911 166.755 732.911 Q170.009 732.911 171.909 731.2 Q173.808 729.488 173.808 726.554 Q173.808 723.62 171.909 721.909 Q170.009 720.197 166.755 720.197 Q165.232 720.197 163.709 720.536 Q162.204 720.874 160.624 721.589 L160.624 707.483 Z" fill="#000000" fill-rule="evenodd" fill-opacity="1" /><path clip-path="url(#clip140)" d="M106.902 279.269 L114.541 279.269 L114.541 252.903 L106.231 254.57 L106.231 250.311 L114.494 248.644 L119.17 248.644 L119.17 279.269 L126.809 279.269 L126.809 283.204 L106.902 283.204 L106.902 279.269 Z" fill="#000000" fill-rule="evenodd" fill-opacity="1" /><path clip-path="url(#clip140)" d="M146.253 251.723 Q142.642 251.723 140.814 255.288 Q139.008 258.829 139.008 265.959 Q139.008 273.065 140.814 276.63 Q142.642 280.172 146.253 280.172 Q149.888 280.172 151.693 276.63 Q153.522 273.065 153.522 265.959 Q153.522 258.829 151.693 255.288 Q149.888 251.723 146.253 251.723 M146.253 248.019 Q152.064 248.019 155.119 252.626 Q158.198 257.209 158.198 265.959 Q158.198 274.686 155.119 279.292 Q152.064 283.875 146.253 283.875 Q140.443 283.875 137.365 279.292 Q134.309 274.686 134.309 265.959 Q134.309 257.209 137.365 252.626 Q140.443 248.019 146.253 248.019 Z" fill="#000000" fill-rule="evenodd" fill-opacity="1" /><path clip-path="url(#clip140)" d="M167.903 230.215 Q164.969 230.215 163.483 233.112 Q162.016 235.989 162.016 241.782 Q162.016 247.556 163.483 250.452 Q164.969 253.33 167.903 253.33 Q170.855 253.33 172.322 250.452 Q173.808 247.556 173.808 241.782 Q173.808 235.989 172.322 233.112 Q170.855 230.215 167.903 230.215 M167.903 227.206 Q172.623 227.206 175.106 230.949 Q177.607 234.673 177.607 241.782 Q177.607 248.872 175.106 252.615 Q172.623 256.339 167.903 256.339 Q163.182 256.339 160.68 252.615 Q158.198 248.872 158.198 241.782 Q158.198 234.673 160.68 230.949 Q163.182 227.206 167.903 227.206 Z" fill="#000000" fill-rule="evenodd" fill-opacity="1" /><polyline clip-path="url(#clip142)" style="stroke:#009af9; stroke-linecap:butt; stroke-linejoin:round; stroke-width:4; stroke-opacity:1; fill:none" points="
  274.149,87.9763 380.363,226.155 486.577,302.079 592.791,370.807 699.005,438.203 805.219,505.337 911.433,572.419 1017.65,639.491 1123.86,706.56 1230.07,773.629 
  1336.29,840.698 1442.5,907.767 1548.72,974.836 1654.93,1041.9 1761.14,1108.97 1867.36,1176.05 1973.57,1243.12 2079.79,1310.18 2186,1377.39 2292.21,1445.72 
  
  "/>
<circle clip-path="url(#clip142)" cx="274.149" cy="87.9763" r="14" fill="#009af9" fill-rule="evenodd" fill-opacity="1" stroke="#000000" stroke-opacity="1" stroke-width="3.2"/>
<circle clip-path="url(#clip142)" cx="380.363" cy="226.155" r="14" fill="#009af9" fill-rule="evenodd" fill-opacity="1" stroke="#000000" stroke-opacity="1" stroke-width="3.2"/>
<circle clip-path="url(#clip142)" cx="486.577" cy="302.079" r="14" fill="#009af9" fill-rule="evenodd" fill-opacity="1" stroke="#000000" stroke-opacity="1" stroke-width="3.2"/>
<circle clip-path="url(#clip142)" cx="592.791" cy="370.807" r="14" fill="#009af9" fill-rule="evenodd" fill-opacity="1" stroke="#000000" stroke-opacity="1" stroke-width="3.2"/>
<circle clip-path="url(#clip142)" cx="699.005" cy="438.203" r="14" fill="#009af9" fill-rule="evenodd" fill-opacity="1" stroke="#000000" stroke-opacity="1" stroke-width="3.2"/>
<circle clip-path="url(#clip142)" cx="805.219" cy="505.337" r="14" fill="#009af9" fill-rule="evenodd" fill-opacity="1" stroke="#000000" stroke-opacity="1" stroke-width="3.2"/>
<circle clip-path="url(#clip142)" cx="911.433" cy="572.419" r="14" fill="#009af9" fill-rule="evenodd" fill-opacity="1" stroke="#000000" stroke-opacity="1" stroke-width="3.2"/>
<circle clip-path="url(#clip142)" cx="1017.65" cy="639.491" r="14" fill="#009af9" fill-rule="evenodd" fill-opacity="1" stroke="#000000" stroke-opacity="1" stroke-width="3.2"/>
<circle clip-path="url(#clip142)" cx="1123.86" cy="706.56" r="14" fill="#009af9" fill-rule="evenodd" fill-opacity="1" stroke="#000000" stroke-opacity="1" stroke-width="3.2"/>
<circle clip-path="url(#clip142)" cx="1230.07" cy="773.629" r="14" fill="#009af9" fill-rule="evenodd" fill-opacity="1" stroke="#000000" stroke-opacity="1" stroke-width="3.2"/>
<circle clip-path="url(#clip142)" cx="1336.29" cy="840.698" r="14" fill="#009af9" fill-rule="evenodd" fill-opacity="1" stroke="#000000" stroke-opacity="1" stroke-width="3.2"/>
<circle clip-path="url(#clip142)" cx="1442.5" cy="907.767" r="14" fill="#009af9" fill-rule="evenodd" fill-opacity="1" stroke="#000000" stroke-opacity="1" stroke-width="3.2"/>
<circle clip-path="url(#clip142)" cx="1548.72" cy="974.836" r="14" fill="#009af9" fill-rule="evenodd" fill-opacity="1" stroke="#000000" stroke-opacity="1" stroke-width="3.2"/>
<circle clip-path="url(#clip142)" cx="1654.93" cy="1041.9" r="14" fill="#009af9" fill-rule="evenodd" fill-opacity="1" stroke="#000000" stroke-opacity="1" stroke-width="3.2"/>
<circle clip-path="url(#clip142)" cx="1761.14" cy="1108.97" r="14" fill="#009af9" fill-rule="evenodd" fill-opacity="1" stroke="#000000" stroke-opacity="1" stroke-width="3.2"/>
<circle clip-path="url(#clip142)" cx="1867.36" cy="1176.05" r="14" fill="#009af9" fill-rule="evenodd" fill-opacity="1" stroke="#000000" stroke-opacity="1" stroke-width="3.2"/>
<circle clip-path="url(#clip142)" cx="1973.57" cy="1243.12" r="14" fill="#009af9" fill-rule="evenodd" fill-opacity="1" stroke="#000000" stroke-opacity="1" stroke-width="3.2"/>
<circle clip-path="url(#clip142)" cx="2079.79" cy="1310.18" r="14" fill="#009af9" fill-rule="evenodd" fill-opacity="1" stroke="#000000" stroke-opacity="1" stroke-width="3.2"/>
<circle clip-path="url(#clip142)" cx="2186" cy="1377.39" r="14" fill="#009af9" fill-rule="evenodd" fill-opacity="1" stroke="#000000" stroke-opacity="1" stroke-width="3.2"/>
<circle clip-path="url(#clip142)" cx="2292.21" cy="1445.72" r="14" fill="#009af9" fill-rule="evenodd" fill-opacity="1" stroke="#000000" stroke-opacity="1" stroke-width="3.2"/>
<path clip-path="url(#clip140)" d="
M1991.34 198.898 L2281.45 198.898 L2281.45 95.2176 L1991.34 95.2176  Z
  " fill="#ffffff" fill-rule="evenodd" fill-opacity="1"/>
<polyline clip-path="url(#clip140)" style="stroke:#000000; stroke-linecap:butt; stroke-linejoin:round; stroke-width:4; stroke-opacity:1; fill:none" points="
  1991.34,198.898 2281.45,198.898 2281.45,95.2176 1991.34,95.2176 1991.34,198.898 
  "/>
<polyline clip-path="url(#clip140)" style="stroke:#009af9; stroke-linecap:butt; stroke-linejoin:round; stroke-width:4; stroke-opacity:1; fill:none" points="
  2015.11,147.058 2157.72,147.058 
  "/>
<circle clip-path="url(#clip140)" cx="2086.41" cy="147.058" r="23" fill="#009af9" fill-rule="evenodd" fill-opacity="1" stroke="#000000" stroke-opacity="1" stroke-width="5.12"/>
<path clip-path="url(#clip140)" d="M2195.33 166.745 Q2193.52 171.375 2191.81 172.787 Q2190.1 174.199 2187.22 174.199 L2183.82 174.199 L2183.82 170.634 L2186.32 170.634 Q2188.08 170.634 2189.05 169.8 Q2190.03 168.967 2191.21 165.865 L2191.97 163.921 L2181.48 138.412 L2186 138.412 L2194.1 158.689 L2202.2 138.412 L2206.72 138.412 L2195.33 166.745 Z" fill="#000000" fill-rule="evenodd" fill-opacity="1" /><path clip-path="url(#clip140)" d="M2214.01 160.402 L2221.65 160.402 L2221.65 134.037 L2213.34 135.703 L2213.34 131.444 L2221.6 129.778 L2226.28 129.778 L2226.28 160.402 L2233.91 160.402 L2233.91 164.338 L2214.01 164.338 L2214.01 160.402 Z" fill="#000000" fill-rule="evenodd" fill-opacity="1" /></svg>
