<?xml version="1.0" encoding="utf-8"?>
<svg xmlns="http://www.w3.org/2000/svg" xmlns:xlink="http://www.w3.org/1999/xlink" width="600" height="400" viewBox="0 0 2400 1600">
<defs>
  <clipPath id="clip950">
    <rect x="0" y="0" width="2400" height="1600"/>
  </clipPath>
</defs>
<path clip-path="url(#clip950)" d="
M0 1600 L2400 1600 L2400 0 L0 0  Z
  " fill="#ffffff" fill-rule="evenodd" fill-opacity="1"/>
<defs>
  <clipPath id="clip951">
    <rect x="480" y="0" width="1681" height="1600"/>
  </clipPath>
</defs>
<path clip-path="url(#clip950)" d="
M149.191 1486.45 L2352.76 1486.45 L2352.76 47.2441 L149.191 47.2441  Z
  " fill="#ffffff" fill-rule="evenodd" fill-opacity="1"/>
<defs>
  <clipPath id="clip952">
    <rect x="149" y="47" width="2205" height="1440"/>
  </clipPath>
</defs>
<polyline clip-path="url(#clip952)" style="stroke:#000000; stroke-linecap:butt; stroke-linejoin:round; stroke-width:2; stroke-opacity:0.1; fill:none" points="
  419.439,1486.45 419.439,47.2441 
  "/>
<polyline clip-path="url(#clip952)" style="stroke:#000000; stroke-linecap:butt; stroke-linejoin:round; stroke-width:2; stroke-opacity:0.1; fill:none" points="
  835.206,1486.45 835.206,47.2441 
  "/>
<polyline clip-path="url(#clip952)" style="stroke:#000000; stroke-linecap:butt; stroke-linejoin:round; stroke-width:2; stroke-opacity:0.1; fill:none" points="
  1250.97,1486.45 1250.97,47.2441 
  "/>
<polyline clip-path="url(#clip952)" style="stroke:#000000; stroke-linecap:butt; stroke-linejoin:round; stroke-width:2; stroke-opacity:0.1; fill:none" points="
  1666.74,1486.45 1666.74,47.2441 
  "/>
<polyline clip-path="url(#clip952)" style="stroke:#000000; stroke-linecap:butt; stroke-linejoin:round; stroke-width:2; stroke-opacity:0.1; fill:none" points="
  2082.51,1486.45 2082.51,47.2441 
  "/>
<polyline clip-path="url(#clip950)" style="stroke:#000000; stroke-linecap:butt; stroke-linejoin:round; stroke-width:4; stroke-opacity:1; fill:none" points="
  149.191,1486.45 2352.76,1486.45 
  "/>
<polyline clip-path="url(#clip950)" style="stroke:#000000; stroke-linecap:butt; stroke-linejoin:round; stroke-width:4; stroke-opacity:1; fill:none" points="
  419.439,1486.45 419.439,1467.55 
  "/>
<polyline clip-path="url(#clip950)" style="stroke:#000000; stroke-linecap:butt; stroke-linejoin:round; stroke-width:4; stroke-opacity:1; fill:none" points="
  835.206,1486.45 835.206,1467.55 
  "/>
<polyline clip-path="url(#clip950)" style="stroke:#000000; stroke-linecap:butt; stroke-linejoin:round; stroke-width:4; stroke-opacity:1; fill:none" points="
  1250.97,1486.45 1250.97,1467.55 
  "/>
<polyline clip-path="url(#clip950)" style="stroke:#000000; stroke-linecap:butt; stroke-linejoin:round; stroke-width:4; stroke-opacity:1; fill:none" points="
  1666.74,1486.45 1666.74,1467.55 
  "/>
<polyline clip-path="url(#clip950)" style="stroke:#000000; stroke-linecap:butt; stroke-linejoin:round; stroke-width:4; stroke-opacity:1; fill:none" points="
  2082.51,1486.45 2082.51,1467.55 
  "/>
<path clip-path="url(#clip950)" d="M388.34 1532.02 L418.016 1532.02 L418.016 1535.95 L388.34 1535.95 L388.34 1532.02 Z" fill="#000000" fill-rule="evenodd" fill-opacity="1" /><path clip-path="url(#clip950)" d="M440.955 1518.36 L429.15 1536.81 L440.955 1536.81 L440.955 1518.36 M439.729 1514.29 L445.608 1514.29 L445.608 1536.81 L450.539 1536.81 L450.539 1540.7 L445.608 1540.7 L445.608 1548.85 L440.955 1548.85 L440.955 1540.7 L425.354 1540.7 L425.354 1536.19 L439.729 1514.29 Z" fill="#000000" fill-rule="evenodd" fill-opacity="1" /><path clip-path="url(#clip950)" d="M805.149 1532.02 L834.824 1532.02 L834.824 1535.95 L805.149 1535.95 L805.149 1532.02 Z" fill="#000000" fill-rule="evenodd" fill-opacity="1" /><path clip-path="url(#clip950)" d="M848.945 1544.91 L865.264 1544.91 L865.264 1548.85 L843.32 1548.85 L843.32 1544.91 Q845.982 1542.16 850.565 1537.53 Q855.172 1532.88 856.352 1531.53 Q858.597 1529.01 859.477 1527.27 Q860.38 1525.51 860.38 1523.82 Q860.38 1521.07 858.435 1519.33 Q856.514 1517.6 853.412 1517.6 Q851.213 1517.6 848.76 1518.36 Q846.329 1519.13 843.551 1520.68 L843.551 1515.95 Q846.375 1514.82 848.829 1514.24 Q851.283 1513.66 853.32 1513.66 Q858.69 1513.66 861.884 1516.35 Q865.079 1519.03 865.079 1523.52 Q865.079 1525.65 864.269 1527.57 Q863.482 1529.47 861.375 1532.07 Q860.797 1532.74 857.695 1535.95 Q854.593 1539.15 848.945 1544.91 Z" fill="#000000" fill-rule="evenodd" fill-opacity="1" /><path clip-path="url(#clip950)" d="M1250.97 1517.37 Q1247.36 1517.37 1245.53 1520.93 Q1243.73 1524.47 1243.73 1531.6 Q1243.73 1538.71 1245.53 1542.27 Q1247.36 1545.82 1250.97 1545.82 Q1254.61 1545.82 1256.41 1542.27 Q1258.24 1538.71 1258.24 1531.6 Q1258.24 1524.47 1256.41 1520.93 Q1254.61 1517.37 1250.97 1517.37 M1250.97 1513.66 Q1256.78 1513.66 1259.84 1518.27 Q1262.92 1522.85 1262.92 1531.6 Q1262.92 1540.33 1259.84 1544.94 Q1256.78 1549.52 1250.97 1549.52 Q1245.16 1549.52 1242.08 1544.94 Q1239.03 1540.33 1239.03 1531.6 Q1239.03 1522.85 1242.08 1518.27 Q1245.16 1513.66 1250.97 1513.66 Z" fill="#000000" fill-rule="evenodd" fill-opacity="1" /><path clip-path="url(#clip950)" d="M1661.39 1544.91 L1677.71 1544.91 L1677.71 1548.85 L1655.77 1548.85 L1655.77 1544.91 Q1658.43 1542.16 1663.01 1537.53 Q1667.62 1532.88 1668.8 1531.53 Q1671.05 1529.01 1671.93 1527.27 Q1672.83 1525.51 1672.83 1523.82 Q1672.83 1521.07 1670.88 1519.33 Q1668.96 1517.6 1665.86 1517.6 Q1663.66 1517.6 1661.21 1518.36 Q1658.78 1519.13 1656 1520.68 L1656 1515.95 Q1658.82 1514.82 1661.28 1514.24 Q1663.73 1513.66 1665.77 1513.66 Q1671.14 1513.66 1674.33 1516.35 Q1677.53 1519.03 1677.53 1523.52 Q1677.53 1525.65 1676.72 1527.57 Q1675.93 1529.47 1673.82 1532.07 Q1673.24 1532.74 1670.14 1535.95 Q1667.04 1539.15 1661.39 1544.91 Z" fill="#000000" fill-rule="evenodd" fill-opacity="1" /><path clip-path="url(#clip950)" d="M2085.52 1518.36 L2073.71 1536.81 L2085.52 1536.81 L2085.52 1518.36 M2084.29 1514.29 L2090.17 1514.29 L2090.17 1536.81 L2095.1 1536.81 L2095.1 1540.7 L2090.17 1540.7 L2090.17 1548.85 L2085.52 1548.85 L2085.52 1540.7 L2069.91 1540.7 L2069.91 1536.19 L2084.29 1514.29 Z" fill="#000000" fill-rule="evenodd" fill-opacity="1" /><polyline clip-path="url(#clip952)" style="stroke:#000000; stroke-linecap:butt; stroke-linejoin:round; stroke-width:2; stroke-opacity:0.1; fill:none" points="
  149.191,1468.84 2352.76,1468.84 
  "/>
<polyline clip-path="url(#clip952)" style="stroke:#000000; stroke-linecap:butt; stroke-linejoin:round; stroke-width:2; stroke-opacity:0.1; fill:none" points="
  149.191,1117.84 2352.76,1117.84 
  "/>
<polyline clip-path="url(#clip952)" style="stroke:#000000; stroke-linecap:butt; stroke-linejoin:round; stroke-width:2; stroke-opacity:0.1; fill:none" points="
  149.191,766.846 2352.76,766.846 
  "/>
<polyline clip-path="url(#clip952)" style="stroke:#000000; stroke-linecap:butt; stroke-linejoin:round; stroke-width:2; stroke-opacity:0.1; fill:none" points="
  149.191,415.848 2352.76,415.848 
  "/>
<polyline clip-path="url(#clip952)" style="stroke:#000000; stroke-linecap:butt; stroke-linejoin:round; stroke-width:2; stroke-opacity:0.1; fill:none" points="
  149.191,64.8495 2352.76,64.8495 
  "/>
<polyline clip-path="url(#clip950)" style="stroke:#000000; stroke-linecap:butt; stroke-linejoin:round; stroke-width:4; stroke-opacity:1; fill:none" points="
  149.191,1486.45 149.191,47.2441 
  "/>
<polyline clip-path="url(#clip950)" style="stroke:#000000; stroke-linecap:butt; stroke-linejoin:round; stroke-width:4; stroke-opacity:1; fill:none" points="
  149.191,1468.84 168.089,1468.84 
  "/>
<polyline clip-path="url(#clip950)" style="stroke:#000000; stroke-linecap:butt; stroke-linejoin:round; stroke-width:4; stroke-opacity:1; fill:none" points="
  149.191,1117.84 168.089,1117.84 
  "/>
<polyline clip-path="url(#clip950)" style="stroke:#000000; stroke-linecap:butt; stroke-linejoin:round; stroke-width:4; stroke-opacity:1; fill:none" points="
  149.191,766.846 168.089,766.846 
  "/>
<polyline clip-path="url(#clip950)" style="stroke:#000000; stroke-linecap:butt; stroke-linejoin:round; stroke-width:4; stroke-opacity:1; fill:none" points="
  149.191,415.848 168.089,415.848 
  "/>
<polyline clip-path="url(#clip950)" style="stroke:#000000; stroke-linecap:butt; stroke-linejoin:round; stroke-width:4; stroke-opacity:1; fill:none" points="
  149.191,64.8495 168.089,64.8495 
  "/>
<path clip-path="url(#clip950)" d="M50.9921 1469.29 L80.6679 1469.29 L80.6679 1473.23 L50.9921 1473.23 L50.9921 1469.29 Z" fill="#000000" fill-rule="evenodd" fill-opacity="1" /><path clip-path="url(#clip950)" d="M103.608 1455.64 L91.8021 1474.09 L103.608 1474.09 L103.608 1455.64 M102.381 1451.56 L108.26 1451.56 L108.26 1474.09 L113.191 1474.09 L113.191 1477.97 L108.26 1477.97 L108.26 1486.12 L103.608 1486.12 L103.608 1477.97 L88.0058 1477.97 L88.0058 1473.46 L102.381 1451.56 Z" fill="#000000" fill-rule="evenodd" fill-opacity="1" /><path clip-path="url(#clip950)" d="M53.0754 1118.3 L82.7512 1118.3 L82.7512 1122.23 L53.0754 1122.23 L53.0754 1118.3 Z" fill="#000000" fill-rule="evenodd" fill-opacity="1" /><path clip-path="url(#clip950)" d="M96.8715 1131.19 L113.191 1131.19 L113.191 1135.12 L91.2465 1135.12 L91.2465 1131.19 Q93.9086 1128.43 98.4919 1123.8 Q103.098 1119.15 104.279 1117.81 Q106.524 1115.29 107.404 1113.55 Q108.307 1111.79 108.307 1110.1 Q108.307 1107.35 106.362 1105.61 Q104.441 1103.87 101.339 1103.87 Q99.14 1103.87 96.6863 1104.64 Q94.2558 1105.4 91.478 1106.95 L91.478 1102.23 Q94.3021 1101.1 96.7558 1100.52 Q99.2095 1099.94 101.246 1099.94 Q106.617 1099.94 109.811 1102.62 Q113.006 1105.31 113.006 1109.8 Q113.006 1111.93 112.196 1113.85 Q111.408 1115.75 109.302 1118.34 Q108.723 1119.01 105.621 1122.23 Q102.52 1125.43 96.8715 1131.19 Z" fill="#000000" fill-rule="evenodd" fill-opacity="1" /><path clip-path="url(#clip950)" d="M101.246 752.645 Q97.6354 752.645 95.8067 756.209 Q94.0012 759.751 94.0012 766.881 Q94.0012 773.987 95.8067 777.552 Q97.6354 781.094 101.246 781.094 Q104.881 781.094 106.686 777.552 Q108.515 773.987 108.515 766.881 Q108.515 759.751 106.686 756.209 Q104.881 752.645 101.246 752.645 M101.246 748.941 Q107.057 748.941 110.112 753.547 Q113.191 758.131 113.191 766.881 Q113.191 775.608 110.112 780.214 Q107.057 784.797 101.246 784.797 Q95.4363 784.797 92.3576 780.214 Q89.3021 775.608 89.3021 766.881 Q89.3021 758.131 92.3576 753.547 Q95.4363 748.941 101.246 748.941 Z" fill="#000000" fill-rule="evenodd" fill-opacity="1" /><path clip-path="url(#clip950)" d="M96.8715 429.193 L113.191 429.193 L113.191 433.128 L91.2465 433.128 L91.2465 429.193 Q93.9086 426.438 98.4919 421.808 Q103.098 417.156 104.279 415.813 Q106.524 413.29 107.404 411.554 Q108.307 409.795 108.307 408.105 Q108.307 405.35 106.362 403.614 Q104.441 401.878 101.339 401.878 Q99.14 401.878 96.6863 402.642 Q94.2558 403.406 91.478 404.957 L91.478 400.234 Q94.3021 399.1 96.7558 398.521 Q99.2095 397.943 101.246 397.943 Q106.617 397.943 109.811 400.628 Q113.006 403.313 113.006 407.804 Q113.006 409.933 112.196 411.855 Q111.408 413.753 109.302 416.345 Q108.723 417.017 105.621 420.234 Q102.52 423.429 96.8715 429.193 Z" fill="#000000" fill-rule="evenodd" fill-opacity="1" /><path clip-path="url(#clip950)" d="M103.608 51.6435 L91.8021 70.0925 L103.608 70.0925 L103.608 51.6435 M102.381 47.5695 L108.26 47.5695 L108.26 70.0925 L113.191 70.0925 L113.191 73.9814 L108.26 73.9814 L108.26 82.1295 L103.608 82.1295 L103.608 73.9814 L88.0058 73.9814 L88.0058 69.4675 L102.381 47.5695 Z" fill="#000000" fill-rule="evenodd" fill-opacity="1" /><polyline clip-path="url(#clip952)" style="stroke:#009af9; stroke-linecap:butt; stroke-linejoin:round; stroke-width:4; stroke-opacity:1; fill:none" points="
  211.556,87.9763 231.857,101.236 419.574,223.838 532.384,297.517 627.764,359.812 731.373,427.482 826.891,489.867 929.296,556.751 1047.94,634.242 1153.38,703.107 
  1245.84,763.496 1346.65,829.335 1448.06,895.566 1560.17,968.793 1666.85,1038.47 1777.77,1110.91 1871.14,1171.89 1985.14,1246.35 2092.29,1316.33 2263.97,1428.46 
  2290.39,1445.72 
  "/>
<polyline clip-path="url(#clip952)" style="stroke:#e26f46; stroke-linecap:butt; stroke-linejoin:round; stroke-width:4; stroke-opacity:1; fill:none" points="
  211.556,935.136 216.631,936.301 221.707,937.366 226.782,938.328 231.857,939.188 255.322,941.824 278.787,942.233 302.251,940.409 325.716,936.377 349.181,930.187 
  372.645,921.918 396.11,911.675 419.574,899.59 447.777,882.843 475.979,863.965 504.182,843.303 532.384,821.235 580.074,781.866 627.764,741.711 679.568,699.651 
  731.373,661.742 755.252,646.325 779.132,632.498 803.011,620.441 826.891,610.313 852.492,601.751 878.094,595.689 903.695,592.219 929.296,591.395 958.958,593.762 
  988.62,599.647 1018.28,608.93 1047.94,621.422 1074.3,635.014 1100.66,650.723 1127.02,668.296 1153.38,687.451 1199.61,723.926 1245.84,762.516 1296.25,804.765 
  1346.65,844.797 1372,863.346 1397.35,880.461 1422.71,895.889 1448.06,909.4 1476.09,921.866 1504.12,931.519 1532.15,938.182 1560.17,941.735 1586.84,942.168 
  1613.51,939.721 1640.18,934.431 1666.85,926.388 1694.58,915.246 1722.31,901.468 1750.04,885.298 1777.77,867.023 1824.46,832.418 1871.14,794.519 1928.14,746.563 
  1985.14,700.121 2011.93,679.814 2038.72,660.951 2065.5,643.844 2092.29,628.776 2113.75,618.348 2135.21,609.5 2156.67,602.328 2178.13,596.907 2199.59,593.296 
  2221.05,591.532 2242.51,591.635 2263.97,593.603 2270.58,594.582 2277.18,595.734 2283.79,597.059 2290.39,598.556 
  "/>
<path clip-path="url(#clip950)" d="
M1982.03 250.738 L2279.3 250.738 L2279.3 95.2176 L1982.03 95.2176  Z
  " fill="#ffffff" fill-rule="evenodd" fill-opacity="1"/>
<polyline clip-path="url(#clip950)" style="stroke:#000000; stroke-linecap:butt; stroke-linejoin:round; stroke-width:4; stroke-opacity:1; fill:none" points="
  1982.03,250.738 2279.3,250.738 2279.3,95.2176 1982.03,95.2176 1982.03,250.738 
  "/>
<polyline clip-path="url(#clip950)" style="stroke:#009af9; stroke-linecap:butt; stroke-linejoin:round; stroke-width:4; stroke-opacity:1; fill:none" points="
  2006.52,147.058 2153.42,147.058 
  "/>
<path clip-path="url(#clip950)" d="M2191.75 166.745 Q2189.94 171.375 2188.23 172.787 Q2186.52 174.199 2183.65 174.199 L2180.24 174.199 L2180.24 170.634 L2182.74 170.634 Q2184.5 170.634 2185.47 169.8 Q2186.45 168.967 2187.63 165.865 L2188.39 163.921 L2177.91 138.412 L2182.42 138.412 L2190.52 158.689 L2198.62 138.412 L2203.14 138.412 L2191.75 166.745 Z" fill="#000000" fill-rule="evenodd" fill-opacity="1" /><path clip-path="url(#clip950)" d="M2210.43 160.402 L2218.07 160.402 L2218.07 134.037 L2209.76 135.703 L2209.76 131.444 L2218.02 129.778 L2222.7 129.778 L2222.7 160.402 L2230.34 160.402 L2230.34 164.338 L2210.43 164.338 L2210.43 160.402 Z" fill="#000000" fill-rule="evenodd" fill-opacity="1" /><polyline clip-path="url(#clip950)" style="stroke:#e26f46; stroke-linecap:butt; stroke-linejoin:round; stroke-width:4; stroke-opacity:1; fill:none" points="
  2006.52,198.898 2153.42,198.898 
  "/>
<path clip-path="url(#clip950)" d="M2191.75 218.585 Q2189.94 223.215 2188.23 224.627 Q2186.52 226.039 2183.65 226.039 L2180.24 226.039 L2180.24 222.474 L2182.74 222.474 Q2184.5 222.474 2185.47 221.64 Q2186.45 220.807 2187.63 217.705 L2188.39 215.761 L2177.91 190.252 L2182.42 190.252 L2190.52 210.529 L2198.62 190.252 L2203.14 190.252 L2191.75 218.585 Z" fill="#000000" fill-rule="evenodd" fill-opacity="1" /><path clip-path="url(#clip950)" d="M2213.65 212.242 L2229.97 212.242 L2229.97 216.178 L2208.02 216.178 L2208.02 212.242 Q2210.68 209.488 2215.27 204.858 Q2219.87 200.205 2221.05 198.863 Q2223.3 196.34 2224.18 194.604 Q2225.08 192.844 2225.08 191.155 Q2225.08 188.4 2223.14 186.664 Q2221.22 184.928 2218.11 184.928 Q2215.91 184.928 2213.46 185.692 Q2211.03 186.455 2208.25 188.006 L2208.25 183.284 Q2211.08 182.15 2213.53 181.571 Q2215.98 180.993 2218.02 180.993 Q2223.39 180.993 2226.59 183.678 Q2229.78 186.363 2229.78 190.854 Q2229.78 192.983 2228.97 194.905 Q2228.18 196.803 2226.08 199.395 Q2225.5 200.067 2222.4 203.284 Q2219.29 206.479 2213.65 212.242 Z" fill="#000000" fill-rule="evenodd" fill-opacity="1" /></svg>
