<?xml version="1.0" encoding="utf-8"?>
<svg xmlns="http://www.w3.org/2000/svg" xmlns:xlink="http://www.w3.org/1999/xlink" width="600" height="400" viewBox="0 0 2400 1600">
<defs>
  <clipPath id="clip970">
    <rect x="0" y="0" width="2400" height="1600"/>
  </clipPath>
</defs>
<path clip-path="url(#clip970)" d="
M0 1600 L2400 1600 L2400 0 L0 0  Z
  " fill="#ffffff" fill-rule="evenodd" fill-opacity="1"/>
<defs>
  <clipPath id="clip971">
    <rect x="480" y="0" width="1681" height="1600"/>
  </clipPath>
</defs>
<path clip-path="url(#clip970)" d="
M192.709 1486.45 L2352.76 1486.45 L2352.76 47.2441 L192.709 47.2441  Z
  " fill="#ffffff" fill-rule="evenodd" fill-opacity="1"/>
<defs>
  <clipPath id="clip972">
    <rect x="192" y="47" width="2161" height="1440"/>
  </clipPath>
</defs>
<polyline clip-path="url(#clip972)" style="stroke:#000000; stroke-linecap:butt; stroke-linejoin:round; stroke-width:2; stroke-opacity:0.1; fill:none" points="
  212.255,1486.45 212.255,47.2441 
  "/>
<polyline clip-path="url(#clip972)" style="stroke:#000000; stroke-linecap:butt; stroke-linejoin:round; stroke-width:2; stroke-opacity:0.1; fill:none" points="
  742.494,1486.45 742.494,47.2441 
  "/>
<polyline clip-path="url(#clip972)" style="stroke:#000000; stroke-linecap:butt; stroke-linejoin:round; stroke-width:2; stroke-opacity:0.1; fill:none" points="
  1272.73,1486.45 1272.73,47.2441 
  "/>
<polyline clip-path="url(#clip972)" style="stroke:#000000; stroke-linecap:butt; stroke-linejoin:round; stroke-width:2; stroke-opacity:0.1; fill:none" points="
  1802.97,1486.45 1802.97,47.2441 
  "/>
<polyline clip-path="url(#clip972)" style="stroke:#000000; stroke-linecap:butt; stroke-linejoin:round; stroke-width:2; stroke-opacity:0.1; fill:none" points="
  2333.21,1486.45 2333.21,47.2441 
  "/>
<polyline clip-path="url(#clip970)" style="stroke:#000000; stroke-linecap:butt; stroke-linejoin:round; stroke-width:4; stroke-opacity:1; fill:none" points="
  192.709,1486.45 2352.76,1486.45 
  "/>
<polyline clip-path="url(#clip970)" style="stroke:#000000; stroke-linecap:butt; stroke-linejoin:round; stroke-width:4; stroke-opacity:1; fill:none" points="
  212.255,1486.45 212.255,1467.55 
  "/>
<polyline clip-path="url(#clip970)" style="stroke:#000000; stroke-linecap:butt; stroke-linejoin:round; stroke-width:4; stroke-opacity:1; fill:none" points="
  742.494,1486.45 742.494,1467.55 
  "/>
<polyline clip-path="url(#clip970)" style="stroke:#000000; stroke-linecap:butt; stroke-linejoin:round; stroke-width:4; stroke-opacity:1; fill:none" points="
  1272.73,1486.45 1272.73,1467.55 
  "/>
<polyline clip-path="url(#clip970)" style="stroke:#000000; stroke-linecap:butt; stroke-linejoin:round; stroke-width:4; stroke-opacity:1; fill:none" points="
  1802.97,1486.45 1802.97,1467.55 
  "/>
<polyline clip-path="url(#clip970)" style="stroke:#000000; stroke-linecap:butt; stroke-linejoin:round; stroke-width:4; stroke-opacity:1; fill:none" points="
  2333.21,1486.45 2333.21,1467.55 
  "/>
<path clip-path="url(#clip970)" d="M158.783 1530.29 L188.459 1530.29 L188.459 1534.23 L158.783 1534.23 L158.783 1530.29 Z" fill="#000000" fill-rule="evenodd" fill-opacity="1" /><path clip-path="url(#clip970)" d="M199.362 1543.18 L207.001 1543.18 L207.001 1516.82 L198.69 1518.49 L198.69 1514.23 L206.954 1512.56 L211.63 1512.56 L211.63 1543.18 L219.269 1543.18 L219.269 1547.12 L199.362 1547.12 L199.362 1543.18 Z" fill="#000000" fill-rule="evenodd" fill-opacity="1" /><path clip-path="url(#clip970)" d="M228.713 1541.24 L233.598 1541.24 L233.598 1547.12 L228.713 1547.12 L228.713 1541.24 Z" fill="#000000" fill-rule="evenodd" fill-opacity="1" /><path clip-path="url(#clip970)" d="M253.783 1515.64 Q250.172 1515.64 248.343 1519.2 Q246.537 1522.75 246.537 1529.87 Q246.537 1536.98 248.343 1540.55 Q250.172 1544.09 253.783 1544.09 Q257.417 1544.09 259.223 1540.55 Q261.051 1536.98 261.051 1529.87 Q261.051 1522.75 259.223 1519.2 Q257.417 1515.64 253.783 1515.64 M253.783 1511.93 Q259.593 1511.93 262.648 1516.54 Q265.727 1521.12 265.727 1529.87 Q265.727 1538.6 262.648 1543.21 Q259.593 1547.79 253.783 1547.79 Q247.973 1547.79 244.894 1543.21 Q241.838 1538.6 241.838 1529.87 Q241.838 1521.12 244.894 1516.54 Q247.973 1511.93 253.783 1511.93 Z" fill="#000000" fill-rule="evenodd" fill-opacity="1" /><path clip-path="url(#clip970)" d="M689.52 1530.29 L719.195 1530.29 L719.195 1534.23 L689.52 1534.23 L689.52 1530.29 Z" fill="#000000" fill-rule="evenodd" fill-opacity="1" /><path clip-path="url(#clip970)" d="M739.288 1515.64 Q735.677 1515.64 733.848 1519.2 Q732.043 1522.75 732.043 1529.87 Q732.043 1536.98 733.848 1540.55 Q735.677 1544.09 739.288 1544.09 Q742.922 1544.09 744.728 1540.55 Q746.556 1536.98 746.556 1529.87 Q746.556 1522.75 744.728 1519.2 Q742.922 1515.64 739.288 1515.64 M739.288 1511.93 Q745.098 1511.93 748.154 1516.54 Q751.232 1521.12 751.232 1529.87 Q751.232 1538.6 748.154 1543.21 Q745.098 1547.79 739.288 1547.79 Q733.478 1547.79 730.399 1543.21 Q727.343 1538.6 727.343 1529.87 Q727.343 1521.12 730.399 1516.54 Q733.478 1511.93 739.288 1511.93 Z" fill="#000000" fill-rule="evenodd" fill-opacity="1" /><path clip-path="url(#clip970)" d="M759.45 1541.24 L764.334 1541.24 L764.334 1547.12 L759.45 1547.12 L759.45 1541.24 Z" fill="#000000" fill-rule="evenodd" fill-opacity="1" /><path clip-path="url(#clip970)" d="M774.565 1512.56 L792.922 1512.56 L792.922 1516.5 L778.848 1516.5 L778.848 1524.97 Q779.866 1524.62 780.885 1524.46 Q781.903 1524.27 782.922 1524.27 Q788.709 1524.27 792.089 1527.44 Q795.468 1530.62 795.468 1536.03 Q795.468 1541.61 791.996 1544.71 Q788.524 1547.79 782.204 1547.79 Q780.028 1547.79 777.76 1547.42 Q775.515 1547.05 773.107 1546.31 L773.107 1541.61 Q775.19 1542.74 777.413 1543.3 Q779.635 1543.86 782.112 1543.86 Q786.116 1543.86 788.454 1541.75 Q790.792 1539.64 790.792 1536.03 Q790.792 1532.42 788.454 1530.31 Q786.116 1528.21 782.112 1528.21 Q780.237 1528.21 778.362 1528.62 Q776.51 1529.04 774.565 1529.92 L774.565 1512.56 Z" fill="#000000" fill-rule="evenodd" fill-opacity="1" /><path clip-path="url(#clip970)" d="M1250.12 1515.64 Q1246.51 1515.64 1244.68 1519.2 Q1242.87 1522.75 1242.87 1529.87 Q1242.87 1536.98 1244.68 1540.55 Q1246.51 1544.09 1250.12 1544.09 Q1253.75 1544.09 1255.56 1540.55 Q1257.39 1536.98 1257.39 1529.87 Q1257.39 1522.75 1255.56 1519.2 Q1253.75 1515.64 1250.12 1515.64 M1250.12 1511.93 Q1255.93 1511.93 1258.98 1516.54 Q1262.06 1521.12 1262.06 1529.87 Q1262.06 1538.6 1258.98 1543.21 Q1255.93 1547.79 1250.12 1547.79 Q1244.31 1547.79 1241.23 1543.21 Q1238.17 1538.6 1238.17 1529.87 Q1238.17 1521.12 1241.23 1516.54 Q1244.31 1511.93 1250.12 1511.93 Z" fill="#000000" fill-rule="evenodd" fill-opacity="1" /><path clip-path="url(#clip970)" d="M1270.28 1541.24 L1275.16 1541.24 L1275.16 1547.12 L1270.28 1547.12 L1270.28 1541.24 Z" fill="#000000" fill-rule="evenodd" fill-opacity="1" /><path clip-path="url(#clip970)" d="M1295.35 1515.64 Q1291.74 1515.64 1289.91 1519.2 Q1288.1 1522.75 1288.1 1529.87 Q1288.1 1536.98 1289.91 1540.55 Q1291.74 1544.09 1295.35 1544.09 Q1298.98 1544.09 1300.79 1540.55 Q1302.62 1536.98 1302.62 1529.87 Q1302.62 1522.75 1300.79 1519.2 Q1298.98 1515.64 1295.35 1515.64 M1295.35 1511.93 Q1301.16 1511.93 1304.21 1516.54 Q1307.29 1521.12 1307.29 1529.87 Q1307.29 1538.6 1304.21 1543.21 Q1301.16 1547.79 1295.35 1547.79 Q1289.54 1547.79 1286.46 1543.21 Q1283.4 1538.6 1283.4 1529.87 Q1283.4 1521.12 1286.46 1516.54 Q1289.54 1511.93 1295.35 1511.93 Z" fill="#000000" fill-rule="evenodd" fill-opacity="1" /><path clip-path="url(#clip970)" d="M1780.85 1515.64 Q1777.24 1515.64 1775.41 1519.2 Q1773.61 1522.75 1773.61 1529.87 Q1773.61 1536.98 1775.41 1540.55 Q1777.24 1544.09 1780.85 1544.09 Q1784.49 1544.09 1786.29 1540.55 Q1788.12 1536.98 1788.12 1529.87 Q1788.12 1522.75 1786.29 1519.2 Q1784.49 1515.64 1780.85 1515.64 M1780.85 1511.93 Q1786.66 1511.93 1789.72 1516.54 Q1792.8 1521.12 1792.8 1529.87 Q1792.8 1538.6 1789.72 1543.21 Q1786.66 1547.79 1780.85 1547.79 Q1775.04 1547.79 1771.96 1543.21 Q1768.91 1538.6 1768.91 1529.87 Q1768.91 1521.12 1771.96 1516.54 Q1775.04 1511.93 1780.85 1511.93 Z" fill="#000000" fill-rule="evenodd" fill-opacity="1" /><path clip-path="url(#clip970)" d="M1801.02 1541.24 L1805.9 1541.24 L1805.9 1547.12 L1801.02 1547.12 L1801.02 1541.24 Z" fill="#000000" fill-rule="evenodd" fill-opacity="1" /><path clip-path="url(#clip970)" d="M1816.13 1512.56 L1834.49 1512.56 L1834.49 1516.5 L1820.41 1516.5 L1820.41 1524.97 Q1821.43 1524.62 1822.45 1524.46 Q1823.47 1524.27 1824.49 1524.27 Q1830.27 1524.27 1833.65 1527.44 Q1837.03 1530.62 1837.03 1536.03 Q1837.03 1541.61 1833.56 1544.71 Q1830.09 1547.79 1823.77 1547.79 Q1821.59 1547.79 1819.33 1547.42 Q1817.08 1547.05 1814.67 1546.31 L1814.67 1541.61 Q1816.76 1542.74 1818.98 1543.3 Q1821.2 1543.86 1823.68 1543.86 Q1827.68 1543.86 1830.02 1541.75 Q1832.36 1539.64 1832.36 1536.03 Q1832.36 1532.42 1830.02 1530.31 Q1827.68 1528.21 1823.68 1528.21 Q1821.8 1528.21 1819.93 1528.62 Q1818.08 1529.04 1816.13 1529.92 L1816.13 1512.56 Z" fill="#000000" fill-rule="evenodd" fill-opacity="1" /><path clip-path="url(#clip970)" d="M2300.36 1543.18 L2308 1543.18 L2308 1516.82 L2299.69 1518.49 L2299.69 1514.23 L2307.96 1512.56 L2312.63 1512.56 L2312.63 1543.18 L2320.27 1543.18 L2320.27 1547.12 L2300.36 1547.12 L2300.36 1543.18 Z" fill="#000000" fill-rule="evenodd" fill-opacity="1" /><path clip-path="url(#clip970)" d="M2329.71 1541.24 L2334.6 1541.24 L2334.6 1547.12 L2329.71 1547.12 L2329.71 1541.24 Z" fill="#000000" fill-rule="evenodd" fill-opacity="1" /><path clip-path="url(#clip970)" d="M2354.78 1515.64 Q2351.17 1515.64 2349.34 1519.2 Q2347.54 1522.75 2347.54 1529.87 Q2347.54 1536.98 2349.34 1540.55 Q2351.17 1544.09 2354.78 1544.09 Q2358.42 1544.09 2360.22 1540.55 Q2362.05 1536.98 2362.05 1529.87 Q2362.05 1522.75 2360.22 1519.2 Q2358.42 1515.64 2354.78 1515.64 M2354.78 1511.93 Q2360.59 1511.93 2363.65 1516.54 Q2366.73 1521.12 2366.73 1529.87 Q2366.73 1538.6 2363.65 1543.21 Q2360.59 1547.79 2354.78 1547.79 Q2348.97 1547.79 2345.89 1543.21 Q2342.84 1538.6 2342.84 1529.87 Q2342.84 1521.12 2345.89 1516.54 Q2348.97 1511.93 2354.78 1511.93 Z" fill="#000000" fill-rule="evenodd" fill-opacity="1" /><polyline clip-path="url(#clip972)" style="stroke:#000000; stroke-linecap:butt; stroke-linejoin:round; stroke-width:2; stroke-opacity:0.1; fill:none" points="
  192.709,1455.41 2352.76,1455.41 
  "/>
<polyline clip-path="url(#clip972)" style="stroke:#000000; stroke-linecap:butt; stroke-linejoin:round; stroke-width:2; stroke-opacity:0.1; fill:none" points="
  192.709,1111.13 2352.76,1111.13 
  "/>
<polyline clip-path="url(#clip972)" style="stroke:#000000; stroke-linecap:butt; stroke-linejoin:round; stroke-width:2; stroke-opacity:0.1; fill:none" points="
  192.709,766.846 2352.76,766.846 
  "/>
<polyline clip-path="url(#clip972)" style="stroke:#000000; stroke-linecap:butt; stroke-linejoin:round; stroke-width:2; stroke-opacity:0.1; fill:none" points="
  192.709,422.565 2352.76,422.565 
  "/>
<polyline clip-path="url(#clip972)" style="stroke:#000000; stroke-linecap:butt; stroke-linejoin:round; stroke-width:2; stroke-opacity:0.1; fill:none" points="
  192.709,78.2839 2352.76,78.2839 
  "/>
<polyline clip-path="url(#clip970)" style="stroke:#000000; stroke-linecap:butt; stroke-linejoin:round; stroke-width:4; stroke-opacity:1; fill:none" points="
  192.709,1486.45 192.709,47.2441 
  "/>
<polyline clip-path="url(#clip970)" style="stroke:#000000; stroke-linecap:butt; stroke-linejoin:round; stroke-width:4; stroke-opacity:1; fill:none" points="
  192.709,1455.41 211.607,1455.41 
  "/>
<polyline clip-path="url(#clip970)" style="stroke:#000000; stroke-linecap:butt; stroke-linejoin:round; stroke-width:4; stroke-opacity:1; fill:none" points="
  192.709,1111.13 211.607,1111.13 
  "/>
<polyline clip-path="url(#clip970)" style="stroke:#000000; stroke-linecap:butt; stroke-linejoin:round; stroke-width:4; stroke-opacity:1; fill:none" points="
  192.709,766.846 211.607,766.846 
  "/>
<polyline clip-path="url(#clip970)" style="stroke:#000000; stroke-linecap:butt; stroke-linejoin:round; stroke-width:4; stroke-opacity:1; fill:none" points="
  192.709,422.565 211.607,422.565 
  "/>
<polyline clip-path="url(#clip970)" style="stroke:#000000; stroke-linecap:butt; stroke-linejoin:round; stroke-width:4; stroke-opacity:1; fill:none" points="
  192.709,78.2839 211.607,78.2839 
  "/>
<path clip-path="url(#clip970)" d="M51.3625 1455.86 L81.0383 1455.86 L81.0383 1459.79 L51.3625 1459.79 L51.3625 1455.86 Z" fill="#000000" fill-rule="evenodd" fill-opacity="1" /><path clip-path="url(#clip970)" d="M101.131 1441.21 Q97.5197 1441.21 95.691 1444.77 Q93.8854 1448.31 93.8854 1455.44 Q93.8854 1462.55 95.691 1466.11 Q97.5197 1469.66 101.131 1469.66 Q104.765 1469.66 106.571 1466.11 Q108.399 1462.55 108.399 1455.44 Q108.399 1448.31 106.571 1444.77 Q104.765 1441.21 101.131 1441.21 M101.131 1437.5 Q106.941 1437.5 109.996 1442.11 Q113.075 1446.69 113.075 1455.44 Q113.075 1464.17 109.996 1468.78 Q106.941 1473.36 101.131 1473.36 Q95.3206 1473.36 92.2419 1468.78 Q89.1864 1464.17 89.1864 1455.44 Q89.1864 1446.69 92.2419 1442.11 Q95.3206 1437.5 101.131 1437.5 Z" fill="#000000" fill-rule="evenodd" fill-opacity="1" /><path clip-path="url(#clip970)" d="M121.293 1466.81 L126.177 1466.81 L126.177 1472.69 L121.293 1472.69 L121.293 1466.81 Z" fill="#000000" fill-rule="evenodd" fill-opacity="1" /><path clip-path="url(#clip970)" d="M140.39 1468.75 L156.709 1468.75 L156.709 1472.69 L134.765 1472.69 L134.765 1468.75 Q137.427 1466 142.01 1461.37 Q146.617 1456.72 147.797 1455.37 Q150.043 1452.85 150.922 1451.11 Q151.825 1449.35 151.825 1447.67 Q151.825 1444.91 149.88 1443.17 Q147.959 1441.44 144.857 1441.44 Q142.658 1441.44 140.205 1442.2 Q137.774 1442.97 134.996 1444.52 L134.996 1439.79 Q137.82 1438.66 140.274 1438.08 Q142.728 1437.5 144.765 1437.5 Q150.135 1437.5 153.33 1440.19 Q156.524 1442.87 156.524 1447.36 Q156.524 1449.49 155.714 1451.42 Q154.927 1453.31 152.82 1455.91 Q152.242 1456.58 149.14 1459.79 Q146.038 1462.99 140.39 1468.75 Z" fill="#000000" fill-rule="evenodd" fill-opacity="1" /><path clip-path="url(#clip970)" d="M50.9921 1111.58 L80.6679 1111.58 L80.6679 1115.51 L50.9921 1115.51 L50.9921 1111.58 Z" fill="#000000" fill-rule="evenodd" fill-opacity="1" /><path clip-path="url(#clip970)" d="M100.76 1096.93 Q97.1493 1096.93 95.3206 1100.49 Q93.515 1104.03 93.515 1111.16 Q93.515 1118.27 95.3206 1121.83 Q97.1493 1125.37 100.76 1125.37 Q104.395 1125.37 106.2 1121.83 Q108.029 1118.27 108.029 1111.16 Q108.029 1104.03 106.2 1100.49 Q104.395 1096.93 100.76 1096.93 M100.76 1093.22 Q106.571 1093.22 109.626 1097.83 Q112.705 1102.41 112.705 1111.16 Q112.705 1119.89 109.626 1124.5 Q106.571 1129.08 100.76 1129.08 Q94.9502 1129.08 91.8715 1124.5 Q88.816 1119.89 88.816 1111.16 Q88.816 1102.41 91.8715 1097.83 Q94.9502 1093.22 100.76 1093.22 Z" fill="#000000" fill-rule="evenodd" fill-opacity="1" /><path clip-path="url(#clip970)" d="M120.922 1122.53 L125.807 1122.53 L125.807 1128.41 L120.922 1128.41 L120.922 1122.53 Z" fill="#000000" fill-rule="evenodd" fill-opacity="1" /><path clip-path="url(#clip970)" d="M136.802 1124.47 L144.441 1124.47 L144.441 1098.11 L136.131 1099.77 L136.131 1095.51 L144.394 1093.85 L149.07 1093.85 L149.07 1124.47 L156.709 1124.47 L156.709 1128.41 L136.802 1128.41 L136.802 1124.47 Z" fill="#000000" fill-rule="evenodd" fill-opacity="1" /><path clip-path="url(#clip970)" d="M99.5335 752.645 Q95.9224 752.645 94.0937 756.209 Q92.2882 759.751 92.2882 766.881 Q92.2882 773.987 94.0937 777.552 Q95.9224 781.094 99.5335 781.094 Q103.168 781.094 104.973 777.552 Q106.802 773.987 106.802 766.881 Q106.802 759.751 104.973 756.209 Q103.168 752.645 99.5335 752.645 M99.5335 748.941 Q105.344 748.941 108.399 753.547 Q111.478 758.131 111.478 766.881 Q111.478 775.608 108.399 780.214 Q105.344 784.797 99.5335 784.797 Q93.7234 784.797 90.6447 780.214 Q87.5892 775.608 87.5892 766.881 Q87.5892 758.131 90.6447 753.547 Q93.7234 748.941 99.5335 748.941 Z" fill="#000000" fill-rule="evenodd" fill-opacity="1" /><path clip-path="url(#clip970)" d="M119.695 778.246 L124.58 778.246 L124.58 784.126 L119.695 784.126 L119.695 778.246 Z" fill="#000000" fill-rule="evenodd" fill-opacity="1" /><path clip-path="url(#clip970)" d="M144.765 752.645 Q141.154 752.645 139.325 756.209 Q137.519 759.751 137.519 766.881 Q137.519 773.987 139.325 777.552 Q141.154 781.094 144.765 781.094 Q148.399 781.094 150.205 777.552 Q152.033 773.987 152.033 766.881 Q152.033 759.751 150.205 756.209 Q148.399 752.645 144.765 752.645 M144.765 748.941 Q150.575 748.941 153.63 753.547 Q156.709 758.131 156.709 766.881 Q156.709 775.608 153.63 780.214 Q150.575 784.797 144.765 784.797 Q138.955 784.797 135.876 780.214 Q132.82 775.608 132.82 766.881 Q132.82 758.131 135.876 753.547 Q138.955 748.941 144.765 748.941 Z" fill="#000000" fill-rule="evenodd" fill-opacity="1" /><path clip-path="url(#clip970)" d="M100.76 408.364 Q97.1493 408.364 95.3206 411.928 Q93.515 415.47 93.515 422.6 Q93.515 429.706 95.3206 433.271 Q97.1493 436.813 100.76 436.813 Q104.395 436.813 106.2 433.271 Q108.029 429.706 108.029 422.6 Q108.029 415.47 106.2 411.928 Q104.395 408.364 100.76 408.364 M100.76 404.66 Q106.571 404.66 109.626 409.266 Q112.705 413.85 112.705 422.6 Q112.705 431.326 109.626 435.933 Q106.571 440.516 100.76 440.516 Q94.9502 440.516 91.8715 435.933 Q88.816 431.326 88.816 422.6 Q88.816 413.85 91.8715 409.266 Q94.9502 404.66 100.76 404.66 Z" fill="#000000" fill-rule="evenodd" fill-opacity="1" /><path clip-path="url(#clip970)" d="M120.922 433.965 L125.807 433.965 L125.807 439.845 L120.922 439.845 L120.922 433.965 Z" fill="#000000" fill-rule="evenodd" fill-opacity="1" /><path clip-path="url(#clip970)" d="M136.802 435.91 L144.441 435.91 L144.441 409.544 L136.131 411.211 L136.131 406.952 L144.394 405.285 L149.07 405.285 L149.07 435.91 L156.709 435.91 L156.709 439.845 L136.802 439.845 L136.802 435.91 Z" fill="#000000" fill-rule="evenodd" fill-opacity="1" /><path clip-path="url(#clip970)" d="M101.131 64.0826 Q97.5197 64.0826 95.691 67.6474 Q93.8854 71.189 93.8854 78.3186 Q93.8854 85.4251 95.691 88.9899 Q97.5197 92.5315 101.131 92.5315 Q104.765 92.5315 106.571 88.9899 Q108.399 85.4251 108.399 78.3186 Q108.399 71.189 106.571 67.6474 Q104.765 64.0826 101.131 64.0826 M101.131 60.3789 Q106.941 60.3789 109.996 64.9854 Q113.075 69.5687 113.075 78.3186 Q113.075 87.0454 109.996 91.6519 Q106.941 96.2352 101.131 96.2352 Q95.3206 96.2352 92.2419 91.6519 Q89.1864 87.0454 89.1864 78.3186 Q89.1864 69.5687 92.2419 64.9854 Q95.3206 60.3789 101.131 60.3789 Z" fill="#000000" fill-rule="evenodd" fill-opacity="1" /><path clip-path="url(#clip970)" d="M121.293 89.6843 L126.177 89.6843 L126.177 95.5639 L121.293 95.5639 L121.293 89.6843 Z" fill="#000000" fill-rule="evenodd" fill-opacity="1" /><path clip-path="url(#clip970)" d="M140.39 91.6287 L156.709 91.6287 L156.709 95.5639 L134.765 95.5639 L134.765 91.6287 Q137.427 88.8741 142.01 84.2445 Q146.617 79.5918 147.797 78.2492 Q150.043 75.726 150.922 73.9899 Q151.825 72.2307 151.825 70.5409 Q151.825 67.7863 149.88 66.0502 Q147.959 64.3141 144.857 64.3141 Q142.658 64.3141 140.205 65.078 Q137.774 65.8418 134.996 67.3928 L134.996 62.6706 Q137.82 61.5363 140.274 60.9576 Q142.728 60.3789 144.765 60.3789 Q150.135 60.3789 153.33 63.0641 Q156.524 65.7492 156.524 70.24 Q156.524 72.3696 155.714 74.2909 Q154.927 76.189 152.82 78.7816 Q152.242 79.4529 149.14 82.6705 Q146.038 85.8649 140.39 91.6287 Z" fill="#000000" fill-rule="evenodd" fill-opacity="1" /><polyline clip-path="url(#clip972)" style="stroke:#009af9; stroke-linecap:butt; stroke-linejoin:round; stroke-width:16; stroke-opacity:1; fill:none" points="
  253.843,892.122 295.43,520.559 337.017,1125.76 378.605,307.535 420.192,1310.92 461.779,156.543 503.367,1422.6 544.954,87.9763 586.541,1445.72 628.129,111.094 
  669.716,1377.15 711.303,222.775 752.891,1226.16 794.478,407.936 836.065,1013.13 877.653,641.57 919.24,766.846 960.827,892.122 1002.41,520.559 1044,1125.76 
  1085.59,307.535 1127.18,1310.92 1168.76,156.543 1210.35,1422.6 1251.94,87.9763 1293.53,1445.72 1335.11,111.094 1376.7,1377.15 1418.29,222.775 1459.88,1226.16 
  1501.46,407.936 1543.05,1013.13 1584.64,641.57 1626.22,766.846 1667.81,892.122 1709.4,520.559 1750.99,1125.76 1792.57,307.535 1834.16,1310.92 1875.75,156.543 
  1917.34,1422.6 1958.92,87.9763 2000.51,1445.72 2042.1,111.094 2083.69,1377.15 2125.27,222.775 2166.86,1226.16 2208.45,407.936 2250.04,1013.13 2291.62,641.57 
  
  "/>
<polyline clip-path="url(#clip972)" style="stroke:#e26f46; stroke-linecap:butt; stroke-linejoin:round; stroke-width:16; stroke-opacity:1; fill:none" points="
  253.843,767.913 295.43,768.907 337.017,769.902 378.605,770.69 420.192,771.478 461.779,771.953 503.367,772.429 544.954,772.527 586.541,772.626 628.129,772.334 
  669.716,772.042 711.303,771.399 752.891,770.756 794.478,769.85 836.065,768.943 877.653,767.894 919.24,766.846 960.827,765.798 1002.41,764.749 1044,763.842 
  1085.59,762.936 1127.18,762.293 1168.76,761.65 1210.35,761.358 1251.94,761.066 1293.53,761.165 1335.11,761.263 1376.7,761.739 1418.29,762.214 1459.88,763.002 
  1501.46,763.79 1543.05,764.785 1584.64,765.779 1626.22,766.846 1667.81,767.913 1709.4,768.907 1750.99,769.902 1792.57,770.69 1834.16,771.478 1875.75,771.953 
  1917.34,772.429 1958.92,772.527 2000.51,772.626 2042.1,772.334 2083.69,772.042 2125.27,771.399 2166.86,770.756 2208.45,769.85 2250.04,768.943 2291.62,767.894 
  
  "/>
<path clip-path="url(#clip970)" d="
M1988.32 250.738 L2280.75 250.738 L2280.75 95.2176 L1988.32 95.2176  Z
  " fill="#ffffff" fill-rule="evenodd" fill-opacity="1"/>
<polyline clip-path="url(#clip970)" style="stroke:#000000; stroke-linecap:butt; stroke-linejoin:round; stroke-width:4; stroke-opacity:1; fill:none" points="
  1988.32,250.738 2280.75,250.738 2280.75,95.2176 1988.32,95.2176 1988.32,250.738 
  "/>
<polyline clip-path="url(#clip970)" style="stroke:#009af9; stroke-linecap:butt; stroke-linejoin:round; stroke-width:4; stroke-opacity:1; fill:none" points="
  2012.32,147.058 2156.32,147.058 
  "/>
<path clip-path="url(#clip970)" d="M2194.17 166.745 Q2192.36 171.375 2190.65 172.787 Q2188.93 174.199 2186.06 174.199 L2182.66 174.199 L2182.66 170.634 L2185.16 170.634 Q2186.92 170.634 2187.89 169.8 Q2188.86 168.967 2190.05 165.865 L2190.81 163.921 L2180.32 138.412 L2184.84 138.412 L2192.94 158.689 L2201.04 138.412 L2205.55 138.412 L2194.17 166.745 Z" fill="#000000" fill-rule="evenodd" fill-opacity="1" /><path clip-path="url(#clip970)" d="M2212.85 160.402 L2220.48 160.402 L2220.48 134.037 L2212.17 135.703 L2212.17 131.444 L2220.44 129.778 L2225.11 129.778 L2225.11 160.402 L2232.75 160.402 L2232.75 164.338 L2212.85 164.338 L2212.85 160.402 Z" fill="#000000" fill-rule="evenodd" fill-opacity="1" /><polyline clip-path="url(#clip970)" style="stroke:#e26f46; stroke-linecap:butt; stroke-linejoin:round; stroke-width:4; stroke-opacity:1; fill:none" points="
  2012.32,198.898 2156.32,198.898 
  "/>
<path clip-path="url(#clip970)" d="M2194.17 218.585 Q2192.36 223.215 2190.65 224.627 Q2188.93 226.039 2186.06 226.039 L2182.66 226.039 L2182.66 222.474 L2185.16 222.474 Q2186.92 222.474 2187.89 221.64 Q2188.86 220.807 2190.05 217.705 L2190.81 215.761 L2180.32 190.252 L2184.84 190.252 L2192.94 210.529 L2201.04 190.252 L2205.55 190.252 L2194.17 218.585 Z" fill="#000000" fill-rule="evenodd" fill-opacity="1" /><path clip-path="url(#clip970)" d="M2216.06 212.242 L2232.38 212.242 L2232.38 216.178 L2210.44 216.178 L2210.44 212.242 Q2213.1 209.488 2217.68 204.858 Q2222.29 200.205 2223.47 198.863 Q2225.72 196.34 2226.6 194.604 Q2227.5 192.844 2227.5 191.155 Q2227.5 188.4 2225.55 186.664 Q2223.63 184.928 2220.53 184.928 Q2218.33 184.928 2215.88 185.692 Q2213.45 186.455 2210.67 188.006 L2210.67 183.284 Q2213.49 182.15 2215.95 181.571 Q2218.4 180.993 2220.44 180.993 Q2225.81 180.993 2229 183.678 Q2232.2 186.363 2232.2 190.854 Q2232.2 192.983 2231.39 194.905 Q2230.6 196.803 2228.49 199.395 Q2227.92 200.067 2224.81 203.284 Q2221.71 206.479 2216.06 212.242 Z" fill="#000000" fill-rule="evenodd" fill-opacity="1" /></svg>
