<?xml version="1.0" encoding="utf-8"?>
<svg xmlns="http://www.w3.org/2000/svg" xmlns:xlink="http://www.w3.org/1999/xlink" width="600" height="400" viewBox="0 0 2400 1600">
<defs>
  <clipPath id="clip720">
    <rect x="0" y="0" width="2400" height="1600"/>
  </clipPath>
</defs>
<path clip-path="url(#clip720)" d="
M0 1600 L2400 1600 L2400 0 L0 0  Z
  " fill="#ffffff" fill-rule="evenodd" fill-opacity="1"/>
<defs>
  <clipPath id="clip721">
    <rect x="480" y="0" width="1681" height="1600"/>
  </clipPath>
</defs>
<path clip-path="url(#clip720)" d="
M201.339 1442.05 L2112.76 1442.05 L2112.76 47.2441 L201.339 47.2441  Z
  " fill="#ffffff" fill-rule="evenodd" fill-opacity="1"/>
<defs>
  <clipPath id="clip722">
    <rect x="201" y="47" width="1912" height="1396"/>
  </clipPath>
</defs>
<polyline clip-path="url(#clip722)" style="stroke:#000000; stroke-linecap:butt; stroke-linejoin:round; stroke-width:2; stroke-opacity:0.1; fill:none" points="
  201.339,1442.05 201.339,47.2441 
  "/>
<polyline clip-path="url(#clip722)" style="stroke:#000000; stroke-linecap:butt; stroke-linejoin:round; stroke-width:2; stroke-opacity:0.1; fill:none" points="
  679.193,1442.05 679.193,47.2441 
  "/>
<polyline clip-path="url(#clip722)" style="stroke:#000000; stroke-linecap:butt; stroke-linejoin:round; stroke-width:2; stroke-opacity:0.1; fill:none" points="
  1157.05,1442.05 1157.05,47.2441 
  "/>
<polyline clip-path="url(#clip722)" style="stroke:#000000; stroke-linecap:butt; stroke-linejoin:round; stroke-width:2; stroke-opacity:0.1; fill:none" points="
  1634.9,1442.05 1634.9,47.2441 
  "/>
<polyline clip-path="url(#clip722)" style="stroke:#000000; stroke-linecap:butt; stroke-linejoin:round; stroke-width:2; stroke-opacity:0.1; fill:none" points="
  2112.76,1442.05 2112.76,47.2441 
  "/>
<polyline clip-path="url(#clip720)" style="stroke:#000000; stroke-linecap:butt; stroke-linejoin:round; stroke-width:4; stroke-opacity:1; fill:none" points="
  201.339,1442.05 2112.76,1442.05 
  "/>
<polyline clip-path="url(#clip720)" style="stroke:#000000; stroke-linecap:butt; stroke-linejoin:round; stroke-width:4; stroke-opacity:1; fill:none" points="
  201.339,1442.05 201.339,1423.16 
  "/>
<polyline clip-path="url(#clip720)" style="stroke:#000000; stroke-linecap:butt; stroke-linejoin:round; stroke-width:4; stroke-opacity:1; fill:none" points="
  679.193,1442.05 679.193,1423.16 
  "/>
<polyline clip-path="url(#clip720)" style="stroke:#000000; stroke-linecap:butt; stroke-linejoin:round; stroke-width:4; stroke-opacity:1; fill:none" points="
  1157.05,1442.05 1157.05,1423.16 
  "/>
<polyline clip-path="url(#clip720)" style="stroke:#000000; stroke-linecap:butt; stroke-linejoin:round; stroke-width:4; stroke-opacity:1; fill:none" points="
  1634.9,1442.05 1634.9,1423.16 
  "/>
<polyline clip-path="url(#clip720)" style="stroke:#000000; stroke-linecap:butt; stroke-linejoin:round; stroke-width:4; stroke-opacity:1; fill:none" points="
  2112.76,1442.05 2112.76,1423.16 
  "/>
<path clip-path="url(#clip720)" d="M178.724 1471.24 Q175.113 1471.24 173.284 1474.81 Q171.478 1478.35 171.478 1485.48 Q171.478 1492.59 173.284 1496.15 Q175.113 1499.69 178.724 1499.69 Q182.358 1499.69 184.163 1496.15 Q185.992 1492.59 185.992 1485.48 Q185.992 1478.35 184.163 1474.81 Q182.358 1471.24 178.724 1471.24 M178.724 1467.54 Q184.534 1467.54 187.589 1472.15 Q190.668 1476.73 190.668 1485.48 Q190.668 1494.21 187.589 1498.81 Q184.534 1503.4 178.724 1503.4 Q172.914 1503.4 169.835 1498.81 Q166.779 1494.21 166.779 1485.48 Q166.779 1476.73 169.835 1472.15 Q172.914 1467.54 178.724 1467.54 Z" fill="#000000" fill-rule="evenodd" fill-opacity="1" /><path clip-path="url(#clip720)" d="M198.886 1496.85 L203.77 1496.85 L203.77 1502.73 L198.886 1502.73 L198.886 1496.85 Z" fill="#000000" fill-rule="evenodd" fill-opacity="1" /><path clip-path="url(#clip720)" d="M223.955 1471.24 Q220.344 1471.24 218.515 1474.81 Q216.71 1478.35 216.71 1485.48 Q216.71 1492.59 218.515 1496.15 Q220.344 1499.69 223.955 1499.69 Q227.589 1499.69 229.395 1496.15 Q231.223 1492.59 231.223 1485.48 Q231.223 1478.35 229.395 1474.81 Q227.589 1471.24 223.955 1471.24 M223.955 1467.54 Q229.765 1467.54 232.821 1472.15 Q235.899 1476.73 235.899 1485.48 Q235.899 1494.21 232.821 1498.81 Q229.765 1503.4 223.955 1503.4 Q218.145 1503.4 215.066 1498.81 Q212.011 1494.21 212.011 1485.48 Q212.011 1476.73 215.066 1472.15 Q218.145 1467.54 223.955 1467.54 Z" fill="#000000" fill-rule="evenodd" fill-opacity="1" /><path clip-path="url(#clip720)" d="M657.076 1471.24 Q653.464 1471.24 651.636 1474.81 Q649.83 1478.35 649.83 1485.48 Q649.83 1492.59 651.636 1496.15 Q653.464 1499.69 657.076 1499.69 Q660.71 1499.69 662.515 1496.15 Q664.344 1492.59 664.344 1485.48 Q664.344 1478.35 662.515 1474.81 Q660.71 1471.24 657.076 1471.24 M657.076 1467.54 Q662.886 1467.54 665.941 1472.15 Q669.02 1476.73 669.02 1485.48 Q669.02 1494.21 665.941 1498.81 Q662.886 1503.4 657.076 1503.4 Q651.265 1503.4 648.187 1498.81 Q645.131 1494.21 645.131 1485.48 Q645.131 1476.73 648.187 1472.15 Q651.265 1467.54 657.076 1467.54 Z" fill="#000000" fill-rule="evenodd" fill-opacity="1" /><path clip-path="url(#clip720)" d="M677.237 1496.85 L682.122 1496.85 L682.122 1502.73 L677.237 1502.73 L677.237 1496.85 Z" fill="#000000" fill-rule="evenodd" fill-opacity="1" /><path clip-path="url(#clip720)" d="M692.353 1468.17 L710.71 1468.17 L710.71 1472.1 L696.636 1472.1 L696.636 1480.57 Q697.654 1480.23 698.673 1480.06 Q699.691 1479.88 700.71 1479.88 Q706.497 1479.88 709.876 1483.05 Q713.256 1486.22 713.256 1491.64 Q713.256 1497.22 709.784 1500.32 Q706.311 1503.4 699.992 1503.4 Q697.816 1503.4 695.548 1503.03 Q693.302 1502.66 690.895 1501.92 L690.895 1497.22 Q692.978 1498.35 695.2 1498.91 Q697.423 1499.46 699.899 1499.46 Q703.904 1499.46 706.242 1497.36 Q708.58 1495.25 708.58 1491.64 Q708.58 1488.03 706.242 1485.92 Q703.904 1483.81 699.899 1483.81 Q698.024 1483.81 696.149 1484.23 Q694.298 1484.65 692.353 1485.53 L692.353 1468.17 Z" fill="#000000" fill-rule="evenodd" fill-opacity="1" /><path clip-path="url(#clip720)" d="M1124.2 1498.79 L1131.84 1498.79 L1131.84 1472.43 L1123.53 1474.09 L1123.53 1469.83 L1131.79 1468.17 L1136.47 1468.17 L1136.47 1498.79 L1144.11 1498.79 L1144.11 1502.73 L1124.2 1502.73 L1124.2 1498.79 Z" fill="#000000" fill-rule="evenodd" fill-opacity="1" /><path clip-path="url(#clip720)" d="M1153.55 1496.85 L1158.44 1496.85 L1158.44 1502.73 L1153.55 1502.73 L1153.55 1496.85 Z" fill="#000000" fill-rule="evenodd" fill-opacity="1" /><path clip-path="url(#clip720)" d="M1178.62 1471.24 Q1175.01 1471.24 1173.18 1474.81 Q1171.38 1478.35 1171.38 1485.48 Q1171.38 1492.59 1173.18 1496.15 Q1175.01 1499.69 1178.62 1499.69 Q1182.26 1499.69 1184.06 1496.15 Q1185.89 1492.59 1185.89 1485.48 Q1185.89 1478.35 1184.06 1474.81 Q1182.26 1471.24 1178.62 1471.24 M1178.62 1467.54 Q1184.43 1467.54 1187.49 1472.15 Q1190.57 1476.73 1190.57 1485.48 Q1190.57 1494.21 1187.49 1498.81 Q1184.43 1503.4 1178.62 1503.4 Q1172.81 1503.4 1169.73 1498.81 Q1166.68 1494.21 1166.68 1485.48 Q1166.68 1476.73 1169.73 1472.15 Q1172.81 1467.54 1178.62 1467.54 Z" fill="#000000" fill-rule="evenodd" fill-opacity="1" /><path clip-path="url(#clip720)" d="M1602.55 1498.79 L1610.19 1498.79 L1610.19 1472.43 L1601.88 1474.09 L1601.88 1469.83 L1610.14 1468.17 L1614.82 1468.17 L1614.82 1498.79 L1622.46 1498.79 L1622.46 1502.73 L1602.55 1502.73 L1602.55 1498.79 Z" fill="#000000" fill-rule="evenodd" fill-opacity="1" /><path clip-path="url(#clip720)" d="M1631.9 1496.85 L1636.79 1496.85 L1636.79 1502.73 L1631.9 1502.73 L1631.9 1496.85 Z" fill="#000000" fill-rule="evenodd" fill-opacity="1" /><path clip-path="url(#clip720)" d="M1647.02 1468.17 L1665.38 1468.17 L1665.38 1472.1 L1651.3 1472.1 L1651.3 1480.57 Q1652.32 1480.23 1653.34 1480.06 Q1654.36 1479.88 1655.38 1479.88 Q1661.16 1479.88 1664.54 1483.05 Q1667.92 1486.22 1667.92 1491.64 Q1667.92 1497.22 1664.45 1500.32 Q1660.98 1503.4 1654.66 1503.4 Q1652.48 1503.4 1650.21 1503.03 Q1647.97 1502.66 1645.56 1501.92 L1645.56 1497.22 Q1647.64 1498.35 1649.87 1498.91 Q1652.09 1499.46 1654.57 1499.46 Q1658.57 1499.46 1660.91 1497.36 Q1663.25 1495.25 1663.25 1491.64 Q1663.25 1488.03 1660.91 1485.92 Q1658.57 1483.81 1654.57 1483.81 Q1652.69 1483.81 1650.82 1484.23 Q1648.96 1484.65 1647.02 1485.53 L1647.02 1468.17 Z" fill="#000000" fill-rule="evenodd" fill-opacity="1" /><path clip-path="url(#clip720)" d="M2083.99 1498.79 L2100.31 1498.79 L2100.31 1502.73 L2078.37 1502.73 L2078.37 1498.79 Q2081.03 1496.04 2085.61 1491.41 Q2090.22 1486.75 2091.4 1485.41 Q2093.65 1482.89 2094.53 1481.15 Q2095.43 1479.39 2095.43 1477.7 Q2095.43 1474.95 2093.49 1473.21 Q2091.56 1471.48 2088.46 1471.48 Q2086.26 1471.48 2083.81 1472.24 Q2081.38 1473 2078.6 1474.55 L2078.6 1469.83 Q2081.43 1468.7 2083.88 1468.12 Q2086.33 1467.54 2088.37 1467.54 Q2093.74 1467.54 2096.93 1470.23 Q2100.13 1472.91 2100.13 1477.4 Q2100.13 1479.53 2099.32 1481.45 Q2098.53 1483.35 2096.42 1485.94 Q2095.85 1486.61 2092.74 1489.83 Q2089.64 1493.03 2083.99 1498.79 Z" fill="#000000" fill-rule="evenodd" fill-opacity="1" /><path clip-path="url(#clip720)" d="M2110.13 1496.85 L2115.01 1496.85 L2115.01 1502.73 L2110.13 1502.73 L2110.13 1496.85 Z" fill="#000000" fill-rule="evenodd" fill-opacity="1" /><path clip-path="url(#clip720)" d="M2135.2 1471.24 Q2131.59 1471.24 2129.76 1474.81 Q2127.95 1478.35 2127.95 1485.48 Q2127.95 1492.59 2129.76 1496.15 Q2131.59 1499.69 2135.2 1499.69 Q2138.83 1499.69 2140.64 1496.15 Q2142.47 1492.59 2142.47 1485.48 Q2142.47 1478.35 2140.64 1474.81 Q2138.83 1471.24 2135.2 1471.24 M2135.2 1467.54 Q2141.01 1467.54 2144.06 1472.15 Q2147.14 1476.73 2147.14 1485.48 Q2147.14 1494.21 2144.06 1498.81 Q2141.01 1503.4 2135.2 1503.4 Q2129.39 1503.4 2126.31 1498.81 Q2123.25 1494.21 2123.25 1485.48 Q2123.25 1476.73 2126.31 1472.15 Q2129.39 1467.54 2135.2 1467.54 Z" fill="#000000" fill-rule="evenodd" fill-opacity="1" /><path clip-path="url(#clip720)" d="M1171.32 1536.08 Q1171.32 1540.85 1168.87 1545.33 Q1166.45 1549.8 1162.65 1552.51 Q1158.88 1555.21 1155.08 1555.21 Q1150.8 1555.21 1148.58 1550.77 Q1144.55 1566.9 1144.33 1567.32 Q1143.39 1568.71 1142.04 1568.71 Q1141.2 1568.71 1140.69 1568.19 Q1140.17 1567.71 1140.17 1566.94 Q1140.21 1566.68 1140.4 1565.87 L1146.84 1539.95 Q1148.32 1533.92 1152.8 1529.64 Q1157.31 1525.33 1162.14 1525.33 Q1165.97 1525.33 1168.64 1528.19 Q1171.32 1531.06 1171.32 1536.08 M1166.58 1533.25 Q1166.58 1530.03 1165.29 1528.42 Q1164.01 1526.78 1162.01 1526.78 Q1160.17 1526.78 1157.95 1528.26 Q1155.76 1529.74 1153.83 1533.02 Q1152.8 1534.92 1152.06 1537.27 Q1151.32 1539.63 1149.87 1545.42 Q1149.35 1547.74 1149.35 1547.87 Q1149.35 1548.13 1149.48 1548.71 Q1149.64 1549.29 1150.03 1550.19 Q1150.45 1551.06 1151.03 1551.83 Q1151.61 1552.6 1152.67 1553.18 Q1153.73 1553.73 1155.02 1553.73 Q1157.02 1553.73 1159.14 1552.12 Q1161.3 1550.48 1162.88 1547.48 Q1164.2 1545.07 1165.39 1540.53 Q1166.58 1535.95 1166.58 1533.25 Z" fill="#000000" fill-rule="evenodd" fill-opacity="1" /><polyline clip-path="url(#clip722)" style="stroke:#000000; stroke-linecap:butt; stroke-linejoin:round; stroke-width:2; stroke-opacity:0.1; fill:none" points="
  201.339,1442.05 2112.76,1442.05 
  "/>
<polyline clip-path="url(#clip722)" style="stroke:#000000; stroke-linecap:butt; stroke-linejoin:round; stroke-width:2; stroke-opacity:0.1; fill:none" points="
  201.339,1093.35 2112.76,1093.35 
  "/>
<polyline clip-path="url(#clip722)" style="stroke:#000000; stroke-linecap:butt; stroke-linejoin:round; stroke-width:2; stroke-opacity:0.1; fill:none" points="
  201.339,744.649 2112.76,744.649 
  "/>
<polyline clip-path="url(#clip722)" style="stroke:#000000; stroke-linecap:butt; stroke-linejoin:round; stroke-width:2; stroke-opacity:0.1; fill:none" points="
  201.339,395.947 2112.76,395.947 
  "/>
<polyline clip-path="url(#clip722)" style="stroke:#000000; stroke-linecap:butt; stroke-linejoin:round; stroke-width:2; stroke-opacity:0.1; fill:none" points="
  201.339,47.2441 2112.76,47.2441 
  "/>
<polyline clip-path="url(#clip720)" style="stroke:#000000; stroke-linecap:butt; stroke-linejoin:round; stroke-width:4; stroke-opacity:1; fill:none" points="
  201.339,1442.05 201.339,47.2441 
  "/>
<polyline clip-path="url(#clip720)" style="stroke:#000000; stroke-linecap:butt; stroke-linejoin:round; stroke-width:4; stroke-opacity:1; fill:none" points="
  201.339,1442.05 218.129,1442.05 
  "/>
<polyline clip-path="url(#clip720)" style="stroke:#000000; stroke-linecap:butt; stroke-linejoin:round; stroke-width:4; stroke-opacity:1; fill:none" points="
  201.339,1093.35 218.129,1093.35 
  "/>
<polyline clip-path="url(#clip720)" style="stroke:#000000; stroke-linecap:butt; stroke-linejoin:round; stroke-width:4; stroke-opacity:1; fill:none" points="
  201.339,744.649 218.129,744.649 
  "/>
<polyline clip-path="url(#clip720)" style="stroke:#000000; stroke-linecap:butt; stroke-linejoin:round; stroke-width:4; stroke-opacity:1; fill:none" points="
  201.339,395.947 218.129,395.947 
  "/>
<polyline clip-path="url(#clip720)" style="stroke:#000000; stroke-linecap:butt; stroke-linejoin:round; stroke-width:4; stroke-opacity:1; fill:none" points="
  201.339,47.2441 218.129,47.2441 
  "/>
<path clip-path="url(#clip720)" d="M108.164 1427.85 Q104.553 1427.85 102.724 1431.42 Q100.918 1434.96 100.918 1442.09 Q100.918 1449.2 102.724 1452.76 Q104.553 1456.3 108.164 1456.3 Q111.798 1456.3 113.603 1452.76 Q115.432 1449.2 115.432 1442.09 Q115.432 1434.96 113.603 1431.42 Q111.798 1427.85 108.164 1427.85 M108.164 1424.15 Q113.974 1424.15 117.029 1428.76 Q120.108 1433.34 120.108 1442.09 Q120.108 1450.82 117.029 1455.42 Q113.974 1460.01 108.164 1460.01 Q102.354 1460.01 99.2749 1455.42 Q96.2193 1450.82 96.2193 1442.09 Q96.2193 1433.34 99.2749 1428.76 Q102.354 1424.15 108.164 1424.15 Z" fill="#000000" fill-rule="evenodd" fill-opacity="1" /><path clip-path="url(#clip720)" d="M128.326 1453.45 L133.21 1453.45 L133.21 1459.33 L128.326 1459.33 L128.326 1453.45 Z" fill="#000000" fill-rule="evenodd" fill-opacity="1" /><path clip-path="url(#clip720)" d="M153.395 1427.85 Q149.784 1427.85 147.955 1431.42 Q146.15 1434.96 146.15 1442.09 Q146.15 1449.2 147.955 1452.76 Q149.784 1456.3 153.395 1456.3 Q157.029 1456.3 158.835 1452.76 Q160.663 1449.2 160.663 1442.09 Q160.663 1434.96 158.835 1431.42 Q157.029 1427.85 153.395 1427.85 M153.395 1424.15 Q159.205 1424.15 162.261 1428.76 Q165.339 1433.34 165.339 1442.09 Q165.339 1450.82 162.261 1455.42 Q159.205 1460.01 153.395 1460.01 Q147.585 1460.01 144.506 1455.42 Q141.451 1450.82 141.451 1442.09 Q141.451 1433.34 144.506 1428.76 Q147.585 1424.15 153.395 1424.15 Z" fill="#000000" fill-rule="evenodd" fill-opacity="1" /><path clip-path="url(#clip720)" d="M109.159 1079.15 Q105.548 1079.15 103.719 1082.72 Q101.914 1086.26 101.914 1093.39 Q101.914 1100.49 103.719 1104.06 Q105.548 1107.6 109.159 1107.6 Q112.793 1107.6 114.599 1104.06 Q116.428 1100.49 116.428 1093.39 Q116.428 1086.26 114.599 1082.72 Q112.793 1079.15 109.159 1079.15 M109.159 1075.45 Q114.969 1075.45 118.025 1080.05 Q121.103 1084.64 121.103 1093.39 Q121.103 1102.11 118.025 1106.72 Q114.969 1111.3 109.159 1111.3 Q103.349 1111.3 100.27 1106.72 Q97.2147 1102.11 97.2147 1093.39 Q97.2147 1084.64 100.27 1080.05 Q103.349 1075.45 109.159 1075.45 Z" fill="#000000" fill-rule="evenodd" fill-opacity="1" /><path clip-path="url(#clip720)" d="M129.321 1104.75 L134.205 1104.75 L134.205 1110.63 L129.321 1110.63 L129.321 1104.75 Z" fill="#000000" fill-rule="evenodd" fill-opacity="1" /><path clip-path="url(#clip720)" d="M144.437 1076.07 L162.793 1076.07 L162.793 1080.01 L148.719 1080.01 L148.719 1088.48 Q149.738 1088.13 150.756 1087.97 Q151.775 1087.78 152.793 1087.78 Q158.58 1087.78 161.96 1090.96 Q165.339 1094.13 165.339 1099.54 Q165.339 1105.12 161.867 1108.22 Q158.395 1111.3 152.076 1111.3 Q149.9 1111.3 147.631 1110.93 Q145.386 1110.56 142.978 1109.82 L142.978 1105.12 Q145.062 1106.26 147.284 1106.81 Q149.506 1107.37 151.983 1107.37 Q155.988 1107.37 158.325 1105.26 Q160.663 1103.15 160.663 1099.54 Q160.663 1095.93 158.325 1093.83 Q155.988 1091.72 151.983 1091.72 Q150.108 1091.72 148.233 1092.14 Q146.381 1092.55 144.437 1093.43 L144.437 1076.07 Z" fill="#000000" fill-rule="evenodd" fill-opacity="1" /><path clip-path="url(#clip720)" d="M98.9739 757.994 L106.613 757.994 L106.613 731.628 L98.3026 733.295 L98.3026 729.036 L106.566 727.369 L111.242 727.369 L111.242 757.994 L118.881 757.994 L118.881 761.929 L98.9739 761.929 L98.9739 757.994 Z" fill="#000000" fill-rule="evenodd" fill-opacity="1" /><path clip-path="url(#clip720)" d="M128.326 756.049 L133.21 756.049 L133.21 761.929 L128.326 761.929 L128.326 756.049 Z" fill="#000000" fill-rule="evenodd" fill-opacity="1" /><path clip-path="url(#clip720)" d="M153.395 730.448 Q149.784 730.448 147.955 734.013 Q146.15 737.554 146.15 744.684 Q146.15 751.79 147.955 755.355 Q149.784 758.897 153.395 758.897 Q157.029 758.897 158.835 755.355 Q160.663 751.79 160.663 744.684 Q160.663 737.554 158.835 734.013 Q157.029 730.448 153.395 730.448 M153.395 726.744 Q159.205 726.744 162.261 731.351 Q165.339 735.934 165.339 744.684 Q165.339 753.411 162.261 758.017 Q159.205 762.6 153.395 762.6 Q147.585 762.6 144.506 758.017 Q141.451 753.411 141.451 744.684 Q141.451 735.934 144.506 731.351 Q147.585 726.744 153.395 726.744 Z" fill="#000000" fill-rule="evenodd" fill-opacity="1" /><path clip-path="url(#clip720)" d="M99.9693 409.291 L107.608 409.291 L107.608 382.926 L99.298 384.592 L99.298 380.333 L107.562 378.667 L112.238 378.667 L112.238 409.291 L119.877 409.291 L119.877 413.227 L99.9693 413.227 L99.9693 409.291 Z" fill="#000000" fill-rule="evenodd" fill-opacity="1" /><path clip-path="url(#clip720)" d="M129.321 407.347 L134.205 407.347 L134.205 413.227 L129.321 413.227 L129.321 407.347 Z" fill="#000000" fill-rule="evenodd" fill-opacity="1" /><path clip-path="url(#clip720)" d="M144.437 378.667 L162.793 378.667 L162.793 382.602 L148.719 382.602 L148.719 391.074 Q149.738 390.727 150.756 390.565 Q151.775 390.379 152.793 390.379 Q158.58 390.379 161.96 393.551 Q165.339 396.722 165.339 402.139 Q165.339 407.717 161.867 410.819 Q158.395 413.898 152.076 413.898 Q149.9 413.898 147.631 413.527 Q145.386 413.157 142.978 412.416 L142.978 407.717 Q145.062 408.852 147.284 409.407 Q149.506 409.963 151.983 409.963 Q155.988 409.963 158.325 407.856 Q160.663 405.75 160.663 402.139 Q160.663 398.528 158.325 396.421 Q155.988 394.315 151.983 394.315 Q150.108 394.315 148.233 394.731 Q146.381 395.148 144.437 396.028 L144.437 378.667 Z" fill="#000000" fill-rule="evenodd" fill-opacity="1" /><path clip-path="url(#clip720)" d="M102.192 60.5889 L118.511 60.5889 L118.511 64.5241 L96.5665 64.5241 L96.5665 60.5889 Q99.2286 57.8343 103.812 53.2047 Q108.418 48.552 109.599 47.2094 Q111.844 44.6862 112.724 42.9501 Q113.627 41.1909 113.627 39.5011 Q113.627 36.7465 111.682 35.0104 Q109.761 33.2743 106.659 33.2743 Q104.46 33.2743 102.006 34.0381 Q99.5758 34.802 96.798 36.3529 L96.798 31.6308 Q99.6221 30.4965 102.076 29.9178 Q104.529 29.3391 106.566 29.3391 Q111.937 29.3391 115.131 32.0243 Q118.326 34.7094 118.326 39.2002 Q118.326 41.3298 117.516 43.2511 Q116.728 45.1492 114.622 47.7418 Q114.043 48.4131 110.941 51.6306 Q107.84 54.8251 102.192 60.5889 Z" fill="#000000" fill-rule="evenodd" fill-opacity="1" /><path clip-path="url(#clip720)" d="M128.326 58.6445 L133.21 58.6445 L133.21 64.5241 L128.326 64.5241 L128.326 58.6445 Z" fill="#000000" fill-rule="evenodd" fill-opacity="1" /><path clip-path="url(#clip720)" d="M153.395 33.0428 Q149.784 33.0428 147.955 36.6076 Q146.15 40.1492 146.15 47.2788 Q146.15 54.3853 147.955 57.9501 Q149.784 61.4917 153.395 61.4917 Q157.029 61.4917 158.835 57.9501 Q160.663 54.3853 160.663 47.2788 Q160.663 40.1492 158.835 36.6076 Q157.029 33.0428 153.395 33.0428 M153.395 29.3391 Q159.205 29.3391 162.261 33.9456 Q165.339 38.5289 165.339 47.2788 Q165.339 56.0056 162.261 60.6121 Q159.205 65.1954 153.395 65.1954 Q147.585 65.1954 144.506 60.6121 Q141.451 56.0056 141.451 47.2788 Q141.451 38.5289 144.506 33.9456 Q147.585 29.3391 153.395 29.3391 Z" fill="#000000" fill-rule="evenodd" fill-opacity="1" /><path clip-path="url(#clip720)" d="M20.7124 718.862 Q21.3243 718.862 21.8396 718.99 L33.3049 720.794 Q34.1745 720.891 34.4965 721.084 Q34.8186 721.245 34.8186 721.76 Q34.8186 722.565 33.9812 722.565 Q33.4981 722.565 32.7252 722.372 Q29.0859 721.825 27.4434 721.825 Q26.3484 721.825 25.5433 722.05 Q24.7059 722.243 24.1262 722.565 Q23.5465 722.855 23.16 723.531 Q22.7736 724.208 22.5481 724.852 Q22.3227 725.496 22.2261 726.655 Q22.0973 727.815 22.0651 728.813 Q22.0328 729.812 22.0328 731.454 Q22.0328 735.029 22.1617 735.609 Q22.3227 736.221 22.8058 736.543 Q23.2567 736.832 24.6093 737.155 L59.6171 745.915 L61.0019 746.172 Q61.7749 746.172 62.0325 745.689 Q62.2902 745.206 62.4512 743.725 Q62.6122 741.599 62.6122 739.506 Q62.6122 739.441 62.6122 739.312 Q62.6122 738.604 62.6444 738.314 Q62.6444 738.024 62.7088 737.734 Q62.7733 737.444 62.9343 737.38 Q63.0631 737.283 63.3208 737.283 Q63.9327 737.283 64.2547 737.541 Q64.5446 737.799 64.609 738.056 Q64.6412 738.282 64.6412 738.733 Q64.6412 739.634 64.5768 741.567 Q64.5124 743.499 64.5124 744.465 L64.448 749.94 L64.5124 755.544 Q64.5124 756.414 64.5768 758.249 Q64.6412 760.085 64.6412 760.955 Q64.6412 762.082 63.8361 762.082 Q62.9343 762.082 62.7733 761.663 Q62.6122 761.212 62.6122 759.312 Q62.6122 756.639 62.4834 755.19 Q62.3546 753.741 61.9037 752.968 Q61.4528 752.162 61.0019 751.937 Q60.5188 751.712 59.4238 751.454 L24.2228 742.597 Q23.4499 742.34 22.838 742.34 Q22.5159 742.34 22.3871 742.436 Q22.2583 742.501 22.1617 742.919 Q22.0328 743.338 22.0328 744.208 L22.0328 746.784 Q22.0328 749.425 22.1617 751.067 Q22.2583 752.678 22.7414 754.224 Q23.2245 755.737 23.9008 756.639 Q24.5771 757.509 25.962 758.475 Q27.3468 759.441 29.0215 760.15 Q30.6962 760.826 33.4337 761.792 Q34.3355 762.114 34.5931 762.307 Q34.8186 762.468 34.8186 762.919 Q34.8186 763.241 34.6253 763.499 Q34.3999 763.724 34.11 763.724 Q33.0472 763.402 32.9184 763.338 L21.2921 759.377 Q20.3581 759.055 20.1971 758.765 Q20.0039 758.443 20.0039 757.251 L20.0039 720.665 Q20.0039 720.085 20.0039 719.892 Q20.0039 719.699 20.0683 719.377 Q20.1327 719.055 20.2937 718.958 Q20.4548 718.862 20.7124 718.862 Z" fill="#000000" fill-rule="evenodd" fill-opacity="1" /><polyline clip-path="url(#clip722)" style="stroke:#f1e864; stroke-linecap:butt; stroke-linejoin:round; stroke-width:16; stroke-opacity:1; fill:none" points="
  2057.29,95.341 2112.76,134.42 
  "/>
<polyline clip-path="url(#clip722)" style="stroke:#f1e864; stroke-linecap:butt; stroke-linejoin:round; stroke-width:16; stroke-opacity:1; fill:none" points="
  2046.84,87.7185 1993.29,47.2441 
  "/>
<polyline clip-path="url(#clip722)" style="stroke:#f8c931; stroke-linecap:butt; stroke-linejoin:round; stroke-width:16; stroke-opacity:1; fill:none" points="
  1873.83,47.2441 1915.02,80.7732 1933.56,95.341 1980.93,131.191 1997.72,143.438 2046.84,178.008 2066.81,191.535 2112.76,221.595 
  "/>
<polyline clip-path="url(#clip722)" style="stroke:#fbaa0e; stroke-linecap:butt; stroke-linejoin:round; stroke-width:16; stroke-opacity:1; fill:none" points="
  2112.76,308.771 2077.91,287.729 2046.84,268.297 2002.85,239.632 1980.93,224.824 1933.56,191.535 1915.02,178.008 1869.4,143.438 1849.11,127.446 1809.83,95.341 
  1783.2,72.6703 1754.37,47.2441 
  "/>
<polyline clip-path="url(#clip722)" style="stroke:#f98c09; stroke-linecap:butt; stroke-linejoin:round; stroke-width:16; stroke-opacity:1; fill:none" points="
  1634.9,47.2441 1651.38,63.0942 1686.1,95.341 1717.29,123.049 1741.09,143.438 1783.2,178.008 1800.31,191.535 1849.11,228.569 1864.27,239.632 1915.02,275.242 
  1933.56,287.729 1980.93,318.457 2008.87,335.825 2046.84,358.586 2091.04,383.922 2112.76,395.947 
  "/>
<polyline clip-path="url(#clip722)" style="stroke:#f0701e; stroke-linecap:butt; stroke-linejoin:round; stroke-width:16; stroke-opacity:1; fill:none" points="
  2112.76,483.122 2106.78,480.116 2046.84,448.875 2016.05,432.019 1980.93,412.09 1933.56,383.922 1915.02,372.476 1858.25,335.825 1849.11,329.693 1789.21,287.729 
  1783.2,283.345 1725.69,239.632 1717.29,232.966 1667.07,191.535 1651.38,178.008 1612.78,143.438 1585.47,117.815 1562.37,95.341 1519.56,51.6029 1515.44,47.2441 
  
  "/>
<polyline clip-path="url(#clip722)" style="stroke:#e35832; stroke-linecap:butt; stroke-linejoin:round; stroke-width:16; stroke-opacity:1; fill:none" points="
  1395.97,47.2441 1438.64,95.341 1453.65,111.479 1484.47,143.438 1519.56,178.008 1533.82,191.535 1585.47,238.2 1587.12,239.632 1644.86,287.729 1651.38,292.921 
  1707.62,335.825 1717.29,342.883 1776.09,383.922 1783.2,388.682 1849.11,430.817 1851.07,432.019 1915.02,469.711 1933.56,480.116 1980.93,505.723 2024.73,528.213 
  2046.84,539.164 2112.76,570.298 
  "/>
<polyline clip-path="url(#clip722)" style="stroke:#d04544; stroke-linecap:butt; stroke-linejoin:round; stroke-width:16; stroke-opacity:1; fill:none" points="
  2112.76,657.473 2046.84,629.453 2035.46,624.407 1980.93,599.356 1933.56,576.31 1915.02,566.945 1849.11,531.941 1842.39,528.213 1783.2,494.019 1760.34,480.116 
  1717.29,452.8 1686.1,432.019 1651.38,407.834 1618.61,383.922 1585.47,358.586 1556.99,335.825 1519.56,304.412 1500.51,287.729 1453.65,244.536 1448.54,239.632 
  1400.57,191.535 1387.74,178.008 1356.15,143.438 1321.82,103.652 1314.91,95.341 1276.51,47.2441 
  "/>
<polyline clip-path="url(#clip722)" style="stroke:#ba3655; stroke-linecap:butt; stroke-linejoin:round; stroke-width:16; stroke-opacity:1; fill:none" points="
  1157.05,47.2441 1190,93.7378 1191.18,95.341 1227.84,143.438 1255.91,178.008 1267.32,191.535 1309.96,239.632 1321.82,252.363 1356.15,287.729 1387.74,318.457 
  1406.36,335.825 1453.65,377.594 1461.14,383.922 1519.56,430.817 1521.13,432.019 1585.47,478.971 1587.12,480.116 1651.38,522.747 1660.05,528.213 1717.29,562.717 
  1741.09,576.31 1783.2,599.356 1831.67,624.407 1849.11,633.064 1915.02,664.179 1933.56,672.504 1980.93,692.989 2046.84,719.742 2049.04,720.601 2112.76,744.649 
  
  "/>
<polyline clip-path="url(#clip722)" style="stroke:#a12b61; stroke-linecap:butt; stroke-linejoin:round; stroke-width:16; stroke-opacity:1; fill:none" points="
  2112.76,831.825 2066.81,816.794 2046.84,810.031 1980.93,786.622 1933.56,768.697 1915.02,761.414 1849.11,734.188 1818.08,720.601 1783.2,704.694 1717.29,672.634 
  1717.03,672.504 1651.38,637.661 1627.87,624.407 1585.47,599.356 1548.62,576.31 1519.56,557.221 1477.71,528.213 1453.65,510.651 1413.89,480.116 1387.74,458.907 
  1356.15,432.019 1321.82,401.075 1303.66,383.922 1255.91,336.013 1255.73,335.825 1211.8,287.729 1190,262.277 1171.38,239.632 1134.07,191.535 1124.09,178.008 
  1099.53,143.438 1067.45,95.341 1058.18,80.7732 1037.58,47.2441 
  "/>
<polyline clip-path="url(#clip722)" style="stroke:#88216a; stroke-linecap:butt; stroke-linejoin:round; stroke-width:16; stroke-opacity:1; fill:none" points="
  918.121,47.2441 926.359,63.0942 943.72,95.341 971.215,143.438 992.27,178.008 1000.83,191.535 1032.81,239.632 1058.18,275.242 1067.45,287.729 1105.11,335.825 
  1124.09,358.586 1146.19,383.922 1190,430.817 1191.18,432.019 1240.67,480.116 1255.91,494.019 1295.37,528.213 1321.82,549.786 1356.15,576.31 1387.74,599.356 
  1424.08,624.407 1453.65,643.709 1500.51,672.504 1519.56,683.626 1585.47,719.742 1587.12,720.601 1651.38,752.574 1686.1,768.697 1717.29,782.551 1783.2,810.031 
  1800.31,816.794 1849.11,835.312 1915.02,858.648 1933.56,864.891 1980.93,880.256 2046.84,900.32 2091.04,912.988 2112.76,919 
  "/>
<polyline clip-path="url(#clip722)" style="stroke:#6e186e; stroke-linecap:butt; stroke-linejoin:round; stroke-width:16; stroke-opacity:1; fill:none" points="
  2112.76,1006.18 2046.84,990.609 1980.93,973.889 1933.56,961.085 1915.02,955.882 1849.11,936.435 1783.2,915.368 1776.09,912.988 1717.29,892.469 1651.38,867.487 
  1644.86,864.891 1585.47,840.127 1533.82,816.794 1519.56,810.031 1453.65,776.766 1438.64,768.697 1387.74,739.806 1356.15,720.601 1321.82,698.497 1283.98,672.504 
  1255.91,652.025 1220.29,624.407 1190,599.356 1163.68,576.31 1124.09,539.164 1113.03,528.213 1067.45,480.116 1058.18,469.711 1026.21,432.019 992.27,388.682 
  988.713,383.922 954.479,335.825 926.359,292.921 923.098,287.729 894.228,239.632 867.578,191.535 860.448,178.008 842.903,143.438 819.99,95.341 798.657,47.2441 
  
  "/>
<polyline clip-path="url(#clip722)" style="stroke:#550f6d; stroke-linecap:butt; stroke-linejoin:round; stroke-width:16; stroke-opacity:1; fill:none" points="
  679.193,47.2441 696.26,95.341 714.59,143.438 728.627,178.008 734.33,191.535 755.65,239.632 778.746,287.729 794.538,318.457 803.851,335.825 831.238,383.922 
  860.448,430.817 861.233,432.019 894.228,480.116 926.359,522.747 930.696,528.213 971.215,576.31 992.27,599.356 1016.5,624.407 1058.18,664.179 1067.45,672.504 
  1124.09,719.742 1125.19,720.601 1190,767.896 1191.18,768.697 1255.91,810.031 1267.32,816.794 1321.82,847.209 1356.15,864.891 1387.74,880.256 1453.65,909.824 
  1461.14,912.988 1519.56,936.435 1585.47,960.512 1587.12,961.085 1651.38,982.401 1717.29,1002.39 1741.09,1009.18 1783.2,1020.71 1849.11,1037.56 1915.02,1053.12 
  1933.56,1057.28 1980.93,1067.52 2046.84,1080.9 2112.76,1093.35 
  "/>
<polyline clip-path="url(#clip722)" style="stroke:#3b0964; stroke-linecap:butt; stroke-linejoin:round; stroke-width:16; stroke-opacity:1; fill:none" points="
  2112.76,1180.53 2046.84,1171.19 1980.93,1161.15 1933.56,1153.47 1915.02,1150.35 1849.11,1138.68 1783.2,1126.04 1717.29,1112.3 1686.1,1105.38 1651.38,1097.31 
  1585.47,1080.9 1519.56,1062.84 1500.51,1057.28 1453.65,1042.88 1387.74,1020.71 1356.15,1009.18 1321.82,995.92 1255.91,968.037 1240.67,961.085 1190,936.435 
  1146.19,912.988 1124.09,900.32 1067.45,864.891 1058.18,858.648 1000.83,816.794 992.27,810.031 943.72,768.697 926.359,752.574 894.228,720.601 860.448,683.626 
  850.922,672.504 812.712,624.407 794.538,599.356 778.746,576.31 748.357,528.213 728.627,494.019 721.006,480.116 696.26,432.019 673.763,383.922 662.716,358.586 
  653.223,335.825 634.395,287.729 617.072,239.632 601.083,191.535 596.805,178.008 586.277,143.438 572.53,95.341 559.73,47.2441 
  "/>
<polyline clip-path="url(#clip722)" style="stroke:#1f0c47; stroke-linecap:butt; stroke-linejoin:round; stroke-width:16; stroke-opacity:1; fill:none" points="
  440.266,47.2441 448.8,95.341 457.965,143.438 464.983,178.008 467.835,191.535 478.495,239.632 490.043,287.729 502.595,335.825 516.289,383.922 530.894,430.817 
  531.286,432.019 547.784,480.116 566.017,528.213 586.277,576.31 596.805,599.356 608.921,624.407 634.395,672.504 662.716,719.742 663.265,720.601 696.26,768.697 
  728.627,810.031 734.33,816.794 778.746,864.891 794.538,880.256 831.238,912.988 860.448,936.435 894.228,961.085 926.359,982.401 971.215,1009.18 992.27,1020.71 
  1058.18,1053.12 1067.45,1057.28 1124.09,1080.9 1190,1104.97 1191.18,1105.38 1255.91,1126.04 1321.82,1144.63 1356.15,1153.47 1387.74,1161.15 1453.65,1175.94 
  1519.56,1189.24 1585.47,1201.28 1587.12,1201.57 1651.38,1212.23 1717.29,1222.22 1783.2,1231.38 1849.11,1239.81 1915.02,1247.59 1933.56,1249.67 1980.93,1254.79 
  2046.84,1261.48 2112.76,1267.7 
  "/>
<polyline clip-path="url(#clip722)" style="stroke:#090621; stroke-linecap:butt; stroke-linejoin:round; stroke-width:16; stroke-opacity:1; fill:none" points="
  2112.76,1354.88 2046.84,1351.76 1980.93,1348.42 1933.56,1345.86 1915.02,1344.82 1849.11,1340.93 1783.2,1336.72 1717.29,1332.14 1651.38,1327.14 1585.47,1321.67 
  1519.56,1315.65 1453.65,1309 1387.74,1301.6 1356.15,1297.76 1321.82,1293.34 1255.91,1284.05 1190,1273.51 1124.09,1261.48 1067.45,1249.67 1058.18,1247.59 
  992.27,1231.38 926.359,1212.23 894.228,1201.57 860.448,1189.24 794.538,1161.15 778.746,1153.47 728.627,1126.04 696.26,1105.38 662.716,1080.9 634.395,1057.28 
  596.805,1020.71 586.277,1009.18 547.784,961.085 530.894,936.435 516.289,912.988 490.043,864.891 467.835,816.794 464.983,810.031 448.8,768.697 432.302,720.601 
  417.867,672.504 405.13,624.407 399.072,599.356 393.808,576.31 383.678,528.213 374.561,480.116 366.313,432.019 358.814,383.922 351.967,335.825 345.691,287.729 
  339.917,239.632 334.587,191.535 333.161,178.008 329.652,143.438 325.069,95.341 320.803,47.2441 
  "/>
<defs>
  <clipPath id="clip723">
    <rect x="2160" y="47" width="73" height="1396"/>
  </clipPath>
</defs>
<polyline clip-path="url(#clip723)" style="stroke:#0a0723; stroke-linecap:butt; stroke-linejoin:round; stroke-width:16; stroke-opacity:1; fill:none" points="
  2160.76,1354.88 2232.76,1354.88 
  "/>
<polyline clip-path="url(#clip723)" style="stroke:#200c4a; stroke-linecap:butt; stroke-linejoin:round; stroke-width:16; stroke-opacity:1; fill:none" points="
  2160.76,1267.7 2232.76,1267.7 
  "/>
<polyline clip-path="url(#clip723)" style="stroke:#3c0965; stroke-linecap:butt; stroke-linejoin:round; stroke-width:16; stroke-opacity:1; fill:none" points="
  2160.76,1180.53 2232.76,1180.53 
  "/>
<polyline clip-path="url(#clip723)" style="stroke:#570f6d; stroke-linecap:butt; stroke-linejoin:round; stroke-width:16; stroke-opacity:1; fill:none" points="
  2160.76,1093.35 2232.76,1093.35 
  "/>
<polyline clip-path="url(#clip723)" style="stroke:#70196e; stroke-linecap:butt; stroke-linejoin:round; stroke-width:16; stroke-opacity:1; fill:none" points="
  2160.76,1006.18 2232.76,1006.18 
  "/>
<polyline clip-path="url(#clip723)" style="stroke:#892269; stroke-linecap:butt; stroke-linejoin:round; stroke-width:16; stroke-opacity:1; fill:none" points="
  2160.76,919 2232.76,919 
  "/>
<polyline clip-path="url(#clip723)" style="stroke:#a32b61; stroke-linecap:butt; stroke-linejoin:round; stroke-width:16; stroke-opacity:1; fill:none" points="
  2160.76,831.825 2232.76,831.825 
  "/>
<polyline clip-path="url(#clip723)" style="stroke:#bb3754; stroke-linecap:butt; stroke-linejoin:round; stroke-width:16; stroke-opacity:1; fill:none" points="
  2160.76,744.649 2232.76,744.649 
  "/>
<polyline clip-path="url(#clip723)" style="stroke:#d04544; stroke-linecap:butt; stroke-linejoin:round; stroke-width:16; stroke-opacity:1; fill:none" points="
  2160.76,657.473 2232.76,657.473 
  "/>
<polyline clip-path="url(#clip723)" style="stroke:#e35832; stroke-linecap:butt; stroke-linejoin:round; stroke-width:16; stroke-opacity:1; fill:none" points="
  2160.76,570.298 2232.76,570.298 
  "/>
<polyline clip-path="url(#clip723)" style="stroke:#f0701e; stroke-linecap:butt; stroke-linejoin:round; stroke-width:16; stroke-opacity:1; fill:none" points="
  2160.76,483.122 2232.76,483.122 
  "/>
<polyline clip-path="url(#clip723)" style="stroke:#f98c09; stroke-linecap:butt; stroke-linejoin:round; stroke-width:16; stroke-opacity:1; fill:none" points="
  2160.76,395.947 2232.76,395.947 
  "/>
<polyline clip-path="url(#clip723)" style="stroke:#fbaa0e; stroke-linecap:butt; stroke-linejoin:round; stroke-width:16; stroke-opacity:1; fill:none" points="
  2160.76,308.771 2232.76,308.771 
  "/>
<polyline clip-path="url(#clip723)" style="stroke:#f8c931; stroke-linecap:butt; stroke-linejoin:round; stroke-width:16; stroke-opacity:1; fill:none" points="
  2160.76,221.595 2232.76,221.595 
  "/>
<polyline clip-path="url(#clip723)" style="stroke:#f1e864; stroke-linecap:butt; stroke-linejoin:round; stroke-width:16; stroke-opacity:1; fill:none" points="
  2160.76,134.42 2232.76,134.42 
  "/>
<path clip-path="url(#clip720)" d="M2280.7 1424.22 Q2277.09 1424.22 2275.26 1427.79 Q2273.45 1431.33 2273.45 1438.46 Q2273.45 1445.57 2275.26 1449.13 Q2277.09 1452.67 2280.7 1452.67 Q2284.33 1452.67 2286.14 1449.13 Q2287.97 1445.57 2287.97 1438.46 Q2287.97 1431.33 2286.14 1427.79 Q2284.33 1424.22 2280.7 1424.22 M2280.7 1420.52 Q2286.51 1420.52 2289.57 1425.13 Q2292.64 1429.71 2292.64 1438.46 Q2292.64 1447.19 2289.57 1451.79 Q2286.51 1456.38 2280.7 1456.38 Q2274.89 1456.38 2271.81 1451.79 Q2268.76 1447.19 2268.76 1438.46 Q2268.76 1429.71 2271.81 1425.13 Q2274.89 1420.52 2280.7 1420.52 Z" fill="#000000" fill-rule="evenodd" fill-opacity="1" /><path clip-path="url(#clip720)" d="M2280.7 1249.87 Q2277.09 1249.87 2275.26 1253.44 Q2273.45 1256.98 2273.45 1264.11 Q2273.45 1271.22 2275.26 1274.78 Q2277.09 1278.32 2280.7 1278.32 Q2284.33 1278.32 2286.14 1274.78 Q2287.97 1271.22 2287.97 1264.11 Q2287.97 1256.98 2286.14 1253.44 Q2284.33 1249.87 2280.7 1249.87 M2280.7 1246.17 Q2286.51 1246.17 2289.57 1250.78 Q2292.64 1255.36 2292.64 1264.11 Q2292.64 1272.84 2289.57 1277.44 Q2286.51 1282.03 2280.7 1282.03 Q2274.89 1282.03 2271.81 1277.44 Q2268.76 1272.84 2268.76 1264.11 Q2268.76 1255.36 2271.81 1250.78 Q2274.89 1246.17 2280.7 1246.17 Z" fill="#000000" fill-rule="evenodd" fill-opacity="1" /><path clip-path="url(#clip720)" d="M2300.86 1275.47 L2305.75 1275.47 L2305.75 1281.35 L2300.86 1281.35 L2300.86 1275.47 Z" fill="#000000" fill-rule="evenodd" fill-opacity="1" /><path clip-path="url(#clip720)" d="M2315.98 1246.79 L2334.33 1246.79 L2334.33 1250.73 L2320.26 1250.73 L2320.26 1259.2 Q2321.28 1258.85 2322.3 1258.69 Q2323.32 1258.51 2324.33 1258.51 Q2330.12 1258.51 2333.5 1261.68 Q2336.88 1264.85 2336.88 1270.27 Q2336.88 1275.84 2333.41 1278.95 Q2329.94 1282.03 2323.62 1282.03 Q2321.44 1282.03 2319.17 1281.65 Q2316.93 1281.28 2314.52 1280.54 L2314.52 1275.84 Q2316.6 1276.98 2318.83 1277.53 Q2321.05 1278.09 2323.52 1278.09 Q2327.53 1278.09 2329.87 1275.98 Q2332.2 1273.88 2332.2 1270.27 Q2332.2 1266.65 2329.87 1264.55 Q2327.53 1262.44 2323.52 1262.44 Q2321.65 1262.44 2319.77 1262.86 Q2317.92 1263.28 2315.98 1264.15 L2315.98 1246.79 Z" fill="#000000" fill-rule="evenodd" fill-opacity="1" /><path clip-path="url(#clip720)" d="M2269.43 1103.07 L2277.07 1103.07 L2277.07 1076.7 L2268.76 1078.37 L2268.76 1074.11 L2277.02 1072.44 L2281.7 1072.44 L2281.7 1103.07 L2289.33 1103.07 L2289.33 1107 L2269.43 1107 L2269.43 1103.07 Z" fill="#000000" fill-rule="evenodd" fill-opacity="1" /><path clip-path="url(#clip720)" d="M2298.78 1101.12 L2303.66 1101.12 L2303.66 1107 L2298.78 1107 L2298.78 1101.12 Z" fill="#000000" fill-rule="evenodd" fill-opacity="1" /><path clip-path="url(#clip720)" d="M2323.85 1075.52 Q2320.24 1075.52 2318.41 1079.09 Q2316.6 1082.63 2316.6 1089.76 Q2316.6 1096.86 2318.41 1100.43 Q2320.24 1103.97 2323.85 1103.97 Q2327.48 1103.97 2329.29 1100.43 Q2331.12 1096.86 2331.12 1089.76 Q2331.12 1082.63 2329.29 1079.09 Q2327.48 1075.52 2323.85 1075.52 M2323.85 1071.82 Q2329.66 1071.82 2332.71 1076.42 Q2335.79 1081.01 2335.79 1089.76 Q2335.79 1098.48 2332.71 1103.09 Q2329.66 1107.67 2323.85 1107.67 Q2318.04 1107.67 2314.96 1103.09 Q2311.9 1098.48 2311.9 1089.76 Q2311.9 1081.01 2314.96 1076.42 Q2318.04 1071.82 2323.85 1071.82 Z" fill="#000000" fill-rule="evenodd" fill-opacity="1" /><path clip-path="url(#clip720)" d="M2269.43 928.716 L2277.07 928.716 L2277.07 902.351 L2268.76 904.017 L2268.76 899.758 L2277.02 898.091 L2281.7 898.091 L2281.7 928.716 L2289.33 928.716 L2289.33 932.651 L2269.43 932.651 L2269.43 928.716 Z" fill="#000000" fill-rule="evenodd" fill-opacity="1" /><path clip-path="url(#clip720)" d="M2298.78 926.772 L2303.66 926.772 L2303.66 932.651 L2298.78 932.651 L2298.78 926.772 Z" fill="#000000" fill-rule="evenodd" fill-opacity="1" /><path clip-path="url(#clip720)" d="M2313.89 898.091 L2332.25 898.091 L2332.25 902.027 L2318.18 902.027 L2318.18 910.499 Q2319.2 910.152 2320.21 909.99 Q2321.23 909.804 2322.25 909.804 Q2328.04 909.804 2331.42 912.976 Q2334.8 916.147 2334.8 921.564 Q2334.8 927.142 2331.33 930.244 Q2327.85 933.323 2321.53 933.323 Q2319.36 933.323 2317.09 932.952 Q2314.84 932.582 2312.44 931.841 L2312.44 927.142 Q2314.52 928.277 2316.74 928.832 Q2318.96 929.388 2321.44 929.388 Q2325.45 929.388 2327.78 927.281 Q2330.12 925.175 2330.12 921.564 Q2330.12 917.952 2327.78 915.846 Q2325.45 913.74 2321.44 913.74 Q2319.57 913.74 2317.69 914.156 Q2315.84 914.573 2313.89 915.453 L2313.89 898.091 Z" fill="#000000" fill-rule="evenodd" fill-opacity="1" /><path clip-path="url(#clip720)" d="M2274.38 754.365 L2290.7 754.365 L2290.7 758.3 L2268.76 758.3 L2268.76 754.365 Q2271.42 751.61 2276 746.981 Q2280.61 742.328 2281.79 740.986 Q2284.03 738.462 2284.91 736.726 Q2285.82 734.967 2285.82 733.277 Q2285.82 730.523 2283.87 728.787 Q2281.95 727.05 2278.85 727.05 Q2276.65 727.05 2274.2 727.814 Q2271.77 728.578 2268.99 730.129 L2268.99 725.407 Q2271.81 724.273 2274.27 723.694 Q2276.72 723.115 2278.76 723.115 Q2284.13 723.115 2287.32 725.8 Q2290.52 728.486 2290.52 732.976 Q2290.52 735.106 2289.7 737.027 Q2288.92 738.925 2286.81 741.518 Q2286.23 742.189 2283.13 745.407 Q2280.03 748.601 2274.38 754.365 Z" fill="#000000" fill-rule="evenodd" fill-opacity="1" /><path clip-path="url(#clip720)" d="M2300.51 752.421 L2305.4 752.421 L2305.4 758.3 L2300.51 758.3 L2300.51 752.421 Z" fill="#000000" fill-rule="evenodd" fill-opacity="1" /><path clip-path="url(#clip720)" d="M2325.58 726.819 Q2321.97 726.819 2320.14 730.384 Q2318.34 733.925 2318.34 741.055 Q2318.34 748.161 2320.14 751.726 Q2321.97 755.268 2325.58 755.268 Q2329.22 755.268 2331.02 751.726 Q2332.85 748.161 2332.85 741.055 Q2332.85 733.925 2331.02 730.384 Q2329.22 726.819 2325.58 726.819 M2325.58 723.115 Q2331.39 723.115 2334.45 727.722 Q2337.53 732.305 2337.53 741.055 Q2337.53 749.782 2334.45 754.388 Q2331.39 758.972 2325.58 758.972 Q2319.77 758.972 2316.7 754.388 Q2313.64 749.782 2313.64 741.055 Q2313.64 732.305 2316.7 727.722 Q2319.77 723.115 2325.58 723.115 Z" fill="#000000" fill-rule="evenodd" fill-opacity="1" /><path clip-path="url(#clip720)" d="M2274.38 580.014 L2290.7 580.014 L2290.7 583.949 L2268.76 583.949 L2268.76 580.014 Q2271.42 577.259 2276 572.63 Q2280.61 567.977 2281.79 566.634 Q2284.03 564.111 2284.91 562.375 Q2285.82 560.616 2285.82 558.926 Q2285.82 556.171 2283.87 554.435 Q2281.95 552.699 2278.85 552.699 Q2276.65 552.699 2274.2 553.463 Q2271.77 554.227 2268.99 555.778 L2268.99 551.056 Q2271.81 549.921 2274.27 549.343 Q2276.72 548.764 2278.76 548.764 Q2284.13 548.764 2287.32 551.449 Q2290.52 554.134 2290.52 558.625 Q2290.52 560.755 2289.7 562.676 Q2288.92 564.574 2286.81 567.167 Q2286.23 567.838 2283.13 571.056 Q2280.03 574.25 2274.38 580.014 Z" fill="#000000" fill-rule="evenodd" fill-opacity="1" /><path clip-path="url(#clip720)" d="M2300.51 578.069 L2305.4 578.069 L2305.4 583.949 L2300.51 583.949 L2300.51 578.069 Z" fill="#000000" fill-rule="evenodd" fill-opacity="1" /><path clip-path="url(#clip720)" d="M2315.63 549.389 L2333.99 549.389 L2333.99 553.324 L2319.91 553.324 L2319.91 561.796 Q2320.93 561.449 2321.95 561.287 Q2322.97 561.102 2323.99 561.102 Q2329.77 561.102 2333.15 564.273 Q2336.53 567.444 2336.53 572.861 Q2336.53 578.44 2333.06 581.542 Q2329.59 584.62 2323.27 584.62 Q2321.09 584.62 2318.83 584.25 Q2316.58 583.88 2314.17 583.139 L2314.17 578.44 Q2316.26 579.574 2318.48 580.13 Q2320.7 580.685 2323.18 580.685 Q2327.18 580.685 2329.52 578.579 Q2331.86 576.472 2331.86 572.861 Q2331.86 569.25 2329.52 567.144 Q2327.18 565.037 2323.18 565.037 Q2321.3 565.037 2319.43 565.454 Q2317.58 565.87 2315.63 566.75 L2315.63 549.389 Z" fill="#000000" fill-rule="evenodd" fill-opacity="1" /><path clip-path="url(#clip720)" d="M2284.38 390.964 Q2287.74 391.681 2289.61 393.95 Q2291.51 396.218 2291.51 399.552 Q2291.51 404.667 2287.99 407.468 Q2284.47 410.269 2277.99 410.269 Q2275.82 410.269 2273.5 409.829 Q2271.21 409.413 2268.76 408.556 L2268.76 404.042 Q2270.7 405.177 2273.02 405.755 Q2275.33 406.334 2277.85 406.334 Q2282.25 406.334 2284.54 404.598 Q2286.86 402.862 2286.86 399.552 Q2286.86 396.496 2284.7 394.783 Q2282.58 393.047 2278.76 393.047 L2274.73 393.047 L2274.73 389.204 L2278.94 389.204 Q2282.39 389.204 2284.22 387.839 Q2286.05 386.45 2286.05 383.857 Q2286.05 381.195 2284.15 379.783 Q2282.27 378.348 2278.76 378.348 Q2276.83 378.348 2274.64 378.765 Q2272.44 379.181 2269.8 380.061 L2269.8 375.894 Q2272.46 375.154 2274.77 374.783 Q2277.11 374.413 2279.17 374.413 Q2284.5 374.413 2287.6 376.843 Q2290.7 379.251 2290.7 383.371 Q2290.7 386.241 2289.06 388.232 Q2287.41 390.2 2284.38 390.964 Z" fill="#000000" fill-rule="evenodd" fill-opacity="1" /><path clip-path="url(#clip720)" d="M2300.38 403.718 L2305.26 403.718 L2305.26 409.598 L2300.38 409.598 L2300.38 403.718 Z" fill="#000000" fill-rule="evenodd" fill-opacity="1" /><path clip-path="url(#clip720)" d="M2325.45 378.116 Q2321.83 378.116 2320.01 381.681 Q2318.2 385.223 2318.2 392.352 Q2318.2 399.459 2320.01 403.024 Q2321.83 406.565 2325.45 406.565 Q2329.08 406.565 2330.89 403.024 Q2332.71 399.459 2332.71 392.352 Q2332.71 385.223 2330.89 381.681 Q2329.08 378.116 2325.45 378.116 M2325.45 374.413 Q2331.26 374.413 2334.31 379.019 Q2337.39 383.603 2337.39 392.352 Q2337.39 401.079 2334.31 405.686 Q2331.26 410.269 2325.45 410.269 Q2319.64 410.269 2316.56 405.686 Q2313.5 401.079 2313.5 392.352 Q2313.5 383.603 2316.56 379.019 Q2319.64 374.413 2325.45 374.413 Z" fill="#000000" fill-rule="evenodd" fill-opacity="1" /><path clip-path="url(#clip720)" d="M2284.38 216.612 Q2287.74 217.33 2289.61 219.598 Q2291.51 221.867 2291.51 225.2 Q2291.51 230.316 2287.99 233.117 Q2284.47 235.918 2277.99 235.918 Q2275.82 235.918 2273.5 235.478 Q2271.21 235.061 2268.76 234.205 L2268.76 229.691 Q2270.7 230.825 2273.02 231.404 Q2275.33 231.983 2277.85 231.983 Q2282.25 231.983 2284.54 230.247 Q2286.86 228.51 2286.86 225.2 Q2286.86 222.145 2284.7 220.432 Q2282.58 218.696 2278.76 218.696 L2274.73 218.696 L2274.73 214.853 L2278.94 214.853 Q2282.39 214.853 2284.22 213.487 Q2286.05 212.099 2286.05 209.506 Q2286.05 206.844 2284.15 205.432 Q2282.27 203.997 2278.76 203.997 Q2276.83 203.997 2274.64 204.413 Q2272.44 204.83 2269.8 205.71 L2269.8 201.543 Q2272.46 200.802 2274.77 200.432 Q2277.11 200.062 2279.17 200.062 Q2284.5 200.062 2287.6 202.492 Q2290.7 204.899 2290.7 209.02 Q2290.7 211.89 2289.06 213.881 Q2287.41 215.848 2284.38 216.612 Z" fill="#000000" fill-rule="evenodd" fill-opacity="1" /><path clip-path="url(#clip720)" d="M2300.38 229.367 L2305.26 229.367 L2305.26 235.247 L2300.38 235.247 L2300.38 229.367 Z" fill="#000000" fill-rule="evenodd" fill-opacity="1" /><path clip-path="url(#clip720)" d="M2315.49 200.687 L2333.85 200.687 L2333.85 204.622 L2319.77 204.622 L2319.77 213.094 Q2320.79 212.747 2321.81 212.585 Q2322.83 212.399 2323.85 212.399 Q2329.64 212.399 2333.01 215.571 Q2336.39 218.742 2336.39 224.159 Q2336.39 229.737 2332.92 232.839 Q2329.45 235.918 2323.13 235.918 Q2320.95 235.918 2318.69 235.547 Q2316.44 235.177 2314.03 234.436 L2314.03 229.737 Q2316.12 230.872 2318.34 231.427 Q2320.56 231.983 2323.04 231.983 Q2327.04 231.983 2329.38 229.876 Q2331.72 227.77 2331.72 224.159 Q2331.72 220.548 2329.38 218.441 Q2327.04 216.335 2323.04 216.335 Q2321.16 216.335 2319.29 216.751 Q2317.44 217.168 2315.49 218.048 L2315.49 200.687 Z" fill="#000000" fill-rule="evenodd" fill-opacity="1" /><path clip-path="url(#clip720)" d="M2284.36 30.4093 L2272.55 48.8583 L2284.36 48.8583 L2284.36 30.4093 M2283.13 26.3353 L2289.01 26.3353 L2289.01 48.8583 L2293.94 48.8583 L2293.94 52.7472 L2289.01 52.7472 L2289.01 60.8953 L2284.36 60.8953 L2284.36 52.7472 L2268.76 52.7472 L2268.76 48.2333 L2283.13 26.3353 Z" fill="#000000" fill-rule="evenodd" fill-opacity="1" /><path clip-path="url(#clip720)" d="M2301.67 55.0157 L2306.56 55.0157 L2306.56 60.8953 L2301.67 60.8953 L2301.67 55.0157 Z" fill="#000000" fill-rule="evenodd" fill-opacity="1" /><path clip-path="url(#clip720)" d="M2326.74 29.414 Q2323.13 29.414 2321.3 32.9788 Q2319.5 36.5204 2319.5 43.65 Q2319.5 50.7565 2321.3 54.3213 Q2323.13 57.8629 2326.74 57.8629 Q2330.38 57.8629 2332.18 54.3213 Q2334.01 50.7565 2334.01 43.65 Q2334.01 36.5204 2332.18 32.9788 Q2330.38 29.414 2326.74 29.414 M2326.74 25.7103 Q2332.55 25.7103 2335.61 30.3168 Q2338.69 34.9001 2338.69 43.65 Q2338.69 52.3768 2335.61 56.9833 Q2332.55 61.5666 2326.74 61.5666 Q2320.93 61.5666 2317.85 56.9833 Q2314.8 52.3768 2314.8 43.65 Q2314.8 34.9001 2317.85 30.3168 Q2320.93 25.7103 2326.74 25.7103 Z" fill="#000000" fill-rule="evenodd" fill-opacity="1" /><polyline clip-path="url(#clip720)" style="stroke:#000000; stroke-linecap:butt; stroke-linejoin:round; stroke-width:4; stroke-opacity:1; fill:none" points="
  2232.76,1442.05 2232.76,1442.05 2256.76,1442.05 2232.76,1442.05 2232.76,1267.7 2256.76,1267.7 2232.76,1267.7 2232.76,1093.35 2256.76,1093.35 2232.76,1093.35 
  2232.76,919 2256.76,919 2232.76,919 2232.76,744.649 2256.76,744.649 2232.76,744.649 2232.76,570.298 2256.76,570.298 2232.76,570.298 2232.76,395.947 
  2256.76,395.947 2232.76,395.947 2232.76,221.595 2256.76,221.595 2232.76,221.595 2232.76,47.2441 2256.76,47.2441 2232.76,47.2441 
  "/>
</svg>
