<?xml version="1.0" encoding="utf-8"?>
<svg xmlns="http://www.w3.org/2000/svg" xmlns:xlink="http://www.w3.org/1999/xlink" width="600" height="400" viewBox="0 0 2400 1600">
<defs>
  <clipPath id="clip170">
    <rect x="0" y="0" width="2400" height="1600"/>
  </clipPath>
</defs>
<path clip-path="url(#clip170)" d="
M0 1600 L2400 1600 L2400 0 L0 0  Z
  " fill="#ffffff" fill-rule="evenodd" fill-opacity="1"/>
<defs>
  <clipPath id="clip171">
    <rect x="480" y="0" width="1681" height="1600"/>
  </clipPath>
</defs>
<path clip-path="url(#clip170)" d="
M192.941 1486.45 L2352.76 1486.45 L2352.76 47.2441 L192.941 47.2441  Z
  " fill="#ffffff" fill-rule="evenodd" fill-opacity="1"/>
<defs>
  <clipPath id="clip172">
    <rect x="192" y="47" width="2161" height="1440"/>
  </clipPath>
</defs>
<polyline clip-path="url(#clip172)" style="stroke:#000000; stroke-linecap:butt; stroke-linejoin:round; stroke-width:2; stroke-opacity:0.1; fill:none" points="
  490.846,1486.45 490.846,47.2441 
  "/>
<polyline clip-path="url(#clip172)" style="stroke:#000000; stroke-linecap:butt; stroke-linejoin:round; stroke-width:2; stroke-opacity:0.1; fill:none" points="
  863.228,1486.45 863.228,47.2441 
  "/>
<polyline clip-path="url(#clip172)" style="stroke:#000000; stroke-linecap:butt; stroke-linejoin:round; stroke-width:2; stroke-opacity:0.1; fill:none" points="
  1235.61,1486.45 1235.61,47.2441 
  "/>
<polyline clip-path="url(#clip172)" style="stroke:#000000; stroke-linecap:butt; stroke-linejoin:round; stroke-width:2; stroke-opacity:0.1; fill:none" points="
  1607.99,1486.45 1607.99,47.2441 
  "/>
<polyline clip-path="url(#clip172)" style="stroke:#000000; stroke-linecap:butt; stroke-linejoin:round; stroke-width:2; stroke-opacity:0.1; fill:none" points="
  1980.37,1486.45 1980.37,47.2441 
  "/>
<polyline clip-path="url(#clip172)" style="stroke:#000000; stroke-linecap:butt; stroke-linejoin:round; stroke-width:2; stroke-opacity:0.1; fill:none" points="
  2352.76,1486.45 2352.76,47.2441 
  "/>
<polyline clip-path="url(#clip170)" style="stroke:#000000; stroke-linecap:butt; stroke-linejoin:round; stroke-width:4; stroke-opacity:1; fill:none" points="
  192.941,1486.45 2352.76,1486.45 
  "/>
<polyline clip-path="url(#clip170)" style="stroke:#000000; stroke-linecap:butt; stroke-linejoin:round; stroke-width:4; stroke-opacity:1; fill:none" points="
  490.846,1486.45 490.846,1467.55 
  "/>
<polyline clip-path="url(#clip170)" style="stroke:#000000; stroke-linecap:butt; stroke-linejoin:round; stroke-width:4; stroke-opacity:1; fill:none" points="
  863.228,1486.45 863.228,1467.55 
  "/>
<polyline clip-path="url(#clip170)" style="stroke:#000000; stroke-linecap:butt; stroke-linejoin:round; stroke-width:4; stroke-opacity:1; fill:none" points="
  1235.61,1486.45 1235.61,1467.55 
  "/>
<polyline clip-path="url(#clip170)" style="stroke:#000000; stroke-linecap:butt; stroke-linejoin:round; stroke-width:4; stroke-opacity:1; fill:none" points="
  1607.99,1486.45 1607.99,1467.55 
  "/>
<polyline clip-path="url(#clip170)" style="stroke:#000000; stroke-linecap:butt; stroke-linejoin:round; stroke-width:4; stroke-opacity:1; fill:none" points="
  1980.37,1486.45 1980.37,1467.55 
  "/>
<polyline clip-path="url(#clip170)" style="stroke:#000000; stroke-linecap:butt; stroke-linejoin:round; stroke-width:4; stroke-opacity:1; fill:none" points="
  2352.76,1486.45 2352.76,1467.55 
  "/>
<path clip-path="url(#clip170)" d="M437.872 1530.29 L467.548 1530.29 L467.548 1534.23 L437.872 1534.23 L437.872 1530.29 Z" fill="#000000" fill-rule="evenodd" fill-opacity="1" /><path clip-path="url(#clip170)" d="M487.64 1515.64 Q484.029 1515.64 482.2 1519.2 Q480.395 1522.75 480.395 1529.87 Q480.395 1536.98 482.2 1540.55 Q484.029 1544.09 487.64 1544.09 Q491.274 1544.09 493.08 1540.55 Q494.909 1536.98 494.909 1529.87 Q494.909 1522.75 493.08 1519.2 Q491.274 1515.64 487.64 1515.64 M487.64 1511.93 Q493.45 1511.93 496.506 1516.54 Q499.585 1521.12 499.585 1529.87 Q499.585 1538.6 496.506 1543.21 Q493.45 1547.79 487.64 1547.79 Q481.83 1547.79 478.751 1543.21 Q475.696 1538.6 475.696 1529.87 Q475.696 1521.12 478.751 1516.54 Q481.83 1511.93 487.64 1511.93 Z" fill="#000000" fill-rule="evenodd" fill-opacity="1" /><path clip-path="url(#clip170)" d="M507.802 1541.24 L512.686 1541.24 L512.686 1547.12 L507.802 1547.12 L507.802 1541.24 Z" fill="#000000" fill-rule="evenodd" fill-opacity="1" /><path clip-path="url(#clip170)" d="M522.918 1512.56 L541.274 1512.56 L541.274 1516.5 L527.2 1516.5 L527.2 1524.97 Q528.219 1524.62 529.237 1524.46 Q530.256 1524.27 531.274 1524.27 Q537.061 1524.27 540.441 1527.44 Q543.82 1530.62 543.82 1536.03 Q543.82 1541.61 540.348 1544.71 Q536.876 1547.79 530.557 1547.79 Q528.381 1547.79 526.112 1547.42 Q523.867 1547.05 521.459 1546.31 L521.459 1541.61 Q523.543 1542.74 525.765 1543.3 Q527.987 1543.86 530.464 1543.86 Q534.469 1543.86 536.807 1541.75 Q539.145 1539.64 539.145 1536.03 Q539.145 1532.42 536.807 1530.31 Q534.469 1528.21 530.464 1528.21 Q528.589 1528.21 526.714 1528.62 Q524.862 1529.04 522.918 1529.92 L522.918 1512.56 Z" fill="#000000" fill-rule="evenodd" fill-opacity="1" /><path clip-path="url(#clip170)" d="M840.613 1515.64 Q837.001 1515.64 835.173 1519.2 Q833.367 1522.75 833.367 1529.87 Q833.367 1536.98 835.173 1540.55 Q837.001 1544.09 840.613 1544.09 Q844.247 1544.09 846.052 1540.55 Q847.881 1536.98 847.881 1529.87 Q847.881 1522.75 846.052 1519.2 Q844.247 1515.64 840.613 1515.64 M840.613 1511.93 Q846.423 1511.93 849.478 1516.54 Q852.557 1521.12 852.557 1529.87 Q852.557 1538.6 849.478 1543.21 Q846.423 1547.79 840.613 1547.79 Q834.802 1547.79 831.724 1543.21 Q828.668 1538.6 828.668 1529.87 Q828.668 1521.12 831.724 1516.54 Q834.802 1511.93 840.613 1511.93 Z" fill="#000000" fill-rule="evenodd" fill-opacity="1" /><path clip-path="url(#clip170)" d="M860.774 1541.24 L865.659 1541.24 L865.659 1547.12 L860.774 1547.12 L860.774 1541.24 Z" fill="#000000" fill-rule="evenodd" fill-opacity="1" /><path clip-path="url(#clip170)" d="M885.844 1515.64 Q882.233 1515.64 880.404 1519.2 Q878.598 1522.75 878.598 1529.87 Q878.598 1536.98 880.404 1540.55 Q882.233 1544.09 885.844 1544.09 Q889.478 1544.09 891.284 1540.55 Q893.112 1536.98 893.112 1529.87 Q893.112 1522.75 891.284 1519.2 Q889.478 1515.64 885.844 1515.64 M885.844 1511.93 Q891.654 1511.93 894.709 1516.54 Q897.788 1521.12 897.788 1529.87 Q897.788 1538.6 894.709 1543.21 Q891.654 1547.79 885.844 1547.79 Q880.034 1547.79 876.955 1543.21 Q873.899 1538.6 873.899 1529.87 Q873.899 1521.12 876.955 1516.54 Q880.034 1511.93 885.844 1511.93 Z" fill="#000000" fill-rule="evenodd" fill-opacity="1" /><path clip-path="url(#clip170)" d="M1213.49 1515.64 Q1209.88 1515.64 1208.05 1519.2 Q1206.25 1522.75 1206.25 1529.87 Q1206.25 1536.98 1208.05 1540.55 Q1209.88 1544.09 1213.49 1544.09 Q1217.13 1544.09 1218.93 1540.55 Q1220.76 1536.98 1220.76 1529.87 Q1220.76 1522.75 1218.93 1519.2 Q1217.13 1515.64 1213.49 1515.64 M1213.49 1511.93 Q1219.3 1511.93 1222.36 1516.54 Q1225.44 1521.12 1225.44 1529.87 Q1225.44 1538.6 1222.36 1543.21 Q1219.3 1547.79 1213.49 1547.79 Q1207.68 1547.79 1204.6 1543.21 Q1201.55 1538.6 1201.55 1529.87 Q1201.55 1521.12 1204.6 1516.54 Q1207.68 1511.93 1213.49 1511.93 Z" fill="#000000" fill-rule="evenodd" fill-opacity="1" /><path clip-path="url(#clip170)" d="M1233.65 1541.24 L1238.54 1541.24 L1238.54 1547.12 L1233.65 1547.12 L1233.65 1541.24 Z" fill="#000000" fill-rule="evenodd" fill-opacity="1" /><path clip-path="url(#clip170)" d="M1248.77 1512.56 L1267.13 1512.56 L1267.13 1516.5 L1253.05 1516.5 L1253.05 1524.97 Q1254.07 1524.62 1255.09 1524.46 Q1256.11 1524.27 1257.13 1524.27 Q1262.91 1524.27 1266.29 1527.44 Q1269.67 1530.62 1269.67 1536.03 Q1269.67 1541.61 1266.2 1544.71 Q1262.73 1547.79 1256.41 1547.79 Q1254.23 1547.79 1251.96 1547.42 Q1249.72 1547.05 1247.31 1546.31 L1247.31 1541.61 Q1249.39 1542.74 1251.62 1543.3 Q1253.84 1543.86 1256.32 1543.86 Q1260.32 1543.86 1262.66 1541.75 Q1265 1539.64 1265 1536.03 Q1265 1532.42 1262.66 1530.31 Q1260.32 1528.21 1256.32 1528.21 Q1254.44 1528.21 1252.57 1528.62 Q1250.71 1529.04 1248.77 1529.92 L1248.77 1512.56 Z" fill="#000000" fill-rule="evenodd" fill-opacity="1" /><path clip-path="url(#clip170)" d="M1575.14 1543.18 L1582.78 1543.18 L1582.78 1516.82 L1574.47 1518.49 L1574.47 1514.23 L1582.74 1512.56 L1587.41 1512.56 L1587.41 1543.18 L1595.05 1543.18 L1595.05 1547.12 L1575.14 1547.12 L1575.14 1543.18 Z" fill="#000000" fill-rule="evenodd" fill-opacity="1" /><path clip-path="url(#clip170)" d="M1604.5 1541.24 L1609.38 1541.24 L1609.38 1547.12 L1604.5 1547.12 L1604.5 1541.24 Z" fill="#000000" fill-rule="evenodd" fill-opacity="1" /><path clip-path="url(#clip170)" d="M1629.57 1515.64 Q1625.95 1515.64 1624.13 1519.2 Q1622.32 1522.75 1622.32 1529.87 Q1622.32 1536.98 1624.13 1540.55 Q1625.95 1544.09 1629.57 1544.09 Q1633.2 1544.09 1635.01 1540.55 Q1636.83 1536.98 1636.83 1529.87 Q1636.83 1522.75 1635.01 1519.2 Q1633.2 1515.64 1629.57 1515.64 M1629.57 1511.93 Q1635.38 1511.93 1638.43 1516.54 Q1641.51 1521.12 1641.51 1529.87 Q1641.51 1538.6 1638.43 1543.21 Q1635.38 1547.79 1629.57 1547.79 Q1623.76 1547.79 1620.68 1543.21 Q1617.62 1538.6 1617.62 1529.87 Q1617.62 1521.12 1620.68 1516.54 Q1623.76 1511.93 1629.57 1511.93 Z" fill="#000000" fill-rule="evenodd" fill-opacity="1" /><path clip-path="url(#clip170)" d="M1948.02 1543.18 L1955.66 1543.18 L1955.66 1516.82 L1947.35 1518.49 L1947.35 1514.23 L1955.62 1512.56 L1960.29 1512.56 L1960.29 1543.18 L1967.93 1543.18 L1967.93 1547.12 L1948.02 1547.12 L1948.02 1543.18 Z" fill="#000000" fill-rule="evenodd" fill-opacity="1" /><path clip-path="url(#clip170)" d="M1977.38 1541.24 L1982.26 1541.24 L1982.26 1547.12 L1977.38 1547.12 L1977.38 1541.24 Z" fill="#000000" fill-rule="evenodd" fill-opacity="1" /><path clip-path="url(#clip170)" d="M1992.49 1512.56 L2010.85 1512.56 L2010.85 1516.5 L1996.77 1516.5 L1996.77 1524.97 Q1997.79 1524.62 1998.81 1524.46 Q1999.83 1524.27 2000.85 1524.27 Q2006.64 1524.27 2010.02 1527.44 Q2013.39 1530.62 2013.39 1536.03 Q2013.39 1541.61 2009.92 1544.71 Q2006.45 1547.79 2000.13 1547.79 Q1997.95 1547.79 1995.69 1547.42 Q1993.44 1547.05 1991.03 1546.31 L1991.03 1541.61 Q1993.12 1542.74 1995.34 1543.3 Q1997.56 1543.86 2000.04 1543.86 Q2004.04 1543.86 2006.38 1541.75 Q2008.72 1539.64 2008.72 1536.03 Q2008.72 1532.42 2006.38 1530.31 Q2004.04 1528.21 2000.04 1528.21 Q1998.16 1528.21 1996.29 1528.62 Q1994.44 1529.04 1992.49 1529.92 L1992.49 1512.56 Z" fill="#000000" fill-rule="evenodd" fill-opacity="1" /><path clip-path="url(#clip170)" d="M2323.99 1543.18 L2340.31 1543.18 L2340.31 1547.12 L2318.37 1547.12 L2318.37 1543.18 Q2321.03 1540.43 2325.61 1535.8 Q2330.22 1531.15 2331.4 1529.81 Q2333.65 1527.28 2334.53 1525.55 Q2335.43 1523.79 2335.43 1522.1 Q2335.43 1519.34 2333.49 1517.61 Q2331.56 1515.87 2328.46 1515.87 Q2326.26 1515.87 2323.81 1516.63 Q2321.38 1517.4 2318.6 1518.95 L2318.6 1514.23 Q2321.43 1513.09 2323.88 1512.51 Q2326.33 1511.93 2328.37 1511.93 Q2333.74 1511.93 2336.93 1514.62 Q2340.13 1517.31 2340.13 1521.8 Q2340.13 1523.93 2339.32 1525.85 Q2338.53 1527.74 2336.42 1530.34 Q2335.85 1531.01 2332.74 1534.23 Q2329.64 1537.42 2323.99 1543.18 Z" fill="#000000" fill-rule="evenodd" fill-opacity="1" /><path clip-path="url(#clip170)" d="M2350.13 1541.24 L2355.01 1541.24 L2355.01 1547.12 L2350.13 1547.12 L2350.13 1541.24 Z" fill="#000000" fill-rule="evenodd" fill-opacity="1" /><path clip-path="url(#clip170)" d="M2375.2 1515.64 Q2371.59 1515.64 2369.76 1519.2 Q2367.95 1522.75 2367.95 1529.87 Q2367.95 1536.98 2369.76 1540.55 Q2371.59 1544.09 2375.2 1544.09 Q2378.83 1544.09 2380.64 1540.55 Q2382.47 1536.98 2382.47 1529.87 Q2382.47 1522.75 2380.64 1519.2 Q2378.83 1515.64 2375.2 1515.64 M2375.2 1511.93 Q2381.01 1511.93 2384.06 1516.54 Q2387.14 1521.12 2387.14 1529.87 Q2387.14 1538.6 2384.06 1543.21 Q2381.01 1547.79 2375.2 1547.79 Q2369.39 1547.79 2366.31 1543.21 Q2363.25 1538.6 2363.25 1529.87 Q2363.25 1521.12 2366.31 1516.54 Q2369.39 1511.93 2375.2 1511.93 Z" fill="#000000" fill-rule="evenodd" fill-opacity="1" /><polyline clip-path="url(#clip172)" style="stroke:#000000; stroke-linecap:butt; stroke-linejoin:round; stroke-width:2; stroke-opacity:0.1; fill:none" points="
  192.941,1258.44 2352.76,1258.44 
  "/>
<polyline clip-path="url(#clip172)" style="stroke:#000000; stroke-linecap:butt; stroke-linejoin:round; stroke-width:2; stroke-opacity:0.1; fill:none" points="
  192.941,1024.35 2352.76,1024.35 
  "/>
<polyline clip-path="url(#clip172)" style="stroke:#000000; stroke-linecap:butt; stroke-linejoin:round; stroke-width:2; stroke-opacity:0.1; fill:none" points="
  192.941,790.255 2352.76,790.255 
  "/>
<polyline clip-path="url(#clip172)" style="stroke:#000000; stroke-linecap:butt; stroke-linejoin:round; stroke-width:2; stroke-opacity:0.1; fill:none" points="
  192.941,556.162 2352.76,556.162 
  "/>
<polyline clip-path="url(#clip172)" style="stroke:#000000; stroke-linecap:butt; stroke-linejoin:round; stroke-width:2; stroke-opacity:0.1; fill:none" points="
  192.941,322.069 2352.76,322.069 
  "/>
<polyline clip-path="url(#clip172)" style="stroke:#000000; stroke-linecap:butt; stroke-linejoin:round; stroke-width:2; stroke-opacity:0.1; fill:none" points="
  192.941,87.9763 2352.76,87.9763 
  "/>
<polyline clip-path="url(#clip170)" style="stroke:#000000; stroke-linecap:butt; stroke-linejoin:round; stroke-width:4; stroke-opacity:1; fill:none" points="
  192.941,1486.45 192.941,47.2441 
  "/>
<polyline clip-path="url(#clip170)" style="stroke:#000000; stroke-linecap:butt; stroke-linejoin:round; stroke-width:4; stroke-opacity:1; fill:none" points="
  192.941,1258.44 211.838,1258.44 
  "/>
<polyline clip-path="url(#clip170)" style="stroke:#000000; stroke-linecap:butt; stroke-linejoin:round; stroke-width:4; stroke-opacity:1; fill:none" points="
  192.941,1024.35 211.838,1024.35 
  "/>
<polyline clip-path="url(#clip170)" style="stroke:#000000; stroke-linecap:butt; stroke-linejoin:round; stroke-width:4; stroke-opacity:1; fill:none" points="
  192.941,790.255 211.838,790.255 
  "/>
<polyline clip-path="url(#clip170)" style="stroke:#000000; stroke-linecap:butt; stroke-linejoin:round; stroke-width:4; stroke-opacity:1; fill:none" points="
  192.941,556.162 211.838,556.162 
  "/>
<polyline clip-path="url(#clip170)" style="stroke:#000000; stroke-linecap:butt; stroke-linejoin:round; stroke-width:4; stroke-opacity:1; fill:none" points="
  192.941,322.069 211.838,322.069 
  "/>
<polyline clip-path="url(#clip170)" style="stroke:#000000; stroke-linecap:butt; stroke-linejoin:round; stroke-width:4; stroke-opacity:1; fill:none" points="
  192.941,87.9763 211.838,87.9763 
  "/>
<path clip-path="url(#clip170)" d="M50.9921 1258.89 L80.6679 1258.89 L80.6679 1262.83 L50.9921 1262.83 L50.9921 1258.89 Z" fill="#000000" fill-rule="evenodd" fill-opacity="1" /><path clip-path="url(#clip170)" d="M100.76 1244.24 Q97.1493 1244.24 95.3206 1247.8 Q93.515 1251.35 93.515 1258.48 Q93.515 1265.58 95.3206 1269.15 Q97.1493 1272.69 100.76 1272.69 Q104.395 1272.69 106.2 1269.15 Q108.029 1265.58 108.029 1258.48 Q108.029 1251.35 106.2 1247.8 Q104.395 1244.24 100.76 1244.24 M100.76 1240.54 Q106.571 1240.54 109.626 1245.14 Q112.705 1249.73 112.705 1258.48 Q112.705 1267.2 109.626 1271.81 Q106.571 1276.39 100.76 1276.39 Q94.9502 1276.39 91.8715 1271.81 Q88.816 1267.2 88.816 1258.48 Q88.816 1249.73 91.8715 1245.14 Q94.9502 1240.54 100.76 1240.54 Z" fill="#000000" fill-rule="evenodd" fill-opacity="1" /><path clip-path="url(#clip170)" d="M120.922 1269.84 L125.807 1269.84 L125.807 1275.72 L120.922 1275.72 L120.922 1269.84 Z" fill="#000000" fill-rule="evenodd" fill-opacity="1" /><path clip-path="url(#clip170)" d="M136.038 1241.16 L154.394 1241.16 L154.394 1245.1 L140.32 1245.1 L140.32 1253.57 Q141.339 1253.22 142.357 1253.06 Q143.376 1252.87 144.394 1252.87 Q150.181 1252.87 153.561 1256.05 Q156.941 1259.22 156.941 1264.63 Q156.941 1270.21 153.468 1273.31 Q149.996 1276.39 143.677 1276.39 Q141.501 1276.39 139.232 1276.02 Q136.987 1275.65 134.58 1274.91 L134.58 1270.21 Q136.663 1271.35 138.885 1271.9 Q141.107 1272.46 143.584 1272.46 Q147.589 1272.46 149.927 1270.35 Q152.265 1268.24 152.265 1264.63 Q152.265 1261.02 149.927 1258.92 Q147.589 1256.81 143.584 1256.81 Q141.709 1256.81 139.834 1257.23 Q137.982 1257.64 136.038 1258.52 L136.038 1241.16 Z" fill="#000000" fill-rule="evenodd" fill-opacity="1" /><path clip-path="url(#clip170)" d="M99.765 1010.15 Q96.1539 1010.15 94.3252 1013.71 Q92.5197 1017.25 92.5197 1024.38 Q92.5197 1031.49 94.3252 1035.05 Q96.1539 1038.6 99.765 1038.6 Q103.399 1038.6 105.205 1035.05 Q107.033 1031.49 107.033 1024.38 Q107.033 1017.25 105.205 1013.71 Q103.399 1010.15 99.765 1010.15 M99.765 1006.44 Q105.575 1006.44 108.631 1011.05 Q111.709 1015.63 111.709 1024.38 Q111.709 1033.11 108.631 1037.72 Q105.575 1042.3 99.765 1042.3 Q93.9549 1042.3 90.8762 1037.72 Q87.8206 1033.11 87.8206 1024.38 Q87.8206 1015.63 90.8762 1011.05 Q93.9549 1006.44 99.765 1006.44 Z" fill="#000000" fill-rule="evenodd" fill-opacity="1" /><path clip-path="url(#clip170)" d="M119.927 1035.75 L124.811 1035.75 L124.811 1041.63 L119.927 1041.63 L119.927 1035.75 Z" fill="#000000" fill-rule="evenodd" fill-opacity="1" /><path clip-path="url(#clip170)" d="M144.996 1010.15 Q141.385 1010.15 139.556 1013.71 Q137.751 1017.25 137.751 1024.38 Q137.751 1031.49 139.556 1035.05 Q141.385 1038.6 144.996 1038.6 Q148.63 1038.6 150.436 1035.05 Q152.265 1031.49 152.265 1024.38 Q152.265 1017.25 150.436 1013.71 Q148.63 1010.15 144.996 1010.15 M144.996 1006.44 Q150.806 1006.44 153.862 1011.05 Q156.941 1015.63 156.941 1024.38 Q156.941 1033.11 153.862 1037.72 Q150.806 1042.3 144.996 1042.3 Q139.186 1042.3 136.107 1037.72 Q133.052 1033.11 133.052 1024.38 Q133.052 1015.63 136.107 1011.05 Q139.186 1006.44 144.996 1006.44 Z" fill="#000000" fill-rule="evenodd" fill-opacity="1" /><path clip-path="url(#clip170)" d="M100.76 776.054 Q97.1493 776.054 95.3206 779.619 Q93.515 783.16 93.515 790.29 Q93.515 797.396 95.3206 800.961 Q97.1493 804.503 100.76 804.503 Q104.395 804.503 106.2 800.961 Q108.029 797.396 108.029 790.29 Q108.029 783.16 106.2 779.619 Q104.395 776.054 100.76 776.054 M100.76 772.35 Q106.571 772.35 109.626 776.957 Q112.705 781.54 112.705 790.29 Q112.705 799.017 109.626 803.623 Q106.571 808.207 100.76 808.207 Q94.9502 808.207 91.8715 803.623 Q88.816 799.017 88.816 790.29 Q88.816 781.54 91.8715 776.957 Q94.9502 772.35 100.76 772.35 Z" fill="#000000" fill-rule="evenodd" fill-opacity="1" /><path clip-path="url(#clip170)" d="M120.922 801.656 L125.807 801.656 L125.807 807.535 L120.922 807.535 L120.922 801.656 Z" fill="#000000" fill-rule="evenodd" fill-opacity="1" /><path clip-path="url(#clip170)" d="M136.038 772.975 L154.394 772.975 L154.394 776.91 L140.32 776.91 L140.32 785.383 Q141.339 785.035 142.357 784.873 Q143.376 784.688 144.394 784.688 Q150.181 784.688 153.561 787.859 Q156.941 791.031 156.941 796.447 Q156.941 802.026 153.468 805.128 Q149.996 808.207 143.677 808.207 Q141.501 808.207 139.232 807.836 Q136.987 807.466 134.58 806.725 L134.58 802.026 Q136.663 803.16 138.885 803.716 Q141.107 804.271 143.584 804.271 Q147.589 804.271 149.927 802.165 Q152.265 800.058 152.265 796.447 Q152.265 792.836 149.927 790.73 Q147.589 788.623 143.584 788.623 Q141.709 788.623 139.834 789.04 Q137.982 789.457 136.038 790.336 L136.038 772.975 Z" fill="#000000" fill-rule="evenodd" fill-opacity="1" /><path clip-path="url(#clip170)" d="M90.5752 569.507 L98.2141 569.507 L98.2141 543.142 L89.904 544.808 L89.904 540.549 L98.1678 538.882 L102.844 538.882 L102.844 569.507 L110.483 569.507 L110.483 573.442 L90.5752 573.442 L90.5752 569.507 Z" fill="#000000" fill-rule="evenodd" fill-opacity="1" /><path clip-path="url(#clip170)" d="M119.927 567.563 L124.811 567.563 L124.811 573.442 L119.927 573.442 L119.927 567.563 Z" fill="#000000" fill-rule="evenodd" fill-opacity="1" /><path clip-path="url(#clip170)" d="M144.996 541.961 Q141.385 541.961 139.556 545.526 Q137.751 549.067 137.751 556.197 Q137.751 563.303 139.556 566.868 Q141.385 570.41 144.996 570.41 Q148.63 570.41 150.436 566.868 Q152.265 563.303 152.265 556.197 Q152.265 549.067 150.436 545.526 Q148.63 541.961 144.996 541.961 M144.996 538.257 Q150.806 538.257 153.862 542.864 Q156.941 547.447 156.941 556.197 Q156.941 564.924 153.862 569.53 Q150.806 574.114 144.996 574.114 Q139.186 574.114 136.107 569.53 Q133.052 564.924 133.052 556.197 Q133.052 547.447 136.107 542.864 Q139.186 538.257 144.996 538.257 Z" fill="#000000" fill-rule="evenodd" fill-opacity="1" /><path clip-path="url(#clip170)" d="M91.5706 335.414 L99.2095 335.414 L99.2095 309.049 L90.8993 310.715 L90.8993 306.456 L99.1632 304.789 L103.839 304.789 L103.839 335.414 L111.478 335.414 L111.478 339.349 L91.5706 339.349 L91.5706 335.414 Z" fill="#000000" fill-rule="evenodd" fill-opacity="1" /><path clip-path="url(#clip170)" d="M120.922 333.47 L125.807 333.47 L125.807 339.349 L120.922 339.349 L120.922 333.47 Z" fill="#000000" fill-rule="evenodd" fill-opacity="1" /><path clip-path="url(#clip170)" d="M136.038 304.789 L154.394 304.789 L154.394 308.724 L140.32 308.724 L140.32 317.197 Q141.339 316.849 142.357 316.687 Q143.376 316.502 144.394 316.502 Q150.181 316.502 153.561 319.673 Q156.941 322.845 156.941 328.261 Q156.941 333.84 153.468 336.942 Q149.996 340.021 143.677 340.021 Q141.501 340.021 139.232 339.65 Q136.987 339.28 134.58 338.539 L134.58 333.84 Q136.663 334.974 138.885 335.53 Q141.107 336.085 143.584 336.085 Q147.589 336.085 149.927 333.979 Q152.265 331.872 152.265 328.261 Q152.265 324.65 149.927 322.544 Q147.589 320.437 143.584 320.437 Q141.709 320.437 139.834 320.854 Q137.982 321.271 136.038 322.15 L136.038 304.789 Z" fill="#000000" fill-rule="evenodd" fill-opacity="1" /><path clip-path="url(#clip170)" d="M93.7928 101.321 L110.112 101.321 L110.112 105.256 L88.1679 105.256 L88.1679 101.321 Q90.8299 98.5665 95.4132 93.9369 Q100.02 89.2841 101.2 87.9416 Q103.446 85.4184 104.325 83.6823 Q105.228 81.9231 105.228 80.2333 Q105.228 77.4786 103.284 75.7425 Q101.362 74.0064 98.2604 74.0064 Q96.0613 74.0064 93.6076 74.7703 Q91.1771 75.5342 88.3993 77.0851 L88.3993 72.3629 Q91.2234 71.2287 93.6771 70.65 Q96.1308 70.0713 98.1678 70.0713 Q103.538 70.0713 106.733 72.7565 Q109.927 75.4416 109.927 79.9323 Q109.927 82.062 109.117 83.9832 Q108.33 85.8814 106.223 88.474 Q105.645 89.1453 102.543 92.3628 Q99.4409 95.5573 93.7928 101.321 Z" fill="#000000" fill-rule="evenodd" fill-opacity="1" /><path clip-path="url(#clip170)" d="M119.927 99.3767 L124.811 99.3767 L124.811 105.256 L119.927 105.256 L119.927 99.3767 Z" fill="#000000" fill-rule="evenodd" fill-opacity="1" /><path clip-path="url(#clip170)" d="M144.996 73.775 Q141.385 73.775 139.556 77.3398 Q137.751 80.8814 137.751 88.011 Q137.751 95.1174 139.556 98.6822 Q141.385 102.224 144.996 102.224 Q148.63 102.224 150.436 98.6822 Q152.265 95.1174 152.265 88.011 Q152.265 80.8814 150.436 77.3398 Q148.63 73.775 144.996 73.775 M144.996 70.0713 Q150.806 70.0713 153.862 74.6777 Q156.941 79.261 156.941 88.011 Q156.941 96.7378 153.862 101.344 Q150.806 105.928 144.996 105.928 Q139.186 105.928 136.107 101.344 Q133.052 96.7378 133.052 88.011 Q133.052 79.261 136.107 74.6777 Q139.186 70.0713 144.996 70.0713 Z" fill="#000000" fill-rule="evenodd" fill-opacity="1" /><polyline clip-path="url(#clip172)" style="stroke:#009af9; stroke-linecap:butt; stroke-linejoin:round; stroke-width:4; stroke-opacity:1; fill:none" points="
  192.941,1445.72 214.033,1432.46 409.062,1309.85 526.267,1236.17 625.362,1173.88 733.007,1106.21 832.246,1043.82 938.64,976.941 1061.91,899.45 1171.46,830.585 
  1267.52,770.196 1372.25,704.357 1477.61,638.126 1594.09,564.899 1704.93,495.226 1820.17,422.781 1917.17,361.799 2035.61,287.346 2146.94,217.358 2325.31,105.232 
  2352.76,87.9763 
  "/>
<polyline clip-path="url(#clip172)" style="stroke:#e26f46; stroke-linecap:butt; stroke-linejoin:round; stroke-width:4; stroke-opacity:1; fill:none" points="
  192.941,1445.72 214.033,1432.46 409.062,1309.85 526.267,1236.17 625.362,1173.88 733.007,1106.21 832.246,1043.82 938.64,976.941 1061.91,899.45 1171.46,830.585 
  1267.52,770.196 1372.25,704.357 1477.61,638.126 1594.09,564.899 1704.93,495.226 1820.17,422.781 1917.17,361.799 2035.61,287.346 2146.94,217.358 2325.31,105.232 
  2352.76,87.9763 
  "/>
<path clip-path="url(#clip170)" d="
M1988.35 250.738 L2280.76 250.738 L2280.76 95.2176 L1988.35 95.2176  Z
  " fill="#ffffff" fill-rule="evenodd" fill-opacity="1"/>
<polyline clip-path="url(#clip170)" style="stroke:#000000; stroke-linecap:butt; stroke-linejoin:round; stroke-width:4; stroke-opacity:1; fill:none" points="
  1988.35,250.738 2280.76,250.738 2280.76,95.2176 1988.35,95.2176 1988.35,250.738 
  "/>
<polyline clip-path="url(#clip170)" style="stroke:#009af9; stroke-linecap:butt; stroke-linejoin:round; stroke-width:4; stroke-opacity:1; fill:none" points="
  2012.35,147.058 2156.34,147.058 
  "/>
<path clip-path="url(#clip170)" d="M2194.18 166.745 Q2192.37 171.375 2190.66 172.787 Q2188.95 174.199 2186.08 174.199 L2182.67 174.199 L2182.67 170.634 L2185.17 170.634 Q2186.93 170.634 2187.91 169.8 Q2188.88 168.967 2190.06 165.865 L2190.82 163.921 L2180.34 138.412 L2184.85 138.412 L2192.95 158.689 L2201.05 138.412 L2205.57 138.412 L2194.18 166.745 Z" fill="#000000" fill-rule="evenodd" fill-opacity="1" /><path clip-path="url(#clip170)" d="M2212.86 160.402 L2220.5 160.402 L2220.5 134.037 L2212.19 135.703 L2212.19 131.444 L2220.45 129.778 L2225.13 129.778 L2225.13 160.402 L2232.77 160.402 L2232.77 164.338 L2212.86 164.338 L2212.86 160.402 Z" fill="#000000" fill-rule="evenodd" fill-opacity="1" /><polyline clip-path="url(#clip170)" style="stroke:#e26f46; stroke-linecap:butt; stroke-linejoin:round; stroke-width:4; stroke-opacity:1; fill:none" points="
  2012.35,198.898 2156.34,198.898 
  "/>
<path clip-path="url(#clip170)" d="M2194.18 218.585 Q2192.37 223.215 2190.66 224.627 Q2188.95 226.039 2186.08 226.039 L2182.67 226.039 L2182.67 222.474 L2185.17 222.474 Q2186.93 222.474 2187.91 221.64 Q2188.88 220.807 2190.06 217.705 L2190.82 215.761 L2180.34 190.252 L2184.85 190.252 L2192.95 210.529 L2201.05 190.252 L2205.57 190.252 L2194.18 218.585 Z" fill="#000000" fill-rule="evenodd" fill-opacity="1" /><path clip-path="url(#clip170)" d="M2216.08 212.242 L2232.4 212.242 L2232.4 216.178 L2210.45 216.178 L2210.45 212.242 Q2213.11 209.488 2217.7 204.858 Q2222.3 200.205 2223.48 198.863 Q2225.73 196.34 2226.61 194.604 Q2227.51 192.844 2227.51 191.155 Q2227.51 188.4 2225.57 186.664 Q2223.65 184.928 2220.54 184.928 Q2218.34 184.928 2215.89 185.692 Q2213.46 186.455 2210.68 188.006 L2210.68 183.284 Q2213.51 182.15 2215.96 181.571 Q2218.41 180.993 2220.45 180.993 Q2225.82 180.993 2229.02 183.678 Q2232.21 186.363 2232.21 190.854 Q2232.21 192.983 2231.4 194.905 Q2230.61 196.803 2228.51 199.395 Q2227.93 200.067 2224.83 203.284 Q2221.72 206.479 2216.08 212.242 Z" fill="#000000" fill-rule="evenodd" fill-opacity="1" /></svg>
