<?xml version="1.0" encoding="utf-8"?>
<svg xmlns="http://www.w3.org/2000/svg" xmlns:xlink="http://www.w3.org/1999/xlink" width="600" height="400" viewBox="0 0 2400 1600">
<defs>
  <clipPath id="clip870">
    <rect x="0" y="0" width="2400" height="1600"/>
  </clipPath>
</defs>
<path clip-path="url(#clip870)" d="
M0 1600 L2400 1600 L2400 0 L0 0  Z
  " fill="#ffffff" fill-rule="evenodd" fill-opacity="1"/>
<defs>
  <clipPath id="clip871">
    <rect x="480" y="0" width="1681" height="1600"/>
  </clipPath>
</defs>
<path clip-path="url(#clip870)" d="
M216.436 1486.45 L2352.76 1486.45 L2352.76 123.472 L216.436 123.472  Z
  " fill="#ffffff" fill-rule="evenodd" fill-opacity="1"/>
<defs>
  <clipPath id="clip872">
    <rect x="216" y="123" width="2137" height="1364"/>
  </clipPath>
</defs>
<polyline clip-path="url(#clip872)" style="stroke:#000000; stroke-linecap:butt; stroke-linejoin:round; stroke-width:2; stroke-opacity:0.1; fill:none" points="
  276.898,1486.45 276.898,123.472 
  "/>
<polyline clip-path="url(#clip872)" style="stroke:#000000; stroke-linecap:butt; stroke-linejoin:round; stroke-width:2; stroke-opacity:0.1; fill:none" points="
  780.747,1486.45 780.747,123.472 
  "/>
<polyline clip-path="url(#clip872)" style="stroke:#000000; stroke-linecap:butt; stroke-linejoin:round; stroke-width:2; stroke-opacity:0.1; fill:none" points="
  1284.6,1486.45 1284.6,123.472 
  "/>
<polyline clip-path="url(#clip872)" style="stroke:#000000; stroke-linecap:butt; stroke-linejoin:round; stroke-width:2; stroke-opacity:0.1; fill:none" points="
  1788.44,1486.45 1788.44,123.472 
  "/>
<polyline clip-path="url(#clip872)" style="stroke:#000000; stroke-linecap:butt; stroke-linejoin:round; stroke-width:2; stroke-opacity:0.1; fill:none" points="
  2292.29,1486.45 2292.29,123.472 
  "/>
<polyline clip-path="url(#clip870)" style="stroke:#000000; stroke-linecap:butt; stroke-linejoin:round; stroke-width:4; stroke-opacity:1; fill:none" points="
  216.436,1486.45 2352.76,1486.45 
  "/>
<polyline clip-path="url(#clip870)" style="stroke:#000000; stroke-linecap:butt; stroke-linejoin:round; stroke-width:4; stroke-opacity:1; fill:none" points="
  276.898,1486.45 276.898,1467.55 
  "/>
<polyline clip-path="url(#clip870)" style="stroke:#000000; stroke-linecap:butt; stroke-linejoin:round; stroke-width:4; stroke-opacity:1; fill:none" points="
  780.747,1486.45 780.747,1467.55 
  "/>
<polyline clip-path="url(#clip870)" style="stroke:#000000; stroke-linecap:butt; stroke-linejoin:round; stroke-width:4; stroke-opacity:1; fill:none" points="
  1284.6,1486.45 1284.6,1467.55 
  "/>
<polyline clip-path="url(#clip870)" style="stroke:#000000; stroke-linecap:butt; stroke-linejoin:round; stroke-width:4; stroke-opacity:1; fill:none" points="
  1788.44,1486.45 1788.44,1467.55 
  "/>
<polyline clip-path="url(#clip870)" style="stroke:#000000; stroke-linecap:butt; stroke-linejoin:round; stroke-width:4; stroke-opacity:1; fill:none" points="
  2292.29,1486.45 2292.29,1467.55 
  "/>
<path clip-path="url(#clip870)" d="M223.426 1530.29 L253.102 1530.29 L253.102 1534.23 L223.426 1534.23 L223.426 1530.29 Z" fill="#000000" fill-rule="evenodd" fill-opacity="1" /><path clip-path="url(#clip870)" d="M264.004 1543.18 L271.643 1543.18 L271.643 1516.82 L263.333 1518.49 L263.333 1514.23 L271.597 1512.56 L276.273 1512.56 L276.273 1543.18 L283.912 1543.18 L283.912 1547.12 L264.004 1547.12 L264.004 1543.18 Z" fill="#000000" fill-rule="evenodd" fill-opacity="1" /><path clip-path="url(#clip870)" d="M293.356 1541.24 L298.24 1541.24 L298.24 1547.12 L293.356 1547.12 L293.356 1541.24 Z" fill="#000000" fill-rule="evenodd" fill-opacity="1" /><path clip-path="url(#clip870)" d="M318.425 1515.64 Q314.814 1515.64 312.986 1519.2 Q311.18 1522.75 311.18 1529.87 Q311.18 1536.98 312.986 1540.55 Q314.814 1544.09 318.425 1544.09 Q322.06 1544.09 323.865 1540.55 Q325.694 1536.98 325.694 1529.87 Q325.694 1522.75 323.865 1519.2 Q322.06 1515.64 318.425 1515.64 M318.425 1511.93 Q324.235 1511.93 327.291 1516.54 Q330.37 1521.12 330.37 1529.87 Q330.37 1538.6 327.291 1543.21 Q324.235 1547.79 318.425 1547.79 Q312.615 1547.79 309.536 1543.21 Q306.481 1538.6 306.481 1529.87 Q306.481 1521.12 309.536 1516.54 Q312.615 1511.93 318.425 1511.93 Z" fill="#000000" fill-rule="evenodd" fill-opacity="1" /><path clip-path="url(#clip870)" d="M727.773 1530.29 L757.448 1530.29 L757.448 1534.23 L727.773 1534.23 L727.773 1530.29 Z" fill="#000000" fill-rule="evenodd" fill-opacity="1" /><path clip-path="url(#clip870)" d="M777.541 1515.64 Q773.93 1515.64 772.101 1519.2 Q770.295 1522.75 770.295 1529.87 Q770.295 1536.98 772.101 1540.55 Q773.93 1544.09 777.541 1544.09 Q781.175 1544.09 782.981 1540.55 Q784.809 1536.98 784.809 1529.87 Q784.809 1522.75 782.981 1519.2 Q781.175 1515.64 777.541 1515.64 M777.541 1511.93 Q783.351 1511.93 786.407 1516.54 Q789.485 1521.12 789.485 1529.87 Q789.485 1538.6 786.407 1543.21 Q783.351 1547.79 777.541 1547.79 Q771.731 1547.79 768.652 1543.21 Q765.596 1538.6 765.596 1529.87 Q765.596 1521.12 768.652 1516.54 Q771.731 1511.93 777.541 1511.93 Z" fill="#000000" fill-rule="evenodd" fill-opacity="1" /><path clip-path="url(#clip870)" d="M797.703 1541.24 L802.587 1541.24 L802.587 1547.12 L797.703 1547.12 L797.703 1541.24 Z" fill="#000000" fill-rule="evenodd" fill-opacity="1" /><path clip-path="url(#clip870)" d="M812.818 1512.56 L831.175 1512.56 L831.175 1516.5 L817.101 1516.5 L817.101 1524.97 Q818.119 1524.62 819.138 1524.46 Q820.156 1524.27 821.175 1524.27 Q826.962 1524.27 830.341 1527.44 Q833.721 1530.62 833.721 1536.03 Q833.721 1541.61 830.249 1544.71 Q826.777 1547.79 820.457 1547.79 Q818.281 1547.79 816.013 1547.42 Q813.767 1547.05 811.36 1546.31 L811.36 1541.61 Q813.443 1542.74 815.666 1543.3 Q817.888 1543.86 820.365 1543.86 Q824.369 1543.86 826.707 1541.75 Q829.045 1539.64 829.045 1536.03 Q829.045 1532.42 826.707 1530.31 Q824.369 1528.21 820.365 1528.21 Q818.49 1528.21 816.615 1528.62 Q814.763 1529.04 812.818 1529.92 L812.818 1512.56 Z" fill="#000000" fill-rule="evenodd" fill-opacity="1" /><path clip-path="url(#clip870)" d="M1261.98 1515.64 Q1258.37 1515.64 1256.54 1519.2 Q1254.73 1522.75 1254.73 1529.87 Q1254.73 1536.98 1256.54 1540.55 Q1258.37 1544.09 1261.98 1544.09 Q1265.61 1544.09 1267.42 1540.55 Q1269.25 1536.98 1269.25 1529.87 Q1269.25 1522.75 1267.42 1519.2 Q1265.61 1515.64 1261.98 1515.64 M1261.98 1511.93 Q1267.79 1511.93 1270.85 1516.54 Q1273.92 1521.12 1273.92 1529.87 Q1273.92 1538.6 1270.85 1543.21 Q1267.79 1547.79 1261.98 1547.79 Q1256.17 1547.79 1253.09 1543.21 Q1250.04 1538.6 1250.04 1529.87 Q1250.04 1521.12 1253.09 1516.54 Q1256.17 1511.93 1261.98 1511.93 Z" fill="#000000" fill-rule="evenodd" fill-opacity="1" /><path clip-path="url(#clip870)" d="M1282.14 1541.24 L1287.03 1541.24 L1287.03 1547.12 L1282.14 1547.12 L1282.14 1541.24 Z" fill="#000000" fill-rule="evenodd" fill-opacity="1" /><path clip-path="url(#clip870)" d="M1307.21 1515.64 Q1303.6 1515.64 1301.77 1519.2 Q1299.97 1522.75 1299.97 1529.87 Q1299.97 1536.98 1301.77 1540.55 Q1303.6 1544.09 1307.21 1544.09 Q1310.85 1544.09 1312.65 1540.55 Q1314.48 1536.98 1314.48 1529.87 Q1314.48 1522.75 1312.65 1519.2 Q1310.85 1515.64 1307.21 1515.64 M1307.21 1511.93 Q1313.02 1511.93 1316.08 1516.54 Q1319.16 1521.12 1319.16 1529.87 Q1319.16 1538.6 1316.08 1543.21 Q1313.02 1547.79 1307.21 1547.79 Q1301.4 1547.79 1298.32 1543.21 Q1295.27 1538.6 1295.27 1529.87 Q1295.27 1521.12 1298.32 1516.54 Q1301.4 1511.93 1307.21 1511.93 Z" fill="#000000" fill-rule="evenodd" fill-opacity="1" /><path clip-path="url(#clip870)" d="M1766.33 1515.64 Q1762.72 1515.64 1760.89 1519.2 Q1759.08 1522.75 1759.08 1529.87 Q1759.08 1536.98 1760.89 1540.55 Q1762.72 1544.09 1766.33 1544.09 Q1769.96 1544.09 1771.77 1540.55 Q1773.6 1536.98 1773.6 1529.87 Q1773.6 1522.75 1771.77 1519.2 Q1769.96 1515.64 1766.33 1515.64 M1766.33 1511.93 Q1772.14 1511.93 1775.19 1516.54 Q1778.27 1521.12 1778.27 1529.87 Q1778.27 1538.6 1775.19 1543.21 Q1772.14 1547.79 1766.33 1547.79 Q1760.52 1547.79 1757.44 1543.21 Q1754.38 1538.6 1754.38 1529.87 Q1754.38 1521.12 1757.44 1516.54 Q1760.52 1511.93 1766.33 1511.93 Z" fill="#000000" fill-rule="evenodd" fill-opacity="1" /><path clip-path="url(#clip870)" d="M1786.49 1541.24 L1791.37 1541.24 L1791.37 1547.12 L1786.49 1547.12 L1786.49 1541.24 Z" fill="#000000" fill-rule="evenodd" fill-opacity="1" /><path clip-path="url(#clip870)" d="M1801.6 1512.56 L1819.96 1512.56 L1819.96 1516.5 L1805.89 1516.5 L1805.89 1524.97 Q1806.91 1524.62 1807.92 1524.46 Q1808.94 1524.27 1809.96 1524.27 Q1815.75 1524.27 1819.13 1527.44 Q1822.51 1530.62 1822.51 1536.03 Q1822.51 1541.61 1819.04 1544.71 Q1815.56 1547.79 1809.24 1547.79 Q1807.07 1547.79 1804.8 1547.42 Q1802.55 1547.05 1800.15 1546.31 L1800.15 1541.61 Q1802.23 1542.74 1804.45 1543.3 Q1806.67 1543.86 1809.15 1543.86 Q1813.16 1543.86 1815.49 1541.75 Q1817.83 1539.64 1817.83 1536.03 Q1817.83 1532.42 1815.49 1530.31 Q1813.16 1528.21 1809.15 1528.21 Q1807.28 1528.21 1805.4 1528.62 Q1803.55 1529.04 1801.6 1529.92 L1801.6 1512.56 Z" fill="#000000" fill-rule="evenodd" fill-opacity="1" /><path clip-path="url(#clip870)" d="M2259.45 1543.18 L2267.09 1543.18 L2267.09 1516.82 L2258.78 1518.49 L2258.78 1514.23 L2267.04 1512.56 L2271.72 1512.56 L2271.72 1543.18 L2279.35 1543.18 L2279.35 1547.12 L2259.45 1547.12 L2259.45 1543.18 Z" fill="#000000" fill-rule="evenodd" fill-opacity="1" /><path clip-path="url(#clip870)" d="M2288.8 1541.24 L2293.68 1541.24 L2293.68 1547.12 L2288.8 1547.12 L2288.8 1541.24 Z" fill="#000000" fill-rule="evenodd" fill-opacity="1" /><path clip-path="url(#clip870)" d="M2313.87 1515.64 Q2310.26 1515.64 2308.43 1519.2 Q2306.62 1522.75 2306.62 1529.87 Q2306.62 1536.98 2308.43 1540.55 Q2310.26 1544.09 2313.87 1544.09 Q2317.5 1544.09 2319.31 1540.55 Q2321.14 1536.98 2321.14 1529.87 Q2321.14 1522.75 2319.31 1519.2 Q2317.5 1515.64 2313.87 1515.64 M2313.87 1511.93 Q2319.68 1511.93 2322.73 1516.54 Q2325.81 1521.12 2325.81 1529.87 Q2325.81 1538.6 2322.73 1543.21 Q2319.68 1547.79 2313.87 1547.79 Q2308.06 1547.79 2304.98 1543.21 Q2301.92 1538.6 2301.92 1529.87 Q2301.92 1521.12 2304.98 1516.54 Q2308.06 1511.93 2313.87 1511.93 Z" fill="#000000" fill-rule="evenodd" fill-opacity="1" /><polyline clip-path="url(#clip872)" style="stroke:#000000; stroke-linecap:butt; stroke-linejoin:round; stroke-width:2; stroke-opacity:0.1; fill:none" points="
  216.436,1400.67 2352.76,1400.67 
  "/>
<polyline clip-path="url(#clip872)" style="stroke:#000000; stroke-linecap:butt; stroke-linejoin:round; stroke-width:2; stroke-opacity:0.1; fill:none" points="
  216.436,1058.83 2352.76,1058.83 
  "/>
<polyline clip-path="url(#clip872)" style="stroke:#000000; stroke-linecap:butt; stroke-linejoin:round; stroke-width:2; stroke-opacity:0.1; fill:none" points="
  216.436,716.992 2352.76,716.992 
  "/>
<polyline clip-path="url(#clip872)" style="stroke:#000000; stroke-linecap:butt; stroke-linejoin:round; stroke-width:2; stroke-opacity:0.1; fill:none" points="
  216.436,375.154 2352.76,375.154 
  "/>
<polyline clip-path="url(#clip870)" style="stroke:#000000; stroke-linecap:butt; stroke-linejoin:round; stroke-width:4; stroke-opacity:1; fill:none" points="
  216.436,1486.45 216.436,123.472 
  "/>
<polyline clip-path="url(#clip870)" style="stroke:#000000; stroke-linecap:butt; stroke-linejoin:round; stroke-width:4; stroke-opacity:1; fill:none" points="
  216.436,1400.67 235.334,1400.67 
  "/>
<polyline clip-path="url(#clip870)" style="stroke:#000000; stroke-linecap:butt; stroke-linejoin:round; stroke-width:4; stroke-opacity:1; fill:none" points="
  216.436,1058.83 235.334,1058.83 
  "/>
<polyline clip-path="url(#clip870)" style="stroke:#000000; stroke-linecap:butt; stroke-linejoin:round; stroke-width:4; stroke-opacity:1; fill:none" points="
  216.436,716.992 235.334,716.992 
  "/>
<polyline clip-path="url(#clip870)" style="stroke:#000000; stroke-linecap:butt; stroke-linejoin:round; stroke-width:4; stroke-opacity:1; fill:none" points="
  216.436,375.154 235.334,375.154 
  "/>
<path clip-path="url(#clip870)" d="M62.9365 1386.47 Q59.3254 1386.47 57.4967 1390.03 Q55.6912 1393.57 55.6912 1400.7 Q55.6912 1407.81 57.4967 1411.37 Q59.3254 1414.92 62.9365 1414.92 Q66.5707 1414.92 68.3763 1411.37 Q70.205 1407.81 70.205 1400.7 Q70.205 1393.57 68.3763 1390.03 Q66.5707 1386.47 62.9365 1386.47 M62.9365 1382.76 Q68.7467 1382.76 71.8022 1387.37 Q74.8809 1391.95 74.8809 1400.7 Q74.8809 1409.43 71.8022 1414.04 Q68.7467 1418.62 62.9365 1418.62 Q57.1264 1418.62 54.0477 1414.04 Q50.9921 1409.43 50.9921 1400.7 Q50.9921 1391.95 54.0477 1387.37 Q57.1264 1382.76 62.9365 1382.76 Z" fill="#000000" fill-rule="evenodd" fill-opacity="1" /><path clip-path="url(#clip870)" d="M83.0984 1412.07 L87.9827 1412.07 L87.9827 1417.95 L83.0984 1417.95 L83.0984 1412.07 Z" fill="#000000" fill-rule="evenodd" fill-opacity="1" /><path clip-path="url(#clip870)" d="M108.168 1386.47 Q104.557 1386.47 102.728 1390.03 Q100.922 1393.57 100.922 1400.7 Q100.922 1407.81 102.728 1411.37 Q104.557 1414.92 108.168 1414.92 Q111.802 1414.92 113.608 1411.37 Q115.436 1407.81 115.436 1400.7 Q115.436 1393.57 113.608 1390.03 Q111.802 1386.47 108.168 1386.47 M108.168 1382.76 Q113.978 1382.76 117.033 1387.37 Q120.112 1391.95 120.112 1400.7 Q120.112 1409.43 117.033 1414.04 Q113.978 1418.62 108.168 1418.62 Q102.358 1418.62 99.2789 1414.04 Q96.2234 1409.43 96.2234 1400.7 Q96.2234 1391.95 99.2789 1387.37 Q102.358 1382.76 108.168 1382.76 Z" fill="#000000" fill-rule="evenodd" fill-opacity="1" /><path clip-path="url(#clip870)" d="M138.33 1386.47 Q134.719 1386.47 132.89 1390.03 Q131.084 1393.57 131.084 1400.7 Q131.084 1407.81 132.89 1411.37 Q134.719 1414.92 138.33 1414.92 Q141.964 1414.92 143.769 1411.37 Q145.598 1407.81 145.598 1400.7 Q145.598 1393.57 143.769 1390.03 Q141.964 1386.47 138.33 1386.47 M138.33 1382.76 Q144.14 1382.76 147.195 1387.37 Q150.274 1391.95 150.274 1400.7 Q150.274 1409.43 147.195 1414.04 Q144.14 1418.62 138.33 1418.62 Q132.519 1418.62 129.441 1414.04 Q126.385 1409.43 126.385 1400.7 Q126.385 1391.95 129.441 1387.37 Q132.519 1382.76 138.33 1382.76 Z" fill="#000000" fill-rule="evenodd" fill-opacity="1" /><path clip-path="url(#clip870)" d="M168.491 1386.47 Q164.88 1386.47 163.052 1390.03 Q161.246 1393.57 161.246 1400.7 Q161.246 1407.81 163.052 1411.37 Q164.88 1414.92 168.491 1414.92 Q172.126 1414.92 173.931 1411.37 Q175.76 1407.81 175.76 1400.7 Q175.76 1393.57 173.931 1390.03 Q172.126 1386.47 168.491 1386.47 M168.491 1382.76 Q174.302 1382.76 177.357 1387.37 Q180.436 1391.95 180.436 1400.7 Q180.436 1409.43 177.357 1414.04 Q174.302 1418.62 168.491 1418.62 Q162.681 1418.62 159.603 1414.04 Q156.547 1409.43 156.547 1400.7 Q156.547 1391.95 159.603 1387.37 Q162.681 1382.76 168.491 1382.76 Z" fill="#000000" fill-rule="evenodd" fill-opacity="1" /><path clip-path="url(#clip870)" d="M64.1634 1044.63 Q60.5523 1044.63 58.7236 1048.19 Q56.918 1051.74 56.918 1058.86 Q56.918 1065.97 58.7236 1069.54 Q60.5523 1073.08 64.1634 1073.08 Q67.7976 1073.08 69.6031 1069.54 Q71.4318 1065.97 71.4318 1058.86 Q71.4318 1051.74 69.6031 1048.19 Q67.7976 1044.63 64.1634 1044.63 M64.1634 1040.93 Q69.9735 1040.93 73.029 1045.53 Q76.1077 1050.11 76.1077 1058.86 Q76.1077 1067.59 73.029 1072.2 Q69.9735 1076.78 64.1634 1076.78 Q58.3532 1076.78 55.2745 1072.2 Q52.219 1067.59 52.219 1058.86 Q52.219 1050.11 55.2745 1045.53 Q58.3532 1040.93 64.1634 1040.93 Z" fill="#000000" fill-rule="evenodd" fill-opacity="1" /><path clip-path="url(#clip870)" d="M84.3253 1070.23 L89.2095 1070.23 L89.2095 1076.11 L84.3253 1076.11 L84.3253 1070.23 Z" fill="#000000" fill-rule="evenodd" fill-opacity="1" /><path clip-path="url(#clip870)" d="M109.395 1044.63 Q105.783 1044.63 103.955 1048.19 Q102.149 1051.74 102.149 1058.86 Q102.149 1065.97 103.955 1069.54 Q105.783 1073.08 109.395 1073.08 Q113.029 1073.08 114.834 1069.54 Q116.663 1065.97 116.663 1058.86 Q116.663 1051.74 114.834 1048.19 Q113.029 1044.63 109.395 1044.63 M109.395 1040.93 Q115.205 1040.93 118.26 1045.53 Q121.339 1050.11 121.339 1058.86 Q121.339 1067.59 118.26 1072.2 Q115.205 1076.78 109.395 1076.78 Q103.584 1076.78 100.506 1072.2 Q97.4502 1067.59 97.4502 1058.86 Q97.4502 1050.11 100.506 1045.53 Q103.584 1040.93 109.395 1040.93 Z" fill="#000000" fill-rule="evenodd" fill-opacity="1" /><path clip-path="url(#clip870)" d="M139.556 1044.63 Q135.945 1044.63 134.117 1048.19 Q132.311 1051.74 132.311 1058.86 Q132.311 1065.97 134.117 1069.54 Q135.945 1073.08 139.556 1073.08 Q143.191 1073.08 144.996 1069.54 Q146.825 1065.97 146.825 1058.86 Q146.825 1051.74 144.996 1048.19 Q143.191 1044.63 139.556 1044.63 M139.556 1040.93 Q145.367 1040.93 148.422 1045.53 Q151.501 1050.11 151.501 1058.86 Q151.501 1067.59 148.422 1072.2 Q145.367 1076.78 139.556 1076.78 Q133.746 1076.78 130.668 1072.2 Q127.612 1067.59 127.612 1058.86 Q127.612 1050.11 130.668 1045.53 Q133.746 1040.93 139.556 1040.93 Z" fill="#000000" fill-rule="evenodd" fill-opacity="1" /><path clip-path="url(#clip870)" d="M160.529 1072.18 L168.167 1072.18 L168.167 1045.81 L159.857 1047.48 L159.857 1043.22 L168.121 1041.55 L172.797 1041.55 L172.797 1072.18 L180.436 1072.18 L180.436 1076.11 L160.529 1076.11 L160.529 1072.18 Z" fill="#000000" fill-rule="evenodd" fill-opacity="1" /><path clip-path="url(#clip870)" d="M64.5337 702.791 Q60.9226 702.791 59.0939 706.356 Q57.2884 709.897 57.2884 717.027 Q57.2884 724.133 59.0939 727.698 Q60.9226 731.24 64.5337 731.24 Q68.168 731.24 69.9735 727.698 Q71.8022 724.133 71.8022 717.027 Q71.8022 709.897 69.9735 706.356 Q68.168 702.791 64.5337 702.791 M64.5337 699.087 Q70.3439 699.087 73.3994 703.694 Q76.4781 708.277 76.4781 717.027 Q76.4781 725.754 73.3994 730.36 Q70.3439 734.944 64.5337 734.944 Q58.7236 734.944 55.6449 730.36 Q52.5893 725.754 52.5893 717.027 Q52.5893 708.277 55.6449 703.694 Q58.7236 699.087 64.5337 699.087 Z" fill="#000000" fill-rule="evenodd" fill-opacity="1" /><path clip-path="url(#clip870)" d="M84.6956 728.393 L89.5799 728.393 L89.5799 734.272 L84.6956 734.272 L84.6956 728.393 Z" fill="#000000" fill-rule="evenodd" fill-opacity="1" /><path clip-path="url(#clip870)" d="M109.765 702.791 Q106.154 702.791 104.325 706.356 Q102.52 709.897 102.52 717.027 Q102.52 724.133 104.325 727.698 Q106.154 731.24 109.765 731.24 Q113.399 731.24 115.205 727.698 Q117.033 724.133 117.033 717.027 Q117.033 709.897 115.205 706.356 Q113.399 702.791 109.765 702.791 M109.765 699.087 Q115.575 699.087 118.631 703.694 Q121.709 708.277 121.709 717.027 Q121.709 725.754 118.631 730.36 Q115.575 734.944 109.765 734.944 Q103.955 734.944 100.876 730.36 Q97.8206 725.754 97.8206 717.027 Q97.8206 708.277 100.876 703.694 Q103.955 699.087 109.765 699.087 Z" fill="#000000" fill-rule="evenodd" fill-opacity="1" /><path clip-path="url(#clip870)" d="M139.927 702.791 Q136.316 702.791 134.487 706.356 Q132.682 709.897 132.682 717.027 Q132.682 724.133 134.487 727.698 Q136.316 731.24 139.927 731.24 Q143.561 731.24 145.367 727.698 Q147.195 724.133 147.195 717.027 Q147.195 709.897 145.367 706.356 Q143.561 702.791 139.927 702.791 M139.927 699.087 Q145.737 699.087 148.793 703.694 Q151.871 708.277 151.871 717.027 Q151.871 725.754 148.793 730.36 Q145.737 734.944 139.927 734.944 Q134.117 734.944 131.038 730.36 Q127.982 725.754 127.982 717.027 Q127.982 708.277 131.038 703.694 Q134.117 699.087 139.927 699.087 Z" fill="#000000" fill-rule="evenodd" fill-opacity="1" /><path clip-path="url(#clip870)" d="M164.117 730.337 L180.436 730.337 L180.436 734.272 L158.492 734.272 L158.492 730.337 Q161.154 727.582 165.737 722.953 Q170.343 718.3 171.524 716.958 Q173.769 714.434 174.649 712.698 Q175.552 710.939 175.552 709.249 Q175.552 706.495 173.607 704.759 Q171.686 703.022 168.584 703.022 Q166.385 703.022 163.931 703.786 Q161.501 704.55 158.723 706.101 L158.723 701.379 Q161.547 700.245 164.001 699.666 Q166.454 699.087 168.491 699.087 Q173.862 699.087 177.056 701.772 Q180.251 704.458 180.251 708.948 Q180.251 711.078 179.441 712.999 Q178.653 714.897 176.547 717.49 Q175.968 718.161 172.866 721.379 Q169.765 724.573 164.117 730.337 Z" fill="#000000" fill-rule="evenodd" fill-opacity="1" /><path clip-path="url(#clip870)" d="M63.5847 360.953 Q59.9736 360.953 58.1449 364.518 Q56.3393 368.059 56.3393 375.189 Q56.3393 382.296 58.1449 385.86 Q59.9736 389.402 63.5847 389.402 Q67.2189 389.402 69.0244 385.86 Q70.8531 382.296 70.8531 375.189 Q70.8531 368.059 69.0244 364.518 Q67.2189 360.953 63.5847 360.953 M63.5847 357.249 Q69.3948 357.249 72.4503 361.856 Q75.529 366.439 75.529 375.189 Q75.529 383.916 72.4503 388.522 Q69.3948 393.106 63.5847 393.106 Q57.7745 393.106 54.6958 388.522 Q51.6403 383.916 51.6403 375.189 Q51.6403 366.439 54.6958 361.856 Q57.7745 357.249 63.5847 357.249 Z" fill="#000000" fill-rule="evenodd" fill-opacity="1" /><path clip-path="url(#clip870)" d="M83.7466 386.555 L88.6308 386.555 L88.6308 392.434 L83.7466 392.434 L83.7466 386.555 Z" fill="#000000" fill-rule="evenodd" fill-opacity="1" /><path clip-path="url(#clip870)" d="M108.816 360.953 Q105.205 360.953 103.376 364.518 Q101.571 368.059 101.571 375.189 Q101.571 382.296 103.376 385.86 Q105.205 389.402 108.816 389.402 Q112.45 389.402 114.256 385.86 Q116.084 382.296 116.084 375.189 Q116.084 368.059 114.256 364.518 Q112.45 360.953 108.816 360.953 M108.816 357.249 Q114.626 357.249 117.682 361.856 Q120.76 366.439 120.76 375.189 Q120.76 383.916 117.682 388.522 Q114.626 393.106 108.816 393.106 Q103.006 393.106 99.927 388.522 Q96.8715 383.916 96.8715 375.189 Q96.8715 366.439 99.927 361.856 Q103.006 357.249 108.816 357.249 Z" fill="#000000" fill-rule="evenodd" fill-opacity="1" /><path clip-path="url(#clip870)" d="M138.978 360.953 Q135.367 360.953 133.538 364.518 Q131.732 368.059 131.732 375.189 Q131.732 382.296 133.538 385.86 Q135.367 389.402 138.978 389.402 Q142.612 389.402 144.418 385.86 Q146.246 382.296 146.246 375.189 Q146.246 368.059 144.418 364.518 Q142.612 360.953 138.978 360.953 M138.978 357.249 Q144.788 357.249 147.843 361.856 Q150.922 366.439 150.922 375.189 Q150.922 383.916 147.843 388.522 Q144.788 393.106 138.978 393.106 Q133.168 393.106 130.089 388.522 Q127.033 383.916 127.033 375.189 Q127.033 366.439 130.089 361.856 Q133.168 357.249 138.978 357.249 Z" fill="#000000" fill-rule="evenodd" fill-opacity="1" /><path clip-path="url(#clip870)" d="M173.306 373.8 Q176.663 374.518 178.538 376.786 Q180.436 379.055 180.436 382.388 Q180.436 387.504 176.917 390.305 Q173.399 393.106 166.917 393.106 Q164.742 393.106 162.427 392.666 Q160.135 392.249 157.681 391.393 L157.681 386.879 Q159.626 388.013 161.941 388.592 Q164.255 389.17 166.779 389.17 Q171.177 389.17 173.468 387.434 Q175.783 385.698 175.783 382.388 Q175.783 379.333 173.63 377.62 Q171.501 375.884 167.681 375.884 L163.654 375.884 L163.654 372.041 L167.866 372.041 Q171.316 372.041 173.144 370.675 Q174.973 369.286 174.973 366.694 Q174.973 364.032 173.075 362.62 Q171.2 361.185 167.681 361.185 Q165.76 361.185 163.561 361.601 Q161.362 362.018 158.723 362.897 L158.723 358.731 Q161.385 357.99 163.7 357.62 Q166.038 357.249 168.098 357.249 Q173.422 357.249 176.524 359.68 Q179.626 362.087 179.626 366.208 Q179.626 369.078 177.982 371.069 Q176.339 373.036 173.306 373.8 Z" fill="#000000" fill-rule="evenodd" fill-opacity="1" /><path clip-path="url(#clip870)" d="M1097.97 18.8205 L1097.97 41.5461 L1108.26 41.5461 Q1113.97 41.5461 1117.09 38.5889 Q1120.21 35.6318 1120.21 30.163 Q1120.21 24.7348 1117.09 21.7777 Q1113.97 18.8205 1108.26 18.8205 L1097.97 18.8205 M1089.79 12.096 L1108.26 12.096 Q1118.43 12.096 1123.61 16.714 Q1128.84 21.2916 1128.84 30.163 Q1128.84 39.1155 1123.61 43.6931 Q1118.43 48.2706 1108.26 48.2706 L1097.97 48.2706 L1097.97 72.576 L1089.79 72.576 L1089.79 12.096 Z" fill="#000000" fill-rule="evenodd" fill-opacity="1" /><path clip-path="url(#clip870)" d="M1175.34 48.0275 L1175.34 51.6733 L1141.07 51.6733 Q1141.56 59.3701 1145.69 63.421 Q1149.86 67.4314 1157.28 67.4314 Q1161.57 67.4314 1165.58 66.3781 Q1169.63 65.3249 1173.6 63.2184 L1173.6 70.267 Q1169.59 71.9684 1165.38 72.8596 Q1161.16 73.7508 1156.83 73.7508 Q1145.97 73.7508 1139.61 67.4314 Q1133.29 61.1119 1133.29 50.3365 Q1133.29 39.1965 1139.29 32.6746 Q1145.33 26.1121 1155.53 26.1121 Q1164.69 26.1121 1170 32.0264 Q1175.34 37.9003 1175.34 48.0275 M1167.89 45.84 Q1167.81 39.7232 1164.45 36.0774 Q1161.12 32.4315 1155.62 32.4315 Q1149.38 32.4315 1145.61 35.9558 Q1141.88 39.4801 1141.32 45.8805 L1167.89 45.84 Z" fill="#000000" fill-rule="evenodd" fill-opacity="1" /><path clip-path="url(#clip870)" d="M1222.05 86.3491 L1222.05 92.1419 L1178.95 92.1419 L1178.95 86.3491 L1222.05 86.3491 Z" fill="#000000" fill-rule="evenodd" fill-opacity="1" /><path clip-path="url(#clip870)" d="M1266.77 45.1919 L1266.77 72.576 L1259.32 72.576 L1259.32 45.4349 Q1259.32 38.994 1256.81 35.7938 Q1254.3 32.5936 1249.27 32.5936 Q1243.24 32.5936 1239.75 36.4419 Q1236.27 40.2903 1236.27 46.9338 L1236.27 72.576 L1228.77 72.576 L1228.77 9.54393 L1236.27 9.54393 L1236.27 34.2544 Q1238.94 30.163 1242.55 28.1376 Q1246.19 26.1121 1250.93 26.1121 Q1258.75 26.1121 1262.76 30.9732 Q1266.77 35.7938 1266.77 45.1919 Z" fill="#000000" fill-rule="evenodd" fill-opacity="1" /><path clip-path="url(#clip870)" d="M1309.14 12.096 L1341.27 12.096 L1341.27 18.9825 L1316.64 18.9825 L1316.64 33.8088 Q1318.42 33.2012 1320.2 32.9176 Q1321.99 32.5936 1323.77 32.5936 Q1333.9 32.5936 1339.81 38.1433 Q1345.72 43.6931 1345.72 53.1722 Q1345.72 62.9348 1339.65 68.3631 Q1333.57 73.7508 1322.51 73.7508 Q1318.7 73.7508 1314.73 73.1026 Q1310.81 72.4545 1306.59 71.1582 L1306.59 62.9348 Q1310.24 64.9198 1314.13 65.892 Q1318.02 66.8642 1322.35 66.8642 Q1329.36 66.8642 1333.45 63.1779 Q1337.54 59.4916 1337.54 53.1722 Q1337.54 46.8528 1333.45 43.1664 Q1329.36 39.4801 1322.35 39.4801 Q1319.07 39.4801 1315.79 40.2093 Q1312.55 40.9384 1309.14 42.4778 L1309.14 12.096 Z" fill="#000000" fill-rule="evenodd" fill-opacity="1" /><path clip-path="url(#clip870)" d="M1379.35 17.4837 Q1373.03 17.4837 1369.83 23.7221 Q1366.67 29.92 1366.67 42.3968 Q1366.67 54.833 1369.83 61.0714 Q1373.03 67.2693 1379.35 67.2693 Q1385.71 67.2693 1388.87 61.0714 Q1392.07 54.833 1392.07 42.3968 Q1392.07 29.92 1388.87 23.7221 Q1385.71 17.4837 1379.35 17.4837 M1379.35 11.0023 Q1389.51 11.0023 1394.86 19.0636 Q1400.25 27.0843 1400.25 42.3968 Q1400.25 57.6687 1394.86 65.73 Q1389.51 73.7508 1379.35 73.7508 Q1369.18 73.7508 1363.79 65.73 Q1358.44 57.6687 1358.44 42.3968 Q1358.44 27.0843 1363.79 19.0636 Q1369.18 11.0023 1379.35 11.0023 Z" fill="#000000" fill-rule="evenodd" fill-opacity="1" /><path clip-path="url(#clip870)" d="M1414.63 62.2867 L1423.18 62.2867 L1423.18 72.576 L1414.63 72.576 L1414.63 62.2867 Z" fill="#000000" fill-rule="evenodd" fill-opacity="1" /><path clip-path="url(#clip870)" d="M1458.5 17.4837 Q1452.18 17.4837 1448.98 23.7221 Q1445.82 29.92 1445.82 42.3968 Q1445.82 54.833 1448.98 61.0714 Q1452.18 67.2693 1458.5 67.2693 Q1464.86 67.2693 1468.02 61.0714 Q1471.22 54.833 1471.22 42.3968 Q1471.22 29.92 1468.02 23.7221 Q1464.86 17.4837 1458.5 17.4837 M1458.5 11.0023 Q1468.67 11.0023 1474.02 19.0636 Q1479.4 27.0843 1479.4 42.3968 Q1479.4 57.6687 1474.02 65.73 Q1468.67 73.7508 1458.5 73.7508 Q1448.33 73.7508 1442.95 65.73 Q1437.6 57.6687 1437.6 42.3968 Q1437.6 27.0843 1442.95 19.0636 Q1448.33 11.0023 1458.5 11.0023 Z" fill="#000000" fill-rule="evenodd" fill-opacity="1" /><polyline clip-path="url(#clip872)" style="stroke:#009af9; stroke-linecap:butt; stroke-linejoin:round; stroke-width:4; stroke-opacity:1; fill:none" points="
  276.898,1400.67 328.575,1447.87 380.251,1360.35 431.928,1418.49 483.605,1319.15 535.282,1390.07 586.959,1276.91 638.636,1362.78 690.312,1233.46 741.989,1336.79 
  793.666,1188.59 845.343,1312.33 897.02,1142.06 948.697,1289.67 1000.37,1093.6 1052.05,1269.1 1103.73,1042.87 1155.4,1250.98 1207.08,989.497 1258.76,1235.72 
  1310.43,933.029 1362.11,1223.81 1413.79,872.945 1465.46,1215.8 1517.14,808.634 1568.82,1212.36 1620.5,739.381 1672.17,1214.27 1723.85,664.354 1775.53,1222.42 
  1827.2,582.575 1878.88,1237.87 1930.56,492.904 1982.23,1261.86 2033.91,394.008 2085.59,1295.81 2137.26,284.33 2188.94,1341.43 2240.62,162.047 2292.29,1400.67 
  
  "/>
<circle clip-path="url(#clip872)" cx="276.898" cy="1400.67" r="14" fill="#009af9" fill-rule="evenodd" fill-opacity="1" stroke="#000000" stroke-opacity="1" stroke-width="3.2"/>
<circle clip-path="url(#clip872)" cx="328.575" cy="1447.87" r="14" fill="#009af9" fill-rule="evenodd" fill-opacity="1" stroke="#000000" stroke-opacity="1" stroke-width="3.2"/>
<circle clip-path="url(#clip872)" cx="380.251" cy="1360.35" r="14" fill="#009af9" fill-rule="evenodd" fill-opacity="1" stroke="#000000" stroke-opacity="1" stroke-width="3.2"/>
<circle clip-path="url(#clip872)" cx="431.928" cy="1418.49" r="14" fill="#009af9" fill-rule="evenodd" fill-opacity="1" stroke="#000000" stroke-opacity="1" stroke-width="3.2"/>
<circle clip-path="url(#clip872)" cx="483.605" cy="1319.15" r="14" fill="#009af9" fill-rule="evenodd" fill-opacity="1" stroke="#000000" stroke-opacity="1" stroke-width="3.2"/>
<circle clip-path="url(#clip872)" cx="535.282" cy="1390.07" r="14" fill="#009af9" fill-rule="evenodd" fill-opacity="1" stroke="#000000" stroke-opacity="1" stroke-width="3.2"/>
<circle clip-path="url(#clip872)" cx="586.959" cy="1276.91" r="14" fill="#009af9" fill-rule="evenodd" fill-opacity="1" stroke="#000000" stroke-opacity="1" stroke-width="3.2"/>
<circle clip-path="url(#clip872)" cx="638.636" cy="1362.78" r="14" fill="#009af9" fill-rule="evenodd" fill-opacity="1" stroke="#000000" stroke-opacity="1" stroke-width="3.2"/>
<circle clip-path="url(#clip872)" cx="690.312" cy="1233.46" r="14" fill="#009af9" fill-rule="evenodd" fill-opacity="1" stroke="#000000" stroke-opacity="1" stroke-width="3.2"/>
<circle clip-path="url(#clip872)" cx="741.989" cy="1336.79" r="14" fill="#009af9" fill-rule="evenodd" fill-opacity="1" stroke="#000000" stroke-opacity="1" stroke-width="3.2"/>
<circle clip-path="url(#clip872)" cx="793.666" cy="1188.59" r="14" fill="#009af9" fill-rule="evenodd" fill-opacity="1" stroke="#000000" stroke-opacity="1" stroke-width="3.2"/>
<circle clip-path="url(#clip872)" cx="845.343" cy="1312.33" r="14" fill="#009af9" fill-rule="evenodd" fill-opacity="1" stroke="#000000" stroke-opacity="1" stroke-width="3.2"/>
<circle clip-path="url(#clip872)" cx="897.02" cy="1142.06" r="14" fill="#009af9" fill-rule="evenodd" fill-opacity="1" stroke="#000000" stroke-opacity="1" stroke-width="3.2"/>
<circle clip-path="url(#clip872)" cx="948.697" cy="1289.67" r="14" fill="#009af9" fill-rule="evenodd" fill-opacity="1" stroke="#000000" stroke-opacity="1" stroke-width="3.2"/>
<circle clip-path="url(#clip872)" cx="1000.37" cy="1093.6" r="14" fill="#009af9" fill-rule="evenodd" fill-opacity="1" stroke="#000000" stroke-opacity="1" stroke-width="3.2"/>
<circle clip-path="url(#clip872)" cx="1052.05" cy="1269.1" r="14" fill="#009af9" fill-rule="evenodd" fill-opacity="1" stroke="#000000" stroke-opacity="1" stroke-width="3.2"/>
<circle clip-path="url(#clip872)" cx="1103.73" cy="1042.87" r="14" fill="#009af9" fill-rule="evenodd" fill-opacity="1" stroke="#000000" stroke-opacity="1" stroke-width="3.2"/>
<circle clip-path="url(#clip872)" cx="1155.4" cy="1250.98" r="14" fill="#009af9" fill-rule="evenodd" fill-opacity="1" stroke="#000000" stroke-opacity="1" stroke-width="3.2"/>
<circle clip-path="url(#clip872)" cx="1207.08" cy="989.497" r="14" fill="#009af9" fill-rule="evenodd" fill-opacity="1" stroke="#000000" stroke-opacity="1" stroke-width="3.2"/>
<circle clip-path="url(#clip872)" cx="1258.76" cy="1235.72" r="14" fill="#009af9" fill-rule="evenodd" fill-opacity="1" stroke="#000000" stroke-opacity="1" stroke-width="3.2"/>
<circle clip-path="url(#clip872)" cx="1310.43" cy="933.029" r="14" fill="#009af9" fill-rule="evenodd" fill-opacity="1" stroke="#000000" stroke-opacity="1" stroke-width="3.2"/>
<circle clip-path="url(#clip872)" cx="1362.11" cy="1223.81" r="14" fill="#009af9" fill-rule="evenodd" fill-opacity="1" stroke="#000000" stroke-opacity="1" stroke-width="3.2"/>
<circle clip-path="url(#clip872)" cx="1413.79" cy="872.945" r="14" fill="#009af9" fill-rule="evenodd" fill-opacity="1" stroke="#000000" stroke-opacity="1" stroke-width="3.2"/>
<circle clip-path="url(#clip872)" cx="1465.46" cy="1215.8" r="14" fill="#009af9" fill-rule="evenodd" fill-opacity="1" stroke="#000000" stroke-opacity="1" stroke-width="3.2"/>
<circle clip-path="url(#clip872)" cx="1517.14" cy="808.634" r="14" fill="#009af9" fill-rule="evenodd" fill-opacity="1" stroke="#000000" stroke-opacity="1" stroke-width="3.2"/>
<circle clip-path="url(#clip872)" cx="1568.82" cy="1212.36" r="14" fill="#009af9" fill-rule="evenodd" fill-opacity="1" stroke="#000000" stroke-opacity="1" stroke-width="3.2"/>
<circle clip-path="url(#clip872)" cx="1620.5" cy="739.381" r="14" fill="#009af9" fill-rule="evenodd" fill-opacity="1" stroke="#000000" stroke-opacity="1" stroke-width="3.2"/>
<circle clip-path="url(#clip872)" cx="1672.17" cy="1214.27" r="14" fill="#009af9" fill-rule="evenodd" fill-opacity="1" stroke="#000000" stroke-opacity="1" stroke-width="3.2"/>
<circle clip-path="url(#clip872)" cx="1723.85" cy="664.354" r="14" fill="#009af9" fill-rule="evenodd" fill-opacity="1" stroke="#000000" stroke-opacity="1" stroke-width="3.2"/>
<circle clip-path="url(#clip872)" cx="1775.53" cy="1222.42" r="14" fill="#009af9" fill-rule="evenodd" fill-opacity="1" stroke="#000000" stroke-opacity="1" stroke-width="3.2"/>
<circle clip-path="url(#clip872)" cx="1827.2" cy="582.575" r="14" fill="#009af9" fill-rule="evenodd" fill-opacity="1" stroke="#000000" stroke-opacity="1" stroke-width="3.2"/>
<circle clip-path="url(#clip872)" cx="1878.88" cy="1237.87" r="14" fill="#009af9" fill-rule="evenodd" fill-opacity="1" stroke="#000000" stroke-opacity="1" stroke-width="3.2"/>
<circle clip-path="url(#clip872)" cx="1930.56" cy="492.904" r="14" fill="#009af9" fill-rule="evenodd" fill-opacity="1" stroke="#000000" stroke-opacity="1" stroke-width="3.2"/>
<circle clip-path="url(#clip872)" cx="1982.23" cy="1261.86" r="14" fill="#009af9" fill-rule="evenodd" fill-opacity="1" stroke="#000000" stroke-opacity="1" stroke-width="3.2"/>
<circle clip-path="url(#clip872)" cx="2033.91" cy="394.008" r="14" fill="#009af9" fill-rule="evenodd" fill-opacity="1" stroke="#000000" stroke-opacity="1" stroke-width="3.2"/>
<circle clip-path="url(#clip872)" cx="2085.59" cy="1295.81" r="14" fill="#009af9" fill-rule="evenodd" fill-opacity="1" stroke="#000000" stroke-opacity="1" stroke-width="3.2"/>
<circle clip-path="url(#clip872)" cx="2137.26" cy="284.33" r="14" fill="#009af9" fill-rule="evenodd" fill-opacity="1" stroke="#000000" stroke-opacity="1" stroke-width="3.2"/>
<circle clip-path="url(#clip872)" cx="2188.94" cy="1341.43" r="14" fill="#009af9" fill-rule="evenodd" fill-opacity="1" stroke="#000000" stroke-opacity="1" stroke-width="3.2"/>
<circle clip-path="url(#clip872)" cx="2240.62" cy="162.047" r="14" fill="#009af9" fill-rule="evenodd" fill-opacity="1" stroke="#000000" stroke-opacity="1" stroke-width="3.2"/>
<circle clip-path="url(#clip872)" cx="2292.29" cy="1400.67" r="14" fill="#009af9" fill-rule="evenodd" fill-opacity="1" stroke="#000000" stroke-opacity="1" stroke-width="3.2"/>
</svg>
