<?xml version="1.0" encoding="utf-8"?>
<svg xmlns="http://www.w3.org/2000/svg" xmlns:xlink="http://www.w3.org/1999/xlink" width="600" height="400" viewBox="0 0 2400 1600">
<defs>
  <clipPath id="clip420">
    <rect x="0" y="0" width="2400" height="1600"/>
  </clipPath>
</defs>
<path clip-path="url(#clip420)" d="
M0 1600 L2400 1600 L2400 0 L0 0  Z
  " fill="#ffffff" fill-rule="evenodd" fill-opacity="1"/>
<defs>
  <clipPath id="clip421">
    <rect x="480" y="0" width="1681" height="1600"/>
  </clipPath>
</defs>
<path clip-path="url(#clip420)" d="
M188.292 1474.16 L2352.76 1474.16 L2352.76 47.2441 L188.292 47.2441  Z
  " fill="#ffffff" fill-rule="evenodd" fill-opacity="1"/>
<defs>
  <clipPath id="clip422">
    <rect x="188" y="47" width="2165" height="1428"/>
  </clipPath>
</defs>
<polyline clip-path="url(#clip422)" style="stroke:#000000; stroke-linecap:butt; stroke-linejoin:round; stroke-width:2; stroke-opacity:0.1; fill:none" points="
  249.551,1474.16 249.551,47.2441 
  "/>
<polyline clip-path="url(#clip422)" style="stroke:#000000; stroke-linecap:butt; stroke-linejoin:round; stroke-width:2; stroke-opacity:0.1; fill:none" points="
  1819.04,1474.16 1819.04,47.2441 
  "/>
<polyline clip-path="url(#clip420)" style="stroke:#000000; stroke-linecap:butt; stroke-linejoin:round; stroke-width:4; stroke-opacity:1; fill:none" points="
  188.292,1474.16 2352.76,1474.16 
  "/>
<polyline clip-path="url(#clip420)" style="stroke:#000000; stroke-linecap:butt; stroke-linejoin:round; stroke-width:4; stroke-opacity:1; fill:none" points="
  249.551,1474.16 249.551,1455.27 
  "/>
<polyline clip-path="url(#clip420)" style="stroke:#000000; stroke-linecap:butt; stroke-linejoin:round; stroke-width:4; stroke-opacity:1; fill:none" points="
  1819.04,1474.16 1819.04,1455.27 
  "/>
<path clip-path="url(#clip420)" d="M199.816 1552.44 L207.455 1552.44 L207.455 1526.07 L199.145 1527.74 L199.145 1523.48 L207.409 1521.81 L212.085 1521.81 L212.085 1552.44 L219.724 1552.44 L219.724 1556.37 L199.816 1556.37 L199.816 1552.44 Z" fill="#000000" fill-rule="evenodd" fill-opacity="1" /><path clip-path="url(#clip420)" d="M239.168 1524.89 Q235.557 1524.89 233.728 1528.46 Q231.923 1532 231.923 1539.13 Q231.923 1546.23 233.728 1549.8 Q235.557 1553.34 239.168 1553.34 Q242.802 1553.34 244.608 1549.8 Q246.436 1546.23 246.436 1539.13 Q246.436 1532 244.608 1528.46 Q242.802 1524.89 239.168 1524.89 M239.168 1521.19 Q244.978 1521.19 248.034 1525.79 Q251.112 1530.38 251.112 1539.13 Q251.112 1547.85 248.034 1552.46 Q244.978 1557.04 239.168 1557.04 Q233.358 1557.04 230.279 1552.46 Q227.224 1547.85 227.224 1539.13 Q227.224 1530.38 230.279 1525.79 Q233.358 1521.19 239.168 1521.19 Z" fill="#000000" fill-rule="evenodd" fill-opacity="1" /><path clip-path="url(#clip420)" d="M251.112 1515.29 L275.224 1515.29 L275.224 1518.49 L251.112 1518.49 L251.112 1515.29 Z" fill="#000000" fill-rule="evenodd" fill-opacity="1" /><path clip-path="url(#clip420)" d="M286.697 1525.76 L299.956 1525.76 L299.956 1528.96 L282.126 1528.96 L282.126 1525.76 Q284.289 1523.53 288.013 1519.76 Q291.756 1515.98 292.715 1514.89 Q294.54 1512.84 295.254 1511.43 Q295.988 1510 295.988 1508.63 Q295.988 1506.39 294.408 1504.98 Q292.847 1503.57 290.327 1503.57 Q288.54 1503.57 286.546 1504.19 Q284.571 1504.81 282.314 1506.07 L282.314 1502.24 Q284.609 1501.31 286.603 1500.84 Q288.596 1500.37 290.251 1500.37 Q294.615 1500.37 297.21 1502.56 Q299.806 1504.74 299.806 1508.39 Q299.806 1510.12 299.147 1511.68 Q298.508 1513.22 296.796 1515.33 Q296.326 1515.87 293.806 1518.49 Q291.286 1521.08 286.697 1525.76 Z" fill="#000000" fill-rule="evenodd" fill-opacity="1" /><path clip-path="url(#clip420)" d="M1769.15 1552.44 L1776.79 1552.44 L1776.79 1526.07 L1768.48 1527.74 L1768.48 1523.48 L1776.74 1521.81 L1781.42 1521.81 L1781.42 1552.44 L1789.06 1552.44 L1789.06 1556.37 L1769.15 1556.37 L1769.15 1552.44 Z" fill="#000000" fill-rule="evenodd" fill-opacity="1" /><path clip-path="url(#clip420)" d="M1808.5 1524.89 Q1804.89 1524.89 1803.06 1528.46 Q1801.26 1532 1801.26 1539.13 Q1801.26 1546.23 1803.06 1549.8 Q1804.89 1553.34 1808.5 1553.34 Q1812.14 1553.34 1813.94 1549.8 Q1815.77 1546.23 1815.77 1539.13 Q1815.77 1532 1813.94 1528.46 Q1812.14 1524.89 1808.5 1524.89 M1808.5 1521.19 Q1814.31 1521.19 1817.37 1525.79 Q1820.45 1530.38 1820.45 1539.13 Q1820.45 1547.85 1817.37 1552.46 Q1814.31 1557.04 1808.5 1557.04 Q1802.69 1557.04 1799.61 1552.46 Q1796.56 1547.85 1796.56 1539.13 Q1796.56 1530.38 1799.61 1525.79 Q1802.69 1521.19 1808.5 1521.19 Z" fill="#000000" fill-rule="evenodd" fill-opacity="1" /><path clip-path="url(#clip420)" d="M1820.45 1515.29 L1844.56 1515.29 L1844.56 1518.49 L1820.45 1518.49 L1820.45 1515.29 Z" fill="#000000" fill-rule="evenodd" fill-opacity="1" /><path clip-path="url(#clip420)" d="M1853.42 1525.76 L1859.62 1525.76 L1859.62 1504.34 L1852.87 1505.7 L1852.87 1502.24 L1859.59 1500.88 L1863.38 1500.88 L1863.38 1525.76 L1869.59 1525.76 L1869.59 1528.96 L1853.42 1528.96 L1853.42 1525.76 Z" fill="#000000" fill-rule="evenodd" fill-opacity="1" /><polyline clip-path="url(#clip422)" style="stroke:#000000; stroke-linecap:butt; stroke-linejoin:round; stroke-width:2; stroke-opacity:0.1; fill:none" points="
  188.292,944.096 2352.76,944.096 
  "/>
<polyline clip-path="url(#clip422)" style="stroke:#000000; stroke-linecap:butt; stroke-linejoin:round; stroke-width:2; stroke-opacity:0.1; fill:none" points="
  188.292,127.956 2352.76,127.956 
  "/>
<polyline clip-path="url(#clip420)" style="stroke:#000000; stroke-linecap:butt; stroke-linejoin:round; stroke-width:4; stroke-opacity:1; fill:none" points="
  188.292,1474.16 188.292,47.2441 
  "/>
<polyline clip-path="url(#clip420)" style="stroke:#000000; stroke-linecap:butt; stroke-linejoin:round; stroke-width:4; stroke-opacity:1; fill:none" points="
  188.292,944.096 207.19,944.096 
  "/>
<polyline clip-path="url(#clip420)" style="stroke:#000000; stroke-linecap:butt; stroke-linejoin:round; stroke-width:4; stroke-opacity:1; fill:none" points="
  188.292,127.956 207.19,127.956 
  "/>
<path clip-path="url(#clip420)" d="M51.6634 963.888 L59.3023 963.888 L59.3023 937.523 L50.9921 939.189 L50.9921 934.93 L59.256 933.264 L63.9319 933.264 L63.9319 963.888 L71.5707 963.888 L71.5707 967.824 L51.6634 967.824 L51.6634 963.888 Z" fill="#000000" fill-rule="evenodd" fill-opacity="1" /><path clip-path="url(#clip420)" d="M91.0151 936.342 Q87.404 936.342 85.5753 939.907 Q83.7697 943.449 83.7697 950.578 Q83.7697 957.685 85.5753 961.25 Q87.404 964.791 91.0151 964.791 Q94.6493 964.791 96.4548 961.25 Q98.2835 957.685 98.2835 950.578 Q98.2835 943.449 96.4548 939.907 Q94.6493 936.342 91.0151 936.342 M91.0151 932.639 Q96.8252 932.639 99.8808 937.245 Q102.959 941.828 102.959 950.578 Q102.959 959.305 99.8808 963.912 Q96.8252 968.495 91.0151 968.495 Q85.2049 968.495 82.1262 963.912 Q79.0707 959.305 79.0707 950.578 Q79.0707 941.828 82.1262 937.245 Q85.2049 932.639 91.0151 932.639 Z" fill="#000000" fill-rule="evenodd" fill-opacity="1" /><path clip-path="url(#clip420)" d="M102.959 926.74 L127.071 926.74 L127.071 929.937 L102.959 929.937 L102.959 926.74 Z" fill="#000000" fill-rule="evenodd" fill-opacity="1" /><path clip-path="url(#clip420)" d="M135.309 912.333 L150.223 912.333 L150.223 915.531 L138.788 915.531 L138.788 922.414 Q139.616 922.132 140.443 922 Q141.271 921.85 142.098 921.85 Q146.8 921.85 149.546 924.427 Q152.292 927.003 152.292 931.404 Q152.292 935.937 149.471 938.457 Q146.65 940.959 141.515 940.959 Q139.747 940.959 137.904 940.658 Q136.08 940.357 134.124 939.755 L134.124 935.937 Q135.817 936.859 137.622 937.31 Q139.428 937.761 141.44 937.761 Q144.694 937.761 146.593 936.05 Q148.493 934.338 148.493 931.404 Q148.493 928.47 146.593 926.759 Q144.694 925.047 141.44 925.047 Q139.917 925.047 138.393 925.386 Q136.889 925.724 135.309 926.439 L135.309 912.333 Z" fill="#000000" fill-rule="evenodd" fill-opacity="1" /><path clip-path="url(#clip420)" d="M81.5866 147.748 L89.2254 147.748 L89.2254 121.383 L80.9153 123.049 L80.9153 118.79 L89.1791 117.123 L93.855 117.123 L93.855 147.748 L101.494 147.748 L101.494 151.683 L81.5866 151.683 L81.5866 147.748 Z" fill="#000000" fill-rule="evenodd" fill-opacity="1" /><path clip-path="url(#clip420)" d="M120.938 120.202 Q117.327 120.202 115.498 123.767 Q113.693 127.308 113.693 134.438 Q113.693 141.545 115.498 145.109 Q117.327 148.651 120.938 148.651 Q124.572 148.651 126.378 145.109 Q128.207 141.545 128.207 134.438 Q128.207 127.308 126.378 123.767 Q124.572 120.202 120.938 120.202 M120.938 116.498 Q126.748 116.498 129.804 121.105 Q132.883 125.688 132.883 134.438 Q132.883 143.165 129.804 147.771 Q126.748 152.355 120.938 152.355 Q115.128 152.355 112.049 147.771 Q108.994 143.165 108.994 134.438 Q108.994 125.688 112.049 121.105 Q115.128 116.498 120.938 116.498 Z" fill="#000000" fill-rule="evenodd" fill-opacity="1" /><path clip-path="url(#clip420)" d="M142.587 98.6944 Q139.653 98.6944 138.168 101.591 Q136.701 104.468 136.701 110.261 Q136.701 116.035 138.168 118.932 Q139.653 121.809 142.587 121.809 Q145.54 121.809 147.007 118.932 Q148.493 116.035 148.493 110.261 Q148.493 104.468 147.007 101.591 Q145.54 98.6944 142.587 98.6944 M142.587 95.6851 Q147.308 95.6851 149.791 99.4279 Q152.292 103.152 152.292 110.261 Q152.292 117.352 149.791 121.094 Q147.308 124.818 142.587 124.818 Q137.867 124.818 135.365 121.094 Q132.883 117.352 132.883 110.261 Q132.883 103.152 135.365 99.4279 Q137.867 95.6851 142.587 95.6851 Z" fill="#000000" fill-rule="evenodd" fill-opacity="1" /><polyline clip-path="url(#clip422)" style="stroke:#009af9; stroke-linecap:butt; stroke-linejoin:round; stroke-width:4; stroke-opacity:1; fill:none" points="
  2291.5,87.6286 2167.22,127.421 1971.13,170.673 1819.04,271.655 1542.66,522.056 1070.2,719.724 249.551,1049.38 
  "/>
<circle clip-path="url(#clip422)" cx="2291.5" cy="87.6286" r="14" fill="#009af9" fill-rule="evenodd" fill-opacity="1" stroke="#000000" stroke-opacity="1" stroke-width="3.2"/>
<circle clip-path="url(#clip422)" cx="2167.22" cy="127.421" r="14" fill="#009af9" fill-rule="evenodd" fill-opacity="1" stroke="#000000" stroke-opacity="1" stroke-width="3.2"/>
<circle clip-path="url(#clip422)" cx="1971.13" cy="170.673" r="14" fill="#009af9" fill-rule="evenodd" fill-opacity="1" stroke="#000000" stroke-opacity="1" stroke-width="3.2"/>
<circle clip-path="url(#clip422)" cx="1819.04" cy="271.655" r="14" fill="#009af9" fill-rule="evenodd" fill-opacity="1" stroke="#000000" stroke-opacity="1" stroke-width="3.2"/>
<circle clip-path="url(#clip422)" cx="1542.66" cy="522.056" r="14" fill="#009af9" fill-rule="evenodd" fill-opacity="1" stroke="#000000" stroke-opacity="1" stroke-width="3.2"/>
<circle clip-path="url(#clip422)" cx="1070.2" cy="719.724" r="14" fill="#009af9" fill-rule="evenodd" fill-opacity="1" stroke="#000000" stroke-opacity="1" stroke-width="3.2"/>
<circle clip-path="url(#clip422)" cx="249.551" cy="1049.38" r="14" fill="#009af9" fill-rule="evenodd" fill-opacity="1" stroke="#000000" stroke-opacity="1" stroke-width="3.2"/>
<polyline clip-path="url(#clip422)" style="stroke:#e26f46; stroke-linecap:butt; stroke-linejoin:round; stroke-width:4; stroke-opacity:1; fill:none" points="
  2291.5,134.381 2167.22,168.955 1971.13,228.279 1819.04,271.316 1542.66,343.964 1070.2,457.018 249.551,637.72 
  "/>
<path clip-path="url(#clip422)" d="M2275.5 118.381 L2275.5 150.381 L2307.5 150.381 L2307.5 118.381 L2275.5 118.381 Z" fill="#e26f46" fill-rule="evenodd" fill-opacity="1" stroke="#000000" stroke-opacity="1" stroke-width="3.2"/>
<path clip-path="url(#clip422)" d="M2151.22 152.955 L2151.22 184.955 L2183.22 184.955 L2183.22 152.955 L2151.22 152.955 Z" fill="#e26f46" fill-rule="evenodd" fill-opacity="1" stroke="#000000" stroke-opacity="1" stroke-width="3.2"/>
<path clip-path="url(#clip422)" d="M1955.13 212.279 L1955.13 244.279 L1987.13 244.279 L1987.13 212.279 L1955.13 212.279 Z" fill="#e26f46" fill-rule="evenodd" fill-opacity="1" stroke="#000000" stroke-opacity="1" stroke-width="3.2"/>
<path clip-path="url(#clip422)" d="M1803.04 255.316 L1803.04 287.316 L1835.04 287.316 L1835.04 255.316 L1803.04 255.316 Z" fill="#e26f46" fill-rule="evenodd" fill-opacity="1" stroke="#000000" stroke-opacity="1" stroke-width="3.2"/>
<path clip-path="url(#clip422)" d="M1526.66 327.964 L1526.66 359.964 L1558.66 359.964 L1558.66 327.964 L1526.66 327.964 Z" fill="#e26f46" fill-rule="evenodd" fill-opacity="1" stroke="#000000" stroke-opacity="1" stroke-width="3.2"/>
<path clip-path="url(#clip422)" d="M1054.2 441.018 L1054.2 473.018 L1086.2 473.018 L1086.2 441.018 L1054.2 441.018 Z" fill="#e26f46" fill-rule="evenodd" fill-opacity="1" stroke="#000000" stroke-opacity="1" stroke-width="3.2"/>
<path clip-path="url(#clip422)" d="M233.551 621.72 L233.551 653.72 L265.551 653.72 L265.551 621.72 L233.551 621.72 Z" fill="#e26f46" fill-rule="evenodd" fill-opacity="1" stroke="#000000" stroke-opacity="1" stroke-width="3.2"/>
<polyline clip-path="url(#clip422)" style="stroke:#3da44d; stroke-linecap:butt; stroke-linejoin:round; stroke-width:4; stroke-opacity:1; fill:none" points="
  249.551,780.868 269.492,776.72 453.878,738.367 564.686,715.319 658.373,695.832 760.143,674.664 853.967,655.148 954.555,634.226 1071.1,609.985 1174.67,588.442 
  1265.49,569.551 1364.5,548.955 1464.11,528.237 1574.24,505.33 1679.02,483.535 1787.97,460.873 1879.69,441.796 1991.66,418.506 2096.92,396.612 2265.55,361.537 
  2291.5,356.139 
  "/>
<polyline clip-path="url(#clip422)" style="stroke:#c271d2; stroke-linecap:butt; stroke-linejoin:round; stroke-width:4; stroke-opacity:1; fill:none" points="
  249.551,1433.78 269.492,1425.48 453.878,1348.78 564.686,1302.68 658.373,1263.71 760.143,1221.37 853.967,1182.34 954.555,1140.5 1071.1,1092.01 1174.67,1048.93 
  1265.49,1011.15 1364.5,969.955 1464.11,928.518 1574.24,882.705 1679.02,839.114 1787.97,793.79 1879.69,755.637 1991.66,709.056 2096.92,665.268 2265.55,595.118 
  2291.5,584.322 
  "/>
<path clip-path="url(#clip420)" d="
M260.441 354.008 L555.08 354.008 L555.08 94.8081 L260.441 94.8081  Z
  " fill="#ffffff" fill-rule="evenodd" fill-opacity="1"/>
<polyline clip-path="url(#clip420)" style="stroke:#000000; stroke-linecap:butt; stroke-linejoin:round; stroke-width:4; stroke-opacity:1; fill:none" points="
  260.441,354.008 555.08,354.008 555.08,94.8081 260.441,94.8081 260.441,354.008 
  "/>
<polyline clip-path="url(#clip420)" style="stroke:#009af9; stroke-linecap:butt; stroke-linejoin:round; stroke-width:4; stroke-opacity:1; fill:none" points="
  284.491,146.648 428.788,146.648 
  "/>
<circle clip-path="url(#clip420)" cx="356.639" cy="146.648" r="23" fill="#009af9" fill-rule="evenodd" fill-opacity="1" stroke="#000000" stroke-opacity="1" stroke-width="5.12"/>
<path clip-path="url(#clip420)" d="M466.68 166.336 Q464.875 170.965 463.162 172.377 Q461.449 173.789 458.578 173.789 L455.176 173.789 L455.176 170.224 L457.676 170.224 Q459.435 170.224 460.407 169.391 Q461.379 168.558 462.56 165.456 L463.324 163.511 L452.838 138.002 L457.352 138.002 L465.453 158.28 L473.555 138.002 L478.069 138.002 L466.68 166.336 Z" fill="#000000" fill-rule="evenodd" fill-opacity="1" /><path clip-path="url(#clip420)" d="M485.361 159.993 L493 159.993 L493 133.627 L484.689 135.294 L484.689 131.035 L492.953 129.368 L497.629 129.368 L497.629 159.993 L505.268 159.993 L505.268 163.928 L485.361 163.928 L485.361 159.993 Z" fill="#000000" fill-rule="evenodd" fill-opacity="1" /><polyline clip-path="url(#clip420)" style="stroke:#e26f46; stroke-linecap:butt; stroke-linejoin:round; stroke-width:4; stroke-opacity:1; fill:none" points="
  284.491,198.488 428.788,198.488 
  "/>
<path clip-path="url(#clip420)" d="M331.039 172.888 L331.039 224.088 L382.239 224.088 L382.239 172.888 L331.039 172.888 Z" fill="#e26f46" fill-rule="evenodd" fill-opacity="1" stroke="#000000" stroke-opacity="1" stroke-width="5.12"/>
<path clip-path="url(#clip420)" d="M466.68 218.176 Q464.875 222.805 463.162 224.217 Q461.449 225.629 458.578 225.629 L455.176 225.629 L455.176 222.064 L457.676 222.064 Q459.435 222.064 460.407 221.231 Q461.379 220.398 462.56 217.296 L463.324 215.351 L452.838 189.842 L457.352 189.842 L465.453 210.12 L473.555 189.842 L478.069 189.842 L466.68 218.176 Z" fill="#000000" fill-rule="evenodd" fill-opacity="1" /><path clip-path="url(#clip420)" d="M488.578 211.833 L504.898 211.833 L504.898 215.768 L482.953 215.768 L482.953 211.833 Q485.615 209.078 490.199 204.449 Q494.805 199.796 495.986 198.453 Q498.231 195.93 499.111 194.194 Q500.013 192.435 500.013 190.745 Q500.013 187.99 498.069 186.254 Q496.148 184.518 493.046 184.518 Q490.847 184.518 488.393 185.282 Q485.963 186.046 483.185 187.597 L483.185 182.875 Q486.009 181.741 488.463 181.162 Q490.916 180.583 492.953 180.583 Q498.324 180.583 501.518 183.268 Q504.713 185.953 504.713 190.444 Q504.713 192.574 503.902 194.495 Q503.115 196.393 501.009 198.986 Q500.43 199.657 497.328 202.875 Q494.226 206.069 488.578 211.833 Z" fill="#000000" fill-rule="evenodd" fill-opacity="1" /><polyline clip-path="url(#clip420)" style="stroke:#3da44d; stroke-linecap:butt; stroke-linejoin:round; stroke-width:4; stroke-opacity:1; fill:none" points="
  284.491,250.328 428.788,250.328 
  "/>
<path clip-path="url(#clip420)" d="M466.68 270.016 Q464.875 274.645 463.162 276.057 Q461.449 277.469 458.578 277.469 L455.176 277.469 L455.176 273.904 L457.676 273.904 Q459.435 273.904 460.407 273.071 Q461.379 272.238 462.56 269.136 L463.324 267.191 L452.838 241.682 L457.352 241.682 L465.453 261.96 L473.555 241.682 L478.069 241.682 L466.68 270.016 Z" fill="#000000" fill-rule="evenodd" fill-opacity="1" /><path clip-path="url(#clip420)" d="M498.717 248.974 Q502.074 249.692 503.949 251.96 Q505.847 254.229 505.847 257.562 Q505.847 262.678 502.328 265.478 Q498.81 268.279 492.328 268.279 Q490.152 268.279 487.838 267.84 Q485.546 267.423 483.092 266.566 L483.092 262.053 Q485.037 263.187 487.351 263.766 Q489.666 264.344 492.189 264.344 Q496.588 264.344 498.879 262.608 Q501.194 260.872 501.194 257.562 Q501.194 254.506 499.041 252.793 Q496.912 251.057 493.092 251.057 L489.064 251.057 L489.064 247.215 L493.277 247.215 Q496.726 247.215 498.555 245.849 Q500.384 244.46 500.384 241.868 Q500.384 239.205 498.486 237.793 Q496.611 236.358 493.092 236.358 Q491.171 236.358 488.972 236.775 Q486.773 237.192 484.134 238.071 L484.134 233.905 Q486.796 233.164 489.111 232.793 Q491.449 232.423 493.509 232.423 Q498.833 232.423 501.935 234.854 Q505.037 237.261 505.037 241.381 Q505.037 244.252 503.393 246.242 Q501.75 248.21 498.717 248.974 Z" fill="#000000" fill-rule="evenodd" fill-opacity="1" /><polyline clip-path="url(#clip420)" style="stroke:#c271d2; stroke-linecap:butt; stroke-linejoin:round; stroke-width:4; stroke-opacity:1; fill:none" points="
  284.491,302.168 428.788,302.168 
  "/>
<path clip-path="url(#clip420)" d="M466.68 321.856 Q464.875 326.485 463.162 327.897 Q461.449 329.309 458.578 329.309 L455.176 329.309 L455.176 325.744 L457.676 325.744 Q459.435 325.744 460.407 324.911 Q461.379 324.078 462.56 320.976 L463.324 319.031 L452.838 293.522 L457.352 293.522 L465.453 313.8 L473.555 293.522 L478.069 293.522 L466.68 321.856 Z" fill="#000000" fill-rule="evenodd" fill-opacity="1" /><path clip-path="url(#clip420)" d="M497.398 288.962 L485.592 307.411 L497.398 307.411 L497.398 288.962 M496.171 284.888 L502.05 284.888 L502.05 307.411 L506.981 307.411 L506.981 311.3 L502.05 311.3 L502.05 319.448 L497.398 319.448 L497.398 311.3 L481.796 311.3 L481.796 306.786 L496.171 284.888 Z" fill="#000000" fill-rule="evenodd" fill-opacity="1" /></svg>
