<?xml version="1.0" encoding="utf-8"?>
<svg xmlns="http://www.w3.org/2000/svg" xmlns:xlink="http://www.w3.org/1999/xlink" width="600" height="400" viewBox="0 0 2400 1600">
<defs>
  <clipPath id="clip470">
    <rect x="0" y="0" width="2400" height="1600"/>
  </clipPath>
</defs>
<path clip-path="url(#clip470)" d="
M0 1600 L2400 1600 L2400 0 L0 0  Z
  " fill="#ffffff" fill-rule="evenodd" fill-opacity="1"/>
<defs>
  <clipPath id="clip471">
    <rect x="480" y="0" width="1681" height="1600"/>
  </clipPath>
</defs>
<path clip-path="url(#clip470)" d="
M369.025 1486.45 L2352.76 1486.45 L2352.76 47.2441 L369.025 47.2441  Z
  " fill="#ffffff" fill-rule="evenodd" fill-opacity="1"/>
<defs>
  <clipPath id="clip472">
    <rect x="369" y="47" width="1985" height="1440"/>
  </clipPath>
</defs>
<polyline clip-path="url(#clip472)" style="stroke:#000000; stroke-linecap:butt; stroke-linejoin:round; stroke-width:2; stroke-opacity:0.1; fill:none" points="
  720.659,1486.45 720.659,47.2441 
  "/>
<polyline clip-path="url(#clip472)" style="stroke:#000000; stroke-linecap:butt; stroke-linejoin:round; stroke-width:2; stroke-opacity:0.1; fill:none" points="
  1114.65,1486.45 1114.65,47.2441 
  "/>
<polyline clip-path="url(#clip472)" style="stroke:#000000; stroke-linecap:butt; stroke-linejoin:round; stroke-width:2; stroke-opacity:0.1; fill:none" points="
  1508.64,1486.45 1508.64,47.2441 
  "/>
<polyline clip-path="url(#clip472)" style="stroke:#000000; stroke-linecap:butt; stroke-linejoin:round; stroke-width:2; stroke-opacity:0.1; fill:none" points="
  1902.62,1486.45 1902.62,47.2441 
  "/>
<polyline clip-path="url(#clip472)" style="stroke:#000000; stroke-linecap:butt; stroke-linejoin:round; stroke-width:2; stroke-opacity:0.1; fill:none" points="
  2296.61,1486.45 2296.61,47.2441 
  "/>
<polyline clip-path="url(#clip470)" style="stroke:#000000; stroke-linecap:butt; stroke-linejoin:round; stroke-width:4; stroke-opacity:1; fill:none" points="
  369.025,1486.45 2352.76,1486.45 
  "/>
<polyline clip-path="url(#clip470)" style="stroke:#000000; stroke-linecap:butt; stroke-linejoin:round; stroke-width:4; stroke-opacity:1; fill:none" points="
  720.659,1486.45 720.659,1467.55 
  "/>
<polyline clip-path="url(#clip470)" style="stroke:#000000; stroke-linecap:butt; stroke-linejoin:round; stroke-width:4; stroke-opacity:1; fill:none" points="
  1114.65,1486.45 1114.65,1467.55 
  "/>
<polyline clip-path="url(#clip470)" style="stroke:#000000; stroke-linecap:butt; stroke-linejoin:round; stroke-width:4; stroke-opacity:1; fill:none" points="
  1508.64,1486.45 1508.64,1467.55 
  "/>
<polyline clip-path="url(#clip470)" style="stroke:#000000; stroke-linecap:butt; stroke-linejoin:round; stroke-width:4; stroke-opacity:1; fill:none" points="
  1902.62,1486.45 1902.62,1467.55 
  "/>
<polyline clip-path="url(#clip470)" style="stroke:#000000; stroke-linecap:butt; stroke-linejoin:round; stroke-width:4; stroke-opacity:1; fill:none" points="
  2296.61,1486.45 2296.61,1467.55 
  "/>
<path clip-path="url(#clip470)" d="M698.842 1515.64 Q695.231 1515.64 693.403 1519.2 Q691.597 1522.75 691.597 1529.87 Q691.597 1536.98 693.403 1540.55 Q695.231 1544.09 698.842 1544.09 Q702.477 1544.09 704.282 1540.55 Q706.111 1536.98 706.111 1529.87 Q706.111 1522.75 704.282 1519.2 Q702.477 1515.64 698.842 1515.64 M698.842 1511.93 Q704.652 1511.93 707.708 1516.54 Q710.787 1521.12 710.787 1529.87 Q710.787 1538.6 707.708 1543.21 Q704.652 1547.79 698.842 1547.79 Q693.032 1547.79 689.953 1543.21 Q686.898 1538.6 686.898 1529.87 Q686.898 1521.12 689.953 1516.54 Q693.032 1511.93 698.842 1511.93 Z" fill="#000000" fill-rule="evenodd" fill-opacity="1" /><path clip-path="url(#clip470)" d="M719.004 1541.24 L723.888 1541.24 L723.888 1547.12 L719.004 1547.12 L719.004 1541.24 Z" fill="#000000" fill-rule="evenodd" fill-opacity="1" /><path clip-path="url(#clip470)" d="M738.101 1543.18 L754.421 1543.18 L754.421 1547.12 L732.476 1547.12 L732.476 1543.18 Q735.138 1540.43 739.722 1535.8 Q744.328 1531.15 745.509 1529.81 Q747.754 1527.28 748.634 1525.55 Q749.536 1523.79 749.536 1522.1 Q749.536 1519.34 747.592 1517.61 Q745.671 1515.87 742.569 1515.87 Q740.37 1515.87 737.916 1516.63 Q735.486 1517.4 732.708 1518.95 L732.708 1514.23 Q735.532 1513.09 737.986 1512.51 Q740.439 1511.93 742.476 1511.93 Q747.847 1511.93 751.041 1514.62 Q754.236 1517.31 754.236 1521.8 Q754.236 1523.93 753.425 1525.85 Q752.638 1527.74 750.532 1530.34 Q749.953 1531.01 746.851 1534.23 Q743.749 1537.42 738.101 1543.18 Z" fill="#000000" fill-rule="evenodd" fill-opacity="1" /><path clip-path="url(#clip470)" d="M1091.79 1515.64 Q1088.18 1515.64 1086.35 1519.2 Q1084.54 1522.75 1084.54 1529.87 Q1084.54 1536.98 1086.35 1540.55 Q1088.18 1544.09 1091.79 1544.09 Q1095.42 1544.09 1097.23 1540.55 Q1099.06 1536.98 1099.06 1529.87 Q1099.06 1522.75 1097.23 1519.2 Q1095.42 1515.64 1091.79 1515.64 M1091.79 1511.93 Q1097.6 1511.93 1100.65 1516.54 Q1103.73 1521.12 1103.73 1529.87 Q1103.73 1538.6 1100.65 1543.21 Q1097.6 1547.79 1091.79 1547.79 Q1085.98 1547.79 1082.9 1543.21 Q1079.84 1538.6 1079.84 1529.87 Q1079.84 1521.12 1082.9 1516.54 Q1085.98 1511.93 1091.79 1511.93 Z" fill="#000000" fill-rule="evenodd" fill-opacity="1" /><path clip-path="url(#clip470)" d="M1111.95 1541.24 L1116.84 1541.24 L1116.84 1547.12 L1111.95 1547.12 L1111.95 1541.24 Z" fill="#000000" fill-rule="evenodd" fill-opacity="1" /><path clip-path="url(#clip470)" d="M1139.87 1516.63 L1128.06 1535.08 L1139.87 1535.08 L1139.87 1516.63 M1138.64 1512.56 L1144.52 1512.56 L1144.52 1535.08 L1149.45 1535.08 L1149.45 1538.97 L1144.52 1538.97 L1144.52 1547.12 L1139.87 1547.12 L1139.87 1538.97 L1124.27 1538.97 L1124.27 1534.46 L1138.64 1512.56 Z" fill="#000000" fill-rule="evenodd" fill-opacity="1" /><path clip-path="url(#clip470)" d="M1485.94 1515.64 Q1482.33 1515.64 1480.5 1519.2 Q1478.69 1522.75 1478.69 1529.87 Q1478.69 1536.98 1480.5 1540.55 Q1482.33 1544.09 1485.94 1544.09 Q1489.57 1544.09 1491.38 1540.55 Q1493.21 1536.98 1493.21 1529.87 Q1493.21 1522.75 1491.38 1519.2 Q1489.57 1515.64 1485.94 1515.64 M1485.94 1511.93 Q1491.75 1511.93 1494.81 1516.54 Q1497.88 1521.12 1497.88 1529.87 Q1497.88 1538.6 1494.81 1543.21 Q1491.75 1547.79 1485.94 1547.79 Q1480.13 1547.79 1477.05 1543.21 Q1473.99 1538.6 1473.99 1529.87 Q1473.99 1521.12 1477.05 1516.54 Q1480.13 1511.93 1485.94 1511.93 Z" fill="#000000" fill-rule="evenodd" fill-opacity="1" /><path clip-path="url(#clip470)" d="M1506.1 1541.24 L1510.99 1541.24 L1510.99 1547.12 L1506.1 1547.12 L1506.1 1541.24 Z" fill="#000000" fill-rule="evenodd" fill-opacity="1" /><path clip-path="url(#clip470)" d="M1531.75 1527.98 Q1528.6 1527.98 1526.75 1530.13 Q1524.92 1532.28 1524.92 1536.03 Q1524.92 1539.76 1526.75 1541.93 Q1528.6 1544.09 1531.75 1544.09 Q1534.9 1544.09 1536.73 1541.93 Q1538.58 1539.76 1538.58 1536.03 Q1538.58 1532.28 1536.73 1530.13 Q1534.9 1527.98 1531.75 1527.98 M1541.03 1513.32 L1541.03 1517.58 Q1539.27 1516.75 1537.47 1516.31 Q1535.68 1515.87 1533.93 1515.87 Q1529.3 1515.87 1526.84 1519 Q1524.41 1522.12 1524.06 1528.44 Q1525.43 1526.43 1527.49 1525.36 Q1529.55 1524.27 1532.03 1524.27 Q1537.24 1524.27 1540.24 1527.44 Q1543.28 1530.59 1543.28 1536.03 Q1543.28 1541.36 1540.13 1544.57 Q1536.98 1547.79 1531.75 1547.79 Q1525.75 1547.79 1522.58 1543.21 Q1519.41 1538.6 1519.41 1529.87 Q1519.41 1521.68 1523.3 1516.82 Q1527.19 1511.93 1533.74 1511.93 Q1535.5 1511.93 1537.28 1512.28 Q1539.09 1512.63 1541.03 1513.32 Z" fill="#000000" fill-rule="evenodd" fill-opacity="1" /><path clip-path="url(#clip470)" d="M1880.05 1515.64 Q1876.44 1515.64 1874.62 1519.2 Q1872.81 1522.75 1872.81 1529.87 Q1872.81 1536.98 1874.62 1540.55 Q1876.44 1544.09 1880.05 1544.09 Q1883.69 1544.09 1885.49 1540.55 Q1887.32 1536.98 1887.32 1529.87 Q1887.32 1522.75 1885.49 1519.2 Q1883.69 1515.64 1880.05 1515.64 M1880.05 1511.93 Q1885.87 1511.93 1888.92 1516.54 Q1892 1521.12 1892 1529.87 Q1892 1538.6 1888.92 1543.21 Q1885.87 1547.79 1880.05 1547.79 Q1874.24 1547.79 1871.17 1543.21 Q1868.11 1538.6 1868.11 1529.87 Q1868.11 1521.12 1871.17 1516.54 Q1874.24 1511.93 1880.05 1511.93 Z" fill="#000000" fill-rule="evenodd" fill-opacity="1" /><path clip-path="url(#clip470)" d="M1900.22 1541.24 L1905.1 1541.24 L1905.1 1547.12 L1900.22 1547.12 L1900.22 1541.24 Z" fill="#000000" fill-rule="evenodd" fill-opacity="1" /><path clip-path="url(#clip470)" d="M1925.29 1530.71 Q1921.95 1530.71 1920.03 1532.49 Q1918.13 1534.27 1918.13 1537.4 Q1918.13 1540.52 1920.03 1542.31 Q1921.95 1544.09 1925.29 1544.09 Q1928.62 1544.09 1930.54 1542.31 Q1932.46 1540.5 1932.46 1537.4 Q1932.46 1534.27 1930.54 1532.49 Q1928.64 1530.71 1925.29 1530.71 M1920.61 1528.72 Q1917.6 1527.98 1915.91 1525.92 Q1914.24 1523.86 1914.24 1520.89 Q1914.24 1516.75 1917.18 1514.34 Q1920.15 1511.93 1925.29 1511.93 Q1930.45 1511.93 1933.39 1514.34 Q1936.33 1516.75 1936.33 1520.89 Q1936.33 1523.86 1934.64 1525.92 Q1932.97 1527.98 1929.99 1528.72 Q1933.36 1529.5 1935.24 1531.8 Q1937.14 1534.09 1937.14 1537.4 Q1937.14 1542.42 1934.06 1545.11 Q1931 1547.79 1925.29 1547.79 Q1919.57 1547.79 1916.49 1545.11 Q1913.43 1542.42 1913.43 1537.4 Q1913.43 1534.09 1915.33 1531.8 Q1917.23 1529.5 1920.61 1528.72 M1918.9 1521.33 Q1918.9 1524.02 1920.56 1525.52 Q1922.25 1527.03 1925.29 1527.03 Q1928.3 1527.03 1929.99 1525.52 Q1931.7 1524.02 1931.7 1521.33 Q1931.7 1518.65 1929.99 1517.14 Q1928.3 1515.64 1925.29 1515.64 Q1922.25 1515.64 1920.56 1517.14 Q1918.9 1518.65 1918.9 1521.33 Z" fill="#000000" fill-rule="evenodd" fill-opacity="1" /><path clip-path="url(#clip470)" d="M2263.77 1543.18 L2271.4 1543.18 L2271.4 1516.82 L2263.09 1518.49 L2263.09 1514.23 L2271.36 1512.56 L2276.03 1512.56 L2276.03 1543.18 L2283.67 1543.18 L2283.67 1547.12 L2263.77 1547.12 L2263.77 1543.18 Z" fill="#000000" fill-rule="evenodd" fill-opacity="1" /><path clip-path="url(#clip470)" d="M2293.12 1541.24 L2298 1541.24 L2298 1547.12 L2293.12 1547.12 L2293.12 1541.24 Z" fill="#000000" fill-rule="evenodd" fill-opacity="1" /><path clip-path="url(#clip470)" d="M2318.19 1515.64 Q2314.58 1515.64 2312.75 1519.2 Q2310.94 1522.75 2310.94 1529.87 Q2310.94 1536.98 2312.75 1540.55 Q2314.58 1544.09 2318.19 1544.09 Q2321.82 1544.09 2323.63 1540.55 Q2325.46 1536.98 2325.46 1529.87 Q2325.46 1522.75 2323.63 1519.2 Q2321.82 1515.64 2318.19 1515.64 M2318.19 1511.93 Q2324 1511.93 2327.05 1516.54 Q2330.13 1521.12 2330.13 1529.87 Q2330.13 1538.6 2327.05 1543.21 Q2324 1547.79 2318.19 1547.79 Q2312.38 1547.79 2309.3 1543.21 Q2306.24 1538.6 2306.24 1529.87 Q2306.24 1521.12 2309.3 1516.54 Q2312.38 1511.93 2318.19 1511.93 Z" fill="#000000" fill-rule="evenodd" fill-opacity="1" /><polyline clip-path="url(#clip472)" style="stroke:#000000; stroke-linecap:butt; stroke-linejoin:round; stroke-width:2; stroke-opacity:0.1; fill:none" points="
  369.025,1403.8 2352.76,1403.8 
  "/>
<polyline clip-path="url(#clip472)" style="stroke:#000000; stroke-linecap:butt; stroke-linejoin:round; stroke-width:2; stroke-opacity:0.1; fill:none" points="
  369.025,1085.32 2352.76,1085.32 
  "/>
<polyline clip-path="url(#clip472)" style="stroke:#000000; stroke-linecap:butt; stroke-linejoin:round; stroke-width:2; stroke-opacity:0.1; fill:none" points="
  369.025,766.846 2352.76,766.846 
  "/>
<polyline clip-path="url(#clip472)" style="stroke:#000000; stroke-linecap:butt; stroke-linejoin:round; stroke-width:2; stroke-opacity:0.1; fill:none" points="
  369.025,448.371 2352.76,448.371 
  "/>
<polyline clip-path="url(#clip472)" style="stroke:#000000; stroke-linecap:butt; stroke-linejoin:round; stroke-width:2; stroke-opacity:0.1; fill:none" points="
  369.025,129.897 2352.76,129.897 
  "/>
<polyline clip-path="url(#clip470)" style="stroke:#000000; stroke-linecap:butt; stroke-linejoin:round; stroke-width:4; stroke-opacity:1; fill:none" points="
  369.025,1486.45 369.025,47.2441 
  "/>
<polyline clip-path="url(#clip470)" style="stroke:#000000; stroke-linecap:butt; stroke-linejoin:round; stroke-width:4; stroke-opacity:1; fill:none" points="
  369.025,1403.8 387.922,1403.8 
  "/>
<polyline clip-path="url(#clip470)" style="stroke:#000000; stroke-linecap:butt; stroke-linejoin:round; stroke-width:4; stroke-opacity:1; fill:none" points="
  369.025,1085.32 387.922,1085.32 
  "/>
<polyline clip-path="url(#clip470)" style="stroke:#000000; stroke-linecap:butt; stroke-linejoin:round; stroke-width:4; stroke-opacity:1; fill:none" points="
  369.025,766.846 387.922,766.846 
  "/>
<polyline clip-path="url(#clip470)" style="stroke:#000000; stroke-linecap:butt; stroke-linejoin:round; stroke-width:4; stroke-opacity:1; fill:none" points="
  369.025,448.371 387.922,448.371 
  "/>
<polyline clip-path="url(#clip470)" style="stroke:#000000; stroke-linecap:butt; stroke-linejoin:round; stroke-width:4; stroke-opacity:1; fill:none" points="
  369.025,129.897 387.922,129.897 
  "/>
<path clip-path="url(#clip470)" d="M50.9921 1410.69 L80.6679 1410.69 L80.6679 1414.63 L50.9921 1414.63 L50.9921 1410.69 Z" fill="#000000" fill-rule="evenodd" fill-opacity="1" /><path clip-path="url(#clip470)" d="M94.7882 1423.59 L111.108 1423.59 L111.108 1427.52 L89.1632 1427.52 L89.1632 1423.59 Q91.8252 1420.83 96.4085 1416.2 Q101.015 1411.55 102.196 1410.21 Q104.441 1407.69 105.321 1405.95 Q106.223 1404.19 106.223 1402.5 Q106.223 1399.75 104.279 1398.01 Q102.358 1396.27 99.2558 1396.27 Q97.0567 1396.27 94.603 1397.04 Q92.1725 1397.8 89.3947 1399.35 L89.3947 1394.63 Q92.2188 1393.5 94.6724 1392.92 Q97.1261 1392.34 99.1632 1392.34 Q104.534 1392.34 107.728 1395.02 Q110.922 1397.71 110.922 1402.2 Q110.922 1404.33 110.112 1406.25 Q109.325 1408.15 107.219 1410.74 Q106.64 1411.41 103.538 1414.63 Q100.436 1417.82 94.7882 1423.59 Z" fill="#000000" fill-rule="evenodd" fill-opacity="1" /><path clip-path="url(#clip470)" d="M120.922 1421.64 L125.807 1421.64 L125.807 1427.52 L120.922 1427.52 L120.922 1421.64 Z" fill="#000000" fill-rule="evenodd" fill-opacity="1" /><path clip-path="url(#clip470)" d="M145.992 1396.04 Q142.381 1396.04 140.552 1399.61 Q138.746 1403.15 138.746 1410.28 Q138.746 1417.38 140.552 1420.95 Q142.381 1424.49 145.992 1424.49 Q149.626 1424.49 151.431 1420.95 Q153.26 1417.38 153.26 1410.28 Q153.26 1403.15 151.431 1399.61 Q149.626 1396.04 145.992 1396.04 M145.992 1392.34 Q151.802 1392.34 154.857 1396.94 Q157.936 1401.53 157.936 1410.28 Q157.936 1419 154.857 1423.61 Q151.802 1428.19 145.992 1428.19 Q140.181 1428.19 137.103 1423.61 Q134.047 1419 134.047 1410.28 Q134.047 1401.53 137.103 1396.94 Q140.181 1392.34 145.992 1392.34 Z" fill="#000000" fill-rule="evenodd" fill-opacity="1" /><path clip-path="url(#clip470)" d="M194.325 1402.06 L183.746 1412.69 L194.325 1423.26 L191.57 1426.06 L180.945 1415.44 L170.32 1426.06 L167.589 1423.26 L178.144 1412.69 L167.589 1402.06 L170.32 1399.26 L180.945 1409.88 L191.57 1399.26 L194.325 1402.06 Z" fill="#000000" fill-rule="evenodd" fill-opacity="1" /><path clip-path="url(#clip470)" d="M206.686 1423.59 L214.325 1423.59 L214.325 1397.22 L206.014 1398.89 L206.014 1394.63 L214.278 1392.96 L218.954 1392.96 L218.954 1423.59 L226.593 1423.59 L226.593 1427.52 L206.686 1427.52 L206.686 1423.59 Z" fill="#000000" fill-rule="evenodd" fill-opacity="1" /><path clip-path="url(#clip470)" d="M246.037 1396.04 Q242.426 1396.04 240.598 1399.61 Q238.792 1403.15 238.792 1410.28 Q238.792 1417.38 240.598 1420.95 Q242.426 1424.49 246.037 1424.49 Q249.672 1424.49 251.477 1420.95 Q253.306 1417.38 253.306 1410.28 Q253.306 1403.15 251.477 1399.61 Q249.672 1396.04 246.037 1396.04 M246.037 1392.34 Q251.848 1392.34 254.903 1396.94 Q257.982 1401.53 257.982 1410.28 Q257.982 1419 254.903 1423.61 Q251.848 1428.19 246.037 1428.19 Q240.227 1428.19 237.149 1423.61 Q234.093 1419 234.093 1410.28 Q234.093 1401.53 237.149 1396.94 Q240.227 1392.34 246.037 1392.34 Z" fill="#000000" fill-rule="evenodd" fill-opacity="1" /><path clip-path="url(#clip470)" d="M257.982 1386.44 L282.093 1386.44 L282.093 1389.64 L257.982 1389.64 L257.982 1386.44 Z" fill="#000000" fill-rule="evenodd" fill-opacity="1" /><path clip-path="url(#clip470)" d="M290.952 1396.92 L297.158 1396.92 L297.158 1375.49 L290.406 1376.85 L290.406 1373.39 L297.121 1372.03 L300.92 1372.03 L300.92 1396.92 L307.126 1396.92 L307.126 1400.11 L290.952 1400.11 L290.952 1396.92 Z" fill="#000000" fill-rule="evenodd" fill-opacity="1" /><path clip-path="url(#clip470)" d="M325.238 1375.34 L315.646 1390.33 L325.238 1390.33 L325.238 1375.34 M324.242 1372.03 L329.019 1372.03 L329.019 1390.33 L333.025 1390.33 L333.025 1393.49 L329.019 1393.49 L329.019 1400.11 L325.238 1400.11 L325.238 1393.49 L312.562 1393.49 L312.562 1389.82 L324.242 1372.03 Z" fill="#000000" fill-rule="evenodd" fill-opacity="1" /><path clip-path="url(#clip470)" d="M50.9921 1092.22 L80.6679 1092.22 L80.6679 1096.15 L50.9921 1096.15 L50.9921 1092.22 Z" fill="#000000" fill-rule="evenodd" fill-opacity="1" /><path clip-path="url(#clip470)" d="M91.5706 1105.11 L99.2095 1105.11 L99.2095 1078.75 L90.8993 1080.41 L90.8993 1076.15 L99.1632 1074.49 L103.839 1074.49 L103.839 1105.11 L111.478 1105.11 L111.478 1109.05 L91.5706 1109.05 L91.5706 1105.11 Z" fill="#000000" fill-rule="evenodd" fill-opacity="1" /><path clip-path="url(#clip470)" d="M120.922 1103.17 L125.807 1103.17 L125.807 1109.05 L120.922 1109.05 L120.922 1103.17 Z" fill="#000000" fill-rule="evenodd" fill-opacity="1" /><path clip-path="url(#clip470)" d="M145.992 1077.57 Q142.381 1077.57 140.552 1081.13 Q138.746 1084.67 138.746 1091.8 Q138.746 1098.91 140.552 1102.47 Q142.381 1106.02 145.992 1106.02 Q149.626 1106.02 151.431 1102.47 Q153.26 1098.91 153.26 1091.8 Q153.26 1084.67 151.431 1081.13 Q149.626 1077.57 145.992 1077.57 M145.992 1073.86 Q151.802 1073.86 154.857 1078.47 Q157.936 1083.05 157.936 1091.8 Q157.936 1100.53 154.857 1105.14 Q151.802 1109.72 145.992 1109.72 Q140.181 1109.72 137.103 1105.14 Q134.047 1100.53 134.047 1091.8 Q134.047 1083.05 137.103 1078.47 Q140.181 1073.86 145.992 1073.86 Z" fill="#000000" fill-rule="evenodd" fill-opacity="1" /><path clip-path="url(#clip470)" d="M194.325 1083.59 L183.746 1094.21 L194.325 1104.79 L191.57 1107.59 L180.945 1096.97 L170.32 1107.59 L167.589 1104.79 L178.144 1094.21 L167.589 1083.59 L170.32 1080.78 L180.945 1091.41 L191.57 1080.78 L194.325 1083.59 Z" fill="#000000" fill-rule="evenodd" fill-opacity="1" /><path clip-path="url(#clip470)" d="M206.686 1105.11 L214.325 1105.11 L214.325 1078.75 L206.014 1080.41 L206.014 1076.15 L214.278 1074.49 L218.954 1074.49 L218.954 1105.11 L226.593 1105.11 L226.593 1109.05 L206.686 1109.05 L206.686 1105.11 Z" fill="#000000" fill-rule="evenodd" fill-opacity="1" /><path clip-path="url(#clip470)" d="M246.037 1077.57 Q242.426 1077.57 240.598 1081.13 Q238.792 1084.67 238.792 1091.8 Q238.792 1098.91 240.598 1102.47 Q242.426 1106.02 246.037 1106.02 Q249.672 1106.02 251.477 1102.47 Q253.306 1098.91 253.306 1091.8 Q253.306 1084.67 251.477 1081.13 Q249.672 1077.57 246.037 1077.57 M246.037 1073.86 Q251.848 1073.86 254.903 1078.47 Q257.982 1083.05 257.982 1091.8 Q257.982 1100.53 254.903 1105.14 Q251.848 1109.72 246.037 1109.72 Q240.227 1109.72 237.149 1105.14 Q234.093 1100.53 234.093 1091.8 Q234.093 1083.05 237.149 1078.47 Q240.227 1073.86 246.037 1073.86 Z" fill="#000000" fill-rule="evenodd" fill-opacity="1" /><path clip-path="url(#clip470)" d="M257.982 1067.96 L282.093 1067.96 L282.093 1071.16 L257.982 1071.16 L257.982 1067.96 Z" fill="#000000" fill-rule="evenodd" fill-opacity="1" /><path clip-path="url(#clip470)" d="M290.952 1078.44 L297.158 1078.44 L297.158 1057.02 L290.406 1058.37 L290.406 1054.91 L297.121 1053.56 L300.92 1053.56 L300.92 1078.44 L307.126 1078.44 L307.126 1081.64 L290.952 1081.64 L290.952 1078.44 Z" fill="#000000" fill-rule="evenodd" fill-opacity="1" /><path clip-path="url(#clip470)" d="M325.238 1056.87 L315.646 1071.86 L325.238 1071.86 L325.238 1056.87 M324.242 1053.56 L329.019 1053.56 L329.019 1071.86 L333.025 1071.86 L333.025 1075.02 L329.019 1075.02 L329.019 1081.64 L325.238 1081.64 L325.238 1075.02 L312.562 1075.02 L312.562 1071.35 L324.242 1053.56 Z" fill="#000000" fill-rule="evenodd" fill-opacity="1" /><path clip-path="url(#clip470)" d="M321.08 752.645 Q317.469 752.645 315.641 756.209 Q313.835 759.751 313.835 766.881 Q313.835 773.987 315.641 777.552 Q317.469 781.094 321.08 781.094 Q324.715 781.094 326.52 777.552 Q328.349 773.987 328.349 766.881 Q328.349 759.751 326.52 756.209 Q324.715 752.645 321.08 752.645 M321.08 748.941 Q326.891 748.941 329.946 753.547 Q333.025 758.131 333.025 766.881 Q333.025 775.608 329.946 780.214 Q326.891 784.797 321.08 784.797 Q315.27 784.797 312.192 780.214 Q309.136 775.608 309.136 766.881 Q309.136 758.131 312.192 753.547 Q315.27 748.941 321.08 748.941 Z" fill="#000000" fill-rule="evenodd" fill-opacity="1" /><path clip-path="url(#clip470)" d="M91.5706 468.164 L99.2095 468.164 L99.2095 441.798 L90.8993 443.465 L90.8993 439.206 L99.1632 437.539 L103.839 437.539 L103.839 468.164 L111.478 468.164 L111.478 472.099 L91.5706 472.099 L91.5706 468.164 Z" fill="#000000" fill-rule="evenodd" fill-opacity="1" /><path clip-path="url(#clip470)" d="M120.922 466.219 L125.807 466.219 L125.807 472.099 L120.922 472.099 L120.922 466.219 Z" fill="#000000" fill-rule="evenodd" fill-opacity="1" /><path clip-path="url(#clip470)" d="M145.992 440.618 Q142.381 440.618 140.552 444.182 Q138.746 447.724 138.746 454.854 Q138.746 461.96 140.552 465.525 Q142.381 469.066 145.992 469.066 Q149.626 469.066 151.431 465.525 Q153.26 461.96 153.26 454.854 Q153.26 447.724 151.431 444.182 Q149.626 440.618 145.992 440.618 M145.992 436.914 Q151.802 436.914 154.857 441.52 Q157.936 446.104 157.936 454.854 Q157.936 463.58 154.857 468.187 Q151.802 472.77 145.992 472.77 Q140.181 472.77 137.103 468.187 Q134.047 463.58 134.047 454.854 Q134.047 446.104 137.103 441.52 Q140.181 436.914 145.992 436.914 Z" fill="#000000" fill-rule="evenodd" fill-opacity="1" /><path clip-path="url(#clip470)" d="M194.325 446.636 L183.746 457.261 L194.325 467.84 L191.57 470.641 L180.945 460.016 L170.32 470.641 L167.589 467.84 L178.144 457.261 L167.589 446.636 L170.32 443.835 L180.945 454.46 L191.57 443.835 L194.325 446.636 Z" fill="#000000" fill-rule="evenodd" fill-opacity="1" /><path clip-path="url(#clip470)" d="M206.686 468.164 L214.325 468.164 L214.325 441.798 L206.014 443.465 L206.014 439.206 L214.278 437.539 L218.954 437.539 L218.954 468.164 L226.593 468.164 L226.593 472.099 L206.686 472.099 L206.686 468.164 Z" fill="#000000" fill-rule="evenodd" fill-opacity="1" /><path clip-path="url(#clip470)" d="M246.037 440.618 Q242.426 440.618 240.598 444.182 Q238.792 447.724 238.792 454.854 Q238.792 461.96 240.598 465.525 Q242.426 469.066 246.037 469.066 Q249.672 469.066 251.477 465.525 Q253.306 461.96 253.306 454.854 Q253.306 447.724 251.477 444.182 Q249.672 440.618 246.037 440.618 M246.037 436.914 Q251.848 436.914 254.903 441.52 Q257.982 446.104 257.982 454.854 Q257.982 463.58 254.903 468.187 Q251.848 472.77 246.037 472.77 Q240.227 472.77 237.149 468.187 Q234.093 463.58 234.093 454.854 Q234.093 446.104 237.149 441.52 Q240.227 436.914 246.037 436.914 Z" fill="#000000" fill-rule="evenodd" fill-opacity="1" /><path clip-path="url(#clip470)" d="M257.982 431.015 L282.093 431.015 L282.093 434.213 L257.982 434.213 L257.982 431.015 Z" fill="#000000" fill-rule="evenodd" fill-opacity="1" /><path clip-path="url(#clip470)" d="M290.952 441.491 L297.158 441.491 L297.158 420.069 L290.406 421.423 L290.406 417.963 L297.121 416.608 L300.92 416.608 L300.92 441.491 L307.126 441.491 L307.126 444.688 L290.952 444.688 L290.952 441.491 Z" fill="#000000" fill-rule="evenodd" fill-opacity="1" /><path clip-path="url(#clip470)" d="M325.238 419.919 L315.646 434.908 L325.238 434.908 L325.238 419.919 M324.242 416.608 L329.019 416.608 L329.019 434.908 L333.025 434.908 L333.025 438.068 L329.019 438.068 L329.019 444.688 L325.238 444.688 L325.238 438.068 L312.562 438.068 L312.562 434.401 L324.242 416.608 Z" fill="#000000" fill-rule="evenodd" fill-opacity="1" /><path clip-path="url(#clip470)" d="M94.7882 149.689 L111.108 149.689 L111.108 153.624 L89.1632 153.624 L89.1632 149.689 Q91.8252 146.934 96.4085 142.305 Q101.015 137.652 102.196 136.309 Q104.441 133.786 105.321 132.05 Q106.223 130.291 106.223 128.601 Q106.223 125.847 104.279 124.11 Q102.358 122.374 99.2558 122.374 Q97.0567 122.374 94.603 123.138 Q92.1725 123.902 89.3947 125.453 L89.3947 120.731 Q92.2188 119.597 94.6724 119.018 Q97.1261 118.439 99.1632 118.439 Q104.534 118.439 107.728 121.124 Q110.922 123.809 110.922 128.3 Q110.922 130.43 110.112 132.351 Q109.325 134.249 107.219 136.842 Q106.64 137.513 103.538 140.731 Q100.436 143.925 94.7882 149.689 Z" fill="#000000" fill-rule="evenodd" fill-opacity="1" /><path clip-path="url(#clip470)" d="M120.922 147.745 L125.807 147.745 L125.807 153.624 L120.922 153.624 L120.922 147.745 Z" fill="#000000" fill-rule="evenodd" fill-opacity="1" /><path clip-path="url(#clip470)" d="M145.992 122.143 Q142.381 122.143 140.552 125.708 Q138.746 129.249 138.746 136.379 Q138.746 143.485 140.552 147.05 Q142.381 150.592 145.992 150.592 Q149.626 150.592 151.431 147.05 Q153.26 143.485 153.26 136.379 Q153.26 129.249 151.431 125.708 Q149.626 122.143 145.992 122.143 M145.992 118.439 Q151.802 118.439 154.857 123.046 Q157.936 127.629 157.936 136.379 Q157.936 145.106 154.857 149.712 Q151.802 154.295 145.992 154.295 Q140.181 154.295 137.103 149.712 Q134.047 145.106 134.047 136.379 Q134.047 127.629 137.103 123.046 Q140.181 118.439 145.992 118.439 Z" fill="#000000" fill-rule="evenodd" fill-opacity="1" /><path clip-path="url(#clip470)" d="M194.325 128.161 L183.746 138.786 L194.325 149.365 L191.57 152.166 L180.945 141.541 L170.32 152.166 L167.589 149.365 L178.144 138.786 L167.589 128.161 L170.32 125.36 L180.945 135.985 L191.57 125.36 L194.325 128.161 Z" fill="#000000" fill-rule="evenodd" fill-opacity="1" /><path clip-path="url(#clip470)" d="M206.686 149.689 L214.325 149.689 L214.325 123.323 L206.014 124.99 L206.014 120.731 L214.278 119.064 L218.954 119.064 L218.954 149.689 L226.593 149.689 L226.593 153.624 L206.686 153.624 L206.686 149.689 Z" fill="#000000" fill-rule="evenodd" fill-opacity="1" /><path clip-path="url(#clip470)" d="M246.037 122.143 Q242.426 122.143 240.598 125.708 Q238.792 129.249 238.792 136.379 Q238.792 143.485 240.598 147.05 Q242.426 150.592 246.037 150.592 Q249.672 150.592 251.477 147.05 Q253.306 143.485 253.306 136.379 Q253.306 129.249 251.477 125.708 Q249.672 122.143 246.037 122.143 M246.037 118.439 Q251.848 118.439 254.903 123.046 Q257.982 127.629 257.982 136.379 Q257.982 145.106 254.903 149.712 Q251.848 154.295 246.037 154.295 Q240.227 154.295 237.149 149.712 Q234.093 145.106 234.093 136.379 Q234.093 127.629 237.149 123.046 Q240.227 118.439 246.037 118.439 Z" fill="#000000" fill-rule="evenodd" fill-opacity="1" /><path clip-path="url(#clip470)" d="M257.982 112.54 L282.093 112.54 L282.093 115.738 L257.982 115.738 L257.982 112.54 Z" fill="#000000" fill-rule="evenodd" fill-opacity="1" /><path clip-path="url(#clip470)" d="M290.952 123.016 L297.158 123.016 L297.158 101.594 L290.406 102.949 L290.406 99.4879 L297.121 98.1337 L300.92 98.1337 L300.92 123.016 L307.126 123.016 L307.126 126.214 L290.952 126.214 L290.952 123.016 Z" fill="#000000" fill-rule="evenodd" fill-opacity="1" /><path clip-path="url(#clip470)" d="M325.238 101.444 L315.646 116.434 L325.238 116.434 L325.238 101.444 M324.242 98.1337 L329.019 98.1337 L329.019 116.434 L333.025 116.434 L333.025 119.593 L329.019 119.593 L329.019 126.214 L325.238 126.214 L325.238 119.593 L312.562 119.593 L312.562 115.926 L324.242 98.1337 Z" fill="#000000" fill-rule="evenodd" fill-opacity="1" /><polyline clip-path="url(#clip472)" style="stroke:#009af9; stroke-linecap:butt; stroke-linejoin:round; stroke-width:16; stroke-opacity:1; fill:none" points="
  425.168,1219.43 523.665,993.136 622.162,993.136 720.659,540.556 819.156,540.556 917.653,540.556 1016.15,1445.72 1114.65,993.136 1213.14,540.556 1311.64,87.9763 
  1410.14,993.136 1508.64,993.136 1607.13,766.846 1705.63,766.846 1804.13,1445.72 1902.62,766.846 2001.12,766.846 2099.62,540.556 2198.12,993.136 2296.61,993.136 
  
  "/>
<path clip-path="url(#clip470)" d="
M2013.79 198.898 L2286.63 198.898 L2286.63 95.2176 L2013.79 95.2176  Z
  " fill="#ffffff" fill-rule="evenodd" fill-opacity="1"/>
<polyline clip-path="url(#clip470)" style="stroke:#000000; stroke-linecap:butt; stroke-linejoin:round; stroke-width:4; stroke-opacity:1; fill:none" points="
  2013.79,198.898 2286.63,198.898 2286.63,95.2176 2013.79,95.2176 2013.79,198.898 
  "/>
<polyline clip-path="url(#clip470)" style="stroke:#009af9; stroke-linecap:butt; stroke-linejoin:round; stroke-width:4; stroke-opacity:1; fill:none" points="
  2035.83,147.058 2168.08,147.058 
  "/>
<path clip-path="url(#clip470)" d="M2203.96 166.745 Q2202.16 171.375 2200.44 172.787 Q2198.73 174.199 2195.86 174.199 L2192.46 174.199 L2192.46 170.634 L2194.96 170.634 Q2196.72 170.634 2197.69 169.8 Q2198.66 168.967 2199.84 165.865 L2200.6 163.921 L2190.12 138.412 L2194.63 138.412 L2202.73 158.689 L2210.84 138.412 L2215.35 138.412 L2203.96 166.745 Z" fill="#000000" fill-rule="evenodd" fill-opacity="1" /><path clip-path="url(#clip470)" d="M2222.64 160.402 L2230.28 160.402 L2230.28 134.037 L2221.97 135.703 L2221.97 131.444 L2230.23 129.778 L2234.91 129.778 L2234.91 160.402 L2242.55 160.402 L2242.55 164.338 L2222.64 164.338 L2222.64 160.402 Z" fill="#000000" fill-rule="evenodd" fill-opacity="1" /></svg>
