<?xml version="1.0" encoding="utf-8"?>
<svg xmlns="http://www.w3.org/2000/svg" xmlns:xlink="http://www.w3.org/1999/xlink" width="600" height="400" viewBox="0 0 2400 1600">
<defs>
  <clipPath id="clip550">
    <rect x="0" y="0" width="2400" height="1600"/>
  </clipPath>
</defs>
<path clip-path="url(#clip550)" d="
M0 1600 L2400 1600 L2400 0 L0 0  Z
  " fill="#ffffff" fill-rule="evenodd" fill-opacity="1"/>
<defs>
  <clipPath id="clip551">
    <rect x="480" y="0" width="1681" height="1600"/>
  </clipPath>
</defs>
<path clip-path="url(#clip550)" d="
M187.803 1474.16 L2352.76 1474.16 L2352.76 47.2441 L187.803 47.2441  Z
  " fill="#ffffff" fill-rule="evenodd" fill-opacity="1"/>
<defs>
  <clipPath id="clip552">
    <rect x="187" y="47" width="2166" height="1428"/>
  </clipPath>
</defs>
<polyline clip-path="url(#clip552)" style="stroke:#000000; stroke-linecap:butt; stroke-linejoin:round; stroke-width:2; stroke-opacity:0.1; fill:none" points="
  249.075,1474.16 249.075,47.2441 
  "/>
<polyline clip-path="url(#clip552)" style="stroke:#000000; stroke-linecap:butt; stroke-linejoin:round; stroke-width:2; stroke-opacity:0.1; fill:none" points="
  2291.48,1474.16 2291.48,47.2441 
  "/>
<polyline clip-path="url(#clip550)" style="stroke:#000000; stroke-linecap:butt; stroke-linejoin:round; stroke-width:4; stroke-opacity:1; fill:none" points="
  187.803,1474.16 2352.76,1474.16 
  "/>
<polyline clip-path="url(#clip550)" style="stroke:#000000; stroke-linecap:butt; stroke-linejoin:round; stroke-width:4; stroke-opacity:1; fill:none" points="
  249.075,1474.16 249.075,1455.27 
  "/>
<polyline clip-path="url(#clip550)" style="stroke:#000000; stroke-linecap:butt; stroke-linejoin:round; stroke-width:4; stroke-opacity:1; fill:none" points="
  2291.48,1474.16 2291.48,1455.27 
  "/>
<path clip-path="url(#clip550)" d="M214.519 1552.44 L222.158 1552.44 L222.158 1526.07 L213.848 1527.74 L213.848 1523.48 L222.112 1521.81 L226.788 1521.81 L226.788 1552.44 L234.426 1552.44 L234.426 1556.37 L214.519 1556.37 L214.519 1552.44 Z" fill="#000000" fill-rule="evenodd" fill-opacity="1" /><path clip-path="url(#clip550)" d="M253.871 1524.89 Q250.26 1524.89 248.431 1528.46 Q246.625 1532 246.625 1539.13 Q246.625 1546.23 248.431 1549.8 Q250.26 1553.34 253.871 1553.34 Q257.505 1553.34 259.311 1549.8 Q261.139 1546.23 261.139 1539.13 Q261.139 1532 259.311 1528.46 Q257.505 1524.89 253.871 1524.89 M253.871 1521.19 Q259.681 1521.19 262.736 1525.79 Q265.815 1530.38 265.815 1539.13 Q265.815 1547.85 262.736 1552.46 Q259.681 1557.04 253.871 1557.04 Q248.061 1557.04 244.982 1552.46 Q241.926 1547.85 241.926 1539.13 Q241.926 1530.38 244.982 1525.79 Q248.061 1521.19 253.871 1521.19 Z" fill="#000000" fill-rule="evenodd" fill-opacity="1" /><path clip-path="url(#clip550)" d="M278.51 1513.82 Q281.237 1514.4 282.761 1516.25 Q284.303 1518.09 284.303 1520.8 Q284.303 1524.96 281.444 1527.23 Q278.586 1529.51 273.319 1529.51 Q271.551 1529.51 269.671 1529.15 Q267.809 1528.81 265.815 1528.12 L265.815 1524.45 Q267.395 1525.37 269.276 1525.84 Q271.157 1526.31 273.207 1526.31 Q276.78 1526.31 278.642 1524.9 Q280.523 1523.49 280.523 1520.8 Q280.523 1518.32 278.774 1516.92 Q277.043 1515.51 273.94 1515.51 L270.668 1515.51 L270.668 1512.39 L274.091 1512.39 Q276.893 1512.39 278.379 1511.28 Q279.865 1510.15 279.865 1508.05 Q279.865 1505.88 278.322 1504.74 Q276.799 1503.57 273.94 1503.57 Q272.379 1503.57 270.592 1503.91 Q268.806 1504.25 266.661 1504.96 L266.661 1501.58 Q268.824 1500.98 270.705 1500.67 Q272.605 1500.37 274.279 1500.37 Q278.604 1500.37 281.125 1502.35 Q283.645 1504.3 283.645 1507.65 Q283.645 1509.98 282.31 1511.6 Q280.974 1513.2 278.51 1513.82 Z" fill="#000000" fill-rule="evenodd" fill-opacity="1" /><path clip-path="url(#clip550)" d="M2255.94 1552.44 L2263.58 1552.44 L2263.58 1526.07 L2255.27 1527.74 L2255.27 1523.48 L2263.53 1521.81 L2268.21 1521.81 L2268.21 1552.44 L2275.85 1552.44 L2275.85 1556.37 L2255.94 1556.37 L2255.94 1552.44 Z" fill="#000000" fill-rule="evenodd" fill-opacity="1" /><path clip-path="url(#clip550)" d="M2295.29 1524.89 Q2291.68 1524.89 2289.85 1528.46 Q2288.05 1532 2288.05 1539.13 Q2288.05 1546.23 2289.85 1549.8 Q2291.68 1553.34 2295.29 1553.34 Q2298.93 1553.34 2300.73 1549.8 Q2302.56 1546.23 2302.56 1539.13 Q2302.56 1532 2300.73 1528.46 Q2298.93 1524.89 2295.29 1524.89 M2295.29 1521.19 Q2301.1 1521.19 2304.16 1525.79 Q2307.24 1530.38 2307.24 1539.13 Q2307.24 1547.85 2304.16 1552.46 Q2301.1 1557.04 2295.29 1557.04 Q2289.48 1557.04 2286.4 1552.46 Q2283.35 1547.85 2283.35 1539.13 Q2283.35 1530.38 2286.4 1525.79 Q2289.48 1521.19 2295.29 1521.19 Z" fill="#000000" fill-rule="evenodd" fill-opacity="1" /><path clip-path="url(#clip550)" d="M2319.91 1504.19 L2310.32 1519.18 L2319.91 1519.18 L2319.91 1504.19 M2318.92 1500.88 L2323.69 1500.88 L2323.69 1519.18 L2327.7 1519.18 L2327.7 1522.34 L2323.69 1522.34 L2323.69 1528.96 L2319.91 1528.96 L2319.91 1522.34 L2307.24 1522.34 L2307.24 1518.67 L2318.92 1500.88 Z" fill="#000000" fill-rule="evenodd" fill-opacity="1" /><polyline clip-path="url(#clip552)" style="stroke:#000000; stroke-linecap:butt; stroke-linejoin:round; stroke-width:2; stroke-opacity:0.1; fill:none" points="
  187.803,1070.2 2352.76,1070.2 
  "/>
<polyline clip-path="url(#clip552)" style="stroke:#000000; stroke-linecap:butt; stroke-linejoin:round; stroke-width:2; stroke-opacity:0.1; fill:none" points="
  187.803,415.153 2352.76,415.153 
  "/>
<polyline clip-path="url(#clip550)" style="stroke:#000000; stroke-linecap:butt; stroke-linejoin:round; stroke-width:4; stroke-opacity:1; fill:none" points="
  187.803,1474.16 187.803,47.2441 
  "/>
<polyline clip-path="url(#clip550)" style="stroke:#000000; stroke-linecap:butt; stroke-linejoin:round; stroke-width:4; stroke-opacity:1; fill:none" points="
  187.803,1070.2 206.701,1070.2 
  "/>
<polyline clip-path="url(#clip550)" style="stroke:#000000; stroke-linecap:butt; stroke-linejoin:round; stroke-width:4; stroke-opacity:1; fill:none" points="
  187.803,415.153 206.701,415.153 
  "/>
<path clip-path="url(#clip550)" d="M51.6634 1089.99 L59.3023 1089.99 L59.3023 1063.63 L50.9921 1065.3 L50.9921 1061.04 L59.256 1059.37 L63.9319 1059.37 L63.9319 1089.99 L71.5707 1089.99 L71.5707 1093.93 L51.6634 1093.93 L51.6634 1089.99 Z" fill="#000000" fill-rule="evenodd" fill-opacity="1" /><path clip-path="url(#clip550)" d="M91.0151 1062.45 Q87.404 1062.45 85.5753 1066.01 Q83.7697 1069.56 83.7697 1076.68 Q83.7697 1083.79 85.5753 1087.36 Q87.404 1090.9 91.0151 1090.9 Q94.6493 1090.9 96.4548 1087.36 Q98.2835 1083.79 98.2835 1076.68 Q98.2835 1069.56 96.4548 1066.01 Q94.6493 1062.45 91.0151 1062.45 M91.0151 1058.75 Q96.8252 1058.75 99.8808 1063.35 Q102.959 1067.93 102.959 1076.68 Q102.959 1085.41 99.8808 1090.02 Q96.8252 1094.6 91.0151 1094.6 Q85.2049 1094.6 82.1262 1090.02 Q79.0707 1085.41 79.0707 1076.68 Q79.0707 1067.93 82.1262 1063.35 Q85.2049 1058.75 91.0151 1058.75 Z" fill="#000000" fill-rule="evenodd" fill-opacity="1" /><path clip-path="url(#clip550)" d="M102.959 1052.85 L127.071 1052.85 L127.071 1056.04 L102.959 1056.04 L102.959 1052.85 Z" fill="#000000" fill-rule="evenodd" fill-opacity="1" /><path clip-path="url(#clip550)" d="M138.544 1063.32 L151.803 1063.32 L151.803 1066.52 L133.973 1066.52 L133.973 1063.32 Q136.136 1061.08 139.86 1057.32 Q143.603 1053.54 144.562 1052.45 Q146.387 1050.4 147.101 1048.99 Q147.835 1047.56 147.835 1046.19 Q147.835 1043.95 146.255 1042.54 Q144.694 1041.13 142.174 1041.13 Q140.387 1041.13 138.393 1041.75 Q136.418 1042.37 134.162 1043.63 L134.162 1039.79 Q136.456 1038.87 138.45 1038.4 Q140.443 1037.93 142.098 1037.93 Q146.462 1037.93 149.057 1040.11 Q151.653 1042.3 151.653 1045.94 Q151.653 1047.67 150.994 1049.24 Q150.355 1050.78 148.644 1052.88 Q148.173 1053.43 145.653 1056.04 Q143.133 1058.64 138.544 1063.32 Z" fill="#000000" fill-rule="evenodd" fill-opacity="1" /><path clip-path="url(#clip550)" d="M81.0976 434.946 L88.7364 434.946 L88.7364 408.58 L80.4263 410.247 L80.4263 405.988 L88.6901 404.321 L93.366 404.321 L93.366 434.946 L101.005 434.946 L101.005 438.881 L81.0976 438.881 L81.0976 434.946 Z" fill="#000000" fill-rule="evenodd" fill-opacity="1" /><path clip-path="url(#clip550)" d="M120.449 407.4 Q116.838 407.4 115.009 410.964 Q113.204 414.506 113.204 421.636 Q113.204 428.742 115.009 432.307 Q116.838 435.848 120.449 435.848 Q124.083 435.848 125.889 432.307 Q127.718 428.742 127.718 421.636 Q127.718 414.506 125.889 410.964 Q124.083 407.4 120.449 407.4 M120.449 403.696 Q126.259 403.696 129.315 408.302 Q132.394 412.886 132.394 421.636 Q132.394 430.362 129.315 434.969 Q126.259 439.552 120.449 439.552 Q114.639 439.552 111.56 434.969 Q108.505 430.362 108.505 421.636 Q108.505 412.886 111.56 408.302 Q114.639 403.696 120.449 403.696 Z" fill="#000000" fill-rule="evenodd" fill-opacity="1" /><path clip-path="url(#clip550)" d="M142.098 385.892 Q139.164 385.892 137.679 388.788 Q136.212 391.666 136.212 397.459 Q136.212 403.233 137.679 406.129 Q139.164 409.007 142.098 409.007 Q145.051 409.007 146.518 406.129 Q148.004 403.233 148.004 397.459 Q148.004 391.666 146.518 388.788 Q145.051 385.892 142.098 385.892 M142.098 382.883 Q146.819 382.883 149.302 386.625 Q151.803 390.349 151.803 397.459 Q151.803 404.549 149.302 408.292 Q146.819 412.016 142.098 412.016 Q137.378 412.016 134.876 408.292 Q132.394 404.549 132.394 397.459 Q132.394 390.349 134.876 386.625 Q137.378 382.883 142.098 382.883 Z" fill="#000000" fill-rule="evenodd" fill-opacity="1" /><circle clip-path="url(#clip552)" cx="249.075" cy="1433.78" r="14" fill="#009af9" fill-rule="evenodd" fill-opacity="1" stroke="#000000" stroke-opacity="1" stroke-width="3.2"/>
<circle clip-path="url(#clip552)" cx="863.902" cy="1333.43" r="14" fill="#009af9" fill-rule="evenodd" fill-opacity="1" stroke="#000000" stroke-opacity="1" stroke-width="3.2"/>
<circle clip-path="url(#clip552)" cx="1223.55" cy="1291.27" r="14" fill="#009af9" fill-rule="evenodd" fill-opacity="1" stroke="#000000" stroke-opacity="1" stroke-width="3.2"/>
<circle clip-path="url(#clip552)" cx="1478.73" cy="1270.92" r="14" fill="#009af9" fill-rule="evenodd" fill-opacity="1" stroke="#000000" stroke-opacity="1" stroke-width="3.2"/>
<circle clip-path="url(#clip552)" cx="1676.66" cy="1239.64" r="14" fill="#009af9" fill-rule="evenodd" fill-opacity="1" stroke="#000000" stroke-opacity="1" stroke-width="3.2"/>
<circle clip-path="url(#clip552)" cx="1838.38" cy="1210.2" r="14" fill="#009af9" fill-rule="evenodd" fill-opacity="1" stroke="#000000" stroke-opacity="1" stroke-width="3.2"/>
<circle clip-path="url(#clip552)" cx="1975.11" cy="1191.43" r="14" fill="#009af9" fill-rule="evenodd" fill-opacity="1" stroke="#000000" stroke-opacity="1" stroke-width="3.2"/>
<circle clip-path="url(#clip552)" cx="2093.55" cy="1170.72" r="14" fill="#009af9" fill-rule="evenodd" fill-opacity="1" stroke="#000000" stroke-opacity="1" stroke-width="3.2"/>
<circle clip-path="url(#clip552)" cx="2198.03" cy="1147.1" r="14" fill="#009af9" fill-rule="evenodd" fill-opacity="1" stroke="#000000" stroke-opacity="1" stroke-width="3.2"/>
<circle clip-path="url(#clip552)" cx="2291.48" cy="1133.75" r="14" fill="#009af9" fill-rule="evenodd" fill-opacity="1" stroke="#000000" stroke-opacity="1" stroke-width="3.2"/>
<polyline clip-path="url(#clip552)" style="stroke:#e26f46; stroke-linecap:butt; stroke-linejoin:round; stroke-width:4; stroke-opacity:1; fill:none" points="
  249.075,1070.2 323.799,1058.22 818.677,978.86 1021.54,946.329 1162.96,923.65 1294.68,902.528 1400.9,885.493 1502.22,869.246 1606.74,852.485 1690.3,839.085 
  1757.61,828.291 1825.61,817.387 1889.12,807.202 1954.42,796.729 2012.39,787.434 2068.9,778.372 2113.82,771.168 2165.76,762.84 2211.95,755.432 2281.28,744.314 
  2291.48,742.678 
  "/>
<polyline clip-path="url(#clip552)" style="stroke:#3da44d; stroke-linecap:butt; stroke-linejoin:round; stroke-width:4; stroke-opacity:1; fill:none" points="
  249.075,1070.2 323.799,1046.24 818.677,887.518 1021.54,822.455 1162.96,777.098 1294.68,734.853 1400.9,700.784 1502.22,668.289 1606.74,634.767 1690.3,607.967 
  1757.61,586.38 1825.61,564.572 1889.12,544.201 1954.42,523.256 2012.39,504.665 2068.9,486.542 2113.82,472.133 2165.76,455.477 2211.95,440.662 2281.28,418.426 
  2291.48,415.153 
  "/>
<polyline clip-path="url(#clip552)" style="stroke:#c271d2; stroke-linecap:butt; stroke-linejoin:round; stroke-width:4; stroke-opacity:1; fill:none" points="
  249.075,1070.2 323.799,1034.25 818.677,796.175 1021.54,698.581 1162.96,630.546 1294.68,567.178 1400.9,516.075 1502.22,467.333 1606.74,417.049 1690.3,376.85 
  1757.61,344.468 1825.61,311.756 1889.12,281.2 1954.42,249.783 2012.39,221.896 2068.9,194.711 2113.82,173.098 2140.17,160.423 2165.76,148.114 2189.15,136.858 
  2211.95,125.891 2247.29,108.889 2281.28,92.5378 2286.4,90.0761 2291.48,87.6286 
  "/>
<path clip-path="url(#clip550)" d="
M1985.9 354.008 L2280.59 354.008 L2280.59 94.8081 L1985.9 94.8081  Z
  " fill="#ffffff" fill-rule="evenodd" fill-opacity="1"/>
<polyline clip-path="url(#clip550)" style="stroke:#000000; stroke-linecap:butt; stroke-linejoin:round; stroke-width:4; stroke-opacity:1; fill:none" points="
  1985.9,354.008 2280.59,354.008 2280.59,94.8081 1985.9,94.8081 1985.9,354.008 
  "/>
<circle clip-path="url(#clip550)" cx="2082.12" cy="146.648" r="23" fill="#009af9" fill-rule="evenodd" fill-opacity="1" stroke="#000000" stroke-opacity="1" stroke-width="5.12"/>
<path clip-path="url(#clip550)" d="M2192.18 166.336 Q2190.37 170.965 2188.66 172.377 Q2186.95 173.789 2184.08 173.789 L2180.68 173.789 L2180.68 170.224 L2183.18 170.224 Q2184.93 170.224 2185.91 169.391 Q2186.88 168.558 2188.06 165.456 L2188.82 163.511 L2178.34 138.002 L2182.85 138.002 L2190.95 158.28 L2199.06 138.002 L2203.57 138.002 L2192.18 166.336 Z" fill="#000000" fill-rule="evenodd" fill-opacity="1" /><path clip-path="url(#clip550)" d="M2210.86 159.993 L2218.5 159.993 L2218.5 133.627 L2210.19 135.294 L2210.19 131.035 L2218.45 129.368 L2223.13 129.368 L2223.13 159.993 L2230.77 159.993 L2230.77 163.928 L2210.86 163.928 L2210.86 159.993 Z" fill="#000000" fill-rule="evenodd" fill-opacity="1" /><polyline clip-path="url(#clip550)" style="stroke:#e26f46; stroke-linecap:butt; stroke-linejoin:round; stroke-width:4; stroke-opacity:1; fill:none" points="
  2009.95,198.488 2154.28,198.488 
  "/>
<path clip-path="url(#clip550)" d="M2192.18 218.176 Q2190.37 222.805 2188.66 224.217 Q2186.95 225.629 2184.08 225.629 L2180.68 225.629 L2180.68 222.064 L2183.18 222.064 Q2184.93 222.064 2185.91 221.231 Q2186.88 220.398 2188.06 217.296 L2188.82 215.351 L2178.34 189.842 L2182.85 189.842 L2190.95 210.12 L2199.06 189.842 L2203.57 189.842 L2192.18 218.176 Z" fill="#000000" fill-rule="evenodd" fill-opacity="1" /><path clip-path="url(#clip550)" d="M2214.08 211.833 L2230.4 211.833 L2230.4 215.768 L2208.45 215.768 L2208.45 211.833 Q2211.12 209.078 2215.7 204.449 Q2220.3 199.796 2221.49 198.453 Q2223.73 195.93 2224.61 194.194 Q2225.51 192.435 2225.51 190.745 Q2225.51 187.99 2223.57 186.254 Q2221.65 184.518 2218.55 184.518 Q2216.35 184.518 2213.89 185.282 Q2211.46 186.046 2208.68 187.597 L2208.68 182.875 Q2211.51 181.741 2213.96 181.162 Q2216.42 180.583 2218.45 180.583 Q2223.82 180.583 2227.02 183.268 Q2230.21 185.953 2230.21 190.444 Q2230.21 192.574 2229.4 194.495 Q2228.62 196.393 2226.51 198.986 Q2225.93 199.657 2222.83 202.875 Q2219.73 206.069 2214.08 211.833 Z" fill="#000000" fill-rule="evenodd" fill-opacity="1" /><polyline clip-path="url(#clip550)" style="stroke:#3da44d; stroke-linecap:butt; stroke-linejoin:round; stroke-width:4; stroke-opacity:1; fill:none" points="
  2009.95,250.328 2154.28,250.328 
  "/>
<path clip-path="url(#clip550)" d="M2192.18 270.016 Q2190.37 274.645 2188.66 276.057 Q2186.95 277.469 2184.08 277.469 L2180.68 277.469 L2180.68 273.904 L2183.18 273.904 Q2184.93 273.904 2185.91 273.071 Q2186.88 272.238 2188.06 269.136 L2188.82 267.191 L2178.34 241.682 L2182.85 241.682 L2190.95 261.96 L2199.06 241.682 L2203.57 241.682 L2192.18 270.016 Z" fill="#000000" fill-rule="evenodd" fill-opacity="1" /><path clip-path="url(#clip550)" d="M2224.22 248.974 Q2227.57 249.692 2229.45 251.96 Q2231.35 254.229 2231.35 257.562 Q2231.35 262.678 2227.83 265.478 Q2224.31 268.279 2217.83 268.279 Q2215.65 268.279 2213.34 267.84 Q2211.05 267.423 2208.59 266.566 L2208.59 262.053 Q2210.54 263.187 2212.85 263.766 Q2215.17 264.344 2217.69 264.344 Q2222.09 264.344 2224.38 262.608 Q2226.69 260.872 2226.69 257.562 Q2226.69 254.506 2224.54 252.793 Q2222.41 251.057 2218.59 251.057 L2214.56 251.057 L2214.56 247.215 L2218.78 247.215 Q2222.23 247.215 2224.05 245.849 Q2225.88 244.46 2225.88 241.868 Q2225.88 239.205 2223.99 237.793 Q2222.11 236.358 2218.59 236.358 Q2216.67 236.358 2214.47 236.775 Q2212.27 237.192 2209.63 238.071 L2209.63 233.905 Q2212.3 233.164 2214.61 232.793 Q2216.95 232.423 2219.01 232.423 Q2224.33 232.423 2227.43 234.854 Q2230.54 237.261 2230.54 241.381 Q2230.54 244.252 2228.89 246.242 Q2227.25 248.21 2224.22 248.974 Z" fill="#000000" fill-rule="evenodd" fill-opacity="1" /><polyline clip-path="url(#clip550)" style="stroke:#c271d2; stroke-linecap:butt; stroke-linejoin:round; stroke-width:4; stroke-opacity:1; fill:none" points="
  2009.95,302.168 2154.28,302.168 
  "/>
<path clip-path="url(#clip550)" d="M2192.18 321.856 Q2190.37 326.485 2188.66 327.897 Q2186.95 329.309 2184.08 329.309 L2180.68 329.309 L2180.68 325.744 L2183.18 325.744 Q2184.93 325.744 2185.91 324.911 Q2186.88 324.078 2188.06 320.976 L2188.82 319.031 L2178.34 293.522 L2182.85 293.522 L2190.95 313.8 L2199.06 293.522 L2203.57 293.522 L2192.18 321.856 Z" fill="#000000" fill-rule="evenodd" fill-opacity="1" /><path clip-path="url(#clip550)" d="M2222.9 288.962 L2211.09 307.411 L2222.9 307.411 L2222.9 288.962 M2221.67 284.888 L2227.55 284.888 L2227.55 307.411 L2232.48 307.411 L2232.48 311.3 L2227.55 311.3 L2227.55 319.448 L2222.9 319.448 L2222.9 311.3 L2207.3 311.3 L2207.3 306.786 L2221.67 284.888 Z" fill="#000000" fill-rule="evenodd" fill-opacity="1" /></svg>
