<?xml version="1.0" encoding="utf-8"?>
<svg xmlns="http://www.w3.org/2000/svg" xmlns:xlink="http://www.w3.org/1999/xlink" width="600" height="400" viewBox="0 0 2400 1600">
<defs>
  <clipPath id="clip990">
    <rect x="0" y="0" width="2400" height="1600"/>
  </clipPath>
</defs>
<path clip-path="url(#clip990)" d="
M0 1600 L2400 1600 L2400 0 L0 0  Z
  " fill="#ffffff" fill-rule="evenodd" fill-opacity="1"/>
<defs>
  <clipPath id="clip991">
    <rect x="480" y="0" width="1681" height="1600"/>
  </clipPath>
</defs>
<path clip-path="url(#clip990)" d="
M193.936 1486.45 L2352.76 1486.45 L2352.76 47.2441 L193.936 47.2441  Z
  " fill="#ffffff" fill-rule="evenodd" fill-opacity="1"/>
<defs>
  <clipPath id="clip992">
    <rect x="193" y="47" width="2160" height="1440"/>
  </clipPath>
</defs>
<polyline clip-path="url(#clip992)" style="stroke:#000000; stroke-linecap:butt; stroke-linejoin:round; stroke-width:2; stroke-opacity:0.1; fill:none" points="
  255.035,1486.45 255.035,47.2441 
  "/>
<polyline clip-path="url(#clip992)" style="stroke:#000000; stroke-linecap:butt; stroke-linejoin:round; stroke-width:2; stroke-opacity:0.1; fill:none" points="
  764.19,1486.45 764.19,47.2441 
  "/>
<polyline clip-path="url(#clip992)" style="stroke:#000000; stroke-linecap:butt; stroke-linejoin:round; stroke-width:2; stroke-opacity:0.1; fill:none" points="
  1273.35,1486.45 1273.35,47.2441 
  "/>
<polyline clip-path="url(#clip992)" style="stroke:#000000; stroke-linecap:butt; stroke-linejoin:round; stroke-width:2; stroke-opacity:0.1; fill:none" points="
  1782.5,1486.45 1782.5,47.2441 
  "/>
<polyline clip-path="url(#clip992)" style="stroke:#000000; stroke-linecap:butt; stroke-linejoin:round; stroke-width:2; stroke-opacity:0.1; fill:none" points="
  2291.66,1486.45 2291.66,47.2441 
  "/>
<polyline clip-path="url(#clip990)" style="stroke:#000000; stroke-linecap:butt; stroke-linejoin:round; stroke-width:4; stroke-opacity:1; fill:none" points="
  193.936,1486.45 2352.76,1486.45 
  "/>
<polyline clip-path="url(#clip990)" style="stroke:#000000; stroke-linecap:butt; stroke-linejoin:round; stroke-width:4; stroke-opacity:1; fill:none" points="
  255.035,1486.45 255.035,1467.55 
  "/>
<polyline clip-path="url(#clip990)" style="stroke:#000000; stroke-linecap:butt; stroke-linejoin:round; stroke-width:4; stroke-opacity:1; fill:none" points="
  764.19,1486.45 764.19,1467.55 
  "/>
<polyline clip-path="url(#clip990)" style="stroke:#000000; stroke-linecap:butt; stroke-linejoin:round; stroke-width:4; stroke-opacity:1; fill:none" points="
  1273.35,1486.45 1273.35,1467.55 
  "/>
<polyline clip-path="url(#clip990)" style="stroke:#000000; stroke-linecap:butt; stroke-linejoin:round; stroke-width:4; stroke-opacity:1; fill:none" points="
  1782.5,1486.45 1782.5,1467.55 
  "/>
<polyline clip-path="url(#clip990)" style="stroke:#000000; stroke-linecap:butt; stroke-linejoin:round; stroke-width:4; stroke-opacity:1; fill:none" points="
  2291.66,1486.45 2291.66,1467.55 
  "/>
<path clip-path="url(#clip990)" d="M201.563 1530.29 L231.239 1530.29 L231.239 1534.23 L201.563 1534.23 L201.563 1530.29 Z" fill="#000000" fill-rule="evenodd" fill-opacity="1" /><path clip-path="url(#clip990)" d="M242.141 1543.18 L249.78 1543.18 L249.78 1516.82 L241.47 1518.49 L241.47 1514.23 L249.734 1512.56 L254.41 1512.56 L254.41 1543.18 L262.049 1543.18 L262.049 1547.12 L242.141 1547.12 L242.141 1543.18 Z" fill="#000000" fill-rule="evenodd" fill-opacity="1" /><path clip-path="url(#clip990)" d="M271.493 1541.24 L276.377 1541.24 L276.377 1547.12 L271.493 1547.12 L271.493 1541.24 Z" fill="#000000" fill-rule="evenodd" fill-opacity="1" /><path clip-path="url(#clip990)" d="M296.562 1515.64 Q292.951 1515.64 291.122 1519.2 Q289.317 1522.75 289.317 1529.87 Q289.317 1536.98 291.122 1540.55 Q292.951 1544.09 296.562 1544.09 Q300.196 1544.09 302.002 1540.55 Q303.831 1536.98 303.831 1529.87 Q303.831 1522.75 302.002 1519.2 Q300.196 1515.64 296.562 1515.64 M296.562 1511.93 Q302.372 1511.93 305.428 1516.54 Q308.507 1521.12 308.507 1529.87 Q308.507 1538.6 305.428 1543.21 Q302.372 1547.79 296.562 1547.79 Q290.752 1547.79 287.673 1543.21 Q284.618 1538.6 284.618 1529.87 Q284.618 1521.12 287.673 1516.54 Q290.752 1511.93 296.562 1511.93 Z" fill="#000000" fill-rule="evenodd" fill-opacity="1" /><path clip-path="url(#clip990)" d="M711.216 1530.29 L740.892 1530.29 L740.892 1534.23 L711.216 1534.23 L711.216 1530.29 Z" fill="#000000" fill-rule="evenodd" fill-opacity="1" /><path clip-path="url(#clip990)" d="M760.984 1515.64 Q757.373 1515.64 755.545 1519.2 Q753.739 1522.75 753.739 1529.87 Q753.739 1536.98 755.545 1540.55 Q757.373 1544.09 760.984 1544.09 Q764.619 1544.09 766.424 1540.55 Q768.253 1536.98 768.253 1529.87 Q768.253 1522.75 766.424 1519.2 Q764.619 1515.64 760.984 1515.64 M760.984 1511.93 Q766.794 1511.93 769.85 1516.54 Q772.929 1521.12 772.929 1529.87 Q772.929 1538.6 769.85 1543.21 Q766.794 1547.79 760.984 1547.79 Q755.174 1547.79 752.095 1543.21 Q749.04 1538.6 749.04 1529.87 Q749.04 1521.12 752.095 1516.54 Q755.174 1511.93 760.984 1511.93 Z" fill="#000000" fill-rule="evenodd" fill-opacity="1" /><path clip-path="url(#clip990)" d="M781.146 1541.24 L786.03 1541.24 L786.03 1547.12 L781.146 1547.12 L781.146 1541.24 Z" fill="#000000" fill-rule="evenodd" fill-opacity="1" /><path clip-path="url(#clip990)" d="M796.262 1512.56 L814.618 1512.56 L814.618 1516.5 L800.544 1516.5 L800.544 1524.97 Q801.563 1524.62 802.581 1524.46 Q803.6 1524.27 804.618 1524.27 Q810.405 1524.27 813.785 1527.44 Q817.165 1530.62 817.165 1536.03 Q817.165 1541.61 813.692 1544.71 Q810.22 1547.79 803.901 1547.79 Q801.725 1547.79 799.456 1547.42 Q797.211 1547.05 794.804 1546.31 L794.804 1541.61 Q796.887 1542.74 799.109 1543.3 Q801.331 1543.86 803.808 1543.86 Q807.813 1543.86 810.151 1541.75 Q812.489 1539.64 812.489 1536.03 Q812.489 1532.42 810.151 1530.31 Q807.813 1528.21 803.808 1528.21 Q801.933 1528.21 800.058 1528.62 Q798.206 1529.04 796.262 1529.92 L796.262 1512.56 Z" fill="#000000" fill-rule="evenodd" fill-opacity="1" /><path clip-path="url(#clip990)" d="M1250.73 1515.64 Q1247.12 1515.64 1245.29 1519.2 Q1243.49 1522.75 1243.49 1529.87 Q1243.49 1536.98 1245.29 1540.55 Q1247.12 1544.09 1250.73 1544.09 Q1254.36 1544.09 1256.17 1540.55 Q1258 1536.98 1258 1529.87 Q1258 1522.75 1256.17 1519.2 Q1254.36 1515.64 1250.73 1515.64 M1250.73 1511.93 Q1256.54 1511.93 1259.6 1516.54 Q1262.67 1521.12 1262.67 1529.87 Q1262.67 1538.6 1259.6 1543.21 Q1256.54 1547.79 1250.73 1547.79 Q1244.92 1547.79 1241.84 1543.21 Q1238.79 1538.6 1238.79 1529.87 Q1238.79 1521.12 1241.84 1516.54 Q1244.92 1511.93 1250.73 1511.93 Z" fill="#000000" fill-rule="evenodd" fill-opacity="1" /><path clip-path="url(#clip990)" d="M1270.89 1541.24 L1275.78 1541.24 L1275.78 1547.12 L1270.89 1547.12 L1270.89 1541.24 Z" fill="#000000" fill-rule="evenodd" fill-opacity="1" /><path clip-path="url(#clip990)" d="M1295.96 1515.64 Q1292.35 1515.64 1290.52 1519.2 Q1288.72 1522.75 1288.72 1529.87 Q1288.72 1536.98 1290.52 1540.55 Q1292.35 1544.09 1295.96 1544.09 Q1299.6 1544.09 1301.4 1540.55 Q1303.23 1536.98 1303.23 1529.87 Q1303.23 1522.75 1301.4 1519.2 Q1299.6 1515.64 1295.96 1515.64 M1295.96 1511.93 Q1301.77 1511.93 1304.83 1516.54 Q1307.91 1521.12 1307.91 1529.87 Q1307.91 1538.6 1304.83 1543.21 Q1301.77 1547.79 1295.96 1547.79 Q1290.15 1547.79 1287.07 1543.21 Q1284.02 1538.6 1284.02 1529.87 Q1284.02 1521.12 1287.07 1516.54 Q1290.15 1511.93 1295.96 1511.93 Z" fill="#000000" fill-rule="evenodd" fill-opacity="1" /><path clip-path="url(#clip990)" d="M1760.38 1515.64 Q1756.77 1515.64 1754.94 1519.2 Q1753.14 1522.75 1753.14 1529.87 Q1753.14 1536.98 1754.94 1540.55 Q1756.77 1544.09 1760.38 1544.09 Q1764.02 1544.09 1765.82 1540.55 Q1767.65 1536.98 1767.65 1529.87 Q1767.65 1522.75 1765.82 1519.2 Q1764.02 1515.64 1760.38 1515.64 M1760.38 1511.93 Q1766.19 1511.93 1769.25 1516.54 Q1772.33 1521.12 1772.33 1529.87 Q1772.33 1538.6 1769.25 1543.21 Q1766.19 1547.79 1760.38 1547.79 Q1754.57 1547.79 1751.49 1543.21 Q1748.44 1538.6 1748.44 1529.87 Q1748.44 1521.12 1751.49 1516.54 Q1754.57 1511.93 1760.38 1511.93 Z" fill="#000000" fill-rule="evenodd" fill-opacity="1" /><path clip-path="url(#clip990)" d="M1780.55 1541.24 L1785.43 1541.24 L1785.43 1547.12 L1780.55 1547.12 L1780.55 1541.24 Z" fill="#000000" fill-rule="evenodd" fill-opacity="1" /><path clip-path="url(#clip990)" d="M1795.66 1512.56 L1814.02 1512.56 L1814.02 1516.5 L1799.94 1516.5 L1799.94 1524.97 Q1800.96 1524.62 1801.98 1524.46 Q1803 1524.27 1804.02 1524.27 Q1809.8 1524.27 1813.18 1527.44 Q1816.56 1530.62 1816.56 1536.03 Q1816.56 1541.61 1813.09 1544.71 Q1809.62 1547.79 1803.3 1547.79 Q1801.12 1547.79 1798.86 1547.42 Q1796.61 1547.05 1794.2 1546.31 L1794.2 1541.61 Q1796.29 1542.74 1798.51 1543.3 Q1800.73 1543.86 1803.21 1543.86 Q1807.21 1543.86 1809.55 1541.75 Q1811.89 1539.64 1811.89 1536.03 Q1811.89 1532.42 1809.55 1530.31 Q1807.21 1528.21 1803.21 1528.21 Q1801.33 1528.21 1799.46 1528.62 Q1797.61 1529.04 1795.66 1529.92 L1795.66 1512.56 Z" fill="#000000" fill-rule="evenodd" fill-opacity="1" /><path clip-path="url(#clip990)" d="M2258.81 1543.18 L2266.45 1543.18 L2266.45 1516.82 L2258.14 1518.49 L2258.14 1514.23 L2266.4 1512.56 L2271.08 1512.56 L2271.08 1543.18 L2278.72 1543.18 L2278.72 1547.12 L2258.81 1547.12 L2258.81 1543.18 Z" fill="#000000" fill-rule="evenodd" fill-opacity="1" /><path clip-path="url(#clip990)" d="M2288.16 1541.24 L2293.05 1541.24 L2293.05 1547.12 L2288.16 1547.12 L2288.16 1541.24 Z" fill="#000000" fill-rule="evenodd" fill-opacity="1" /><path clip-path="url(#clip990)" d="M2313.23 1515.64 Q2309.62 1515.64 2307.79 1519.2 Q2305.99 1522.75 2305.99 1529.87 Q2305.99 1536.98 2307.79 1540.55 Q2309.62 1544.09 2313.23 1544.09 Q2316.87 1544.09 2318.67 1540.55 Q2320.5 1536.98 2320.5 1529.87 Q2320.5 1522.75 2318.67 1519.2 Q2316.87 1515.64 2313.23 1515.64 M2313.23 1511.93 Q2319.04 1511.93 2322.1 1516.54 Q2325.18 1521.12 2325.18 1529.87 Q2325.18 1538.6 2322.1 1543.21 Q2319.04 1547.79 2313.23 1547.79 Q2307.42 1547.79 2304.34 1543.21 Q2301.29 1538.6 2301.29 1529.87 Q2301.29 1521.12 2304.34 1516.54 Q2307.42 1511.93 2313.23 1511.93 Z" fill="#000000" fill-rule="evenodd" fill-opacity="1" /><polyline clip-path="url(#clip992)" style="stroke:#000000; stroke-linecap:butt; stroke-linejoin:round; stroke-width:2; stroke-opacity:0.1; fill:none" points="
  193.936,1445.72 2352.76,1445.72 
  "/>
<polyline clip-path="url(#clip992)" style="stroke:#000000; stroke-linecap:butt; stroke-linejoin:round; stroke-width:2; stroke-opacity:0.1; fill:none" points="
  193.936,1100.07 2352.76,1100.07 
  "/>
<polyline clip-path="url(#clip992)" style="stroke:#000000; stroke-linecap:butt; stroke-linejoin:round; stroke-width:2; stroke-opacity:0.1; fill:none" points="
  193.936,754.416 2352.76,754.416 
  "/>
<polyline clip-path="url(#clip992)" style="stroke:#000000; stroke-linecap:butt; stroke-linejoin:round; stroke-width:2; stroke-opacity:0.1; fill:none" points="
  193.936,408.762 2352.76,408.762 
  "/>
<polyline clip-path="url(#clip992)" style="stroke:#000000; stroke-linecap:butt; stroke-linejoin:round; stroke-width:2; stroke-opacity:0.1; fill:none" points="
  193.936,63.1083 2352.76,63.1083 
  "/>
<polyline clip-path="url(#clip990)" style="stroke:#000000; stroke-linecap:butt; stroke-linejoin:round; stroke-width:4; stroke-opacity:1; fill:none" points="
  193.936,1486.45 193.936,47.2441 
  "/>
<polyline clip-path="url(#clip990)" style="stroke:#000000; stroke-linecap:butt; stroke-linejoin:round; stroke-width:4; stroke-opacity:1; fill:none" points="
  193.936,1445.72 212.834,1445.72 
  "/>
<polyline clip-path="url(#clip990)" style="stroke:#000000; stroke-linecap:butt; stroke-linejoin:round; stroke-width:4; stroke-opacity:1; fill:none" points="
  193.936,1100.07 212.834,1100.07 
  "/>
<polyline clip-path="url(#clip990)" style="stroke:#000000; stroke-linecap:butt; stroke-linejoin:round; stroke-width:4; stroke-opacity:1; fill:none" points="
  193.936,754.416 212.834,754.416 
  "/>
<polyline clip-path="url(#clip990)" style="stroke:#000000; stroke-linecap:butt; stroke-linejoin:round; stroke-width:4; stroke-opacity:1; fill:none" points="
  193.936,408.762 212.834,408.762 
  "/>
<polyline clip-path="url(#clip990)" style="stroke:#000000; stroke-linecap:butt; stroke-linejoin:round; stroke-width:4; stroke-opacity:1; fill:none" points="
  193.936,63.1083 212.834,63.1083 
  "/>
<path clip-path="url(#clip990)" d="M50.9921 1446.18 L80.6679 1446.18 L80.6679 1450.11 L50.9921 1450.11 L50.9921 1446.18 Z" fill="#000000" fill-rule="evenodd" fill-opacity="1" /><path clip-path="url(#clip990)" d="M91.5706 1459.07 L99.2095 1459.07 L99.2095 1432.7 L90.8993 1434.37 L90.8993 1430.11 L99.1632 1428.44 L103.839 1428.44 L103.839 1459.07 L111.478 1459.07 L111.478 1463 L91.5706 1463 L91.5706 1459.07 Z" fill="#000000" fill-rule="evenodd" fill-opacity="1" /><path clip-path="url(#clip990)" d="M120.922 1457.12 L125.807 1457.12 L125.807 1463 L120.922 1463 L120.922 1457.12 Z" fill="#000000" fill-rule="evenodd" fill-opacity="1" /><path clip-path="url(#clip990)" d="M145.992 1431.52 Q142.381 1431.52 140.552 1435.09 Q138.746 1438.63 138.746 1445.76 Q138.746 1452.87 140.552 1456.43 Q142.381 1459.97 145.992 1459.97 Q149.626 1459.97 151.431 1456.43 Q153.26 1452.87 153.26 1445.76 Q153.26 1438.63 151.431 1435.09 Q149.626 1431.52 145.992 1431.52 M145.992 1427.82 Q151.802 1427.82 154.857 1432.43 Q157.936 1437.01 157.936 1445.76 Q157.936 1454.49 154.857 1459.09 Q151.802 1463.68 145.992 1463.68 Q140.181 1463.68 137.103 1459.09 Q134.047 1454.49 134.047 1445.76 Q134.047 1437.01 137.103 1432.43 Q140.181 1427.82 145.992 1427.82 Z" fill="#000000" fill-rule="evenodd" fill-opacity="1" /><path clip-path="url(#clip990)" d="M51.9875 1100.52 L81.6633 1100.52 L81.6633 1104.46 L51.9875 1104.46 L51.9875 1100.52 Z" fill="#000000" fill-rule="evenodd" fill-opacity="1" /><path clip-path="url(#clip990)" d="M101.756 1085.87 Q98.1447 1085.87 96.316 1089.43 Q94.5104 1092.98 94.5104 1100.1 Q94.5104 1107.21 96.316 1110.78 Q98.1447 1114.32 101.756 1114.32 Q105.39 1114.32 107.196 1110.78 Q109.024 1107.21 109.024 1100.1 Q109.024 1092.98 107.196 1089.43 Q105.39 1085.87 101.756 1085.87 M101.756 1082.17 Q107.566 1082.17 110.621 1086.77 Q113.7 1091.35 113.7 1100.1 Q113.7 1108.83 110.621 1113.44 Q107.566 1118.02 101.756 1118.02 Q95.9456 1118.02 92.8669 1113.44 Q89.8114 1108.83 89.8114 1100.1 Q89.8114 1091.35 92.8669 1086.77 Q95.9456 1082.17 101.756 1082.17 Z" fill="#000000" fill-rule="evenodd" fill-opacity="1" /><path clip-path="url(#clip990)" d="M121.918 1111.47 L126.802 1111.47 L126.802 1117.35 L121.918 1117.35 L121.918 1111.47 Z" fill="#000000" fill-rule="evenodd" fill-opacity="1" /><path clip-path="url(#clip990)" d="M137.033 1082.79 L155.39 1082.79 L155.39 1086.73 L141.316 1086.73 L141.316 1095.2 Q142.334 1094.85 143.353 1094.69 Q144.371 1094.5 145.39 1094.5 Q151.177 1094.5 154.556 1097.67 Q157.936 1100.85 157.936 1106.26 Q157.936 1111.84 154.464 1114.94 Q150.992 1118.02 144.672 1118.02 Q142.496 1118.02 140.228 1117.65 Q137.982 1117.28 135.575 1116.54 L135.575 1111.84 Q137.658 1112.98 139.881 1113.53 Q142.103 1114.09 144.58 1114.09 Q148.584 1114.09 150.922 1111.98 Q153.26 1109.87 153.26 1106.26 Q153.26 1102.65 150.922 1100.54 Q148.584 1098.44 144.58 1098.44 Q142.705 1098.44 140.83 1098.85 Q138.978 1099.27 137.033 1100.15 L137.033 1082.79 Z" fill="#000000" fill-rule="evenodd" fill-opacity="1" /><path clip-path="url(#clip990)" d="M100.76 740.215 Q97.1493 740.215 95.3206 743.78 Q93.515 747.321 93.515 754.451 Q93.515 761.557 95.3206 765.122 Q97.1493 768.664 100.76 768.664 Q104.395 768.664 106.2 765.122 Q108.029 761.557 108.029 754.451 Q108.029 747.321 106.2 743.78 Q104.395 740.215 100.76 740.215 M100.76 736.511 Q106.571 736.511 109.626 741.118 Q112.705 745.701 112.705 754.451 Q112.705 763.178 109.626 767.784 Q106.571 772.368 100.76 772.368 Q94.9502 772.368 91.8715 767.784 Q88.816 763.178 88.816 754.451 Q88.816 745.701 91.8715 741.118 Q94.9502 736.511 100.76 736.511 Z" fill="#000000" fill-rule="evenodd" fill-opacity="1" /><path clip-path="url(#clip990)" d="M120.922 765.817 L125.807 765.817 L125.807 771.696 L120.922 771.696 L120.922 765.817 Z" fill="#000000" fill-rule="evenodd" fill-opacity="1" /><path clip-path="url(#clip990)" d="M145.992 740.215 Q142.381 740.215 140.552 743.78 Q138.746 747.321 138.746 754.451 Q138.746 761.557 140.552 765.122 Q142.381 768.664 145.992 768.664 Q149.626 768.664 151.431 765.122 Q153.26 761.557 153.26 754.451 Q153.26 747.321 151.431 743.78 Q149.626 740.215 145.992 740.215 M145.992 736.511 Q151.802 736.511 154.857 741.118 Q157.936 745.701 157.936 754.451 Q157.936 763.178 154.857 767.784 Q151.802 772.368 145.992 772.368 Q140.181 772.368 137.103 767.784 Q134.047 763.178 134.047 754.451 Q134.047 745.701 137.103 741.118 Q140.181 736.511 145.992 736.511 Z" fill="#000000" fill-rule="evenodd" fill-opacity="1" /><path clip-path="url(#clip990)" d="M101.756 394.561 Q98.1447 394.561 96.316 398.126 Q94.5104 401.667 94.5104 408.797 Q94.5104 415.903 96.316 419.468 Q98.1447 423.01 101.756 423.01 Q105.39 423.01 107.196 419.468 Q109.024 415.903 109.024 408.797 Q109.024 401.667 107.196 398.126 Q105.39 394.561 101.756 394.561 M101.756 390.857 Q107.566 390.857 110.621 395.464 Q113.7 400.047 113.7 408.797 Q113.7 417.524 110.621 422.13 Q107.566 426.714 101.756 426.714 Q95.9456 426.714 92.8669 422.13 Q89.8114 417.524 89.8114 408.797 Q89.8114 400.047 92.8669 395.464 Q95.9456 390.857 101.756 390.857 Z" fill="#000000" fill-rule="evenodd" fill-opacity="1" /><path clip-path="url(#clip990)" d="M121.918 420.163 L126.802 420.163 L126.802 426.042 L121.918 426.042 L121.918 420.163 Z" fill="#000000" fill-rule="evenodd" fill-opacity="1" /><path clip-path="url(#clip990)" d="M137.033 391.482 L155.39 391.482 L155.39 395.417 L141.316 395.417 L141.316 403.89 Q142.334 403.542 143.353 403.38 Q144.371 403.195 145.39 403.195 Q151.177 403.195 154.556 406.366 Q157.936 409.538 157.936 414.954 Q157.936 420.533 154.464 423.635 Q150.992 426.714 144.672 426.714 Q142.496 426.714 140.228 426.343 Q137.982 425.973 135.575 425.232 L135.575 420.533 Q137.658 421.667 139.881 422.223 Q142.103 422.778 144.58 422.778 Q148.584 422.778 150.922 420.672 Q153.26 418.565 153.26 414.954 Q153.26 411.343 150.922 409.237 Q148.584 407.13 144.58 407.13 Q142.705 407.13 140.83 407.547 Q138.978 407.964 137.033 408.843 L137.033 391.482 Z" fill="#000000" fill-rule="evenodd" fill-opacity="1" /><path clip-path="url(#clip990)" d="M91.5706 76.4531 L99.2095 76.4531 L99.2095 50.0875 L90.8993 51.7542 L90.8993 47.4949 L99.1632 45.8283 L103.839 45.8283 L103.839 76.4531 L111.478 76.4531 L111.478 80.3883 L91.5706 80.3883 L91.5706 76.4531 Z" fill="#000000" fill-rule="evenodd" fill-opacity="1" /><path clip-path="url(#clip990)" d="M120.922 74.5087 L125.807 74.5087 L125.807 80.3883 L120.922 80.3883 L120.922 74.5087 Z" fill="#000000" fill-rule="evenodd" fill-opacity="1" /><path clip-path="url(#clip990)" d="M145.992 48.9069 Q142.381 48.9069 140.552 52.4717 Q138.746 56.0134 138.746 63.143 Q138.746 70.2494 140.552 73.8142 Q142.381 77.3559 145.992 77.3559 Q149.626 77.3559 151.431 73.8142 Q153.26 70.2494 153.26 63.143 Q153.26 56.0134 151.431 52.4717 Q149.626 48.9069 145.992 48.9069 M145.992 45.2033 Q151.802 45.2033 154.857 49.8097 Q157.936 54.393 157.936 63.143 Q157.936 71.8698 154.857 76.4762 Q151.802 81.0595 145.992 81.0595 Q140.181 81.0595 137.103 76.4762 Q134.047 71.8698 134.047 63.143 Q134.047 54.393 137.103 49.8097 Q140.181 45.2033 145.992 45.2033 Z" fill="#000000" fill-rule="evenodd" fill-opacity="1" /><polyline clip-path="url(#clip992)" style="stroke:#009af9; stroke-linecap:butt; stroke-linejoin:round; stroke-width:4; stroke-opacity:1; fill:none" points="
  255.035,1420.86 296.598,1416.54 338.162,1411.49 379.726,1405.6 421.29,1398.72 462.853,1390.72 504.417,1381.42 545.981,1370.63 587.544,1358.16 629.108,1343.77 
  670.672,1327.24 712.236,1308.31 753.799,1286.75 795.363,1262.29 836.927,1234.73 878.491,1203.85 920.054,1169.52 961.618,1131.67 1003.18,1090.29 1044.75,1045.5 
  1086.31,997.528 1127.87,946.728 1169.44,893.573 1211,838.646 1252.56,782.617 1294.13,726.215 1335.69,670.187 1377.26,615.26 1418.82,562.104 1460.38,511.305 
  1501.95,463.334 1543.51,418.545 1585.07,377.166 1626.64,339.308 1668.2,304.982 1709.77,274.107 1751.33,246.54 1792.89,222.086 1834.46,200.519 1876.02,181.594 
  1917.58,165.062 1959.15,150.677 2000.71,138.203 2042.27,127.417 2083.84,118.115 2125.4,110.111 2166.97,103.236 2208.53,97.3413 2250.09,92.2935 2291.66,87.9763 
  
  "/>
<polyline clip-path="url(#clip992)" style="stroke:#e26f46; stroke-linecap:butt; stroke-linejoin:round; stroke-width:4; stroke-opacity:1; fill:none" points="
  255.035,1434.44 296.598,1432.46 338.162,1430.13 379.726,1427.4 421.29,1424.2 462.853,1420.45 504.417,1416.07 545.981,1410.94 587.544,1404.96 629.108,1397.97 
  670.672,1389.85 712.236,1380.41 753.799,1369.46 795.363,1356.81 836.927,1342.22 878.491,1325.46 920.054,1306.28 961.618,1284.43 1003.18,1259.68 1044.75,1231.79 
  1086.31,1200.58 1127.87,1165.9 1169.44,1127.69 1211,1085.96 1252.56,1040.84 1294.13,992.568 1335.69,941.51 1377.26,888.149 1418.82,833.081 1460.38,776.982 
  1501.95,720.583 1543.51,664.633 1585.07,609.854 1626.64,556.91 1668.2,506.374 1709.77,458.707 1751.33,414.251 1792.89,373.221 1834.46,335.718 1876.02,301.741 
  1917.58,271.205 1959.15,243.959 2000.71,219.804 2042.27,198.512 2083.84,179.837 2125.4,163.531 2166.97,149.347 2208.53,137.052 2250.09,126.423 2291.66,117.259 
  
  "/>
<polyline clip-path="url(#clip992)" style="stroke:#3da44d; stroke-linecap:butt; stroke-linejoin:round; stroke-width:4; stroke-opacity:1; fill:none" points="
  255.035,1440.63 296.598,1439.73 338.162,1438.67 379.726,1437.43 421.29,1435.97 462.853,1434.25 504.417,1432.24 545.981,1429.88 587.544,1427.1 629.108,1423.85 
  670.672,1420.05 712.236,1415.59 753.799,1410.38 795.363,1404.3 836.927,1397.22 878.491,1388.97 920.054,1379.38 961.618,1368.28 1003.18,1355.44 1044.75,1340.64 
  1086.31,1323.65 1127.87,1304.22 1169.44,1282.09 1211,1257.03 1252.56,1228.82 1294.13,1197.27 1335.69,1162.24 1377.26,1123.67 1418.82,1081.6 1460.38,1036.15 
  1501.95,987.581 1543.51,936.268 1585.07,882.709 1626.64,827.505 1668.2,771.343 1709.77,714.956 1751.33,659.091 1792.89,604.467 1834.46,551.739 1876.02,501.471 
  1917.58,454.113 1959.15,409.991 2000.71,369.311 2042.27,332.162 2083.84,298.534 2125.4,268.335 2166.97,241.408 2208.53,217.55 2250.09,196.531 2291.66,178.104 
  
  "/>
<polyline clip-path="url(#clip992)" style="stroke:#c271d2; stroke-linecap:butt; stroke-linejoin:round; stroke-width:4; stroke-opacity:1; fill:none" points="
  255.035,1443.43 296.598,1443.02 338.162,1442.55 379.726,1441.99 421.29,1441.32 462.853,1440.55 504.417,1439.63 545.981,1438.56 587.544,1437.29 629.108,1435.81 
  670.672,1434.07 712.236,1432.02 753.799,1429.62 795.363,1426.8 836.927,1423.5 878.491,1419.63 920.054,1415.11 961.618,1409.82 1003.18,1403.64 1044.75,1396.45 
  1086.31,1388.07 1127.87,1378.34 1169.44,1367.07 1211,1354.05 1252.56,1339.05 1294.13,1321.82 1335.69,1302.13 1377.26,1279.72 1418.82,1254.36 1460.38,1225.82 
  1501.95,1193.92 1543.51,1158.54 1585.07,1119.62 1626.64,1077.2 1668.2,1031.43 1709.77,982.566 1751.33,931.004 1792.89,877.252 1834.46,821.92 1876.02,765.702 
  1917.58,709.334 1959.15,653.561 2000.71,599.098 2042.27,546.593 2083.84,496.598 2125.4,449.551 2166.97,405.766 2208.53,365.436 2250.09,328.642 2291.66,295.362 
  
  "/>
<polyline clip-path="url(#clip992)" style="stroke:#ac8d18; stroke-linecap:butt; stroke-linejoin:round; stroke-width:4; stroke-opacity:1; fill:none" points="
  255.035,1444.69 296.598,1444.51 338.162,1444.29 379.726,1444.04 421.29,1443.74 462.853,1443.39 504.417,1442.98 545.981,1442.49 587.544,1441.92 629.108,1441.25 
  670.672,1440.46 712.236,1439.53 753.799,1438.44 795.363,1437.16 836.927,1435.65 878.491,1433.88 920.054,1431.8 961.618,1429.36 1003.18,1426.49 1044.75,1423.14 
  1086.31,1419.21 1127.87,1414.61 1169.44,1409.24 1211,1402.97 1252.56,1395.66 1294.13,1387.16 1335.69,1377.29 1377.26,1365.85 1418.82,1352.64 1460.38,1337.43 
  1501.95,1319.97 1543.51,1300.02 1585.07,1277.32 1626.64,1251.65 1668.2,1222.78 1709.77,1190.54 1751.33,1154.81 1792.89,1115.53 1834.46,1072.77 1876.02,1026.67 
  1917.58,977.523 1959.15,925.718 2000.71,871.779 2042.27,816.327 2083.84,760.059 2125.4,703.717 2166.97,648.045 2208.53,593.75 2250.09,541.473 2291.66,491.754 
  
  "/>
<polyline clip-path="url(#clip992)" style="stroke:#00a9ad; stroke-linecap:butt; stroke-linejoin:round; stroke-width:4; stroke-opacity:1; fill:none" points="
  255.035,1445.26 296.598,1445.18 338.162,1445.08 379.726,1444.97 421.29,1444.83 462.853,1444.68 504.417,1444.49 545.981,1444.27 587.544,1444.01 629.108,1443.71 
  670.672,1443.35 712.236,1442.94 753.799,1442.44 795.363,1441.86 836.927,1441.18 878.491,1440.38 920.054,1439.43 961.618,1438.32 1003.18,1437.02 1044.75,1435.48 
  1086.31,1433.68 1127.87,1431.57 1169.44,1429.09 1211,1426.18 1252.56,1422.77 1294.13,1418.78 1335.69,1414.11 1377.26,1408.66 1418.82,1402.29 1460.38,1394.87 
  1501.95,1386.24 1543.51,1376.22 1585.07,1364.62 1626.64,1351.22 1668.2,1335.79 1709.77,1318.09 1751.33,1297.88 1792.89,1274.89 1834.46,1248.91 1876.02,1219.71 
  1917.58,1187.13 1959.15,1151.04 2000.71,1111.41 2042.27,1068.31 2083.84,1021.89 2125.4,972.455 2166.97,920.411 2208.53,866.291 2250.09,810.725 2291.66,754.416 
  
  "/>
<polyline clip-path="url(#clip992)" style="stroke:#ed5d92; stroke-linecap:butt; stroke-linejoin:round; stroke-width:4; stroke-opacity:1; fill:none" points="
  255.035,1445.52 296.598,1445.48 338.162,1445.44 379.726,1445.38 421.29,1445.32 462.853,1445.25 504.417,1445.17 545.981,1445.07 587.544,1444.96 629.108,1444.82 
  670.672,1444.66 712.236,1444.47 753.799,1444.25 795.363,1443.99 836.927,1443.68 878.491,1443.32 920.054,1442.89 961.618,1442.39 1003.18,1441.8 1044.75,1441.1 
  1086.31,1440.29 1127.87,1439.33 1169.44,1438.2 1211,1436.87 1252.56,1435.32 1294.13,1433.49 1335.69,1431.34 1377.26,1428.82 1418.82,1425.86 1460.38,1422.4 
  1501.95,1418.35 1543.51,1413.61 1585.07,1408.06 1626.64,1401.6 1668.2,1394.06 1709.77,1385.3 1751.33,1375.13 1792.89,1363.36 1834.46,1349.77 1876.02,1334.12 
  1917.58,1316.19 1959.15,1295.71 2000.71,1272.43 2042.27,1246.14 2083.84,1216.61 2125.4,1183.68 2166.97,1147.23 2208.53,1107.26 2250.09,1063.81 2291.66,1017.08 
  
  "/>
<polyline clip-path="url(#clip992)" style="stroke:#c68125; stroke-linecap:butt; stroke-linejoin:round; stroke-width:4; stroke-opacity:1; fill:none" points="
  255.035,1445.63 296.598,1445.61 338.162,1445.59 379.726,1445.57 421.29,1445.54 462.853,1445.51 504.417,1445.47 545.981,1445.43 587.544,1445.38 629.108,1445.32 
  670.672,1445.25 712.236,1445.16 753.799,1445.06 795.363,1444.94 836.927,1444.8 878.491,1444.64 920.054,1444.45 961.618,1444.22 1003.18,1443.96 1044.75,1443.64 
  1086.31,1443.28 1127.87,1442.84 1169.44,1442.33 1211,1441.73 1252.56,1441.03 1294.13,1440.2 1335.69,1439.22 1377.26,1438.08 1418.82,1436.73 1460.38,1435.15 
  1501.95,1433.29 1543.51,1431.11 1585.07,1428.54 1626.64,1425.54 1668.2,1422.02 1709.77,1417.91 1751.33,1413.09 1792.89,1407.46 1834.46,1400.9 1876.02,1393.25 
  1917.58,1384.35 1959.15,1374.03 2000.71,1362.09 2042.27,1348.3 2083.84,1332.44 2125.4,1314.26 2166.97,1293.51 2208.53,1269.95 2250.09,1243.33 2291.66,1213.47 
  
  "/>
<polyline clip-path="url(#clip992)" style="stroke:#00a98d; stroke-linecap:butt; stroke-linejoin:round; stroke-width:4; stroke-opacity:1; fill:none" points="
  255.035,1445.68 296.598,1445.67 338.162,1445.67 379.726,1445.66 421.29,1445.64 462.853,1445.63 504.417,1445.61 545.981,1445.59 587.544,1445.57 629.108,1445.54 
  670.672,1445.51 712.236,1445.47 753.799,1445.43 795.363,1445.37 836.927,1445.31 878.491,1445.24 920.054,1445.15 961.618,1445.05 1003.18,1444.93 1044.75,1444.79 
  1086.31,1444.62 1127.87,1444.43 1169.44,1444.2 1211,1443.93 1252.56,1443.61 1294.13,1443.24 1335.69,1442.8 1377.26,1442.28 1418.82,1441.67 1460.38,1440.95 
  1501.95,1440.11 1543.51,1439.12 1585.07,1437.95 1626.64,1436.58 1668.2,1434.97 1709.77,1433.08 1751.33,1430.87 1792.89,1428.27 1834.46,1425.22 1876.02,1421.64 
  1917.58,1417.46 1959.15,1412.56 2000.71,1406.85 2042.27,1400.18 2083.84,1392.42 2125.4,1383.39 2166.97,1372.92 2208.53,1360.8 2250.09,1346.81 2291.66,1330.73 
  
  "/>
<polyline clip-path="url(#clip992)" style="stroke:#8e971d; stroke-linecap:butt; stroke-linejoin:round; stroke-width:4; stroke-opacity:1; fill:none" points="
  255.035,1445.71 296.598,1445.7 338.162,1445.7 379.726,1445.69 421.29,1445.69 462.853,1445.68 504.417,1445.67 545.981,1445.66 587.544,1445.65 629.108,1445.64 
  670.672,1445.63 712.236,1445.61 753.799,1445.59 795.363,1445.57 836.927,1445.54 878.491,1445.51 920.054,1445.47 961.618,1445.42 1003.18,1445.37 1044.75,1445.3 
  1086.31,1445.23 1127.87,1445.14 1169.44,1445.04 1211,1444.92 1252.56,1444.77 1294.13,1444.61 1335.69,1444.41 1377.26,1444.17 1418.82,1443.9 1460.38,1443.58 
  1501.95,1443.2 1543.51,1442.75 1585.07,1442.22 1626.64,1441.6 1668.2,1440.87 1709.77,1440.02 1751.33,1439.01 1792.89,1437.82 1834.46,1436.43 1876.02,1434.8 
  1917.58,1432.88 1959.15,1430.63 2000.71,1427.98 2042.27,1424.88 2083.84,1421.25 2125.4,1417 2166.97,1412.03 2208.53,1406.23 2250.09,1399.46 2291.66,1391.57 
  
  "/>
<polyline clip-path="url(#clip992)" style="stroke:#00a8cb; stroke-linecap:butt; stroke-linejoin:round; stroke-width:4; stroke-opacity:1; fill:none" points="
  255.035,1445.72 296.598,1445.71 338.162,1445.71 379.726,1445.71 421.29,1445.71 462.853,1445.7 504.417,1445.7 545.981,1445.7 587.544,1445.69 629.108,1445.69 
  670.672,1445.68 712.236,1445.67 753.799,1445.66 795.363,1445.65 836.927,1445.64 878.491,1445.63 920.054,1445.61 961.618,1445.59 1003.18,1445.56 1044.75,1445.54 
  1086.31,1445.5 1127.87,1445.46 1169.44,1445.42 1211,1445.36 1252.56,1445.3 1294.13,1445.22 1335.69,1445.13 1377.26,1445.03 1418.82,1444.9 1460.38,1444.76 
  1501.95,1444.59 1543.51,1444.39 1585.07,1444.15 1626.64,1443.87 1668.2,1443.54 1709.77,1443.15 1751.33,1442.7 1792.89,1442.16 1834.46,1441.53 1876.02,1440.79 
  1917.58,1439.92 1959.15,1438.9 2000.71,1437.7 2042.27,1436.28 2083.84,1434.62 2125.4,1432.67 2166.97,1430.38 2208.53,1427.69 2250.09,1424.54 2291.66,1420.86 
  
  "/>
<path clip-path="url(#clip990)" d="
M1957.11 717.298 L2280.8 717.298 L2280.8 95.2176 L1957.11 95.2176  Z
  " fill="#ffffff" fill-rule="evenodd" fill-opacity="1"/>
<polyline clip-path="url(#clip990)" style="stroke:#000000; stroke-linecap:butt; stroke-linejoin:round; stroke-width:4; stroke-opacity:1; fill:none" points="
  1957.11,717.298 2280.8,717.298 2280.8,95.2176 1957.11,95.2176 1957.11,717.298 
  "/>
<polyline clip-path="url(#clip990)" style="stroke:#009af9; stroke-linecap:butt; stroke-linejoin:round; stroke-width:4; stroke-opacity:1; fill:none" points="
  1981.09,147.058 2125.02,147.058 
  "/>
<path clip-path="url(#clip990)" d="M2162.84 166.745 Q2161.04 171.375 2159.33 172.787 Q2157.61 174.199 2154.74 174.199 L2151.34 174.199 L2151.34 170.634 L2153.84 170.634 Q2155.6 170.634 2156.57 169.8 Q2157.54 168.967 2158.72 165.865 L2159.49 163.921 L2149 138.412 L2153.52 138.412 L2161.62 158.689 L2169.72 138.412 L2174.23 138.412 L2162.84 166.745 Z" fill="#000000" fill-rule="evenodd" fill-opacity="1" /><path clip-path="url(#clip990)" d="M2181.53 160.402 L2189.16 160.402 L2189.16 134.037 L2180.85 135.703 L2180.85 131.444 L2189.12 129.778 L2193.79 129.778 L2193.79 160.402 L2201.43 160.402 L2201.43 164.338 L2181.53 164.338 L2181.53 160.402 Z" fill="#000000" fill-rule="evenodd" fill-opacity="1" /><polyline clip-path="url(#clip990)" style="stroke:#e26f46; stroke-linecap:butt; stroke-linejoin:round; stroke-width:4; stroke-opacity:1; fill:none" points="
  1981.09,198.898 2125.02,198.898 
  "/>
<path clip-path="url(#clip990)" d="M2162.84 218.585 Q2161.04 223.215 2159.33 224.627 Q2157.61 226.039 2154.74 226.039 L2151.34 226.039 L2151.34 222.474 L2153.84 222.474 Q2155.6 222.474 2156.57 221.64 Q2157.54 220.807 2158.72 217.705 L2159.49 215.761 L2149 190.252 L2153.52 190.252 L2161.62 210.529 L2169.72 190.252 L2174.23 190.252 L2162.84 218.585 Z" fill="#000000" fill-rule="evenodd" fill-opacity="1" /><path clip-path="url(#clip990)" d="M2184.74 212.242 L2201.06 212.242 L2201.06 216.178 L2179.12 216.178 L2179.12 212.242 Q2181.78 209.488 2186.36 204.858 Q2190.97 200.205 2192.15 198.863 Q2194.4 196.34 2195.28 194.604 Q2196.18 192.844 2196.18 191.155 Q2196.18 188.4 2194.23 186.664 Q2192.31 184.928 2189.21 184.928 Q2187.01 184.928 2184.56 185.692 Q2182.13 186.455 2179.35 188.006 L2179.35 183.284 Q2182.17 182.15 2184.63 181.571 Q2187.08 180.993 2189.12 180.993 Q2194.49 180.993 2197.68 183.678 Q2200.88 186.363 2200.88 190.854 Q2200.88 192.983 2200.07 194.905 Q2199.28 196.803 2197.17 199.395 Q2196.59 200.067 2193.49 203.284 Q2190.39 206.479 2184.74 212.242 Z" fill="#000000" fill-rule="evenodd" fill-opacity="1" /><polyline clip-path="url(#clip990)" style="stroke:#3da44d; stroke-linecap:butt; stroke-linejoin:round; stroke-width:4; stroke-opacity:1; fill:none" points="
  1981.09,250.738 2125.02,250.738 
  "/>
<path clip-path="url(#clip990)" d="M2162.84 270.425 Q2161.04 275.055 2159.33 276.467 Q2157.61 277.879 2154.74 277.879 L2151.34 277.879 L2151.34 274.314 L2153.84 274.314 Q2155.6 274.314 2156.57 273.48 Q2157.54 272.647 2158.72 269.545 L2159.49 267.601 L2149 242.092 L2153.52 242.092 L2161.62 262.369 L2169.72 242.092 L2174.23 242.092 L2162.84 270.425 Z" fill="#000000" fill-rule="evenodd" fill-opacity="1" /><path clip-path="url(#clip990)" d="M2194.88 249.383 Q2198.24 250.101 2200.11 252.369 Q2202.01 254.638 2202.01 257.971 Q2202.01 263.087 2198.49 265.888 Q2194.97 268.689 2188.49 268.689 Q2186.32 268.689 2184 268.249 Q2181.71 267.832 2179.26 266.976 L2179.26 262.462 Q2181.2 263.596 2183.52 264.175 Q2185.83 264.754 2188.35 264.754 Q2192.75 264.754 2195.04 263.018 Q2197.36 261.281 2197.36 257.971 Q2197.36 254.916 2195.21 253.203 Q2193.08 251.467 2189.26 251.467 L2185.23 251.467 L2185.23 247.624 L2189.44 247.624 Q2192.89 247.624 2194.72 246.258 Q2196.55 244.87 2196.55 242.277 Q2196.55 239.615 2194.65 238.203 Q2192.78 236.768 2189.26 236.768 Q2187.34 236.768 2185.14 237.184 Q2182.94 237.601 2180.3 238.481 L2180.3 234.314 Q2182.96 233.573 2185.28 233.203 Q2187.61 232.833 2189.67 232.833 Q2195 232.833 2198.1 235.263 Q2201.2 237.67 2201.2 241.791 Q2201.2 244.661 2199.56 246.652 Q2197.91 248.62 2194.88 249.383 Z" fill="#000000" fill-rule="evenodd" fill-opacity="1" /><polyline clip-path="url(#clip990)" style="stroke:#c271d2; stroke-linecap:butt; stroke-linejoin:round; stroke-width:4; stroke-opacity:1; fill:none" points="
  1981.09,302.578 2125.02,302.578 
  "/>
<path clip-path="url(#clip990)" d="M2162.84 322.265 Q2161.04 326.895 2159.33 328.307 Q2157.61 329.719 2154.74 329.719 L2151.34 329.719 L2151.34 326.154 L2153.84 326.154 Q2155.6 326.154 2156.57 325.32 Q2157.54 324.487 2158.72 321.385 L2159.49 319.441 L2149 293.932 L2153.52 293.932 L2161.62 314.209 L2169.72 293.932 L2174.23 293.932 L2162.84 322.265 Z" fill="#000000" fill-rule="evenodd" fill-opacity="1" /><path clip-path="url(#clip990)" d="M2193.56 289.372 L2181.76 307.821 L2193.56 307.821 L2193.56 289.372 M2192.34 285.298 L2198.22 285.298 L2198.22 307.821 L2203.15 307.821 L2203.15 311.709 L2198.22 311.709 L2198.22 319.858 L2193.56 319.858 L2193.56 311.709 L2177.96 311.709 L2177.96 307.196 L2192.34 285.298 Z" fill="#000000" fill-rule="evenodd" fill-opacity="1" /><polyline clip-path="url(#clip990)" style="stroke:#ac8d18; stroke-linecap:butt; stroke-linejoin:round; stroke-width:4; stroke-opacity:1; fill:none" points="
  1981.09,354.418 2125.02,354.418 
  "/>
<path clip-path="url(#clip990)" d="M2162.84 374.105 Q2161.04 378.735 2159.33 380.147 Q2157.61 381.559 2154.74 381.559 L2151.34 381.559 L2151.34 377.994 L2153.84 377.994 Q2155.6 377.994 2156.57 377.16 Q2157.54 376.327 2158.72 373.225 L2159.49 371.281 L2149 345.772 L2153.52 345.772 L2161.62 366.049 L2169.72 345.772 L2174.23 345.772 L2162.84 374.105 Z" fill="#000000" fill-rule="evenodd" fill-opacity="1" /><path clip-path="url(#clip990)" d="M2180.76 337.138 L2199.12 337.138 L2199.12 341.073 L2185.04 341.073 L2185.04 349.545 Q2186.06 349.198 2187.08 349.036 Q2188.1 348.85 2189.12 348.85 Q2194.91 348.85 2198.28 352.022 Q2201.66 355.193 2201.66 360.61 Q2201.66 366.188 2198.19 369.29 Q2194.72 372.369 2188.4 372.369 Q2186.22 372.369 2183.96 371.998 Q2181.71 371.628 2179.3 370.887 L2179.3 366.188 Q2181.39 367.323 2183.61 367.878 Q2185.83 368.434 2188.31 368.434 Q2192.31 368.434 2194.65 366.327 Q2196.99 364.221 2196.99 360.61 Q2196.99 356.999 2194.65 354.892 Q2192.31 352.786 2188.31 352.786 Q2186.43 352.786 2184.56 353.202 Q2182.71 353.619 2180.76 354.499 L2180.76 337.138 Z" fill="#000000" fill-rule="evenodd" fill-opacity="1" /><polyline clip-path="url(#clip990)" style="stroke:#00a9ad; stroke-linecap:butt; stroke-linejoin:round; stroke-width:4; stroke-opacity:1; fill:none" points="
  1981.09,406.258 2125.02,406.258 
  "/>
<path clip-path="url(#clip990)" d="M2162.84 425.945 Q2161.04 430.575 2159.33 431.987 Q2157.61 433.399 2154.74 433.399 L2151.34 433.399 L2151.34 429.834 L2153.84 429.834 Q2155.6 429.834 2156.57 429 Q2157.54 428.167 2158.72 425.065 L2159.49 423.121 L2149 397.612 L2153.52 397.612 L2161.62 417.889 L2169.72 397.612 L2174.23 397.612 L2162.84 425.945 Z" fill="#000000" fill-rule="evenodd" fill-opacity="1" /><path clip-path="url(#clip990)" d="M2191.29 404.394 Q2188.15 404.394 2186.29 406.547 Q2184.47 408.7 2184.47 412.45 Q2184.47 416.176 2186.29 418.352 Q2188.15 420.505 2191.29 420.505 Q2194.44 420.505 2196.27 418.352 Q2198.12 416.176 2198.12 412.45 Q2198.12 408.7 2196.27 406.547 Q2194.44 404.394 2191.29 404.394 M2200.58 389.741 L2200.58 394.001 Q2198.82 393.167 2197.01 392.728 Q2195.23 392.288 2193.47 392.288 Q2188.84 392.288 2186.39 395.413 Q2183.96 398.538 2183.61 404.857 Q2184.97 402.843 2187.03 401.778 Q2189.09 400.69 2191.57 400.69 Q2196.78 400.69 2199.79 403.862 Q2202.82 407.01 2202.82 412.45 Q2202.82 417.774 2199.67 420.991 Q2196.53 424.209 2191.29 424.209 Q2185.3 424.209 2182.13 419.626 Q2178.96 415.019 2178.96 406.292 Q2178.96 398.098 2182.84 393.237 Q2186.73 388.353 2193.28 388.353 Q2195.04 388.353 2196.83 388.7 Q2198.63 389.047 2200.58 389.741 Z" fill="#000000" fill-rule="evenodd" fill-opacity="1" /><polyline clip-path="url(#clip990)" style="stroke:#ed5d92; stroke-linecap:butt; stroke-linejoin:round; stroke-width:4; stroke-opacity:1; fill:none" points="
  1981.09,458.098 2125.02,458.098 
  "/>
<path clip-path="url(#clip990)" d="M2162.84 477.785 Q2161.04 482.415 2159.33 483.827 Q2157.61 485.239 2154.74 485.239 L2151.34 485.239 L2151.34 481.674 L2153.84 481.674 Q2155.6 481.674 2156.57 480.84 Q2157.54 480.007 2158.72 476.905 L2159.49 474.961 L2149 449.452 L2153.52 449.452 L2161.62 469.729 L2169.72 449.452 L2174.23 449.452 L2162.84 477.785 Z" fill="#000000" fill-rule="evenodd" fill-opacity="1" /><path clip-path="url(#clip990)" d="M2179.53 440.818 L2201.76 440.818 L2201.76 442.808 L2189.21 475.378 L2184.33 475.378 L2196.13 444.753 L2179.53 444.753 L2179.53 440.818 Z" fill="#000000" fill-rule="evenodd" fill-opacity="1" /><polyline clip-path="url(#clip990)" style="stroke:#c68125; stroke-linecap:butt; stroke-linejoin:round; stroke-width:4; stroke-opacity:1; fill:none" points="
  1981.09,509.938 2125.02,509.938 
  "/>
<path clip-path="url(#clip990)" d="M2162.84 529.625 Q2161.04 534.255 2159.33 535.667 Q2157.61 537.079 2154.74 537.079 L2151.34 537.079 L2151.34 533.514 L2153.84 533.514 Q2155.6 533.514 2156.57 532.68 Q2157.54 531.847 2158.72 528.745 L2159.49 526.801 L2149 501.292 L2153.52 501.292 L2161.62 521.569 L2169.72 501.292 L2174.23 501.292 L2162.84 529.625 Z" fill="#000000" fill-rule="evenodd" fill-opacity="1" /><path clip-path="url(#clip990)" d="M2190.72 510.806 Q2187.38 510.806 2185.46 512.588 Q2183.56 514.37 2183.56 517.495 Q2183.56 520.62 2185.46 522.403 Q2187.38 524.185 2190.72 524.185 Q2194.05 524.185 2195.97 522.403 Q2197.89 520.597 2197.89 517.495 Q2197.89 514.37 2195.97 512.588 Q2194.07 510.806 2190.72 510.806 M2186.04 508.815 Q2183.03 508.074 2181.34 506.014 Q2179.67 503.954 2179.67 500.991 Q2179.67 496.847 2182.61 494.44 Q2185.58 492.033 2190.72 492.033 Q2195.88 492.033 2198.82 494.44 Q2201.76 496.847 2201.76 500.991 Q2201.76 503.954 2200.07 506.014 Q2198.4 508.074 2195.41 508.815 Q2198.79 509.602 2200.67 511.894 Q2202.57 514.185 2202.57 517.495 Q2202.57 522.519 2199.49 525.204 Q2196.43 527.889 2190.72 527.889 Q2185 527.889 2181.92 525.204 Q2178.86 522.519 2178.86 517.495 Q2178.86 514.185 2180.76 511.894 Q2182.66 509.602 2186.04 508.815 M2184.33 501.431 Q2184.33 504.116 2185.99 505.62 Q2187.68 507.125 2190.72 507.125 Q2193.72 507.125 2195.41 505.62 Q2197.13 504.116 2197.13 501.431 Q2197.13 498.745 2195.41 497.241 Q2193.72 495.736 2190.72 495.736 Q2187.68 495.736 2185.99 497.241 Q2184.33 498.745 2184.33 501.431 Z" fill="#000000" fill-rule="evenodd" fill-opacity="1" /><polyline clip-path="url(#clip990)" style="stroke:#00a98d; stroke-linecap:butt; stroke-linejoin:round; stroke-width:4; stroke-opacity:1; fill:none" points="
  1981.09,561.778 2125.02,561.778 
  "/>
<path clip-path="url(#clip990)" d="M2162.84 581.465 Q2161.04 586.095 2159.33 587.507 Q2157.61 588.919 2154.74 588.919 L2151.34 588.919 L2151.34 585.354 L2153.84 585.354 Q2155.6 585.354 2156.57 584.52 Q2157.54 583.687 2158.72 580.585 L2159.49 578.641 L2149 553.132 L2153.52 553.132 L2161.62 573.409 L2169.72 553.132 L2174.23 553.132 L2162.84 581.465 Z" fill="#000000" fill-rule="evenodd" fill-opacity="1" /><path clip-path="url(#clip990)" d="M2180.85 578.34 L2180.85 574.081 Q2182.61 574.914 2184.42 575.354 Q2186.22 575.794 2187.96 575.794 Q2192.59 575.794 2195.02 572.692 Q2197.47 569.567 2197.82 563.224 Q2196.48 565.215 2194.42 566.28 Q2192.36 567.345 2189.86 567.345 Q2184.67 567.345 2181.64 564.22 Q2178.63 561.072 2178.63 555.632 Q2178.63 550.308 2181.78 547.09 Q2184.93 543.873 2190.16 543.873 Q2196.15 543.873 2199.3 548.479 Q2202.47 553.062 2202.47 561.812 Q2202.47 569.984 2198.59 574.868 Q2194.72 579.729 2188.17 579.729 Q2186.41 579.729 2184.6 579.382 Q2182.8 579.034 2180.85 578.34 M2190.16 563.687 Q2193.31 563.687 2195.14 561.534 Q2196.99 559.382 2196.99 555.632 Q2196.99 551.905 2195.14 549.752 Q2193.31 547.576 2190.16 547.576 Q2187.01 547.576 2185.16 549.752 Q2183.33 551.905 2183.33 555.632 Q2183.33 559.382 2185.16 561.534 Q2187.01 563.687 2190.16 563.687 Z" fill="#000000" fill-rule="evenodd" fill-opacity="1" /><polyline clip-path="url(#clip990)" style="stroke:#8e971d; stroke-linecap:butt; stroke-linejoin:round; stroke-width:4; stroke-opacity:1; fill:none" points="
  1981.09,613.618 2125.02,613.618 
  "/>
<path clip-path="url(#clip990)" d="M2162.84 633.305 Q2161.04 637.935 2159.33 639.347 Q2157.61 640.759 2154.74 640.759 L2151.34 640.759 L2151.34 637.194 L2153.84 637.194 Q2155.6 637.194 2156.57 636.36 Q2157.54 635.527 2158.72 632.425 L2159.49 630.481 L2149 604.972 L2153.52 604.972 L2161.62 625.249 L2169.72 604.972 L2174.23 604.972 L2162.84 633.305 Z" fill="#000000" fill-rule="evenodd" fill-opacity="1" /><path clip-path="url(#clip990)" d="M2181.53 626.962 L2189.16 626.962 L2189.16 600.597 L2180.85 602.263 L2180.85 598.004 L2189.12 596.338 L2193.79 596.338 L2193.79 626.962 L2201.43 626.962 L2201.43 630.898 L2181.53 630.898 L2181.53 626.962 Z" fill="#000000" fill-rule="evenodd" fill-opacity="1" /><path clip-path="url(#clip990)" d="M2220.88 599.416 Q2217.27 599.416 2215.44 602.981 Q2213.63 606.523 2213.63 613.652 Q2213.63 620.759 2215.44 624.324 Q2217.27 627.865 2220.88 627.865 Q2224.51 627.865 2226.32 624.324 Q2228.15 620.759 2228.15 613.652 Q2228.15 606.523 2226.32 602.981 Q2224.51 599.416 2220.88 599.416 M2220.88 595.713 Q2226.69 595.713 2229.74 600.319 Q2232.82 604.902 2232.82 613.652 Q2232.82 622.379 2229.74 626.986 Q2226.69 631.569 2220.88 631.569 Q2215.07 631.569 2211.99 626.986 Q2208.93 622.379 2208.93 613.652 Q2208.93 604.902 2211.99 600.319 Q2215.07 595.713 2220.88 595.713 Z" fill="#000000" fill-rule="evenodd" fill-opacity="1" /><polyline clip-path="url(#clip990)" style="stroke:#00a8cb; stroke-linecap:butt; stroke-linejoin:round; stroke-width:4; stroke-opacity:1; fill:none" points="
  1981.09,665.458 2125.02,665.458 
  "/>
<path clip-path="url(#clip990)" d="M2162.84 685.145 Q2161.04 689.775 2159.33 691.187 Q2157.61 692.599 2154.74 692.599 L2151.34 692.599 L2151.34 689.034 L2153.84 689.034 Q2155.6 689.034 2156.57 688.2 Q2157.54 687.367 2158.72 684.265 L2159.49 682.321 L2149 656.812 L2153.52 656.812 L2161.62 677.089 L2169.72 656.812 L2174.23 656.812 L2162.84 685.145 Z" fill="#000000" fill-rule="evenodd" fill-opacity="1" /><path clip-path="url(#clip990)" d="M2181.53 678.802 L2189.16 678.802 L2189.16 652.437 L2180.85 654.103 L2180.85 649.844 L2189.12 648.178 L2193.79 648.178 L2193.79 678.802 L2201.43 678.802 L2201.43 682.738 L2181.53 682.738 L2181.53 678.802 Z" fill="#000000" fill-rule="evenodd" fill-opacity="1" /><path clip-path="url(#clip990)" d="M2211.69 678.802 L2219.33 678.802 L2219.33 652.437 L2211.02 654.103 L2211.02 649.844 L2219.28 648.178 L2223.96 648.178 L2223.96 678.802 L2231.59 678.802 L2231.59 682.738 L2211.69 682.738 L2211.69 678.802 Z" fill="#000000" fill-rule="evenodd" fill-opacity="1" /></svg>
