<?xml version="1.0" encoding="utf-8"?>
<svg xmlns="http://www.w3.org/2000/svg" xmlns:xlink="http://www.w3.org/1999/xlink" width="600" height="400" viewBox="0 0 2400 1600">
<defs>
  <clipPath id="clip870">
    <rect x="0" y="0" width="2400" height="1600"/>
  </clipPath>
</defs>
<path clip-path="url(#clip870)" d="
M0 1600 L2400 1600 L2400 0 L0 0  Z
  " fill="#ffffff" fill-rule="evenodd" fill-opacity="1"/>
<defs>
  <clipPath id="clip871">
    <rect x="480" y="0" width="1681" height="1600"/>
  </clipPath>
</defs>
<path clip-path="url(#clip870)" d="
M186.274 1486.45 L2352.76 1486.45 L2352.76 47.2441 L186.274 47.2441  Z
  " fill="#ffffff" fill-rule="evenodd" fill-opacity="1"/>
<defs>
  <clipPath id="clip872">
    <rect x="186" y="47" width="2167" height="1440"/>
  </clipPath>
</defs>
<polyline clip-path="url(#clip872)" style="stroke:#000000; stroke-linecap:butt; stroke-linejoin:round; stroke-width:2; stroke-opacity:0.1; fill:none" points="
  186.274,1486.45 186.274,47.2441 
  "/>
<polyline clip-path="url(#clip872)" style="stroke:#000000; stroke-linecap:butt; stroke-linejoin:round; stroke-width:2; stroke-opacity:0.1; fill:none" points="
  727.894,1486.45 727.894,47.2441 
  "/>
<polyline clip-path="url(#clip872)" style="stroke:#000000; stroke-linecap:butt; stroke-linejoin:round; stroke-width:2; stroke-opacity:0.1; fill:none" points="
  1269.51,1486.45 1269.51,47.2441 
  "/>
<polyline clip-path="url(#clip872)" style="stroke:#000000; stroke-linecap:butt; stroke-linejoin:round; stroke-width:2; stroke-opacity:0.1; fill:none" points="
  1811.14,1486.45 1811.14,47.2441 
  "/>
<polyline clip-path="url(#clip872)" style="stroke:#000000; stroke-linecap:butt; stroke-linejoin:round; stroke-width:2; stroke-opacity:0.1; fill:none" points="
  2352.76,1486.45 2352.76,47.2441 
  "/>
<polyline clip-path="url(#clip870)" style="stroke:#000000; stroke-linecap:butt; stroke-linejoin:round; stroke-width:4; stroke-opacity:1; fill:none" points="
  186.274,1486.45 2352.76,1486.45 
  "/>
<polyline clip-path="url(#clip870)" style="stroke:#000000; stroke-linecap:butt; stroke-linejoin:round; stroke-width:4; stroke-opacity:1; fill:none" points="
  186.274,1486.45 186.274,1467.55 
  "/>
<polyline clip-path="url(#clip870)" style="stroke:#000000; stroke-linecap:butt; stroke-linejoin:round; stroke-width:4; stroke-opacity:1; fill:none" points="
  727.894,1486.45 727.894,1467.55 
  "/>
<polyline clip-path="url(#clip870)" style="stroke:#000000; stroke-linecap:butt; stroke-linejoin:round; stroke-width:4; stroke-opacity:1; fill:none" points="
  1269.51,1486.45 1269.51,1467.55 
  "/>
<polyline clip-path="url(#clip870)" style="stroke:#000000; stroke-linecap:butt; stroke-linejoin:round; stroke-width:4; stroke-opacity:1; fill:none" points="
  1811.14,1486.45 1811.14,1467.55 
  "/>
<polyline clip-path="url(#clip870)" style="stroke:#000000; stroke-linecap:butt; stroke-linejoin:round; stroke-width:4; stroke-opacity:1; fill:none" points="
  2352.76,1486.45 2352.76,1467.55 
  "/>
<path clip-path="url(#clip870)" d="M132.802 1530.29 L162.478 1530.29 L162.478 1534.23 L132.802 1534.23 L132.802 1530.29 Z" fill="#000000" fill-rule="evenodd" fill-opacity="1" /><path clip-path="url(#clip870)" d="M173.381 1543.18 L181.019 1543.18 L181.019 1516.82 L172.709 1518.49 L172.709 1514.23 L180.973 1512.56 L185.649 1512.56 L185.649 1543.18 L193.288 1543.18 L193.288 1547.12 L173.381 1547.12 L173.381 1543.18 Z" fill="#000000" fill-rule="evenodd" fill-opacity="1" /><path clip-path="url(#clip870)" d="M202.732 1541.24 L207.616 1541.24 L207.616 1547.12 L202.732 1547.12 L202.732 1541.24 Z" fill="#000000" fill-rule="evenodd" fill-opacity="1" /><path clip-path="url(#clip870)" d="M227.802 1515.64 Q224.19 1515.64 222.362 1519.2 Q220.556 1522.75 220.556 1529.87 Q220.556 1536.98 222.362 1540.55 Q224.19 1544.09 227.802 1544.09 Q231.436 1544.09 233.241 1540.55 Q235.07 1536.98 235.07 1529.87 Q235.07 1522.75 233.241 1519.2 Q231.436 1515.64 227.802 1515.64 M227.802 1511.93 Q233.612 1511.93 236.667 1516.54 Q239.746 1521.12 239.746 1529.87 Q239.746 1538.6 236.667 1543.21 Q233.612 1547.79 227.802 1547.79 Q221.991 1547.79 218.913 1543.21 Q215.857 1538.6 215.857 1529.87 Q215.857 1521.12 218.913 1516.54 Q221.991 1511.93 227.802 1511.93 Z" fill="#000000" fill-rule="evenodd" fill-opacity="1" /><path clip-path="url(#clip870)" d="M674.92 1530.29 L704.596 1530.29 L704.596 1534.23 L674.92 1534.23 L674.92 1530.29 Z" fill="#000000" fill-rule="evenodd" fill-opacity="1" /><path clip-path="url(#clip870)" d="M724.688 1515.64 Q721.077 1515.64 719.249 1519.2 Q717.443 1522.75 717.443 1529.87 Q717.443 1536.98 719.249 1540.55 Q721.077 1544.09 724.688 1544.09 Q728.323 1544.09 730.128 1540.55 Q731.957 1536.98 731.957 1529.87 Q731.957 1522.75 730.128 1519.2 Q728.323 1515.64 724.688 1515.64 M724.688 1511.93 Q730.499 1511.93 733.554 1516.54 Q736.633 1521.12 736.633 1529.87 Q736.633 1538.6 733.554 1543.21 Q730.499 1547.79 724.688 1547.79 Q718.878 1547.79 715.8 1543.21 Q712.744 1538.6 712.744 1529.87 Q712.744 1521.12 715.8 1516.54 Q718.878 1511.93 724.688 1511.93 Z" fill="#000000" fill-rule="evenodd" fill-opacity="1" /><path clip-path="url(#clip870)" d="M744.85 1541.24 L749.735 1541.24 L749.735 1547.12 L744.85 1547.12 L744.85 1541.24 Z" fill="#000000" fill-rule="evenodd" fill-opacity="1" /><path clip-path="url(#clip870)" d="M759.966 1512.56 L778.322 1512.56 L778.322 1516.5 L764.248 1516.5 L764.248 1524.97 Q765.267 1524.62 766.285 1524.46 Q767.304 1524.27 768.323 1524.27 Q774.11 1524.27 777.489 1527.44 Q780.869 1530.62 780.869 1536.03 Q780.869 1541.61 777.397 1544.71 Q773.924 1547.79 767.605 1547.79 Q765.429 1547.79 763.16 1547.42 Q760.915 1547.05 758.508 1546.31 L758.508 1541.61 Q760.591 1542.74 762.813 1543.3 Q765.035 1543.86 767.512 1543.86 Q771.517 1543.86 773.855 1541.75 Q776.193 1539.64 776.193 1536.03 Q776.193 1532.42 773.855 1530.31 Q771.517 1528.21 767.512 1528.21 Q765.637 1528.21 763.762 1528.62 Q761.91 1529.04 759.966 1529.92 L759.966 1512.56 Z" fill="#000000" fill-rule="evenodd" fill-opacity="1" /><path clip-path="url(#clip870)" d="M1246.9 1515.64 Q1243.29 1515.64 1241.46 1519.2 Q1239.65 1522.75 1239.65 1529.87 Q1239.65 1536.98 1241.46 1540.55 Q1243.29 1544.09 1246.9 1544.09 Q1250.53 1544.09 1252.34 1540.55 Q1254.17 1536.98 1254.17 1529.87 Q1254.17 1522.75 1252.34 1519.2 Q1250.53 1515.64 1246.9 1515.64 M1246.9 1511.93 Q1252.71 1511.93 1255.77 1516.54 Q1258.84 1521.12 1258.84 1529.87 Q1258.84 1538.6 1255.77 1543.21 Q1252.71 1547.79 1246.9 1547.79 Q1241.09 1547.79 1238.01 1543.21 Q1234.95 1538.6 1234.95 1529.87 Q1234.95 1521.12 1238.01 1516.54 Q1241.09 1511.93 1246.9 1511.93 Z" fill="#000000" fill-rule="evenodd" fill-opacity="1" /><path clip-path="url(#clip870)" d="M1267.06 1541.24 L1271.95 1541.24 L1271.95 1547.12 L1267.06 1547.12 L1267.06 1541.24 Z" fill="#000000" fill-rule="evenodd" fill-opacity="1" /><path clip-path="url(#clip870)" d="M1292.13 1515.64 Q1288.52 1515.64 1286.69 1519.2 Q1284.89 1522.75 1284.89 1529.87 Q1284.89 1536.98 1286.69 1540.55 Q1288.52 1544.09 1292.13 1544.09 Q1295.76 1544.09 1297.57 1540.55 Q1299.4 1536.98 1299.4 1529.87 Q1299.4 1522.75 1297.57 1519.2 Q1295.76 1515.64 1292.13 1515.64 M1292.13 1511.93 Q1297.94 1511.93 1301 1516.54 Q1304.07 1521.12 1304.07 1529.87 Q1304.07 1538.6 1301 1543.21 Q1297.94 1547.79 1292.13 1547.79 Q1286.32 1547.79 1283.24 1543.21 Q1280.19 1538.6 1280.19 1529.87 Q1280.19 1521.12 1283.24 1516.54 Q1286.32 1511.93 1292.13 1511.93 Z" fill="#000000" fill-rule="evenodd" fill-opacity="1" /><path clip-path="url(#clip870)" d="M1789.02 1515.64 Q1785.41 1515.64 1783.58 1519.2 Q1781.77 1522.75 1781.77 1529.87 Q1781.77 1536.98 1783.58 1540.55 Q1785.41 1544.09 1789.02 1544.09 Q1792.65 1544.09 1794.46 1540.55 Q1796.29 1536.98 1796.29 1529.87 Q1796.29 1522.75 1794.46 1519.2 Q1792.65 1515.64 1789.02 1515.64 M1789.02 1511.93 Q1794.83 1511.93 1797.88 1516.54 Q1800.96 1521.12 1800.96 1529.87 Q1800.96 1538.6 1797.88 1543.21 Q1794.83 1547.79 1789.02 1547.79 Q1783.21 1547.79 1780.13 1543.21 Q1777.07 1538.6 1777.07 1529.87 Q1777.07 1521.12 1780.13 1516.54 Q1783.21 1511.93 1789.02 1511.93 Z" fill="#000000" fill-rule="evenodd" fill-opacity="1" /><path clip-path="url(#clip870)" d="M1809.18 1541.24 L1814.06 1541.24 L1814.06 1547.12 L1809.18 1547.12 L1809.18 1541.24 Z" fill="#000000" fill-rule="evenodd" fill-opacity="1" /><path clip-path="url(#clip870)" d="M1824.3 1512.56 L1842.65 1512.56 L1842.65 1516.5 L1828.58 1516.5 L1828.58 1524.97 Q1829.6 1524.62 1830.61 1524.46 Q1831.63 1524.27 1832.65 1524.27 Q1838.44 1524.27 1841.82 1527.44 Q1845.2 1530.62 1845.2 1536.03 Q1845.2 1541.61 1841.73 1544.71 Q1838.25 1547.79 1831.93 1547.79 Q1829.76 1547.79 1827.49 1547.42 Q1825.24 1547.05 1822.84 1546.31 L1822.84 1541.61 Q1824.92 1542.74 1827.14 1543.3 Q1829.36 1543.86 1831.84 1543.86 Q1835.85 1543.86 1838.18 1541.75 Q1840.52 1539.64 1840.52 1536.03 Q1840.52 1532.42 1838.18 1530.31 Q1835.85 1528.21 1831.84 1528.21 Q1829.97 1528.21 1828.09 1528.62 Q1826.24 1529.04 1824.3 1529.92 L1824.3 1512.56 Z" fill="#000000" fill-rule="evenodd" fill-opacity="1" /><path clip-path="url(#clip870)" d="M2319.91 1543.18 L2327.55 1543.18 L2327.55 1516.82 L2319.24 1518.49 L2319.24 1514.23 L2327.5 1512.56 L2332.18 1512.56 L2332.18 1543.18 L2339.82 1543.18 L2339.82 1547.12 L2319.91 1547.12 L2319.91 1543.18 Z" fill="#000000" fill-rule="evenodd" fill-opacity="1" /><path clip-path="url(#clip870)" d="M2349.26 1541.24 L2354.14 1541.24 L2354.14 1547.12 L2349.26 1547.12 L2349.26 1541.24 Z" fill="#000000" fill-rule="evenodd" fill-opacity="1" /><path clip-path="url(#clip870)" d="M2374.33 1515.64 Q2370.72 1515.64 2368.89 1519.2 Q2367.08 1522.75 2367.08 1529.87 Q2367.08 1536.98 2368.89 1540.55 Q2370.72 1544.09 2374.33 1544.09 Q2377.96 1544.09 2379.77 1540.55 Q2381.6 1536.98 2381.6 1529.87 Q2381.6 1522.75 2379.77 1519.2 Q2377.96 1515.64 2374.33 1515.64 M2374.33 1511.93 Q2380.14 1511.93 2383.2 1516.54 Q2386.27 1521.12 2386.27 1529.87 Q2386.27 1538.6 2383.2 1543.21 Q2380.14 1547.79 2374.33 1547.79 Q2368.52 1547.79 2365.44 1543.21 Q2362.39 1538.6 2362.39 1529.87 Q2362.39 1521.12 2365.44 1516.54 Q2368.52 1511.93 2374.33 1511.93 Z" fill="#000000" fill-rule="evenodd" fill-opacity="1" /><polyline clip-path="url(#clip872)" style="stroke:#000000; stroke-linecap:butt; stroke-linejoin:round; stroke-width:2; stroke-opacity:0.1; fill:none" points="
  186.274,1445.72 2352.76,1445.72 
  "/>
<polyline clip-path="url(#clip872)" style="stroke:#000000; stroke-linecap:butt; stroke-linejoin:round; stroke-width:2; stroke-opacity:0.1; fill:none" points="
  186.274,1106.28 2352.76,1106.28 
  "/>
<polyline clip-path="url(#clip872)" style="stroke:#000000; stroke-linecap:butt; stroke-linejoin:round; stroke-width:2; stroke-opacity:0.1; fill:none" points="
  186.274,766.846 2352.76,766.846 
  "/>
<polyline clip-path="url(#clip872)" style="stroke:#000000; stroke-linecap:butt; stroke-linejoin:round; stroke-width:2; stroke-opacity:0.1; fill:none" points="
  186.274,427.411 2352.76,427.411 
  "/>
<polyline clip-path="url(#clip872)" style="stroke:#000000; stroke-linecap:butt; stroke-linejoin:round; stroke-width:2; stroke-opacity:0.1; fill:none" points="
  186.274,87.9764 2352.76,87.9764 
  "/>
<polyline clip-path="url(#clip870)" style="stroke:#000000; stroke-linecap:butt; stroke-linejoin:round; stroke-width:4; stroke-opacity:1; fill:none" points="
  186.274,1486.45 186.274,47.2441 
  "/>
<polyline clip-path="url(#clip870)" style="stroke:#000000; stroke-linecap:butt; stroke-linejoin:round; stroke-width:4; stroke-opacity:1; fill:none" points="
  186.274,1445.72 205.172,1445.72 
  "/>
<polyline clip-path="url(#clip870)" style="stroke:#000000; stroke-linecap:butt; stroke-linejoin:round; stroke-width:4; stroke-opacity:1; fill:none" points="
  186.274,1106.28 205.172,1106.28 
  "/>
<polyline clip-path="url(#clip870)" style="stroke:#000000; stroke-linecap:butt; stroke-linejoin:round; stroke-width:4; stroke-opacity:1; fill:none" points="
  186.274,766.846 205.172,766.846 
  "/>
<polyline clip-path="url(#clip870)" style="stroke:#000000; stroke-linecap:butt; stroke-linejoin:round; stroke-width:4; stroke-opacity:1; fill:none" points="
  186.274,427.411 205.172,427.411 
  "/>
<polyline clip-path="url(#clip870)" style="stroke:#000000; stroke-linecap:butt; stroke-linejoin:round; stroke-width:4; stroke-opacity:1; fill:none" points="
  186.274,87.9764 205.172,87.9764 
  "/>
<path clip-path="url(#clip870)" d="M62.9365 1431.51 Q59.3254 1431.51 57.4967 1435.08 Q55.6912 1438.62 55.6912 1445.75 Q55.6912 1452.86 57.4967 1456.42 Q59.3254 1459.96 62.9365 1459.96 Q66.5707 1459.96 68.3763 1456.42 Q70.205 1452.86 70.205 1445.75 Q70.205 1438.62 68.3763 1435.08 Q66.5707 1431.51 62.9365 1431.51 M62.9365 1427.81 Q68.7467 1427.81 71.8022 1432.42 Q74.8809 1437 74.8809 1445.75 Q74.8809 1454.48 71.8022 1459.08 Q68.7467 1463.67 62.9365 1463.67 Q57.1264 1463.67 54.0477 1459.08 Q50.9921 1454.48 50.9921 1445.75 Q50.9921 1437 54.0477 1432.42 Q57.1264 1427.81 62.9365 1427.81 Z" fill="#000000" fill-rule="evenodd" fill-opacity="1" /><path clip-path="url(#clip870)" d="M83.0984 1457.12 L87.9827 1457.12 L87.9827 1463 L83.0984 1463 L83.0984 1457.12 Z" fill="#000000" fill-rule="evenodd" fill-opacity="1" /><path clip-path="url(#clip870)" d="M108.168 1431.51 Q104.557 1431.51 102.728 1435.08 Q100.922 1438.62 100.922 1445.75 Q100.922 1452.86 102.728 1456.42 Q104.557 1459.96 108.168 1459.96 Q111.802 1459.96 113.608 1456.42 Q115.436 1452.86 115.436 1445.75 Q115.436 1438.62 113.608 1435.08 Q111.802 1431.51 108.168 1431.51 M108.168 1427.81 Q113.978 1427.81 117.033 1432.42 Q120.112 1437 120.112 1445.75 Q120.112 1454.48 117.033 1459.08 Q113.978 1463.67 108.168 1463.67 Q102.358 1463.67 99.2789 1459.08 Q96.2234 1454.48 96.2234 1445.75 Q96.2234 1437 99.2789 1432.42 Q102.358 1427.81 108.168 1427.81 Z" fill="#000000" fill-rule="evenodd" fill-opacity="1" /><path clip-path="url(#clip870)" d="M138.33 1431.51 Q134.719 1431.51 132.89 1435.08 Q131.084 1438.62 131.084 1445.75 Q131.084 1452.86 132.89 1456.42 Q134.719 1459.96 138.33 1459.96 Q141.964 1459.96 143.769 1456.42 Q145.598 1452.86 145.598 1445.75 Q145.598 1438.62 143.769 1435.08 Q141.964 1431.51 138.33 1431.51 M138.33 1427.81 Q144.14 1427.81 147.195 1432.42 Q150.274 1437 150.274 1445.75 Q150.274 1454.48 147.195 1459.08 Q144.14 1463.67 138.33 1463.67 Q132.519 1463.67 129.441 1459.08 Q126.385 1454.48 126.385 1445.75 Q126.385 1437 129.441 1432.42 Q132.519 1427.81 138.33 1427.81 Z" fill="#000000" fill-rule="evenodd" fill-opacity="1" /><path clip-path="url(#clip870)" d="M63.9319 1092.08 Q60.3208 1092.08 58.4921 1095.64 Q56.6865 1099.19 56.6865 1106.32 Q56.6865 1113.42 58.4921 1116.99 Q60.3208 1120.53 63.9319 1120.53 Q67.5661 1120.53 69.3717 1116.99 Q71.2004 1113.42 71.2004 1106.32 Q71.2004 1099.19 69.3717 1095.64 Q67.5661 1092.08 63.9319 1092.08 M63.9319 1088.38 Q69.742 1088.38 72.7976 1092.98 Q75.8763 1097.57 75.8763 1106.32 Q75.8763 1115.04 72.7976 1119.65 Q69.742 1124.23 63.9319 1124.23 Q58.1217 1124.23 55.043 1119.65 Q51.9875 1115.04 51.9875 1106.32 Q51.9875 1097.57 55.043 1092.98 Q58.1217 1088.38 63.9319 1088.38 Z" fill="#000000" fill-rule="evenodd" fill-opacity="1" /><path clip-path="url(#clip870)" d="M84.0938 1117.68 L88.978 1117.68 L88.978 1123.56 L84.0938 1123.56 L84.0938 1117.68 Z" fill="#000000" fill-rule="evenodd" fill-opacity="1" /><path clip-path="url(#clip870)" d="M103.191 1119.63 L119.51 1119.63 L119.51 1123.56 L97.566 1123.56 L97.566 1119.63 Q100.228 1116.87 104.811 1112.24 Q109.418 1107.59 110.598 1106.25 Q112.844 1103.72 113.723 1101.99 Q114.626 1100.23 114.626 1098.54 Q114.626 1095.78 112.682 1094.05 Q110.76 1092.31 107.658 1092.31 Q105.459 1092.31 103.006 1093.07 Q100.575 1093.84 97.7974 1095.39 L97.7974 1090.67 Q100.621 1089.53 103.075 1088.95 Q105.529 1088.38 107.566 1088.38 Q112.936 1088.38 116.131 1091.06 Q119.325 1093.75 119.325 1098.24 Q119.325 1100.37 118.515 1102.29 Q117.728 1104.19 115.621 1106.78 Q115.043 1107.45 111.941 1110.67 Q108.839 1113.86 103.191 1119.63 Z" fill="#000000" fill-rule="evenodd" fill-opacity="1" /><path clip-path="url(#clip870)" d="M129.371 1089 L147.728 1089 L147.728 1092.94 L133.654 1092.94 L133.654 1101.41 Q134.672 1101.06 135.691 1100.9 Q136.709 1100.71 137.728 1100.71 Q143.515 1100.71 146.894 1103.89 Q150.274 1107.06 150.274 1112.47 Q150.274 1118.05 146.802 1121.15 Q143.33 1124.23 137.01 1124.23 Q134.834 1124.23 132.566 1123.86 Q130.32 1123.49 127.913 1122.75 L127.913 1118.05 Q129.996 1119.19 132.219 1119.74 Q134.441 1120.3 136.918 1120.3 Q140.922 1120.3 143.26 1118.19 Q145.598 1116.08 145.598 1112.47 Q145.598 1108.86 143.26 1106.76 Q140.922 1104.65 136.918 1104.65 Q135.043 1104.65 133.168 1105.07 Q131.316 1105.48 129.371 1106.36 L129.371 1089 Z" fill="#000000" fill-rule="evenodd" fill-opacity="1" /><path clip-path="url(#clip870)" d="M62.9365 752.645 Q59.3254 752.645 57.4967 756.21 Q55.6912 759.751 55.6912 766.881 Q55.6912 773.987 57.4967 777.552 Q59.3254 781.094 62.9365 781.094 Q66.5707 781.094 68.3763 777.552 Q70.205 773.987 70.205 766.881 Q70.205 759.751 68.3763 756.21 Q66.5707 752.645 62.9365 752.645 M62.9365 748.941 Q68.7467 748.941 71.8022 753.548 Q74.8809 758.131 74.8809 766.881 Q74.8809 775.608 71.8022 780.214 Q68.7467 784.797 62.9365 784.797 Q57.1264 784.797 54.0477 780.214 Q50.9921 775.608 50.9921 766.881 Q50.9921 758.131 54.0477 753.548 Q57.1264 748.941 62.9365 748.941 Z" fill="#000000" fill-rule="evenodd" fill-opacity="1" /><path clip-path="url(#clip870)" d="M83.0984 778.246 L87.9827 778.246 L87.9827 784.126 L83.0984 784.126 L83.0984 778.246 Z" fill="#000000" fill-rule="evenodd" fill-opacity="1" /><path clip-path="url(#clip870)" d="M98.2141 749.566 L116.57 749.566 L116.57 753.501 L102.496 753.501 L102.496 761.973 Q103.515 761.626 104.534 761.464 Q105.552 761.279 106.571 761.279 Q112.358 761.279 115.737 764.45 Q119.117 767.622 119.117 773.038 Q119.117 778.617 115.645 781.719 Q112.172 784.797 105.853 784.797 Q103.677 784.797 101.409 784.427 Q99.1632 784.057 96.7558 783.316 L96.7558 778.617 Q98.8391 779.751 101.061 780.307 Q103.284 780.862 105.76 780.862 Q109.765 780.862 112.103 778.756 Q114.441 776.649 114.441 773.038 Q114.441 769.427 112.103 767.321 Q109.765 765.214 105.76 765.214 Q103.885 765.214 102.01 765.631 Q100.159 766.047 98.2141 766.927 L98.2141 749.566 Z" fill="#000000" fill-rule="evenodd" fill-opacity="1" /><path clip-path="url(#clip870)" d="M138.33 752.645 Q134.719 752.645 132.89 756.21 Q131.084 759.751 131.084 766.881 Q131.084 773.987 132.89 777.552 Q134.719 781.094 138.33 781.094 Q141.964 781.094 143.769 777.552 Q145.598 773.987 145.598 766.881 Q145.598 759.751 143.769 756.21 Q141.964 752.645 138.33 752.645 M138.33 748.941 Q144.14 748.941 147.195 753.548 Q150.274 758.131 150.274 766.881 Q150.274 775.608 147.195 780.214 Q144.14 784.797 138.33 784.797 Q132.519 784.797 129.441 780.214 Q126.385 775.608 126.385 766.881 Q126.385 758.131 129.441 753.548 Q132.519 748.941 138.33 748.941 Z" fill="#000000" fill-rule="evenodd" fill-opacity="1" /><path clip-path="url(#clip870)" d="M63.9319 413.21 Q60.3208 413.21 58.4921 416.775 Q56.6865 420.316 56.6865 427.446 Q56.6865 434.552 58.4921 438.117 Q60.3208 441.659 63.9319 441.659 Q67.5661 441.659 69.3717 438.117 Q71.2004 434.552 71.2004 427.446 Q71.2004 420.316 69.3717 416.775 Q67.5661 413.21 63.9319 413.21 M63.9319 409.506 Q69.742 409.506 72.7976 414.113 Q75.8763 418.696 75.8763 427.446 Q75.8763 436.173 72.7976 440.779 Q69.742 445.363 63.9319 445.363 Q58.1217 445.363 55.043 440.779 Q51.9875 436.173 51.9875 427.446 Q51.9875 418.696 55.043 414.113 Q58.1217 409.506 63.9319 409.506 Z" fill="#000000" fill-rule="evenodd" fill-opacity="1" /><path clip-path="url(#clip870)" d="M84.0938 438.812 L88.978 438.812 L88.978 444.691 L84.0938 444.691 L84.0938 438.812 Z" fill="#000000" fill-rule="evenodd" fill-opacity="1" /><path clip-path="url(#clip870)" d="M97.9826 410.131 L120.205 410.131 L120.205 412.122 L107.658 444.691 L102.774 444.691 L114.58 414.066 L97.9826 414.066 L97.9826 410.131 Z" fill="#000000" fill-rule="evenodd" fill-opacity="1" /><path clip-path="url(#clip870)" d="M129.371 410.131 L147.728 410.131 L147.728 414.066 L133.654 414.066 L133.654 422.539 Q134.672 422.191 135.691 422.029 Q136.709 421.844 137.728 421.844 Q143.515 421.844 146.894 425.015 Q150.274 428.187 150.274 433.603 Q150.274 439.182 146.802 442.284 Q143.33 445.363 137.01 445.363 Q134.834 445.363 132.566 444.992 Q130.32 444.622 127.913 443.881 L127.913 439.182 Q129.996 440.316 132.219 440.872 Q134.441 441.427 136.918 441.427 Q140.922 441.427 143.26 439.321 Q145.598 437.214 145.598 433.603 Q145.598 429.992 143.26 427.886 Q140.922 425.779 136.918 425.779 Q135.043 425.779 133.168 426.196 Q131.316 426.613 129.371 427.492 L129.371 410.131 Z" fill="#000000" fill-rule="evenodd" fill-opacity="1" /><path clip-path="url(#clip870)" d="M53.7467 101.321 L61.3856 101.321 L61.3856 74.9557 L53.0754 76.6223 L53.0754 72.3631 L61.3393 70.6964 L66.0152 70.6964 L66.0152 101.321 L73.654 101.321 L73.654 105.256 L53.7467 105.256 L53.7467 101.321 Z" fill="#000000" fill-rule="evenodd" fill-opacity="1" /><path clip-path="url(#clip870)" d="M83.0984 99.3768 L87.9827 99.3768 L87.9827 105.256 L83.0984 105.256 L83.0984 99.3768 Z" fill="#000000" fill-rule="evenodd" fill-opacity="1" /><path clip-path="url(#clip870)" d="M108.168 73.7751 Q104.557 73.7751 102.728 77.3399 Q100.922 80.8816 100.922 88.0111 Q100.922 95.1176 102.728 98.6824 Q104.557 102.224 108.168 102.224 Q111.802 102.224 113.608 98.6824 Q115.436 95.1176 115.436 88.0111 Q115.436 80.8816 113.608 77.3399 Q111.802 73.7751 108.168 73.7751 M108.168 70.0714 Q113.978 70.0714 117.033 74.6779 Q120.112 79.2612 120.112 88.0111 Q120.112 96.738 117.033 101.344 Q113.978 105.928 108.168 105.928 Q102.358 105.928 99.2789 101.344 Q96.2234 96.738 96.2234 88.0111 Q96.2234 79.2612 99.2789 74.6779 Q102.358 70.0714 108.168 70.0714 Z" fill="#000000" fill-rule="evenodd" fill-opacity="1" /><path clip-path="url(#clip870)" d="M138.33 73.7751 Q134.719 73.7751 132.89 77.3399 Q131.084 80.8816 131.084 88.0111 Q131.084 95.1176 132.89 98.6824 Q134.719 102.224 138.33 102.224 Q141.964 102.224 143.769 98.6824 Q145.598 95.1176 145.598 88.0111 Q145.598 80.8816 143.769 77.3399 Q141.964 73.7751 138.33 73.7751 M138.33 70.0714 Q144.14 70.0714 147.195 74.6779 Q150.274 79.2612 150.274 88.0111 Q150.274 96.738 147.195 101.344 Q144.14 105.928 138.33 105.928 Q132.519 105.928 129.441 101.344 Q126.385 96.738 126.385 88.0111 Q126.385 79.2612 129.441 74.6779 Q132.519 70.0714 138.33 70.0714 Z" fill="#000000" fill-rule="evenodd" fill-opacity="1" /><polyline clip-path="url(#clip872)" style="stroke:#009af9; stroke-linecap:butt; stroke-linejoin:round; stroke-width:4; stroke-opacity:1; fill:none" points="
  186.274,1445.72 196.853,1445.72 207.431,1445.72 256.339,1445.72 305.247,1445.72 329.701,1445.72 354.155,1445.72 366.382,1445.72 378.609,1445.72 384.722,1445.72 
  390.836,1445.72 396.949,1445.72 403.063,1444.83 410.411,1398.78 417.759,1352.74 425.107,1306.69 432.454,1260.64 447.15,1168.54 461.846,1076.44 491.238,892.241 
  520.629,708.044 545.479,552.307 570.33,396.57 582.755,318.702 595.18,240.833 601.392,201.899 607.605,162.965 610.711,143.498 613.817,124.031 616.924,104.564 
  620.03,90.8564 623.404,112.003 626.779,133.15 630.153,154.297 633.527,175.443 640.276,217.737 647.024,260.03 660.521,344.617 674.019,429.204 701.013,598.378 
  728.007,767.552 752.893,923.515 777.78,1079.48 790.223,1157.46 802.666,1235.44 815.109,1313.42 827.552,1391.4 830.888,1412.31 834.223,1433.21 837.558,1445.72 
  840.893,1445.72 847.563,1445.72 854.233,1445.72 867.574,1445.72 880.914,1445.72 907.595,1445.72 934.276,1445.72 965.188,1445.72 996.1,1445.72 1011.56,1445.72 
  1027.01,1445.72 1034.74,1445.72 1042.47,1445.72 1044.4,1445.72 1046.33,1445.72 1048.26,1445.72 1050.2,1445.72 1051.16,1445.72 1052.13,1445.72 1053.09,87.9764 
  1054.06,87.9764 1055.03,87.9764 1055.99,87.9764 1056.96,87.9764 1057.92,87.9764 1064.79,87.9764 1071.66,87.9764 1078.53,87.9764 1085.4,87.9764 1099.13,87.9764 
  1112.87,87.9764 1140.34,87.9764 1167.81,87.9764 1215.99,87.9764 1264.17,87.9764 1316.7,87.9764 1369.23,87.9764 1395.65,87.9764 1422.07,87.9764 1435.28,87.9764 
  1448.49,87.9764 1461.7,87.9764 1474.91,87.9764 1478.56,87.9763 1482.21,87.9763 1483.12,87.9763 1484.04,87.9763 1484.95,87.9763 1485.86,87.9763 1486.77,1445.72 
  1487.69,1445.72 1488.6,1445.72 1489.51,1445.72 1491.34,1445.72 1493.16,1445.72 1494.99,1445.72 1496.82,1445.72 1500.47,1445.72 1504.12,1445.72 1518.72,1445.71 
  1533.33,1445.71 1562.54,1445.69 1591.75,1445.57 1619.55,1445.08 1647.34,1443.25 1675.13,1437.33 1702.93,1420.74 1717.38,1403.9 1731.83,1378.14 1746.28,1340.34 
  1760.73,1287.13 1767.95,1253.75 1775.17,1215.41 1782.4,1171.85 1789.62,1122.93 1796.85,1068.66 1804.07,1009.15 1811.3,944.729 1818.52,875.894 1842.85,622.345 
  1867.18,370.128 1873.26,313.801 1879.34,262.01 1885.42,215.628 1891.5,175.462 1897.59,142.229 1903.67,116.531 1909.75,98.8446 1915.83,89.4997 1923.26,89.6424 
  1930.68,102.467 1938.11,127.614 1945.53,164.388 1952.96,211.785 1960.38,268.543 1967.81,333.194 1975.23,404.128 1990.08,558.094 2004.93,717.205 2019.78,869.851 
  2034.63,1007.31 2041.61,1065.02 2048.59,1117.88 2055.57,1165.73 2062.55,1208.57 2069.53,1246.52 2076.51,1279.78 2083.49,1308.63 2090.47,1333.4 2104.43,1372.18 
  2118.39,1399.14 2132.35,1417.18 2146.31,1428.8 2191.04,1443.19 2235.76,1445.45 2280.49,1445.7 2325.22,1445.71 2332.11,1445.72 2338.99,1445.72 2345.87,1445.72 
  2352.76,1445.72 
  "/>
<path clip-path="url(#clip870)" d="
M1987.39 198.898 L2280.54 198.898 L2280.54 95.2176 L1987.39 95.2176  Z
  " fill="#ffffff" fill-rule="evenodd" fill-opacity="1"/>
<polyline clip-path="url(#clip870)" style="stroke:#000000; stroke-linecap:butt; stroke-linejoin:round; stroke-width:4; stroke-opacity:1; fill:none" points="
  1987.39,198.898 2280.54,198.898 2280.54,95.2176 1987.39,95.2176 1987.39,198.898 
  "/>
<polyline clip-path="url(#clip870)" style="stroke:#009af9; stroke-linecap:butt; stroke-linejoin:round; stroke-width:4; stroke-opacity:1; fill:none" points="
  2011.46,147.058 2155.89,147.058 
  "/>
<path clip-path="url(#clip870)" d="M2193.81 166.745 Q2192 171.375 2190.29 172.787 Q2188.58 174.199 2185.71 174.199 L2182.3 174.199 L2182.3 170.634 L2184.8 170.634 Q2186.56 170.634 2187.53 169.8 Q2188.51 168.967 2189.69 165.865 L2190.45 163.921 L2179.97 138.412 L2184.48 138.412 L2192.58 158.689 L2200.68 138.412 L2205.2 138.412 L2193.81 166.745 Z" fill="#000000" fill-rule="evenodd" fill-opacity="1" /><path clip-path="url(#clip870)" d="M2212.49 160.402 L2220.13 160.402 L2220.13 134.037 L2211.82 135.703 L2211.82 131.444 L2220.08 129.778 L2224.76 129.778 L2224.76 160.402 L2232.4 160.402 L2232.4 164.338 L2212.49 164.338 L2212.49 160.402 Z" fill="#000000" fill-rule="evenodd" fill-opacity="1" /></svg>
