<?xml version="1.0" encoding="utf-8"?>
<svg xmlns="http://www.w3.org/2000/svg" xmlns:xlink="http://www.w3.org/1999/xlink" width="600" height="400" viewBox="0 0 2400 1600">
<defs>
  <clipPath id="clip310">
    <rect x="0" y="0" width="2400" height="1600"/>
  </clipPath>
</defs>
<path clip-path="url(#clip310)" d="
M0 1600 L2400 1600 L2400 0 L0 0  Z
  " fill="#ffffff" fill-rule="evenodd" fill-opacity="1"/>
<defs>
  <clipPath id="clip311">
    <rect x="480" y="0" width="1681" height="1600"/>
  </clipPath>
</defs>
<path clip-path="url(#clip310)" d="
M193.936 1486.45 L2352.76 1486.45 L2352.76 47.2441 L193.936 47.2441  Z
  " fill="#ffffff" fill-rule="evenodd" fill-opacity="1"/>
<defs>
  <clipPath id="clip312">
    <rect x="193" y="47" width="2160" height="1440"/>
  </clipPath>
</defs>
<polyline clip-path="url(#clip312)" style="stroke:#000000; stroke-linecap:butt; stroke-linejoin:round; stroke-width:2; stroke-opacity:0.1; fill:none" points="
  255.035,1486.45 255.035,47.2441 
  "/>
<polyline clip-path="url(#clip312)" style="stroke:#000000; stroke-linecap:butt; stroke-linejoin:round; stroke-width:2; stroke-opacity:0.1; fill:none" points="
  594.472,1486.45 594.472,47.2441 
  "/>
<polyline clip-path="url(#clip312)" style="stroke:#000000; stroke-linecap:butt; stroke-linejoin:round; stroke-width:2; stroke-opacity:0.1; fill:none" points="
  933.909,1486.45 933.909,47.2441 
  "/>
<polyline clip-path="url(#clip312)" style="stroke:#000000; stroke-linecap:butt; stroke-linejoin:round; stroke-width:2; stroke-opacity:0.1; fill:none" points="
  1273.35,1486.45 1273.35,47.2441 
  "/>
<polyline clip-path="url(#clip312)" style="stroke:#000000; stroke-linecap:butt; stroke-linejoin:round; stroke-width:2; stroke-opacity:0.1; fill:none" points="
  1612.78,1486.45 1612.78,47.2441 
  "/>
<polyline clip-path="url(#clip312)" style="stroke:#000000; stroke-linecap:butt; stroke-linejoin:round; stroke-width:2; stroke-opacity:0.1; fill:none" points="
  1952.22,1486.45 1952.22,47.2441 
  "/>
<polyline clip-path="url(#clip312)" style="stroke:#000000; stroke-linecap:butt; stroke-linejoin:round; stroke-width:2; stroke-opacity:0.1; fill:none" points="
  2291.66,1486.45 2291.66,47.2441 
  "/>
<polyline clip-path="url(#clip310)" style="stroke:#000000; stroke-linecap:butt; stroke-linejoin:round; stroke-width:4; stroke-opacity:1; fill:none" points="
  193.936,1486.45 2352.76,1486.45 
  "/>
<polyline clip-path="url(#clip310)" style="stroke:#000000; stroke-linecap:butt; stroke-linejoin:round; stroke-width:4; stroke-opacity:1; fill:none" points="
  255.035,1486.45 255.035,1467.55 
  "/>
<polyline clip-path="url(#clip310)" style="stroke:#000000; stroke-linecap:butt; stroke-linejoin:round; stroke-width:4; stroke-opacity:1; fill:none" points="
  594.472,1486.45 594.472,1467.55 
  "/>
<polyline clip-path="url(#clip310)" style="stroke:#000000; stroke-linecap:butt; stroke-linejoin:round; stroke-width:4; stroke-opacity:1; fill:none" points="
  933.909,1486.45 933.909,1467.55 
  "/>
<polyline clip-path="url(#clip310)" style="stroke:#000000; stroke-linecap:butt; stroke-linejoin:round; stroke-width:4; stroke-opacity:1; fill:none" points="
  1273.35,1486.45 1273.35,1467.55 
  "/>
<polyline clip-path="url(#clip310)" style="stroke:#000000; stroke-linecap:butt; stroke-linejoin:round; stroke-width:4; stroke-opacity:1; fill:none" points="
  1612.78,1486.45 1612.78,1467.55 
  "/>
<polyline clip-path="url(#clip310)" style="stroke:#000000; stroke-linecap:butt; stroke-linejoin:round; stroke-width:4; stroke-opacity:1; fill:none" points="
  1952.22,1486.45 1952.22,1467.55 
  "/>
<polyline clip-path="url(#clip310)" style="stroke:#000000; stroke-linecap:butt; stroke-linejoin:round; stroke-width:4; stroke-opacity:1; fill:none" points="
  2291.66,1486.45 2291.66,1467.55 
  "/>
<path clip-path="url(#clip310)" d="M224.502 1530.29 L254.178 1530.29 L254.178 1534.23 L224.502 1534.23 L224.502 1530.29 Z" fill="#000000" fill-rule="evenodd" fill-opacity="1" /><path clip-path="url(#clip310)" d="M278.437 1528.49 Q281.794 1529.2 283.669 1531.47 Q285.567 1533.74 285.567 1537.07 Q285.567 1542.19 282.048 1544.99 Q278.53 1547.79 272.048 1547.79 Q269.873 1547.79 267.558 1547.35 Q265.266 1546.93 262.812 1546.08 L262.812 1541.56 Q264.757 1542.7 267.072 1543.28 Q269.386 1543.86 271.91 1543.86 Q276.308 1543.86 278.599 1542.12 Q280.914 1540.38 280.914 1537.07 Q280.914 1534.02 278.761 1532.31 Q276.632 1530.57 272.812 1530.57 L268.785 1530.57 L268.785 1526.73 L272.998 1526.73 Q276.447 1526.73 278.275 1525.36 Q280.104 1523.97 280.104 1521.38 Q280.104 1518.72 278.206 1517.31 Q276.331 1515.87 272.812 1515.87 Q270.891 1515.87 268.692 1516.29 Q266.493 1516.7 263.854 1517.58 L263.854 1513.42 Q266.516 1512.68 268.831 1512.31 Q271.169 1511.93 273.229 1511.93 Q278.553 1511.93 281.655 1514.37 Q284.757 1516.77 284.757 1520.89 Q284.757 1523.76 283.113 1525.75 Q281.47 1527.72 278.437 1528.49 Z" fill="#000000" fill-rule="evenodd" fill-opacity="1" /><path clip-path="url(#clip310)" d="M564.414 1530.29 L594.09 1530.29 L594.09 1534.23 L564.414 1534.23 L564.414 1530.29 Z" fill="#000000" fill-rule="evenodd" fill-opacity="1" /><path clip-path="url(#clip310)" d="M608.21 1543.18 L624.529 1543.18 L624.529 1547.12 L602.585 1547.12 L602.585 1543.18 Q605.247 1540.43 609.83 1535.8 Q614.437 1531.15 615.617 1529.81 Q617.863 1527.28 618.742 1525.55 Q619.645 1523.79 619.645 1522.1 Q619.645 1519.34 617.701 1517.61 Q615.78 1515.87 612.678 1515.87 Q610.479 1515.87 608.025 1516.63 Q605.594 1517.4 602.817 1518.95 L602.817 1514.23 Q605.641 1513.09 608.094 1512.51 Q610.548 1511.93 612.585 1511.93 Q617.955 1511.93 621.15 1514.62 Q624.344 1517.31 624.344 1521.8 Q624.344 1523.93 623.534 1525.85 Q622.747 1527.74 620.641 1530.34 Q620.062 1531.01 616.96 1534.23 Q613.858 1537.42 608.21 1543.18 Z" fill="#000000" fill-rule="evenodd" fill-opacity="1" /><path clip-path="url(#clip310)" d="M903.666 1530.29 L933.342 1530.29 L933.342 1534.23 L903.666 1534.23 L903.666 1530.29 Z" fill="#000000" fill-rule="evenodd" fill-opacity="1" /><path clip-path="url(#clip310)" d="M944.244 1543.18 L951.883 1543.18 L951.883 1516.82 L943.573 1518.49 L943.573 1514.23 L951.837 1512.56 L956.513 1512.56 L956.513 1543.18 L964.152 1543.18 L964.152 1547.12 L944.244 1547.12 L944.244 1543.18 Z" fill="#000000" fill-rule="evenodd" fill-opacity="1" /><path clip-path="url(#clip310)" d="M1273.35 1515.64 Q1269.73 1515.64 1267.91 1519.2 Q1266.1 1522.75 1266.1 1529.87 Q1266.1 1536.98 1267.91 1540.55 Q1269.73 1544.09 1273.35 1544.09 Q1276.98 1544.09 1278.79 1540.55 Q1280.61 1536.98 1280.61 1529.87 Q1280.61 1522.75 1278.79 1519.2 Q1276.98 1515.64 1273.35 1515.64 M1273.35 1511.93 Q1279.16 1511.93 1282.21 1516.54 Q1285.29 1521.12 1285.29 1529.87 Q1285.29 1538.6 1282.21 1543.21 Q1279.16 1547.79 1273.35 1547.79 Q1267.54 1547.79 1264.46 1543.21 Q1261.4 1538.6 1261.4 1529.87 Q1261.4 1521.12 1264.46 1516.54 Q1267.54 1511.93 1273.35 1511.93 Z" fill="#000000" fill-rule="evenodd" fill-opacity="1" /><path clip-path="url(#clip310)" d="M1603.17 1543.18 L1610.8 1543.18 L1610.8 1516.82 L1602.49 1518.49 L1602.49 1514.23 L1610.76 1512.56 L1615.43 1512.56 L1615.43 1543.18 L1623.07 1543.18 L1623.07 1547.12 L1603.17 1547.12 L1603.17 1543.18 Z" fill="#000000" fill-rule="evenodd" fill-opacity="1" /><path clip-path="url(#clip310)" d="M1946.87 1543.18 L1963.19 1543.18 L1963.19 1547.12 L1941.25 1547.12 L1941.25 1543.18 Q1943.91 1540.43 1948.49 1535.8 Q1953.1 1531.15 1954.28 1529.81 Q1956.53 1527.28 1957.41 1525.55 Q1958.31 1523.79 1958.31 1522.1 Q1958.31 1519.34 1956.36 1517.61 Q1954.44 1515.87 1951.34 1515.87 Q1949.14 1515.87 1946.69 1516.63 Q1944.26 1517.4 1941.48 1518.95 L1941.48 1514.23 Q1944.3 1513.09 1946.76 1512.51 Q1949.21 1511.93 1951.25 1511.93 Q1956.62 1511.93 1959.81 1514.62 Q1963.01 1517.31 1963.01 1521.8 Q1963.01 1523.93 1962.2 1525.85 Q1961.41 1527.74 1959.3 1530.34 Q1958.72 1531.01 1955.62 1534.23 Q1952.52 1537.42 1946.87 1543.18 Z" fill="#000000" fill-rule="evenodd" fill-opacity="1" /><path clip-path="url(#clip310)" d="M2295.9 1528.49 Q2299.26 1529.2 2301.14 1531.47 Q2303.03 1533.74 2303.03 1537.07 Q2303.03 1542.19 2299.52 1544.99 Q2296 1547.79 2289.52 1547.79 Q2287.34 1547.79 2285.03 1547.35 Q2282.73 1546.93 2280.28 1546.08 L2280.28 1541.56 Q2282.22 1542.7 2284.54 1543.28 Q2286.85 1543.86 2289.38 1543.86 Q2293.78 1543.86 2296.07 1542.12 Q2298.38 1540.38 2298.38 1537.07 Q2298.38 1534.02 2296.23 1532.31 Q2294.1 1530.57 2290.28 1530.57 L2286.25 1530.57 L2286.25 1526.73 L2290.47 1526.73 Q2293.91 1526.73 2295.74 1525.36 Q2297.57 1523.97 2297.57 1521.38 Q2297.57 1518.72 2295.67 1517.31 Q2293.8 1515.87 2290.28 1515.87 Q2288.36 1515.87 2286.16 1516.29 Q2283.96 1516.7 2281.32 1517.58 L2281.32 1513.42 Q2283.98 1512.68 2286.3 1512.31 Q2288.64 1511.93 2290.7 1511.93 Q2296.02 1511.93 2299.12 1514.37 Q2302.22 1516.77 2302.22 1520.89 Q2302.22 1523.76 2300.58 1525.75 Q2298.94 1527.72 2295.9 1528.49 Z" fill="#000000" fill-rule="evenodd" fill-opacity="1" /><polyline clip-path="url(#clip312)" style="stroke:#000000; stroke-linecap:butt; stroke-linejoin:round; stroke-width:2; stroke-opacity:0.1; fill:none" points="
  193.936,1452.54 2352.76,1452.54 
  "/>
<polyline clip-path="url(#clip312)" style="stroke:#000000; stroke-linecap:butt; stroke-linejoin:round; stroke-width:2; stroke-opacity:0.1; fill:none" points="
  193.936,1111.38 2352.76,1111.38 
  "/>
<polyline clip-path="url(#clip312)" style="stroke:#000000; stroke-linecap:butt; stroke-linejoin:round; stroke-width:2; stroke-opacity:0.1; fill:none" points="
  193.936,770.223 2352.76,770.223 
  "/>
<polyline clip-path="url(#clip312)" style="stroke:#000000; stroke-linecap:butt; stroke-linejoin:round; stroke-width:2; stroke-opacity:0.1; fill:none" points="
  193.936,429.062 2352.76,429.062 
  "/>
<polyline clip-path="url(#clip312)" style="stroke:#000000; stroke-linecap:butt; stroke-linejoin:round; stroke-width:2; stroke-opacity:0.1; fill:none" points="
  193.936,87.9015 2352.76,87.9015 
  "/>
<polyline clip-path="url(#clip310)" style="stroke:#000000; stroke-linecap:butt; stroke-linejoin:round; stroke-width:4; stroke-opacity:1; fill:none" points="
  193.936,1486.45 193.936,47.2441 
  "/>
<polyline clip-path="url(#clip310)" style="stroke:#000000; stroke-linecap:butt; stroke-linejoin:round; stroke-width:4; stroke-opacity:1; fill:none" points="
  193.936,1452.54 212.834,1452.54 
  "/>
<polyline clip-path="url(#clip310)" style="stroke:#000000; stroke-linecap:butt; stroke-linejoin:round; stroke-width:4; stroke-opacity:1; fill:none" points="
  193.936,1111.38 212.834,1111.38 
  "/>
<polyline clip-path="url(#clip310)" style="stroke:#000000; stroke-linecap:butt; stroke-linejoin:round; stroke-width:4; stroke-opacity:1; fill:none" points="
  193.936,770.223 212.834,770.223 
  "/>
<polyline clip-path="url(#clip310)" style="stroke:#000000; stroke-linecap:butt; stroke-linejoin:round; stroke-width:4; stroke-opacity:1; fill:none" points="
  193.936,429.062 212.834,429.062 
  "/>
<polyline clip-path="url(#clip310)" style="stroke:#000000; stroke-linecap:butt; stroke-linejoin:round; stroke-width:4; stroke-opacity:1; fill:none" points="
  193.936,87.9015 212.834,87.9015 
  "/>
<path clip-path="url(#clip310)" d="M50.9921 1453 L80.6679 1453 L80.6679 1456.93 L50.9921 1456.93 L50.9921 1453 Z" fill="#000000" fill-rule="evenodd" fill-opacity="1" /><path clip-path="url(#clip310)" d="M91.5706 1465.89 L99.2095 1465.89 L99.2095 1439.52 L90.8993 1441.19 L90.8993 1436.93 L99.1632 1435.26 L103.839 1435.26 L103.839 1465.89 L111.478 1465.89 L111.478 1469.82 L91.5706 1469.82 L91.5706 1465.89 Z" fill="#000000" fill-rule="evenodd" fill-opacity="1" /><path clip-path="url(#clip310)" d="M120.922 1463.94 L125.807 1463.94 L125.807 1469.82 L120.922 1469.82 L120.922 1463.94 Z" fill="#000000" fill-rule="evenodd" fill-opacity="1" /><path clip-path="url(#clip310)" d="M145.992 1438.34 Q142.381 1438.34 140.552 1441.91 Q138.746 1445.45 138.746 1452.58 Q138.746 1459.69 140.552 1463.25 Q142.381 1466.79 145.992 1466.79 Q149.626 1466.79 151.431 1463.25 Q153.26 1459.69 153.26 1452.58 Q153.26 1445.45 151.431 1441.91 Q149.626 1438.34 145.992 1438.34 M145.992 1434.64 Q151.802 1434.64 154.857 1439.25 Q157.936 1443.83 157.936 1452.58 Q157.936 1461.31 154.857 1465.91 Q151.802 1470.5 145.992 1470.5 Q140.181 1470.5 137.103 1465.91 Q134.047 1461.31 134.047 1452.58 Q134.047 1443.83 137.103 1439.25 Q140.181 1434.64 145.992 1434.64 Z" fill="#000000" fill-rule="evenodd" fill-opacity="1" /><path clip-path="url(#clip310)" d="M51.9875 1111.83 L81.6633 1111.83 L81.6633 1115.77 L51.9875 1115.77 L51.9875 1111.83 Z" fill="#000000" fill-rule="evenodd" fill-opacity="1" /><path clip-path="url(#clip310)" d="M101.756 1097.18 Q98.1447 1097.18 96.316 1100.75 Q94.5104 1104.29 94.5104 1111.42 Q94.5104 1118.52 96.316 1122.09 Q98.1447 1125.63 101.756 1125.63 Q105.39 1125.63 107.196 1122.09 Q109.024 1118.52 109.024 1111.42 Q109.024 1104.29 107.196 1100.75 Q105.39 1097.18 101.756 1097.18 M101.756 1093.48 Q107.566 1093.48 110.621 1098.08 Q113.7 1102.67 113.7 1111.42 Q113.7 1120.14 110.621 1124.75 Q107.566 1129.33 101.756 1129.33 Q95.9456 1129.33 92.8669 1124.75 Q89.8114 1120.14 89.8114 1111.42 Q89.8114 1102.67 92.8669 1098.08 Q95.9456 1093.48 101.756 1093.48 Z" fill="#000000" fill-rule="evenodd" fill-opacity="1" /><path clip-path="url(#clip310)" d="M121.918 1122.78 L126.802 1122.78 L126.802 1128.66 L121.918 1128.66 L121.918 1122.78 Z" fill="#000000" fill-rule="evenodd" fill-opacity="1" /><path clip-path="url(#clip310)" d="M137.033 1094.1 L155.39 1094.1 L155.39 1098.04 L141.316 1098.04 L141.316 1106.51 Q142.334 1106.16 143.353 1106 Q144.371 1105.82 145.39 1105.82 Q151.177 1105.82 154.556 1108.99 Q157.936 1112.16 157.936 1117.58 Q157.936 1123.15 154.464 1126.26 Q150.992 1129.33 144.672 1129.33 Q142.496 1129.33 140.228 1128.96 Q137.982 1128.59 135.575 1127.85 L135.575 1123.15 Q137.658 1124.29 139.881 1124.84 Q142.103 1125.4 144.58 1125.4 Q148.584 1125.4 150.922 1123.29 Q153.26 1121.19 153.26 1117.58 Q153.26 1113.96 150.922 1111.86 Q148.584 1109.75 144.58 1109.75 Q142.705 1109.75 140.83 1110.17 Q138.978 1110.58 137.033 1111.46 L137.033 1094.1 Z" fill="#000000" fill-rule="evenodd" fill-opacity="1" /><path clip-path="url(#clip310)" d="M100.76 756.021 Q97.1493 756.021 95.3206 759.586 Q93.515 763.128 93.515 770.257 Q93.515 777.364 95.3206 780.929 Q97.1493 784.47 100.76 784.47 Q104.395 784.47 106.2 780.929 Q108.029 777.364 108.029 770.257 Q108.029 763.128 106.2 759.586 Q104.395 756.021 100.76 756.021 M100.76 752.318 Q106.571 752.318 109.626 756.924 Q112.705 761.508 112.705 770.257 Q112.705 778.984 109.626 783.591 Q106.571 788.174 100.76 788.174 Q94.9502 788.174 91.8715 783.591 Q88.816 778.984 88.816 770.257 Q88.816 761.508 91.8715 756.924 Q94.9502 752.318 100.76 752.318 Z" fill="#000000" fill-rule="evenodd" fill-opacity="1" /><path clip-path="url(#clip310)" d="M120.922 781.623 L125.807 781.623 L125.807 787.503 L120.922 787.503 L120.922 781.623 Z" fill="#000000" fill-rule="evenodd" fill-opacity="1" /><path clip-path="url(#clip310)" d="M145.992 756.021 Q142.381 756.021 140.552 759.586 Q138.746 763.128 138.746 770.257 Q138.746 777.364 140.552 780.929 Q142.381 784.47 145.992 784.47 Q149.626 784.47 151.431 780.929 Q153.26 777.364 153.26 770.257 Q153.26 763.128 151.431 759.586 Q149.626 756.021 145.992 756.021 M145.992 752.318 Q151.802 752.318 154.857 756.924 Q157.936 761.508 157.936 770.257 Q157.936 778.984 154.857 783.591 Q151.802 788.174 145.992 788.174 Q140.181 788.174 137.103 783.591 Q134.047 778.984 134.047 770.257 Q134.047 761.508 137.103 756.924 Q140.181 752.318 145.992 752.318 Z" fill="#000000" fill-rule="evenodd" fill-opacity="1" /><path clip-path="url(#clip310)" d="M101.756 414.861 Q98.1447 414.861 96.316 418.426 Q94.5104 421.967 94.5104 429.097 Q94.5104 436.203 96.316 439.768 Q98.1447 443.31 101.756 443.31 Q105.39 443.31 107.196 439.768 Q109.024 436.203 109.024 429.097 Q109.024 421.967 107.196 418.426 Q105.39 414.861 101.756 414.861 M101.756 411.157 Q107.566 411.157 110.621 415.764 Q113.7 420.347 113.7 429.097 Q113.7 437.824 110.621 442.43 Q107.566 447.013 101.756 447.013 Q95.9456 447.013 92.8669 442.43 Q89.8114 437.824 89.8114 429.097 Q89.8114 420.347 92.8669 415.764 Q95.9456 411.157 101.756 411.157 Z" fill="#000000" fill-rule="evenodd" fill-opacity="1" /><path clip-path="url(#clip310)" d="M121.918 440.463 L126.802 440.463 L126.802 446.342 L121.918 446.342 L121.918 440.463 Z" fill="#000000" fill-rule="evenodd" fill-opacity="1" /><path clip-path="url(#clip310)" d="M137.033 411.782 L155.39 411.782 L155.39 415.717 L141.316 415.717 L141.316 424.189 Q142.334 423.842 143.353 423.68 Q144.371 423.495 145.39 423.495 Q151.177 423.495 154.556 426.666 Q157.936 429.838 157.936 435.254 Q157.936 440.833 154.464 443.935 Q150.992 447.013 144.672 447.013 Q142.496 447.013 140.228 446.643 Q137.982 446.273 135.575 445.532 L135.575 440.833 Q137.658 441.967 139.881 442.523 Q142.103 443.078 144.58 443.078 Q148.584 443.078 150.922 440.972 Q153.26 438.865 153.26 435.254 Q153.26 431.643 150.922 429.537 Q148.584 427.43 144.58 427.43 Q142.705 427.43 140.83 427.847 Q138.978 428.264 137.033 429.143 L137.033 411.782 Z" fill="#000000" fill-rule="evenodd" fill-opacity="1" /><path clip-path="url(#clip310)" d="M91.5706 101.246 L99.2095 101.246 L99.2095 74.8807 L90.8993 76.5474 L90.8993 72.2881 L99.1632 70.6215 L103.839 70.6215 L103.839 101.246 L111.478 101.246 L111.478 105.181 L91.5706 105.181 L91.5706 101.246 Z" fill="#000000" fill-rule="evenodd" fill-opacity="1" /><path clip-path="url(#clip310)" d="M120.922 99.3019 L125.807 99.3019 L125.807 105.181 L120.922 105.181 L120.922 99.3019 Z" fill="#000000" fill-rule="evenodd" fill-opacity="1" /><path clip-path="url(#clip310)" d="M145.992 73.7002 Q142.381 73.7002 140.552 77.265 Q138.746 80.8066 138.746 87.9362 Q138.746 95.0427 140.552 98.6075 Q142.381 102.149 145.992 102.149 Q149.626 102.149 151.431 98.6075 Q153.26 95.0427 153.26 87.9362 Q153.26 80.8066 151.431 77.265 Q149.626 73.7002 145.992 73.7002 M145.992 69.9965 Q151.802 69.9965 154.857 74.603 Q157.936 79.1863 157.936 87.9362 Q157.936 96.663 154.857 101.269 Q151.802 105.853 145.992 105.853 Q140.181 105.853 137.103 101.269 Q134.047 96.663 134.047 87.9362 Q134.047 79.1863 137.103 74.603 Q140.181 69.9965 145.992 69.9965 Z" fill="#000000" fill-rule="evenodd" fill-opacity="1" /><polyline clip-path="url(#clip312)" style="stroke:#009af9; stroke-linecap:butt; stroke-linejoin:round; stroke-width:4; stroke-opacity:1; fill:none" points="
  255.035,1365.85 481.326,1207.4 707.617,830.805 933.909,428.271 1160.2,172.169 1386.49,172.169 1612.78,428.271 1839.07,830.805 2065.37,1207.4 2291.66,1365.85 
  
  "/>
<circle clip-path="url(#clip312)" cx="255.035" cy="1365.85" r="14" fill="#009af9" fill-rule="evenodd" fill-opacity="1" stroke="#000000" stroke-opacity="1" stroke-width="3.2"/>
<circle clip-path="url(#clip312)" cx="481.326" cy="1207.4" r="14" fill="#009af9" fill-rule="evenodd" fill-opacity="1" stroke="#000000" stroke-opacity="1" stroke-width="3.2"/>
<circle clip-path="url(#clip312)" cx="707.617" cy="830.805" r="14" fill="#009af9" fill-rule="evenodd" fill-opacity="1" stroke="#000000" stroke-opacity="1" stroke-width="3.2"/>
<circle clip-path="url(#clip312)" cx="933.909" cy="428.271" r="14" fill="#009af9" fill-rule="evenodd" fill-opacity="1" stroke="#000000" stroke-opacity="1" stroke-width="3.2"/>
<circle clip-path="url(#clip312)" cx="1160.2" cy="172.169" r="14" fill="#009af9" fill-rule="evenodd" fill-opacity="1" stroke="#000000" stroke-opacity="1" stroke-width="3.2"/>
<circle clip-path="url(#clip312)" cx="1386.49" cy="172.169" r="14" fill="#009af9" fill-rule="evenodd" fill-opacity="1" stroke="#000000" stroke-opacity="1" stroke-width="3.2"/>
<circle clip-path="url(#clip312)" cx="1612.78" cy="428.271" r="14" fill="#009af9" fill-rule="evenodd" fill-opacity="1" stroke="#000000" stroke-opacity="1" stroke-width="3.2"/>
<circle clip-path="url(#clip312)" cx="1839.07" cy="830.805" r="14" fill="#009af9" fill-rule="evenodd" fill-opacity="1" stroke="#000000" stroke-opacity="1" stroke-width="3.2"/>
<circle clip-path="url(#clip312)" cx="2065.37" cy="1207.4" r="14" fill="#009af9" fill-rule="evenodd" fill-opacity="1" stroke="#000000" stroke-opacity="1" stroke-width="3.2"/>
<circle clip-path="url(#clip312)" cx="2291.66" cy="1365.85" r="14" fill="#009af9" fill-rule="evenodd" fill-opacity="1" stroke="#000000" stroke-opacity="1" stroke-width="3.2"/>
<polyline clip-path="url(#clip312)" style="stroke:#e26f46; stroke-linecap:butt; stroke-linejoin:round; stroke-width:4; stroke-opacity:1; fill:none" points="
  255.035,1445.72 260.007,1444.23 264.979,1442.61 269.952,1440.83 274.924,1438.92 320.9,1414.47 366.877,1378.22 412.853,1330.84 458.829,1273.18 486.459,1234.03 
  514.089,1191.8 541.719,1146.78 569.348,1099.27 616.07,1014.14 662.791,924.402 764.296,721.745 857.875,538.311 908.038,446.351 958.201,361.452 1016.32,274.344 
  1074.44,201.737 1100.26,174.701 1126.09,151.11 1151.91,131.101 1177.74,114.79 1223.03,95.3846 1268.32,87.9763 1317.7,93.7184 1367.08,113.752 1416.75,147.897 
  1466.43,195.345 1521.35,262.06 1576.27,342.049 1628.52,428.575 1680.78,523.182 1789.45,735.891 1880.92,918.561 1936.76,1025.63 1992.6,1125.8 2045.09,1211.25 
  2097.58,1286.18 2139.63,1337.39 2181.68,1379.91 2223.73,1413.09 2265.77,1436.42 2272.24,1439.11 2278.72,1441.55 2285.19,1443.76 2291.66,1445.72 
  "/>
<path clip-path="url(#clip310)" d="
M1988.5 250.738 L2280.8 250.738 L2280.8 95.2176 L1988.5 95.2176  Z
  " fill="#ffffff" fill-rule="evenodd" fill-opacity="1"/>
<polyline clip-path="url(#clip310)" style="stroke:#000000; stroke-linecap:butt; stroke-linejoin:round; stroke-width:4; stroke-opacity:1; fill:none" points="
  1988.5,250.738 2280.8,250.738 2280.8,95.2176 1988.5,95.2176 1988.5,250.738 
  "/>
<polyline clip-path="url(#clip310)" style="stroke:#009af9; stroke-linecap:butt; stroke-linejoin:round; stroke-width:4; stroke-opacity:1; fill:none" points="
  2012.48,147.058 2156.4,147.058 
  "/>
<circle clip-path="url(#clip310)" cx="2084.44" cy="147.058" r="23" fill="#009af9" fill-rule="evenodd" fill-opacity="1" stroke="#000000" stroke-opacity="1" stroke-width="5.12"/>
<path clip-path="url(#clip310)" d="M2194.23 166.745 Q2192.43 171.375 2190.72 172.787 Q2189 174.199 2186.13 174.199 L2182.73 174.199 L2182.73 170.634 L2185.23 170.634 Q2186.99 170.634 2187.96 169.8 Q2188.93 168.967 2190.11 165.865 L2190.88 163.921 L2180.39 138.412 L2184.91 138.412 L2193.01 158.689 L2201.11 138.412 L2205.62 138.412 L2194.23 166.745 Z" fill="#000000" fill-rule="evenodd" fill-opacity="1" /><path clip-path="url(#clip310)" d="M2212.91 160.402 L2220.55 160.402 L2220.55 134.037 L2212.24 135.703 L2212.24 131.444 L2220.51 129.778 L2225.18 129.778 L2225.18 160.402 L2232.82 160.402 L2232.82 164.338 L2212.91 164.338 L2212.91 160.402 Z" fill="#000000" fill-rule="evenodd" fill-opacity="1" /><polyline clip-path="url(#clip310)" style="stroke:#e26f46; stroke-linecap:butt; stroke-linejoin:round; stroke-width:4; stroke-opacity:1; fill:none" points="
  2012.48,198.898 2156.4,198.898 
  "/>
<path clip-path="url(#clip310)" d="M2194.23 218.585 Q2192.43 223.215 2190.72 224.627 Q2189 226.039 2186.13 226.039 L2182.73 226.039 L2182.73 222.474 L2185.23 222.474 Q2186.99 222.474 2187.96 221.64 Q2188.93 220.807 2190.11 217.705 L2190.88 215.761 L2180.39 190.252 L2184.91 190.252 L2193.01 210.529 L2201.11 190.252 L2205.62 190.252 L2194.23 218.585 Z" fill="#000000" fill-rule="evenodd" fill-opacity="1" /><path clip-path="url(#clip310)" d="M2216.13 212.242 L2232.45 212.242 L2232.45 216.178 L2210.51 216.178 L2210.51 212.242 Q2213.17 209.488 2217.75 204.858 Q2222.36 200.205 2223.54 198.863 Q2225.78 196.34 2226.66 194.604 Q2227.57 192.844 2227.57 191.155 Q2227.57 188.4 2225.62 186.664 Q2223.7 184.928 2220.6 184.928 Q2218.4 184.928 2215.95 185.692 Q2213.52 186.455 2210.74 188.006 L2210.74 183.284 Q2213.56 182.15 2216.02 181.571 Q2218.47 180.993 2220.51 180.993 Q2225.88 180.993 2229.07 183.678 Q2232.27 186.363 2232.27 190.854 Q2232.27 192.983 2231.46 194.905 Q2230.67 196.803 2228.56 199.395 Q2227.98 200.067 2224.88 203.284 Q2221.78 206.479 2216.13 212.242 Z" fill="#000000" fill-rule="evenodd" fill-opacity="1" /></svg>
