<?xml version="1.0" encoding="utf-8"?>
<svg xmlns="http://www.w3.org/2000/svg" xmlns:xlink="http://www.w3.org/1999/xlink" width="600" height="400" viewBox="0 0 2400 1600">
<defs>
  <clipPath id="clip770">
    <rect x="0" y="0" width="2400" height="1600"/>
  </clipPath>
</defs>
<path clip-path="url(#clip770)" d="
M0 1600 L2400 1600 L2400 0 L0 0  Z
  " fill="#ffffff" fill-rule="evenodd" fill-opacity="1"/>
<defs>
  <clipPath id="clip771">
    <rect x="480" y="0" width="1681" height="1600"/>
  </clipPath>
</defs>
<path clip-path="url(#clip770)" d="
M182.593 1486.45 L2352.76 1486.45 L2352.76 47.2441 L182.593 47.2441  Z
  " fill="#ffffff" fill-rule="evenodd" fill-opacity="1"/>
<defs>
  <clipPath id="clip772">
    <rect x="182" y="47" width="2171" height="1440"/>
  </clipPath>
</defs>
<polyline clip-path="url(#clip772)" style="stroke:#000000; stroke-linecap:butt; stroke-linejoin:round; stroke-width:2; stroke-opacity:0.1; fill:none" points="
  239.919,1486.45 239.919,47.2441 
  "/>
<polyline clip-path="url(#clip772)" style="stroke:#000000; stroke-linecap:butt; stroke-linejoin:round; stroke-width:2; stroke-opacity:0.1; fill:none" points="
  649.383,1486.45 649.383,47.2441 
  "/>
<polyline clip-path="url(#clip772)" style="stroke:#000000; stroke-linecap:butt; stroke-linejoin:round; stroke-width:2; stroke-opacity:0.1; fill:none" points="
  1058.85,1486.45 1058.85,47.2441 
  "/>
<polyline clip-path="url(#clip772)" style="stroke:#000000; stroke-linecap:butt; stroke-linejoin:round; stroke-width:2; stroke-opacity:0.1; fill:none" points="
  1468.31,1486.45 1468.31,47.2441 
  "/>
<polyline clip-path="url(#clip772)" style="stroke:#000000; stroke-linecap:butt; stroke-linejoin:round; stroke-width:2; stroke-opacity:0.1; fill:none" points="
  1877.78,1486.45 1877.78,47.2441 
  "/>
<polyline clip-path="url(#clip772)" style="stroke:#000000; stroke-linecap:butt; stroke-linejoin:round; stroke-width:2; stroke-opacity:0.1; fill:none" points="
  2287.24,1486.45 2287.24,47.2441 
  "/>
<polyline clip-path="url(#clip770)" style="stroke:#000000; stroke-linecap:butt; stroke-linejoin:round; stroke-width:4; stroke-opacity:1; fill:none" points="
  182.593,1486.45 2352.76,1486.45 
  "/>
<polyline clip-path="url(#clip770)" style="stroke:#000000; stroke-linecap:butt; stroke-linejoin:round; stroke-width:4; stroke-opacity:1; fill:none" points="
  239.919,1486.45 239.919,1467.55 
  "/>
<polyline clip-path="url(#clip770)" style="stroke:#000000; stroke-linecap:butt; stroke-linejoin:round; stroke-width:4; stroke-opacity:1; fill:none" points="
  649.383,1486.45 649.383,1467.55 
  "/>
<polyline clip-path="url(#clip770)" style="stroke:#000000; stroke-linecap:butt; stroke-linejoin:round; stroke-width:4; stroke-opacity:1; fill:none" points="
  1058.85,1486.45 1058.85,1467.55 
  "/>
<polyline clip-path="url(#clip770)" style="stroke:#000000; stroke-linecap:butt; stroke-linejoin:round; stroke-width:4; stroke-opacity:1; fill:none" points="
  1468.31,1486.45 1468.31,1467.55 
  "/>
<polyline clip-path="url(#clip770)" style="stroke:#000000; stroke-linecap:butt; stroke-linejoin:round; stroke-width:4; stroke-opacity:1; fill:none" points="
  1877.78,1486.45 1877.78,1467.55 
  "/>
<polyline clip-path="url(#clip770)" style="stroke:#000000; stroke-linecap:butt; stroke-linejoin:round; stroke-width:4; stroke-opacity:1; fill:none" points="
  2287.24,1486.45 2287.24,1467.55 
  "/>
<path clip-path="url(#clip770)" d="M239.919 1515.64 Q236.307 1515.64 234.479 1519.2 Q232.673 1522.75 232.673 1529.87 Q232.673 1536.98 234.479 1540.55 Q236.307 1544.09 239.919 1544.09 Q243.553 1544.09 245.358 1540.55 Q247.187 1536.98 247.187 1529.87 Q247.187 1522.75 245.358 1519.2 Q243.553 1515.64 239.919 1515.64 M239.919 1511.93 Q245.729 1511.93 248.784 1516.54 Q251.863 1521.12 251.863 1529.87 Q251.863 1538.6 248.784 1543.21 Q245.729 1547.79 239.919 1547.79 Q234.108 1547.79 231.03 1543.21 Q227.974 1538.6 227.974 1529.87 Q227.974 1521.12 231.03 1516.54 Q234.108 1511.93 239.919 1511.93 Z" fill="#000000" fill-rule="evenodd" fill-opacity="1" /><path clip-path="url(#clip770)" d="M608.99 1543.18 L616.629 1543.18 L616.629 1516.82 L608.319 1518.49 L608.319 1514.23 L616.582 1512.56 L621.258 1512.56 L621.258 1543.18 L628.897 1543.18 L628.897 1547.12 L608.99 1547.12 L608.99 1543.18 Z" fill="#000000" fill-rule="evenodd" fill-opacity="1" /><path clip-path="url(#clip770)" d="M648.341 1515.64 Q644.73 1515.64 642.902 1519.2 Q641.096 1522.75 641.096 1529.87 Q641.096 1536.98 642.902 1540.55 Q644.73 1544.09 648.341 1544.09 Q651.976 1544.09 653.781 1540.55 Q655.61 1536.98 655.61 1529.87 Q655.61 1522.75 653.781 1519.2 Q651.976 1515.64 648.341 1515.64 M648.341 1511.93 Q654.152 1511.93 657.207 1516.54 Q660.286 1521.12 660.286 1529.87 Q660.286 1538.6 657.207 1543.21 Q654.152 1547.79 648.341 1547.79 Q642.531 1547.79 639.453 1543.21 Q636.397 1538.6 636.397 1529.87 Q636.397 1521.12 639.453 1516.54 Q642.531 1511.93 648.341 1511.93 Z" fill="#000000" fill-rule="evenodd" fill-opacity="1" /><path clip-path="url(#clip770)" d="M678.503 1515.64 Q674.892 1515.64 673.064 1519.2 Q671.258 1522.75 671.258 1529.87 Q671.258 1536.98 673.064 1540.55 Q674.892 1544.09 678.503 1544.09 Q682.138 1544.09 683.943 1540.55 Q685.772 1536.98 685.772 1529.87 Q685.772 1522.75 683.943 1519.2 Q682.138 1515.64 678.503 1515.64 M678.503 1511.93 Q684.313 1511.93 687.369 1516.54 Q690.448 1521.12 690.448 1529.87 Q690.448 1538.6 687.369 1543.21 Q684.313 1547.79 678.503 1547.79 Q672.693 1547.79 669.614 1543.21 Q666.559 1538.6 666.559 1529.87 Q666.559 1521.12 669.614 1516.54 Q672.693 1511.93 678.503 1511.93 Z" fill="#000000" fill-rule="evenodd" fill-opacity="1" /><path clip-path="url(#clip770)" d="M1022.54 1543.18 L1038.86 1543.18 L1038.86 1547.12 L1016.92 1547.12 L1016.92 1543.18 Q1019.58 1540.43 1024.16 1535.8 Q1028.77 1531.15 1029.95 1529.81 Q1032.19 1527.28 1033.07 1525.55 Q1033.98 1523.79 1033.98 1522.1 Q1033.98 1519.34 1032.03 1517.61 Q1030.11 1515.87 1027.01 1515.87 Q1024.81 1515.87 1022.35 1516.63 Q1019.92 1517.4 1017.15 1518.95 L1017.15 1514.23 Q1019.97 1513.09 1022.42 1512.51 Q1024.88 1511.93 1026.92 1511.93 Q1032.29 1511.93 1035.48 1514.62 Q1038.67 1517.31 1038.67 1521.8 Q1038.67 1523.93 1037.86 1525.85 Q1037.08 1527.74 1034.97 1530.34 Q1034.39 1531.01 1031.29 1534.23 Q1028.19 1537.42 1022.54 1543.18 Z" fill="#000000" fill-rule="evenodd" fill-opacity="1" /><path clip-path="url(#clip770)" d="M1058.67 1515.64 Q1055.06 1515.64 1053.23 1519.2 Q1051.43 1522.75 1051.43 1529.87 Q1051.43 1536.98 1053.23 1540.55 Q1055.06 1544.09 1058.67 1544.09 Q1062.31 1544.09 1064.11 1540.55 Q1065.94 1536.98 1065.94 1529.87 Q1065.94 1522.75 1064.11 1519.2 Q1062.31 1515.64 1058.67 1515.64 M1058.67 1511.93 Q1064.48 1511.93 1067.54 1516.54 Q1070.62 1521.12 1070.62 1529.87 Q1070.62 1538.6 1067.54 1543.21 Q1064.48 1547.79 1058.67 1547.79 Q1052.86 1547.79 1049.79 1543.21 Q1046.73 1538.6 1046.73 1529.87 Q1046.73 1521.12 1049.79 1516.54 Q1052.86 1511.93 1058.67 1511.93 Z" fill="#000000" fill-rule="evenodd" fill-opacity="1" /><path clip-path="url(#clip770)" d="M1088.84 1515.64 Q1085.22 1515.64 1083.4 1519.2 Q1081.59 1522.75 1081.59 1529.87 Q1081.59 1536.98 1083.4 1540.55 Q1085.22 1544.09 1088.84 1544.09 Q1092.47 1544.09 1094.28 1540.55 Q1096.1 1536.98 1096.1 1529.87 Q1096.1 1522.75 1094.28 1519.2 Q1092.47 1515.64 1088.84 1515.64 M1088.84 1511.93 Q1094.65 1511.93 1097.7 1516.54 Q1100.78 1521.12 1100.78 1529.87 Q1100.78 1538.6 1097.7 1543.21 Q1094.65 1547.79 1088.84 1547.79 Q1083.03 1547.79 1079.95 1543.21 Q1076.89 1538.6 1076.89 1529.87 Q1076.89 1521.12 1079.95 1516.54 Q1083.03 1511.93 1088.84 1511.93 Z" fill="#000000" fill-rule="evenodd" fill-opacity="1" /><path clip-path="url(#clip770)" d="M1442.07 1528.49 Q1445.43 1529.2 1447.31 1531.47 Q1449.2 1533.74 1449.2 1537.07 Q1449.2 1542.19 1445.69 1544.99 Q1442.17 1547.79 1435.69 1547.79 Q1433.51 1547.79 1431.19 1547.35 Q1428.9 1546.93 1426.45 1546.08 L1426.45 1541.56 Q1428.39 1542.7 1430.71 1543.28 Q1433.02 1543.86 1435.55 1543.86 Q1439.94 1543.86 1442.24 1542.12 Q1444.55 1540.38 1444.55 1537.07 Q1444.55 1534.02 1442.4 1532.31 Q1440.27 1530.57 1436.45 1530.57 L1432.42 1530.57 L1432.42 1526.73 L1436.63 1526.73 Q1440.08 1526.73 1441.91 1525.36 Q1443.74 1523.97 1443.74 1521.38 Q1443.74 1518.72 1441.84 1517.31 Q1439.97 1515.87 1436.45 1515.87 Q1434.53 1515.87 1432.33 1516.29 Q1430.13 1516.7 1427.49 1517.58 L1427.49 1513.42 Q1430.15 1512.68 1432.47 1512.31 Q1434.81 1511.93 1436.87 1511.93 Q1442.19 1511.93 1445.29 1514.37 Q1448.39 1516.77 1448.39 1520.89 Q1448.39 1523.76 1446.75 1525.75 Q1445.11 1527.72 1442.07 1528.49 Z" fill="#000000" fill-rule="evenodd" fill-opacity="1" /><path clip-path="url(#clip770)" d="M1468.07 1515.64 Q1464.46 1515.64 1462.63 1519.2 Q1460.82 1522.75 1460.82 1529.87 Q1460.82 1536.98 1462.63 1540.55 Q1464.46 1544.09 1468.07 1544.09 Q1471.7 1544.09 1473.51 1540.55 Q1475.34 1536.98 1475.34 1529.87 Q1475.34 1522.75 1473.51 1519.2 Q1471.7 1515.64 1468.07 1515.64 M1468.07 1511.93 Q1473.88 1511.93 1476.93 1516.54 Q1480.01 1521.12 1480.01 1529.87 Q1480.01 1538.6 1476.93 1543.21 Q1473.88 1547.79 1468.07 1547.79 Q1462.26 1547.79 1459.18 1543.21 Q1456.12 1538.6 1456.12 1529.87 Q1456.12 1521.12 1459.18 1516.54 Q1462.26 1511.93 1468.07 1511.93 Z" fill="#000000" fill-rule="evenodd" fill-opacity="1" /><path clip-path="url(#clip770)" d="M1498.23 1515.64 Q1494.62 1515.64 1492.79 1519.2 Q1490.99 1522.75 1490.99 1529.87 Q1490.99 1536.98 1492.79 1540.55 Q1494.62 1544.09 1498.23 1544.09 Q1501.87 1544.09 1503.67 1540.55 Q1505.5 1536.98 1505.5 1529.87 Q1505.5 1522.75 1503.67 1519.2 Q1501.87 1515.64 1498.23 1515.64 M1498.23 1511.93 Q1504.04 1511.93 1507.1 1516.54 Q1510.18 1521.12 1510.18 1529.87 Q1510.18 1538.6 1507.1 1543.21 Q1504.04 1547.79 1498.23 1547.79 Q1492.42 1547.79 1489.34 1543.21 Q1486.29 1538.6 1486.29 1529.87 Q1486.29 1521.12 1489.34 1516.54 Q1492.42 1511.93 1498.23 1511.93 Z" fill="#000000" fill-rule="evenodd" fill-opacity="1" /><path clip-path="url(#clip770)" d="M1850.87 1516.63 L1839.06 1535.08 L1850.87 1535.08 L1850.87 1516.63 M1849.64 1512.56 L1855.52 1512.56 L1855.52 1535.08 L1860.45 1535.08 L1860.45 1538.97 L1855.52 1538.97 L1855.52 1547.12 L1850.87 1547.12 L1850.87 1538.97 L1835.27 1538.97 L1835.27 1534.46 L1849.64 1512.56 Z" fill="#000000" fill-rule="evenodd" fill-opacity="1" /><path clip-path="url(#clip770)" d="M1878.18 1515.64 Q1874.57 1515.64 1872.74 1519.2 Q1870.94 1522.75 1870.94 1529.87 Q1870.94 1536.98 1872.74 1540.55 Q1874.57 1544.09 1878.18 1544.09 Q1881.82 1544.09 1883.62 1540.55 Q1885.45 1536.98 1885.45 1529.87 Q1885.45 1522.75 1883.62 1519.2 Q1881.82 1515.64 1878.18 1515.64 M1878.18 1511.93 Q1883.99 1511.93 1887.05 1516.54 Q1890.13 1521.12 1890.13 1529.87 Q1890.13 1538.6 1887.05 1543.21 Q1883.99 1547.79 1878.18 1547.79 Q1872.37 1547.79 1869.29 1543.21 Q1866.24 1538.6 1866.24 1529.87 Q1866.24 1521.12 1869.29 1516.54 Q1872.37 1511.93 1878.18 1511.93 Z" fill="#000000" fill-rule="evenodd" fill-opacity="1" /><path clip-path="url(#clip770)" d="M1908.34 1515.64 Q1904.73 1515.64 1902.9 1519.2 Q1901.1 1522.75 1901.1 1529.87 Q1901.1 1536.98 1902.9 1540.55 Q1904.73 1544.09 1908.34 1544.09 Q1911.98 1544.09 1913.78 1540.55 Q1915.61 1536.98 1915.61 1529.87 Q1915.61 1522.75 1913.78 1519.2 Q1911.98 1515.64 1908.34 1515.64 M1908.34 1511.93 Q1914.15 1511.93 1917.21 1516.54 Q1920.29 1521.12 1920.29 1529.87 Q1920.29 1538.6 1917.21 1543.21 Q1914.15 1547.79 1908.34 1547.79 Q1902.53 1547.79 1899.46 1543.21 Q1896.4 1538.6 1896.4 1529.87 Q1896.4 1521.12 1899.46 1516.54 Q1902.53 1511.93 1908.34 1511.93 Z" fill="#000000" fill-rule="evenodd" fill-opacity="1" /><path clip-path="url(#clip770)" d="M2246.86 1512.56 L2265.22 1512.56 L2265.22 1516.5 L2251.14 1516.5 L2251.14 1524.97 Q2252.16 1524.62 2253.18 1524.46 Q2254.2 1524.27 2255.22 1524.27 Q2261 1524.27 2264.38 1527.44 Q2267.76 1530.62 2267.76 1536.03 Q2267.76 1541.61 2264.29 1544.71 Q2260.82 1547.79 2254.5 1547.79 Q2252.32 1547.79 2250.05 1547.42 Q2247.81 1547.05 2245.4 1546.31 L2245.4 1541.61 Q2247.48 1542.74 2249.71 1543.3 Q2251.93 1543.86 2254.41 1543.86 Q2258.41 1543.86 2260.75 1541.75 Q2263.09 1539.64 2263.09 1536.03 Q2263.09 1532.42 2260.75 1530.31 Q2258.41 1528.21 2254.41 1528.21 Q2252.53 1528.21 2250.66 1528.62 Q2248.8 1529.04 2246.86 1529.92 L2246.86 1512.56 Z" fill="#000000" fill-rule="evenodd" fill-opacity="1" /><path clip-path="url(#clip770)" d="M2286.98 1515.64 Q2283.36 1515.64 2281.54 1519.2 Q2279.73 1522.75 2279.73 1529.87 Q2279.73 1536.98 2281.54 1540.55 Q2283.36 1544.09 2286.98 1544.09 Q2290.61 1544.09 2292.42 1540.55 Q2294.24 1536.98 2294.24 1529.87 Q2294.24 1522.75 2292.42 1519.2 Q2290.61 1515.64 2286.98 1515.64 M2286.98 1511.93 Q2292.79 1511.93 2295.84 1516.54 Q2298.92 1521.12 2298.92 1529.87 Q2298.92 1538.6 2295.84 1543.21 Q2292.79 1547.79 2286.98 1547.79 Q2281.17 1547.79 2278.09 1543.21 Q2275.03 1538.6 2275.03 1529.87 Q2275.03 1521.12 2278.09 1516.54 Q2281.17 1511.93 2286.98 1511.93 Z" fill="#000000" fill-rule="evenodd" fill-opacity="1" /><path clip-path="url(#clip770)" d="M2317.14 1515.64 Q2313.53 1515.64 2311.7 1519.2 Q2309.89 1522.75 2309.89 1529.87 Q2309.89 1536.98 2311.7 1540.55 Q2313.53 1544.09 2317.14 1544.09 Q2320.77 1544.09 2322.58 1540.55 Q2324.41 1536.98 2324.41 1529.87 Q2324.41 1522.75 2322.58 1519.2 Q2320.77 1515.64 2317.14 1515.64 M2317.14 1511.93 Q2322.95 1511.93 2326 1516.54 Q2329.08 1521.12 2329.08 1529.87 Q2329.08 1538.6 2326 1543.21 Q2322.95 1547.79 2317.14 1547.79 Q2311.33 1547.79 2308.25 1543.21 Q2305.19 1538.6 2305.19 1529.87 Q2305.19 1521.12 2308.25 1516.54 Q2311.33 1511.93 2317.14 1511.93 Z" fill="#000000" fill-rule="evenodd" fill-opacity="1" /><polyline clip-path="url(#clip772)" style="stroke:#000000; stroke-linecap:butt; stroke-linejoin:round; stroke-width:2; stroke-opacity:0.1; fill:none" points="
  182.593,1468.09 2352.76,1468.09 
  "/>
<polyline clip-path="url(#clip772)" style="stroke:#000000; stroke-linecap:butt; stroke-linejoin:round; stroke-width:2; stroke-opacity:0.1; fill:none" points="
  182.593,973.742 2352.76,973.742 
  "/>
<polyline clip-path="url(#clip772)" style="stroke:#000000; stroke-linecap:butt; stroke-linejoin:round; stroke-width:2; stroke-opacity:0.1; fill:none" points="
  182.593,479.396 2352.76,479.396 
  "/>
<polyline clip-path="url(#clip770)" style="stroke:#000000; stroke-linecap:butt; stroke-linejoin:round; stroke-width:4; stroke-opacity:1; fill:none" points="
  182.593,1486.45 182.593,47.2441 
  "/>
<polyline clip-path="url(#clip770)" style="stroke:#000000; stroke-linecap:butt; stroke-linejoin:round; stroke-width:4; stroke-opacity:1; fill:none" points="
  182.593,1468.09 201.491,1468.09 
  "/>
<polyline clip-path="url(#clip770)" style="stroke:#000000; stroke-linecap:butt; stroke-linejoin:round; stroke-width:4; stroke-opacity:1; fill:none" points="
  182.593,973.742 201.491,973.742 
  "/>
<polyline clip-path="url(#clip770)" style="stroke:#000000; stroke-linecap:butt; stroke-linejoin:round; stroke-width:4; stroke-opacity:1; fill:none" points="
  182.593,479.396 201.491,479.396 
  "/>
<path clip-path="url(#clip770)" d="M75.8878 1487.88 L83.5267 1487.88 L83.5267 1461.51 L75.2165 1463.18 L75.2165 1458.92 L83.4804 1457.26 L88.1563 1457.26 L88.1563 1487.88 L95.7951 1487.88 L95.7951 1491.82 L75.8878 1491.82 L75.8878 1487.88 Z" fill="#000000" fill-rule="evenodd" fill-opacity="1" /><path clip-path="url(#clip770)" d="M115.239 1460.33 Q111.628 1460.33 109.8 1463.9 Q107.994 1467.44 107.994 1474.57 Q107.994 1481.68 109.8 1485.24 Q111.628 1488.78 115.239 1488.78 Q118.874 1488.78 120.679 1485.24 Q122.508 1481.68 122.508 1474.57 Q122.508 1467.44 120.679 1463.9 Q118.874 1460.33 115.239 1460.33 M115.239 1456.63 Q121.05 1456.63 124.105 1461.24 Q127.184 1465.82 127.184 1474.57 Q127.184 1483.3 124.105 1487.9 Q121.05 1492.49 115.239 1492.49 Q109.429 1492.49 106.351 1487.9 Q103.295 1483.3 103.295 1474.57 Q103.295 1465.82 106.351 1461.24 Q109.429 1456.63 115.239 1456.63 Z" fill="#000000" fill-rule="evenodd" fill-opacity="1" /><path clip-path="url(#clip770)" d="M136.889 1438.83 Q133.955 1438.83 132.469 1441.72 Q131.002 1444.6 131.002 1450.39 Q131.002 1456.17 132.469 1459.06 Q133.955 1461.94 136.889 1461.94 Q139.841 1461.94 141.308 1459.06 Q142.794 1456.17 142.794 1450.39 Q142.794 1444.6 141.308 1441.72 Q139.841 1438.83 136.889 1438.83 M136.889 1435.82 Q141.609 1435.82 144.092 1439.56 Q146.593 1443.28 146.593 1450.39 Q146.593 1457.48 144.092 1461.23 Q141.609 1464.95 136.889 1464.95 Q132.168 1464.95 129.666 1461.23 Q127.184 1457.48 127.184 1450.39 Q127.184 1443.28 129.666 1439.56 Q132.168 1435.82 136.889 1435.82 Z" fill="#000000" fill-rule="evenodd" fill-opacity="1" /><path clip-path="url(#clip770)" d="M53.074 993.534 L60.7128 993.534 L60.7128 967.169 L52.4027 968.835 L52.4027 964.576 L60.6666 962.91 L65.3425 962.91 L65.3425 993.534 L72.9813 993.534 L72.9813 997.47 L53.074 997.47 L53.074 993.534 Z" fill="#000000" fill-rule="evenodd" fill-opacity="1" /><path clip-path="url(#clip770)" d="M92.4256 965.988 Q88.8146 965.988 86.9859 969.553 Q85.1803 973.095 85.1803 980.224 Q85.1803 987.331 86.9859 990.896 Q88.8146 994.437 92.4256 994.437 Q96.0599 994.437 97.8654 990.896 Q99.6941 987.331 99.6941 980.224 Q99.6941 973.095 97.8654 969.553 Q96.0599 965.988 92.4256 965.988 M92.4256 962.285 Q98.2358 962.285 101.291 966.891 Q104.37 971.474 104.37 980.224 Q104.37 988.951 101.291 993.558 Q98.2358 998.141 92.4256 998.141 Q86.6155 998.141 83.5368 993.558 Q80.4813 988.951 80.4813 980.224 Q80.4813 971.474 83.5368 966.891 Q86.6155 962.285 92.4256 962.285 Z" fill="#000000" fill-rule="evenodd" fill-opacity="1" /><path clip-path="url(#clip770)" d="M104.915 966.862 L111.122 966.862 L111.122 945.44 L104.37 946.794 L104.37 943.333 L111.084 941.979 L114.884 941.979 L114.884 966.862 L121.09 966.862 L121.09 970.059 L104.915 970.059 L104.915 966.862 Z" fill="#000000" fill-rule="evenodd" fill-opacity="1" /><path clip-path="url(#clip770)" d="M136.889 944.481 Q133.955 944.481 132.469 947.377 Q131.002 950.255 131.002 956.047 Q131.002 961.821 132.469 964.718 Q133.955 967.595 136.889 967.595 Q139.841 967.595 141.308 964.718 Q142.794 961.821 142.794 956.047 Q142.794 950.255 141.308 947.377 Q139.841 944.481 136.889 944.481 M136.889 941.471 Q141.609 941.471 144.092 945.214 Q146.593 948.938 146.593 956.047 Q146.593 963.138 144.092 966.881 Q141.609 970.605 136.889 970.605 Q132.168 970.605 129.666 966.881 Q127.184 963.138 127.184 956.047 Q127.184 948.938 129.666 945.214 Q132.168 941.471 136.889 941.471 Z" fill="#000000" fill-rule="evenodd" fill-opacity="1" /><path clip-path="url(#clip770)" d="M51.6634 499.189 L59.3023 499.189 L59.3023 472.823 L50.9921 474.49 L50.9921 470.231 L59.256 468.564 L63.9319 468.564 L63.9319 499.189 L71.5707 499.189 L71.5707 503.124 L51.6634 503.124 L51.6634 499.189 Z" fill="#000000" fill-rule="evenodd" fill-opacity="1" /><path clip-path="url(#clip770)" d="M91.0151 471.643 Q87.404 471.643 85.5753 475.208 Q83.7697 478.749 83.7697 485.879 Q83.7697 492.985 85.5753 496.55 Q87.404 500.092 91.0151 500.092 Q94.6493 500.092 96.4548 496.55 Q98.2835 492.985 98.2835 485.879 Q98.2835 478.749 96.4548 475.208 Q94.6493 471.643 91.0151 471.643 M91.0151 467.939 Q96.8252 467.939 99.8808 472.546 Q102.959 477.129 102.959 485.879 Q102.959 494.606 99.8808 499.212 Q96.8252 503.795 91.0151 503.795 Q85.2049 503.795 82.1262 499.212 Q79.0707 494.606 79.0707 485.879 Q79.0707 477.129 82.1262 472.546 Q85.2049 467.939 91.0151 467.939 Z" fill="#000000" fill-rule="evenodd" fill-opacity="1" /><path clip-path="url(#clip770)" d="M107.53 472.516 L120.789 472.516 L120.789 475.714 L102.959 475.714 L102.959 472.516 Q105.122 470.278 108.846 466.517 Q112.589 462.736 113.548 461.645 Q115.373 459.595 116.087 458.185 Q116.821 456.755 116.821 455.382 Q116.821 453.144 115.241 451.734 Q113.68 450.323 111.16 450.323 Q109.373 450.323 107.379 450.944 Q105.404 451.564 103.148 452.825 L103.148 448.988 Q105.442 448.066 107.436 447.596 Q109.429 447.126 111.084 447.126 Q115.448 447.126 118.043 449.308 Q120.639 451.489 120.639 455.138 Q120.639 456.868 119.98 458.429 Q119.341 459.972 117.63 462.078 Q117.159 462.623 114.639 465.238 Q112.119 467.833 107.53 472.516 Z" fill="#000000" fill-rule="evenodd" fill-opacity="1" /><path clip-path="url(#clip770)" d="M136.889 450.135 Q133.955 450.135 132.469 453.031 Q131.002 455.909 131.002 461.702 Q131.002 467.476 132.469 470.372 Q133.955 473.25 136.889 473.25 Q139.841 473.25 141.308 470.372 Q142.794 467.476 142.794 461.702 Q142.794 455.909 141.308 453.031 Q139.841 450.135 136.889 450.135 M136.889 447.126 Q141.609 447.126 144.092 450.869 Q146.593 454.593 146.593 461.702 Q146.593 468.792 144.092 472.535 Q141.609 476.259 136.889 476.259 Q132.168 476.259 129.666 472.535 Q127.184 468.792 127.184 461.702 Q127.184 454.593 129.666 450.869 Q132.168 447.126 136.889 447.126 Z" fill="#000000" fill-rule="evenodd" fill-opacity="1" /><polyline clip-path="url(#clip772)" style="stroke:#009af9; stroke-linecap:butt; stroke-linejoin:round; stroke-width:16; stroke-opacity:1; fill:none" points="
  244.013,1445.72 248.108,1443.59 252.202,1441.1 256.297,1438.48 260.392,1435.8 264.486,1433.09 268.581,1430.38 272.676,1427.67 276.77,1424.95 280.865,1422.23 
  284.96,1419.52 289.054,1416.8 293.149,1414.08 297.244,1411.36 301.338,1408.65 305.433,1405.93 309.527,1403.21 313.622,1400.49 317.717,1397.78 321.811,1395.06 
  325.906,1392.34 330.001,1389.62 334.095,1386.91 338.19,1384.19 342.285,1381.47 346.379,1378.75 350.474,1376.04 354.569,1373.32 358.663,1370.6 362.758,1367.88 
  366.853,1365.17 370.947,1362.45 375.042,1359.73 379.136,1357.01 383.231,1354.3 387.326,1351.58 391.42,1348.86 395.515,1346.14 399.61,1343.43 403.704,1340.71 
  407.799,1337.99 411.894,1335.28 415.988,1332.56 420.083,1329.84 424.178,1327.12 428.272,1324.41 432.367,1321.69 436.462,1318.97 440.556,1316.25 444.651,1313.54 
  448.745,1310.82 452.84,1308.1 456.935,1305.38 461.029,1302.67 465.124,1299.95 469.219,1297.23 473.313,1294.51 477.408,1291.8 481.503,1289.08 485.597,1286.36 
  489.692,1283.64 493.787,1280.93 497.881,1278.21 501.976,1275.49 506.071,1272.77 510.165,1270.06 514.26,1267.34 518.354,1264.62 522.449,1261.9 526.544,1259.19 
  530.638,1256.47 534.733,1253.75 538.828,1251.03 542.922,1248.32 547.017,1245.6 551.112,1242.88 555.206,1240.17 559.301,1237.45 563.396,1234.73 567.49,1232.01 
  571.585,1229.3 575.679,1226.58 579.774,1223.86 583.869,1221.14 587.963,1218.43 592.058,1215.71 596.153,1212.99 600.247,1210.27 604.342,1207.56 608.437,1204.84 
  612.531,1202.12 616.626,1199.4 620.721,1196.69 624.815,1193.97 628.91,1191.25 633.005,1188.53 637.099,1185.82 641.194,1183.1 645.288,1180.38 649.383,1177.66 
  653.478,1174.95 657.572,1172.23 661.667,1169.51 665.762,1166.79 669.856,1164.08 673.951,1161.36 678.046,1158.64 682.14,1155.93 686.235,1153.21 690.33,1150.49 
  694.424,1147.77 698.519,1145.06 702.614,1142.34 706.708,1139.62 710.803,1136.9 714.897,1134.19 718.992,1131.47 723.087,1128.75 727.181,1126.03 731.276,1123.32 
  735.371,1120.6 739.465,1117.88 743.56,1115.16 747.655,1112.45 751.749,1109.73 755.844,1107.01 759.939,1104.29 764.033,1101.58 768.128,1098.86 772.223,1096.14 
  776.317,1093.42 780.412,1090.71 784.506,1087.99 788.601,1085.27 792.696,1082.55 796.79,1079.84 800.885,1077.12 804.98,1074.4 809.074,1071.68 813.169,1068.97 
  817.264,1066.25 821.358,1063.53 825.453,1060.82 829.548,1058.1 833.642,1055.38 837.737,1052.66 841.831,1049.95 845.926,1047.23 850.021,1044.51 854.115,1041.79 
  858.21,1039.08 862.305,1036.36 866.399,1033.64 870.494,1030.92 874.589,1028.21 878.683,1025.49 882.778,1022.77 886.873,1020.05 890.967,1017.34 895.062,1014.62 
  899.157,1011.9 903.251,1009.18 907.346,1006.47 911.44,1003.75 915.535,1001.03 919.63,998.314 923.724,995.597 927.819,992.879 931.914,990.162 936.008,987.445 
  940.103,984.727 944.198,982.01 948.292,979.292 952.387,976.575 956.482,973.857 960.576,971.14 964.671,968.423 968.766,965.705 972.86,962.988 976.955,960.27 
  981.049,957.553 985.144,954.835 989.239,952.118 993.333,949.401 997.428,946.683 1001.52,943.966 1005.62,941.248 1009.71,938.531 1013.81,935.813 1017.9,933.096 
  1022,930.379 1026.09,927.661 1030.19,924.944 1034.28,922.226 1038.37,919.509 1042.47,916.791 1046.56,914.074 1050.66,911.357 1054.75,908.639 1058.85,905.922 
  1062.94,903.204 1067.04,900.487 1071.13,897.769 1075.23,895.052 1079.32,892.335 1083.42,889.617 1087.51,886.9 1091.6,884.182 1095.7,881.465 1099.79,878.747 
  1103.89,876.03 1107.98,873.313 1112.08,870.595 1116.17,867.878 1120.27,865.16 1124.36,862.443 1128.46,859.725 1132.55,857.008 1136.65,854.291 1140.74,851.573 
  1144.84,848.856 1148.93,846.138 1153.02,843.421 1157.12,840.704 1161.21,837.986 1165.31,835.269 1169.4,832.551 1173.5,829.834 1177.59,827.116 1181.69,824.399 
  1185.78,821.682 1189.88,818.964 1193.97,816.247 1198.07,813.529 1202.16,810.812 1206.25,808.094 1210.35,805.377 1214.44,802.66 1218.54,799.942 1222.63,797.225 
  1226.73,794.507 1230.82,791.79 1234.92,789.072 1239.01,786.355 1243.11,783.638 1247.2,780.92 1251.3,778.203 1255.39,775.485 1259.49,772.768 1263.58,770.05 
  1267.67,767.333 1271.77,764.616 1275.86,761.898 1279.96,759.181 1284.05,756.463 1288.15,753.746 1292.24,751.028 1296.34,748.311 1300.43,745.594 1304.53,742.876 
  1308.62,740.159 1312.72,737.441 1316.81,734.724 1320.91,732.006 1325,729.289 1329.09,726.572 1333.19,723.854 1337.28,721.137 1341.38,718.419 1345.47,715.702 
  1349.57,712.984 1353.66,710.267 1357.76,707.55 1361.85,704.832 1365.95,702.115 1370.04,699.397 1374.14,696.68 1378.23,693.962 1382.32,691.245 1386.42,688.528 
  1390.51,685.81 1394.61,683.093 1398.7,680.375 1402.8,677.658 1406.89,674.94 1410.99,672.223 1415.08,669.506 1419.18,666.788 1423.27,664.071 1427.37,661.353 
  1431.46,658.636 1435.56,655.918 1439.65,653.201 1443.74,650.484 1447.84,647.766 1451.93,645.049 1456.03,642.331 1460.12,639.614 1464.22,636.896 1468.31,634.179 
  1472.41,631.462 1476.5,628.744 1480.6,626.027 1484.69,623.309 1488.79,620.592 1492.88,617.875 1496.97,615.157 1501.07,612.44 1505.16,609.722 1509.26,607.005 
  1513.35,604.287 1517.45,601.57 1521.54,598.853 1525.64,596.135 1529.73,593.418 1533.83,590.7 1537.92,587.983 1542.02,585.265 1546.11,582.548 1550.21,579.831 
  1554.3,577.113 1558.39,574.396 1562.49,571.678 1566.58,568.961 1570.68,566.243 1574.77,563.526 1578.87,560.809 1582.96,558.091 1587.06,555.374 1591.15,552.656 
  1595.25,549.939 1599.34,547.221 1603.44,544.504 1607.53,541.787 1611.62,539.069 1615.72,536.352 1619.81,533.634 1623.91,530.917 1628,528.199 1632.1,525.482 
  1636.19,522.765 1640.29,520.047 1644.38,517.33 1648.48,514.612 1652.57,511.895 1656.67,509.177 1660.76,506.46 1664.86,503.743 1668.95,501.025 1673.04,498.308 
  1677.14,495.59 1681.23,492.873 1685.33,490.155 1689.42,487.438 1693.52,484.721 1697.61,482.003 1701.71,479.286 1705.8,476.568 1709.9,473.851 1713.99,471.133 
  1718.09,468.416 1722.18,465.699 1726.28,462.981 1730.37,460.264 1734.46,457.546 1738.56,454.829 1742.65,452.111 1746.75,449.394 1750.84,446.677 1754.94,443.959 
  1759.03,441.242 1763.13,438.524 1767.22,435.807 1771.32,433.089 1775.41,430.372 1779.51,427.655 1783.6,424.937 1787.69,422.22 1791.79,419.502 1795.88,416.785 
  1799.98,414.067 1804.07,411.35 1808.17,408.633 1812.26,405.915 1816.36,403.198 1820.45,400.48 1824.55,397.763 1828.64,395.046 1832.74,392.328 1836.83,389.611 
  1840.93,386.893 1845.02,384.176 1849.11,381.458 1853.21,378.741 1857.3,376.024 1861.4,373.306 1865.49,370.589 1869.59,367.871 1873.68,365.154 1877.78,362.436 
  1881.87,359.719 1885.97,357.002 1890.06,354.284 1894.16,351.567 1898.25,348.849 1902.34,346.132 1906.44,343.414 1910.53,340.697 1914.63,337.98 1918.72,335.262 
  1922.82,332.545 1926.91,329.827 1931.01,327.11 1935.1,324.392 1939.2,321.675 1943.29,318.958 1947.39,316.24 1951.48,313.523 1955.58,310.805 1959.67,308.088 
  1963.76,305.37 1967.86,302.653 1971.95,299.936 1976.05,297.218 1980.14,294.501 1984.24,291.783 1988.33,289.066 1992.43,286.348 1996.52,283.631 2000.62,280.914 
  2004.71,278.196 2008.81,275.479 2012.9,272.761 2016.99,270.044 2021.09,267.326 2025.18,264.609 2029.28,261.892 2033.37,259.174 2037.47,256.457 2041.56,253.739 
  2045.66,251.022 2049.75,248.304 2053.85,245.587 2057.94,242.87 2062.04,240.152 2066.13,237.435 2070.23,234.717 2074.32,232 2078.41,229.282 2082.51,226.565 
  2086.6,223.848 2090.7,221.13 2094.79,218.413 2098.89,215.695 2102.98,212.978 2107.08,210.26 2111.17,207.543 2115.27,204.826 2119.36,202.108 2123.46,199.391 
  2127.55,196.673 2131.65,193.956 2135.74,191.238 2139.83,188.521 2143.93,185.804 2148.02,183.086 2152.12,180.369 2156.21,177.651 2160.31,174.934 2164.4,172.217 
  2168.5,169.499 2172.59,166.782 2176.69,164.064 2180.78,161.347 2184.88,158.629 2188.97,155.912 2193.06,153.195 2197.16,150.477 2201.25,147.76 2205.35,145.042 
  2209.44,142.325 2213.54,139.607 2217.63,136.89 2221.73,134.173 2225.82,131.455 2229.92,128.738 2234.01,126.02 2238.11,123.303 2242.2,120.585 2246.3,117.868 
  2250.39,115.151 2254.48,112.433 2258.58,109.716 2262.67,106.998 2266.77,104.281 2270.86,101.563 2274.96,98.846 2279.05,96.1286 2283.15,93.4111 2287.24,90.6937 
  2291.34,87.9763 
  "/>
<path clip-path="url(#clip770)" d="
M1986.86 198.898 L2280.42 198.898 L2280.42 95.2176 L1986.86 95.2176  Z
  " fill="#ffffff" fill-rule="evenodd" fill-opacity="1"/>
<polyline clip-path="url(#clip770)" style="stroke:#000000; stroke-linecap:butt; stroke-linejoin:round; stroke-width:4; stroke-opacity:1; fill:none" points="
  1986.86,198.898 2280.42,198.898 2280.42,95.2176 1986.86,95.2176 1986.86,198.898 
  "/>
<polyline clip-path="url(#clip770)" style="stroke:#009af9; stroke-linecap:butt; stroke-linejoin:round; stroke-width:4; stroke-opacity:1; fill:none" points="
  2010.97,147.058 2155.65,147.058 
  "/>
<path clip-path="url(#clip770)" d="M2193.6 166.745 Q2191.8 171.375 2190.09 172.787 Q2188.37 174.199 2185.5 174.199 L2182.1 174.199 L2182.1 170.634 L2184.6 170.634 Q2186.36 170.634 2187.33 169.8 Q2188.3 168.967 2189.48 165.865 L2190.25 163.921 L2179.76 138.412 L2184.27 138.412 L2192.38 158.689 L2200.48 138.412 L2204.99 138.412 L2193.6 166.745 Z" fill="#000000" fill-rule="evenodd" fill-opacity="1" /><path clip-path="url(#clip770)" d="M2212.28 160.402 L2219.92 160.402 L2219.92 134.037 L2211.61 135.703 L2211.61 131.444 L2219.88 129.778 L2224.55 129.778 L2224.55 160.402 L2232.19 160.402 L2232.19 164.338 L2212.28 164.338 L2212.28 160.402 Z" fill="#000000" fill-rule="evenodd" fill-opacity="1" /></svg>
