<?xml version="1.0" encoding="utf-8"?>
<svg xmlns="http://www.w3.org/2000/svg" xmlns:xlink="http://www.w3.org/1999/xlink" width="600" height="400" viewBox="0 0 2400 1600">
<defs>
  <clipPath id="clip900">
    <rect x="0" y="0" width="2400" height="1600"/>
  </clipPath>
</defs>
<path clip-path="url(#clip900)" d="
M0 1600 L2400 1600 L2400 0 L0 0  Z
  " fill="#ffffff" fill-rule="evenodd" fill-opacity="1"/>
<defs>
  <clipPath id="clip901">
    <rect x="480" y="0" width="1681" height="1600"/>
  </clipPath>
</defs>
<path clip-path="url(#clip900)" d="
M154.515 1486.45 L2352.76 1486.45 L2352.76 47.2441 L154.515 47.2441  Z
  " fill="#ffffff" fill-rule="evenodd" fill-opacity="1"/>
<defs>
  <clipPath id="clip902">
    <rect x="154" y="47" width="2199" height="1440"/>
  </clipPath>
</defs>
<polyline clip-path="url(#clip902)" style="stroke:#000000; stroke-linecap:butt; stroke-linejoin:round; stroke-width:2; stroke-opacity:0.1; fill:none" points="
  216.729,1486.45 216.729,47.2441 
  "/>
<polyline clip-path="url(#clip902)" style="stroke:#000000; stroke-linecap:butt; stroke-linejoin:round; stroke-width:2; stroke-opacity:0.1; fill:none" points="
  735.182,1486.45 735.182,47.2441 
  "/>
<polyline clip-path="url(#clip902)" style="stroke:#000000; stroke-linecap:butt; stroke-linejoin:round; stroke-width:2; stroke-opacity:0.1; fill:none" points="
  1253.64,1486.45 1253.64,47.2441 
  "/>
<polyline clip-path="url(#clip902)" style="stroke:#000000; stroke-linecap:butt; stroke-linejoin:round; stroke-width:2; stroke-opacity:0.1; fill:none" points="
  1772.09,1486.45 1772.09,47.2441 
  "/>
<polyline clip-path="url(#clip902)" style="stroke:#000000; stroke-linecap:butt; stroke-linejoin:round; stroke-width:2; stroke-opacity:0.1; fill:none" points="
  2290.54,1486.45 2290.54,47.2441 
  "/>
<polyline clip-path="url(#clip900)" style="stroke:#000000; stroke-linecap:butt; stroke-linejoin:round; stroke-width:4; stroke-opacity:1; fill:none" points="
  154.515,1486.45 2352.76,1486.45 
  "/>
<polyline clip-path="url(#clip900)" style="stroke:#000000; stroke-linecap:butt; stroke-linejoin:round; stroke-width:4; stroke-opacity:1; fill:none" points="
  216.729,1486.45 216.729,1467.55 
  "/>
<polyline clip-path="url(#clip900)" style="stroke:#000000; stroke-linecap:butt; stroke-linejoin:round; stroke-width:4; stroke-opacity:1; fill:none" points="
  735.182,1486.45 735.182,1467.55 
  "/>
<polyline clip-path="url(#clip900)" style="stroke:#000000; stroke-linecap:butt; stroke-linejoin:round; stroke-width:4; stroke-opacity:1; fill:none" points="
  1253.64,1486.45 1253.64,1467.55 
  "/>
<polyline clip-path="url(#clip900)" style="stroke:#000000; stroke-linecap:butt; stroke-linejoin:round; stroke-width:4; stroke-opacity:1; fill:none" points="
  1772.09,1486.45 1772.09,1467.55 
  "/>
<polyline clip-path="url(#clip900)" style="stroke:#000000; stroke-linecap:butt; stroke-linejoin:round; stroke-width:4; stroke-opacity:1; fill:none" points="
  2290.54,1486.45 2290.54,1467.55 
  "/>
<path clip-path="url(#clip900)" d="M163.257 1532.02 L192.933 1532.02 L192.933 1535.95 L163.257 1535.95 L163.257 1532.02 Z" fill="#000000" fill-rule="evenodd" fill-opacity="1" /><path clip-path="url(#clip900)" d="M203.836 1544.91 L211.475 1544.91 L211.475 1518.55 L203.165 1520.21 L203.165 1515.95 L211.428 1514.29 L216.104 1514.29 L216.104 1544.91 L223.743 1544.91 L223.743 1548.85 L203.836 1548.85 L203.836 1544.91 Z" fill="#000000" fill-rule="evenodd" fill-opacity="1" /><path clip-path="url(#clip900)" d="M233.188 1542.97 L238.072 1542.97 L238.072 1548.85 L233.188 1548.85 L233.188 1542.97 Z" fill="#000000" fill-rule="evenodd" fill-opacity="1" /><path clip-path="url(#clip900)" d="M258.257 1517.37 Q254.646 1517.37 252.817 1520.93 Q251.012 1524.47 251.012 1531.6 Q251.012 1538.71 252.817 1542.27 Q254.646 1545.82 258.257 1545.82 Q261.891 1545.82 263.697 1542.27 Q265.525 1538.71 265.525 1531.6 Q265.525 1524.47 263.697 1520.93 Q261.891 1517.37 258.257 1517.37 M258.257 1513.66 Q264.067 1513.66 267.123 1518.27 Q270.201 1522.85 270.201 1531.6 Q270.201 1540.33 267.123 1544.94 Q264.067 1549.52 258.257 1549.52 Q252.447 1549.52 249.368 1544.94 Q246.312 1540.33 246.312 1531.6 Q246.312 1522.85 249.368 1518.27 Q252.447 1513.66 258.257 1513.66 Z" fill="#000000" fill-rule="evenodd" fill-opacity="1" /><path clip-path="url(#clip900)" d="M682.208 1532.02 L711.884 1532.02 L711.884 1535.95 L682.208 1535.95 L682.208 1532.02 Z" fill="#000000" fill-rule="evenodd" fill-opacity="1" /><path clip-path="url(#clip900)" d="M731.976 1517.37 Q728.365 1517.37 726.537 1520.93 Q724.731 1524.47 724.731 1531.6 Q724.731 1538.71 726.537 1542.27 Q728.365 1545.82 731.976 1545.82 Q735.611 1545.82 737.416 1542.27 Q739.245 1538.71 739.245 1531.6 Q739.245 1524.47 737.416 1520.93 Q735.611 1517.37 731.976 1517.37 M731.976 1513.66 Q737.786 1513.66 740.842 1518.27 Q743.921 1522.85 743.921 1531.6 Q743.921 1540.33 740.842 1544.94 Q737.786 1549.52 731.976 1549.52 Q726.166 1549.52 723.088 1544.94 Q720.032 1540.33 720.032 1531.6 Q720.032 1522.85 723.088 1518.27 Q726.166 1513.66 731.976 1513.66 Z" fill="#000000" fill-rule="evenodd" fill-opacity="1" /><path clip-path="url(#clip900)" d="M752.138 1542.97 L757.023 1542.97 L757.023 1548.85 L752.138 1548.85 L752.138 1542.97 Z" fill="#000000" fill-rule="evenodd" fill-opacity="1" /><path clip-path="url(#clip900)" d="M767.254 1514.29 L785.61 1514.29 L785.61 1518.22 L771.536 1518.22 L771.536 1526.7 Q772.555 1526.35 773.573 1526.19 Q774.592 1526 775.61 1526 Q781.397 1526 784.777 1529.17 Q788.157 1532.34 788.157 1537.76 Q788.157 1543.34 784.684 1546.44 Q781.212 1549.52 774.893 1549.52 Q772.717 1549.52 770.448 1549.15 Q768.203 1548.78 765.796 1548.04 L765.796 1543.34 Q767.879 1544.47 770.101 1545.03 Q772.323 1545.58 774.8 1545.58 Q778.805 1545.58 781.143 1543.48 Q783.481 1541.37 783.481 1537.76 Q783.481 1534.15 781.143 1532.04 Q778.805 1529.94 774.8 1529.94 Q772.925 1529.94 771.05 1530.35 Q769.198 1530.77 767.254 1531.65 L767.254 1514.29 Z" fill="#000000" fill-rule="evenodd" fill-opacity="1" /><path clip-path="url(#clip900)" d="M1231.02 1517.37 Q1227.41 1517.37 1225.58 1520.93 Q1223.77 1524.47 1223.77 1531.6 Q1223.77 1538.71 1225.58 1542.27 Q1227.41 1545.82 1231.02 1545.82 Q1234.65 1545.82 1236.46 1542.27 Q1238.29 1538.71 1238.29 1531.6 Q1238.29 1524.47 1236.46 1520.93 Q1234.65 1517.37 1231.02 1517.37 M1231.02 1513.66 Q1236.83 1513.66 1239.89 1518.27 Q1242.96 1522.85 1242.96 1531.6 Q1242.96 1540.33 1239.89 1544.94 Q1236.83 1549.52 1231.02 1549.52 Q1225.21 1549.52 1222.13 1544.94 Q1219.08 1540.33 1219.08 1531.6 Q1219.08 1522.85 1222.13 1518.27 Q1225.21 1513.66 1231.02 1513.66 Z" fill="#000000" fill-rule="evenodd" fill-opacity="1" /><path clip-path="url(#clip900)" d="M1251.18 1542.97 L1256.07 1542.97 L1256.07 1548.85 L1251.18 1548.85 L1251.18 1542.97 Z" fill="#000000" fill-rule="evenodd" fill-opacity="1" /><path clip-path="url(#clip900)" d="M1276.25 1517.37 Q1272.64 1517.37 1270.81 1520.93 Q1269.01 1524.47 1269.01 1531.6 Q1269.01 1538.71 1270.81 1542.27 Q1272.64 1545.82 1276.25 1545.82 Q1279.89 1545.82 1281.69 1542.27 Q1283.52 1538.71 1283.52 1531.6 Q1283.52 1524.47 1281.69 1520.93 Q1279.89 1517.37 1276.25 1517.37 M1276.25 1513.66 Q1282.06 1513.66 1285.12 1518.27 Q1288.2 1522.85 1288.2 1531.6 Q1288.2 1540.33 1285.12 1544.94 Q1282.06 1549.52 1276.25 1549.52 Q1270.44 1549.52 1267.36 1544.94 Q1264.31 1540.33 1264.31 1531.6 Q1264.31 1522.85 1267.36 1518.27 Q1270.44 1513.66 1276.25 1513.66 Z" fill="#000000" fill-rule="evenodd" fill-opacity="1" /><path clip-path="url(#clip900)" d="M1749.97 1517.37 Q1746.36 1517.37 1744.53 1520.93 Q1742.73 1524.47 1742.73 1531.6 Q1742.73 1538.71 1744.53 1542.27 Q1746.36 1545.82 1749.97 1545.82 Q1753.6 1545.82 1755.41 1542.27 Q1757.24 1538.71 1757.24 1531.6 Q1757.24 1524.47 1755.41 1520.93 Q1753.6 1517.37 1749.97 1517.37 M1749.97 1513.66 Q1755.78 1513.66 1758.84 1518.27 Q1761.91 1522.85 1761.91 1531.6 Q1761.91 1540.33 1758.84 1544.94 Q1755.78 1549.52 1749.97 1549.52 Q1744.16 1549.52 1741.08 1544.94 Q1738.03 1540.33 1738.03 1531.6 Q1738.03 1522.85 1741.08 1518.27 Q1744.16 1513.66 1749.97 1513.66 Z" fill="#000000" fill-rule="evenodd" fill-opacity="1" /><path clip-path="url(#clip900)" d="M1770.13 1542.97 L1775.02 1542.97 L1775.02 1548.85 L1770.13 1548.85 L1770.13 1542.97 Z" fill="#000000" fill-rule="evenodd" fill-opacity="1" /><path clip-path="url(#clip900)" d="M1785.25 1514.29 L1803.6 1514.29 L1803.6 1518.22 L1789.53 1518.22 L1789.53 1526.7 Q1790.55 1526.35 1791.57 1526.19 Q1792.59 1526 1793.6 1526 Q1799.39 1526 1802.77 1529.17 Q1806.15 1532.34 1806.15 1537.76 Q1806.15 1543.34 1802.68 1546.44 Q1799.21 1549.52 1792.89 1549.52 Q1790.71 1549.52 1788.44 1549.15 Q1786.2 1548.78 1783.79 1548.04 L1783.79 1543.34 Q1785.87 1544.47 1788.1 1545.03 Q1790.32 1545.58 1792.79 1545.58 Q1796.8 1545.58 1799.14 1543.48 Q1801.47 1541.37 1801.47 1537.76 Q1801.47 1534.15 1799.14 1532.04 Q1796.8 1529.94 1792.79 1529.94 Q1790.92 1529.94 1789.04 1530.35 Q1787.19 1530.77 1785.25 1531.65 L1785.25 1514.29 Z" fill="#000000" fill-rule="evenodd" fill-opacity="1" /><path clip-path="url(#clip900)" d="M2257.69 1544.91 L2265.33 1544.91 L2265.33 1518.55 L2257.02 1520.21 L2257.02 1515.95 L2265.29 1514.29 L2269.96 1514.29 L2269.96 1544.91 L2277.6 1544.91 L2277.6 1548.85 L2257.69 1548.85 L2257.69 1544.91 Z" fill="#000000" fill-rule="evenodd" fill-opacity="1" /><path clip-path="url(#clip900)" d="M2287.05 1542.97 L2291.93 1542.97 L2291.93 1548.85 L2287.05 1548.85 L2287.05 1542.97 Z" fill="#000000" fill-rule="evenodd" fill-opacity="1" /><path clip-path="url(#clip900)" d="M2312.12 1517.37 Q2308.5 1517.37 2306.68 1520.93 Q2304.87 1524.47 2304.87 1531.6 Q2304.87 1538.71 2306.68 1542.27 Q2308.5 1545.82 2312.12 1545.82 Q2315.75 1545.82 2317.56 1542.27 Q2319.38 1538.71 2319.38 1531.6 Q2319.38 1524.47 2317.56 1520.93 Q2315.75 1517.37 2312.12 1517.37 M2312.12 1513.66 Q2317.93 1513.66 2320.98 1518.27 Q2324.06 1522.85 2324.06 1531.6 Q2324.06 1540.33 2320.98 1544.94 Q2317.93 1549.52 2312.12 1549.52 Q2306.31 1549.52 2303.23 1544.94 Q2300.17 1540.33 2300.17 1531.6 Q2300.17 1522.85 2303.23 1518.27 Q2306.31 1513.66 2312.12 1513.66 Z" fill="#000000" fill-rule="evenodd" fill-opacity="1" /><polyline clip-path="url(#clip902)" style="stroke:#000000; stroke-linecap:butt; stroke-linejoin:round; stroke-width:2; stroke-opacity:0.1; fill:none" points="
  154.515,1445.72 2352.76,1445.72 
  "/>
<polyline clip-path="url(#clip902)" style="stroke:#000000; stroke-linecap:butt; stroke-linejoin:round; stroke-width:2; stroke-opacity:0.1; fill:none" points="
  154.515,1057.17 2352.76,1057.17 
  "/>
<polyline clip-path="url(#clip902)" style="stroke:#000000; stroke-linecap:butt; stroke-linejoin:round; stroke-width:2; stroke-opacity:0.1; fill:none" points="
  154.515,668.627 2352.76,668.627 
  "/>
<polyline clip-path="url(#clip902)" style="stroke:#000000; stroke-linecap:butt; stroke-linejoin:round; stroke-width:2; stroke-opacity:0.1; fill:none" points="
  154.515,280.083 2352.76,280.083 
  "/>
<polyline clip-path="url(#clip900)" style="stroke:#000000; stroke-linecap:butt; stroke-linejoin:round; stroke-width:4; stroke-opacity:1; fill:none" points="
  154.515,1486.45 154.515,47.2441 
  "/>
<polyline clip-path="url(#clip900)" style="stroke:#000000; stroke-linecap:butt; stroke-linejoin:round; stroke-width:4; stroke-opacity:1; fill:none" points="
  154.515,1445.72 173.413,1445.72 
  "/>
<polyline clip-path="url(#clip900)" style="stroke:#000000; stroke-linecap:butt; stroke-linejoin:round; stroke-width:4; stroke-opacity:1; fill:none" points="
  154.515,1057.17 173.413,1057.17 
  "/>
<polyline clip-path="url(#clip900)" style="stroke:#000000; stroke-linecap:butt; stroke-linejoin:round; stroke-width:4; stroke-opacity:1; fill:none" points="
  154.515,668.627 173.413,668.627 
  "/>
<polyline clip-path="url(#clip900)" style="stroke:#000000; stroke-linecap:butt; stroke-linejoin:round; stroke-width:4; stroke-opacity:1; fill:none" points="
  154.515,280.083 173.413,280.083 
  "/>
<path clip-path="url(#clip900)" d="M52.1495 1459.06 L59.7884 1459.06 L59.7884 1432.69 L51.4782 1434.36 L51.4782 1430.1 L59.7421 1428.44 L64.418 1428.44 L64.418 1459.06 L72.0568 1459.06 L72.0568 1463 L52.1495 1463 L52.1495 1459.06 Z" fill="#000000" fill-rule="evenodd" fill-opacity="1" /><path clip-path="url(#clip900)" d="M81.5012 1457.12 L86.3855 1457.12 L86.3855 1463 L81.5012 1463 L81.5012 1457.12 Z" fill="#000000" fill-rule="evenodd" fill-opacity="1" /><path clip-path="url(#clip900)" d="M106.571 1431.51 Q102.959 1431.51 101.131 1435.08 Q99.3252 1438.62 99.3252 1445.75 Q99.3252 1452.86 101.131 1456.42 Q102.959 1459.96 106.571 1459.96 Q110.205 1459.96 112.01 1456.42 Q113.839 1452.86 113.839 1445.75 Q113.839 1438.62 112.01 1435.08 Q110.205 1431.51 106.571 1431.51 M106.571 1427.81 Q112.381 1427.81 115.436 1432.42 Q118.515 1437 118.515 1445.75 Q118.515 1454.48 115.436 1459.08 Q112.381 1463.67 106.571 1463.67 Q100.76 1463.67 97.6817 1459.08 Q94.6262 1454.48 94.6262 1445.75 Q94.6262 1437 97.6817 1432.42 Q100.76 1427.81 106.571 1427.81 Z" fill="#000000" fill-rule="evenodd" fill-opacity="1" /><path clip-path="url(#clip900)" d="M53.7467 1070.52 L61.3856 1070.52 L61.3856 1044.15 L53.0754 1045.82 L53.0754 1041.56 L61.3393 1039.89 L66.0152 1039.89 L66.0152 1070.52 L73.654 1070.52 L73.654 1074.45 L53.7467 1074.45 L53.7467 1070.52 Z" fill="#000000" fill-rule="evenodd" fill-opacity="1" /><path clip-path="url(#clip900)" d="M83.0984 1068.57 L87.9827 1068.57 L87.9827 1074.45 L83.0984 1074.45 L83.0984 1068.57 Z" fill="#000000" fill-rule="evenodd" fill-opacity="1" /><path clip-path="url(#clip900)" d="M102.196 1070.52 L118.515 1070.52 L118.515 1074.45 L96.5706 1074.45 L96.5706 1070.52 Q99.2326 1067.76 103.816 1063.13 Q108.422 1058.48 109.603 1057.14 Q111.848 1054.61 112.728 1052.88 Q113.631 1051.12 113.631 1049.43 Q113.631 1046.67 111.686 1044.94 Q109.765 1043.2 106.663 1043.2 Q104.464 1043.2 102.01 1043.97 Q99.5798 1044.73 96.8021 1046.28 L96.8021 1041.56 Q99.6261 1040.42 102.08 1039.85 Q104.534 1039.27 106.571 1039.27 Q111.941 1039.27 115.135 1041.95 Q118.33 1044.64 118.33 1049.13 Q118.33 1051.26 117.52 1053.18 Q116.733 1055.08 114.626 1057.67 Q114.047 1058.34 110.946 1061.56 Q107.844 1064.75 102.196 1070.52 Z" fill="#000000" fill-rule="evenodd" fill-opacity="1" /><path clip-path="url(#clip900)" d="M51.6634 681.972 L59.3023 681.972 L59.3023 655.607 L50.9921 657.273 L50.9921 653.014 L59.256 651.347 L63.9319 651.347 L63.9319 681.972 L71.5707 681.972 L71.5707 685.907 L51.6634 685.907 L51.6634 681.972 Z" fill="#000000" fill-rule="evenodd" fill-opacity="1" /><path clip-path="url(#clip900)" d="M81.0151 680.028 L85.8993 680.028 L85.8993 685.907 L81.0151 685.907 L81.0151 680.028 Z" fill="#000000" fill-rule="evenodd" fill-opacity="1" /><path clip-path="url(#clip900)" d="M108.932 655.421 L97.1261 673.87 L108.932 673.87 L108.932 655.421 M107.705 651.347 L113.584 651.347 L113.584 673.87 L118.515 673.87 L118.515 677.759 L113.584 677.759 L113.584 685.907 L108.932 685.907 L108.932 677.759 L93.3299 677.759 L93.3299 673.245 L107.705 651.347 Z" fill="#000000" fill-rule="evenodd" fill-opacity="1" /><path clip-path="url(#clip900)" d="M51.9875 293.428 L59.6263 293.428 L59.6263 267.062 L51.3162 268.729 L51.3162 264.47 L59.58 262.803 L64.2559 262.803 L64.2559 293.428 L71.8948 293.428 L71.8948 297.363 L51.9875 297.363 L51.9875 293.428 Z" fill="#000000" fill-rule="evenodd" fill-opacity="1" /><path clip-path="url(#clip900)" d="M81.3392 291.484 L86.2234 291.484 L86.2234 297.363 L81.3392 297.363 L81.3392 291.484 Z" fill="#000000" fill-rule="evenodd" fill-opacity="1" /><path clip-path="url(#clip900)" d="M106.987 278.22 Q103.839 278.22 101.987 280.373 Q100.159 282.525 100.159 286.275 Q100.159 290.002 101.987 292.178 Q103.839 294.331 106.987 294.331 Q110.135 294.331 111.964 292.178 Q113.816 290.002 113.816 286.275 Q113.816 282.525 111.964 280.373 Q110.135 278.22 106.987 278.22 M116.27 263.567 L116.27 267.826 Q114.51 266.993 112.705 266.553 Q110.922 266.113 109.163 266.113 Q104.534 266.113 102.08 269.238 Q99.6493 272.363 99.3021 278.683 Q100.668 276.669 102.728 275.604 Q104.788 274.516 107.265 274.516 Q112.473 274.516 115.483 277.687 Q118.515 280.835 118.515 286.275 Q118.515 291.599 115.367 294.817 Q112.219 298.034 106.987 298.034 Q100.992 298.034 97.8206 293.451 Q94.6493 288.845 94.6493 280.118 Q94.6493 271.924 98.5382 267.062 Q102.427 262.178 108.978 262.178 Q110.737 262.178 112.52 262.525 Q114.325 262.873 116.27 263.567 Z" fill="#000000" fill-rule="evenodd" fill-opacity="1" /><polyline clip-path="url(#clip902)" style="stroke:#009af9; stroke-linecap:butt; stroke-linejoin:round; stroke-width:16; stroke-opacity:1; fill:none" points="
  216.729,1445.72 277.633,1336.42 402.016,1139.48 549.895,942.458 674.278,801.609 735.182,739.633 796.086,681.766 920.469,575.128 1068.35,466.196 1192.73,387.762 
  1253.64,353.349 1314.54,321.398 1438.92,263.38 1586.8,206.218 1711.18,167.416 1772.09,151.362 1832.99,137.187 1957.38,113.932 2105.25,95.9718 2229.64,88.8388 
  2290.54,87.9763 
  "/>
<circle clip-path="url(#clip902)" cx="216.729" cy="1445.72" r="14" fill="#009af9" fill-rule="evenodd" fill-opacity="1" stroke="#000000" stroke-opacity="1" stroke-width="3.2"/>
<circle clip-path="url(#clip902)" cx="277.633" cy="1336.42" r="14" fill="#009af9" fill-rule="evenodd" fill-opacity="1" stroke="#000000" stroke-opacity="1" stroke-width="3.2"/>
<circle clip-path="url(#clip902)" cx="402.016" cy="1139.48" r="14" fill="#009af9" fill-rule="evenodd" fill-opacity="1" stroke="#000000" stroke-opacity="1" stroke-width="3.2"/>
<circle clip-path="url(#clip902)" cx="549.895" cy="942.458" r="14" fill="#009af9" fill-rule="evenodd" fill-opacity="1" stroke="#000000" stroke-opacity="1" stroke-width="3.2"/>
<circle clip-path="url(#clip902)" cx="674.278" cy="801.609" r="14" fill="#009af9" fill-rule="evenodd" fill-opacity="1" stroke="#000000" stroke-opacity="1" stroke-width="3.2"/>
<circle clip-path="url(#clip902)" cx="735.182" cy="739.633" r="14" fill="#009af9" fill-rule="evenodd" fill-opacity="1" stroke="#000000" stroke-opacity="1" stroke-width="3.2"/>
<circle clip-path="url(#clip902)" cx="796.086" cy="681.766" r="14" fill="#009af9" fill-rule="evenodd" fill-opacity="1" stroke="#000000" stroke-opacity="1" stroke-width="3.2"/>
<circle clip-path="url(#clip902)" cx="920.469" cy="575.128" r="14" fill="#009af9" fill-rule="evenodd" fill-opacity="1" stroke="#000000" stroke-opacity="1" stroke-width="3.2"/>
<circle clip-path="url(#clip902)" cx="1068.35" cy="466.196" r="14" fill="#009af9" fill-rule="evenodd" fill-opacity="1" stroke="#000000" stroke-opacity="1" stroke-width="3.2"/>
<circle clip-path="url(#clip902)" cx="1192.73" cy="387.762" r="14" fill="#009af9" fill-rule="evenodd" fill-opacity="1" stroke="#000000" stroke-opacity="1" stroke-width="3.2"/>
<circle clip-path="url(#clip902)" cx="1253.64" cy="353.349" r="14" fill="#009af9" fill-rule="evenodd" fill-opacity="1" stroke="#000000" stroke-opacity="1" stroke-width="3.2"/>
<circle clip-path="url(#clip902)" cx="1314.54" cy="321.398" r="14" fill="#009af9" fill-rule="evenodd" fill-opacity="1" stroke="#000000" stroke-opacity="1" stroke-width="3.2"/>
<circle clip-path="url(#clip902)" cx="1438.92" cy="263.38" r="14" fill="#009af9" fill-rule="evenodd" fill-opacity="1" stroke="#000000" stroke-opacity="1" stroke-width="3.2"/>
<circle clip-path="url(#clip902)" cx="1586.8" cy="206.218" r="14" fill="#009af9" fill-rule="evenodd" fill-opacity="1" stroke="#000000" stroke-opacity="1" stroke-width="3.2"/>
<circle clip-path="url(#clip902)" cx="1711.18" cy="167.416" r="14" fill="#009af9" fill-rule="evenodd" fill-opacity="1" stroke="#000000" stroke-opacity="1" stroke-width="3.2"/>
<circle clip-path="url(#clip902)" cx="1772.09" cy="151.362" r="14" fill="#009af9" fill-rule="evenodd" fill-opacity="1" stroke="#000000" stroke-opacity="1" stroke-width="3.2"/>
<circle clip-path="url(#clip902)" cx="1832.99" cy="137.187" r="14" fill="#009af9" fill-rule="evenodd" fill-opacity="1" stroke="#000000" stroke-opacity="1" stroke-width="3.2"/>
<circle clip-path="url(#clip902)" cx="1957.38" cy="113.932" r="14" fill="#009af9" fill-rule="evenodd" fill-opacity="1" stroke="#000000" stroke-opacity="1" stroke-width="3.2"/>
<circle clip-path="url(#clip902)" cx="2105.25" cy="95.9718" r="14" fill="#009af9" fill-rule="evenodd" fill-opacity="1" stroke="#000000" stroke-opacity="1" stroke-width="3.2"/>
<circle clip-path="url(#clip902)" cx="2229.64" cy="88.8388" r="14" fill="#009af9" fill-rule="evenodd" fill-opacity="1" stroke="#000000" stroke-opacity="1" stroke-width="3.2"/>
<circle clip-path="url(#clip902)" cx="2290.54" cy="87.9763" r="14" fill="#009af9" fill-rule="evenodd" fill-opacity="1" stroke="#000000" stroke-opacity="1" stroke-width="3.2"/>
<path clip-path="url(#clip900)" d="
M1982.8 198.898 L2279.48 198.898 L2279.48 95.2176 L1982.8 95.2176  Z
  " fill="#ffffff" fill-rule="evenodd" fill-opacity="1"/>
<polyline clip-path="url(#clip900)" style="stroke:#000000; stroke-linecap:butt; stroke-linejoin:round; stroke-width:4; stroke-opacity:1; fill:none" points="
  1982.8,198.898 2279.48,198.898 2279.48,95.2176 1982.8,95.2176 1982.8,198.898 
  "/>
<polyline clip-path="url(#clip900)" style="stroke:#009af9; stroke-linecap:butt; stroke-linejoin:round; stroke-width:4; stroke-opacity:1; fill:none" points="
  2007.23,147.058 2153.78,147.058 
  "/>
<circle clip-path="url(#clip900)" cx="2080.5" cy="147.058" r="23" fill="#009af9" fill-rule="evenodd" fill-opacity="1" stroke="#000000" stroke-opacity="1" stroke-width="5.12"/>
<path clip-path="url(#clip900)" d="M2192.04 166.745 Q2190.24 171.375 2188.53 172.787 Q2186.81 174.199 2183.94 174.199 L2180.54 174.199 L2180.54 170.634 L2183.04 170.634 Q2184.8 170.634 2185.77 169.8 Q2186.74 168.967 2187.92 165.865 L2188.69 163.921 L2178.2 138.412 L2182.71 138.412 L2190.82 158.689 L2198.92 138.412 L2203.43 138.412 L2192.04 166.745 Z" fill="#000000" fill-rule="evenodd" fill-opacity="1" /><path clip-path="url(#clip900)" d="M2210.72 160.402 L2218.36 160.402 L2218.36 134.037 L2210.05 135.703 L2210.05 131.444 L2218.32 129.778 L2222.99 129.778 L2222.99 160.402 L2230.63 160.402 L2230.63 164.338 L2210.72 164.338 L2210.72 160.402 Z" fill="#000000" fill-rule="evenodd" fill-opacity="1" /></svg>
