<?xml version="1.0" encoding="utf-8"?>
<svg xmlns="http://www.w3.org/2000/svg" xmlns:xlink="http://www.w3.org/1999/xlink" width="600" height="400" viewBox="0 0 2400 1600">
<defs>
  <clipPath id="clip890">
    <rect x="0" y="0" width="2400" height="1600"/>
  </clipPath>
</defs>
<path clip-path="url(#clip890)" d="
M0 1600 L2400 1600 L2400 0 L0 0  Z
  " fill="#ffffff" fill-rule="evenodd" fill-opacity="1"/>
<defs>
  <clipPath id="clip891">
    <rect x="480" y="0" width="1681" height="1600"/>
  </clipPath>
</defs>
<path clip-path="url(#clip890)" d="
M223.103 1486.45 L2352.76 1486.45 L2352.76 47.2441 L223.103 47.2441  Z
  " fill="#ffffff" fill-rule="evenodd" fill-opacity="1"/>
<defs>
  <clipPath id="clip892">
    <rect x="223" y="47" width="2131" height="1440"/>
  </clipPath>
</defs>
<polyline clip-path="url(#clip892)" style="stroke:#000000; stroke-linecap:butt; stroke-linejoin:round; stroke-width:2; stroke-opacity:0.1; fill:none" points="
  328.651,1486.45 328.651,47.2441 
  "/>
<polyline clip-path="url(#clip892)" style="stroke:#000000; stroke-linecap:butt; stroke-linejoin:round; stroke-width:2; stroke-opacity:0.1; fill:none" points="
  648.411,1486.45 648.411,47.2441 
  "/>
<polyline clip-path="url(#clip892)" style="stroke:#000000; stroke-linecap:butt; stroke-linejoin:round; stroke-width:2; stroke-opacity:0.1; fill:none" points="
  968.17,1486.45 968.17,47.2441 
  "/>
<polyline clip-path="url(#clip892)" style="stroke:#000000; stroke-linecap:butt; stroke-linejoin:round; stroke-width:2; stroke-opacity:0.1; fill:none" points="
  1287.93,1486.45 1287.93,47.2441 
  "/>
<polyline clip-path="url(#clip892)" style="stroke:#000000; stroke-linecap:butt; stroke-linejoin:round; stroke-width:2; stroke-opacity:0.1; fill:none" points="
  1607.69,1486.45 1607.69,47.2441 
  "/>
<polyline clip-path="url(#clip892)" style="stroke:#000000; stroke-linecap:butt; stroke-linejoin:round; stroke-width:2; stroke-opacity:0.1; fill:none" points="
  1927.45,1486.45 1927.45,47.2441 
  "/>
<polyline clip-path="url(#clip892)" style="stroke:#000000; stroke-linecap:butt; stroke-linejoin:round; stroke-width:2; stroke-opacity:0.1; fill:none" points="
  2247.21,1486.45 2247.21,47.2441 
  "/>
<polyline clip-path="url(#clip890)" style="stroke:#000000; stroke-linecap:butt; stroke-linejoin:round; stroke-width:4; stroke-opacity:1; fill:none" points="
  223.103,1486.45 2352.76,1486.45 
  "/>
<polyline clip-path="url(#clip890)" style="stroke:#000000; stroke-linecap:butt; stroke-linejoin:round; stroke-width:4; stroke-opacity:1; fill:none" points="
  328.651,1486.45 328.651,1467.55 
  "/>
<polyline clip-path="url(#clip890)" style="stroke:#000000; stroke-linecap:butt; stroke-linejoin:round; stroke-width:4; stroke-opacity:1; fill:none" points="
  648.411,1486.45 648.411,1467.55 
  "/>
<polyline clip-path="url(#clip890)" style="stroke:#000000; stroke-linecap:butt; stroke-linejoin:round; stroke-width:4; stroke-opacity:1; fill:none" points="
  968.17,1486.45 968.17,1467.55 
  "/>
<polyline clip-path="url(#clip890)" style="stroke:#000000; stroke-linecap:butt; stroke-linejoin:round; stroke-width:4; stroke-opacity:1; fill:none" points="
  1287.93,1486.45 1287.93,1467.55 
  "/>
<polyline clip-path="url(#clip890)" style="stroke:#000000; stroke-linecap:butt; stroke-linejoin:round; stroke-width:4; stroke-opacity:1; fill:none" points="
  1607.69,1486.45 1607.69,1467.55 
  "/>
<polyline clip-path="url(#clip890)" style="stroke:#000000; stroke-linecap:butt; stroke-linejoin:round; stroke-width:4; stroke-opacity:1; fill:none" points="
  1927.45,1486.45 1927.45,1467.55 
  "/>
<polyline clip-path="url(#clip890)" style="stroke:#000000; stroke-linecap:butt; stroke-linejoin:round; stroke-width:4; stroke-opacity:1; fill:none" points="
  2247.21,1486.45 2247.21,1467.55 
  "/>
<path clip-path="url(#clip890)" d="M298.119 1530.29 L327.795 1530.29 L327.795 1534.23 L298.119 1534.23 L298.119 1530.29 Z" fill="#000000" fill-rule="evenodd" fill-opacity="1" /><path clip-path="url(#clip890)" d="M352.054 1528.49 Q355.41 1529.2 357.285 1531.47 Q359.184 1533.74 359.184 1537.07 Q359.184 1542.19 355.665 1544.99 Q352.147 1547.79 345.665 1547.79 Q343.489 1547.79 341.174 1547.35 Q338.883 1546.93 336.429 1546.08 L336.429 1541.56 Q338.373 1542.7 340.688 1543.28 Q343.003 1543.86 345.526 1543.86 Q349.924 1543.86 352.216 1542.12 Q354.531 1540.38 354.531 1537.07 Q354.531 1534.02 352.378 1532.31 Q350.248 1530.57 346.429 1530.57 L342.401 1530.57 L342.401 1526.73 L346.614 1526.73 Q350.063 1526.73 351.892 1525.36 Q353.721 1523.97 353.721 1521.38 Q353.721 1518.72 351.822 1517.31 Q349.947 1515.87 346.429 1515.87 Q344.508 1515.87 342.309 1516.29 Q340.11 1516.7 337.471 1517.58 L337.471 1513.42 Q340.133 1512.68 342.448 1512.31 Q344.785 1511.93 346.846 1511.93 Q352.17 1511.93 355.272 1514.37 Q358.373 1516.77 358.373 1520.89 Q358.373 1523.76 356.73 1525.75 Q355.086 1527.72 352.054 1528.49 Z" fill="#000000" fill-rule="evenodd" fill-opacity="1" /><path clip-path="url(#clip890)" d="M618.353 1530.29 L648.029 1530.29 L648.029 1534.23 L618.353 1534.23 L618.353 1530.29 Z" fill="#000000" fill-rule="evenodd" fill-opacity="1" /><path clip-path="url(#clip890)" d="M662.149 1543.18 L678.468 1543.18 L678.468 1547.12 L656.524 1547.12 L656.524 1543.18 Q659.186 1540.43 663.769 1535.8 Q668.376 1531.15 669.556 1529.81 Q671.802 1527.28 672.681 1525.55 Q673.584 1523.79 673.584 1522.1 Q673.584 1519.34 671.64 1517.61 Q669.718 1515.87 666.617 1515.87 Q664.417 1515.87 661.964 1516.63 Q659.533 1517.4 656.755 1518.95 L656.755 1514.23 Q659.58 1513.09 662.033 1512.51 Q664.487 1511.93 666.524 1511.93 Q671.894 1511.93 675.089 1514.62 Q678.283 1517.31 678.283 1521.8 Q678.283 1523.93 677.473 1525.85 Q676.686 1527.74 674.579 1530.34 Q674.001 1531.01 670.899 1534.23 Q667.797 1537.42 662.149 1543.18 Z" fill="#000000" fill-rule="evenodd" fill-opacity="1" /><path clip-path="url(#clip890)" d="M937.927 1530.29 L967.603 1530.29 L967.603 1534.23 L937.927 1534.23 L937.927 1530.29 Z" fill="#000000" fill-rule="evenodd" fill-opacity="1" /><path clip-path="url(#clip890)" d="M978.505 1543.18 L986.144 1543.18 L986.144 1516.82 L977.834 1518.49 L977.834 1514.23 L986.098 1512.56 L990.774 1512.56 L990.774 1543.18 L998.413 1543.18 L998.413 1547.12 L978.505 1547.12 L978.505 1543.18 Z" fill="#000000" fill-rule="evenodd" fill-opacity="1" /><path clip-path="url(#clip890)" d="M1287.93 1515.64 Q1284.32 1515.64 1282.49 1519.2 Q1280.68 1522.75 1280.68 1529.87 Q1280.68 1536.98 1282.49 1540.55 Q1284.32 1544.09 1287.93 1544.09 Q1291.56 1544.09 1293.37 1540.55 Q1295.2 1536.98 1295.2 1529.87 Q1295.2 1522.75 1293.37 1519.2 Q1291.56 1515.64 1287.93 1515.64 M1287.93 1511.93 Q1293.74 1511.93 1296.79 1516.54 Q1299.87 1521.12 1299.87 1529.87 Q1299.87 1538.6 1296.79 1543.21 Q1293.74 1547.79 1287.93 1547.79 Q1282.12 1547.79 1279.04 1543.21 Q1275.98 1538.6 1275.98 1529.87 Q1275.98 1521.12 1279.04 1516.54 Q1282.12 1511.93 1287.93 1511.93 Z" fill="#000000" fill-rule="evenodd" fill-opacity="1" /><path clip-path="url(#clip890)" d="M1598.07 1543.18 L1605.71 1543.18 L1605.71 1516.82 L1597.4 1518.49 L1597.4 1514.23 L1605.66 1512.56 L1610.34 1512.56 L1610.34 1543.18 L1617.98 1543.18 L1617.98 1547.12 L1598.07 1547.12 L1598.07 1543.18 Z" fill="#000000" fill-rule="evenodd" fill-opacity="1" /><path clip-path="url(#clip890)" d="M1922.1 1543.18 L1938.42 1543.18 L1938.42 1547.12 L1916.48 1547.12 L1916.48 1543.18 Q1919.14 1540.43 1923.72 1535.8 Q1928.33 1531.15 1929.51 1529.81 Q1931.75 1527.28 1932.63 1525.55 Q1933.54 1523.79 1933.54 1522.1 Q1933.54 1519.34 1931.59 1517.61 Q1929.67 1515.87 1926.57 1515.87 Q1924.37 1515.87 1921.92 1516.63 Q1919.48 1517.4 1916.71 1518.95 L1916.71 1514.23 Q1919.53 1513.09 1921.98 1512.51 Q1924.44 1511.93 1926.48 1511.93 Q1931.85 1511.93 1935.04 1514.62 Q1938.23 1517.31 1938.23 1521.8 Q1938.23 1523.93 1937.42 1525.85 Q1936.64 1527.74 1934.53 1530.34 Q1933.95 1531.01 1930.85 1534.23 Q1927.75 1537.42 1922.1 1543.18 Z" fill="#000000" fill-rule="evenodd" fill-opacity="1" /><path clip-path="url(#clip890)" d="M2251.45 1528.49 Q2254.81 1529.2 2256.69 1531.47 Q2258.58 1533.74 2258.58 1537.07 Q2258.58 1542.19 2255.07 1544.99 Q2251.55 1547.79 2245.07 1547.79 Q2242.89 1547.79 2240.58 1547.35 Q2238.28 1546.93 2235.83 1546.08 L2235.83 1541.56 Q2237.77 1542.7 2240.09 1543.28 Q2242.4 1543.86 2244.93 1543.86 Q2249.33 1543.86 2251.62 1542.12 Q2253.93 1540.38 2253.93 1537.07 Q2253.93 1534.02 2251.78 1532.31 Q2249.65 1530.57 2245.83 1530.57 L2241.8 1530.57 L2241.8 1526.73 L2246.02 1526.73 Q2249.46 1526.73 2251.29 1525.36 Q2253.12 1523.97 2253.12 1521.38 Q2253.12 1518.72 2251.22 1517.31 Q2249.35 1515.87 2245.83 1515.87 Q2243.91 1515.87 2241.71 1516.29 Q2239.51 1516.7 2236.87 1517.58 L2236.87 1513.42 Q2239.53 1512.68 2241.85 1512.31 Q2244.19 1511.93 2246.25 1511.93 Q2251.57 1511.93 2254.67 1514.37 Q2257.77 1516.77 2257.77 1520.89 Q2257.77 1523.76 2256.13 1525.75 Q2254.49 1527.72 2251.45 1528.49 Z" fill="#000000" fill-rule="evenodd" fill-opacity="1" /><polyline clip-path="url(#clip892)" style="stroke:#000000; stroke-linecap:butt; stroke-linejoin:round; stroke-width:2; stroke-opacity:0.1; fill:none" points="
  223.103,1299.82 2352.76,1299.82 
  "/>
<polyline clip-path="url(#clip892)" style="stroke:#000000; stroke-linecap:butt; stroke-linejoin:round; stroke-width:2; stroke-opacity:0.1; fill:none" points="
  223.103,1056.65 2352.76,1056.65 
  "/>
<polyline clip-path="url(#clip892)" style="stroke:#000000; stroke-linecap:butt; stroke-linejoin:round; stroke-width:2; stroke-opacity:0.1; fill:none" points="
  223.103,813.484 2352.76,813.484 
  "/>
<polyline clip-path="url(#clip892)" style="stroke:#000000; stroke-linecap:butt; stroke-linejoin:round; stroke-width:2; stroke-opacity:0.1; fill:none" points="
  223.103,570.317 2352.76,570.317 
  "/>
<polyline clip-path="url(#clip892)" style="stroke:#000000; stroke-linecap:butt; stroke-linejoin:round; stroke-width:2; stroke-opacity:0.1; fill:none" points="
  223.103,327.151 2352.76,327.151 
  "/>
<polyline clip-path="url(#clip892)" style="stroke:#000000; stroke-linecap:butt; stroke-linejoin:round; stroke-width:2; stroke-opacity:0.1; fill:none" points="
  223.103,83.985 2352.76,83.985 
  "/>
<polyline clip-path="url(#clip890)" style="stroke:#000000; stroke-linecap:butt; stroke-linejoin:round; stroke-width:4; stroke-opacity:1; fill:none" points="
  223.103,1486.45 223.103,47.2441 
  "/>
<polyline clip-path="url(#clip890)" style="stroke:#000000; stroke-linecap:butt; stroke-linejoin:round; stroke-width:4; stroke-opacity:1; fill:none" points="
  223.103,1299.82 242,1299.82 
  "/>
<polyline clip-path="url(#clip890)" style="stroke:#000000; stroke-linecap:butt; stroke-linejoin:round; stroke-width:4; stroke-opacity:1; fill:none" points="
  223.103,1056.65 242,1056.65 
  "/>
<polyline clip-path="url(#clip890)" style="stroke:#000000; stroke-linecap:butt; stroke-linejoin:round; stroke-width:4; stroke-opacity:1; fill:none" points="
  223.103,813.484 242,813.484 
  "/>
<polyline clip-path="url(#clip890)" style="stroke:#000000; stroke-linecap:butt; stroke-linejoin:round; stroke-width:4; stroke-opacity:1; fill:none" points="
  223.103,570.317 242,570.317 
  "/>
<polyline clip-path="url(#clip890)" style="stroke:#000000; stroke-linecap:butt; stroke-linejoin:round; stroke-width:4; stroke-opacity:1; fill:none" points="
  223.103,327.151 242,327.151 
  "/>
<polyline clip-path="url(#clip890)" style="stroke:#000000; stroke-linecap:butt; stroke-linejoin:round; stroke-width:4; stroke-opacity:1; fill:none" points="
  223.103,83.985 242,83.985 
  "/>
<path clip-path="url(#clip890)" d="M50.9921 1300.27 L80.6679 1300.27 L80.6679 1304.2 L50.9921 1304.2 L50.9921 1300.27 Z" fill="#000000" fill-rule="evenodd" fill-opacity="1" /><path clip-path="url(#clip890)" d="M100.76 1285.61 Q97.1493 1285.61 95.3206 1289.18 Q93.515 1292.72 93.515 1299.85 Q93.515 1306.96 95.3206 1310.52 Q97.1493 1314.06 100.76 1314.06 Q104.395 1314.06 106.2 1310.52 Q108.029 1306.96 108.029 1299.85 Q108.029 1292.72 106.2 1289.18 Q104.395 1285.61 100.76 1285.61 M100.76 1281.91 Q106.571 1281.91 109.626 1286.52 Q112.705 1291.1 112.705 1299.85 Q112.705 1308.58 109.626 1313.18 Q106.571 1317.77 100.76 1317.77 Q94.9502 1317.77 91.8715 1313.18 Q88.816 1308.58 88.816 1299.85 Q88.816 1291.1 91.8715 1286.52 Q94.9502 1281.91 100.76 1281.91 Z" fill="#000000" fill-rule="evenodd" fill-opacity="1" /><path clip-path="url(#clip890)" d="M120.922 1311.22 L125.807 1311.22 L125.807 1317.1 L120.922 1317.1 L120.922 1311.22 Z" fill="#000000" fill-rule="evenodd" fill-opacity="1" /><path clip-path="url(#clip890)" d="M140.019 1313.16 L156.339 1313.16 L156.339 1317.1 L134.394 1317.1 L134.394 1313.16 Q137.056 1310.41 141.64 1305.78 Q146.246 1301.12 147.427 1299.78 Q149.672 1297.26 150.552 1295.52 Q151.455 1293.76 151.455 1292.07 Q151.455 1289.32 149.51 1287.58 Q147.589 1285.85 144.487 1285.85 Q142.288 1285.85 139.834 1286.61 Q137.404 1287.37 134.626 1288.92 L134.626 1284.2 Q137.45 1283.07 139.904 1282.49 Q142.357 1281.91 144.394 1281.91 Q149.765 1281.91 152.959 1284.6 Q156.154 1287.28 156.154 1291.77 Q156.154 1293.9 155.343 1295.82 Q154.556 1297.72 152.45 1300.31 Q151.871 1300.98 148.769 1304.2 Q145.668 1307.4 140.019 1313.16 Z" fill="#000000" fill-rule="evenodd" fill-opacity="1" /><path clip-path="url(#clip890)" d="M166.2 1282.54 L184.556 1282.54 L184.556 1286.47 L170.482 1286.47 L170.482 1294.94 Q171.501 1294.6 172.519 1294.43 Q173.538 1294.25 174.556 1294.25 Q180.343 1294.25 183.723 1297.42 Q187.103 1300.59 187.103 1306.01 Q187.103 1311.59 183.63 1314.69 Q180.158 1317.77 173.839 1317.77 Q171.663 1317.77 169.394 1317.4 Q167.149 1317.03 164.742 1316.29 L164.742 1311.59 Q166.825 1312.72 169.047 1313.28 Q171.269 1313.83 173.746 1313.83 Q177.751 1313.83 180.089 1311.73 Q182.427 1309.62 182.427 1306.01 Q182.427 1302.4 180.089 1300.29 Q177.751 1298.18 173.746 1298.18 Q171.871 1298.18 169.996 1298.6 Q168.144 1299.02 166.2 1299.9 L166.2 1282.54 Z" fill="#000000" fill-rule="evenodd" fill-opacity="1" /><path clip-path="url(#clip890)" d="M99.765 1042.45 Q96.1539 1042.45 94.3252 1046.01 Q92.5197 1049.55 92.5197 1056.68 Q92.5197 1063.79 94.3252 1067.36 Q96.1539 1070.9 99.765 1070.9 Q103.399 1070.9 105.205 1067.36 Q107.033 1063.79 107.033 1056.68 Q107.033 1049.55 105.205 1046.01 Q103.399 1042.45 99.765 1042.45 M99.765 1038.74 Q105.575 1038.74 108.631 1043.35 Q111.709 1047.93 111.709 1056.68 Q111.709 1065.41 108.631 1070.02 Q105.575 1074.6 99.765 1074.6 Q93.9549 1074.6 90.8762 1070.02 Q87.8206 1065.41 87.8206 1056.68 Q87.8206 1047.93 90.8762 1043.35 Q93.9549 1038.74 99.765 1038.74 Z" fill="#000000" fill-rule="evenodd" fill-opacity="1" /><path clip-path="url(#clip890)" d="M119.927 1068.05 L124.811 1068.05 L124.811 1073.93 L119.927 1073.93 L119.927 1068.05 Z" fill="#000000" fill-rule="evenodd" fill-opacity="1" /><path clip-path="url(#clip890)" d="M144.996 1042.45 Q141.385 1042.45 139.556 1046.01 Q137.751 1049.55 137.751 1056.68 Q137.751 1063.79 139.556 1067.36 Q141.385 1070.9 144.996 1070.9 Q148.63 1070.9 150.436 1067.36 Q152.265 1063.79 152.265 1056.68 Q152.265 1049.55 150.436 1046.01 Q148.63 1042.45 144.996 1042.45 M144.996 1038.74 Q150.806 1038.74 153.862 1043.35 Q156.941 1047.93 156.941 1056.68 Q156.941 1065.41 153.862 1070.02 Q150.806 1074.6 144.996 1074.6 Q139.186 1074.6 136.107 1070.02 Q133.052 1065.41 133.052 1056.68 Q133.052 1047.93 136.107 1043.35 Q139.186 1038.74 144.996 1038.74 Z" fill="#000000" fill-rule="evenodd" fill-opacity="1" /><path clip-path="url(#clip890)" d="M175.158 1042.45 Q171.547 1042.45 169.718 1046.01 Q167.913 1049.55 167.913 1056.68 Q167.913 1063.79 169.718 1067.36 Q171.547 1070.9 175.158 1070.9 Q178.792 1070.9 180.598 1067.36 Q182.427 1063.79 182.427 1056.68 Q182.427 1049.55 180.598 1046.01 Q178.792 1042.45 175.158 1042.45 M175.158 1038.74 Q180.968 1038.74 184.024 1043.35 Q187.103 1047.93 187.103 1056.68 Q187.103 1065.41 184.024 1070.02 Q180.968 1074.6 175.158 1074.6 Q169.348 1074.6 166.269 1070.02 Q163.214 1065.41 163.214 1056.68 Q163.214 1047.93 166.269 1043.35 Q169.348 1038.74 175.158 1038.74 Z" fill="#000000" fill-rule="evenodd" fill-opacity="1" /><path clip-path="url(#clip890)" d="M100.76 799.282 Q97.1493 799.282 95.3206 802.847 Q93.515 806.389 93.515 813.518 Q93.515 820.625 95.3206 824.19 Q97.1493 827.731 100.76 827.731 Q104.395 827.731 106.2 824.19 Q108.029 820.625 108.029 813.518 Q108.029 806.389 106.2 802.847 Q104.395 799.282 100.76 799.282 M100.76 795.579 Q106.571 795.579 109.626 800.185 Q112.705 804.768 112.705 813.518 Q112.705 822.245 109.626 826.852 Q106.571 831.435 100.76 831.435 Q94.9502 831.435 91.8715 826.852 Q88.816 822.245 88.816 813.518 Q88.816 804.768 91.8715 800.185 Q94.9502 795.579 100.76 795.579 Z" fill="#000000" fill-rule="evenodd" fill-opacity="1" /><path clip-path="url(#clip890)" d="M120.922 824.884 L125.807 824.884 L125.807 830.764 L120.922 830.764 L120.922 824.884 Z" fill="#000000" fill-rule="evenodd" fill-opacity="1" /><path clip-path="url(#clip890)" d="M140.019 826.828 L156.339 826.828 L156.339 830.764 L134.394 830.764 L134.394 826.828 Q137.056 824.074 141.64 819.444 Q146.246 814.791 147.427 813.449 Q149.672 810.926 150.552 809.19 Q151.455 807.43 151.455 805.741 Q151.455 802.986 149.51 801.25 Q147.589 799.514 144.487 799.514 Q142.288 799.514 139.834 800.278 Q137.404 801.042 134.626 802.592 L134.626 797.87 Q137.45 796.736 139.904 796.157 Q142.357 795.579 144.394 795.579 Q149.765 795.579 152.959 798.264 Q156.154 800.949 156.154 805.44 Q156.154 807.569 155.343 809.491 Q154.556 811.389 152.45 813.981 Q151.871 814.653 148.769 817.87 Q145.668 821.065 140.019 826.828 Z" fill="#000000" fill-rule="evenodd" fill-opacity="1" /><path clip-path="url(#clip890)" d="M166.2 796.204 L184.556 796.204 L184.556 800.139 L170.482 800.139 L170.482 808.611 Q171.501 808.264 172.519 808.102 Q173.538 807.916 174.556 807.916 Q180.343 807.916 183.723 811.088 Q187.103 814.259 187.103 819.676 Q187.103 825.254 183.63 828.356 Q180.158 831.435 173.839 831.435 Q171.663 831.435 169.394 831.065 Q167.149 830.694 164.742 829.953 L164.742 825.254 Q166.825 826.389 169.047 826.944 Q171.269 827.5 173.746 827.5 Q177.751 827.5 180.089 825.393 Q182.427 823.287 182.427 819.676 Q182.427 816.065 180.089 813.958 Q177.751 811.852 173.746 811.852 Q171.871 811.852 169.996 812.268 Q168.144 812.685 166.2 813.565 L166.2 796.204 Z" fill="#000000" fill-rule="evenodd" fill-opacity="1" /><path clip-path="url(#clip890)" d="M99.765 556.116 Q96.1539 556.116 94.3252 559.681 Q92.5197 563.223 92.5197 570.352 Q92.5197 577.459 94.3252 581.023 Q96.1539 584.565 99.765 584.565 Q103.399 584.565 105.205 581.023 Q107.033 577.459 107.033 570.352 Q107.033 563.223 105.205 559.681 Q103.399 556.116 99.765 556.116 M99.765 552.412 Q105.575 552.412 108.631 557.019 Q111.709 561.602 111.709 570.352 Q111.709 579.079 108.631 583.685 Q105.575 588.269 99.765 588.269 Q93.9549 588.269 90.8762 583.685 Q87.8206 579.079 87.8206 570.352 Q87.8206 561.602 90.8762 557.019 Q93.9549 552.412 99.765 552.412 Z" fill="#000000" fill-rule="evenodd" fill-opacity="1" /><path clip-path="url(#clip890)" d="M119.927 581.718 L124.811 581.718 L124.811 587.597 L119.927 587.597 L119.927 581.718 Z" fill="#000000" fill-rule="evenodd" fill-opacity="1" /><path clip-path="url(#clip890)" d="M135.043 553.037 L153.399 553.037 L153.399 556.973 L139.325 556.973 L139.325 565.445 Q140.343 565.098 141.362 564.935 Q142.381 564.75 143.399 564.75 Q149.186 564.75 152.566 567.922 Q155.945 571.093 155.945 576.509 Q155.945 582.088 152.473 585.19 Q149.001 588.269 142.681 588.269 Q140.506 588.269 138.237 587.898 Q135.992 587.528 133.584 586.787 L133.584 582.088 Q135.668 583.222 137.89 583.778 Q140.112 584.334 142.589 584.334 Q146.593 584.334 148.931 582.227 Q151.269 580.121 151.269 576.509 Q151.269 572.898 148.931 570.792 Q146.593 568.685 142.589 568.685 Q140.714 568.685 138.839 569.102 Q136.987 569.519 135.043 570.398 L135.043 553.037 Z" fill="#000000" fill-rule="evenodd" fill-opacity="1" /><path clip-path="url(#clip890)" d="M175.158 556.116 Q171.547 556.116 169.718 559.681 Q167.913 563.223 167.913 570.352 Q167.913 577.459 169.718 581.023 Q171.547 584.565 175.158 584.565 Q178.792 584.565 180.598 581.023 Q182.427 577.459 182.427 570.352 Q182.427 563.223 180.598 559.681 Q178.792 556.116 175.158 556.116 M175.158 552.412 Q180.968 552.412 184.024 557.019 Q187.103 561.602 187.103 570.352 Q187.103 579.079 184.024 583.685 Q180.968 588.269 175.158 588.269 Q169.348 588.269 166.269 583.685 Q163.214 579.079 163.214 570.352 Q163.214 561.602 166.269 557.019 Q169.348 552.412 175.158 552.412 Z" fill="#000000" fill-rule="evenodd" fill-opacity="1" /><path clip-path="url(#clip890)" d="M100.76 312.95 Q97.1493 312.95 95.3206 316.515 Q93.515 320.056 93.515 327.186 Q93.515 334.292 95.3206 337.857 Q97.1493 341.399 100.76 341.399 Q104.395 341.399 106.2 337.857 Q108.029 334.292 108.029 327.186 Q108.029 320.056 106.2 316.515 Q104.395 312.95 100.76 312.95 M100.76 309.246 Q106.571 309.246 109.626 313.853 Q112.705 318.436 112.705 327.186 Q112.705 335.913 109.626 340.519 Q106.571 345.103 100.76 345.103 Q94.9502 345.103 91.8715 340.519 Q88.816 335.913 88.816 327.186 Q88.816 318.436 91.8715 313.853 Q94.9502 309.246 100.76 309.246 Z" fill="#000000" fill-rule="evenodd" fill-opacity="1" /><path clip-path="url(#clip890)" d="M120.922 338.552 L125.807 338.552 L125.807 344.431 L120.922 344.431 L120.922 338.552 Z" fill="#000000" fill-rule="evenodd" fill-opacity="1" /><path clip-path="url(#clip890)" d="M134.811 309.871 L157.033 309.871 L157.033 311.862 L144.487 344.431 L139.603 344.431 L151.408 313.806 L134.811 313.806 L134.811 309.871 Z" fill="#000000" fill-rule="evenodd" fill-opacity="1" /><path clip-path="url(#clip890)" d="M166.2 309.871 L184.556 309.871 L184.556 313.806 L170.482 313.806 L170.482 322.279 Q171.501 321.931 172.519 321.769 Q173.538 321.584 174.556 321.584 Q180.343 321.584 183.723 324.755 Q187.103 327.927 187.103 333.343 Q187.103 338.922 183.63 342.024 Q180.158 345.103 173.839 345.103 Q171.663 345.103 169.394 344.732 Q167.149 344.362 164.742 343.621 L164.742 338.922 Q166.825 340.056 169.047 340.612 Q171.269 341.167 173.746 341.167 Q177.751 341.167 180.089 339.061 Q182.427 336.954 182.427 333.343 Q182.427 329.732 180.089 327.626 Q177.751 325.519 173.746 325.519 Q171.871 325.519 169.996 325.936 Q168.144 326.353 166.2 327.232 L166.2 309.871 Z" fill="#000000" fill-rule="evenodd" fill-opacity="1" /><path clip-path="url(#clip890)" d="M90.5752 97.3299 L98.2141 97.3299 L98.2141 70.9643 L89.904 72.6309 L89.904 68.3717 L98.1678 66.705 L102.844 66.705 L102.844 97.3299 L110.483 97.3299 L110.483 101.265 L90.5752 101.265 L90.5752 97.3299 Z" fill="#000000" fill-rule="evenodd" fill-opacity="1" /><path clip-path="url(#clip890)" d="M119.927 95.3854 L124.811 95.3854 L124.811 101.265 L119.927 101.265 L119.927 95.3854 Z" fill="#000000" fill-rule="evenodd" fill-opacity="1" /><path clip-path="url(#clip890)" d="M144.996 69.7837 Q141.385 69.7837 139.556 73.3485 Q137.751 76.8901 137.751 84.0197 Q137.751 91.1262 139.556 94.691 Q141.385 98.2326 144.996 98.2326 Q148.63 98.2326 150.436 94.691 Q152.265 91.1262 152.265 84.0197 Q152.265 76.8901 150.436 73.3485 Q148.63 69.7837 144.996 69.7837 M144.996 66.08 Q150.806 66.08 153.862 70.6865 Q156.941 75.2698 156.941 84.0197 Q156.941 92.7465 153.862 97.353 Q150.806 101.936 144.996 101.936 Q139.186 101.936 136.107 97.353 Q133.052 92.7465 133.052 84.0197 Q133.052 75.2698 136.107 70.6865 Q139.186 66.08 144.996 66.08 Z" fill="#000000" fill-rule="evenodd" fill-opacity="1" /><path clip-path="url(#clip890)" d="M175.158 69.7837 Q171.547 69.7837 169.718 73.3485 Q167.913 76.8901 167.913 84.0197 Q167.913 91.1262 169.718 94.691 Q171.547 98.2326 175.158 98.2326 Q178.792 98.2326 180.598 94.691 Q182.427 91.1262 182.427 84.0197 Q182.427 76.8901 180.598 73.3485 Q178.792 69.7837 175.158 69.7837 M175.158 66.08 Q180.968 66.08 184.024 70.6865 Q187.103 75.2698 187.103 84.0197 Q187.103 92.7465 184.024 97.353 Q180.968 101.936 175.158 101.936 Q169.348 101.936 166.269 97.353 Q163.214 92.7465 163.214 84.0197 Q163.214 75.2698 166.269 70.6865 Q169.348 66.08 175.158 66.08 Z" fill="#000000" fill-rule="evenodd" fill-opacity="1" /><polyline clip-path="url(#clip892)" style="stroke:#009af9; stroke-linecap:butt; stroke-linejoin:round; stroke-width:16; stroke-opacity:1; fill:none" points="
  283.376,1445.72 352.655,1429.8 421.935,1382.79 491.214,1306.88 560.494,1205.63 629.773,1083.77 699.053,947.001 768.333,801.712 837.612,654.699 906.892,512.836 
  976.171,382.758 1045.45,270.545 1114.73,181.446 1184.01,119.626 1253.29,87.9763 1322.57,87.9763 1391.85,119.626 1461.13,181.446 1530.41,270.545 1599.69,382.758 
  1668.97,512.836 1738.25,654.699 1807.53,801.712 1876.81,947.001 1946.08,1083.77 2015.36,1205.63 2084.64,1306.88 2153.92,1382.79 2223.2,1429.8 2292.48,1445.72 
  
  "/>
<circle clip-path="url(#clip892)" cx="283.376" cy="1445.72" r="14" fill="#009af9" fill-rule="evenodd" fill-opacity="1" stroke="#000000" stroke-opacity="1" stroke-width="3.2"/>
<circle clip-path="url(#clip892)" cx="352.655" cy="1429.8" r="14" fill="#009af9" fill-rule="evenodd" fill-opacity="1" stroke="#000000" stroke-opacity="1" stroke-width="3.2"/>
<circle clip-path="url(#clip892)" cx="421.935" cy="1382.79" r="14" fill="#009af9" fill-rule="evenodd" fill-opacity="1" stroke="#000000" stroke-opacity="1" stroke-width="3.2"/>
<circle clip-path="url(#clip892)" cx="491.214" cy="1306.88" r="14" fill="#009af9" fill-rule="evenodd" fill-opacity="1" stroke="#000000" stroke-opacity="1" stroke-width="3.2"/>
<circle clip-path="url(#clip892)" cx="560.494" cy="1205.63" r="14" fill="#009af9" fill-rule="evenodd" fill-opacity="1" stroke="#000000" stroke-opacity="1" stroke-width="3.2"/>
<circle clip-path="url(#clip892)" cx="629.773" cy="1083.77" r="14" fill="#009af9" fill-rule="evenodd" fill-opacity="1" stroke="#000000" stroke-opacity="1" stroke-width="3.2"/>
<circle clip-path="url(#clip892)" cx="699.053" cy="947.001" r="14" fill="#009af9" fill-rule="evenodd" fill-opacity="1" stroke="#000000" stroke-opacity="1" stroke-width="3.2"/>
<circle clip-path="url(#clip892)" cx="768.333" cy="801.712" r="14" fill="#009af9" fill-rule="evenodd" fill-opacity="1" stroke="#000000" stroke-opacity="1" stroke-width="3.2"/>
<circle clip-path="url(#clip892)" cx="837.612" cy="654.699" r="14" fill="#009af9" fill-rule="evenodd" fill-opacity="1" stroke="#000000" stroke-opacity="1" stroke-width="3.2"/>
<circle clip-path="url(#clip892)" cx="906.892" cy="512.836" r="14" fill="#009af9" fill-rule="evenodd" fill-opacity="1" stroke="#000000" stroke-opacity="1" stroke-width="3.2"/>
<circle clip-path="url(#clip892)" cx="976.171" cy="382.758" r="14" fill="#009af9" fill-rule="evenodd" fill-opacity="1" stroke="#000000" stroke-opacity="1" stroke-width="3.2"/>
<circle clip-path="url(#clip892)" cx="1045.45" cy="270.545" r="14" fill="#009af9" fill-rule="evenodd" fill-opacity="1" stroke="#000000" stroke-opacity="1" stroke-width="3.2"/>
<circle clip-path="url(#clip892)" cx="1114.73" cy="181.446" r="14" fill="#009af9" fill-rule="evenodd" fill-opacity="1" stroke="#000000" stroke-opacity="1" stroke-width="3.2"/>
<circle clip-path="url(#clip892)" cx="1184.01" cy="119.626" r="14" fill="#009af9" fill-rule="evenodd" fill-opacity="1" stroke="#000000" stroke-opacity="1" stroke-width="3.2"/>
<circle clip-path="url(#clip892)" cx="1253.29" cy="87.9763" r="14" fill="#009af9" fill-rule="evenodd" fill-opacity="1" stroke="#000000" stroke-opacity="1" stroke-width="3.2"/>
<circle clip-path="url(#clip892)" cx="1322.57" cy="87.9763" r="14" fill="#009af9" fill-rule="evenodd" fill-opacity="1" stroke="#000000" stroke-opacity="1" stroke-width="3.2"/>
<circle clip-path="url(#clip892)" cx="1391.85" cy="119.626" r="14" fill="#009af9" fill-rule="evenodd" fill-opacity="1" stroke="#000000" stroke-opacity="1" stroke-width="3.2"/>
<circle clip-path="url(#clip892)" cx="1461.13" cy="181.446" r="14" fill="#009af9" fill-rule="evenodd" fill-opacity="1" stroke="#000000" stroke-opacity="1" stroke-width="3.2"/>
<circle clip-path="url(#clip892)" cx="1530.41" cy="270.545" r="14" fill="#009af9" fill-rule="evenodd" fill-opacity="1" stroke="#000000" stroke-opacity="1" stroke-width="3.2"/>
<circle clip-path="url(#clip892)" cx="1599.69" cy="382.758" r="14" fill="#009af9" fill-rule="evenodd" fill-opacity="1" stroke="#000000" stroke-opacity="1" stroke-width="3.2"/>
<circle clip-path="url(#clip892)" cx="1668.97" cy="512.836" r="14" fill="#009af9" fill-rule="evenodd" fill-opacity="1" stroke="#000000" stroke-opacity="1" stroke-width="3.2"/>
<circle clip-path="url(#clip892)" cx="1738.25" cy="654.699" r="14" fill="#009af9" fill-rule="evenodd" fill-opacity="1" stroke="#000000" stroke-opacity="1" stroke-width="3.2"/>
<circle clip-path="url(#clip892)" cx="1807.53" cy="801.712" r="14" fill="#009af9" fill-rule="evenodd" fill-opacity="1" stroke="#000000" stroke-opacity="1" stroke-width="3.2"/>
<circle clip-path="url(#clip892)" cx="1876.81" cy="947.001" r="14" fill="#009af9" fill-rule="evenodd" fill-opacity="1" stroke="#000000" stroke-opacity="1" stroke-width="3.2"/>
<circle clip-path="url(#clip892)" cx="1946.08" cy="1083.77" r="14" fill="#009af9" fill-rule="evenodd" fill-opacity="1" stroke="#000000" stroke-opacity="1" stroke-width="3.2"/>
<circle clip-path="url(#clip892)" cx="2015.36" cy="1205.63" r="14" fill="#009af9" fill-rule="evenodd" fill-opacity="1" stroke="#000000" stroke-opacity="1" stroke-width="3.2"/>
<circle clip-path="url(#clip892)" cx="2084.64" cy="1306.88" r="14" fill="#009af9" fill-rule="evenodd" fill-opacity="1" stroke="#000000" stroke-opacity="1" stroke-width="3.2"/>
<circle clip-path="url(#clip892)" cx="2153.92" cy="1382.79" r="14" fill="#009af9" fill-rule="evenodd" fill-opacity="1" stroke="#000000" stroke-opacity="1" stroke-width="3.2"/>
<circle clip-path="url(#clip892)" cx="2223.2" cy="1429.8" r="14" fill="#009af9" fill-rule="evenodd" fill-opacity="1" stroke="#000000" stroke-opacity="1" stroke-width="3.2"/>
<circle clip-path="url(#clip892)" cx="2292.48" cy="1445.72" r="14" fill="#009af9" fill-rule="evenodd" fill-opacity="1" stroke="#000000" stroke-opacity="1" stroke-width="3.2"/>
<path clip-path="url(#clip890)" d="
M1897.25 198.898 L2281.77 198.898 L2281.77 95.2176 L1897.25 95.2176  Z
  " fill="#ffffff" fill-rule="evenodd" fill-opacity="1"/>
<polyline clip-path="url(#clip890)" style="stroke:#000000; stroke-linecap:butt; stroke-linejoin:round; stroke-width:4; stroke-opacity:1; fill:none" points="
  1897.25,198.898 2281.77,198.898 2281.77,95.2176 1897.25,95.2176 1897.25,198.898 
  "/>
<polyline clip-path="url(#clip890)" style="stroke:#009af9; stroke-linecap:butt; stroke-linejoin:round; stroke-width:4; stroke-opacity:1; fill:none" points="
  1920.91,147.058 2062.89,147.058 
  "/>
<circle clip-path="url(#clip890)" cx="1991.9" cy="147.058" r="23" fill="#009af9" fill-rule="evenodd" fill-opacity="1" stroke="#000000" stroke-opacity="1" stroke-width="5.12"/>
<path clip-path="url(#clip890)" d="M2104.97 139.176 L2104.97 143.203 Q2103.17 142.277 2101.22 141.815 Q2099.28 141.352 2097.2 141.352 Q2094.03 141.352 2092.43 142.324 Q2090.85 143.296 2090.85 145.24 Q2090.85 146.722 2091.99 147.578 Q2093.12 148.412 2096.55 149.176 L2098.01 149.5 Q2102.54 150.472 2104.44 152.254 Q2106.36 154.014 2106.36 157.185 Q2106.36 160.796 2103.49 162.902 Q2100.65 165.009 2095.65 165.009 Q2093.56 165.009 2091.29 164.592 Q2089.05 164.199 2086.55 163.388 L2086.55 158.99 Q2088.91 160.217 2091.2 160.842 Q2093.49 161.444 2095.74 161.444 Q2098.75 161.444 2100.37 160.426 Q2101.99 159.384 2101.99 157.509 Q2101.99 155.773 2100.81 154.847 Q2099.65 153.921 2095.69 153.064 L2094.21 152.717 Q2090.25 151.884 2088.49 150.171 Q2086.73 148.435 2086.73 145.426 Q2086.73 141.768 2089.33 139.778 Q2091.92 137.787 2096.69 137.787 Q2099.05 137.787 2101.13 138.134 Q2103.22 138.481 2104.97 139.176 Z" fill="#000000" fill-rule="evenodd" fill-opacity="1" /><path clip-path="url(#clip890)" d="M2117.36 131.051 L2117.36 138.412 L2126.13 138.412 L2126.13 141.722 L2117.36 141.722 L2117.36 155.796 Q2117.36 158.967 2118.22 159.87 Q2119.1 160.773 2121.76 160.773 L2126.13 160.773 L2126.13 164.338 L2121.76 164.338 Q2116.83 164.338 2114.95 162.509 Q2113.08 160.657 2113.08 155.796 L2113.08 141.722 L2109.95 141.722 L2109.95 138.412 L2113.08 138.412 L2113.08 131.051 L2117.36 131.051 Z" fill="#000000" fill-rule="evenodd" fill-opacity="1" /><path clip-path="url(#clip890)" d="M2153.91 150.31 L2153.91 152.393 L2134.33 152.393 Q2134.6 156.791 2136.97 159.106 Q2139.35 161.398 2143.59 161.398 Q2146.04 161.398 2148.33 160.796 Q2150.65 160.194 2152.91 158.99 L2152.91 163.018 Q2150.62 163.99 2148.22 164.5 Q2145.81 165.009 2143.33 165.009 Q2137.13 165.009 2133.49 161.398 Q2129.88 157.787 2129.88 151.629 Q2129.88 145.264 2133.31 141.537 Q2136.76 137.787 2142.59 137.787 Q2147.82 137.787 2150.85 141.166 Q2153.91 144.523 2153.91 150.31 M2149.65 149.06 Q2149.6 145.565 2147.68 143.481 Q2145.78 141.398 2142.64 141.398 Q2139.07 141.398 2136.92 143.412 Q2134.79 145.426 2134.47 149.083 L2149.65 149.06 Z" fill="#000000" fill-rule="evenodd" fill-opacity="1" /><path clip-path="url(#clip890)" d="M2182.45 148.689 L2182.45 164.338 L2178.19 164.338 L2178.19 148.828 Q2178.19 145.148 2176.76 143.319 Q2175.32 141.49 2172.45 141.49 Q2169 141.49 2167.01 143.69 Q2165.02 145.889 2165.02 149.685 L2165.02 164.338 L2160.74 164.338 L2160.74 138.412 L2165.02 138.412 L2165.02 142.44 Q2166.55 140.102 2168.61 138.944 Q2170.69 137.787 2173.4 137.787 Q2177.87 137.787 2180.16 140.565 Q2182.45 143.319 2182.45 148.689 Z" fill="#000000" fill-rule="evenodd" fill-opacity="1" /><path clip-path="url(#clip890)" d="M2209.6 139.407 L2209.6 143.389 Q2207.8 142.393 2205.97 141.907 Q2204.16 141.398 2202.31 141.398 Q2198.17 141.398 2195.88 144.037 Q2193.59 146.652 2193.59 151.398 Q2193.59 156.143 2195.88 158.782 Q2198.17 161.398 2202.31 161.398 Q2204.16 161.398 2205.97 160.912 Q2207.8 160.402 2209.6 159.407 L2209.6 163.342 Q2207.82 164.176 2205.9 164.592 Q2204 165.009 2201.85 165.009 Q2195.99 165.009 2192.54 161.328 Q2189.09 157.648 2189.09 151.398 Q2189.09 145.055 2192.57 141.421 Q2196.06 137.787 2202.13 137.787 Q2204.09 137.787 2205.97 138.203 Q2207.84 138.597 2209.6 139.407 Z" fill="#000000" fill-rule="evenodd" fill-opacity="1" /><path clip-path="url(#clip890)" d="M2217.01 138.412 L2221.27 138.412 L2221.27 164.338 L2217.01 164.338 L2217.01 138.412 M2217.01 128.319 L2221.27 128.319 L2221.27 133.713 L2217.01 133.713 L2217.01 128.319 Z" fill="#000000" fill-rule="evenodd" fill-opacity="1" /><path clip-path="url(#clip890)" d="M2230.18 128.319 L2234.44 128.319 L2234.44 164.338 L2230.18 164.338 L2230.18 128.319 Z" fill="#000000" fill-rule="evenodd" fill-opacity="1" /></svg>
