<?xml version="1.0" encoding="utf-8"?>
<svg xmlns="http://www.w3.org/2000/svg" xmlns:xlink="http://www.w3.org/1999/xlink" width="600" height="400" viewBox="0 0 2400 1600">
<defs>
  <clipPath id="clip480">
    <rect x="0" y="0" width="2400" height="1600"/>
  </clipPath>
</defs>
<path clip-path="url(#clip480)" d="
M0 1600 L2400 1600 L2400 0 L0 0  Z
  " fill="#ffffff" fill-rule="evenodd" fill-opacity="1"/>
<defs>
  <clipPath id="clip481">
    <rect x="480" y="0" width="1681" height="1600"/>
  </clipPath>
</defs>
<path clip-path="url(#clip480)" d="
M193.936 1486.45 L2352.76 1486.45 L2352.76 47.2441 L193.936 47.2441  Z
  " fill="#ffffff" fill-rule="evenodd" fill-opacity="1"/>
<defs>
  <clipPath id="clip482">
    <rect x="193" y="47" width="2160" height="1440"/>
  </clipPath>
</defs>
<polyline clip-path="url(#clip482)" style="stroke:#000000; stroke-linecap:butt; stroke-linejoin:round; stroke-width:2; stroke-opacity:0.1; fill:none" points="
  255.035,1486.45 255.035,47.2441 
  "/>
<polyline clip-path="url(#clip482)" style="stroke:#000000; stroke-linecap:butt; stroke-linejoin:round; stroke-width:2; stroke-opacity:0.1; fill:none" points="
  662.359,1486.45 662.359,47.2441 
  "/>
<polyline clip-path="url(#clip482)" style="stroke:#000000; stroke-linecap:butt; stroke-linejoin:round; stroke-width:2; stroke-opacity:0.1; fill:none" points="
  1069.68,1486.45 1069.68,47.2441 
  "/>
<polyline clip-path="url(#clip482)" style="stroke:#000000; stroke-linecap:butt; stroke-linejoin:round; stroke-width:2; stroke-opacity:0.1; fill:none" points="
  1477.01,1486.45 1477.01,47.2441 
  "/>
<polyline clip-path="url(#clip482)" style="stroke:#000000; stroke-linecap:butt; stroke-linejoin:round; stroke-width:2; stroke-opacity:0.1; fill:none" points="
  1884.33,1486.45 1884.33,47.2441 
  "/>
<polyline clip-path="url(#clip482)" style="stroke:#000000; stroke-linecap:butt; stroke-linejoin:round; stroke-width:2; stroke-opacity:0.1; fill:none" points="
  2291.66,1486.45 2291.66,47.2441 
  "/>
<polyline clip-path="url(#clip480)" style="stroke:#000000; stroke-linecap:butt; stroke-linejoin:round; stroke-width:4; stroke-opacity:1; fill:none" points="
  193.936,1486.45 2352.76,1486.45 
  "/>
<polyline clip-path="url(#clip480)" style="stroke:#000000; stroke-linecap:butt; stroke-linejoin:round; stroke-width:4; stroke-opacity:1; fill:none" points="
  255.035,1486.45 255.035,1467.55 
  "/>
<polyline clip-path="url(#clip480)" style="stroke:#000000; stroke-linecap:butt; stroke-linejoin:round; stroke-width:4; stroke-opacity:1; fill:none" points="
  662.359,1486.45 662.359,1467.55 
  "/>
<polyline clip-path="url(#clip480)" style="stroke:#000000; stroke-linecap:butt; stroke-linejoin:round; stroke-width:4; stroke-opacity:1; fill:none" points="
  1069.68,1486.45 1069.68,1467.55 
  "/>
<polyline clip-path="url(#clip480)" style="stroke:#000000; stroke-linecap:butt; stroke-linejoin:round; stroke-width:4; stroke-opacity:1; fill:none" points="
  1477.01,1486.45 1477.01,1467.55 
  "/>
<polyline clip-path="url(#clip480)" style="stroke:#000000; stroke-linecap:butt; stroke-linejoin:round; stroke-width:4; stroke-opacity:1; fill:none" points="
  1884.33,1486.45 1884.33,1467.55 
  "/>
<polyline clip-path="url(#clip480)" style="stroke:#000000; stroke-linecap:butt; stroke-linejoin:round; stroke-width:4; stroke-opacity:1; fill:none" points="
  2291.66,1486.45 2291.66,1467.55 
  "/>
<path clip-path="url(#clip480)" d="M255.035 1515.64 Q251.424 1515.64 249.595 1519.2 Q247.789 1522.75 247.789 1529.87 Q247.789 1536.98 249.595 1540.55 Q251.424 1544.09 255.035 1544.09 Q258.669 1544.09 260.474 1540.55 Q262.303 1536.98 262.303 1529.87 Q262.303 1522.75 260.474 1519.2 Q258.669 1515.64 255.035 1515.64 M255.035 1511.93 Q260.845 1511.93 263.9 1516.54 Q266.979 1521.12 266.979 1529.87 Q266.979 1538.6 263.9 1543.21 Q260.845 1547.79 255.035 1547.79 Q249.225 1547.79 246.146 1543.21 Q243.09 1538.6 243.09 1529.87 Q243.09 1521.12 246.146 1516.54 Q249.225 1511.93 255.035 1511.93 Z" fill="#000000" fill-rule="evenodd" fill-opacity="1" /><path clip-path="url(#clip480)" d="M652.741 1543.18 L660.38 1543.18 L660.38 1516.82 L652.07 1518.49 L652.07 1514.23 L660.334 1512.56 L665.01 1512.56 L665.01 1543.18 L672.648 1543.18 L672.648 1547.12 L652.741 1547.12 L652.741 1543.18 Z" fill="#000000" fill-rule="evenodd" fill-opacity="1" /><path clip-path="url(#clip480)" d="M1064.34 1543.18 L1080.66 1543.18 L1080.66 1547.12 L1058.71 1547.12 L1058.71 1543.18 Q1061.37 1540.43 1065.96 1535.8 Q1070.56 1531.15 1071.74 1529.81 Q1073.99 1527.28 1074.87 1525.55 Q1075.77 1523.79 1075.77 1522.1 Q1075.77 1519.34 1073.83 1517.61 Q1071.91 1515.87 1068.8 1515.87 Q1066.61 1515.87 1064.15 1516.63 Q1061.72 1517.4 1058.94 1518.95 L1058.94 1514.23 Q1061.77 1513.09 1064.22 1512.51 Q1066.67 1511.93 1068.71 1511.93 Q1074.08 1511.93 1077.28 1514.62 Q1080.47 1517.31 1080.47 1521.8 Q1080.47 1523.93 1079.66 1525.85 Q1078.87 1527.74 1076.77 1530.34 Q1076.19 1531.01 1073.09 1534.23 Q1069.98 1537.42 1064.34 1543.18 Z" fill="#000000" fill-rule="evenodd" fill-opacity="1" /><path clip-path="url(#clip480)" d="M1481.26 1528.49 Q1484.61 1529.2 1486.49 1531.47 Q1488.39 1533.74 1488.39 1537.07 Q1488.39 1542.19 1484.87 1544.99 Q1481.35 1547.79 1474.87 1547.79 Q1472.69 1547.79 1470.38 1547.35 Q1468.08 1546.93 1465.63 1546.08 L1465.63 1541.56 Q1467.58 1542.7 1469.89 1543.28 Q1472.2 1543.86 1474.73 1543.86 Q1479.13 1543.86 1481.42 1542.12 Q1483.73 1540.38 1483.73 1537.07 Q1483.73 1534.02 1481.58 1532.31 Q1479.45 1530.57 1475.63 1530.57 L1471.6 1530.57 L1471.6 1526.73 L1475.82 1526.73 Q1479.27 1526.73 1481.09 1525.36 Q1482.92 1523.97 1482.92 1521.38 Q1482.92 1518.72 1481.02 1517.31 Q1479.15 1515.87 1475.63 1515.87 Q1473.71 1515.87 1471.51 1516.29 Q1469.31 1516.7 1466.67 1517.58 L1466.67 1513.42 Q1469.33 1512.68 1471.65 1512.31 Q1473.99 1511.93 1476.05 1511.93 Q1481.37 1511.93 1484.47 1514.37 Q1487.58 1516.77 1487.58 1520.89 Q1487.58 1523.76 1485.93 1525.75 Q1484.29 1527.72 1481.26 1528.49 Z" fill="#000000" fill-rule="evenodd" fill-opacity="1" /><path clip-path="url(#clip480)" d="M1887.34 1516.63 L1875.54 1535.08 L1887.34 1535.08 L1887.34 1516.63 M1886.12 1512.56 L1891.99 1512.56 L1891.99 1535.08 L1896.93 1535.08 L1896.93 1538.97 L1891.99 1538.97 L1891.99 1547.12 L1887.34 1547.12 L1887.34 1538.97 L1871.74 1538.97 L1871.74 1534.46 L1886.12 1512.56 Z" fill="#000000" fill-rule="evenodd" fill-opacity="1" /><path clip-path="url(#clip480)" d="M2281.94 1512.56 L2300.29 1512.56 L2300.29 1516.5 L2286.22 1516.5 L2286.22 1524.97 Q2287.24 1524.62 2288.25 1524.46 Q2289.27 1524.27 2290.29 1524.27 Q2296.08 1524.27 2299.46 1527.44 Q2302.84 1530.62 2302.84 1536.03 Q2302.84 1541.61 2299.37 1544.71 Q2295.89 1547.79 2289.57 1547.79 Q2287.4 1547.79 2285.13 1547.42 Q2282.88 1547.05 2280.48 1546.31 L2280.48 1541.61 Q2282.56 1542.74 2284.78 1543.3 Q2287 1543.86 2289.48 1543.86 Q2293.49 1543.86 2295.82 1541.75 Q2298.16 1539.64 2298.16 1536.03 Q2298.16 1532.42 2295.82 1530.31 Q2293.49 1528.21 2289.48 1528.21 Q2287.61 1528.21 2285.73 1528.62 Q2283.88 1529.04 2281.94 1529.92 L2281.94 1512.56 Z" fill="#000000" fill-rule="evenodd" fill-opacity="1" /><polyline clip-path="url(#clip482)" style="stroke:#000000; stroke-linecap:butt; stroke-linejoin:round; stroke-width:2; stroke-opacity:0.1; fill:none" points="
  193.936,1446.08 2352.76,1446.08 
  "/>
<polyline clip-path="url(#clip482)" style="stroke:#000000; stroke-linecap:butt; stroke-linejoin:round; stroke-width:2; stroke-opacity:0.1; fill:none" points="
  193.936,1106.55 2352.76,1106.55 
  "/>
<polyline clip-path="url(#clip482)" style="stroke:#000000; stroke-linecap:butt; stroke-linejoin:round; stroke-width:2; stroke-opacity:0.1; fill:none" points="
  193.936,767.028 2352.76,767.028 
  "/>
<polyline clip-path="url(#clip482)" style="stroke:#000000; stroke-linecap:butt; stroke-linejoin:round; stroke-width:2; stroke-opacity:0.1; fill:none" points="
  193.936,427.502 2352.76,427.502 
  "/>
<polyline clip-path="url(#clip482)" style="stroke:#000000; stroke-linecap:butt; stroke-linejoin:round; stroke-width:2; stroke-opacity:0.1; fill:none" points="
  193.936,87.9763 2352.76,87.9763 
  "/>
<polyline clip-path="url(#clip480)" style="stroke:#000000; stroke-linecap:butt; stroke-linejoin:round; stroke-width:4; stroke-opacity:1; fill:none" points="
  193.936,1486.45 193.936,47.2441 
  "/>
<polyline clip-path="url(#clip480)" style="stroke:#000000; stroke-linecap:butt; stroke-linejoin:round; stroke-width:4; stroke-opacity:1; fill:none" points="
  193.936,1446.08 212.834,1446.08 
  "/>
<polyline clip-path="url(#clip480)" style="stroke:#000000; stroke-linecap:butt; stroke-linejoin:round; stroke-width:4; stroke-opacity:1; fill:none" points="
  193.936,1106.55 212.834,1106.55 
  "/>
<polyline clip-path="url(#clip480)" style="stroke:#000000; stroke-linecap:butt; stroke-linejoin:round; stroke-width:4; stroke-opacity:1; fill:none" points="
  193.936,767.028 212.834,767.028 
  "/>
<polyline clip-path="url(#clip480)" style="stroke:#000000; stroke-linecap:butt; stroke-linejoin:round; stroke-width:4; stroke-opacity:1; fill:none" points="
  193.936,427.502 212.834,427.502 
  "/>
<polyline clip-path="url(#clip480)" style="stroke:#000000; stroke-linecap:butt; stroke-linejoin:round; stroke-width:4; stroke-opacity:1; fill:none" points="
  193.936,87.9763 212.834,87.9763 
  "/>
<path clip-path="url(#clip480)" d="M50.9921 1446.53 L80.6679 1446.53 L80.6679 1450.47 L50.9921 1450.47 L50.9921 1446.53 Z" fill="#000000" fill-rule="evenodd" fill-opacity="1" /><path clip-path="url(#clip480)" d="M91.5706 1459.42 L99.2095 1459.42 L99.2095 1433.06 L90.8993 1434.73 L90.8993 1430.47 L99.1632 1428.8 L103.839 1428.8 L103.839 1459.42 L111.478 1459.42 L111.478 1463.36 L91.5706 1463.36 L91.5706 1459.42 Z" fill="#000000" fill-rule="evenodd" fill-opacity="1" /><path clip-path="url(#clip480)" d="M120.922 1457.48 L125.807 1457.48 L125.807 1463.36 L120.922 1463.36 L120.922 1457.48 Z" fill="#000000" fill-rule="evenodd" fill-opacity="1" /><path clip-path="url(#clip480)" d="M145.992 1431.88 Q142.381 1431.88 140.552 1435.44 Q138.746 1438.98 138.746 1446.11 Q138.746 1453.22 140.552 1456.79 Q142.381 1460.33 145.992 1460.33 Q149.626 1460.33 151.431 1456.79 Q153.26 1453.22 153.26 1446.11 Q153.26 1438.98 151.431 1435.44 Q149.626 1431.88 145.992 1431.88 M145.992 1428.17 Q151.802 1428.17 154.857 1432.78 Q157.936 1437.36 157.936 1446.11 Q157.936 1454.84 154.857 1459.45 Q151.802 1464.03 145.992 1464.03 Q140.181 1464.03 137.103 1459.45 Q134.047 1454.84 134.047 1446.11 Q134.047 1437.36 137.103 1432.78 Q140.181 1428.17 145.992 1428.17 Z" fill="#000000" fill-rule="evenodd" fill-opacity="1" /><path clip-path="url(#clip480)" d="M51.9875 1107.01 L81.6633 1107.01 L81.6633 1110.94 L51.9875 1110.94 L51.9875 1107.01 Z" fill="#000000" fill-rule="evenodd" fill-opacity="1" /><path clip-path="url(#clip480)" d="M101.756 1092.35 Q98.1447 1092.35 96.316 1095.92 Q94.5104 1099.46 94.5104 1106.59 Q94.5104 1113.69 96.316 1117.26 Q98.1447 1120.8 101.756 1120.8 Q105.39 1120.8 107.196 1117.26 Q109.024 1113.69 109.024 1106.59 Q109.024 1099.46 107.196 1095.92 Q105.39 1092.35 101.756 1092.35 M101.756 1088.65 Q107.566 1088.65 110.621 1093.26 Q113.7 1097.84 113.7 1106.59 Q113.7 1115.32 110.621 1119.92 Q107.566 1124.51 101.756 1124.51 Q95.9456 1124.51 92.8669 1119.92 Q89.8114 1115.32 89.8114 1106.59 Q89.8114 1097.84 92.8669 1093.26 Q95.9456 1088.65 101.756 1088.65 Z" fill="#000000" fill-rule="evenodd" fill-opacity="1" /><path clip-path="url(#clip480)" d="M121.918 1117.95 L126.802 1117.95 L126.802 1123.83 L121.918 1123.83 L121.918 1117.95 Z" fill="#000000" fill-rule="evenodd" fill-opacity="1" /><path clip-path="url(#clip480)" d="M137.033 1089.27 L155.39 1089.27 L155.39 1093.21 L141.316 1093.21 L141.316 1101.68 Q142.334 1101.33 143.353 1101.17 Q144.371 1100.99 145.39 1100.99 Q151.177 1100.99 154.556 1104.16 Q157.936 1107.33 157.936 1112.75 Q157.936 1118.32 154.464 1121.43 Q150.992 1124.51 144.672 1124.51 Q142.496 1124.51 140.228 1124.13 Q137.982 1123.76 135.575 1123.02 L135.575 1118.32 Q137.658 1119.46 139.881 1120.01 Q142.103 1120.57 144.58 1120.57 Q148.584 1120.57 150.922 1118.46 Q153.26 1116.36 153.26 1112.75 Q153.26 1109.13 150.922 1107.03 Q148.584 1104.92 144.58 1104.92 Q142.705 1104.92 140.83 1105.34 Q138.978 1105.76 137.033 1106.63 L137.033 1089.27 Z" fill="#000000" fill-rule="evenodd" fill-opacity="1" /><path clip-path="url(#clip480)" d="M100.76 752.827 Q97.1493 752.827 95.3206 756.391 Q93.515 759.933 93.515 767.063 Q93.515 774.169 95.3206 777.734 Q97.1493 781.276 100.76 781.276 Q104.395 781.276 106.2 777.734 Q108.029 774.169 108.029 767.063 Q108.029 759.933 106.2 756.391 Q104.395 752.827 100.76 752.827 M100.76 749.123 Q106.571 749.123 109.626 753.729 Q112.705 758.313 112.705 767.063 Q112.705 775.789 109.626 780.396 Q106.571 784.979 100.76 784.979 Q94.9502 784.979 91.8715 780.396 Q88.816 775.789 88.816 767.063 Q88.816 758.313 91.8715 753.729 Q94.9502 749.123 100.76 749.123 Z" fill="#000000" fill-rule="evenodd" fill-opacity="1" /><path clip-path="url(#clip480)" d="M120.922 778.428 L125.807 778.428 L125.807 784.308 L120.922 784.308 L120.922 778.428 Z" fill="#000000" fill-rule="evenodd" fill-opacity="1" /><path clip-path="url(#clip480)" d="M145.992 752.827 Q142.381 752.827 140.552 756.391 Q138.746 759.933 138.746 767.063 Q138.746 774.169 140.552 777.734 Q142.381 781.276 145.992 781.276 Q149.626 781.276 151.431 777.734 Q153.26 774.169 153.26 767.063 Q153.26 759.933 151.431 756.391 Q149.626 752.827 145.992 752.827 M145.992 749.123 Q151.802 749.123 154.857 753.729 Q157.936 758.313 157.936 767.063 Q157.936 775.789 154.857 780.396 Q151.802 784.979 145.992 784.979 Q140.181 784.979 137.103 780.396 Q134.047 775.789 134.047 767.063 Q134.047 758.313 137.103 753.729 Q140.181 749.123 145.992 749.123 Z" fill="#000000" fill-rule="evenodd" fill-opacity="1" /><path clip-path="url(#clip480)" d="M101.756 413.301 Q98.1447 413.301 96.316 416.866 Q94.5104 420.407 94.5104 427.537 Q94.5104 434.643 96.316 438.208 Q98.1447 441.75 101.756 441.75 Q105.39 441.75 107.196 438.208 Q109.024 434.643 109.024 427.537 Q109.024 420.407 107.196 416.866 Q105.39 413.301 101.756 413.301 M101.756 409.597 Q107.566 409.597 110.621 414.204 Q113.7 418.787 113.7 427.537 Q113.7 436.264 110.621 440.87 Q107.566 445.453 101.756 445.453 Q95.9456 445.453 92.8669 440.87 Q89.8114 436.264 89.8114 427.537 Q89.8114 418.787 92.8669 414.204 Q95.9456 409.597 101.756 409.597 Z" fill="#000000" fill-rule="evenodd" fill-opacity="1" /><path clip-path="url(#clip480)" d="M121.918 438.902 L126.802 438.902 L126.802 444.782 L121.918 444.782 L121.918 438.902 Z" fill="#000000" fill-rule="evenodd" fill-opacity="1" /><path clip-path="url(#clip480)" d="M137.033 410.222 L155.39 410.222 L155.39 414.157 L141.316 414.157 L141.316 422.629 Q142.334 422.282 143.353 422.12 Q144.371 421.935 145.39 421.935 Q151.177 421.935 154.556 425.106 Q157.936 428.278 157.936 433.694 Q157.936 439.273 154.464 442.375 Q150.992 445.453 144.672 445.453 Q142.496 445.453 140.228 445.083 Q137.982 444.713 135.575 443.972 L135.575 439.273 Q137.658 440.407 139.881 440.963 Q142.103 441.518 144.58 441.518 Q148.584 441.518 150.922 439.412 Q153.26 437.305 153.26 433.694 Q153.26 430.083 150.922 427.977 Q148.584 425.87 144.58 425.87 Q142.705 425.87 140.83 426.287 Q138.978 426.703 137.033 427.583 L137.033 410.222 Z" fill="#000000" fill-rule="evenodd" fill-opacity="1" /><path clip-path="url(#clip480)" d="M91.5706 101.321 L99.2095 101.321 L99.2095 74.9555 L90.8993 76.6222 L90.8993 72.3629 L99.1632 70.6963 L103.839 70.6963 L103.839 101.321 L111.478 101.321 L111.478 105.256 L91.5706 105.256 L91.5706 101.321 Z" fill="#000000" fill-rule="evenodd" fill-opacity="1" /><path clip-path="url(#clip480)" d="M120.922 99.3767 L125.807 99.3767 L125.807 105.256 L120.922 105.256 L120.922 99.3767 Z" fill="#000000" fill-rule="evenodd" fill-opacity="1" /><path clip-path="url(#clip480)" d="M145.992 73.775 Q142.381 73.775 140.552 77.3398 Q138.746 80.8814 138.746 88.011 Q138.746 95.1174 140.552 98.6822 Q142.381 102.224 145.992 102.224 Q149.626 102.224 151.431 98.6822 Q153.26 95.1174 153.26 88.011 Q153.26 80.8814 151.431 77.3398 Q149.626 73.775 145.992 73.775 M145.992 70.0713 Q151.802 70.0713 154.857 74.6777 Q157.936 79.261 157.936 88.011 Q157.936 96.7378 154.857 101.344 Q151.802 105.928 145.992 105.928 Q140.181 105.928 137.103 101.344 Q134.047 96.7378 134.047 88.011 Q134.047 79.261 137.103 74.6777 Q140.181 70.0713 145.992 70.0713 Z" fill="#000000" fill-rule="evenodd" fill-opacity="1" /><circle clip-path="url(#clip482)" cx="255.035" cy="631.218" r="14" fill="#009af9" fill-rule="evenodd" fill-opacity="1" stroke="#000000" stroke-opacity="1" stroke-width="3.2"/>
<circle clip-path="url(#clip482)" cx="295.767" cy="91.908" r="14" fill="#009af9" fill-rule="evenodd" fill-opacity="1" stroke="#000000" stroke-opacity="1" stroke-width="3.2"/>
<circle clip-path="url(#clip482)" cx="336.5" cy="101.503" r="14" fill="#009af9" fill-rule="evenodd" fill-opacity="1" stroke="#000000" stroke-opacity="1" stroke-width="3.2"/>
<circle clip-path="url(#clip482)" cx="377.232" cy="118.288" r="14" fill="#009af9" fill-rule="evenodd" fill-opacity="1" stroke="#000000" stroke-opacity="1" stroke-width="3.2"/>
<circle clip-path="url(#clip482)" cx="417.964" cy="141.557" r="14" fill="#009af9" fill-rule="evenodd" fill-opacity="1" stroke="#000000" stroke-opacity="1" stroke-width="3.2"/>
<circle clip-path="url(#clip482)" cx="458.697" cy="171.075" r="14" fill="#009af9" fill-rule="evenodd" fill-opacity="1" stroke="#000000" stroke-opacity="1" stroke-width="3.2"/>
<circle clip-path="url(#clip482)" cx="499.429" cy="206.547" r="14" fill="#009af9" fill-rule="evenodd" fill-opacity="1" stroke="#000000" stroke-opacity="1" stroke-width="3.2"/>
<circle clip-path="url(#clip482)" cx="540.162" cy="247.619" r="14" fill="#009af9" fill-rule="evenodd" fill-opacity="1" stroke="#000000" stroke-opacity="1" stroke-width="3.2"/>
<circle clip-path="url(#clip482)" cx="580.894" cy="293.882" r="14" fill="#009af9" fill-rule="evenodd" fill-opacity="1" stroke="#000000" stroke-opacity="1" stroke-width="3.2"/>
<circle clip-path="url(#clip482)" cx="621.627" cy="344.872" r="14" fill="#009af9" fill-rule="evenodd" fill-opacity="1" stroke="#000000" stroke-opacity="1" stroke-width="3.2"/>
<circle clip-path="url(#clip482)" cx="662.359" cy="400.08" r="14" fill="#009af9" fill-rule="evenodd" fill-opacity="1" stroke="#000000" stroke-opacity="1" stroke-width="3.2"/>
<circle clip-path="url(#clip482)" cx="703.092" cy="458.954" r="14" fill="#009af9" fill-rule="evenodd" fill-opacity="1" stroke="#000000" stroke-opacity="1" stroke-width="3.2"/>
<circle clip-path="url(#clip482)" cx="743.824" cy="520.906" r="14" fill="#009af9" fill-rule="evenodd" fill-opacity="1" stroke="#000000" stroke-opacity="1" stroke-width="3.2"/>
<circle clip-path="url(#clip482)" cx="784.557" cy="585.318" r="14" fill="#009af9" fill-rule="evenodd" fill-opacity="1" stroke="#000000" stroke-opacity="1" stroke-width="3.2"/>
<circle clip-path="url(#clip482)" cx="825.289" cy="651.545" r="14" fill="#009af9" fill-rule="evenodd" fill-opacity="1" stroke="#000000" stroke-opacity="1" stroke-width="3.2"/>
<circle clip-path="url(#clip482)" cx="866.021" cy="718.926" r="14" fill="#009af9" fill-rule="evenodd" fill-opacity="1" stroke="#000000" stroke-opacity="1" stroke-width="3.2"/>
<circle clip-path="url(#clip482)" cx="906.754" cy="786.788" r="14" fill="#009af9" fill-rule="evenodd" fill-opacity="1" stroke="#000000" stroke-opacity="1" stroke-width="3.2"/>
<circle clip-path="url(#clip482)" cx="947.486" cy="854.452" r="14" fill="#009af9" fill-rule="evenodd" fill-opacity="1" stroke="#000000" stroke-opacity="1" stroke-width="3.2"/>
<circle clip-path="url(#clip482)" cx="988.219" cy="921.243" r="14" fill="#009af9" fill-rule="evenodd" fill-opacity="1" stroke="#000000" stroke-opacity="1" stroke-width="3.2"/>
<circle clip-path="url(#clip482)" cx="1028.95" cy="986.493" r="14" fill="#009af9" fill-rule="evenodd" fill-opacity="1" stroke="#000000" stroke-opacity="1" stroke-width="3.2"/>
<circle clip-path="url(#clip482)" cx="1069.68" cy="1049.55" r="14" fill="#009af9" fill-rule="evenodd" fill-opacity="1" stroke="#000000" stroke-opacity="1" stroke-width="3.2"/>
<circle clip-path="url(#clip482)" cx="1110.42" cy="1109.78" r="14" fill="#009af9" fill-rule="evenodd" fill-opacity="1" stroke="#000000" stroke-opacity="1" stroke-width="3.2"/>
<circle clip-path="url(#clip482)" cx="1151.15" cy="1166.59" r="14" fill="#009af9" fill-rule="evenodd" fill-opacity="1" stroke="#000000" stroke-opacity="1" stroke-width="3.2"/>
<circle clip-path="url(#clip482)" cx="1191.88" cy="1219.41" r="14" fill="#009af9" fill-rule="evenodd" fill-opacity="1" stroke="#000000" stroke-opacity="1" stroke-width="3.2"/>
<circle clip-path="url(#clip482)" cx="1232.61" cy="1267.71" r="14" fill="#009af9" fill-rule="evenodd" fill-opacity="1" stroke="#000000" stroke-opacity="1" stroke-width="3.2"/>
<circle clip-path="url(#clip482)" cx="1273.35" cy="1311" r="14" fill="#009af9" fill-rule="evenodd" fill-opacity="1" stroke="#000000" stroke-opacity="1" stroke-width="3.2"/>
<circle clip-path="url(#clip482)" cx="1314.08" cy="1348.86" r="14" fill="#009af9" fill-rule="evenodd" fill-opacity="1" stroke="#000000" stroke-opacity="1" stroke-width="3.2"/>
<circle clip-path="url(#clip482)" cx="1354.81" cy="1380.91" r="14" fill="#009af9" fill-rule="evenodd" fill-opacity="1" stroke="#000000" stroke-opacity="1" stroke-width="3.2"/>
<circle clip-path="url(#clip482)" cx="1395.54" cy="1406.82" r="14" fill="#009af9" fill-rule="evenodd" fill-opacity="1" stroke="#000000" stroke-opacity="1" stroke-width="3.2"/>
<circle clip-path="url(#clip482)" cx="1436.28" cy="1426.34" r="14" fill="#009af9" fill-rule="evenodd" fill-opacity="1" stroke="#000000" stroke-opacity="1" stroke-width="3.2"/>
<circle clip-path="url(#clip482)" cx="1477.01" cy="1439.27" r="14" fill="#009af9" fill-rule="evenodd" fill-opacity="1" stroke="#000000" stroke-opacity="1" stroke-width="3.2"/>
<circle clip-path="url(#clip482)" cx="1517.74" cy="1445.49" r="14" fill="#009af9" fill-rule="evenodd" fill-opacity="1" stroke="#000000" stroke-opacity="1" stroke-width="3.2"/>
<circle clip-path="url(#clip482)" cx="1558.47" cy="1444.92" r="14" fill="#009af9" fill-rule="evenodd" fill-opacity="1" stroke="#000000" stroke-opacity="1" stroke-width="3.2"/>
<circle clip-path="url(#clip482)" cx="1599.21" cy="1437.58" r="14" fill="#009af9" fill-rule="evenodd" fill-opacity="1" stroke="#000000" stroke-opacity="1" stroke-width="3.2"/>
<circle clip-path="url(#clip482)" cx="1639.94" cy="1423.55" r="14" fill="#009af9" fill-rule="evenodd" fill-opacity="1" stroke="#000000" stroke-opacity="1" stroke-width="3.2"/>
<circle clip-path="url(#clip482)" cx="1680.67" cy="1402.95" r="14" fill="#009af9" fill-rule="evenodd" fill-opacity="1" stroke="#000000" stroke-opacity="1" stroke-width="3.2"/>
<circle clip-path="url(#clip482)" cx="1721.4" cy="1376" r="14" fill="#009af9" fill-rule="evenodd" fill-opacity="1" stroke="#000000" stroke-opacity="1" stroke-width="3.2"/>
<circle clip-path="url(#clip482)" cx="1762.14" cy="1342.96" r="14" fill="#009af9" fill-rule="evenodd" fill-opacity="1" stroke="#000000" stroke-opacity="1" stroke-width="3.2"/>
<circle clip-path="url(#clip482)" cx="1802.87" cy="1304.17" r="14" fill="#009af9" fill-rule="evenodd" fill-opacity="1" stroke="#000000" stroke-opacity="1" stroke-width="3.2"/>
<circle clip-path="url(#clip482)" cx="1843.6" cy="1260.02" r="14" fill="#009af9" fill-rule="evenodd" fill-opacity="1" stroke="#000000" stroke-opacity="1" stroke-width="3.2"/>
<circle clip-path="url(#clip482)" cx="1884.33" cy="1210.93" r="14" fill="#009af9" fill-rule="evenodd" fill-opacity="1" stroke="#000000" stroke-opacity="1" stroke-width="3.2"/>
<circle clip-path="url(#clip482)" cx="1925.07" cy="1157.42" r="14" fill="#009af9" fill-rule="evenodd" fill-opacity="1" stroke="#000000" stroke-opacity="1" stroke-width="3.2"/>
<circle clip-path="url(#clip482)" cx="1965.8" cy="1100" r="14" fill="#009af9" fill-rule="evenodd" fill-opacity="1" stroke="#000000" stroke-opacity="1" stroke-width="3.2"/>
<circle clip-path="url(#clip482)" cx="2006.53" cy="1039.25" r="14" fill="#009af9" fill-rule="evenodd" fill-opacity="1" stroke="#000000" stroke-opacity="1" stroke-width="3.2"/>
<circle clip-path="url(#clip482)" cx="2047.26" cy="975.786" r="14" fill="#009af9" fill-rule="evenodd" fill-opacity="1" stroke="#000000" stroke-opacity="1" stroke-width="3.2"/>
<circle clip-path="url(#clip482)" cx="2087.99" cy="910.235" r="14" fill="#009af9" fill-rule="evenodd" fill-opacity="1" stroke="#000000" stroke-opacity="1" stroke-width="3.2"/>
<circle clip-path="url(#clip482)" cx="2128.73" cy="843.252" r="14" fill="#009af9" fill-rule="evenodd" fill-opacity="1" stroke="#000000" stroke-opacity="1" stroke-width="3.2"/>
<circle clip-path="url(#clip482)" cx="2169.46" cy="775.508" r="14" fill="#009af9" fill-rule="evenodd" fill-opacity="1" stroke="#000000" stroke-opacity="1" stroke-width="3.2"/>
<circle clip-path="url(#clip482)" cx="2210.19" cy="707.679" r="14" fill="#009af9" fill-rule="evenodd" fill-opacity="1" stroke="#000000" stroke-opacity="1" stroke-width="3.2"/>
<circle clip-path="url(#clip482)" cx="2250.92" cy="640.444" r="14" fill="#009af9" fill-rule="evenodd" fill-opacity="1" stroke="#000000" stroke-opacity="1" stroke-width="3.2"/>
<circle clip-path="url(#clip482)" cx="2291.66" cy="574.473" r="14" fill="#009af9" fill-rule="evenodd" fill-opacity="1" stroke="#000000" stroke-opacity="1" stroke-width="3.2"/>
<polyline clip-path="url(#clip482)" style="stroke:#e26f46; stroke-linecap:butt; stroke-linejoin:round; stroke-width:4; stroke-opacity:1; fill:none" points="
  255.035,87.9763 260.007,88.0269 264.979,88.1786 269.952,88.4316 274.924,88.7856 320.9,96.8348 366.877,113.414 412.853,138.311 458.829,171.21 514.089,220.742 
  569.348,280.312 616.07,337.705 662.791,400.741 764.296,553.075 857.875,705.457 958.201,872.201 1074.44,1056.8 1126.09,1132.14 1177.74,1201.61 1223.03,1256.83 
  1268.32,1305.99 1317.7,1351.99 1367.08,1389.4 1416.75,1417.82 1466.43,1436.57 1521.35,1445.72 1576.27,1442.54 1628.52,1428.14 1680.78,1402.87 1735.11,1365.52 
  1789.45,1317.53 1835.18,1269.52 1880.92,1215.17 1992.6,1060.3 2097.58,894.505 2265.77,616.146 2291.66,574.407 
  "/>
<path clip-path="url(#clip480)" d="
M1988.5 250.738 L2280.8 250.738 L2280.8 95.2176 L1988.5 95.2176  Z
  " fill="#ffffff" fill-rule="evenodd" fill-opacity="1"/>
<polyline clip-path="url(#clip480)" style="stroke:#000000; stroke-linecap:butt; stroke-linejoin:round; stroke-width:4; stroke-opacity:1; fill:none" points="
  1988.5,250.738 2280.8,250.738 2280.8,95.2176 1988.5,95.2176 1988.5,250.738 
  "/>
<circle clip-path="url(#clip480)" cx="2084.44" cy="147.058" r="23" fill="#009af9" fill-rule="evenodd" fill-opacity="1" stroke="#000000" stroke-opacity="1" stroke-width="5.12"/>
<path clip-path="url(#clip480)" d="M2194.23 166.745 Q2192.43 171.375 2190.72 172.787 Q2189 174.199 2186.13 174.199 L2182.73 174.199 L2182.73 170.634 L2185.23 170.634 Q2186.99 170.634 2187.96 169.8 Q2188.93 168.967 2190.11 165.865 L2190.88 163.921 L2180.39 138.412 L2184.91 138.412 L2193.01 158.689 L2201.11 138.412 L2205.62 138.412 L2194.23 166.745 Z" fill="#000000" fill-rule="evenodd" fill-opacity="1" /><path clip-path="url(#clip480)" d="M2212.91 160.402 L2220.55 160.402 L2220.55 134.037 L2212.24 135.703 L2212.24 131.444 L2220.51 129.778 L2225.18 129.778 L2225.18 160.402 L2232.82 160.402 L2232.82 164.338 L2212.91 164.338 L2212.91 160.402 Z" fill="#000000" fill-rule="evenodd" fill-opacity="1" /><polyline clip-path="url(#clip480)" style="stroke:#e26f46; stroke-linecap:butt; stroke-linejoin:round; stroke-width:4; stroke-opacity:1; fill:none" points="
  2012.48,198.898 2156.4,198.898 
  "/>
<path clip-path="url(#clip480)" d="M2194.23 218.585 Q2192.43 223.215 2190.72 224.627 Q2189 226.039 2186.13 226.039 L2182.73 226.039 L2182.73 222.474 L2185.23 222.474 Q2186.99 222.474 2187.96 221.64 Q2188.93 220.807 2190.11 217.705 L2190.88 215.761 L2180.39 190.252 L2184.91 190.252 L2193.01 210.529 L2201.11 190.252 L2205.62 190.252 L2194.23 218.585 Z" fill="#000000" fill-rule="evenodd" fill-opacity="1" /><path clip-path="url(#clip480)" d="M2216.13 212.242 L2232.45 212.242 L2232.45 216.178 L2210.51 216.178 L2210.51 212.242 Q2213.17 209.488 2217.75 204.858 Q2222.36 200.205 2223.54 198.863 Q2225.78 196.34 2226.66 194.604 Q2227.57 192.844 2227.57 191.155 Q2227.57 188.4 2225.62 186.664 Q2223.7 184.928 2220.6 184.928 Q2218.4 184.928 2215.95 185.692 Q2213.52 186.455 2210.74 188.006 L2210.74 183.284 Q2213.56 182.15 2216.02 181.571 Q2218.47 180.993 2220.51 180.993 Q2225.88 180.993 2229.07 183.678 Q2232.27 186.363 2232.27 190.854 Q2232.27 192.983 2231.46 194.905 Q2230.67 196.803 2228.56 199.395 Q2227.98 200.067 2224.88 203.284 Q2221.78 206.479 2216.13 212.242 Z" fill="#000000" fill-rule="evenodd" fill-opacity="1" /></svg>
