<?xml version="1.0" encoding="utf-8"?>
<svg xmlns="http://www.w3.org/2000/svg" xmlns:xlink="http://www.w3.org/1999/xlink" width="600" height="400" viewBox="0 0 2400 1600">
<defs>
  <clipPath id="clip540">
    <rect x="0" y="0" width="2400" height="1600"/>
  </clipPath>
</defs>
<path clip-path="url(#clip540)" d="
M0 1600 L2400 1600 L2400 0 L0 0  Z
  " fill="#ffffff" fill-rule="evenodd" fill-opacity="1"/>
<defs>
  <clipPath id="clip541">
    <rect x="480" y="0" width="1681" height="1600"/>
  </clipPath>
</defs>
<path clip-path="url(#clip540)" d="
M156.598 1486.45 L2352.76 1486.45 L2352.76 47.2441 L156.598 47.2441  Z
  " fill="#ffffff" fill-rule="evenodd" fill-opacity="1"/>
<defs>
  <clipPath id="clip542">
    <rect x="156" y="47" width="2197" height="1440"/>
  </clipPath>
</defs>
<polyline clip-path="url(#clip542)" style="stroke:#000000; stroke-linecap:butt; stroke-linejoin:round; stroke-width:2; stroke-opacity:0.1; fill:none" points="
  156.598,1486.45 156.598,47.2441 
  "/>
<polyline clip-path="url(#clip542)" style="stroke:#000000; stroke-linecap:butt; stroke-linejoin:round; stroke-width:2; stroke-opacity:0.1; fill:none" points="
  705.638,1486.45 705.638,47.2441 
  "/>
<polyline clip-path="url(#clip542)" style="stroke:#000000; stroke-linecap:butt; stroke-linejoin:round; stroke-width:2; stroke-opacity:0.1; fill:none" points="
  1254.68,1486.45 1254.68,47.2441 
  "/>
<polyline clip-path="url(#clip542)" style="stroke:#000000; stroke-linecap:butt; stroke-linejoin:round; stroke-width:2; stroke-opacity:0.1; fill:none" points="
  1803.72,1486.45 1803.72,47.2441 
  "/>
<polyline clip-path="url(#clip542)" style="stroke:#000000; stroke-linecap:butt; stroke-linejoin:round; stroke-width:2; stroke-opacity:0.1; fill:none" points="
  2352.76,1486.45 2352.76,47.2441 
  "/>
<polyline clip-path="url(#clip540)" style="stroke:#000000; stroke-linecap:butt; stroke-linejoin:round; stroke-width:4; stroke-opacity:1; fill:none" points="
  156.598,1486.45 2352.76,1486.45 
  "/>
<polyline clip-path="url(#clip540)" style="stroke:#000000; stroke-linecap:butt; stroke-linejoin:round; stroke-width:4; stroke-opacity:1; fill:none" points="
  156.598,1486.45 156.598,1467.55 
  "/>
<polyline clip-path="url(#clip540)" style="stroke:#000000; stroke-linecap:butt; stroke-linejoin:round; stroke-width:4; stroke-opacity:1; fill:none" points="
  705.638,1486.45 705.638,1467.55 
  "/>
<polyline clip-path="url(#clip540)" style="stroke:#000000; stroke-linecap:butt; stroke-linejoin:round; stroke-width:4; stroke-opacity:1; fill:none" points="
  1254.68,1486.45 1254.68,1467.55 
  "/>
<polyline clip-path="url(#clip540)" style="stroke:#000000; stroke-linecap:butt; stroke-linejoin:round; stroke-width:4; stroke-opacity:1; fill:none" points="
  1803.72,1486.45 1803.72,1467.55 
  "/>
<polyline clip-path="url(#clip540)" style="stroke:#000000; stroke-linecap:butt; stroke-linejoin:round; stroke-width:4; stroke-opacity:1; fill:none" points="
  2352.76,1486.45 2352.76,1467.55 
  "/>
<path clip-path="url(#clip540)" d="M103.126 1530.29 L132.802 1530.29 L132.802 1534.23 L103.126 1534.23 L103.126 1530.29 Z" fill="#000000" fill-rule="evenodd" fill-opacity="1" /><path clip-path="url(#clip540)" d="M143.705 1543.18 L151.344 1543.18 L151.344 1516.82 L143.033 1518.49 L143.033 1514.23 L151.297 1512.56 L155.973 1512.56 L155.973 1543.18 L163.612 1543.18 L163.612 1547.12 L143.705 1547.12 L143.705 1543.18 Z" fill="#000000" fill-rule="evenodd" fill-opacity="1" /><path clip-path="url(#clip540)" d="M173.056 1541.24 L177.941 1541.24 L177.941 1547.12 L173.056 1547.12 L173.056 1541.24 Z" fill="#000000" fill-rule="evenodd" fill-opacity="1" /><path clip-path="url(#clip540)" d="M198.126 1515.64 Q194.515 1515.64 192.686 1519.2 Q190.88 1522.75 190.88 1529.87 Q190.88 1536.98 192.686 1540.55 Q194.515 1544.09 198.126 1544.09 Q201.76 1544.09 203.566 1540.55 Q205.394 1536.98 205.394 1529.87 Q205.394 1522.75 203.566 1519.2 Q201.76 1515.64 198.126 1515.64 M198.126 1511.93 Q203.936 1511.93 206.991 1516.54 Q210.07 1521.12 210.07 1529.87 Q210.07 1538.6 206.991 1543.21 Q203.936 1547.79 198.126 1547.79 Q192.316 1547.79 189.237 1543.21 Q186.181 1538.6 186.181 1529.87 Q186.181 1521.12 189.237 1516.54 Q192.316 1511.93 198.126 1511.93 Z" fill="#000000" fill-rule="evenodd" fill-opacity="1" /><path clip-path="url(#clip540)" d="M652.663 1530.29 L682.339 1530.29 L682.339 1534.23 L652.663 1534.23 L652.663 1530.29 Z" fill="#000000" fill-rule="evenodd" fill-opacity="1" /><path clip-path="url(#clip540)" d="M702.432 1515.64 Q698.821 1515.64 696.992 1519.2 Q695.186 1522.75 695.186 1529.87 Q695.186 1536.98 696.992 1540.55 Q698.821 1544.09 702.432 1544.09 Q706.066 1544.09 707.871 1540.55 Q709.7 1536.98 709.7 1529.87 Q709.7 1522.75 707.871 1519.2 Q706.066 1515.64 702.432 1515.64 M702.432 1511.93 Q708.242 1511.93 711.297 1516.54 Q714.376 1521.12 714.376 1529.87 Q714.376 1538.6 711.297 1543.21 Q708.242 1547.79 702.432 1547.79 Q696.621 1547.79 693.543 1543.21 Q690.487 1538.6 690.487 1529.87 Q690.487 1521.12 693.543 1516.54 Q696.621 1511.93 702.432 1511.93 Z" fill="#000000" fill-rule="evenodd" fill-opacity="1" /><path clip-path="url(#clip540)" d="M722.594 1541.24 L727.478 1541.24 L727.478 1547.12 L722.594 1547.12 L722.594 1541.24 Z" fill="#000000" fill-rule="evenodd" fill-opacity="1" /><path clip-path="url(#clip540)" d="M737.709 1512.56 L756.066 1512.56 L756.066 1516.5 L741.992 1516.5 L741.992 1524.97 Q743.01 1524.62 744.029 1524.46 Q745.047 1524.27 746.066 1524.27 Q751.853 1524.27 755.232 1527.44 Q758.612 1530.62 758.612 1536.03 Q758.612 1541.61 755.14 1544.71 Q751.667 1547.79 745.348 1547.79 Q743.172 1547.79 740.904 1547.42 Q738.658 1547.05 736.251 1546.31 L736.251 1541.61 Q738.334 1542.74 740.556 1543.3 Q742.779 1543.86 745.255 1543.86 Q749.26 1543.86 751.598 1541.75 Q753.936 1539.64 753.936 1536.03 Q753.936 1532.42 751.598 1530.31 Q749.26 1528.21 745.255 1528.21 Q743.381 1528.21 741.506 1528.62 Q739.654 1529.04 737.709 1529.92 L737.709 1512.56 Z" fill="#000000" fill-rule="evenodd" fill-opacity="1" /><path clip-path="url(#clip540)" d="M1232.06 1515.64 Q1228.45 1515.64 1226.62 1519.2 Q1224.82 1522.75 1224.82 1529.87 Q1224.82 1536.98 1226.62 1540.55 Q1228.45 1544.09 1232.06 1544.09 Q1235.7 1544.09 1237.5 1540.55 Q1239.33 1536.98 1239.33 1529.87 Q1239.33 1522.75 1237.5 1519.2 Q1235.7 1515.64 1232.06 1515.64 M1232.06 1511.93 Q1237.87 1511.93 1240.93 1516.54 Q1244.01 1521.12 1244.01 1529.87 Q1244.01 1538.6 1240.93 1543.21 Q1237.87 1547.79 1232.06 1547.79 Q1226.25 1547.79 1223.17 1543.21 Q1220.12 1538.6 1220.12 1529.87 Q1220.12 1521.12 1223.17 1516.54 Q1226.25 1511.93 1232.06 1511.93 Z" fill="#000000" fill-rule="evenodd" fill-opacity="1" /><path clip-path="url(#clip540)" d="M1252.22 1541.24 L1257.11 1541.24 L1257.11 1547.12 L1252.22 1547.12 L1252.22 1541.24 Z" fill="#000000" fill-rule="evenodd" fill-opacity="1" /><path clip-path="url(#clip540)" d="M1277.29 1515.64 Q1273.68 1515.64 1271.85 1519.2 Q1270.05 1522.75 1270.05 1529.87 Q1270.05 1536.98 1271.85 1540.55 Q1273.68 1544.09 1277.29 1544.09 Q1280.93 1544.09 1282.73 1540.55 Q1284.56 1536.98 1284.56 1529.87 Q1284.56 1522.75 1282.73 1519.2 Q1280.93 1515.64 1277.29 1515.64 M1277.29 1511.93 Q1283.1 1511.93 1286.16 1516.54 Q1289.24 1521.12 1289.24 1529.87 Q1289.24 1538.6 1286.16 1543.21 Q1283.1 1547.79 1277.29 1547.79 Q1271.48 1547.79 1268.4 1543.21 Q1265.35 1538.6 1265.35 1529.87 Q1265.35 1521.12 1268.4 1516.54 Q1271.48 1511.93 1277.29 1511.93 Z" fill="#000000" fill-rule="evenodd" fill-opacity="1" /><path clip-path="url(#clip540)" d="M1781.6 1515.64 Q1777.99 1515.64 1776.16 1519.2 Q1774.35 1522.75 1774.35 1529.87 Q1774.35 1536.98 1776.16 1540.55 Q1777.99 1544.09 1781.6 1544.09 Q1785.23 1544.09 1787.04 1540.55 Q1788.87 1536.98 1788.87 1529.87 Q1788.87 1522.75 1787.04 1519.2 Q1785.23 1515.64 1781.6 1515.64 M1781.6 1511.93 Q1787.41 1511.93 1790.46 1516.54 Q1793.54 1521.12 1793.54 1529.87 Q1793.54 1538.6 1790.46 1543.21 Q1787.41 1547.79 1781.6 1547.79 Q1775.79 1547.79 1772.71 1543.21 Q1769.65 1538.6 1769.65 1529.87 Q1769.65 1521.12 1772.71 1516.54 Q1775.79 1511.93 1781.6 1511.93 Z" fill="#000000" fill-rule="evenodd" fill-opacity="1" /><path clip-path="url(#clip540)" d="M1801.76 1541.24 L1806.64 1541.24 L1806.64 1547.12 L1801.76 1547.12 L1801.76 1541.24 Z" fill="#000000" fill-rule="evenodd" fill-opacity="1" /><path clip-path="url(#clip540)" d="M1816.88 1512.56 L1835.23 1512.56 L1835.23 1516.5 L1821.16 1516.5 L1821.16 1524.97 Q1822.18 1524.62 1823.2 1524.46 Q1824.21 1524.27 1825.23 1524.27 Q1831.02 1524.27 1834.4 1527.44 Q1837.78 1530.62 1837.78 1536.03 Q1837.78 1541.61 1834.31 1544.71 Q1830.83 1547.79 1824.51 1547.79 Q1822.34 1547.79 1820.07 1547.42 Q1817.83 1547.05 1815.42 1546.31 L1815.42 1541.61 Q1817.5 1542.74 1819.72 1543.3 Q1821.95 1543.86 1824.42 1543.86 Q1828.43 1543.86 1830.76 1541.75 Q1833.1 1539.64 1833.1 1536.03 Q1833.1 1532.42 1830.76 1530.31 Q1828.43 1528.21 1824.42 1528.21 Q1822.55 1528.21 1820.67 1528.62 Q1818.82 1529.04 1816.88 1529.92 L1816.88 1512.56 Z" fill="#000000" fill-rule="evenodd" fill-opacity="1" /><path clip-path="url(#clip540)" d="M2319.91 1543.18 L2327.55 1543.18 L2327.55 1516.82 L2319.24 1518.49 L2319.24 1514.23 L2327.5 1512.56 L2332.18 1512.56 L2332.18 1543.18 L2339.82 1543.18 L2339.82 1547.12 L2319.91 1547.12 L2319.91 1543.18 Z" fill="#000000" fill-rule="evenodd" fill-opacity="1" /><path clip-path="url(#clip540)" d="M2349.26 1541.24 L2354.14 1541.24 L2354.14 1547.12 L2349.26 1547.12 L2349.26 1541.24 Z" fill="#000000" fill-rule="evenodd" fill-opacity="1" /><path clip-path="url(#clip540)" d="M2374.33 1515.64 Q2370.72 1515.64 2368.89 1519.2 Q2367.08 1522.75 2367.08 1529.87 Q2367.08 1536.98 2368.89 1540.55 Q2370.72 1544.09 2374.33 1544.09 Q2377.96 1544.09 2379.77 1540.55 Q2381.6 1536.98 2381.6 1529.87 Q2381.6 1522.75 2379.77 1519.2 Q2377.96 1515.64 2374.33 1515.64 M2374.33 1511.93 Q2380.14 1511.93 2383.2 1516.54 Q2386.27 1521.12 2386.27 1529.87 Q2386.27 1538.6 2383.2 1543.21 Q2380.14 1547.79 2374.33 1547.79 Q2368.52 1547.79 2365.44 1543.21 Q2362.39 1538.6 2362.39 1529.87 Q2362.39 1521.12 2365.44 1516.54 Q2368.52 1511.93 2374.33 1511.93 Z" fill="#000000" fill-rule="evenodd" fill-opacity="1" /><polyline clip-path="url(#clip542)" style="stroke:#000000; stroke-linecap:butt; stroke-linejoin:round; stroke-width:2; stroke-opacity:0.1; fill:none" points="
  156.598,1486.45 2352.76,1486.45 
  "/>
<polyline clip-path="url(#clip542)" style="stroke:#000000; stroke-linecap:butt; stroke-linejoin:round; stroke-width:2; stroke-opacity:0.1; fill:none" points="
  156.598,1198.61 2352.76,1198.61 
  "/>
<polyline clip-path="url(#clip542)" style="stroke:#000000; stroke-linecap:butt; stroke-linejoin:round; stroke-width:2; stroke-opacity:0.1; fill:none" points="
  156.598,910.766 2352.76,910.766 
  "/>
<polyline clip-path="url(#clip542)" style="stroke:#000000; stroke-linecap:butt; stroke-linejoin:round; stroke-width:2; stroke-opacity:0.1; fill:none" points="
  156.598,622.926 2352.76,622.926 
  "/>
<polyline clip-path="url(#clip542)" style="stroke:#000000; stroke-linecap:butt; stroke-linejoin:round; stroke-width:2; stroke-opacity:0.1; fill:none" points="
  156.598,335.085 2352.76,335.085 
  "/>
<polyline clip-path="url(#clip542)" style="stroke:#000000; stroke-linecap:butt; stroke-linejoin:round; stroke-width:2; stroke-opacity:0.1; fill:none" points="
  156.598,47.2441 2352.76,47.2441 
  "/>
<polyline clip-path="url(#clip540)" style="stroke:#000000; stroke-linecap:butt; stroke-linejoin:round; stroke-width:4; stroke-opacity:1; fill:none" points="
  156.598,1486.45 156.598,47.2441 
  "/>
<polyline clip-path="url(#clip540)" style="stroke:#000000; stroke-linecap:butt; stroke-linejoin:round; stroke-width:4; stroke-opacity:1; fill:none" points="
  156.598,1486.45 175.496,1486.45 
  "/>
<polyline clip-path="url(#clip540)" style="stroke:#000000; stroke-linecap:butt; stroke-linejoin:round; stroke-width:4; stroke-opacity:1; fill:none" points="
  156.598,1198.61 175.496,1198.61 
  "/>
<polyline clip-path="url(#clip540)" style="stroke:#000000; stroke-linecap:butt; stroke-linejoin:round; stroke-width:4; stroke-opacity:1; fill:none" points="
  156.598,910.766 175.496,910.766 
  "/>
<polyline clip-path="url(#clip540)" style="stroke:#000000; stroke-linecap:butt; stroke-linejoin:round; stroke-width:4; stroke-opacity:1; fill:none" points="
  156.598,622.926 175.496,622.926 
  "/>
<polyline clip-path="url(#clip540)" style="stroke:#000000; stroke-linecap:butt; stroke-linejoin:round; stroke-width:4; stroke-opacity:1; fill:none" points="
  156.598,335.085 175.496,335.085 
  "/>
<polyline clip-path="url(#clip540)" style="stroke:#000000; stroke-linecap:butt; stroke-linejoin:round; stroke-width:4; stroke-opacity:1; fill:none" points="
  156.598,47.2441 175.496,47.2441 
  "/>
<path clip-path="url(#clip540)" d="M63.4226 1472.25 Q59.8115 1472.25 57.9828 1475.81 Q56.1773 1479.35 56.1773 1486.48 Q56.1773 1493.59 57.9828 1497.15 Q59.8115 1500.7 63.4226 1500.7 Q67.0569 1500.7 68.8624 1497.15 Q70.6911 1493.59 70.6911 1486.48 Q70.6911 1479.35 68.8624 1475.81 Q67.0569 1472.25 63.4226 1472.25 M63.4226 1468.54 Q69.2328 1468.54 72.2883 1473.15 Q75.367 1477.73 75.367 1486.48 Q75.367 1495.21 72.2883 1499.82 Q69.2328 1504.4 63.4226 1504.4 Q57.6125 1504.4 54.5338 1499.82 Q51.4782 1495.21 51.4782 1486.48 Q51.4782 1477.73 54.5338 1473.15 Q57.6125 1468.54 63.4226 1468.54 Z" fill="#000000" fill-rule="evenodd" fill-opacity="1" /><path clip-path="url(#clip540)" d="M83.5845 1497.85 L88.4688 1497.85 L88.4688 1503.73 L83.5845 1503.73 L83.5845 1497.85 Z" fill="#000000" fill-rule="evenodd" fill-opacity="1" /><path clip-path="url(#clip540)" d="M108.654 1472.25 Q105.043 1472.25 103.214 1475.81 Q101.409 1479.35 101.409 1486.48 Q101.409 1493.59 103.214 1497.15 Q105.043 1500.7 108.654 1500.7 Q112.288 1500.7 114.094 1497.15 Q115.922 1493.59 115.922 1486.48 Q115.922 1479.35 114.094 1475.81 Q112.288 1472.25 108.654 1472.25 M108.654 1468.54 Q114.464 1468.54 117.52 1473.15 Q120.598 1477.73 120.598 1486.48 Q120.598 1495.21 117.52 1499.82 Q114.464 1504.4 108.654 1504.4 Q102.844 1504.4 99.765 1499.82 Q96.7095 1495.21 96.7095 1486.48 Q96.7095 1477.73 99.765 1473.15 Q102.844 1468.54 108.654 1468.54 Z" fill="#000000" fill-rule="evenodd" fill-opacity="1" /><path clip-path="url(#clip540)" d="M65.0198 1184.41 Q61.4087 1184.41 59.58 1187.97 Q57.7745 1191.51 57.7745 1198.64 Q57.7745 1205.75 59.58 1209.31 Q61.4087 1212.85 65.0198 1212.85 Q68.6541 1212.85 70.4596 1209.31 Q72.2883 1205.75 72.2883 1198.64 Q72.2883 1191.51 70.4596 1187.97 Q68.6541 1184.41 65.0198 1184.41 M65.0198 1180.7 Q70.83 1180.7 73.8855 1185.31 Q76.9642 1189.89 76.9642 1198.64 Q76.9642 1207.37 73.8855 1211.98 Q70.83 1216.56 65.0198 1216.56 Q59.2097 1216.56 56.131 1211.98 Q53.0754 1207.37 53.0754 1198.64 Q53.0754 1189.89 56.131 1185.31 Q59.2097 1180.7 65.0198 1180.7 Z" fill="#000000" fill-rule="evenodd" fill-opacity="1" /><path clip-path="url(#clip540)" d="M85.1818 1210.01 L90.066 1210.01 L90.066 1215.89 L85.1818 1215.89 L85.1818 1210.01 Z" fill="#000000" fill-rule="evenodd" fill-opacity="1" /><path clip-path="url(#clip540)" d="M104.279 1211.95 L120.598 1211.95 L120.598 1215.89 L98.6539 1215.89 L98.6539 1211.95 Q101.316 1209.2 105.899 1204.57 Q110.506 1199.91 111.686 1198.57 Q113.932 1196.05 114.811 1194.31 Q115.714 1192.55 115.714 1190.86 Q115.714 1188.11 113.77 1186.37 Q111.848 1184.64 108.746 1184.64 Q106.547 1184.64 104.094 1185.4 Q101.663 1186.17 98.8854 1187.72 L98.8854 1182.99 Q101.709 1181.86 104.163 1181.28 Q106.617 1180.7 108.654 1180.7 Q114.024 1180.7 117.219 1183.39 Q120.413 1186.07 120.413 1190.56 Q120.413 1192.69 119.603 1194.61 Q118.816 1196.51 116.709 1199.1 Q116.131 1199.78 113.029 1202.99 Q109.927 1206.19 104.279 1211.95 Z" fill="#000000" fill-rule="evenodd" fill-opacity="1" /><path clip-path="url(#clip540)" d="M62.9365 896.565 Q59.3254 896.565 57.4967 900.13 Q55.6912 903.671 55.6912 910.801 Q55.6912 917.908 57.4967 921.472 Q59.3254 925.014 62.9365 925.014 Q66.5707 925.014 68.3763 921.472 Q70.205 917.908 70.205 910.801 Q70.205 903.671 68.3763 900.13 Q66.5707 896.565 62.9365 896.565 M62.9365 892.861 Q68.7467 892.861 71.8022 897.468 Q74.8809 902.051 74.8809 910.801 Q74.8809 919.528 71.8022 924.134 Q68.7467 928.718 62.9365 928.718 Q57.1264 928.718 54.0477 924.134 Q50.9921 919.528 50.9921 910.801 Q50.9921 902.051 54.0477 897.468 Q57.1264 892.861 62.9365 892.861 Z" fill="#000000" fill-rule="evenodd" fill-opacity="1" /><path clip-path="url(#clip540)" d="M83.0984 922.167 L87.9827 922.167 L87.9827 928.046 L83.0984 928.046 L83.0984 922.167 Z" fill="#000000" fill-rule="evenodd" fill-opacity="1" /><path clip-path="url(#clip540)" d="M111.015 897.56 L99.2095 916.009 L111.015 916.009 L111.015 897.56 M109.788 893.486 L115.668 893.486 L115.668 916.009 L120.598 916.009 L120.598 919.898 L115.668 919.898 L115.668 928.046 L111.015 928.046 L111.015 919.898 L95.4132 919.898 L95.4132 915.384 L109.788 893.486 Z" fill="#000000" fill-rule="evenodd" fill-opacity="1" /><path clip-path="url(#clip540)" d="M63.2606 608.724 Q59.6495 608.724 57.8208 612.289 Q56.0152 615.831 56.0152 622.96 Q56.0152 630.067 57.8208 633.632 Q59.6495 637.173 63.2606 637.173 Q66.8948 637.173 68.7004 633.632 Q70.5291 630.067 70.5291 622.96 Q70.5291 615.831 68.7004 612.289 Q66.8948 608.724 63.2606 608.724 M63.2606 605.021 Q69.0707 605.021 72.1263 609.627 Q75.205 614.21 75.205 622.96 Q75.205 631.687 72.1263 636.294 Q69.0707 640.877 63.2606 640.877 Q57.4504 640.877 54.3717 636.294 Q51.3162 631.687 51.3162 622.96 Q51.3162 614.21 54.3717 609.627 Q57.4504 605.021 63.2606 605.021 Z" fill="#000000" fill-rule="evenodd" fill-opacity="1" /><path clip-path="url(#clip540)" d="M83.4225 634.326 L88.3067 634.326 L88.3067 640.206 L83.4225 640.206 L83.4225 634.326 Z" fill="#000000" fill-rule="evenodd" fill-opacity="1" /><path clip-path="url(#clip540)" d="M109.071 621.062 Q105.922 621.062 104.071 623.215 Q102.242 625.368 102.242 629.118 Q102.242 632.845 104.071 635.02 Q105.922 637.173 109.071 637.173 Q112.219 637.173 114.047 635.02 Q115.899 632.845 115.899 629.118 Q115.899 625.368 114.047 623.215 Q112.219 621.062 109.071 621.062 M118.353 606.409 L118.353 610.669 Q116.594 609.835 114.788 609.396 Q113.006 608.956 111.246 608.956 Q106.617 608.956 104.163 612.081 Q101.733 615.206 101.385 621.525 Q102.751 619.511 104.811 618.446 Q106.871 617.359 109.348 617.359 Q114.557 617.359 117.566 620.53 Q120.598 623.678 120.598 629.118 Q120.598 634.442 117.45 637.659 Q114.302 640.877 109.071 640.877 Q103.075 640.877 99.9039 636.294 Q96.7326 631.687 96.7326 622.96 Q96.7326 614.766 100.621 609.905 Q104.51 605.021 111.061 605.021 Q112.82 605.021 114.603 605.368 Q116.408 605.715 118.353 606.409 Z" fill="#000000" fill-rule="evenodd" fill-opacity="1" /><path clip-path="url(#clip540)" d="M63.5152 320.884 Q59.9041 320.884 58.0754 324.448 Q56.2699 327.99 56.2699 335.12 Q56.2699 342.226 58.0754 345.791 Q59.9041 349.332 63.5152 349.332 Q67.1494 349.332 68.955 345.791 Q70.7837 342.226 70.7837 335.12 Q70.7837 327.99 68.955 324.448 Q67.1494 320.884 63.5152 320.884 M63.5152 317.18 Q69.3254 317.18 72.3809 321.786 Q75.4596 326.37 75.4596 335.12 Q75.4596 343.846 72.3809 348.453 Q69.3254 353.036 63.5152 353.036 Q57.7051 353.036 54.6264 348.453 Q51.5708 343.846 51.5708 335.12 Q51.5708 326.37 54.6264 321.786 Q57.7051 317.18 63.5152 317.18 Z" fill="#000000" fill-rule="evenodd" fill-opacity="1" /><path clip-path="url(#clip540)" d="M83.6771 346.485 L88.5614 346.485 L88.5614 352.365 L83.6771 352.365 L83.6771 346.485 Z" fill="#000000" fill-rule="evenodd" fill-opacity="1" /><path clip-path="url(#clip540)" d="M108.746 335.953 Q105.413 335.953 103.492 337.735 Q101.594 339.518 101.594 342.643 Q101.594 345.768 103.492 347.55 Q105.413 349.332 108.746 349.332 Q112.08 349.332 114.001 347.55 Q115.922 345.745 115.922 342.643 Q115.922 339.518 114.001 337.735 Q112.103 335.953 108.746 335.953 M104.071 333.962 Q101.061 333.221 99.3715 331.161 Q97.7048 329.101 97.7048 326.138 Q97.7048 321.995 100.645 319.587 Q103.608 317.18 108.746 317.18 Q113.908 317.18 116.848 319.587 Q119.788 321.995 119.788 326.138 Q119.788 329.101 118.098 331.161 Q116.432 333.221 113.445 333.962 Q116.825 334.749 118.7 337.041 Q120.598 339.333 120.598 342.643 Q120.598 347.666 117.52 350.351 Q114.464 353.036 108.746 353.036 Q103.029 353.036 99.9502 350.351 Q96.8947 347.666 96.8947 342.643 Q96.8947 339.333 98.7928 337.041 Q100.691 334.749 104.071 333.962 M102.358 326.578 Q102.358 329.263 104.024 330.768 Q105.714 332.272 108.746 332.272 Q111.756 332.272 113.445 330.768 Q115.158 329.263 115.158 326.578 Q115.158 323.893 113.445 322.388 Q111.756 320.884 108.746 320.884 Q105.714 320.884 104.024 322.388 Q102.358 323.893 102.358 326.578 Z" fill="#000000" fill-rule="evenodd" fill-opacity="1" /><path clip-path="url(#clip540)" d="M54.2328 60.5889 L61.8717 60.5889 L61.8717 34.2233 L53.5616 35.89 L53.5616 31.6308 L61.8254 29.9641 L66.5013 29.9641 L66.5013 60.5889 L74.1402 60.5889 L74.1402 64.5241 L54.2328 64.5241 L54.2328 60.5889 Z" fill="#000000" fill-rule="evenodd" fill-opacity="1" /><path clip-path="url(#clip540)" d="M83.5845 58.6445 L88.4688 58.6445 L88.4688 64.5241 L83.5845 64.5241 L83.5845 58.6445 Z" fill="#000000" fill-rule="evenodd" fill-opacity="1" /><path clip-path="url(#clip540)" d="M108.654 33.0428 Q105.043 33.0428 103.214 36.6076 Q101.409 40.1492 101.409 47.2788 Q101.409 54.3853 103.214 57.9501 Q105.043 61.4917 108.654 61.4917 Q112.288 61.4917 114.094 57.9501 Q115.922 54.3853 115.922 47.2788 Q115.922 40.1492 114.094 36.6076 Q112.288 33.0428 108.654 33.0428 M108.654 29.3391 Q114.464 29.3391 117.52 33.9456 Q120.598 38.5289 120.598 47.2788 Q120.598 56.0056 117.52 60.6121 Q114.464 65.1954 108.654 65.1954 Q102.844 65.1954 99.765 60.6121 Q96.7095 56.0056 96.7095 47.2788 Q96.7095 38.5289 99.765 33.9456 Q102.844 29.3391 108.654 29.3391 Z" fill="#000000" fill-rule="evenodd" fill-opacity="1" /><polyline clip-path="url(#clip542)" style="stroke:#009af9; stroke-linecap:butt; stroke-linejoin:round; stroke-width:4; stroke-opacity:1; fill:none" points="
  156.598,1342.53 178.046,1342.53 376.357,1342.53 495.533,1342.53 596.296,1342.53 705.752,1342.53 806.661,1342.53 914.846,1342.53 1040.19,1342.53 1095.88,1342.53 
  1151.58,1342.53 1176,1342.53 1200.42,1342.53 1212.63,1342.53 1224.84,1342.53 1230.94,1342.53 1237.05,1342.53 1240.1,1342.53 1243.15,1342.53 1246.21,1342.53 
  1249.26,1342.53 1250.92,1342.53 1252.59,1342.53 1253.42,1342.53 1254.25,1342.53 1255.08,47.2441 1255.91,47.2441 1256.75,47.2441 1257.58,47.2441 1258.41,47.2441 
  1259.24,47.2441 1260.91,47.2441 1262.57,47.2441 1269.23,47.2441 1275.88,47.2441 1289.19,47.2441 1302.51,47.2441 1329.13,47.2441 1355.75,47.2441 1409.32,47.2441 
  1462.88,47.2441 1581.33,47.2441 1694.03,47.2441 1811.21,47.2441 1909.85,47.2441 2030.27,47.2441 2143.48,47.2441 2324.84,47.2441 2352.76,47.2441 
  "/>
<polyline clip-path="url(#clip542)" style="stroke:#e26f46; stroke-linecap:butt; stroke-linejoin:round; stroke-width:4; stroke-opacity:1; fill:none" points="
  156.598,1342.53 167.322,1342.45 178.046,1342.22 277.201,1332.91 376.357,1310.79 435.945,1291.5 495.533,1267.89 545.914,1244.66 596.296,1218.59 705.752,1152.76 
  806.661,1082.11 914.846,997.467 1040.19,890.495 1151.58,790.055 1249.26,699.907 1355.75,601.569 1462.88,504.833 1581.33,403.153 1694.03,314.124 1811.21,232.054 
  1909.85,172.943 1970.06,141.892 2030.27,114.942 2086.88,93.5253 2143.48,76.0493 2234.16,56.5414 2324.84,47.7602 2338.8,47.3731 2352.76,47.2441 
  "/>
<path clip-path="url(#clip540)" d="
M2013.17 250.738 L2279.55 250.738 L2279.55 95.2176 L2013.17 95.2176  Z
  " fill="#ffffff" fill-rule="evenodd" fill-opacity="1"/>
<polyline clip-path="url(#clip540)" style="stroke:#000000; stroke-linecap:butt; stroke-linejoin:round; stroke-width:4; stroke-opacity:1; fill:none" points="
  2013.17,250.738 2279.55,250.738 2279.55,95.2176 2013.17,95.2176 2013.17,250.738 
  "/>
<polyline clip-path="url(#clip540)" style="stroke:#009af9; stroke-linecap:butt; stroke-linejoin:round; stroke-width:4; stroke-opacity:1; fill:none" points="
  2037.57,147.058 2183.98,147.058 
  "/>
<path clip-path="url(#clip540)" d="M2208.39 138.412 L2212.78 138.412 L2212.78 149.176 L2223.96 138.412 L2229.15 138.412 L2218.94 148.18 L2230.75 164.338 L2225.54 164.338 L2215.96 150.958 L2212.78 153.944 L2212.78 164.338 L2208.39 164.338 L2208.39 138.412 Z" fill="#000000" fill-rule="evenodd" fill-opacity="1" /><polyline clip-path="url(#clip540)" style="stroke:#e26f46; stroke-linecap:butt; stroke-linejoin:round; stroke-width:4; stroke-opacity:1; fill:none" points="
  2037.57,198.898 2183.98,198.898 
  "/>
<path clip-path="url(#clip540)" d="M2208.39 190.252 L2212.78 190.252 L2212.78 201.016 L2223.96 190.252 L2229.15 190.252 L2218.94 200.02 L2230.75 216.178 L2225.54 216.178 L2215.96 202.798 L2212.78 205.784 L2212.78 216.178 L2208.39 216.178 L2208.39 190.252 Z" fill="#000000" fill-rule="evenodd" fill-opacity="1" /></svg>
