<?xml version="1.0" encoding="utf-8"?>
<svg xmlns="http://www.w3.org/2000/svg" xmlns:xlink="http://www.w3.org/1999/xlink" width="600" height="400" viewBox="0 0 2400 1600">
<defs>
  <clipPath id="clip660">
    <rect x="0" y="0" width="2400" height="1600"/>
  </clipPath>
</defs>
<path clip-path="url(#clip660)" d="
M0 1600 L2400 1600 L2400 0 L0 0  Z
  " fill="#ffffff" fill-rule="evenodd" fill-opacity="1"/>
<defs>
  <clipPath id="clip661">
    <rect x="480" y="0" width="1681" height="1600"/>
  </clipPath>
</defs>
<path clip-path="url(#clip660)" d="
M112.177 1486.45 L2352.76 1486.45 L2352.76 47.2441 L112.177 47.2441  Z
  " fill="#ffffff" fill-rule="evenodd" fill-opacity="1"/>
<defs>
  <clipPath id="clip662">
    <rect x="112" y="47" width="2242" height="1440"/>
  </clipPath>
</defs>
<polyline clip-path="url(#clip662)" style="stroke:#000000; stroke-linecap:butt; stroke-linejoin:round; stroke-width:2; stroke-opacity:0.1; fill:none" points="
  175.59,1486.45 175.59,47.2441 
  "/>
<polyline clip-path="url(#clip662)" style="stroke:#000000; stroke-linecap:butt; stroke-linejoin:round; stroke-width:2; stroke-opacity:0.1; fill:none" points="
  704.028,1486.45 704.028,47.2441 
  "/>
<polyline clip-path="url(#clip662)" style="stroke:#000000; stroke-linecap:butt; stroke-linejoin:round; stroke-width:2; stroke-opacity:0.1; fill:none" points="
  1232.47,1486.45 1232.47,47.2441 
  "/>
<polyline clip-path="url(#clip662)" style="stroke:#000000; stroke-linecap:butt; stroke-linejoin:round; stroke-width:2; stroke-opacity:0.1; fill:none" points="
  1760.9,1486.45 1760.9,47.2441 
  "/>
<polyline clip-path="url(#clip662)" style="stroke:#000000; stroke-linecap:butt; stroke-linejoin:round; stroke-width:2; stroke-opacity:0.1; fill:none" points="
  2289.34,1486.45 2289.34,47.2441 
  "/>
<polyline clip-path="url(#clip660)" style="stroke:#000000; stroke-linecap:butt; stroke-linejoin:round; stroke-width:4; stroke-opacity:1; fill:none" points="
  112.177,1486.45 2352.76,1486.45 
  "/>
<polyline clip-path="url(#clip660)" style="stroke:#000000; stroke-linecap:butt; stroke-linejoin:round; stroke-width:4; stroke-opacity:1; fill:none" points="
  175.59,1486.45 175.59,1467.55 
  "/>
<polyline clip-path="url(#clip660)" style="stroke:#000000; stroke-linecap:butt; stroke-linejoin:round; stroke-width:4; stroke-opacity:1; fill:none" points="
  704.028,1486.45 704.028,1467.55 
  "/>
<polyline clip-path="url(#clip660)" style="stroke:#000000; stroke-linecap:butt; stroke-linejoin:round; stroke-width:4; stroke-opacity:1; fill:none" points="
  1232.47,1486.45 1232.47,1467.55 
  "/>
<polyline clip-path="url(#clip660)" style="stroke:#000000; stroke-linecap:butt; stroke-linejoin:round; stroke-width:4; stroke-opacity:1; fill:none" points="
  1760.9,1486.45 1760.9,1467.55 
  "/>
<polyline clip-path="url(#clip660)" style="stroke:#000000; stroke-linecap:butt; stroke-linejoin:round; stroke-width:4; stroke-opacity:1; fill:none" points="
  2289.34,1486.45 2289.34,1467.55 
  "/>
<path clip-path="url(#clip660)" d="M122.118 1530.29 L151.794 1530.29 L151.794 1534.23 L122.118 1534.23 L122.118 1530.29 Z" fill="#000000" fill-rule="evenodd" fill-opacity="1" /><path clip-path="url(#clip660)" d="M162.696 1543.18 L170.335 1543.18 L170.335 1516.82 L162.025 1518.49 L162.025 1514.23 L170.289 1512.56 L174.965 1512.56 L174.965 1543.18 L182.604 1543.18 L182.604 1547.12 L162.696 1547.12 L162.696 1543.18 Z" fill="#000000" fill-rule="evenodd" fill-opacity="1" /><path clip-path="url(#clip660)" d="M192.048 1541.24 L196.932 1541.24 L196.932 1547.12 L192.048 1547.12 L192.048 1541.24 Z" fill="#000000" fill-rule="evenodd" fill-opacity="1" /><path clip-path="url(#clip660)" d="M217.117 1515.64 Q213.506 1515.64 211.678 1519.2 Q209.872 1522.75 209.872 1529.87 Q209.872 1536.98 211.678 1540.55 Q213.506 1544.09 217.117 1544.09 Q220.752 1544.09 222.557 1540.55 Q224.386 1536.98 224.386 1529.87 Q224.386 1522.75 222.557 1519.2 Q220.752 1515.64 217.117 1515.64 M217.117 1511.93 Q222.927 1511.93 225.983 1516.54 Q229.062 1521.12 229.062 1529.87 Q229.062 1538.6 225.983 1543.21 Q222.927 1547.79 217.117 1547.79 Q211.307 1547.79 208.228 1543.21 Q205.173 1538.6 205.173 1529.87 Q205.173 1521.12 208.228 1516.54 Q211.307 1511.93 217.117 1511.93 Z" fill="#000000" fill-rule="evenodd" fill-opacity="1" /><path clip-path="url(#clip660)" d="M651.054 1530.29 L680.73 1530.29 L680.73 1534.23 L651.054 1534.23 L651.054 1530.29 Z" fill="#000000" fill-rule="evenodd" fill-opacity="1" /><path clip-path="url(#clip660)" d="M700.822 1515.64 Q697.211 1515.64 695.382 1519.2 Q693.577 1522.75 693.577 1529.87 Q693.577 1536.98 695.382 1540.55 Q697.211 1544.09 700.822 1544.09 Q704.456 1544.09 706.262 1540.55 Q708.091 1536.98 708.091 1529.87 Q708.091 1522.75 706.262 1519.2 Q704.456 1515.64 700.822 1515.64 M700.822 1511.93 Q706.632 1511.93 709.688 1516.54 Q712.767 1521.12 712.767 1529.87 Q712.767 1538.6 709.688 1543.21 Q706.632 1547.79 700.822 1547.79 Q695.012 1547.79 691.933 1543.21 Q688.878 1538.6 688.878 1529.87 Q688.878 1521.12 691.933 1516.54 Q695.012 1511.93 700.822 1511.93 Z" fill="#000000" fill-rule="evenodd" fill-opacity="1" /><path clip-path="url(#clip660)" d="M720.984 1541.24 L725.868 1541.24 L725.868 1547.12 L720.984 1547.12 L720.984 1541.24 Z" fill="#000000" fill-rule="evenodd" fill-opacity="1" /><path clip-path="url(#clip660)" d="M736.1 1512.56 L754.456 1512.56 L754.456 1516.5 L740.382 1516.5 L740.382 1524.97 Q741.401 1524.62 742.419 1524.46 Q743.438 1524.27 744.456 1524.27 Q750.243 1524.27 753.623 1527.44 Q757.002 1530.62 757.002 1536.03 Q757.002 1541.61 753.53 1544.71 Q750.058 1547.79 743.739 1547.79 Q741.563 1547.79 739.294 1547.42 Q737.049 1547.05 734.641 1546.31 L734.641 1541.61 Q736.725 1542.74 738.947 1543.3 Q741.169 1543.86 743.646 1543.86 Q747.651 1543.86 749.989 1541.75 Q752.327 1539.64 752.327 1536.03 Q752.327 1532.42 749.989 1530.31 Q747.651 1528.21 743.646 1528.21 Q741.771 1528.21 739.896 1528.62 Q738.044 1529.04 736.1 1529.92 L736.1 1512.56 Z" fill="#000000" fill-rule="evenodd" fill-opacity="1" /><path clip-path="url(#clip660)" d="M1209.85 1515.64 Q1206.24 1515.64 1204.41 1519.2 Q1202.61 1522.75 1202.61 1529.87 Q1202.61 1536.98 1204.41 1540.55 Q1206.24 1544.09 1209.85 1544.09 Q1213.49 1544.09 1215.29 1540.55 Q1217.12 1536.98 1217.12 1529.87 Q1217.12 1522.75 1215.29 1519.2 Q1213.49 1515.64 1209.85 1515.64 M1209.85 1511.93 Q1215.66 1511.93 1218.72 1516.54 Q1221.8 1521.12 1221.8 1529.87 Q1221.8 1538.6 1218.72 1543.21 Q1215.66 1547.79 1209.85 1547.79 Q1204.04 1547.79 1200.96 1543.21 Q1197.91 1538.6 1197.91 1529.87 Q1197.91 1521.12 1200.96 1516.54 Q1204.04 1511.93 1209.85 1511.93 Z" fill="#000000" fill-rule="evenodd" fill-opacity="1" /><path clip-path="url(#clip660)" d="M1230.01 1541.24 L1234.9 1541.24 L1234.9 1547.12 L1230.01 1547.12 L1230.01 1541.24 Z" fill="#000000" fill-rule="evenodd" fill-opacity="1" /><path clip-path="url(#clip660)" d="M1255.08 1515.64 Q1251.47 1515.64 1249.64 1519.2 Q1247.84 1522.75 1247.84 1529.87 Q1247.84 1536.98 1249.64 1540.55 Q1251.47 1544.09 1255.08 1544.09 Q1258.72 1544.09 1260.52 1540.55 Q1262.35 1536.98 1262.35 1529.87 Q1262.35 1522.75 1260.52 1519.2 Q1258.72 1515.64 1255.08 1515.64 M1255.08 1511.93 Q1260.89 1511.93 1263.95 1516.54 Q1267.03 1521.12 1267.03 1529.87 Q1267.03 1538.6 1263.95 1543.21 Q1260.89 1547.79 1255.08 1547.79 Q1249.27 1547.79 1246.19 1543.21 Q1243.14 1538.6 1243.14 1529.87 Q1243.14 1521.12 1246.19 1516.54 Q1249.27 1511.93 1255.08 1511.93 Z" fill="#000000" fill-rule="evenodd" fill-opacity="1" /><path clip-path="url(#clip660)" d="M1738.79 1515.64 Q1735.18 1515.64 1733.35 1519.2 Q1731.54 1522.75 1731.54 1529.87 Q1731.54 1536.98 1733.35 1540.55 Q1735.18 1544.09 1738.79 1544.09 Q1742.42 1544.09 1744.23 1540.55 Q1746.06 1536.98 1746.06 1529.87 Q1746.06 1522.75 1744.23 1519.2 Q1742.42 1515.64 1738.79 1515.64 M1738.79 1511.93 Q1744.6 1511.93 1747.65 1516.54 Q1750.73 1521.12 1750.73 1529.87 Q1750.73 1538.6 1747.65 1543.21 Q1744.6 1547.79 1738.79 1547.79 Q1732.98 1547.79 1729.9 1543.21 Q1726.84 1538.6 1726.84 1529.87 Q1726.84 1521.12 1729.9 1516.54 Q1732.98 1511.93 1738.79 1511.93 Z" fill="#000000" fill-rule="evenodd" fill-opacity="1" /><path clip-path="url(#clip660)" d="M1758.95 1541.24 L1763.83 1541.24 L1763.83 1547.12 L1758.95 1547.12 L1758.95 1541.24 Z" fill="#000000" fill-rule="evenodd" fill-opacity="1" /><path clip-path="url(#clip660)" d="M1774.06 1512.56 L1792.42 1512.56 L1792.42 1516.5 L1778.35 1516.5 L1778.35 1524.97 Q1779.37 1524.62 1780.38 1524.46 Q1781.4 1524.27 1782.42 1524.27 Q1788.21 1524.27 1791.59 1527.44 Q1794.97 1530.62 1794.97 1536.03 Q1794.97 1541.61 1791.5 1544.71 Q1788.02 1547.79 1781.7 1547.79 Q1779.53 1547.79 1777.26 1547.42 Q1775.01 1547.05 1772.61 1546.31 L1772.61 1541.61 Q1774.69 1542.74 1776.91 1543.3 Q1779.13 1543.86 1781.61 1543.86 Q1785.62 1543.86 1787.95 1541.75 Q1790.29 1539.64 1790.29 1536.03 Q1790.29 1532.42 1787.95 1530.31 Q1785.62 1528.21 1781.61 1528.21 Q1779.74 1528.21 1777.86 1528.62 Q1776.01 1529.04 1774.06 1529.92 L1774.06 1512.56 Z" fill="#000000" fill-rule="evenodd" fill-opacity="1" /><path clip-path="url(#clip660)" d="M2256.5 1543.18 L2264.14 1543.18 L2264.14 1516.82 L2255.82 1518.49 L2255.82 1514.23 L2264.09 1512.56 L2268.76 1512.56 L2268.76 1543.18 L2276.4 1543.18 L2276.4 1547.12 L2256.5 1547.12 L2256.5 1543.18 Z" fill="#000000" fill-rule="evenodd" fill-opacity="1" /><path clip-path="url(#clip660)" d="M2285.85 1541.24 L2290.73 1541.24 L2290.73 1547.12 L2285.85 1547.12 L2285.85 1541.24 Z" fill="#000000" fill-rule="evenodd" fill-opacity="1" /><path clip-path="url(#clip660)" d="M2310.92 1515.64 Q2307.31 1515.64 2305.48 1519.2 Q2303.67 1522.75 2303.67 1529.87 Q2303.67 1536.98 2305.48 1540.55 Q2307.31 1544.09 2310.92 1544.09 Q2314.55 1544.09 2316.36 1540.55 Q2318.19 1536.98 2318.19 1529.87 Q2318.19 1522.75 2316.36 1519.2 Q2314.55 1515.64 2310.92 1515.64 M2310.92 1511.93 Q2316.73 1511.93 2319.78 1516.54 Q2322.86 1521.12 2322.86 1529.87 Q2322.86 1538.6 2319.78 1543.21 Q2316.73 1547.79 2310.92 1547.79 Q2305.11 1547.79 2302.03 1543.21 Q2298.97 1538.6 2298.97 1529.87 Q2298.97 1521.12 2302.03 1516.54 Q2305.11 1511.93 2310.92 1511.93 Z" fill="#000000" fill-rule="evenodd" fill-opacity="1" /><polyline clip-path="url(#clip662)" style="stroke:#000000; stroke-linecap:butt; stroke-linejoin:round; stroke-width:2; stroke-opacity:0.1; fill:none" points="
  112.177,1445.72 2352.76,1445.72 
  "/>
<polyline clip-path="url(#clip662)" style="stroke:#000000; stroke-linecap:butt; stroke-linejoin:round; stroke-width:2; stroke-opacity:0.1; fill:none" points="
  112.177,1231.32 2352.76,1231.32 
  "/>
<polyline clip-path="url(#clip662)" style="stroke:#000000; stroke-linecap:butt; stroke-linejoin:round; stroke-width:2; stroke-opacity:0.1; fill:none" points="
  112.177,1016.93 2352.76,1016.93 
  "/>
<polyline clip-path="url(#clip662)" style="stroke:#000000; stroke-linecap:butt; stroke-linejoin:round; stroke-width:2; stroke-opacity:0.1; fill:none" points="
  112.177,802.53 2352.76,802.53 
  "/>
<polyline clip-path="url(#clip662)" style="stroke:#000000; stroke-linecap:butt; stroke-linejoin:round; stroke-width:2; stroke-opacity:0.1; fill:none" points="
  112.177,588.135 2352.76,588.135 
  "/>
<polyline clip-path="url(#clip662)" style="stroke:#000000; stroke-linecap:butt; stroke-linejoin:round; stroke-width:2; stroke-opacity:0.1; fill:none" points="
  112.177,373.74 2352.76,373.74 
  "/>
<polyline clip-path="url(#clip662)" style="stroke:#000000; stroke-linecap:butt; stroke-linejoin:round; stroke-width:2; stroke-opacity:0.1; fill:none" points="
  112.177,159.345 2352.76,159.345 
  "/>
<polyline clip-path="url(#clip660)" style="stroke:#000000; stroke-linecap:butt; stroke-linejoin:round; stroke-width:4; stroke-opacity:1; fill:none" points="
  112.177,1486.45 112.177,47.2441 
  "/>
<polyline clip-path="url(#clip660)" style="stroke:#000000; stroke-linecap:butt; stroke-linejoin:round; stroke-width:4; stroke-opacity:1; fill:none" points="
  112.177,1445.72 131.075,1445.72 
  "/>
<polyline clip-path="url(#clip660)" style="stroke:#000000; stroke-linecap:butt; stroke-linejoin:round; stroke-width:4; stroke-opacity:1; fill:none" points="
  112.177,1231.32 131.075,1231.32 
  "/>
<polyline clip-path="url(#clip660)" style="stroke:#000000; stroke-linecap:butt; stroke-linejoin:round; stroke-width:4; stroke-opacity:1; fill:none" points="
  112.177,1016.93 131.075,1016.93 
  "/>
<polyline clip-path="url(#clip660)" style="stroke:#000000; stroke-linecap:butt; stroke-linejoin:round; stroke-width:4; stroke-opacity:1; fill:none" points="
  112.177,802.53 131.075,802.53 
  "/>
<polyline clip-path="url(#clip660)" style="stroke:#000000; stroke-linecap:butt; stroke-linejoin:round; stroke-width:4; stroke-opacity:1; fill:none" points="
  112.177,588.135 131.075,588.135 
  "/>
<polyline clip-path="url(#clip660)" style="stroke:#000000; stroke-linecap:butt; stroke-linejoin:round; stroke-width:4; stroke-opacity:1; fill:none" points="
  112.177,373.74 131.075,373.74 
  "/>
<polyline clip-path="url(#clip660)" style="stroke:#000000; stroke-linecap:butt; stroke-linejoin:round; stroke-width:4; stroke-opacity:1; fill:none" points="
  112.177,159.345 131.075,159.345 
  "/>
<path clip-path="url(#clip660)" d="M64.2328 1431.51 Q60.6217 1431.51 58.793 1435.08 Q56.9875 1438.62 56.9875 1445.75 Q56.9875 1452.86 58.793 1456.42 Q60.6217 1459.96 64.2328 1459.96 Q67.867 1459.96 69.6726 1456.42 Q71.5013 1452.86 71.5013 1445.75 Q71.5013 1438.62 69.6726 1435.08 Q67.867 1431.51 64.2328 1431.51 M64.2328 1427.81 Q70.0429 1427.81 73.0985 1432.42 Q76.1772 1437 76.1772 1445.75 Q76.1772 1454.48 73.0985 1459.08 Q70.0429 1463.67 64.2328 1463.67 Q58.4226 1463.67 55.344 1459.08 Q52.2884 1454.48 52.2884 1445.75 Q52.2884 1437 55.344 1432.42 Q58.4226 1427.81 64.2328 1427.81 Z" fill="#000000" fill-rule="evenodd" fill-opacity="1" /><path clip-path="url(#clip660)" d="M56.2699 1244.67 L63.9087 1244.67 L63.9087 1218.3 L55.5986 1219.97 L55.5986 1215.71 L63.8624 1214.04 L68.5383 1214.04 L68.5383 1244.67 L76.1772 1244.67 L76.1772 1248.6 L56.2699 1248.6 L56.2699 1244.67 Z" fill="#000000" fill-rule="evenodd" fill-opacity="1" /><path clip-path="url(#clip660)" d="M59.8578 1030.27 L76.1772 1030.27 L76.1772 1034.21 L54.2328 1034.21 L54.2328 1030.27 Q56.8949 1027.52 61.4782 1022.89 Q66.0846 1018.23 67.2652 1016.89 Q69.5105 1014.37 70.3902 1012.63 Q71.2929 1010.87 71.2929 1009.18 Q71.2929 1006.43 69.3485 1004.69 Q67.4272 1002.96 64.3254 1002.96 Q62.1263 1002.96 59.6726 1003.72 Q57.2421 1004.48 54.4643 1006.03 L54.4643 1001.31 Q57.2884 1000.18 59.7421 999.599 Q62.1958 999.02 64.2328 999.02 Q69.6031 999.02 72.7976 1001.71 Q75.992 1004.39 75.992 1008.88 Q75.992 1011.01 75.1818 1012.93 Q74.3948 1014.83 72.2883 1017.42 Q71.7096 1018.09 68.6078 1021.31 Q65.5059 1024.51 59.8578 1030.27 Z" fill="#000000" fill-rule="evenodd" fill-opacity="1" /><path clip-path="url(#clip660)" d="M69.0476 801.176 Q72.404 801.894 74.279 804.162 Q76.1772 806.431 76.1772 809.764 Q76.1772 814.88 72.6587 817.681 Q69.1402 820.482 62.6587 820.482 Q60.4828 820.482 58.168 820.042 Q55.8764 819.625 53.4227 818.769 L53.4227 814.255 Q55.3671 815.389 57.6819 815.968 Q59.9967 816.546 62.5198 816.546 Q66.918 816.546 69.2096 814.81 Q71.5244 813.074 71.5244 809.764 Q71.5244 806.709 69.3717 804.996 Q67.242 803.259 63.4226 803.259 L59.3949 803.259 L59.3949 799.417 L63.6078 799.417 Q67.0569 799.417 68.8855 798.051 Q70.7142 796.662 70.7142 794.07 Q70.7142 791.408 68.8161 789.996 Q66.9411 788.56 63.4226 788.56 Q61.5013 788.56 59.3023 788.977 Q57.1032 789.394 54.4643 790.273 L54.4643 786.107 Q57.1264 785.366 59.4412 784.996 Q61.7791 784.625 63.8393 784.625 Q69.1633 784.625 72.2652 787.056 Q75.367 789.463 75.367 793.584 Q75.367 796.454 73.7235 798.445 Q72.08 800.412 69.0476 801.176 Z" fill="#000000" fill-rule="evenodd" fill-opacity="1" /><path clip-path="url(#clip660)" d="M66.5939 574.929 L54.7884 593.378 L66.5939 593.378 L66.5939 574.929 M65.367 570.855 L71.2466 570.855 L71.2466 593.378 L76.1772 593.378 L76.1772 597.267 L71.2466 597.267 L71.2466 605.415 L66.5939 605.415 L66.5939 597.267 L50.9921 597.267 L50.9921 592.753 L65.367 570.855 Z" fill="#000000" fill-rule="evenodd" fill-opacity="1" /><path clip-path="url(#clip660)" d="M55.2745 356.46 L73.6309 356.46 L73.6309 360.395 L59.5569 360.395 L59.5569 368.867 Q60.5754 368.52 61.5939 368.358 Q62.6124 368.173 63.6309 368.173 Q69.418 368.173 72.7976 371.344 Q76.1772 374.516 76.1772 379.932 Q76.1772 385.511 72.705 388.613 Q69.2328 391.691 62.9134 391.691 Q60.7374 391.691 58.4689 391.321 Q56.2236 390.951 53.8162 390.21 L53.8162 385.511 Q55.8995 386.645 58.1217 387.201 Q60.3439 387.756 62.8208 387.756 Q66.8254 387.756 69.1633 385.65 Q71.5013 383.543 71.5013 379.932 Q71.5013 376.321 69.1633 374.215 Q66.8254 372.108 62.8208 372.108 Q60.9458 372.108 59.0708 372.525 Q57.2189 372.941 55.2745 373.821 L55.2745 356.46 Z" fill="#000000" fill-rule="evenodd" fill-opacity="1" /><path clip-path="url(#clip660)" d="M64.6495 157.482 Q61.5013 157.482 59.6495 159.634 Q57.8208 161.787 57.8208 165.537 Q57.8208 169.264 59.6495 171.44 Q61.5013 173.593 64.6495 173.593 Q67.7976 173.593 69.6263 171.44 Q71.4781 169.264 71.4781 165.537 Q71.4781 161.787 69.6263 159.634 Q67.7976 157.482 64.6495 157.482 M73.9318 142.829 L73.9318 147.088 Q72.1726 146.255 70.367 145.815 Q68.5846 145.375 66.8254 145.375 Q62.1958 145.375 59.7421 148.5 Q57.3115 151.625 56.9643 157.944 Q58.33 155.931 60.3902 154.866 Q62.4504 153.778 64.9272 153.778 Q70.1355 153.778 73.1448 156.949 Q76.1772 160.097 76.1772 165.537 Q76.1772 170.861 73.029 174.079 Q69.8809 177.296 64.6495 177.296 Q58.6541 177.296 55.4828 172.713 Q52.3116 168.106 52.3116 159.38 Q52.3116 151.185 56.2004 146.324 Q60.0893 141.44 66.6402 141.44 Q68.3994 141.44 70.1818 141.787 Q71.9874 142.134 73.9318 142.829 Z" fill="#000000" fill-rule="evenodd" fill-opacity="1" /><polyline clip-path="url(#clip662)" style="stroke:#009af9; stroke-linecap:butt; stroke-linejoin:round; stroke-width:4; stroke-opacity:1; fill:none" points="
  175.59,1445.72 248.478,1298.46 321.366,1158.57 394.254,1031.32 467.142,919.12 540.03,822.02 612.918,738.685 685.806,667.232 758.694,605.74 831.582,552.473 
  904.47,505.961 977.358,464.991 1050.25,428.581 1123.13,395.94 1196.02,366.425 1268.91,339.517 1341.8,314.793 1414.69,291.905 1487.57,270.563 1560.46,250.526 
  1633.35,231.59 1706.24,213.581 1779.13,196.348 1852.01,179.761 1924.9,163.703 1997.79,148.07 2070.68,132.767 2143.57,117.705 2216.46,102.801 2289.34,87.9763 
  
  "/>
<polyline clip-path="url(#clip662)" style="stroke:#e26f46; stroke-linecap:butt; stroke-linejoin:round; stroke-width:4; stroke-opacity:1; fill:none" points="
  175.59,1338.52 185.911,1338.46 196.232,1338.29 291.667,1331.36 387.102,1314.88 444.455,1300.51 501.807,1282.92 550.298,1265.62 598.789,1246.2 704.138,1197.17 
  801.261,1144.55 905.386,1081.5 1026.03,1001.83 1133.24,927.015 1227.25,859.869 1329.75,786.623 1432.86,714.57 1546.86,638.835 1655.33,572.522 1768.11,511.394 
  1863.05,467.366 1921.01,444.238 1978.96,424.164 2033.44,408.212 2087.92,395.195 2175.2,380.665 2262.48,374.125 2275.91,373.836 2289.34,373.74 
  "/>
<path clip-path="url(#clip660)" d="
M1976.69 250.738 L2278.07 250.738 L2278.07 95.2176 L1976.69 95.2176  Z
  " fill="#ffffff" fill-rule="evenodd" fill-opacity="1"/>
<polyline clip-path="url(#clip660)" style="stroke:#000000; stroke-linecap:butt; stroke-linejoin:round; stroke-width:4; stroke-opacity:1; fill:none" points="
  1976.69,250.738 2278.07,250.738 2278.07,95.2176 1976.69,95.2176 1976.69,250.738 
  "/>
<polyline clip-path="url(#clip660)" style="stroke:#009af9; stroke-linecap:butt; stroke-linejoin:round; stroke-width:4; stroke-opacity:1; fill:none" points="
  2001.58,147.058 2150.95,147.058 
  "/>
<path clip-path="url(#clip660)" d="M2189.69 166.745 Q2187.89 171.375 2186.17 172.787 Q2184.46 174.199 2181.59 174.199 L2178.19 174.199 L2178.19 170.634 L2180.69 170.634 Q2182.45 170.634 2183.42 169.8 Q2184.39 168.967 2185.57 165.865 L2186.34 163.921 L2175.85 138.412 L2180.36 138.412 L2188.46 158.689 L2196.57 138.412 L2201.08 138.412 L2189.69 166.745 Z" fill="#000000" fill-rule="evenodd" fill-opacity="1" /><path clip-path="url(#clip660)" d="M2208.37 160.402 L2216.01 160.402 L2216.01 134.037 L2207.7 135.703 L2207.7 131.444 L2215.96 129.778 L2220.64 129.778 L2220.64 160.402 L2228.28 160.402 L2228.28 164.338 L2208.37 164.338 L2208.37 160.402 Z" fill="#000000" fill-rule="evenodd" fill-opacity="1" /><polyline clip-path="url(#clip660)" style="stroke:#e26f46; stroke-linecap:butt; stroke-linejoin:round; stroke-width:4; stroke-opacity:1; fill:none" points="
  2001.58,198.898 2150.95,198.898 
  "/>
<path clip-path="url(#clip660)" d="M2189.69 218.585 Q2187.89 223.215 2186.17 224.627 Q2184.46 226.039 2181.59 226.039 L2178.19 226.039 L2178.19 222.474 L2180.69 222.474 Q2182.45 222.474 2183.42 221.64 Q2184.39 220.807 2185.57 217.705 L2186.34 215.761 L2175.85 190.252 L2180.36 190.252 L2188.46 210.529 L2196.57 190.252 L2201.08 190.252 L2189.69 218.585 Z" fill="#000000" fill-rule="evenodd" fill-opacity="1" /><path clip-path="url(#clip660)" d="M2211.59 212.242 L2227.91 212.242 L2227.91 216.178 L2205.96 216.178 L2205.96 212.242 Q2208.63 209.488 2213.21 204.858 Q2217.82 200.205 2219 198.863 Q2221.24 196.34 2222.12 194.604 Q2223.02 192.844 2223.02 191.155 Q2223.02 188.4 2221.08 186.664 Q2219.16 184.928 2216.06 184.928 Q2213.86 184.928 2211.4 185.692 Q2208.97 186.455 2206.2 188.006 L2206.2 183.284 Q2209.02 182.15 2211.47 181.571 Q2213.93 180.993 2215.96 180.993 Q2221.33 180.993 2224.53 183.678 Q2227.72 186.363 2227.72 190.854 Q2227.72 192.983 2226.91 194.905 Q2226.13 196.803 2224.02 199.395 Q2223.44 200.067 2220.34 203.284 Q2217.24 206.479 2211.59 212.242 Z" fill="#000000" fill-rule="evenodd" fill-opacity="1" /></svg>
