<?xml version="1.0" encoding="utf-8"?>
<svg xmlns="http://www.w3.org/2000/svg" xmlns:xlink="http://www.w3.org/1999/xlink" width="600" height="400" viewBox="0 0 2400 1600">
<defs>
  <clipPath id="clip390">
    <rect x="0" y="0" width="2400" height="1600"/>
  </clipPath>
</defs>
<path clip-path="url(#clip390)" d="
M0 1600 L2400 1600 L2400 0 L0 0  Z
  " fill="#ffffff" fill-rule="evenodd" fill-opacity="1"/>
<defs>
  <clipPath id="clip391">
    <rect x="480" y="0" width="1681" height="1600"/>
  </clipPath>
</defs>
<path clip-path="url(#clip390)" d="
M186.274 1486.45 L2352.76 1486.45 L2352.76 47.2441 L186.274 47.2441  Z
  " fill="#ffffff" fill-rule="evenodd" fill-opacity="1"/>
<defs>
  <clipPath id="clip392">
    <rect x="186" y="47" width="2167" height="1440"/>
  </clipPath>
</defs>
<polyline clip-path="url(#clip392)" style="stroke:#000000; stroke-linecap:butt; stroke-linejoin:round; stroke-width:2; stroke-opacity:0.1; fill:none" points="
  247.59,1486.45 247.59,47.2441 
  "/>
<polyline clip-path="url(#clip392)" style="stroke:#000000; stroke-linecap:butt; stroke-linejoin:round; stroke-width:2; stroke-opacity:0.1; fill:none" points="
  758.552,1486.45 758.552,47.2441 
  "/>
<polyline clip-path="url(#clip392)" style="stroke:#000000; stroke-linecap:butt; stroke-linejoin:round; stroke-width:2; stroke-opacity:0.1; fill:none" points="
  1269.51,1486.45 1269.51,47.2441 
  "/>
<polyline clip-path="url(#clip392)" style="stroke:#000000; stroke-linecap:butt; stroke-linejoin:round; stroke-width:2; stroke-opacity:0.1; fill:none" points="
  1780.48,1486.45 1780.48,47.2441 
  "/>
<polyline clip-path="url(#clip392)" style="stroke:#000000; stroke-linecap:butt; stroke-linejoin:round; stroke-width:2; stroke-opacity:0.1; fill:none" points="
  2291.44,1486.45 2291.44,47.2441 
  "/>
<polyline clip-path="url(#clip390)" style="stroke:#000000; stroke-linecap:butt; stroke-linejoin:round; stroke-width:4; stroke-opacity:1; fill:none" points="
  186.274,1486.45 2352.76,1486.45 
  "/>
<polyline clip-path="url(#clip390)" style="stroke:#000000; stroke-linecap:butt; stroke-linejoin:round; stroke-width:4; stroke-opacity:1; fill:none" points="
  247.59,1486.45 247.59,1467.55 
  "/>
<polyline clip-path="url(#clip390)" style="stroke:#000000; stroke-linecap:butt; stroke-linejoin:round; stroke-width:4; stroke-opacity:1; fill:none" points="
  758.552,1486.45 758.552,1467.55 
  "/>
<polyline clip-path="url(#clip390)" style="stroke:#000000; stroke-linecap:butt; stroke-linejoin:round; stroke-width:4; stroke-opacity:1; fill:none" points="
  1269.51,1486.45 1269.51,1467.55 
  "/>
<polyline clip-path="url(#clip390)" style="stroke:#000000; stroke-linecap:butt; stroke-linejoin:round; stroke-width:4; stroke-opacity:1; fill:none" points="
  1780.48,1486.45 1780.48,1467.55 
  "/>
<polyline clip-path="url(#clip390)" style="stroke:#000000; stroke-linecap:butt; stroke-linejoin:round; stroke-width:4; stroke-opacity:1; fill:none" points="
  2291.44,1486.45 2291.44,1467.55 
  "/>
<path clip-path="url(#clip390)" d="M194.118 1530.29 L223.793 1530.29 L223.793 1534.23 L194.118 1534.23 L194.118 1530.29 Z" fill="#000000" fill-rule="evenodd" fill-opacity="1" /><path clip-path="url(#clip390)" d="M234.696 1543.18 L242.335 1543.18 L242.335 1516.82 L234.025 1518.49 L234.025 1514.23 L242.289 1512.56 L246.965 1512.56 L246.965 1543.18 L254.603 1543.18 L254.603 1547.12 L234.696 1547.12 L234.696 1543.18 Z" fill="#000000" fill-rule="evenodd" fill-opacity="1" /><path clip-path="url(#clip390)" d="M264.048 1541.24 L268.932 1541.24 L268.932 1547.12 L264.048 1547.12 L264.048 1541.24 Z" fill="#000000" fill-rule="evenodd" fill-opacity="1" /><path clip-path="url(#clip390)" d="M289.117 1515.64 Q285.506 1515.64 283.677 1519.2 Q281.872 1522.75 281.872 1529.87 Q281.872 1536.98 283.677 1540.55 Q285.506 1544.09 289.117 1544.09 Q292.751 1544.09 294.557 1540.55 Q296.386 1536.98 296.386 1529.87 Q296.386 1522.75 294.557 1519.2 Q292.751 1515.64 289.117 1515.64 M289.117 1511.93 Q294.927 1511.93 297.983 1516.54 Q301.061 1521.12 301.061 1529.87 Q301.061 1538.6 297.983 1543.21 Q294.927 1547.79 289.117 1547.79 Q283.307 1547.79 280.228 1543.21 Q277.173 1538.6 277.173 1529.87 Q277.173 1521.12 280.228 1516.54 Q283.307 1511.93 289.117 1511.93 Z" fill="#000000" fill-rule="evenodd" fill-opacity="1" /><path clip-path="url(#clip390)" d="M705.578 1530.29 L735.254 1530.29 L735.254 1534.23 L705.578 1534.23 L705.578 1530.29 Z" fill="#000000" fill-rule="evenodd" fill-opacity="1" /><path clip-path="url(#clip390)" d="M755.346 1515.64 Q751.735 1515.64 749.906 1519.2 Q748.101 1522.75 748.101 1529.87 Q748.101 1536.98 749.906 1540.55 Q751.735 1544.09 755.346 1544.09 Q758.98 1544.09 760.786 1540.55 Q762.615 1536.98 762.615 1529.87 Q762.615 1522.75 760.786 1519.2 Q758.98 1515.64 755.346 1515.64 M755.346 1511.93 Q761.156 1511.93 764.212 1516.54 Q767.291 1521.12 767.291 1529.87 Q767.291 1538.6 764.212 1543.21 Q761.156 1547.79 755.346 1547.79 Q749.536 1547.79 746.457 1543.21 Q743.402 1538.6 743.402 1529.87 Q743.402 1521.12 746.457 1516.54 Q749.536 1511.93 755.346 1511.93 Z" fill="#000000" fill-rule="evenodd" fill-opacity="1" /><path clip-path="url(#clip390)" d="M775.508 1541.24 L780.392 1541.24 L780.392 1547.12 L775.508 1547.12 L775.508 1541.24 Z" fill="#000000" fill-rule="evenodd" fill-opacity="1" /><path clip-path="url(#clip390)" d="M790.624 1512.56 L808.98 1512.56 L808.98 1516.5 L794.906 1516.5 L794.906 1524.97 Q795.925 1524.62 796.943 1524.46 Q797.962 1524.27 798.98 1524.27 Q804.767 1524.27 808.147 1527.44 Q811.526 1530.62 811.526 1536.03 Q811.526 1541.61 808.054 1544.71 Q804.582 1547.79 798.263 1547.79 Q796.087 1547.79 793.818 1547.42 Q791.573 1547.05 789.166 1546.31 L789.166 1541.61 Q791.249 1542.74 793.471 1543.3 Q795.693 1543.86 798.17 1543.86 Q802.175 1543.86 804.513 1541.75 Q806.851 1539.64 806.851 1536.03 Q806.851 1532.42 804.513 1530.31 Q802.175 1528.21 798.17 1528.21 Q796.295 1528.21 794.42 1528.62 Q792.568 1529.04 790.624 1529.92 L790.624 1512.56 Z" fill="#000000" fill-rule="evenodd" fill-opacity="1" /><path clip-path="url(#clip390)" d="M1246.9 1515.64 Q1243.29 1515.64 1241.46 1519.2 Q1239.65 1522.75 1239.65 1529.87 Q1239.65 1536.98 1241.46 1540.55 Q1243.29 1544.09 1246.9 1544.09 Q1250.53 1544.09 1252.34 1540.55 Q1254.17 1536.98 1254.17 1529.87 Q1254.17 1522.75 1252.34 1519.2 Q1250.53 1515.64 1246.9 1515.64 M1246.9 1511.93 Q1252.71 1511.93 1255.77 1516.54 Q1258.84 1521.12 1258.84 1529.87 Q1258.84 1538.6 1255.77 1543.21 Q1252.71 1547.79 1246.9 1547.79 Q1241.09 1547.79 1238.01 1543.21 Q1234.95 1538.6 1234.95 1529.87 Q1234.95 1521.12 1238.01 1516.54 Q1241.09 1511.93 1246.9 1511.93 Z" fill="#000000" fill-rule="evenodd" fill-opacity="1" /><path clip-path="url(#clip390)" d="M1267.06 1541.24 L1271.95 1541.24 L1271.95 1547.12 L1267.06 1547.12 L1267.06 1541.24 Z" fill="#000000" fill-rule="evenodd" fill-opacity="1" /><path clip-path="url(#clip390)" d="M1292.13 1515.64 Q1288.52 1515.64 1286.69 1519.2 Q1284.89 1522.75 1284.89 1529.87 Q1284.89 1536.98 1286.69 1540.55 Q1288.52 1544.09 1292.13 1544.09 Q1295.76 1544.09 1297.57 1540.55 Q1299.4 1536.98 1299.4 1529.87 Q1299.4 1522.75 1297.57 1519.2 Q1295.76 1515.64 1292.13 1515.64 M1292.13 1511.93 Q1297.94 1511.93 1301 1516.54 Q1304.07 1521.12 1304.07 1529.87 Q1304.07 1538.6 1301 1543.21 Q1297.94 1547.79 1292.13 1547.79 Q1286.32 1547.79 1283.24 1543.21 Q1280.19 1538.6 1280.19 1529.87 Q1280.19 1521.12 1283.24 1516.54 Q1286.32 1511.93 1292.13 1511.93 Z" fill="#000000" fill-rule="evenodd" fill-opacity="1" /><path clip-path="url(#clip390)" d="M1758.36 1515.64 Q1754.75 1515.64 1752.92 1519.2 Q1751.11 1522.75 1751.11 1529.87 Q1751.11 1536.98 1752.92 1540.55 Q1754.75 1544.09 1758.36 1544.09 Q1761.99 1544.09 1763.8 1540.55 Q1765.63 1536.98 1765.63 1529.87 Q1765.63 1522.75 1763.8 1519.2 Q1761.99 1515.64 1758.36 1515.64 M1758.36 1511.93 Q1764.17 1511.93 1767.23 1516.54 Q1770.3 1521.12 1770.3 1529.87 Q1770.3 1538.6 1767.23 1543.21 Q1764.17 1547.79 1758.36 1547.79 Q1752.55 1547.79 1749.47 1543.21 Q1746.42 1538.6 1746.42 1529.87 Q1746.42 1521.12 1749.47 1516.54 Q1752.55 1511.93 1758.36 1511.93 Z" fill="#000000" fill-rule="evenodd" fill-opacity="1" /><path clip-path="url(#clip390)" d="M1778.52 1541.24 L1783.41 1541.24 L1783.41 1547.12 L1778.52 1547.12 L1778.52 1541.24 Z" fill="#000000" fill-rule="evenodd" fill-opacity="1" /><path clip-path="url(#clip390)" d="M1793.64 1512.56 L1811.99 1512.56 L1811.99 1516.5 L1797.92 1516.5 L1797.92 1524.97 Q1798.94 1524.62 1799.96 1524.46 Q1800.98 1524.27 1801.99 1524.27 Q1807.78 1524.27 1811.16 1527.44 Q1814.54 1530.62 1814.54 1536.03 Q1814.54 1541.61 1811.07 1544.71 Q1807.6 1547.79 1801.28 1547.79 Q1799.1 1547.79 1796.83 1547.42 Q1794.59 1547.05 1792.18 1546.31 L1792.18 1541.61 Q1794.26 1542.74 1796.48 1543.3 Q1798.71 1543.86 1801.18 1543.86 Q1805.19 1543.86 1807.53 1541.75 Q1809.86 1539.64 1809.86 1536.03 Q1809.86 1532.42 1807.53 1530.31 Q1805.19 1528.21 1801.18 1528.21 Q1799.31 1528.21 1797.43 1528.62 Q1795.58 1529.04 1793.64 1529.92 L1793.64 1512.56 Z" fill="#000000" fill-rule="evenodd" fill-opacity="1" /><path clip-path="url(#clip390)" d="M2258.59 1543.18 L2266.23 1543.18 L2266.23 1516.82 L2257.92 1518.49 L2257.92 1514.23 L2266.19 1512.56 L2270.86 1512.56 L2270.86 1543.18 L2278.5 1543.18 L2278.5 1547.12 L2258.59 1547.12 L2258.59 1543.18 Z" fill="#000000" fill-rule="evenodd" fill-opacity="1" /><path clip-path="url(#clip390)" d="M2287.95 1541.24 L2292.83 1541.24 L2292.83 1547.12 L2287.95 1547.12 L2287.95 1541.24 Z" fill="#000000" fill-rule="evenodd" fill-opacity="1" /><path clip-path="url(#clip390)" d="M2313.01 1515.64 Q2309.4 1515.64 2307.57 1519.2 Q2305.77 1522.75 2305.77 1529.87 Q2305.77 1536.98 2307.57 1540.55 Q2309.4 1544.09 2313.01 1544.09 Q2316.65 1544.09 2318.45 1540.55 Q2320.28 1536.98 2320.28 1529.87 Q2320.28 1522.75 2318.45 1519.2 Q2316.65 1515.64 2313.01 1515.64 M2313.01 1511.93 Q2318.82 1511.93 2321.88 1516.54 Q2324.96 1521.12 2324.96 1529.87 Q2324.96 1538.6 2321.88 1543.21 Q2318.82 1547.79 2313.01 1547.79 Q2307.2 1547.79 2304.13 1543.21 Q2301.07 1538.6 2301.07 1529.87 Q2301.07 1521.12 2304.13 1516.54 Q2307.2 1511.93 2313.01 1511.93 Z" fill="#000000" fill-rule="evenodd" fill-opacity="1" /><polyline clip-path="url(#clip392)" style="stroke:#000000; stroke-linecap:butt; stroke-linejoin:round; stroke-width:2; stroke-opacity:0.1; fill:none" points="
  186.274,1445.72 2352.76,1445.72 
  "/>
<polyline clip-path="url(#clip392)" style="stroke:#000000; stroke-linecap:butt; stroke-linejoin:round; stroke-width:2; stroke-opacity:0.1; fill:none" points="
  186.274,1106.28 2352.76,1106.28 
  "/>
<polyline clip-path="url(#clip392)" style="stroke:#000000; stroke-linecap:butt; stroke-linejoin:round; stroke-width:2; stroke-opacity:0.1; fill:none" points="
  186.274,766.846 2352.76,766.846 
  "/>
<polyline clip-path="url(#clip392)" style="stroke:#000000; stroke-linecap:butt; stroke-linejoin:round; stroke-width:2; stroke-opacity:0.1; fill:none" points="
  186.274,427.411 2352.76,427.411 
  "/>
<polyline clip-path="url(#clip392)" style="stroke:#000000; stroke-linecap:butt; stroke-linejoin:round; stroke-width:2; stroke-opacity:0.1; fill:none" points="
  186.274,87.9764 2352.76,87.9764 
  "/>
<polyline clip-path="url(#clip390)" style="stroke:#000000; stroke-linecap:butt; stroke-linejoin:round; stroke-width:4; stroke-opacity:1; fill:none" points="
  186.274,1486.45 186.274,47.2441 
  "/>
<polyline clip-path="url(#clip390)" style="stroke:#000000; stroke-linecap:butt; stroke-linejoin:round; stroke-width:4; stroke-opacity:1; fill:none" points="
  186.274,1445.72 205.172,1445.72 
  "/>
<polyline clip-path="url(#clip390)" style="stroke:#000000; stroke-linecap:butt; stroke-linejoin:round; stroke-width:4; stroke-opacity:1; fill:none" points="
  186.274,1106.28 205.172,1106.28 
  "/>
<polyline clip-path="url(#clip390)" style="stroke:#000000; stroke-linecap:butt; stroke-linejoin:round; stroke-width:4; stroke-opacity:1; fill:none" points="
  186.274,766.846 205.172,766.846 
  "/>
<polyline clip-path="url(#clip390)" style="stroke:#000000; stroke-linecap:butt; stroke-linejoin:round; stroke-width:4; stroke-opacity:1; fill:none" points="
  186.274,427.411 205.172,427.411 
  "/>
<polyline clip-path="url(#clip390)" style="stroke:#000000; stroke-linecap:butt; stroke-linejoin:round; stroke-width:4; stroke-opacity:1; fill:none" points="
  186.274,87.9764 205.172,87.9764 
  "/>
<path clip-path="url(#clip390)" d="M62.9365 1431.51 Q59.3254 1431.51 57.4967 1435.08 Q55.6912 1438.62 55.6912 1445.75 Q55.6912 1452.86 57.4967 1456.42 Q59.3254 1459.96 62.9365 1459.96 Q66.5707 1459.96 68.3763 1456.42 Q70.205 1452.86 70.205 1445.75 Q70.205 1438.62 68.3763 1435.08 Q66.5707 1431.51 62.9365 1431.51 M62.9365 1427.81 Q68.7467 1427.81 71.8022 1432.42 Q74.8809 1437 74.8809 1445.75 Q74.8809 1454.48 71.8022 1459.08 Q68.7467 1463.67 62.9365 1463.67 Q57.1264 1463.67 54.0477 1459.08 Q50.9921 1454.48 50.9921 1445.75 Q50.9921 1437 54.0477 1432.42 Q57.1264 1427.81 62.9365 1427.81 Z" fill="#000000" fill-rule="evenodd" fill-opacity="1" /><path clip-path="url(#clip390)" d="M83.0984 1457.12 L87.9827 1457.12 L87.9827 1463 L83.0984 1463 L83.0984 1457.12 Z" fill="#000000" fill-rule="evenodd" fill-opacity="1" /><path clip-path="url(#clip390)" d="M108.168 1431.51 Q104.557 1431.51 102.728 1435.08 Q100.922 1438.62 100.922 1445.75 Q100.922 1452.86 102.728 1456.42 Q104.557 1459.96 108.168 1459.96 Q111.802 1459.96 113.608 1456.42 Q115.436 1452.86 115.436 1445.75 Q115.436 1438.62 113.608 1435.08 Q111.802 1431.51 108.168 1431.51 M108.168 1427.81 Q113.978 1427.81 117.033 1432.42 Q120.112 1437 120.112 1445.75 Q120.112 1454.48 117.033 1459.08 Q113.978 1463.67 108.168 1463.67 Q102.358 1463.67 99.2789 1459.08 Q96.2234 1454.48 96.2234 1445.75 Q96.2234 1437 99.2789 1432.42 Q102.358 1427.81 108.168 1427.81 Z" fill="#000000" fill-rule="evenodd" fill-opacity="1" /><path clip-path="url(#clip390)" d="M138.33 1431.51 Q134.719 1431.51 132.89 1435.08 Q131.084 1438.62 131.084 1445.75 Q131.084 1452.86 132.89 1456.42 Q134.719 1459.96 138.33 1459.96 Q141.964 1459.96 143.769 1456.42 Q145.598 1452.86 145.598 1445.75 Q145.598 1438.62 143.769 1435.08 Q141.964 1431.51 138.33 1431.51 M138.33 1427.81 Q144.14 1427.81 147.195 1432.42 Q150.274 1437 150.274 1445.75 Q150.274 1454.48 147.195 1459.08 Q144.14 1463.67 138.33 1463.67 Q132.519 1463.67 129.441 1459.08 Q126.385 1454.48 126.385 1445.75 Q126.385 1437 129.441 1432.42 Q132.519 1427.81 138.33 1427.81 Z" fill="#000000" fill-rule="evenodd" fill-opacity="1" /><path clip-path="url(#clip390)" d="M63.9319 1092.08 Q60.3208 1092.08 58.4921 1095.64 Q56.6865 1099.19 56.6865 1106.32 Q56.6865 1113.42 58.4921 1116.99 Q60.3208 1120.53 63.9319 1120.53 Q67.5661 1120.53 69.3717 1116.99 Q71.2004 1113.42 71.2004 1106.32 Q71.2004 1099.19 69.3717 1095.64 Q67.5661 1092.08 63.9319 1092.08 M63.9319 1088.38 Q69.742 1088.38 72.7976 1092.98 Q75.8763 1097.57 75.8763 1106.32 Q75.8763 1115.04 72.7976 1119.65 Q69.742 1124.23 63.9319 1124.23 Q58.1217 1124.23 55.043 1119.65 Q51.9875 1115.04 51.9875 1106.32 Q51.9875 1097.57 55.043 1092.98 Q58.1217 1088.38 63.9319 1088.38 Z" fill="#000000" fill-rule="evenodd" fill-opacity="1" /><path clip-path="url(#clip390)" d="M84.0938 1117.68 L88.978 1117.68 L88.978 1123.56 L84.0938 1123.56 L84.0938 1117.68 Z" fill="#000000" fill-rule="evenodd" fill-opacity="1" /><path clip-path="url(#clip390)" d="M103.191 1119.63 L119.51 1119.63 L119.51 1123.56 L97.566 1123.56 L97.566 1119.63 Q100.228 1116.87 104.811 1112.24 Q109.418 1107.59 110.598 1106.25 Q112.844 1103.72 113.723 1101.99 Q114.626 1100.23 114.626 1098.54 Q114.626 1095.78 112.682 1094.05 Q110.76 1092.31 107.658 1092.31 Q105.459 1092.31 103.006 1093.07 Q100.575 1093.84 97.7974 1095.39 L97.7974 1090.67 Q100.621 1089.53 103.075 1088.95 Q105.529 1088.38 107.566 1088.38 Q112.936 1088.38 116.131 1091.06 Q119.325 1093.75 119.325 1098.24 Q119.325 1100.37 118.515 1102.29 Q117.728 1104.19 115.621 1106.78 Q115.043 1107.45 111.941 1110.67 Q108.839 1113.86 103.191 1119.63 Z" fill="#000000" fill-rule="evenodd" fill-opacity="1" /><path clip-path="url(#clip390)" d="M129.371 1089 L147.728 1089 L147.728 1092.94 L133.654 1092.94 L133.654 1101.41 Q134.672 1101.06 135.691 1100.9 Q136.709 1100.71 137.728 1100.71 Q143.515 1100.71 146.894 1103.89 Q150.274 1107.06 150.274 1112.47 Q150.274 1118.05 146.802 1121.15 Q143.33 1124.23 137.01 1124.23 Q134.834 1124.23 132.566 1123.86 Q130.32 1123.49 127.913 1122.75 L127.913 1118.05 Q129.996 1119.19 132.219 1119.74 Q134.441 1120.3 136.918 1120.3 Q140.922 1120.3 143.26 1118.19 Q145.598 1116.08 145.598 1112.47 Q145.598 1108.86 143.26 1106.76 Q140.922 1104.65 136.918 1104.65 Q135.043 1104.65 133.168 1105.07 Q131.316 1105.48 129.371 1106.36 L129.371 1089 Z" fill="#000000" fill-rule="evenodd" fill-opacity="1" /><path clip-path="url(#clip390)" d="M62.9365 752.645 Q59.3254 752.645 57.4967 756.21 Q55.6912 759.751 55.6912 766.881 Q55.6912 773.987 57.4967 777.552 Q59.3254 781.094 62.9365 781.094 Q66.5707 781.094 68.3763 777.552 Q70.205 773.987 70.205 766.881 Q70.205 759.751 68.3763 756.21 Q66.5707 752.645 62.9365 752.645 M62.9365 748.941 Q68.7467 748.941 71.8022 753.547 Q74.8809 758.131 74.8809 766.881 Q74.8809 775.608 71.8022 780.214 Q68.7467 784.797 62.9365 784.797 Q57.1264 784.797 54.0477 780.214 Q50.9921 775.608 50.9921 766.881 Q50.9921 758.131 54.0477 753.547 Q57.1264 748.941 62.9365 748.941 Z" fill="#000000" fill-rule="evenodd" fill-opacity="1" /><path clip-path="url(#clip390)" d="M83.0984 778.246 L87.9827 778.246 L87.9827 784.126 L83.0984 784.126 L83.0984 778.246 Z" fill="#000000" fill-rule="evenodd" fill-opacity="1" /><path clip-path="url(#clip390)" d="M98.2141 749.566 L116.57 749.566 L116.57 753.501 L102.496 753.501 L102.496 761.973 Q103.515 761.626 104.534 761.464 Q105.552 761.279 106.571 761.279 Q112.358 761.279 115.737 764.45 Q119.117 767.621 119.117 773.038 Q119.117 778.617 115.645 781.719 Q112.172 784.797 105.853 784.797 Q103.677 784.797 101.409 784.427 Q99.1632 784.057 96.7558 783.316 L96.7558 778.617 Q98.8391 779.751 101.061 780.307 Q103.284 780.862 105.76 780.862 Q109.765 780.862 112.103 778.756 Q114.441 776.649 114.441 773.038 Q114.441 769.427 112.103 767.321 Q109.765 765.214 105.76 765.214 Q103.885 765.214 102.01 765.631 Q100.159 766.047 98.2141 766.927 L98.2141 749.566 Z" fill="#000000" fill-rule="evenodd" fill-opacity="1" /><path clip-path="url(#clip390)" d="M138.33 752.645 Q134.719 752.645 132.89 756.21 Q131.084 759.751 131.084 766.881 Q131.084 773.987 132.89 777.552 Q134.719 781.094 138.33 781.094 Q141.964 781.094 143.769 777.552 Q145.598 773.987 145.598 766.881 Q145.598 759.751 143.769 756.21 Q141.964 752.645 138.33 752.645 M138.33 748.941 Q144.14 748.941 147.195 753.547 Q150.274 758.131 150.274 766.881 Q150.274 775.608 147.195 780.214 Q144.14 784.797 138.33 784.797 Q132.519 784.797 129.441 780.214 Q126.385 775.608 126.385 766.881 Q126.385 758.131 129.441 753.547 Q132.519 748.941 138.33 748.941 Z" fill="#000000" fill-rule="evenodd" fill-opacity="1" /><path clip-path="url(#clip390)" d="M63.9319 413.21 Q60.3208 413.21 58.4921 416.775 Q56.6865 420.316 56.6865 427.446 Q56.6865 434.552 58.4921 438.117 Q60.3208 441.659 63.9319 441.659 Q67.5661 441.659 69.3717 438.117 Q71.2004 434.552 71.2004 427.446 Q71.2004 420.316 69.3717 416.775 Q67.5661 413.21 63.9319 413.21 M63.9319 409.506 Q69.742 409.506 72.7976 414.113 Q75.8763 418.696 75.8763 427.446 Q75.8763 436.173 72.7976 440.779 Q69.742 445.362 63.9319 445.362 Q58.1217 445.362 55.043 440.779 Q51.9875 436.173 51.9875 427.446 Q51.9875 418.696 55.043 414.113 Q58.1217 409.506 63.9319 409.506 Z" fill="#000000" fill-rule="evenodd" fill-opacity="1" /><path clip-path="url(#clip390)" d="M84.0938 438.812 L88.978 438.812 L88.978 444.691 L84.0938 444.691 L84.0938 438.812 Z" fill="#000000" fill-rule="evenodd" fill-opacity="1" /><path clip-path="url(#clip390)" d="M97.9826 410.131 L120.205 410.131 L120.205 412.122 L107.658 444.691 L102.774 444.691 L114.58 414.066 L97.9826 414.066 L97.9826 410.131 Z" fill="#000000" fill-rule="evenodd" fill-opacity="1" /><path clip-path="url(#clip390)" d="M129.371 410.131 L147.728 410.131 L147.728 414.066 L133.654 414.066 L133.654 422.539 Q134.672 422.191 135.691 422.029 Q136.709 421.844 137.728 421.844 Q143.515 421.844 146.894 425.015 Q150.274 428.187 150.274 433.603 Q150.274 439.182 146.802 442.284 Q143.33 445.362 137.01 445.362 Q134.834 445.362 132.566 444.992 Q130.32 444.622 127.913 443.881 L127.913 439.182 Q129.996 440.316 132.219 440.872 Q134.441 441.427 136.918 441.427 Q140.922 441.427 143.26 439.321 Q145.598 437.214 145.598 433.603 Q145.598 429.992 143.26 427.886 Q140.922 425.779 136.918 425.779 Q135.043 425.779 133.168 426.196 Q131.316 426.613 129.371 427.492 L129.371 410.131 Z" fill="#000000" fill-rule="evenodd" fill-opacity="1" /><path clip-path="url(#clip390)" d="M53.7467 101.321 L61.3856 101.321 L61.3856 74.9556 L53.0754 76.6223 L53.0754 72.363 L61.3393 70.6964 L66.0152 70.6964 L66.0152 101.321 L73.654 101.321 L73.654 105.256 L53.7467 105.256 L53.7467 101.321 Z" fill="#000000" fill-rule="evenodd" fill-opacity="1" /><path clip-path="url(#clip390)" d="M83.0984 99.3768 L87.9827 99.3768 L87.9827 105.256 L83.0984 105.256 L83.0984 99.3768 Z" fill="#000000" fill-rule="evenodd" fill-opacity="1" /><path clip-path="url(#clip390)" d="M108.168 73.775 Q104.557 73.775 102.728 77.3398 Q100.922 80.8815 100.922 88.0111 Q100.922 95.1175 102.728 98.6823 Q104.557 102.224 108.168 102.224 Q111.802 102.224 113.608 98.6823 Q115.436 95.1175 115.436 88.0111 Q115.436 80.8815 113.608 77.3398 Q111.802 73.775 108.168 73.775 M108.168 70.0714 Q113.978 70.0714 117.033 74.6778 Q120.112 79.2611 120.112 88.0111 Q120.112 96.7379 117.033 101.344 Q113.978 105.928 108.168 105.928 Q102.358 105.928 99.2789 101.344 Q96.2234 96.7379 96.2234 88.0111 Q96.2234 79.2611 99.2789 74.6778 Q102.358 70.0714 108.168 70.0714 Z" fill="#000000" fill-rule="evenodd" fill-opacity="1" /><path clip-path="url(#clip390)" d="M138.33 73.775 Q134.719 73.775 132.89 77.3398 Q131.084 80.8815 131.084 88.0111 Q131.084 95.1175 132.89 98.6823 Q134.719 102.224 138.33 102.224 Q141.964 102.224 143.769 98.6823 Q145.598 95.1175 145.598 88.0111 Q145.598 80.8815 143.769 77.3398 Q141.964 73.775 138.33 73.775 M138.33 70.0714 Q144.14 70.0714 147.195 74.6778 Q150.274 79.2611 150.274 88.0111 Q150.274 96.7379 147.195 101.344 Q144.14 105.928 138.33 105.928 Q132.519 105.928 129.441 101.344 Q126.385 96.7379 126.385 88.0111 Q126.385 79.2611 129.441 74.6778 Q132.519 70.0714 138.33 70.0714 Z" fill="#000000" fill-rule="evenodd" fill-opacity="1" /><polyline clip-path="url(#clip392)" style="stroke:#009af9; stroke-linecap:butt; stroke-linejoin:round; stroke-width:4; stroke-opacity:1; fill:none" points="
  247.59,1445.72 268.234,1445.72 288.879,1445.72 309.524,1445.72 330.169,1445.72 350.814,1445.72 371.459,1445.72 392.104,1445.72 412.749,1445.72 433.394,1445.72 
  454.039,1432 474.684,1294.86 495.329,1157.71 515.974,1020.56 536.619,883.42 557.264,746.274 577.909,609.129 598.554,471.983 619.199,334.838 639.844,197.693 
  660.489,115.405 681.134,252.551 701.779,389.696 722.424,526.842 743.069,663.987 763.713,801.132 784.358,938.278 805.003,1075.42 825.648,1212.57 846.293,1349.71 
  866.938,1445.72 887.583,1445.72 908.228,1445.72 928.873,1445.72 949.518,1445.72 970.163,1445.72 990.808,1445.72 1011.45,1445.72 1032.1,1445.72 1052.74,1445.72 
  1073.39,87.9764 1094.03,87.9764 1114.68,87.9764 1135.32,87.9764 1155.97,87.9764 1176.61,87.9764 1197.26,87.9764 1217.9,87.9764 1238.55,87.9764 1259.19,87.9764 
  1279.84,87.9764 1300.48,87.9764 1321.13,87.9764 1341.77,87.9764 1362.42,87.9764 1383.06,87.9764 1403.71,87.9764 1424.35,87.9764 1445,87.9763 1465.64,87.9763 
  1486.29,1445.72 1506.93,1445.71 1527.58,1445.71 1548.22,1445.69 1568.87,1445.61 1589.51,1445.35 1610.16,1444.61 1630.8,1442.59 1651.45,1437.6 1672.09,1426.27 
  1692.74,1402.8 1713.38,1358.41 1734.03,1282.04 1754.67,1162.91 1775.32,995.37 1795.96,784.784 1816.61,551.757 1837.25,331.345 1857.9,165.471 1878.54,90.191 
  1899.19,122.981 1919.83,256.148 1940.48,459.762 1961.12,692.578 1981.77,915.51 2002.41,1101.71 2023.06,1240.02 2043.7,1332.36 2064.35,1388.14 2084.99,1418.77 
  2105.64,1434.09 2126.28,1441.09 2146.93,1444.02 2167.57,1445.14 2188.22,1445.54 2208.86,1445.66 2229.51,1445.7 2250.15,1445.71 2270.8,1445.71 2291.44,1445.72 
  
  "/>
<polyline clip-path="url(#clip392)" style="stroke:#e26f46; stroke-linecap:butt; stroke-linejoin:round; stroke-width:4; stroke-opacity:1; fill:none" points="
  247.59,1192.96 268.234,1191.88 288.879,1188.25 309.524,1181.97 330.169,1172.93 350.814,1160.97 371.459,1145.94 392.104,1127.6 412.749,1105.71 433.394,1079.99 
  454.039,1053.53 474.684,1053.54 495.329,1050.45 515.974,1045.54 536.619,1040.09 557.264,1035.42 577.909,1032.86 598.554,1033.8 619.199,1039.69 639.844,1052.07 
  660.489,1058.83 681.134,1019.9 701.779,988.54 722.424,963.232 743.069,942.467 763.713,924.757 784.358,908.615 805.003,892.539 825.648,874.999 846.293,854.418 
  866.938,839.443 887.583,842.587 908.228,839.763 928.873,830.823 949.518,815.555 970.163,793.68 990.808,764.847 1011.45,728.629 1032.1,684.515 1052.74,631.907 
  1073.39,909.544 1094.03,854.726 1114.68,806.479 1135.32,764.452 1155.97,728.349 1176.61,697.928 1197.26,672.998 1217.9,653.419 1238.55,639.104 1259.19,630.013 
  1279.84,626.161 1300.48,627.614 1321.13,634.492 1341.77,646.973 1362.42,665.293 1383.06,689.753 1403.71,720.72 1424.35,758.634 1445,804.013 1465.64,857.459 
  1486.29,580.235 1506.93,635.035 1527.58,682.825 1548.22,723.947 1568.87,758.687 1589.51,787.296 1610.16,810.019 1630.8,827.165 1651.45,839.233 1672.09,847.117 
  1692.74,852.347 1713.38,857.288 1734.03,865.091 1754.67,879.189 1775.32,902.238 1795.96,934.741 1816.61,973.951 1837.25,1013.85 1857.9,1046.63 1878.54,1065.4 
  1899.19,1066.91 1919.83,1052.95 1940.48,1029.74 1961.12,1005.48 1981.77,987.505 2002.41,980.183 2023.06,984.405 2043.7,998.338 2064.35,1018.81 2084.99,1042.57 
  2105.64,1067.01 2126.28,1090.44 2146.93,1111.88 2167.57,1130.89 2188.22,1147.33 2208.86,1161.18 2229.51,1172.49 2250.15,1181.3 2270.8,1187.64 2291.44,1191.53 
  
  "/>
<polyline clip-path="url(#clip392)" style="stroke:#3da44d; stroke-linecap:butt; stroke-linejoin:round; stroke-width:4; stroke-opacity:1; fill:none" points="
  247.59,1065.7 268.234,1066.89 288.879,1067.48 309.524,1067.51 330.169,1067.07 350.814,1066.24 371.459,1065.15 392.104,1063.99 412.749,1062.96 433.394,1062.33 
  454.039,1061.57 474.684,1054.13 495.329,1047.32 515.974,1040.78 536.619,1034.17 557.264,1027.15 577.909,1019.35 598.554,1010.38 619.199,999.755 639.844,986.931 
  660.489,974.663 681.134,972.766 701.779,968.271 722.424,961.815 743.069,953.953 763.713,945.181 784.358,935.957 805.003,926.725 825.648,917.936 846.293,910.073 
  866.938,901.105 887.583,887.969 908.228,876.533 928.873,866.75 949.518,858.668 970.163,852.431 990.808,848.287 1011.45,846.597 1032.1,847.845 1052.74,852.654 
  1073.39,776.943 1094.03,782.894 1114.68,786.329 1135.32,787.834 1155.97,787.912 1176.61,786.986 1197.26,785.408 1217.9,783.46 1238.55,781.359 1259.19,779.261 
  1279.84,777.259 1300.48,775.382 1321.13,773.596 1341.77,771.799 1362.42,769.817 1383.06,767.397 1403.71,764.201 1424.35,759.794 1445,753.634 1465.64,745.056 
  1486.29,818.118 1506.93,810.628 1527.58,806.771 1548.22,805.981 1568.87,807.798 1589.51,811.848 1610.16,817.839 1630.8,825.537 1651.45,834.727 1672.09,845.162 
  1692.74,856.489 1713.38,868.183 1734.03,879.529 1754.67,889.711 1775.32,898.035 1795.96,904.235 1816.61,908.74 1837.25,912.707 1857.9,917.72 1878.54,925.211 
  1899.19,935.86 1919.83,949.284 1940.48,964.184 1961.12,978.873 1981.77,991.898 2002.41,1002.47 2023.06,1010.56 2043.7,1016.66 2064.35,1021.51 2084.99,1025.76 
  2105.64,1029.87 2126.28,1034.07 2146.93,1038.41 2167.57,1042.81 2188.22,1047.15 2208.86,1051.31 2229.51,1055.16 2250.15,1058.6 2270.8,1061.54 2291.44,1063.92 
  
  "/>
<polyline clip-path="url(#clip392)" style="stroke:#c271d2; stroke-linecap:butt; stroke-linejoin:round; stroke-width:4; stroke-opacity:1; fill:none" points="
  247.59,1013.48 268.234,1014.89 288.879,1015.96 309.524,1016.68 330.169,1017.03 350.814,1016.97 371.459,1016.48 392.104,1015.51 412.749,1014 433.394,1011.86 
  454.039,1009.2 474.684,1007.64 495.329,1005.38 515.974,1002.55 536.619,999.273 557.264,995.65 577.909,991.797 598.554,987.848 619.199,983.961 639.844,980.336 
  660.489,976.369 681.134,969.686 701.779,963.479 722.424,957.567 743.069,951.814 763.713,946.112 784.358,940.375 805.003,934.524 825.648,928.476 846.293,922.137 
  866.938,916.029 887.583,910.946 908.228,905.5 928.873,899.764 949.518,893.769 970.163,887.504 990.808,880.91 1011.45,873.876 1032.1,866.231 1052.74,857.732 
  1073.39,869.269 1094.03,861.166 1114.68,854.342 1135.32,848.562 1155.97,843.637 1176.61,839.423 1197.26,835.807 1217.9,832.708 1238.55,830.067 1259.19,827.849 
  1279.84,826.039 1300.48,824.639 1321.13,823.671 1341.77,823.178 1362.42,823.227 1383.06,823.91 1403.71,825.354 1424.35,827.725 1445,831.239 1465.64,836.173 
  1486.29,821.664 1506.93,827.404 1527.58,832.48 1548.22,837.129 1568.87,841.527 1589.51,845.801 1610.16,850.035 1630.8,854.279 1651.45,858.56 1672.09,862.901 
  1692.74,867.334 1713.38,871.93 1734.03,876.8 1754.67,882.089 1775.32,887.922 1795.96,894.343 1816.61,901.249 1837.25,908.375 1857.9,915.358 1878.54,921.864 
  1899.19,927.713 1919.83,932.958 1940.48,937.842 1961.12,942.688 1981.77,947.759 2002.41,953.167 2023.06,958.865 2043.7,964.696 2064.35,970.47 2084.99,976.021 
  2105.64,981.242 2126.28,986.08 2146.93,990.521 2167.57,994.578 2188.22,998.27 2208.86,1001.61 2229.51,1004.63 2250.15,1007.32 2270.8,1009.69 2291.44,1011.75 
  
  "/>
<polyline clip-path="url(#clip392)" style="stroke:#ac8d18; stroke-linecap:butt; stroke-linejoin:round; stroke-width:4; stroke-opacity:1; fill:none" points="
  247.59,977.844 268.234,979.203 288.879,980.324 309.524,981.204 330.169,981.843 350.814,982.246 371.459,982.417 392.104,982.37 412.749,982.121 433.394,981.697 
  454.039,981.081 474.684,979.886 495.329,978.555 515.974,977.059 536.619,975.378 557.264,973.494 577.909,971.39 598.554,969.045 619.199,966.429 639.844,963.501 
  660.489,960.413 681.134,957.764 701.779,954.789 722.424,951.564 743.069,948.144 763.713,944.578 784.358,940.905 805.003,937.165 825.648,933.395 846.293,929.642 
  866.938,925.8 887.583,921.692 908.228,917.674 928.873,913.743 949.518,909.909 970.163,906.198 990.808,902.65 1011.45,899.326 1032.1,896.307 1052.74,893.704 
  1073.39,886.357 1094.03,884.001 1114.68,881.467 1135.32,878.858 1155.97,876.257 1176.61,873.728 1197.26,871.321 1217.9,869.074 1238.55,867.015 1259.19,865.165 
  1279.84,863.539 1300.48,862.144 1321.13,860.981 1341.77,860.043 1362.42,859.318 1383.06,858.782 1403.71,858.396 1424.35,858.108 1445,857.845 1465.64,857.505 
  1486.29,862.257 1506.93,862.375 1527.58,863.04 1548.22,864.156 1568.87,865.65 1589.51,867.469 1610.16,869.572 1630.8,871.931 1651.45,874.525 1672.09,877.338 
  1692.74,880.35 1713.38,883.534 1734.03,886.852 1754.67,890.257 1775.32,893.701 1795.96,897.155 1816.61,900.617 1837.25,904.121 1857.9,907.724 1878.54,911.477 
  1899.19,915.397 1919.83,919.454 1940.48,923.573 1961.12,927.665 1981.77,931.657 2002.41,935.509 2023.06,939.216 2043.7,942.796 2064.35,946.272 2084.99,949.66 
  2105.64,952.963 2126.28,956.171 2146.93,959.267 2167.57,962.23 2188.22,965.041 2208.86,967.682 2229.51,970.135 2250.15,972.388 2270.8,974.43 2291.44,976.251 
  
  "/>
</svg>
