<?xml version="1.0" encoding="utf-8"?>
<svg xmlns="http://www.w3.org/2000/svg" xmlns:xlink="http://www.w3.org/1999/xlink" width="600" height="400" viewBox="0 0 2400 1600">
<defs>
  <clipPath id="clip910">
    <rect x="0" y="0" width="2400" height="1600"/>
  </clipPath>
</defs>
<path clip-path="url(#clip910)" d="
M0 1600 L2400 1600 L2400 0 L0 0  Z
  " fill="#ffffff" fill-rule="evenodd" fill-opacity="1"/>
<defs>
  <clipPath id="clip911">
    <rect x="480" y="0" width="1681" height="1600"/>
  </clipPath>
</defs>
<path clip-path="url(#clip910)" d="
M178.867 1486.45 L2352.76 1486.45 L2352.76 123.472 L178.867 123.472  Z
  " fill="#ffffff" fill-rule="evenodd" fill-opacity="1"/>
<defs>
  <clipPath id="clip912">
    <rect x="178" y="123" width="2175" height="1364"/>
  </clipPath>
</defs>
<polyline clip-path="url(#clip912)" style="stroke:#000000; stroke-linecap:butt; stroke-linejoin:round; stroke-width:2; stroke-opacity:0.1; fill:none" points="
  240.392,1486.45 240.392,123.472 
  "/>
<polyline clip-path="url(#clip912)" style="stroke:#000000; stroke-linecap:butt; stroke-linejoin:round; stroke-width:2; stroke-opacity:0.1; fill:none" points="
  753.102,1486.45 753.102,123.472 
  "/>
<polyline clip-path="url(#clip912)" style="stroke:#000000; stroke-linecap:butt; stroke-linejoin:round; stroke-width:2; stroke-opacity:0.1; fill:none" points="
  1265.81,1486.45 1265.81,123.472 
  "/>
<polyline clip-path="url(#clip912)" style="stroke:#000000; stroke-linecap:butt; stroke-linejoin:round; stroke-width:2; stroke-opacity:0.1; fill:none" points="
  1778.52,1486.45 1778.52,123.472 
  "/>
<polyline clip-path="url(#clip912)" style="stroke:#000000; stroke-linecap:butt; stroke-linejoin:round; stroke-width:2; stroke-opacity:0.1; fill:none" points="
  2291.23,1486.45 2291.23,123.472 
  "/>
<polyline clip-path="url(#clip910)" style="stroke:#000000; stroke-linecap:butt; stroke-linejoin:round; stroke-width:4; stroke-opacity:1; fill:none" points="
  178.867,1486.45 2352.76,1486.45 
  "/>
<polyline clip-path="url(#clip910)" style="stroke:#000000; stroke-linecap:butt; stroke-linejoin:round; stroke-width:4; stroke-opacity:1; fill:none" points="
  240.392,1486.45 240.392,1467.55 
  "/>
<polyline clip-path="url(#clip910)" style="stroke:#000000; stroke-linecap:butt; stroke-linejoin:round; stroke-width:4; stroke-opacity:1; fill:none" points="
  753.102,1486.45 753.102,1467.55 
  "/>
<polyline clip-path="url(#clip910)" style="stroke:#000000; stroke-linecap:butt; stroke-linejoin:round; stroke-width:4; stroke-opacity:1; fill:none" points="
  1265.81,1486.45 1265.81,1467.55 
  "/>
<polyline clip-path="url(#clip910)" style="stroke:#000000; stroke-linecap:butt; stroke-linejoin:round; stroke-width:4; stroke-opacity:1; fill:none" points="
  1778.52,1486.45 1778.52,1467.55 
  "/>
<polyline clip-path="url(#clip910)" style="stroke:#000000; stroke-linecap:butt; stroke-linejoin:round; stroke-width:4; stroke-opacity:1; fill:none" points="
  2291.23,1486.45 2291.23,1467.55 
  "/>
<path clip-path="url(#clip910)" d="M186.92 1530.29 L216.596 1530.29 L216.596 1534.23 L186.92 1534.23 L186.92 1530.29 Z" fill="#000000" fill-rule="evenodd" fill-opacity="1" /><path clip-path="url(#clip910)" d="M227.498 1543.18 L235.137 1543.18 L235.137 1516.82 L226.827 1518.49 L226.827 1514.23 L235.091 1512.56 L239.767 1512.56 L239.767 1543.18 L247.406 1543.18 L247.406 1547.12 L227.498 1547.12 L227.498 1543.18 Z" fill="#000000" fill-rule="evenodd" fill-opacity="1" /><path clip-path="url(#clip910)" d="M256.85 1541.24 L261.734 1541.24 L261.734 1547.12 L256.85 1547.12 L256.85 1541.24 Z" fill="#000000" fill-rule="evenodd" fill-opacity="1" /><path clip-path="url(#clip910)" d="M281.919 1515.64 Q278.308 1515.64 276.48 1519.2 Q274.674 1522.75 274.674 1529.87 Q274.674 1536.98 276.48 1540.55 Q278.308 1544.09 281.919 1544.09 Q285.554 1544.09 287.359 1540.55 Q289.188 1536.98 289.188 1529.87 Q289.188 1522.75 287.359 1519.2 Q285.554 1515.64 281.919 1515.64 M281.919 1511.93 Q287.73 1511.93 290.785 1516.54 Q293.864 1521.12 293.864 1529.87 Q293.864 1538.6 290.785 1543.21 Q287.73 1547.79 281.919 1547.79 Q276.109 1547.79 273.031 1543.21 Q269.975 1538.6 269.975 1529.87 Q269.975 1521.12 273.031 1516.54 Q276.109 1511.93 281.919 1511.93 Z" fill="#000000" fill-rule="evenodd" fill-opacity="1" /><path clip-path="url(#clip910)" d="M700.127 1530.29 L729.803 1530.29 L729.803 1534.23 L700.127 1534.23 L700.127 1530.29 Z" fill="#000000" fill-rule="evenodd" fill-opacity="1" /><path clip-path="url(#clip910)" d="M749.896 1515.64 Q746.284 1515.64 744.456 1519.2 Q742.65 1522.75 742.65 1529.87 Q742.65 1536.98 744.456 1540.55 Q746.284 1544.09 749.896 1544.09 Q753.53 1544.09 755.335 1540.55 Q757.164 1536.98 757.164 1529.87 Q757.164 1522.75 755.335 1519.2 Q753.53 1515.64 749.896 1515.64 M749.896 1511.93 Q755.706 1511.93 758.761 1516.54 Q761.84 1521.12 761.84 1529.87 Q761.84 1538.6 758.761 1543.21 Q755.706 1547.79 749.896 1547.79 Q744.085 1547.79 741.007 1543.21 Q737.951 1538.6 737.951 1529.87 Q737.951 1521.12 741.007 1516.54 Q744.085 1511.93 749.896 1511.93 Z" fill="#000000" fill-rule="evenodd" fill-opacity="1" /><path clip-path="url(#clip910)" d="M770.057 1541.24 L774.942 1541.24 L774.942 1547.12 L770.057 1547.12 L770.057 1541.24 Z" fill="#000000" fill-rule="evenodd" fill-opacity="1" /><path clip-path="url(#clip910)" d="M785.173 1512.56 L803.53 1512.56 L803.53 1516.5 L789.456 1516.5 L789.456 1524.97 Q790.474 1524.62 791.493 1524.46 Q792.511 1524.27 793.53 1524.27 Q799.317 1524.27 802.696 1527.44 Q806.076 1530.62 806.076 1536.03 Q806.076 1541.61 802.604 1544.71 Q799.131 1547.79 792.812 1547.79 Q790.636 1547.79 788.368 1547.42 Q786.122 1547.05 783.715 1546.31 L783.715 1541.61 Q785.798 1542.74 788.02 1543.3 Q790.243 1543.86 792.719 1543.86 Q796.724 1543.86 799.062 1541.75 Q801.4 1539.64 801.4 1536.03 Q801.4 1532.42 799.062 1530.31 Q796.724 1528.21 792.719 1528.21 Q790.844 1528.21 788.969 1528.62 Q787.118 1529.04 785.173 1529.92 L785.173 1512.56 Z" fill="#000000" fill-rule="evenodd" fill-opacity="1" /><path clip-path="url(#clip910)" d="M1243.2 1515.64 Q1239.58 1515.64 1237.76 1519.2 Q1235.95 1522.75 1235.95 1529.87 Q1235.95 1536.98 1237.76 1540.55 Q1239.58 1544.09 1243.2 1544.09 Q1246.83 1544.09 1248.64 1540.55 Q1250.46 1536.98 1250.46 1529.87 Q1250.46 1522.75 1248.64 1519.2 Q1246.83 1515.64 1243.2 1515.64 M1243.2 1511.93 Q1249.01 1511.93 1252.06 1516.54 Q1255.14 1521.12 1255.14 1529.87 Q1255.14 1538.6 1252.06 1543.21 Q1249.01 1547.79 1243.2 1547.79 Q1237.39 1547.79 1234.31 1543.21 Q1231.25 1538.6 1231.25 1529.87 Q1231.25 1521.12 1234.31 1516.54 Q1237.39 1511.93 1243.2 1511.93 Z" fill="#000000" fill-rule="evenodd" fill-opacity="1" /><path clip-path="url(#clip910)" d="M1263.36 1541.24 L1268.24 1541.24 L1268.24 1547.12 L1263.36 1547.12 L1263.36 1541.24 Z" fill="#000000" fill-rule="evenodd" fill-opacity="1" /><path clip-path="url(#clip910)" d="M1288.43 1515.64 Q1284.82 1515.64 1282.99 1519.2 Q1281.18 1522.75 1281.18 1529.87 Q1281.18 1536.98 1282.99 1540.55 Q1284.82 1544.09 1288.43 1544.09 Q1292.06 1544.09 1293.87 1540.55 Q1295.7 1536.98 1295.7 1529.87 Q1295.7 1522.75 1293.87 1519.2 Q1292.06 1515.64 1288.43 1515.64 M1288.43 1511.93 Q1294.24 1511.93 1297.29 1516.54 Q1300.37 1521.12 1300.37 1529.87 Q1300.37 1538.6 1297.29 1543.21 Q1294.24 1547.79 1288.43 1547.79 Q1282.62 1547.79 1279.54 1543.21 Q1276.48 1538.6 1276.48 1529.87 Q1276.48 1521.12 1279.54 1516.54 Q1282.62 1511.93 1288.43 1511.93 Z" fill="#000000" fill-rule="evenodd" fill-opacity="1" /><path clip-path="url(#clip910)" d="M1756.4 1515.64 Q1752.79 1515.64 1750.96 1519.2 Q1749.16 1522.75 1749.16 1529.87 Q1749.16 1536.98 1750.96 1540.55 Q1752.79 1544.09 1756.4 1544.09 Q1760.04 1544.09 1761.84 1540.55 Q1763.67 1536.98 1763.67 1529.87 Q1763.67 1522.75 1761.84 1519.2 Q1760.04 1515.64 1756.4 1515.64 M1756.4 1511.93 Q1762.21 1511.93 1765.27 1516.54 Q1768.35 1521.12 1768.35 1529.87 Q1768.35 1538.6 1765.27 1543.21 Q1762.21 1547.79 1756.4 1547.79 Q1750.59 1547.79 1747.51 1543.21 Q1744.46 1538.6 1744.46 1529.87 Q1744.46 1521.12 1747.51 1516.54 Q1750.59 1511.93 1756.4 1511.93 Z" fill="#000000" fill-rule="evenodd" fill-opacity="1" /><path clip-path="url(#clip910)" d="M1776.56 1541.24 L1781.45 1541.24 L1781.45 1547.12 L1776.56 1547.12 L1776.56 1541.24 Z" fill="#000000" fill-rule="evenodd" fill-opacity="1" /><path clip-path="url(#clip910)" d="M1791.68 1512.56 L1810.04 1512.56 L1810.04 1516.5 L1795.96 1516.5 L1795.96 1524.97 Q1796.98 1524.62 1798 1524.46 Q1799.02 1524.27 1800.04 1524.27 Q1805.82 1524.27 1809.2 1527.44 Q1812.58 1530.62 1812.58 1536.03 Q1812.58 1541.61 1809.11 1544.71 Q1805.64 1547.79 1799.32 1547.79 Q1797.14 1547.79 1794.88 1547.42 Q1792.63 1547.05 1790.22 1546.31 L1790.22 1541.61 Q1792.31 1542.74 1794.53 1543.3 Q1796.75 1543.86 1799.23 1543.86 Q1803.23 1543.86 1805.57 1541.75 Q1807.91 1539.64 1807.91 1536.03 Q1807.91 1532.42 1805.57 1530.31 Q1803.23 1528.21 1799.23 1528.21 Q1797.35 1528.21 1795.48 1528.62 Q1793.63 1529.04 1791.68 1529.92 L1791.68 1512.56 Z" fill="#000000" fill-rule="evenodd" fill-opacity="1" /><path clip-path="url(#clip910)" d="M2258.38 1543.18 L2266.02 1543.18 L2266.02 1516.82 L2257.71 1518.49 L2257.71 1514.23 L2265.98 1512.56 L2270.65 1512.56 L2270.65 1543.18 L2278.29 1543.18 L2278.29 1547.12 L2258.38 1547.12 L2258.38 1543.18 Z" fill="#000000" fill-rule="evenodd" fill-opacity="1" /><path clip-path="url(#clip910)" d="M2287.74 1541.24 L2292.62 1541.24 L2292.62 1547.12 L2287.74 1547.12 L2287.74 1541.24 Z" fill="#000000" fill-rule="evenodd" fill-opacity="1" /><path clip-path="url(#clip910)" d="M2312.8 1515.64 Q2309.19 1515.64 2307.36 1519.2 Q2305.56 1522.75 2305.56 1529.87 Q2305.56 1536.98 2307.36 1540.55 Q2309.19 1544.09 2312.8 1544.09 Q2316.44 1544.09 2318.24 1540.55 Q2320.07 1536.98 2320.07 1529.87 Q2320.07 1522.75 2318.24 1519.2 Q2316.44 1515.64 2312.8 1515.64 M2312.8 1511.93 Q2318.61 1511.93 2321.67 1516.54 Q2324.75 1521.12 2324.75 1529.87 Q2324.75 1538.6 2321.67 1543.21 Q2318.61 1547.79 2312.8 1547.79 Q2306.99 1547.79 2303.92 1543.21 Q2300.86 1538.6 2300.86 1529.87 Q2300.86 1521.12 2303.92 1516.54 Q2306.99 1511.93 2312.8 1511.93 Z" fill="#000000" fill-rule="evenodd" fill-opacity="1" /><polyline clip-path="url(#clip912)" style="stroke:#000000; stroke-linecap:butt; stroke-linejoin:round; stroke-width:2; stroke-opacity:0.1; fill:none" points="
  178.867,1311.24 2352.76,1311.24 
  "/>
<polyline clip-path="url(#clip912)" style="stroke:#000000; stroke-linecap:butt; stroke-linejoin:round; stroke-width:2; stroke-opacity:0.1; fill:none" points="
  178.867,1034.5 2352.76,1034.5 
  "/>
<polyline clip-path="url(#clip912)" style="stroke:#000000; stroke-linecap:butt; stroke-linejoin:round; stroke-width:2; stroke-opacity:0.1; fill:none" points="
  178.867,757.767 2352.76,757.767 
  "/>
<polyline clip-path="url(#clip912)" style="stroke:#000000; stroke-linecap:butt; stroke-linejoin:round; stroke-width:2; stroke-opacity:0.1; fill:none" points="
  178.867,481.03 2352.76,481.03 
  "/>
<polyline clip-path="url(#clip912)" style="stroke:#000000; stroke-linecap:butt; stroke-linejoin:round; stroke-width:2; stroke-opacity:0.1; fill:none" points="
  178.867,204.293 2352.76,204.293 
  "/>
<polyline clip-path="url(#clip910)" style="stroke:#000000; stroke-linecap:butt; stroke-linejoin:round; stroke-width:4; stroke-opacity:1; fill:none" points="
  178.867,1486.45 178.867,123.472 
  "/>
<polyline clip-path="url(#clip910)" style="stroke:#000000; stroke-linecap:butt; stroke-linejoin:round; stroke-width:4; stroke-opacity:1; fill:none" points="
  178.867,1311.24 197.764,1311.24 
  "/>
<polyline clip-path="url(#clip910)" style="stroke:#000000; stroke-linecap:butt; stroke-linejoin:round; stroke-width:4; stroke-opacity:1; fill:none" points="
  178.867,1034.5 197.764,1034.5 
  "/>
<polyline clip-path="url(#clip910)" style="stroke:#000000; stroke-linecap:butt; stroke-linejoin:round; stroke-width:4; stroke-opacity:1; fill:none" points="
  178.867,757.767 197.764,757.767 
  "/>
<polyline clip-path="url(#clip910)" style="stroke:#000000; stroke-linecap:butt; stroke-linejoin:round; stroke-width:4; stroke-opacity:1; fill:none" points="
  178.867,481.03 197.764,481.03 
  "/>
<polyline clip-path="url(#clip910)" style="stroke:#000000; stroke-linecap:butt; stroke-linejoin:round; stroke-width:4; stroke-opacity:1; fill:none" points="
  178.867,204.293 197.764,204.293 
  "/>
<path clip-path="url(#clip910)" d="M50.9921 1311.69 L80.6679 1311.69 L80.6679 1315.63 L50.9921 1315.63 L50.9921 1311.69 Z" fill="#000000" fill-rule="evenodd" fill-opacity="1" /><path clip-path="url(#clip910)" d="M100.76 1312.11 Q97.4271 1312.11 95.5058 1313.89 Q93.6076 1315.67 93.6076 1318.8 Q93.6076 1321.92 95.5058 1323.71 Q97.4271 1325.49 100.76 1325.49 Q104.094 1325.49 106.015 1323.71 Q107.936 1321.9 107.936 1318.8 Q107.936 1315.67 106.015 1313.89 Q104.117 1312.11 100.76 1312.11 M96.0845 1310.12 Q93.0752 1309.38 91.3854 1307.32 Q89.7188 1305.26 89.7188 1302.29 Q89.7188 1298.15 92.6586 1295.74 Q95.6215 1293.34 100.76 1293.34 Q105.922 1293.34 108.862 1295.74 Q111.802 1298.15 111.802 1302.29 Q111.802 1305.26 110.112 1307.32 Q108.446 1309.38 105.459 1310.12 Q108.839 1310.91 110.714 1313.2 Q112.612 1315.49 112.612 1318.8 Q112.612 1323.82 109.533 1326.51 Q106.478 1329.19 100.76 1329.19 Q95.0428 1329.19 91.9641 1326.51 Q88.9086 1323.82 88.9086 1318.8 Q88.9086 1315.49 90.8067 1313.2 Q92.7049 1310.91 96.0845 1310.12 M94.3715 1302.73 Q94.3715 1305.42 96.0382 1306.92 Q97.728 1308.43 100.76 1308.43 Q103.77 1308.43 105.459 1306.92 Q107.172 1305.42 107.172 1302.73 Q107.172 1300.05 105.459 1298.54 Q103.77 1297.04 100.76 1297.04 Q97.728 1297.04 96.0382 1298.54 Q94.3715 1300.05 94.3715 1302.73 Z" fill="#000000" fill-rule="evenodd" fill-opacity="1" /><path clip-path="url(#clip910)" d="M130.922 1297.04 Q127.311 1297.04 125.482 1300.6 Q123.677 1304.15 123.677 1311.28 Q123.677 1318.38 125.482 1321.95 Q127.311 1325.49 130.922 1325.49 Q134.556 1325.49 136.362 1321.95 Q138.191 1318.38 138.191 1311.28 Q138.191 1304.15 136.362 1300.6 Q134.556 1297.04 130.922 1297.04 M130.922 1293.34 Q136.732 1293.34 139.788 1297.94 Q142.867 1302.53 142.867 1311.28 Q142.867 1320 139.788 1324.61 Q136.732 1329.19 130.922 1329.19 Q125.112 1329.19 122.033 1324.61 Q118.978 1320 118.978 1311.28 Q118.978 1302.53 122.033 1297.94 Q125.112 1293.34 130.922 1293.34 Z" fill="#000000" fill-rule="evenodd" fill-opacity="1" /><path clip-path="url(#clip910)" d="M50.9921 1034.96 L80.6679 1034.96 L80.6679 1038.89 L50.9921 1038.89 L50.9921 1034.96 Z" fill="#000000" fill-rule="evenodd" fill-opacity="1" /><path clip-path="url(#clip910)" d="M101.339 1032.64 Q98.1909 1032.64 96.3391 1034.79 Q94.5104 1036.95 94.5104 1040.7 Q94.5104 1044.42 96.3391 1046.6 Q98.1909 1048.75 101.339 1048.75 Q104.487 1048.75 106.316 1046.6 Q108.168 1044.42 108.168 1040.7 Q108.168 1036.95 106.316 1034.79 Q104.487 1032.64 101.339 1032.64 M110.621 1017.99 L110.621 1022.25 Q108.862 1021.41 107.057 1020.97 Q105.274 1020.53 103.515 1020.53 Q98.8854 1020.53 96.4317 1023.66 Q94.0012 1026.78 93.6539 1033.1 Q95.0197 1031.09 97.0798 1030.02 Q99.14 1028.94 101.617 1028.94 Q106.825 1028.94 109.834 1032.11 Q112.867 1035.26 112.867 1040.7 Q112.867 1046.02 109.719 1049.24 Q106.571 1052.46 101.339 1052.46 Q95.3437 1052.46 92.1725 1047.87 Q89.0012 1043.27 89.0012 1034.54 Q89.0012 1026.34 92.89 1021.48 Q96.7789 1016.6 103.33 1016.6 Q105.089 1016.6 106.871 1016.95 Q108.677 1017.29 110.621 1017.99 Z" fill="#000000" fill-rule="evenodd" fill-opacity="1" /><path clip-path="url(#clip910)" d="M130.922 1020.3 Q127.311 1020.3 125.482 1023.87 Q123.677 1027.41 123.677 1034.54 Q123.677 1041.65 125.482 1045.21 Q127.311 1048.75 130.922 1048.75 Q134.556 1048.75 136.362 1045.21 Q138.191 1041.65 138.191 1034.54 Q138.191 1027.41 136.362 1023.87 Q134.556 1020.3 130.922 1020.3 M130.922 1016.6 Q136.732 1016.6 139.788 1021.21 Q142.867 1025.79 142.867 1034.54 Q142.867 1043.27 139.788 1047.87 Q136.732 1052.46 130.922 1052.46 Q125.112 1052.46 122.033 1047.87 Q118.978 1043.27 118.978 1034.54 Q118.978 1025.79 122.033 1021.21 Q125.112 1016.6 130.922 1016.6 Z" fill="#000000" fill-rule="evenodd" fill-opacity="1" /><path clip-path="url(#clip910)" d="M50.9921 758.218 L80.6679 758.218 L80.6679 762.154 L50.9921 762.154 L50.9921 758.218 Z" fill="#000000" fill-rule="evenodd" fill-opacity="1" /><path clip-path="url(#clip910)" d="M103.608 744.561 L91.8021 763.01 L103.608 763.01 L103.608 744.561 M102.381 740.487 L108.26 740.487 L108.26 763.01 L113.191 763.01 L113.191 766.899 L108.26 766.899 L108.26 775.047 L103.608 775.047 L103.608 766.899 L88.0058 766.899 L88.0058 762.385 L102.381 740.487 Z" fill="#000000" fill-rule="evenodd" fill-opacity="1" /><path clip-path="url(#clip910)" d="M130.922 743.566 Q127.311 743.566 125.482 747.131 Q123.677 750.672 123.677 757.802 Q123.677 764.908 125.482 768.473 Q127.311 772.015 130.922 772.015 Q134.556 772.015 136.362 768.473 Q138.191 764.908 138.191 757.802 Q138.191 750.672 136.362 747.131 Q134.556 743.566 130.922 743.566 M130.922 739.862 Q136.732 739.862 139.788 744.469 Q142.867 749.052 142.867 757.802 Q142.867 766.529 139.788 771.135 Q136.732 775.718 130.922 775.718 Q125.112 775.718 122.033 771.135 Q118.978 766.529 118.978 757.802 Q118.978 749.052 122.033 744.469 Q125.112 739.862 130.922 739.862 Z" fill="#000000" fill-rule="evenodd" fill-opacity="1" /><path clip-path="url(#clip910)" d="M50.9921 481.482 L80.6679 481.482 L80.6679 485.417 L50.9921 485.417 L50.9921 481.482 Z" fill="#000000" fill-rule="evenodd" fill-opacity="1" /><path clip-path="url(#clip910)" d="M94.7882 494.375 L111.108 494.375 L111.108 498.31 L89.1632 498.31 L89.1632 494.375 Q91.8252 491.62 96.4085 486.991 Q101.015 482.338 102.196 480.995 Q104.441 478.472 105.321 476.736 Q106.223 474.977 106.223 473.287 Q106.223 470.532 104.279 468.796 Q102.358 467.06 99.2558 467.06 Q97.0567 467.06 94.603 467.824 Q92.1725 468.588 89.3947 470.139 L89.3947 465.417 Q92.2188 464.283 94.6724 463.704 Q97.1261 463.125 99.1632 463.125 Q104.534 463.125 107.728 465.81 Q110.922 468.495 110.922 472.986 Q110.922 475.116 110.112 477.037 Q109.325 478.935 107.219 481.528 Q106.64 482.199 103.538 485.417 Q100.436 488.611 94.7882 494.375 Z" fill="#000000" fill-rule="evenodd" fill-opacity="1" /><path clip-path="url(#clip910)" d="M130.922 466.829 Q127.311 466.829 125.482 470.394 Q123.677 473.935 123.677 481.065 Q123.677 488.171 125.482 491.736 Q127.311 495.278 130.922 495.278 Q134.556 495.278 136.362 491.736 Q138.191 488.171 138.191 481.065 Q138.191 473.935 136.362 470.394 Q134.556 466.829 130.922 466.829 M130.922 463.125 Q136.732 463.125 139.788 467.732 Q142.867 472.315 142.867 481.065 Q142.867 489.792 139.788 494.398 Q136.732 498.981 130.922 498.981 Q125.112 498.981 122.033 494.398 Q118.978 489.792 118.978 481.065 Q118.978 472.315 122.033 467.732 Q125.112 463.125 130.922 463.125 Z" fill="#000000" fill-rule="evenodd" fill-opacity="1" /><path clip-path="url(#clip910)" d="M130.922 190.092 Q127.311 190.092 125.482 193.657 Q123.677 197.198 123.677 204.328 Q123.677 211.434 125.482 214.999 Q127.311 218.541 130.922 218.541 Q134.556 218.541 136.362 214.999 Q138.191 211.434 138.191 204.328 Q138.191 197.198 136.362 193.657 Q134.556 190.092 130.922 190.092 M130.922 186.388 Q136.732 186.388 139.788 190.995 Q142.867 195.578 142.867 204.328 Q142.867 213.055 139.788 217.661 Q136.732 222.244 130.922 222.244 Q125.112 222.244 122.033 217.661 Q118.978 213.055 118.978 204.328 Q118.978 195.578 122.033 190.995 Q125.112 186.388 130.922 186.388 Z" fill="#000000" fill-rule="evenodd" fill-opacity="1" /><path clip-path="url(#clip910)" d="M643.289 12.096 L681.529 12.096 L681.529 18.9825 L651.471 18.9825 L651.471 36.8875 L680.273 36.8875 L680.273 43.7741 L651.471 43.7741 L651.471 65.6895 L682.258 65.6895 L682.258 72.576 L643.289 72.576 L643.289 12.096 Z" fill="#000000" fill-rule="evenodd" fill-opacity="1" /><path clip-path="url(#clip910)" d="M721.674 34.1734 Q720.418 33.4443 718.919 33.1202 Q717.461 32.7556 715.678 32.7556 Q709.359 32.7556 705.956 36.8875 Q702.594 40.9789 702.594 48.6757 L702.594 72.576 L695.1 72.576 L695.1 27.2059 L702.594 27.2059 L702.594 34.2544 Q704.943 30.1225 708.711 28.1376 Q712.478 26.1121 717.866 26.1121 Q718.635 26.1121 719.567 26.2337 Q720.499 26.3147 721.633 26.5172 L721.674 34.1734 Z" fill="#000000" fill-rule="evenodd" fill-opacity="1" /><path clip-path="url(#clip910)" d="M754.324 34.1734 Q753.068 33.4443 751.569 33.1202 Q750.111 32.7556 748.329 32.7556 Q742.009 32.7556 738.606 36.8875 Q735.244 40.9789 735.244 48.6757 L735.244 72.576 L727.75 72.576 L727.75 27.2059 L735.244 27.2059 L735.244 34.2544 Q737.594 30.1225 741.361 28.1376 Q745.128 26.1121 750.516 26.1121 Q751.286 26.1121 752.217 26.2337 Q753.149 26.3147 754.283 26.5172 L754.324 34.1734 Z" fill="#000000" fill-rule="evenodd" fill-opacity="1" /><path clip-path="url(#clip910)" d="M777.9 32.4315 Q771.905 32.4315 768.421 37.1306 Q764.937 41.7891 764.937 49.9314 Q764.937 58.0738 768.38 62.7728 Q771.864 67.4314 777.9 67.4314 Q783.855 67.4314 787.339 62.7323 Q790.822 58.0333 790.822 49.9314 Q790.822 41.8701 787.339 37.1711 Q783.855 32.4315 777.9 32.4315 M777.9 26.1121 Q787.622 26.1121 793.172 32.4315 Q798.722 38.7509 798.722 49.9314 Q798.722 61.0714 793.172 67.4314 Q787.622 73.7508 777.9 73.7508 Q768.137 73.7508 762.588 67.4314 Q757.078 61.0714 757.078 49.9314 Q757.078 38.7509 762.588 32.4315 Q768.137 26.1121 777.9 26.1121 Z" fill="#000000" fill-rule="evenodd" fill-opacity="1" /><path clip-path="url(#clip910)" d="M837.367 34.1734 Q836.112 33.4443 834.613 33.1202 Q833.154 32.7556 831.372 32.7556 Q825.053 32.7556 821.65 36.8875 Q818.288 40.9789 818.288 48.6757 L818.288 72.576 L810.793 72.576 L810.793 27.2059 L818.288 27.2059 L818.288 34.2544 Q820.637 30.1225 824.404 28.1376 Q828.172 26.1121 833.56 26.1121 Q834.329 26.1121 835.261 26.2337 Q836.193 26.3147 837.327 26.5172 L837.367 34.1734 Z" fill="#000000" fill-rule="evenodd" fill-opacity="1" /><path clip-path="url(#clip910)" d="M890.11 17.4837 Q883.791 17.4837 880.591 23.7221 Q877.431 29.92 877.431 42.3968 Q877.431 54.833 880.591 61.0714 Q883.791 67.2693 890.11 67.2693 Q896.47 67.2693 899.63 61.0714 Q902.83 54.833 902.83 42.3968 Q902.83 29.92 899.63 23.7221 Q896.47 17.4837 890.11 17.4837 M890.11 11.0023 Q900.278 11.0023 905.625 19.0636 Q911.013 27.0843 911.013 42.3968 Q911.013 57.6687 905.625 65.73 Q900.278 73.7508 890.11 73.7508 Q879.942 73.7508 874.555 65.73 Q869.207 57.6687 869.207 42.3968 Q869.207 27.0843 874.555 19.0636 Q879.942 11.0023 890.11 11.0023 Z" fill="#000000" fill-rule="evenodd" fill-opacity="1" /><path clip-path="url(#clip910)" d="M925.394 62.2867 L933.941 62.2867 L933.941 72.576 L925.394 72.576 L925.394 62.2867 Z" fill="#000000" fill-rule="evenodd" fill-opacity="1" /><path clip-path="url(#clip910)" d="M969.265 17.4837 Q962.945 17.4837 959.745 23.7221 Q956.585 29.92 956.585 42.3968 Q956.585 54.833 959.745 61.0714 Q962.945 67.2693 969.265 67.2693 Q975.625 67.2693 978.784 61.0714 Q981.985 54.833 981.985 42.3968 Q981.985 29.92 978.784 23.7221 Q975.625 17.4837 969.265 17.4837 M969.265 11.0023 Q979.433 11.0023 984.78 19.0636 Q990.167 27.0843 990.167 42.3968 Q990.167 57.6687 984.78 65.73 Q979.433 73.7508 969.265 73.7508 Q959.097 73.7508 953.709 65.73 Q948.362 57.6687 948.362 42.3968 Q948.362 27.0843 953.709 19.0636 Q959.097 11.0023 969.265 11.0023 Z" fill="#000000" fill-rule="evenodd" fill-opacity="1" /><path clip-path="url(#clip910)" d="M1022.05 17.4837 Q1015.73 17.4837 1012.53 23.7221 Q1009.37 29.92 1009.37 42.3968 Q1009.37 54.833 1012.53 61.0714 Q1015.73 67.2693 1022.05 67.2693 Q1028.41 67.2693 1031.57 61.0714 Q1034.77 54.833 1034.77 42.3968 Q1034.77 29.92 1031.57 23.7221 Q1028.41 17.4837 1022.05 17.4837 M1022.05 11.0023 Q1032.22 11.0023 1037.56 19.0636 Q1042.95 27.0843 1042.95 42.3968 Q1042.95 57.6687 1037.56 65.73 Q1032.22 73.7508 1022.05 73.7508 Q1011.88 73.7508 1006.49 65.73 Q1001.15 57.6687 1001.15 42.3968 Q1001.15 27.0843 1006.49 19.0636 Q1011.88 11.0023 1022.05 11.0023 Z" fill="#000000" fill-rule="evenodd" fill-opacity="1" /><path clip-path="url(#clip910)" d="M1079.81 19.2256 L1059.15 51.5113 L1079.81 51.5113 L1079.81 19.2256 M1077.67 12.096 L1087.96 12.096 L1087.96 51.5113 L1096.58 51.5113 L1096.58 58.3168 L1087.96 58.3168 L1087.96 72.576 L1079.81 72.576 L1079.81 58.3168 L1052.51 58.3168 L1052.51 50.4176 L1077.67 12.096 Z" fill="#000000" fill-rule="evenodd" fill-opacity="1" /><path clip-path="url(#clip910)" d="M1110.2 12.096 L1142.32 12.096 L1142.32 18.9825 L1117.69 18.9825 L1117.69 33.8088 Q1119.47 33.2012 1121.25 32.9176 Q1123.04 32.5936 1124.82 32.5936 Q1134.95 32.5936 1140.86 38.1433 Q1146.78 43.6931 1146.78 53.1722 Q1146.78 62.9348 1140.7 68.3631 Q1134.62 73.7508 1123.56 73.7508 Q1119.76 73.7508 1115.79 73.1026 Q1111.86 72.4545 1107.64 71.1582 L1107.64 62.9348 Q1111.29 64.9198 1115.18 65.892 Q1119.07 66.8642 1123.4 66.8642 Q1130.41 66.8642 1134.5 63.1779 Q1138.59 59.4916 1138.59 53.1722 Q1138.59 46.8528 1134.5 43.1664 Q1130.41 39.4801 1123.4 39.4801 Q1120.12 39.4801 1116.84 40.2093 Q1113.6 40.9384 1110.2 42.4778 L1110.2 12.096 Z" fill="#000000" fill-rule="evenodd" fill-opacity="1" /><path clip-path="url(#clip910)" d="M1180.4 43.8551 Q1174.56 43.8551 1171.2 46.9743 Q1167.88 50.0935 1167.88 55.5622 Q1167.88 61.0309 1171.2 64.1501 Q1174.56 67.2693 1180.4 67.2693 Q1186.23 67.2693 1189.59 64.1501 Q1192.96 60.9904 1192.96 55.5622 Q1192.96 50.0935 1189.59 46.9743 Q1186.27 43.8551 1180.4 43.8551 M1172.22 40.3713 Q1166.95 39.075 1163.99 35.4697 Q1161.08 31.8644 1161.08 26.6793 Q1161.08 19.4281 1166.22 15.2152 Q1171.4 11.0023 1180.4 11.0023 Q1189.43 11.0023 1194.58 15.2152 Q1199.72 19.4281 1199.72 26.6793 Q1199.72 31.8644 1196.76 35.4697 Q1193.85 39.075 1188.62 40.3713 Q1194.54 41.7486 1197.82 45.759 Q1201.14 49.7694 1201.14 55.5622 Q1201.14 64.3527 1195.75 69.0517 Q1190.4 73.7508 1180.4 73.7508 Q1170.39 73.7508 1165 69.0517 Q1159.66 64.3527 1159.66 55.5622 Q1159.66 49.7694 1162.98 45.759 Q1166.3 41.7486 1172.22 40.3713 M1169.22 27.4489 Q1169.22 32.148 1172.13 34.7811 Q1175.09 37.4142 1180.4 37.4142 Q1185.66 37.4142 1188.62 34.7811 Q1191.62 32.148 1191.62 27.4489 Q1191.62 22.7499 1188.62 20.1168 Q1185.66 17.4837 1180.4 17.4837 Q1175.09 17.4837 1172.13 20.1168 Q1169.22 22.7499 1169.22 27.4489 Z" fill="#000000" fill-rule="evenodd" fill-opacity="1" /><path clip-path="url(#clip910)" d="M1222.73 65.6895 L1251.29 65.6895 L1251.29 72.576 L1212.89 72.576 L1212.89 65.6895 Q1217.54 60.8689 1225.57 52.7671 Q1233.63 44.6248 1235.69 42.2752 Q1239.62 37.8598 1241.16 34.8216 Q1242.74 31.7429 1242.74 28.7857 Q1242.74 23.9651 1239.34 20.927 Q1235.98 17.8888 1230.55 17.8888 Q1226.7 17.8888 1222.41 19.2256 Q1218.15 20.5624 1213.29 23.2765 L1213.29 15.0127 Q1218.23 13.0277 1222.53 12.015 Q1226.82 11.0023 1230.39 11.0023 Q1239.78 11.0023 1245.37 15.7013 Q1250.96 20.4004 1250.96 28.2591 Q1250.96 31.9859 1249.55 35.3482 Q1248.17 38.6699 1244.48 43.2069 Q1243.47 44.3817 1238.04 50.0125 Q1232.61 55.6027 1222.73 65.6895 Z" fill="#000000" fill-rule="evenodd" fill-opacity="1" /><path clip-path="url(#clip910)" d="M1290.95 19.2256 L1270.29 51.5113 L1290.95 51.5113 L1290.95 19.2256 M1288.8 12.096 L1299.09 12.096 L1299.09 51.5113 L1307.72 51.5113 L1307.72 58.3168 L1299.09 58.3168 L1299.09 72.576 L1290.95 72.576 L1290.95 58.3168 L1263.64 58.3168 L1263.64 50.4176 L1288.8 12.096 Z" fill="#000000" fill-rule="evenodd" fill-opacity="1" /><path clip-path="url(#clip910)" d="M1346.04 39.9662 Q1351.91 41.222 1355.19 45.1919 Q1358.52 49.1618 1358.52 54.9951 Q1358.52 63.9476 1352.36 68.8492 Q1346.2 73.7508 1334.86 73.7508 Q1331.05 73.7508 1327 72.9811 Q1322.99 72.2519 1318.7 70.7531 L1318.7 62.8538 Q1322.1 64.8388 1326.15 65.8515 Q1330.2 66.8642 1334.62 66.8642 Q1342.31 66.8642 1346.32 63.826 Q1350.37 60.7879 1350.37 54.9951 Q1350.37 49.6479 1346.61 46.6502 Q1342.88 43.612 1336.2 43.612 L1329.15 43.612 L1329.15 36.8875 L1336.52 36.8875 Q1342.56 36.8875 1345.76 34.4975 Q1348.96 32.067 1348.96 27.5299 Q1348.96 22.8714 1345.63 20.4004 Q1342.35 17.8888 1336.2 17.8888 Q1332.83 17.8888 1328.99 18.618 Q1325.14 19.3471 1320.52 20.8865 L1320.52 13.5948 Q1325.18 12.2985 1329.23 11.6504 Q1333.32 11.0023 1336.92 11.0023 Q1346.24 11.0023 1351.67 15.2557 Q1357.1 19.4686 1357.1 26.6793 Q1357.1 31.7024 1354.22 35.1862 Q1351.35 38.6294 1346.04 39.9662 Z" fill="#000000" fill-rule="evenodd" fill-opacity="1" /><path clip-path="url(#clip910)" d="M1391.53 43.8551 Q1385.7 43.8551 1382.34 46.9743 Q1379.01 50.0935 1379.01 55.5622 Q1379.01 61.0309 1382.34 64.1501 Q1385.7 67.2693 1391.53 67.2693 Q1397.36 67.2693 1400.73 64.1501 Q1404.09 60.9904 1404.09 55.5622 Q1404.09 50.0935 1400.73 46.9743 Q1397.4 43.8551 1391.53 43.8551 M1383.35 40.3713 Q1378.08 39.075 1375.12 35.4697 Q1372.21 31.8644 1372.21 26.6793 Q1372.21 19.4281 1377.35 15.2152 Q1382.54 11.0023 1391.53 11.0023 Q1400.56 11.0023 1405.71 15.2152 Q1410.85 19.4281 1410.85 26.6793 Q1410.85 31.8644 1407.9 35.4697 Q1404.98 39.075 1399.75 40.3713 Q1405.67 41.7486 1408.95 45.759 Q1412.27 49.7694 1412.27 55.5622 Q1412.27 64.3527 1406.88 69.0517 Q1401.54 73.7508 1391.53 73.7508 Q1381.53 73.7508 1376.14 69.0517 Q1370.79 64.3527 1370.79 55.5622 Q1370.79 49.7694 1374.11 45.759 Q1377.43 41.7486 1383.35 40.3713 M1380.35 27.4489 Q1380.35 32.148 1383.27 34.7811 Q1386.22 37.4142 1391.53 37.4142 Q1396.8 37.4142 1399.75 34.7811 Q1402.75 32.148 1402.75 27.4489 Q1402.75 22.7499 1399.75 20.1168 Q1396.8 17.4837 1391.53 17.4837 Q1386.22 17.4837 1383.27 20.1168 Q1380.35 22.7499 1380.35 27.4489 Z" fill="#000000" fill-rule="evenodd" fill-opacity="1" /><path clip-path="url(#clip910)" d="M1445.33 39.075 Q1439.82 39.075 1436.58 42.8424 Q1433.38 46.6097 1433.38 53.1722 Q1433.38 59.6941 1436.58 63.502 Q1439.82 67.2693 1445.33 67.2693 Q1450.84 67.2693 1454.04 63.502 Q1457.28 59.6941 1457.28 53.1722 Q1457.28 46.6097 1454.04 42.8424 Q1450.84 39.075 1445.33 39.075 M1461.57 13.4328 L1461.57 20.8865 Q1458.49 19.4281 1455.33 18.6585 Q1452.21 17.8888 1449.13 17.8888 Q1441.03 17.8888 1436.74 23.3575 Q1432.49 28.8262 1431.88 39.8852 Q1434.27 36.3609 1437.87 34.4975 Q1441.48 32.5936 1445.81 32.5936 Q1454.93 32.5936 1460.19 38.1433 Q1465.5 43.6525 1465.5 53.1722 Q1465.5 62.4892 1459.99 68.12 Q1454.48 73.7508 1445.33 73.7508 Q1434.84 73.7508 1429.29 65.73 Q1423.74 57.6687 1423.74 42.3968 Q1423.74 28.0566 1430.54 19.5497 Q1437.35 11.0023 1448.81 11.0023 Q1451.89 11.0023 1455.01 11.6099 Q1458.17 12.2175 1461.57 13.4328 Z" fill="#000000" fill-rule="evenodd" fill-opacity="1" /><path clip-path="url(#clip910)" d="M1481.02 65.6895 L1494.38 65.6895 L1494.38 19.5497 L1479.84 22.4663 L1479.84 15.0127 L1494.3 12.096 L1502.49 12.096 L1502.49 65.6895 L1515.85 65.6895 L1515.85 72.576 L1481.02 72.576 L1481.02 65.6895 Z" fill="#000000" fill-rule="evenodd" fill-opacity="1" /><path clip-path="url(#clip910)" d="M1549.88 17.4837 Q1543.56 17.4837 1540.36 23.7221 Q1537.2 29.92 1537.2 42.3968 Q1537.2 54.833 1540.36 61.0714 Q1543.56 67.2693 1549.88 67.2693 Q1556.24 67.2693 1559.4 61.0714 Q1562.6 54.833 1562.6 42.3968 Q1562.6 29.92 1559.4 23.7221 Q1556.24 17.4837 1549.88 17.4837 M1549.88 11.0023 Q1560.05 11.0023 1565.4 19.0636 Q1570.78 27.0843 1570.78 42.3968 Q1570.78 57.6687 1565.4 65.73 Q1560.05 73.7508 1549.88 73.7508 Q1539.71 73.7508 1534.33 65.73 Q1528.98 57.6687 1528.98 42.3968 Q1528.98 27.0843 1534.33 19.0636 Q1539.71 11.0023 1549.88 11.0023 Z" fill="#000000" fill-rule="evenodd" fill-opacity="1" /><path clip-path="url(#clip910)" d="M1607.65 19.2256 L1586.99 51.5113 L1607.65 51.5113 L1607.65 19.2256 M1605.5 12.096 L1615.79 12.096 L1615.79 51.5113 L1624.42 51.5113 L1624.42 58.3168 L1615.79 58.3168 L1615.79 72.576 L1607.65 72.576 L1607.65 58.3168 L1580.34 58.3168 L1580.34 50.4176 L1605.5 12.096 Z" fill="#000000" fill-rule="evenodd" fill-opacity="1" /><path clip-path="url(#clip910)" d="M1645 65.6895 L1673.56 65.6895 L1673.56 72.576 L1635.15 72.576 L1635.15 65.6895 Q1639.81 60.8689 1647.83 52.7671 Q1655.89 44.6248 1657.96 42.2752 Q1661.89 37.8598 1663.43 34.8216 Q1665.01 31.7429 1665.01 28.7857 Q1665.01 23.9651 1661.6 20.927 Q1658.24 17.8888 1652.81 17.8888 Q1648.97 17.8888 1644.67 19.2256 Q1640.42 20.5624 1635.56 23.2765 L1635.56 15.0127 Q1640.5 13.0277 1644.79 12.015 Q1649.09 11.0023 1652.65 11.0023 Q1662.05 11.0023 1667.64 15.7013 Q1673.23 20.4004 1673.23 28.2591 Q1673.23 31.9859 1671.81 35.3482 Q1670.44 38.6699 1666.75 43.2069 Q1665.74 44.3817 1660.31 50.0125 Q1654.88 55.6027 1645 65.6895 Z" fill="#000000" fill-rule="evenodd" fill-opacity="1" /><path clip-path="url(#clip910)" d="M1709.24 39.075 Q1703.73 39.075 1700.49 42.8424 Q1697.29 46.6097 1697.29 53.1722 Q1697.29 59.6941 1700.49 63.502 Q1703.73 67.2693 1709.24 67.2693 Q1714.75 67.2693 1717.95 63.502 Q1721.19 59.6941 1721.19 53.1722 Q1721.19 46.6097 1717.95 42.8424 Q1714.75 39.075 1709.24 39.075 M1725.49 13.4328 L1725.49 20.8865 Q1722.41 19.4281 1719.25 18.6585 Q1716.13 17.8888 1713.05 17.8888 Q1704.95 17.8888 1700.66 23.3575 Q1696.4 28.8262 1695.79 39.8852 Q1698.18 36.3609 1701.79 34.4975 Q1705.4 32.5936 1709.73 32.5936 Q1718.84 32.5936 1724.11 38.1433 Q1729.42 43.6525 1729.42 53.1722 Q1729.42 62.4892 1723.91 68.12 Q1718.4 73.7508 1709.24 73.7508 Q1698.75 73.7508 1693.2 65.73 Q1687.65 57.6687 1687.65 42.3968 Q1687.65 28.0566 1694.46 19.5497 Q1701.26 11.0023 1712.73 11.0023 Q1715.81 11.0023 1718.93 11.6099 Q1722.08 12.2175 1725.49 13.4328 Z" fill="#000000" fill-rule="evenodd" fill-opacity="1" /><path clip-path="url(#clip910)" d="M1766 19.2256 L1745.34 51.5113 L1766 51.5113 L1766 19.2256 M1763.85 12.096 L1774.14 12.096 L1774.14 51.5113 L1782.77 51.5113 L1782.77 58.3168 L1774.14 58.3168 L1774.14 72.576 L1766 72.576 L1766 58.3168 L1738.69 58.3168 L1738.69 50.4176 L1763.85 12.096 Z" fill="#000000" fill-rule="evenodd" fill-opacity="1" /><path clip-path="url(#clip910)" d="M1796.38 12.096 L1828.5 12.096 L1828.5 18.9825 L1803.87 18.9825 L1803.87 33.8088 Q1805.66 33.2012 1807.44 32.9176 Q1809.22 32.5936 1811 32.5936 Q1821.13 32.5936 1827.04 38.1433 Q1832.96 43.6931 1832.96 53.1722 Q1832.96 62.9348 1826.88 68.3631 Q1820.81 73.7508 1809.75 73.7508 Q1805.94 73.7508 1801.97 73.1026 Q1798.04 72.4545 1793.83 71.1582 L1793.83 62.9348 Q1797.47 64.9198 1801.36 65.892 Q1805.25 66.8642 1809.58 66.8642 Q1816.59 66.8642 1820.68 63.1779 Q1824.78 59.4916 1824.78 53.1722 Q1824.78 46.8528 1820.68 43.1664 Q1816.59 39.4801 1809.58 39.4801 Q1806.3 39.4801 1803.02 40.2093 Q1799.78 40.9384 1796.38 42.4778 L1796.38 12.096 Z" fill="#000000" fill-rule="evenodd" fill-opacity="1" /><path clip-path="url(#clip910)" d="M1871.56 19.2256 L1850.9 51.5113 L1871.56 51.5113 L1871.56 19.2256 M1869.42 12.096 L1879.71 12.096 L1879.71 51.5113 L1888.33 51.5113 L1888.33 58.3168 L1879.71 58.3168 L1879.71 72.576 L1871.56 72.576 L1871.56 58.3168 L1844.26 58.3168 L1844.26 50.4176 L1869.42 12.096 Z" fill="#000000" fill-rule="evenodd" fill-opacity="1" /><polyline clip-path="url(#clip912)" style="stroke:#009af9; stroke-linecap:butt; stroke-linejoin:round; stroke-width:4; stroke-opacity:1; fill:none" points="
  240.392,217.632 250.698,217.612 261.003,217.59 271.309,217.568 281.615,217.545 291.92,217.521 302.226,217.496 312.532,217.47 322.838,217.443 333.143,217.415 
  343.449,217.386 353.755,217.356 364.06,217.325 374.366,217.292 384.672,217.259 394.978,217.224 405.283,217.188 415.589,217.15 425.895,217.111 436.201,217.071 
  446.506,217.029 456.812,216.985 467.118,216.94 477.423,216.894 487.729,216.845 498.035,216.795 508.341,216.743 518.646,216.689 528.952,216.633 539.258,216.575 
  549.564,216.515 559.869,216.453 570.175,216.388 580.481,216.322 590.786,216.253 601.092,216.181 611.398,216.107 621.704,216.031 632.009,215.951 642.315,215.87 
  652.621,215.785 662.926,215.697 673.232,215.607 683.538,215.514 693.844,215.417 704.149,215.317 714.455,215.214 724.761,215.108 735.067,214.999 745.372,214.886 
  755.678,214.769 765.984,214.649 776.289,214.525 786.595,214.397 796.901,214.266 807.207,214.131 817.512,213.992 827.818,213.849 838.124,213.702 848.429,213.55 
  858.735,213.395 869.041,213.236 879.347,213.072 889.652,212.904 899.958,212.732 910.264,212.555 920.57,212.375 930.875,212.19 941.181,212 951.487,211.807 
  961.792,211.609 972.098,211.406 982.404,211.2 992.71,210.989 1003.02,210.775 1013.32,210.556 1023.63,210.333 1033.93,210.106 1044.24,209.875 1054.54,209.641 
  1064.85,209.402 1075.16,209.16 1085.46,208.915 1095.77,208.666 1106.07,208.414 1116.38,208.159 1126.68,207.902 1136.99,207.641 1147.3,207.378 1157.6,207.112 
  1167.91,206.844 1178.21,206.574 1188.52,206.303 1198.82,206.029 1209.13,205.754 1219.44,205.478 1229.74,205.202 1240.05,204.925 1250.35,204.652 1260.66,204.39 
  1270.96,204.112 1281.27,203.831 1291.58,203.553 1301.88,203.276 1312.19,203 1322.49,202.726 1332.8,202.452 1343.1,202.18 1353.41,201.909 1363.72,201.64 
  1374.02,201.374 1384.33,201.109 1394.63,200.847 1404.94,200.587 1415.24,200.331 1425.55,200.077 1435.86,199.826 1446.16,199.579 1456.47,199.334 1466.77,199.094 
  1477.08,198.856 1487.38,198.623 1497.69,198.393 1508,198.168 1518.3,197.946 1528.61,197.728 1538.91,197.514 1549.22,197.305 1559.52,197.1 1569.83,196.899 
  1580.14,196.702 1590.44,196.509 1600.75,196.321 1611.05,196.137 1621.36,195.957 1631.66,195.782 1641.97,195.611 1652.28,195.444 1662.58,195.282 1672.89,195.123 
  1683.19,194.969 1693.5,194.819 1703.8,194.673 1714.11,194.531 1724.42,194.393 1734.72,194.259 1745.03,194.129 1755.33,194.002 1765.64,193.88 1775.94,193.761 
  1786.25,193.645 1796.56,193.533 1806.86,193.425 1817.17,193.32 1827.47,193.218 1837.78,193.119 1848.08,193.024 1858.39,192.932 1868.7,192.842 1879,192.756 
  1889.31,192.673 1899.61,192.592 1909.92,192.514 1920.22,192.438 1930.53,192.366 1940.84,192.295 1951.14,192.227 1961.45,192.162 1971.75,192.099 1982.06,192.038 
  1992.36,191.979 2002.67,191.922 2012.98,191.867 2023.28,191.814 2033.59,191.763 2043.89,191.714 2054.2,191.667 2064.5,191.621 2074.81,191.577 2085.12,191.535 
  2095.42,191.494 2105.73,191.455 2116.03,191.417 2126.34,191.381 2136.64,191.346 2146.95,191.312 2157.26,191.279 2167.56,191.248 2177.87,191.218 2188.17,191.189 
  2198.48,191.161 2208.78,191.134 2219.09,191.109 2229.4,191.084 2239.7,191.06 2250.01,191.037 2260.31,191.015 2270.62,190.994 2280.93,190.974 2291.23,190.954 
  
  "/>
<circle clip-path="url(#clip912)" cx="240.392" cy="217.632" r="14" fill="#009af9" fill-rule="evenodd" fill-opacity="1" stroke="#000000" stroke-opacity="1" stroke-width="3.2"/>
<circle clip-path="url(#clip912)" cx="250.698" cy="217.612" r="14" fill="#009af9" fill-rule="evenodd" fill-opacity="1" stroke="#000000" stroke-opacity="1" stroke-width="3.2"/>
<circle clip-path="url(#clip912)" cx="261.003" cy="217.59" r="14" fill="#009af9" fill-rule="evenodd" fill-opacity="1" stroke="#000000" stroke-opacity="1" stroke-width="3.2"/>
<circle clip-path="url(#clip912)" cx="271.309" cy="217.568" r="14" fill="#009af9" fill-rule="evenodd" fill-opacity="1" stroke="#000000" stroke-opacity="1" stroke-width="3.2"/>
<circle clip-path="url(#clip912)" cx="281.615" cy="217.545" r="14" fill="#009af9" fill-rule="evenodd" fill-opacity="1" stroke="#000000" stroke-opacity="1" stroke-width="3.2"/>
<circle clip-path="url(#clip912)" cx="291.92" cy="217.521" r="14" fill="#009af9" fill-rule="evenodd" fill-opacity="1" stroke="#000000" stroke-opacity="1" stroke-width="3.2"/>
<circle clip-path="url(#clip912)" cx="302.226" cy="217.496" r="14" fill="#009af9" fill-rule="evenodd" fill-opacity="1" stroke="#000000" stroke-opacity="1" stroke-width="3.2"/>
<circle clip-path="url(#clip912)" cx="312.532" cy="217.47" r="14" fill="#009af9" fill-rule="evenodd" fill-opacity="1" stroke="#000000" stroke-opacity="1" stroke-width="3.2"/>
<circle clip-path="url(#clip912)" cx="322.838" cy="217.443" r="14" fill="#009af9" fill-rule="evenodd" fill-opacity="1" stroke="#000000" stroke-opacity="1" stroke-width="3.2"/>
<circle clip-path="url(#clip912)" cx="333.143" cy="217.415" r="14" fill="#009af9" fill-rule="evenodd" fill-opacity="1" stroke="#000000" stroke-opacity="1" stroke-width="3.2"/>
<circle clip-path="url(#clip912)" cx="343.449" cy="217.386" r="14" fill="#009af9" fill-rule="evenodd" fill-opacity="1" stroke="#000000" stroke-opacity="1" stroke-width="3.2"/>
<circle clip-path="url(#clip912)" cx="353.755" cy="217.356" r="14" fill="#009af9" fill-rule="evenodd" fill-opacity="1" stroke="#000000" stroke-opacity="1" stroke-width="3.2"/>
<circle clip-path="url(#clip912)" cx="364.06" cy="217.325" r="14" fill="#009af9" fill-rule="evenodd" fill-opacity="1" stroke="#000000" stroke-opacity="1" stroke-width="3.2"/>
<circle clip-path="url(#clip912)" cx="374.366" cy="217.292" r="14" fill="#009af9" fill-rule="evenodd" fill-opacity="1" stroke="#000000" stroke-opacity="1" stroke-width="3.2"/>
<circle clip-path="url(#clip912)" cx="384.672" cy="217.259" r="14" fill="#009af9" fill-rule="evenodd" fill-opacity="1" stroke="#000000" stroke-opacity="1" stroke-width="3.2"/>
<circle clip-path="url(#clip912)" cx="394.978" cy="217.224" r="14" fill="#009af9" fill-rule="evenodd" fill-opacity="1" stroke="#000000" stroke-opacity="1" stroke-width="3.2"/>
<circle clip-path="url(#clip912)" cx="405.283" cy="217.188" r="14" fill="#009af9" fill-rule="evenodd" fill-opacity="1" stroke="#000000" stroke-opacity="1" stroke-width="3.2"/>
<circle clip-path="url(#clip912)" cx="415.589" cy="217.15" r="14" fill="#009af9" fill-rule="evenodd" fill-opacity="1" stroke="#000000" stroke-opacity="1" stroke-width="3.2"/>
<circle clip-path="url(#clip912)" cx="425.895" cy="217.111" r="14" fill="#009af9" fill-rule="evenodd" fill-opacity="1" stroke="#000000" stroke-opacity="1" stroke-width="3.2"/>
<circle clip-path="url(#clip912)" cx="436.201" cy="217.071" r="14" fill="#009af9" fill-rule="evenodd" fill-opacity="1" stroke="#000000" stroke-opacity="1" stroke-width="3.2"/>
<circle clip-path="url(#clip912)" cx="446.506" cy="217.029" r="14" fill="#009af9" fill-rule="evenodd" fill-opacity="1" stroke="#000000" stroke-opacity="1" stroke-width="3.2"/>
<circle clip-path="url(#clip912)" cx="456.812" cy="216.985" r="14" fill="#009af9" fill-rule="evenodd" fill-opacity="1" stroke="#000000" stroke-opacity="1" stroke-width="3.2"/>
<circle clip-path="url(#clip912)" cx="467.118" cy="216.94" r="14" fill="#009af9" fill-rule="evenodd" fill-opacity="1" stroke="#000000" stroke-opacity="1" stroke-width="3.2"/>
<circle clip-path="url(#clip912)" cx="477.423" cy="216.894" r="14" fill="#009af9" fill-rule="evenodd" fill-opacity="1" stroke="#000000" stroke-opacity="1" stroke-width="3.2"/>
<circle clip-path="url(#clip912)" cx="487.729" cy="216.845" r="14" fill="#009af9" fill-rule="evenodd" fill-opacity="1" stroke="#000000" stroke-opacity="1" stroke-width="3.2"/>
<circle clip-path="url(#clip912)" cx="498.035" cy="216.795" r="14" fill="#009af9" fill-rule="evenodd" fill-opacity="1" stroke="#000000" stroke-opacity="1" stroke-width="3.2"/>
<circle clip-path="url(#clip912)" cx="508.341" cy="216.743" r="14" fill="#009af9" fill-rule="evenodd" fill-opacity="1" stroke="#000000" stroke-opacity="1" stroke-width="3.2"/>
<circle clip-path="url(#clip912)" cx="518.646" cy="216.689" r="14" fill="#009af9" fill-rule="evenodd" fill-opacity="1" stroke="#000000" stroke-opacity="1" stroke-width="3.2"/>
<circle clip-path="url(#clip912)" cx="528.952" cy="216.633" r="14" fill="#009af9" fill-rule="evenodd" fill-opacity="1" stroke="#000000" stroke-opacity="1" stroke-width="3.2"/>
<circle clip-path="url(#clip912)" cx="539.258" cy="216.575" r="14" fill="#009af9" fill-rule="evenodd" fill-opacity="1" stroke="#000000" stroke-opacity="1" stroke-width="3.2"/>
<circle clip-path="url(#clip912)" cx="549.564" cy="216.515" r="14" fill="#009af9" fill-rule="evenodd" fill-opacity="1" stroke="#000000" stroke-opacity="1" stroke-width="3.2"/>
<circle clip-path="url(#clip912)" cx="559.869" cy="216.453" r="14" fill="#009af9" fill-rule="evenodd" fill-opacity="1" stroke="#000000" stroke-opacity="1" stroke-width="3.2"/>
<circle clip-path="url(#clip912)" cx="570.175" cy="216.388" r="14" fill="#009af9" fill-rule="evenodd" fill-opacity="1" stroke="#000000" stroke-opacity="1" stroke-width="3.2"/>
<circle clip-path="url(#clip912)" cx="580.481" cy="216.322" r="14" fill="#009af9" fill-rule="evenodd" fill-opacity="1" stroke="#000000" stroke-opacity="1" stroke-width="3.2"/>
<circle clip-path="url(#clip912)" cx="590.786" cy="216.253" r="14" fill="#009af9" fill-rule="evenodd" fill-opacity="1" stroke="#000000" stroke-opacity="1" stroke-width="3.2"/>
<circle clip-path="url(#clip912)" cx="601.092" cy="216.181" r="14" fill="#009af9" fill-rule="evenodd" fill-opacity="1" stroke="#000000" stroke-opacity="1" stroke-width="3.2"/>
<circle clip-path="url(#clip912)" cx="611.398" cy="216.107" r="14" fill="#009af9" fill-rule="evenodd" fill-opacity="1" stroke="#000000" stroke-opacity="1" stroke-width="3.2"/>
<circle clip-path="url(#clip912)" cx="621.704" cy="216.031" r="14" fill="#009af9" fill-rule="evenodd" fill-opacity="1" stroke="#000000" stroke-opacity="1" stroke-width="3.2"/>
<circle clip-path="url(#clip912)" cx="632.009" cy="215.951" r="14" fill="#009af9" fill-rule="evenodd" fill-opacity="1" stroke="#000000" stroke-opacity="1" stroke-width="3.2"/>
<circle clip-path="url(#clip912)" cx="642.315" cy="215.87" r="14" fill="#009af9" fill-rule="evenodd" fill-opacity="1" stroke="#000000" stroke-opacity="1" stroke-width="3.2"/>
<circle clip-path="url(#clip912)" cx="652.621" cy="215.785" r="14" fill="#009af9" fill-rule="evenodd" fill-opacity="1" stroke="#000000" stroke-opacity="1" stroke-width="3.2"/>
<circle clip-path="url(#clip912)" cx="662.926" cy="215.697" r="14" fill="#009af9" fill-rule="evenodd" fill-opacity="1" stroke="#000000" stroke-opacity="1" stroke-width="3.2"/>
<circle clip-path="url(#clip912)" cx="673.232" cy="215.607" r="14" fill="#009af9" fill-rule="evenodd" fill-opacity="1" stroke="#000000" stroke-opacity="1" stroke-width="3.2"/>
<circle clip-path="url(#clip912)" cx="683.538" cy="215.514" r="14" fill="#009af9" fill-rule="evenodd" fill-opacity="1" stroke="#000000" stroke-opacity="1" stroke-width="3.2"/>
<circle clip-path="url(#clip912)" cx="693.844" cy="215.417" r="14" fill="#009af9" fill-rule="evenodd" fill-opacity="1" stroke="#000000" stroke-opacity="1" stroke-width="3.2"/>
<circle clip-path="url(#clip912)" cx="704.149" cy="215.317" r="14" fill="#009af9" fill-rule="evenodd" fill-opacity="1" stroke="#000000" stroke-opacity="1" stroke-width="3.2"/>
<circle clip-path="url(#clip912)" cx="714.455" cy="215.214" r="14" fill="#009af9" fill-rule="evenodd" fill-opacity="1" stroke="#000000" stroke-opacity="1" stroke-width="3.2"/>
<circle clip-path="url(#clip912)" cx="724.761" cy="215.108" r="14" fill="#009af9" fill-rule="evenodd" fill-opacity="1" stroke="#000000" stroke-opacity="1" stroke-width="3.2"/>
<circle clip-path="url(#clip912)" cx="735.067" cy="214.999" r="14" fill="#009af9" fill-rule="evenodd" fill-opacity="1" stroke="#000000" stroke-opacity="1" stroke-width="3.2"/>
<circle clip-path="url(#clip912)" cx="745.372" cy="214.886" r="14" fill="#009af9" fill-rule="evenodd" fill-opacity="1" stroke="#000000" stroke-opacity="1" stroke-width="3.2"/>
<circle clip-path="url(#clip912)" cx="755.678" cy="214.769" r="14" fill="#009af9" fill-rule="evenodd" fill-opacity="1" stroke="#000000" stroke-opacity="1" stroke-width="3.2"/>
<circle clip-path="url(#clip912)" cx="765.984" cy="214.649" r="14" fill="#009af9" fill-rule="evenodd" fill-opacity="1" stroke="#000000" stroke-opacity="1" stroke-width="3.2"/>
<circle clip-path="url(#clip912)" cx="776.289" cy="214.525" r="14" fill="#009af9" fill-rule="evenodd" fill-opacity="1" stroke="#000000" stroke-opacity="1" stroke-width="3.2"/>
<circle clip-path="url(#clip912)" cx="786.595" cy="214.397" r="14" fill="#009af9" fill-rule="evenodd" fill-opacity="1" stroke="#000000" stroke-opacity="1" stroke-width="3.2"/>
<circle clip-path="url(#clip912)" cx="796.901" cy="214.266" r="14" fill="#009af9" fill-rule="evenodd" fill-opacity="1" stroke="#000000" stroke-opacity="1" stroke-width="3.2"/>
<circle clip-path="url(#clip912)" cx="807.207" cy="214.131" r="14" fill="#009af9" fill-rule="evenodd" fill-opacity="1" stroke="#000000" stroke-opacity="1" stroke-width="3.2"/>
<circle clip-path="url(#clip912)" cx="817.512" cy="213.992" r="14" fill="#009af9" fill-rule="evenodd" fill-opacity="1" stroke="#000000" stroke-opacity="1" stroke-width="3.2"/>
<circle clip-path="url(#clip912)" cx="827.818" cy="213.849" r="14" fill="#009af9" fill-rule="evenodd" fill-opacity="1" stroke="#000000" stroke-opacity="1" stroke-width="3.2"/>
<circle clip-path="url(#clip912)" cx="838.124" cy="213.702" r="14" fill="#009af9" fill-rule="evenodd" fill-opacity="1" stroke="#000000" stroke-opacity="1" stroke-width="3.2"/>
<circle clip-path="url(#clip912)" cx="848.429" cy="213.55" r="14" fill="#009af9" fill-rule="evenodd" fill-opacity="1" stroke="#000000" stroke-opacity="1" stroke-width="3.2"/>
<circle clip-path="url(#clip912)" cx="858.735" cy="213.395" r="14" fill="#009af9" fill-rule="evenodd" fill-opacity="1" stroke="#000000" stroke-opacity="1" stroke-width="3.2"/>
<circle clip-path="url(#clip912)" cx="869.041" cy="213.236" r="14" fill="#009af9" fill-rule="evenodd" fill-opacity="1" stroke="#000000" stroke-opacity="1" stroke-width="3.2"/>
<circle clip-path="url(#clip912)" cx="879.347" cy="213.072" r="14" fill="#009af9" fill-rule="evenodd" fill-opacity="1" stroke="#000000" stroke-opacity="1" stroke-width="3.2"/>
<circle clip-path="url(#clip912)" cx="889.652" cy="212.904" r="14" fill="#009af9" fill-rule="evenodd" fill-opacity="1" stroke="#000000" stroke-opacity="1" stroke-width="3.2"/>
<circle clip-path="url(#clip912)" cx="899.958" cy="212.732" r="14" fill="#009af9" fill-rule="evenodd" fill-opacity="1" stroke="#000000" stroke-opacity="1" stroke-width="3.2"/>
<circle clip-path="url(#clip912)" cx="910.264" cy="212.555" r="14" fill="#009af9" fill-rule="evenodd" fill-opacity="1" stroke="#000000" stroke-opacity="1" stroke-width="3.2"/>
<circle clip-path="url(#clip912)" cx="920.57" cy="212.375" r="14" fill="#009af9" fill-rule="evenodd" fill-opacity="1" stroke="#000000" stroke-opacity="1" stroke-width="3.2"/>
<circle clip-path="url(#clip912)" cx="930.875" cy="212.19" r="14" fill="#009af9" fill-rule="evenodd" fill-opacity="1" stroke="#000000" stroke-opacity="1" stroke-width="3.2"/>
<circle clip-path="url(#clip912)" cx="941.181" cy="212" r="14" fill="#009af9" fill-rule="evenodd" fill-opacity="1" stroke="#000000" stroke-opacity="1" stroke-width="3.2"/>
<circle clip-path="url(#clip912)" cx="951.487" cy="211.807" r="14" fill="#009af9" fill-rule="evenodd" fill-opacity="1" stroke="#000000" stroke-opacity="1" stroke-width="3.2"/>
<circle clip-path="url(#clip912)" cx="961.792" cy="211.609" r="14" fill="#009af9" fill-rule="evenodd" fill-opacity="1" stroke="#000000" stroke-opacity="1" stroke-width="3.2"/>
<circle clip-path="url(#clip912)" cx="972.098" cy="211.406" r="14" fill="#009af9" fill-rule="evenodd" fill-opacity="1" stroke="#000000" stroke-opacity="1" stroke-width="3.2"/>
<circle clip-path="url(#clip912)" cx="982.404" cy="211.2" r="14" fill="#009af9" fill-rule="evenodd" fill-opacity="1" stroke="#000000" stroke-opacity="1" stroke-width="3.2"/>
<circle clip-path="url(#clip912)" cx="992.71" cy="210.989" r="14" fill="#009af9" fill-rule="evenodd" fill-opacity="1" stroke="#000000" stroke-opacity="1" stroke-width="3.2"/>
<circle clip-path="url(#clip912)" cx="1003.02" cy="210.775" r="14" fill="#009af9" fill-rule="evenodd" fill-opacity="1" stroke="#000000" stroke-opacity="1" stroke-width="3.2"/>
<circle clip-path="url(#clip912)" cx="1013.32" cy="210.556" r="14" fill="#009af9" fill-rule="evenodd" fill-opacity="1" stroke="#000000" stroke-opacity="1" stroke-width="3.2"/>
<circle clip-path="url(#clip912)" cx="1023.63" cy="210.333" r="14" fill="#009af9" fill-rule="evenodd" fill-opacity="1" stroke="#000000" stroke-opacity="1" stroke-width="3.2"/>
<circle clip-path="url(#clip912)" cx="1033.93" cy="210.106" r="14" fill="#009af9" fill-rule="evenodd" fill-opacity="1" stroke="#000000" stroke-opacity="1" stroke-width="3.2"/>
<circle clip-path="url(#clip912)" cx="1044.24" cy="209.875" r="14" fill="#009af9" fill-rule="evenodd" fill-opacity="1" stroke="#000000" stroke-opacity="1" stroke-width="3.2"/>
<circle clip-path="url(#clip912)" cx="1054.54" cy="209.641" r="14" fill="#009af9" fill-rule="evenodd" fill-opacity="1" stroke="#000000" stroke-opacity="1" stroke-width="3.2"/>
<circle clip-path="url(#clip912)" cx="1064.85" cy="209.402" r="14" fill="#009af9" fill-rule="evenodd" fill-opacity="1" stroke="#000000" stroke-opacity="1" stroke-width="3.2"/>
<circle clip-path="url(#clip912)" cx="1075.16" cy="209.16" r="14" fill="#009af9" fill-rule="evenodd" fill-opacity="1" stroke="#000000" stroke-opacity="1" stroke-width="3.2"/>
<circle clip-path="url(#clip912)" cx="1085.46" cy="208.915" r="14" fill="#009af9" fill-rule="evenodd" fill-opacity="1" stroke="#000000" stroke-opacity="1" stroke-width="3.2"/>
<circle clip-path="url(#clip912)" cx="1095.77" cy="208.666" r="14" fill="#009af9" fill-rule="evenodd" fill-opacity="1" stroke="#000000" stroke-opacity="1" stroke-width="3.2"/>
<circle clip-path="url(#clip912)" cx="1106.07" cy="208.414" r="14" fill="#009af9" fill-rule="evenodd" fill-opacity="1" stroke="#000000" stroke-opacity="1" stroke-width="3.2"/>
<circle clip-path="url(#clip912)" cx="1116.38" cy="208.159" r="14" fill="#009af9" fill-rule="evenodd" fill-opacity="1" stroke="#000000" stroke-opacity="1" stroke-width="3.2"/>
<circle clip-path="url(#clip912)" cx="1126.68" cy="207.902" r="14" fill="#009af9" fill-rule="evenodd" fill-opacity="1" stroke="#000000" stroke-opacity="1" stroke-width="3.2"/>
<circle clip-path="url(#clip912)" cx="1136.99" cy="207.641" r="14" fill="#009af9" fill-rule="evenodd" fill-opacity="1" stroke="#000000" stroke-opacity="1" stroke-width="3.2"/>
<circle clip-path="url(#clip912)" cx="1147.3" cy="207.378" r="14" fill="#009af9" fill-rule="evenodd" fill-opacity="1" stroke="#000000" stroke-opacity="1" stroke-width="3.2"/>
<circle clip-path="url(#clip912)" cx="1157.6" cy="207.112" r="14" fill="#009af9" fill-rule="evenodd" fill-opacity="1" stroke="#000000" stroke-opacity="1" stroke-width="3.2"/>
<circle clip-path="url(#clip912)" cx="1167.91" cy="206.844" r="14" fill="#009af9" fill-rule="evenodd" fill-opacity="1" stroke="#000000" stroke-opacity="1" stroke-width="3.2"/>
<circle clip-path="url(#clip912)" cx="1178.21" cy="206.574" r="14" fill="#009af9" fill-rule="evenodd" fill-opacity="1" stroke="#000000" stroke-opacity="1" stroke-width="3.2"/>
<circle clip-path="url(#clip912)" cx="1188.52" cy="206.303" r="14" fill="#009af9" fill-rule="evenodd" fill-opacity="1" stroke="#000000" stroke-opacity="1" stroke-width="3.2"/>
<circle clip-path="url(#clip912)" cx="1198.82" cy="206.029" r="14" fill="#009af9" fill-rule="evenodd" fill-opacity="1" stroke="#000000" stroke-opacity="1" stroke-width="3.2"/>
<circle clip-path="url(#clip912)" cx="1209.13" cy="205.754" r="14" fill="#009af9" fill-rule="evenodd" fill-opacity="1" stroke="#000000" stroke-opacity="1" stroke-width="3.2"/>
<circle clip-path="url(#clip912)" cx="1219.44" cy="205.478" r="14" fill="#009af9" fill-rule="evenodd" fill-opacity="1" stroke="#000000" stroke-opacity="1" stroke-width="3.2"/>
<circle clip-path="url(#clip912)" cx="1229.74" cy="205.202" r="14" fill="#009af9" fill-rule="evenodd" fill-opacity="1" stroke="#000000" stroke-opacity="1" stroke-width="3.2"/>
<circle clip-path="url(#clip912)" cx="1240.05" cy="204.925" r="14" fill="#009af9" fill-rule="evenodd" fill-opacity="1" stroke="#000000" stroke-opacity="1" stroke-width="3.2"/>
<circle clip-path="url(#clip912)" cx="1250.35" cy="204.652" r="14" fill="#009af9" fill-rule="evenodd" fill-opacity="1" stroke="#000000" stroke-opacity="1" stroke-width="3.2"/>
<circle clip-path="url(#clip912)" cx="1260.66" cy="204.39" r="14" fill="#009af9" fill-rule="evenodd" fill-opacity="1" stroke="#000000" stroke-opacity="1" stroke-width="3.2"/>
<circle clip-path="url(#clip912)" cx="1270.96" cy="204.112" r="14" fill="#009af9" fill-rule="evenodd" fill-opacity="1" stroke="#000000" stroke-opacity="1" stroke-width="3.2"/>
<circle clip-path="url(#clip912)" cx="1281.27" cy="203.831" r="14" fill="#009af9" fill-rule="evenodd" fill-opacity="1" stroke="#000000" stroke-opacity="1" stroke-width="3.2"/>
<circle clip-path="url(#clip912)" cx="1291.58" cy="203.553" r="14" fill="#009af9" fill-rule="evenodd" fill-opacity="1" stroke="#000000" stroke-opacity="1" stroke-width="3.2"/>
<circle clip-path="url(#clip912)" cx="1301.88" cy="203.276" r="14" fill="#009af9" fill-rule="evenodd" fill-opacity="1" stroke="#000000" stroke-opacity="1" stroke-width="3.2"/>
<circle clip-path="url(#clip912)" cx="1312.19" cy="203" r="14" fill="#009af9" fill-rule="evenodd" fill-opacity="1" stroke="#000000" stroke-opacity="1" stroke-width="3.2"/>
<circle clip-path="url(#clip912)" cx="1322.49" cy="202.726" r="14" fill="#009af9" fill-rule="evenodd" fill-opacity="1" stroke="#000000" stroke-opacity="1" stroke-width="3.2"/>
<circle clip-path="url(#clip912)" cx="1332.8" cy="202.452" r="14" fill="#009af9" fill-rule="evenodd" fill-opacity="1" stroke="#000000" stroke-opacity="1" stroke-width="3.2"/>
<circle clip-path="url(#clip912)" cx="1343.1" cy="202.18" r="14" fill="#009af9" fill-rule="evenodd" fill-opacity="1" stroke="#000000" stroke-opacity="1" stroke-width="3.2"/>
<circle clip-path="url(#clip912)" cx="1353.41" cy="201.909" r="14" fill="#009af9" fill-rule="evenodd" fill-opacity="1" stroke="#000000" stroke-opacity="1" stroke-width="3.2"/>
<circle clip-path="url(#clip912)" cx="1363.72" cy="201.64" r="14" fill="#009af9" fill-rule="evenodd" fill-opacity="1" stroke="#000000" stroke-opacity="1" stroke-width="3.2"/>
<circle clip-path="url(#clip912)" cx="1374.02" cy="201.374" r="14" fill="#009af9" fill-rule="evenodd" fill-opacity="1" stroke="#000000" stroke-opacity="1" stroke-width="3.2"/>
<circle clip-path="url(#clip912)" cx="1384.33" cy="201.109" r="14" fill="#009af9" fill-rule="evenodd" fill-opacity="1" stroke="#000000" stroke-opacity="1" stroke-width="3.2"/>
<circle clip-path="url(#clip912)" cx="1394.63" cy="200.847" r="14" fill="#009af9" fill-rule="evenodd" fill-opacity="1" stroke="#000000" stroke-opacity="1" stroke-width="3.2"/>
<circle clip-path="url(#clip912)" cx="1404.94" cy="200.587" r="14" fill="#009af9" fill-rule="evenodd" fill-opacity="1" stroke="#000000" stroke-opacity="1" stroke-width="3.2"/>
<circle clip-path="url(#clip912)" cx="1415.24" cy="200.331" r="14" fill="#009af9" fill-rule="evenodd" fill-opacity="1" stroke="#000000" stroke-opacity="1" stroke-width="3.2"/>
<circle clip-path="url(#clip912)" cx="1425.55" cy="200.077" r="14" fill="#009af9" fill-rule="evenodd" fill-opacity="1" stroke="#000000" stroke-opacity="1" stroke-width="3.2"/>
<circle clip-path="url(#clip912)" cx="1435.86" cy="199.826" r="14" fill="#009af9" fill-rule="evenodd" fill-opacity="1" stroke="#000000" stroke-opacity="1" stroke-width="3.2"/>
<circle clip-path="url(#clip912)" cx="1446.16" cy="199.579" r="14" fill="#009af9" fill-rule="evenodd" fill-opacity="1" stroke="#000000" stroke-opacity="1" stroke-width="3.2"/>
<circle clip-path="url(#clip912)" cx="1456.47" cy="199.334" r="14" fill="#009af9" fill-rule="evenodd" fill-opacity="1" stroke="#000000" stroke-opacity="1" stroke-width="3.2"/>
<circle clip-path="url(#clip912)" cx="1466.77" cy="199.094" r="14" fill="#009af9" fill-rule="evenodd" fill-opacity="1" stroke="#000000" stroke-opacity="1" stroke-width="3.2"/>
<circle clip-path="url(#clip912)" cx="1477.08" cy="198.856" r="14" fill="#009af9" fill-rule="evenodd" fill-opacity="1" stroke="#000000" stroke-opacity="1" stroke-width="3.2"/>
<circle clip-path="url(#clip912)" cx="1487.38" cy="198.623" r="14" fill="#009af9" fill-rule="evenodd" fill-opacity="1" stroke="#000000" stroke-opacity="1" stroke-width="3.2"/>
<circle clip-path="url(#clip912)" cx="1497.69" cy="198.393" r="14" fill="#009af9" fill-rule="evenodd" fill-opacity="1" stroke="#000000" stroke-opacity="1" stroke-width="3.2"/>
<circle clip-path="url(#clip912)" cx="1508" cy="198.168" r="14" fill="#009af9" fill-rule="evenodd" fill-opacity="1" stroke="#000000" stroke-opacity="1" stroke-width="3.2"/>
<circle clip-path="url(#clip912)" cx="1518.3" cy="197.946" r="14" fill="#009af9" fill-rule="evenodd" fill-opacity="1" stroke="#000000" stroke-opacity="1" stroke-width="3.2"/>
<circle clip-path="url(#clip912)" cx="1528.61" cy="197.728" r="14" fill="#009af9" fill-rule="evenodd" fill-opacity="1" stroke="#000000" stroke-opacity="1" stroke-width="3.2"/>
<circle clip-path="url(#clip912)" cx="1538.91" cy="197.514" r="14" fill="#009af9" fill-rule="evenodd" fill-opacity="1" stroke="#000000" stroke-opacity="1" stroke-width="3.2"/>
<circle clip-path="url(#clip912)" cx="1549.22" cy="197.305" r="14" fill="#009af9" fill-rule="evenodd" fill-opacity="1" stroke="#000000" stroke-opacity="1" stroke-width="3.2"/>
<circle clip-path="url(#clip912)" cx="1559.52" cy="197.1" r="14" fill="#009af9" fill-rule="evenodd" fill-opacity="1" stroke="#000000" stroke-opacity="1" stroke-width="3.2"/>
<circle clip-path="url(#clip912)" cx="1569.83" cy="196.899" r="14" fill="#009af9" fill-rule="evenodd" fill-opacity="1" stroke="#000000" stroke-opacity="1" stroke-width="3.2"/>
<circle clip-path="url(#clip912)" cx="1580.14" cy="196.702" r="14" fill="#009af9" fill-rule="evenodd" fill-opacity="1" stroke="#000000" stroke-opacity="1" stroke-width="3.2"/>
<circle clip-path="url(#clip912)" cx="1590.44" cy="196.509" r="14" fill="#009af9" fill-rule="evenodd" fill-opacity="1" stroke="#000000" stroke-opacity="1" stroke-width="3.2"/>
<circle clip-path="url(#clip912)" cx="1600.75" cy="196.321" r="14" fill="#009af9" fill-rule="evenodd" fill-opacity="1" stroke="#000000" stroke-opacity="1" stroke-width="3.2"/>
<circle clip-path="url(#clip912)" cx="1611.05" cy="196.137" r="14" fill="#009af9" fill-rule="evenodd" fill-opacity="1" stroke="#000000" stroke-opacity="1" stroke-width="3.2"/>
<circle clip-path="url(#clip912)" cx="1621.36" cy="195.957" r="14" fill="#009af9" fill-rule="evenodd" fill-opacity="1" stroke="#000000" stroke-opacity="1" stroke-width="3.2"/>
<circle clip-path="url(#clip912)" cx="1631.66" cy="195.782" r="14" fill="#009af9" fill-rule="evenodd" fill-opacity="1" stroke="#000000" stroke-opacity="1" stroke-width="3.2"/>
<circle clip-path="url(#clip912)" cx="1641.97" cy="195.611" r="14" fill="#009af9" fill-rule="evenodd" fill-opacity="1" stroke="#000000" stroke-opacity="1" stroke-width="3.2"/>
<circle clip-path="url(#clip912)" cx="1652.28" cy="195.444" r="14" fill="#009af9" fill-rule="evenodd" fill-opacity="1" stroke="#000000" stroke-opacity="1" stroke-width="3.2"/>
<circle clip-path="url(#clip912)" cx="1662.58" cy="195.282" r="14" fill="#009af9" fill-rule="evenodd" fill-opacity="1" stroke="#000000" stroke-opacity="1" stroke-width="3.2"/>
<circle clip-path="url(#clip912)" cx="1672.89" cy="195.123" r="14" fill="#009af9" fill-rule="evenodd" fill-opacity="1" stroke="#000000" stroke-opacity="1" stroke-width="3.2"/>
<circle clip-path="url(#clip912)" cx="1683.19" cy="194.969" r="14" fill="#009af9" fill-rule="evenodd" fill-opacity="1" stroke="#000000" stroke-opacity="1" stroke-width="3.2"/>
<circle clip-path="url(#clip912)" cx="1693.5" cy="194.819" r="14" fill="#009af9" fill-rule="evenodd" fill-opacity="1" stroke="#000000" stroke-opacity="1" stroke-width="3.2"/>
<circle clip-path="url(#clip912)" cx="1703.8" cy="194.673" r="14" fill="#009af9" fill-rule="evenodd" fill-opacity="1" stroke="#000000" stroke-opacity="1" stroke-width="3.2"/>
<circle clip-path="url(#clip912)" cx="1714.11" cy="194.531" r="14" fill="#009af9" fill-rule="evenodd" fill-opacity="1" stroke="#000000" stroke-opacity="1" stroke-width="3.2"/>
<circle clip-path="url(#clip912)" cx="1724.42" cy="194.393" r="14" fill="#009af9" fill-rule="evenodd" fill-opacity="1" stroke="#000000" stroke-opacity="1" stroke-width="3.2"/>
<circle clip-path="url(#clip912)" cx="1734.72" cy="194.259" r="14" fill="#009af9" fill-rule="evenodd" fill-opacity="1" stroke="#000000" stroke-opacity="1" stroke-width="3.2"/>
<circle clip-path="url(#clip912)" cx="1745.03" cy="194.129" r="14" fill="#009af9" fill-rule="evenodd" fill-opacity="1" stroke="#000000" stroke-opacity="1" stroke-width="3.2"/>
<circle clip-path="url(#clip912)" cx="1755.33" cy="194.002" r="14" fill="#009af9" fill-rule="evenodd" fill-opacity="1" stroke="#000000" stroke-opacity="1" stroke-width="3.2"/>
<circle clip-path="url(#clip912)" cx="1765.64" cy="193.88" r="14" fill="#009af9" fill-rule="evenodd" fill-opacity="1" stroke="#000000" stroke-opacity="1" stroke-width="3.2"/>
<circle clip-path="url(#clip912)" cx="1775.94" cy="193.761" r="14" fill="#009af9" fill-rule="evenodd" fill-opacity="1" stroke="#000000" stroke-opacity="1" stroke-width="3.2"/>
<circle clip-path="url(#clip912)" cx="1786.25" cy="193.645" r="14" fill="#009af9" fill-rule="evenodd" fill-opacity="1" stroke="#000000" stroke-opacity="1" stroke-width="3.2"/>
<circle clip-path="url(#clip912)" cx="1796.56" cy="193.533" r="14" fill="#009af9" fill-rule="evenodd" fill-opacity="1" stroke="#000000" stroke-opacity="1" stroke-width="3.2"/>
<circle clip-path="url(#clip912)" cx="1806.86" cy="193.425" r="14" fill="#009af9" fill-rule="evenodd" fill-opacity="1" stroke="#000000" stroke-opacity="1" stroke-width="3.2"/>
<circle clip-path="url(#clip912)" cx="1817.17" cy="193.32" r="14" fill="#009af9" fill-rule="evenodd" fill-opacity="1" stroke="#000000" stroke-opacity="1" stroke-width="3.2"/>
<circle clip-path="url(#clip912)" cx="1827.47" cy="193.218" r="14" fill="#009af9" fill-rule="evenodd" fill-opacity="1" stroke="#000000" stroke-opacity="1" stroke-width="3.2"/>
<circle clip-path="url(#clip912)" cx="1837.78" cy="193.119" r="14" fill="#009af9" fill-rule="evenodd" fill-opacity="1" stroke="#000000" stroke-opacity="1" stroke-width="3.2"/>
<circle clip-path="url(#clip912)" cx="1848.08" cy="193.024" r="14" fill="#009af9" fill-rule="evenodd" fill-opacity="1" stroke="#000000" stroke-opacity="1" stroke-width="3.2"/>
<circle clip-path="url(#clip912)" cx="1858.39" cy="192.932" r="14" fill="#009af9" fill-rule="evenodd" fill-opacity="1" stroke="#000000" stroke-opacity="1" stroke-width="3.2"/>
<circle clip-path="url(#clip912)" cx="1868.7" cy="192.842" r="14" fill="#009af9" fill-rule="evenodd" fill-opacity="1" stroke="#000000" stroke-opacity="1" stroke-width="3.2"/>
<circle clip-path="url(#clip912)" cx="1879" cy="192.756" r="14" fill="#009af9" fill-rule="evenodd" fill-opacity="1" stroke="#000000" stroke-opacity="1" stroke-width="3.2"/>
<circle clip-path="url(#clip912)" cx="1889.31" cy="192.673" r="14" fill="#009af9" fill-rule="evenodd" fill-opacity="1" stroke="#000000" stroke-opacity="1" stroke-width="3.2"/>
<circle clip-path="url(#clip912)" cx="1899.61" cy="192.592" r="14" fill="#009af9" fill-rule="evenodd" fill-opacity="1" stroke="#000000" stroke-opacity="1" stroke-width="3.2"/>
<circle clip-path="url(#clip912)" cx="1909.92" cy="192.514" r="14" fill="#009af9" fill-rule="evenodd" fill-opacity="1" stroke="#000000" stroke-opacity="1" stroke-width="3.2"/>
<circle clip-path="url(#clip912)" cx="1920.22" cy="192.438" r="14" fill="#009af9" fill-rule="evenodd" fill-opacity="1" stroke="#000000" stroke-opacity="1" stroke-width="3.2"/>
<circle clip-path="url(#clip912)" cx="1930.53" cy="192.366" r="14" fill="#009af9" fill-rule="evenodd" fill-opacity="1" stroke="#000000" stroke-opacity="1" stroke-width="3.2"/>
<circle clip-path="url(#clip912)" cx="1940.84" cy="192.295" r="14" fill="#009af9" fill-rule="evenodd" fill-opacity="1" stroke="#000000" stroke-opacity="1" stroke-width="3.2"/>
<circle clip-path="url(#clip912)" cx="1951.14" cy="192.227" r="14" fill="#009af9" fill-rule="evenodd" fill-opacity="1" stroke="#000000" stroke-opacity="1" stroke-width="3.2"/>
<circle clip-path="url(#clip912)" cx="1961.45" cy="192.162" r="14" fill="#009af9" fill-rule="evenodd" fill-opacity="1" stroke="#000000" stroke-opacity="1" stroke-width="3.2"/>
<circle clip-path="url(#clip912)" cx="1971.75" cy="192.099" r="14" fill="#009af9" fill-rule="evenodd" fill-opacity="1" stroke="#000000" stroke-opacity="1" stroke-width="3.2"/>
<circle clip-path="url(#clip912)" cx="1982.06" cy="192.038" r="14" fill="#009af9" fill-rule="evenodd" fill-opacity="1" stroke="#000000" stroke-opacity="1" stroke-width="3.2"/>
<circle clip-path="url(#clip912)" cx="1992.36" cy="191.979" r="14" fill="#009af9" fill-rule="evenodd" fill-opacity="1" stroke="#000000" stroke-opacity="1" stroke-width="3.2"/>
<circle clip-path="url(#clip912)" cx="2002.67" cy="191.922" r="14" fill="#009af9" fill-rule="evenodd" fill-opacity="1" stroke="#000000" stroke-opacity="1" stroke-width="3.2"/>
<circle clip-path="url(#clip912)" cx="2012.98" cy="191.867" r="14" fill="#009af9" fill-rule="evenodd" fill-opacity="1" stroke="#000000" stroke-opacity="1" stroke-width="3.2"/>
<circle clip-path="url(#clip912)" cx="2023.28" cy="191.814" r="14" fill="#009af9" fill-rule="evenodd" fill-opacity="1" stroke="#000000" stroke-opacity="1" stroke-width="3.2"/>
<circle clip-path="url(#clip912)" cx="2033.59" cy="191.763" r="14" fill="#009af9" fill-rule="evenodd" fill-opacity="1" stroke="#000000" stroke-opacity="1" stroke-width="3.2"/>
<circle clip-path="url(#clip912)" cx="2043.89" cy="191.714" r="14" fill="#009af9" fill-rule="evenodd" fill-opacity="1" stroke="#000000" stroke-opacity="1" stroke-width="3.2"/>
<circle clip-path="url(#clip912)" cx="2054.2" cy="191.667" r="14" fill="#009af9" fill-rule="evenodd" fill-opacity="1" stroke="#000000" stroke-opacity="1" stroke-width="3.2"/>
<circle clip-path="url(#clip912)" cx="2064.5" cy="191.621" r="14" fill="#009af9" fill-rule="evenodd" fill-opacity="1" stroke="#000000" stroke-opacity="1" stroke-width="3.2"/>
<circle clip-path="url(#clip912)" cx="2074.81" cy="191.577" r="14" fill="#009af9" fill-rule="evenodd" fill-opacity="1" stroke="#000000" stroke-opacity="1" stroke-width="3.2"/>
<circle clip-path="url(#clip912)" cx="2085.12" cy="191.535" r="14" fill="#009af9" fill-rule="evenodd" fill-opacity="1" stroke="#000000" stroke-opacity="1" stroke-width="3.2"/>
<circle clip-path="url(#clip912)" cx="2095.42" cy="191.494" r="14" fill="#009af9" fill-rule="evenodd" fill-opacity="1" stroke="#000000" stroke-opacity="1" stroke-width="3.2"/>
<circle clip-path="url(#clip912)" cx="2105.73" cy="191.455" r="14" fill="#009af9" fill-rule="evenodd" fill-opacity="1" stroke="#000000" stroke-opacity="1" stroke-width="3.2"/>
<circle clip-path="url(#clip912)" cx="2116.03" cy="191.417" r="14" fill="#009af9" fill-rule="evenodd" fill-opacity="1" stroke="#000000" stroke-opacity="1" stroke-width="3.2"/>
<circle clip-path="url(#clip912)" cx="2126.34" cy="191.381" r="14" fill="#009af9" fill-rule="evenodd" fill-opacity="1" stroke="#000000" stroke-opacity="1" stroke-width="3.2"/>
<circle clip-path="url(#clip912)" cx="2136.64" cy="191.346" r="14" fill="#009af9" fill-rule="evenodd" fill-opacity="1" stroke="#000000" stroke-opacity="1" stroke-width="3.2"/>
<circle clip-path="url(#clip912)" cx="2146.95" cy="191.312" r="14" fill="#009af9" fill-rule="evenodd" fill-opacity="1" stroke="#000000" stroke-opacity="1" stroke-width="3.2"/>
<circle clip-path="url(#clip912)" cx="2157.26" cy="191.279" r="14" fill="#009af9" fill-rule="evenodd" fill-opacity="1" stroke="#000000" stroke-opacity="1" stroke-width="3.2"/>
<circle clip-path="url(#clip912)" cx="2167.56" cy="191.248" r="14" fill="#009af9" fill-rule="evenodd" fill-opacity="1" stroke="#000000" stroke-opacity="1" stroke-width="3.2"/>
<circle clip-path="url(#clip912)" cx="2177.87" cy="191.218" r="14" fill="#009af9" fill-rule="evenodd" fill-opacity="1" stroke="#000000" stroke-opacity="1" stroke-width="3.2"/>
<circle clip-path="url(#clip912)" cx="2188.17" cy="191.189" r="14" fill="#009af9" fill-rule="evenodd" fill-opacity="1" stroke="#000000" stroke-opacity="1" stroke-width="3.2"/>
<circle clip-path="url(#clip912)" cx="2198.48" cy="191.161" r="14" fill="#009af9" fill-rule="evenodd" fill-opacity="1" stroke="#000000" stroke-opacity="1" stroke-width="3.2"/>
<circle clip-path="url(#clip912)" cx="2208.78" cy="191.134" r="14" fill="#009af9" fill-rule="evenodd" fill-opacity="1" stroke="#000000" stroke-opacity="1" stroke-width="3.2"/>
<circle clip-path="url(#clip912)" cx="2219.09" cy="191.109" r="14" fill="#009af9" fill-rule="evenodd" fill-opacity="1" stroke="#000000" stroke-opacity="1" stroke-width="3.2"/>
<circle clip-path="url(#clip912)" cx="2229.4" cy="191.084" r="14" fill="#009af9" fill-rule="evenodd" fill-opacity="1" stroke="#000000" stroke-opacity="1" stroke-width="3.2"/>
<circle clip-path="url(#clip912)" cx="2239.7" cy="191.06" r="14" fill="#009af9" fill-rule="evenodd" fill-opacity="1" stroke="#000000" stroke-opacity="1" stroke-width="3.2"/>
<circle clip-path="url(#clip912)" cx="2250.01" cy="191.037" r="14" fill="#009af9" fill-rule="evenodd" fill-opacity="1" stroke="#000000" stroke-opacity="1" stroke-width="3.2"/>
<circle clip-path="url(#clip912)" cx="2260.31" cy="191.015" r="14" fill="#009af9" fill-rule="evenodd" fill-opacity="1" stroke="#000000" stroke-opacity="1" stroke-width="3.2"/>
<circle clip-path="url(#clip912)" cx="2270.62" cy="190.994" r="14" fill="#009af9" fill-rule="evenodd" fill-opacity="1" stroke="#000000" stroke-opacity="1" stroke-width="3.2"/>
<circle clip-path="url(#clip912)" cx="2280.93" cy="190.974" r="14" fill="#009af9" fill-rule="evenodd" fill-opacity="1" stroke="#000000" stroke-opacity="1" stroke-width="3.2"/>
<circle clip-path="url(#clip912)" cx="2291.23" cy="190.954" r="14" fill="#009af9" fill-rule="evenodd" fill-opacity="1" stroke="#000000" stroke-opacity="1" stroke-width="3.2"/>
<polyline clip-path="url(#clip912)" style="stroke:#e26f46; stroke-linecap:butt; stroke-linejoin:round; stroke-width:4; stroke-opacity:1; fill:none" points="
  240.392,217.632 260.42,217.593 445.609,217.046 556.9,216.491 650.995,215.825 753.208,214.83 847.44,213.604 897.953,212.808 948.466,211.909 1006.99,210.74 
  1065.52,209.44 1169.53,206.861 1260.75,204.43 1360.2,201.774 1460.24,199.284 1515.54,198.04 1570.85,196.912 1623.47,195.952 1676.09,195.103 1730.8,194.335 
  1785.51,193.677 1831.57,193.2 1877.63,192.786 1990.09,192.005 2095.8,191.502 2265.17,191.006 2291.23,190.954 
  "/>
<polyline clip-path="url(#clip912)" style="stroke:#3da44d; stroke-linecap:butt; stroke-linejoin:round; stroke-width:4; stroke-opacity:1; fill:none" points="
  240.392,204.098 260.42,204.082 445.609,203.876 556.9,203.676 650.995,203.448 753.208,203.131 847.44,202.779 948.466,202.364 1065.52,201.909 1117.53,201.745 
  1169.53,201.621 1192.34,201.582 1215.14,201.551 1226.54,201.53 1237.95,201.426 1240.8,201.345 1243.65,201.206 1246.5,200.968 1249.35,200.564 1250.77,200.27 
  1252.2,199.893 1253.62,199.413 1255.05,198.809 1256.47,198.058 1257.9,197.142 1259.33,196.045 1260.75,194.765 1262.3,193.173 1263.86,191.416 1265.41,189.557 
  1266.97,187.676 1268.52,185.858 1270.07,184.176 1271.63,182.683 1273.18,181.404 1274.74,180.344 1276.29,179.486 1277.84,178.808 1279.4,178.282 1282.51,177.572 
  1285.61,177.173 1288.72,176.956 1291.83,176.845 1294.94,176.793 1298.04,176.775 1304.26,176.788 1310.48,176.832 1335.34,177.122 1360.2,177.537 1385.21,178.068 
  1410.22,178.704 1435.23,179.434 1460.24,180.247 1515.54,182.271 1570.85,184.494 1623.47,186.676 1676.09,188.826 1730.8,190.952 1785.51,192.911 1831.57,194.408 
  1877.63,195.757 1933.86,197.205 1990.09,198.444 2042.94,199.433 2095.8,200.27 2180.48,201.339 2265.17,202.137 2278.2,202.24 2291.23,202.338 
  "/>
<polyline clip-path="url(#clip912)" style="stroke:#c271d2; stroke-linecap:butt; stroke-linejoin:round; stroke-width:4; stroke-opacity:1; fill:none" points="
  240.392,205.047 260.42,205.104 445.609,205.83 556.9,206.468 650.995,207.111 753.208,207.834 847.44,208.369 948.466,208.54 1065.52,207.841 1117.53,207.162 
  1169.53,206.277 1192.34,205.84 1215.14,205.625 1220.84,206.023 1226.54,207.473 1232.25,212.119 1237.95,226.393 1240.8,242.097 1243.65,269.05 1245.07,288.926 
  1246.5,314.676 1247.92,347.826 1249.35,390.155 1250.77,443.629 1252.2,510.243 1253.62,591.729 1255.05,689.073 1256.47,801.825 1257.9,927.273 1259.33,1059.65 
  1260.75,1189.79 1261.53,1255.54 1262.3,1314.86 1263.08,1365.58 1263.86,1405.69 1264.64,1433.49 1265.41,1447.77 1266.19,1447.87 1266.97,1433.79 1267.74,1406.16 
  1268.52,1366.18 1269.3,1315.54 1270.07,1256.24 1271.63,1120.37 1273.18,975.365 1274.74,834.874 1276.29,707.838 1277.07,650.897 1277.84,598.678 1278.62,551.208 
  1279.4,508.381 1280.95,435.78 1282.51,378.63 1284.06,334.341 1285.61,300.408 1287.17,274.62 1288.72,255.131 1290.27,240.453 1291.83,229.417 1294.94,214.875 
  1298.04,206.58 1304.26,198.797 1310.48,195.562 1322.91,192.24 1335.34,189.651 1347.77,187.189 1360.2,184.81 1410.22,176.202 1460.24,169.471 1570.85,162.047 
  1676.09,163.204 1785.51,169.36 1877.63,175.9 1990.09,183.516 2095.8,189.416 2265.17,196.012 2291.23,196.754 
  "/>
<polyline clip-path="url(#clip912)" style="stroke:#ac8d18; stroke-linecap:butt; stroke-linejoin:round; stroke-width:4; stroke-opacity:1; fill:none" points="
  240.392,202.909 260.42,202.909 445.609,202.909 556.9,202.909 650.995,202.909 753.208,202.909 847.44,202.909 948.466,202.909 1065.52,202.909 1117.53,202.909 
  1169.53,202.909 1192.34,202.909 1215.14,202.909 1226.54,202.904 1237.95,202.855 1240.8,202.815 1243.65,202.746 1246.5,202.628 1249.35,202.427 1250.77,202.28 
  1252.2,202.092 1253.62,201.852 1255.05,201.55 1256.47,201.175 1257.9,200.717 1259.33,200.168 1260.75,199.529 1262.3,198.733 1263.86,197.855 1265.41,196.925 
  1266.97,195.985 1268.52,195.075 1270.07,194.234 1271.63,193.487 1273.18,192.846 1274.74,192.315 1276.29,191.885 1277.84,191.544 1279.4,191.278 1280.95,191.074 
  1282.51,190.918 1284.06,190.801 1285.61,190.713 1288.72,190.597 1291.83,190.534 1294.94,190.499 1298.04,190.479 1304.26,190.463 1310.48,190.458 1335.34,190.456 
  1360.2,190.456 1410.22,190.456 1460.24,190.456 1570.85,190.456 1676.09,190.456 1785.51,190.456 1877.63,190.456 1990.09,190.456 2095.8,190.456 2265.17,190.456 
  2291.23,190.456 
  "/>
<path clip-path="url(#clip910)" d="
M1984.61 1441.02 L2280.29 1441.02 L2280.29 1129.98 L1984.61 1129.98  Z
  " fill="#ffffff" fill-rule="evenodd" fill-opacity="1"/>
<polyline clip-path="url(#clip910)" style="stroke:#000000; stroke-linecap:butt; stroke-linejoin:round; stroke-width:4; stroke-opacity:1; fill:none" points="
  1984.61,1441.02 2280.29,1441.02 2280.29,1129.98 1984.61,1129.98 1984.61,1441.02 
  "/>
<polyline clip-path="url(#clip910)" style="stroke:#009af9; stroke-linecap:butt; stroke-linejoin:round; stroke-width:4; stroke-opacity:1; fill:none" points="
  2008.76,1181.82 2153.69,1181.82 
  "/>
<circle clip-path="url(#clip910)" cx="2081.22" cy="1181.82" r="23" fill="#009af9" fill-rule="evenodd" fill-opacity="1" stroke="#000000" stroke-opacity="1" stroke-width="5.12"/>
<path clip-path="url(#clip910)" d="M2191.68 1201.5 Q2189.88 1206.13 2188.17 1207.54 Q2186.45 1208.96 2183.58 1208.96 L2180.18 1208.96 L2180.18 1205.39 L2182.68 1205.39 Q2184.44 1205.39 2185.41 1204.56 Q2186.38 1203.72 2187.56 1200.62 L2188.33 1198.68 L2177.84 1173.17 L2182.35 1173.17 L2190.46 1193.45 L2198.56 1173.17 L2203.07 1173.17 L2191.68 1201.5 Z" fill="#000000" fill-rule="evenodd" fill-opacity="1" /><path clip-path="url(#clip910)" d="M2210.36 1195.16 L2218 1195.16 L2218 1168.79 L2209.69 1170.46 L2209.69 1166.2 L2217.96 1164.54 L2222.63 1164.54 L2222.63 1195.16 L2230.27 1195.16 L2230.27 1199.1 L2210.36 1199.1 L2210.36 1195.16 Z" fill="#000000" fill-rule="evenodd" fill-opacity="1" /><polyline clip-path="url(#clip910)" style="stroke:#e26f46; stroke-linecap:butt; stroke-linejoin:round; stroke-width:4; stroke-opacity:1; fill:none" points="
  2008.76,1233.66 2153.69,1233.66 
  "/>
<path clip-path="url(#clip910)" d="M2191.68 1253.34 Q2189.88 1257.97 2188.17 1259.38 Q2186.45 1260.8 2183.58 1260.8 L2180.18 1260.8 L2180.18 1257.23 L2182.68 1257.23 Q2184.44 1257.23 2185.41 1256.4 Q2186.38 1255.56 2187.56 1252.46 L2188.33 1250.52 L2177.84 1225.01 L2182.35 1225.01 L2190.46 1245.29 L2198.56 1225.01 L2203.07 1225.01 L2191.68 1253.34 Z" fill="#000000" fill-rule="evenodd" fill-opacity="1" /><path clip-path="url(#clip910)" d="M2213.58 1247 L2229.9 1247 L2229.9 1250.94 L2207.96 1250.94 L2207.96 1247 Q2210.62 1244.25 2215.2 1239.62 Q2219.81 1234.96 2220.99 1233.62 Q2223.23 1231.1 2224.11 1229.36 Q2225.02 1227.6 2225.02 1225.91 Q2225.02 1223.16 2223.07 1221.42 Q2221.15 1219.69 2218.05 1219.69 Q2215.85 1219.69 2213.4 1220.45 Q2210.97 1221.21 2208.19 1222.76 L2208.19 1218.04 Q2211.01 1216.91 2213.47 1216.33 Q2215.92 1215.75 2217.96 1215.75 Q2223.33 1215.75 2226.52 1218.44 Q2229.72 1221.12 2229.72 1225.61 Q2229.72 1227.74 2228.91 1229.66 Q2228.12 1231.56 2226.01 1234.15 Q2225.43 1234.82 2222.33 1238.04 Q2219.23 1241.24 2213.58 1247 Z" fill="#000000" fill-rule="evenodd" fill-opacity="1" /><polyline clip-path="url(#clip910)" style="stroke:#3da44d; stroke-linecap:butt; stroke-linejoin:round; stroke-width:4; stroke-opacity:1; fill:none" points="
  2008.76,1285.5 2153.69,1285.5 
  "/>
<path clip-path="url(#clip910)" d="M2191.68 1305.18 Q2189.88 1309.81 2188.17 1311.22 Q2186.45 1312.64 2183.58 1312.64 L2180.18 1312.64 L2180.18 1309.07 L2182.68 1309.07 Q2184.44 1309.07 2185.41 1308.24 Q2186.38 1307.4 2187.56 1304.3 L2188.33 1302.36 L2177.84 1276.85 L2182.35 1276.85 L2190.46 1297.13 L2198.56 1276.85 L2203.07 1276.85 L2191.68 1305.18 Z" fill="#000000" fill-rule="evenodd" fill-opacity="1" /><path clip-path="url(#clip910)" d="M2223.72 1284.14 Q2227.08 1284.86 2228.95 1287.13 Q2230.85 1289.4 2230.85 1292.73 Q2230.85 1297.84 2227.33 1300.65 Q2223.81 1303.45 2217.33 1303.45 Q2215.16 1303.45 2212.84 1303.01 Q2210.55 1302.59 2208.1 1301.73 L2208.1 1297.22 Q2210.04 1298.35 2212.35 1298.93 Q2214.67 1299.51 2217.19 1299.51 Q2221.59 1299.51 2223.88 1297.78 Q2226.2 1296.04 2226.2 1292.73 Q2226.2 1289.67 2224.04 1287.96 Q2221.91 1286.22 2218.1 1286.22 L2214.07 1286.22 L2214.07 1282.38 L2218.28 1282.38 Q2221.73 1282.38 2223.56 1281.02 Q2225.39 1279.63 2225.39 1277.03 Q2225.39 1274.37 2223.49 1272.96 Q2221.61 1271.53 2218.1 1271.53 Q2216.17 1271.53 2213.98 1271.94 Q2211.78 1272.36 2209.14 1273.24 L2209.14 1269.07 Q2211.8 1268.33 2214.11 1267.96 Q2216.45 1267.59 2218.51 1267.59 Q2223.84 1267.59 2226.94 1270.02 Q2230.04 1272.43 2230.04 1276.55 Q2230.04 1279.42 2228.4 1281.41 Q2226.75 1283.38 2223.72 1284.14 Z" fill="#000000" fill-rule="evenodd" fill-opacity="1" /><polyline clip-path="url(#clip910)" style="stroke:#c271d2; stroke-linecap:butt; stroke-linejoin:round; stroke-width:4; stroke-opacity:1; fill:none" points="
  2008.76,1337.34 2153.69,1337.34 
  "/>
<path clip-path="url(#clip910)" d="M2191.68 1357.02 Q2189.88 1361.65 2188.17 1363.06 Q2186.45 1364.48 2183.58 1364.48 L2180.18 1364.48 L2180.18 1360.91 L2182.68 1360.91 Q2184.44 1360.91 2185.41 1360.08 Q2186.38 1359.24 2187.56 1356.14 L2188.33 1354.2 L2177.84 1328.69 L2182.35 1328.69 L2190.46 1348.97 L2198.56 1328.69 L2203.07 1328.69 L2191.68 1357.02 Z" fill="#000000" fill-rule="evenodd" fill-opacity="1" /><path clip-path="url(#clip910)" d="M2222.4 1324.13 L2210.6 1342.58 L2222.4 1342.58 L2222.4 1324.13 M2221.17 1320.06 L2227.05 1320.06 L2227.05 1342.58 L2231.98 1342.58 L2231.98 1346.47 L2227.05 1346.47 L2227.05 1354.62 L2222.4 1354.62 L2222.4 1346.47 L2206.8 1346.47 L2206.8 1341.95 L2221.17 1320.06 Z" fill="#000000" fill-rule="evenodd" fill-opacity="1" /><polyline clip-path="url(#clip910)" style="stroke:#ac8d18; stroke-linecap:butt; stroke-linejoin:round; stroke-width:4; stroke-opacity:1; fill:none" points="
  2008.76,1389.18 2153.69,1389.18 
  "/>
<path clip-path="url(#clip910)" d="M2191.68 1408.86 Q2189.88 1413.49 2188.17 1414.9 Q2186.45 1416.32 2183.58 1416.32 L2180.18 1416.32 L2180.18 1412.75 L2182.68 1412.75 Q2184.44 1412.75 2185.41 1411.92 Q2186.38 1411.08 2187.56 1407.98 L2188.33 1406.04 L2177.84 1380.53 L2182.35 1380.53 L2190.46 1400.81 L2198.56 1380.53 L2203.07 1380.53 L2191.68 1408.86 Z" fill="#000000" fill-rule="evenodd" fill-opacity="1" /><path clip-path="url(#clip910)" d="M2209.6 1371.9 L2227.96 1371.9 L2227.96 1375.83 L2213.88 1375.83 L2213.88 1384.3 Q2214.9 1383.96 2215.92 1383.79 Q2216.94 1383.61 2217.96 1383.61 Q2223.74 1383.61 2227.12 1386.78 Q2230.5 1389.95 2230.5 1395.37 Q2230.5 1400.95 2227.03 1404.05 Q2223.56 1407.13 2217.24 1407.13 Q2215.06 1407.13 2212.79 1406.76 Q2210.55 1406.39 2208.14 1405.65 L2208.14 1400.95 Q2210.23 1402.08 2212.45 1402.64 Q2214.67 1403.19 2217.15 1403.19 Q2221.15 1403.19 2223.49 1401.09 Q2225.83 1398.98 2225.83 1395.37 Q2225.83 1391.76 2223.49 1389.65 Q2221.15 1387.54 2217.15 1387.54 Q2215.27 1387.54 2213.4 1387.96 Q2211.54 1388.38 2209.6 1389.26 L2209.6 1371.9 Z" fill="#000000" fill-rule="evenodd" fill-opacity="1" /></svg>
