<?xml version="1.0" encoding="utf-8"?>
<svg xmlns="http://www.w3.org/2000/svg" xmlns:xlink="http://www.w3.org/1999/xlink" width="600" height="400" viewBox="0 0 2400 1600">
<defs>
  <clipPath id="clip030">
    <rect x="0" y="0" width="2400" height="1600"/>
  </clipPath>
</defs>
<path clip-path="url(#clip030)" d="
M0 1600 L2400 1600 L2400 0 L0 0  Z
  " fill="#ffffff" fill-rule="evenodd" fill-opacity="1"/>
<defs>
  <clipPath id="clip031">
    <rect x="480" y="0" width="1681" height="1600"/>
  </clipPath>
</defs>
<path clip-path="url(#clip030)" d="
M246.598 1486.45 L2352.76 1486.45 L2352.76 123.472 L246.598 123.472  Z
  " fill="#ffffff" fill-rule="evenodd" fill-opacity="1"/>
<defs>
  <clipPath id="clip032">
    <rect x="246" y="123" width="2107" height="1364"/>
  </clipPath>
</defs>
<polyline clip-path="url(#clip032)" style="stroke:#000000; stroke-linecap:butt; stroke-linejoin:round; stroke-width:2; stroke-opacity:0.1; fill:none" points="
  306.206,1486.45 306.206,123.472 
  "/>
<polyline clip-path="url(#clip032)" style="stroke:#000000; stroke-linecap:butt; stroke-linejoin:round; stroke-width:2; stroke-opacity:0.1; fill:none" points="
  802.941,1486.45 802.941,123.472 
  "/>
<polyline clip-path="url(#clip032)" style="stroke:#000000; stroke-linecap:butt; stroke-linejoin:round; stroke-width:2; stroke-opacity:0.1; fill:none" points="
  1299.68,1486.45 1299.68,123.472 
  "/>
<polyline clip-path="url(#clip032)" style="stroke:#000000; stroke-linecap:butt; stroke-linejoin:round; stroke-width:2; stroke-opacity:0.1; fill:none" points="
  1796.41,1486.45 1796.41,123.472 
  "/>
<polyline clip-path="url(#clip032)" style="stroke:#000000; stroke-linecap:butt; stroke-linejoin:round; stroke-width:2; stroke-opacity:0.1; fill:none" points="
  2293.15,1486.45 2293.15,123.472 
  "/>
<polyline clip-path="url(#clip030)" style="stroke:#000000; stroke-linecap:butt; stroke-linejoin:round; stroke-width:4; stroke-opacity:1; fill:none" points="
  246.598,1486.45 2352.76,1486.45 
  "/>
<polyline clip-path="url(#clip030)" style="stroke:#000000; stroke-linecap:butt; stroke-linejoin:round; stroke-width:4; stroke-opacity:1; fill:none" points="
  306.206,1486.45 306.206,1467.55 
  "/>
<polyline clip-path="url(#clip030)" style="stroke:#000000; stroke-linecap:butt; stroke-linejoin:round; stroke-width:4; stroke-opacity:1; fill:none" points="
  802.941,1486.45 802.941,1467.55 
  "/>
<polyline clip-path="url(#clip030)" style="stroke:#000000; stroke-linecap:butt; stroke-linejoin:round; stroke-width:4; stroke-opacity:1; fill:none" points="
  1299.68,1486.45 1299.68,1467.55 
  "/>
<polyline clip-path="url(#clip030)" style="stroke:#000000; stroke-linecap:butt; stroke-linejoin:round; stroke-width:4; stroke-opacity:1; fill:none" points="
  1796.41,1486.45 1796.41,1467.55 
  "/>
<polyline clip-path="url(#clip030)" style="stroke:#000000; stroke-linecap:butt; stroke-linejoin:round; stroke-width:4; stroke-opacity:1; fill:none" points="
  2293.15,1486.45 2293.15,1467.55 
  "/>
<path clip-path="url(#clip030)" d="M252.734 1530.29 L282.41 1530.29 L282.41 1534.23 L252.734 1534.23 L252.734 1530.29 Z" fill="#000000" fill-rule="evenodd" fill-opacity="1" /><path clip-path="url(#clip030)" d="M293.313 1543.18 L300.951 1543.18 L300.951 1516.82 L292.641 1518.49 L292.641 1514.23 L300.905 1512.56 L305.581 1512.56 L305.581 1543.18 L313.22 1543.18 L313.22 1547.12 L293.313 1547.12 L293.313 1543.18 Z" fill="#000000" fill-rule="evenodd" fill-opacity="1" /><path clip-path="url(#clip030)" d="M322.664 1541.24 L327.548 1541.24 L327.548 1547.12 L322.664 1547.12 L322.664 1541.24 Z" fill="#000000" fill-rule="evenodd" fill-opacity="1" /><path clip-path="url(#clip030)" d="M347.734 1515.64 Q344.122 1515.64 342.294 1519.2 Q340.488 1522.75 340.488 1529.87 Q340.488 1536.98 342.294 1540.55 Q344.122 1544.09 347.734 1544.09 Q351.368 1544.09 353.173 1540.55 Q355.002 1536.98 355.002 1529.87 Q355.002 1522.75 353.173 1519.2 Q351.368 1515.64 347.734 1515.64 M347.734 1511.93 Q353.544 1511.93 356.599 1516.54 Q359.678 1521.12 359.678 1529.87 Q359.678 1538.6 356.599 1543.21 Q353.544 1547.79 347.734 1547.79 Q341.923 1547.79 338.845 1543.21 Q335.789 1538.6 335.789 1529.87 Q335.789 1521.12 338.845 1516.54 Q341.923 1511.93 347.734 1511.93 Z" fill="#000000" fill-rule="evenodd" fill-opacity="1" /><path clip-path="url(#clip030)" d="M749.967 1530.29 L779.643 1530.29 L779.643 1534.23 L749.967 1534.23 L749.967 1530.29 Z" fill="#000000" fill-rule="evenodd" fill-opacity="1" /><path clip-path="url(#clip030)" d="M799.735 1515.64 Q796.124 1515.64 794.296 1519.2 Q792.49 1522.75 792.49 1529.87 Q792.49 1536.98 794.296 1540.55 Q796.124 1544.09 799.735 1544.09 Q803.37 1544.09 805.175 1540.55 Q807.004 1536.98 807.004 1529.87 Q807.004 1522.75 805.175 1519.2 Q803.37 1515.64 799.735 1515.64 M799.735 1511.93 Q805.546 1511.93 808.601 1516.54 Q811.68 1521.12 811.68 1529.87 Q811.68 1538.6 808.601 1543.21 Q805.546 1547.79 799.735 1547.79 Q793.925 1547.79 790.847 1543.21 Q787.791 1538.6 787.791 1529.87 Q787.791 1521.12 790.847 1516.54 Q793.925 1511.93 799.735 1511.93 Z" fill="#000000" fill-rule="evenodd" fill-opacity="1" /><path clip-path="url(#clip030)" d="M819.897 1541.24 L824.782 1541.24 L824.782 1547.12 L819.897 1547.12 L819.897 1541.24 Z" fill="#000000" fill-rule="evenodd" fill-opacity="1" /><path clip-path="url(#clip030)" d="M835.013 1512.56 L853.369 1512.56 L853.369 1516.5 L839.295 1516.5 L839.295 1524.97 Q840.314 1524.62 841.332 1524.46 Q842.351 1524.27 843.369 1524.27 Q849.156 1524.27 852.536 1527.44 Q855.916 1530.62 855.916 1536.03 Q855.916 1541.61 852.443 1544.71 Q848.971 1547.79 842.652 1547.79 Q840.476 1547.79 838.207 1547.42 Q835.962 1547.05 833.555 1546.31 L833.555 1541.61 Q835.638 1542.74 837.86 1543.3 Q840.082 1543.86 842.559 1543.86 Q846.564 1543.86 848.902 1541.75 Q851.24 1539.64 851.24 1536.03 Q851.24 1532.42 848.902 1530.31 Q846.564 1528.21 842.559 1528.21 Q840.684 1528.21 838.809 1528.62 Q836.957 1529.04 835.013 1529.92 L835.013 1512.56 Z" fill="#000000" fill-rule="evenodd" fill-opacity="1" /><path clip-path="url(#clip030)" d="M1277.06 1515.64 Q1273.45 1515.64 1271.62 1519.2 Q1269.82 1522.75 1269.82 1529.87 Q1269.82 1536.98 1271.62 1540.55 Q1273.45 1544.09 1277.06 1544.09 Q1280.7 1544.09 1282.5 1540.55 Q1284.33 1536.98 1284.33 1529.87 Q1284.33 1522.75 1282.5 1519.2 Q1280.7 1515.64 1277.06 1515.64 M1277.06 1511.93 Q1282.87 1511.93 1285.93 1516.54 Q1289.01 1521.12 1289.01 1529.87 Q1289.01 1538.6 1285.93 1543.21 Q1282.87 1547.79 1277.06 1547.79 Q1271.25 1547.79 1268.17 1543.21 Q1265.12 1538.6 1265.12 1529.87 Q1265.12 1521.12 1268.17 1516.54 Q1271.25 1511.93 1277.06 1511.93 Z" fill="#000000" fill-rule="evenodd" fill-opacity="1" /><path clip-path="url(#clip030)" d="M1297.22 1541.24 L1302.11 1541.24 L1302.11 1547.12 L1297.22 1547.12 L1297.22 1541.24 Z" fill="#000000" fill-rule="evenodd" fill-opacity="1" /><path clip-path="url(#clip030)" d="M1322.29 1515.64 Q1318.68 1515.64 1316.85 1519.2 Q1315.05 1522.75 1315.05 1529.87 Q1315.05 1536.98 1316.85 1540.55 Q1318.68 1544.09 1322.29 1544.09 Q1325.93 1544.09 1327.73 1540.55 Q1329.56 1536.98 1329.56 1529.87 Q1329.56 1522.75 1327.73 1519.2 Q1325.93 1515.64 1322.29 1515.64 M1322.29 1511.93 Q1328.1 1511.93 1331.16 1516.54 Q1334.24 1521.12 1334.24 1529.87 Q1334.24 1538.6 1331.16 1543.21 Q1328.1 1547.79 1322.29 1547.79 Q1316.48 1547.79 1313.4 1543.21 Q1310.35 1538.6 1310.35 1529.87 Q1310.35 1521.12 1313.4 1516.54 Q1316.48 1511.93 1322.29 1511.93 Z" fill="#000000" fill-rule="evenodd" fill-opacity="1" /><path clip-path="url(#clip030)" d="M1774.29 1515.64 Q1770.68 1515.64 1768.85 1519.2 Q1767.05 1522.75 1767.05 1529.87 Q1767.05 1536.98 1768.85 1540.55 Q1770.68 1544.09 1774.29 1544.09 Q1777.93 1544.09 1779.73 1540.55 Q1781.56 1536.98 1781.56 1529.87 Q1781.56 1522.75 1779.73 1519.2 Q1777.93 1515.64 1774.29 1515.64 M1774.29 1511.93 Q1780.1 1511.93 1783.16 1516.54 Q1786.24 1521.12 1786.24 1529.87 Q1786.24 1538.6 1783.16 1543.21 Q1780.1 1547.79 1774.29 1547.79 Q1768.48 1547.79 1765.41 1543.21 Q1762.35 1538.6 1762.35 1529.87 Q1762.35 1521.12 1765.41 1516.54 Q1768.48 1511.93 1774.29 1511.93 Z" fill="#000000" fill-rule="evenodd" fill-opacity="1" /><path clip-path="url(#clip030)" d="M1794.46 1541.24 L1799.34 1541.24 L1799.34 1547.12 L1794.46 1547.12 L1794.46 1541.24 Z" fill="#000000" fill-rule="evenodd" fill-opacity="1" /><path clip-path="url(#clip030)" d="M1809.57 1512.56 L1827.93 1512.56 L1827.93 1516.5 L1813.85 1516.5 L1813.85 1524.97 Q1814.87 1524.62 1815.89 1524.46 Q1816.91 1524.27 1817.93 1524.27 Q1823.72 1524.27 1827.09 1527.44 Q1830.47 1530.62 1830.47 1536.03 Q1830.47 1541.61 1827 1544.71 Q1823.53 1547.79 1817.21 1547.79 Q1815.03 1547.79 1812.77 1547.42 Q1810.52 1547.05 1808.11 1546.31 L1808.11 1541.61 Q1810.2 1542.74 1812.42 1543.3 Q1814.64 1543.86 1817.12 1543.86 Q1821.12 1543.86 1823.46 1541.75 Q1825.8 1539.64 1825.8 1536.03 Q1825.8 1532.42 1823.46 1530.31 Q1821.12 1528.21 1817.12 1528.21 Q1815.24 1528.21 1813.37 1528.62 Q1811.52 1529.04 1809.57 1529.92 L1809.57 1512.56 Z" fill="#000000" fill-rule="evenodd" fill-opacity="1" /><path clip-path="url(#clip030)" d="M2260.3 1543.18 L2267.94 1543.18 L2267.94 1516.82 L2259.63 1518.49 L2259.63 1514.23 L2267.89 1512.56 L2272.57 1512.56 L2272.57 1543.18 L2280.21 1543.18 L2280.21 1547.12 L2260.3 1547.12 L2260.3 1543.18 Z" fill="#000000" fill-rule="evenodd" fill-opacity="1" /><path clip-path="url(#clip030)" d="M2289.65 1541.24 L2294.54 1541.24 L2294.54 1547.12 L2289.65 1547.12 L2289.65 1541.24 Z" fill="#000000" fill-rule="evenodd" fill-opacity="1" /><path clip-path="url(#clip030)" d="M2314.72 1515.64 Q2311.11 1515.64 2309.28 1519.2 Q2307.48 1522.75 2307.48 1529.87 Q2307.48 1536.98 2309.28 1540.55 Q2311.11 1544.09 2314.72 1544.09 Q2318.36 1544.09 2320.16 1540.55 Q2321.99 1536.98 2321.99 1529.87 Q2321.99 1522.75 2320.16 1519.2 Q2318.36 1515.64 2314.72 1515.64 M2314.72 1511.93 Q2320.53 1511.93 2323.59 1516.54 Q2326.67 1521.12 2326.67 1529.87 Q2326.67 1538.6 2323.59 1543.21 Q2320.53 1547.79 2314.72 1547.79 Q2308.91 1547.79 2305.83 1543.21 Q2302.78 1538.6 2302.78 1529.87 Q2302.78 1521.12 2305.83 1516.54 Q2308.91 1511.93 2314.72 1511.93 Z" fill="#000000" fill-rule="evenodd" fill-opacity="1" /><polyline clip-path="url(#clip032)" style="stroke:#000000; stroke-linecap:butt; stroke-linejoin:round; stroke-width:2; stroke-opacity:0.1; fill:none" points="
  246.598,1447.87 2352.76,1447.87 
  "/>
<polyline clip-path="url(#clip032)" style="stroke:#000000; stroke-linecap:butt; stroke-linejoin:round; stroke-width:2; stroke-opacity:0.1; fill:none" points="
  246.598,1195.53 2352.76,1195.53 
  "/>
<polyline clip-path="url(#clip032)" style="stroke:#000000; stroke-linecap:butt; stroke-linejoin:round; stroke-width:2; stroke-opacity:0.1; fill:none" points="
  246.598,943.194 2352.76,943.194 
  "/>
<polyline clip-path="url(#clip032)" style="stroke:#000000; stroke-linecap:butt; stroke-linejoin:round; stroke-width:2; stroke-opacity:0.1; fill:none" points="
  246.598,690.854 2352.76,690.854 
  "/>
<polyline clip-path="url(#clip032)" style="stroke:#000000; stroke-linecap:butt; stroke-linejoin:round; stroke-width:2; stroke-opacity:0.1; fill:none" points="
  246.598,438.514 2352.76,438.514 
  "/>
<polyline clip-path="url(#clip032)" style="stroke:#000000; stroke-linecap:butt; stroke-linejoin:round; stroke-width:2; stroke-opacity:0.1; fill:none" points="
  246.598,186.175 2352.76,186.175 
  "/>
<polyline clip-path="url(#clip030)" style="stroke:#000000; stroke-linecap:butt; stroke-linejoin:round; stroke-width:4; stroke-opacity:1; fill:none" points="
  246.598,1486.45 246.598,123.472 
  "/>
<polyline clip-path="url(#clip030)" style="stroke:#000000; stroke-linecap:butt; stroke-linejoin:round; stroke-width:4; stroke-opacity:1; fill:none" points="
  246.598,1447.87 265.495,1447.87 
  "/>
<polyline clip-path="url(#clip030)" style="stroke:#000000; stroke-linecap:butt; stroke-linejoin:round; stroke-width:4; stroke-opacity:1; fill:none" points="
  246.598,1195.53 265.495,1195.53 
  "/>
<polyline clip-path="url(#clip030)" style="stroke:#000000; stroke-linecap:butt; stroke-linejoin:round; stroke-width:4; stroke-opacity:1; fill:none" points="
  246.598,943.194 265.495,943.194 
  "/>
<polyline clip-path="url(#clip030)" style="stroke:#000000; stroke-linecap:butt; stroke-linejoin:round; stroke-width:4; stroke-opacity:1; fill:none" points="
  246.598,690.854 265.495,690.854 
  "/>
<polyline clip-path="url(#clip030)" style="stroke:#000000; stroke-linecap:butt; stroke-linejoin:round; stroke-width:4; stroke-opacity:1; fill:none" points="
  246.598,438.514 265.495,438.514 
  "/>
<polyline clip-path="url(#clip030)" style="stroke:#000000; stroke-linecap:butt; stroke-linejoin:round; stroke-width:4; stroke-opacity:1; fill:none" points="
  246.598,186.175 265.495,186.175 
  "/>
<path clip-path="url(#clip030)" d="M62.9365 1433.67 Q59.3254 1433.67 57.4967 1437.24 Q55.6912 1440.78 55.6912 1447.91 Q55.6912 1455.01 57.4967 1458.58 Q59.3254 1462.12 62.9365 1462.12 Q66.5707 1462.12 68.3763 1458.58 Q70.205 1455.01 70.205 1447.91 Q70.205 1440.78 68.3763 1437.24 Q66.5707 1433.67 62.9365 1433.67 M62.9365 1429.97 Q68.7467 1429.97 71.8022 1434.57 Q74.8809 1439.16 74.8809 1447.91 Q74.8809 1456.63 71.8022 1461.24 Q68.7467 1465.82 62.9365 1465.82 Q57.1264 1465.82 54.0477 1461.24 Q50.9921 1456.63 50.9921 1447.91 Q50.9921 1439.16 54.0477 1434.57 Q57.1264 1429.97 62.9365 1429.97 Z" fill="#000000" fill-rule="evenodd" fill-opacity="1" /><path clip-path="url(#clip030)" d="M83.0984 1459.27 L87.9827 1459.27 L87.9827 1465.15 L83.0984 1465.15 L83.0984 1459.27 Z" fill="#000000" fill-rule="evenodd" fill-opacity="1" /><path clip-path="url(#clip030)" d="M108.168 1433.67 Q104.557 1433.67 102.728 1437.24 Q100.922 1440.78 100.922 1447.91 Q100.922 1455.01 102.728 1458.58 Q104.557 1462.12 108.168 1462.12 Q111.802 1462.12 113.608 1458.58 Q115.436 1455.01 115.436 1447.91 Q115.436 1440.78 113.608 1437.24 Q111.802 1433.67 108.168 1433.67 M108.168 1429.97 Q113.978 1429.97 117.033 1434.57 Q120.112 1439.16 120.112 1447.91 Q120.112 1456.63 117.033 1461.24 Q113.978 1465.82 108.168 1465.82 Q102.358 1465.82 99.2789 1461.24 Q96.2234 1456.63 96.2234 1447.91 Q96.2234 1439.16 99.2789 1434.57 Q102.358 1429.97 108.168 1429.97 Z" fill="#000000" fill-rule="evenodd" fill-opacity="1" /><path clip-path="url(#clip030)" d="M138.33 1433.67 Q134.719 1433.67 132.89 1437.24 Q131.084 1440.78 131.084 1447.91 Q131.084 1455.01 132.89 1458.58 Q134.719 1462.12 138.33 1462.12 Q141.964 1462.12 143.769 1458.58 Q145.598 1455.01 145.598 1447.91 Q145.598 1440.78 143.769 1437.24 Q141.964 1433.67 138.33 1433.67 M138.33 1429.97 Q144.14 1429.97 147.195 1434.57 Q150.274 1439.16 150.274 1447.91 Q150.274 1456.63 147.195 1461.24 Q144.14 1465.82 138.33 1465.82 Q132.519 1465.82 129.441 1461.24 Q126.385 1456.63 126.385 1447.91 Q126.385 1439.16 129.441 1434.57 Q132.519 1429.97 138.33 1429.97 Z" fill="#000000" fill-rule="evenodd" fill-opacity="1" /><path clip-path="url(#clip030)" d="M168.491 1433.67 Q164.88 1433.67 163.052 1437.24 Q161.246 1440.78 161.246 1447.91 Q161.246 1455.01 163.052 1458.58 Q164.88 1462.12 168.491 1462.12 Q172.126 1462.12 173.931 1458.58 Q175.76 1455.01 175.76 1447.91 Q175.76 1440.78 173.931 1437.24 Q172.126 1433.67 168.491 1433.67 M168.491 1429.97 Q174.302 1429.97 177.357 1434.57 Q180.436 1439.16 180.436 1447.91 Q180.436 1456.63 177.357 1461.24 Q174.302 1465.82 168.491 1465.82 Q162.681 1465.82 159.603 1461.24 Q156.547 1456.63 156.547 1447.91 Q156.547 1439.16 159.603 1434.57 Q162.681 1429.97 168.491 1429.97 Z" fill="#000000" fill-rule="evenodd" fill-opacity="1" /><path clip-path="url(#clip030)" d="M198.653 1433.67 Q195.042 1433.67 193.214 1437.24 Q191.408 1440.78 191.408 1447.91 Q191.408 1455.01 193.214 1458.58 Q195.042 1462.12 198.653 1462.12 Q202.288 1462.12 204.093 1458.58 Q205.922 1455.01 205.922 1447.91 Q205.922 1440.78 204.093 1437.24 Q202.288 1433.67 198.653 1433.67 M198.653 1429.97 Q204.464 1429.97 207.519 1434.57 Q210.598 1439.16 210.598 1447.91 Q210.598 1456.63 207.519 1461.24 Q204.464 1465.82 198.653 1465.82 Q192.843 1465.82 189.765 1461.24 Q186.709 1456.63 186.709 1447.91 Q186.709 1439.16 189.765 1434.57 Q192.843 1429.97 198.653 1429.97 Z" fill="#000000" fill-rule="evenodd" fill-opacity="1" /><path clip-path="url(#clip030)" d="M63.9319 1181.33 Q60.3208 1181.33 58.4921 1184.9 Q56.6865 1188.44 56.6865 1195.57 Q56.6865 1202.67 58.4921 1206.24 Q60.3208 1209.78 63.9319 1209.78 Q67.5661 1209.78 69.3717 1206.24 Q71.2004 1202.67 71.2004 1195.57 Q71.2004 1188.44 69.3717 1184.9 Q67.5661 1181.33 63.9319 1181.33 M63.9319 1177.63 Q69.742 1177.63 72.7976 1182.23 Q75.8763 1186.82 75.8763 1195.57 Q75.8763 1204.29 72.7976 1208.9 Q69.742 1213.48 63.9319 1213.48 Q58.1217 1213.48 55.043 1208.9 Q51.9875 1204.29 51.9875 1195.57 Q51.9875 1186.82 55.043 1182.23 Q58.1217 1177.63 63.9319 1177.63 Z" fill="#000000" fill-rule="evenodd" fill-opacity="1" /><path clip-path="url(#clip030)" d="M84.0938 1206.93 L88.978 1206.93 L88.978 1212.81 L84.0938 1212.81 L84.0938 1206.93 Z" fill="#000000" fill-rule="evenodd" fill-opacity="1" /><path clip-path="url(#clip030)" d="M109.163 1181.33 Q105.552 1181.33 103.723 1184.9 Q101.918 1188.44 101.918 1195.57 Q101.918 1202.67 103.723 1206.24 Q105.552 1209.78 109.163 1209.78 Q112.797 1209.78 114.603 1206.24 Q116.432 1202.67 116.432 1195.57 Q116.432 1188.44 114.603 1184.9 Q112.797 1181.33 109.163 1181.33 M109.163 1177.63 Q114.973 1177.63 118.029 1182.23 Q121.107 1186.82 121.107 1195.57 Q121.107 1204.29 118.029 1208.9 Q114.973 1213.48 109.163 1213.48 Q103.353 1213.48 100.274 1208.9 Q97.2187 1204.29 97.2187 1195.57 Q97.2187 1186.82 100.274 1182.23 Q103.353 1177.63 109.163 1177.63 Z" fill="#000000" fill-rule="evenodd" fill-opacity="1" /><path clip-path="url(#clip030)" d="M139.325 1181.33 Q135.714 1181.33 133.885 1184.9 Q132.08 1188.44 132.08 1195.57 Q132.08 1202.67 133.885 1206.24 Q135.714 1209.78 139.325 1209.78 Q142.959 1209.78 144.765 1206.24 Q146.593 1202.67 146.593 1195.57 Q146.593 1188.44 144.765 1184.9 Q142.959 1181.33 139.325 1181.33 M139.325 1177.63 Q145.135 1177.63 148.191 1182.23 Q151.269 1186.82 151.269 1195.57 Q151.269 1204.29 148.191 1208.9 Q145.135 1213.48 139.325 1213.48 Q133.515 1213.48 130.436 1208.9 Q127.381 1204.29 127.381 1195.57 Q127.381 1186.82 130.436 1182.23 Q133.515 1177.63 139.325 1177.63 Z" fill="#000000" fill-rule="evenodd" fill-opacity="1" /><path clip-path="url(#clip030)" d="M169.487 1181.33 Q165.876 1181.33 164.047 1184.9 Q162.242 1188.44 162.242 1195.57 Q162.242 1202.67 164.047 1206.24 Q165.876 1209.78 169.487 1209.78 Q173.121 1209.78 174.927 1206.24 Q176.755 1202.67 176.755 1195.57 Q176.755 1188.44 174.927 1184.9 Q173.121 1181.33 169.487 1181.33 M169.487 1177.63 Q175.297 1177.63 178.353 1182.23 Q181.431 1186.82 181.431 1195.57 Q181.431 1204.29 178.353 1208.9 Q175.297 1213.48 169.487 1213.48 Q163.677 1213.48 160.598 1208.9 Q157.542 1204.29 157.542 1195.57 Q157.542 1186.82 160.598 1182.23 Q163.677 1177.63 169.487 1177.63 Z" fill="#000000" fill-rule="evenodd" fill-opacity="1" /><path clip-path="url(#clip030)" d="M189.695 1178.25 L208.051 1178.25 L208.051 1182.19 L193.977 1182.19 L193.977 1190.66 Q194.996 1190.31 196.014 1190.15 Q197.033 1189.97 198.052 1189.97 Q203.839 1189.97 207.218 1193.14 Q210.598 1196.31 210.598 1201.73 Q210.598 1207.3 207.126 1210.41 Q203.653 1213.48 197.334 1213.48 Q195.158 1213.48 192.89 1213.11 Q190.644 1212.74 188.237 1212 L188.237 1207.3 Q190.32 1208.44 192.542 1208.99 Q194.765 1209.55 197.241 1209.55 Q201.246 1209.55 203.584 1207.44 Q205.922 1205.34 205.922 1201.73 Q205.922 1198.11 203.584 1196.01 Q201.246 1193.9 197.241 1193.9 Q195.366 1193.9 193.491 1194.32 Q191.64 1194.73 189.695 1195.61 L189.695 1178.25 Z" fill="#000000" fill-rule="evenodd" fill-opacity="1" /><path clip-path="url(#clip030)" d="M62.9365 928.992 Q59.3254 928.992 57.4967 932.557 Q55.6912 936.099 55.6912 943.228 Q55.6912 950.335 57.4967 953.9 Q59.3254 957.441 62.9365 957.441 Q66.5707 957.441 68.3763 953.9 Q70.205 950.335 70.205 943.228 Q70.205 936.099 68.3763 932.557 Q66.5707 928.992 62.9365 928.992 M62.9365 925.289 Q68.7467 925.289 71.8022 929.895 Q74.8809 934.479 74.8809 943.228 Q74.8809 951.955 71.8022 956.562 Q68.7467 961.145 62.9365 961.145 Q57.1264 961.145 54.0477 956.562 Q50.9921 951.955 50.9921 943.228 Q50.9921 934.479 54.0477 929.895 Q57.1264 925.289 62.9365 925.289 Z" fill="#000000" fill-rule="evenodd" fill-opacity="1" /><path clip-path="url(#clip030)" d="M83.0984 954.594 L87.9827 954.594 L87.9827 960.474 L83.0984 960.474 L83.0984 954.594 Z" fill="#000000" fill-rule="evenodd" fill-opacity="1" /><path clip-path="url(#clip030)" d="M108.168 928.992 Q104.557 928.992 102.728 932.557 Q100.922 936.099 100.922 943.228 Q100.922 950.335 102.728 953.9 Q104.557 957.441 108.168 957.441 Q111.802 957.441 113.608 953.9 Q115.436 950.335 115.436 943.228 Q115.436 936.099 113.608 932.557 Q111.802 928.992 108.168 928.992 M108.168 925.289 Q113.978 925.289 117.033 929.895 Q120.112 934.479 120.112 943.228 Q120.112 951.955 117.033 956.562 Q113.978 961.145 108.168 961.145 Q102.358 961.145 99.2789 956.562 Q96.2234 951.955 96.2234 943.228 Q96.2234 934.479 99.2789 929.895 Q102.358 925.289 108.168 925.289 Z" fill="#000000" fill-rule="evenodd" fill-opacity="1" /><path clip-path="url(#clip030)" d="M138.33 928.992 Q134.719 928.992 132.89 932.557 Q131.084 936.099 131.084 943.228 Q131.084 950.335 132.89 953.9 Q134.719 957.441 138.33 957.441 Q141.964 957.441 143.769 953.9 Q145.598 950.335 145.598 943.228 Q145.598 936.099 143.769 932.557 Q141.964 928.992 138.33 928.992 M138.33 925.289 Q144.14 925.289 147.195 929.895 Q150.274 934.479 150.274 943.228 Q150.274 951.955 147.195 956.562 Q144.14 961.145 138.33 961.145 Q132.519 961.145 129.441 956.562 Q126.385 951.955 126.385 943.228 Q126.385 934.479 129.441 929.895 Q132.519 925.289 138.33 925.289 Z" fill="#000000" fill-rule="evenodd" fill-opacity="1" /><path clip-path="url(#clip030)" d="M159.302 956.539 L166.941 956.539 L166.941 930.173 L158.63 931.84 L158.63 927.58 L166.894 925.914 L171.57 925.914 L171.57 956.539 L179.209 956.539 L179.209 960.474 L159.302 960.474 L159.302 956.539 Z" fill="#000000" fill-rule="evenodd" fill-opacity="1" /><path clip-path="url(#clip030)" d="M198.653 928.992 Q195.042 928.992 193.214 932.557 Q191.408 936.099 191.408 943.228 Q191.408 950.335 193.214 953.9 Q195.042 957.441 198.653 957.441 Q202.288 957.441 204.093 953.9 Q205.922 950.335 205.922 943.228 Q205.922 936.099 204.093 932.557 Q202.288 928.992 198.653 928.992 M198.653 925.289 Q204.464 925.289 207.519 929.895 Q210.598 934.479 210.598 943.228 Q210.598 951.955 207.519 956.562 Q204.464 961.145 198.653 961.145 Q192.843 961.145 189.765 956.562 Q186.709 951.955 186.709 943.228 Q186.709 934.479 189.765 929.895 Q192.843 925.289 198.653 925.289 Z" fill="#000000" fill-rule="evenodd" fill-opacity="1" /><path clip-path="url(#clip030)" d="M63.9319 676.653 Q60.3208 676.653 58.4921 680.218 Q56.6865 683.759 56.6865 690.889 Q56.6865 697.995 58.4921 701.56 Q60.3208 705.102 63.9319 705.102 Q67.5661 705.102 69.3717 701.56 Q71.2004 697.995 71.2004 690.889 Q71.2004 683.759 69.3717 680.218 Q67.5661 676.653 63.9319 676.653 M63.9319 672.949 Q69.742 672.949 72.7976 677.556 Q75.8763 682.139 75.8763 690.889 Q75.8763 699.616 72.7976 704.222 Q69.742 708.805 63.9319 708.805 Q58.1217 708.805 55.043 704.222 Q51.9875 699.616 51.9875 690.889 Q51.9875 682.139 55.043 677.556 Q58.1217 672.949 63.9319 672.949 Z" fill="#000000" fill-rule="evenodd" fill-opacity="1" /><path clip-path="url(#clip030)" d="M84.0938 702.254 L88.978 702.254 L88.978 708.134 L84.0938 708.134 L84.0938 702.254 Z" fill="#000000" fill-rule="evenodd" fill-opacity="1" /><path clip-path="url(#clip030)" d="M109.163 676.653 Q105.552 676.653 103.723 680.218 Q101.918 683.759 101.918 690.889 Q101.918 697.995 103.723 701.56 Q105.552 705.102 109.163 705.102 Q112.797 705.102 114.603 701.56 Q116.432 697.995 116.432 690.889 Q116.432 683.759 114.603 680.218 Q112.797 676.653 109.163 676.653 M109.163 672.949 Q114.973 672.949 118.029 677.556 Q121.107 682.139 121.107 690.889 Q121.107 699.616 118.029 704.222 Q114.973 708.805 109.163 708.805 Q103.353 708.805 100.274 704.222 Q97.2187 699.616 97.2187 690.889 Q97.2187 682.139 100.274 677.556 Q103.353 672.949 109.163 672.949 Z" fill="#000000" fill-rule="evenodd" fill-opacity="1" /><path clip-path="url(#clip030)" d="M139.325 676.653 Q135.714 676.653 133.885 680.218 Q132.08 683.759 132.08 690.889 Q132.08 697.995 133.885 701.56 Q135.714 705.102 139.325 705.102 Q142.959 705.102 144.765 701.56 Q146.593 697.995 146.593 690.889 Q146.593 683.759 144.765 680.218 Q142.959 676.653 139.325 676.653 M139.325 672.949 Q145.135 672.949 148.191 677.556 Q151.269 682.139 151.269 690.889 Q151.269 699.616 148.191 704.222 Q145.135 708.805 139.325 708.805 Q133.515 708.805 130.436 704.222 Q127.381 699.616 127.381 690.889 Q127.381 682.139 130.436 677.556 Q133.515 672.949 139.325 672.949 Z" fill="#000000" fill-rule="evenodd" fill-opacity="1" /><path clip-path="url(#clip030)" d="M160.297 704.199 L167.936 704.199 L167.936 677.833 L159.626 679.5 L159.626 675.241 L167.89 673.574 L172.566 673.574 L172.566 704.199 L180.204 704.199 L180.204 708.134 L160.297 708.134 L160.297 704.199 Z" fill="#000000" fill-rule="evenodd" fill-opacity="1" /><path clip-path="url(#clip030)" d="M189.695 673.574 L208.051 673.574 L208.051 677.509 L193.977 677.509 L193.977 685.981 Q194.996 685.634 196.014 685.472 Q197.033 685.287 198.052 685.287 Q203.839 685.287 207.218 688.458 Q210.598 691.63 210.598 697.046 Q210.598 702.625 207.126 705.727 Q203.653 708.805 197.334 708.805 Q195.158 708.805 192.89 708.435 Q190.644 708.065 188.237 707.324 L188.237 702.625 Q190.32 703.759 192.542 704.315 Q194.765 704.87 197.241 704.87 Q201.246 704.87 203.584 702.764 Q205.922 700.657 205.922 697.046 Q205.922 693.435 203.584 691.329 Q201.246 689.222 197.241 689.222 Q195.366 689.222 193.491 689.639 Q191.64 690.055 189.695 690.935 L189.695 673.574 Z" fill="#000000" fill-rule="evenodd" fill-opacity="1" /><path clip-path="url(#clip030)" d="M62.9365 424.313 Q59.3254 424.313 57.4967 427.878 Q55.6912 431.42 55.6912 438.549 Q55.6912 445.656 57.4967 449.22 Q59.3254 452.762 62.9365 452.762 Q66.5707 452.762 68.3763 449.22 Q70.205 445.656 70.205 438.549 Q70.205 431.42 68.3763 427.878 Q66.5707 424.313 62.9365 424.313 M62.9365 420.609 Q68.7467 420.609 71.8022 425.216 Q74.8809 429.799 74.8809 438.549 Q74.8809 447.276 71.8022 451.882 Q68.7467 456.466 62.9365 456.466 Q57.1264 456.466 54.0477 451.882 Q50.9921 447.276 50.9921 438.549 Q50.9921 429.799 54.0477 425.216 Q57.1264 420.609 62.9365 420.609 Z" fill="#000000" fill-rule="evenodd" fill-opacity="1" /><path clip-path="url(#clip030)" d="M83.0984 449.915 L87.9827 449.915 L87.9827 455.794 L83.0984 455.794 L83.0984 449.915 Z" fill="#000000" fill-rule="evenodd" fill-opacity="1" /><path clip-path="url(#clip030)" d="M108.168 424.313 Q104.557 424.313 102.728 427.878 Q100.922 431.42 100.922 438.549 Q100.922 445.656 102.728 449.22 Q104.557 452.762 108.168 452.762 Q111.802 452.762 113.608 449.22 Q115.436 445.656 115.436 438.549 Q115.436 431.42 113.608 427.878 Q111.802 424.313 108.168 424.313 M108.168 420.609 Q113.978 420.609 117.033 425.216 Q120.112 429.799 120.112 438.549 Q120.112 447.276 117.033 451.882 Q113.978 456.466 108.168 456.466 Q102.358 456.466 99.2789 451.882 Q96.2234 447.276 96.2234 438.549 Q96.2234 429.799 99.2789 425.216 Q102.358 420.609 108.168 420.609 Z" fill="#000000" fill-rule="evenodd" fill-opacity="1" /><path clip-path="url(#clip030)" d="M138.33 424.313 Q134.719 424.313 132.89 427.878 Q131.084 431.42 131.084 438.549 Q131.084 445.656 132.89 449.22 Q134.719 452.762 138.33 452.762 Q141.964 452.762 143.769 449.22 Q145.598 445.656 145.598 438.549 Q145.598 431.42 143.769 427.878 Q141.964 424.313 138.33 424.313 M138.33 420.609 Q144.14 420.609 147.195 425.216 Q150.274 429.799 150.274 438.549 Q150.274 447.276 147.195 451.882 Q144.14 456.466 138.33 456.466 Q132.519 456.466 129.441 451.882 Q126.385 447.276 126.385 438.549 Q126.385 429.799 129.441 425.216 Q132.519 420.609 138.33 420.609 Z" fill="#000000" fill-rule="evenodd" fill-opacity="1" /><path clip-path="url(#clip030)" d="M162.519 451.859 L178.839 451.859 L178.839 455.794 L156.894 455.794 L156.894 451.859 Q159.556 449.105 164.14 444.475 Q168.746 439.822 169.927 438.48 Q172.172 435.957 173.052 434.22 Q173.954 432.461 173.954 430.771 Q173.954 428.017 172.01 426.281 Q170.089 424.545 166.987 424.545 Q164.788 424.545 162.334 425.308 Q159.904 426.072 157.126 427.623 L157.126 422.901 Q159.95 421.767 162.404 421.188 Q164.857 420.609 166.894 420.609 Q172.265 420.609 175.459 423.295 Q178.653 425.98 178.653 430.47 Q178.653 432.6 177.843 434.521 Q177.056 436.42 174.95 439.012 Q174.371 439.683 171.269 442.901 Q168.167 446.095 162.519 451.859 Z" fill="#000000" fill-rule="evenodd" fill-opacity="1" /><path clip-path="url(#clip030)" d="M198.653 424.313 Q195.042 424.313 193.214 427.878 Q191.408 431.42 191.408 438.549 Q191.408 445.656 193.214 449.22 Q195.042 452.762 198.653 452.762 Q202.288 452.762 204.093 449.22 Q205.922 445.656 205.922 438.549 Q205.922 431.42 204.093 427.878 Q202.288 424.313 198.653 424.313 M198.653 420.609 Q204.464 420.609 207.519 425.216 Q210.598 429.799 210.598 438.549 Q210.598 447.276 207.519 451.882 Q204.464 456.466 198.653 456.466 Q192.843 456.466 189.765 451.882 Q186.709 447.276 186.709 438.549 Q186.709 429.799 189.765 425.216 Q192.843 420.609 198.653 420.609 Z" fill="#000000" fill-rule="evenodd" fill-opacity="1" /><path clip-path="url(#clip030)" d="M63.9319 171.973 Q60.3208 171.973 58.4921 175.538 Q56.6865 179.08 56.6865 186.209 Q56.6865 193.316 58.4921 196.881 Q60.3208 200.422 63.9319 200.422 Q67.5661 200.422 69.3717 196.881 Q71.2004 193.316 71.2004 186.209 Q71.2004 179.08 69.3717 175.538 Q67.5661 171.973 63.9319 171.973 M63.9319 168.27 Q69.742 168.27 72.7976 172.876 Q75.8763 177.46 75.8763 186.209 Q75.8763 194.936 72.7976 199.543 Q69.742 204.126 63.9319 204.126 Q58.1217 204.126 55.043 199.543 Q51.9875 194.936 51.9875 186.209 Q51.9875 177.46 55.043 172.876 Q58.1217 168.27 63.9319 168.27 Z" fill="#000000" fill-rule="evenodd" fill-opacity="1" /><path clip-path="url(#clip030)" d="M84.0938 197.575 L88.978 197.575 L88.978 203.455 L84.0938 203.455 L84.0938 197.575 Z" fill="#000000" fill-rule="evenodd" fill-opacity="1" /><path clip-path="url(#clip030)" d="M109.163 171.973 Q105.552 171.973 103.723 175.538 Q101.918 179.08 101.918 186.209 Q101.918 193.316 103.723 196.881 Q105.552 200.422 109.163 200.422 Q112.797 200.422 114.603 196.881 Q116.432 193.316 116.432 186.209 Q116.432 179.08 114.603 175.538 Q112.797 171.973 109.163 171.973 M109.163 168.27 Q114.973 168.27 118.029 172.876 Q121.107 177.46 121.107 186.209 Q121.107 194.936 118.029 199.543 Q114.973 204.126 109.163 204.126 Q103.353 204.126 100.274 199.543 Q97.2187 194.936 97.2187 186.209 Q97.2187 177.46 100.274 172.876 Q103.353 168.27 109.163 168.27 Z" fill="#000000" fill-rule="evenodd" fill-opacity="1" /><path clip-path="url(#clip030)" d="M139.325 171.973 Q135.714 171.973 133.885 175.538 Q132.08 179.08 132.08 186.209 Q132.08 193.316 133.885 196.881 Q135.714 200.422 139.325 200.422 Q142.959 200.422 144.765 196.881 Q146.593 193.316 146.593 186.209 Q146.593 179.08 144.765 175.538 Q142.959 171.973 139.325 171.973 M139.325 168.27 Q145.135 168.27 148.191 172.876 Q151.269 177.46 151.269 186.209 Q151.269 194.936 148.191 199.543 Q145.135 204.126 139.325 204.126 Q133.515 204.126 130.436 199.543 Q127.381 194.936 127.381 186.209 Q127.381 177.46 130.436 172.876 Q133.515 168.27 139.325 168.27 Z" fill="#000000" fill-rule="evenodd" fill-opacity="1" /><path clip-path="url(#clip030)" d="M163.515 199.52 L179.834 199.52 L179.834 203.455 L157.89 203.455 L157.89 199.52 Q160.552 196.765 165.135 192.135 Q169.741 187.483 170.922 186.14 Q173.167 183.617 174.047 181.881 Q174.95 180.122 174.95 178.432 Q174.95 175.677 173.005 173.941 Q171.084 172.205 167.982 172.205 Q165.783 172.205 163.329 172.969 Q160.899 173.733 158.121 175.284 L158.121 170.561 Q160.945 169.427 163.399 168.848 Q165.853 168.27 167.89 168.27 Q173.26 168.27 176.454 170.955 Q179.649 173.64 179.649 178.131 Q179.649 180.26 178.839 182.182 Q178.052 184.08 175.945 186.672 Q175.366 187.344 172.265 190.561 Q169.163 193.756 163.515 199.52 Z" fill="#000000" fill-rule="evenodd" fill-opacity="1" /><path clip-path="url(#clip030)" d="M189.695 168.895 L208.051 168.895 L208.051 172.83 L193.977 172.83 L193.977 181.302 Q194.996 180.955 196.014 180.793 Q197.033 180.608 198.052 180.608 Q203.839 180.608 207.218 183.779 Q210.598 186.95 210.598 192.367 Q210.598 197.946 207.126 201.047 Q203.653 204.126 197.334 204.126 Q195.158 204.126 192.89 203.756 Q190.644 203.385 188.237 202.645 L188.237 197.946 Q190.32 199.08 192.542 199.635 Q194.765 200.191 197.241 200.191 Q201.246 200.191 203.584 198.084 Q205.922 195.978 205.922 192.367 Q205.922 188.756 203.584 186.649 Q201.246 184.543 197.241 184.543 Q195.366 184.543 193.491 184.959 Q191.64 185.376 189.695 186.256 L189.695 168.895 Z" fill="#000000" fill-rule="evenodd" fill-opacity="1" /><path clip-path="url(#clip030)" d="M1113.05 18.8205 L1113.05 41.5461 L1123.34 41.5461 Q1129.05 41.5461 1132.17 38.5889 Q1135.29 35.6318 1135.29 30.163 Q1135.29 24.7348 1132.17 21.7777 Q1129.05 18.8205 1123.34 18.8205 L1113.05 18.8205 M1104.87 12.096 L1123.34 12.096 Q1133.51 12.096 1138.69 16.714 Q1143.92 21.2916 1143.92 30.163 Q1143.92 39.1155 1138.69 43.6931 Q1133.51 48.2706 1123.34 48.2706 L1113.05 48.2706 L1113.05 72.576 L1104.87 72.576 L1104.87 12.096 Z" fill="#000000" fill-rule="evenodd" fill-opacity="1" /><path clip-path="url(#clip030)" d="M1190.42 48.0275 L1190.42 51.6733 L1156.15 51.6733 Q1156.64 59.3701 1160.77 63.421 Q1164.94 67.4314 1172.36 67.4314 Q1176.65 67.4314 1180.66 66.3781 Q1184.71 65.3249 1188.68 63.2184 L1188.68 70.267 Q1184.67 71.9684 1180.46 72.8596 Q1176.25 73.7508 1171.91 73.7508 Q1161.05 73.7508 1154.69 67.4314 Q1148.38 61.1119 1148.38 50.3365 Q1148.38 39.1965 1154.37 32.6746 Q1160.41 26.1121 1170.62 26.1121 Q1179.77 26.1121 1185.08 32.0264 Q1190.42 37.9003 1190.42 48.0275 M1182.97 45.84 Q1182.89 39.7232 1179.53 36.0774 Q1176.21 32.4315 1170.7 32.4315 Q1164.46 32.4315 1160.69 35.9558 Q1156.96 39.4801 1156.4 45.8805 L1182.97 45.84 Z" fill="#000000" fill-rule="evenodd" fill-opacity="1" /><path clip-path="url(#clip030)" d="M1237.13 86.3491 L1237.13 92.1419 L1194.03 92.1419 L1194.03 86.3491 L1237.13 86.3491 Z" fill="#000000" fill-rule="evenodd" fill-opacity="1" /><path clip-path="url(#clip030)" d="M1281.85 45.1919 L1281.85 72.576 L1274.4 72.576 L1274.4 45.4349 Q1274.4 38.994 1271.89 35.7938 Q1269.38 32.5936 1264.35 32.5936 Q1258.32 32.5936 1254.83 36.4419 Q1251.35 40.2903 1251.35 46.9338 L1251.35 72.576 L1243.86 72.576 L1243.86 9.54393 L1251.35 9.54393 L1251.35 34.2544 Q1254.02 30.163 1257.63 28.1376 Q1261.27 26.1121 1266.01 26.1121 Q1273.83 26.1121 1277.84 30.9732 Q1281.85 35.7938 1281.85 45.1919 Z" fill="#000000" fill-rule="evenodd" fill-opacity="1" /><path clip-path="url(#clip030)" d="M1324.23 12.096 L1356.35 12.096 L1356.35 18.9825 L1331.72 18.9825 L1331.72 33.8088 Q1333.5 33.2012 1335.28 32.9176 Q1337.07 32.5936 1338.85 32.5936 Q1348.98 32.5936 1354.89 38.1433 Q1360.8 43.6931 1360.8 53.1722 Q1360.8 62.9348 1354.73 68.3631 Q1348.65 73.7508 1337.59 73.7508 Q1333.79 73.7508 1329.82 73.1026 Q1325.89 72.4545 1321.67 71.1582 L1321.67 62.9348 Q1325.32 64.9198 1329.21 65.892 Q1333.1 66.8642 1337.43 66.8642 Q1344.44 66.8642 1348.53 63.1779 Q1352.62 59.4916 1352.62 53.1722 Q1352.62 46.8528 1348.53 43.1664 Q1344.44 39.4801 1337.43 39.4801 Q1334.15 39.4801 1330.87 40.2093 Q1327.63 40.9384 1324.23 42.4778 L1324.23 12.096 Z" fill="#000000" fill-rule="evenodd" fill-opacity="1" /><path clip-path="url(#clip030)" d="M1394.43 17.4837 Q1388.11 17.4837 1384.91 23.7221 Q1381.75 29.92 1381.75 42.3968 Q1381.75 54.833 1384.91 61.0714 Q1388.11 67.2693 1394.43 67.2693 Q1400.79 67.2693 1403.95 61.0714 Q1407.15 54.833 1407.15 42.3968 Q1407.15 29.92 1403.95 23.7221 Q1400.79 17.4837 1394.43 17.4837 M1394.43 11.0023 Q1404.6 11.0023 1409.94 19.0636 Q1415.33 27.0843 1415.33 42.3968 Q1415.33 57.6687 1409.94 65.73 Q1404.6 73.7508 1394.43 73.7508 Q1384.26 73.7508 1378.87 65.73 Q1373.52 57.6687 1373.52 42.3968 Q1373.52 27.0843 1378.87 19.0636 Q1384.26 11.0023 1394.43 11.0023 Z" fill="#000000" fill-rule="evenodd" fill-opacity="1" /><path clip-path="url(#clip030)" d="M1429.71 62.2867 L1438.26 62.2867 L1438.26 72.576 L1429.71 72.576 L1429.71 62.2867 Z" fill="#000000" fill-rule="evenodd" fill-opacity="1" /><path clip-path="url(#clip030)" d="M1473.58 17.4837 Q1467.26 17.4837 1464.06 23.7221 Q1460.9 29.92 1460.9 42.3968 Q1460.9 54.833 1464.06 61.0714 Q1467.26 67.2693 1473.58 67.2693 Q1479.94 67.2693 1483.1 61.0714 Q1486.3 54.833 1486.3 42.3968 Q1486.3 29.92 1483.1 23.7221 Q1479.94 17.4837 1473.58 17.4837 M1473.58 11.0023 Q1483.75 11.0023 1489.1 19.0636 Q1494.48 27.0843 1494.48 42.3968 Q1494.48 57.6687 1489.1 65.73 Q1483.75 73.7508 1473.58 73.7508 Q1463.41 73.7508 1458.03 65.73 Q1452.68 57.6687 1452.68 42.3968 Q1452.68 27.0843 1458.03 19.0636 Q1463.41 11.0023 1473.58 11.0023 Z" fill="#000000" fill-rule="evenodd" fill-opacity="1" /><polyline clip-path="url(#clip032)" style="stroke:#009af9; stroke-linecap:butt; stroke-linejoin:round; stroke-width:4; stroke-opacity:1; fill:none" points="
  306.206,1447.87 357.153,1421.99 408.1,1396.11 459.048,1370.23 509.995,1344.35 560.942,1318.47 611.889,1292.59 662.837,1266.71 713.784,1240.83 764.731,1214.94 
  815.678,1189.06 866.625,1163.18 917.573,1137.3 968.52,1111.42 1019.47,1085.54 1070.41,1059.66 1121.36,1033.78 1172.31,1007.9 1223.26,982.015 1274.2,956.134 
  1325.15,930.253 1376.1,904.372 1427.04,878.491 1477.99,852.61 1528.94,826.729 1579.89,800.848 1630.83,774.967 1681.78,749.087 1732.73,723.204 1783.68,697.33 
  1834.62,671.424 1885.57,645.628 1936.52,619.463 1987.46,594.53 2038.41,565.485 2089.36,550.165 2140.31,489.028 2191.25,580.843 2242.2,162.047 2293.15,1447.87 
  
  "/>
<circle clip-path="url(#clip032)" cx="306.206" cy="1447.87" r="14" fill="#009af9" fill-rule="evenodd" fill-opacity="1" stroke="#000000" stroke-opacity="1" stroke-width="3.2"/>
<circle clip-path="url(#clip032)" cx="357.153" cy="1421.99" r="14" fill="#009af9" fill-rule="evenodd" fill-opacity="1" stroke="#000000" stroke-opacity="1" stroke-width="3.2"/>
<circle clip-path="url(#clip032)" cx="408.1" cy="1396.11" r="14" fill="#009af9" fill-rule="evenodd" fill-opacity="1" stroke="#000000" stroke-opacity="1" stroke-width="3.2"/>
<circle clip-path="url(#clip032)" cx="459.048" cy="1370.23" r="14" fill="#009af9" fill-rule="evenodd" fill-opacity="1" stroke="#000000" stroke-opacity="1" stroke-width="3.2"/>
<circle clip-path="url(#clip032)" cx="509.995" cy="1344.35" r="14" fill="#009af9" fill-rule="evenodd" fill-opacity="1" stroke="#000000" stroke-opacity="1" stroke-width="3.2"/>
<circle clip-path="url(#clip032)" cx="560.942" cy="1318.47" r="14" fill="#009af9" fill-rule="evenodd" fill-opacity="1" stroke="#000000" stroke-opacity="1" stroke-width="3.2"/>
<circle clip-path="url(#clip032)" cx="611.889" cy="1292.59" r="14" fill="#009af9" fill-rule="evenodd" fill-opacity="1" stroke="#000000" stroke-opacity="1" stroke-width="3.2"/>
<circle clip-path="url(#clip032)" cx="662.837" cy="1266.71" r="14" fill="#009af9" fill-rule="evenodd" fill-opacity="1" stroke="#000000" stroke-opacity="1" stroke-width="3.2"/>
<circle clip-path="url(#clip032)" cx="713.784" cy="1240.83" r="14" fill="#009af9" fill-rule="evenodd" fill-opacity="1" stroke="#000000" stroke-opacity="1" stroke-width="3.2"/>
<circle clip-path="url(#clip032)" cx="764.731" cy="1214.94" r="14" fill="#009af9" fill-rule="evenodd" fill-opacity="1" stroke="#000000" stroke-opacity="1" stroke-width="3.2"/>
<circle clip-path="url(#clip032)" cx="815.678" cy="1189.06" r="14" fill="#009af9" fill-rule="evenodd" fill-opacity="1" stroke="#000000" stroke-opacity="1" stroke-width="3.2"/>
<circle clip-path="url(#clip032)" cx="866.625" cy="1163.18" r="14" fill="#009af9" fill-rule="evenodd" fill-opacity="1" stroke="#000000" stroke-opacity="1" stroke-width="3.2"/>
<circle clip-path="url(#clip032)" cx="917.573" cy="1137.3" r="14" fill="#009af9" fill-rule="evenodd" fill-opacity="1" stroke="#000000" stroke-opacity="1" stroke-width="3.2"/>
<circle clip-path="url(#clip032)" cx="968.52" cy="1111.42" r="14" fill="#009af9" fill-rule="evenodd" fill-opacity="1" stroke="#000000" stroke-opacity="1" stroke-width="3.2"/>
<circle clip-path="url(#clip032)" cx="1019.47" cy="1085.54" r="14" fill="#009af9" fill-rule="evenodd" fill-opacity="1" stroke="#000000" stroke-opacity="1" stroke-width="3.2"/>
<circle clip-path="url(#clip032)" cx="1070.41" cy="1059.66" r="14" fill="#009af9" fill-rule="evenodd" fill-opacity="1" stroke="#000000" stroke-opacity="1" stroke-width="3.2"/>
<circle clip-path="url(#clip032)" cx="1121.36" cy="1033.78" r="14" fill="#009af9" fill-rule="evenodd" fill-opacity="1" stroke="#000000" stroke-opacity="1" stroke-width="3.2"/>
<circle clip-path="url(#clip032)" cx="1172.31" cy="1007.9" r="14" fill="#009af9" fill-rule="evenodd" fill-opacity="1" stroke="#000000" stroke-opacity="1" stroke-width="3.2"/>
<circle clip-path="url(#clip032)" cx="1223.26" cy="982.015" r="14" fill="#009af9" fill-rule="evenodd" fill-opacity="1" stroke="#000000" stroke-opacity="1" stroke-width="3.2"/>
<circle clip-path="url(#clip032)" cx="1274.2" cy="956.134" r="14" fill="#009af9" fill-rule="evenodd" fill-opacity="1" stroke="#000000" stroke-opacity="1" stroke-width="3.2"/>
<circle clip-path="url(#clip032)" cx="1325.15" cy="930.253" r="14" fill="#009af9" fill-rule="evenodd" fill-opacity="1" stroke="#000000" stroke-opacity="1" stroke-width="3.2"/>
<circle clip-path="url(#clip032)" cx="1376.1" cy="904.372" r="14" fill="#009af9" fill-rule="evenodd" fill-opacity="1" stroke="#000000" stroke-opacity="1" stroke-width="3.2"/>
<circle clip-path="url(#clip032)" cx="1427.04" cy="878.491" r="14" fill="#009af9" fill-rule="evenodd" fill-opacity="1" stroke="#000000" stroke-opacity="1" stroke-width="3.2"/>
<circle clip-path="url(#clip032)" cx="1477.99" cy="852.61" r="14" fill="#009af9" fill-rule="evenodd" fill-opacity="1" stroke="#000000" stroke-opacity="1" stroke-width="3.2"/>
<circle clip-path="url(#clip032)" cx="1528.94" cy="826.729" r="14" fill="#009af9" fill-rule="evenodd" fill-opacity="1" stroke="#000000" stroke-opacity="1" stroke-width="3.2"/>
<circle clip-path="url(#clip032)" cx="1579.89" cy="800.848" r="14" fill="#009af9" fill-rule="evenodd" fill-opacity="1" stroke="#000000" stroke-opacity="1" stroke-width="3.2"/>
<circle clip-path="url(#clip032)" cx="1630.83" cy="774.967" r="14" fill="#009af9" fill-rule="evenodd" fill-opacity="1" stroke="#000000" stroke-opacity="1" stroke-width="3.2"/>
<circle clip-path="url(#clip032)" cx="1681.78" cy="749.087" r="14" fill="#009af9" fill-rule="evenodd" fill-opacity="1" stroke="#000000" stroke-opacity="1" stroke-width="3.2"/>
<circle clip-path="url(#clip032)" cx="1732.73" cy="723.204" r="14" fill="#009af9" fill-rule="evenodd" fill-opacity="1" stroke="#000000" stroke-opacity="1" stroke-width="3.2"/>
<circle clip-path="url(#clip032)" cx="1783.68" cy="697.33" r="14" fill="#009af9" fill-rule="evenodd" fill-opacity="1" stroke="#000000" stroke-opacity="1" stroke-width="3.2"/>
<circle clip-path="url(#clip032)" cx="1834.62" cy="671.424" r="14" fill="#009af9" fill-rule="evenodd" fill-opacity="1" stroke="#000000" stroke-opacity="1" stroke-width="3.2"/>
<circle clip-path="url(#clip032)" cx="1885.57" cy="645.628" r="14" fill="#009af9" fill-rule="evenodd" fill-opacity="1" stroke="#000000" stroke-opacity="1" stroke-width="3.2"/>
<circle clip-path="url(#clip032)" cx="1936.52" cy="619.463" r="14" fill="#009af9" fill-rule="evenodd" fill-opacity="1" stroke="#000000" stroke-opacity="1" stroke-width="3.2"/>
<circle clip-path="url(#clip032)" cx="1987.46" cy="594.53" r="14" fill="#009af9" fill-rule="evenodd" fill-opacity="1" stroke="#000000" stroke-opacity="1" stroke-width="3.2"/>
<circle clip-path="url(#clip032)" cx="2038.41" cy="565.485" r="14" fill="#009af9" fill-rule="evenodd" fill-opacity="1" stroke="#000000" stroke-opacity="1" stroke-width="3.2"/>
<circle clip-path="url(#clip032)" cx="2089.36" cy="550.165" r="14" fill="#009af9" fill-rule="evenodd" fill-opacity="1" stroke="#000000" stroke-opacity="1" stroke-width="3.2"/>
<circle clip-path="url(#clip032)" cx="2140.31" cy="489.028" r="14" fill="#009af9" fill-rule="evenodd" fill-opacity="1" stroke="#000000" stroke-opacity="1" stroke-width="3.2"/>
<circle clip-path="url(#clip032)" cx="2191.25" cy="580.843" r="14" fill="#009af9" fill-rule="evenodd" fill-opacity="1" stroke="#000000" stroke-opacity="1" stroke-width="3.2"/>
<circle clip-path="url(#clip032)" cx="2242.2" cy="162.047" r="14" fill="#009af9" fill-rule="evenodd" fill-opacity="1" stroke="#000000" stroke-opacity="1" stroke-width="3.2"/>
<circle clip-path="url(#clip032)" cx="2293.15" cy="1447.87" r="14" fill="#009af9" fill-rule="evenodd" fill-opacity="1" stroke="#000000" stroke-opacity="1" stroke-width="3.2"/>
</svg>
