<?xml version="1.0" encoding="utf-8"?>
<svg xmlns="http://www.w3.org/2000/svg" xmlns:xlink="http://www.w3.org/1999/xlink" width="600" height="400" viewBox="0 0 2400 1600">
<defs>
  <clipPath id="clip160">
    <rect x="0" y="0" width="2400" height="1600"/>
  </clipPath>
</defs>
<path clip-path="url(#clip160)" d="
M0 1600 L2400 1600 L2400 0 L0 0  Z
  " fill="#ffffff" fill-rule="evenodd" fill-opacity="1"/>
<defs>
  <clipPath id="clip161">
    <rect x="480" y="0" width="1681" height="1600"/>
  </clipPath>
</defs>
<path clip-path="url(#clip160)" d="
M213.607 1486.45 L2352.76 1486.45 L2352.76 47.2441 L213.607 47.2441  Z
  " fill="#ffffff" fill-rule="evenodd" fill-opacity="1"/>
<defs>
  <clipPath id="clip162">
    <rect x="213" y="47" width="2140" height="1440"/>
  </clipPath>
</defs>
<polyline clip-path="url(#clip162)" style="stroke:#000000; stroke-linecap:butt; stroke-linejoin:round; stroke-width:2; stroke-opacity:0.1; fill:none" points="
  699.005,1486.45 699.005,47.2441 
  "/>
<polyline clip-path="url(#clip162)" style="stroke:#000000; stroke-linecap:butt; stroke-linejoin:round; stroke-width:2; stroke-opacity:0.1; fill:none" points="
  1230.07,1486.45 1230.07,47.2441 
  "/>
<polyline clip-path="url(#clip162)" style="stroke:#000000; stroke-linecap:butt; stroke-linejoin:round; stroke-width:2; stroke-opacity:0.1; fill:none" points="
  1761.14,1486.45 1761.14,47.2441 
  "/>
<polyline clip-path="url(#clip162)" style="stroke:#000000; stroke-linecap:butt; stroke-linejoin:round; stroke-width:2; stroke-opacity:0.1; fill:none" points="
  2292.21,1486.45 2292.21,47.2441 
  "/>
<polyline clip-path="url(#clip160)" style="stroke:#000000; stroke-linecap:butt; stroke-linejoin:round; stroke-width:4; stroke-opacity:1; fill:none" points="
  213.607,1486.45 2352.76,1486.45 
  "/>
<polyline clip-path="url(#clip160)" style="stroke:#000000; stroke-linecap:butt; stroke-linejoin:round; stroke-width:4; stroke-opacity:1; fill:none" points="
  699.005,1486.45 699.005,1467.55 
  "/>
<polyline clip-path="url(#clip160)" style="stroke:#000000; stroke-linecap:butt; stroke-linejoin:round; stroke-width:4; stroke-opacity:1; fill:none" points="
  1230.07,1486.45 1230.07,1467.55 
  "/>
<polyline clip-path="url(#clip160)" style="stroke:#000000; stroke-linecap:butt; stroke-linejoin:round; stroke-width:4; stroke-opacity:1; fill:none" points="
  1761.14,1486.45 1761.14,1467.55 
  "/>
<polyline clip-path="url(#clip160)" style="stroke:#000000; stroke-linecap:butt; stroke-linejoin:round; stroke-width:4; stroke-opacity:1; fill:none" points="
  2292.21,1486.45 2292.21,1467.55 
  "/>
<path clip-path="url(#clip160)" d="M689.283 1512.56 L707.639 1512.56 L707.639 1516.5 L693.565 1516.5 L693.565 1524.97 Q694.584 1524.62 695.602 1524.46 Q696.621 1524.27 697.639 1524.27 Q703.426 1524.27 706.806 1527.44 Q710.186 1530.62 710.186 1536.03 Q710.186 1541.61 706.713 1544.71 Q703.241 1547.79 696.922 1547.79 Q694.746 1547.79 692.477 1547.42 Q690.232 1547.05 687.825 1546.31 L687.825 1541.61 Q689.908 1542.74 692.13 1543.3 Q694.352 1543.86 696.829 1543.86 Q700.834 1543.86 703.172 1541.75 Q705.51 1539.64 705.51 1536.03 Q705.51 1532.42 703.172 1530.31 Q700.834 1528.21 696.829 1528.21 Q694.954 1528.21 693.079 1528.62 Q691.227 1529.04 689.283 1529.92 L689.283 1512.56 Z" fill="#000000" fill-rule="evenodd" fill-opacity="1" /><path clip-path="url(#clip160)" d="M1204.76 1543.18 L1212.4 1543.18 L1212.4 1516.82 L1204.09 1518.49 L1204.09 1514.23 L1212.35 1512.56 L1217.03 1512.56 L1217.03 1543.18 L1224.67 1543.18 L1224.67 1547.12 L1204.76 1547.12 L1204.76 1543.18 Z" fill="#000000" fill-rule="evenodd" fill-opacity="1" /><path clip-path="url(#clip160)" d="M1244.11 1515.64 Q1240.5 1515.64 1238.67 1519.2 Q1236.87 1522.75 1236.87 1529.87 Q1236.87 1536.98 1238.67 1540.55 Q1240.5 1544.09 1244.11 1544.09 Q1247.75 1544.09 1249.55 1540.55 Q1251.38 1536.98 1251.38 1529.87 Q1251.38 1522.75 1249.55 1519.2 Q1247.75 1515.64 1244.11 1515.64 M1244.11 1511.93 Q1249.92 1511.93 1252.98 1516.54 Q1256.06 1521.12 1256.06 1529.87 Q1256.06 1538.6 1252.98 1543.21 Q1249.92 1547.79 1244.11 1547.79 Q1238.3 1547.79 1235.23 1543.21 Q1232.17 1538.6 1232.17 1529.87 Q1232.17 1521.12 1235.23 1516.54 Q1238.3 1511.93 1244.11 1511.93 Z" fill="#000000" fill-rule="evenodd" fill-opacity="1" /><path clip-path="url(#clip160)" d="M1736.33 1543.18 L1743.97 1543.18 L1743.97 1516.82 L1735.66 1518.49 L1735.66 1514.23 L1743.92 1512.56 L1748.6 1512.56 L1748.6 1543.18 L1756.24 1543.18 L1756.24 1547.12 L1736.33 1547.12 L1736.33 1543.18 Z" fill="#000000" fill-rule="evenodd" fill-opacity="1" /><path clip-path="url(#clip160)" d="M1765.73 1512.56 L1784.08 1512.56 L1784.08 1516.5 L1770.01 1516.5 L1770.01 1524.97 Q1771.03 1524.62 1772.05 1524.46 Q1773.07 1524.27 1774.08 1524.27 Q1779.87 1524.27 1783.25 1527.44 Q1786.63 1530.62 1786.63 1536.03 Q1786.63 1541.61 1783.16 1544.71 Q1779.69 1547.79 1773.37 1547.79 Q1771.19 1547.79 1768.92 1547.42 Q1766.68 1547.05 1764.27 1546.31 L1764.27 1541.61 Q1766.35 1542.74 1768.57 1543.3 Q1770.8 1543.86 1773.27 1543.86 Q1777.28 1543.86 1779.62 1541.75 Q1781.95 1539.64 1781.95 1536.03 Q1781.95 1532.42 1779.62 1530.31 Q1777.28 1528.21 1773.27 1528.21 Q1771.4 1528.21 1769.52 1528.62 Q1767.67 1529.04 1765.73 1529.92 L1765.73 1512.56 Z" fill="#000000" fill-rule="evenodd" fill-opacity="1" /><path clip-path="url(#clip160)" d="M2270.99 1543.18 L2287.31 1543.18 L2287.31 1547.12 L2265.36 1547.12 L2265.36 1543.18 Q2268.02 1540.43 2272.61 1535.8 Q2277.21 1531.15 2278.39 1529.81 Q2280.64 1527.28 2281.52 1525.55 Q2282.42 1523.79 2282.42 1522.1 Q2282.42 1519.34 2280.48 1517.61 Q2278.56 1515.87 2275.45 1515.87 Q2273.26 1515.87 2270.8 1516.63 Q2268.37 1517.4 2265.59 1518.95 L2265.59 1514.23 Q2268.42 1513.09 2270.87 1512.51 Q2273.33 1511.93 2275.36 1511.93 Q2280.73 1511.93 2283.93 1514.62 Q2287.12 1517.31 2287.12 1521.8 Q2287.12 1523.93 2286.31 1525.85 Q2285.52 1527.74 2283.42 1530.34 Q2282.84 1531.01 2279.74 1534.23 Q2276.64 1537.42 2270.99 1543.18 Z" fill="#000000" fill-rule="evenodd" fill-opacity="1" /><path clip-path="url(#clip160)" d="M2307.12 1515.64 Q2303.51 1515.64 2301.68 1519.2 Q2299.88 1522.75 2299.88 1529.87 Q2299.88 1536.98 2301.68 1540.55 Q2303.51 1544.09 2307.12 1544.09 Q2310.76 1544.09 2312.56 1540.55 Q2314.39 1536.98 2314.39 1529.87 Q2314.39 1522.75 2312.56 1519.2 Q2310.76 1515.64 2307.12 1515.64 M2307.12 1511.93 Q2312.93 1511.93 2315.99 1516.54 Q2319.07 1521.12 2319.07 1529.87 Q2319.07 1538.6 2315.99 1543.21 Q2312.93 1547.79 2307.12 1547.79 Q2301.31 1547.79 2298.23 1543.21 Q2295.18 1538.6 2295.18 1529.87 Q2295.18 1521.12 2298.23 1516.54 Q2301.31 1511.93 2307.12 1511.93 Z" fill="#000000" fill-rule="evenodd" fill-opacity="1" /><polyline clip-path="url(#clip162)" style="stroke:#000000; stroke-linecap:butt; stroke-linejoin:round; stroke-width:2; stroke-opacity:0.1; fill:none" points="
  213.607,1136.46 2352.76,1136.46 
  "/>
<polyline clip-path="url(#clip162)" style="stroke:#000000; stroke-linecap:butt; stroke-linejoin:round; stroke-width:2; stroke-opacity:0.1; fill:none" points="
  213.607,640.735 2352.76,640.735 
  "/>
<polyline clip-path="url(#clip162)" style="stroke:#000000; stroke-linecap:butt; stroke-linejoin:round; stroke-width:2; stroke-opacity:0.1; fill:none" points="
  213.607,145.006 2352.76,145.006 
  "/>
<polyline clip-path="url(#clip160)" style="stroke:#000000; stroke-linecap:butt; stroke-linejoin:round; stroke-width:4; stroke-opacity:1; fill:none" points="
  213.607,1486.45 213.607,47.2441 
  "/>
<polyline clip-path="url(#clip160)" style="stroke:#000000; stroke-linecap:butt; stroke-linejoin:round; stroke-width:4; stroke-opacity:1; fill:none" points="
  213.607,1136.46 232.505,1136.46 
  "/>
<polyline clip-path="url(#clip160)" style="stroke:#000000; stroke-linecap:butt; stroke-linejoin:round; stroke-width:4; stroke-opacity:1; fill:none" points="
  213.607,640.735 232.505,640.735 
  "/>
<polyline clip-path="url(#clip160)" style="stroke:#000000; stroke-linecap:butt; stroke-linejoin:round; stroke-width:4; stroke-opacity:1; fill:none" points="
  213.607,145.006 232.505,145.006 
  "/>
<path clip-path="url(#clip160)" d="M51.6634 1156.26 L59.3023 1156.26 L59.3023 1129.89 L50.9921 1131.56 L50.9921 1127.3 L59.256 1125.63 L63.9319 1125.63 L63.9319 1156.26 L71.5707 1156.26 L71.5707 1160.19 L51.6634 1160.19 L51.6634 1156.26 Z" fill="#000000" fill-rule="evenodd" fill-opacity="1" /><path clip-path="url(#clip160)" d="M91.0151 1128.71 Q87.404 1128.71 85.5753 1132.28 Q83.7697 1135.82 83.7697 1142.95 Q83.7697 1150.05 85.5753 1153.62 Q87.404 1157.16 91.0151 1157.16 Q94.6493 1157.16 96.4548 1153.62 Q98.2835 1150.05 98.2835 1142.95 Q98.2835 1135.82 96.4548 1132.28 Q94.6493 1128.71 91.0151 1128.71 M91.0151 1125.01 Q96.8252 1125.01 99.8808 1129.61 Q102.959 1134.2 102.959 1142.95 Q102.959 1151.67 99.8808 1156.28 Q96.8252 1160.86 91.0151 1160.86 Q85.2049 1160.86 82.1262 1156.28 Q79.0707 1151.67 79.0707 1142.95 Q79.0707 1134.2 82.1262 1129.61 Q85.2049 1125.01 91.0151 1125.01 Z" fill="#000000" fill-rule="evenodd" fill-opacity="1" /><path clip-path="url(#clip160)" d="M102.959 1119.11 L127.071 1119.11 L127.071 1122.31 L102.959 1122.31 L102.959 1119.11 Z" fill="#000000" fill-rule="evenodd" fill-opacity="1" /><path clip-path="url(#clip160)" d="M135.929 1129.58 L142.136 1129.58 L142.136 1108.16 L135.384 1109.52 L135.384 1106.06 L142.098 1104.7 L145.898 1104.7 L145.898 1129.58 L152.104 1129.58 L152.104 1132.78 L135.929 1132.78 L135.929 1129.58 Z" fill="#000000" fill-rule="evenodd" fill-opacity="1" /><path clip-path="url(#clip160)" d="M167.903 1107.2 Q164.969 1107.2 163.483 1110.1 Q162.016 1112.98 162.016 1118.77 Q162.016 1124.54 163.483 1127.44 Q164.969 1130.32 167.903 1130.32 Q170.855 1130.32 172.322 1127.44 Q173.808 1124.54 173.808 1118.77 Q173.808 1112.98 172.322 1110.1 Q170.855 1107.2 167.903 1107.2 M167.903 1104.19 Q172.623 1104.19 175.106 1107.94 Q177.607 1111.66 177.607 1118.77 Q177.607 1125.86 175.106 1129.6 Q172.623 1133.33 167.903 1133.33 Q163.182 1133.33 160.68 1129.6 Q158.198 1125.86 158.198 1118.77 Q158.198 1111.66 160.68 1107.94 Q163.182 1104.19 167.903 1104.19 Z" fill="#000000" fill-rule="evenodd" fill-opacity="1" /><path clip-path="url(#clip160)" d="M76.9787 660.528 L84.6175 660.528 L84.6175 634.162 L76.3074 635.829 L76.3074 631.57 L84.5712 629.903 L89.2471 629.903 L89.2471 660.528 L96.886 660.528 L96.886 664.463 L76.9787 664.463 L76.9787 660.528 Z" fill="#000000" fill-rule="evenodd" fill-opacity="1" /><path clip-path="url(#clip160)" d="M116.33 632.982 Q112.719 632.982 110.891 636.546 Q109.085 640.088 109.085 647.218 Q109.085 654.324 110.891 657.889 Q112.719 661.431 116.33 661.431 Q119.965 661.431 121.77 657.889 Q123.599 654.324 123.599 647.218 Q123.599 640.088 121.77 636.546 Q119.965 632.982 116.33 632.982 M116.33 629.278 Q122.14 629.278 125.196 633.884 Q128.275 638.468 128.275 647.218 Q128.275 655.945 125.196 660.551 Q122.14 665.134 116.33 665.134 Q110.52 665.134 107.441 660.551 Q104.386 655.945 104.386 647.218 Q104.386 638.468 107.441 633.884 Q110.52 629.278 116.33 629.278 Z" fill="#000000" fill-rule="evenodd" fill-opacity="1" /><path clip-path="url(#clip160)" d="M128.275 623.379 L152.386 623.379 L152.386 626.577 L128.275 626.577 L128.275 623.379 Z" fill="#000000" fill-rule="evenodd" fill-opacity="1" /><path clip-path="url(#clip160)" d="M160.624 608.973 L175.539 608.973 L175.539 612.17 L164.103 612.17 L164.103 619.054 Q164.931 618.771 165.759 618.64 Q166.586 618.489 167.414 618.489 Q172.116 618.489 174.862 621.066 Q177.607 623.643 177.607 628.044 Q177.607 632.576 174.786 635.097 Q171.965 637.598 166.831 637.598 Q165.063 637.598 163.22 637.297 Q161.395 636.996 159.439 636.394 L159.439 632.576 Q161.132 633.498 162.937 633.949 Q164.743 634.401 166.755 634.401 Q170.009 634.401 171.909 632.689 Q173.808 630.978 173.808 628.044 Q173.808 625.11 171.909 623.398 Q170.009 621.687 166.755 621.687 Q165.232 621.687 163.709 622.025 Q162.204 622.364 160.624 623.078 L160.624 608.973 Z" fill="#000000" fill-rule="evenodd" fill-opacity="1" /><path clip-path="url(#clip160)" d="M106.902 164.799 L114.541 164.799 L114.541 138.433 L106.231 140.1 L106.231 135.841 L114.494 134.174 L119.17 134.174 L119.17 164.799 L126.809 164.799 L126.809 168.734 L106.902 168.734 L106.902 164.799 Z" fill="#000000" fill-rule="evenodd" fill-opacity="1" /><path clip-path="url(#clip160)" d="M146.253 137.253 Q142.642 137.253 140.814 140.818 Q139.008 144.359 139.008 151.489 Q139.008 158.595 140.814 162.16 Q142.642 165.702 146.253 165.702 Q149.888 165.702 151.693 162.16 Q153.522 158.595 153.522 151.489 Q153.522 144.359 151.693 140.818 Q149.888 137.253 146.253 137.253 M146.253 133.549 Q152.064 133.549 155.119 138.156 Q158.198 142.739 158.198 151.489 Q158.198 160.216 155.119 164.822 Q152.064 169.405 146.253 169.405 Q140.443 169.405 137.365 164.822 Q134.309 160.216 134.309 151.489 Q134.309 142.739 137.365 138.156 Q140.443 133.549 146.253 133.549 Z" fill="#000000" fill-rule="evenodd" fill-opacity="1" /><path clip-path="url(#clip160)" d="M167.903 115.745 Q164.969 115.745 163.483 118.641 Q162.016 121.519 162.016 127.312 Q162.016 133.086 163.483 135.982 Q164.969 138.86 167.903 138.86 Q170.855 138.86 172.322 135.982 Q173.808 133.086 173.808 127.312 Q173.808 121.519 172.322 118.641 Q170.855 115.745 167.903 115.745 M167.903 112.736 Q172.623 112.736 175.106 116.479 Q177.607 120.203 177.607 127.312 Q177.607 134.402 175.106 138.145 Q172.623 141.869 167.903 141.869 Q163.182 141.869 160.68 138.145 Q158.198 134.402 158.198 127.312 Q158.198 120.203 160.68 116.479 Q163.182 112.736 167.903 112.736 Z" fill="#000000" fill-rule="evenodd" fill-opacity="1" /><polyline clip-path="url(#clip162)" style="stroke:#009af9; stroke-linecap:butt; stroke-linejoin:round; stroke-width:4; stroke-opacity:1; fill:none" points="
  274.149,87.9763 380.363,165.465 486.577,247.901 592.791,377.702 699.005,627.653 805.219,1127.07 911.433,1424.34 1017.65,1443.18 1123.86,1429.07 1230.07,1442.21 
  1336.29,1430.31 1442.5,1442.69 1548.72,1441.81 1654.93,1439.69 1761.14,1438.36 1867.36,1445.72 1973.57,1420.75 2079.79,1436.26 2186,1440.27 2292.21,1429.93 
  
  "/>
<circle clip-path="url(#clip162)" cx="274.149" cy="87.9763" r="14" fill="#009af9" fill-rule="evenodd" fill-opacity="1" stroke="#000000" stroke-opacity="1" stroke-width="3.2"/>
<circle clip-path="url(#clip162)" cx="380.363" cy="165.465" r="14" fill="#009af9" fill-rule="evenodd" fill-opacity="1" stroke="#000000" stroke-opacity="1" stroke-width="3.2"/>
<circle clip-path="url(#clip162)" cx="486.577" cy="247.901" r="14" fill="#009af9" fill-rule="evenodd" fill-opacity="1" stroke="#000000" stroke-opacity="1" stroke-width="3.2"/>
<circle clip-path="url(#clip162)" cx="592.791" cy="377.702" r="14" fill="#009af9" fill-rule="evenodd" fill-opacity="1" stroke="#000000" stroke-opacity="1" stroke-width="3.2"/>
<circle clip-path="url(#clip162)" cx="699.005" cy="627.653" r="14" fill="#009af9" fill-rule="evenodd" fill-opacity="1" stroke="#000000" stroke-opacity="1" stroke-width="3.2"/>
<circle clip-path="url(#clip162)" cx="805.219" cy="1127.07" r="14" fill="#009af9" fill-rule="evenodd" fill-opacity="1" stroke="#000000" stroke-opacity="1" stroke-width="3.2"/>
<circle clip-path="url(#clip162)" cx="911.433" cy="1424.34" r="14" fill="#009af9" fill-rule="evenodd" fill-opacity="1" stroke="#000000" stroke-opacity="1" stroke-width="3.2"/>
<circle clip-path="url(#clip162)" cx="1017.65" cy="1443.18" r="14" fill="#009af9" fill-rule="evenodd" fill-opacity="1" stroke="#000000" stroke-opacity="1" stroke-width="3.2"/>
<circle clip-path="url(#clip162)" cx="1123.86" cy="1429.07" r="14" fill="#009af9" fill-rule="evenodd" fill-opacity="1" stroke="#000000" stroke-opacity="1" stroke-width="3.2"/>
<circle clip-path="url(#clip162)" cx="1230.07" cy="1442.21" r="14" fill="#009af9" fill-rule="evenodd" fill-opacity="1" stroke="#000000" stroke-opacity="1" stroke-width="3.2"/>
<circle clip-path="url(#clip162)" cx="1336.29" cy="1430.31" r="14" fill="#009af9" fill-rule="evenodd" fill-opacity="1" stroke="#000000" stroke-opacity="1" stroke-width="3.2"/>
<circle clip-path="url(#clip162)" cx="1442.5" cy="1442.69" r="14" fill="#009af9" fill-rule="evenodd" fill-opacity="1" stroke="#000000" stroke-opacity="1" stroke-width="3.2"/>
<circle clip-path="url(#clip162)" cx="1548.72" cy="1441.81" r="14" fill="#009af9" fill-rule="evenodd" fill-opacity="1" stroke="#000000" stroke-opacity="1" stroke-width="3.2"/>
<circle clip-path="url(#clip162)" cx="1654.93" cy="1439.69" r="14" fill="#009af9" fill-rule="evenodd" fill-opacity="1" stroke="#000000" stroke-opacity="1" stroke-width="3.2"/>
<circle clip-path="url(#clip162)" cx="1761.14" cy="1438.36" r="14" fill="#009af9" fill-rule="evenodd" fill-opacity="1" stroke="#000000" stroke-opacity="1" stroke-width="3.2"/>
<circle clip-path="url(#clip162)" cx="1867.36" cy="1445.72" r="14" fill="#009af9" fill-rule="evenodd" fill-opacity="1" stroke="#000000" stroke-opacity="1" stroke-width="3.2"/>
<circle clip-path="url(#clip162)" cx="1973.57" cy="1420.75" r="14" fill="#009af9" fill-rule="evenodd" fill-opacity="1" stroke="#000000" stroke-opacity="1" stroke-width="3.2"/>
<circle clip-path="url(#clip162)" cx="2079.79" cy="1436.26" r="14" fill="#009af9" fill-rule="evenodd" fill-opacity="1" stroke="#000000" stroke-opacity="1" stroke-width="3.2"/>
<circle clip-path="url(#clip162)" cx="2186" cy="1440.27" r="14" fill="#009af9" fill-rule="evenodd" fill-opacity="1" stroke="#000000" stroke-opacity="1" stroke-width="3.2"/>
<circle clip-path="url(#clip162)" cx="2292.21" cy="1429.93" r="14" fill="#009af9" fill-rule="evenodd" fill-opacity="1" stroke="#000000" stroke-opacity="1" stroke-width="3.2"/>
<path clip-path="url(#clip160)" d="
M1991.34 198.898 L2281.45 198.898 L2281.45 95.2176 L1991.34 95.2176  Z
  " fill="#ffffff" fill-rule="evenodd" fill-opacity="1"/>
<polyline clip-path="url(#clip160)" style="stroke:#000000; stroke-linecap:butt; stroke-linejoin:round; stroke-width:4; stroke-opacity:1; fill:none" points="
  1991.34,198.898 2281.45,198.898 2281.45,95.2176 1991.34,95.2176 1991.34,198.898 
  "/>
<polyline clip-path="url(#clip160)" style="stroke:#009af9; stroke-linecap:butt; stroke-linejoin:round; stroke-width:4; stroke-opacity:1; fill:none" points="
  2015.11,147.058 2157.72,147.058 
  "/>
<circle clip-path="url(#clip160)" cx="2086.41" cy="147.058" r="23" fill="#009af9" fill-rule="evenodd" fill-opacity="1" stroke="#000000" stroke-opacity="1" stroke-width="5.12"/>
<path clip-path="url(#clip160)" d="M2195.33 166.745 Q2193.52 171.375 2191.81 172.787 Q2190.1 174.199 2187.22 174.199 L2183.82 174.199 L2183.82 170.634 L2186.32 170.634 Q2188.08 170.634 2189.05 169.8 Q2190.03 168.967 2191.21 165.865 L2191.97 163.921 L2181.48 138.412 L2186 138.412 L2194.1 158.689 L2202.2 138.412 L2206.72 138.412 L2195.33 166.745 Z" fill="#000000" fill-rule="evenodd" fill-opacity="1" /><path clip-path="url(#clip160)" d="M2214.01 160.402 L2221.65 160.402 L2221.65 134.037 L2213.34 135.703 L2213.34 131.444 L2221.6 129.778 L2226.28 129.778 L2226.28 160.402 L2233.91 160.402 L2233.91 164.338 L2214.01 164.338 L2214.01 160.402 Z" fill="#000000" fill-rule="evenodd" fill-opacity="1" /></svg>
