<?xml version="1.0" encoding="utf-8"?>
<svg xmlns="http://www.w3.org/2000/svg" xmlns:xlink="http://www.w3.org/1999/xlink" width="600" height="400" viewBox="0 0 2400 1600">
<defs>
  <clipPath id="clip300">
    <rect x="0" y="0" width="2400" height="1600"/>
  </clipPath>
</defs>
<path clip-path="url(#clip300)" d="
M0 1600 L2400 1600 L2400 0 L0 0  Z
  " fill="#ffffff" fill-rule="evenodd" fill-opacity="1"/>
<defs>
  <clipPath id="clip301">
    <rect x="480" y="0" width="1681" height="1600"/>
  </clipPath>
</defs>
<path clip-path="url(#clip300)" d="
M147.478 1486.45 L2352.76 1486.45 L2352.76 47.2441 L147.478 47.2441  Z
  " fill="#ffffff" fill-rule="evenodd" fill-opacity="1"/>
<defs>
  <clipPath id="clip302">
    <rect x="147" y="47" width="2206" height="1440"/>
  </clipPath>
</defs>
<polyline clip-path="url(#clip302)" style="stroke:#000000; stroke-linecap:butt; stroke-linejoin:round; stroke-width:2; stroke-opacity:0.1; fill:none" points="
  209.891,1486.45 209.891,47.2441 
  "/>
<polyline clip-path="url(#clip302)" style="stroke:#000000; stroke-linecap:butt; stroke-linejoin:round; stroke-width:2; stroke-opacity:0.1; fill:none" points="
  730.004,1486.45 730.004,47.2441 
  "/>
<polyline clip-path="url(#clip302)" style="stroke:#000000; stroke-linecap:butt; stroke-linejoin:round; stroke-width:2; stroke-opacity:0.1; fill:none" points="
  1250.12,1486.45 1250.12,47.2441 
  "/>
<polyline clip-path="url(#clip302)" style="stroke:#000000; stroke-linecap:butt; stroke-linejoin:round; stroke-width:2; stroke-opacity:0.1; fill:none" points="
  1770.23,1486.45 1770.23,47.2441 
  "/>
<polyline clip-path="url(#clip302)" style="stroke:#000000; stroke-linecap:butt; stroke-linejoin:round; stroke-width:2; stroke-opacity:0.1; fill:none" points="
  2290.34,1486.45 2290.34,47.2441 
  "/>
<polyline clip-path="url(#clip300)" style="stroke:#000000; stroke-linecap:butt; stroke-linejoin:round; stroke-width:4; stroke-opacity:1; fill:none" points="
  147.478,1486.45 2352.76,1486.45 
  "/>
<polyline clip-path="url(#clip300)" style="stroke:#000000; stroke-linecap:butt; stroke-linejoin:round; stroke-width:4; stroke-opacity:1; fill:none" points="
  209.891,1486.45 209.891,1467.55 
  "/>
<polyline clip-path="url(#clip300)" style="stroke:#000000; stroke-linecap:butt; stroke-linejoin:round; stroke-width:4; stroke-opacity:1; fill:none" points="
  730.004,1486.45 730.004,1467.55 
  "/>
<polyline clip-path="url(#clip300)" style="stroke:#000000; stroke-linecap:butt; stroke-linejoin:round; stroke-width:4; stroke-opacity:1; fill:none" points="
  1250.12,1486.45 1250.12,1467.55 
  "/>
<polyline clip-path="url(#clip300)" style="stroke:#000000; stroke-linecap:butt; stroke-linejoin:round; stroke-width:4; stroke-opacity:1; fill:none" points="
  1770.23,1486.45 1770.23,1467.55 
  "/>
<polyline clip-path="url(#clip300)" style="stroke:#000000; stroke-linecap:butt; stroke-linejoin:round; stroke-width:4; stroke-opacity:1; fill:none" points="
  2290.34,1486.45 2290.34,1467.55 
  "/>
<path clip-path="url(#clip300)" d="M179.834 1530.29 L209.509 1530.29 L209.509 1534.23 L179.834 1534.23 L179.834 1530.29 Z" fill="#000000" fill-rule="evenodd" fill-opacity="1" /><path clip-path="url(#clip300)" d="M223.63 1543.18 L239.949 1543.18 L239.949 1547.12 L218.005 1547.12 L218.005 1543.18 Q220.667 1540.43 225.25 1535.8 Q229.857 1531.15 231.037 1529.81 Q233.283 1527.28 234.162 1525.55 Q235.065 1523.79 235.065 1522.1 Q235.065 1519.34 233.12 1517.61 Q231.199 1515.87 228.097 1515.87 Q225.898 1515.87 223.445 1516.63 Q221.014 1517.4 218.236 1518.95 L218.236 1514.23 Q221.06 1513.09 223.514 1512.51 Q225.968 1511.93 228.005 1511.93 Q233.375 1511.93 236.57 1514.62 Q239.764 1517.31 239.764 1521.8 Q239.764 1523.93 238.954 1525.85 Q238.167 1527.74 236.06 1530.34 Q235.482 1531.01 232.38 1534.23 Q229.278 1537.42 223.63 1543.18 Z" fill="#000000" fill-rule="evenodd" fill-opacity="1" /><path clip-path="url(#clip300)" d="M699.761 1530.29 L729.437 1530.29 L729.437 1534.23 L699.761 1534.23 L699.761 1530.29 Z" fill="#000000" fill-rule="evenodd" fill-opacity="1" /><path clip-path="url(#clip300)" d="M740.34 1543.18 L747.979 1543.18 L747.979 1516.82 L739.668 1518.49 L739.668 1514.23 L747.932 1512.56 L752.608 1512.56 L752.608 1543.18 L760.247 1543.18 L760.247 1547.12 L740.34 1547.12 L740.34 1543.18 Z" fill="#000000" fill-rule="evenodd" fill-opacity="1" /><path clip-path="url(#clip300)" d="M1250.12 1515.64 Q1246.51 1515.64 1244.68 1519.2 Q1242.87 1522.75 1242.87 1529.87 Q1242.87 1536.98 1244.68 1540.55 Q1246.51 1544.09 1250.12 1544.09 Q1253.75 1544.09 1255.56 1540.55 Q1257.39 1536.98 1257.39 1529.87 Q1257.39 1522.75 1255.56 1519.2 Q1253.75 1515.64 1250.12 1515.64 M1250.12 1511.93 Q1255.93 1511.93 1258.98 1516.54 Q1262.06 1521.12 1262.06 1529.87 Q1262.06 1538.6 1258.98 1543.21 Q1255.93 1547.79 1250.12 1547.79 Q1244.31 1547.79 1241.23 1543.21 Q1238.17 1538.6 1238.17 1529.87 Q1238.17 1521.12 1241.23 1516.54 Q1244.31 1511.93 1250.12 1511.93 Z" fill="#000000" fill-rule="evenodd" fill-opacity="1" /><path clip-path="url(#clip300)" d="M1760.61 1543.18 L1768.25 1543.18 L1768.25 1516.82 L1759.94 1518.49 L1759.94 1514.23 L1768.2 1512.56 L1772.88 1512.56 L1772.88 1543.18 L1780.52 1543.18 L1780.52 1547.12 L1760.61 1547.12 L1760.61 1543.18 Z" fill="#000000" fill-rule="evenodd" fill-opacity="1" /><path clip-path="url(#clip300)" d="M2285 1543.18 L2301.31 1543.18 L2301.31 1547.12 L2279.37 1547.12 L2279.37 1543.18 Q2282.03 1540.43 2286.62 1535.8 Q2291.22 1531.15 2292.4 1529.81 Q2294.65 1527.28 2295.53 1525.55 Q2296.43 1523.79 2296.43 1522.1 Q2296.43 1519.34 2294.49 1517.61 Q2292.56 1515.87 2289.46 1515.87 Q2287.26 1515.87 2284.81 1516.63 Q2282.38 1517.4 2279.6 1518.95 L2279.6 1514.23 Q2282.43 1513.09 2284.88 1512.51 Q2287.33 1511.93 2289.37 1511.93 Q2294.74 1511.93 2297.93 1514.62 Q2301.13 1517.31 2301.13 1521.8 Q2301.13 1523.93 2300.32 1525.85 Q2299.53 1527.74 2297.43 1530.34 Q2296.85 1531.01 2293.75 1534.23 Q2290.64 1537.42 2285 1543.18 Z" fill="#000000" fill-rule="evenodd" fill-opacity="1" /><polyline clip-path="url(#clip302)" style="stroke:#000000; stroke-linecap:butt; stroke-linejoin:round; stroke-width:2; stroke-opacity:0.1; fill:none" points="
  147.478,1458.94 2352.76,1458.94 
  "/>
<polyline clip-path="url(#clip302)" style="stroke:#000000; stroke-linecap:butt; stroke-linejoin:round; stroke-width:2; stroke-opacity:0.1; fill:none" points="
  147.478,1091.42 2352.76,1091.42 
  "/>
<polyline clip-path="url(#clip302)" style="stroke:#000000; stroke-linecap:butt; stroke-linejoin:round; stroke-width:2; stroke-opacity:0.1; fill:none" points="
  147.478,723.898 2352.76,723.898 
  "/>
<polyline clip-path="url(#clip302)" style="stroke:#000000; stroke-linecap:butt; stroke-linejoin:round; stroke-width:2; stroke-opacity:0.1; fill:none" points="
  147.478,356.379 2352.76,356.379 
  "/>
<polyline clip-path="url(#clip300)" style="stroke:#000000; stroke-linecap:butt; stroke-linejoin:round; stroke-width:4; stroke-opacity:1; fill:none" points="
  147.478,1486.45 147.478,47.2441 
  "/>
<polyline clip-path="url(#clip300)" style="stroke:#000000; stroke-linecap:butt; stroke-linejoin:round; stroke-width:4; stroke-opacity:1; fill:none" points="
  147.478,1458.94 166.376,1458.94 
  "/>
<polyline clip-path="url(#clip300)" style="stroke:#000000; stroke-linecap:butt; stroke-linejoin:round; stroke-width:4; stroke-opacity:1; fill:none" points="
  147.478,1091.42 166.376,1091.42 
  "/>
<polyline clip-path="url(#clip300)" style="stroke:#000000; stroke-linecap:butt; stroke-linejoin:round; stroke-width:4; stroke-opacity:1; fill:none" points="
  147.478,723.898 166.376,723.898 
  "/>
<polyline clip-path="url(#clip300)" style="stroke:#000000; stroke-linecap:butt; stroke-linejoin:round; stroke-width:4; stroke-opacity:1; fill:none" points="
  147.478,356.379 166.376,356.379 
  "/>
<path clip-path="url(#clip300)" d="M50.9921 1459.39 L80.6679 1459.39 L80.6679 1463.32 L50.9921 1463.32 L50.9921 1459.39 Z" fill="#000000" fill-rule="evenodd" fill-opacity="1" /><path clip-path="url(#clip300)" d="M91.5706 1472.28 L99.2095 1472.28 L99.2095 1445.92 L90.8993 1447.58 L90.8993 1443.32 L99.1632 1441.66 L103.839 1441.66 L103.839 1472.28 L111.478 1472.28 L111.478 1476.22 L91.5706 1476.22 L91.5706 1472.28 Z" fill="#000000" fill-rule="evenodd" fill-opacity="1" /><path clip-path="url(#clip300)" d="M99.5335 1077.22 Q95.9224 1077.22 94.0937 1080.78 Q92.2882 1084.32 92.2882 1091.45 Q92.2882 1098.56 94.0937 1102.12 Q95.9224 1105.66 99.5335 1105.66 Q103.168 1105.66 104.973 1102.12 Q106.802 1098.56 106.802 1091.45 Q106.802 1084.32 104.973 1080.78 Q103.168 1077.22 99.5335 1077.22 M99.5335 1073.51 Q105.344 1073.51 108.399 1078.12 Q111.478 1082.7 111.478 1091.45 Q111.478 1100.18 108.399 1104.79 Q105.344 1109.37 99.5335 1109.37 Q93.7234 1109.37 90.6447 1104.79 Q87.5892 1100.18 87.5892 1091.45 Q87.5892 1082.7 90.6447 1078.12 Q93.7234 1073.51 99.5335 1073.51 Z" fill="#000000" fill-rule="evenodd" fill-opacity="1" /><path clip-path="url(#clip300)" d="M91.5706 737.243 L99.2095 737.243 L99.2095 710.877 L90.8993 712.544 L90.8993 708.285 L99.1632 706.618 L103.839 706.618 L103.839 737.243 L111.478 737.243 L111.478 741.178 L91.5706 741.178 L91.5706 737.243 Z" fill="#000000" fill-rule="evenodd" fill-opacity="1" /><path clip-path="url(#clip300)" d="M95.1586 369.724 L111.478 369.724 L111.478 373.659 L89.5336 373.659 L89.5336 369.724 Q92.1956 366.969 96.7789 362.339 Q101.385 357.687 102.566 356.344 Q104.811 353.821 105.691 352.085 Q106.594 350.326 106.594 348.636 Q106.594 345.881 104.649 344.145 Q102.728 342.409 99.6261 342.409 Q97.4271 342.409 94.9734 343.173 Q92.5428 343.937 89.7651 345.488 L89.7651 340.766 Q92.5891 339.631 95.0428 339.053 Q97.4965 338.474 99.5335 338.474 Q104.904 338.474 108.098 341.159 Q111.293 343.844 111.293 348.335 Q111.293 350.465 110.483 352.386 Q109.696 354.284 107.589 356.877 Q107.01 357.548 103.909 360.765 Q100.807 363.96 95.1586 369.724 Z" fill="#000000" fill-rule="evenodd" fill-opacity="1" /><polyline clip-path="url(#clip302)" style="stroke:#009af9; stroke-linecap:butt; stroke-linejoin:round; stroke-width:4; stroke-opacity:1; fill:none" points="
  209.891,1445.72 730.004,1223.83 1250.12,766.846 1770.23,309.86 2290.34,87.9763 
  "/>
<circle clip-path="url(#clip302)" cx="209.891" cy="1445.72" r="14" fill="#009af9" fill-rule="evenodd" fill-opacity="1" stroke="#000000" stroke-opacity="1" stroke-width="3.2"/>
<circle clip-path="url(#clip302)" cx="730.004" cy="1223.83" r="14" fill="#009af9" fill-rule="evenodd" fill-opacity="1" stroke="#000000" stroke-opacity="1" stroke-width="3.2"/>
<circle clip-path="url(#clip302)" cx="1250.12" cy="766.846" r="14" fill="#009af9" fill-rule="evenodd" fill-opacity="1" stroke="#000000" stroke-opacity="1" stroke-width="3.2"/>
<circle clip-path="url(#clip302)" cx="1770.23" cy="309.86" r="14" fill="#009af9" fill-rule="evenodd" fill-opacity="1" stroke="#000000" stroke-opacity="1" stroke-width="3.2"/>
<circle clip-path="url(#clip302)" cx="2290.34" cy="87.9763" r="14" fill="#009af9" fill-rule="evenodd" fill-opacity="1" stroke="#000000" stroke-opacity="1" stroke-width="3.2"/>
<polyline clip-path="url(#clip302)" style="stroke:#e26f46; stroke-linecap:butt; stroke-linejoin:round; stroke-width:4; stroke-opacity:1; fill:none" points="
  209.891,1445.72 230.209,1444.66 418.072,1430.13 530.969,1415.4 626.423,1397.71 730.112,1371.29 825.705,1338.72 876.947,1317.57 928.19,1293.7 987.559,1262.64 
  1046.93,1228.11 1152.45,1159.63 1244.98,1095.04 1345.87,1024.51 1447.35,958.364 1503.46,925.335 1559.56,895.365 1612.94,869.865 1666.32,847.327 1721.82,826.931 
  1777.32,809.433 1824.05,796.762 1870.77,785.788 1984.85,765.04 2092.09,751.662 2263.9,738.505 2290.34,737.119 
  "/>
<path clip-path="url(#clip300)" d="
M220.987 250.738 L518.448 250.738 L518.448 95.2176 L220.987 95.2176  Z
  " fill="#ffffff" fill-rule="evenodd" fill-opacity="1"/>
<polyline clip-path="url(#clip300)" style="stroke:#000000; stroke-linecap:butt; stroke-linejoin:round; stroke-width:4; stroke-opacity:1; fill:none" points="
  220.987,250.738 518.448,250.738 518.448,95.2176 220.987,95.2176 220.987,250.738 
  "/>
<polyline clip-path="url(#clip300)" style="stroke:#009af9; stroke-linecap:butt; stroke-linejoin:round; stroke-width:4; stroke-opacity:1; fill:none" points="
  245.49,147.058 392.509,147.058 
  "/>
<circle clip-path="url(#clip300)" cx="319" cy="147.058" r="23" fill="#009af9" fill-rule="evenodd" fill-opacity="1" stroke="#000000" stroke-opacity="1" stroke-width="5.12"/>
<path clip-path="url(#clip300)" d="M430.854 166.745 Q429.049 171.375 427.336 172.787 Q425.623 174.199 422.753 174.199 L419.35 174.199 L419.35 170.634 L421.85 170.634 Q423.609 170.634 424.581 169.8 Q425.554 168.967 426.734 165.865 L427.498 163.921 L417.012 138.412 L421.526 138.412 L429.628 158.689 L437.729 138.412 L442.243 138.412 L430.854 166.745 Z" fill="#000000" fill-rule="evenodd" fill-opacity="1" /><path clip-path="url(#clip300)" d="M449.535 160.402 L457.174 160.402 L457.174 134.037 L448.864 135.703 L448.864 131.444 L457.127 129.778 L461.803 129.778 L461.803 160.402 L469.442 160.402 L469.442 164.338 L449.535 164.338 L449.535 160.402 Z" fill="#000000" fill-rule="evenodd" fill-opacity="1" /><polyline clip-path="url(#clip300)" style="stroke:#e26f46; stroke-linecap:butt; stroke-linejoin:round; stroke-width:4; stroke-opacity:1; fill:none" points="
  245.49,198.898 392.509,198.898 
  "/>
<path clip-path="url(#clip300)" d="M430.854 218.585 Q429.049 223.215 427.336 224.627 Q425.623 226.039 422.753 226.039 L419.35 226.039 L419.35 222.474 L421.85 222.474 Q423.609 222.474 424.581 221.64 Q425.554 220.807 426.734 217.705 L427.498 215.761 L417.012 190.252 L421.526 190.252 L429.628 210.529 L437.729 190.252 L442.243 190.252 L430.854 218.585 Z" fill="#000000" fill-rule="evenodd" fill-opacity="1" /><path clip-path="url(#clip300)" d="M452.752 212.242 L469.072 212.242 L469.072 216.178 L447.127 216.178 L447.127 212.242 Q449.789 209.488 454.373 204.858 Q458.979 200.205 460.16 198.863 Q462.405 196.34 463.285 194.604 Q464.188 192.844 464.188 191.155 Q464.188 188.4 462.243 186.664 Q460.322 184.928 457.22 184.928 Q455.021 184.928 452.567 185.692 Q450.137 186.455 447.359 188.006 L447.359 183.284 Q450.183 182.15 452.637 181.571 Q455.09 180.993 457.127 180.993 Q462.498 180.993 465.692 183.678 Q468.887 186.363 468.887 190.854 Q468.887 192.983 468.076 194.905 Q467.289 196.803 465.183 199.395 Q464.604 200.067 461.502 203.284 Q458.401 206.479 452.752 212.242 Z" fill="#000000" fill-rule="evenodd" fill-opacity="1" /></svg>
