<?xml version="1.0" encoding="utf-8"?>
<svg xmlns="http://www.w3.org/2000/svg" xmlns:xlink="http://www.w3.org/1999/xlink" width="600" height="400" viewBox="0 0 2400 1600">
<defs>
  <clipPath id="clip290">
    <rect x="0" y="0" width="2400" height="1600"/>
  </clipPath>
</defs>
<path clip-path="url(#clip290)" d="
M0 1600 L2400 1600 L2400 0 L0 0  Z
  " fill="#ffffff" fill-rule="evenodd" fill-opacity="1"/>
<defs>
  <clipPath id="clip291">
    <rect x="480" y="0" width="1681" height="1600"/>
  </clipPath>
</defs>
<path clip-path="url(#clip290)" d="
M193.936 1486.45 L2352.76 1486.45 L2352.76 47.2441 L193.936 47.2441  Z
  " fill="#ffffff" fill-rule="evenodd" fill-opacity="1"/>
<defs>
  <clipPath id="clip292">
    <rect x="193" y="47" width="2160" height="1440"/>
  </clipPath>
</defs>
<polyline clip-path="url(#clip292)" style="stroke:#000000; stroke-linecap:butt; stroke-linejoin:round; stroke-width:2; stroke-opacity:0.1; fill:none" points="
  255.035,1486.45 255.035,47.2441 
  "/>
<polyline clip-path="url(#clip292)" style="stroke:#000000; stroke-linecap:butt; stroke-linejoin:round; stroke-width:2; stroke-opacity:0.1; fill:none" points="
  764.19,1486.45 764.19,47.2441 
  "/>
<polyline clip-path="url(#clip292)" style="stroke:#000000; stroke-linecap:butt; stroke-linejoin:round; stroke-width:2; stroke-opacity:0.1; fill:none" points="
  1273.35,1486.45 1273.35,47.2441 
  "/>
<polyline clip-path="url(#clip292)" style="stroke:#000000; stroke-linecap:butt; stroke-linejoin:round; stroke-width:2; stroke-opacity:0.1; fill:none" points="
  1782.5,1486.45 1782.5,47.2441 
  "/>
<polyline clip-path="url(#clip292)" style="stroke:#000000; stroke-linecap:butt; stroke-linejoin:round; stroke-width:2; stroke-opacity:0.1; fill:none" points="
  2291.66,1486.45 2291.66,47.2441 
  "/>
<polyline clip-path="url(#clip290)" style="stroke:#000000; stroke-linecap:butt; stroke-linejoin:round; stroke-width:4; stroke-opacity:1; fill:none" points="
  193.936,1486.45 2352.76,1486.45 
  "/>
<polyline clip-path="url(#clip290)" style="stroke:#000000; stroke-linecap:butt; stroke-linejoin:round; stroke-width:4; stroke-opacity:1; fill:none" points="
  255.035,1486.45 255.035,1467.55 
  "/>
<polyline clip-path="url(#clip290)" style="stroke:#000000; stroke-linecap:butt; stroke-linejoin:round; stroke-width:4; stroke-opacity:1; fill:none" points="
  764.19,1486.45 764.19,1467.55 
  "/>
<polyline clip-path="url(#clip290)" style="stroke:#000000; stroke-linecap:butt; stroke-linejoin:round; stroke-width:4; stroke-opacity:1; fill:none" points="
  1273.35,1486.45 1273.35,1467.55 
  "/>
<polyline clip-path="url(#clip290)" style="stroke:#000000; stroke-linecap:butt; stroke-linejoin:round; stroke-width:4; stroke-opacity:1; fill:none" points="
  1782.5,1486.45 1782.5,1467.55 
  "/>
<polyline clip-path="url(#clip290)" style="stroke:#000000; stroke-linecap:butt; stroke-linejoin:round; stroke-width:4; stroke-opacity:1; fill:none" points="
  2291.66,1486.45 2291.66,1467.55 
  "/>
<path clip-path="url(#clip290)" d="M201.563 1530.29 L231.239 1530.29 L231.239 1534.23 L201.563 1534.23 L201.563 1530.29 Z" fill="#000000" fill-rule="evenodd" fill-opacity="1" /><path clip-path="url(#clip290)" d="M242.141 1543.18 L249.78 1543.18 L249.78 1516.82 L241.47 1518.49 L241.47 1514.23 L249.734 1512.56 L254.41 1512.56 L254.41 1543.18 L262.049 1543.18 L262.049 1547.12 L242.141 1547.12 L242.141 1543.18 Z" fill="#000000" fill-rule="evenodd" fill-opacity="1" /><path clip-path="url(#clip290)" d="M271.493 1541.24 L276.377 1541.24 L276.377 1547.12 L271.493 1547.12 L271.493 1541.24 Z" fill="#000000" fill-rule="evenodd" fill-opacity="1" /><path clip-path="url(#clip290)" d="M296.562 1515.64 Q292.951 1515.64 291.122 1519.2 Q289.317 1522.75 289.317 1529.87 Q289.317 1536.98 291.122 1540.55 Q292.951 1544.09 296.562 1544.09 Q300.196 1544.09 302.002 1540.55 Q303.831 1536.98 303.831 1529.87 Q303.831 1522.75 302.002 1519.2 Q300.196 1515.64 296.562 1515.64 M296.562 1511.93 Q302.372 1511.93 305.428 1516.54 Q308.507 1521.12 308.507 1529.87 Q308.507 1538.6 305.428 1543.21 Q302.372 1547.79 296.562 1547.79 Q290.752 1547.79 287.673 1543.21 Q284.618 1538.6 284.618 1529.87 Q284.618 1521.12 287.673 1516.54 Q290.752 1511.93 296.562 1511.93 Z" fill="#000000" fill-rule="evenodd" fill-opacity="1" /><path clip-path="url(#clip290)" d="M711.216 1530.29 L740.892 1530.29 L740.892 1534.23 L711.216 1534.23 L711.216 1530.29 Z" fill="#000000" fill-rule="evenodd" fill-opacity="1" /><path clip-path="url(#clip290)" d="M760.984 1515.64 Q757.373 1515.64 755.545 1519.2 Q753.739 1522.75 753.739 1529.87 Q753.739 1536.98 755.545 1540.55 Q757.373 1544.09 760.984 1544.09 Q764.619 1544.09 766.424 1540.55 Q768.253 1536.98 768.253 1529.87 Q768.253 1522.75 766.424 1519.2 Q764.619 1515.64 760.984 1515.64 M760.984 1511.93 Q766.794 1511.93 769.85 1516.54 Q772.929 1521.12 772.929 1529.87 Q772.929 1538.6 769.85 1543.21 Q766.794 1547.79 760.984 1547.79 Q755.174 1547.79 752.095 1543.21 Q749.04 1538.6 749.04 1529.87 Q749.04 1521.12 752.095 1516.54 Q755.174 1511.93 760.984 1511.93 Z" fill="#000000" fill-rule="evenodd" fill-opacity="1" /><path clip-path="url(#clip290)" d="M781.146 1541.24 L786.03 1541.24 L786.03 1547.12 L781.146 1547.12 L781.146 1541.24 Z" fill="#000000" fill-rule="evenodd" fill-opacity="1" /><path clip-path="url(#clip290)" d="M796.262 1512.56 L814.618 1512.56 L814.618 1516.5 L800.544 1516.5 L800.544 1524.97 Q801.563 1524.62 802.581 1524.46 Q803.6 1524.27 804.618 1524.27 Q810.405 1524.27 813.785 1527.44 Q817.165 1530.62 817.165 1536.03 Q817.165 1541.61 813.692 1544.71 Q810.22 1547.79 803.901 1547.79 Q801.725 1547.79 799.456 1547.42 Q797.211 1547.05 794.804 1546.31 L794.804 1541.61 Q796.887 1542.74 799.109 1543.3 Q801.331 1543.86 803.808 1543.86 Q807.813 1543.86 810.151 1541.75 Q812.489 1539.64 812.489 1536.03 Q812.489 1532.42 810.151 1530.31 Q807.813 1528.21 803.808 1528.21 Q801.933 1528.21 800.058 1528.62 Q798.206 1529.04 796.262 1529.92 L796.262 1512.56 Z" fill="#000000" fill-rule="evenodd" fill-opacity="1" /><path clip-path="url(#clip290)" d="M1250.73 1515.64 Q1247.12 1515.64 1245.29 1519.2 Q1243.49 1522.75 1243.49 1529.87 Q1243.49 1536.98 1245.29 1540.55 Q1247.12 1544.09 1250.73 1544.09 Q1254.36 1544.09 1256.17 1540.55 Q1258 1536.98 1258 1529.87 Q1258 1522.75 1256.17 1519.2 Q1254.36 1515.64 1250.73 1515.64 M1250.73 1511.93 Q1256.54 1511.93 1259.6 1516.54 Q1262.67 1521.12 1262.67 1529.87 Q1262.67 1538.6 1259.6 1543.21 Q1256.54 1547.79 1250.73 1547.79 Q1244.92 1547.79 1241.84 1543.21 Q1238.79 1538.6 1238.79 1529.87 Q1238.79 1521.12 1241.84 1516.54 Q1244.92 1511.93 1250.73 1511.93 Z" fill="#000000" fill-rule="evenodd" fill-opacity="1" /><path clip-path="url(#clip290)" d="M1270.89 1541.24 L1275.78 1541.24 L1275.78 1547.12 L1270.89 1547.12 L1270.89 1541.24 Z" fill="#000000" fill-rule="evenodd" fill-opacity="1" /><path clip-path="url(#clip290)" d="M1295.96 1515.64 Q1292.35 1515.64 1290.52 1519.2 Q1288.72 1522.75 1288.72 1529.87 Q1288.72 1536.98 1290.52 1540.55 Q1292.35 1544.09 1295.96 1544.09 Q1299.6 1544.09 1301.4 1540.55 Q1303.23 1536.98 1303.23 1529.87 Q1303.23 1522.75 1301.4 1519.2 Q1299.6 1515.64 1295.96 1515.64 M1295.96 1511.93 Q1301.77 1511.93 1304.83 1516.54 Q1307.91 1521.12 1307.91 1529.87 Q1307.91 1538.6 1304.83 1543.21 Q1301.77 1547.79 1295.96 1547.79 Q1290.15 1547.79 1287.07 1543.21 Q1284.02 1538.6 1284.02 1529.87 Q1284.02 1521.12 1287.07 1516.54 Q1290.15 1511.93 1295.96 1511.93 Z" fill="#000000" fill-rule="evenodd" fill-opacity="1" /><path clip-path="url(#clip290)" d="M1760.38 1515.64 Q1756.77 1515.64 1754.94 1519.2 Q1753.14 1522.75 1753.14 1529.87 Q1753.14 1536.98 1754.94 1540.55 Q1756.77 1544.09 1760.38 1544.09 Q1764.02 1544.09 1765.82 1540.55 Q1767.65 1536.98 1767.65 1529.87 Q1767.65 1522.75 1765.82 1519.2 Q1764.02 1515.64 1760.38 1515.64 M1760.38 1511.93 Q1766.19 1511.93 1769.25 1516.54 Q1772.33 1521.12 1772.33 1529.87 Q1772.33 1538.6 1769.25 1543.21 Q1766.19 1547.79 1760.38 1547.79 Q1754.57 1547.79 1751.49 1543.21 Q1748.44 1538.6 1748.44 1529.87 Q1748.44 1521.12 1751.49 1516.54 Q1754.57 1511.93 1760.38 1511.93 Z" fill="#000000" fill-rule="evenodd" fill-opacity="1" /><path clip-path="url(#clip290)" d="M1780.55 1541.24 L1785.43 1541.24 L1785.43 1547.12 L1780.55 1547.12 L1780.55 1541.24 Z" fill="#000000" fill-rule="evenodd" fill-opacity="1" /><path clip-path="url(#clip290)" d="M1795.66 1512.56 L1814.02 1512.56 L1814.02 1516.5 L1799.94 1516.5 L1799.94 1524.97 Q1800.96 1524.62 1801.98 1524.46 Q1803 1524.27 1804.02 1524.27 Q1809.8 1524.27 1813.18 1527.44 Q1816.56 1530.62 1816.56 1536.03 Q1816.56 1541.61 1813.09 1544.71 Q1809.62 1547.79 1803.3 1547.79 Q1801.12 1547.79 1798.86 1547.42 Q1796.61 1547.05 1794.2 1546.31 L1794.2 1541.61 Q1796.29 1542.74 1798.51 1543.3 Q1800.73 1543.86 1803.21 1543.86 Q1807.21 1543.86 1809.55 1541.75 Q1811.89 1539.64 1811.89 1536.03 Q1811.89 1532.42 1809.55 1530.31 Q1807.21 1528.21 1803.21 1528.21 Q1801.33 1528.21 1799.46 1528.62 Q1797.61 1529.04 1795.66 1529.92 L1795.66 1512.56 Z" fill="#000000" fill-rule="evenodd" fill-opacity="1" /><path clip-path="url(#clip290)" d="M2258.81 1543.18 L2266.45 1543.18 L2266.45 1516.82 L2258.14 1518.49 L2258.14 1514.23 L2266.4 1512.56 L2271.08 1512.56 L2271.08 1543.18 L2278.72 1543.18 L2278.72 1547.12 L2258.81 1547.12 L2258.81 1543.18 Z" fill="#000000" fill-rule="evenodd" fill-opacity="1" /><path clip-path="url(#clip290)" d="M2288.16 1541.24 L2293.05 1541.24 L2293.05 1547.12 L2288.16 1547.12 L2288.16 1541.24 Z" fill="#000000" fill-rule="evenodd" fill-opacity="1" /><path clip-path="url(#clip290)" d="M2313.23 1515.64 Q2309.62 1515.64 2307.79 1519.2 Q2305.99 1522.75 2305.99 1529.87 Q2305.99 1536.98 2307.79 1540.55 Q2309.62 1544.09 2313.23 1544.09 Q2316.87 1544.09 2318.67 1540.55 Q2320.5 1536.98 2320.5 1529.87 Q2320.5 1522.75 2318.67 1519.2 Q2316.87 1515.64 2313.23 1515.64 M2313.23 1511.93 Q2319.04 1511.93 2322.1 1516.54 Q2325.18 1521.12 2325.18 1529.87 Q2325.18 1538.6 2322.1 1543.21 Q2319.04 1547.79 2313.23 1547.79 Q2307.42 1547.79 2304.34 1543.21 Q2301.29 1538.6 2301.29 1529.87 Q2301.29 1521.12 2304.34 1516.54 Q2307.42 1511.93 2313.23 1511.93 Z" fill="#000000" fill-rule="evenodd" fill-opacity="1" /><polyline clip-path="url(#clip292)" style="stroke:#000000; stroke-linecap:butt; stroke-linejoin:round; stroke-width:2; stroke-opacity:0.1; fill:none" points="
  193.936,1445.72 2352.76,1445.72 
  "/>
<polyline clip-path="url(#clip292)" style="stroke:#000000; stroke-linecap:butt; stroke-linejoin:round; stroke-width:2; stroke-opacity:0.1; fill:none" points="
  193.936,1106.29 2352.76,1106.29 
  "/>
<polyline clip-path="url(#clip292)" style="stroke:#000000; stroke-linecap:butt; stroke-linejoin:round; stroke-width:2; stroke-opacity:0.1; fill:none" points="
  193.936,766.85 2352.76,766.85 
  "/>
<polyline clip-path="url(#clip292)" style="stroke:#000000; stroke-linecap:butt; stroke-linejoin:round; stroke-width:2; stroke-opacity:0.1; fill:none" points="
  193.936,427.413 2352.76,427.413 
  "/>
<polyline clip-path="url(#clip292)" style="stroke:#000000; stroke-linecap:butt; stroke-linejoin:round; stroke-width:2; stroke-opacity:0.1; fill:none" points="
  193.936,87.9759 2352.76,87.9759 
  "/>
<polyline clip-path="url(#clip290)" style="stroke:#000000; stroke-linecap:butt; stroke-linejoin:round; stroke-width:4; stroke-opacity:1; fill:none" points="
  193.936,1486.45 193.936,47.2441 
  "/>
<polyline clip-path="url(#clip290)" style="stroke:#000000; stroke-linecap:butt; stroke-linejoin:round; stroke-width:4; stroke-opacity:1; fill:none" points="
  193.936,1445.72 212.834,1445.72 
  "/>
<polyline clip-path="url(#clip290)" style="stroke:#000000; stroke-linecap:butt; stroke-linejoin:round; stroke-width:4; stroke-opacity:1; fill:none" points="
  193.936,1106.29 212.834,1106.29 
  "/>
<polyline clip-path="url(#clip290)" style="stroke:#000000; stroke-linecap:butt; stroke-linejoin:round; stroke-width:4; stroke-opacity:1; fill:none" points="
  193.936,766.85 212.834,766.85 
  "/>
<polyline clip-path="url(#clip290)" style="stroke:#000000; stroke-linecap:butt; stroke-linejoin:round; stroke-width:4; stroke-opacity:1; fill:none" points="
  193.936,427.413 212.834,427.413 
  "/>
<polyline clip-path="url(#clip290)" style="stroke:#000000; stroke-linecap:butt; stroke-linejoin:round; stroke-width:4; stroke-opacity:1; fill:none" points="
  193.936,87.9759 212.834,87.9759 
  "/>
<path clip-path="url(#clip290)" d="M50.9921 1446.17 L80.6679 1446.17 L80.6679 1450.11 L50.9921 1450.11 L50.9921 1446.17 Z" fill="#000000" fill-rule="evenodd" fill-opacity="1" /><path clip-path="url(#clip290)" d="M91.5706 1459.07 L99.2095 1459.07 L99.2095 1432.7 L90.8993 1434.37 L90.8993 1430.11 L99.1632 1428.44 L103.839 1428.44 L103.839 1459.07 L111.478 1459.07 L111.478 1463 L91.5706 1463 L91.5706 1459.07 Z" fill="#000000" fill-rule="evenodd" fill-opacity="1" /><path clip-path="url(#clip290)" d="M120.922 1457.12 L125.807 1457.12 L125.807 1463 L120.922 1463 L120.922 1457.12 Z" fill="#000000" fill-rule="evenodd" fill-opacity="1" /><path clip-path="url(#clip290)" d="M145.992 1431.52 Q142.381 1431.52 140.552 1435.09 Q138.746 1438.63 138.746 1445.76 Q138.746 1452.86 140.552 1456.43 Q142.381 1459.97 145.992 1459.97 Q149.626 1459.97 151.431 1456.43 Q153.26 1452.86 153.26 1445.76 Q153.26 1438.63 151.431 1435.09 Q149.626 1431.52 145.992 1431.52 M145.992 1427.82 Q151.802 1427.82 154.857 1432.42 Q157.936 1437.01 157.936 1445.76 Q157.936 1454.48 154.857 1459.09 Q151.802 1463.67 145.992 1463.67 Q140.181 1463.67 137.103 1459.09 Q134.047 1454.48 134.047 1445.76 Q134.047 1437.01 137.103 1432.42 Q140.181 1427.82 145.992 1427.82 Z" fill="#000000" fill-rule="evenodd" fill-opacity="1" /><path clip-path="url(#clip290)" d="M51.9875 1106.74 L81.6633 1106.74 L81.6633 1110.67 L51.9875 1110.67 L51.9875 1106.74 Z" fill="#000000" fill-rule="evenodd" fill-opacity="1" /><path clip-path="url(#clip290)" d="M101.756 1092.09 Q98.1447 1092.09 96.316 1095.65 Q94.5104 1099.19 94.5104 1106.32 Q94.5104 1113.43 96.316 1116.99 Q98.1447 1120.53 101.756 1120.53 Q105.39 1120.53 107.196 1116.99 Q109.024 1113.43 109.024 1106.32 Q109.024 1099.19 107.196 1095.65 Q105.39 1092.09 101.756 1092.09 M101.756 1088.38 Q107.566 1088.38 110.621 1092.99 Q113.7 1097.57 113.7 1106.32 Q113.7 1115.05 110.621 1119.65 Q107.566 1124.24 101.756 1124.24 Q95.9456 1124.24 92.8669 1119.65 Q89.8114 1115.05 89.8114 1106.32 Q89.8114 1097.57 92.8669 1092.99 Q95.9456 1088.38 101.756 1088.38 Z" fill="#000000" fill-rule="evenodd" fill-opacity="1" /><path clip-path="url(#clip290)" d="M121.918 1117.69 L126.802 1117.69 L126.802 1123.57 L121.918 1123.57 L121.918 1117.69 Z" fill="#000000" fill-rule="evenodd" fill-opacity="1" /><path clip-path="url(#clip290)" d="M137.033 1089.01 L155.39 1089.01 L155.39 1092.94 L141.316 1092.94 L141.316 1101.41 Q142.334 1101.07 143.353 1100.9 Q144.371 1100.72 145.39 1100.72 Q151.177 1100.72 154.556 1103.89 Q157.936 1107.06 157.936 1112.48 Q157.936 1118.06 154.464 1121.16 Q150.992 1124.24 144.672 1124.24 Q142.496 1124.24 140.228 1123.87 Q137.982 1123.5 135.575 1122.76 L135.575 1118.06 Q137.658 1119.19 139.881 1119.75 Q142.103 1120.3 144.58 1120.3 Q148.584 1120.3 150.922 1118.2 Q153.26 1116.09 153.26 1112.48 Q153.26 1108.87 150.922 1106.76 Q148.584 1104.65 144.58 1104.65 Q142.705 1104.65 140.83 1105.07 Q138.978 1105.49 137.033 1106.37 L137.033 1089.01 Z" fill="#000000" fill-rule="evenodd" fill-opacity="1" /><path clip-path="url(#clip290)" d="M100.76 752.648 Q97.1493 752.648 95.3206 756.213 Q93.515 759.755 93.515 766.884 Q93.515 773.991 95.3206 777.556 Q97.1493 781.097 100.76 781.097 Q104.395 781.097 106.2 777.556 Q108.029 773.991 108.029 766.884 Q108.029 759.755 106.2 756.213 Q104.395 752.648 100.76 752.648 M100.76 748.945 Q106.571 748.945 109.626 753.551 Q112.705 758.134 112.705 766.884 Q112.705 775.611 109.626 780.218 Q106.571 784.801 100.76 784.801 Q94.9502 784.801 91.8715 780.218 Q88.816 775.611 88.816 766.884 Q88.816 758.134 91.8715 753.551 Q94.9502 748.945 100.76 748.945 Z" fill="#000000" fill-rule="evenodd" fill-opacity="1" /><path clip-path="url(#clip290)" d="M120.922 778.25 L125.807 778.25 L125.807 784.13 L120.922 784.13 L120.922 778.25 Z" fill="#000000" fill-rule="evenodd" fill-opacity="1" /><path clip-path="url(#clip290)" d="M145.992 752.648 Q142.381 752.648 140.552 756.213 Q138.746 759.755 138.746 766.884 Q138.746 773.991 140.552 777.556 Q142.381 781.097 145.992 781.097 Q149.626 781.097 151.431 777.556 Q153.26 773.991 153.26 766.884 Q153.26 759.755 151.431 756.213 Q149.626 752.648 145.992 752.648 M145.992 748.945 Q151.802 748.945 154.857 753.551 Q157.936 758.134 157.936 766.884 Q157.936 775.611 154.857 780.218 Q151.802 784.801 145.992 784.801 Q140.181 784.801 137.103 780.218 Q134.047 775.611 134.047 766.884 Q134.047 758.134 137.103 753.551 Q140.181 748.945 145.992 748.945 Z" fill="#000000" fill-rule="evenodd" fill-opacity="1" /><path clip-path="url(#clip290)" d="M101.756 413.211 Q98.1447 413.211 96.316 416.776 Q94.5104 420.318 94.5104 427.448 Q94.5104 434.554 96.316 438.119 Q98.1447 441.66 101.756 441.66 Q105.39 441.66 107.196 438.119 Q109.024 434.554 109.024 427.448 Q109.024 420.318 107.196 416.776 Q105.39 413.211 101.756 413.211 M101.756 409.508 Q107.566 409.508 110.621 414.114 Q113.7 418.698 113.7 427.448 Q113.7 436.174 110.621 440.781 Q107.566 445.364 101.756 445.364 Q95.9456 445.364 92.8669 440.781 Q89.8114 436.174 89.8114 427.448 Q89.8114 418.698 92.8669 414.114 Q95.9456 409.508 101.756 409.508 Z" fill="#000000" fill-rule="evenodd" fill-opacity="1" /><path clip-path="url(#clip290)" d="M121.918 438.813 L126.802 438.813 L126.802 444.693 L121.918 444.693 L121.918 438.813 Z" fill="#000000" fill-rule="evenodd" fill-opacity="1" /><path clip-path="url(#clip290)" d="M137.033 410.133 L155.39 410.133 L155.39 414.068 L141.316 414.068 L141.316 422.54 Q142.334 422.193 143.353 422.031 Q144.371 421.846 145.39 421.846 Q151.177 421.846 154.556 425.017 Q157.936 428.188 157.936 433.605 Q157.936 439.184 154.464 442.285 Q150.992 445.364 144.672 445.364 Q142.496 445.364 140.228 444.994 Q137.982 444.623 135.575 443.883 L135.575 439.184 Q137.658 440.318 139.881 440.873 Q142.103 441.429 144.58 441.429 Q148.584 441.429 150.922 439.322 Q153.26 437.216 153.26 433.605 Q153.26 429.994 150.922 427.887 Q148.584 425.781 144.58 425.781 Q142.705 425.781 140.83 426.198 Q138.978 426.614 137.033 427.494 L137.033 410.133 Z" fill="#000000" fill-rule="evenodd" fill-opacity="1" /><path clip-path="url(#clip290)" d="M91.5706 101.321 L99.2095 101.321 L99.2095 74.9552 L90.8993 76.6218 L90.8993 72.3626 L99.1632 70.6959 L103.839 70.6959 L103.839 101.321 L111.478 101.321 L111.478 105.256 L91.5706 105.256 L91.5706 101.321 Z" fill="#000000" fill-rule="evenodd" fill-opacity="1" /><path clip-path="url(#clip290)" d="M120.922 99.3764 L125.807 99.3764 L125.807 105.256 L120.922 105.256 L120.922 99.3764 Z" fill="#000000" fill-rule="evenodd" fill-opacity="1" /><path clip-path="url(#clip290)" d="M145.992 73.7746 Q142.381 73.7746 140.552 77.3394 Q138.746 80.8811 138.746 88.0107 Q138.746 95.1171 140.552 98.6819 Q142.381 102.224 145.992 102.224 Q149.626 102.224 151.431 98.6819 Q153.26 95.1171 153.26 88.0107 Q153.26 80.8811 151.431 77.3394 Q149.626 73.7746 145.992 73.7746 M145.992 70.071 Q151.802 70.071 154.857 74.6774 Q157.936 79.2607 157.936 88.0107 Q157.936 96.7375 154.857 101.344 Q151.802 105.927 145.992 105.927 Q140.181 105.927 137.103 101.344 Q134.047 96.7375 134.047 88.0107 Q134.047 79.2607 137.103 74.6774 Q140.181 70.071 145.992 70.071 Z" fill="#000000" fill-rule="evenodd" fill-opacity="1" /><polyline clip-path="url(#clip292)" style="stroke:#009af9; stroke-linecap:butt; stroke-linejoin:round; stroke-width:4; stroke-opacity:1; fill:none" points="
  255.035,171.082 509.612,1362.62 764.19,171.082 1018.77,1362.62 1273.35,171.082 1527.92,1362.62 1782.5,171.082 2037.08,1362.62 2291.66,171.082 
  "/>
<circle clip-path="url(#clip292)" cx="255.035" cy="171.082" r="14" fill="#009af9" fill-rule="evenodd" fill-opacity="1" stroke="#000000" stroke-opacity="1" stroke-width="3.2"/>
<circle clip-path="url(#clip292)" cx="509.612" cy="1362.62" r="14" fill="#009af9" fill-rule="evenodd" fill-opacity="1" stroke="#000000" stroke-opacity="1" stroke-width="3.2"/>
<circle clip-path="url(#clip292)" cx="764.19" cy="171.082" r="14" fill="#009af9" fill-rule="evenodd" fill-opacity="1" stroke="#000000" stroke-opacity="1" stroke-width="3.2"/>
<circle clip-path="url(#clip292)" cx="1018.77" cy="1362.62" r="14" fill="#009af9" fill-rule="evenodd" fill-opacity="1" stroke="#000000" stroke-opacity="1" stroke-width="3.2"/>
<circle clip-path="url(#clip292)" cx="1273.35" cy="171.082" r="14" fill="#009af9" fill-rule="evenodd" fill-opacity="1" stroke="#000000" stroke-opacity="1" stroke-width="3.2"/>
<circle clip-path="url(#clip292)" cx="1527.92" cy="1362.62" r="14" fill="#009af9" fill-rule="evenodd" fill-opacity="1" stroke="#000000" stroke-opacity="1" stroke-width="3.2"/>
<circle clip-path="url(#clip292)" cx="1782.5" cy="171.082" r="14" fill="#009af9" fill-rule="evenodd" fill-opacity="1" stroke="#000000" stroke-opacity="1" stroke-width="3.2"/>
<circle clip-path="url(#clip292)" cx="2037.08" cy="1362.62" r="14" fill="#009af9" fill-rule="evenodd" fill-opacity="1" stroke="#000000" stroke-opacity="1" stroke-width="3.2"/>
<circle clip-path="url(#clip292)" cx="2291.66" cy="171.082" r="14" fill="#009af9" fill-rule="evenodd" fill-opacity="1" stroke="#000000" stroke-opacity="1" stroke-width="3.2"/>
<polyline clip-path="url(#clip292)" style="stroke:#e26f46; stroke-linecap:butt; stroke-linejoin:round; stroke-width:4; stroke-opacity:1; fill:none" points="
  255.035,171.082 260.007,192.162 264.979,215.404 269.952,240.723 274.924,268.021 286.418,338.127 297.912,416.843 309.406,502.59 320.9,593.644 343.888,784.291 
  366.877,973.543 378.371,1062.88 389.865,1146.27 401.359,1222.04 412.853,1288.67 424.347,1344.82 435.841,1389.36 447.335,1421.39 458.829,1440.28 465.737,1445.14 
  472.644,1445.07 479.552,1440.08 486.459,1430.2 493.366,1415.5 500.274,1396.09 507.181,1372.11 514.089,1343.74 527.904,1274.66 541.719,1190.86 555.534,1094.77 
  569.348,989.164 592.709,797.626 616.07,603.548 627.75,510.59 639.431,422.948 651.111,342.438 662.791,270.73 675.479,204.538 688.167,152.104 700.856,114.711 
  713.544,93.2727 726.232,88.3144 738.92,99.9571 751.608,127.916 764.296,171.508 775.993,224.63 787.691,289.03 799.388,363.37 811.085,446.102 834.48,629.722 
  857.875,824.692 870.416,928.263 882.956,1027.98 895.497,1121.45 908.038,1206.44 920.579,1280.93 933.119,1343.13 945.66,1391.56 958.201,1425.05 965.466,1437.29 
  972.731,1444.15 979.995,1445.57 987.26,1441.53 994.525,1432.08 1001.79,1417.28 1009.05,1397.26 1016.32,1372.18 1030.85,1307.66 1045.38,1225.81 1059.91,1129.24 
  1074.44,1021.05 1100.26,811.023 1126.09,596.546 1139,494.431 1151.91,399.219 1164.82,313.321 1177.74,238.914 1189.06,184.617 1200.38,141.67 1211.71,110.909 
  1223.03,92.9344 1234.35,88.0958 1245.67,96.4879 1257,117.947 1268.32,152.055 1280.67,202.868 1293.01,266.745 1305.36,342.206 1317.7,427.503 1342.39,619.521 
  1367.08,825.11 1379.5,927.674 1391.92,1026.47 1404.34,1119.18 1416.75,1203.63 1429.17,1277.84 1441.59,1340.08 1454.01,1388.88 1466.43,1423.1 1473.29,1435.45 
  1480.16,1443.01 1487.02,1445.72 1493.89,1443.55 1500.75,1436.54 1507.62,1424.72 1514.48,1408.18 1521.35,1387.04 1535.08,1331.6 1548.81,1259.99 1562.54,1174.25 
  1576.27,1076.84 1602.4,869.492 1628.52,651.562 1641.59,545.67 1654.65,445.513 1667.72,353.69 1680.78,272.582 1687.57,235.359 1694.36,201.867 1701.15,172.342 
  1707.95,146.99 1721.53,109.489 1735.11,90.4152 1741.9,87.9763 1748.7,90.3033 1755.49,97.38 1762.28,109.157 1775.86,146.446 1789.45,201.127 1800.88,259.527 
  1812.31,328.01 1823.75,405.216 1835.18,489.611 1858.05,673.146 1880.92,864.093 1894.88,977.827 1908.84,1085.32 1922.8,1183.38 1936.76,1269.1 1950.72,1339.96 
  1964.68,1393.86 1971.66,1413.92 1978.64,1429.19 1985.62,1439.54 1992.6,1444.91 1999.16,1445.37 2005.72,1441.39 2012.29,1432.98 2018.85,1420.21 2031.97,1381.94 
  2045.09,1327.58 2058.21,1258.54 2071.34,1176.63 2084.46,1084 2097.58,983.075 2118.61,810.75 2139.63,635.486 2160.65,469.015 2181.68,322.479 2192.19,259.823 
  2202.7,205.686 2213.21,160.98 2223.73,126.454 2234.24,102.69 2244.75,90.0856 2255.26,88.8539 2265.77,99.0152 2272.24,110.869 2278.72,126.904 2285.19,147.018 
  2291.66,171.082 
  "/>
<path clip-path="url(#clip290)" d="
M1988.5 250.738 L2280.8 250.738 L2280.8 95.2176 L1988.5 95.2176  Z
  " fill="#ffffff" fill-rule="evenodd" fill-opacity="1"/>
<polyline clip-path="url(#clip290)" style="stroke:#000000; stroke-linecap:butt; stroke-linejoin:round; stroke-width:4; stroke-opacity:1; fill:none" points="
  1988.5,250.738 2280.8,250.738 2280.8,95.2176 1988.5,95.2176 1988.5,250.738 
  "/>
<polyline clip-path="url(#clip290)" style="stroke:#009af9; stroke-linecap:butt; stroke-linejoin:round; stroke-width:4; stroke-opacity:1; fill:none" points="
  2012.48,147.058 2156.4,147.058 
  "/>
<circle clip-path="url(#clip290)" cx="2084.44" cy="147.058" r="23" fill="#009af9" fill-rule="evenodd" fill-opacity="1" stroke="#000000" stroke-opacity="1" stroke-width="5.12"/>
<path clip-path="url(#clip290)" d="M2194.23 166.745 Q2192.43 171.375 2190.72 172.787 Q2189 174.199 2186.13 174.199 L2182.73 174.199 L2182.73 170.634 L2185.23 170.634 Q2186.99 170.634 2187.96 169.8 Q2188.93 168.967 2190.11 165.865 L2190.88 163.921 L2180.39 138.412 L2184.91 138.412 L2193.01 158.689 L2201.11 138.412 L2205.62 138.412 L2194.23 166.745 Z" fill="#000000" fill-rule="evenodd" fill-opacity="1" /><path clip-path="url(#clip290)" d="M2212.91 160.402 L2220.55 160.402 L2220.55 134.037 L2212.24 135.703 L2212.24 131.444 L2220.51 129.778 L2225.18 129.778 L2225.18 160.402 L2232.82 160.402 L2232.82 164.338 L2212.91 164.338 L2212.91 160.402 Z" fill="#000000" fill-rule="evenodd" fill-opacity="1" /><polyline clip-path="url(#clip290)" style="stroke:#e26f46; stroke-linecap:butt; stroke-linejoin:round; stroke-width:4; stroke-opacity:1; fill:none" points="
  2012.48,198.898 2156.4,198.898 
  "/>
<path clip-path="url(#clip290)" d="M2194.23 218.585 Q2192.43 223.215 2190.72 224.627 Q2189 226.039 2186.13 226.039 L2182.73 226.039 L2182.73 222.474 L2185.23 222.474 Q2186.99 222.474 2187.96 221.64 Q2188.93 220.807 2190.11 217.705 L2190.88 215.761 L2180.39 190.252 L2184.91 190.252 L2193.01 210.529 L2201.11 190.252 L2205.62 190.252 L2194.23 218.585 Z" fill="#000000" fill-rule="evenodd" fill-opacity="1" /><path clip-path="url(#clip290)" d="M2216.13 212.242 L2232.45 212.242 L2232.45 216.178 L2210.51 216.178 L2210.51 212.242 Q2213.17 209.488 2217.75 204.858 Q2222.36 200.205 2223.54 198.863 Q2225.78 196.34 2226.66 194.604 Q2227.57 192.844 2227.57 191.155 Q2227.57 188.4 2225.62 186.664 Q2223.7 184.928 2220.6 184.928 Q2218.4 184.928 2215.95 185.692 Q2213.52 186.455 2210.74 188.006 L2210.74 183.284 Q2213.56 182.15 2216.02 181.571 Q2218.47 180.993 2220.51 180.993 Q2225.88 180.993 2229.07 183.678 Q2232.27 186.363 2232.27 190.854 Q2232.27 192.983 2231.46 194.905 Q2230.67 196.803 2228.56 199.395 Q2227.98 200.067 2224.88 203.284 Q2221.78 206.479 2216.13 212.242 Z" fill="#000000" fill-rule="evenodd" fill-opacity="1" /></svg>
