<?xml version="1.0" encoding="utf-8"?>
<svg xmlns="http://www.w3.org/2000/svg" xmlns:xlink="http://www.w3.org/1999/xlink" width="600" height="400" viewBox="0 0 2400 1600">
<defs>
  <clipPath id="clip340">
    <rect x="0" y="0" width="2400" height="1600"/>
  </clipPath>
</defs>
<path clip-path="url(#clip340)" d="
M0 1600 L2400 1600 L2400 0 L0 0  Z
  " fill="#ffffff" fill-rule="evenodd" fill-opacity="1"/>
<defs>
  <clipPath id="clip341">
    <rect x="480" y="0" width="1681" height="1600"/>
  </clipPath>
</defs>
<path clip-path="url(#clip340)" d="
M193.936 1486.45 L2352.76 1486.45 L2352.76 47.2441 L193.936 47.2441  Z
  " fill="#ffffff" fill-rule="evenodd" fill-opacity="1"/>
<defs>
  <clipPath id="clip342">
    <rect x="193" y="47" width="2160" height="1440"/>
  </clipPath>
</defs>
<polyline clip-path="url(#clip342)" style="stroke:#000000; stroke-linecap:butt; stroke-linejoin:round; stroke-width:2; stroke-opacity:0.1; fill:none" points="
  255.035,1486.45 255.035,47.2441 
  "/>
<polyline clip-path="url(#clip342)" style="stroke:#000000; stroke-linecap:butt; stroke-linejoin:round; stroke-width:2; stroke-opacity:0.1; fill:none" points="
  764.19,1486.45 764.19,47.2441 
  "/>
<polyline clip-path="url(#clip342)" style="stroke:#000000; stroke-linecap:butt; stroke-linejoin:round; stroke-width:2; stroke-opacity:0.1; fill:none" points="
  1273.35,1486.45 1273.35,47.2441 
  "/>
<polyline clip-path="url(#clip342)" style="stroke:#000000; stroke-linecap:butt; stroke-linejoin:round; stroke-width:2; stroke-opacity:0.1; fill:none" points="
  1782.5,1486.45 1782.5,47.2441 
  "/>
<polyline clip-path="url(#clip342)" style="stroke:#000000; stroke-linecap:butt; stroke-linejoin:round; stroke-width:2; stroke-opacity:0.1; fill:none" points="
  2291.66,1486.45 2291.66,47.2441 
  "/>
<polyline clip-path="url(#clip340)" style="stroke:#000000; stroke-linecap:butt; stroke-linejoin:round; stroke-width:4; stroke-opacity:1; fill:none" points="
  193.936,1486.45 2352.76,1486.45 
  "/>
<polyline clip-path="url(#clip340)" style="stroke:#000000; stroke-linecap:butt; stroke-linejoin:round; stroke-width:4; stroke-opacity:1; fill:none" points="
  255.035,1486.45 255.035,1467.55 
  "/>
<polyline clip-path="url(#clip340)" style="stroke:#000000; stroke-linecap:butt; stroke-linejoin:round; stroke-width:4; stroke-opacity:1; fill:none" points="
  764.19,1486.45 764.19,1467.55 
  "/>
<polyline clip-path="url(#clip340)" style="stroke:#000000; stroke-linecap:butt; stroke-linejoin:round; stroke-width:4; stroke-opacity:1; fill:none" points="
  1273.35,1486.45 1273.35,1467.55 
  "/>
<polyline clip-path="url(#clip340)" style="stroke:#000000; stroke-linecap:butt; stroke-linejoin:round; stroke-width:4; stroke-opacity:1; fill:none" points="
  1782.5,1486.45 1782.5,1467.55 
  "/>
<polyline clip-path="url(#clip340)" style="stroke:#000000; stroke-linecap:butt; stroke-linejoin:round; stroke-width:4; stroke-opacity:1; fill:none" points="
  2291.66,1486.45 2291.66,1467.55 
  "/>
<path clip-path="url(#clip340)" d="M224.977 1530.29 L254.653 1530.29 L254.653 1534.23 L224.977 1534.23 L224.977 1530.29 Z" fill="#000000" fill-rule="evenodd" fill-opacity="1" /><path clip-path="url(#clip340)" d="M268.773 1543.18 L285.092 1543.18 L285.092 1547.12 L263.148 1547.12 L263.148 1543.18 Q265.81 1540.43 270.393 1535.8 Q275 1531.15 276.18 1529.81 Q278.426 1527.28 279.305 1525.55 Q280.208 1523.79 280.208 1522.1 Q280.208 1519.34 278.264 1517.61 Q276.342 1515.87 273.241 1515.87 Q271.042 1515.87 268.588 1516.63 Q266.157 1517.4 263.38 1518.95 L263.38 1514.23 Q266.204 1513.09 268.657 1512.51 Q271.111 1511.93 273.148 1511.93 Q278.518 1511.93 281.713 1514.62 Q284.907 1517.31 284.907 1521.8 Q284.907 1523.93 284.097 1525.85 Q283.31 1527.74 281.204 1530.34 Q280.625 1531.01 277.523 1534.23 Q274.421 1537.42 268.773 1543.18 Z" fill="#000000" fill-rule="evenodd" fill-opacity="1" /><path clip-path="url(#clip340)" d="M733.947 1530.29 L763.623 1530.29 L763.623 1534.23 L733.947 1534.23 L733.947 1530.29 Z" fill="#000000" fill-rule="evenodd" fill-opacity="1" /><path clip-path="url(#clip340)" d="M774.526 1543.18 L782.165 1543.18 L782.165 1516.82 L773.855 1518.49 L773.855 1514.23 L782.118 1512.56 L786.794 1512.56 L786.794 1543.18 L794.433 1543.18 L794.433 1547.12 L774.526 1547.12 L774.526 1543.18 Z" fill="#000000" fill-rule="evenodd" fill-opacity="1" /><path clip-path="url(#clip340)" d="M1273.35 1515.64 Q1269.73 1515.64 1267.91 1519.2 Q1266.1 1522.75 1266.1 1529.87 Q1266.1 1536.98 1267.91 1540.55 Q1269.73 1544.09 1273.35 1544.09 Q1276.98 1544.09 1278.79 1540.55 Q1280.61 1536.98 1280.61 1529.87 Q1280.61 1522.75 1278.79 1519.2 Q1276.98 1515.64 1273.35 1515.64 M1273.35 1511.93 Q1279.16 1511.93 1282.21 1516.54 Q1285.29 1521.12 1285.29 1529.87 Q1285.29 1538.6 1282.21 1543.21 Q1279.16 1547.79 1273.35 1547.79 Q1267.54 1547.79 1264.46 1543.21 Q1261.4 1538.6 1261.4 1529.87 Q1261.4 1521.12 1264.46 1516.54 Q1267.54 1511.93 1273.35 1511.93 Z" fill="#000000" fill-rule="evenodd" fill-opacity="1" /><path clip-path="url(#clip340)" d="M1772.88 1543.18 L1780.52 1543.18 L1780.52 1516.82 L1772.21 1518.49 L1772.21 1514.23 L1780.48 1512.56 L1785.15 1512.56 L1785.15 1543.18 L1792.79 1543.18 L1792.79 1547.12 L1772.88 1547.12 L1772.88 1543.18 Z" fill="#000000" fill-rule="evenodd" fill-opacity="1" /><path clip-path="url(#clip340)" d="M2286.31 1543.18 L2302.63 1543.18 L2302.63 1547.12 L2280.69 1547.12 L2280.69 1543.18 Q2283.35 1540.43 2287.93 1535.8 Q2292.54 1531.15 2293.72 1529.81 Q2295.96 1527.28 2296.84 1525.55 Q2297.75 1523.79 2297.75 1522.1 Q2297.75 1519.34 2295.8 1517.61 Q2293.88 1515.87 2290.78 1515.87 Q2288.58 1515.87 2286.12 1516.63 Q2283.69 1517.4 2280.92 1518.95 L2280.92 1514.23 Q2283.74 1513.09 2286.19 1512.51 Q2288.65 1511.93 2290.69 1511.93 Q2296.06 1511.93 2299.25 1514.62 Q2302.44 1517.31 2302.44 1521.8 Q2302.44 1523.93 2301.63 1525.85 Q2300.85 1527.74 2298.74 1530.34 Q2298.16 1531.01 2295.06 1534.23 Q2291.96 1537.42 2286.31 1543.18 Z" fill="#000000" fill-rule="evenodd" fill-opacity="1" /><polyline clip-path="url(#clip342)" style="stroke:#000000; stroke-linecap:butt; stroke-linejoin:round; stroke-width:2; stroke-opacity:0.1; fill:none" points="
  193.936,1471.05 2352.76,1471.05 
  "/>
<polyline clip-path="url(#clip342)" style="stroke:#000000; stroke-linecap:butt; stroke-linejoin:round; stroke-width:2; stroke-opacity:0.1; fill:none" points="
  193.936,1118.95 2352.76,1118.95 
  "/>
<polyline clip-path="url(#clip342)" style="stroke:#000000; stroke-linecap:butt; stroke-linejoin:round; stroke-width:2; stroke-opacity:0.1; fill:none" points="
  193.936,766.846 2352.76,766.846 
  "/>
<polyline clip-path="url(#clip342)" style="stroke:#000000; stroke-linecap:butt; stroke-linejoin:round; stroke-width:2; stroke-opacity:0.1; fill:none" points="
  193.936,414.745 2352.76,414.745 
  "/>
<polyline clip-path="url(#clip342)" style="stroke:#000000; stroke-linecap:butt; stroke-linejoin:round; stroke-width:2; stroke-opacity:0.1; fill:none" points="
  193.936,62.6444 2352.76,62.6444 
  "/>
<polyline clip-path="url(#clip340)" style="stroke:#000000; stroke-linecap:butt; stroke-linejoin:round; stroke-width:4; stroke-opacity:1; fill:none" points="
  193.936,1486.45 193.936,47.2441 
  "/>
<polyline clip-path="url(#clip340)" style="stroke:#000000; stroke-linecap:butt; stroke-linejoin:round; stroke-width:4; stroke-opacity:1; fill:none" points="
  193.936,1471.05 212.834,1471.05 
  "/>
<polyline clip-path="url(#clip340)" style="stroke:#000000; stroke-linecap:butt; stroke-linejoin:round; stroke-width:4; stroke-opacity:1; fill:none" points="
  193.936,1118.95 212.834,1118.95 
  "/>
<polyline clip-path="url(#clip340)" style="stroke:#000000; stroke-linecap:butt; stroke-linejoin:round; stroke-width:4; stroke-opacity:1; fill:none" points="
  193.936,766.846 212.834,766.846 
  "/>
<polyline clip-path="url(#clip340)" style="stroke:#000000; stroke-linecap:butt; stroke-linejoin:round; stroke-width:4; stroke-opacity:1; fill:none" points="
  193.936,414.745 212.834,414.745 
  "/>
<polyline clip-path="url(#clip340)" style="stroke:#000000; stroke-linecap:butt; stroke-linejoin:round; stroke-width:4; stroke-opacity:1; fill:none" points="
  193.936,62.6444 212.834,62.6444 
  "/>
<path clip-path="url(#clip340)" d="M50.9921 1471.5 L80.6679 1471.5 L80.6679 1475.43 L50.9921 1475.43 L50.9921 1471.5 Z" fill="#000000" fill-rule="evenodd" fill-opacity="1" /><path clip-path="url(#clip340)" d="M91.5706 1484.39 L99.2095 1484.39 L99.2095 1458.03 L90.8993 1459.69 L90.8993 1455.43 L99.1632 1453.77 L103.839 1453.77 L103.839 1484.39 L111.478 1484.39 L111.478 1488.33 L91.5706 1488.33 L91.5706 1484.39 Z" fill="#000000" fill-rule="evenodd" fill-opacity="1" /><path clip-path="url(#clip340)" d="M120.922 1482.45 L125.807 1482.45 L125.807 1488.33 L120.922 1488.33 L120.922 1482.45 Z" fill="#000000" fill-rule="evenodd" fill-opacity="1" /><path clip-path="url(#clip340)" d="M145.992 1456.85 Q142.381 1456.85 140.552 1460.41 Q138.746 1463.95 138.746 1471.08 Q138.746 1478.19 140.552 1481.75 Q142.381 1485.3 145.992 1485.3 Q149.626 1485.3 151.431 1481.75 Q153.26 1478.19 153.26 1471.08 Q153.26 1463.95 151.431 1460.41 Q149.626 1456.85 145.992 1456.85 M145.992 1453.14 Q151.802 1453.14 154.857 1457.75 Q157.936 1462.33 157.936 1471.08 Q157.936 1479.81 154.857 1484.42 Q151.802 1489 145.992 1489 Q140.181 1489 137.103 1484.42 Q134.047 1479.81 134.047 1471.08 Q134.047 1462.33 137.103 1457.75 Q140.181 1453.14 145.992 1453.14 Z" fill="#000000" fill-rule="evenodd" fill-opacity="1" /><path clip-path="url(#clip340)" d="M51.9875 1119.4 L81.6633 1119.4 L81.6633 1123.33 L51.9875 1123.33 L51.9875 1119.4 Z" fill="#000000" fill-rule="evenodd" fill-opacity="1" /><path clip-path="url(#clip340)" d="M101.756 1104.75 Q98.1447 1104.75 96.316 1108.31 Q94.5104 1111.85 94.5104 1118.98 Q94.5104 1126.09 96.316 1129.65 Q98.1447 1133.19 101.756 1133.19 Q105.39 1133.19 107.196 1129.65 Q109.024 1126.09 109.024 1118.98 Q109.024 1111.85 107.196 1108.31 Q105.39 1104.75 101.756 1104.75 M101.756 1101.04 Q107.566 1101.04 110.621 1105.65 Q113.7 1110.23 113.7 1118.98 Q113.7 1127.71 110.621 1132.31 Q107.566 1136.9 101.756 1136.9 Q95.9456 1136.9 92.8669 1132.31 Q89.8114 1127.71 89.8114 1118.98 Q89.8114 1110.23 92.8669 1105.65 Q95.9456 1101.04 101.756 1101.04 Z" fill="#000000" fill-rule="evenodd" fill-opacity="1" /><path clip-path="url(#clip340)" d="M121.918 1130.35 L126.802 1130.35 L126.802 1136.23 L121.918 1136.23 L121.918 1130.35 Z" fill="#000000" fill-rule="evenodd" fill-opacity="1" /><path clip-path="url(#clip340)" d="M137.033 1101.67 L155.39 1101.67 L155.39 1105.6 L141.316 1105.6 L141.316 1114.07 Q142.334 1113.73 143.353 1113.56 Q144.371 1113.38 145.39 1113.38 Q151.177 1113.38 154.556 1116.55 Q157.936 1119.72 157.936 1125.14 Q157.936 1130.72 154.464 1133.82 Q150.992 1136.9 144.672 1136.9 Q142.496 1136.9 140.228 1136.53 Q137.982 1136.16 135.575 1135.42 L135.575 1130.72 Q137.658 1131.85 139.881 1132.41 Q142.103 1132.96 144.58 1132.96 Q148.584 1132.96 150.922 1130.86 Q153.26 1128.75 153.26 1125.14 Q153.26 1121.53 150.922 1119.42 Q148.584 1117.31 144.58 1117.31 Q142.705 1117.31 140.83 1117.73 Q138.978 1118.15 137.033 1119.03 L137.033 1101.67 Z" fill="#000000" fill-rule="evenodd" fill-opacity="1" /><path clip-path="url(#clip340)" d="M100.76 752.645 Q97.1493 752.645 95.3206 756.209 Q93.515 759.751 93.515 766.881 Q93.515 773.987 95.3206 777.552 Q97.1493 781.094 100.76 781.094 Q104.395 781.094 106.2 777.552 Q108.029 773.987 108.029 766.881 Q108.029 759.751 106.2 756.209 Q104.395 752.645 100.76 752.645 M100.76 748.941 Q106.571 748.941 109.626 753.547 Q112.705 758.131 112.705 766.881 Q112.705 775.608 109.626 780.214 Q106.571 784.797 100.76 784.797 Q94.9502 784.797 91.8715 780.214 Q88.816 775.608 88.816 766.881 Q88.816 758.131 91.8715 753.547 Q94.9502 748.941 100.76 748.941 Z" fill="#000000" fill-rule="evenodd" fill-opacity="1" /><path clip-path="url(#clip340)" d="M120.922 778.246 L125.807 778.246 L125.807 784.126 L120.922 784.126 L120.922 778.246 Z" fill="#000000" fill-rule="evenodd" fill-opacity="1" /><path clip-path="url(#clip340)" d="M145.992 752.645 Q142.381 752.645 140.552 756.209 Q138.746 759.751 138.746 766.881 Q138.746 773.987 140.552 777.552 Q142.381 781.094 145.992 781.094 Q149.626 781.094 151.431 777.552 Q153.26 773.987 153.26 766.881 Q153.26 759.751 151.431 756.209 Q149.626 752.645 145.992 752.645 M145.992 748.941 Q151.802 748.941 154.857 753.547 Q157.936 758.131 157.936 766.881 Q157.936 775.608 154.857 780.214 Q151.802 784.797 145.992 784.797 Q140.181 784.797 137.103 780.214 Q134.047 775.608 134.047 766.881 Q134.047 758.131 137.103 753.547 Q140.181 748.941 145.992 748.941 Z" fill="#000000" fill-rule="evenodd" fill-opacity="1" /><path clip-path="url(#clip340)" d="M101.756 400.544 Q98.1447 400.544 96.316 404.109 Q94.5104 407.65 94.5104 414.78 Q94.5104 421.886 96.316 425.451 Q98.1447 428.993 101.756 428.993 Q105.39 428.993 107.196 425.451 Q109.024 421.886 109.024 414.78 Q109.024 407.65 107.196 404.109 Q105.39 400.544 101.756 400.544 M101.756 396.84 Q107.566 396.84 110.621 401.447 Q113.7 406.03 113.7 414.78 Q113.7 423.507 110.621 428.113 Q107.566 432.697 101.756 432.697 Q95.9456 432.697 92.8669 428.113 Q89.8114 423.507 89.8114 414.78 Q89.8114 406.03 92.8669 401.447 Q95.9456 396.84 101.756 396.84 Z" fill="#000000" fill-rule="evenodd" fill-opacity="1" /><path clip-path="url(#clip340)" d="M121.918 426.146 L126.802 426.146 L126.802 432.025 L121.918 432.025 L121.918 426.146 Z" fill="#000000" fill-rule="evenodd" fill-opacity="1" /><path clip-path="url(#clip340)" d="M137.033 397.465 L155.39 397.465 L155.39 401.4 L141.316 401.4 L141.316 409.873 Q142.334 409.525 143.353 409.363 Q144.371 409.178 145.39 409.178 Q151.177 409.178 154.556 412.349 Q157.936 415.521 157.936 420.937 Q157.936 426.516 154.464 429.618 Q150.992 432.697 144.672 432.697 Q142.496 432.697 140.228 432.326 Q137.982 431.956 135.575 431.215 L135.575 426.516 Q137.658 427.65 139.881 428.206 Q142.103 428.761 144.58 428.761 Q148.584 428.761 150.922 426.655 Q153.26 424.548 153.26 420.937 Q153.26 417.326 150.922 415.22 Q148.584 413.113 144.58 413.113 Q142.705 413.113 140.83 413.53 Q138.978 413.947 137.033 414.826 L137.033 397.465 Z" fill="#000000" fill-rule="evenodd" fill-opacity="1" /><path clip-path="url(#clip340)" d="M91.5706 75.9893 L99.2095 75.9893 L99.2095 49.6237 L90.8993 51.2903 L90.8993 47.0311 L99.1632 45.3644 L103.839 45.3644 L103.839 75.9893 L111.478 75.9893 L111.478 79.9244 L91.5706 79.9244 L91.5706 75.9893 Z" fill="#000000" fill-rule="evenodd" fill-opacity="1" /><path clip-path="url(#clip340)" d="M120.922 74.0448 L125.807 74.0448 L125.807 79.9244 L120.922 79.9244 L120.922 74.0448 Z" fill="#000000" fill-rule="evenodd" fill-opacity="1" /><path clip-path="url(#clip340)" d="M145.992 48.4431 Q142.381 48.4431 140.552 52.0079 Q138.746 55.5496 138.746 62.6792 Q138.746 69.7856 140.552 73.3504 Q142.381 76.8921 145.992 76.8921 Q149.626 76.8921 151.431 73.3504 Q153.26 69.7856 153.26 62.6792 Q153.26 55.5496 151.431 52.0079 Q149.626 48.4431 145.992 48.4431 M145.992 44.7394 Q151.802 44.7394 154.857 49.3459 Q157.936 53.9292 157.936 62.6792 Q157.936 71.406 154.857 76.0124 Q151.802 80.5957 145.992 80.5957 Q140.181 80.5957 137.103 76.0124 Q134.047 71.406 134.047 62.6792 Q134.047 53.9292 137.103 49.3459 Q140.181 44.7394 145.992 44.7394 Z" fill="#000000" fill-rule="evenodd" fill-opacity="1" /><polyline clip-path="url(#clip342)" style="stroke:#009af9; stroke-linecap:butt; stroke-linejoin:round; stroke-width:4; stroke-opacity:1; fill:none" points="
  255.035,1445.72 764.19,1331.52 1273.35,766.846 1782.5,202.172 2291.66,87.9763 
  "/>
<circle clip-path="url(#clip342)" cx="255.035" cy="1445.72" r="14" fill="#009af9" fill-rule="evenodd" fill-opacity="1" stroke="#000000" stroke-opacity="1" stroke-width="3.2"/>
<circle clip-path="url(#clip342)" cx="764.19" cy="1331.52" r="14" fill="#009af9" fill-rule="evenodd" fill-opacity="1" stroke="#000000" stroke-opacity="1" stroke-width="3.2"/>
<circle clip-path="url(#clip342)" cx="1273.35" cy="766.846" r="14" fill="#009af9" fill-rule="evenodd" fill-opacity="1" stroke="#000000" stroke-opacity="1" stroke-width="3.2"/>
<circle clip-path="url(#clip342)" cx="1782.5" cy="202.172" r="14" fill="#009af9" fill-rule="evenodd" fill-opacity="1" stroke="#000000" stroke-opacity="1" stroke-width="3.2"/>
<circle clip-path="url(#clip342)" cx="2291.66" cy="87.9763" r="14" fill="#009af9" fill-rule="evenodd" fill-opacity="1" stroke="#000000" stroke-opacity="1" stroke-width="3.2"/>
<polyline clip-path="url(#clip342)" style="stroke:#e26f46; stroke-linecap:butt; stroke-linejoin:round; stroke-width:4; stroke-opacity:1; fill:none" points="
  255.035,1445.72 274.924,1443.7 458.829,1415.86 569.348,1387.63 662.791,1353.72 764.296,1303.1 857.875,1240.69 908.038,1200.17 958.201,1154.44 1016.32,1094.93 
  1074.44,1028.76 1177.74,897.548 1268.32,773.797 1367.08,638.649 1466.43,511.905 1521.35,448.618 1576.27,391.192 1628.52,342.332 1680.78,299.146 1735.11,260.065 
  1789.45,226.538 1835.18,202.258 1880.92,181.233 1992.6,141.477 2097.58,115.844 2265.77,90.6335 2291.66,87.9763 
  "/>
<path clip-path="url(#clip340)" d="
M265.897 250.738 L558.196 250.738 L558.196 95.2176 L265.897 95.2176  Z
  " fill="#ffffff" fill-rule="evenodd" fill-opacity="1"/>
<polyline clip-path="url(#clip340)" style="stroke:#000000; stroke-linecap:butt; stroke-linejoin:round; stroke-width:4; stroke-opacity:1; fill:none" points="
  265.897,250.738 558.196,250.738 558.196,95.2176 265.897,95.2176 265.897,250.738 
  "/>
<polyline clip-path="url(#clip340)" style="stroke:#009af9; stroke-linecap:butt; stroke-linejoin:round; stroke-width:4; stroke-opacity:1; fill:none" points="
  289.884,147.058 433.805,147.058 
  "/>
<circle clip-path="url(#clip340)" cx="361.844" cy="147.058" r="23" fill="#009af9" fill-rule="evenodd" fill-opacity="1" stroke="#000000" stroke-opacity="1" stroke-width="5.12"/>
<path clip-path="url(#clip340)" d="M471.634 166.745 Q469.829 171.375 468.116 172.787 Q466.403 174.199 463.532 174.199 L460.13 174.199 L460.13 170.634 L462.63 170.634 Q464.389 170.634 465.361 169.8 Q466.333 168.967 467.514 165.865 L468.278 163.921 L457.792 138.412 L462.306 138.412 L470.407 158.689 L478.509 138.412 L483.023 138.412 L471.634 166.745 Z" fill="#000000" fill-rule="evenodd" fill-opacity="1" /><path clip-path="url(#clip340)" d="M490.315 160.402 L497.954 160.402 L497.954 134.037 L489.643 135.703 L489.643 131.444 L497.907 129.778 L502.583 129.778 L502.583 160.402 L510.222 160.402 L510.222 164.338 L490.315 164.338 L490.315 160.402 Z" fill="#000000" fill-rule="evenodd" fill-opacity="1" /><polyline clip-path="url(#clip340)" style="stroke:#e26f46; stroke-linecap:butt; stroke-linejoin:round; stroke-width:4; stroke-opacity:1; fill:none" points="
  289.884,198.898 433.805,198.898 
  "/>
<path clip-path="url(#clip340)" d="M471.634 218.585 Q469.829 223.215 468.116 224.627 Q466.403 226.039 463.532 226.039 L460.13 226.039 L460.13 222.474 L462.63 222.474 Q464.389 222.474 465.361 221.64 Q466.333 220.807 467.514 217.705 L468.278 215.761 L457.792 190.252 L462.306 190.252 L470.407 210.529 L478.509 190.252 L483.023 190.252 L471.634 218.585 Z" fill="#000000" fill-rule="evenodd" fill-opacity="1" /><path clip-path="url(#clip340)" d="M493.532 212.242 L509.852 212.242 L509.852 216.178 L487.907 216.178 L487.907 212.242 Q490.569 209.488 495.153 204.858 Q499.759 200.205 500.94 198.863 Q503.185 196.34 504.065 194.604 Q504.967 192.844 504.967 191.155 Q504.967 188.4 503.023 186.664 Q501.102 184.928 498 184.928 Q495.801 184.928 493.347 185.692 Q490.917 186.455 488.139 188.006 L488.139 183.284 Q490.963 182.15 493.417 181.571 Q495.87 180.993 497.907 180.993 Q503.278 180.993 506.472 183.678 Q509.666 186.363 509.666 190.854 Q509.666 192.983 508.856 194.905 Q508.069 196.803 505.963 199.395 Q505.384 200.067 502.282 203.284 Q499.18 206.479 493.532 212.242 Z" fill="#000000" fill-rule="evenodd" fill-opacity="1" /></svg>
