<?xml version="1.0" encoding="utf-8"?>
<svg xmlns="http://www.w3.org/2000/svg" xmlns:xlink="http://www.w3.org/1999/xlink" width="600" height="400" viewBox="0 0 2400 1600">
<defs>
  <clipPath id="clip070">
    <rect x="0" y="0" width="2400" height="1600"/>
  </clipPath>
</defs>
<path clip-path="url(#clip070)" d="
M0 1600 L2400 1600 L2400 0 L0 0  Z
  " fill="#ffffff" fill-rule="evenodd" fill-opacity="1"/>
<defs>
  <clipPath id="clip071">
    <rect x="480" y="0" width="1681" height="1600"/>
  </clipPath>
</defs>
<path clip-path="url(#clip070)" d="
M193.936 1486.45 L2352.76 1486.45 L2352.76 47.2441 L193.936 47.2441  Z
  " fill="#ffffff" fill-rule="evenodd" fill-opacity="1"/>
<defs>
  <clipPath id="clip072">
    <rect x="193" y="47" width="2160" height="1440"/>
  </clipPath>
</defs>
<polyline clip-path="url(#clip072)" style="stroke:#000000; stroke-linecap:butt; stroke-linejoin:round; stroke-width:2; stroke-opacity:0.1; fill:none" points="
  255.035,1486.45 255.035,47.2441 
  "/>
<polyline clip-path="url(#clip072)" style="stroke:#000000; stroke-linecap:butt; stroke-linejoin:round; stroke-width:2; stroke-opacity:0.1; fill:none" points="
  764.19,1486.45 764.19,47.2441 
  "/>
<polyline clip-path="url(#clip072)" style="stroke:#000000; stroke-linecap:butt; stroke-linejoin:round; stroke-width:2; stroke-opacity:0.1; fill:none" points="
  1273.35,1486.45 1273.35,47.2441 
  "/>
<polyline clip-path="url(#clip072)" style="stroke:#000000; stroke-linecap:butt; stroke-linejoin:round; stroke-width:2; stroke-opacity:0.1; fill:none" points="
  1782.5,1486.45 1782.5,47.2441 
  "/>
<polyline clip-path="url(#clip072)" style="stroke:#000000; stroke-linecap:butt; stroke-linejoin:round; stroke-width:2; stroke-opacity:0.1; fill:none" points="
  2291.66,1486.45 2291.66,47.2441 
  "/>
<polyline clip-path="url(#clip070)" style="stroke:#000000; stroke-linecap:butt; stroke-linejoin:round; stroke-width:4; stroke-opacity:1; fill:none" points="
  193.936,1486.45 2352.76,1486.45 
  "/>
<polyline clip-path="url(#clip070)" style="stroke:#000000; stroke-linecap:butt; stroke-linejoin:round; stroke-width:4; stroke-opacity:1; fill:none" points="
  255.035,1486.45 255.035,1467.55 
  "/>
<polyline clip-path="url(#clip070)" style="stroke:#000000; stroke-linecap:butt; stroke-linejoin:round; stroke-width:4; stroke-opacity:1; fill:none" points="
  764.19,1486.45 764.19,1467.55 
  "/>
<polyline clip-path="url(#clip070)" style="stroke:#000000; stroke-linecap:butt; stroke-linejoin:round; stroke-width:4; stroke-opacity:1; fill:none" points="
  1273.35,1486.45 1273.35,1467.55 
  "/>
<polyline clip-path="url(#clip070)" style="stroke:#000000; stroke-linecap:butt; stroke-linejoin:round; stroke-width:4; stroke-opacity:1; fill:none" points="
  1782.5,1486.45 1782.5,1467.55 
  "/>
<polyline clip-path="url(#clip070)" style="stroke:#000000; stroke-linecap:butt; stroke-linejoin:round; stroke-width:4; stroke-opacity:1; fill:none" points="
  2291.66,1486.45 2291.66,1467.55 
  "/>
<path clip-path="url(#clip070)" d="M201.563 1530.29 L231.239 1530.29 L231.239 1534.23 L201.563 1534.23 L201.563 1530.29 Z" fill="#000000" fill-rule="evenodd" fill-opacity="1" /><path clip-path="url(#clip070)" d="M242.141 1543.18 L249.78 1543.18 L249.78 1516.82 L241.47 1518.49 L241.47 1514.23 L249.734 1512.56 L254.41 1512.56 L254.41 1543.18 L262.049 1543.18 L262.049 1547.12 L242.141 1547.12 L242.141 1543.18 Z" fill="#000000" fill-rule="evenodd" fill-opacity="1" /><path clip-path="url(#clip070)" d="M271.493 1541.24 L276.377 1541.24 L276.377 1547.12 L271.493 1547.12 L271.493 1541.24 Z" fill="#000000" fill-rule="evenodd" fill-opacity="1" /><path clip-path="url(#clip070)" d="M296.562 1515.64 Q292.951 1515.64 291.122 1519.2 Q289.317 1522.75 289.317 1529.87 Q289.317 1536.98 291.122 1540.55 Q292.951 1544.09 296.562 1544.09 Q300.196 1544.09 302.002 1540.55 Q303.831 1536.98 303.831 1529.87 Q303.831 1522.75 302.002 1519.2 Q300.196 1515.64 296.562 1515.64 M296.562 1511.93 Q302.372 1511.93 305.428 1516.54 Q308.507 1521.12 308.507 1529.87 Q308.507 1538.6 305.428 1543.21 Q302.372 1547.79 296.562 1547.79 Q290.752 1547.79 287.673 1543.21 Q284.618 1538.6 284.618 1529.87 Q284.618 1521.12 287.673 1516.54 Q290.752 1511.93 296.562 1511.93 Z" fill="#000000" fill-rule="evenodd" fill-opacity="1" /><path clip-path="url(#clip070)" d="M711.216 1530.29 L740.892 1530.29 L740.892 1534.23 L711.216 1534.23 L711.216 1530.29 Z" fill="#000000" fill-rule="evenodd" fill-opacity="1" /><path clip-path="url(#clip070)" d="M760.984 1515.64 Q757.373 1515.64 755.545 1519.2 Q753.739 1522.75 753.739 1529.87 Q753.739 1536.98 755.545 1540.55 Q757.373 1544.09 760.984 1544.09 Q764.619 1544.09 766.424 1540.55 Q768.253 1536.98 768.253 1529.87 Q768.253 1522.75 766.424 1519.2 Q764.619 1515.64 760.984 1515.64 M760.984 1511.93 Q766.794 1511.93 769.85 1516.54 Q772.929 1521.12 772.929 1529.87 Q772.929 1538.6 769.85 1543.21 Q766.794 1547.79 760.984 1547.79 Q755.174 1547.79 752.095 1543.21 Q749.04 1538.6 749.04 1529.87 Q749.04 1521.12 752.095 1516.54 Q755.174 1511.93 760.984 1511.93 Z" fill="#000000" fill-rule="evenodd" fill-opacity="1" /><path clip-path="url(#clip070)" d="M781.146 1541.24 L786.03 1541.24 L786.03 1547.12 L781.146 1547.12 L781.146 1541.24 Z" fill="#000000" fill-rule="evenodd" fill-opacity="1" /><path clip-path="url(#clip070)" d="M796.262 1512.56 L814.618 1512.56 L814.618 1516.5 L800.544 1516.5 L800.544 1524.97 Q801.563 1524.62 802.581 1524.46 Q803.6 1524.27 804.618 1524.27 Q810.405 1524.27 813.785 1527.44 Q817.165 1530.62 817.165 1536.03 Q817.165 1541.61 813.692 1544.71 Q810.22 1547.79 803.901 1547.79 Q801.725 1547.79 799.456 1547.42 Q797.211 1547.05 794.804 1546.31 L794.804 1541.61 Q796.887 1542.74 799.109 1543.3 Q801.331 1543.86 803.808 1543.86 Q807.813 1543.86 810.151 1541.75 Q812.489 1539.64 812.489 1536.03 Q812.489 1532.42 810.151 1530.31 Q807.813 1528.21 803.808 1528.21 Q801.933 1528.21 800.058 1528.62 Q798.206 1529.04 796.262 1529.92 L796.262 1512.56 Z" fill="#000000" fill-rule="evenodd" fill-opacity="1" /><path clip-path="url(#clip070)" d="M1250.73 1515.64 Q1247.12 1515.64 1245.29 1519.2 Q1243.49 1522.75 1243.49 1529.87 Q1243.49 1536.98 1245.29 1540.55 Q1247.12 1544.09 1250.73 1544.09 Q1254.36 1544.09 1256.17 1540.55 Q1258 1536.98 1258 1529.87 Q1258 1522.75 1256.17 1519.2 Q1254.36 1515.64 1250.73 1515.64 M1250.73 1511.93 Q1256.54 1511.93 1259.6 1516.54 Q1262.67 1521.12 1262.67 1529.87 Q1262.67 1538.6 1259.6 1543.21 Q1256.54 1547.79 1250.73 1547.79 Q1244.92 1547.79 1241.84 1543.21 Q1238.79 1538.6 1238.79 1529.87 Q1238.79 1521.12 1241.84 1516.54 Q1244.92 1511.93 1250.73 1511.93 Z" fill="#000000" fill-rule="evenodd" fill-opacity="1" /><path clip-path="url(#clip070)" d="M1270.89 1541.24 L1275.78 1541.24 L1275.78 1547.12 L1270.89 1547.12 L1270.89 1541.24 Z" fill="#000000" fill-rule="evenodd" fill-opacity="1" /><path clip-path="url(#clip070)" d="M1295.96 1515.64 Q1292.35 1515.64 1290.52 1519.2 Q1288.72 1522.75 1288.72 1529.87 Q1288.72 1536.98 1290.52 1540.55 Q1292.35 1544.09 1295.96 1544.09 Q1299.6 1544.09 1301.4 1540.55 Q1303.23 1536.98 1303.23 1529.87 Q1303.23 1522.75 1301.4 1519.2 Q1299.6 1515.64 1295.96 1515.64 M1295.96 1511.93 Q1301.77 1511.93 1304.83 1516.54 Q1307.91 1521.12 1307.91 1529.87 Q1307.91 1538.6 1304.83 1543.21 Q1301.77 1547.79 1295.96 1547.79 Q1290.15 1547.79 1287.07 1543.21 Q1284.02 1538.6 1284.02 1529.87 Q1284.02 1521.12 1287.07 1516.54 Q1290.15 1511.93 1295.96 1511.93 Z" fill="#000000" fill-rule="evenodd" fill-opacity="1" /><path clip-path="url(#clip070)" d="M1760.38 1515.64 Q1756.77 1515.64 1754.94 1519.2 Q1753.14 1522.75 1753.14 1529.87 Q1753.14 1536.98 1754.94 1540.55 Q1756.77 1544.09 1760.38 1544.09 Q1764.02 1544.09 1765.82 1540.55 Q1767.65 1536.98 1767.65 1529.87 Q1767.65 1522.75 1765.82 1519.2 Q1764.02 1515.64 1760.38 1515.64 M1760.38 1511.93 Q1766.19 1511.93 1769.25 1516.54 Q1772.33 1521.12 1772.33 1529.87 Q1772.33 1538.6 1769.25 1543.21 Q1766.19 1547.79 1760.38 1547.79 Q1754.57 1547.79 1751.49 1543.21 Q1748.44 1538.6 1748.44 1529.87 Q1748.44 1521.12 1751.49 1516.54 Q1754.57 1511.93 1760.38 1511.93 Z" fill="#000000" fill-rule="evenodd" fill-opacity="1" /><path clip-path="url(#clip070)" d="M1780.55 1541.24 L1785.43 1541.24 L1785.43 1547.12 L1780.55 1547.12 L1780.55 1541.24 Z" fill="#000000" fill-rule="evenodd" fill-opacity="1" /><path clip-path="url(#clip070)" d="M1795.66 1512.56 L1814.02 1512.56 L1814.02 1516.5 L1799.94 1516.5 L1799.94 1524.97 Q1800.96 1524.62 1801.98 1524.46 Q1803 1524.27 1804.02 1524.27 Q1809.8 1524.27 1813.18 1527.44 Q1816.56 1530.62 1816.56 1536.03 Q1816.56 1541.61 1813.09 1544.71 Q1809.62 1547.79 1803.3 1547.79 Q1801.12 1547.79 1798.86 1547.42 Q1796.61 1547.05 1794.2 1546.31 L1794.2 1541.61 Q1796.29 1542.74 1798.51 1543.3 Q1800.73 1543.86 1803.21 1543.86 Q1807.21 1543.86 1809.55 1541.75 Q1811.89 1539.64 1811.89 1536.03 Q1811.89 1532.42 1809.55 1530.31 Q1807.21 1528.21 1803.21 1528.21 Q1801.33 1528.21 1799.46 1528.62 Q1797.61 1529.04 1795.66 1529.92 L1795.66 1512.56 Z" fill="#000000" fill-rule="evenodd" fill-opacity="1" /><path clip-path="url(#clip070)" d="M2258.81 1543.18 L2266.45 1543.18 L2266.45 1516.82 L2258.14 1518.49 L2258.14 1514.23 L2266.4 1512.56 L2271.08 1512.56 L2271.08 1543.18 L2278.72 1543.18 L2278.72 1547.12 L2258.81 1547.12 L2258.81 1543.18 Z" fill="#000000" fill-rule="evenodd" fill-opacity="1" /><path clip-path="url(#clip070)" d="M2288.16 1541.24 L2293.05 1541.24 L2293.05 1547.12 L2288.16 1547.12 L2288.16 1541.24 Z" fill="#000000" fill-rule="evenodd" fill-opacity="1" /><path clip-path="url(#clip070)" d="M2313.23 1515.64 Q2309.62 1515.64 2307.79 1519.2 Q2305.99 1522.75 2305.99 1529.87 Q2305.99 1536.98 2307.79 1540.55 Q2309.62 1544.09 2313.23 1544.09 Q2316.87 1544.09 2318.67 1540.55 Q2320.5 1536.98 2320.5 1529.87 Q2320.5 1522.75 2318.67 1519.2 Q2316.87 1515.64 2313.23 1515.64 M2313.23 1511.93 Q2319.04 1511.93 2322.1 1516.54 Q2325.18 1521.12 2325.18 1529.87 Q2325.18 1538.6 2322.1 1543.21 Q2319.04 1547.79 2313.23 1547.79 Q2307.42 1547.79 2304.34 1543.21 Q2301.29 1538.6 2301.29 1529.87 Q2301.29 1521.12 2304.34 1516.54 Q2307.42 1511.93 2313.23 1511.93 Z" fill="#000000" fill-rule="evenodd" fill-opacity="1" /><polyline clip-path="url(#clip072)" style="stroke:#000000; stroke-linecap:butt; stroke-linejoin:round; stroke-width:2; stroke-opacity:0.1; fill:none" points="
  193.936,1470.93 2352.76,1470.93 
  "/>
<polyline clip-path="url(#clip072)" style="stroke:#000000; stroke-linecap:butt; stroke-linejoin:round; stroke-width:2; stroke-opacity:0.1; fill:none" points="
  193.936,1120.49 2352.76,1120.49 
  "/>
<polyline clip-path="url(#clip072)" style="stroke:#000000; stroke-linecap:butt; stroke-linejoin:round; stroke-width:2; stroke-opacity:0.1; fill:none" points="
  193.936,770.062 2352.76,770.062 
  "/>
<polyline clip-path="url(#clip072)" style="stroke:#000000; stroke-linecap:butt; stroke-linejoin:round; stroke-width:2; stroke-opacity:0.1; fill:none" points="
  193.936,419.63 2352.76,419.63 
  "/>
<polyline clip-path="url(#clip072)" style="stroke:#000000; stroke-linecap:butt; stroke-linejoin:round; stroke-width:2; stroke-opacity:0.1; fill:none" points="
  193.936,69.1971 2352.76,69.1971 
  "/>
<polyline clip-path="url(#clip070)" style="stroke:#000000; stroke-linecap:butt; stroke-linejoin:round; stroke-width:4; stroke-opacity:1; fill:none" points="
  193.936,1486.45 193.936,47.2441 
  "/>
<polyline clip-path="url(#clip070)" style="stroke:#000000; stroke-linecap:butt; stroke-linejoin:round; stroke-width:4; stroke-opacity:1; fill:none" points="
  193.936,1470.93 212.834,1470.93 
  "/>
<polyline clip-path="url(#clip070)" style="stroke:#000000; stroke-linecap:butt; stroke-linejoin:round; stroke-width:4; stroke-opacity:1; fill:none" points="
  193.936,1120.49 212.834,1120.49 
  "/>
<polyline clip-path="url(#clip070)" style="stroke:#000000; stroke-linecap:butt; stroke-linejoin:round; stroke-width:4; stroke-opacity:1; fill:none" points="
  193.936,770.062 212.834,770.062 
  "/>
<polyline clip-path="url(#clip070)" style="stroke:#000000; stroke-linecap:butt; stroke-linejoin:round; stroke-width:4; stroke-opacity:1; fill:none" points="
  193.936,419.63 212.834,419.63 
  "/>
<polyline clip-path="url(#clip070)" style="stroke:#000000; stroke-linecap:butt; stroke-linejoin:round; stroke-width:4; stroke-opacity:1; fill:none" points="
  193.936,69.1971 212.834,69.1971 
  "/>
<path clip-path="url(#clip070)" d="M50.9921 1471.38 L80.6679 1471.38 L80.6679 1475.31 L50.9921 1475.31 L50.9921 1471.38 Z" fill="#000000" fill-rule="evenodd" fill-opacity="1" /><path clip-path="url(#clip070)" d="M91.5706 1484.27 L99.2095 1484.27 L99.2095 1457.91 L90.8993 1459.57 L90.8993 1455.31 L99.1632 1453.65 L103.839 1453.65 L103.839 1484.27 L111.478 1484.27 L111.478 1488.21 L91.5706 1488.21 L91.5706 1484.27 Z" fill="#000000" fill-rule="evenodd" fill-opacity="1" /><path clip-path="url(#clip070)" d="M120.922 1482.33 L125.807 1482.33 L125.807 1488.21 L120.922 1488.21 L120.922 1482.33 Z" fill="#000000" fill-rule="evenodd" fill-opacity="1" /><path clip-path="url(#clip070)" d="M145.992 1456.73 Q142.381 1456.73 140.552 1460.29 Q138.746 1463.83 138.746 1470.96 Q138.746 1478.07 140.552 1481.63 Q142.381 1485.18 145.992 1485.18 Q149.626 1485.18 151.431 1481.63 Q153.26 1478.07 153.26 1470.96 Q153.26 1463.83 151.431 1460.29 Q149.626 1456.73 145.992 1456.73 M145.992 1453.02 Q151.802 1453.02 154.857 1457.63 Q157.936 1462.21 157.936 1470.96 Q157.936 1479.69 154.857 1484.3 Q151.802 1488.88 145.992 1488.88 Q140.181 1488.88 137.103 1484.3 Q134.047 1479.69 134.047 1470.96 Q134.047 1462.21 137.103 1457.63 Q140.181 1453.02 145.992 1453.02 Z" fill="#000000" fill-rule="evenodd" fill-opacity="1" /><path clip-path="url(#clip070)" d="M51.9875 1120.95 L81.6633 1120.95 L81.6633 1124.88 L51.9875 1124.88 L51.9875 1120.95 Z" fill="#000000" fill-rule="evenodd" fill-opacity="1" /><path clip-path="url(#clip070)" d="M101.756 1106.29 Q98.1447 1106.29 96.316 1109.86 Q94.5104 1113.4 94.5104 1120.53 Q94.5104 1127.64 96.316 1131.2 Q98.1447 1134.74 101.756 1134.74 Q105.39 1134.74 107.196 1131.2 Q109.024 1127.64 109.024 1120.53 Q109.024 1113.4 107.196 1109.86 Q105.39 1106.29 101.756 1106.29 M101.756 1102.59 Q107.566 1102.59 110.621 1107.2 Q113.7 1111.78 113.7 1120.53 Q113.7 1129.26 110.621 1133.86 Q107.566 1138.45 101.756 1138.45 Q95.9456 1138.45 92.8669 1133.86 Q89.8114 1129.26 89.8114 1120.53 Q89.8114 1111.78 92.8669 1107.2 Q95.9456 1102.59 101.756 1102.59 Z" fill="#000000" fill-rule="evenodd" fill-opacity="1" /><path clip-path="url(#clip070)" d="M121.918 1131.9 L126.802 1131.9 L126.802 1137.77 L121.918 1137.77 L121.918 1131.9 Z" fill="#000000" fill-rule="evenodd" fill-opacity="1" /><path clip-path="url(#clip070)" d="M137.033 1103.21 L155.39 1103.21 L155.39 1107.15 L141.316 1107.15 L141.316 1115.62 Q142.334 1115.28 143.353 1115.11 Q144.371 1114.93 145.39 1114.93 Q151.177 1114.93 154.556 1118.1 Q157.936 1121.27 157.936 1126.69 Q157.936 1132.27 154.464 1135.37 Q150.992 1138.45 144.672 1138.45 Q142.496 1138.45 140.228 1138.08 Q137.982 1137.71 135.575 1136.96 L135.575 1132.27 Q137.658 1133.4 139.881 1133.96 Q142.103 1134.51 144.58 1134.51 Q148.584 1134.51 150.922 1132.4 Q153.26 1130.3 153.26 1126.69 Q153.26 1123.08 150.922 1120.97 Q148.584 1118.86 144.58 1118.86 Q142.705 1118.86 140.83 1119.28 Q138.978 1119.7 137.033 1120.58 L137.033 1103.21 Z" fill="#000000" fill-rule="evenodd" fill-opacity="1" /><path clip-path="url(#clip070)" d="M100.76 755.861 Q97.1493 755.861 95.3206 759.426 Q93.515 762.967 93.515 770.097 Q93.515 777.203 95.3206 780.768 Q97.1493 784.31 100.76 784.31 Q104.395 784.31 106.2 780.768 Q108.029 777.203 108.029 770.097 Q108.029 762.967 106.2 759.426 Q104.395 755.861 100.76 755.861 M100.76 752.157 Q106.571 752.157 109.626 756.764 Q112.705 761.347 112.705 770.097 Q112.705 778.824 109.626 783.43 Q106.571 788.014 100.76 788.014 Q94.9502 788.014 91.8715 783.43 Q88.816 778.824 88.816 770.097 Q88.816 761.347 91.8715 756.764 Q94.9502 752.157 100.76 752.157 Z" fill="#000000" fill-rule="evenodd" fill-opacity="1" /><path clip-path="url(#clip070)" d="M120.922 781.463 L125.807 781.463 L125.807 787.342 L120.922 787.342 L120.922 781.463 Z" fill="#000000" fill-rule="evenodd" fill-opacity="1" /><path clip-path="url(#clip070)" d="M145.992 755.861 Q142.381 755.861 140.552 759.426 Q138.746 762.967 138.746 770.097 Q138.746 777.203 140.552 780.768 Q142.381 784.31 145.992 784.31 Q149.626 784.31 151.431 780.768 Q153.26 777.203 153.26 770.097 Q153.26 762.967 151.431 759.426 Q149.626 755.861 145.992 755.861 M145.992 752.157 Q151.802 752.157 154.857 756.764 Q157.936 761.347 157.936 770.097 Q157.936 778.824 154.857 783.43 Q151.802 788.014 145.992 788.014 Q140.181 788.014 137.103 783.43 Q134.047 778.824 134.047 770.097 Q134.047 761.347 137.103 756.764 Q140.181 752.157 145.992 752.157 Z" fill="#000000" fill-rule="evenodd" fill-opacity="1" /><path clip-path="url(#clip070)" d="M101.756 405.428 Q98.1447 405.428 96.316 408.993 Q94.5104 412.535 94.5104 419.664 Q94.5104 426.771 96.316 430.336 Q98.1447 433.877 101.756 433.877 Q105.39 433.877 107.196 430.336 Q109.024 426.771 109.024 419.664 Q109.024 412.535 107.196 408.993 Q105.39 405.428 101.756 405.428 M101.756 401.725 Q107.566 401.725 110.621 406.331 Q113.7 410.914 113.7 419.664 Q113.7 428.391 110.621 432.998 Q107.566 437.581 101.756 437.581 Q95.9456 437.581 92.8669 432.998 Q89.8114 428.391 89.8114 419.664 Q89.8114 410.914 92.8669 406.331 Q95.9456 401.725 101.756 401.725 Z" fill="#000000" fill-rule="evenodd" fill-opacity="1" /><path clip-path="url(#clip070)" d="M121.918 431.03 L126.802 431.03 L126.802 436.91 L121.918 436.91 L121.918 431.03 Z" fill="#000000" fill-rule="evenodd" fill-opacity="1" /><path clip-path="url(#clip070)" d="M137.033 402.35 L155.39 402.35 L155.39 406.285 L141.316 406.285 L141.316 414.757 Q142.334 414.41 143.353 414.248 Q144.371 414.063 145.39 414.063 Q151.177 414.063 154.556 417.234 Q157.936 420.405 157.936 425.822 Q157.936 431.4 154.464 434.502 Q150.992 437.581 144.672 437.581 Q142.496 437.581 140.228 437.211 Q137.982 436.84 135.575 436.1 L135.575 431.4 Q137.658 432.535 139.881 433.09 Q142.103 433.646 144.58 433.646 Q148.584 433.646 150.922 431.539 Q153.26 429.433 153.26 425.822 Q153.26 422.211 150.922 420.104 Q148.584 417.998 144.58 417.998 Q142.705 417.998 140.83 418.414 Q138.978 418.831 137.033 419.711 L137.033 402.35 Z" fill="#000000" fill-rule="evenodd" fill-opacity="1" /><path clip-path="url(#clip070)" d="M91.5706 82.5419 L99.2095 82.5419 L99.2095 56.1763 L90.8993 57.843 L90.8993 53.5838 L99.1632 51.9171 L103.839 51.9171 L103.839 82.5419 L111.478 82.5419 L111.478 86.4771 L91.5706 86.4771 L91.5706 82.5419 Z" fill="#000000" fill-rule="evenodd" fill-opacity="1" /><path clip-path="url(#clip070)" d="M120.922 80.5975 L125.807 80.5975 L125.807 86.4771 L120.922 86.4771 L120.922 80.5975 Z" fill="#000000" fill-rule="evenodd" fill-opacity="1" /><path clip-path="url(#clip070)" d="M145.992 54.9958 Q142.381 54.9958 140.552 58.5606 Q138.746 62.1022 138.746 69.2318 Q138.746 76.3383 140.552 79.9031 Q142.381 83.4447 145.992 83.4447 Q149.626 83.4447 151.431 79.9031 Q153.26 76.3383 153.26 69.2318 Q153.26 62.1022 151.431 58.5606 Q149.626 54.9958 145.992 54.9958 M145.992 51.2921 Q151.802 51.2921 154.857 55.8986 Q157.936 60.4819 157.936 69.2318 Q157.936 77.9586 154.857 82.5651 Q151.802 87.1484 145.992 87.1484 Q140.181 87.1484 137.103 82.5651 Q134.047 77.9586 134.047 69.2318 Q134.047 60.4819 137.103 55.8986 Q140.181 51.2921 145.992 51.2921 Z" fill="#000000" fill-rule="evenodd" fill-opacity="1" /><polyline clip-path="url(#clip072)" style="stroke:#009af9; stroke-linecap:butt; stroke-linejoin:round; stroke-width:4; stroke-opacity:1; fill:none" points="
  255.035,1445.72 296.283,1441.2 416.688,1423.61 606.494,1374.62 850.324,1245.43 1128.43,961.778 1418.27,571.914 1696.37,288.26 1940.2,159.075 2130,110.084 
  2250.41,92.4969 2291.66,87.9763 
  "/>
<circle clip-path="url(#clip072)" cx="255.035" cy="1445.72" r="14" fill="#009af9" fill-rule="evenodd" fill-opacity="1" stroke="#000000" stroke-opacity="1" stroke-width="3.2"/>
<circle clip-path="url(#clip072)" cx="296.283" cy="1441.2" r="14" fill="#009af9" fill-rule="evenodd" fill-opacity="1" stroke="#000000" stroke-opacity="1" stroke-width="3.2"/>
<circle clip-path="url(#clip072)" cx="416.688" cy="1423.61" r="14" fill="#009af9" fill-rule="evenodd" fill-opacity="1" stroke="#000000" stroke-opacity="1" stroke-width="3.2"/>
<circle clip-path="url(#clip072)" cx="606.494" cy="1374.62" r="14" fill="#009af9" fill-rule="evenodd" fill-opacity="1" stroke="#000000" stroke-opacity="1" stroke-width="3.2"/>
<circle clip-path="url(#clip072)" cx="850.324" cy="1245.43" r="14" fill="#009af9" fill-rule="evenodd" fill-opacity="1" stroke="#000000" stroke-opacity="1" stroke-width="3.2"/>
<circle clip-path="url(#clip072)" cx="1128.43" cy="961.778" r="14" fill="#009af9" fill-rule="evenodd" fill-opacity="1" stroke="#000000" stroke-opacity="1" stroke-width="3.2"/>
<circle clip-path="url(#clip072)" cx="1418.27" cy="571.914" r="14" fill="#009af9" fill-rule="evenodd" fill-opacity="1" stroke="#000000" stroke-opacity="1" stroke-width="3.2"/>
<circle clip-path="url(#clip072)" cx="1696.37" cy="288.26" r="14" fill="#009af9" fill-rule="evenodd" fill-opacity="1" stroke="#000000" stroke-opacity="1" stroke-width="3.2"/>
<circle clip-path="url(#clip072)" cx="1940.2" cy="159.075" r="14" fill="#009af9" fill-rule="evenodd" fill-opacity="1" stroke="#000000" stroke-opacity="1" stroke-width="3.2"/>
<circle clip-path="url(#clip072)" cx="2130" cy="110.084" r="14" fill="#009af9" fill-rule="evenodd" fill-opacity="1" stroke="#000000" stroke-opacity="1" stroke-width="3.2"/>
<circle clip-path="url(#clip072)" cx="2250.41" cy="92.4969" r="14" fill="#009af9" fill-rule="evenodd" fill-opacity="1" stroke="#000000" stroke-opacity="1" stroke-width="3.2"/>
<circle clip-path="url(#clip072)" cx="2291.66" cy="87.9763" r="14" fill="#009af9" fill-rule="evenodd" fill-opacity="1" stroke="#000000" stroke-opacity="1" stroke-width="3.2"/>
<polyline clip-path="url(#clip072)" style="stroke:#e26f46; stroke-linecap:butt; stroke-linejoin:round; stroke-width:4; stroke-opacity:1; fill:none" points="
  255.035,1445.72 274.924,1443.71 458.829,1416 569.348,1387.91 662.791,1354.16 764.296,1303.78 857.875,1241.67 908.038,1201.34 958.201,1155.82 1016.32,1096.59 
  1074.44,1030.74 1177.74,900.145 1268.32,776.98 1367.08,642.473 1466.43,516.329 1521.35,453.342 1576.27,396.188 1628.52,347.559 1680.78,304.578 1735.11,265.682 
  1789.45,232.314 1835.18,208.149 1880.92,187.223 1992.6,147.656 2097.58,122.144 2265.77,97.0535 2291.66,94.4089 
  "/>
<path clip-path="url(#clip070)" d="
M1988.5 1438.47 L2280.8 1438.47 L2280.8 1282.95 L1988.5 1282.95  Z
  " fill="#ffffff" fill-rule="evenodd" fill-opacity="1"/>
<polyline clip-path="url(#clip070)" style="stroke:#000000; stroke-linecap:butt; stroke-linejoin:round; stroke-width:4; stroke-opacity:1; fill:none" points="
  1988.5,1438.47 2280.8,1438.47 2280.8,1282.95 1988.5,1282.95 1988.5,1438.47 
  "/>
<polyline clip-path="url(#clip070)" style="stroke:#009af9; stroke-linecap:butt; stroke-linejoin:round; stroke-width:4; stroke-opacity:1; fill:none" points="
  2012.48,1334.79 2156.4,1334.79 
  "/>
<circle clip-path="url(#clip070)" cx="2084.44" cy="1334.79" r="23" fill="#009af9" fill-rule="evenodd" fill-opacity="1" stroke="#000000" stroke-opacity="1" stroke-width="5.12"/>
<path clip-path="url(#clip070)" d="M2194.23 1354.48 Q2192.43 1359.11 2190.72 1360.52 Q2189 1361.94 2186.13 1361.94 L2182.73 1361.94 L2182.73 1358.37 L2185.23 1358.37 Q2186.99 1358.37 2187.96 1357.54 Q2188.93 1356.7 2190.11 1353.6 L2190.88 1351.66 L2180.39 1326.15 L2184.91 1326.15 L2193.01 1346.43 L2201.11 1326.15 L2205.62 1326.15 L2194.23 1354.48 Z" fill="#000000" fill-rule="evenodd" fill-opacity="1" /><path clip-path="url(#clip070)" d="M2212.91 1348.14 L2220.55 1348.14 L2220.55 1321.77 L2212.24 1323.44 L2212.24 1319.18 L2220.51 1317.51 L2225.18 1317.51 L2225.18 1348.14 L2232.82 1348.14 L2232.82 1352.07 L2212.91 1352.07 L2212.91 1348.14 Z" fill="#000000" fill-rule="evenodd" fill-opacity="1" /><polyline clip-path="url(#clip070)" style="stroke:#e26f46; stroke-linecap:butt; stroke-linejoin:round; stroke-width:4; stroke-opacity:1; fill:none" points="
  2012.48,1386.63 2156.4,1386.63 
  "/>
<path clip-path="url(#clip070)" d="M2194.23 1406.32 Q2192.43 1410.95 2190.72 1412.36 Q2189 1413.78 2186.13 1413.78 L2182.73 1413.78 L2182.73 1410.21 L2185.23 1410.21 Q2186.99 1410.21 2187.96 1409.38 Q2188.93 1408.54 2190.11 1405.44 L2190.88 1403.5 L2180.39 1377.99 L2184.91 1377.99 L2193.01 1398.27 L2201.11 1377.99 L2205.62 1377.99 L2194.23 1406.32 Z" fill="#000000" fill-rule="evenodd" fill-opacity="1" /><path clip-path="url(#clip070)" d="M2216.13 1399.98 L2232.45 1399.98 L2232.45 1403.91 L2210.51 1403.91 L2210.51 1399.98 Q2213.17 1397.22 2217.75 1392.6 Q2222.36 1387.94 2223.54 1386.6 Q2225.78 1384.08 2226.66 1382.34 Q2227.57 1380.58 2227.57 1378.89 Q2227.57 1376.14 2225.62 1374.4 Q2223.7 1372.66 2220.6 1372.66 Q2218.4 1372.66 2215.95 1373.43 Q2213.52 1374.19 2210.74 1375.74 L2210.74 1371.02 Q2213.56 1369.89 2216.02 1369.31 Q2218.47 1368.73 2220.51 1368.73 Q2225.88 1368.73 2229.07 1371.41 Q2232.27 1374.1 2232.27 1378.59 Q2232.27 1380.72 2231.46 1382.64 Q2230.67 1384.54 2228.56 1387.13 Q2227.98 1387.8 2224.88 1391.02 Q2221.78 1394.22 2216.13 1399.98 Z" fill="#000000" fill-rule="evenodd" fill-opacity="1" /></svg>
