<?xml version="1.0" encoding="utf-8"?>
<svg xmlns="http://www.w3.org/2000/svg" xmlns:xlink="http://www.w3.org/1999/xlink" width="600" height="400" viewBox="0 0 2400 1600">
<defs>
  <clipPath id="clip270">
    <rect x="0" y="0" width="2400" height="1600"/>
  </clipPath>
</defs>
<path clip-path="url(#clip270)" d="
M0 1600 L2400 1600 L2400 0 L0 0  Z
  " fill="#ffffff" fill-rule="evenodd" fill-opacity="1"/>
<defs>
  <clipPath id="clip271">
    <rect x="480" y="0" width="1681" height="1600"/>
  </clipPath>
</defs>
<path clip-path="url(#clip270)" d="
M189.233 1474.16 L2352.76 1474.16 L2352.76 47.2441 L189.233 47.2441  Z
  " fill="#ffffff" fill-rule="evenodd" fill-opacity="1"/>
<defs>
  <clipPath id="clip272">
    <rect x="189" y="47" width="2165" height="1428"/>
  </clipPath>
</defs>
<polyline clip-path="url(#clip272)" style="stroke:#000000; stroke-linecap:butt; stroke-linejoin:round; stroke-width:2; stroke-opacity:0.1; fill:none" points="
  260.441,1474.16 260.441,47.2441 
  "/>
<polyline clip-path="url(#clip272)" style="stroke:#000000; stroke-linecap:butt; stroke-linejoin:round; stroke-width:2; stroke-opacity:0.1; fill:none" points="
  1229.05,1474.16 1229.05,47.2441 
  "/>
<polyline clip-path="url(#clip272)" style="stroke:#000000; stroke-linecap:butt; stroke-linejoin:round; stroke-width:2; stroke-opacity:0.1; fill:none" points="
  2197.66,1474.16 2197.66,47.2441 
  "/>
<polyline clip-path="url(#clip270)" style="stroke:#000000; stroke-linecap:butt; stroke-linejoin:round; stroke-width:4; stroke-opacity:1; fill:none" points="
  189.233,1474.16 2352.76,1474.16 
  "/>
<polyline clip-path="url(#clip270)" style="stroke:#000000; stroke-linecap:butt; stroke-linejoin:round; stroke-width:4; stroke-opacity:1; fill:none" points="
  260.441,1474.16 260.441,1455.27 
  "/>
<polyline clip-path="url(#clip270)" style="stroke:#000000; stroke-linecap:butt; stroke-linejoin:round; stroke-width:4; stroke-opacity:1; fill:none" points="
  1229.05,1474.16 1229.05,1455.27 
  "/>
<polyline clip-path="url(#clip270)" style="stroke:#000000; stroke-linecap:butt; stroke-linejoin:round; stroke-width:4; stroke-opacity:1; fill:none" points="
  2197.66,1474.16 2197.66,1455.27 
  "/>
<path clip-path="url(#clip270)" d="M210.321 1552.44 L217.96 1552.44 L217.96 1526.07 L209.65 1527.74 L209.65 1523.48 L217.914 1521.81 L222.59 1521.81 L222.59 1552.44 L230.229 1552.44 L230.229 1556.37 L210.321 1556.37 L210.321 1552.44 Z" fill="#000000" fill-rule="evenodd" fill-opacity="1" /><path clip-path="url(#clip270)" d="M249.673 1524.89 Q246.062 1524.89 244.233 1528.46 Q242.428 1532 242.428 1539.13 Q242.428 1546.23 244.233 1549.8 Q246.062 1553.34 249.673 1553.34 Q253.307 1553.34 255.113 1549.8 Q256.941 1546.23 256.941 1539.13 Q256.941 1532 255.113 1528.46 Q253.307 1524.89 249.673 1524.89 M249.673 1521.19 Q255.483 1521.19 258.539 1525.79 Q261.617 1530.38 261.617 1539.13 Q261.617 1547.85 258.539 1552.46 Q255.483 1557.04 249.673 1557.04 Q243.863 1557.04 240.784 1552.46 Q237.728 1547.85 237.728 1539.13 Q237.728 1530.38 240.784 1525.79 Q243.863 1521.19 249.673 1521.19 Z" fill="#000000" fill-rule="evenodd" fill-opacity="1" /><path clip-path="url(#clip270)" d="M261.617 1515.29 L285.729 1515.29 L285.729 1518.49 L261.617 1518.49 L261.617 1515.29 Z" fill="#000000" fill-rule="evenodd" fill-opacity="1" /><path clip-path="url(#clip270)" d="M305.439 1513.82 Q308.166 1514.4 309.69 1516.25 Q311.232 1518.09 311.232 1520.8 Q311.232 1524.96 308.373 1527.23 Q305.515 1529.51 300.248 1529.51 Q298.48 1529.51 296.6 1529.15 Q294.738 1528.81 292.744 1528.12 L292.744 1524.45 Q294.324 1525.37 296.205 1525.84 Q298.085 1526.31 300.136 1526.31 Q303.709 1526.31 305.571 1524.9 Q307.452 1523.49 307.452 1520.8 Q307.452 1518.32 305.703 1516.92 Q303.972 1515.51 300.869 1515.51 L297.596 1515.51 L297.596 1512.39 L301.02 1512.39 Q303.822 1512.39 305.308 1511.28 Q306.793 1510.15 306.793 1508.05 Q306.793 1505.88 305.251 1504.74 Q303.728 1503.57 300.869 1503.57 Q299.308 1503.57 297.521 1503.91 Q295.735 1504.25 293.59 1504.96 L293.59 1501.58 Q295.753 1500.98 297.634 1500.67 Q299.534 1500.37 301.208 1500.37 Q305.533 1500.37 308.054 1502.35 Q310.574 1504.3 310.574 1507.65 Q310.574 1509.98 309.238 1511.6 Q307.903 1513.2 305.439 1513.82 Z" fill="#000000" fill-rule="evenodd" fill-opacity="1" /><path clip-path="url(#clip270)" d="M1179.31 1552.44 L1186.95 1552.44 L1186.95 1526.07 L1178.64 1527.74 L1178.64 1523.48 L1186.91 1521.81 L1191.58 1521.81 L1191.58 1552.44 L1199.22 1552.44 L1199.22 1556.37 L1179.31 1556.37 L1179.31 1552.44 Z" fill="#000000" fill-rule="evenodd" fill-opacity="1" /><path clip-path="url(#clip270)" d="M1218.67 1524.89 Q1215.05 1524.89 1213.23 1528.46 Q1211.42 1532 1211.42 1539.13 Q1211.42 1546.23 1213.23 1549.8 Q1215.05 1553.34 1218.67 1553.34 Q1222.3 1553.34 1224.11 1549.8 Q1225.93 1546.23 1225.93 1539.13 Q1225.93 1532 1224.11 1528.46 Q1222.3 1524.89 1218.67 1524.89 M1218.67 1521.19 Q1224.48 1521.19 1227.53 1525.79 Q1230.61 1530.38 1230.61 1539.13 Q1230.61 1547.85 1227.53 1552.46 Q1224.48 1557.04 1218.67 1557.04 Q1212.86 1557.04 1209.78 1552.46 Q1206.72 1547.85 1206.72 1539.13 Q1206.72 1530.38 1209.78 1525.79 Q1212.86 1521.19 1218.67 1521.19 Z" fill="#000000" fill-rule="evenodd" fill-opacity="1" /><path clip-path="url(#clip270)" d="M1230.61 1515.29 L1254.72 1515.29 L1254.72 1518.49 L1230.61 1518.49 L1230.61 1515.29 Z" fill="#000000" fill-rule="evenodd" fill-opacity="1" /><path clip-path="url(#clip270)" d="M1266.19 1525.76 L1279.45 1525.76 L1279.45 1528.96 L1261.62 1528.96 L1261.62 1525.76 Q1263.79 1523.53 1267.51 1519.76 Q1271.25 1515.98 1272.21 1514.89 Q1274.04 1512.84 1274.75 1511.43 Q1275.49 1510 1275.49 1508.63 Q1275.49 1506.39 1273.91 1504.98 Q1272.34 1503.57 1269.82 1503.57 Q1268.04 1503.57 1266.04 1504.19 Q1264.07 1504.81 1261.81 1506.07 L1261.81 1502.24 Q1264.11 1501.31 1266.1 1500.84 Q1268.09 1500.37 1269.75 1500.37 Q1274.11 1500.37 1276.71 1502.56 Q1279.3 1504.74 1279.3 1508.39 Q1279.3 1510.12 1278.65 1511.68 Q1278.01 1513.22 1276.29 1515.33 Q1275.82 1515.87 1273.3 1518.49 Q1270.78 1521.08 1266.19 1525.76 Z" fill="#000000" fill-rule="evenodd" fill-opacity="1" /><path clip-path="url(#clip270)" d="M2147.77 1552.44 L2155.41 1552.44 L2155.41 1526.07 L2147.1 1527.74 L2147.1 1523.48 L2155.36 1521.81 L2160.04 1521.81 L2160.04 1552.44 L2167.68 1552.44 L2167.68 1556.37 L2147.77 1556.37 L2147.77 1552.44 Z" fill="#000000" fill-rule="evenodd" fill-opacity="1" /><path clip-path="url(#clip270)" d="M2187.12 1524.89 Q2183.51 1524.89 2181.68 1528.46 Q2179.88 1532 2179.88 1539.13 Q2179.88 1546.23 2181.68 1549.8 Q2183.51 1553.34 2187.12 1553.34 Q2190.76 1553.34 2192.56 1549.8 Q2194.39 1546.23 2194.39 1539.13 Q2194.39 1532 2192.56 1528.46 Q2190.76 1524.89 2187.12 1524.89 M2187.12 1521.19 Q2192.93 1521.19 2195.99 1525.79 Q2199.07 1530.38 2199.07 1539.13 Q2199.07 1547.85 2195.99 1552.46 Q2192.93 1557.04 2187.12 1557.04 Q2181.31 1557.04 2178.23 1552.46 Q2175.18 1547.85 2175.18 1539.13 Q2175.18 1530.38 2178.23 1525.79 Q2181.31 1521.19 2187.12 1521.19 Z" fill="#000000" fill-rule="evenodd" fill-opacity="1" /><path clip-path="url(#clip270)" d="M2199.07 1515.29 L2223.18 1515.29 L2223.18 1518.49 L2199.07 1518.49 L2199.07 1515.29 Z" fill="#000000" fill-rule="evenodd" fill-opacity="1" /><path clip-path="url(#clip270)" d="M2232.04 1525.76 L2238.24 1525.76 L2238.24 1504.34 L2231.49 1505.7 L2231.49 1502.24 L2238.21 1500.88 L2242.01 1500.88 L2242.01 1525.76 L2248.21 1525.76 L2248.21 1528.96 L2232.04 1528.96 L2232.04 1525.76 Z" fill="#000000" fill-rule="evenodd" fill-opacity="1" /><polyline clip-path="url(#clip272)" style="stroke:#000000; stroke-linecap:butt; stroke-linejoin:round; stroke-width:2; stroke-opacity:0.1; fill:none" points="
  189.233,1428.57 2352.76,1428.57 
  "/>
<polyline clip-path="url(#clip272)" style="stroke:#000000; stroke-linecap:butt; stroke-linejoin:round; stroke-width:2; stroke-opacity:0.1; fill:none" points="
  189.233,670.325 2352.76,670.325 
  "/>
<polyline clip-path="url(#clip270)" style="stroke:#000000; stroke-linecap:butt; stroke-linejoin:round; stroke-width:4; stroke-opacity:1; fill:none" points="
  189.233,1474.16 189.233,47.2441 
  "/>
<polyline clip-path="url(#clip270)" style="stroke:#000000; stroke-linecap:butt; stroke-linejoin:round; stroke-width:4; stroke-opacity:1; fill:none" points="
  189.233,1428.57 208.13,1428.57 
  "/>
<polyline clip-path="url(#clip270)" style="stroke:#000000; stroke-linecap:butt; stroke-linejoin:round; stroke-width:4; stroke-opacity:1; fill:none" points="
  189.233,670.325 208.13,670.325 
  "/>
<path clip-path="url(#clip270)" d="M51.6634 1448.37 L59.3023 1448.37 L59.3023 1422 L50.9921 1423.67 L50.9921 1419.41 L59.256 1417.74 L63.9319 1417.74 L63.9319 1448.37 L71.5707 1448.37 L71.5707 1452.3 L51.6634 1452.3 L51.6634 1448.37 Z" fill="#000000" fill-rule="evenodd" fill-opacity="1" /><path clip-path="url(#clip270)" d="M91.0151 1420.82 Q87.404 1420.82 85.5753 1424.38 Q83.7697 1427.93 83.7697 1435.06 Q83.7697 1442.16 85.5753 1445.73 Q87.404 1449.27 91.0151 1449.27 Q94.6493 1449.27 96.4548 1445.73 Q98.2835 1442.16 98.2835 1435.06 Q98.2835 1427.93 96.4548 1424.38 Q94.6493 1420.82 91.0151 1420.82 M91.0151 1417.12 Q96.8252 1417.12 99.8808 1421.72 Q102.959 1426.31 102.959 1435.06 Q102.959 1443.78 99.8808 1448.39 Q96.8252 1452.97 91.0151 1452.97 Q85.2049 1452.97 82.1262 1448.39 Q79.0707 1443.78 79.0707 1435.06 Q79.0707 1426.31 82.1262 1421.72 Q85.2049 1417.12 91.0151 1417.12 Z" fill="#000000" fill-rule="evenodd" fill-opacity="1" /><path clip-path="url(#clip270)" d="M102.959 1411.22 L127.071 1411.22 L127.071 1414.41 L102.959 1414.41 L102.959 1411.22 Z" fill="#000000" fill-rule="evenodd" fill-opacity="1" /><path clip-path="url(#clip270)" d="M143.866 1409.34 Q141.308 1409.34 139.804 1411.09 Q138.318 1412.83 138.318 1415.88 Q138.318 1418.91 139.804 1420.68 Q141.308 1422.43 143.866 1422.43 Q146.424 1422.43 147.91 1420.68 Q149.415 1418.91 149.415 1415.88 Q149.415 1412.83 147.91 1411.09 Q146.424 1409.34 143.866 1409.34 M151.408 1397.43 L151.408 1400.89 Q149.979 1400.21 148.512 1399.86 Q147.064 1399.5 145.634 1399.5 Q141.873 1399.5 139.879 1402.04 Q137.904 1404.58 137.622 1409.71 Q138.732 1408.08 140.406 1407.21 Q142.08 1406.33 144.092 1406.33 Q148.324 1406.33 150.769 1408.9 Q153.233 1411.46 153.233 1415.88 Q153.233 1420.21 150.675 1422.82 Q148.117 1425.44 143.866 1425.44 Q138.995 1425.44 136.418 1421.71 Q133.842 1417.97 133.842 1410.88 Q133.842 1404.22 137.002 1400.27 Q140.161 1396.3 145.484 1396.3 Q146.913 1396.3 148.361 1396.59 Q149.828 1396.87 151.408 1397.43 Z" fill="#000000" fill-rule="evenodd" fill-opacity="1" /><path clip-path="url(#clip270)" d="M52.3217 690.118 L59.9605 690.118 L59.9605 663.752 L51.6504 665.419 L51.6504 661.16 L59.9142 659.493 L64.5901 659.493 L64.5901 690.118 L72.229 690.118 L72.229 694.053 L52.3217 694.053 L52.3217 690.118 Z" fill="#000000" fill-rule="evenodd" fill-opacity="1" /><path clip-path="url(#clip270)" d="M91.6733 662.572 Q88.0622 662.572 86.2335 666.136 Q84.428 669.678 84.428 676.808 Q84.428 683.914 86.2335 687.479 Q88.0622 691.02 91.6733 691.02 Q95.3076 691.02 97.1131 687.479 Q98.9418 683.914 98.9418 676.808 Q98.9418 669.678 97.1131 666.136 Q95.3076 662.572 91.6733 662.572 M91.6733 658.868 Q97.4835 658.868 100.539 663.474 Q103.618 668.058 103.618 676.808 Q103.618 685.534 100.539 690.141 Q97.4835 694.724 91.6733 694.724 Q85.8632 694.724 82.7845 690.141 Q79.729 685.534 79.729 676.808 Q79.729 668.058 82.7845 663.474 Q85.8632 658.868 91.6733 658.868 Z" fill="#000000" fill-rule="evenodd" fill-opacity="1" /><path clip-path="url(#clip270)" d="M103.618 652.969 L127.729 652.969 L127.729 656.167 L103.618 656.167 L103.618 652.969 Z" fill="#000000" fill-rule="evenodd" fill-opacity="1" /><path clip-path="url(#clip270)" d="M147.44 651.502 Q150.167 652.085 151.69 653.928 Q153.233 655.772 153.233 658.48 Q153.233 662.636 150.374 664.912 Q147.515 667.188 142.249 667.188 Q140.481 667.188 138.6 666.831 Q136.738 666.492 134.745 665.796 L134.745 662.129 Q136.324 663.05 138.205 663.52 Q140.086 663.991 142.136 663.991 Q145.71 663.991 147.571 662.58 Q149.452 661.169 149.452 658.48 Q149.452 655.997 147.703 654.606 Q145.973 653.195 142.87 653.195 L139.597 653.195 L139.597 650.073 L143.02 650.073 Q145.822 650.073 147.308 648.963 Q148.794 647.835 148.794 645.728 Q148.794 643.565 147.252 642.418 Q145.728 641.252 142.87 641.252 Q141.308 641.252 139.522 641.591 Q137.735 641.929 135.591 642.644 L135.591 639.258 Q137.754 638.657 139.635 638.356 Q141.534 638.055 143.208 638.055 Q147.534 638.055 150.054 640.029 Q152.574 641.986 152.574 645.333 Q152.574 647.665 151.239 649.283 Q149.904 650.882 147.44 651.502 Z" fill="#000000" fill-rule="evenodd" fill-opacity="1" /><polyline clip-path="url(#clip272)" style="stroke:#009af9; stroke-linecap:butt; stroke-linejoin:round; stroke-width:4; stroke-opacity:1; fill:none" points="
  2291.52,87.6286 1999.94,238.377 1708.36,394.259 1416.78,549.136 1125.2,702.848 833.624,855.834 542.044,1008.42 250.464,1160.8 
  "/>
<circle clip-path="url(#clip272)" cx="2291.52" cy="87.6286" r="14" fill="#009af9" fill-rule="evenodd" fill-opacity="1" stroke="#000000" stroke-opacity="1" stroke-width="3.2"/>
<circle clip-path="url(#clip272)" cx="1999.94" cy="238.377" r="14" fill="#009af9" fill-rule="evenodd" fill-opacity="1" stroke="#000000" stroke-opacity="1" stroke-width="3.2"/>
<circle clip-path="url(#clip272)" cx="1708.36" cy="394.259" r="14" fill="#009af9" fill-rule="evenodd" fill-opacity="1" stroke="#000000" stroke-opacity="1" stroke-width="3.2"/>
<circle clip-path="url(#clip272)" cx="1416.78" cy="549.136" r="14" fill="#009af9" fill-rule="evenodd" fill-opacity="1" stroke="#000000" stroke-opacity="1" stroke-width="3.2"/>
<circle clip-path="url(#clip272)" cx="1125.2" cy="702.848" r="14" fill="#009af9" fill-rule="evenodd" fill-opacity="1" stroke="#000000" stroke-opacity="1" stroke-width="3.2"/>
<circle clip-path="url(#clip272)" cx="833.624" cy="855.834" r="14" fill="#009af9" fill-rule="evenodd" fill-opacity="1" stroke="#000000" stroke-opacity="1" stroke-width="3.2"/>
<circle clip-path="url(#clip272)" cx="542.044" cy="1008.42" r="14" fill="#009af9" fill-rule="evenodd" fill-opacity="1" stroke="#000000" stroke-opacity="1" stroke-width="3.2"/>
<circle clip-path="url(#clip272)" cx="250.464" cy="1160.8" r="14" fill="#009af9" fill-rule="evenodd" fill-opacity="1" stroke="#000000" stroke-opacity="1" stroke-width="3.2"/>
<polyline clip-path="url(#clip272)" style="stroke:#e26f46; stroke-linecap:butt; stroke-linejoin:round; stroke-width:4; stroke-opacity:1; fill:none" points="
  2291.52,231.772 1999.94,388.793 1708.36,546.018 1416.78,701.207 1125.2,854.994 833.624,1008 542.044,1160.59 250.464,1312.97 
  "/>
<circle clip-path="url(#clip272)" cx="2291.52" cy="231.772" r="14" fill="#e26f46" fill-rule="evenodd" fill-opacity="1" stroke="#000000" stroke-opacity="1" stroke-width="3.2"/>
<circle clip-path="url(#clip272)" cx="1999.94" cy="388.793" r="14" fill="#e26f46" fill-rule="evenodd" fill-opacity="1" stroke="#000000" stroke-opacity="1" stroke-width="3.2"/>
<circle clip-path="url(#clip272)" cx="1708.36" cy="546.018" r="14" fill="#e26f46" fill-rule="evenodd" fill-opacity="1" stroke="#000000" stroke-opacity="1" stroke-width="3.2"/>
<circle clip-path="url(#clip272)" cx="1416.78" cy="701.207" r="14" fill="#e26f46" fill-rule="evenodd" fill-opacity="1" stroke="#000000" stroke-opacity="1" stroke-width="3.2"/>
<circle clip-path="url(#clip272)" cx="1125.2" cy="854.994" r="14" fill="#e26f46" fill-rule="evenodd" fill-opacity="1" stroke="#000000" stroke-opacity="1" stroke-width="3.2"/>
<circle clip-path="url(#clip272)" cx="833.624" cy="1008" r="14" fill="#e26f46" fill-rule="evenodd" fill-opacity="1" stroke="#000000" stroke-opacity="1" stroke-width="3.2"/>
<circle clip-path="url(#clip272)" cx="542.044" cy="1160.59" r="14" fill="#e26f46" fill-rule="evenodd" fill-opacity="1" stroke="#000000" stroke-opacity="1" stroke-width="3.2"/>
<circle clip-path="url(#clip272)" cx="250.464" cy="1312.97" r="14" fill="#e26f46" fill-rule="evenodd" fill-opacity="1" stroke="#000000" stroke-opacity="1" stroke-width="3.2"/>
<polyline clip-path="url(#clip272)" style="stroke:#3da44d; stroke-linecap:butt; stroke-linejoin:round; stroke-width:4; stroke-opacity:1; fill:none" points="
  2291.52,368.588 1999.94,520.758 1708.36,672.929 1416.78,825.099 1125.2,977.269 833.624,1129.44 542.044,1281.61 250.464,1433.78 
  "/>
<path clip-path="url(#clip270)" d="
M1908.56 302.168 L2280.64 302.168 L2280.64 94.8081 L1908.56 94.8081  Z
  " fill="#ffffff" fill-rule="evenodd" fill-opacity="1"/>
<polyline clip-path="url(#clip270)" style="stroke:#000000; stroke-linecap:butt; stroke-linejoin:round; stroke-width:4; stroke-opacity:1; fill:none" points="
  1908.56,302.168 2280.64,302.168 2280.64,94.8081 1908.56,94.8081 1908.56,302.168 
  "/>
<polyline clip-path="url(#clip270)" style="stroke:#009af9; stroke-linecap:butt; stroke-linejoin:round; stroke-width:4; stroke-opacity:1; fill:none" points="
  1932.6,146.648 2076.83,146.648 
  "/>
<circle clip-path="url(#clip270)" cx="2004.71" cy="146.648" r="23" fill="#009af9" fill-rule="evenodd" fill-opacity="1" stroke="#000000" stroke-opacity="1" stroke-width="5.12"/>
<path clip-path="url(#clip270)" d="M2119.78 141.937 L2119.78 127.91 L2124.04 127.91 L2124.04 163.928 L2119.78 163.928 L2119.78 160.039 Q2118.44 162.354 2116.38 163.488 Q2114.34 164.599 2111.47 164.599 Q2106.77 164.599 2103.81 160.849 Q2100.87 157.099 2100.87 150.988 Q2100.87 144.877 2103.81 141.127 Q2106.77 137.377 2111.47 137.377 Q2114.34 137.377 2116.38 138.512 Q2118.44 139.623 2119.78 141.937 M2105.27 150.988 Q2105.27 155.687 2107.19 158.373 Q2109.13 161.035 2112.51 161.035 Q2115.89 161.035 2117.84 158.373 Q2119.78 155.687 2119.78 150.988 Q2119.78 146.289 2117.84 143.627 Q2115.89 140.942 2112.51 140.942 Q2109.13 140.942 2107.19 143.627 Q2105.27 146.289 2105.27 150.988 Z" fill="#000000" fill-rule="evenodd" fill-opacity="1" /><path clip-path="url(#clip270)" d="M2132.82 138.002 L2137.07 138.002 L2137.07 163.928 L2132.82 163.928 L2132.82 138.002 M2132.82 127.91 L2137.07 127.91 L2137.07 133.303 L2132.82 133.303 L2132.82 127.91 Z" fill="#000000" fill-rule="evenodd" fill-opacity="1" /><path clip-path="url(#clip270)" d="M2159.11 127.91 L2159.11 131.451 L2155.04 131.451 Q2152.75 131.451 2151.84 132.377 Q2150.96 133.303 2150.96 135.711 L2150.96 138.002 L2157.98 138.002 L2157.98 141.312 L2150.96 141.312 L2150.96 163.928 L2146.68 163.928 L2146.68 141.312 L2142.61 141.312 L2142.61 138.002 L2146.68 138.002 L2146.68 136.197 Q2146.68 131.868 2148.69 129.901 Q2150.71 127.91 2155.08 127.91 L2159.11 127.91 Z" fill="#000000" fill-rule="evenodd" fill-opacity="1" /><path clip-path="url(#clip270)" d="M2175.8 127.91 L2175.8 131.451 L2171.73 131.451 Q2169.44 131.451 2168.53 132.377 Q2167.65 133.303 2167.65 135.711 L2167.65 138.002 L2174.67 138.002 L2174.67 141.312 L2167.65 141.312 L2167.65 163.928 L2163.37 163.928 L2163.37 141.312 L2159.3 141.312 L2159.3 138.002 L2163.37 138.002 L2163.37 136.197 Q2163.37 131.868 2165.38 129.901 Q2167.4 127.91 2171.77 127.91 L2175.8 127.91 Z" fill="#000000" fill-rule="evenodd" fill-opacity="1" /><path clip-path="url(#clip270)" d="M2184 159.993 L2200.31 159.993 L2200.31 163.928 L2178.37 163.928 L2178.37 159.993 Q2181.03 157.238 2185.62 152.609 Q2190.22 147.956 2191.4 146.613 Q2193.65 144.09 2194.53 142.354 Q2195.43 140.595 2195.43 138.905 Q2195.43 136.15 2193.49 134.414 Q2191.57 132.678 2188.46 132.678 Q2186.26 132.678 2183.81 133.442 Q2181.38 134.206 2178.6 135.757 L2178.6 131.035 Q2181.43 129.901 2183.88 129.322 Q2186.33 128.743 2188.37 128.743 Q2193.74 128.743 2196.94 131.428 Q2200.13 134.113 2200.13 138.604 Q2200.13 140.734 2199.32 142.655 Q2198.53 144.553 2196.43 147.146 Q2195.85 147.817 2192.75 151.035 Q2189.64 154.229 2184 159.993 Z" fill="#000000" fill-rule="evenodd" fill-opacity="1" /><path clip-path="url(#clip270)" d="M2221.31 150.896 Q2216.15 150.896 2214.16 152.076 Q2212.17 153.257 2212.17 156.104 Q2212.17 158.373 2213.65 159.715 Q2215.15 161.035 2217.72 161.035 Q2221.26 161.035 2223.39 158.535 Q2225.55 156.011 2225.55 151.845 L2225.55 150.896 L2221.31 150.896 M2229.81 149.137 L2229.81 163.928 L2225.55 163.928 L2225.55 159.993 Q2224.09 162.354 2221.91 163.488 Q2219.74 164.599 2216.59 164.599 Q2212.61 164.599 2210.25 162.377 Q2207.91 160.132 2207.91 156.382 Q2207.91 152.007 2210.82 149.785 Q2213.76 147.562 2219.57 147.562 L2225.55 147.562 L2225.55 147.146 Q2225.55 144.206 2223.6 142.609 Q2221.68 140.988 2218.19 140.988 Q2215.96 140.988 2213.86 141.521 Q2211.75 142.053 2209.81 143.118 L2209.81 139.183 Q2212.14 138.28 2214.34 137.84 Q2216.54 137.377 2218.63 137.377 Q2224.25 137.377 2227.03 140.294 Q2229.81 143.211 2229.81 149.137 Z" fill="#000000" fill-rule="evenodd" fill-opacity="1" /><polyline clip-path="url(#clip270)" style="stroke:#e26f46; stroke-linecap:butt; stroke-linejoin:round; stroke-width:4; stroke-opacity:1; fill:none" points="
  1932.6,198.488 2076.83,198.488 
  "/>
<circle clip-path="url(#clip270)" cx="2004.71" cy="198.488" r="23" fill="#e26f46" fill-rule="evenodd" fill-opacity="1" stroke="#000000" stroke-opacity="1" stroke-width="5.12"/>
<path clip-path="url(#clip270)" d="M2119.78 193.777 L2119.78 179.75 L2124.04 179.75 L2124.04 215.768 L2119.78 215.768 L2119.78 211.879 Q2118.44 214.194 2116.38 215.328 Q2114.34 216.439 2111.47 216.439 Q2106.77 216.439 2103.81 212.689 Q2100.87 208.939 2100.87 202.828 Q2100.87 196.717 2103.81 192.967 Q2106.77 189.217 2111.47 189.217 Q2114.34 189.217 2116.38 190.352 Q2118.44 191.463 2119.78 193.777 M2105.27 202.828 Q2105.27 207.527 2107.19 210.213 Q2109.13 212.875 2112.51 212.875 Q2115.89 212.875 2117.84 210.213 Q2119.78 207.527 2119.78 202.828 Q2119.78 198.129 2117.84 195.467 Q2115.89 192.782 2112.51 192.782 Q2109.13 192.782 2107.19 195.467 Q2105.27 198.129 2105.27 202.828 Z" fill="#000000" fill-rule="evenodd" fill-opacity="1" /><path clip-path="url(#clip270)" d="M2132.82 189.842 L2137.07 189.842 L2137.07 215.768 L2132.82 215.768 L2132.82 189.842 M2132.82 179.75 L2137.07 179.75 L2137.07 185.143 L2132.82 185.143 L2132.82 179.75 Z" fill="#000000" fill-rule="evenodd" fill-opacity="1" /><path clip-path="url(#clip270)" d="M2159.11 179.75 L2159.11 183.291 L2155.04 183.291 Q2152.75 183.291 2151.84 184.217 Q2150.96 185.143 2150.96 187.551 L2150.96 189.842 L2157.98 189.842 L2157.98 193.152 L2150.96 193.152 L2150.96 215.768 L2146.68 215.768 L2146.68 193.152 L2142.61 193.152 L2142.61 189.842 L2146.68 189.842 L2146.68 188.037 Q2146.68 183.708 2148.69 181.741 Q2150.71 179.75 2155.08 179.75 L2159.11 179.75 Z" fill="#000000" fill-rule="evenodd" fill-opacity="1" /><path clip-path="url(#clip270)" d="M2175.8 179.75 L2175.8 183.291 L2171.73 183.291 Q2169.44 183.291 2168.53 184.217 Q2167.65 185.143 2167.65 187.551 L2167.65 189.842 L2174.67 189.842 L2174.67 193.152 L2167.65 193.152 L2167.65 215.768 L2163.37 215.768 L2163.37 193.152 L2159.3 193.152 L2159.3 189.842 L2163.37 189.842 L2163.37 188.037 Q2163.37 183.708 2165.38 181.741 Q2167.4 179.75 2171.77 179.75 L2175.8 179.75 Z" fill="#000000" fill-rule="evenodd" fill-opacity="1" /><path clip-path="url(#clip270)" d="M2184 211.833 L2200.31 211.833 L2200.31 215.768 L2178.37 215.768 L2178.37 211.833 Q2181.03 209.078 2185.62 204.449 Q2190.22 199.796 2191.4 198.453 Q2193.65 195.93 2194.53 194.194 Q2195.43 192.435 2195.43 190.745 Q2195.43 187.99 2193.49 186.254 Q2191.57 184.518 2188.46 184.518 Q2186.26 184.518 2183.81 185.282 Q2181.38 186.046 2178.6 187.597 L2178.6 182.875 Q2181.43 181.741 2183.88 181.162 Q2186.33 180.583 2188.37 180.583 Q2193.74 180.583 2196.94 183.268 Q2200.13 185.953 2200.13 190.444 Q2200.13 192.574 2199.32 194.495 Q2198.53 196.393 2196.43 198.986 Q2195.85 199.657 2192.75 202.875 Q2189.64 206.069 2184 211.833 Z" fill="#000000" fill-rule="evenodd" fill-opacity="1" /><path clip-path="url(#clip270)" d="M2228.14 202.828 Q2228.14 198.129 2226.19 195.467 Q2224.27 192.782 2220.89 192.782 Q2217.51 192.782 2215.57 195.467 Q2213.65 198.129 2213.65 202.828 Q2213.65 207.527 2215.57 210.213 Q2217.51 212.875 2220.89 212.875 Q2224.27 212.875 2226.19 210.213 Q2228.14 207.527 2228.14 202.828 M2213.65 193.777 Q2214.99 191.463 2217.03 190.352 Q2219.09 189.217 2221.94 189.217 Q2226.66 189.217 2229.6 192.967 Q2232.56 196.717 2232.56 202.828 Q2232.56 208.939 2229.6 212.689 Q2226.66 216.439 2221.94 216.439 Q2219.09 216.439 2217.03 215.328 Q2214.99 214.194 2213.65 211.879 L2213.65 215.768 L2209.37 215.768 L2209.37 179.75 L2213.65 179.75 L2213.65 193.777 Z" fill="#000000" fill-rule="evenodd" fill-opacity="1" /><polyline clip-path="url(#clip270)" style="stroke:#3da44d; stroke-linecap:butt; stroke-linejoin:round; stroke-width:4; stroke-opacity:1; fill:none" points="
  1932.6,250.328 2076.83,250.328 
  "/>
<path clip-path="url(#clip270)" d="M2114.71 270.016 Q2112.91 274.645 2111.2 276.057 Q2109.48 277.469 2106.61 277.469 L2103.21 277.469 L2103.21 273.904 L2105.71 273.904 Q2107.47 273.904 2108.44 273.071 Q2109.41 272.238 2110.59 269.136 L2111.36 267.191 L2100.87 241.682 L2105.38 241.682 L2113.49 261.96 L2121.59 241.682 L2126.1 241.682 L2114.71 270.016 Z" fill="#000000" fill-rule="evenodd" fill-opacity="1" /><path clip-path="url(#clip270)" d="M2146.75 248.974 Q2150.11 249.692 2151.98 251.96 Q2153.88 254.229 2153.88 257.562 Q2153.88 262.678 2150.36 265.478 Q2146.84 268.279 2140.36 268.279 Q2138.19 268.279 2135.87 267.84 Q2133.58 267.423 2131.13 266.566 L2131.13 262.053 Q2133.07 263.187 2135.38 263.766 Q2137.7 264.344 2140.22 264.344 Q2144.62 264.344 2146.91 262.608 Q2149.23 260.872 2149.23 257.562 Q2149.23 254.506 2147.07 252.793 Q2144.94 251.057 2141.13 251.057 L2137.1 251.057 L2137.1 247.215 L2141.31 247.215 Q2144.76 247.215 2146.59 245.849 Q2148.42 244.46 2148.42 241.868 Q2148.42 239.205 2146.52 237.793 Q2144.64 236.358 2141.13 236.358 Q2139.2 236.358 2137.01 236.775 Q2134.81 237.192 2132.17 238.071 L2132.17 233.905 Q2134.83 233.164 2137.14 232.793 Q2139.48 232.423 2141.54 232.423 Q2146.87 232.423 2149.97 234.854 Q2153.07 237.261 2153.07 241.381 Q2153.07 244.252 2151.43 246.242 Q2149.78 248.21 2146.75 248.974 Z" fill="#000000" fill-rule="evenodd" fill-opacity="1" /></svg>
