<?xml version="1.0" encoding="utf-8"?>
<svg xmlns="http://www.w3.org/2000/svg" xmlns:xlink="http://www.w3.org/1999/xlink" width="600" height="400" viewBox="0 0 2400 1600">
<defs>
  <clipPath id="clip770">
    <rect x="0" y="0" width="2400" height="1600"/>
  </clipPath>
</defs>
<path clip-path="url(#clip770)" d="
M0 1600 L2400 1600 L2400 0 L0 0  Z
  " fill="#ffffff" fill-rule="evenodd" fill-opacity="1"/>
<defs>
  <clipPath id="clip771">
    <rect x="480" y="0" width="1681" height="1600"/>
  </clipPath>
</defs>
<path clip-path="url(#clip770)" d="
M194.422 1486.45 L2352.76 1486.45 L2352.76 47.2441 L194.422 47.2441  Z
  " fill="#ffffff" fill-rule="evenodd" fill-opacity="1"/>
<defs>
  <clipPath id="clip772">
    <rect x="194" y="47" width="2159" height="1440"/>
  </clipPath>
</defs>
<polyline clip-path="url(#clip772)" style="stroke:#000000; stroke-linecap:butt; stroke-linejoin:round; stroke-width:2; stroke-opacity:0.1; fill:none" points="
  255.507,1486.45 255.507,47.2441 
  "/>
<polyline clip-path="url(#clip772)" style="stroke:#000000; stroke-linecap:butt; stroke-linejoin:round; stroke-width:2; stroke-opacity:0.1; fill:none" points="
  594.868,1486.45 594.868,47.2441 
  "/>
<polyline clip-path="url(#clip772)" style="stroke:#000000; stroke-linecap:butt; stroke-linejoin:round; stroke-width:2; stroke-opacity:0.1; fill:none" points="
  934.228,1486.45 934.228,47.2441 
  "/>
<polyline clip-path="url(#clip772)" style="stroke:#000000; stroke-linecap:butt; stroke-linejoin:round; stroke-width:2; stroke-opacity:0.1; fill:none" points="
  1273.59,1486.45 1273.59,47.2441 
  "/>
<polyline clip-path="url(#clip772)" style="stroke:#000000; stroke-linecap:butt; stroke-linejoin:round; stroke-width:2; stroke-opacity:0.1; fill:none" points="
  1612.95,1486.45 1612.95,47.2441 
  "/>
<polyline clip-path="url(#clip772)" style="stroke:#000000; stroke-linecap:butt; stroke-linejoin:round; stroke-width:2; stroke-opacity:0.1; fill:none" points="
  1952.31,1486.45 1952.31,47.2441 
  "/>
<polyline clip-path="url(#clip772)" style="stroke:#000000; stroke-linecap:butt; stroke-linejoin:round; stroke-width:2; stroke-opacity:0.1; fill:none" points="
  2291.67,1486.45 2291.67,47.2441 
  "/>
<polyline clip-path="url(#clip770)" style="stroke:#000000; stroke-linecap:butt; stroke-linejoin:round; stroke-width:4; stroke-opacity:1; fill:none" points="
  194.422,1486.45 2352.76,1486.45 
  "/>
<polyline clip-path="url(#clip770)" style="stroke:#000000; stroke-linecap:butt; stroke-linejoin:round; stroke-width:4; stroke-opacity:1; fill:none" points="
  255.507,1486.45 255.507,1467.55 
  "/>
<polyline clip-path="url(#clip770)" style="stroke:#000000; stroke-linecap:butt; stroke-linejoin:round; stroke-width:4; stroke-opacity:1; fill:none" points="
  594.868,1486.45 594.868,1467.55 
  "/>
<polyline clip-path="url(#clip770)" style="stroke:#000000; stroke-linecap:butt; stroke-linejoin:round; stroke-width:4; stroke-opacity:1; fill:none" points="
  934.228,1486.45 934.228,1467.55 
  "/>
<polyline clip-path="url(#clip770)" style="stroke:#000000; stroke-linecap:butt; stroke-linejoin:round; stroke-width:4; stroke-opacity:1; fill:none" points="
  1273.59,1486.45 1273.59,1467.55 
  "/>
<polyline clip-path="url(#clip770)" style="stroke:#000000; stroke-linecap:butt; stroke-linejoin:round; stroke-width:4; stroke-opacity:1; fill:none" points="
  1612.95,1486.45 1612.95,1467.55 
  "/>
<polyline clip-path="url(#clip770)" style="stroke:#000000; stroke-linecap:butt; stroke-linejoin:round; stroke-width:4; stroke-opacity:1; fill:none" points="
  1952.31,1486.45 1952.31,1467.55 
  "/>
<polyline clip-path="url(#clip770)" style="stroke:#000000; stroke-linecap:butt; stroke-linejoin:round; stroke-width:4; stroke-opacity:1; fill:none" points="
  2291.67,1486.45 2291.67,1467.55 
  "/>
<path clip-path="url(#clip770)" d="M224.975 1532.02 L254.651 1532.02 L254.651 1535.95 L224.975 1535.95 L224.975 1532.02 Z" fill="#000000" fill-rule="evenodd" fill-opacity="1" /><path clip-path="url(#clip770)" d="M278.91 1530.21 Q282.266 1530.93 284.141 1533.2 Q286.039 1535.47 286.039 1538.8 Q286.039 1543.92 282.521 1546.72 Q279.002 1549.52 272.521 1549.52 Q270.345 1549.52 268.03 1549.08 Q265.738 1548.66 263.285 1547.81 L263.285 1543.29 Q265.229 1544.43 267.544 1545.01 Q269.859 1545.58 272.382 1545.58 Q276.78 1545.58 279.072 1543.85 Q281.387 1542.11 281.387 1538.8 Q281.387 1535.75 279.234 1534.03 Q277.104 1532.3 273.285 1532.3 L269.257 1532.3 L269.257 1528.45 L273.47 1528.45 Q276.919 1528.45 278.748 1527.09 Q280.576 1525.7 280.576 1523.11 Q280.576 1520.45 278.678 1519.03 Q276.803 1517.6 273.285 1517.6 Q271.363 1517.6 269.164 1518.01 Q266.965 1518.43 264.326 1519.31 L264.326 1515.14 Q266.988 1514.4 269.303 1514.03 Q271.641 1513.66 273.701 1513.66 Q279.025 1513.66 282.127 1516.09 Q285.229 1518.5 285.229 1522.62 Q285.229 1525.49 283.586 1527.48 Q281.942 1529.45 278.91 1530.21 Z" fill="#000000" fill-rule="evenodd" fill-opacity="1" /><path clip-path="url(#clip770)" d="M564.81 1532.02 L594.486 1532.02 L594.486 1535.95 L564.81 1535.95 L564.81 1532.02 Z" fill="#000000" fill-rule="evenodd" fill-opacity="1" /><path clip-path="url(#clip770)" d="M608.606 1544.91 L624.925 1544.91 L624.925 1548.85 L602.981 1548.85 L602.981 1544.91 Q605.643 1542.16 610.226 1537.53 Q614.833 1532.88 616.013 1531.53 Q618.259 1529.01 619.138 1527.27 Q620.041 1525.51 620.041 1523.82 Q620.041 1521.07 618.097 1519.33 Q616.175 1517.6 613.074 1517.6 Q610.875 1517.6 608.421 1518.36 Q605.99 1519.13 603.213 1520.68 L603.213 1515.95 Q606.037 1514.82 608.49 1514.24 Q610.944 1513.66 612.981 1513.66 Q618.351 1513.66 621.546 1516.35 Q624.74 1519.03 624.74 1523.52 Q624.74 1525.65 623.93 1527.57 Q623.143 1529.47 621.037 1532.07 Q620.458 1532.74 617.356 1535.95 Q614.254 1539.15 608.606 1544.91 Z" fill="#000000" fill-rule="evenodd" fill-opacity="1" /><path clip-path="url(#clip770)" d="M903.985 1532.02 L933.661 1532.02 L933.661 1535.95 L903.985 1535.95 L903.985 1532.02 Z" fill="#000000" fill-rule="evenodd" fill-opacity="1" /><path clip-path="url(#clip770)" d="M944.564 1544.91 L952.203 1544.91 L952.203 1518.55 L943.893 1520.21 L943.893 1515.95 L952.156 1514.29 L956.832 1514.29 L956.832 1544.91 L964.471 1544.91 L964.471 1548.85 L944.564 1548.85 L944.564 1544.91 Z" fill="#000000" fill-rule="evenodd" fill-opacity="1" /><path clip-path="url(#clip770)" d="M1273.59 1517.37 Q1269.98 1517.37 1268.15 1520.93 Q1266.34 1524.47 1266.34 1531.6 Q1266.34 1538.71 1268.15 1542.27 Q1269.98 1545.82 1273.59 1545.82 Q1277.22 1545.82 1279.03 1542.27 Q1280.86 1538.71 1280.86 1531.6 Q1280.86 1524.47 1279.03 1520.93 Q1277.22 1517.37 1273.59 1517.37 M1273.59 1513.66 Q1279.4 1513.66 1282.45 1518.27 Q1285.53 1522.85 1285.53 1531.6 Q1285.53 1540.33 1282.45 1544.94 Q1279.4 1549.52 1273.59 1549.52 Q1267.78 1549.52 1264.7 1544.94 Q1261.64 1540.33 1261.64 1531.6 Q1261.64 1522.85 1264.7 1518.27 Q1267.78 1513.66 1273.59 1513.66 Z" fill="#000000" fill-rule="evenodd" fill-opacity="1" /><path clip-path="url(#clip770)" d="M1603.33 1544.91 L1610.97 1544.91 L1610.97 1518.55 L1602.66 1520.21 L1602.66 1515.95 L1610.92 1514.29 L1615.6 1514.29 L1615.6 1544.91 L1623.24 1544.91 L1623.24 1548.85 L1603.33 1548.85 L1603.33 1544.91 Z" fill="#000000" fill-rule="evenodd" fill-opacity="1" /><path clip-path="url(#clip770)" d="M1946.96 1544.91 L1963.28 1544.91 L1963.28 1548.85 L1941.34 1548.85 L1941.34 1544.91 Q1944 1542.16 1948.58 1537.53 Q1953.19 1532.88 1954.37 1531.53 Q1956.62 1529.01 1957.5 1527.27 Q1958.4 1525.51 1958.4 1523.82 Q1958.4 1521.07 1956.45 1519.33 Q1954.53 1517.6 1951.43 1517.6 Q1949.23 1517.6 1946.78 1518.36 Q1944.35 1519.13 1941.57 1520.68 L1941.57 1515.95 Q1944.39 1514.82 1946.85 1514.24 Q1949.3 1513.66 1951.34 1513.66 Q1956.71 1513.66 1959.9 1516.35 Q1963.1 1519.03 1963.1 1523.52 Q1963.1 1525.65 1962.29 1527.57 Q1961.5 1529.47 1959.39 1532.07 Q1958.81 1532.74 1955.71 1535.95 Q1952.61 1539.15 1946.96 1544.91 Z" fill="#000000" fill-rule="evenodd" fill-opacity="1" /><path clip-path="url(#clip770)" d="M2295.92 1530.21 Q2299.28 1530.93 2301.15 1533.2 Q2303.05 1535.47 2303.05 1538.8 Q2303.05 1543.92 2299.53 1546.72 Q2296.01 1549.52 2289.53 1549.52 Q2287.35 1549.52 2285.04 1549.08 Q2282.75 1548.66 2280.29 1547.81 L2280.29 1543.29 Q2282.24 1544.43 2284.55 1545.01 Q2286.87 1545.58 2289.39 1545.58 Q2293.79 1545.58 2296.08 1543.85 Q2298.4 1542.11 2298.4 1538.8 Q2298.4 1535.75 2296.24 1534.03 Q2294.11 1532.3 2290.29 1532.3 L2286.27 1532.3 L2286.27 1528.45 L2290.48 1528.45 Q2293.93 1528.45 2295.76 1527.09 Q2297.59 1525.7 2297.59 1523.11 Q2297.59 1520.45 2295.69 1519.03 Q2293.81 1517.6 2290.29 1517.6 Q2288.37 1517.6 2286.17 1518.01 Q2283.97 1518.43 2281.34 1519.31 L2281.34 1515.14 Q2284 1514.4 2286.31 1514.03 Q2288.65 1513.66 2290.71 1513.66 Q2296.03 1513.66 2299.14 1516.09 Q2302.24 1518.5 2302.24 1522.62 Q2302.24 1525.49 2300.59 1527.48 Q2298.95 1529.45 2295.92 1530.21 Z" fill="#000000" fill-rule="evenodd" fill-opacity="1" /><polyline clip-path="url(#clip772)" style="stroke:#000000; stroke-linecap:butt; stroke-linejoin:round; stroke-width:2; stroke-opacity:0.1; fill:none" points="
  194.422,1351.77 2352.76,1351.77 
  "/>
<polyline clip-path="url(#clip772)" style="stroke:#000000; stroke-linecap:butt; stroke-linejoin:round; stroke-width:2; stroke-opacity:0.1; fill:none" points="
  194.422,1059.31 2352.76,1059.31 
  "/>
<polyline clip-path="url(#clip772)" style="stroke:#000000; stroke-linecap:butt; stroke-linejoin:round; stroke-width:2; stroke-opacity:0.1; fill:none" points="
  194.422,766.846 2352.76,766.846 
  "/>
<polyline clip-path="url(#clip772)" style="stroke:#000000; stroke-linecap:butt; stroke-linejoin:round; stroke-width:2; stroke-opacity:0.1; fill:none" points="
  194.422,474.383 2352.76,474.383 
  "/>
<polyline clip-path="url(#clip772)" style="stroke:#000000; stroke-linecap:butt; stroke-linejoin:round; stroke-width:2; stroke-opacity:0.1; fill:none" points="
  194.422,181.92 2352.76,181.92 
  "/>
<polyline clip-path="url(#clip770)" style="stroke:#000000; stroke-linecap:butt; stroke-linejoin:round; stroke-width:4; stroke-opacity:1; fill:none" points="
  194.422,1486.45 194.422,47.2441 
  "/>
<polyline clip-path="url(#clip770)" style="stroke:#000000; stroke-linecap:butt; stroke-linejoin:round; stroke-width:4; stroke-opacity:1; fill:none" points="
  194.422,1351.77 213.32,1351.77 
  "/>
<polyline clip-path="url(#clip770)" style="stroke:#000000; stroke-linecap:butt; stroke-linejoin:round; stroke-width:4; stroke-opacity:1; fill:none" points="
  194.422,1059.31 213.32,1059.31 
  "/>
<polyline clip-path="url(#clip770)" style="stroke:#000000; stroke-linecap:butt; stroke-linejoin:round; stroke-width:4; stroke-opacity:1; fill:none" points="
  194.422,766.846 213.32,766.846 
  "/>
<polyline clip-path="url(#clip770)" style="stroke:#000000; stroke-linecap:butt; stroke-linejoin:round; stroke-width:4; stroke-opacity:1; fill:none" points="
  194.422,474.383 213.32,474.383 
  "/>
<polyline clip-path="url(#clip770)" style="stroke:#000000; stroke-linecap:butt; stroke-linejoin:round; stroke-width:4; stroke-opacity:1; fill:none" points="
  194.422,181.92 213.32,181.92 
  "/>
<path clip-path="url(#clip770)" d="M50.9921 1352.22 L80.6679 1352.22 L80.6679 1356.16 L50.9921 1356.16 L50.9921 1352.22 Z" fill="#000000" fill-rule="evenodd" fill-opacity="1" /><path clip-path="url(#clip770)" d="M100.76 1337.57 Q97.1493 1337.57 95.3206 1341.14 Q93.515 1344.68 93.515 1351.81 Q93.515 1358.91 95.3206 1362.48 Q97.1493 1366.02 100.76 1366.02 Q104.395 1366.02 106.2 1362.48 Q108.029 1358.91 108.029 1351.81 Q108.029 1344.68 106.2 1341.14 Q104.395 1337.57 100.76 1337.57 M100.76 1333.87 Q106.571 1333.87 109.626 1338.47 Q112.705 1343.06 112.705 1351.81 Q112.705 1360.53 109.626 1365.14 Q106.571 1369.72 100.76 1369.72 Q94.9502 1369.72 91.8715 1365.14 Q88.816 1360.53 88.816 1351.81 Q88.816 1343.06 91.8715 1338.47 Q94.9502 1333.87 100.76 1333.87 Z" fill="#000000" fill-rule="evenodd" fill-opacity="1" /><path clip-path="url(#clip770)" d="M120.922 1363.17 L125.807 1363.17 L125.807 1369.05 L120.922 1369.05 L120.922 1363.17 Z" fill="#000000" fill-rule="evenodd" fill-opacity="1" /><path clip-path="url(#clip770)" d="M148.839 1338.57 L137.033 1357.02 L148.839 1357.02 L148.839 1338.57 M147.612 1334.49 L153.492 1334.49 L153.492 1357.02 L158.422 1357.02 L158.422 1360.9 L153.492 1360.9 L153.492 1369.05 L148.839 1369.05 L148.839 1360.9 L133.237 1360.9 L133.237 1356.39 L147.612 1334.49 Z" fill="#000000" fill-rule="evenodd" fill-opacity="1" /><path clip-path="url(#clip770)" d="M53.0754 1059.76 L82.7512 1059.76 L82.7512 1063.7 L53.0754 1063.7 L53.0754 1059.76 Z" fill="#000000" fill-rule="evenodd" fill-opacity="1" /><path clip-path="url(#clip770)" d="M102.844 1045.11 Q99.2326 1045.11 97.4039 1048.67 Q95.5984 1052.21 95.5984 1059.34 Q95.5984 1066.45 97.4039 1070.02 Q99.2326 1073.56 102.844 1073.56 Q106.478 1073.56 108.283 1070.02 Q110.112 1066.45 110.112 1059.34 Q110.112 1052.21 108.283 1048.67 Q106.478 1045.11 102.844 1045.11 M102.844 1041.4 Q108.654 1041.4 111.709 1046.01 Q114.788 1050.59 114.788 1059.34 Q114.788 1068.07 111.709 1072.68 Q108.654 1077.26 102.844 1077.26 Q97.0335 1077.26 93.9549 1072.68 Q90.8993 1068.07 90.8993 1059.34 Q90.8993 1050.59 93.9549 1046.01 Q97.0335 1041.4 102.844 1041.4 Z" fill="#000000" fill-rule="evenodd" fill-opacity="1" /><path clip-path="url(#clip770)" d="M123.006 1070.71 L127.89 1070.71 L127.89 1076.59 L123.006 1076.59 L123.006 1070.71 Z" fill="#000000" fill-rule="evenodd" fill-opacity="1" /><path clip-path="url(#clip770)" d="M142.103 1072.65 L158.422 1072.65 L158.422 1076.59 L136.478 1076.59 L136.478 1072.65 Q139.14 1069.9 143.723 1065.27 Q148.33 1060.62 149.51 1059.27 Q151.755 1056.75 152.635 1055.02 Q153.538 1053.26 153.538 1051.57 Q153.538 1048.81 151.593 1047.08 Q149.672 1045.34 146.57 1045.34 Q144.371 1045.34 141.918 1046.1 Q139.487 1046.87 136.709 1048.42 L136.709 1043.7 Q139.533 1042.56 141.987 1041.98 Q144.441 1041.4 146.478 1041.4 Q151.848 1041.4 155.042 1044.09 Q158.237 1046.77 158.237 1051.27 Q158.237 1053.39 157.427 1055.32 Q156.64 1057.21 154.533 1059.81 Q153.955 1060.48 150.853 1063.7 Q147.751 1066.89 142.103 1072.65 Z" fill="#000000" fill-rule="evenodd" fill-opacity="1" /><path clip-path="url(#clip770)" d="M101.246 752.645 Q97.6354 752.645 95.8067 756.209 Q94.0012 759.751 94.0012 766.881 Q94.0012 773.987 95.8067 777.552 Q97.6354 781.094 101.246 781.094 Q104.881 781.094 106.686 777.552 Q108.515 773.987 108.515 766.881 Q108.515 759.751 106.686 756.209 Q104.881 752.645 101.246 752.645 M101.246 748.941 Q107.057 748.941 110.112 753.547 Q113.191 758.131 113.191 766.881 Q113.191 775.608 110.112 780.214 Q107.057 784.797 101.246 784.797 Q95.4363 784.797 92.3576 780.214 Q89.3021 775.608 89.3021 766.881 Q89.3021 758.131 92.3576 753.547 Q95.4363 748.941 101.246 748.941 Z" fill="#000000" fill-rule="evenodd" fill-opacity="1" /><path clip-path="url(#clip770)" d="M121.408 778.246 L126.293 778.246 L126.293 784.126 L121.408 784.126 L121.408 778.246 Z" fill="#000000" fill-rule="evenodd" fill-opacity="1" /><path clip-path="url(#clip770)" d="M146.478 752.645 Q142.867 752.645 141.038 756.209 Q139.232 759.751 139.232 766.881 Q139.232 773.987 141.038 777.552 Q142.867 781.094 146.478 781.094 Q150.112 781.094 151.918 777.552 Q153.746 773.987 153.746 766.881 Q153.746 759.751 151.918 756.209 Q150.112 752.645 146.478 752.645 M146.478 748.941 Q152.288 748.941 155.343 753.547 Q158.422 758.131 158.422 766.881 Q158.422 775.608 155.343 780.214 Q152.288 784.797 146.478 784.797 Q140.668 784.797 137.589 780.214 Q134.533 775.608 134.533 766.881 Q134.533 758.131 137.589 753.547 Q140.668 748.941 146.478 748.941 Z" fill="#000000" fill-rule="evenodd" fill-opacity="1" /><path clip-path="url(#clip770)" d="M102.844 460.181 Q99.2326 460.181 97.4039 463.746 Q95.5984 467.288 95.5984 474.418 Q95.5984 481.524 97.4039 485.089 Q99.2326 488.63 102.844 488.63 Q106.478 488.63 108.283 485.089 Q110.112 481.524 110.112 474.418 Q110.112 467.288 108.283 463.746 Q106.478 460.181 102.844 460.181 M102.844 456.478 Q108.654 456.478 111.709 461.084 Q114.788 465.668 114.788 474.418 Q114.788 483.144 111.709 487.751 Q108.654 492.334 102.844 492.334 Q97.0335 492.334 93.9549 487.751 Q90.8993 483.144 90.8993 474.418 Q90.8993 465.668 93.9549 461.084 Q97.0335 456.478 102.844 456.478 Z" fill="#000000" fill-rule="evenodd" fill-opacity="1" /><path clip-path="url(#clip770)" d="M123.006 485.783 L127.89 485.783 L127.89 491.663 L123.006 491.663 L123.006 485.783 Z" fill="#000000" fill-rule="evenodd" fill-opacity="1" /><path clip-path="url(#clip770)" d="M142.103 487.728 L158.422 487.728 L158.422 491.663 L136.478 491.663 L136.478 487.728 Q139.14 484.973 143.723 480.343 Q148.33 475.691 149.51 474.348 Q151.755 471.825 152.635 470.089 Q153.538 468.33 153.538 466.64 Q153.538 463.885 151.593 462.149 Q149.672 460.413 146.57 460.413 Q144.371 460.413 141.918 461.177 Q139.487 461.941 136.709 463.492 L136.709 458.769 Q139.533 457.635 141.987 457.056 Q144.441 456.478 146.478 456.478 Q151.848 456.478 155.042 459.163 Q158.237 461.848 158.237 466.339 Q158.237 468.468 157.427 470.39 Q156.64 472.288 154.533 474.88 Q153.955 475.552 150.853 478.769 Q147.751 481.964 142.103 487.728 Z" fill="#000000" fill-rule="evenodd" fill-opacity="1" /><path clip-path="url(#clip770)" d="M100.76 167.718 Q97.1493 167.718 95.3206 171.283 Q93.515 174.825 93.515 181.954 Q93.515 189.061 95.3206 192.626 Q97.1493 196.167 100.76 196.167 Q104.395 196.167 106.2 192.626 Q108.029 189.061 108.029 181.954 Q108.029 174.825 106.2 171.283 Q104.395 167.718 100.76 167.718 M100.76 164.015 Q106.571 164.015 109.626 168.621 Q112.705 173.204 112.705 181.954 Q112.705 190.681 109.626 195.288 Q106.571 199.871 100.76 199.871 Q94.9502 199.871 91.8715 195.288 Q88.816 190.681 88.816 181.954 Q88.816 173.204 91.8715 168.621 Q94.9502 164.015 100.76 164.015 Z" fill="#000000" fill-rule="evenodd" fill-opacity="1" /><path clip-path="url(#clip770)" d="M120.922 193.32 L125.807 193.32 L125.807 199.2 L120.922 199.2 L120.922 193.32 Z" fill="#000000" fill-rule="evenodd" fill-opacity="1" /><path clip-path="url(#clip770)" d="M148.839 168.714 L137.033 187.163 L148.839 187.163 L148.839 168.714 M147.612 164.64 L153.492 164.64 L153.492 187.163 L158.422 187.163 L158.422 191.051 L153.492 191.051 L153.492 199.2 L148.839 199.2 L148.839 191.051 L133.237 191.051 L133.237 186.538 L147.612 164.64 Z" fill="#000000" fill-rule="evenodd" fill-opacity="1" /><polyline clip-path="url(#clip772)" style="stroke:#009af9; stroke-linecap:butt; stroke-linejoin:round; stroke-width:4; stroke-opacity:1; fill:none" points="
  255.507,766.846 481.747,531.077 707.988,1209.95 934.228,169.858 1160.47,1445.72 1386.71,87.9763 1612.95,1363.83 1839.19,323.745 2065.43,1002.61 2291.67,766.846 
  
  "/>
<path clip-path="url(#clip770)" d="
M1988.57 198.898 L2280.81 198.898 L2280.81 95.2176 L1988.57 95.2176  Z
  " fill="#ffffff" fill-rule="evenodd" fill-opacity="1"/>
<polyline clip-path="url(#clip770)" style="stroke:#000000; stroke-linecap:butt; stroke-linejoin:round; stroke-width:4; stroke-opacity:1; fill:none" points="
  1988.57,198.898 2280.81,198.898 2280.81,95.2176 1988.57,95.2176 1988.57,198.898 
  "/>
<polyline clip-path="url(#clip770)" style="stroke:#009af9; stroke-linecap:butt; stroke-linejoin:round; stroke-width:4; stroke-opacity:1; fill:none" points="
  2012.55,147.058 2156.44,147.058 
  "/>
<path clip-path="url(#clip770)" d="M2194.26 166.745 Q2192.46 171.375 2190.74 172.787 Q2189.03 174.199 2186.16 174.199 L2182.76 174.199 L2182.76 170.634 L2185.26 170.634 Q2187.02 170.634 2187.99 169.8 Q2188.96 168.967 2190.14 165.865 L2190.9 163.921 L2180.42 138.412 L2184.93 138.412 L2193.03 158.689 L2201.14 138.412 L2205.65 138.412 L2194.26 166.745 Z" fill="#000000" fill-rule="evenodd" fill-opacity="1" /><path clip-path="url(#clip770)" d="M2212.94 160.402 L2220.58 160.402 L2220.58 134.037 L2212.27 135.703 L2212.27 131.444 L2220.53 129.778 L2225.21 129.778 L2225.21 160.402 L2232.85 160.402 L2232.85 164.338 L2212.94 164.338 L2212.94 160.402 Z" fill="#000000" fill-rule="evenodd" fill-opacity="1" /></svg>
