<?xml version="1.0" encoding="utf-8"?>
<svg xmlns="http://www.w3.org/2000/svg" xmlns:xlink="http://www.w3.org/1999/xlink" width="600" height="400" viewBox="0 0 2400 1600">
<defs>
  <clipPath id="clip190">
    <rect x="0" y="0" width="2400" height="1600"/>
  </clipPath>
</defs>
<path clip-path="url(#clip190)" d="
M0 1600 L2400 1600 L2400 0 L0 0  Z
  " fill="#ffffff" fill-rule="evenodd" fill-opacity="1"/>
<defs>
  <clipPath id="clip191">
    <rect x="480" y="0" width="1681" height="1600"/>
  </clipPath>
</defs>
<defs>
  <clipPath id="clip192">
    <rect x="189" y="47" width="2164" height="1428"/>
  </clipPath>
</defs>
<path clip-path="url(#clip190)" d="
M189.496 1486.45 L2352.76 1486.45 L2352.76 47.2441 L189.496 47.2441  Z
  " fill="#ffffff" fill-rule="evenodd" fill-opacity="1"/>
<defs>
  <clipPath id="clip193">
    <rect x="189" y="47" width="2164" height="1440"/>
  </clipPath>
</defs>
<polyline clip-path="url(#clip193)" style="stroke:#000000; stroke-linecap:butt; stroke-linejoin:round; stroke-width:2; stroke-opacity:0.1; fill:none" points="
  490.816,1486.45 490.816,47.2441 
  "/>
<polyline clip-path="url(#clip193)" style="stroke:#000000; stroke-linecap:butt; stroke-linejoin:round; stroke-width:2; stroke-opacity:0.1; fill:none" points="
  1091.05,1486.45 1091.05,47.2441 
  "/>
<polyline clip-path="url(#clip193)" style="stroke:#000000; stroke-linecap:butt; stroke-linejoin:round; stroke-width:2; stroke-opacity:0.1; fill:none" points="
  1691.29,1486.45 1691.29,47.2441 
  "/>
<polyline clip-path="url(#clip193)" style="stroke:#000000; stroke-linecap:butt; stroke-linejoin:round; stroke-width:2; stroke-opacity:0.1; fill:none" points="
  2291.53,1486.45 2291.53,47.2441 
  "/>
<polyline clip-path="url(#clip190)" style="stroke:#000000; stroke-linecap:butt; stroke-linejoin:round; stroke-width:4; stroke-opacity:1; fill:none" points="
  189.496,1486.45 2352.76,1486.45 
  "/>
<polyline clip-path="url(#clip190)" style="stroke:#000000; stroke-linecap:butt; stroke-linejoin:round; stroke-width:4; stroke-opacity:1; fill:none" points="
  490.816,1486.45 490.816,1467.55 
  "/>
<polyline clip-path="url(#clip190)" style="stroke:#000000; stroke-linecap:butt; stroke-linejoin:round; stroke-width:4; stroke-opacity:1; fill:none" points="
  1091.05,1486.45 1091.05,1467.55 
  "/>
<polyline clip-path="url(#clip190)" style="stroke:#000000; stroke-linecap:butt; stroke-linejoin:round; stroke-width:4; stroke-opacity:1; fill:none" points="
  1691.29,1486.45 1691.29,1467.55 
  "/>
<polyline clip-path="url(#clip190)" style="stroke:#000000; stroke-linecap:butt; stroke-linejoin:round; stroke-width:4; stroke-opacity:1; fill:none" points="
  2291.53,1486.45 2291.53,1467.55 
  "/>
<path clip-path="url(#clip190)" d="M481.094 1512.56 L499.45 1512.56 L499.45 1516.5 L485.376 1516.5 L485.376 1524.97 Q486.394 1524.62 487.413 1524.46 Q488.431 1524.27 489.45 1524.27 Q495.237 1524.27 498.617 1527.44 Q501.996 1530.62 501.996 1536.03 Q501.996 1541.61 498.524 1544.71 Q495.052 1547.79 488.732 1547.79 Q486.556 1547.79 484.288 1547.42 Q482.043 1547.05 479.635 1546.31 L479.635 1541.61 Q481.719 1542.74 483.941 1543.3 Q486.163 1543.86 488.64 1543.86 Q492.644 1543.86 494.982 1541.75 Q497.32 1539.64 497.32 1536.03 Q497.32 1532.42 494.982 1530.31 Q492.644 1528.21 488.64 1528.21 Q486.765 1528.21 484.89 1528.62 Q483.038 1529.04 481.094 1529.92 L481.094 1512.56 Z" fill="#000000" fill-rule="evenodd" fill-opacity="1" /><path clip-path="url(#clip190)" d="M1065.74 1543.18 L1073.38 1543.18 L1073.38 1516.82 L1065.07 1518.49 L1065.07 1514.23 L1073.33 1512.56 L1078.01 1512.56 L1078.01 1543.18 L1085.65 1543.18 L1085.65 1547.12 L1065.74 1547.12 L1065.74 1543.18 Z" fill="#000000" fill-rule="evenodd" fill-opacity="1" /><path clip-path="url(#clip190)" d="M1105.09 1515.64 Q1101.48 1515.64 1099.65 1519.2 Q1097.85 1522.75 1097.85 1529.87 Q1097.85 1536.98 1099.65 1540.55 Q1101.48 1544.09 1105.09 1544.09 Q1108.73 1544.09 1110.53 1540.55 Q1112.36 1536.98 1112.36 1529.87 Q1112.36 1522.75 1110.53 1519.2 Q1108.73 1515.64 1105.09 1515.64 M1105.09 1511.93 Q1110.9 1511.93 1113.96 1516.54 Q1117.04 1521.12 1117.04 1529.87 Q1117.04 1538.6 1113.96 1543.21 Q1110.9 1547.79 1105.09 1547.79 Q1099.28 1547.79 1096.2 1543.21 Q1093.15 1538.6 1093.15 1529.87 Q1093.15 1521.12 1096.2 1516.54 Q1099.28 1511.93 1105.09 1511.93 Z" fill="#000000" fill-rule="evenodd" fill-opacity="1" /><path clip-path="url(#clip190)" d="M1666.48 1543.18 L1674.12 1543.18 L1674.12 1516.82 L1665.81 1518.49 L1665.81 1514.23 L1674.07 1512.56 L1678.75 1512.56 L1678.75 1543.18 L1686.39 1543.18 L1686.39 1547.12 L1666.48 1547.12 L1666.48 1543.18 Z" fill="#000000" fill-rule="evenodd" fill-opacity="1" /><path clip-path="url(#clip190)" d="M1695.88 1512.56 L1714.23 1512.56 L1714.23 1516.5 L1700.16 1516.5 L1700.16 1524.97 Q1701.18 1524.62 1702.2 1524.46 Q1703.21 1524.27 1704.23 1524.27 Q1710.02 1524.27 1713.4 1527.44 Q1716.78 1530.62 1716.78 1536.03 Q1716.78 1541.61 1713.31 1544.71 Q1709.83 1547.79 1703.52 1547.79 Q1701.34 1547.79 1699.07 1547.42 Q1696.83 1547.05 1694.42 1546.31 L1694.42 1541.61 Q1696.5 1542.74 1698.72 1543.3 Q1700.95 1543.86 1703.42 1543.86 Q1707.43 1543.86 1709.77 1541.75 Q1712.1 1539.64 1712.1 1536.03 Q1712.1 1532.42 1709.77 1530.31 Q1707.43 1528.21 1703.42 1528.21 Q1701.55 1528.21 1699.67 1528.62 Q1697.82 1529.04 1695.88 1529.92 L1695.88 1512.56 Z" fill="#000000" fill-rule="evenodd" fill-opacity="1" /><path clip-path="url(#clip190)" d="M2270.3 1543.18 L2286.62 1543.18 L2286.62 1547.12 L2264.68 1547.12 L2264.68 1543.18 Q2267.34 1540.43 2271.93 1535.8 Q2276.53 1531.15 2277.71 1529.81 Q2279.96 1527.28 2280.84 1525.55 Q2281.74 1523.79 2281.74 1522.1 Q2281.74 1519.34 2279.8 1517.61 Q2277.87 1515.87 2274.77 1515.87 Q2272.57 1515.87 2270.12 1516.63 Q2267.69 1517.4 2264.91 1518.95 L2264.91 1514.23 Q2267.74 1513.09 2270.19 1512.51 Q2272.64 1511.93 2274.68 1511.93 Q2280.05 1511.93 2283.24 1514.62 Q2286.44 1517.31 2286.44 1521.8 Q2286.44 1523.93 2285.63 1525.85 Q2284.84 1527.74 2282.74 1530.34 Q2282.16 1531.01 2279.05 1534.23 Q2275.95 1537.42 2270.3 1543.18 Z" fill="#000000" fill-rule="evenodd" fill-opacity="1" /><path clip-path="url(#clip190)" d="M2306.44 1515.64 Q2302.83 1515.64 2301 1519.2 Q2299.19 1522.75 2299.19 1529.87 Q2299.19 1536.98 2301 1540.55 Q2302.83 1544.09 2306.44 1544.09 Q2310.07 1544.09 2311.88 1540.55 Q2313.71 1536.98 2313.71 1529.87 Q2313.71 1522.75 2311.88 1519.2 Q2310.07 1515.64 2306.44 1515.64 M2306.44 1511.93 Q2312.25 1511.93 2315.3 1516.54 Q2318.38 1521.12 2318.38 1529.87 Q2318.38 1538.6 2315.3 1543.21 Q2312.25 1547.79 2306.44 1547.79 Q2300.63 1547.79 2297.55 1543.21 Q2294.49 1538.6 2294.49 1529.87 Q2294.49 1521.12 2297.55 1516.54 Q2300.63 1511.93 2306.44 1511.93 Z" fill="#000000" fill-rule="evenodd" fill-opacity="1" /><polyline clip-path="url(#clip193)" style="stroke:#000000; stroke-linecap:butt; stroke-linejoin:round; stroke-width:2; stroke-opacity:0.1; fill:none" points="
  189.496,1344.5 2352.76,1344.5 
  "/>
<polyline clip-path="url(#clip193)" style="stroke:#000000; stroke-linecap:butt; stroke-linejoin:round; stroke-width:2; stroke-opacity:0.1; fill:none" points="
  189.496,1048.64 2352.76,1048.64 
  "/>
<polyline clip-path="url(#clip193)" style="stroke:#000000; stroke-linecap:butt; stroke-linejoin:round; stroke-width:2; stroke-opacity:0.1; fill:none" points="
  189.496,752.786 2352.76,752.786 
  "/>
<polyline clip-path="url(#clip193)" style="stroke:#000000; stroke-linecap:butt; stroke-linejoin:round; stroke-width:2; stroke-opacity:0.1; fill:none" points="
  189.496,456.928 2352.76,456.928 
  "/>
<polyline clip-path="url(#clip193)" style="stroke:#000000; stroke-linecap:butt; stroke-linejoin:round; stroke-width:2; stroke-opacity:0.1; fill:none" points="
  189.496,161.071 2352.76,161.071 
  "/>
<polyline clip-path="url(#clip190)" style="stroke:#000000; stroke-linecap:butt; stroke-linejoin:round; stroke-width:4; stroke-opacity:1; fill:none" points="
  189.496,1486.45 189.496,47.2441 
  "/>
<polyline clip-path="url(#clip190)" style="stroke:#000000; stroke-linecap:butt; stroke-linejoin:round; stroke-width:4; stroke-opacity:1; fill:none" points="
  189.496,1344.5 208.394,1344.5 
  "/>
<polyline clip-path="url(#clip190)" style="stroke:#000000; stroke-linecap:butt; stroke-linejoin:round; stroke-width:4; stroke-opacity:1; fill:none" points="
  189.496,1048.64 208.394,1048.64 
  "/>
<polyline clip-path="url(#clip190)" style="stroke:#000000; stroke-linecap:butt; stroke-linejoin:round; stroke-width:4; stroke-opacity:1; fill:none" points="
  189.496,752.786 208.394,752.786 
  "/>
<polyline clip-path="url(#clip190)" style="stroke:#000000; stroke-linecap:butt; stroke-linejoin:round; stroke-width:4; stroke-opacity:1; fill:none" points="
  189.496,456.928 208.394,456.928 
  "/>
<polyline clip-path="url(#clip190)" style="stroke:#000000; stroke-linecap:butt; stroke-linejoin:round; stroke-width:4; stroke-opacity:1; fill:none" points="
  189.496,161.071 208.394,161.071 
  "/>
<path clip-path="url(#clip190)" d="M51.6634 1364.29 L59.3023 1364.29 L59.3023 1337.93 L50.9921 1339.59 L50.9921 1335.34 L59.256 1333.67 L63.9319 1333.67 L63.9319 1364.29 L71.5707 1364.29 L71.5707 1368.23 L51.6634 1368.23 L51.6634 1364.29 Z" fill="#000000" fill-rule="evenodd" fill-opacity="1" /><path clip-path="url(#clip190)" d="M91.0151 1336.75 Q87.404 1336.75 85.5753 1340.31 Q83.7697 1343.85 83.7697 1350.98 Q83.7697 1358.09 85.5753 1361.65 Q87.404 1365.2 91.0151 1365.2 Q94.6493 1365.2 96.4548 1361.65 Q98.2835 1358.09 98.2835 1350.98 Q98.2835 1343.85 96.4548 1340.31 Q94.6493 1336.75 91.0151 1336.75 M91.0151 1333.04 Q96.8252 1333.04 99.8808 1337.65 Q102.959 1342.23 102.959 1350.98 Q102.959 1359.71 99.8808 1364.32 Q96.8252 1368.9 91.0151 1368.9 Q85.2049 1368.9 82.1262 1364.32 Q79.0707 1359.71 79.0707 1350.98 Q79.0707 1342.23 82.1262 1337.65 Q85.2049 1333.04 91.0151 1333.04 Z" fill="#000000" fill-rule="evenodd" fill-opacity="1" /><path clip-path="url(#clip190)" d="M102.959 1327.14 L127.071 1327.14 L127.071 1330.34 L102.959 1330.34 L102.959 1327.14 Z" fill="#000000" fill-rule="evenodd" fill-opacity="1" /><path clip-path="url(#clip190)" d="M145.71 1316.05 L136.118 1331.04 L145.71 1331.04 L145.71 1316.05 M144.713 1312.74 L149.49 1312.74 L149.49 1331.04 L153.496 1331.04 L153.496 1334.2 L149.49 1334.2 L149.49 1340.82 L145.71 1340.82 L145.71 1334.2 L133.033 1334.2 L133.033 1330.53 L144.713 1312.74 Z" fill="#000000" fill-rule="evenodd" fill-opacity="1" /><path clip-path="url(#clip190)" d="M52.585 1068.44 L60.2238 1068.44 L60.2238 1042.07 L51.9137 1043.74 L51.9137 1039.48 L60.1776 1037.81 L64.8535 1037.81 L64.8535 1068.44 L72.4923 1068.44 L72.4923 1072.37 L52.585 1072.37 L52.585 1068.44 Z" fill="#000000" fill-rule="evenodd" fill-opacity="1" /><path clip-path="url(#clip190)" d="M91.9366 1040.89 Q88.3255 1040.89 86.4969 1044.45 Q84.6913 1048 84.6913 1055.13 Q84.6913 1062.23 86.4969 1065.8 Q88.3255 1069.34 91.9366 1069.34 Q95.5709 1069.34 97.3764 1065.8 Q99.2051 1062.23 99.2051 1055.13 Q99.2051 1048 97.3764 1044.45 Q95.5709 1040.89 91.9366 1040.89 M91.9366 1037.19 Q97.7468 1037.19 100.802 1041.79 Q103.881 1046.38 103.881 1055.13 Q103.881 1063.85 100.802 1068.46 Q97.7468 1073.04 91.9366 1073.04 Q86.1265 1073.04 83.0478 1068.46 Q79.9923 1063.85 79.9923 1055.13 Q79.9923 1046.38 83.0478 1041.79 Q86.1265 1037.19 91.9366 1037.19 Z" fill="#000000" fill-rule="evenodd" fill-opacity="1" /><path clip-path="url(#clip190)" d="M103.881 1031.29 L127.993 1031.29 L127.993 1034.48 L103.881 1034.48 L103.881 1031.29 Z" fill="#000000" fill-rule="evenodd" fill-opacity="1" /><path clip-path="url(#clip190)" d="M147.703 1029.82 Q150.43 1030.4 151.954 1032.25 Q153.496 1034.09 153.496 1036.8 Q153.496 1040.95 150.637 1043.23 Q147.778 1045.51 142.512 1045.51 Q140.744 1045.51 138.863 1045.15 Q137.002 1044.81 135.008 1044.11 L135.008 1040.45 Q136.588 1041.37 138.469 1041.84 Q140.349 1042.31 142.399 1042.31 Q145.973 1042.31 147.835 1040.9 Q149.716 1039.49 149.716 1036.8 Q149.716 1034.32 147.966 1032.92 Q146.236 1031.51 143.133 1031.51 L139.86 1031.51 L139.86 1028.39 L143.283 1028.39 Q146.086 1028.39 147.571 1027.28 Q149.057 1026.15 149.057 1024.05 Q149.057 1021.88 147.515 1020.74 Q145.992 1019.57 143.133 1019.57 Q141.572 1019.57 139.785 1019.91 Q137.998 1020.25 135.854 1020.96 L135.854 1017.58 Q138.017 1016.97 139.898 1016.67 Q141.797 1016.37 143.471 1016.37 Q147.797 1016.37 150.317 1018.35 Q152.838 1020.3 152.838 1023.65 Q152.838 1025.98 151.502 1027.6 Q150.167 1029.2 147.703 1029.82 Z" fill="#000000" fill-rule="evenodd" fill-opacity="1" /><path clip-path="url(#clip190)" d="M53.3561 772.578 L60.995 772.578 L60.995 746.213 L52.6848 747.879 L52.6848 743.62 L60.9487 741.953 L65.6246 741.953 L65.6246 772.578 L73.2634 772.578 L73.2634 776.513 L53.3561 776.513 L53.3561 772.578 Z" fill="#000000" fill-rule="evenodd" fill-opacity="1" /><path clip-path="url(#clip190)" d="M92.7078 745.032 Q89.0967 745.032 87.268 748.597 Q85.4624 752.139 85.4624 759.268 Q85.4624 766.375 87.268 769.939 Q89.0967 773.481 92.7078 773.481 Q96.342 773.481 98.1475 769.939 Q99.9762 766.375 99.9762 759.268 Q99.9762 752.139 98.1475 748.597 Q96.342 745.032 92.7078 745.032 M92.7078 741.328 Q98.5179 741.328 101.573 745.935 Q104.652 750.518 104.652 759.268 Q104.652 767.995 101.573 772.601 Q98.5179 777.185 92.7078 777.185 Q86.8976 777.185 83.8189 772.601 Q80.7634 767.995 80.7634 759.268 Q80.7634 750.518 83.8189 745.935 Q86.8976 741.328 92.7078 741.328 Z" fill="#000000" fill-rule="evenodd" fill-opacity="1" /><path clip-path="url(#clip190)" d="M104.652 735.43 L128.764 735.43 L128.764 738.627 L104.652 738.627 L104.652 735.43 Z" fill="#000000" fill-rule="evenodd" fill-opacity="1" /><path clip-path="url(#clip190)" d="M140.236 745.906 L153.496 745.906 L153.496 749.103 L135.666 749.103 L135.666 745.906 Q137.829 743.668 141.553 739.906 Q145.296 736.126 146.255 735.035 Q148.079 732.985 148.794 731.574 Q149.527 730.145 149.527 728.772 Q149.527 726.534 147.948 725.123 Q146.387 723.713 143.866 723.713 Q142.08 723.713 140.086 724.333 Q138.111 724.954 135.854 726.214 L135.854 722.377 Q138.149 721.456 140.142 720.985 Q142.136 720.515 143.791 720.515 Q148.155 720.515 150.75 722.697 Q153.345 724.879 153.345 728.527 Q153.345 730.258 152.687 731.819 Q152.048 733.361 150.336 735.467 Q149.866 736.013 147.346 738.627 Q144.826 741.223 140.236 745.906 Z" fill="#000000" fill-rule="evenodd" fill-opacity="1" /><path clip-path="url(#clip190)" d="M53.0552 476.721 L60.694 476.721 L60.694 450.355 L52.3839 452.022 L52.3839 447.763 L60.6477 446.096 L65.3236 446.096 L65.3236 476.721 L72.9625 476.721 L72.9625 480.656 L53.0552 480.656 L53.0552 476.721 Z" fill="#000000" fill-rule="evenodd" fill-opacity="1" /><path clip-path="url(#clip190)" d="M92.4068 449.175 Q88.7957 449.175 86.967 452.739 Q85.1615 456.281 85.1615 463.411 Q85.1615 470.517 86.967 474.082 Q88.7957 477.624 92.4068 477.624 Q96.0411 477.624 97.8466 474.082 Q99.6753 470.517 99.6753 463.411 Q99.6753 456.281 97.8466 452.739 Q96.0411 449.175 92.4068 449.175 M92.4068 445.471 Q98.217 445.471 101.273 450.077 Q104.351 454.661 104.351 463.411 Q104.351 472.137 101.273 476.744 Q98.217 481.327 92.4068 481.327 Q86.5967 481.327 83.518 476.744 Q80.4625 472.137 80.4625 463.411 Q80.4625 454.661 83.518 450.077 Q86.5967 445.471 92.4068 445.471 Z" fill="#000000" fill-rule="evenodd" fill-opacity="1" /><path clip-path="url(#clip190)" d="M104.351 439.572 L128.463 439.572 L128.463 442.77 L104.351 442.77 L104.351 439.572 Z" fill="#000000" fill-rule="evenodd" fill-opacity="1" /><path clip-path="url(#clip190)" d="M137.321 450.048 L143.528 450.048 L143.528 428.626 L136.776 429.98 L136.776 426.52 L143.49 425.166 L147.289 425.166 L147.289 450.048 L153.496 450.048 L153.496 453.246 L137.321 453.246 L137.321 450.048 Z" fill="#000000" fill-rule="evenodd" fill-opacity="1" /><path clip-path="url(#clip190)" d="M82.7903 180.863 L90.4291 180.863 L90.4291 154.498 L82.119 156.164 L82.119 151.905 L90.3828 150.238 L95.0587 150.238 L95.0587 180.863 L102.698 180.863 L102.698 184.798 L82.7903 184.798 L82.7903 180.863 Z" fill="#000000" fill-rule="evenodd" fill-opacity="1" /><path clip-path="url(#clip190)" d="M122.142 153.317 Q118.531 153.317 116.702 156.882 Q114.897 160.424 114.897 167.553 Q114.897 174.66 116.702 178.224 Q118.531 181.766 122.142 181.766 Q125.776 181.766 127.582 178.224 Q129.41 174.66 129.41 167.553 Q129.41 160.424 127.582 156.882 Q125.776 153.317 122.142 153.317 M122.142 149.613 Q127.952 149.613 131.008 154.22 Q134.086 158.803 134.086 167.553 Q134.086 176.28 131.008 180.886 Q127.952 185.47 122.142 185.47 Q116.332 185.47 113.253 180.886 Q110.198 176.28 110.198 167.553 Q110.198 158.803 113.253 154.22 Q116.332 149.613 122.142 149.613 Z" fill="#000000" fill-rule="evenodd" fill-opacity="1" /><path clip-path="url(#clip190)" d="M143.791 131.809 Q140.857 131.809 139.371 134.706 Q137.904 137.583 137.904 143.376 Q137.904 149.15 139.371 152.047 Q140.857 154.924 143.791 154.924 Q146.744 154.924 148.211 152.047 Q149.697 149.15 149.697 143.376 Q149.697 137.583 148.211 134.706 Q146.744 131.809 143.791 131.809 M143.791 128.8 Q148.512 128.8 150.994 132.543 Q153.496 136.267 153.496 143.376 Q153.496 150.467 150.994 154.209 Q148.512 157.933 143.791 157.933 Q139.07 157.933 136.569 154.209 Q134.086 150.467 134.086 143.376 Q134.086 136.267 136.569 132.543 Q139.07 128.8 143.791 128.8 Z" fill="#000000" fill-rule="evenodd" fill-opacity="1" /><polyline clip-path="url(#clip193)" style="stroke:#009af9; stroke-linecap:butt; stroke-linejoin:round; stroke-width:4; stroke-opacity:1; fill:none" points="
  250.72,97.0812 370.768,87.9763 490.816,324.224 610.863,368.39 730.911,408.955 850.959,421.672 971.007,641.517 1091.05,610.337 1211.1,752.498 1331.15,763.805 
  1451.2,919.669 1571.25,933.771 1691.29,1079.33 1811.34,1102.09 1931.39,1246.1 2051.44,1273.34 2171.48,1414.47 2291.53,1445.72 
  "/>
<circle clip-path="url(#clip193)" cx="250.72" cy="97.0812" r="14" fill="#009af9" fill-rule="evenodd" fill-opacity="1" stroke="#000000" stroke-opacity="1" stroke-width="3.2"/>
<circle clip-path="url(#clip193)" cx="370.768" cy="87.9763" r="14" fill="#009af9" fill-rule="evenodd" fill-opacity="1" stroke="#000000" stroke-opacity="1" stroke-width="3.2"/>
<circle clip-path="url(#clip193)" cx="490.816" cy="324.224" r="14" fill="#009af9" fill-rule="evenodd" fill-opacity="1" stroke="#000000" stroke-opacity="1" stroke-width="3.2"/>
<circle clip-path="url(#clip193)" cx="610.863" cy="368.39" r="14" fill="#009af9" fill-rule="evenodd" fill-opacity="1" stroke="#000000" stroke-opacity="1" stroke-width="3.2"/>
<circle clip-path="url(#clip193)" cx="730.911" cy="408.955" r="14" fill="#009af9" fill-rule="evenodd" fill-opacity="1" stroke="#000000" stroke-opacity="1" stroke-width="3.2"/>
<circle clip-path="url(#clip193)" cx="850.959" cy="421.672" r="14" fill="#009af9" fill-rule="evenodd" fill-opacity="1" stroke="#000000" stroke-opacity="1" stroke-width="3.2"/>
<circle clip-path="url(#clip193)" cx="971.007" cy="641.517" r="14" fill="#009af9" fill-rule="evenodd" fill-opacity="1" stroke="#000000" stroke-opacity="1" stroke-width="3.2"/>
<circle clip-path="url(#clip193)" cx="1091.05" cy="610.337" r="14" fill="#009af9" fill-rule="evenodd" fill-opacity="1" stroke="#000000" stroke-opacity="1" stroke-width="3.2"/>
<circle clip-path="url(#clip193)" cx="1211.1" cy="752.498" r="14" fill="#009af9" fill-rule="evenodd" fill-opacity="1" stroke="#000000" stroke-opacity="1" stroke-width="3.2"/>
<circle clip-path="url(#clip193)" cx="1331.15" cy="763.805" r="14" fill="#009af9" fill-rule="evenodd" fill-opacity="1" stroke="#000000" stroke-opacity="1" stroke-width="3.2"/>
<circle clip-path="url(#clip193)" cx="1451.2" cy="919.669" r="14" fill="#009af9" fill-rule="evenodd" fill-opacity="1" stroke="#000000" stroke-opacity="1" stroke-width="3.2"/>
<circle clip-path="url(#clip193)" cx="1571.25" cy="933.771" r="14" fill="#009af9" fill-rule="evenodd" fill-opacity="1" stroke="#000000" stroke-opacity="1" stroke-width="3.2"/>
<circle clip-path="url(#clip193)" cx="1691.29" cy="1079.33" r="14" fill="#009af9" fill-rule="evenodd" fill-opacity="1" stroke="#000000" stroke-opacity="1" stroke-width="3.2"/>
<circle clip-path="url(#clip193)" cx="1811.34" cy="1102.09" r="14" fill="#009af9" fill-rule="evenodd" fill-opacity="1" stroke="#000000" stroke-opacity="1" stroke-width="3.2"/>
<circle clip-path="url(#clip193)" cx="1931.39" cy="1246.1" r="14" fill="#009af9" fill-rule="evenodd" fill-opacity="1" stroke="#000000" stroke-opacity="1" stroke-width="3.2"/>
<circle clip-path="url(#clip193)" cx="2051.44" cy="1273.34" r="14" fill="#009af9" fill-rule="evenodd" fill-opacity="1" stroke="#000000" stroke-opacity="1" stroke-width="3.2"/>
<circle clip-path="url(#clip193)" cx="2171.48" cy="1414.47" r="14" fill="#009af9" fill-rule="evenodd" fill-opacity="1" stroke="#000000" stroke-opacity="1" stroke-width="3.2"/>
<circle clip-path="url(#clip193)" cx="2291.53" cy="1445.72" r="14" fill="#009af9" fill-rule="evenodd" fill-opacity="1" stroke="#000000" stroke-opacity="1" stroke-width="3.2"/>
<polyline clip-path="url(#clip193)" style="stroke:#e26f46; stroke-linecap:butt; stroke-linejoin:round; stroke-width:4; stroke-opacity:1; fill:none" points="
  250.72,302.231 255.703,303.996 260.685,305.738 265.668,307.456 270.65,309.151 293.686,316.712 316.721,323.852 339.757,330.617 362.792,337.043 408.863,349.004 
  454.934,359.946 482.621,366.1 510.307,371.972 537.994,377.588 565.681,382.969 612.498,391.584 659.315,399.658 710.172,407.889 761.029,415.624 807.915,422.365 
  854.8,428.77 955.333,441.513 1071.81,454.852 1175.32,465.645 1266.09,474.417 1365.05,483.344 1464.6,491.738 1574.67,500.423 1679.4,508.175 1788.29,515.767 
  1879.95,521.828 1991.86,528.86 2097.06,535.137 2265.59,544.595 2291.53,545.99 
  "/>
<polyline clip-path="url(#clip193)" style="stroke:#3da44d; stroke-linecap:butt; stroke-linejoin:round; stroke-width:4; stroke-opacity:1; fill:none" points="
  250.72,443.391 255.703,446.922 260.685,450.405 265.668,453.841 270.65,457.232 282.168,464.904 293.686,472.353 305.204,479.593 316.721,486.634 339.757,500.163 
  362.792,513.015 385.828,525.254 408.863,536.937 431.898,548.112 454.934,558.822 482.621,571.129 510.307,582.874 537.994,594.106 565.681,604.867 612.498,622.097 
  659.315,638.244 710.172,654.706 761.029,670.177 807.915,683.659 854.8,696.469 955.333,721.955 1071.81,748.633 1175.32,770.219 1266.09,787.762 1365.05,805.616 
  1464.6,822.406 1574.67,839.775 1679.4,855.278 1788.29,870.464 1879.95,882.586 1991.86,896.65 2097.06,909.204 2265.59,928.119 2291.53,930.91 
  "/>
<polyline clip-path="url(#clip193)" style="stroke:#c271d2; stroke-linecap:butt; stroke-linejoin:round; stroke-width:4; stroke-opacity:1; fill:none" points="
  250.72,584.551 255.703,589.847 260.685,595.071 265.668,600.226 270.65,605.313 282.168,616.821 293.686,627.995 305.204,638.854 316.721,649.416 328.239,659.696 
  339.757,669.709 351.274,679.468 362.792,688.986 385.828,707.346 408.863,724.871 431.898,741.633 454.934,757.697 482.621,776.158 510.307,793.776 537.994,810.623 
  565.681,826.765 612.498,852.61 659.315,876.831 761.029,924.73 854.8,964.167 955.333,1002.4 1071.81,1042.41 1175.32,1074.79 1266.09,1101.11 1365.05,1127.89 
  1464.6,1153.07 1574.67,1179.13 1679.4,1202.38 1788.29,1225.16 1879.95,1243.34 1991.86,1264.44 2097.06,1283.27 2265.59,1311.64 2291.53,1315.83 
  "/>
<path clip-path="url(#clip190)" d="
M1961.82 354.418 L2280.65 354.418 L2280.65 95.2176 L1961.82 95.2176  Z
  " fill="#ffffff" fill-rule="evenodd" fill-opacity="1"/>
<polyline clip-path="url(#clip190)" style="stroke:#000000; stroke-linecap:butt; stroke-linejoin:round; stroke-width:4; stroke-opacity:1; fill:none" points="
  1961.82,354.418 2280.65,354.418 2280.65,95.2176 1961.82,95.2176 1961.82,354.418 
  "/>
<polyline clip-path="url(#clip190)" style="stroke:#009af9; stroke-linecap:butt; stroke-linejoin:round; stroke-width:4; stroke-opacity:1; fill:none" points="
  1985.86,147.058 2130.08,147.058 
  "/>
<circle clip-path="url(#clip190)" cx="2057.97" cy="147.058" r="23" fill="#009af9" fill-rule="evenodd" fill-opacity="1" stroke="#000000" stroke-opacity="1" stroke-width="5.12"/>
<path clip-path="url(#clip190)" d="M2167.96 166.745 Q2166.15 171.375 2164.44 172.787 Q2162.72 174.199 2159.85 174.199 L2156.45 174.199 L2156.45 170.634 L2158.95 170.634 Q2160.71 170.634 2161.68 169.8 Q2162.65 168.967 2163.83 165.865 L2164.6 163.921 L2154.11 138.412 L2158.63 138.412 L2166.73 158.689 L2174.83 138.412 L2179.34 138.412 L2167.96 166.745 Z" fill="#000000" fill-rule="evenodd" fill-opacity="1" /><path clip-path="url(#clip190)" d="M2186.64 160.402 L2194.27 160.402 L2194.27 134.037 L2185.96 135.703 L2185.96 131.444 L2194.23 129.778 L2198.9 129.778 L2198.9 160.402 L2206.54 160.402 L2206.54 164.338 L2186.64 164.338 L2186.64 160.402 Z" fill="#000000" fill-rule="evenodd" fill-opacity="1" /><polyline clip-path="url(#clip190)" style="stroke:#e26f46; stroke-linecap:butt; stroke-linejoin:round; stroke-width:4; stroke-opacity:1; fill:none" points="
  1985.86,198.898 2130.08,198.898 
  "/>
<path clip-path="url(#clip190)" d="M2180.11 210.013 Q2180.11 210.201 2179.9 210.927 Q2179.69 211.653 2179.17 212.777 Q2178.68 213.901 2178 214.932 Q2177.32 215.939 2176.2 216.689 Q2175.1 217.415 2173.83 217.415 Q2172.15 217.415 2171.02 216.291 Q2169.9 215.166 2169.9 213.48 Q2169.9 212.543 2170.39 211.255 Q2173.51 202.94 2173.51 200.082 Q2173.51 196.733 2170.91 196.733 Q2169.62 196.733 2168.4 197.225 Q2167.21 197.693 2166.39 198.349 Q2165.57 199.005 2164.82 199.918 Q2164.09 200.808 2163.72 201.417 Q2163.36 202.003 2163.08 202.588 L2162.47 204.977 Q2162.33 205.633 2161.65 208.186 L2160.6 212.519 Q2159.85 215.752 2159.69 216.056 Q2159.45 216.712 2158.94 217.063 Q2158.42 217.415 2157.91 217.415 Q2157.32 217.415 2156.92 217.063 Q2156.53 216.712 2156.53 216.103 Q2156.53 216.009 2156.6 215.658 Q2156.67 215.307 2156.78 214.815 Q2156.9 214.323 2156.95 214.042 L2159.73 202.963 Q2160.25 200.949 2160.37 200.316 Q2160.51 199.661 2160.51 198.934 Q2160.51 196.733 2159.01 196.733 Q2157.79 196.733 2156.99 198.185 Q2156.2 199.637 2155.52 202.448 Q2155.31 203.221 2155.17 203.385 Q2155.05 203.549 2154.7 203.549 Q2154.11 203.525 2154.11 203.057 Q2154.11 202.94 2154.3 202.167 Q2154.49 201.394 2154.84 200.293 Q2155.21 199.169 2155.56 198.419 Q2155.87 197.857 2156.03 197.599 Q2156.22 197.318 2156.67 196.78 Q2157.13 196.217 2157.74 195.96 Q2158.38 195.679 2159.15 195.679 Q2160.88 195.679 2162.15 196.803 Q2163.41 197.904 2163.58 199.848 Q2166.69 195.679 2171.05 195.679 Q2173.62 195.679 2175.1 197.037 Q2176.57 198.396 2176.57 200.808 Q2176.57 201.37 2176.46 202.097 Q2176.36 202.799 2176.13 203.689 Q2175.92 204.579 2175.73 205.259 Q2175.54 205.938 2175.17 207.039 Q2174.79 208.116 2174.63 208.585 Q2174.47 209.053 2174.07 210.154 Q2173.69 211.231 2173.65 211.348 Q2172.78 213.527 2172.78 214.768 Q2172.78 215.588 2173.04 215.963 Q2173.32 216.337 2173.93 216.337 Q2175.57 216.337 2176.79 214.721 Q2178.03 213.082 2178.82 210.411 Q2179.01 209.826 2179.1 209.685 Q2179.22 209.545 2179.55 209.545 Q2180.11 209.545 2180.11 210.013 Z" fill="#000000" fill-rule="evenodd" fill-opacity="1" /><path clip-path="url(#clip190)" d="M2207.13 193.666 Q2207.33 193.863 2207.33 194.142 Q2207.33 194.42 2207.13 194.617 Q2206.94 194.814 2206.66 194.814 L2185.64 194.814 Q2185.36 194.814 2185.16 194.617 Q2184.97 194.42 2184.97 194.142 Q2184.97 193.863 2185.16 193.666 Q2185.36 193.469 2185.64 193.469 L2206.66 193.469 Q2206.94 193.469 2207.13 193.666 Z" fill="#000000" fill-rule="evenodd" fill-opacity="1" /><path clip-path="url(#clip190)" d="M2210.83 183.37 L2210.83 182.32 Q2214.86 182.32 2216.95 180.172 Q2217.52 180.172 2217.62 180.304 Q2217.72 180.435 2217.72 181.041 L2217.72 199.88 Q2217.72 200.88 2218.21 201.192 Q2218.7 201.503 2220.85 201.503 L2221.91 201.503 L2221.91 202.536 Q2220.73 202.438 2216.47 202.438 Q2212.21 202.438 2211.04 202.536 L2211.04 201.503 L2212.11 201.503 Q2214.22 201.503 2214.73 201.208 Q2215.24 200.897 2215.24 199.88 L2215.24 182.484 Q2213.49 183.37 2210.83 183.37 Z" fill="#000000" fill-rule="evenodd" fill-opacity="1" /><polyline clip-path="url(#clip190)" style="stroke:#3da44d; stroke-linecap:butt; stroke-linejoin:round; stroke-width:4; stroke-opacity:1; fill:none" points="
  1985.86,250.738 2130.08,250.738 
  "/>
<path clip-path="url(#clip190)" d="M2180.11 261.853 Q2180.11 262.041 2179.9 262.767 Q2179.69 263.493 2179.17 264.617 Q2178.68 265.741 2178 266.772 Q2177.32 267.779 2176.2 268.529 Q2175.1 269.255 2173.83 269.255 Q2172.15 269.255 2171.02 268.131 Q2169.9 267.006 2169.9 265.32 Q2169.9 264.383 2170.39 263.095 Q2173.51 254.78 2173.51 251.922 Q2173.51 248.573 2170.91 248.573 Q2169.62 248.573 2168.4 249.065 Q2167.21 249.533 2166.39 250.189 Q2165.57 250.845 2164.82 251.758 Q2164.09 252.648 2163.72 253.257 Q2163.36 253.843 2163.08 254.428 L2162.47 256.817 Q2162.33 257.473 2161.65 260.026 L2160.6 264.359 Q2159.85 267.592 2159.69 267.896 Q2159.45 268.552 2158.94 268.903 Q2158.42 269.255 2157.91 269.255 Q2157.32 269.255 2156.92 268.903 Q2156.53 268.552 2156.53 267.943 Q2156.53 267.849 2156.6 267.498 Q2156.67 267.147 2156.78 266.655 Q2156.9 266.163 2156.95 265.882 L2159.73 254.803 Q2160.25 252.789 2160.37 252.156 Q2160.51 251.501 2160.51 250.774 Q2160.51 248.573 2159.01 248.573 Q2157.79 248.573 2156.99 250.025 Q2156.2 251.477 2155.52 254.288 Q2155.31 255.061 2155.17 255.225 Q2155.05 255.389 2154.7 255.389 Q2154.11 255.365 2154.11 254.897 Q2154.11 254.78 2154.3 254.007 Q2154.49 253.234 2154.84 252.133 Q2155.21 251.009 2155.56 250.259 Q2155.87 249.697 2156.03 249.439 Q2156.22 249.158 2156.67 248.62 Q2157.13 248.057 2157.74 247.8 Q2158.38 247.519 2159.15 247.519 Q2160.88 247.519 2162.15 248.643 Q2163.41 249.744 2163.58 251.688 Q2166.69 247.519 2171.05 247.519 Q2173.62 247.519 2175.1 248.877 Q2176.57 250.236 2176.57 252.648 Q2176.57 253.21 2176.46 253.937 Q2176.36 254.639 2176.13 255.529 Q2175.92 256.419 2175.73 257.099 Q2175.54 257.778 2175.17 258.879 Q2174.79 259.956 2174.63 260.425 Q2174.47 260.893 2174.07 261.994 Q2173.69 263.071 2173.65 263.188 Q2172.78 265.367 2172.78 266.608 Q2172.78 267.428 2173.04 267.803 Q2173.32 268.177 2173.93 268.177 Q2175.57 268.177 2176.79 266.561 Q2178.03 264.922 2178.82 262.251 Q2179.01 261.666 2179.1 261.525 Q2179.22 261.385 2179.55 261.385 Q2180.11 261.385 2180.11 261.853 Z" fill="#000000" fill-rule="evenodd" fill-opacity="1" /><path clip-path="url(#clip190)" d="M2207.13 245.506 Q2207.33 245.703 2207.33 245.982 Q2207.33 246.26 2207.13 246.457 Q2206.94 246.654 2206.66 246.654 L2185.64 246.654 Q2185.36 246.654 2185.16 246.457 Q2184.97 246.26 2184.97 245.982 Q2184.97 245.703 2185.16 245.506 Q2185.36 245.309 2185.64 245.309 L2206.66 245.309 Q2206.94 245.309 2207.13 245.506 Z" fill="#000000" fill-rule="evenodd" fill-opacity="1" /><path clip-path="url(#clip190)" d="M2210.83 254.376 Q2210.83 253.77 2210.88 253.589 Q2210.94 253.409 2211.21 253.13 L2217.65 245.949 Q2221.18 241.981 2221.18 238.522 Q2221.18 236.275 2219.99 234.669 Q2218.83 233.062 2216.68 233.062 Q2215.21 233.062 2213.96 233.964 Q2212.72 234.865 2212.14 236.472 Q2212.24 236.439 2212.58 236.439 Q2213.42 236.439 2213.88 236.964 Q2214.35 237.489 2214.35 238.194 Q2214.35 239.095 2213.76 239.538 Q2213.19 239.964 2212.62 239.964 Q2212.39 239.964 2212.08 239.915 Q2211.78 239.866 2211.31 239.407 Q2210.83 238.931 2210.83 238.095 Q2210.83 235.751 2212.6 233.882 Q2214.39 232.012 2217.11 232.012 Q2220.19 232.012 2222.21 233.849 Q2224.24 235.669 2224.24 238.522 Q2224.24 239.522 2223.93 240.44 Q2223.63 241.342 2223.22 242.047 Q2222.83 242.752 2221.75 243.883 Q2220.67 245.014 2219.8 245.818 Q2218.93 246.621 2216.98 248.326 L2213.42 251.786 L2219.47 251.786 Q2222.42 251.786 2222.65 251.523 Q2222.98 251.048 2223.39 248.539 L2224.24 248.539 L2223.29 254.376 L2210.83 254.376 Z" fill="#000000" fill-rule="evenodd" fill-opacity="1" /><polyline clip-path="url(#clip190)" style="stroke:#c271d2; stroke-linecap:butt; stroke-linejoin:round; stroke-width:4; stroke-opacity:1; fill:none" points="
  1985.86,302.578 2130.08,302.578 
  "/>
<path clip-path="url(#clip190)" d="M2180.11 314.06 Q2180.11 314.247 2179.9 314.973 Q2179.69 315.699 2179.17 316.824 Q2178.68 317.948 2178 318.978 Q2177.32 319.986 2176.2 320.735 Q2175.1 321.461 2173.83 321.461 Q2172.15 321.461 2171.02 320.337 Q2169.9 319.213 2169.9 317.526 Q2169.9 316.589 2170.39 315.301 Q2173.51 306.986 2173.51 304.129 Q2173.51 300.779 2170.91 300.779 Q2169.62 300.779 2168.4 301.271 Q2167.21 301.739 2166.39 302.395 Q2165.57 303.051 2164.82 303.965 Q2164.09 304.855 2163.72 305.464 Q2163.36 306.049 2163.08 306.635 L2162.47 309.024 Q2162.33 309.68 2161.65 312.233 L2160.6 316.566 Q2159.85 319.798 2159.69 320.103 Q2159.45 320.759 2158.94 321.11 Q2158.42 321.461 2157.91 321.461 Q2157.32 321.461 2156.92 321.11 Q2156.53 320.759 2156.53 320.15 Q2156.53 320.056 2156.6 319.705 Q2156.67 319.353 2156.78 318.861 Q2156.9 318.369 2156.95 318.088 L2159.73 307.01 Q2160.25 304.995 2160.37 304.363 Q2160.51 303.707 2160.51 302.981 Q2160.51 300.779 2159.01 300.779 Q2157.79 300.779 2156.99 302.231 Q2156.2 303.684 2155.52 306.494 Q2155.31 307.267 2155.17 307.431 Q2155.05 307.595 2154.7 307.595 Q2154.11 307.572 2154.11 307.103 Q2154.11 306.986 2154.3 306.213 Q2154.49 305.44 2154.84 304.339 Q2155.21 303.215 2155.56 302.466 Q2155.87 301.903 2156.03 301.646 Q2156.22 301.365 2156.67 300.826 Q2157.13 300.264 2157.74 300.006 Q2158.38 299.725 2159.15 299.725 Q2160.88 299.725 2162.15 300.849 Q2163.41 301.95 2163.58 303.894 Q2166.69 299.725 2171.05 299.725 Q2173.62 299.725 2175.1 301.084 Q2176.57 302.442 2176.57 304.855 Q2176.57 305.417 2176.46 306.143 Q2176.36 306.846 2176.13 307.736 Q2175.92 308.626 2175.73 309.305 Q2175.54 309.984 2175.17 311.085 Q2174.79 312.162 2174.63 312.631 Q2174.47 313.099 2174.07 314.2 Q2173.69 315.278 2173.65 315.395 Q2172.78 317.573 2172.78 318.814 Q2172.78 319.634 2173.04 320.009 Q2173.32 320.384 2173.93 320.384 Q2175.57 320.384 2176.79 318.768 Q2178.03 317.128 2178.82 314.458 Q2179.01 313.872 2179.1 313.732 Q2179.22 313.591 2179.55 313.591 Q2180.11 313.591 2180.11 314.06 Z" fill="#000000" fill-rule="evenodd" fill-opacity="1" /><path clip-path="url(#clip190)" d="M2207.13 296.98 Q2207.33 297.176 2207.33 297.455 Q2207.33 297.734 2207.13 297.931 Q2206.94 298.127 2206.66 298.127 L2185.64 298.127 Q2185.36 298.127 2185.16 297.931 Q2184.97 297.734 2184.97 297.455 Q2184.97 297.176 2185.16 296.98 Q2185.36 296.783 2185.64 296.783 L2206.66 296.783 Q2206.94 296.783 2207.13 296.98 Z" fill="#000000" fill-rule="evenodd" fill-opacity="1" /><path clip-path="url(#clip190)" d="M2210.83 301.325 Q2210.83 300.324 2211.4 299.849 Q2211.98 299.374 2212.72 299.374 Q2213.49 299.374 2214.03 299.882 Q2214.58 300.374 2214.58 301.243 Q2214.58 302.177 2213.93 302.702 Q2213.29 303.227 2212.37 303.095 Q2213.17 304.44 2214.65 305.046 Q2216.14 305.653 2217.52 305.653 Q2218.96 305.653 2220.13 304.407 Q2221.31 303.161 2221.31 300.111 Q2221.31 297.521 2220.29 296.029 Q2219.29 294.537 2217.31 294.537 L2215.83 294.537 Q2215.32 294.537 2215.17 294.488 Q2215.03 294.438 2215.03 294.16 Q2215.03 293.832 2215.54 293.766 Q2216.04 293.766 2216.85 293.668 Q2218.8 293.602 2219.83 291.913 Q2220.77 290.339 2220.77 288.093 Q2220.77 286.044 2219.78 285.191 Q2218.81 284.322 2217.55 284.322 Q2216.37 284.322 2215.08 284.814 Q2213.78 285.306 2213.08 286.405 Q2215.16 286.405 2215.16 288.093 Q2215.16 288.831 2214.68 289.323 Q2214.22 289.798 2213.45 289.798 Q2212.72 289.798 2212.22 289.339 Q2211.73 288.864 2211.73 288.06 Q2211.73 286.142 2213.44 284.814 Q2215.16 283.486 2217.68 283.486 Q2220.18 283.486 2222.01 284.798 Q2223.86 286.109 2223.86 288.126 Q2223.86 290.11 2222.55 291.733 Q2221.24 293.356 2219.16 294.029 Q2221.72 294.537 2223.24 296.275 Q2224.77 297.996 2224.77 300.111 Q2224.77 302.735 2222.7 304.669 Q2220.63 306.588 2217.62 306.588 Q2214.83 306.588 2212.83 305.079 Q2210.83 303.571 2210.83 301.325 Z" fill="#000000" fill-rule="evenodd" fill-opacity="1" /></svg>
