<?xml version="1.0" encoding="utf-8"?>
<svg xmlns="http://www.w3.org/2000/svg" xmlns:xlink="http://www.w3.org/1999/xlink" width="600" height="400" viewBox="0 0 2400 1600">
<defs>
  <clipPath id="clip310">
    <rect x="0" y="0" width="2400" height="1600"/>
  </clipPath>
</defs>
<path clip-path="url(#clip310)" d="
M0 1600 L2400 1600 L2400 0 L0 0  Z
  " fill="#ffffff" fill-rule="evenodd" fill-opacity="1"/>
<defs>
  <clipPath id="clip311">
    <rect x="480" y="0" width="1681" height="1600"/>
  </clipPath>
</defs>
<path clip-path="url(#clip310)" d="
M149.191 1486.45 L2352.76 1486.45 L2352.76 47.2441 L149.191 47.2441  Z
  " fill="#ffffff" fill-rule="evenodd" fill-opacity="1"/>
<defs>
  <clipPath id="clip312">
    <rect x="149" y="47" width="2205" height="1440"/>
  </clipPath>
</defs>
<polyline clip-path="url(#clip312)" style="stroke:#000000; stroke-linecap:butt; stroke-linejoin:round; stroke-width:2; stroke-opacity:0.1; fill:none" points="
  211.556,1486.45 211.556,47.2441 
  "/>
<polyline clip-path="url(#clip312)" style="stroke:#000000; stroke-linecap:butt; stroke-linejoin:round; stroke-width:2; stroke-opacity:0.1; fill:none" points="
  731.265,1486.45 731.265,47.2441 
  "/>
<polyline clip-path="url(#clip312)" style="stroke:#000000; stroke-linecap:butt; stroke-linejoin:round; stroke-width:2; stroke-opacity:0.1; fill:none" points="
  1250.97,1486.45 1250.97,47.2441 
  "/>
<polyline clip-path="url(#clip312)" style="stroke:#000000; stroke-linecap:butt; stroke-linejoin:round; stroke-width:2; stroke-opacity:0.1; fill:none" points="
  1770.68,1486.45 1770.68,47.2441 
  "/>
<polyline clip-path="url(#clip312)" style="stroke:#000000; stroke-linecap:butt; stroke-linejoin:round; stroke-width:2; stroke-opacity:0.1; fill:none" points="
  2290.39,1486.45 2290.39,47.2441 
  "/>
<polyline clip-path="url(#clip310)" style="stroke:#000000; stroke-linecap:butt; stroke-linejoin:round; stroke-width:4; stroke-opacity:1; fill:none" points="
  149.191,1486.45 2352.76,1486.45 
  "/>
<polyline clip-path="url(#clip310)" style="stroke:#000000; stroke-linecap:butt; stroke-linejoin:round; stroke-width:4; stroke-opacity:1; fill:none" points="
  211.556,1486.45 211.556,1467.55 
  "/>
<polyline clip-path="url(#clip310)" style="stroke:#000000; stroke-linecap:butt; stroke-linejoin:round; stroke-width:4; stroke-opacity:1; fill:none" points="
  731.265,1486.45 731.265,1467.55 
  "/>
<polyline clip-path="url(#clip310)" style="stroke:#000000; stroke-linecap:butt; stroke-linejoin:round; stroke-width:4; stroke-opacity:1; fill:none" points="
  1250.97,1486.45 1250.97,1467.55 
  "/>
<polyline clip-path="url(#clip310)" style="stroke:#000000; stroke-linecap:butt; stroke-linejoin:round; stroke-width:4; stroke-opacity:1; fill:none" points="
  1770.68,1486.45 1770.68,1467.55 
  "/>
<polyline clip-path="url(#clip310)" style="stroke:#000000; stroke-linecap:butt; stroke-linejoin:round; stroke-width:4; stroke-opacity:1; fill:none" points="
  2290.39,1486.45 2290.39,1467.55 
  "/>
<path clip-path="url(#clip310)" d="M158.084 1532.02 L187.76 1532.02 L187.76 1535.95 L158.084 1535.95 L158.084 1532.02 Z" fill="#000000" fill-rule="evenodd" fill-opacity="1" /><path clip-path="url(#clip310)" d="M198.662 1544.91 L206.301 1544.91 L206.301 1518.55 L197.991 1520.21 L197.991 1515.95 L206.255 1514.29 L210.931 1514.29 L210.931 1544.91 L218.57 1544.91 L218.57 1548.85 L198.662 1548.85 L198.662 1544.91 Z" fill="#000000" fill-rule="evenodd" fill-opacity="1" /><path clip-path="url(#clip310)" d="M228.014 1542.97 L232.898 1542.97 L232.898 1548.85 L228.014 1548.85 L228.014 1542.97 Z" fill="#000000" fill-rule="evenodd" fill-opacity="1" /><path clip-path="url(#clip310)" d="M253.083 1517.37 Q249.472 1517.37 247.644 1520.93 Q245.838 1524.47 245.838 1531.6 Q245.838 1538.71 247.644 1542.27 Q249.472 1545.82 253.083 1545.82 Q256.718 1545.82 258.523 1542.27 Q260.352 1538.71 260.352 1531.6 Q260.352 1524.47 258.523 1520.93 Q256.718 1517.37 253.083 1517.37 M253.083 1513.66 Q258.894 1513.66 261.949 1518.27 Q265.028 1522.85 265.028 1531.6 Q265.028 1540.33 261.949 1544.94 Q258.894 1549.52 253.083 1549.52 Q247.273 1549.52 244.195 1544.94 Q241.139 1540.33 241.139 1531.6 Q241.139 1522.85 244.195 1518.27 Q247.273 1513.66 253.083 1513.66 Z" fill="#000000" fill-rule="evenodd" fill-opacity="1" /><path clip-path="url(#clip310)" d="M678.29 1532.02 L707.966 1532.02 L707.966 1535.95 L678.29 1535.95 L678.29 1532.02 Z" fill="#000000" fill-rule="evenodd" fill-opacity="1" /><path clip-path="url(#clip310)" d="M728.059 1517.37 Q724.448 1517.37 722.619 1520.93 Q720.813 1524.47 720.813 1531.6 Q720.813 1538.71 722.619 1542.27 Q724.448 1545.82 728.059 1545.82 Q731.693 1545.82 733.498 1542.27 Q735.327 1538.71 735.327 1531.6 Q735.327 1524.47 733.498 1520.93 Q731.693 1517.37 728.059 1517.37 M728.059 1513.66 Q733.869 1513.66 736.924 1518.27 Q740.003 1522.85 740.003 1531.6 Q740.003 1540.33 736.924 1544.94 Q733.869 1549.52 728.059 1549.52 Q722.248 1549.52 719.17 1544.94 Q716.114 1540.33 716.114 1531.6 Q716.114 1522.85 719.17 1518.27 Q722.248 1513.66 728.059 1513.66 Z" fill="#000000" fill-rule="evenodd" fill-opacity="1" /><path clip-path="url(#clip310)" d="M748.221 1542.97 L753.105 1542.97 L753.105 1548.85 L748.221 1548.85 L748.221 1542.97 Z" fill="#000000" fill-rule="evenodd" fill-opacity="1" /><path clip-path="url(#clip310)" d="M763.336 1514.29 L781.693 1514.29 L781.693 1518.22 L767.619 1518.22 L767.619 1526.7 Q768.637 1526.35 769.656 1526.19 Q770.674 1526 771.693 1526 Q777.48 1526 780.859 1529.17 Q784.239 1532.34 784.239 1537.76 Q784.239 1543.34 780.767 1546.44 Q777.294 1549.52 770.975 1549.52 Q768.799 1549.52 766.531 1549.15 Q764.285 1548.78 761.878 1548.04 L761.878 1543.34 Q763.961 1544.47 766.183 1545.03 Q768.406 1545.58 770.882 1545.58 Q774.887 1545.58 777.225 1543.48 Q779.563 1541.37 779.563 1537.76 Q779.563 1534.15 777.225 1532.04 Q774.887 1529.94 770.882 1529.94 Q769.008 1529.94 767.133 1530.35 Q765.281 1530.77 763.336 1531.65 L763.336 1514.29 Z" fill="#000000" fill-rule="evenodd" fill-opacity="1" /><path clip-path="url(#clip310)" d="M1228.36 1517.37 Q1224.75 1517.37 1222.92 1520.93 Q1221.11 1524.47 1221.11 1531.6 Q1221.11 1538.71 1222.92 1542.27 Q1224.75 1545.82 1228.36 1545.82 Q1231.99 1545.82 1233.8 1542.27 Q1235.63 1538.71 1235.63 1531.6 Q1235.63 1524.47 1233.8 1520.93 Q1231.99 1517.37 1228.36 1517.37 M1228.36 1513.66 Q1234.17 1513.66 1237.22 1518.27 Q1240.3 1522.85 1240.3 1531.6 Q1240.3 1540.33 1237.22 1544.94 Q1234.17 1549.52 1228.36 1549.52 Q1222.55 1549.52 1219.47 1544.94 Q1216.41 1540.33 1216.41 1531.6 Q1216.41 1522.85 1219.47 1518.27 Q1222.55 1513.66 1228.36 1513.66 Z" fill="#000000" fill-rule="evenodd" fill-opacity="1" /><path clip-path="url(#clip310)" d="M1248.52 1542.97 L1253.4 1542.97 L1253.4 1548.85 L1248.52 1548.85 L1248.52 1542.97 Z" fill="#000000" fill-rule="evenodd" fill-opacity="1" /><path clip-path="url(#clip310)" d="M1273.59 1517.37 Q1269.98 1517.37 1268.15 1520.93 Q1266.34 1524.47 1266.34 1531.6 Q1266.34 1538.71 1268.15 1542.27 Q1269.98 1545.82 1273.59 1545.82 Q1277.22 1545.82 1279.03 1542.27 Q1280.86 1538.71 1280.86 1531.6 Q1280.86 1524.47 1279.03 1520.93 Q1277.22 1517.37 1273.59 1517.37 M1273.59 1513.66 Q1279.4 1513.66 1282.45 1518.27 Q1285.53 1522.85 1285.53 1531.6 Q1285.53 1540.33 1282.45 1544.94 Q1279.4 1549.52 1273.59 1549.52 Q1267.78 1549.52 1264.7 1544.94 Q1261.64 1540.33 1261.64 1531.6 Q1261.64 1522.85 1264.7 1518.27 Q1267.78 1513.66 1273.59 1513.66 Z" fill="#000000" fill-rule="evenodd" fill-opacity="1" /><path clip-path="url(#clip310)" d="M1748.56 1517.37 Q1744.95 1517.37 1743.12 1520.93 Q1741.32 1524.47 1741.32 1531.6 Q1741.32 1538.71 1743.12 1542.27 Q1744.95 1545.82 1748.56 1545.82 Q1752.2 1545.82 1754 1542.27 Q1755.83 1538.71 1755.83 1531.6 Q1755.83 1524.47 1754 1520.93 Q1752.2 1517.37 1748.56 1517.37 M1748.56 1513.66 Q1754.37 1513.66 1757.43 1518.27 Q1760.51 1522.85 1760.51 1531.6 Q1760.51 1540.33 1757.43 1544.94 Q1754.37 1549.52 1748.56 1549.52 Q1742.75 1549.52 1739.68 1544.94 Q1736.62 1540.33 1736.62 1531.6 Q1736.62 1522.85 1739.68 1518.27 Q1742.75 1513.66 1748.56 1513.66 Z" fill="#000000" fill-rule="evenodd" fill-opacity="1" /><path clip-path="url(#clip310)" d="M1768.73 1542.97 L1773.61 1542.97 L1773.61 1548.85 L1768.73 1548.85 L1768.73 1542.97 Z" fill="#000000" fill-rule="evenodd" fill-opacity="1" /><path clip-path="url(#clip310)" d="M1783.84 1514.29 L1802.2 1514.29 L1802.2 1518.22 L1788.12 1518.22 L1788.12 1526.7 Q1789.14 1526.35 1790.16 1526.19 Q1791.18 1526 1792.2 1526 Q1797.99 1526 1801.36 1529.17 Q1804.74 1532.34 1804.74 1537.76 Q1804.74 1543.34 1801.27 1546.44 Q1797.8 1549.52 1791.48 1549.52 Q1789.3 1549.52 1787.04 1549.15 Q1784.79 1548.78 1782.38 1548.04 L1782.38 1543.34 Q1784.47 1544.47 1786.69 1545.03 Q1788.91 1545.58 1791.39 1545.58 Q1795.39 1545.58 1797.73 1543.48 Q1800.07 1541.37 1800.07 1537.76 Q1800.07 1534.15 1797.73 1532.04 Q1795.39 1529.94 1791.39 1529.94 Q1789.51 1529.94 1787.64 1530.35 Q1785.79 1530.77 1783.84 1531.65 L1783.84 1514.29 Z" fill="#000000" fill-rule="evenodd" fill-opacity="1" /><path clip-path="url(#clip310)" d="M2257.54 1544.91 L2265.18 1544.91 L2265.18 1518.55 L2256.87 1520.21 L2256.87 1515.95 L2265.14 1514.29 L2269.81 1514.29 L2269.81 1544.91 L2277.45 1544.91 L2277.45 1548.85 L2257.54 1548.85 L2257.54 1544.91 Z" fill="#000000" fill-rule="evenodd" fill-opacity="1" /><path clip-path="url(#clip310)" d="M2286.9 1542.97 L2291.78 1542.97 L2291.78 1548.85 L2286.9 1548.85 L2286.9 1542.97 Z" fill="#000000" fill-rule="evenodd" fill-opacity="1" /><path clip-path="url(#clip310)" d="M2311.96 1517.37 Q2308.35 1517.37 2306.53 1520.93 Q2304.72 1524.47 2304.72 1531.6 Q2304.72 1538.71 2306.53 1542.27 Q2308.35 1545.82 2311.96 1545.82 Q2315.6 1545.82 2317.4 1542.27 Q2319.23 1538.71 2319.23 1531.6 Q2319.23 1524.47 2317.4 1520.93 Q2315.6 1517.37 2311.96 1517.37 M2311.96 1513.66 Q2317.77 1513.66 2320.83 1518.27 Q2323.91 1522.85 2323.91 1531.6 Q2323.91 1540.33 2320.83 1544.94 Q2317.77 1549.52 2311.96 1549.52 Q2306.15 1549.52 2303.08 1544.94 Q2300.02 1540.33 2300.02 1531.6 Q2300.02 1522.85 2303.08 1518.27 Q2306.15 1513.66 2311.96 1513.66 Z" fill="#000000" fill-rule="evenodd" fill-opacity="1" /><polyline clip-path="url(#clip312)" style="stroke:#000000; stroke-linecap:butt; stroke-linejoin:round; stroke-width:2; stroke-opacity:0.1; fill:none" points="
  149.191,1448.39 2352.76,1448.39 
  "/>
<polyline clip-path="url(#clip312)" style="stroke:#000000; stroke-linecap:butt; stroke-linejoin:round; stroke-width:2; stroke-opacity:0.1; fill:none" points="
  149.191,1092.52 2352.76,1092.52 
  "/>
<polyline clip-path="url(#clip312)" style="stroke:#000000; stroke-linecap:butt; stroke-linejoin:round; stroke-width:2; stroke-opacity:0.1; fill:none" points="
  149.191,736.646 2352.76,736.646 
  "/>
<polyline clip-path="url(#clip312)" style="stroke:#000000; stroke-linecap:butt; stroke-linejoin:round; stroke-width:2; stroke-opacity:0.1; fill:none" points="
  149.191,380.774 2352.76,380.774 
  "/>
<polyline clip-path="url(#clip310)" style="stroke:#000000; stroke-linecap:butt; stroke-linejoin:round; stroke-width:4; stroke-opacity:1; fill:none" points="
  149.191,1486.45 149.191,47.2441 
  "/>
<polyline clip-path="url(#clip310)" style="stroke:#000000; stroke-linecap:butt; stroke-linejoin:round; stroke-width:4; stroke-opacity:1; fill:none" points="
  149.191,1448.39 168.089,1448.39 
  "/>
<polyline clip-path="url(#clip310)" style="stroke:#000000; stroke-linecap:butt; stroke-linejoin:round; stroke-width:4; stroke-opacity:1; fill:none" points="
  149.191,1092.52 168.089,1092.52 
  "/>
<polyline clip-path="url(#clip310)" style="stroke:#000000; stroke-linecap:butt; stroke-linejoin:round; stroke-width:4; stroke-opacity:1; fill:none" points="
  149.191,736.646 168.089,736.646 
  "/>
<polyline clip-path="url(#clip310)" style="stroke:#000000; stroke-linecap:butt; stroke-linejoin:round; stroke-width:4; stroke-opacity:1; fill:none" points="
  149.191,380.774 168.089,380.774 
  "/>
<path clip-path="url(#clip310)" d="M50.9921 1448.84 L80.6679 1448.84 L80.6679 1452.78 L50.9921 1452.78 L50.9921 1448.84 Z" fill="#000000" fill-rule="evenodd" fill-opacity="1" /><path clip-path="url(#clip310)" d="M103.608 1435.18 L91.8021 1453.63 L103.608 1453.63 L103.608 1435.18 M102.381 1431.11 L108.26 1431.11 L108.26 1453.63 L113.191 1453.63 L113.191 1457.52 L108.26 1457.52 L108.26 1465.67 L103.608 1465.67 L103.608 1457.52 L88.0058 1457.52 L88.0058 1453.01 L102.381 1431.11 Z" fill="#000000" fill-rule="evenodd" fill-opacity="1" /><path clip-path="url(#clip310)" d="M53.0754 1092.97 L82.7512 1092.97 L82.7512 1096.9 L53.0754 1096.9 L53.0754 1092.97 Z" fill="#000000" fill-rule="evenodd" fill-opacity="1" /><path clip-path="url(#clip310)" d="M96.8715 1105.86 L113.191 1105.86 L113.191 1109.8 L91.2465 1109.8 L91.2465 1105.86 Q93.9086 1103.11 98.4919 1098.48 Q103.098 1093.83 104.279 1092.48 Q106.524 1089.96 107.404 1088.22 Q108.307 1086.46 108.307 1084.78 Q108.307 1082.02 106.362 1080.28 Q104.441 1078.55 101.339 1078.55 Q99.14 1078.55 96.6863 1079.31 Q94.2558 1080.08 91.478 1081.63 L91.478 1076.9 Q94.3021 1075.77 96.7558 1075.19 Q99.2095 1074.61 101.246 1074.61 Q106.617 1074.61 109.811 1077.3 Q113.006 1079.98 113.006 1084.47 Q113.006 1086.6 112.196 1088.52 Q111.408 1090.42 109.302 1093.02 Q108.723 1093.69 105.621 1096.9 Q102.52 1100.1 96.8715 1105.86 Z" fill="#000000" fill-rule="evenodd" fill-opacity="1" /><path clip-path="url(#clip310)" d="M101.246 722.445 Q97.6354 722.445 95.8067 726.01 Q94.0012 729.551 94.0012 736.681 Q94.0012 743.787 95.8067 747.352 Q97.6354 750.894 101.246 750.894 Q104.881 750.894 106.686 747.352 Q108.515 743.787 108.515 736.681 Q108.515 729.551 106.686 726.01 Q104.881 722.445 101.246 722.445 M101.246 718.741 Q107.057 718.741 110.112 723.348 Q113.191 727.931 113.191 736.681 Q113.191 745.408 110.112 750.014 Q107.057 754.598 101.246 754.598 Q95.4363 754.598 92.3576 750.014 Q89.3021 745.408 89.3021 736.681 Q89.3021 727.931 92.3576 723.348 Q95.4363 718.741 101.246 718.741 Z" fill="#000000" fill-rule="evenodd" fill-opacity="1" /><path clip-path="url(#clip310)" d="M96.8715 394.119 L113.191 394.119 L113.191 398.054 L91.2465 398.054 L91.2465 394.119 Q93.9086 391.365 98.4919 386.735 Q103.098 382.082 104.279 380.74 Q106.524 378.217 107.404 376.481 Q108.307 374.721 108.307 373.031 Q108.307 370.277 106.362 368.541 Q104.441 366.805 101.339 366.805 Q99.14 366.805 96.6863 367.569 Q94.2558 368.332 91.478 369.883 L91.478 365.161 Q94.3021 364.027 96.7558 363.448 Q99.2095 362.869 101.246 362.869 Q106.617 362.869 109.811 365.555 Q113.006 368.24 113.006 372.731 Q113.006 374.86 112.196 376.781 Q111.408 378.68 109.302 381.272 Q108.723 381.943 105.621 385.161 Q102.52 388.355 96.8715 394.119 Z" fill="#000000" fill-rule="evenodd" fill-opacity="1" /><polyline clip-path="url(#clip312)" style="stroke:#009af9; stroke-linecap:butt; stroke-linejoin:round; stroke-width:16; stroke-opacity:1; fill:none" points="
  211.556,558.71 232.554,599.977 253.553,633.218 274.551,659.737 295.549,680.66 316.548,696.961 337.546,709.475 358.544,718.914 379.543,725.882 400.541,730.889 
  421.539,734.359 442.538,736.646 463.536,738.041 484.534,738.779 505.533,739.05 526.531,739.004 547.529,738.757 568.528,738.399 589.526,737.995 610.524,737.593 
  631.523,737.222 652.521,736.903 673.519,736.646 694.518,736.454 715.516,736.324 736.514,736.25 757.513,736.225 778.511,736.239 799.509,736.283 820.508,736.346 
  841.506,736.422 862.504,736.5 883.503,736.577 904.501,736.646 925.499,736.704 946.498,736.749 967.496,736.78 988.494,736.796 1009.49,736.799 1030.49,736.79 
  1051.49,736.77 1072.49,736.744 1093.49,736.713 1114.48,736.679 1135.48,736.646 1156.48,736.616 1177.48,736.59 1198.48,736.57 1219.48,736.557 1240.47,736.551 
  1261.47,736.553 1282.47,736.562 1303.47,736.577 1324.47,736.597 1345.47,736.621 1366.46,736.646 1387.46,736.672 1408.46,736.695 1429.46,736.715 1450.46,736.73 
  1471.46,736.739 1492.45,736.741 1513.45,736.736 1534.45,736.723 1555.45,736.703 1576.45,736.677 1597.45,736.646 1618.44,736.613 1639.44,736.58 1660.44,736.549 
  1681.44,736.522 1702.44,736.503 1723.44,736.494 1744.43,736.496 1765.43,736.513 1786.43,736.543 1807.43,736.588 1828.43,736.646 1849.43,736.715 1870.42,736.792 
  1891.42,736.871 1912.42,736.946 1933.42,737.01 1954.42,737.053 1975.42,737.067 1996.41,737.042 2017.41,736.969 2038.41,736.839 2059.41,736.646 2080.41,736.389 
  2101.41,736.07 2122.4,735.7 2143.4,735.297 2164.4,734.893 2185.4,734.535 2206.4,734.289 2227.4,734.243 2248.39,734.514 2269.39,735.252 2290.39,736.646 
  
  "/>
<polyline clip-path="url(#clip312)" style="stroke:#e26f46; stroke-linecap:butt; stroke-linejoin:round; stroke-width:16; stroke-opacity:1; fill:none" points="
  211.556,736.646 232.554,613.644 253.553,529.791 274.551,477.076 295.549,448.716 316.548,439.008 337.546,443.199 358.544,457.368 379.543,478.316 400.541,503.47 
  421.539,530.793 442.538,558.71 463.536,586.031 484.534,611.893 505.533,635.702 526.531,657.087 547.529,675.852 568.528,691.946 589.526,705.423 610.524,716.42 
  631.523,725.131 652.521,731.789 673.519,736.646 694.518,739.964 715.516,742.002 736.514,743.008 757.513,743.213 778.511,742.826 799.509,742.033 820.508,740.994 
  841.506,739.84 862.504,738.68 883.503,737.595 904.501,736.646 925.499,735.872 946.498,735.292 967.496,734.913 988.494,734.726 1009.49,734.713 1030.49,734.85 
  1051.49,735.104 1072.49,735.444 1093.49,735.836 1114.48,736.247 1135.48,736.646 1156.48,737.009 1177.48,737.314 1198.48,737.544 1219.48,737.691 1240.47,737.749 
  1261.47,737.721 1282.47,737.613 1303.47,737.435 1324.47,737.202 1345.47,736.933 1366.46,736.646 1387.46,736.362 1408.46,736.1 1429.46,735.879 1450.46,735.715 
  1471.46,735.62 1492.45,735.602 1513.45,735.667 1534.45,735.813 1555.45,736.033 1576.45,736.316 1597.45,736.646 1618.44,737.002 1639.44,737.36 1660.44,737.692 
  1681.44,737.973 1702.44,738.173 1723.44,738.267 1744.43,738.235 1765.43,738.06 1786.43,737.734 1807.43,737.259 1828.43,736.646 1849.43,735.921 1870.42,735.122 
  1891.42,734.301 1912.42,733.524 1933.42,732.869 1954.42,732.424 1975.42,732.287 1996.41,732.554 2017.41,733.319 2038.41,734.664 2059.41,736.646 2080.41,739.285 
  2101.41,742.549 2122.4,746.334 2143.4,750.438 2164.4,754.539 2185.4,758.162 2206.4,760.64 2227.4,761.076 2248.39,758.294 2269.39,750.784 2290.39,736.646 
  
  "/>
<polyline clip-path="url(#clip312)" style="stroke:#3da44d; stroke-linecap:butt; stroke-linejoin:round; stroke-width:16; stroke-opacity:1; fill:none" points="
  211.556,736.646 232.554,970.936 253.553,1108.99 274.551,1173.82 295.549,1184.54 316.548,1156.84 337.546,1103.46 358.544,1034.54 379.543,958.072 400.541,880.14 
  421.539,805.264 442.538,736.646 463.536,676.4 484.534,625.755 505.533,585.23 526.531,554.796 547.529,533.999 568.528,522.083 589.526,518.081 610.524,520.898 
  631.523,529.378 652.521,542.358 673.519,558.71 694.518,577.375 715.516,597.387 736.514,617.889 757.513,638.144 778.511,657.541 799.509,675.592 820.508,691.931 
  841.506,706.307 862.504,718.572 883.503,728.675 904.501,736.646 925.499,742.584 946.498,746.644 967.496,749.026 988.494,749.96 1009.49,749.693 1030.49,748.483 
  1051.49,746.583 1072.49,744.237 1093.49,741.67 1114.48,739.082 1135.48,736.646 1156.48,734.502 1177.48,732.754 1198.48,731.474 1219.48,730.7 1240.47,730.436 
  1261.47,730.657 1282.47,731.315 1303.47,732.336 1324.47,733.633 1345.47,735.105 1366.46,736.646 1387.46,738.151 1408.46,739.517 1429.46,740.652 1450.46,741.48 
  1471.46,741.942 1492.45,741.999 1513.45,741.639 1534.45,740.874 1555.45,739.741 1576.45,738.303 1597.45,736.646 1618.44,734.875 1639.44,733.11 1660.44,731.482 
  1681.44,730.125 1702.44,729.17 1723.44,728.736 1744.43,728.921 1765.43,729.795 1786.43,731.391 1807.43,733.697 1828.43,736.646 1849.43,740.116 1870.42,743.919 
  1891.42,747.806 1912.42,751.464 1933.42,754.527 1954.42,756.579 1975.42,757.178 1996.41,755.874 2017.41,752.24 2038.41,745.915 2059.41,736.646 2080.41,724.357 
  2101.41,709.214 2122.4,691.719 2143.4,672.811 2164.4,653.985 2185.4,637.433 2206.4,626.207 2227.4,624.4 2248.39,637.356 2269.39,671.908 2290.39,736.646 
  
  "/>
<polyline clip-path="url(#clip312)" style="stroke:#c271d2; stroke-linecap:butt; stroke-linejoin:round; stroke-width:16; stroke-opacity:1; fill:none" points="
  211.556,736.646 232.554,377.89 253.553,176.134 274.551,90.6052 295.549,87.9763 316.548,141.37 337.546,229.454 358.544,335.631 379.543,447.316 400.541,555.287 
  421.539,653.112 442.538,736.646 463.536,803.586 484.534,853.082 505.533,885.406 526.531,901.659 547.529,903.532 568.528,893.099 589.526,872.643 610.524,844.521 
  631.523,811.05 652.521,774.424 673.519,736.646 694.518,699.483 715.516,664.438 736.514,632.733 757.513,605.31 778.511,582.83 799.509,565.693 820.508,554.058 
  841.506,547.866 862.504,546.869 883.503,550.661 904.501,558.71 925.499,570.39 946.498,585.008 967.496,601.84 988.494,620.153 1009.49,639.229 1030.49,658.393 
  1051.49,677.026 1072.49,694.581 1093.49,710.598 1114.48,724.71 1135.48,736.646 1156.48,746.238 1177.48,753.414 1198.48,758.197 1219.48,760.697 1240.47,761.1 
  1261.47,759.662 1282.47,756.688 1303.47,752.526 1324.47,747.545 1345.47,742.127 1366.46,736.646 1387.46,731.457 1408.46,726.878 1429.46,723.185 1450.46,720.595 
  1471.46,719.257 1492.45,719.25 1513.45,720.578 1534.45,723.166 1555.45,726.863 1576.45,731.451 1597.45,736.646 1618.44,742.116 1639.44,747.491 1660.44,752.378 
  1681.44,756.385 1702.44,759.14 1723.44,760.31 1744.43,759.63 1765.43,756.922 1786.43,752.119 1807.43,745.289 1828.43,736.646 1849.43,726.572 1870.42,715.619 
  1891.42,704.513 1912.42,694.147 1933.42,685.56 1954.42,679.905 1975.42,678.407 1996.41,682.292 2017.41,692.708 2038.41,710.614 2059.41,736.646 2080.41,770.955 
  2101.41,813.008 2122.4,861.358 2143.4,913.365 2164.4,964.883 2185.4,1009.89 2206.4,1040.06 2227.4,1044.28 2248.39,1008.14 2269.39,913.265 2290.39,736.646 
  
  "/>
<polyline clip-path="url(#clip312)" style="stroke:#ac8d18; stroke-linecap:butt; stroke-linejoin:round; stroke-width:16; stroke-opacity:1; fill:none" points="
  211.556,736.646 232.554,1137.12 253.553,1357.21 274.551,1445.72 295.549,1442.07 316.548,1377.71 337.546,1277.21 358.544,1159.34 379.543,1038.03 400.541,923.188 
  421.539,821.409 442.538,736.646 463.536,670.752 484.534,623.966 505.533,595.325 526.531,583.014 547.529,584.661 568.528,597.577 589.526,618.957 610.524,646.032 
  631.523,676.193 652.521,707.081 673.519,736.646 694.518,763.191 715.516,785.387 736.514,802.275 757.513,813.259 778.511,818.079 799.509,816.78 820.508,809.681 
  841.506,797.326 862.504,780.441 883.503,759.894 904.501,736.646 925.499,711.708 946.498,686.1 967.496,660.818 988.494,636.795 1009.49,614.875 1030.49,595.791 
  1051.49,580.142 1072.49,568.386 1093.49,560.823 1114.48,557.601 1135.48,558.71 1156.48,563.995 1177.48,573.162 1198.48,585.792 1219.48,601.363 1240.47,619.267 
  1261.47,638.83 1282.47,659.342 1303.47,680.076 1324.47,700.316 1345.47,719.381 1366.46,736.646 1387.46,751.567 1408.46,763.696 1429.46,772.702 1450.46,778.381 
  1471.46,780.664 1492.45,779.624 1513.45,775.477 1534.45,768.574 1555.45,759.392 1576.45,748.522 1597.45,736.646 1618.44,724.517 1639.44,712.924 1660.44,702.666 
  1681.44,694.511 1702.44,689.159 1723.44,687.205 1744.43,689.093 1765.43,695.081 1786.43,705.201 1807.43,719.226 1828.43,736.646 1849.43,756.646 1870.42,778.1 
  1891.42,799.573 1912.42,819.347 1933.42,835.458 1954.42,845.764 1975.42,848.03 1996.41,840.052 2017.41,819.815 2038.41,785.684 2059.41,736.646 2080.41,672.603 
  2101.41,594.713 2122.4,505.798 2143.4,410.821 2164.4,317.436 2185.4,236.614 2206.4,183.369 2227.4,177.572 2248.39,244.876 2269.39,417.752 2290.39,736.646 
  
  "/>
<polyline clip-path="url(#clip312)" style="stroke:#00a9ad; stroke-linecap:butt; stroke-linejoin:round; stroke-width:16; stroke-opacity:1; fill:none" points="
  211.556,736.646 232.554,417.752 253.553,244.876 274.551,177.572 295.549,183.369 316.548,236.614 337.546,317.436 358.544,410.821 379.543,505.798 400.541,594.713 
  421.539,672.603 442.538,736.646 463.536,785.684 484.534,819.815 505.533,840.052 526.531,848.03 547.529,845.764 568.528,835.458 589.526,819.347 610.524,799.573 
  631.523,778.1 652.521,756.646 673.519,736.646 694.518,719.226 715.516,705.201 736.514,695.081 757.513,689.093 778.511,687.205 799.509,689.159 820.508,694.511 
  841.506,702.666 862.504,712.924 883.503,724.517 904.501,736.646 925.499,748.522 946.498,759.392 967.496,768.574 988.494,775.477 1009.49,779.624 1030.49,780.664 
  1051.49,778.381 1072.49,772.702 1093.49,763.696 1114.48,751.567 1135.48,736.646 1156.48,719.381 1177.48,700.316 1198.48,680.076 1219.48,659.342 1240.47,638.83 
  1261.47,619.267 1282.47,601.363 1303.47,585.792 1324.47,573.162 1345.47,563.995 1366.46,558.71 1387.46,557.601 1408.46,560.823 1429.46,568.386 1450.46,580.142 
  1471.46,595.791 1492.45,614.875 1513.45,636.795 1534.45,660.818 1555.45,686.1 1576.45,711.708 1597.45,736.646 1618.44,759.894 1639.44,780.441 1660.44,797.326 
  1681.44,809.681 1702.44,816.78 1723.44,818.079 1744.43,813.259 1765.43,802.275 1786.43,785.387 1807.43,763.191 1828.43,736.646 1849.43,707.081 1870.42,676.193 
  1891.42,646.032 1912.42,618.957 1933.42,597.577 1954.42,584.661 1975.42,583.014 1996.41,595.325 2017.41,623.966 2038.41,670.752 2059.41,736.646 2080.41,821.409 
  2101.41,923.188 2122.4,1038.03 2143.4,1159.34 2164.4,1277.21 2185.4,1377.71 2206.4,1442.07 2227.4,1445.72 2248.39,1357.21 2269.39,1137.12 2290.39,736.646 
  
  "/>
<polyline clip-path="url(#clip312)" style="stroke:#ed5d92; stroke-linecap:butt; stroke-linejoin:round; stroke-width:16; stroke-opacity:1; fill:none" points="
  211.556,736.646 232.554,913.265 253.553,1008.14 274.551,1044.28 295.549,1040.06 316.548,1009.89 337.546,964.883 358.544,913.365 379.543,861.358 400.541,813.008 
  421.539,770.955 442.538,736.646 463.536,710.614 484.534,692.708 505.533,682.292 526.531,678.407 547.529,679.905 568.528,685.56 589.526,694.147 610.524,704.513 
  631.523,715.619 652.521,726.572 673.519,736.646 694.518,745.289 715.516,752.119 736.514,756.922 757.513,759.63 778.511,760.31 799.509,759.14 820.508,756.385 
  841.506,752.378 862.504,747.491 883.503,742.116 904.501,736.646 925.499,731.451 946.498,726.863 967.496,723.166 988.494,720.578 1009.49,719.25 1030.49,719.257 
  1051.49,720.595 1072.49,723.185 1093.49,726.878 1114.48,731.457 1135.48,736.646 1156.48,742.127 1177.48,747.545 1198.48,752.526 1219.48,756.688 1240.47,759.662 
  1261.47,761.1 1282.47,760.697 1303.47,758.197 1324.47,753.414 1345.47,746.238 1366.46,736.646 1387.46,724.71 1408.46,710.598 1429.46,694.581 1450.46,677.026 
  1471.46,658.393 1492.45,639.229 1513.45,620.153 1534.45,601.84 1555.45,585.008 1576.45,570.39 1597.45,558.71 1618.44,550.661 1639.44,546.869 1660.44,547.866 
  1681.44,554.058 1702.44,565.693 1723.44,582.83 1744.43,605.31 1765.43,632.733 1786.43,664.438 1807.43,699.483 1828.43,736.646 1849.43,774.424 1870.42,811.05 
  1891.42,844.521 1912.42,872.643 1933.42,893.099 1954.42,903.532 1975.42,901.659 1996.41,885.406 2017.41,853.082 2038.41,803.586 2059.41,736.646 2080.41,653.112 
  2101.41,555.287 2122.4,447.316 2143.4,335.631 2164.4,229.454 2185.4,141.37 2206.4,87.9763 2227.4,90.6052 2248.39,176.134 2269.39,377.89 2290.39,736.646 
  
  "/>
<polyline clip-path="url(#clip312)" style="stroke:#c68125; stroke-linecap:butt; stroke-linejoin:round; stroke-width:16; stroke-opacity:1; fill:none" points="
  211.556,736.646 232.554,671.908 253.553,637.356 274.551,624.4 295.549,626.207 316.548,637.433 337.546,653.985 358.544,672.811 379.543,691.719 400.541,709.214 
  421.539,724.357 442.538,736.646 463.536,745.915 484.534,752.24 505.533,755.874 526.531,757.178 547.529,756.579 568.528,754.527 589.526,751.464 610.524,747.806 
  631.523,743.919 652.521,740.116 673.519,736.646 694.518,733.697 715.516,731.391 736.514,729.795 757.513,728.921 778.511,728.736 799.509,729.17 820.508,730.125 
  841.506,731.482 862.504,733.11 883.503,734.875 904.501,736.646 925.499,738.303 946.498,739.741 967.496,740.874 988.494,741.639 1009.49,741.999 1030.49,741.942 
  1051.49,741.48 1072.49,740.652 1093.49,739.517 1114.48,738.151 1135.48,736.646 1156.48,735.105 1177.48,733.633 1198.48,732.336 1219.48,731.315 1240.47,730.657 
  1261.47,730.436 1282.47,730.7 1303.47,731.474 1324.47,732.754 1345.47,734.502 1366.46,736.646 1387.46,739.082 1408.46,741.67 1429.46,744.237 1450.46,746.583 
  1471.46,748.483 1492.45,749.693 1513.45,749.96 1534.45,749.026 1555.45,746.644 1576.45,742.584 1597.45,736.646 1618.44,728.675 1639.44,718.572 1660.44,706.307 
  1681.44,691.931 1702.44,675.592 1723.44,657.541 1744.43,638.144 1765.43,617.889 1786.43,597.387 1807.43,577.375 1828.43,558.71 1849.43,542.358 1870.42,529.378 
  1891.42,520.898 1912.42,518.081 1933.42,522.083 1954.42,533.999 1975.42,554.796 1996.41,585.23 2017.41,625.755 2038.41,676.4 2059.41,736.646 2080.41,805.264 
  2101.41,880.14 2122.4,958.072 2143.4,1034.54 2164.4,1103.46 2185.4,1156.84 2206.4,1184.54 2227.4,1173.82 2248.39,1108.99 2269.39,970.936 2290.39,736.646 
  
  "/>
<polyline clip-path="url(#clip312)" style="stroke:#00a98d; stroke-linecap:butt; stroke-linejoin:round; stroke-width:16; stroke-opacity:1; fill:none" points="
  211.556,736.646 232.554,750.784 253.553,758.294 274.551,761.076 295.549,760.64 316.548,758.162 337.546,754.539 358.544,750.438 379.543,746.334 400.541,742.549 
  421.539,739.285 442.538,736.646 463.536,734.664 484.534,733.319 505.533,732.554 526.531,732.287 547.529,732.424 568.528,732.869 589.526,733.524 610.524,734.301 
  631.523,735.122 652.521,735.921 673.519,736.646 694.518,737.259 715.516,737.734 736.514,738.06 757.513,738.235 778.511,738.267 799.509,738.173 820.508,737.973 
  841.506,737.692 862.504,737.36 883.503,737.002 904.501,736.646 925.499,736.316 946.498,736.033 967.496,735.813 988.494,735.667 1009.49,735.602 1030.49,735.62 
  1051.49,735.715 1072.49,735.879 1093.49,736.1 1114.48,736.362 1135.48,736.646 1156.48,736.933 1177.48,737.202 1198.48,737.435 1219.48,737.613 1240.47,737.721 
  1261.47,737.749 1282.47,737.691 1303.47,737.544 1324.47,737.314 1345.47,737.009 1366.46,736.646 1387.46,736.247 1408.46,735.836 1429.46,735.444 1450.46,735.104 
  1471.46,734.85 1492.45,734.713 1513.45,734.726 1534.45,734.913 1555.45,735.292 1576.45,735.872 1597.45,736.646 1618.44,737.595 1639.44,738.68 1660.44,739.84 
  1681.44,740.994 1702.44,742.033 1723.44,742.826 1744.43,743.213 1765.43,743.008 1786.43,742.002 1807.43,739.964 1828.43,736.646 1849.43,731.789 1870.42,725.131 
  1891.42,716.42 1912.42,705.423 1933.42,691.946 1954.42,675.852 1975.42,657.087 1996.41,635.702 2017.41,611.893 2038.41,586.031 2059.41,558.71 2080.41,530.793 
  2101.41,503.47 2122.4,478.316 2143.4,457.368 2164.4,443.199 2185.4,439.008 2206.4,448.716 2227.4,477.076 2248.39,529.791 2269.39,613.644 2290.39,736.646 
  
  "/>
<polyline clip-path="url(#clip312)" style="stroke:#8e971d; stroke-linecap:butt; stroke-linejoin:round; stroke-width:16; stroke-opacity:1; fill:none" points="
  211.556,736.646 232.554,735.252 253.553,734.514 274.551,734.243 295.549,734.289 316.548,734.535 337.546,734.893 358.544,735.297 379.543,735.7 400.541,736.07 
  421.539,736.389 442.538,736.646 463.536,736.839 484.534,736.969 505.533,737.042 526.531,737.067 547.529,737.053 568.528,737.01 589.526,736.946 610.524,736.871 
  631.523,736.792 652.521,736.715 673.519,736.646 694.518,736.588 715.516,736.543 736.514,736.513 757.513,736.496 778.511,736.494 799.509,736.503 820.508,736.522 
  841.506,736.549 862.504,736.58 883.503,736.613 904.501,736.646 925.499,736.677 946.498,736.703 967.496,736.723 988.494,736.736 1009.49,736.741 1030.49,736.739 
  1051.49,736.73 1072.49,736.715 1093.49,736.695 1114.48,736.672 1135.48,736.646 1156.48,736.621 1177.48,736.597 1198.48,736.577 1219.48,736.562 1240.47,736.553 
  1261.47,736.551 1282.47,736.557 1303.47,736.57 1324.47,736.59 1345.47,736.616 1366.46,736.646 1387.46,736.679 1408.46,736.713 1429.46,736.744 1450.46,736.77 
  1471.46,736.79 1492.45,736.799 1513.45,736.796 1534.45,736.78 1555.45,736.749 1576.45,736.704 1597.45,736.646 1618.44,736.577 1639.44,736.5 1660.44,736.422 
  1681.44,736.346 1702.44,736.283 1723.44,736.239 1744.43,736.225 1765.43,736.25 1786.43,736.324 1807.43,736.454 1828.43,736.646 1849.43,736.903 1870.42,737.222 
  1891.42,737.593 1912.42,737.995 1933.42,738.399 1954.42,738.757 1975.42,739.004 1996.41,739.05 2017.41,738.779 2038.41,738.041 2059.41,736.646 2080.41,734.359 
  2101.41,730.889 2122.4,725.882 2143.4,718.914 2164.4,709.475 2185.4,696.961 2206.4,680.66 2227.4,659.737 2248.39,633.218 2269.39,599.977 2290.39,558.71 
  
  "/>
<circle clip-path="url(#clip312)" cx="211.556" cy="558.71" r="14" fill="#00a8cb" fill-rule="evenodd" fill-opacity="1" stroke="#000000" stroke-opacity="1" stroke-width="3.2"/>
<circle clip-path="url(#clip312)" cx="442.538" cy="558.71" r="14" fill="#00a8cb" fill-rule="evenodd" fill-opacity="1" stroke="#000000" stroke-opacity="1" stroke-width="3.2"/>
<circle clip-path="url(#clip312)" cx="673.519" cy="558.71" r="14" fill="#00a8cb" fill-rule="evenodd" fill-opacity="1" stroke="#000000" stroke-opacity="1" stroke-width="3.2"/>
<circle clip-path="url(#clip312)" cx="904.501" cy="558.71" r="14" fill="#00a8cb" fill-rule="evenodd" fill-opacity="1" stroke="#000000" stroke-opacity="1" stroke-width="3.2"/>
<circle clip-path="url(#clip312)" cx="1135.48" cy="558.71" r="14" fill="#00a8cb" fill-rule="evenodd" fill-opacity="1" stroke="#000000" stroke-opacity="1" stroke-width="3.2"/>
<circle clip-path="url(#clip312)" cx="1366.46" cy="558.71" r="14" fill="#00a8cb" fill-rule="evenodd" fill-opacity="1" stroke="#000000" stroke-opacity="1" stroke-width="3.2"/>
<circle clip-path="url(#clip312)" cx="1597.45" cy="558.71" r="14" fill="#00a8cb" fill-rule="evenodd" fill-opacity="1" stroke="#000000" stroke-opacity="1" stroke-width="3.2"/>
<circle clip-path="url(#clip312)" cx="1828.43" cy="558.71" r="14" fill="#00a8cb" fill-rule="evenodd" fill-opacity="1" stroke="#000000" stroke-opacity="1" stroke-width="3.2"/>
<circle clip-path="url(#clip312)" cx="2059.41" cy="558.71" r="14" fill="#00a8cb" fill-rule="evenodd" fill-opacity="1" stroke="#000000" stroke-opacity="1" stroke-width="3.2"/>
<circle clip-path="url(#clip312)" cx="2290.39" cy="558.71" r="14" fill="#00a8cb" fill-rule="evenodd" fill-opacity="1" stroke="#000000" stroke-opacity="1" stroke-width="3.2"/>
<path clip-path="url(#clip310)" d="
M1950.64 717.298 L2279.3 717.298 L2279.3 95.2176 L1950.64 95.2176  Z
  " fill="#ffffff" fill-rule="evenodd" fill-opacity="1"/>
<polyline clip-path="url(#clip310)" style="stroke:#000000; stroke-linecap:butt; stroke-linejoin:round; stroke-width:4; stroke-opacity:1; fill:none" points="
  1950.64,717.298 2279.3,717.298 2279.3,95.2176 1950.64,95.2176 1950.64,717.298 
  "/>
<polyline clip-path="url(#clip310)" style="stroke:#009af9; stroke-linecap:butt; stroke-linejoin:round; stroke-width:4; stroke-opacity:1; fill:none" points="
  1975.13,147.058 2122.03,147.058 
  "/>
<path clip-path="url(#clip310)" d="M2160.36 166.745 Q2158.55 171.375 2156.84 172.787 Q2155.13 174.199 2152.26 174.199 L2148.85 174.199 L2148.85 170.634 L2151.35 170.634 Q2153.11 170.634 2154.09 169.8 Q2155.06 168.967 2156.24 165.865 L2157 163.921 L2146.52 138.412 L2151.03 138.412 L2159.13 158.689 L2167.23 138.412 L2171.75 138.412 L2160.36 166.745 Z" fill="#000000" fill-rule="evenodd" fill-opacity="1" /><path clip-path="url(#clip310)" d="M2179.04 160.402 L2186.68 160.402 L2186.68 134.037 L2178.37 135.703 L2178.37 131.444 L2186.63 129.778 L2191.31 129.778 L2191.31 160.402 L2198.95 160.402 L2198.95 164.338 L2179.04 164.338 L2179.04 160.402 Z" fill="#000000" fill-rule="evenodd" fill-opacity="1" /><polyline clip-path="url(#clip310)" style="stroke:#e26f46; stroke-linecap:butt; stroke-linejoin:round; stroke-width:4; stroke-opacity:1; fill:none" points="
  1975.13,198.898 2122.03,198.898 
  "/>
<path clip-path="url(#clip310)" d="M2160.36 218.585 Q2158.55 223.215 2156.84 224.627 Q2155.13 226.039 2152.26 226.039 L2148.85 226.039 L2148.85 222.474 L2151.35 222.474 Q2153.11 222.474 2154.09 221.64 Q2155.06 220.807 2156.24 217.705 L2157 215.761 L2146.52 190.252 L2151.03 190.252 L2159.13 210.529 L2167.23 190.252 L2171.75 190.252 L2160.36 218.585 Z" fill="#000000" fill-rule="evenodd" fill-opacity="1" /><path clip-path="url(#clip310)" d="M2182.26 212.242 L2198.58 212.242 L2198.58 216.178 L2176.63 216.178 L2176.63 212.242 Q2179.29 209.488 2183.88 204.858 Q2188.48 200.205 2189.66 198.863 Q2191.91 196.34 2192.79 194.604 Q2193.69 192.844 2193.69 191.155 Q2193.69 188.4 2191.75 186.664 Q2189.83 184.928 2186.72 184.928 Q2184.53 184.928 2182.07 185.692 Q2179.64 186.455 2176.86 188.006 L2176.86 183.284 Q2179.69 182.15 2182.14 181.571 Q2184.6 180.993 2186.63 180.993 Q2192 180.993 2195.2 183.678 Q2198.39 186.363 2198.39 190.854 Q2198.39 192.983 2197.58 194.905 Q2196.79 196.803 2194.69 199.395 Q2194.11 200.067 2191.01 203.284 Q2187.91 206.479 2182.26 212.242 Z" fill="#000000" fill-rule="evenodd" fill-opacity="1" /><polyline clip-path="url(#clip310)" style="stroke:#3da44d; stroke-linecap:butt; stroke-linejoin:round; stroke-width:4; stroke-opacity:1; fill:none" points="
  1975.13,250.738 2122.03,250.738 
  "/>
<path clip-path="url(#clip310)" d="M2160.36 270.425 Q2158.55 275.055 2156.84 276.467 Q2155.13 277.879 2152.26 277.879 L2148.85 277.879 L2148.85 274.314 L2151.35 274.314 Q2153.11 274.314 2154.09 273.48 Q2155.06 272.647 2156.24 269.545 L2157 267.601 L2146.52 242.092 L2151.03 242.092 L2159.13 262.369 L2167.23 242.092 L2171.75 242.092 L2160.36 270.425 Z" fill="#000000" fill-rule="evenodd" fill-opacity="1" /><path clip-path="url(#clip310)" d="M2192.4 249.383 Q2195.75 250.101 2197.63 252.369 Q2199.53 254.638 2199.53 257.971 Q2199.53 263.087 2196.01 265.888 Q2192.49 268.689 2186.01 268.689 Q2183.83 268.689 2181.52 268.249 Q2179.22 267.832 2176.77 266.976 L2176.77 262.462 Q2178.72 263.596 2181.03 264.175 Q2183.35 264.754 2185.87 264.754 Q2190.27 264.754 2192.56 263.018 Q2194.87 261.281 2194.87 257.971 Q2194.87 254.916 2192.72 253.203 Q2190.59 251.467 2186.77 251.467 L2182.74 251.467 L2182.74 247.624 L2186.96 247.624 Q2190.41 247.624 2192.23 246.258 Q2194.06 244.87 2194.06 242.277 Q2194.06 239.615 2192.16 238.203 Q2190.29 236.768 2186.77 236.768 Q2184.85 236.768 2182.65 237.184 Q2180.45 237.601 2177.81 238.481 L2177.81 234.314 Q2180.47 233.573 2182.79 233.203 Q2185.13 232.833 2187.19 232.833 Q2192.51 232.833 2195.61 235.263 Q2198.72 237.67 2198.72 241.791 Q2198.72 244.661 2197.07 246.652 Q2195.43 248.62 2192.4 249.383 Z" fill="#000000" fill-rule="evenodd" fill-opacity="1" /><polyline clip-path="url(#clip310)" style="stroke:#c271d2; stroke-linecap:butt; stroke-linejoin:round; stroke-width:4; stroke-opacity:1; fill:none" points="
  1975.13,302.578 2122.03,302.578 
  "/>
<path clip-path="url(#clip310)" d="M2160.36 322.265 Q2158.55 326.895 2156.84 328.307 Q2155.13 329.719 2152.26 329.719 L2148.85 329.719 L2148.85 326.154 L2151.35 326.154 Q2153.11 326.154 2154.09 325.32 Q2155.06 324.487 2156.24 321.385 L2157 319.441 L2146.52 293.932 L2151.03 293.932 L2159.13 314.209 L2167.23 293.932 L2171.75 293.932 L2160.36 322.265 Z" fill="#000000" fill-rule="evenodd" fill-opacity="1" /><path clip-path="url(#clip310)" d="M2191.08 289.372 L2179.27 307.821 L2191.08 307.821 L2191.08 289.372 M2189.85 285.298 L2195.73 285.298 L2195.73 307.821 L2200.66 307.821 L2200.66 311.709 L2195.73 311.709 L2195.73 319.858 L2191.08 319.858 L2191.08 311.709 L2175.47 311.709 L2175.47 307.196 L2189.85 285.298 Z" fill="#000000" fill-rule="evenodd" fill-opacity="1" /><polyline clip-path="url(#clip310)" style="stroke:#ac8d18; stroke-linecap:butt; stroke-linejoin:round; stroke-width:4; stroke-opacity:1; fill:none" points="
  1975.13,354.418 2122.03,354.418 
  "/>
<path clip-path="url(#clip310)" d="M2160.36 374.105 Q2158.55 378.735 2156.84 380.147 Q2155.13 381.559 2152.26 381.559 L2148.85 381.559 L2148.85 377.994 L2151.35 377.994 Q2153.11 377.994 2154.09 377.16 Q2155.06 376.327 2156.24 373.225 L2157 371.281 L2146.52 345.772 L2151.03 345.772 L2159.13 366.049 L2167.23 345.772 L2171.75 345.772 L2160.36 374.105 Z" fill="#000000" fill-rule="evenodd" fill-opacity="1" /><path clip-path="url(#clip310)" d="M2178.28 337.138 L2196.63 337.138 L2196.63 341.073 L2182.56 341.073 L2182.56 349.545 Q2183.58 349.198 2184.6 349.036 Q2185.61 348.85 2186.63 348.85 Q2192.42 348.85 2195.8 352.022 Q2199.18 355.193 2199.18 360.61 Q2199.18 366.188 2195.71 369.29 Q2192.23 372.369 2185.91 372.369 Q2183.74 372.369 2181.47 371.998 Q2179.22 371.628 2176.82 370.887 L2176.82 366.188 Q2178.9 367.323 2181.12 367.878 Q2183.35 368.434 2185.82 368.434 Q2189.83 368.434 2192.16 366.327 Q2194.5 364.221 2194.5 360.61 Q2194.5 356.999 2192.16 354.892 Q2189.83 352.786 2185.82 352.786 Q2183.95 352.786 2182.07 353.202 Q2180.22 353.619 2178.28 354.499 L2178.28 337.138 Z" fill="#000000" fill-rule="evenodd" fill-opacity="1" /><polyline clip-path="url(#clip310)" style="stroke:#00a9ad; stroke-linecap:butt; stroke-linejoin:round; stroke-width:4; stroke-opacity:1; fill:none" points="
  1975.13,406.258 2122.03,406.258 
  "/>
<path clip-path="url(#clip310)" d="M2160.36 425.945 Q2158.55 430.575 2156.84 431.987 Q2155.13 433.399 2152.26 433.399 L2148.85 433.399 L2148.85 429.834 L2151.35 429.834 Q2153.11 429.834 2154.09 429 Q2155.06 428.167 2156.24 425.065 L2157 423.121 L2146.52 397.612 L2151.03 397.612 L2159.13 417.889 L2167.23 397.612 L2171.75 397.612 L2160.36 425.945 Z" fill="#000000" fill-rule="evenodd" fill-opacity="1" /><path clip-path="url(#clip310)" d="M2188.81 404.394 Q2185.66 404.394 2183.81 406.547 Q2181.98 408.7 2181.98 412.45 Q2181.98 416.176 2183.81 418.352 Q2185.66 420.505 2188.81 420.505 Q2191.96 420.505 2193.78 418.352 Q2195.64 416.176 2195.64 412.45 Q2195.64 408.7 2193.78 406.547 Q2191.96 404.394 2188.81 404.394 M2198.09 389.741 L2198.09 394.001 Q2196.33 393.167 2194.53 392.728 Q2192.74 392.288 2190.98 392.288 Q2186.35 392.288 2183.9 395.413 Q2181.47 398.538 2181.12 404.857 Q2182.49 402.843 2184.55 401.778 Q2186.61 400.69 2189.09 400.69 Q2194.29 400.69 2197.3 403.862 Q2200.34 407.01 2200.34 412.45 Q2200.34 417.774 2197.19 420.991 Q2194.04 424.209 2188.81 424.209 Q2182.81 424.209 2179.64 419.626 Q2176.47 415.019 2176.47 406.292 Q2176.47 398.098 2180.36 393.237 Q2184.25 388.353 2190.8 388.353 Q2192.56 388.353 2194.34 388.7 Q2196.15 389.047 2198.09 389.741 Z" fill="#000000" fill-rule="evenodd" fill-opacity="1" /><polyline clip-path="url(#clip310)" style="stroke:#ed5d92; stroke-linecap:butt; stroke-linejoin:round; stroke-width:4; stroke-opacity:1; fill:none" points="
  1975.13,458.098 2122.03,458.098 
  "/>
<path clip-path="url(#clip310)" d="M2160.36 477.785 Q2158.55 482.415 2156.84 483.827 Q2155.13 485.239 2152.26 485.239 L2148.85 485.239 L2148.85 481.674 L2151.35 481.674 Q2153.11 481.674 2154.09 480.84 Q2155.06 480.007 2156.24 476.905 L2157 474.961 L2146.52 449.452 L2151.03 449.452 L2159.13 469.729 L2167.23 449.452 L2171.75 449.452 L2160.36 477.785 Z" fill="#000000" fill-rule="evenodd" fill-opacity="1" /><path clip-path="url(#clip310)" d="M2177.05 440.818 L2199.27 440.818 L2199.27 442.808 L2186.72 475.378 L2181.84 475.378 L2193.65 444.753 L2177.05 444.753 L2177.05 440.818 Z" fill="#000000" fill-rule="evenodd" fill-opacity="1" /><polyline clip-path="url(#clip310)" style="stroke:#c68125; stroke-linecap:butt; stroke-linejoin:round; stroke-width:4; stroke-opacity:1; fill:none" points="
  1975.13,509.938 2122.03,509.938 
  "/>
<path clip-path="url(#clip310)" d="M2160.36 529.625 Q2158.55 534.255 2156.84 535.667 Q2155.13 537.079 2152.26 537.079 L2148.85 537.079 L2148.85 533.514 L2151.35 533.514 Q2153.11 533.514 2154.09 532.68 Q2155.06 531.847 2156.24 528.745 L2157 526.801 L2146.52 501.292 L2151.03 501.292 L2159.13 521.569 L2167.23 501.292 L2171.75 501.292 L2160.36 529.625 Z" fill="#000000" fill-rule="evenodd" fill-opacity="1" /><path clip-path="url(#clip310)" d="M2188.23 510.806 Q2184.9 510.806 2182.97 512.588 Q2181.08 514.37 2181.08 517.495 Q2181.08 520.62 2182.97 522.403 Q2184.9 524.185 2188.23 524.185 Q2191.56 524.185 2193.48 522.403 Q2195.41 520.597 2195.41 517.495 Q2195.41 514.37 2193.48 512.588 Q2191.59 510.806 2188.23 510.806 M2183.55 508.815 Q2180.54 508.074 2178.85 506.014 Q2177.19 503.954 2177.19 500.991 Q2177.19 496.847 2180.13 494.44 Q2183.09 492.033 2188.23 492.033 Q2193.39 492.033 2196.33 494.44 Q2199.27 496.847 2199.27 500.991 Q2199.27 503.954 2197.58 506.014 Q2195.91 508.074 2192.93 508.815 Q2196.31 509.602 2198.18 511.894 Q2200.08 514.185 2200.08 517.495 Q2200.08 522.519 2197 525.204 Q2193.95 527.889 2188.23 527.889 Q2182.51 527.889 2179.43 525.204 Q2176.38 522.519 2176.38 517.495 Q2176.38 514.185 2178.28 511.894 Q2180.17 509.602 2183.55 508.815 M2181.84 501.431 Q2181.84 504.116 2183.51 505.62 Q2185.2 507.125 2188.23 507.125 Q2191.24 507.125 2192.93 505.62 Q2194.64 504.116 2194.64 501.431 Q2194.64 498.745 2192.93 497.241 Q2191.24 495.736 2188.23 495.736 Q2185.2 495.736 2183.51 497.241 Q2181.84 498.745 2181.84 501.431 Z" fill="#000000" fill-rule="evenodd" fill-opacity="1" /><polyline clip-path="url(#clip310)" style="stroke:#00a98d; stroke-linecap:butt; stroke-linejoin:round; stroke-width:4; stroke-opacity:1; fill:none" points="
  1975.13,561.778 2122.03,561.778 
  "/>
<path clip-path="url(#clip310)" d="M2160.36 581.465 Q2158.55 586.095 2156.84 587.507 Q2155.13 588.919 2152.26 588.919 L2148.85 588.919 L2148.85 585.354 L2151.35 585.354 Q2153.11 585.354 2154.09 584.52 Q2155.06 583.687 2156.24 580.585 L2157 578.641 L2146.52 553.132 L2151.03 553.132 L2159.13 573.409 L2167.23 553.132 L2171.75 553.132 L2160.36 581.465 Z" fill="#000000" fill-rule="evenodd" fill-opacity="1" /><path clip-path="url(#clip310)" d="M2178.37 578.34 L2178.37 574.081 Q2180.13 574.914 2181.93 575.354 Q2183.74 575.794 2185.47 575.794 Q2190.1 575.794 2192.53 572.692 Q2194.99 569.567 2195.34 563.224 Q2193.99 565.215 2191.93 566.28 Q2189.87 567.345 2187.37 567.345 Q2182.19 567.345 2179.16 564.22 Q2176.15 561.072 2176.15 555.632 Q2176.15 550.308 2179.29 547.09 Q2182.44 543.873 2187.67 543.873 Q2193.67 543.873 2196.82 548.479 Q2199.99 553.062 2199.99 561.812 Q2199.99 569.984 2196.1 574.868 Q2192.23 579.729 2185.68 579.729 Q2183.92 579.729 2182.12 579.382 Q2180.31 579.034 2178.37 578.34 M2187.67 563.687 Q2190.82 563.687 2192.65 561.534 Q2194.5 559.382 2194.5 555.632 Q2194.5 551.905 2192.65 549.752 Q2190.82 547.576 2187.67 547.576 Q2184.53 547.576 2182.67 549.752 Q2180.85 551.905 2180.85 555.632 Q2180.85 559.382 2182.67 561.534 Q2184.53 563.687 2187.67 563.687 Z" fill="#000000" fill-rule="evenodd" fill-opacity="1" /><polyline clip-path="url(#clip310)" style="stroke:#8e971d; stroke-linecap:butt; stroke-linejoin:round; stroke-width:4; stroke-opacity:1; fill:none" points="
  1975.13,613.618 2122.03,613.618 
  "/>
<path clip-path="url(#clip310)" d="M2160.36 633.305 Q2158.55 637.935 2156.84 639.347 Q2155.13 640.759 2152.26 640.759 L2148.85 640.759 L2148.85 637.194 L2151.35 637.194 Q2153.11 637.194 2154.09 636.36 Q2155.06 635.527 2156.24 632.425 L2157 630.481 L2146.52 604.972 L2151.03 604.972 L2159.13 625.249 L2167.23 604.972 L2171.75 604.972 L2160.36 633.305 Z" fill="#000000" fill-rule="evenodd" fill-opacity="1" /><path clip-path="url(#clip310)" d="M2179.04 626.962 L2186.68 626.962 L2186.68 600.597 L2178.37 602.263 L2178.37 598.004 L2186.63 596.338 L2191.31 596.338 L2191.31 626.962 L2198.95 626.962 L2198.95 630.898 L2179.04 630.898 L2179.04 626.962 Z" fill="#000000" fill-rule="evenodd" fill-opacity="1" /><path clip-path="url(#clip310)" d="M2218.39 599.416 Q2214.78 599.416 2212.95 602.981 Q2211.15 606.523 2211.15 613.652 Q2211.15 620.759 2212.95 624.324 Q2214.78 627.865 2218.39 627.865 Q2222.03 627.865 2223.83 624.324 Q2225.66 620.759 2225.66 613.652 Q2225.66 606.523 2223.83 602.981 Q2222.03 599.416 2218.39 599.416 M2218.39 595.713 Q2224.2 595.713 2227.26 600.319 Q2230.34 604.902 2230.34 613.652 Q2230.34 622.379 2227.26 626.986 Q2224.2 631.569 2218.39 631.569 Q2212.58 631.569 2209.5 626.986 Q2206.45 622.379 2206.45 613.652 Q2206.45 604.902 2209.5 600.319 Q2212.58 595.713 2218.39 595.713 Z" fill="#000000" fill-rule="evenodd" fill-opacity="1" /><circle clip-path="url(#clip310)" cx="2048.58" cy="665.458" r="23" fill="#00a8cb" fill-rule="evenodd" fill-opacity="1" stroke="#000000" stroke-opacity="1" stroke-width="5.12"/>
<path clip-path="url(#clip310)" d="M2160.36 685.145 Q2158.55 689.775 2156.84 691.187 Q2155.13 692.599 2152.26 692.599 L2148.85 692.599 L2148.85 689.034 L2151.35 689.034 Q2153.11 689.034 2154.09 688.2 Q2155.06 687.367 2156.24 684.265 L2157 682.321 L2146.52 656.812 L2151.03 656.812 L2159.13 677.089 L2167.23 656.812 L2171.75 656.812 L2160.36 685.145 Z" fill="#000000" fill-rule="evenodd" fill-opacity="1" /><path clip-path="url(#clip310)" d="M2179.04 678.802 L2186.68 678.802 L2186.68 652.437 L2178.37 654.103 L2178.37 649.844 L2186.63 648.178 L2191.31 648.178 L2191.31 678.802 L2198.95 678.802 L2198.95 682.738 L2179.04 682.738 L2179.04 678.802 Z" fill="#000000" fill-rule="evenodd" fill-opacity="1" /><path clip-path="url(#clip310)" d="M2209.2 678.802 L2216.84 678.802 L2216.84 652.437 L2208.53 654.103 L2208.53 649.844 L2216.79 648.178 L2221.47 648.178 L2221.47 678.802 L2229.11 678.802 L2229.11 682.738 L2209.2 682.738 L2209.2 678.802 Z" fill="#000000" fill-rule="evenodd" fill-opacity="1" /></svg>
