<?xml version="1.0" encoding="utf-8"?>
<svg xmlns="http://www.w3.org/2000/svg" xmlns:xlink="http://www.w3.org/1999/xlink" width="600" height="400" viewBox="0 0 2400 1600">
<defs>
  <clipPath id="clip230">
    <rect x="0" y="0" width="2400" height="1600"/>
  </clipPath>
</defs>
<path clip-path="url(#clip230)" d="
M0 1600 L2400 1600 L2400 0 L0 0  Z
  " fill="#ffffff" fill-rule="evenodd" fill-opacity="1"/>
<defs>
  <clipPath id="clip231">
    <rect x="480" y="0" width="1681" height="1600"/>
  </clipPath>
</defs>
<path clip-path="url(#clip230)" d="
M188.104 1474.16 L2352.76 1474.16 L2352.76 47.2441 L188.104 47.2441  Z
  " fill="#ffffff" fill-rule="evenodd" fill-opacity="1"/>
<defs>
  <clipPath id="clip232">
    <rect x="188" y="47" width="2166" height="1428"/>
  </clipPath>
</defs>
<polyline clip-path="url(#clip232)" style="stroke:#000000; stroke-linecap:butt; stroke-linejoin:round; stroke-width:2; stroke-opacity:0.1; fill:none" points="
  188.104,1474.16 188.104,47.2441 
  "/>
<polyline clip-path="url(#clip232)" style="stroke:#000000; stroke-linecap:butt; stroke-linejoin:round; stroke-width:2; stroke-opacity:0.1; fill:none" points="
  2352.76,1474.16 2352.76,47.2441 
  "/>
<polyline clip-path="url(#clip230)" style="stroke:#000000; stroke-linecap:butt; stroke-linejoin:round; stroke-width:4; stroke-opacity:1; fill:none" points="
  188.104,1474.16 2352.76,1474.16 
  "/>
<polyline clip-path="url(#clip230)" style="stroke:#000000; stroke-linecap:butt; stroke-linejoin:round; stroke-width:4; stroke-opacity:1; fill:none" points="
  188.104,1474.16 188.104,1455.27 
  "/>
<polyline clip-path="url(#clip230)" style="stroke:#000000; stroke-linecap:butt; stroke-linejoin:round; stroke-width:4; stroke-opacity:1; fill:none" points="
  2352.76,1474.16 2352.76,1455.27 
  "/>
<path clip-path="url(#clip230)" d="M153.548 1552.44 L161.187 1552.44 L161.187 1526.07 L152.876 1527.74 L152.876 1523.48 L161.14 1521.81 L165.816 1521.81 L165.816 1552.44 L173.455 1552.44 L173.455 1556.37 L153.548 1556.37 L153.548 1552.44 Z" fill="#000000" fill-rule="evenodd" fill-opacity="1" /><path clip-path="url(#clip230)" d="M192.899 1524.89 Q189.288 1524.89 187.46 1528.46 Q185.654 1532 185.654 1539.13 Q185.654 1546.23 187.46 1549.8 Q189.288 1553.34 192.899 1553.34 Q196.534 1553.34 198.339 1549.8 Q200.168 1546.23 200.168 1539.13 Q200.168 1532 198.339 1528.46 Q196.534 1524.89 192.899 1524.89 M192.899 1521.19 Q198.71 1521.19 201.765 1525.79 Q204.844 1530.38 204.844 1539.13 Q204.844 1547.85 201.765 1552.46 Q198.71 1557.04 192.899 1557.04 Q187.089 1557.04 184.011 1552.46 Q180.955 1547.85 180.955 1539.13 Q180.955 1530.38 184.011 1525.79 Q187.089 1521.19 192.899 1521.19 Z" fill="#000000" fill-rule="evenodd" fill-opacity="1" /><path clip-path="url(#clip230)" d="M217.539 1513.82 Q220.266 1514.4 221.79 1516.25 Q223.332 1518.09 223.332 1520.8 Q223.332 1524.96 220.473 1527.23 Q217.614 1529.51 212.348 1529.51 Q210.58 1529.51 208.699 1529.15 Q206.837 1528.81 204.844 1528.12 L204.844 1524.45 Q206.424 1525.37 208.304 1525.84 Q210.185 1526.31 212.235 1526.31 Q215.809 1526.31 217.671 1524.9 Q219.551 1523.49 219.551 1520.8 Q219.551 1518.32 217.802 1516.92 Q216.072 1515.51 212.969 1515.51 L209.696 1515.51 L209.696 1512.39 L213.119 1512.39 Q215.922 1512.39 217.407 1511.28 Q218.893 1510.15 218.893 1508.05 Q218.893 1505.88 217.351 1504.74 Q215.828 1503.57 212.969 1503.57 Q211.408 1503.57 209.621 1503.91 Q207.834 1504.25 205.69 1504.96 L205.69 1501.58 Q207.853 1500.98 209.734 1500.67 Q211.633 1500.37 213.307 1500.37 Q217.633 1500.37 220.153 1502.35 Q222.674 1504.3 222.674 1507.65 Q222.674 1509.98 221.338 1511.6 Q220.003 1513.2 217.539 1513.82 Z" fill="#000000" fill-rule="evenodd" fill-opacity="1" /><path clip-path="url(#clip230)" d="M2317.21 1552.44 L2324.85 1552.44 L2324.85 1526.07 L2316.54 1527.74 L2316.54 1523.48 L2324.8 1521.81 L2329.48 1521.81 L2329.48 1552.44 L2337.12 1552.44 L2337.12 1556.37 L2317.21 1556.37 L2317.21 1552.44 Z" fill="#000000" fill-rule="evenodd" fill-opacity="1" /><path clip-path="url(#clip230)" d="M2356.56 1524.89 Q2352.95 1524.89 2351.12 1528.46 Q2349.32 1532 2349.32 1539.13 Q2349.32 1546.23 2351.12 1549.8 Q2352.95 1553.34 2356.56 1553.34 Q2360.2 1553.34 2362 1549.8 Q2363.83 1546.23 2363.83 1539.13 Q2363.83 1532 2362 1528.46 Q2360.2 1524.89 2356.56 1524.89 M2356.56 1521.19 Q2362.37 1521.19 2365.43 1525.79 Q2368.51 1530.38 2368.51 1539.13 Q2368.51 1547.85 2365.43 1552.46 Q2362.37 1557.04 2356.56 1557.04 Q2350.75 1557.04 2347.67 1552.46 Q2344.62 1547.85 2344.62 1539.13 Q2344.62 1530.38 2347.67 1525.79 Q2350.75 1521.19 2356.56 1521.19 Z" fill="#000000" fill-rule="evenodd" fill-opacity="1" /><path clip-path="url(#clip230)" d="M2381.18 1504.19 L2371.59 1519.18 L2381.18 1519.18 L2381.18 1504.19 M2380.19 1500.88 L2384.96 1500.88 L2384.96 1519.18 L2388.97 1519.18 L2388.97 1522.34 L2384.96 1522.34 L2384.96 1528.96 L2381.18 1528.96 L2381.18 1522.34 L2368.51 1522.34 L2368.51 1518.67 L2380.19 1500.88 Z" fill="#000000" fill-rule="evenodd" fill-opacity="1" /><polyline clip-path="url(#clip232)" style="stroke:#000000; stroke-linecap:butt; stroke-linejoin:round; stroke-width:2; stroke-opacity:0.1; fill:none" points="
  188.104,1000.04 2352.76,1000.04 
  "/>
<polyline clip-path="url(#clip232)" style="stroke:#000000; stroke-linecap:butt; stroke-linejoin:round; stroke-width:2; stroke-opacity:0.1; fill:none" points="
  188.104,520.605 2352.76,520.605 
  "/>
<polyline clip-path="url(#clip230)" style="stroke:#000000; stroke-linecap:butt; stroke-linejoin:round; stroke-width:4; stroke-opacity:1; fill:none" points="
  188.104,1474.16 188.104,47.2441 
  "/>
<polyline clip-path="url(#clip230)" style="stroke:#000000; stroke-linecap:butt; stroke-linejoin:round; stroke-width:4; stroke-opacity:1; fill:none" points="
  188.104,1000.04 207.002,1000.04 
  "/>
<polyline clip-path="url(#clip230)" style="stroke:#000000; stroke-linecap:butt; stroke-linejoin:round; stroke-width:4; stroke-opacity:1; fill:none" points="
  188.104,520.605 207.002,520.605 
  "/>
<path clip-path="url(#clip230)" d="M51.6634 1019.84 L59.3023 1019.84 L59.3023 993.47 L50.9921 995.137 L50.9921 990.878 L59.256 989.211 L63.9319 989.211 L63.9319 1019.84 L71.5707 1019.84 L71.5707 1023.77 L51.6634 1023.77 L51.6634 1019.84 Z" fill="#000000" fill-rule="evenodd" fill-opacity="1" /><path clip-path="url(#clip230)" d="M91.0151 992.29 Q87.404 992.29 85.5753 995.855 Q83.7697 999.396 83.7697 1006.53 Q83.7697 1013.63 85.5753 1017.2 Q87.404 1020.74 91.0151 1020.74 Q94.6493 1020.74 96.4548 1017.2 Q98.2835 1013.63 98.2835 1006.53 Q98.2835 999.396 96.4548 995.855 Q94.6493 992.29 91.0151 992.29 M91.0151 988.586 Q96.8252 988.586 99.8808 993.193 Q102.959 997.776 102.959 1006.53 Q102.959 1015.25 99.8808 1019.86 Q96.8252 1024.44 91.0151 1024.44 Q85.2049 1024.44 82.1262 1019.86 Q79.0707 1015.25 79.0707 1006.53 Q79.0707 997.776 82.1262 993.193 Q85.2049 988.586 91.0151 988.586 Z" fill="#000000" fill-rule="evenodd" fill-opacity="1" /><path clip-path="url(#clip230)" d="M102.959 982.688 L127.071 982.688 L127.071 985.885 L102.959 985.885 L102.959 982.688 Z" fill="#000000" fill-rule="evenodd" fill-opacity="1" /><path clip-path="url(#clip230)" d="M135.929 993.164 L142.136 993.164 L142.136 971.741 L135.384 973.096 L135.384 969.635 L142.098 968.281 L145.898 968.281 L145.898 993.164 L152.104 993.164 L152.104 996.361 L135.929 996.361 L135.929 993.164 Z" fill="#000000" fill-rule="evenodd" fill-opacity="1" /><path clip-path="url(#clip230)" d="M81.3985 540.397 L89.0374 540.397 L89.0374 514.032 L80.7272 515.698 L80.7272 511.439 L88.9911 509.773 L93.667 509.773 L93.667 540.397 L101.306 540.397 L101.306 544.333 L81.3985 544.333 L81.3985 540.397 Z" fill="#000000" fill-rule="evenodd" fill-opacity="1" /><path clip-path="url(#clip230)" d="M120.75 512.851 Q117.139 512.851 115.31 516.416 Q113.505 519.958 113.505 527.087 Q113.505 534.194 115.31 537.758 Q117.139 541.3 120.75 541.3 Q124.384 541.3 126.19 537.758 Q128.019 534.194 128.019 527.087 Q128.019 519.958 126.19 516.416 Q124.384 512.851 120.75 512.851 M120.75 509.148 Q126.56 509.148 129.616 513.754 Q132.695 518.337 132.695 527.087 Q132.695 535.814 129.616 540.421 Q126.56 545.004 120.75 545.004 Q114.94 545.004 111.861 540.421 Q108.806 535.814 108.806 527.087 Q108.806 518.337 111.861 513.754 Q114.94 509.148 120.75 509.148 Z" fill="#000000" fill-rule="evenodd" fill-opacity="1" /><path clip-path="url(#clip230)" d="M142.399 491.344 Q139.465 491.344 137.98 494.24 Q136.513 497.118 136.513 502.91 Q136.513 508.684 137.98 511.581 Q139.465 514.458 142.399 514.458 Q145.352 514.458 146.819 511.581 Q148.305 508.684 148.305 502.91 Q148.305 497.118 146.819 494.24 Q145.352 491.344 142.399 491.344 M142.399 488.334 Q147.12 488.334 149.603 492.077 Q152.104 495.801 152.104 502.91 Q152.104 510.001 149.603 513.744 Q147.12 517.468 142.399 517.468 Q137.679 517.468 135.177 513.744 Q132.695 510.001 132.695 502.91 Q132.695 495.801 135.177 492.077 Q137.679 488.334 142.399 488.334 Z" fill="#000000" fill-rule="evenodd" fill-opacity="1" /><circle clip-path="url(#clip232)" cx="188.104" cy="1433.78" r="14" fill="#009af9" fill-rule="evenodd" fill-opacity="1" stroke="#000000" stroke-opacity="1" stroke-width="3.2"/>
<circle clip-path="url(#clip232)" cx="839.729" cy="1037.67" r="14" fill="#009af9" fill-rule="evenodd" fill-opacity="1" stroke="#000000" stroke-opacity="1" stroke-width="3.2"/>
<circle clip-path="url(#clip232)" cx="1220.91" cy="748.452" r="14" fill="#009af9" fill-rule="evenodd" fill-opacity="1" stroke="#000000" stroke-opacity="1" stroke-width="3.2"/>
<circle clip-path="url(#clip232)" cx="1491.35" cy="651.223" r="14" fill="#009af9" fill-rule="evenodd" fill-opacity="1" stroke="#000000" stroke-opacity="1" stroke-width="3.2"/>
<circle clip-path="url(#clip232)" cx="1701.13" cy="482.362" r="14" fill="#009af9" fill-rule="evenodd" fill-opacity="1" stroke="#000000" stroke-opacity="1" stroke-width="3.2"/>
<circle clip-path="url(#clip232)" cx="1872.53" cy="449.548" r="14" fill="#009af9" fill-rule="evenodd" fill-opacity="1" stroke="#000000" stroke-opacity="1" stroke-width="3.2"/>
<polyline clip-path="url(#clip232)" style="stroke:#e26f46; stroke-linecap:butt; stroke-linejoin:round; stroke-width:4; stroke-opacity:1; fill:none" points="
  188.104,978.106 839.729,689.455 1220.91,520.605 1491.35,400.804 1701.13,307.879 1872.53,231.954 
  "/>
<polyline clip-path="url(#clip232)" style="stroke:#3da44d; stroke-linecap:butt; stroke-linejoin:round; stroke-width:4; stroke-opacity:1; fill:none" points="
  188.104,1206.86 839.729,773.88 1220.91,520.605 1491.35,340.904 1701.13,201.516 1872.53,87.6286 
  "/>
<path clip-path="url(#clip230)" d="
M1987.08 302.168 L2280.6 302.168 L2280.6 94.8081 L1987.08 94.8081  Z
  " fill="#ffffff" fill-rule="evenodd" fill-opacity="1"/>
<polyline clip-path="url(#clip230)" style="stroke:#000000; stroke-linecap:butt; stroke-linejoin:round; stroke-width:4; stroke-opacity:1; fill:none" points="
  1987.08,302.168 2280.6,302.168 2280.6,94.8081 1987.08,94.8081 1987.08,302.168 
  "/>
<circle clip-path="url(#clip230)" cx="2083.28" cy="146.648" r="23" fill="#009af9" fill-rule="evenodd" fill-opacity="1" stroke="#000000" stroke-opacity="1" stroke-width="5.12"/>
<path clip-path="url(#clip230)" d="M2193.33 166.336 Q2191.53 170.965 2189.81 172.377 Q2188.1 173.789 2185.23 173.789 L2181.83 173.789 L2181.83 170.224 L2184.33 170.224 Q2186.09 170.224 2187.06 169.391 Q2188.03 168.558 2189.21 165.456 L2189.97 163.511 L2179.49 138.002 L2184 138.002 L2192.1 158.28 L2200.21 138.002 L2204.72 138.002 L2193.33 166.336 Z" fill="#000000" fill-rule="evenodd" fill-opacity="1" /><path clip-path="url(#clip230)" d="M2212.01 159.993 L2219.65 159.993 L2219.65 133.627 L2211.34 135.294 L2211.34 131.035 L2219.6 129.368 L2224.28 129.368 L2224.28 159.993 L2231.92 159.993 L2231.92 163.928 L2212.01 163.928 L2212.01 159.993 Z" fill="#000000" fill-rule="evenodd" fill-opacity="1" /><polyline clip-path="url(#clip230)" style="stroke:#e26f46; stroke-linecap:butt; stroke-linejoin:round; stroke-width:4; stroke-opacity:1; fill:none" points="
  2011.13,198.488 2155.44,198.488 
  "/>
<path clip-path="url(#clip230)" d="M2193.33 218.176 Q2191.53 222.805 2189.81 224.217 Q2188.1 225.629 2185.23 225.629 L2181.83 225.629 L2181.83 222.064 L2184.33 222.064 Q2186.09 222.064 2187.06 221.231 Q2188.03 220.398 2189.21 217.296 L2189.97 215.351 L2179.49 189.842 L2184 189.842 L2192.1 210.12 L2200.21 189.842 L2204.72 189.842 L2193.33 218.176 Z" fill="#000000" fill-rule="evenodd" fill-opacity="1" /><path clip-path="url(#clip230)" d="M2215.23 211.833 L2231.55 211.833 L2231.55 215.768 L2209.6 215.768 L2209.6 211.833 Q2212.27 209.078 2216.85 204.449 Q2221.46 199.796 2222.64 198.453 Q2224.88 195.93 2225.76 194.194 Q2226.66 192.435 2226.66 190.745 Q2226.66 187.99 2224.72 186.254 Q2222.8 184.518 2219.7 184.518 Q2217.5 184.518 2215.04 185.282 Q2212.61 186.046 2209.84 187.597 L2209.84 182.875 Q2212.66 181.741 2215.11 181.162 Q2217.57 180.583 2219.6 180.583 Q2224.97 180.583 2228.17 183.268 Q2231.36 185.953 2231.36 190.444 Q2231.36 192.574 2230.55 194.495 Q2229.77 196.393 2227.66 198.986 Q2227.08 199.657 2223.98 202.875 Q2220.88 206.069 2215.23 211.833 Z" fill="#000000" fill-rule="evenodd" fill-opacity="1" /><polyline clip-path="url(#clip230)" style="stroke:#3da44d; stroke-linecap:butt; stroke-linejoin:round; stroke-width:4; stroke-opacity:1; fill:none" points="
  2011.13,250.328 2155.44,250.328 
  "/>
<path clip-path="url(#clip230)" d="M2193.33 270.016 Q2191.53 274.645 2189.81 276.057 Q2188.1 277.469 2185.23 277.469 L2181.83 277.469 L2181.83 273.904 L2184.33 273.904 Q2186.09 273.904 2187.06 273.071 Q2188.03 272.238 2189.21 269.136 L2189.97 267.191 L2179.49 241.682 L2184 241.682 L2192.1 261.96 L2200.21 241.682 L2204.72 241.682 L2193.33 270.016 Z" fill="#000000" fill-rule="evenodd" fill-opacity="1" /><path clip-path="url(#clip230)" d="M2225.37 248.974 Q2228.72 249.692 2230.6 251.96 Q2232.5 254.229 2232.5 257.562 Q2232.5 262.678 2228.98 265.478 Q2225.46 268.279 2218.98 268.279 Q2216.8 268.279 2214.49 267.84 Q2212.2 267.423 2209.74 266.566 L2209.74 262.053 Q2211.69 263.187 2214 263.766 Q2216.32 264.344 2218.84 264.344 Q2223.24 264.344 2225.53 262.608 Q2227.84 260.872 2227.84 257.562 Q2227.84 254.506 2225.69 252.793 Q2223.56 251.057 2219.74 251.057 L2215.72 251.057 L2215.72 247.215 L2219.93 247.215 Q2223.38 247.215 2225.21 245.849 Q2227.03 244.46 2227.03 241.868 Q2227.03 239.205 2225.14 237.793 Q2223.26 236.358 2219.74 236.358 Q2217.82 236.358 2215.62 236.775 Q2213.42 237.192 2210.78 238.071 L2210.78 233.905 Q2213.45 233.164 2215.76 232.793 Q2218.1 232.423 2220.16 232.423 Q2225.48 232.423 2228.59 234.854 Q2231.69 237.261 2231.69 241.381 Q2231.69 244.252 2230.04 246.242 Q2228.4 248.21 2225.37 248.974 Z" fill="#000000" fill-rule="evenodd" fill-opacity="1" /></svg>
