<?xml version="1.0" encoding="utf-8"?>
<svg xmlns="http://www.w3.org/2000/svg" xmlns:xlink="http://www.w3.org/1999/xlink" width="600" height="400" viewBox="0 0 2400 1600">
<defs>
  <clipPath id="clip120">
    <rect x="0" y="0" width="2400" height="1600"/>
  </clipPath>
</defs>
<path clip-path="url(#clip120)" d="
M0 1600 L2400 1600 L2400 0 L0 0  Z
  " fill="#ffffff" fill-rule="evenodd" fill-opacity="1"/>
<defs>
  <clipPath id="clip121">
    <rect x="480" y="0" width="1681" height="1600"/>
  </clipPath>
</defs>
<path clip-path="url(#clip120)" d="
M213.607 1474.16 L2352.76 1474.16 L2352.76 47.2441 L213.607 47.2441  Z
  " fill="#ffffff" fill-rule="evenodd" fill-opacity="1"/>
<defs>
  <clipPath id="clip122">
    <rect x="213" y="47" width="2140" height="1428"/>
  </clipPath>
</defs>
<polyline clip-path="url(#clip122)" style="stroke:#000000; stroke-linecap:butt; stroke-linejoin:round; stroke-width:2; stroke-opacity:0.1; fill:none" points="
  610.494,1474.16 610.494,47.2441 
  "/>
<polyline clip-path="url(#clip122)" style="stroke:#000000; stroke-linecap:butt; stroke-linejoin:round; stroke-width:2; stroke-opacity:0.1; fill:none" points="
  1727.8,1474.16 1727.8,47.2441 
  "/>
<polyline clip-path="url(#clip120)" style="stroke:#000000; stroke-linecap:butt; stroke-linejoin:round; stroke-width:4; stroke-opacity:1; fill:none" points="
  213.607,1474.16 2352.76,1474.16 
  "/>
<polyline clip-path="url(#clip120)" style="stroke:#000000; stroke-linecap:butt; stroke-linejoin:round; stroke-width:4; stroke-opacity:1; fill:none" points="
  610.494,1474.16 610.494,1455.27 
  "/>
<polyline clip-path="url(#clip120)" style="stroke:#000000; stroke-linecap:butt; stroke-linejoin:round; stroke-width:4; stroke-opacity:1; fill:none" points="
  1727.8,1474.16 1727.8,1455.27 
  "/>
<path clip-path="url(#clip120)" d="M575.476 1552.44 L583.115 1552.44 L583.115 1526.07 L574.805 1527.74 L574.805 1523.48 L583.069 1521.81 L587.745 1521.81 L587.745 1552.44 L595.384 1552.44 L595.384 1556.37 L575.476 1556.37 L575.476 1552.44 Z" fill="#000000" fill-rule="evenodd" fill-opacity="1" /><path clip-path="url(#clip120)" d="M614.828 1524.89 Q611.217 1524.89 609.388 1528.46 Q607.583 1532 607.583 1539.13 Q607.583 1546.23 609.388 1549.8 Q611.217 1553.34 614.828 1553.34 Q618.462 1553.34 620.268 1549.8 Q622.096 1546.23 622.096 1539.13 Q622.096 1532 620.268 1528.46 Q618.462 1524.89 614.828 1524.89 M614.828 1521.19 Q620.638 1521.19 623.694 1525.79 Q626.772 1530.38 626.772 1539.13 Q626.772 1547.85 623.694 1552.46 Q620.638 1557.04 614.828 1557.04 Q609.018 1557.04 605.939 1552.46 Q602.884 1547.85 602.884 1539.13 Q602.884 1530.38 605.939 1525.79 Q609.018 1521.19 614.828 1521.19 Z" fill="#000000" fill-rule="evenodd" fill-opacity="1" /><path clip-path="url(#clip120)" d="M636.477 1503.38 Q633.543 1503.38 632.057 1506.28 Q630.59 1509.16 630.59 1514.95 Q630.59 1520.72 632.057 1523.62 Q633.543 1526.5 636.477 1526.5 Q639.43 1526.5 640.897 1523.62 Q642.383 1520.72 642.383 1514.95 Q642.383 1509.16 640.897 1506.28 Q639.43 1503.38 636.477 1503.38 M636.477 1500.37 Q641.198 1500.37 643.681 1504.12 Q646.182 1507.84 646.182 1514.95 Q646.182 1522.04 643.681 1525.78 Q641.198 1529.51 636.477 1529.51 Q631.756 1529.51 629.255 1525.78 Q626.772 1522.04 626.772 1514.95 Q626.772 1507.84 629.255 1504.12 Q631.756 1500.37 636.477 1500.37 Z" fill="#000000" fill-rule="evenodd" fill-opacity="1" /><path clip-path="url(#clip120)" d="M1693.58 1552.44 L1701.22 1552.44 L1701.22 1526.07 L1692.91 1527.74 L1692.91 1523.48 L1701.17 1521.81 L1705.85 1521.81 L1705.85 1552.44 L1713.48 1552.44 L1713.48 1556.37 L1693.58 1556.37 L1693.58 1552.44 Z" fill="#000000" fill-rule="evenodd" fill-opacity="1" /><path clip-path="url(#clip120)" d="M1732.93 1524.89 Q1729.32 1524.89 1727.49 1528.46 Q1725.68 1532 1725.68 1539.13 Q1725.68 1546.23 1727.49 1549.8 Q1729.32 1553.34 1732.93 1553.34 Q1736.56 1553.34 1738.37 1549.8 Q1740.2 1546.23 1740.2 1539.13 Q1740.2 1532 1738.37 1528.46 Q1736.56 1524.89 1732.93 1524.89 M1732.93 1521.19 Q1738.74 1521.19 1741.79 1525.79 Q1744.87 1530.38 1744.87 1539.13 Q1744.87 1547.85 1741.79 1552.46 Q1738.74 1557.04 1732.93 1557.04 Q1727.12 1557.04 1724.04 1552.46 Q1720.98 1547.85 1720.98 1539.13 Q1720.98 1530.38 1724.04 1525.79 Q1727.12 1521.19 1732.93 1521.19 Z" fill="#000000" fill-rule="evenodd" fill-opacity="1" /><path clip-path="url(#clip120)" d="M1749.44 1525.76 L1762.7 1525.76 L1762.7 1528.96 L1744.87 1528.96 L1744.87 1525.76 Q1747.04 1523.53 1750.76 1519.76 Q1754.5 1515.98 1755.46 1514.89 Q1757.29 1512.84 1758 1511.43 Q1758.73 1510 1758.73 1508.63 Q1758.73 1506.39 1757.15 1504.98 Q1755.59 1503.57 1753.07 1503.57 Q1751.29 1503.57 1749.29 1504.19 Q1747.32 1504.81 1745.06 1506.07 L1745.06 1502.24 Q1747.36 1501.31 1749.35 1500.84 Q1751.34 1500.37 1753 1500.37 Q1757.36 1500.37 1759.96 1502.56 Q1762.55 1504.74 1762.55 1508.39 Q1762.55 1510.12 1761.89 1511.68 Q1761.25 1513.22 1759.54 1515.33 Q1759.07 1515.87 1756.55 1518.49 Q1754.03 1521.08 1749.44 1525.76 Z" fill="#000000" fill-rule="evenodd" fill-opacity="1" /><polyline clip-path="url(#clip122)" style="stroke:#000000; stroke-linecap:butt; stroke-linejoin:round; stroke-width:2; stroke-opacity:0.1; fill:none" points="
  213.607,1293.06 2352.76,1293.06 
  "/>
<polyline clip-path="url(#clip122)" style="stroke:#000000; stroke-linecap:butt; stroke-linejoin:round; stroke-width:2; stroke-opacity:0.1; fill:none" points="
  213.607,723.403 2352.76,723.403 
  "/>
<polyline clip-path="url(#clip122)" style="stroke:#000000; stroke-linecap:butt; stroke-linejoin:round; stroke-width:2; stroke-opacity:0.1; fill:none" points="
  213.607,153.742 2352.76,153.742 
  "/>
<polyline clip-path="url(#clip120)" style="stroke:#000000; stroke-linecap:butt; stroke-linejoin:round; stroke-width:4; stroke-opacity:1; fill:none" points="
  213.607,1474.16 213.607,47.2441 
  "/>
<polyline clip-path="url(#clip120)" style="stroke:#000000; stroke-linecap:butt; stroke-linejoin:round; stroke-width:4; stroke-opacity:1; fill:none" points="
  213.607,1293.06 232.505,1293.06 
  "/>
<polyline clip-path="url(#clip120)" style="stroke:#000000; stroke-linecap:butt; stroke-linejoin:round; stroke-width:4; stroke-opacity:1; fill:none" points="
  213.607,723.403 232.505,723.403 
  "/>
<polyline clip-path="url(#clip120)" style="stroke:#000000; stroke-linecap:butt; stroke-linejoin:round; stroke-width:4; stroke-opacity:1; fill:none" points="
  213.607,153.742 232.505,153.742 
  "/>
<path clip-path="url(#clip120)" d="M51.6634 1312.86 L59.3023 1312.86 L59.3023 1286.49 L50.9921 1288.16 L50.9921 1283.9 L59.256 1282.23 L63.9319 1282.23 L63.9319 1312.86 L71.5707 1312.86 L71.5707 1316.79 L51.6634 1316.79 L51.6634 1312.86 Z" fill="#000000" fill-rule="evenodd" fill-opacity="1" /><path clip-path="url(#clip120)" d="M91.0151 1285.31 Q87.404 1285.31 85.5753 1288.88 Q83.7697 1292.42 83.7697 1299.55 Q83.7697 1306.65 85.5753 1310.22 Q87.404 1313.76 91.0151 1313.76 Q94.6493 1313.76 96.4548 1310.22 Q98.2835 1306.65 98.2835 1299.55 Q98.2835 1292.42 96.4548 1288.88 Q94.6493 1285.31 91.0151 1285.31 M91.0151 1281.61 Q96.8252 1281.61 99.8808 1286.21 Q102.959 1290.8 102.959 1299.55 Q102.959 1308.27 99.8808 1312.88 Q96.8252 1317.46 91.0151 1317.46 Q85.2049 1317.46 82.1262 1312.88 Q79.0707 1308.27 79.0707 1299.55 Q79.0707 1290.8 82.1262 1286.21 Q85.2049 1281.61 91.0151 1281.61 Z" fill="#000000" fill-rule="evenodd" fill-opacity="1" /><path clip-path="url(#clip120)" d="M102.959 1275.71 L127.071 1275.71 L127.071 1278.91 L102.959 1278.91 L102.959 1275.71 Z" fill="#000000" fill-rule="evenodd" fill-opacity="1" /><path clip-path="url(#clip120)" d="M135.929 1286.18 L142.136 1286.18 L142.136 1264.76 L135.384 1266.12 L135.384 1262.66 L142.098 1261.3 L145.898 1261.3 L145.898 1286.18 L152.104 1286.18 L152.104 1289.38 L135.929 1289.38 L135.929 1286.18 Z" fill="#000000" fill-rule="evenodd" fill-opacity="1" /><path clip-path="url(#clip120)" d="M167.903 1263.8 Q164.969 1263.8 163.483 1266.7 Q162.016 1269.58 162.016 1275.37 Q162.016 1281.14 163.483 1284.04 Q164.969 1286.92 167.903 1286.92 Q170.855 1286.92 172.322 1284.04 Q173.808 1281.14 173.808 1275.37 Q173.808 1269.58 172.322 1266.7 Q170.855 1263.8 167.903 1263.8 M167.903 1260.79 Q172.623 1260.79 175.106 1264.54 Q177.607 1268.26 177.607 1275.37 Q177.607 1282.46 175.106 1286.2 Q172.623 1289.93 167.903 1289.93 Q163.182 1289.93 160.68 1286.2 Q158.198 1282.46 158.198 1275.37 Q158.198 1268.26 160.68 1264.54 Q163.182 1260.79 167.903 1260.79 Z" fill="#000000" fill-rule="evenodd" fill-opacity="1" /><path clip-path="url(#clip120)" d="M76.9787 743.196 L84.6175 743.196 L84.6175 716.83 L76.3074 718.497 L76.3074 714.237 L84.5712 712.571 L89.2471 712.571 L89.2471 743.196 L96.886 743.196 L96.886 747.131 L76.9787 747.131 L76.9787 743.196 Z" fill="#000000" fill-rule="evenodd" fill-opacity="1" /><path clip-path="url(#clip120)" d="M116.33 715.649 Q112.719 715.649 110.891 719.214 Q109.085 722.756 109.085 729.885 Q109.085 736.992 110.891 740.557 Q112.719 744.098 116.33 744.098 Q119.965 744.098 121.77 740.557 Q123.599 736.992 123.599 729.885 Q123.599 722.756 121.77 719.214 Q119.965 715.649 116.33 715.649 M116.33 711.946 Q122.14 711.946 125.196 716.552 Q128.275 721.136 128.275 729.885 Q128.275 738.612 125.196 743.219 Q122.14 747.802 116.33 747.802 Q110.52 747.802 107.441 743.219 Q104.386 738.612 104.386 729.885 Q104.386 721.136 107.441 716.552 Q110.52 711.946 116.33 711.946 Z" fill="#000000" fill-rule="evenodd" fill-opacity="1" /><path clip-path="url(#clip120)" d="M128.275 706.047 L152.386 706.047 L152.386 709.244 L128.275 709.244 L128.275 706.047 Z" fill="#000000" fill-rule="evenodd" fill-opacity="1" /><path clip-path="url(#clip120)" d="M160.624 691.64 L175.539 691.64 L175.539 694.838 L164.103 694.838 L164.103 701.721 Q164.931 701.439 165.759 701.308 Q166.586 701.157 167.414 701.157 Q172.116 701.157 174.862 703.734 Q177.607 706.31 177.607 710.711 Q177.607 715.244 174.786 717.764 Q171.965 720.266 166.831 720.266 Q165.063 720.266 163.22 719.965 Q161.395 719.664 159.439 719.062 L159.439 715.244 Q161.132 716.166 162.937 716.617 Q164.743 717.068 166.755 717.068 Q170.009 717.068 171.909 715.357 Q173.808 713.645 173.808 710.711 Q173.808 707.777 171.909 706.066 Q170.009 704.354 166.755 704.354 Q165.232 704.354 163.709 704.693 Q162.204 705.031 160.624 705.746 L160.624 691.64 Z" fill="#000000" fill-rule="evenodd" fill-opacity="1" /><path clip-path="url(#clip120)" d="M106.902 173.534 L114.541 173.534 L114.541 147.169 L106.231 148.835 L106.231 144.576 L114.494 142.909 L119.17 142.909 L119.17 173.534 L126.809 173.534 L126.809 177.469 L106.902 177.469 L106.902 173.534 Z" fill="#000000" fill-rule="evenodd" fill-opacity="1" /><path clip-path="url(#clip120)" d="M146.253 145.988 Q142.642 145.988 140.814 149.553 Q139.008 153.094 139.008 160.224 Q139.008 167.331 140.814 170.895 Q142.642 174.437 146.253 174.437 Q149.888 174.437 151.693 170.895 Q153.522 167.331 153.522 160.224 Q153.522 153.094 151.693 149.553 Q149.888 145.988 146.253 145.988 M146.253 142.284 Q152.064 142.284 155.119 146.891 Q158.198 151.474 158.198 160.224 Q158.198 168.951 155.119 173.557 Q152.064 178.141 146.253 178.141 Q140.443 178.141 137.365 173.557 Q134.309 168.951 134.309 160.224 Q134.309 151.474 137.365 146.891 Q140.443 142.284 146.253 142.284 Z" fill="#000000" fill-rule="evenodd" fill-opacity="1" /><path clip-path="url(#clip120)" d="M167.903 124.48 Q164.969 124.48 163.483 127.377 Q162.016 130.254 162.016 136.047 Q162.016 141.821 163.483 144.718 Q164.969 147.595 167.903 147.595 Q170.855 147.595 172.322 144.718 Q173.808 141.821 173.808 136.047 Q173.808 130.254 172.322 127.377 Q170.855 124.48 167.903 124.48 M167.903 121.471 Q172.623 121.471 175.106 125.214 Q177.607 128.938 177.607 136.047 Q177.607 143.138 175.106 146.88 Q172.623 150.604 167.903 150.604 Q163.182 150.604 160.68 146.88 Q158.198 143.138 158.198 136.047 Q158.198 128.938 160.68 125.214 Q163.182 121.471 167.903 121.471 Z" fill="#000000" fill-rule="evenodd" fill-opacity="1" /><polyline clip-path="url(#clip122)" style="stroke:#009af9; stroke-linecap:butt; stroke-linejoin:round; stroke-width:4; stroke-opacity:1; fill:none" points="
  274.149,87.6286 442.321,87.6286 610.494,133.135 778.666,183.429 946.838,255.928 1115.01,325.154 1283.18,393.818 1451.35,462.416 1619.53,531.01 1787.7,599.603 
  1955.87,668.197 2124.04,736.791 
  "/>
<circle clip-path="url(#clip122)" cx="274.149" cy="87.6286" r="14" fill="#009af9" fill-rule="evenodd" fill-opacity="1" stroke="#000000" stroke-opacity="1" stroke-width="3.2"/>
<circle clip-path="url(#clip122)" cx="442.321" cy="87.6286" r="14" fill="#009af9" fill-rule="evenodd" fill-opacity="1" stroke="#000000" stroke-opacity="1" stroke-width="3.2"/>
<circle clip-path="url(#clip122)" cx="610.494" cy="133.135" r="14" fill="#009af9" fill-rule="evenodd" fill-opacity="1" stroke="#000000" stroke-opacity="1" stroke-width="3.2"/>
<circle clip-path="url(#clip122)" cx="778.666" cy="183.429" r="14" fill="#009af9" fill-rule="evenodd" fill-opacity="1" stroke="#000000" stroke-opacity="1" stroke-width="3.2"/>
<circle clip-path="url(#clip122)" cx="946.838" cy="255.928" r="14" fill="#009af9" fill-rule="evenodd" fill-opacity="1" stroke="#000000" stroke-opacity="1" stroke-width="3.2"/>
<circle clip-path="url(#clip122)" cx="1115.01" cy="325.154" r="14" fill="#009af9" fill-rule="evenodd" fill-opacity="1" stroke="#000000" stroke-opacity="1" stroke-width="3.2"/>
<circle clip-path="url(#clip122)" cx="1283.18" cy="393.818" r="14" fill="#009af9" fill-rule="evenodd" fill-opacity="1" stroke="#000000" stroke-opacity="1" stroke-width="3.2"/>
<circle clip-path="url(#clip122)" cx="1451.35" cy="462.416" r="14" fill="#009af9" fill-rule="evenodd" fill-opacity="1" stroke="#000000" stroke-opacity="1" stroke-width="3.2"/>
<circle clip-path="url(#clip122)" cx="1619.53" cy="531.01" r="14" fill="#009af9" fill-rule="evenodd" fill-opacity="1" stroke="#000000" stroke-opacity="1" stroke-width="3.2"/>
<circle clip-path="url(#clip122)" cx="1787.7" cy="599.603" r="14" fill="#009af9" fill-rule="evenodd" fill-opacity="1" stroke="#000000" stroke-opacity="1" stroke-width="3.2"/>
<circle clip-path="url(#clip122)" cx="1955.87" cy="668.197" r="14" fill="#009af9" fill-rule="evenodd" fill-opacity="1" stroke="#000000" stroke-opacity="1" stroke-width="3.2"/>
<circle clip-path="url(#clip122)" cx="2124.04" cy="736.791" r="14" fill="#009af9" fill-rule="evenodd" fill-opacity="1" stroke="#000000" stroke-opacity="1" stroke-width="3.2"/>
<polyline clip-path="url(#clip122)" style="stroke:#e26f46; stroke-linecap:butt; stroke-linejoin:round; stroke-width:4; stroke-opacity:1; fill:none" points="
  442.321,123.165 610.494,123.165 778.666,220.324 946.838,337.06 1115.01,473.592 1283.18,610.676 1451.35,747.84 1619.53,885.023 1787.7,1022.21 1955.87,1159.4 
  2124.04,1296.59 2292.21,1433.78 
  "/>
<path clip-path="url(#clip122)" d="M426.321 107.165 L426.321 139.165 L458.321 139.165 L458.321 107.165 L426.321 107.165 Z" fill="#e26f46" fill-rule="evenodd" fill-opacity="1" stroke="#000000" stroke-opacity="1" stroke-width="3.2"/>
<path clip-path="url(#clip122)" d="M594.494 107.165 L594.494 139.165 L626.494 139.165 L626.494 107.165 L594.494 107.165 Z" fill="#e26f46" fill-rule="evenodd" fill-opacity="1" stroke="#000000" stroke-opacity="1" stroke-width="3.2"/>
<path clip-path="url(#clip122)" d="M762.666 204.324 L762.666 236.324 L794.666 236.324 L794.666 204.324 L762.666 204.324 Z" fill="#e26f46" fill-rule="evenodd" fill-opacity="1" stroke="#000000" stroke-opacity="1" stroke-width="3.2"/>
<path clip-path="url(#clip122)" d="M930.838 321.06 L930.838 353.06 L962.838 353.06 L962.838 321.06 L930.838 321.06 Z" fill="#e26f46" fill-rule="evenodd" fill-opacity="1" stroke="#000000" stroke-opacity="1" stroke-width="3.2"/>
<path clip-path="url(#clip122)" d="M1099.01 457.592 L1099.01 489.592 L1131.01 489.592 L1131.01 457.592 L1099.01 457.592 Z" fill="#e26f46" fill-rule="evenodd" fill-opacity="1" stroke="#000000" stroke-opacity="1" stroke-width="3.2"/>
<path clip-path="url(#clip122)" d="M1267.18 594.676 L1267.18 626.676 L1299.18 626.676 L1299.18 594.676 L1267.18 594.676 Z" fill="#e26f46" fill-rule="evenodd" fill-opacity="1" stroke="#000000" stroke-opacity="1" stroke-width="3.2"/>
<path clip-path="url(#clip122)" d="M1435.35 731.84 L1435.35 763.84 L1467.35 763.84 L1467.35 731.84 L1435.35 731.84 Z" fill="#e26f46" fill-rule="evenodd" fill-opacity="1" stroke="#000000" stroke-opacity="1" stroke-width="3.2"/>
<path clip-path="url(#clip122)" d="M1603.53 869.023 L1603.53 901.023 L1635.53 901.023 L1635.53 869.023 L1603.53 869.023 Z" fill="#e26f46" fill-rule="evenodd" fill-opacity="1" stroke="#000000" stroke-opacity="1" stroke-width="3.2"/>
<path clip-path="url(#clip122)" d="M1771.7 1006.21 L1771.7 1038.21 L1803.7 1038.21 L1803.7 1006.21 L1771.7 1006.21 Z" fill="#e26f46" fill-rule="evenodd" fill-opacity="1" stroke="#000000" stroke-opacity="1" stroke-width="3.2"/>
<path clip-path="url(#clip122)" d="M1939.87 1143.4 L1939.87 1175.4 L1971.87 1175.4 L1971.87 1143.4 L1939.87 1143.4 Z" fill="#e26f46" fill-rule="evenodd" fill-opacity="1" stroke="#000000" stroke-opacity="1" stroke-width="3.2"/>
<path clip-path="url(#clip122)" d="M2108.04 1280.59 L2108.04 1312.59 L2140.04 1312.59 L2140.04 1280.59 L2108.04 1280.59 Z" fill="#e26f46" fill-rule="evenodd" fill-opacity="1" stroke="#000000" stroke-opacity="1" stroke-width="3.2"/>
<path clip-path="url(#clip122)" d="M2276.21 1417.78 L2276.21 1449.78 L2308.21 1449.78 L2308.21 1417.78 L2276.21 1417.78 Z" fill="#e26f46" fill-rule="evenodd" fill-opacity="1" stroke="#000000" stroke-opacity="1" stroke-width="3.2"/>
<path clip-path="url(#clip120)" d="
M1932.8 250.328 L2281.45 250.328 L2281.45 94.8081 L1932.8 94.8081  Z
  " fill="#ffffff" fill-rule="evenodd" fill-opacity="1"/>
<polyline clip-path="url(#clip120)" style="stroke:#000000; stroke-linecap:butt; stroke-linejoin:round; stroke-width:4; stroke-opacity:1; fill:none" points="
  1932.8,250.328 2281.45,250.328 2281.45,94.8081 1932.8,94.8081 1932.8,250.328 
  "/>
<polyline clip-path="url(#clip120)" style="stroke:#009af9; stroke-linecap:butt; stroke-linejoin:round; stroke-width:4; stroke-opacity:1; fill:none" points="
  1956.56,146.648 2099.17,146.648 
  "/>
<circle clip-path="url(#clip120)" cx="2027.87" cy="146.648" r="23" fill="#009af9" fill-rule="evenodd" fill-opacity="1" stroke="#000000" stroke-opacity="1" stroke-width="5.12"/>
<path clip-path="url(#clip120)" d="M2144.66 148.28 L2144.66 163.928 L2140.4 163.928 L2140.4 148.419 Q2140.4 144.738 2138.96 142.91 Q2137.53 141.081 2134.66 141.081 Q2131.21 141.081 2129.22 143.28 Q2127.23 145.479 2127.23 149.275 L2127.23 163.928 L2122.94 163.928 L2122.94 127.91 L2127.23 127.91 L2127.23 142.03 Q2128.75 139.692 2130.81 138.535 Q2132.9 137.377 2135.6 137.377 Q2140.07 137.377 2142.36 140.155 Q2144.66 142.91 2144.66 148.28 Z" fill="#000000" fill-rule="evenodd" fill-opacity="1" /><path clip-path="url(#clip120)" d="M2175.33 149.9 L2175.33 151.984 L2155.74 151.984 Q2156.02 156.382 2158.38 158.697 Q2160.77 160.988 2165 160.988 Q2167.46 160.988 2169.75 160.386 Q2172.06 159.785 2174.33 158.581 L2174.33 162.609 Q2172.04 163.581 2169.63 164.09 Q2167.22 164.599 2164.75 164.599 Q2158.54 164.599 2154.91 160.988 Q2151.3 157.377 2151.3 151.22 Q2151.3 144.854 2154.72 141.127 Q2158.17 137.377 2164.01 137.377 Q2169.24 137.377 2172.27 140.757 Q2175.33 144.113 2175.33 149.9 M2171.07 148.65 Q2171.02 145.155 2169.1 143.072 Q2167.2 140.988 2164.05 140.988 Q2160.49 140.988 2158.34 143.002 Q2156.21 145.016 2155.88 148.674 L2171.07 148.65 Z" fill="#000000" fill-rule="evenodd" fill-opacity="1" /><path clip-path="url(#clip120)" d="M2181.88 153.697 L2181.88 138.002 L2186.14 138.002 L2186.14 153.535 Q2186.14 157.215 2187.57 159.067 Q2189.01 160.896 2191.88 160.896 Q2195.33 160.896 2197.32 158.697 Q2199.33 156.498 2199.33 152.701 L2199.33 138.002 L2203.59 138.002 L2203.59 163.928 L2199.33 163.928 L2199.33 159.947 Q2197.78 162.308 2195.72 163.465 Q2193.68 164.599 2190.97 164.599 Q2186.51 164.599 2184.19 161.822 Q2181.88 159.044 2181.88 153.697 M2192.6 137.377 L2192.6 137.377 Z" fill="#000000" fill-rule="evenodd" fill-opacity="1" /><path clip-path="url(#clip120)" d="M2233.91 148.28 L2233.91 163.928 L2229.66 163.928 L2229.66 148.419 Q2229.66 144.738 2228.22 142.91 Q2226.78 141.081 2223.91 141.081 Q2220.47 141.081 2218.47 143.28 Q2216.48 145.479 2216.48 149.275 L2216.48 163.928 L2212.2 163.928 L2212.2 138.002 L2216.48 138.002 L2216.48 142.03 Q2218.01 139.692 2220.07 138.535 Q2222.16 137.377 2224.86 137.377 Q2229.33 137.377 2231.62 140.155 Q2233.91 142.91 2233.91 148.28 Z" fill="#000000" fill-rule="evenodd" fill-opacity="1" /><polyline clip-path="url(#clip120)" style="stroke:#e26f46; stroke-linecap:butt; stroke-linejoin:round; stroke-width:4; stroke-opacity:1; fill:none" points="
  1956.56,198.488 2099.17,198.488 
  "/>
<path clip-path="url(#clip120)" d="M2002.27 172.888 L2002.27 224.088 L2053.47 224.088 L2053.47 172.888 L2002.27 172.888 Z" fill="#e26f46" fill-rule="evenodd" fill-opacity="1" stroke="#000000" stroke-opacity="1" stroke-width="5.12"/>
<path clip-path="url(#clip120)" d="M2138.13 193.824 Q2137.41 193.407 2136.55 193.222 Q2135.72 193.014 2134.7 193.014 Q2131.09 193.014 2129.15 195.375 Q2127.23 197.713 2127.23 202.111 L2127.23 215.768 L2122.94 215.768 L2122.94 189.842 L2127.23 189.842 L2127.23 193.87 Q2128.57 191.509 2130.72 190.375 Q2132.87 189.217 2135.95 189.217 Q2136.39 189.217 2136.92 189.287 Q2137.46 189.333 2138.1 189.449 L2138.13 193.824 Z" fill="#000000" fill-rule="evenodd" fill-opacity="1" /><path clip-path="url(#clip120)" d="M2142.43 179.75 L2146.72 179.75 L2146.72 201.023 L2159.42 189.842 L2164.86 189.842 L2151.11 201.972 L2165.44 215.768 L2159.89 215.768 L2146.72 203.106 L2146.72 215.768 L2142.43 215.768 L2142.43 179.75 Z" fill="#000000" fill-rule="evenodd" fill-opacity="1" /><path clip-path="url(#clip120)" d="M2183.5 185.282 L2171.69 203.731 L2183.5 203.731 L2183.5 185.282 M2182.27 181.208 L2188.15 181.208 L2188.15 203.731 L2193.08 203.731 L2193.08 207.62 L2188.15 207.62 L2188.15 215.768 L2183.5 215.768 L2183.5 207.62 L2167.9 207.62 L2167.9 203.106 L2182.27 181.208 Z" fill="#000000" fill-rule="evenodd" fill-opacity="1" /></svg>
