<?xml version="1.0" encoding="utf-8"?>
<svg xmlns="http://www.w3.org/2000/svg" xmlns:xlink="http://www.w3.org/1999/xlink" width="600" height="400" viewBox="0 0 2400 1600">
<defs>
  <clipPath id="clip700">
    <rect x="0" y="0" width="2400" height="1600"/>
  </clipPath>
</defs>
<path clip-path="url(#clip700)" d="
M0 1600 L2400 1600 L2400 0 L0 0  Z
  " fill="#ffffff" fill-rule="evenodd" fill-opacity="1"/>
<defs>
  <clipPath id="clip701">
    <rect x="480" y="0" width="1681" height="1600"/>
  </clipPath>
</defs>
<path clip-path="url(#clip700)" d="
M156.112 1486.45 L2352.76 1486.45 L2352.76 47.2441 L156.112 47.2441  Z
  " fill="#ffffff" fill-rule="evenodd" fill-opacity="1"/>
<defs>
  <clipPath id="clip702">
    <rect x="156" y="47" width="2198" height="1440"/>
  </clipPath>
</defs>
<polyline clip-path="url(#clip702)" style="stroke:#000000; stroke-linecap:butt; stroke-linejoin:round; stroke-width:2; stroke-opacity:0.1; fill:none" points="
  218.281,1486.45 218.281,47.2441 
  "/>
<polyline clip-path="url(#clip702)" style="stroke:#000000; stroke-linecap:butt; stroke-linejoin:round; stroke-width:2; stroke-opacity:0.1; fill:none" points="
  736.358,1486.45 736.358,47.2441 
  "/>
<polyline clip-path="url(#clip702)" style="stroke:#000000; stroke-linecap:butt; stroke-linejoin:round; stroke-width:2; stroke-opacity:0.1; fill:none" points="
  1254.43,1486.45 1254.43,47.2441 
  "/>
<polyline clip-path="url(#clip702)" style="stroke:#000000; stroke-linecap:butt; stroke-linejoin:round; stroke-width:2; stroke-opacity:0.1; fill:none" points="
  1772.51,1486.45 1772.51,47.2441 
  "/>
<polyline clip-path="url(#clip702)" style="stroke:#000000; stroke-linecap:butt; stroke-linejoin:round; stroke-width:2; stroke-opacity:0.1; fill:none" points="
  2290.59,1486.45 2290.59,47.2441 
  "/>
<polyline clip-path="url(#clip700)" style="stroke:#000000; stroke-linecap:butt; stroke-linejoin:round; stroke-width:4; stroke-opacity:1; fill:none" points="
  156.112,1486.45 2352.76,1486.45 
  "/>
<polyline clip-path="url(#clip700)" style="stroke:#000000; stroke-linecap:butt; stroke-linejoin:round; stroke-width:4; stroke-opacity:1; fill:none" points="
  218.281,1486.45 218.281,1467.55 
  "/>
<polyline clip-path="url(#clip700)" style="stroke:#000000; stroke-linecap:butt; stroke-linejoin:round; stroke-width:4; stroke-opacity:1; fill:none" points="
  736.358,1486.45 736.358,1467.55 
  "/>
<polyline clip-path="url(#clip700)" style="stroke:#000000; stroke-linecap:butt; stroke-linejoin:round; stroke-width:4; stroke-opacity:1; fill:none" points="
  1254.43,1486.45 1254.43,1467.55 
  "/>
<polyline clip-path="url(#clip700)" style="stroke:#000000; stroke-linecap:butt; stroke-linejoin:round; stroke-width:4; stroke-opacity:1; fill:none" points="
  1772.51,1486.45 1772.51,1467.55 
  "/>
<polyline clip-path="url(#clip700)" style="stroke:#000000; stroke-linecap:butt; stroke-linejoin:round; stroke-width:4; stroke-opacity:1; fill:none" points="
  2290.59,1486.45 2290.59,1467.55 
  "/>
<path clip-path="url(#clip700)" d="M164.809 1530.29 L194.485 1530.29 L194.485 1534.23 L164.809 1534.23 L164.809 1530.29 Z" fill="#000000" fill-rule="evenodd" fill-opacity="1" /><path clip-path="url(#clip700)" d="M205.388 1543.18 L213.027 1543.18 L213.027 1516.82 L204.717 1518.49 L204.717 1514.23 L212.98 1512.56 L217.656 1512.56 L217.656 1543.18 L225.295 1543.18 L225.295 1547.12 L205.388 1547.12 L205.388 1543.18 Z" fill="#000000" fill-rule="evenodd" fill-opacity="1" /><path clip-path="url(#clip700)" d="M234.74 1541.24 L239.624 1541.24 L239.624 1547.12 L234.74 1547.12 L234.74 1541.24 Z" fill="#000000" fill-rule="evenodd" fill-opacity="1" /><path clip-path="url(#clip700)" d="M259.809 1515.64 Q256.198 1515.64 254.369 1519.2 Q252.564 1522.75 252.564 1529.87 Q252.564 1536.98 254.369 1540.55 Q256.198 1544.09 259.809 1544.09 Q263.443 1544.09 265.249 1540.55 Q267.077 1536.98 267.077 1529.87 Q267.077 1522.75 265.249 1519.2 Q263.443 1515.64 259.809 1515.64 M259.809 1511.93 Q265.619 1511.93 268.675 1516.54 Q271.753 1521.12 271.753 1529.87 Q271.753 1538.6 268.675 1543.21 Q265.619 1547.79 259.809 1547.79 Q253.999 1547.79 250.92 1543.21 Q247.864 1538.6 247.864 1529.87 Q247.864 1521.12 250.92 1516.54 Q253.999 1511.93 259.809 1511.93 Z" fill="#000000" fill-rule="evenodd" fill-opacity="1" /><path clip-path="url(#clip700)" d="M683.383 1530.29 L713.059 1530.29 L713.059 1534.23 L683.383 1534.23 L683.383 1530.29 Z" fill="#000000" fill-rule="evenodd" fill-opacity="1" /><path clip-path="url(#clip700)" d="M733.152 1515.64 Q729.541 1515.64 727.712 1519.2 Q725.906 1522.75 725.906 1529.87 Q725.906 1536.98 727.712 1540.55 Q729.541 1544.09 733.152 1544.09 Q736.786 1544.09 738.591 1540.55 Q740.42 1536.98 740.42 1529.87 Q740.42 1522.75 738.591 1519.2 Q736.786 1515.64 733.152 1515.64 M733.152 1511.93 Q738.962 1511.93 742.017 1516.54 Q745.096 1521.12 745.096 1529.87 Q745.096 1538.6 742.017 1543.21 Q738.962 1547.79 733.152 1547.79 Q727.341 1547.79 724.263 1543.21 Q721.207 1538.6 721.207 1529.87 Q721.207 1521.12 724.263 1516.54 Q727.341 1511.93 733.152 1511.93 Z" fill="#000000" fill-rule="evenodd" fill-opacity="1" /><path clip-path="url(#clip700)" d="M753.314 1541.24 L758.198 1541.24 L758.198 1547.12 L753.314 1547.12 L753.314 1541.24 Z" fill="#000000" fill-rule="evenodd" fill-opacity="1" /><path clip-path="url(#clip700)" d="M768.429 1512.56 L786.786 1512.56 L786.786 1516.5 L772.712 1516.5 L772.712 1524.97 Q773.73 1524.62 774.749 1524.46 Q775.767 1524.27 776.786 1524.27 Q782.573 1524.27 785.952 1527.44 Q789.332 1530.62 789.332 1536.03 Q789.332 1541.61 785.86 1544.71 Q782.387 1547.79 776.068 1547.79 Q773.892 1547.79 771.624 1547.42 Q769.378 1547.05 766.971 1546.31 L766.971 1541.61 Q769.054 1542.74 771.276 1543.3 Q773.499 1543.86 775.975 1543.86 Q779.98 1543.86 782.318 1541.75 Q784.656 1539.64 784.656 1536.03 Q784.656 1532.42 782.318 1530.31 Q779.98 1528.21 775.975 1528.21 Q774.101 1528.21 772.226 1528.62 Q770.374 1529.04 768.429 1529.92 L768.429 1512.56 Z" fill="#000000" fill-rule="evenodd" fill-opacity="1" /><path clip-path="url(#clip700)" d="M1231.82 1515.64 Q1228.21 1515.64 1226.38 1519.2 Q1224.57 1522.75 1224.57 1529.87 Q1224.57 1536.98 1226.38 1540.55 Q1228.21 1544.09 1231.82 1544.09 Q1235.45 1544.09 1237.26 1540.55 Q1239.09 1536.98 1239.09 1529.87 Q1239.09 1522.75 1237.26 1519.2 Q1235.45 1515.64 1231.82 1515.64 M1231.82 1511.93 Q1237.63 1511.93 1240.68 1516.54 Q1243.76 1521.12 1243.76 1529.87 Q1243.76 1538.6 1240.68 1543.21 Q1237.63 1547.79 1231.82 1547.79 Q1226.01 1547.79 1222.93 1543.21 Q1219.87 1538.6 1219.87 1529.87 Q1219.87 1521.12 1222.93 1516.54 Q1226.01 1511.93 1231.82 1511.93 Z" fill="#000000" fill-rule="evenodd" fill-opacity="1" /><path clip-path="url(#clip700)" d="M1251.98 1541.24 L1256.86 1541.24 L1256.86 1547.12 L1251.98 1547.12 L1251.98 1541.24 Z" fill="#000000" fill-rule="evenodd" fill-opacity="1" /><path clip-path="url(#clip700)" d="M1277.05 1515.64 Q1273.44 1515.64 1271.61 1519.2 Q1269.8 1522.75 1269.8 1529.87 Q1269.8 1536.98 1271.61 1540.55 Q1273.44 1544.09 1277.05 1544.09 Q1280.68 1544.09 1282.49 1540.55 Q1284.32 1536.98 1284.32 1529.87 Q1284.32 1522.75 1282.49 1519.2 Q1280.68 1515.64 1277.05 1515.64 M1277.05 1511.93 Q1282.86 1511.93 1285.92 1516.54 Q1288.99 1521.12 1288.99 1529.87 Q1288.99 1538.6 1285.92 1543.21 Q1282.86 1547.79 1277.05 1547.79 Q1271.24 1547.79 1268.16 1543.21 Q1265.11 1538.6 1265.11 1529.87 Q1265.11 1521.12 1268.16 1516.54 Q1271.24 1511.93 1277.05 1511.93 Z" fill="#000000" fill-rule="evenodd" fill-opacity="1" /><path clip-path="url(#clip700)" d="M1750.39 1515.64 Q1746.78 1515.64 1744.95 1519.2 Q1743.15 1522.75 1743.15 1529.87 Q1743.15 1536.98 1744.95 1540.55 Q1746.78 1544.09 1750.39 1544.09 Q1754.03 1544.09 1755.83 1540.55 Q1757.66 1536.98 1757.66 1529.87 Q1757.66 1522.75 1755.83 1519.2 Q1754.03 1515.64 1750.39 1515.64 M1750.39 1511.93 Q1756.2 1511.93 1759.26 1516.54 Q1762.34 1521.12 1762.34 1529.87 Q1762.34 1538.6 1759.26 1543.21 Q1756.2 1547.79 1750.39 1547.79 Q1744.58 1547.79 1741.5 1543.21 Q1738.45 1538.6 1738.45 1529.87 Q1738.45 1521.12 1741.5 1516.54 Q1744.58 1511.93 1750.39 1511.93 Z" fill="#000000" fill-rule="evenodd" fill-opacity="1" /><path clip-path="url(#clip700)" d="M1770.55 1541.24 L1775.44 1541.24 L1775.44 1547.12 L1770.55 1547.12 L1770.55 1541.24 Z" fill="#000000" fill-rule="evenodd" fill-opacity="1" /><path clip-path="url(#clip700)" d="M1785.67 1512.56 L1804.03 1512.56 L1804.03 1516.5 L1789.95 1516.5 L1789.95 1524.97 Q1790.97 1524.62 1791.99 1524.46 Q1793.01 1524.27 1794.03 1524.27 Q1799.81 1524.27 1803.19 1527.44 Q1806.57 1530.62 1806.57 1536.03 Q1806.57 1541.61 1803.1 1544.71 Q1799.63 1547.79 1793.31 1547.79 Q1791.13 1547.79 1788.86 1547.42 Q1786.62 1547.05 1784.21 1546.31 L1784.21 1541.61 Q1786.3 1542.74 1788.52 1543.3 Q1790.74 1543.86 1793.22 1543.86 Q1797.22 1543.86 1799.56 1541.75 Q1801.9 1539.64 1801.9 1536.03 Q1801.9 1532.42 1799.56 1530.31 Q1797.22 1528.21 1793.22 1528.21 Q1791.34 1528.21 1789.47 1528.62 Q1787.61 1529.04 1785.67 1529.92 L1785.67 1512.56 Z" fill="#000000" fill-rule="evenodd" fill-opacity="1" /><path clip-path="url(#clip700)" d="M2257.74 1543.18 L2265.38 1543.18 L2265.38 1516.82 L2257.07 1518.49 L2257.07 1514.23 L2265.33 1512.56 L2270.01 1512.56 L2270.01 1543.18 L2277.65 1543.18 L2277.65 1547.12 L2257.74 1547.12 L2257.74 1543.18 Z" fill="#000000" fill-rule="evenodd" fill-opacity="1" /><path clip-path="url(#clip700)" d="M2287.09 1541.24 L2291.98 1541.24 L2291.98 1547.12 L2287.09 1547.12 L2287.09 1541.24 Z" fill="#000000" fill-rule="evenodd" fill-opacity="1" /><path clip-path="url(#clip700)" d="M2312.16 1515.64 Q2308.55 1515.64 2306.72 1519.2 Q2304.92 1522.75 2304.92 1529.87 Q2304.92 1536.98 2306.72 1540.55 Q2308.55 1544.09 2312.16 1544.09 Q2315.79 1544.09 2317.6 1540.55 Q2319.43 1536.98 2319.43 1529.87 Q2319.43 1522.75 2317.6 1519.2 Q2315.79 1515.64 2312.16 1515.64 M2312.16 1511.93 Q2317.97 1511.93 2321.03 1516.54 Q2324.11 1521.12 2324.11 1529.87 Q2324.11 1538.6 2321.03 1543.21 Q2317.97 1547.79 2312.16 1547.79 Q2306.35 1547.79 2303.27 1543.21 Q2300.22 1538.6 2300.22 1529.87 Q2300.22 1521.12 2303.27 1516.54 Q2306.35 1511.93 2312.16 1511.93 Z" fill="#000000" fill-rule="evenodd" fill-opacity="1" /><polyline clip-path="url(#clip702)" style="stroke:#000000; stroke-linecap:butt; stroke-linejoin:round; stroke-width:2; stroke-opacity:0.1; fill:none" points="
  156.112,1445.72 2352.76,1445.72 
  "/>
<polyline clip-path="url(#clip702)" style="stroke:#000000; stroke-linecap:butt; stroke-linejoin:round; stroke-width:2; stroke-opacity:0.1; fill:none" points="
  156.112,1106.28 2352.76,1106.28 
  "/>
<polyline clip-path="url(#clip702)" style="stroke:#000000; stroke-linecap:butt; stroke-linejoin:round; stroke-width:2; stroke-opacity:0.1; fill:none" points="
  156.112,766.846 2352.76,766.846 
  "/>
<polyline clip-path="url(#clip702)" style="stroke:#000000; stroke-linecap:butt; stroke-linejoin:round; stroke-width:2; stroke-opacity:0.1; fill:none" points="
  156.112,427.411 2352.76,427.411 
  "/>
<polyline clip-path="url(#clip702)" style="stroke:#000000; stroke-linecap:butt; stroke-linejoin:round; stroke-width:2; stroke-opacity:0.1; fill:none" points="
  156.112,87.9763 2352.76,87.9763 
  "/>
<polyline clip-path="url(#clip700)" style="stroke:#000000; stroke-linecap:butt; stroke-linejoin:round; stroke-width:4; stroke-opacity:1; fill:none" points="
  156.112,1486.45 156.112,47.2441 
  "/>
<polyline clip-path="url(#clip700)" style="stroke:#000000; stroke-linecap:butt; stroke-linejoin:round; stroke-width:4; stroke-opacity:1; fill:none" points="
  156.112,1445.72 175.01,1445.72 
  "/>
<polyline clip-path="url(#clip700)" style="stroke:#000000; stroke-linecap:butt; stroke-linejoin:round; stroke-width:4; stroke-opacity:1; fill:none" points="
  156.112,1106.28 175.01,1106.28 
  "/>
<polyline clip-path="url(#clip700)" style="stroke:#000000; stroke-linecap:butt; stroke-linejoin:round; stroke-width:4; stroke-opacity:1; fill:none" points="
  156.112,766.846 175.01,766.846 
  "/>
<polyline clip-path="url(#clip700)" style="stroke:#000000; stroke-linecap:butt; stroke-linejoin:round; stroke-width:4; stroke-opacity:1; fill:none" points="
  156.112,427.411 175.01,427.411 
  "/>
<polyline clip-path="url(#clip700)" style="stroke:#000000; stroke-linecap:butt; stroke-linejoin:round; stroke-width:4; stroke-opacity:1; fill:none" points="
  156.112,87.9763 175.01,87.9763 
  "/>
<path clip-path="url(#clip700)" d="M62.9365 1431.51 Q59.3254 1431.51 57.4967 1435.08 Q55.6912 1438.62 55.6912 1445.75 Q55.6912 1452.86 57.4967 1456.42 Q59.3254 1459.96 62.9365 1459.96 Q66.5707 1459.96 68.3763 1456.42 Q70.205 1452.86 70.205 1445.75 Q70.205 1438.62 68.3763 1435.08 Q66.5707 1431.51 62.9365 1431.51 M62.9365 1427.81 Q68.7467 1427.81 71.8022 1432.42 Q74.8809 1437 74.8809 1445.75 Q74.8809 1454.48 71.8022 1459.08 Q68.7467 1463.67 62.9365 1463.67 Q57.1264 1463.67 54.0477 1459.08 Q50.9921 1454.48 50.9921 1445.75 Q50.9921 1437 54.0477 1432.42 Q57.1264 1427.81 62.9365 1427.81 Z" fill="#000000" fill-rule="evenodd" fill-opacity="1" /><path clip-path="url(#clip700)" d="M83.0984 1457.12 L87.9827 1457.12 L87.9827 1463 L83.0984 1463 L83.0984 1457.12 Z" fill="#000000" fill-rule="evenodd" fill-opacity="1" /><path clip-path="url(#clip700)" d="M108.168 1431.51 Q104.557 1431.51 102.728 1435.08 Q100.922 1438.62 100.922 1445.75 Q100.922 1452.86 102.728 1456.42 Q104.557 1459.96 108.168 1459.96 Q111.802 1459.96 113.608 1456.42 Q115.436 1452.86 115.436 1445.75 Q115.436 1438.62 113.608 1435.08 Q111.802 1431.51 108.168 1431.51 M108.168 1427.81 Q113.978 1427.81 117.033 1432.42 Q120.112 1437 120.112 1445.75 Q120.112 1454.48 117.033 1459.08 Q113.978 1463.67 108.168 1463.67 Q102.358 1463.67 99.2789 1459.08 Q96.2234 1454.48 96.2234 1445.75 Q96.2234 1437 99.2789 1432.42 Q102.358 1427.81 108.168 1427.81 Z" fill="#000000" fill-rule="evenodd" fill-opacity="1" /><path clip-path="url(#clip700)" d="M63.9319 1092.08 Q60.3208 1092.08 58.4921 1095.64 Q56.6865 1099.19 56.6865 1106.32 Q56.6865 1113.42 58.4921 1116.99 Q60.3208 1120.53 63.9319 1120.53 Q67.5661 1120.53 69.3717 1116.99 Q71.2004 1113.42 71.2004 1106.32 Q71.2004 1099.19 69.3717 1095.64 Q67.5661 1092.08 63.9319 1092.08 M63.9319 1088.38 Q69.742 1088.38 72.7976 1092.98 Q75.8763 1097.57 75.8763 1106.32 Q75.8763 1115.04 72.7976 1119.65 Q69.742 1124.23 63.9319 1124.23 Q58.1217 1124.23 55.043 1119.65 Q51.9875 1115.04 51.9875 1106.32 Q51.9875 1097.57 55.043 1092.98 Q58.1217 1088.38 63.9319 1088.38 Z" fill="#000000" fill-rule="evenodd" fill-opacity="1" /><path clip-path="url(#clip700)" d="M84.0938 1117.68 L88.978 1117.68 L88.978 1123.56 L84.0938 1123.56 L84.0938 1117.68 Z" fill="#000000" fill-rule="evenodd" fill-opacity="1" /><path clip-path="url(#clip700)" d="M99.2095 1089 L117.566 1089 L117.566 1092.94 L103.492 1092.94 L103.492 1101.41 Q104.51 1101.06 105.529 1100.9 Q106.547 1100.71 107.566 1100.71 Q113.353 1100.71 116.733 1103.89 Q120.112 1107.06 120.112 1112.47 Q120.112 1118.05 116.64 1121.15 Q113.168 1124.23 106.848 1124.23 Q104.672 1124.23 102.404 1123.86 Q100.159 1123.49 97.7511 1122.75 L97.7511 1118.05 Q99.8345 1119.19 102.057 1119.74 Q104.279 1120.3 106.756 1120.3 Q110.76 1120.3 113.098 1118.19 Q115.436 1116.08 115.436 1112.47 Q115.436 1108.86 113.098 1106.76 Q110.76 1104.65 106.756 1104.65 Q104.881 1104.65 103.006 1105.07 Q101.154 1105.48 99.2095 1106.36 L99.2095 1089 Z" fill="#000000" fill-rule="evenodd" fill-opacity="1" /><path clip-path="url(#clip700)" d="M53.7467 780.191 L61.3856 780.191 L61.3856 753.825 L53.0754 755.492 L53.0754 751.233 L61.3393 749.566 L66.0152 749.566 L66.0152 780.191 L73.654 780.191 L73.654 784.126 L53.7467 784.126 L53.7467 780.191 Z" fill="#000000" fill-rule="evenodd" fill-opacity="1" /><path clip-path="url(#clip700)" d="M83.0984 778.246 L87.9827 778.246 L87.9827 784.126 L83.0984 784.126 L83.0984 778.246 Z" fill="#000000" fill-rule="evenodd" fill-opacity="1" /><path clip-path="url(#clip700)" d="M108.168 752.645 Q104.557 752.645 102.728 756.209 Q100.922 759.751 100.922 766.881 Q100.922 773.987 102.728 777.552 Q104.557 781.094 108.168 781.094 Q111.802 781.094 113.608 777.552 Q115.436 773.987 115.436 766.881 Q115.436 759.751 113.608 756.209 Q111.802 752.645 108.168 752.645 M108.168 748.941 Q113.978 748.941 117.033 753.547 Q120.112 758.131 120.112 766.881 Q120.112 775.608 117.033 780.214 Q113.978 784.797 108.168 784.797 Q102.358 784.797 99.2789 780.214 Q96.2234 775.608 96.2234 766.881 Q96.2234 758.131 99.2789 753.547 Q102.358 748.941 108.168 748.941 Z" fill="#000000" fill-rule="evenodd" fill-opacity="1" /><path clip-path="url(#clip700)" d="M54.7421 440.756 L62.381 440.756 L62.381 414.39 L54.0708 416.057 L54.0708 411.798 L62.3347 410.131 L67.0106 410.131 L67.0106 440.756 L74.6494 440.756 L74.6494 444.691 L54.7421 444.691 L54.7421 440.756 Z" fill="#000000" fill-rule="evenodd" fill-opacity="1" /><path clip-path="url(#clip700)" d="M84.0938 438.812 L88.978 438.812 L88.978 444.691 L84.0938 444.691 L84.0938 438.812 Z" fill="#000000" fill-rule="evenodd" fill-opacity="1" /><path clip-path="url(#clip700)" d="M99.2095 410.131 L117.566 410.131 L117.566 414.066 L103.492 414.066 L103.492 422.538 Q104.51 422.191 105.529 422.029 Q106.547 421.844 107.566 421.844 Q113.353 421.844 116.733 425.015 Q120.112 428.187 120.112 433.603 Q120.112 439.182 116.64 442.284 Q113.168 445.362 106.848 445.362 Q104.672 445.362 102.404 444.992 Q100.159 444.622 97.7511 443.881 L97.7511 439.182 Q99.8345 440.316 102.057 440.872 Q104.279 441.427 106.756 441.427 Q110.76 441.427 113.098 439.321 Q115.436 437.214 115.436 433.603 Q115.436 429.992 113.098 427.886 Q110.76 425.779 106.756 425.779 Q104.881 425.779 103.006 426.196 Q101.154 426.613 99.2095 427.492 L99.2095 410.131 Z" fill="#000000" fill-rule="evenodd" fill-opacity="1" /><path clip-path="url(#clip700)" d="M56.9643 101.321 L73.2837 101.321 L73.2837 105.256 L51.3393 105.256 L51.3393 101.321 Q54.0014 98.5665 58.5847 93.9369 Q63.1911 89.2841 64.3717 87.9416 Q66.617 85.4184 67.4967 83.6823 Q68.3994 81.9231 68.3994 80.2333 Q68.3994 77.4786 66.455 75.7425 Q64.5337 74.0064 61.4319 74.0064 Q59.2328 74.0064 56.7791 74.7703 Q54.3486 75.5342 51.5708 77.0851 L51.5708 72.3629 Q54.3949 71.2287 56.8486 70.65 Q59.3023 70.0713 61.3393 70.0713 Q66.7096 70.0713 69.9041 72.7565 Q73.0985 75.4416 73.0985 79.9323 Q73.0985 82.062 72.2883 83.9832 Q71.5013 85.8814 69.3948 88.474 Q68.8161 89.1453 65.7143 92.3628 Q62.6124 95.5573 56.9643 101.321 Z" fill="#000000" fill-rule="evenodd" fill-opacity="1" /><path clip-path="url(#clip700)" d="M83.0984 99.3767 L87.9827 99.3767 L87.9827 105.256 L83.0984 105.256 L83.0984 99.3767 Z" fill="#000000" fill-rule="evenodd" fill-opacity="1" /><path clip-path="url(#clip700)" d="M108.168 73.775 Q104.557 73.775 102.728 77.3398 Q100.922 80.8814 100.922 88.011 Q100.922 95.1174 102.728 98.6822 Q104.557 102.224 108.168 102.224 Q111.802 102.224 113.608 98.6822 Q115.436 95.1174 115.436 88.011 Q115.436 80.8814 113.608 77.3398 Q111.802 73.775 108.168 73.775 M108.168 70.0713 Q113.978 70.0713 117.033 74.6777 Q120.112 79.261 120.112 88.011 Q120.112 96.7378 117.033 101.344 Q113.978 105.928 108.168 105.928 Q102.358 105.928 99.2789 101.344 Q96.2234 96.7378 96.2234 88.011 Q96.2234 79.261 99.2789 74.6777 Q102.358 70.0713 108.168 70.0713 Z" fill="#000000" fill-rule="evenodd" fill-opacity="1" /><polyline clip-path="url(#clip702)" style="stroke:#009af9; stroke-linecap:butt; stroke-linejoin:round; stroke-width:16; stroke-opacity:1; fill:none" points="
  218.281,1438.92 321.897,1380.59 425.512,1267.44 529.127,1109.57 632.742,921.087 736.358,718.825 839.973,520.852 943.588,344.854 1047.2,206.551 1150.82,118.297 
  1254.43,87.9763 1358.05,118.297 1461.66,206.551 1565.28,344.854 1668.9,520.852 1772.51,718.825 1876.13,921.087 1979.74,1109.57 2083.36,1267.44 2186.97,1380.59 
  2290.59,1438.92 
  "/>
<circle clip-path="url(#clip702)" cx="943.588" cy="344.854" r="14" fill="#e26f46" fill-rule="evenodd" fill-opacity="1" stroke="#000000" stroke-opacity="1" stroke-width="3.2"/>
<circle clip-path="url(#clip702)" cx="1047.2" cy="206.551" r="14" fill="#e26f46" fill-rule="evenodd" fill-opacity="1" stroke="#000000" stroke-opacity="1" stroke-width="3.2"/>
<circle clip-path="url(#clip702)" cx="1150.82" cy="118.297" r="14" fill="#e26f46" fill-rule="evenodd" fill-opacity="1" stroke="#000000" stroke-opacity="1" stroke-width="3.2"/>
<circle clip-path="url(#clip702)" cx="1254.43" cy="87.9763" r="14" fill="#e26f46" fill-rule="evenodd" fill-opacity="1" stroke="#000000" stroke-opacity="1" stroke-width="3.2"/>
<circle clip-path="url(#clip702)" cx="1358.05" cy="118.297" r="14" fill="#e26f46" fill-rule="evenodd" fill-opacity="1" stroke="#000000" stroke-opacity="1" stroke-width="3.2"/>
<circle clip-path="url(#clip702)" cx="1461.66" cy="206.551" r="14" fill="#e26f46" fill-rule="evenodd" fill-opacity="1" stroke="#000000" stroke-opacity="1" stroke-width="3.2"/>
<circle clip-path="url(#clip702)" cx="1565.28" cy="344.854" r="14" fill="#e26f46" fill-rule="evenodd" fill-opacity="1" stroke="#000000" stroke-opacity="1" stroke-width="3.2"/>
<polyline clip-path="url(#clip702)" style="stroke:#3da44d; stroke-linecap:butt; stroke-linejoin:round; stroke-width:16; stroke-opacity:1; fill:none" points="
  218.281,1445.72 321.897,1445.72 425.512,1445.72 529.127,1445.72 632.742,1445.72 736.358,1445.72 839.973,1445.72 943.588,344.854 1047.2,206.551 1150.82,118.297 
  1254.43,87.9763 1358.05,118.297 1461.66,206.551 1565.28,344.854 1668.9,1445.72 1772.51,1445.72 1876.13,1445.72 1979.74,1445.72 2083.36,1445.72 2186.97,1445.72 
  2290.59,1445.72 
  "/>
<path clip-path="url(#clip702)" d="M218.281 1429.72 L214.521 1440.53 L203.065 1440.77 L212.201 1447.7 L208.873 1458.66 L218.281 1452.12 L227.689 1458.66 L224.361 1447.7 L233.497 1440.77 L222.041 1440.53 L218.281 1429.72 Z" fill="#3da44d" fill-rule="evenodd" fill-opacity="1" stroke="#000000" stroke-opacity="1" stroke-width="3.2"/>
<path clip-path="url(#clip702)" d="M321.897 1429.72 L318.137 1440.53 L306.681 1440.77 L315.817 1447.7 L312.489 1458.66 L321.897 1452.12 L331.305 1458.66 L327.977 1447.7 L337.113 1440.77 L325.657 1440.53 L321.897 1429.72 Z" fill="#3da44d" fill-rule="evenodd" fill-opacity="1" stroke="#000000" stroke-opacity="1" stroke-width="3.2"/>
<path clip-path="url(#clip702)" d="M425.512 1429.72 L421.752 1440.53 L410.296 1440.77 L419.432 1447.7 L416.104 1458.66 L425.512 1452.12 L434.92 1458.66 L431.592 1447.7 L440.728 1440.77 L429.272 1440.53 L425.512 1429.72 Z" fill="#3da44d" fill-rule="evenodd" fill-opacity="1" stroke="#000000" stroke-opacity="1" stroke-width="3.2"/>
<path clip-path="url(#clip702)" d="M529.127 1429.72 L525.367 1440.53 L513.911 1440.77 L523.047 1447.7 L519.719 1458.66 L529.127 1452.12 L538.535 1458.66 L535.207 1447.7 L544.343 1440.77 L532.887 1440.53 L529.127 1429.72 Z" fill="#3da44d" fill-rule="evenodd" fill-opacity="1" stroke="#000000" stroke-opacity="1" stroke-width="3.2"/>
<path clip-path="url(#clip702)" d="M632.742 1429.72 L628.982 1440.53 L617.526 1440.77 L626.662 1447.7 L623.334 1458.66 L632.742 1452.12 L642.15 1458.66 L638.822 1447.7 L647.958 1440.77 L636.502 1440.53 L632.742 1429.72 Z" fill="#3da44d" fill-rule="evenodd" fill-opacity="1" stroke="#000000" stroke-opacity="1" stroke-width="3.2"/>
<path clip-path="url(#clip702)" d="M736.358 1429.72 L732.598 1440.53 L721.142 1440.77 L730.278 1447.7 L726.95 1458.66 L736.358 1452.12 L745.766 1458.66 L742.438 1447.7 L751.574 1440.77 L740.118 1440.53 L736.358 1429.72 Z" fill="#3da44d" fill-rule="evenodd" fill-opacity="1" stroke="#000000" stroke-opacity="1" stroke-width="3.2"/>
<path clip-path="url(#clip702)" d="M839.973 1429.72 L836.213 1440.53 L824.757 1440.77 L833.893 1447.7 L830.565 1458.66 L839.973 1452.12 L849.381 1458.66 L846.053 1447.7 L855.189 1440.77 L843.733 1440.53 L839.973 1429.72 Z" fill="#3da44d" fill-rule="evenodd" fill-opacity="1" stroke="#000000" stroke-opacity="1" stroke-width="3.2"/>
<path clip-path="url(#clip702)" d="M943.588 328.854 L939.828 339.67 L928.372 339.91 L937.508 346.838 L934.18 357.798 L943.588 351.254 L952.996 357.798 L949.668 346.838 L958.804 339.91 L947.348 339.67 L943.588 328.854 Z" fill="#3da44d" fill-rule="evenodd" fill-opacity="1" stroke="#000000" stroke-opacity="1" stroke-width="3.2"/>
<path clip-path="url(#clip702)" d="M1047.2 190.551 L1043.44 201.367 L1031.99 201.607 L1041.12 208.535 L1037.8 219.495 L1047.2 212.951 L1056.61 219.495 L1053.28 208.535 L1062.42 201.607 L1050.96 201.367 L1047.2 190.551 Z" fill="#3da44d" fill-rule="evenodd" fill-opacity="1" stroke="#000000" stroke-opacity="1" stroke-width="3.2"/>
<path clip-path="url(#clip702)" d="M1150.82 102.297 L1147.06 113.113 L1135.6 113.353 L1144.74 120.281 L1141.41 131.241 L1150.82 124.697 L1160.23 131.241 L1156.9 120.281 L1166.03 113.353 L1154.58 113.113 L1150.82 102.297 Z" fill="#3da44d" fill-rule="evenodd" fill-opacity="1" stroke="#000000" stroke-opacity="1" stroke-width="3.2"/>
<path clip-path="url(#clip702)" d="M1254.43 71.9763 L1250.67 82.7923 L1239.22 83.0323 L1248.35 89.9603 L1245.03 100.92 L1254.43 94.3763 L1263.84 100.92 L1260.51 89.9603 L1269.65 83.0323 L1258.19 82.7923 L1254.43 71.9763 Z" fill="#3da44d" fill-rule="evenodd" fill-opacity="1" stroke="#000000" stroke-opacity="1" stroke-width="3.2"/>
<path clip-path="url(#clip702)" d="M1358.05 102.297 L1354.29 113.113 L1342.83 113.353 L1351.97 120.281 L1348.64 131.241 L1358.05 124.697 L1367.46 131.241 L1364.13 120.281 L1373.27 113.353 L1361.81 113.113 L1358.05 102.297 Z" fill="#3da44d" fill-rule="evenodd" fill-opacity="1" stroke="#000000" stroke-opacity="1" stroke-width="3.2"/>
<path clip-path="url(#clip702)" d="M1461.66 190.551 L1457.9 201.367 L1446.45 201.607 L1455.58 208.535 L1452.26 219.495 L1461.66 212.951 L1471.07 219.495 L1467.74 208.535 L1476.88 201.607 L1465.42 201.367 L1461.66 190.551 Z" fill="#3da44d" fill-rule="evenodd" fill-opacity="1" stroke="#000000" stroke-opacity="1" stroke-width="3.2"/>
<path clip-path="url(#clip702)" d="M1565.28 328.854 L1561.52 339.67 L1550.06 339.91 L1559.2 346.838 L1555.87 357.798 L1565.28 351.254 L1574.69 357.798 L1571.36 346.838 L1580.5 339.91 L1569.04 339.67 L1565.28 328.854 Z" fill="#3da44d" fill-rule="evenodd" fill-opacity="1" stroke="#000000" stroke-opacity="1" stroke-width="3.2"/>
<path clip-path="url(#clip702)" d="M1668.9 1429.72 L1665.14 1440.53 L1653.68 1440.77 L1662.82 1447.7 L1659.49 1458.66 L1668.9 1452.12 L1678.3 1458.66 L1674.98 1447.7 L1684.11 1440.77 L1672.66 1440.53 L1668.9 1429.72 Z" fill="#3da44d" fill-rule="evenodd" fill-opacity="1" stroke="#000000" stroke-opacity="1" stroke-width="3.2"/>
<path clip-path="url(#clip702)" d="M1772.51 1429.72 L1768.75 1440.53 L1757.29 1440.77 L1766.43 1447.7 L1763.1 1458.66 L1772.51 1452.12 L1781.92 1458.66 L1778.59 1447.7 L1787.73 1440.77 L1776.27 1440.53 L1772.51 1429.72 Z" fill="#3da44d" fill-rule="evenodd" fill-opacity="1" stroke="#000000" stroke-opacity="1" stroke-width="3.2"/>
<path clip-path="url(#clip702)" d="M1876.13 1429.72 L1872.37 1440.53 L1860.91 1440.77 L1870.05 1447.7 L1866.72 1458.66 L1876.13 1452.12 L1885.53 1458.66 L1882.21 1447.7 L1891.34 1440.77 L1879.89 1440.53 L1876.13 1429.72 Z" fill="#3da44d" fill-rule="evenodd" fill-opacity="1" stroke="#000000" stroke-opacity="1" stroke-width="3.2"/>
<path clip-path="url(#clip702)" d="M1979.74 1429.72 L1975.98 1440.53 L1964.52 1440.77 L1973.66 1447.7 L1970.33 1458.66 L1979.74 1452.12 L1989.15 1458.66 L1985.82 1447.7 L1994.96 1440.77 L1983.5 1440.53 L1979.74 1429.72 Z" fill="#3da44d" fill-rule="evenodd" fill-opacity="1" stroke="#000000" stroke-opacity="1" stroke-width="3.2"/>
<path clip-path="url(#clip702)" d="M2083.36 1429.72 L2079.6 1440.53 L2068.14 1440.77 L2077.28 1447.7 L2073.95 1458.66 L2083.36 1452.12 L2092.76 1458.66 L2089.44 1447.7 L2098.57 1440.77 L2087.12 1440.53 L2083.36 1429.72 Z" fill="#3da44d" fill-rule="evenodd" fill-opacity="1" stroke="#000000" stroke-opacity="1" stroke-width="3.2"/>
<path clip-path="url(#clip702)" d="M2186.97 1429.72 L2183.21 1440.53 L2171.76 1440.77 L2180.89 1447.7 L2177.56 1458.66 L2186.97 1452.12 L2196.38 1458.66 L2193.05 1447.7 L2202.19 1440.77 L2190.73 1440.53 L2186.97 1429.72 Z" fill="#3da44d" fill-rule="evenodd" fill-opacity="1" stroke="#000000" stroke-opacity="1" stroke-width="3.2"/>
<path clip-path="url(#clip702)" d="M2290.59 1429.72 L2286.83 1440.53 L2275.37 1440.77 L2284.51 1447.7 L2281.18 1458.66 L2290.59 1452.12 L2299.99 1458.66 L2296.67 1447.7 L2305.8 1440.77 L2294.35 1440.53 L2290.59 1429.72 Z" fill="#3da44d" fill-rule="evenodd" fill-opacity="1" stroke="#000000" stroke-opacity="1" stroke-width="3.2"/>
<path clip-path="url(#clip700)" d="
M1982.45 302.578 L2279.53 302.578 L2279.53 95.2176 L1982.45 95.2176  Z
  " fill="#ffffff" fill-rule="evenodd" fill-opacity="1"/>
<polyline clip-path="url(#clip700)" style="stroke:#000000; stroke-linecap:butt; stroke-linejoin:round; stroke-width:4; stroke-opacity:1; fill:none" points="
  1982.45,302.578 2279.53,302.578 2279.53,95.2176 1982.45,95.2176 1982.45,302.578 
  "/>
<polyline clip-path="url(#clip700)" style="stroke:#009af9; stroke-linecap:butt; stroke-linejoin:round; stroke-width:4; stroke-opacity:1; fill:none" points="
  2006.86,147.058 2153.3,147.058 
  "/>
<path clip-path="url(#clip700)" d="M2191.55 166.745 Q2189.75 171.375 2188.04 172.787 Q2186.32 174.199 2183.45 174.199 L2180.05 174.199 L2180.05 170.634 L2182.55 170.634 Q2184.31 170.634 2185.28 169.8 Q2186.25 168.967 2187.43 165.865 L2188.2 163.921 L2177.71 138.412 L2182.23 138.412 L2190.33 158.689 L2198.43 138.412 L2202.94 138.412 L2191.55 166.745 Z" fill="#000000" fill-rule="evenodd" fill-opacity="1" /><path clip-path="url(#clip700)" d="M2210.23 160.402 L2217.87 160.402 L2217.87 134.037 L2209.56 135.703 L2209.56 131.444 L2217.83 129.778 L2222.5 129.778 L2222.5 160.402 L2230.14 160.402 L2230.14 164.338 L2210.23 164.338 L2210.23 160.402 Z" fill="#000000" fill-rule="evenodd" fill-opacity="1" /><circle clip-path="url(#clip700)" cx="2080.08" cy="198.898" r="23" fill="#e26f46" fill-rule="evenodd" fill-opacity="1" stroke="#000000" stroke-opacity="1" stroke-width="5.12"/>
<path clip-path="url(#clip700)" d="M2191.55 218.585 Q2189.75 223.215 2188.04 224.627 Q2186.32 226.039 2183.45 226.039 L2180.05 226.039 L2180.05 222.474 L2182.55 222.474 Q2184.31 222.474 2185.28 221.64 Q2186.25 220.807 2187.43 217.705 L2188.2 215.761 L2177.71 190.252 L2182.23 190.252 L2190.33 210.529 L2198.43 190.252 L2202.94 190.252 L2191.55 218.585 Z" fill="#000000" fill-rule="evenodd" fill-opacity="1" /><path clip-path="url(#clip700)" d="M2213.45 212.242 L2229.77 212.242 L2229.77 216.178 L2207.83 216.178 L2207.83 212.242 Q2210.49 209.488 2215.07 204.858 Q2219.68 200.205 2220.86 198.863 Q2223.1 196.34 2223.98 194.604 Q2224.89 192.844 2224.89 191.155 Q2224.89 188.4 2222.94 186.664 Q2221.02 184.928 2217.92 184.928 Q2215.72 184.928 2213.27 185.692 Q2210.84 186.455 2208.06 188.006 L2208.06 183.284 Q2210.88 182.15 2213.34 181.571 Q2215.79 180.993 2217.83 180.993 Q2223.2 180.993 2226.39 183.678 Q2229.59 186.363 2229.59 190.854 Q2229.59 192.983 2228.78 194.905 Q2227.99 196.803 2225.88 199.395 Q2225.3 200.067 2222.2 203.284 Q2219.1 206.479 2213.45 212.242 Z" fill="#000000" fill-rule="evenodd" fill-opacity="1" /><polyline clip-path="url(#clip700)" style="stroke:#3da44d; stroke-linecap:butt; stroke-linejoin:round; stroke-width:4; stroke-opacity:1; fill:none" points="
  2006.86,250.738 2153.3,250.738 
  "/>
<path clip-path="url(#clip700)" d="M2080.08 225.138 L2074.07 242.443 L2055.74 242.827 L2070.35 253.912 L2065.03 271.448 L2080.08 260.978 L2095.14 271.448 L2089.81 253.912 L2104.43 242.827 L2086.1 242.443 L2080.08 225.138 Z" fill="#3da44d" fill-rule="evenodd" fill-opacity="1" stroke="#000000" stroke-opacity="1" stroke-width="5.12"/>
<path clip-path="url(#clip700)" d="M2191.55 270.425 Q2189.75 275.055 2188.04 276.467 Q2186.32 277.879 2183.45 277.879 L2180.05 277.879 L2180.05 274.314 L2182.55 274.314 Q2184.31 274.314 2185.28 273.48 Q2186.25 272.647 2187.43 269.545 L2188.2 267.601 L2177.71 242.092 L2182.23 242.092 L2190.33 262.369 L2198.43 242.092 L2202.94 242.092 L2191.55 270.425 Z" fill="#000000" fill-rule="evenodd" fill-opacity="1" /><path clip-path="url(#clip700)" d="M2223.59 249.383 Q2226.95 250.101 2228.82 252.369 Q2230.72 254.638 2230.72 257.971 Q2230.72 263.087 2227.2 265.888 Q2223.68 268.689 2217.2 268.689 Q2215.03 268.689 2212.71 268.249 Q2210.42 267.832 2207.97 266.976 L2207.97 262.462 Q2209.91 263.596 2212.22 264.175 Q2214.54 264.754 2217.06 264.754 Q2221.46 264.754 2223.75 263.018 Q2226.07 261.281 2226.07 257.971 Q2226.07 254.916 2223.91 253.203 Q2221.79 251.467 2217.97 251.467 L2213.94 251.467 L2213.94 247.624 L2218.15 247.624 Q2221.6 247.624 2223.43 246.258 Q2225.26 244.87 2225.26 242.277 Q2225.26 239.615 2223.36 238.203 Q2221.48 236.768 2217.97 236.768 Q2216.04 236.768 2213.85 237.184 Q2211.65 237.601 2209.01 238.481 L2209.01 234.314 Q2211.67 233.573 2213.98 233.203 Q2216.32 232.833 2218.38 232.833 Q2223.71 232.833 2226.81 235.263 Q2229.91 237.67 2229.91 241.791 Q2229.91 244.661 2228.27 246.652 Q2226.62 248.62 2223.59 249.383 Z" fill="#000000" fill-rule="evenodd" fill-opacity="1" /></svg>
