<?xml version="1.0" encoding="utf-8"?>
<svg xmlns="http://www.w3.org/2000/svg" xmlns:xlink="http://www.w3.org/1999/xlink" width="600" height="400" viewBox="0 0 2400 1600">
<defs>
  <clipPath id="clip120">
    <rect x="0" y="0" width="2400" height="1600"/>
  </clipPath>
</defs>
<path clip-path="url(#clip120)" d="
M0 1600 L2400 1600 L2400 0 L0 0  Z
  " fill="#ffffff" fill-rule="evenodd" fill-opacity="1"/>
<defs>
  <clipPath id="clip121">
    <rect x="480" y="0" width="1681" height="1600"/>
  </clipPath>
</defs>
<defs>
  <clipPath id="clip122">
    <rect x="149" y="47" width="2205" height="1440"/>
  </clipPath>
</defs>
<path clip-path="url(#clip120)" d="
M213.607 1474.16 L2352.76 1474.16 L2352.76 47.2441 L213.607 47.2441  Z
  " fill="#ffffff" fill-rule="evenodd" fill-opacity="1"/>
<defs>
  <clipPath id="clip123">
    <rect x="213" y="47" width="2140" height="1428"/>
  </clipPath>
</defs>
<polyline clip-path="url(#clip123)" style="stroke:#000000; stroke-linecap:butt; stroke-linejoin:round; stroke-width:2; stroke-opacity:0.1; fill:none" points="
  757.929,1474.16 757.929,47.2441 
  "/>
<polyline clip-path="url(#clip123)" style="stroke:#000000; stroke-linecap:butt; stroke-linejoin:round; stroke-width:2; stroke-opacity:0.1; fill:none" points="
  1715.62,1474.16 1715.62,47.2441 
  "/>
<polyline clip-path="url(#clip120)" style="stroke:#000000; stroke-linecap:butt; stroke-linejoin:round; stroke-width:4; stroke-opacity:1; fill:none" points="
  213.607,1474.16 2352.76,1474.16 
  "/>
<polyline clip-path="url(#clip120)" style="stroke:#000000; stroke-linecap:butt; stroke-linejoin:round; stroke-width:4; stroke-opacity:1; fill:none" points="
  757.929,1474.16 757.929,1455.27 
  "/>
<polyline clip-path="url(#clip120)" style="stroke:#000000; stroke-linecap:butt; stroke-linejoin:round; stroke-width:4; stroke-opacity:1; fill:none" points="
  1715.62,1474.16 1715.62,1455.27 
  "/>
<path clip-path="url(#clip120)" d="M708.195 1552.44 L715.834 1552.44 L715.834 1526.07 L707.524 1527.74 L707.524 1523.48 L715.787 1521.81 L720.463 1521.81 L720.463 1552.44 L728.102 1552.44 L728.102 1556.37 L708.195 1556.37 L708.195 1552.44 Z" fill="#000000" fill-rule="evenodd" fill-opacity="1" /><path clip-path="url(#clip120)" d="M747.546 1524.89 Q743.935 1524.89 742.107 1528.46 Q740.301 1532 740.301 1539.13 Q740.301 1546.23 742.107 1549.8 Q743.935 1553.34 747.546 1553.34 Q751.181 1553.34 752.986 1549.8 Q754.815 1546.23 754.815 1539.13 Q754.815 1532 752.986 1528.46 Q751.181 1524.89 747.546 1524.89 M747.546 1521.19 Q753.357 1521.19 756.412 1525.79 Q759.491 1530.38 759.491 1539.13 Q759.491 1547.85 756.412 1552.46 Q753.357 1557.04 747.546 1557.04 Q741.736 1557.04 738.658 1552.46 Q735.602 1547.85 735.602 1539.13 Q735.602 1530.38 738.658 1525.79 Q741.736 1521.19 747.546 1521.19 Z" fill="#000000" fill-rule="evenodd" fill-opacity="1" /><path clip-path="url(#clip120)" d="M759.491 1515.29 L783.602 1515.29 L783.602 1518.49 L759.491 1518.49 L759.491 1515.29 Z" fill="#000000" fill-rule="evenodd" fill-opacity="1" /><path clip-path="url(#clip120)" d="M795.075 1525.76 L808.335 1525.76 L808.335 1528.96 L790.505 1528.96 L790.505 1525.76 Q792.668 1523.53 796.392 1519.76 Q800.134 1515.98 801.094 1514.89 Q802.918 1512.84 803.633 1511.43 Q804.366 1510 804.366 1508.63 Q804.366 1506.39 802.786 1504.98 Q801.225 1503.57 798.705 1503.57 Q796.918 1503.57 794.925 1504.19 Q792.95 1504.81 790.693 1506.07 L790.693 1502.24 Q792.987 1501.31 794.981 1500.84 Q796.975 1500.37 798.63 1500.37 Q802.993 1500.37 805.589 1502.56 Q808.184 1504.74 808.184 1508.39 Q808.184 1510.12 807.526 1511.68 Q806.886 1513.22 805.175 1515.33 Q804.705 1515.87 802.184 1518.49 Q799.664 1521.08 795.075 1525.76 Z" fill="#000000" fill-rule="evenodd" fill-opacity="1" /><path clip-path="url(#clip120)" d="M1680.61 1552.44 L1688.25 1552.44 L1688.25 1526.07 L1679.94 1527.74 L1679.94 1523.48 L1688.2 1521.81 L1692.88 1521.81 L1692.88 1552.44 L1700.51 1552.44 L1700.51 1556.37 L1680.61 1556.37 L1680.61 1552.44 Z" fill="#000000" fill-rule="evenodd" fill-opacity="1" /><path clip-path="url(#clip120)" d="M1719.96 1524.89 Q1716.35 1524.89 1714.52 1528.46 Q1712.71 1532 1712.71 1539.13 Q1712.71 1546.23 1714.52 1549.8 Q1716.35 1553.34 1719.96 1553.34 Q1723.59 1553.34 1725.4 1549.8 Q1727.23 1546.23 1727.23 1539.13 Q1727.23 1532 1725.4 1528.46 Q1723.59 1524.89 1719.96 1524.89 M1719.96 1521.19 Q1725.77 1521.19 1728.82 1525.79 Q1731.9 1530.38 1731.9 1539.13 Q1731.9 1547.85 1728.82 1552.46 Q1725.77 1557.04 1719.96 1557.04 Q1714.15 1557.04 1711.07 1552.46 Q1708.01 1547.85 1708.01 1539.13 Q1708.01 1530.38 1711.07 1525.79 Q1714.15 1521.19 1719.96 1521.19 Z" fill="#000000" fill-rule="evenodd" fill-opacity="1" /><path clip-path="url(#clip120)" d="M1741.61 1503.38 Q1738.67 1503.38 1737.19 1506.28 Q1735.72 1509.16 1735.72 1514.95 Q1735.72 1520.72 1737.19 1523.62 Q1738.67 1526.5 1741.61 1526.5 Q1744.56 1526.5 1746.03 1523.62 Q1747.51 1520.72 1747.51 1514.95 Q1747.51 1509.16 1746.03 1506.28 Q1744.56 1503.38 1741.61 1503.38 M1741.61 1500.37 Q1746.33 1500.37 1748.81 1504.12 Q1751.31 1507.84 1751.31 1514.95 Q1751.31 1522.04 1748.81 1525.78 Q1746.33 1529.51 1741.61 1529.51 Q1736.89 1529.51 1734.39 1525.78 Q1731.9 1522.04 1731.9 1514.95 Q1731.9 1507.84 1734.39 1504.12 Q1736.89 1500.37 1741.61 1500.37 Z" fill="#000000" fill-rule="evenodd" fill-opacity="1" /><polyline clip-path="url(#clip123)" style="stroke:#000000; stroke-linecap:butt; stroke-linejoin:round; stroke-width:2; stroke-opacity:0.1; fill:none" points="
  213.607,1442.83 2352.76,1442.83 
  "/>
<polyline clip-path="url(#clip123)" style="stroke:#000000; stroke-linecap:butt; stroke-linejoin:round; stroke-width:2; stroke-opacity:0.1; fill:none" points="
  213.607,945.048 2352.76,945.048 
  "/>
<polyline clip-path="url(#clip123)" style="stroke:#000000; stroke-linecap:butt; stroke-linejoin:round; stroke-width:2; stroke-opacity:0.1; fill:none" points="
  213.607,447.264 2352.76,447.264 
  "/>
<polyline clip-path="url(#clip120)" style="stroke:#000000; stroke-linecap:butt; stroke-linejoin:round; stroke-width:4; stroke-opacity:1; fill:none" points="
  213.607,1474.16 213.607,47.2441 
  "/>
<polyline clip-path="url(#clip120)" style="stroke:#000000; stroke-linecap:butt; stroke-linejoin:round; stroke-width:4; stroke-opacity:1; fill:none" points="
  213.607,1442.83 232.505,1442.83 
  "/>
<polyline clip-path="url(#clip120)" style="stroke:#000000; stroke-linecap:butt; stroke-linejoin:round; stroke-width:4; stroke-opacity:1; fill:none" points="
  213.607,945.048 232.505,945.048 
  "/>
<polyline clip-path="url(#clip120)" style="stroke:#000000; stroke-linecap:butt; stroke-linejoin:round; stroke-width:4; stroke-opacity:1; fill:none" points="
  213.607,447.264 232.505,447.264 
  "/>
<path clip-path="url(#clip120)" d="M51.6634 1462.62 L59.3023 1462.62 L59.3023 1436.26 L50.9921 1437.93 L50.9921 1433.67 L59.256 1432 L63.9319 1432 L63.9319 1462.62 L71.5707 1462.62 L71.5707 1466.56 L51.6634 1466.56 L51.6634 1462.62 Z" fill="#000000" fill-rule="evenodd" fill-opacity="1" /><path clip-path="url(#clip120)" d="M91.0151 1435.08 Q87.404 1435.08 85.5753 1438.64 Q83.7697 1442.18 83.7697 1449.31 Q83.7697 1456.42 85.5753 1459.99 Q87.404 1463.53 91.0151 1463.53 Q94.6493 1463.53 96.4548 1459.99 Q98.2835 1456.42 98.2835 1449.31 Q98.2835 1442.18 96.4548 1438.64 Q94.6493 1435.08 91.0151 1435.08 M91.0151 1431.37 Q96.8252 1431.37 99.8808 1435.98 Q102.959 1440.56 102.959 1449.31 Q102.959 1458.04 99.8808 1462.65 Q96.8252 1467.23 91.0151 1467.23 Q85.2049 1467.23 82.1262 1462.65 Q79.0707 1458.04 79.0707 1449.31 Q79.0707 1440.56 82.1262 1435.98 Q85.2049 1431.37 91.0151 1431.37 Z" fill="#000000" fill-rule="evenodd" fill-opacity="1" /><path clip-path="url(#clip120)" d="M102.959 1425.48 L127.071 1425.48 L127.071 1428.67 L102.959 1428.67 L102.959 1425.48 Z" fill="#000000" fill-rule="evenodd" fill-opacity="1" /><path clip-path="url(#clip120)" d="M135.929 1435.95 L142.136 1435.95 L142.136 1414.53 L135.384 1415.88 L135.384 1412.42 L142.098 1411.07 L145.898 1411.07 L145.898 1435.95 L152.104 1435.95 L152.104 1439.15 L135.929 1439.15 L135.929 1435.95 Z" fill="#000000" fill-rule="evenodd" fill-opacity="1" /><path clip-path="url(#clip120)" d="M167.903 1413.57 Q164.969 1413.57 163.483 1416.47 Q162.016 1419.34 162.016 1425.14 Q162.016 1430.91 163.483 1433.81 Q164.969 1436.69 167.903 1436.69 Q170.855 1436.69 172.322 1433.81 Q173.808 1430.91 173.808 1425.14 Q173.808 1419.34 172.322 1416.47 Q170.855 1413.57 167.903 1413.57 M167.903 1410.56 Q172.623 1410.56 175.106 1414.3 Q177.607 1418.03 177.607 1425.14 Q177.607 1432.23 175.106 1435.97 Q172.623 1439.69 167.903 1439.69 Q163.182 1439.69 160.68 1435.97 Q158.198 1432.23 158.198 1425.14 Q158.198 1418.03 160.68 1414.3 Q163.182 1410.56 167.903 1410.56 Z" fill="#000000" fill-rule="evenodd" fill-opacity="1" /><path clip-path="url(#clip120)" d="M76.9787 964.84 L84.6175 964.84 L84.6175 938.475 L76.3074 940.141 L76.3074 935.882 L84.5712 934.215 L89.2471 934.215 L89.2471 964.84 L96.886 964.84 L96.886 968.775 L76.9787 968.775 L76.9787 964.84 Z" fill="#000000" fill-rule="evenodd" fill-opacity="1" /><path clip-path="url(#clip120)" d="M116.33 937.294 Q112.719 937.294 110.891 940.859 Q109.085 944.4 109.085 951.53 Q109.085 958.636 110.891 962.201 Q112.719 965.743 116.33 965.743 Q119.965 965.743 121.77 962.201 Q123.599 958.636 123.599 951.53 Q123.599 944.4 121.77 940.859 Q119.965 937.294 116.33 937.294 M116.33 933.59 Q122.14 933.59 125.196 938.197 Q128.275 942.78 128.275 951.53 Q128.275 960.257 125.196 964.863 Q122.14 969.447 116.33 969.447 Q110.52 969.447 107.441 964.863 Q104.386 960.257 104.386 951.53 Q104.386 942.78 107.441 938.197 Q110.52 933.59 116.33 933.59 Z" fill="#000000" fill-rule="evenodd" fill-opacity="1" /><path clip-path="url(#clip120)" d="M128.275 927.692 L152.386 927.692 L152.386 930.889 L128.275 930.889 L128.275 927.692 Z" fill="#000000" fill-rule="evenodd" fill-opacity="1" /><path clip-path="url(#clip120)" d="M160.624 913.285 L175.539 913.285 L175.539 916.482 L164.103 916.482 L164.103 923.366 Q164.931 923.084 165.759 922.952 Q166.586 922.802 167.414 922.802 Q172.116 922.802 174.862 925.378 Q177.607 927.955 177.607 932.356 Q177.607 936.889 174.786 939.409 Q171.965 941.91 166.831 941.91 Q165.063 941.91 163.22 941.609 Q161.395 941.308 159.439 940.707 L159.439 936.889 Q161.132 937.81 162.937 938.262 Q164.743 938.713 166.755 938.713 Q170.009 938.713 171.909 937.002 Q173.808 935.29 173.808 932.356 Q173.808 929.422 171.909 927.71 Q170.009 925.999 166.755 925.999 Q165.232 925.999 163.709 926.338 Q162.204 926.676 160.624 927.391 L160.624 913.285 Z" fill="#000000" fill-rule="evenodd" fill-opacity="1" /><path clip-path="url(#clip120)" d="M106.902 467.056 L114.541 467.056 L114.541 440.691 L106.231 442.357 L106.231 438.098 L114.494 436.431 L119.17 436.431 L119.17 467.056 L126.809 467.056 L126.809 470.991 L106.902 470.991 L106.902 467.056 Z" fill="#000000" fill-rule="evenodd" fill-opacity="1" /><path clip-path="url(#clip120)" d="M146.253 439.51 Q142.642 439.51 140.814 443.075 Q139.008 446.616 139.008 453.746 Q139.008 460.852 140.814 464.417 Q142.642 467.959 146.253 467.959 Q149.888 467.959 151.693 464.417 Q153.522 460.852 153.522 453.746 Q153.522 446.616 151.693 443.075 Q149.888 439.51 146.253 439.51 M146.253 435.806 Q152.064 435.806 155.119 440.413 Q158.198 444.996 158.198 453.746 Q158.198 462.473 155.119 467.079 Q152.064 471.663 146.253 471.663 Q140.443 471.663 137.365 467.079 Q134.309 462.473 134.309 453.746 Q134.309 444.996 137.365 440.413 Q140.443 435.806 146.253 435.806 Z" fill="#000000" fill-rule="evenodd" fill-opacity="1" /><path clip-path="url(#clip120)" d="M167.903 418.002 Q164.969 418.002 163.483 420.899 Q162.016 423.776 162.016 429.569 Q162.016 435.343 163.483 438.239 Q164.969 441.117 167.903 441.117 Q170.855 441.117 172.322 438.239 Q173.808 435.343 173.808 429.569 Q173.808 423.776 172.322 420.899 Q170.855 418.002 167.903 418.002 M167.903 414.993 Q172.623 414.993 175.106 418.736 Q177.607 422.46 177.607 429.569 Q177.607 436.66 175.106 440.402 Q172.623 444.126 167.903 444.126 Q163.182 444.126 160.68 440.402 Q158.198 436.66 158.198 429.569 Q158.198 422.46 160.68 418.736 Q163.182 414.993 167.903 414.993 Z" fill="#000000" fill-rule="evenodd" fill-opacity="1" /><polyline clip-path="url(#clip123)" style="stroke:#009af9; stroke-linecap:butt; stroke-linejoin:round; stroke-width:4; stroke-opacity:1; fill:none" points="
  2292.21,454.939 2067.98,475.542 1843.76,593.974 1619.53,732.709 1395.3,872.956 1171.07,1013.04 946.838,1152.98 722.608,1292.77 498.379,1411.68 274.149,1433.78 
  
  "/>
<circle clip-path="url(#clip123)" cx="2292.21" cy="454.939" r="14" fill="#009af9" fill-rule="evenodd" fill-opacity="1" stroke="#000000" stroke-opacity="1" stroke-width="3.2"/>
<circle clip-path="url(#clip123)" cx="2067.98" cy="475.542" r="14" fill="#009af9" fill-rule="evenodd" fill-opacity="1" stroke="#000000" stroke-opacity="1" stroke-width="3.2"/>
<circle clip-path="url(#clip123)" cx="1843.76" cy="593.974" r="14" fill="#009af9" fill-rule="evenodd" fill-opacity="1" stroke="#000000" stroke-opacity="1" stroke-width="3.2"/>
<circle clip-path="url(#clip123)" cx="1619.53" cy="732.709" r="14" fill="#009af9" fill-rule="evenodd" fill-opacity="1" stroke="#000000" stroke-opacity="1" stroke-width="3.2"/>
<circle clip-path="url(#clip123)" cx="1395.3" cy="872.956" r="14" fill="#009af9" fill-rule="evenodd" fill-opacity="1" stroke="#000000" stroke-opacity="1" stroke-width="3.2"/>
<circle clip-path="url(#clip123)" cx="1171.07" cy="1013.04" r="14" fill="#009af9" fill-rule="evenodd" fill-opacity="1" stroke="#000000" stroke-opacity="1" stroke-width="3.2"/>
<circle clip-path="url(#clip123)" cx="946.838" cy="1152.98" r="14" fill="#009af9" fill-rule="evenodd" fill-opacity="1" stroke="#000000" stroke-opacity="1" stroke-width="3.2"/>
<circle clip-path="url(#clip123)" cx="722.608" cy="1292.77" r="14" fill="#009af9" fill-rule="evenodd" fill-opacity="1" stroke="#000000" stroke-opacity="1" stroke-width="3.2"/>
<circle clip-path="url(#clip123)" cx="498.379" cy="1411.68" r="14" fill="#009af9" fill-rule="evenodd" fill-opacity="1" stroke="#000000" stroke-opacity="1" stroke-width="3.2"/>
<circle clip-path="url(#clip123)" cx="274.149" cy="1433.78" r="14" fill="#009af9" fill-rule="evenodd" fill-opacity="1" stroke="#000000" stroke-opacity="1" stroke-width="3.2"/>
<polyline clip-path="url(#clip123)" style="stroke:#e26f46; stroke-linecap:butt; stroke-linejoin:round; stroke-width:4; stroke-opacity:1; fill:none" points="
  274.149,1346.35 293.857,1334.06 476.087,1220.4 585.599,1152.09 678.19,1094.34 778.77,1031.61 871.496,973.769 970.908,911.763 1086.09,839.923 1188.44,776.081 
  1278.2,720.096 1376.06,659.058 1474.5,597.657 1583.34,529.77 1686.9,465.178 1794.58,398.017 1885.22,341.482 1995.88,272.459 2099.91,207.575 2266.57,103.626 
  2292.21,87.6286 
  "/>
<path clip-path="url(#clip120)" d="
M1991.34 250.328 L2281.45 250.328 L2281.45 94.8081 L1991.34 94.8081  Z
  " fill="#ffffff" fill-rule="evenodd" fill-opacity="1"/>
<polyline clip-path="url(#clip120)" style="stroke:#000000; stroke-linecap:butt; stroke-linejoin:round; stroke-width:4; stroke-opacity:1; fill:none" points="
  1991.34,250.328 2281.45,250.328 2281.45,94.8081 1991.34,94.8081 1991.34,250.328 
  "/>
<polyline clip-path="url(#clip120)" style="stroke:#009af9; stroke-linecap:butt; stroke-linejoin:round; stroke-width:4; stroke-opacity:1; fill:none" points="
  2015.11,146.648 2157.72,146.648 
  "/>
<circle clip-path="url(#clip120)" cx="2086.41" cy="146.648" r="23" fill="#009af9" fill-rule="evenodd" fill-opacity="1" stroke="#000000" stroke-opacity="1" stroke-width="5.12"/>
<path clip-path="url(#clip120)" d="M2195.33 166.336 Q2193.52 170.965 2191.81 172.377 Q2190.1 173.789 2187.22 173.789 L2183.82 173.789 L2183.82 170.224 L2186.32 170.224 Q2188.08 170.224 2189.05 169.391 Q2190.03 168.558 2191.21 165.456 L2191.97 163.511 L2181.48 138.002 L2186 138.002 L2194.1 158.28 L2202.2 138.002 L2206.72 138.002 L2195.33 166.336 Z" fill="#000000" fill-rule="evenodd" fill-opacity="1" /><path clip-path="url(#clip120)" d="M2214.01 159.993 L2221.65 159.993 L2221.65 133.627 L2213.34 135.294 L2213.34 131.035 L2221.6 129.368 L2226.28 129.368 L2226.28 159.993 L2233.91 159.993 L2233.91 163.928 L2214.01 163.928 L2214.01 159.993 Z" fill="#000000" fill-rule="evenodd" fill-opacity="1" /><polyline clip-path="url(#clip120)" style="stroke:#e26f46; stroke-linecap:butt; stroke-linejoin:round; stroke-width:4; stroke-opacity:1; fill:none" points="
  2015.11,198.488 2157.72,198.488 
  "/>
<path clip-path="url(#clip120)" d="M2205.02 216.04 Q2205.02 216.227 2204.81 216.953 Q2204.6 217.68 2204.09 218.804 Q2203.59 219.928 2202.92 220.959 Q2202.24 221.966 2201.11 222.715 Q2200.01 223.441 2198.75 223.441 Q2197.06 223.441 2195.94 222.317 Q2194.81 221.193 2194.81 219.506 Q2194.81 219.272 2194.83 219.038 Q2194.86 218.804 2194.88 218.663 Q2194.91 218.499 2194.98 218.242 Q2195.07 217.961 2195.09 217.843 Q2195.14 217.726 2195.26 217.375 Q2195.4 217 2195.44 216.86 Q2198.42 209.271 2198.42 206.109 Q2198.42 202.759 2195.82 202.759 Q2193.5 202.759 2191.2 204.446 Q2190.15 205.289 2189.14 206.788 Q2188.14 208.287 2187.95 208.849 Q2187.74 210.067 2187.43 211.004 Q2187.29 211.66 2186.61 214.213 L2185.56 218.546 L2184.65 222.177 Q2184.46 222.692 2183.94 223.067 Q2183.43 223.441 2182.87 223.441 Q2182.4 223.441 2181.93 223.114 Q2181.48 222.809 2181.48 222.083 Q2181.48 221.708 2181.67 221.029 L2188.63 193.39 L2188.77 192.454 Q2188.77 192.172 2188.65 192.032 Q2188.56 191.868 2188 191.751 Q2187.46 191.634 2186.38 191.634 Q2185.93 191.634 2185.72 191.61 Q2185.54 191.587 2185.37 191.47 Q2185.21 191.329 2185.21 191.048 Q2185.21 190.65 2185.37 190.439 Q2185.56 190.205 2185.7 190.158 Q2185.84 190.111 2186.12 190.088 Q2186.52 190.064 2187.85 189.947 Q2189.19 189.807 2190.34 189.713 Q2191.49 189.619 2191.98 189.619 Q2192.26 189.619 2192.4 189.76 Q2192.56 189.877 2192.59 190.018 L2192.61 190.135 L2188.86 205.383 Q2191.84 201.705 2195.96 201.705 Q2198.63 201.705 2200.06 203.087 Q2201.49 204.446 2201.49 206.835 Q2201.49 209.575 2198.56 217.375 Q2197.69 219.553 2197.69 220.795 Q2197.69 221.614 2197.95 221.989 Q2198.23 222.364 2198.84 222.364 Q2199.78 222.364 2200.6 221.825 Q2201.44 221.263 2202.03 220.35 Q2202.61 219.413 2203.01 218.476 Q2203.43 217.516 2203.74 216.438 Q2203.92 215.853 2204.02 215.712 Q2204.13 215.571 2204.46 215.571 Q2205.02 215.571 2205.02 216.04 Z" fill="#000000" fill-rule="evenodd" fill-opacity="1" /><path clip-path="url(#clip120)" d="M2209.9 177.782 Q2209.9 176.044 2211.46 174.683 Q2213.02 173.306 2215.61 173.306 Q2219 173.306 2220.48 174.683 Q2221.95 176.06 2221.95 177.848 Q2221.95 179.93 2220.34 181.127 Q2215.92 184.422 2215.9 188.62 L2215.9 189.8 Q2215.9 190.177 2215.89 190.325 Q2215.87 190.472 2215.77 190.587 Q2215.67 190.702 2215.48 190.702 Q2215.21 190.702 2215.13 190.554 Q2215.07 190.407 2215.07 189.898 L2215.07 188.39 Q2215.07 186.603 2215.77 184.553 Q2216.48 182.504 2218.02 180.832 Q2218.39 180.454 2218.59 180.176 Q2218.79 179.897 2218.97 179.241 Q2219.16 178.585 2219.16 177.634 Q2219.16 177.061 2219.15 176.733 Q2219.13 176.405 2218.92 175.831 Q2218.72 175.257 2218.36 174.929 Q2218.02 174.585 2217.28 174.322 Q2216.54 174.044 2215.51 174.044 Q2212.46 174.044 2211.1 176.323 Q2212.98 176.323 2212.98 177.848 Q2212.98 178.52 2212.56 178.962 Q2212.15 179.389 2211.44 179.389 Q2210.8 179.389 2210.34 178.995 Q2209.9 178.585 2209.9 177.782 M2214.21 196.473 Q2213.69 195.948 2213.69 195.211 Q2213.69 194.456 2214.21 193.948 Q2214.74 193.423 2215.48 193.423 Q2216.21 193.423 2216.72 193.948 Q2217.25 194.456 2217.25 195.211 Q2217.25 195.948 2216.72 196.473 Q2216.21 196.981 2215.48 196.981 Q2214.74 196.981 2214.21 196.473 Z" fill="#000000" fill-rule="evenodd" fill-opacity="1" /></svg>
