<?xml version="1.0" encoding="utf-8"?>
<svg xmlns="http://www.w3.org/2000/svg" xmlns:xlink="http://www.w3.org/1999/xlink" width="600" height="400" viewBox="0 0 2400 1600">
<defs>
  <clipPath id="clip900">
    <rect x="0" y="0" width="2400" height="1600"/>
  </clipPath>
</defs>
<path clip-path="url(#clip900)" d="
M0 1600 L2400 1600 L2400 0 L0 0  Z
  " fill="#ffffff" fill-rule="evenodd" fill-opacity="1"/>
<defs>
  <clipPath id="clip901">
    <rect x="480" y="0" width="1681" height="1600"/>
  </clipPath>
</defs>
<path clip-path="url(#clip900)" d="
M149.191 1486.45 L2352.76 1486.45 L2352.76 47.2441 L149.191 47.2441  Z
  " fill="#ffffff" fill-rule="evenodd" fill-opacity="1"/>
<defs>
  <clipPath id="clip902">
    <rect x="149" y="47" width="2205" height="1440"/>
  </clipPath>
</defs>
<polyline clip-path="url(#clip902)" style="stroke:#000000; stroke-linecap:butt; stroke-linejoin:round; stroke-width:2; stroke-opacity:0.1; fill:none" points="
  149.191,1486.45 149.191,47.2441 
  "/>
<polyline clip-path="url(#clip902)" style="stroke:#000000; stroke-linecap:butt; stroke-linejoin:round; stroke-width:2; stroke-opacity:0.1; fill:none" points="
  700.082,1486.45 700.082,47.2441 
  "/>
<polyline clip-path="url(#clip902)" style="stroke:#000000; stroke-linecap:butt; stroke-linejoin:round; stroke-width:2; stroke-opacity:0.1; fill:none" points="
  1250.97,1486.45 1250.97,47.2441 
  "/>
<polyline clip-path="url(#clip902)" style="stroke:#000000; stroke-linecap:butt; stroke-linejoin:round; stroke-width:2; stroke-opacity:0.1; fill:none" points="
  1801.86,1486.45 1801.86,47.2441 
  "/>
<polyline clip-path="url(#clip902)" style="stroke:#000000; stroke-linecap:butt; stroke-linejoin:round; stroke-width:2; stroke-opacity:0.1; fill:none" points="
  2352.76,1486.45 2352.76,47.2441 
  "/>
<polyline clip-path="url(#clip900)" style="stroke:#000000; stroke-linecap:butt; stroke-linejoin:round; stroke-width:4; stroke-opacity:1; fill:none" points="
  149.191,1486.45 2352.76,1486.45 
  "/>
<polyline clip-path="url(#clip900)" style="stroke:#000000; stroke-linecap:butt; stroke-linejoin:round; stroke-width:4; stroke-opacity:1; fill:none" points="
  149.191,1486.45 149.191,1467.55 
  "/>
<polyline clip-path="url(#clip900)" style="stroke:#000000; stroke-linecap:butt; stroke-linejoin:round; stroke-width:4; stroke-opacity:1; fill:none" points="
  700.082,1486.45 700.082,1467.55 
  "/>
<polyline clip-path="url(#clip900)" style="stroke:#000000; stroke-linecap:butt; stroke-linejoin:round; stroke-width:4; stroke-opacity:1; fill:none" points="
  1250.97,1486.45 1250.97,1467.55 
  "/>
<polyline clip-path="url(#clip900)" style="stroke:#000000; stroke-linecap:butt; stroke-linejoin:round; stroke-width:4; stroke-opacity:1; fill:none" points="
  1801.86,1486.45 1801.86,1467.55 
  "/>
<polyline clip-path="url(#clip900)" style="stroke:#000000; stroke-linecap:butt; stroke-linejoin:round; stroke-width:4; stroke-opacity:1; fill:none" points="
  2352.76,1486.45 2352.76,1467.55 
  "/>
<path clip-path="url(#clip900)" d="M118.091 1530.29 L147.767 1530.29 L147.767 1534.23 L118.091 1534.23 L118.091 1530.29 Z" fill="#000000" fill-rule="evenodd" fill-opacity="1" /><path clip-path="url(#clip900)" d="M170.707 1516.63 L158.901 1535.08 L170.707 1535.08 L170.707 1516.63 M169.48 1512.56 L175.36 1512.56 L175.36 1535.08 L180.29 1535.08 L180.29 1538.97 L175.36 1538.97 L175.36 1547.12 L170.707 1547.12 L170.707 1538.97 L155.105 1538.97 L155.105 1534.46 L169.48 1512.56 Z" fill="#000000" fill-rule="evenodd" fill-opacity="1" /><path clip-path="url(#clip900)" d="M670.024 1530.29 L699.7 1530.29 L699.7 1534.23 L670.024 1534.23 L670.024 1530.29 Z" fill="#000000" fill-rule="evenodd" fill-opacity="1" /><path clip-path="url(#clip900)" d="M713.82 1543.18 L730.14 1543.18 L730.14 1547.12 L708.196 1547.12 L708.196 1543.18 Q710.858 1540.43 715.441 1535.8 Q720.047 1531.15 721.228 1529.81 Q723.473 1527.28 724.353 1525.55 Q725.256 1523.79 725.256 1522.1 Q725.256 1519.34 723.311 1517.61 Q721.39 1515.87 718.288 1515.87 Q716.089 1515.87 713.635 1516.63 Q711.205 1517.4 708.427 1518.95 L708.427 1514.23 Q711.251 1513.09 713.705 1512.51 Q716.158 1511.93 718.195 1511.93 Q723.566 1511.93 726.76 1514.62 Q729.955 1517.31 729.955 1521.8 Q729.955 1523.93 729.144 1525.85 Q728.357 1527.74 726.251 1530.34 Q725.672 1531.01 722.57 1534.23 Q719.469 1537.42 713.82 1543.18 Z" fill="#000000" fill-rule="evenodd" fill-opacity="1" /><path clip-path="url(#clip900)" d="M1250.97 1515.64 Q1247.36 1515.64 1245.53 1519.2 Q1243.73 1522.75 1243.73 1529.87 Q1243.73 1536.98 1245.53 1540.55 Q1247.36 1544.09 1250.97 1544.09 Q1254.61 1544.09 1256.41 1540.55 Q1258.24 1536.98 1258.24 1529.87 Q1258.24 1522.75 1256.41 1519.2 Q1254.61 1515.64 1250.97 1515.64 M1250.97 1511.93 Q1256.78 1511.93 1259.84 1516.54 Q1262.92 1521.12 1262.92 1529.87 Q1262.92 1538.6 1259.84 1543.21 Q1256.78 1547.79 1250.97 1547.79 Q1245.16 1547.79 1242.08 1543.21 Q1239.03 1538.6 1239.03 1529.87 Q1239.03 1521.12 1242.08 1516.54 Q1245.16 1511.93 1250.97 1511.93 Z" fill="#000000" fill-rule="evenodd" fill-opacity="1" /><path clip-path="url(#clip900)" d="M1796.52 1543.18 L1812.84 1543.18 L1812.84 1547.12 L1790.89 1547.12 L1790.89 1543.18 Q1793.55 1540.43 1798.14 1535.8 Q1802.74 1531.15 1803.92 1529.81 Q1806.17 1527.28 1807.05 1525.55 Q1807.95 1523.79 1807.95 1522.1 Q1807.95 1519.34 1806.01 1517.61 Q1804.09 1515.87 1800.99 1515.87 Q1798.79 1515.87 1796.33 1516.63 Q1793.9 1517.4 1791.12 1518.95 L1791.12 1514.23 Q1793.95 1513.09 1796.4 1512.51 Q1798.86 1511.93 1800.89 1511.93 Q1806.26 1511.93 1809.46 1514.62 Q1812.65 1517.31 1812.65 1521.8 Q1812.65 1523.93 1811.84 1525.85 Q1811.05 1527.74 1808.95 1530.34 Q1808.37 1531.01 1805.27 1534.23 Q1802.17 1537.42 1796.52 1543.18 Z" fill="#000000" fill-rule="evenodd" fill-opacity="1" /><path clip-path="url(#clip900)" d="M2355.77 1516.63 L2343.96 1535.08 L2355.77 1535.08 L2355.77 1516.63 M2354.54 1512.56 L2360.42 1512.56 L2360.42 1535.08 L2365.35 1535.08 L2365.35 1538.97 L2360.42 1538.97 L2360.42 1547.12 L2355.77 1547.12 L2355.77 1538.97 L2340.16 1538.97 L2340.16 1534.46 L2354.54 1512.56 Z" fill="#000000" fill-rule="evenodd" fill-opacity="1" /><polyline clip-path="url(#clip902)" style="stroke:#000000; stroke-linecap:butt; stroke-linejoin:round; stroke-width:2; stroke-opacity:0.1; fill:none" points="
  149.191,1334.78 2352.76,1334.78 
  "/>
<polyline clip-path="url(#clip902)" style="stroke:#000000; stroke-linecap:butt; stroke-linejoin:round; stroke-width:2; stroke-opacity:0.1; fill:none" points="
  149.191,995.346 2352.76,995.346 
  "/>
<polyline clip-path="url(#clip902)" style="stroke:#000000; stroke-linecap:butt; stroke-linejoin:round; stroke-width:2; stroke-opacity:0.1; fill:none" points="
  149.191,655.911 2352.76,655.911 
  "/>
<polyline clip-path="url(#clip902)" style="stroke:#000000; stroke-linecap:butt; stroke-linejoin:round; stroke-width:2; stroke-opacity:0.1; fill:none" points="
  149.191,316.476 2352.76,316.476 
  "/>
<polyline clip-path="url(#clip900)" style="stroke:#000000; stroke-linecap:butt; stroke-linejoin:round; stroke-width:4; stroke-opacity:1; fill:none" points="
  149.191,1486.45 149.191,47.2441 
  "/>
<polyline clip-path="url(#clip900)" style="stroke:#000000; stroke-linecap:butt; stroke-linejoin:round; stroke-width:4; stroke-opacity:1; fill:none" points="
  149.191,1334.78 168.089,1334.78 
  "/>
<polyline clip-path="url(#clip900)" style="stroke:#000000; stroke-linecap:butt; stroke-linejoin:round; stroke-width:4; stroke-opacity:1; fill:none" points="
  149.191,995.346 168.089,995.346 
  "/>
<polyline clip-path="url(#clip900)" style="stroke:#000000; stroke-linecap:butt; stroke-linejoin:round; stroke-width:4; stroke-opacity:1; fill:none" points="
  149.191,655.911 168.089,655.911 
  "/>
<polyline clip-path="url(#clip900)" style="stroke:#000000; stroke-linecap:butt; stroke-linejoin:round; stroke-width:4; stroke-opacity:1; fill:none" points="
  149.191,316.476 168.089,316.476 
  "/>
<path clip-path="url(#clip900)" d="M50.9921 1335.23 L80.6679 1335.23 L80.6679 1339.17 L50.9921 1339.17 L50.9921 1335.23 Z" fill="#000000" fill-rule="evenodd" fill-opacity="1" /><path clip-path="url(#clip900)" d="M103.608 1321.58 L91.8021 1340.02 L103.608 1340.02 L103.608 1321.58 M102.381 1317.5 L108.26 1317.5 L108.26 1340.02 L113.191 1340.02 L113.191 1343.91 L108.26 1343.91 L108.26 1352.06 L103.608 1352.06 L103.608 1343.91 L88.0058 1343.91 L88.0058 1339.4 L102.381 1317.5 Z" fill="#000000" fill-rule="evenodd" fill-opacity="1" /><path clip-path="url(#clip900)" d="M53.0754 995.798 L82.7512 995.798 L82.7512 999.733 L53.0754 999.733 L53.0754 995.798 Z" fill="#000000" fill-rule="evenodd" fill-opacity="1" /><path clip-path="url(#clip900)" d="M96.8715 1008.69 L113.191 1008.69 L113.191 1012.63 L91.2465 1012.63 L91.2465 1008.69 Q93.9086 1005.94 98.4919 1001.31 Q103.098 996.654 104.279 995.311 Q106.524 992.788 107.404 991.052 Q108.307 989.293 108.307 987.603 Q108.307 984.848 106.362 983.112 Q104.441 981.376 101.339 981.376 Q99.14 981.376 96.6863 982.14 Q94.2558 982.904 91.478 984.455 L91.478 979.733 Q94.3021 978.599 96.7558 978.02 Q99.2095 977.441 101.246 977.441 Q106.617 977.441 109.811 980.126 Q113.006 982.811 113.006 987.302 Q113.006 989.432 112.196 991.353 Q111.408 993.251 109.302 995.844 Q108.723 996.515 105.621 999.733 Q102.52 1002.93 96.8715 1008.69 Z" fill="#000000" fill-rule="evenodd" fill-opacity="1" /><path clip-path="url(#clip900)" d="M101.246 641.71 Q97.6354 641.71 95.8067 645.275 Q94.0012 648.816 94.0012 655.946 Q94.0012 663.052 95.8067 666.617 Q97.6354 670.159 101.246 670.159 Q104.881 670.159 106.686 666.617 Q108.515 663.052 108.515 655.946 Q108.515 648.816 106.686 645.275 Q104.881 641.71 101.246 641.71 M101.246 638.006 Q107.057 638.006 110.112 642.613 Q113.191 647.196 113.191 655.946 Q113.191 664.673 110.112 669.279 Q107.057 673.863 101.246 673.863 Q95.4363 673.863 92.3576 669.279 Q89.3021 664.673 89.3021 655.946 Q89.3021 647.196 92.3576 642.613 Q95.4363 638.006 101.246 638.006 Z" fill="#000000" fill-rule="evenodd" fill-opacity="1" /><path clip-path="url(#clip900)" d="M96.8715 329.821 L113.191 329.821 L113.191 333.756 L91.2465 333.756 L91.2465 329.821 Q93.9086 327.067 98.4919 322.437 Q103.098 317.784 104.279 316.442 Q106.524 313.919 107.404 312.182 Q108.307 310.423 108.307 308.733 Q108.307 305.979 106.362 304.243 Q104.441 302.507 101.339 302.507 Q99.14 302.507 96.6863 303.27 Q94.2558 304.034 91.478 305.585 L91.478 300.863 Q94.3021 299.729 96.7558 299.15 Q99.2095 298.571 101.246 298.571 Q106.617 298.571 109.811 301.257 Q113.006 303.942 113.006 308.432 Q113.006 310.562 112.196 312.483 Q111.408 314.382 109.302 316.974 Q108.723 317.645 105.621 320.863 Q102.52 324.057 96.8715 329.821 Z" fill="#000000" fill-rule="evenodd" fill-opacity="1" /><polyline clip-path="url(#clip902)" style="stroke:#009af9; stroke-linecap:butt; stroke-linejoin:round; stroke-width:4; stroke-opacity:1; fill:none" points="
  149.191,87.9763 159.951,99.5375 170.71,110.922 270.2,206.633 369.69,282.337 429.48,317.315 489.269,344.429 539.82,361.545 590.371,373.831 700.197,387.11 
  801.446,389.313 909.996,390.357 1035.76,402.811 1091.64,415.633 1147.53,434.284 1196.53,455.953 1245.54,482.876 1298.96,518.333 1352.39,560.058 1406.14,608.022 
  1459.88,661.432 1578.73,794.766 1691.8,932.56 1809.38,1074.79 1908.35,1184.56 1968.77,1244.13 2029.19,1296.71 2085.98,1339.09 2142.77,1374.33 2233.76,1415.98 
  2324.75,1440.92 2338.75,1443.47 2352.76,1445.72 
  "/>
<polyline clip-path="url(#clip902)" style="stroke:#e26f46; stroke-linecap:butt; stroke-linejoin:round; stroke-width:4; stroke-opacity:1; fill:none" points="
  149.191,655.911 170.71,655.911 369.69,655.911 489.269,655.911 590.371,655.911 700.197,655.911 801.446,655.911 909.996,655.911 1035.76,655.911 1147.53,655.911 
  1245.54,655.911 1352.39,655.911 1459.88,655.911 1578.73,655.911 1691.8,655.911 1809.38,655.911 1908.35,655.911 2029.19,655.911 2142.77,655.911 2324.75,655.911 
  2352.76,655.911 
  "/>
<path clip-path="url(#clip900)" d="
M1982.03 250.738 L2279.3 250.738 L2279.3 95.2176 L1982.03 95.2176  Z
  " fill="#ffffff" fill-rule="evenodd" fill-opacity="1"/>
<polyline clip-path="url(#clip900)" style="stroke:#000000; stroke-linecap:butt; stroke-linejoin:round; stroke-width:4; stroke-opacity:1; fill:none" points="
  1982.03,250.738 2279.3,250.738 2279.3,95.2176 1982.03,95.2176 1982.03,250.738 
  "/>
<polyline clip-path="url(#clip900)" style="stroke:#009af9; stroke-linecap:butt; stroke-linejoin:round; stroke-width:4; stroke-opacity:1; fill:none" points="
  2006.52,147.058 2153.42,147.058 
  "/>
<path clip-path="url(#clip900)" d="M2191.75 166.745 Q2189.94 171.375 2188.23 172.787 Q2186.52 174.199 2183.65 174.199 L2180.24 174.199 L2180.24 170.634 L2182.74 170.634 Q2184.5 170.634 2185.47 169.8 Q2186.45 168.967 2187.63 165.865 L2188.39 163.921 L2177.91 138.412 L2182.42 138.412 L2190.52 158.689 L2198.62 138.412 L2203.14 138.412 L2191.75 166.745 Z" fill="#000000" fill-rule="evenodd" fill-opacity="1" /><path clip-path="url(#clip900)" d="M2210.43 160.402 L2218.07 160.402 L2218.07 134.037 L2209.76 135.703 L2209.76 131.444 L2218.02 129.778 L2222.7 129.778 L2222.7 160.402 L2230.34 160.402 L2230.34 164.338 L2210.43 164.338 L2210.43 160.402 Z" fill="#000000" fill-rule="evenodd" fill-opacity="1" /><polyline clip-path="url(#clip900)" style="stroke:#e26f46; stroke-linecap:butt; stroke-linejoin:round; stroke-width:4; stroke-opacity:1; fill:none" points="
  2006.52,198.898 2153.42,198.898 
  "/>
<path clip-path="url(#clip900)" d="M2191.75 218.585 Q2189.94 223.215 2188.23 224.627 Q2186.52 226.039 2183.65 226.039 L2180.24 226.039 L2180.24 222.474 L2182.74 222.474 Q2184.5 222.474 2185.47 221.64 Q2186.45 220.807 2187.63 217.705 L2188.39 215.761 L2177.91 190.252 L2182.42 190.252 L2190.52 210.529 L2198.62 190.252 L2203.14 190.252 L2191.75 218.585 Z" fill="#000000" fill-rule="evenodd" fill-opacity="1" /><path clip-path="url(#clip900)" d="M2213.65 212.242 L2229.97 212.242 L2229.97 216.178 L2208.02 216.178 L2208.02 212.242 Q2210.68 209.488 2215.27 204.858 Q2219.87 200.205 2221.05 198.863 Q2223.3 196.34 2224.18 194.604 Q2225.08 192.844 2225.08 191.155 Q2225.08 188.4 2223.14 186.664 Q2221.22 184.928 2218.11 184.928 Q2215.91 184.928 2213.46 185.692 Q2211.03 186.455 2208.25 188.006 L2208.25 183.284 Q2211.08 182.15 2213.53 181.571 Q2215.98 180.993 2218.02 180.993 Q2223.39 180.993 2226.59 183.678 Q2229.78 186.363 2229.78 190.854 Q2229.78 192.983 2228.97 194.905 Q2228.18 196.803 2226.08 199.395 Q2225.5 200.067 2222.4 203.284 Q2219.29 206.479 2213.65 212.242 Z" fill="#000000" fill-rule="evenodd" fill-opacity="1" /></svg>
