<?xml version="1.0" encoding="utf-8"?>
<svg xmlns="http://www.w3.org/2000/svg" xmlns:xlink="http://www.w3.org/1999/xlink" width="600" height="400" viewBox="0 0 2400 1600">
<defs>
  <clipPath id="clip320">
    <rect x="0" y="0" width="2400" height="1600"/>
  </clipPath>
</defs>
<path clip-path="url(#clip320)" d="
M0 1600 L2400 1600 L2400 0 L0 0  Z
  " fill="#ffffff" fill-rule="evenodd" fill-opacity="1"/>
<defs>
  <clipPath id="clip321">
    <rect x="480" y="0" width="1681" height="1600"/>
  </clipPath>
</defs>
<path clip-path="url(#clip320)" d="
M193.936 1486.45 L2352.76 1486.45 L2352.76 47.2441 L193.936 47.2441  Z
  " fill="#ffffff" fill-rule="evenodd" fill-opacity="1"/>
<defs>
  <clipPath id="clip322">
    <rect x="193" y="47" width="2160" height="1440"/>
  </clipPath>
</defs>
<polyline clip-path="url(#clip322)" style="stroke:#000000; stroke-linecap:butt; stroke-linejoin:round; stroke-width:2; stroke-opacity:0.1; fill:none" points="
  255.035,1486.45 255.035,47.2441 
  "/>
<polyline clip-path="url(#clip322)" style="stroke:#000000; stroke-linecap:butt; stroke-linejoin:round; stroke-width:2; stroke-opacity:0.1; fill:none" points="
  764.19,1486.45 764.19,47.2441 
  "/>
<polyline clip-path="url(#clip322)" style="stroke:#000000; stroke-linecap:butt; stroke-linejoin:round; stroke-width:2; stroke-opacity:0.1; fill:none" points="
  1273.35,1486.45 1273.35,47.2441 
  "/>
<polyline clip-path="url(#clip322)" style="stroke:#000000; stroke-linecap:butt; stroke-linejoin:round; stroke-width:2; stroke-opacity:0.1; fill:none" points="
  1782.5,1486.45 1782.5,47.2441 
  "/>
<polyline clip-path="url(#clip322)" style="stroke:#000000; stroke-linecap:butt; stroke-linejoin:round; stroke-width:2; stroke-opacity:0.1; fill:none" points="
  2291.66,1486.45 2291.66,47.2441 
  "/>
<polyline clip-path="url(#clip320)" style="stroke:#000000; stroke-linecap:butt; stroke-linejoin:round; stroke-width:4; stroke-opacity:1; fill:none" points="
  193.936,1486.45 2352.76,1486.45 
  "/>
<polyline clip-path="url(#clip320)" style="stroke:#000000; stroke-linecap:butt; stroke-linejoin:round; stroke-width:4; stroke-opacity:1; fill:none" points="
  255.035,1486.45 255.035,1467.55 
  "/>
<polyline clip-path="url(#clip320)" style="stroke:#000000; stroke-linecap:butt; stroke-linejoin:round; stroke-width:4; stroke-opacity:1; fill:none" points="
  764.19,1486.45 764.19,1467.55 
  "/>
<polyline clip-path="url(#clip320)" style="stroke:#000000; stroke-linecap:butt; stroke-linejoin:round; stroke-width:4; stroke-opacity:1; fill:none" points="
  1273.35,1486.45 1273.35,1467.55 
  "/>
<polyline clip-path="url(#clip320)" style="stroke:#000000; stroke-linecap:butt; stroke-linejoin:round; stroke-width:4; stroke-opacity:1; fill:none" points="
  1782.5,1486.45 1782.5,1467.55 
  "/>
<polyline clip-path="url(#clip320)" style="stroke:#000000; stroke-linecap:butt; stroke-linejoin:round; stroke-width:4; stroke-opacity:1; fill:none" points="
  2291.66,1486.45 2291.66,1467.55 
  "/>
<path clip-path="url(#clip320)" d="M255.035 1515.64 Q251.424 1515.64 249.595 1519.2 Q247.789 1522.75 247.789 1529.87 Q247.789 1536.98 249.595 1540.55 Q251.424 1544.09 255.035 1544.09 Q258.669 1544.09 260.474 1540.55 Q262.303 1536.98 262.303 1529.87 Q262.303 1522.75 260.474 1519.2 Q258.669 1515.64 255.035 1515.64 M255.035 1511.93 Q260.845 1511.93 263.9 1516.54 Q266.979 1521.12 266.979 1529.87 Q266.979 1538.6 263.9 1543.21 Q260.845 1547.79 255.035 1547.79 Q249.225 1547.79 246.146 1543.21 Q243.09 1538.6 243.09 1529.87 Q243.09 1521.12 246.146 1516.54 Q249.225 1511.93 255.035 1511.93 Z" fill="#000000" fill-rule="evenodd" fill-opacity="1" /><path clip-path="url(#clip320)" d="M754.468 1512.56 L772.825 1512.56 L772.825 1516.5 L758.751 1516.5 L758.751 1524.97 Q759.769 1524.62 760.788 1524.46 Q761.806 1524.27 762.825 1524.27 Q768.612 1524.27 771.991 1527.44 Q775.371 1530.62 775.371 1536.03 Q775.371 1541.61 771.899 1544.71 Q768.426 1547.79 762.107 1547.79 Q759.931 1547.79 757.663 1547.42 Q755.417 1547.05 753.01 1546.31 L753.01 1541.61 Q755.093 1542.74 757.315 1543.3 Q759.538 1543.86 762.014 1543.86 Q766.019 1543.86 768.357 1541.75 Q770.695 1539.64 770.695 1536.03 Q770.695 1532.42 768.357 1530.31 Q766.019 1528.21 762.014 1528.21 Q760.139 1528.21 758.264 1528.62 Q756.413 1529.04 754.468 1529.92 L754.468 1512.56 Z" fill="#000000" fill-rule="evenodd" fill-opacity="1" /><path clip-path="url(#clip320)" d="M1248.03 1543.18 L1255.67 1543.18 L1255.67 1516.82 L1247.36 1518.49 L1247.36 1514.23 L1255.63 1512.56 L1260.3 1512.56 L1260.3 1543.18 L1267.94 1543.18 L1267.94 1547.12 L1248.03 1547.12 L1248.03 1543.18 Z" fill="#000000" fill-rule="evenodd" fill-opacity="1" /><path clip-path="url(#clip320)" d="M1287.39 1515.64 Q1283.77 1515.64 1281.95 1519.2 Q1280.14 1522.75 1280.14 1529.87 Q1280.14 1536.98 1281.95 1540.55 Q1283.77 1544.09 1287.39 1544.09 Q1291.02 1544.09 1292.83 1540.55 Q1294.65 1536.98 1294.65 1529.87 Q1294.65 1522.75 1292.83 1519.2 Q1291.02 1515.64 1287.39 1515.64 M1287.39 1511.93 Q1293.2 1511.93 1296.25 1516.54 Q1299.33 1521.12 1299.33 1529.87 Q1299.33 1538.6 1296.25 1543.21 Q1293.2 1547.79 1287.39 1547.79 Q1281.58 1547.79 1278.5 1543.21 Q1275.44 1538.6 1275.44 1529.87 Q1275.44 1521.12 1278.5 1516.54 Q1281.58 1511.93 1287.39 1511.93 Z" fill="#000000" fill-rule="evenodd" fill-opacity="1" /><path clip-path="url(#clip320)" d="M1757.69 1543.18 L1765.33 1543.18 L1765.33 1516.82 L1757.02 1518.49 L1757.02 1514.23 L1765.28 1512.56 L1769.96 1512.56 L1769.96 1543.18 L1777.59 1543.18 L1777.59 1547.12 L1757.69 1547.12 L1757.69 1543.18 Z" fill="#000000" fill-rule="evenodd" fill-opacity="1" /><path clip-path="url(#clip320)" d="M1787.08 1512.56 L1805.44 1512.56 L1805.44 1516.5 L1791.37 1516.5 L1791.37 1524.97 Q1792.39 1524.62 1793.4 1524.46 Q1794.42 1524.27 1795.44 1524.27 Q1801.23 1524.27 1804.61 1527.44 Q1807.99 1530.62 1807.99 1536.03 Q1807.99 1541.61 1804.52 1544.71 Q1801.04 1547.79 1794.72 1547.79 Q1792.55 1547.79 1790.28 1547.42 Q1788.03 1547.05 1785.63 1546.31 L1785.63 1541.61 Q1787.71 1542.74 1789.93 1543.3 Q1792.15 1543.86 1794.63 1543.86 Q1798.64 1543.86 1800.97 1541.75 Q1803.31 1539.64 1803.31 1536.03 Q1803.31 1532.42 1800.97 1530.31 Q1798.64 1528.21 1794.63 1528.21 Q1792.76 1528.21 1790.88 1528.62 Q1789.03 1529.04 1787.08 1529.92 L1787.08 1512.56 Z" fill="#000000" fill-rule="evenodd" fill-opacity="1" /><path clip-path="url(#clip320)" d="M2270.43 1543.18 L2286.75 1543.18 L2286.75 1547.12 L2264.81 1547.12 L2264.81 1543.18 Q2267.47 1540.43 2272.05 1535.8 Q2276.66 1531.15 2277.84 1529.81 Q2280.08 1527.28 2280.96 1525.55 Q2281.87 1523.79 2281.87 1522.1 Q2281.87 1519.34 2279.92 1517.61 Q2278 1515.87 2274.9 1515.87 Q2272.7 1515.87 2270.25 1516.63 Q2267.81 1517.4 2265.04 1518.95 L2265.04 1514.23 Q2267.86 1513.09 2270.31 1512.51 Q2272.77 1511.93 2274.81 1511.93 Q2280.18 1511.93 2283.37 1514.62 Q2286.56 1517.31 2286.56 1521.8 Q2286.56 1523.93 2285.75 1525.85 Q2284.97 1527.74 2282.86 1530.34 Q2282.28 1531.01 2279.18 1534.23 Q2276.08 1537.42 2270.43 1543.18 Z" fill="#000000" fill-rule="evenodd" fill-opacity="1" /><path clip-path="url(#clip320)" d="M2306.56 1515.64 Q2302.95 1515.64 2301.12 1519.2 Q2299.32 1522.75 2299.32 1529.87 Q2299.32 1536.98 2301.12 1540.55 Q2302.95 1544.09 2306.56 1544.09 Q2310.2 1544.09 2312 1540.55 Q2313.83 1536.98 2313.83 1529.87 Q2313.83 1522.75 2312 1519.2 Q2310.2 1515.64 2306.56 1515.64 M2306.56 1511.93 Q2312.37 1511.93 2315.43 1516.54 Q2318.51 1521.12 2318.51 1529.87 Q2318.51 1538.6 2315.43 1543.21 Q2312.37 1547.79 2306.56 1547.79 Q2300.75 1547.79 2297.68 1543.21 Q2294.62 1538.6 2294.62 1529.87 Q2294.62 1521.12 2297.68 1516.54 Q2300.75 1511.93 2306.56 1511.93 Z" fill="#000000" fill-rule="evenodd" fill-opacity="1" /><polyline clip-path="url(#clip322)" style="stroke:#000000; stroke-linecap:butt; stroke-linejoin:round; stroke-width:2; stroke-opacity:0.1; fill:none" points="
  193.936,1446.02 2352.76,1446.02 
  "/>
<polyline clip-path="url(#clip322)" style="stroke:#000000; stroke-linecap:butt; stroke-linejoin:round; stroke-width:2; stroke-opacity:0.1; fill:none" points="
  193.936,1106.51 2352.76,1106.51 
  "/>
<polyline clip-path="url(#clip322)" style="stroke:#000000; stroke-linecap:butt; stroke-linejoin:round; stroke-width:2; stroke-opacity:0.1; fill:none" points="
  193.936,767 2352.76,767 
  "/>
<polyline clip-path="url(#clip322)" style="stroke:#000000; stroke-linecap:butt; stroke-linejoin:round; stroke-width:2; stroke-opacity:0.1; fill:none" points="
  193.936,427.488 2352.76,427.488 
  "/>
<polyline clip-path="url(#clip322)" style="stroke:#000000; stroke-linecap:butt; stroke-linejoin:round; stroke-width:2; stroke-opacity:0.1; fill:none" points="
  193.936,87.9763 2352.76,87.9763 
  "/>
<polyline clip-path="url(#clip320)" style="stroke:#000000; stroke-linecap:butt; stroke-linejoin:round; stroke-width:4; stroke-opacity:1; fill:none" points="
  193.936,1486.45 193.936,47.2441 
  "/>
<polyline clip-path="url(#clip320)" style="stroke:#000000; stroke-linecap:butt; stroke-linejoin:round; stroke-width:4; stroke-opacity:1; fill:none" points="
  193.936,1446.02 212.834,1446.02 
  "/>
<polyline clip-path="url(#clip320)" style="stroke:#000000; stroke-linecap:butt; stroke-linejoin:round; stroke-width:4; stroke-opacity:1; fill:none" points="
  193.936,1106.51 212.834,1106.51 
  "/>
<polyline clip-path="url(#clip320)" style="stroke:#000000; stroke-linecap:butt; stroke-linejoin:round; stroke-width:4; stroke-opacity:1; fill:none" points="
  193.936,767 212.834,767 
  "/>
<polyline clip-path="url(#clip320)" style="stroke:#000000; stroke-linecap:butt; stroke-linejoin:round; stroke-width:4; stroke-opacity:1; fill:none" points="
  193.936,427.488 212.834,427.488 
  "/>
<polyline clip-path="url(#clip320)" style="stroke:#000000; stroke-linecap:butt; stroke-linejoin:round; stroke-width:4; stroke-opacity:1; fill:none" points="
  193.936,87.9763 212.834,87.9763 
  "/>
<path clip-path="url(#clip320)" d="M50.9921 1446.47 L80.6679 1446.47 L80.6679 1450.41 L50.9921 1450.41 L50.9921 1446.47 Z" fill="#000000" fill-rule="evenodd" fill-opacity="1" /><path clip-path="url(#clip320)" d="M91.5706 1459.37 L99.2095 1459.37 L99.2095 1433 L90.8993 1434.67 L90.8993 1430.41 L99.1632 1428.74 L103.839 1428.74 L103.839 1459.37 L111.478 1459.37 L111.478 1463.3 L91.5706 1463.3 L91.5706 1459.37 Z" fill="#000000" fill-rule="evenodd" fill-opacity="1" /><path clip-path="url(#clip320)" d="M120.922 1457.42 L125.807 1457.42 L125.807 1463.3 L120.922 1463.3 L120.922 1457.42 Z" fill="#000000" fill-rule="evenodd" fill-opacity="1" /><path clip-path="url(#clip320)" d="M145.992 1431.82 Q142.381 1431.82 140.552 1435.39 Q138.746 1438.93 138.746 1446.06 Q138.746 1453.16 140.552 1456.73 Q142.381 1460.27 145.992 1460.27 Q149.626 1460.27 151.431 1456.73 Q153.26 1453.16 153.26 1446.06 Q153.26 1438.93 151.431 1435.39 Q149.626 1431.82 145.992 1431.82 M145.992 1428.12 Q151.802 1428.12 154.857 1432.72 Q157.936 1437.31 157.936 1446.06 Q157.936 1454.78 154.857 1459.39 Q151.802 1463.97 145.992 1463.97 Q140.181 1463.97 137.103 1459.39 Q134.047 1454.78 134.047 1446.06 Q134.047 1437.31 137.103 1432.72 Q140.181 1428.12 145.992 1428.12 Z" fill="#000000" fill-rule="evenodd" fill-opacity="1" /><path clip-path="url(#clip320)" d="M51.9875 1106.96 L81.6633 1106.96 L81.6633 1110.9 L51.9875 1110.9 L51.9875 1106.96 Z" fill="#000000" fill-rule="evenodd" fill-opacity="1" /><path clip-path="url(#clip320)" d="M101.756 1092.31 Q98.1447 1092.31 96.316 1095.87 Q94.5104 1099.42 94.5104 1106.55 Q94.5104 1113.65 96.316 1117.22 Q98.1447 1120.76 101.756 1120.76 Q105.39 1120.76 107.196 1117.22 Q109.024 1113.65 109.024 1106.55 Q109.024 1099.42 107.196 1095.87 Q105.39 1092.31 101.756 1092.31 M101.756 1088.61 Q107.566 1088.61 110.621 1093.21 Q113.7 1097.8 113.7 1106.55 Q113.7 1115.27 110.621 1119.88 Q107.566 1124.46 101.756 1124.46 Q95.9456 1124.46 92.8669 1119.88 Q89.8114 1115.27 89.8114 1106.55 Q89.8114 1097.8 92.8669 1093.21 Q95.9456 1088.61 101.756 1088.61 Z" fill="#000000" fill-rule="evenodd" fill-opacity="1" /><path clip-path="url(#clip320)" d="M121.918 1117.91 L126.802 1117.91 L126.802 1123.79 L121.918 1123.79 L121.918 1117.91 Z" fill="#000000" fill-rule="evenodd" fill-opacity="1" /><path clip-path="url(#clip320)" d="M137.033 1089.23 L155.39 1089.23 L155.39 1093.17 L141.316 1093.17 L141.316 1101.64 Q142.334 1101.29 143.353 1101.13 Q144.371 1100.94 145.39 1100.94 Q151.177 1100.94 154.556 1104.12 Q157.936 1107.29 157.936 1112.7 Q157.936 1118.28 154.464 1121.38 Q150.992 1124.46 144.672 1124.46 Q142.496 1124.46 140.228 1124.09 Q137.982 1123.72 135.575 1122.98 L135.575 1118.28 Q137.658 1119.42 139.881 1119.97 Q142.103 1120.53 144.58 1120.53 Q148.584 1120.53 150.922 1118.42 Q153.26 1116.31 153.26 1112.7 Q153.26 1109.09 150.922 1106.99 Q148.584 1104.88 144.58 1104.88 Q142.705 1104.88 140.83 1105.3 Q138.978 1105.71 137.033 1106.59 L137.033 1089.23 Z" fill="#000000" fill-rule="evenodd" fill-opacity="1" /><path clip-path="url(#clip320)" d="M100.76 752.798 Q97.1493 752.798 95.3206 756.363 Q93.515 759.905 93.515 767.034 Q93.515 774.141 95.3206 777.706 Q97.1493 781.247 100.76 781.247 Q104.395 781.247 106.2 777.706 Q108.029 774.141 108.029 767.034 Q108.029 759.905 106.2 756.363 Q104.395 752.798 100.76 752.798 M100.76 749.095 Q106.571 749.095 109.626 753.701 Q112.705 758.285 112.705 767.034 Q112.705 775.761 109.626 780.368 Q106.571 784.951 100.76 784.951 Q94.9502 784.951 91.8715 780.368 Q88.816 775.761 88.816 767.034 Q88.816 758.285 91.8715 753.701 Q94.9502 749.095 100.76 749.095 Z" fill="#000000" fill-rule="evenodd" fill-opacity="1" /><path clip-path="url(#clip320)" d="M120.922 778.4 L125.807 778.4 L125.807 784.28 L120.922 784.28 L120.922 778.4 Z" fill="#000000" fill-rule="evenodd" fill-opacity="1" /><path clip-path="url(#clip320)" d="M145.992 752.798 Q142.381 752.798 140.552 756.363 Q138.746 759.905 138.746 767.034 Q138.746 774.141 140.552 777.706 Q142.381 781.247 145.992 781.247 Q149.626 781.247 151.431 777.706 Q153.26 774.141 153.26 767.034 Q153.26 759.905 151.431 756.363 Q149.626 752.798 145.992 752.798 M145.992 749.095 Q151.802 749.095 154.857 753.701 Q157.936 758.285 157.936 767.034 Q157.936 775.761 154.857 780.368 Q151.802 784.951 145.992 784.951 Q140.181 784.951 137.103 780.368 Q134.047 775.761 134.047 767.034 Q134.047 758.285 137.103 753.701 Q140.181 749.095 145.992 749.095 Z" fill="#000000" fill-rule="evenodd" fill-opacity="1" /><path clip-path="url(#clip320)" d="M101.756 413.287 Q98.1447 413.287 96.316 416.851 Q94.5104 420.393 94.5104 427.523 Q94.5104 434.629 96.316 438.194 Q98.1447 441.736 101.756 441.736 Q105.39 441.736 107.196 438.194 Q109.024 434.629 109.024 427.523 Q109.024 420.393 107.196 416.851 Q105.39 413.287 101.756 413.287 M101.756 409.583 Q107.566 409.583 110.621 414.189 Q113.7 418.773 113.7 427.523 Q113.7 436.25 110.621 440.856 Q107.566 445.439 101.756 445.439 Q95.9456 445.439 92.8669 440.856 Q89.8114 436.25 89.8114 427.523 Q89.8114 418.773 92.8669 414.189 Q95.9456 409.583 101.756 409.583 Z" fill="#000000" fill-rule="evenodd" fill-opacity="1" /><path clip-path="url(#clip320)" d="M121.918 438.888 L126.802 438.888 L126.802 444.768 L121.918 444.768 L121.918 438.888 Z" fill="#000000" fill-rule="evenodd" fill-opacity="1" /><path clip-path="url(#clip320)" d="M137.033 410.208 L155.39 410.208 L155.39 414.143 L141.316 414.143 L141.316 422.615 Q142.334 422.268 143.353 422.106 Q144.371 421.921 145.39 421.921 Q151.177 421.921 154.556 425.092 Q157.936 428.263 157.936 433.68 Q157.936 439.259 154.464 442.361 Q150.992 445.439 144.672 445.439 Q142.496 445.439 140.228 445.069 Q137.982 444.699 135.575 443.958 L135.575 439.259 Q137.658 440.393 139.881 440.949 Q142.103 441.504 144.58 441.504 Q148.584 441.504 150.922 439.398 Q153.26 437.291 153.26 433.68 Q153.26 430.069 150.922 427.963 Q148.584 425.856 144.58 425.856 Q142.705 425.856 140.83 426.273 Q138.978 426.689 137.033 427.569 L137.033 410.208 Z" fill="#000000" fill-rule="evenodd" fill-opacity="1" /><path clip-path="url(#clip320)" d="M91.5706 101.321 L99.2095 101.321 L99.2095 74.9555 L90.8993 76.6222 L90.8993 72.3629 L99.1632 70.6963 L103.839 70.6963 L103.839 101.321 L111.478 101.321 L111.478 105.256 L91.5706 105.256 L91.5706 101.321 Z" fill="#000000" fill-rule="evenodd" fill-opacity="1" /><path clip-path="url(#clip320)" d="M120.922 99.3767 L125.807 99.3767 L125.807 105.256 L120.922 105.256 L120.922 99.3767 Z" fill="#000000" fill-rule="evenodd" fill-opacity="1" /><path clip-path="url(#clip320)" d="M145.992 73.775 Q142.381 73.775 140.552 77.3398 Q138.746 80.8814 138.746 88.011 Q138.746 95.1174 140.552 98.6822 Q142.381 102.224 145.992 102.224 Q149.626 102.224 151.431 98.6822 Q153.26 95.1174 153.26 88.011 Q153.26 80.8814 151.431 77.3398 Q149.626 73.775 145.992 73.775 M145.992 70.0713 Q151.802 70.0713 154.857 74.6777 Q157.936 79.261 157.936 88.011 Q157.936 96.7378 154.857 101.344 Q151.802 105.928 145.992 105.928 Q140.181 105.928 137.103 101.344 Q134.047 96.7378 134.047 88.011 Q134.047 79.261 137.103 74.6777 Q140.181 70.0713 145.992 70.0713 Z" fill="#000000" fill-rule="evenodd" fill-opacity="1" /><circle clip-path="url(#clip322)" cx="255.035" cy="767" r="14" fill="#009af9" fill-rule="evenodd" fill-opacity="1" stroke="#000000" stroke-opacity="1" stroke-width="3.2"/>
<circle clip-path="url(#clip322)" cx="356.866" cy="223.781" r="14" fill="#009af9" fill-rule="evenodd" fill-opacity="1" stroke="#000000" stroke-opacity="1" stroke-width="3.2"/>
<circle clip-path="url(#clip322)" cx="458.697" cy="115.137" r="14" fill="#009af9" fill-rule="evenodd" fill-opacity="1" stroke="#000000" stroke-opacity="1" stroke-width="3.2"/>
<circle clip-path="url(#clip322)" cx="560.528" cy="527.983" r="14" fill="#009af9" fill-rule="evenodd" fill-opacity="1" stroke="#000000" stroke-opacity="1" stroke-width="3.2"/>
<circle clip-path="url(#clip322)" cx="662.359" cy="1132.04" r="14" fill="#009af9" fill-rule="evenodd" fill-opacity="1" stroke="#000000" stroke-opacity="1" stroke-width="3.2"/>
<circle clip-path="url(#clip322)" cx="764.19" cy="1444.07" r="14" fill="#009af9" fill-rule="evenodd" fill-opacity="1" stroke="#000000" stroke-opacity="1" stroke-width="3.2"/>
<circle clip-path="url(#clip322)" cx="866.021" cy="1214.44" r="14" fill="#009af9" fill-rule="evenodd" fill-opacity="1" stroke="#000000" stroke-opacity="1" stroke-width="3.2"/>
<circle clip-path="url(#clip322)" cx="967.853" cy="626.858" r="14" fill="#009af9" fill-rule="evenodd" fill-opacity="1" stroke="#000000" stroke-opacity="1" stroke-width="3.2"/>
<circle clip-path="url(#clip322)" cx="1069.68" cy="151.391" r="14" fill="#009af9" fill-rule="evenodd" fill-opacity="1" stroke="#000000" stroke-opacity="1" stroke-width="3.2"/>
<circle clip-path="url(#clip322)" cx="1171.51" cy="168.411" r="14" fill="#009af9" fill-rule="evenodd" fill-opacity="1" stroke="#000000" stroke-opacity="1" stroke-width="3.2"/>
<circle clip-path="url(#clip322)" cx="1273.35" cy="664.302" r="14" fill="#009af9" fill-rule="evenodd" fill-opacity="1" stroke="#000000" stroke-opacity="1" stroke-width="3.2"/>
<circle clip-path="url(#clip322)" cx="1375.18" cy="1242.35" r="14" fill="#009af9" fill-rule="evenodd" fill-opacity="1" stroke="#000000" stroke-opacity="1" stroke-width="3.2"/>
<circle clip-path="url(#clip322)" cx="1477.01" cy="1440.12" r="14" fill="#009af9" fill-rule="evenodd" fill-opacity="1" stroke="#000000" stroke-opacity="1" stroke-width="3.2"/>
<circle clip-path="url(#clip322)" cx="1578.84" cy="1099.39" r="14" fill="#009af9" fill-rule="evenodd" fill-opacity="1" stroke="#000000" stroke-opacity="1" stroke-width="3.2"/>
<circle clip-path="url(#clip322)" cx="1680.67" cy="492.751" r="14" fill="#009af9" fill-rule="evenodd" fill-opacity="1" stroke="#000000" stroke-opacity="1" stroke-width="3.2"/>
<circle clip-path="url(#clip322)" cx="1782.5" cy="105.509" r="14" fill="#009af9" fill-rule="evenodd" fill-opacity="1" stroke="#000000" stroke-opacity="1" stroke-width="3.2"/>
<circle clip-path="url(#clip322)" cx="1884.33" cy="247.46" r="14" fill="#009af9" fill-rule="evenodd" fill-opacity="1" stroke="#000000" stroke-opacity="1" stroke-width="3.2"/>
<circle clip-path="url(#clip322)" cx="1986.16" cy="805.043" r="14" fill="#009af9" fill-rule="evenodd" fill-opacity="1" stroke="#000000" stroke-opacity="1" stroke-width="3.2"/>
<circle clip-path="url(#clip322)" cx="2087.99" cy="1332.19" r="14" fill="#009af9" fill-rule="evenodd" fill-opacity="1" stroke="#000000" stroke-opacity="1" stroke-width="3.2"/>
<circle clip-path="url(#clip322)" cx="2189.83" cy="1407.19" r="14" fill="#009af9" fill-rule="evenodd" fill-opacity="1" stroke="#000000" stroke-opacity="1" stroke-width="3.2"/>
<circle clip-path="url(#clip322)" cx="2291.66" cy="970.032" r="14" fill="#009af9" fill-rule="evenodd" fill-opacity="1" stroke="#000000" stroke-opacity="1" stroke-width="3.2"/>
<circle clip-path="url(#clip322)" cx="255.035" cy="87.9763" r="14" fill="#e26f46" fill-rule="evenodd" fill-opacity="1" stroke="#000000" stroke-opacity="1" stroke-width="3.2"/>
<circle clip-path="url(#clip322)" cx="356.866" cy="359.586" r="14" fill="#e26f46" fill-rule="evenodd" fill-opacity="1" stroke="#000000" stroke-opacity="1" stroke-width="3.2"/>
<circle clip-path="url(#clip322)" cx="458.697" cy="957.126" r="14" fill="#e26f46" fill-rule="evenodd" fill-opacity="1" stroke="#000000" stroke-opacity="1" stroke-width="3.2"/>
<circle clip-path="url(#clip322)" cx="560.528" cy="1402.57" r="14" fill="#e26f46" fill-rule="evenodd" fill-opacity="1" stroke="#000000" stroke-opacity="1" stroke-width="3.2"/>
<circle clip-path="url(#clip322)" cx="662.359" cy="1339.55" r="14" fill="#e26f46" fill-rule="evenodd" fill-opacity="1" stroke="#000000" stroke-opacity="1" stroke-width="3.2"/>
<circle clip-path="url(#clip322)" cx="764.19" cy="818.497" r="14" fill="#e26f46" fill-rule="evenodd" fill-opacity="1" stroke="#000000" stroke-opacity="1" stroke-width="3.2"/>
<circle clip-path="url(#clip322)" cx="866.021" cy="256.244" r="14" fill="#e26f46" fill-rule="evenodd" fill-opacity="1" stroke="#000000" stroke-opacity="1" stroke-width="3.2"/>
<circle clip-path="url(#clip322)" cx="967.853" cy="102.595" r="14" fill="#e26f46" fill-rule="evenodd" fill-opacity="1" stroke="#000000" stroke-opacity="1" stroke-width="3.2"/>
<circle clip-path="url(#clip322)" cx="1069.68" cy="480.471" r="14" fill="#e26f46" fill-rule="evenodd" fill-opacity="1" stroke="#000000" stroke-opacity="1" stroke-width="3.2"/>
<circle clip-path="url(#clip322)" cx="1171.51" cy="1087.57" r="14" fill="#e26f46" fill-rule="evenodd" fill-opacity="1" stroke="#000000" stroke-opacity="1" stroke-width="3.2"/>
<circle clip-path="url(#clip322)" cx="1273.35" cy="1438.21" r="14" fill="#e26f46" fill-rule="evenodd" fill-opacity="1" stroke="#000000" stroke-opacity="1" stroke-width="3.2"/>
<circle clip-path="url(#clip322)" cx="1375.18" cy="1251.89" r="14" fill="#e26f46" fill-rule="evenodd" fill-opacity="1" stroke="#000000" stroke-opacity="1" stroke-width="3.2"/>
<circle clip-path="url(#clip322)" cx="1477.01" cy="677.65" r="14" fill="#e26f46" fill-rule="evenodd" fill-opacity="1" stroke="#000000" stroke-opacity="1" stroke-width="3.2"/>
<circle clip-path="url(#clip322)" cx="1578.84" cy="174.895" r="14" fill="#e26f46" fill-rule="evenodd" fill-opacity="1" stroke="#000000" stroke-opacity="1" stroke-width="3.2"/>
<circle clip-path="url(#clip322)" cx="1680.67" cy="145.823" r="14" fill="#e26f46" fill-rule="evenodd" fill-opacity="1" stroke="#000000" stroke-opacity="1" stroke-width="3.2"/>
<circle clip-path="url(#clip322)" cx="1782.5" cy="613.693" r="14" fill="#e26f46" fill-rule="evenodd" fill-opacity="1" stroke="#000000" stroke-opacity="1" stroke-width="3.2"/>
<circle clip-path="url(#clip322)" cx="1884.33" cy="1204.21" r="14" fill="#e26f46" fill-rule="evenodd" fill-opacity="1" stroke="#000000" stroke-opacity="1" stroke-width="3.2"/>
<circle clip-path="url(#clip322)" cx="1986.16" cy="1444.96" r="14" fill="#e26f46" fill-rule="evenodd" fill-opacity="1" stroke="#000000" stroke-opacity="1" stroke-width="3.2"/>
<circle clip-path="url(#clip322)" cx="2087.99" cy="1143.34" r="14" fill="#e26f46" fill-rule="evenodd" fill-opacity="1" stroke="#000000" stroke-opacity="1" stroke-width="3.2"/>
<circle clip-path="url(#clip322)" cx="2189.83" cy="540.65" r="14" fill="#e26f46" fill-rule="evenodd" fill-opacity="1" stroke="#000000" stroke-opacity="1" stroke-width="3.2"/>
<circle clip-path="url(#clip322)" cx="2291.66" cy="119.041" r="14" fill="#e26f46" fill-rule="evenodd" fill-opacity="1" stroke="#000000" stroke-opacity="1" stroke-width="3.2"/>
<polyline clip-path="url(#clip322)" style="stroke:#3da44d; stroke-linecap:butt; stroke-linejoin:round; stroke-width:4; stroke-opacity:1; fill:none" points="
  255.035,87.9763 260.007,88.7856 264.979,91.2117 269.952,95.2487 274.924,100.887 286.418,119.969 297.912,147.286 309.406,182.49 320.9,225.133 332.394,274.672 
  343.888,330.477 355.382,391.838 366.877,457.973 412.853,752.746 458.829,1050.37 472.644,1131.23 486.459,1205.39 500.274,1271.49 514.089,1328.33 527.904,1374.85 
  541.719,1410.19 555.534,1433.72 569.348,1445 581.029,1444.81 592.709,1435.72 604.39,1417.84 616.07,1391.4 627.75,1356.76 639.431,1314.37 651.111,1264.78 
  662.791,1208.66 688.167,1067.81 713.544,908.382 738.92,740.218 764.296,573.71 775.993,500.376 787.691,430.556 799.388,365.17 811.085,305.081 822.783,251.08 
  834.48,203.88 846.177,164.101 857.875,132.269 870.416,107.444 882.956,92.6092 895.497,87.9896 908.038,93.6553 920.579,109.52 933.119,135.345 945.66,170.737 
  958.201,215.161 972.731,277.032 987.26,348.861 1001.79,429.188 1016.32,516.382 1045.38,704.174 1074.44,897.047 1087.35,980.284 1100.26,1060.1 1113.18,1135.2 
  1126.09,1204.4 1139,1266.57 1151.91,1320.71 1164.82,1365.97 1177.74,1401.61 1189.06,1424.49 1200.38,1439.26 1211.71,1445.72 1223.03,1443.79 1234.35,1433.51 
  1245.67,1414.99 1257,1388.47 1268.32,1354.28 1280.67,1308.75 1293.01,1255.27 1305.36,1194.62 1317.7,1127.69 1342.39,979.015 1367.08,817.936 1391.92,652.913 
  1416.75,494.643 1429.17,420.999 1441.59,352.495 1454.01,290.147 1466.43,234.882 1480.16,183.011 1493.89,141.739 1507.62,111.818 1521.35,93.7895 1535.08,87.9814 
  1548.81,94.4989 1562.54,113.224 1576.27,143.816 1589.33,183.437 1602.4,232.649 1615.46,290.643 1628.52,356.466 1654.65,507.163 1680.78,674.871 1707.95,855.485 
  1735.11,1029.84 1748.7,1110.77 1762.28,1185.6 1775.86,1252.98 1789.45,1311.74 1800.88,1353.73 1812.31,1388.33 1823.75,1415.11 1835.18,1433.72 1846.62,1443.94 
  1858.05,1445.63 1869.49,1438.77 1880.92,1423.46 1894.88,1393.57 1908.84,1351.93 1922.8,1299.32 1936.76,1236.71 1950.72,1165.29 1964.68,1086.4 1978.64,1001.52 
  1992.6,912.23 2018.85,738.36 2045.09,566.382 2058.21,484.678 2071.34,407.657 2084.46,336.595 2097.58,272.671 2108.1,227.332 2118.61,187.739 2129.12,154.314 
  2139.63,127.411 2150.14,107.318 2160.65,94.2485 2171.17,88.3414 2181.68,89.6598 2192.19,98.1897 2202.7,113.84 2213.21,136.445 2223.73,165.762 2234.24,201.481 
  2244.75,243.221 2255.26,290.537 2265.77,342.926 2272.24,377.459 2278.72,413.564 2285.19,451.096 2291.66,489.902 
  "/>
<polyline clip-path="url(#clip322)" style="stroke:#c271d2; stroke-linecap:butt; stroke-linejoin:round; stroke-width:4; stroke-opacity:1; fill:none" points="
  255.035,767 260.007,733.857 264.979,700.793 269.952,667.887 274.924,635.217 297.912,489.461 320.9,357.789 332.394,299.361 343.888,246.883 355.382,201.026 
  366.877,162.371 378.371,131.412 389.865,108.542 401.359,94.0514 412.853,88.1259 424.347,90.8404 435.841,102.16 447.335,121.942 458.829,149.933 472.644,193.929 
  486.459,248.456 500.274,312.513 514.089,384.921 541.719,549.342 569.348,729.69 592.709,884.843 616.07,1033.82 627.75,1103.53 639.431,1168.82 651.111,1228.83 
  662.791,1282.76 675.479,1333.65 688.167,1375.76 700.856,1408.42 713.544,1431.14 726.232,1443.56 738.92,1445.49 751.608,1436.91 764.296,1417.93 775.993,1391.49 
  787.691,1356.81 799.388,1314.36 811.085,1264.7 822.783,1208.47 834.48,1146.43 846.177,1079.39 857.875,1008.23 882.956,846.185 908.038,679.363 933.119,517.832 
  958.201,371.34 972.731,296.889 987.26,231.993 1001.79,177.97 1016.32,135.919 1030.85,106.694 1045.38,90.889 1059.91,88.8258 1074.44,100.546 1087.35,122.343 
  1100.26,154.491 1113.18,196.474 1126.09,247.617 1139,307.101 1151.91,373.969 1164.82,447.148 1177.74,525.463 1200.38,671.38 1223.03,822.006 1245.67,969.923 
  1268.32,1107.85 1280.67,1176.37 1293.01,1238.88 1305.36,1294.46 1317.7,1342.3 1330.05,1381.7 1342.39,1412.08 1354.74,1432.98 1367.08,1444.11 1379.5,1445.28 
  1391.92,1436.37 1404.34,1417.52 1416.75,1389.01 1429.17,1351.26 1441.59,1304.83 1454.01,1250.41 1466.43,1188.81 1493.89,1031.81 1521.35,855.661 1548.81,673.109 
  1576.27,497.342 1589.33,419.829 1602.4,348.023 1615.46,283.102 1628.52,226.135 1641.59,178.057 1654.65,139.658 1667.72,111.57 1680.78,94.2552 1694.36,87.9788 
  1707.95,93.7663 1721.53,111.515 1735.11,140.91 1748.7,181.428 1762.28,232.35 1775.86,292.772 1789.45,361.618 1812.31,493.106 1835.18,638.349 1858.05,790.053 
  1880.92,940.6 1894.88,1028.68 1908.84,1111.86 1922.8,1188.56 1936.76,1257.35 1950.72,1316.94 1964.68,1366.21 1978.64,1404.24 1992.6,1430.31 2005.72,1443.47 
  2018.85,1445.42 2031.97,1436.11 2045.09,1415.71 2058.21,1384.55 2071.34,1343.15 2084.46,1292.19 2097.58,1232.52 2118.61,1121.3 2139.63,995.033 2160.65,859.079 
  2181.68,719.214 2202.7,581.378 2223.73,451.427 2244.75,334.879 2265.77,236.684 2272.24,210.825 2278.72,187.21 2285.19,165.936 2291.66,147.088 
  "/>
<path clip-path="url(#clip320)" d="
M1986.78 354.418 L2280.8 354.418 L2280.8 95.2176 L1986.78 95.2176  Z
  " fill="#ffffff" fill-rule="evenodd" fill-opacity="1"/>
<polyline clip-path="url(#clip320)" style="stroke:#000000; stroke-linecap:butt; stroke-linejoin:round; stroke-width:4; stroke-opacity:1; fill:none" points="
  1986.78,354.418 2280.8,354.418 2280.8,95.2176 1986.78,95.2176 1986.78,354.418 
  "/>
<circle clip-path="url(#clip320)" cx="2082.73" cy="147.058" r="23" fill="#009af9" fill-rule="evenodd" fill-opacity="1" stroke="#000000" stroke-opacity="1" stroke-width="5.12"/>
<path clip-path="url(#clip320)" d="M2192.52 166.745 Q2190.72 171.375 2189 172.787 Q2187.29 174.199 2184.42 174.199 L2181.02 174.199 L2181.02 170.634 L2183.52 170.634 Q2185.28 170.634 2186.25 169.8 Q2187.22 168.967 2188.4 165.865 L2189.16 163.921 L2178.68 138.412 L2183.19 138.412 L2191.29 158.689 L2199.4 138.412 L2203.91 138.412 L2192.52 166.745 Z" fill="#000000" fill-rule="evenodd" fill-opacity="1" /><path clip-path="url(#clip320)" d="M2211.2 160.402 L2218.84 160.402 L2218.84 134.037 L2210.53 135.703 L2210.53 131.444 L2218.79 129.778 L2223.47 129.778 L2223.47 160.402 L2231.11 160.402 L2231.11 164.338 L2211.2 164.338 L2211.2 160.402 Z" fill="#000000" fill-rule="evenodd" fill-opacity="1" /><circle clip-path="url(#clip320)" cx="2082.73" cy="198.898" r="23" fill="#e26f46" fill-rule="evenodd" fill-opacity="1" stroke="#000000" stroke-opacity="1" stroke-width="5.12"/>
<path clip-path="url(#clip320)" d="M2192.52 218.585 Q2190.72 223.215 2189 224.627 Q2187.29 226.039 2184.42 226.039 L2181.02 226.039 L2181.02 222.474 L2183.52 222.474 Q2185.28 222.474 2186.25 221.64 Q2187.22 220.807 2188.4 217.705 L2189.16 215.761 L2178.68 190.252 L2183.19 190.252 L2191.29 210.529 L2199.4 190.252 L2203.91 190.252 L2192.52 218.585 Z" fill="#000000" fill-rule="evenodd" fill-opacity="1" /><path clip-path="url(#clip320)" d="M2214.42 212.242 L2230.74 212.242 L2230.74 216.178 L2208.79 216.178 L2208.79 212.242 Q2211.46 209.488 2216.04 204.858 Q2220.65 200.205 2221.83 198.863 Q2224.07 196.34 2224.95 194.604 Q2225.85 192.844 2225.85 191.155 Q2225.85 188.4 2223.91 186.664 Q2221.99 184.928 2218.89 184.928 Q2216.69 184.928 2214.23 185.692 Q2211.8 186.455 2209.03 188.006 L2209.03 183.284 Q2211.85 182.15 2214.3 181.571 Q2216.76 180.993 2218.79 180.993 Q2224.16 180.993 2227.36 183.678 Q2230.55 186.363 2230.55 190.854 Q2230.55 192.983 2229.74 194.905 Q2228.96 196.803 2226.85 199.395 Q2226.27 200.067 2223.17 203.284 Q2220.07 206.479 2214.42 212.242 Z" fill="#000000" fill-rule="evenodd" fill-opacity="1" /><polyline clip-path="url(#clip320)" style="stroke:#3da44d; stroke-linecap:butt; stroke-linejoin:round; stroke-width:4; stroke-opacity:1; fill:none" points="
  2010.77,250.738 2154.69,250.738 
  "/>
<path clip-path="url(#clip320)" d="M2192.52 270.425 Q2190.72 275.055 2189 276.467 Q2187.29 277.879 2184.42 277.879 L2181.02 277.879 L2181.02 274.314 L2183.52 274.314 Q2185.28 274.314 2186.25 273.48 Q2187.22 272.647 2188.4 269.545 L2189.16 267.601 L2178.68 242.092 L2183.19 242.092 L2191.29 262.369 L2199.4 242.092 L2203.91 242.092 L2192.52 270.425 Z" fill="#000000" fill-rule="evenodd" fill-opacity="1" /><path clip-path="url(#clip320)" d="M2224.56 249.383 Q2227.91 250.101 2229.79 252.369 Q2231.69 254.638 2231.69 257.971 Q2231.69 263.087 2228.17 265.888 Q2224.65 268.689 2218.17 268.689 Q2215.99 268.689 2213.68 268.249 Q2211.39 267.832 2208.93 266.976 L2208.93 262.462 Q2210.88 263.596 2213.19 264.175 Q2215.51 264.754 2218.03 264.754 Q2222.43 264.754 2224.72 263.018 Q2227.03 261.281 2227.03 257.971 Q2227.03 254.916 2224.88 253.203 Q2222.75 251.467 2218.93 251.467 L2214.9 251.467 L2214.9 247.624 L2219.12 247.624 Q2222.57 247.624 2224.4 246.258 Q2226.22 244.87 2226.22 242.277 Q2226.22 239.615 2224.33 238.203 Q2222.45 236.768 2218.93 236.768 Q2217.01 236.768 2214.81 237.184 Q2212.61 237.601 2209.97 238.481 L2209.97 234.314 Q2212.64 233.573 2214.95 233.203 Q2217.29 232.833 2219.35 232.833 Q2224.67 232.833 2227.78 235.263 Q2230.88 237.67 2230.88 241.791 Q2230.88 244.661 2229.23 246.652 Q2227.59 248.62 2224.56 249.383 Z" fill="#000000" fill-rule="evenodd" fill-opacity="1" /><polyline clip-path="url(#clip320)" style="stroke:#c271d2; stroke-linecap:butt; stroke-linejoin:round; stroke-width:4; stroke-opacity:1; fill:none" points="
  2010.77,302.578 2154.69,302.578 
  "/>
<path clip-path="url(#clip320)" d="M2192.52 322.265 Q2190.72 326.895 2189 328.307 Q2187.29 329.719 2184.42 329.719 L2181.02 329.719 L2181.02 326.154 L2183.52 326.154 Q2185.28 326.154 2186.25 325.32 Q2187.22 324.487 2188.4 321.385 L2189.16 319.441 L2178.68 293.932 L2183.19 293.932 L2191.29 314.209 L2199.4 293.932 L2203.91 293.932 L2192.52 322.265 Z" fill="#000000" fill-rule="evenodd" fill-opacity="1" /><path clip-path="url(#clip320)" d="M2223.24 289.372 L2211.43 307.821 L2223.24 307.821 L2223.24 289.372 M2222.01 285.298 L2227.89 285.298 L2227.89 307.821 L2232.82 307.821 L2232.82 311.709 L2227.89 311.709 L2227.89 319.858 L2223.24 319.858 L2223.24 311.709 L2207.64 311.709 L2207.64 307.196 L2222.01 285.298 Z" fill="#000000" fill-rule="evenodd" fill-opacity="1" /></svg>
