<?xml version="1.0" encoding="utf-8"?>
<svg xmlns="http://www.w3.org/2000/svg" xmlns:xlink="http://www.w3.org/1999/xlink" width="600" height="400" viewBox="0 0 2400 1600">
<defs>
  <clipPath id="clip390">
    <rect x="0" y="0" width="2400" height="1600"/>
  </clipPath>
</defs>
<path clip-path="url(#clip390)" d="
M0 1600 L2400 1600 L2400 0 L0 0  Z
  " fill="#ffffff" fill-rule="evenodd" fill-opacity="1"/>
<defs>
  <clipPath id="clip391">
    <rect x="480" y="0" width="1681" height="1600"/>
  </clipPath>
</defs>
<path clip-path="url(#clip390)" d="
M193.936 1486.45 L2352.76 1486.45 L2352.76 123.472 L193.936 123.472  Z
  " fill="#ffffff" fill-rule="evenodd" fill-opacity="1"/>
<defs>
  <clipPath id="clip392">
    <rect x="193" y="123" width="2160" height="1364"/>
  </clipPath>
</defs>
<polyline clip-path="url(#clip392)" style="stroke:#000000; stroke-linecap:butt; stroke-linejoin:round; stroke-width:2; stroke-opacity:0.1; fill:none" points="
  255.035,1486.45 255.035,123.472 
  "/>
<polyline clip-path="url(#clip392)" style="stroke:#000000; stroke-linecap:butt; stroke-linejoin:round; stroke-width:2; stroke-opacity:0.1; fill:none" points="
  764.19,1486.45 764.19,123.472 
  "/>
<polyline clip-path="url(#clip392)" style="stroke:#000000; stroke-linecap:butt; stroke-linejoin:round; stroke-width:2; stroke-opacity:0.1; fill:none" points="
  1273.35,1486.45 1273.35,123.472 
  "/>
<polyline clip-path="url(#clip392)" style="stroke:#000000; stroke-linecap:butt; stroke-linejoin:round; stroke-width:2; stroke-opacity:0.1; fill:none" points="
  1782.5,1486.45 1782.5,123.472 
  "/>
<polyline clip-path="url(#clip392)" style="stroke:#000000; stroke-linecap:butt; stroke-linejoin:round; stroke-width:2; stroke-opacity:0.1; fill:none" points="
  2291.66,1486.45 2291.66,123.472 
  "/>
<polyline clip-path="url(#clip390)" style="stroke:#000000; stroke-linecap:butt; stroke-linejoin:round; stroke-width:4; stroke-opacity:1; fill:none" points="
  193.936,1486.45 2352.76,1486.45 
  "/>
<polyline clip-path="url(#clip390)" style="stroke:#000000; stroke-linecap:butt; stroke-linejoin:round; stroke-width:4; stroke-opacity:1; fill:none" points="
  255.035,1486.45 255.035,1467.55 
  "/>
<polyline clip-path="url(#clip390)" style="stroke:#000000; stroke-linecap:butt; stroke-linejoin:round; stroke-width:4; stroke-opacity:1; fill:none" points="
  764.19,1486.45 764.19,1467.55 
  "/>
<polyline clip-path="url(#clip390)" style="stroke:#000000; stroke-linecap:butt; stroke-linejoin:round; stroke-width:4; stroke-opacity:1; fill:none" points="
  1273.35,1486.45 1273.35,1467.55 
  "/>
<polyline clip-path="url(#clip390)" style="stroke:#000000; stroke-linecap:butt; stroke-linejoin:round; stroke-width:4; stroke-opacity:1; fill:none" points="
  1782.5,1486.45 1782.5,1467.55 
  "/>
<polyline clip-path="url(#clip390)" style="stroke:#000000; stroke-linecap:butt; stroke-linejoin:round; stroke-width:4; stroke-opacity:1; fill:none" points="
  2291.66,1486.45 2291.66,1467.55 
  "/>
<path clip-path="url(#clip390)" d="M201.563 1532.02 L231.239 1532.02 L231.239 1535.95 L201.563 1535.95 L201.563 1532.02 Z" fill="#000000" fill-rule="evenodd" fill-opacity="1" /><path clip-path="url(#clip390)" d="M242.141 1544.91 L249.78 1544.91 L249.78 1518.55 L241.47 1520.21 L241.47 1515.95 L249.734 1514.29 L254.41 1514.29 L254.41 1544.91 L262.049 1544.91 L262.049 1548.85 L242.141 1548.85 L242.141 1544.91 Z" fill="#000000" fill-rule="evenodd" fill-opacity="1" /><path clip-path="url(#clip390)" d="M271.493 1542.97 L276.377 1542.97 L276.377 1548.85 L271.493 1548.85 L271.493 1542.97 Z" fill="#000000" fill-rule="evenodd" fill-opacity="1" /><path clip-path="url(#clip390)" d="M296.562 1517.37 Q292.951 1517.37 291.122 1520.93 Q289.317 1524.47 289.317 1531.6 Q289.317 1538.71 291.122 1542.27 Q292.951 1545.82 296.562 1545.82 Q300.196 1545.82 302.002 1542.27 Q303.831 1538.71 303.831 1531.6 Q303.831 1524.47 302.002 1520.93 Q300.196 1517.37 296.562 1517.37 M296.562 1513.66 Q302.372 1513.66 305.428 1518.27 Q308.507 1522.85 308.507 1531.6 Q308.507 1540.33 305.428 1544.94 Q302.372 1549.52 296.562 1549.52 Q290.752 1549.52 287.673 1544.94 Q284.618 1540.33 284.618 1531.6 Q284.618 1522.85 287.673 1518.27 Q290.752 1513.66 296.562 1513.66 Z" fill="#000000" fill-rule="evenodd" fill-opacity="1" /><path clip-path="url(#clip390)" d="M711.216 1532.02 L740.892 1532.02 L740.892 1535.95 L711.216 1535.95 L711.216 1532.02 Z" fill="#000000" fill-rule="evenodd" fill-opacity="1" /><path clip-path="url(#clip390)" d="M760.984 1517.37 Q757.373 1517.37 755.545 1520.93 Q753.739 1524.47 753.739 1531.6 Q753.739 1538.71 755.545 1542.27 Q757.373 1545.82 760.984 1545.82 Q764.619 1545.82 766.424 1542.27 Q768.253 1538.71 768.253 1531.6 Q768.253 1524.47 766.424 1520.93 Q764.619 1517.37 760.984 1517.37 M760.984 1513.66 Q766.794 1513.66 769.85 1518.27 Q772.929 1522.85 772.929 1531.6 Q772.929 1540.33 769.85 1544.94 Q766.794 1549.52 760.984 1549.52 Q755.174 1549.52 752.095 1544.94 Q749.04 1540.33 749.04 1531.6 Q749.04 1522.85 752.095 1518.27 Q755.174 1513.66 760.984 1513.66 Z" fill="#000000" fill-rule="evenodd" fill-opacity="1" /><path clip-path="url(#clip390)" d="M781.146 1542.97 L786.03 1542.97 L786.03 1548.85 L781.146 1548.85 L781.146 1542.97 Z" fill="#000000" fill-rule="evenodd" fill-opacity="1" /><path clip-path="url(#clip390)" d="M796.262 1514.29 L814.618 1514.29 L814.618 1518.22 L800.544 1518.22 L800.544 1526.7 Q801.563 1526.35 802.581 1526.19 Q803.6 1526 804.618 1526 Q810.405 1526 813.785 1529.17 Q817.165 1532.34 817.165 1537.76 Q817.165 1543.34 813.692 1546.44 Q810.22 1549.52 803.901 1549.52 Q801.725 1549.52 799.456 1549.15 Q797.211 1548.78 794.804 1548.04 L794.804 1543.34 Q796.887 1544.47 799.109 1545.03 Q801.331 1545.58 803.808 1545.58 Q807.813 1545.58 810.151 1543.48 Q812.489 1541.37 812.489 1537.76 Q812.489 1534.15 810.151 1532.04 Q807.813 1529.94 803.808 1529.94 Q801.933 1529.94 800.058 1530.35 Q798.206 1530.77 796.262 1531.65 L796.262 1514.29 Z" fill="#000000" fill-rule="evenodd" fill-opacity="1" /><path clip-path="url(#clip390)" d="M1250.73 1517.37 Q1247.12 1517.37 1245.29 1520.93 Q1243.49 1524.47 1243.49 1531.6 Q1243.49 1538.71 1245.29 1542.27 Q1247.12 1545.82 1250.73 1545.82 Q1254.36 1545.82 1256.17 1542.27 Q1258 1538.71 1258 1531.6 Q1258 1524.47 1256.17 1520.93 Q1254.36 1517.37 1250.73 1517.37 M1250.73 1513.66 Q1256.54 1513.66 1259.6 1518.27 Q1262.67 1522.85 1262.67 1531.6 Q1262.67 1540.33 1259.6 1544.94 Q1256.54 1549.52 1250.73 1549.52 Q1244.92 1549.52 1241.84 1544.94 Q1238.79 1540.33 1238.79 1531.6 Q1238.79 1522.85 1241.84 1518.27 Q1244.92 1513.66 1250.73 1513.66 Z" fill="#000000" fill-rule="evenodd" fill-opacity="1" /><path clip-path="url(#clip390)" d="M1270.89 1542.97 L1275.78 1542.97 L1275.78 1548.85 L1270.89 1548.85 L1270.89 1542.97 Z" fill="#000000" fill-rule="evenodd" fill-opacity="1" /><path clip-path="url(#clip390)" d="M1295.96 1517.37 Q1292.35 1517.37 1290.52 1520.93 Q1288.72 1524.47 1288.72 1531.6 Q1288.72 1538.71 1290.52 1542.27 Q1292.35 1545.82 1295.96 1545.82 Q1299.6 1545.82 1301.4 1542.27 Q1303.23 1538.71 1303.23 1531.6 Q1303.23 1524.47 1301.4 1520.93 Q1299.6 1517.37 1295.96 1517.37 M1295.96 1513.66 Q1301.77 1513.66 1304.83 1518.27 Q1307.91 1522.85 1307.91 1531.6 Q1307.91 1540.33 1304.83 1544.94 Q1301.77 1549.52 1295.96 1549.52 Q1290.15 1549.52 1287.07 1544.94 Q1284.02 1540.33 1284.02 1531.6 Q1284.02 1522.85 1287.07 1518.27 Q1290.15 1513.66 1295.96 1513.66 Z" fill="#000000" fill-rule="evenodd" fill-opacity="1" /><path clip-path="url(#clip390)" d="M1760.38 1517.37 Q1756.77 1517.37 1754.94 1520.93 Q1753.14 1524.47 1753.14 1531.6 Q1753.14 1538.71 1754.94 1542.27 Q1756.77 1545.82 1760.38 1545.82 Q1764.02 1545.82 1765.82 1542.27 Q1767.65 1538.71 1767.65 1531.6 Q1767.65 1524.47 1765.82 1520.93 Q1764.02 1517.37 1760.38 1517.37 M1760.38 1513.66 Q1766.19 1513.66 1769.25 1518.27 Q1772.33 1522.85 1772.33 1531.6 Q1772.33 1540.33 1769.25 1544.94 Q1766.19 1549.52 1760.38 1549.52 Q1754.57 1549.52 1751.49 1544.94 Q1748.44 1540.33 1748.44 1531.6 Q1748.44 1522.85 1751.49 1518.27 Q1754.57 1513.66 1760.38 1513.66 Z" fill="#000000" fill-rule="evenodd" fill-opacity="1" /><path clip-path="url(#clip390)" d="M1780.55 1542.97 L1785.43 1542.97 L1785.43 1548.85 L1780.55 1548.85 L1780.55 1542.97 Z" fill="#000000" fill-rule="evenodd" fill-opacity="1" /><path clip-path="url(#clip390)" d="M1795.66 1514.29 L1814.02 1514.29 L1814.02 1518.22 L1799.94 1518.22 L1799.94 1526.7 Q1800.96 1526.35 1801.98 1526.19 Q1803 1526 1804.02 1526 Q1809.8 1526 1813.18 1529.17 Q1816.56 1532.34 1816.56 1537.76 Q1816.56 1543.34 1813.09 1546.44 Q1809.62 1549.52 1803.3 1549.52 Q1801.12 1549.52 1798.86 1549.15 Q1796.61 1548.78 1794.2 1548.04 L1794.2 1543.34 Q1796.29 1544.47 1798.51 1545.03 Q1800.73 1545.58 1803.21 1545.58 Q1807.21 1545.58 1809.55 1543.48 Q1811.89 1541.37 1811.89 1537.76 Q1811.89 1534.15 1809.55 1532.04 Q1807.21 1529.94 1803.21 1529.94 Q1801.33 1529.94 1799.46 1530.35 Q1797.61 1530.77 1795.66 1531.65 L1795.66 1514.29 Z" fill="#000000" fill-rule="evenodd" fill-opacity="1" /><path clip-path="url(#clip390)" d="M2258.81 1544.91 L2266.45 1544.91 L2266.45 1518.55 L2258.14 1520.21 L2258.14 1515.95 L2266.4 1514.29 L2271.08 1514.29 L2271.08 1544.91 L2278.72 1544.91 L2278.72 1548.85 L2258.81 1548.85 L2258.81 1544.91 Z" fill="#000000" fill-rule="evenodd" fill-opacity="1" /><path clip-path="url(#clip390)" d="M2288.16 1542.97 L2293.05 1542.97 L2293.05 1548.85 L2288.16 1548.85 L2288.16 1542.97 Z" fill="#000000" fill-rule="evenodd" fill-opacity="1" /><path clip-path="url(#clip390)" d="M2313.23 1517.37 Q2309.62 1517.37 2307.79 1520.93 Q2305.99 1524.47 2305.99 1531.6 Q2305.99 1538.71 2307.79 1542.27 Q2309.62 1545.82 2313.23 1545.82 Q2316.87 1545.82 2318.67 1542.27 Q2320.5 1538.71 2320.5 1531.6 Q2320.5 1524.47 2318.67 1520.93 Q2316.87 1517.37 2313.23 1517.37 M2313.23 1513.66 Q2319.04 1513.66 2322.1 1518.27 Q2325.18 1522.85 2325.18 1531.6 Q2325.18 1540.33 2322.1 1544.94 Q2319.04 1549.52 2313.23 1549.52 Q2307.42 1549.52 2304.34 1544.94 Q2301.29 1540.33 2301.29 1531.6 Q2301.29 1522.85 2304.34 1518.27 Q2307.42 1513.66 2313.23 1513.66 Z" fill="#000000" fill-rule="evenodd" fill-opacity="1" /><polyline clip-path="url(#clip392)" style="stroke:#000000; stroke-linecap:butt; stroke-linejoin:round; stroke-width:2; stroke-opacity:0.1; fill:none" points="
  193.936,1447.48 2352.76,1447.48 
  "/>
<polyline clip-path="url(#clip392)" style="stroke:#000000; stroke-linecap:butt; stroke-linejoin:round; stroke-width:2; stroke-opacity:0.1; fill:none" points="
  193.936,1126.22 2352.76,1126.22 
  "/>
<polyline clip-path="url(#clip392)" style="stroke:#000000; stroke-linecap:butt; stroke-linejoin:round; stroke-width:2; stroke-opacity:0.1; fill:none" points="
  193.936,804.96 2352.76,804.96 
  "/>
<polyline clip-path="url(#clip392)" style="stroke:#000000; stroke-linecap:butt; stroke-linejoin:round; stroke-width:2; stroke-opacity:0.1; fill:none" points="
  193.936,483.701 2352.76,483.701 
  "/>
<polyline clip-path="url(#clip392)" style="stroke:#000000; stroke-linecap:butt; stroke-linejoin:round; stroke-width:2; stroke-opacity:0.1; fill:none" points="
  193.936,162.441 2352.76,162.441 
  "/>
<polyline clip-path="url(#clip390)" style="stroke:#000000; stroke-linecap:butt; stroke-linejoin:round; stroke-width:4; stroke-opacity:1; fill:none" points="
  193.936,1486.45 193.936,123.472 
  "/>
<polyline clip-path="url(#clip390)" style="stroke:#000000; stroke-linecap:butt; stroke-linejoin:round; stroke-width:4; stroke-opacity:1; fill:none" points="
  193.936,1447.48 212.834,1447.48 
  "/>
<polyline clip-path="url(#clip390)" style="stroke:#000000; stroke-linecap:butt; stroke-linejoin:round; stroke-width:4; stroke-opacity:1; fill:none" points="
  193.936,1126.22 212.834,1126.22 
  "/>
<polyline clip-path="url(#clip390)" style="stroke:#000000; stroke-linecap:butt; stroke-linejoin:round; stroke-width:4; stroke-opacity:1; fill:none" points="
  193.936,804.96 212.834,804.96 
  "/>
<polyline clip-path="url(#clip390)" style="stroke:#000000; stroke-linecap:butt; stroke-linejoin:round; stroke-width:4; stroke-opacity:1; fill:none" points="
  193.936,483.701 212.834,483.701 
  "/>
<polyline clip-path="url(#clip390)" style="stroke:#000000; stroke-linecap:butt; stroke-linejoin:round; stroke-width:4; stroke-opacity:1; fill:none" points="
  193.936,162.441 212.834,162.441 
  "/>
<path clip-path="url(#clip390)" d="M50.9921 1447.93 L80.6679 1447.93 L80.6679 1451.87 L50.9921 1451.87 L50.9921 1447.93 Z" fill="#000000" fill-rule="evenodd" fill-opacity="1" /><path clip-path="url(#clip390)" d="M91.5706 1460.82 L99.2095 1460.82 L99.2095 1434.46 L90.8993 1436.12 L90.8993 1431.87 L99.1632 1430.2 L103.839 1430.2 L103.839 1460.82 L111.478 1460.82 L111.478 1464.76 L91.5706 1464.76 L91.5706 1460.82 Z" fill="#000000" fill-rule="evenodd" fill-opacity="1" /><path clip-path="url(#clip390)" d="M120.922 1458.88 L125.807 1458.88 L125.807 1464.76 L120.922 1464.76 L120.922 1458.88 Z" fill="#000000" fill-rule="evenodd" fill-opacity="1" /><path clip-path="url(#clip390)" d="M145.992 1433.28 Q142.381 1433.28 140.552 1436.84 Q138.746 1440.38 138.746 1447.51 Q138.746 1454.62 140.552 1458.18 Q142.381 1461.73 145.992 1461.73 Q149.626 1461.73 151.431 1458.18 Q153.26 1454.62 153.26 1447.51 Q153.26 1440.38 151.431 1436.84 Q149.626 1433.28 145.992 1433.28 M145.992 1429.57 Q151.802 1429.57 154.857 1434.18 Q157.936 1438.76 157.936 1447.51 Q157.936 1456.24 154.857 1460.85 Q151.802 1465.43 145.992 1465.43 Q140.181 1465.43 137.103 1460.85 Q134.047 1456.24 134.047 1447.51 Q134.047 1438.76 137.103 1434.18 Q140.181 1429.57 145.992 1429.57 Z" fill="#000000" fill-rule="evenodd" fill-opacity="1" /><path clip-path="url(#clip390)" d="M51.9875 1126.67 L81.6633 1126.67 L81.6633 1130.61 L51.9875 1130.61 L51.9875 1126.67 Z" fill="#000000" fill-rule="evenodd" fill-opacity="1" /><path clip-path="url(#clip390)" d="M101.756 1112.02 Q98.1447 1112.02 96.316 1115.58 Q94.5104 1119.12 94.5104 1126.25 Q94.5104 1133.36 96.316 1136.93 Q98.1447 1140.47 101.756 1140.47 Q105.39 1140.47 107.196 1136.93 Q109.024 1133.36 109.024 1126.25 Q109.024 1119.12 107.196 1115.58 Q105.39 1112.02 101.756 1112.02 M101.756 1108.31 Q107.566 1108.31 110.621 1112.92 Q113.7 1117.5 113.7 1126.25 Q113.7 1134.98 110.621 1139.59 Q107.566 1144.17 101.756 1144.17 Q95.9456 1144.17 92.8669 1139.59 Q89.8114 1134.98 89.8114 1126.25 Q89.8114 1117.5 92.8669 1112.92 Q95.9456 1108.31 101.756 1108.31 Z" fill="#000000" fill-rule="evenodd" fill-opacity="1" /><path clip-path="url(#clip390)" d="M121.918 1137.62 L126.802 1137.62 L126.802 1143.5 L121.918 1143.5 L121.918 1137.62 Z" fill="#000000" fill-rule="evenodd" fill-opacity="1" /><path clip-path="url(#clip390)" d="M137.033 1108.94 L155.39 1108.94 L155.39 1112.87 L141.316 1112.87 L141.316 1121.35 Q142.334 1121 143.353 1120.84 Q144.371 1120.65 145.39 1120.65 Q151.177 1120.65 154.556 1123.82 Q157.936 1126.99 157.936 1132.41 Q157.936 1137.99 154.464 1141.09 Q150.992 1144.17 144.672 1144.17 Q142.496 1144.17 140.228 1143.8 Q137.982 1143.43 135.575 1142.69 L135.575 1137.99 Q137.658 1139.12 139.881 1139.68 Q142.103 1140.24 144.58 1140.24 Q148.584 1140.24 150.922 1138.13 Q153.26 1136.02 153.26 1132.41 Q153.26 1128.8 150.922 1126.69 Q148.584 1124.59 144.58 1124.59 Q142.705 1124.59 140.83 1125 Q138.978 1125.42 137.033 1126.3 L137.033 1108.94 Z" fill="#000000" fill-rule="evenodd" fill-opacity="1" /><path clip-path="url(#clip390)" d="M100.76 790.759 Q97.1493 790.759 95.3206 794.323 Q93.515 797.865 93.515 804.995 Q93.515 812.101 95.3206 815.666 Q97.1493 819.208 100.76 819.208 Q104.395 819.208 106.2 815.666 Q108.029 812.101 108.029 804.995 Q108.029 797.865 106.2 794.323 Q104.395 790.759 100.76 790.759 M100.76 787.055 Q106.571 787.055 109.626 791.661 Q112.705 796.245 112.705 804.995 Q112.705 813.722 109.626 818.328 Q106.571 822.911 100.76 822.911 Q94.9502 822.911 91.8715 818.328 Q88.816 813.722 88.816 804.995 Q88.816 796.245 91.8715 791.661 Q94.9502 787.055 100.76 787.055 Z" fill="#000000" fill-rule="evenodd" fill-opacity="1" /><path clip-path="url(#clip390)" d="M120.922 816.36 L125.807 816.36 L125.807 822.24 L120.922 822.24 L120.922 816.36 Z" fill="#000000" fill-rule="evenodd" fill-opacity="1" /><path clip-path="url(#clip390)" d="M145.992 790.759 Q142.381 790.759 140.552 794.323 Q138.746 797.865 138.746 804.995 Q138.746 812.101 140.552 815.666 Q142.381 819.208 145.992 819.208 Q149.626 819.208 151.431 815.666 Q153.26 812.101 153.26 804.995 Q153.26 797.865 151.431 794.323 Q149.626 790.759 145.992 790.759 M145.992 787.055 Q151.802 787.055 154.857 791.661 Q157.936 796.245 157.936 804.995 Q157.936 813.722 154.857 818.328 Q151.802 822.911 145.992 822.911 Q140.181 822.911 137.103 818.328 Q134.047 813.722 134.047 804.995 Q134.047 796.245 137.103 791.661 Q140.181 787.055 145.992 787.055 Z" fill="#000000" fill-rule="evenodd" fill-opacity="1" /><path clip-path="url(#clip390)" d="M101.756 469.499 Q98.1447 469.499 96.316 473.064 Q94.5104 476.606 94.5104 483.735 Q94.5104 490.842 96.316 494.407 Q98.1447 497.948 101.756 497.948 Q105.39 497.948 107.196 494.407 Q109.024 490.842 109.024 483.735 Q109.024 476.606 107.196 473.064 Q105.39 469.499 101.756 469.499 M101.756 465.796 Q107.566 465.796 110.621 470.402 Q113.7 474.985 113.7 483.735 Q113.7 492.462 110.621 497.069 Q107.566 501.652 101.756 501.652 Q95.9456 501.652 92.8669 497.069 Q89.8114 492.462 89.8114 483.735 Q89.8114 474.985 92.8669 470.402 Q95.9456 465.796 101.756 465.796 Z" fill="#000000" fill-rule="evenodd" fill-opacity="1" /><path clip-path="url(#clip390)" d="M121.918 495.101 L126.802 495.101 L126.802 500.981 L121.918 500.981 L121.918 495.101 Z" fill="#000000" fill-rule="evenodd" fill-opacity="1" /><path clip-path="url(#clip390)" d="M137.033 466.421 L155.39 466.421 L155.39 470.356 L141.316 470.356 L141.316 478.828 Q142.334 478.481 143.353 478.319 Q144.371 478.134 145.39 478.134 Q151.177 478.134 154.556 481.305 Q157.936 484.476 157.936 489.893 Q157.936 495.471 154.464 498.573 Q150.992 501.652 144.672 501.652 Q142.496 501.652 140.228 501.282 Q137.982 500.911 135.575 500.171 L135.575 495.471 Q137.658 496.606 139.881 497.161 Q142.103 497.717 144.58 497.717 Q148.584 497.717 150.922 495.61 Q153.26 493.504 153.26 489.893 Q153.26 486.282 150.922 484.175 Q148.584 482.069 144.58 482.069 Q142.705 482.069 140.83 482.485 Q138.978 482.902 137.033 483.782 L137.033 466.421 Z" fill="#000000" fill-rule="evenodd" fill-opacity="1" /><path clip-path="url(#clip390)" d="M91.5706 175.786 L99.2095 175.786 L99.2095 149.421 L90.8993 151.087 L90.8993 146.828 L99.1632 145.161 L103.839 145.161 L103.839 175.786 L111.478 175.786 L111.478 179.721 L91.5706 179.721 L91.5706 175.786 Z" fill="#000000" fill-rule="evenodd" fill-opacity="1" /><path clip-path="url(#clip390)" d="M120.922 173.842 L125.807 173.842 L125.807 179.721 L120.922 179.721 L120.922 173.842 Z" fill="#000000" fill-rule="evenodd" fill-opacity="1" /><path clip-path="url(#clip390)" d="M145.992 148.24 Q142.381 148.24 140.552 151.805 Q138.746 155.346 138.746 162.476 Q138.746 169.583 140.552 173.147 Q142.381 176.689 145.992 176.689 Q149.626 176.689 151.431 173.147 Q153.26 169.583 153.26 162.476 Q153.26 155.346 151.431 151.805 Q149.626 148.24 145.992 148.24 M145.992 144.536 Q151.802 144.536 154.857 149.143 Q157.936 153.726 157.936 162.476 Q157.936 171.203 154.857 175.809 Q151.802 180.393 145.992 180.393 Q140.181 180.393 137.103 175.809 Q134.047 171.203 134.047 162.476 Q134.047 153.726 137.103 149.143 Q140.181 144.536 145.992 144.536 Z" fill="#000000" fill-rule="evenodd" fill-opacity="1" /><path clip-path="url(#clip390)" d="M495.066 63.9476 L495.066 47.7034 L481.698 47.7034 L481.698 40.9789 L503.168 40.9789 L503.168 66.9452 Q498.428 70.3075 492.716 72.0494 Q487.005 73.7508 480.523 73.7508 Q466.345 73.7508 458.324 65.4869 Q450.344 57.1826 450.344 42.3968 Q450.344 27.5705 458.324 19.3066 Q466.345 11.0023 480.523 11.0023 Q486.438 11.0023 491.744 12.4606 Q497.091 13.9189 501.588 16.7545 L501.588 25.464 Q497.051 21.6156 491.947 19.6712 Q486.843 17.7268 481.212 17.7268 Q470.112 17.7268 464.522 23.9246 Q458.972 30.1225 458.972 42.3968 Q458.972 54.6305 464.522 60.8284 Q470.112 67.0263 481.212 67.0263 Q485.546 67.0263 488.949 66.2971 Q492.352 65.5274 495.066 63.9476 Z" fill="#000000" fill-rule="evenodd" fill-opacity="1" /><path clip-path="url(#clip390)" d="M538.411 49.7694 Q529.377 49.7694 525.893 51.8354 Q522.41 53.9013 522.41 58.8839 Q522.41 62.8538 525.002 65.2034 Q527.635 67.5124 532.132 67.5124 Q538.33 67.5124 542.056 63.1374 Q545.824 58.7219 545.824 51.4303 L545.824 49.7694 L538.411 49.7694 M553.277 46.6907 L553.277 72.576 L545.824 72.576 L545.824 65.6895 Q543.272 69.8214 539.464 71.8063 Q535.656 73.7508 530.147 73.7508 Q523.179 73.7508 519.047 69.8619 Q514.956 65.9325 514.956 59.3701 Q514.956 51.7138 520.06 47.825 Q525.205 43.9361 535.372 43.9361 L545.824 43.9361 L545.824 43.2069 Q545.824 38.0623 542.421 35.2672 Q539.059 32.4315 532.942 32.4315 Q529.053 32.4315 525.367 33.3632 Q521.68 34.295 518.278 36.1584 L518.278 29.2718 Q522.369 27.692 526.217 26.9223 Q530.066 26.1121 533.712 26.1121 Q543.555 26.1121 548.416 31.2163 Q553.277 36.3204 553.277 46.6907 Z" fill="#000000" fill-rule="evenodd" fill-opacity="1" /><path clip-path="url(#clip390)" d="M568.63 9.54393 L576.084 9.54393 L576.084 72.576 L568.63 72.576 L568.63 9.54393 Z" fill="#000000" fill-rule="evenodd" fill-opacity="1" /><path clip-path="url(#clip390)" d="M630.488 48.0275 L630.488 51.6733 L596.217 51.6733 Q596.703 59.3701 600.835 63.421 Q605.008 67.4314 612.421 67.4314 Q616.715 67.4314 620.725 66.3781 Q624.776 65.3249 628.746 63.2184 L628.746 70.267 Q624.735 71.9684 620.522 72.8596 Q616.31 73.7508 611.975 73.7508 Q601.119 73.7508 594.759 67.4314 Q588.439 61.1119 588.439 50.3365 Q588.439 39.1965 594.435 32.6746 Q600.471 26.1121 610.679 26.1121 Q619.834 26.1121 625.141 32.0264 Q630.488 37.9003 630.488 48.0275 M623.034 45.84 Q622.953 39.7232 619.591 36.0774 Q616.269 32.4315 610.76 32.4315 Q604.521 32.4315 600.754 35.9558 Q597.027 39.4801 596.46 45.8805 L623.034 45.84 Z" fill="#000000" fill-rule="evenodd" fill-opacity="1" /><path clip-path="url(#clip390)" d="M669.012 34.1734 Q667.756 33.4443 666.257 33.1202 Q664.799 32.7556 663.016 32.7556 Q656.697 32.7556 653.294 36.8875 Q649.932 40.9789 649.932 48.6757 L649.932 72.576 L642.438 72.576 L642.438 27.2059 L649.932 27.2059 L649.932 34.2544 Q652.282 30.1225 656.049 28.1376 Q659.816 26.1121 665.204 26.1121 Q665.974 26.1121 666.905 26.2337 Q667.837 26.3147 668.971 26.5172 L669.012 34.1734 Z" fill="#000000" fill-rule="evenodd" fill-opacity="1" /><path clip-path="url(#clip390)" d="M676.546 9.54393 L684.041 9.54393 L684.041 46.7717 L706.28 27.2059 L715.8 27.2059 L691.737 48.4326 L716.812 72.576 L707.09 72.576 L684.041 50.4176 L684.041 72.576 L676.546 72.576 L676.546 9.54393 Z" fill="#000000" fill-rule="evenodd" fill-opacity="1" /><path clip-path="url(#clip390)" d="M724.874 27.2059 L732.327 27.2059 L732.327 72.576 L724.874 72.576 L724.874 27.2059 M724.874 9.54393 L732.327 9.54393 L732.327 18.9825 L724.874 18.9825 L724.874 9.54393 Z" fill="#000000" fill-rule="evenodd" fill-opacity="1" /><path clip-path="url(#clip390)" d="M785.637 45.1919 L785.637 72.576 L778.184 72.576 L778.184 45.4349 Q778.184 38.994 775.672 35.7938 Q773.161 32.5936 768.137 32.5936 Q762.102 32.5936 758.618 36.4419 Q755.134 40.2903 755.134 46.9338 L755.134 72.576 L747.64 72.576 L747.64 27.2059 L755.134 27.2059 L755.134 34.2544 Q757.808 30.163 761.413 28.1376 Q765.059 26.1121 769.798 26.1121 Q777.617 26.1121 781.627 30.9732 Q785.637 35.7938 785.637 45.1919 Z" fill="#000000" fill-rule="evenodd" fill-opacity="1" /><path clip-path="url(#clip390)" d="M865.683 48.0275 L865.683 51.6733 L831.413 51.6733 Q831.899 59.3701 836.031 63.421 Q840.203 67.4314 847.616 67.4314 Q851.91 67.4314 855.921 66.3781 Q859.971 65.3249 863.941 63.2184 L863.941 70.267 Q859.931 71.9684 855.718 72.8596 Q851.505 73.7508 847.171 73.7508 Q836.314 73.7508 829.954 67.4314 Q823.635 61.1119 823.635 50.3365 Q823.635 39.1965 829.63 32.6746 Q835.666 26.1121 845.874 26.1121 Q855.029 26.1121 860.336 32.0264 Q865.683 37.9003 865.683 48.0275 M858.23 45.84 Q858.149 39.7232 854.786 36.0774 Q851.465 32.4315 845.955 32.4315 Q839.717 32.4315 835.95 35.9558 Q832.223 39.4801 831.656 45.8805 L858.23 45.84 Z" fill="#000000" fill-rule="evenodd" fill-opacity="1" /><path clip-path="url(#clip390)" d="M904.207 34.1734 Q902.952 33.4443 901.453 33.1202 Q899.994 32.7556 898.212 32.7556 Q891.893 32.7556 888.49 36.8875 Q885.128 40.9789 885.128 48.6757 L885.128 72.576 L877.633 72.576 L877.633 27.2059 L885.128 27.2059 L885.128 34.2544 Q887.477 30.1225 891.244 28.1376 Q895.012 26.1121 900.399 26.1121 Q901.169 26.1121 902.101 26.2337 Q903.033 26.3147 904.167 26.5172 L904.207 34.1734 Z" fill="#000000" fill-rule="evenodd" fill-opacity="1" /><path clip-path="url(#clip390)" d="M936.858 34.1734 Q935.602 33.4443 934.103 33.1202 Q932.645 32.7556 930.862 32.7556 Q924.543 32.7556 921.14 36.8875 Q917.778 40.9789 917.778 48.6757 L917.778 72.576 L910.284 72.576 L910.284 27.2059 L917.778 27.2059 L917.778 34.2544 Q920.127 30.1225 923.895 28.1376 Q927.662 26.1121 933.05 26.1121 Q933.819 26.1121 934.751 26.2337 Q935.683 26.3147 936.817 26.5172 L936.858 34.1734 Z" fill="#000000" fill-rule="evenodd" fill-opacity="1" /><path clip-path="url(#clip390)" d="M960.434 32.4315 Q954.439 32.4315 950.955 37.1306 Q947.471 41.7891 947.471 49.9314 Q947.471 58.0738 950.914 62.7728 Q954.398 67.4314 960.434 67.4314 Q966.389 67.4314 969.872 62.7323 Q973.356 58.0333 973.356 49.9314 Q973.356 41.8701 969.872 37.1711 Q966.389 32.4315 960.434 32.4315 M960.434 26.1121 Q970.156 26.1121 975.706 32.4315 Q981.256 38.7509 981.256 49.9314 Q981.256 61.0714 975.706 67.4314 Q970.156 73.7508 960.434 73.7508 Q950.671 73.7508 945.121 67.4314 Q939.612 61.0714 939.612 49.9314 Q939.612 38.7509 945.121 32.4315 Q950.671 26.1121 960.434 26.1121 Z" fill="#000000" fill-rule="evenodd" fill-opacity="1" /><path clip-path="url(#clip390)" d="M1019.9 34.1734 Q1018.65 33.4443 1017.15 33.1202 Q1015.69 32.7556 1013.91 32.7556 Q1007.59 32.7556 1004.18 36.8875 Q1000.82 40.9789 1000.82 48.6757 L1000.82 72.576 L993.327 72.576 L993.327 27.2059 L1000.82 27.2059 L1000.82 34.2544 Q1003.17 30.1225 1006.94 28.1376 Q1010.71 26.1121 1016.09 26.1121 Q1016.86 26.1121 1017.79 26.2337 Q1018.73 26.3147 1019.86 26.5172 L1019.9 34.1734 Z" fill="#000000" fill-rule="evenodd" fill-opacity="1" /><path clip-path="url(#clip390)" d="M1028.16 62.2867 L1036.71 62.2867 L1036.71 72.576 L1028.16 72.576 L1028.16 62.2867 M1028.16 29.6769 L1036.71 29.6769 L1036.71 39.9662 L1028.16 39.9662 L1028.16 29.6769 Z" fill="#000000" fill-rule="evenodd" fill-opacity="1" /><path clip-path="url(#clip390)" d="M1099.14 17.4837 Q1092.82 17.4837 1089.62 23.7221 Q1086.46 29.92 1086.46 42.3968 Q1086.46 54.833 1089.62 61.0714 Q1092.82 67.2693 1099.14 67.2693 Q1105.5 67.2693 1108.66 61.0714 Q1111.86 54.833 1111.86 42.3968 Q1111.86 29.92 1108.66 23.7221 Q1105.5 17.4837 1099.14 17.4837 M1099.14 11.0023 Q1109.3 11.0023 1114.65 19.0636 Q1120.04 27.0843 1120.04 42.3968 Q1120.04 57.6687 1114.65 65.73 Q1109.3 73.7508 1099.14 73.7508 Q1088.97 73.7508 1083.58 65.73 Q1078.23 57.6687 1078.23 42.3968 Q1078.23 27.0843 1083.58 19.0636 Q1088.97 11.0023 1099.14 11.0023 Z" fill="#000000" fill-rule="evenodd" fill-opacity="1" /><path clip-path="url(#clip390)" d="M1134.42 62.2867 L1142.97 62.2867 L1142.97 72.576 L1134.42 72.576 L1134.42 62.2867 Z" fill="#000000" fill-rule="evenodd" fill-opacity="1" /><path clip-path="url(#clip390)" d="M1178.29 17.4837 Q1171.97 17.4837 1168.77 23.7221 Q1165.61 29.92 1165.61 42.3968 Q1165.61 54.833 1168.77 61.0714 Q1171.97 67.2693 1178.29 67.2693 Q1184.65 67.2693 1187.81 61.0714 Q1191.01 54.833 1191.01 42.3968 Q1191.01 29.92 1187.81 23.7221 Q1184.65 17.4837 1178.29 17.4837 M1178.29 11.0023 Q1188.46 11.0023 1193.81 19.0636 Q1199.19 27.0843 1199.19 42.3968 Q1199.19 57.6687 1193.81 65.73 Q1188.46 73.7508 1178.29 73.7508 Q1168.12 73.7508 1162.74 65.73 Q1157.39 57.6687 1157.39 42.3968 Q1157.39 27.0843 1162.74 19.0636 Q1168.12 11.0023 1178.29 11.0023 Z" fill="#000000" fill-rule="evenodd" fill-opacity="1" /><path clip-path="url(#clip390)" d="M1231.07 17.4837 Q1224.76 17.4837 1221.56 23.7221 Q1218.4 29.92 1218.4 42.3968 Q1218.4 54.833 1221.56 61.0714 Q1224.76 67.2693 1231.07 67.2693 Q1237.43 67.2693 1240.59 61.0714 Q1243.79 54.833 1243.79 42.3968 Q1243.79 29.92 1240.59 23.7221 Q1237.43 17.4837 1231.07 17.4837 M1231.07 11.0023 Q1241.24 11.0023 1246.59 19.0636 Q1251.98 27.0843 1251.98 42.3968 Q1251.98 57.6687 1246.59 65.73 Q1241.24 73.7508 1231.07 73.7508 Q1220.91 73.7508 1215.52 65.73 Q1210.17 57.6687 1210.17 42.3968 Q1210.17 27.0843 1215.52 19.0636 Q1220.91 11.0023 1231.07 11.0023 Z" fill="#000000" fill-rule="evenodd" fill-opacity="1" /><path clip-path="url(#clip390)" d="M1291.15 39.9662 Q1297.02 41.222 1300.3 45.1919 Q1303.63 49.1618 1303.63 54.9951 Q1303.63 63.9476 1297.47 68.8492 Q1291.31 73.7508 1279.97 73.7508 Q1276.16 73.7508 1272.11 72.9811 Q1268.1 72.2519 1263.81 70.7531 L1263.81 62.8538 Q1267.21 64.8388 1271.26 65.8515 Q1275.31 66.8642 1279.73 66.8642 Q1287.42 66.8642 1291.43 63.826 Q1295.48 60.7879 1295.48 54.9951 Q1295.48 49.6479 1291.72 46.6502 Q1287.99 43.612 1281.31 43.612 L1274.26 43.612 L1274.26 36.8875 L1281.63 36.8875 Q1287.67 36.8875 1290.87 34.4975 Q1294.07 32.067 1294.07 27.5299 Q1294.07 22.8714 1290.74 20.4004 Q1287.46 17.8888 1281.31 17.8888 Q1277.94 17.8888 1274.1 18.618 Q1270.25 19.3471 1265.63 20.8865 L1265.63 13.5948 Q1270.29 12.2985 1274.34 11.6504 Q1278.43 11.0023 1282.04 11.0023 Q1291.35 11.0023 1296.78 15.2557 Q1302.21 19.4686 1302.21 26.6793 Q1302.21 31.7024 1299.33 35.1862 Q1296.46 38.6294 1291.15 39.9662 Z" fill="#000000" fill-rule="evenodd" fill-opacity="1" /><path clip-path="url(#clip390)" d="M1343.93 39.9662 Q1349.81 41.222 1353.09 45.1919 Q1356.41 49.1618 1356.41 54.9951 Q1356.41 63.9476 1350.25 68.8492 Q1344.09 73.7508 1332.75 73.7508 Q1328.94 73.7508 1324.89 72.9811 Q1320.88 72.2519 1316.59 70.7531 L1316.59 62.8538 Q1319.99 64.8388 1324.04 65.8515 Q1328.09 66.8642 1332.51 66.8642 Q1340.21 66.8642 1344.22 63.826 Q1348.27 60.7879 1348.27 54.9951 Q1348.27 49.6479 1344.5 46.6502 Q1340.77 43.612 1334.09 43.612 L1327.04 43.612 L1327.04 36.8875 L1334.41 36.8875 Q1340.45 36.8875 1343.65 34.4975 Q1346.85 32.067 1346.85 27.5299 Q1346.85 22.8714 1343.53 20.4004 Q1340.25 17.8888 1334.09 17.8888 Q1330.73 17.8888 1326.88 18.618 Q1323.03 19.3471 1318.41 20.8865 L1318.41 13.5948 Q1323.07 12.2985 1327.12 11.6504 Q1331.21 11.0023 1334.82 11.0023 Q1344.14 11.0023 1349.56 15.2557 Q1354.99 19.4686 1354.99 26.6793 Q1354.99 31.7024 1352.12 35.1862 Q1349.24 38.6294 1343.93 39.9662 Z" fill="#000000" fill-rule="evenodd" fill-opacity="1" /><path clip-path="url(#clip390)" d="M1369.86 12.096 L1408.75 12.096 L1408.75 15.5798 L1386.79 72.576 L1378.24 72.576 L1398.9 18.9825 L1369.86 18.9825 L1369.86 12.096 Z" fill="#000000" fill-rule="evenodd" fill-opacity="1" /><path clip-path="url(#clip390)" d="M1431.76 65.6895 L1460.32 65.6895 L1460.32 72.576 L1421.91 72.576 L1421.91 65.6895 Q1426.57 60.8689 1434.59 52.7671 Q1442.65 44.6248 1444.72 42.2752 Q1448.65 37.8598 1450.19 34.8216 Q1451.77 31.7429 1451.77 28.7857 Q1451.77 23.9651 1448.37 20.927 Q1445 17.8888 1439.57 17.8888 Q1435.73 17.8888 1431.43 19.2256 Q1427.18 20.5624 1422.32 23.2765 L1422.32 15.0127 Q1427.26 13.0277 1431.55 12.015 Q1435.85 11.0023 1439.41 11.0023 Q1448.81 11.0023 1454.4 15.7013 Q1459.99 20.4004 1459.99 28.2591 Q1459.99 31.9859 1458.57 35.3482 Q1457.2 38.6699 1453.51 43.2069 Q1452.5 44.3817 1447.07 50.0125 Q1441.64 55.6027 1431.76 65.6895 Z" fill="#000000" fill-rule="evenodd" fill-opacity="1" /><path clip-path="url(#clip390)" d="M1494.99 17.4837 Q1488.67 17.4837 1485.47 23.7221 Q1482.31 29.92 1482.31 42.3968 Q1482.31 54.833 1485.47 61.0714 Q1488.67 67.2693 1494.99 67.2693 Q1501.35 67.2693 1504.51 61.0714 Q1507.71 54.833 1507.71 42.3968 Q1507.71 29.92 1504.51 23.7221 Q1501.35 17.4837 1494.99 17.4837 M1494.99 11.0023 Q1505.16 11.0023 1510.51 19.0636 Q1515.89 27.0843 1515.89 42.3968 Q1515.89 57.6687 1510.51 65.73 Q1505.16 73.7508 1494.99 73.7508 Q1484.82 73.7508 1479.44 65.73 Q1474.09 57.6687 1474.09 42.3968 Q1474.09 27.0843 1479.44 19.0636 Q1484.82 11.0023 1494.99 11.0023 Z" fill="#000000" fill-rule="evenodd" fill-opacity="1" /><path clip-path="url(#clip390)" d="M1552.76 19.2256 L1532.1 51.5113 L1552.76 51.5113 L1552.76 19.2256 M1550.61 12.096 L1560.9 12.096 L1560.9 51.5113 L1569.53 51.5113 L1569.53 58.3168 L1560.9 58.3168 L1560.9 72.576 L1552.76 72.576 L1552.76 58.3168 L1525.45 58.3168 L1525.45 50.4176 L1550.61 12.096 Z" fill="#000000" fill-rule="evenodd" fill-opacity="1" /><path clip-path="url(#clip390)" d="M1580.99 12.096 L1619.88 12.096 L1619.88 15.5798 L1597.92 72.576 L1589.38 72.576 L1610.04 18.9825 L1580.99 18.9825 L1580.99 12.096 Z" fill="#000000" fill-rule="evenodd" fill-opacity="1" /><path clip-path="url(#clip390)" d="M1633.78 12.096 L1672.66 12.096 L1672.66 15.5798 L1650.71 72.576 L1642.16 72.576 L1662.82 18.9825 L1633.78 18.9825 L1633.78 12.096 Z" fill="#000000" fill-rule="evenodd" fill-opacity="1" /><path clip-path="url(#clip390)" d="M1695.67 65.6895 L1724.23 65.6895 L1724.23 72.576 L1685.83 72.576 L1685.83 65.6895 Q1690.49 60.8689 1698.51 52.7671 Q1706.57 44.6248 1708.64 42.2752 Q1712.57 37.8598 1714.1 34.8216 Q1715.68 31.7429 1715.68 28.7857 Q1715.68 23.9651 1712.28 20.927 Q1708.92 17.8888 1703.49 17.8888 Q1699.64 17.8888 1695.35 19.2256 Q1691.1 20.5624 1686.23 23.2765 L1686.23 15.0127 Q1691.18 13.0277 1695.47 12.015 Q1699.76 11.0023 1703.33 11.0023 Q1712.73 11.0023 1718.32 15.7013 Q1723.91 20.4004 1723.91 28.2591 Q1723.91 31.9859 1722.49 35.3482 Q1721.11 38.6699 1717.43 43.2069 Q1716.41 44.3817 1710.99 50.0125 Q1705.56 55.6027 1695.67 65.6895 Z" fill="#000000" fill-rule="evenodd" fill-opacity="1" /><path clip-path="url(#clip390)" d="M1741.65 71.3202 L1741.65 63.8666 Q1744.73 65.3249 1747.89 66.0946 Q1751.05 66.8642 1754.09 66.8642 Q1762.19 66.8642 1766.44 61.436 Q1770.74 55.9673 1771.34 44.8678 Q1768.99 48.3516 1765.39 50.215 Q1761.78 52.0784 1757.41 52.0784 Q1748.33 52.0784 1743.03 46.6097 Q1737.76 41.1005 1737.76 31.5808 Q1737.76 22.2638 1743.27 16.633 Q1748.78 11.0023 1757.94 11.0023 Q1768.43 11.0023 1773.94 19.0636 Q1779.49 27.0843 1779.49 42.3968 Q1779.49 56.6965 1772.68 65.2439 Q1765.92 73.7508 1754.45 73.7508 Q1751.37 73.7508 1748.21 73.1431 Q1745.05 72.5355 1741.65 71.3202 M1757.94 45.678 Q1763.44 45.678 1766.64 41.9107 Q1769.89 38.1433 1769.89 31.5808 Q1769.89 25.0589 1766.64 21.2916 Q1763.44 17.4837 1757.94 17.4837 Q1752.43 17.4837 1749.19 21.2916 Q1745.99 25.0589 1745.99 31.5808 Q1745.99 38.1433 1749.19 41.9107 Q1752.43 45.678 1757.94 45.678 Z" fill="#000000" fill-rule="evenodd" fill-opacity="1" /><path clip-path="url(#clip390)" d="M1795.61 65.6895 L1808.98 65.6895 L1808.98 19.5497 L1794.43 22.4663 L1794.43 15.0127 L1808.9 12.096 L1817.08 12.096 L1817.08 65.6895 L1830.45 65.6895 L1830.45 72.576 L1795.61 72.576 L1795.61 65.6895 Z" fill="#000000" fill-rule="evenodd" fill-opacity="1" /><path clip-path="url(#clip390)" d="M1871.77 39.9662 Q1877.64 41.222 1880.92 45.1919 Q1884.24 49.1618 1884.24 54.9951 Q1884.24 63.9476 1878.09 68.8492 Q1871.93 73.7508 1860.59 73.7508 Q1856.78 73.7508 1852.73 72.9811 Q1848.72 72.2519 1844.42 70.7531 L1844.42 62.8538 Q1847.82 64.8388 1851.88 65.8515 Q1855.93 66.8642 1860.34 66.8642 Q1868.04 66.8642 1872.05 63.826 Q1876.1 60.7879 1876.1 54.9951 Q1876.1 49.6479 1872.33 46.6502 Q1868.61 43.612 1861.92 43.612 L1854.87 43.612 L1854.87 36.8875 L1862.25 36.8875 Q1868.28 36.8875 1871.48 34.4975 Q1874.68 32.067 1874.68 27.5299 Q1874.68 22.8714 1871.36 20.4004 Q1868.08 17.8888 1861.92 17.8888 Q1858.56 17.8888 1854.71 18.618 Q1850.86 19.3471 1846.25 20.8865 L1846.25 13.5948 Q1850.9 12.2985 1854.95 11.6504 Q1859.05 11.0023 1862.65 11.0023 Q1871.97 11.0023 1877.4 15.2557 Q1882.82 19.4686 1882.82 26.6793 Q1882.82 31.7024 1879.95 35.1862 Q1877.07 38.6294 1871.77 39.9662 Z" fill="#000000" fill-rule="evenodd" fill-opacity="1" /><path clip-path="url(#clip390)" d="M1917.26 43.8551 Q1911.42 43.8551 1908.06 46.9743 Q1904.74 50.0935 1904.74 55.5622 Q1904.74 61.0309 1908.06 64.1501 Q1911.42 67.2693 1917.26 67.2693 Q1923.09 67.2693 1926.45 64.1501 Q1929.82 60.9904 1929.82 55.5622 Q1929.82 50.0935 1926.45 46.9743 Q1923.13 43.8551 1917.26 43.8551 M1909.07 40.3713 Q1903.81 39.075 1900.85 35.4697 Q1897.93 31.8644 1897.93 26.6793 Q1897.93 19.4281 1903.08 15.2152 Q1908.26 11.0023 1917.26 11.0023 Q1926.29 11.0023 1931.44 15.2152 Q1936.58 19.4281 1936.58 26.6793 Q1936.58 31.8644 1933.62 35.4697 Q1930.71 39.075 1925.48 40.3713 Q1931.4 41.7486 1934.68 45.759 Q1938 49.7694 1938 55.5622 Q1938 64.3527 1932.61 69.0517 Q1927.26 73.7508 1917.26 73.7508 Q1907.25 73.7508 1901.86 69.0517 Q1896.52 64.3527 1896.52 55.5622 Q1896.52 49.7694 1899.84 45.759 Q1903.16 41.7486 1909.07 40.3713 M1906.08 27.4489 Q1906.08 32.148 1908.99 34.7811 Q1911.95 37.4142 1917.26 37.4142 Q1922.52 37.4142 1925.48 34.7811 Q1928.48 32.148 1928.48 27.4489 Q1928.48 22.7499 1925.48 20.1168 Q1922.52 17.4837 1917.26 17.4837 Q1911.95 17.4837 1908.99 20.1168 Q1906.08 22.7499 1906.08 27.4489 Z" fill="#000000" fill-rule="evenodd" fill-opacity="1" /><path clip-path="url(#clip390)" d="M1971.05 39.075 Q1965.54 39.075 1962.3 42.8424 Q1959.1 46.6097 1959.1 53.1722 Q1959.1 59.6941 1962.3 63.502 Q1965.54 67.2693 1971.05 67.2693 Q1976.56 67.2693 1979.76 63.502 Q1983 59.6941 1983 53.1722 Q1983 46.6097 1979.76 42.8424 Q1976.56 39.075 1971.05 39.075 M1987.3 13.4328 L1987.3 20.8865 Q1984.22 19.4281 1981.06 18.6585 Q1977.94 17.8888 1974.86 17.8888 Q1966.76 17.8888 1962.47 23.3575 Q1958.21 28.8262 1957.6 39.8852 Q1959.99 36.3609 1963.6 34.4975 Q1967.21 32.5936 1971.54 32.5936 Q1980.65 32.5936 1985.92 38.1433 Q1991.23 43.6525 1991.23 53.1722 Q1991.23 62.4892 1985.72 68.12 Q1980.21 73.7508 1971.05 73.7508 Q1960.56 73.7508 1955.01 65.73 Q1949.46 57.6687 1949.46 42.3968 Q1949.46 28.0566 1956.27 19.5497 Q1963.07 11.0023 1974.54 11.0023 Q1977.62 11.0023 1980.74 11.6099 Q1983.89 12.2175 1987.3 13.4328 Z" fill="#000000" fill-rule="evenodd" fill-opacity="1" /><path clip-path="url(#clip390)" d="M2005.41 12.096 L2037.53 12.096 L2037.53 18.9825 L2012.9 18.9825 L2012.9 33.8088 Q2014.68 33.2012 2016.46 32.9176 Q2018.25 32.5936 2020.03 32.5936 Q2030.16 32.5936 2036.07 38.1433 Q2041.98 43.6931 2041.98 53.1722 Q2041.98 62.9348 2035.91 68.3631 Q2029.83 73.7508 2018.77 73.7508 Q2014.97 73.7508 2011 73.1026 Q2007.07 72.4545 2002.85 71.1582 L2002.85 62.9348 Q2006.5 64.9198 2010.39 65.892 Q2014.28 66.8642 2018.61 66.8642 Q2025.62 66.8642 2029.71 63.1779 Q2033.8 59.4916 2033.8 53.1722 Q2033.8 46.8528 2029.71 43.1664 Q2025.62 39.4801 2018.61 39.4801 Q2015.33 39.4801 2012.05 40.2093 Q2008.81 40.9384 2005.41 42.4778 L2005.41 12.096 Z" fill="#000000" fill-rule="evenodd" fill-opacity="1" /><path clip-path="url(#clip390)" d="M2075.61 43.8551 Q2069.77 43.8551 2066.41 46.9743 Q2063.09 50.0935 2063.09 55.5622 Q2063.09 61.0309 2066.41 64.1501 Q2069.77 67.2693 2075.61 67.2693 Q2081.44 67.2693 2084.8 64.1501 Q2088.17 60.9904 2088.17 55.5622 Q2088.17 50.0935 2084.8 46.9743 Q2081.48 43.8551 2075.61 43.8551 M2067.42 40.3713 Q2062.16 39.075 2059.2 35.4697 Q2056.28 31.8644 2056.28 26.6793 Q2056.28 19.4281 2061.43 15.2152 Q2066.61 11.0023 2075.61 11.0023 Q2084.64 11.0023 2089.79 15.2152 Q2094.93 19.4281 2094.93 26.6793 Q2094.93 31.8644 2091.97 35.4697 Q2089.06 39.075 2083.83 40.3713 Q2089.74 41.7486 2093.03 45.759 Q2096.35 49.7694 2096.35 55.5622 Q2096.35 64.3527 2090.96 69.0517 Q2085.61 73.7508 2075.61 73.7508 Q2065.6 73.7508 2060.21 69.0517 Q2054.87 64.3527 2054.87 55.5622 Q2054.87 49.7694 2058.19 45.759 Q2061.51 41.7486 2067.42 40.3713 M2064.43 27.4489 Q2064.43 32.148 2067.34 34.7811 Q2070.3 37.4142 2075.61 37.4142 Q2080.87 37.4142 2083.83 34.7811 Q2086.83 32.148 2086.83 27.4489 Q2086.83 22.7499 2083.83 20.1168 Q2080.87 17.4837 2075.61 17.4837 Q2070.3 17.4837 2067.34 20.1168 Q2064.43 22.7499 2064.43 27.4489 Z" fill="#000000" fill-rule="evenodd" fill-opacity="1" /><polyline clip-path="url(#clip392)" style="stroke:#009af9; stroke-linecap:butt; stroke-linejoin:round; stroke-width:16; stroke-opacity:1; fill:none" points="
  255.035,1446.29 272.782,1447.87 314.121,1447.01 377.95,1447.6 462.768,1446.72 566.586,1446.54 686.97,1443.11 821.098,1432.86 965.826,1387.32 1117.76,1218.62 
  1273.35,804.96 1428.93,391.297 1580.87,222.597 1725.59,177.058 1859.72,166.809 1980.11,163.375 2083.92,163.196 2168.74,162.317 2232.57,162.906 2273.91,162.047 
  2291.66,163.632 
  "/>
<circle clip-path="url(#clip392)" cx="255.035" cy="1446.29" r="14" fill="#009af9" fill-rule="evenodd" fill-opacity="1" stroke="#000000" stroke-opacity="1" stroke-width="3.2"/>
<circle clip-path="url(#clip392)" cx="272.782" cy="1447.87" r="14" fill="#009af9" fill-rule="evenodd" fill-opacity="1" stroke="#000000" stroke-opacity="1" stroke-width="3.2"/>
<circle clip-path="url(#clip392)" cx="314.121" cy="1447.01" r="14" fill="#009af9" fill-rule="evenodd" fill-opacity="1" stroke="#000000" stroke-opacity="1" stroke-width="3.2"/>
<circle clip-path="url(#clip392)" cx="377.95" cy="1447.6" r="14" fill="#009af9" fill-rule="evenodd" fill-opacity="1" stroke="#000000" stroke-opacity="1" stroke-width="3.2"/>
<circle clip-path="url(#clip392)" cx="462.768" cy="1446.72" r="14" fill="#009af9" fill-rule="evenodd" fill-opacity="1" stroke="#000000" stroke-opacity="1" stroke-width="3.2"/>
<circle clip-path="url(#clip392)" cx="566.586" cy="1446.54" r="14" fill="#009af9" fill-rule="evenodd" fill-opacity="1" stroke="#000000" stroke-opacity="1" stroke-width="3.2"/>
<circle clip-path="url(#clip392)" cx="686.97" cy="1443.11" r="14" fill="#009af9" fill-rule="evenodd" fill-opacity="1" stroke="#000000" stroke-opacity="1" stroke-width="3.2"/>
<circle clip-path="url(#clip392)" cx="821.098" cy="1432.86" r="14" fill="#009af9" fill-rule="evenodd" fill-opacity="1" stroke="#000000" stroke-opacity="1" stroke-width="3.2"/>
<circle clip-path="url(#clip392)" cx="965.826" cy="1387.32" r="14" fill="#009af9" fill-rule="evenodd" fill-opacity="1" stroke="#000000" stroke-opacity="1" stroke-width="3.2"/>
<circle clip-path="url(#clip392)" cx="1117.76" cy="1218.62" r="14" fill="#009af9" fill-rule="evenodd" fill-opacity="1" stroke="#000000" stroke-opacity="1" stroke-width="3.2"/>
<circle clip-path="url(#clip392)" cx="1273.35" cy="804.96" r="14" fill="#009af9" fill-rule="evenodd" fill-opacity="1" stroke="#000000" stroke-opacity="1" stroke-width="3.2"/>
<circle clip-path="url(#clip392)" cx="1428.93" cy="391.297" r="14" fill="#009af9" fill-rule="evenodd" fill-opacity="1" stroke="#000000" stroke-opacity="1" stroke-width="3.2"/>
<circle clip-path="url(#clip392)" cx="1580.87" cy="222.597" r="14" fill="#009af9" fill-rule="evenodd" fill-opacity="1" stroke="#000000" stroke-opacity="1" stroke-width="3.2"/>
<circle clip-path="url(#clip392)" cx="1725.59" cy="177.058" r="14" fill="#009af9" fill-rule="evenodd" fill-opacity="1" stroke="#000000" stroke-opacity="1" stroke-width="3.2"/>
<circle clip-path="url(#clip392)" cx="1859.72" cy="166.809" r="14" fill="#009af9" fill-rule="evenodd" fill-opacity="1" stroke="#000000" stroke-opacity="1" stroke-width="3.2"/>
<circle clip-path="url(#clip392)" cx="1980.11" cy="163.375" r="14" fill="#009af9" fill-rule="evenodd" fill-opacity="1" stroke="#000000" stroke-opacity="1" stroke-width="3.2"/>
<circle clip-path="url(#clip392)" cx="2083.92" cy="163.196" r="14" fill="#009af9" fill-rule="evenodd" fill-opacity="1" stroke="#000000" stroke-opacity="1" stroke-width="3.2"/>
<circle clip-path="url(#clip392)" cx="2168.74" cy="162.317" r="14" fill="#009af9" fill-rule="evenodd" fill-opacity="1" stroke="#000000" stroke-opacity="1" stroke-width="3.2"/>
<circle clip-path="url(#clip392)" cx="2232.57" cy="162.906" r="14" fill="#009af9" fill-rule="evenodd" fill-opacity="1" stroke="#000000" stroke-opacity="1" stroke-width="3.2"/>
<circle clip-path="url(#clip392)" cx="2273.91" cy="162.047" r="14" fill="#009af9" fill-rule="evenodd" fill-opacity="1" stroke="#000000" stroke-opacity="1" stroke-width="3.2"/>
<circle clip-path="url(#clip392)" cx="2291.66" cy="163.632" r="14" fill="#009af9" fill-rule="evenodd" fill-opacity="1" stroke="#000000" stroke-opacity="1" stroke-width="3.2"/>
<polyline clip-path="url(#clip392)" style="stroke:#e26f46; stroke-linecap:butt; stroke-linejoin:round; stroke-width:16; stroke-opacity:1; fill:none" points="
  255.035,1447.42 274.924,1447.41 458.829,1447.05 569.348,1446.2 662.791,1444.29 764.296,1438.87 857.875,1426.11 908.038,1412.88 958.201,1391.81 987.26,1374.47 
  1016.32,1352.14 1045.38,1323.69 1074.44,1287.89 1100.26,1248.94 1126.09,1202.55 1151.91,1148.31 1177.74,1086.23 1223.03,960.55 1268.32,820.812 1317.7,667.201 
  1367.08,528.495 1391.92,468.114 1416.75,414.956 1441.59,369.092 1466.43,330.204 1493.89,294.63 1521.35,265.901 1548.81,242.979 1576.27,224.868 1628.52,200.553 
  1680.78,185.53 1789.45,170.478 1880.92,165.727 1992.6,163.54 2097.58,162.834 2265.77,162.517 2291.66,162.5 
  "/>
<path clip-path="url(#clip390)" d="
M1988.5 1441.02 L2280.8 1441.02 L2280.8 1285.5 L1988.5 1285.5  Z
  " fill="#ffffff" fill-rule="evenodd" fill-opacity="1"/>
<polyline clip-path="url(#clip390)" style="stroke:#000000; stroke-linecap:butt; stroke-linejoin:round; stroke-width:4; stroke-opacity:1; fill:none" points="
  1988.5,1441.02 2280.8,1441.02 2280.8,1285.5 1988.5,1285.5 1988.5,1441.02 
  "/>
<polyline clip-path="url(#clip390)" style="stroke:#009af9; stroke-linecap:butt; stroke-linejoin:round; stroke-width:4; stroke-opacity:1; fill:none" points="
  2012.48,1337.34 2156.4,1337.34 
  "/>
<circle clip-path="url(#clip390)" cx="2084.44" cy="1337.34" r="23" fill="#009af9" fill-rule="evenodd" fill-opacity="1" stroke="#000000" stroke-opacity="1" stroke-width="5.12"/>
<path clip-path="url(#clip390)" d="M2194.23 1357.02 Q2192.43 1361.65 2190.72 1363.06 Q2189 1364.48 2186.13 1364.48 L2182.73 1364.48 L2182.73 1360.91 L2185.23 1360.91 Q2186.99 1360.91 2187.96 1360.08 Q2188.93 1359.24 2190.11 1356.14 L2190.88 1354.2 L2180.39 1328.69 L2184.91 1328.69 L2193.01 1348.97 L2201.11 1328.69 L2205.62 1328.69 L2194.23 1357.02 Z" fill="#000000" fill-rule="evenodd" fill-opacity="1" /><path clip-path="url(#clip390)" d="M2212.91 1350.68 L2220.55 1350.68 L2220.55 1324.31 L2212.24 1325.98 L2212.24 1321.72 L2220.51 1320.06 L2225.18 1320.06 L2225.18 1350.68 L2232.82 1350.68 L2232.82 1354.62 L2212.91 1354.62 L2212.91 1350.68 Z" fill="#000000" fill-rule="evenodd" fill-opacity="1" /><polyline clip-path="url(#clip390)" style="stroke:#e26f46; stroke-linecap:butt; stroke-linejoin:round; stroke-width:4; stroke-opacity:1; fill:none" points="
  2012.48,1389.18 2156.4,1389.18 
  "/>
<path clip-path="url(#clip390)" d="M2194.23 1408.86 Q2192.43 1413.49 2190.72 1414.9 Q2189 1416.32 2186.13 1416.32 L2182.73 1416.32 L2182.73 1412.75 L2185.23 1412.75 Q2186.99 1412.75 2187.96 1411.92 Q2188.93 1411.08 2190.11 1407.98 L2190.88 1406.04 L2180.39 1380.53 L2184.91 1380.53 L2193.01 1400.81 L2201.11 1380.53 L2205.62 1380.53 L2194.23 1408.86 Z" fill="#000000" fill-rule="evenodd" fill-opacity="1" /><path clip-path="url(#clip390)" d="M2216.13 1402.52 L2232.45 1402.52 L2232.45 1406.46 L2210.51 1406.46 L2210.51 1402.52 Q2213.17 1399.77 2217.75 1395.14 Q2222.36 1390.48 2223.54 1389.14 Q2225.78 1386.62 2226.66 1384.88 Q2227.57 1383.12 2227.57 1381.43 Q2227.57 1378.68 2225.62 1376.94 Q2223.7 1375.21 2220.6 1375.21 Q2218.4 1375.21 2215.95 1375.97 Q2213.52 1376.73 2210.74 1378.28 L2210.74 1373.56 Q2213.56 1372.43 2216.02 1371.85 Q2218.47 1371.27 2220.51 1371.27 Q2225.88 1371.27 2229.07 1373.96 Q2232.27 1376.64 2232.27 1381.13 Q2232.27 1383.26 2231.46 1385.18 Q2230.67 1387.08 2228.56 1389.67 Q2227.98 1390.34 2224.88 1393.56 Q2221.78 1396.76 2216.13 1402.52 Z" fill="#000000" fill-rule="evenodd" fill-opacity="1" /></svg>
