<?xml version="1.0" encoding="utf-8"?>
<svg xmlns="http://www.w3.org/2000/svg" xmlns:xlink="http://www.w3.org/1999/xlink" width="600" height="400" viewBox="0 0 2400 1600">
<defs>
  <clipPath id="clip820">
    <rect x="0" y="0" width="2400" height="1600"/>
  </clipPath>
</defs>
<path clip-path="url(#clip820)" d="
M0 1600 L2400 1600 L2400 0 L0 0  Z
  " fill="#ffffff" fill-rule="evenodd" fill-opacity="1"/>
<defs>
  <clipPath id="clip821">
    <rect x="480" y="0" width="1681" height="1600"/>
  </clipPath>
</defs>
<path clip-path="url(#clip820)" d="
M156.598 1486.45 L2352.76 1486.45 L2352.76 47.2441 L156.598 47.2441  Z
  " fill="#ffffff" fill-rule="evenodd" fill-opacity="1"/>
<defs>
  <clipPath id="clip822">
    <rect x="156" y="47" width="2197" height="1440"/>
  </clipPath>
</defs>
<polyline clip-path="url(#clip822)" style="stroke:#000000; stroke-linecap:butt; stroke-linejoin:round; stroke-width:2; stroke-opacity:0.1; fill:none" points="
  218.754,1486.45 218.754,47.2441 
  "/>
<polyline clip-path="url(#clip822)" style="stroke:#000000; stroke-linecap:butt; stroke-linejoin:round; stroke-width:2; stroke-opacity:0.1; fill:none" points="
  736.715,1486.45 736.715,47.2441 
  "/>
<polyline clip-path="url(#clip822)" style="stroke:#000000; stroke-linecap:butt; stroke-linejoin:round; stroke-width:2; stroke-opacity:0.1; fill:none" points="
  1254.68,1486.45 1254.68,47.2441 
  "/>
<polyline clip-path="url(#clip822)" style="stroke:#000000; stroke-linecap:butt; stroke-linejoin:round; stroke-width:2; stroke-opacity:0.1; fill:none" points="
  1772.64,1486.45 1772.64,47.2441 
  "/>
<polyline clip-path="url(#clip822)" style="stroke:#000000; stroke-linecap:butt; stroke-linejoin:round; stroke-width:2; stroke-opacity:0.1; fill:none" points="
  2290.6,1486.45 2290.6,47.2441 
  "/>
<polyline clip-path="url(#clip820)" style="stroke:#000000; stroke-linecap:butt; stroke-linejoin:round; stroke-width:4; stroke-opacity:1; fill:none" points="
  156.598,1486.45 2352.76,1486.45 
  "/>
<polyline clip-path="url(#clip820)" style="stroke:#000000; stroke-linecap:butt; stroke-linejoin:round; stroke-width:4; stroke-opacity:1; fill:none" points="
  218.754,1486.45 218.754,1467.55 
  "/>
<polyline clip-path="url(#clip820)" style="stroke:#000000; stroke-linecap:butt; stroke-linejoin:round; stroke-width:4; stroke-opacity:1; fill:none" points="
  736.715,1486.45 736.715,1467.55 
  "/>
<polyline clip-path="url(#clip820)" style="stroke:#000000; stroke-linecap:butt; stroke-linejoin:round; stroke-width:4; stroke-opacity:1; fill:none" points="
  1254.68,1486.45 1254.68,1467.55 
  "/>
<polyline clip-path="url(#clip820)" style="stroke:#000000; stroke-linecap:butt; stroke-linejoin:round; stroke-width:4; stroke-opacity:1; fill:none" points="
  1772.64,1486.45 1772.64,1467.55 
  "/>
<polyline clip-path="url(#clip820)" style="stroke:#000000; stroke-linecap:butt; stroke-linejoin:round; stroke-width:4; stroke-opacity:1; fill:none" points="
  2290.6,1486.45 2290.6,1467.55 
  "/>
<path clip-path="url(#clip820)" d="M165.282 1532.02 L194.957 1532.02 L194.957 1535.95 L165.282 1535.95 L165.282 1532.02 Z" fill="#000000" fill-rule="evenodd" fill-opacity="1" /><path clip-path="url(#clip820)" d="M205.86 1544.91 L213.499 1544.91 L213.499 1518.55 L205.189 1520.21 L205.189 1515.95 L213.453 1514.29 L218.129 1514.29 L218.129 1544.91 L225.767 1544.91 L225.767 1548.85 L205.86 1548.85 L205.86 1544.91 Z" fill="#000000" fill-rule="evenodd" fill-opacity="1" /><path clip-path="url(#clip820)" d="M235.212 1542.97 L240.096 1542.97 L240.096 1548.85 L235.212 1548.85 L235.212 1542.97 Z" fill="#000000" fill-rule="evenodd" fill-opacity="1" /><path clip-path="url(#clip820)" d="M260.281 1517.37 Q256.67 1517.37 254.841 1520.93 Q253.036 1524.47 253.036 1531.6 Q253.036 1538.71 254.841 1542.27 Q256.67 1545.82 260.281 1545.82 Q263.915 1545.82 265.721 1542.27 Q267.55 1538.71 267.55 1531.6 Q267.55 1524.47 265.721 1520.93 Q263.915 1517.37 260.281 1517.37 M260.281 1513.66 Q266.091 1513.66 269.147 1518.27 Q272.226 1522.85 272.226 1531.6 Q272.226 1540.33 269.147 1544.94 Q266.091 1549.52 260.281 1549.52 Q254.471 1549.52 251.392 1544.94 Q248.337 1540.33 248.337 1531.6 Q248.337 1522.85 251.392 1518.27 Q254.471 1513.66 260.281 1513.66 Z" fill="#000000" fill-rule="evenodd" fill-opacity="1" /><path clip-path="url(#clip820)" d="M683.741 1532.02 L713.417 1532.02 L713.417 1535.95 L683.741 1535.95 L683.741 1532.02 Z" fill="#000000" fill-rule="evenodd" fill-opacity="1" /><path clip-path="url(#clip820)" d="M733.509 1517.37 Q729.898 1517.37 728.07 1520.93 Q726.264 1524.47 726.264 1531.6 Q726.264 1538.71 728.07 1542.27 Q729.898 1545.82 733.509 1545.82 Q737.144 1545.82 738.949 1542.27 Q740.778 1538.71 740.778 1531.6 Q740.778 1524.47 738.949 1520.93 Q737.144 1517.37 733.509 1517.37 M733.509 1513.66 Q739.32 1513.66 742.375 1518.27 Q745.454 1522.85 745.454 1531.6 Q745.454 1540.33 742.375 1544.94 Q739.32 1549.52 733.509 1549.52 Q727.699 1549.52 724.621 1544.94 Q721.565 1540.33 721.565 1531.6 Q721.565 1522.85 724.621 1518.27 Q727.699 1513.66 733.509 1513.66 Z" fill="#000000" fill-rule="evenodd" fill-opacity="1" /><path clip-path="url(#clip820)" d="M753.671 1542.97 L758.556 1542.97 L758.556 1548.85 L753.671 1548.85 L753.671 1542.97 Z" fill="#000000" fill-rule="evenodd" fill-opacity="1" /><path clip-path="url(#clip820)" d="M768.787 1514.29 L787.143 1514.29 L787.143 1518.22 L773.069 1518.22 L773.069 1526.7 Q774.088 1526.35 775.106 1526.19 Q776.125 1526 777.143 1526 Q782.93 1526 786.31 1529.17 Q789.69 1532.34 789.69 1537.76 Q789.69 1543.34 786.217 1546.44 Q782.745 1549.52 776.426 1549.52 Q774.25 1549.52 771.981 1549.15 Q769.736 1548.78 767.329 1548.04 L767.329 1543.34 Q769.412 1544.47 771.634 1545.03 Q773.856 1545.58 776.333 1545.58 Q780.338 1545.58 782.676 1543.48 Q785.014 1541.37 785.014 1537.76 Q785.014 1534.15 782.676 1532.04 Q780.338 1529.94 776.333 1529.94 Q774.458 1529.94 772.583 1530.35 Q770.731 1530.77 768.787 1531.65 L768.787 1514.29 Z" fill="#000000" fill-rule="evenodd" fill-opacity="1" /><path clip-path="url(#clip820)" d="M1232.06 1517.37 Q1228.45 1517.37 1226.62 1520.93 Q1224.82 1524.47 1224.82 1531.6 Q1224.82 1538.71 1226.62 1542.27 Q1228.45 1545.82 1232.06 1545.82 Q1235.7 1545.82 1237.5 1542.27 Q1239.33 1538.71 1239.33 1531.6 Q1239.33 1524.47 1237.5 1520.93 Q1235.7 1517.37 1232.06 1517.37 M1232.06 1513.66 Q1237.87 1513.66 1240.93 1518.27 Q1244.01 1522.85 1244.01 1531.6 Q1244.01 1540.33 1240.93 1544.94 Q1237.87 1549.52 1232.06 1549.52 Q1226.25 1549.52 1223.17 1544.94 Q1220.12 1540.33 1220.12 1531.6 Q1220.12 1522.85 1223.17 1518.27 Q1226.25 1513.66 1232.06 1513.66 Z" fill="#000000" fill-rule="evenodd" fill-opacity="1" /><path clip-path="url(#clip820)" d="M1252.22 1542.97 L1257.11 1542.97 L1257.11 1548.85 L1252.22 1548.85 L1252.22 1542.97 Z" fill="#000000" fill-rule="evenodd" fill-opacity="1" /><path clip-path="url(#clip820)" d="M1277.29 1517.37 Q1273.68 1517.37 1271.85 1520.93 Q1270.05 1524.47 1270.05 1531.6 Q1270.05 1538.71 1271.85 1542.27 Q1273.68 1545.82 1277.29 1545.82 Q1280.93 1545.82 1282.73 1542.27 Q1284.56 1538.71 1284.56 1531.6 Q1284.56 1524.47 1282.73 1520.93 Q1280.93 1517.37 1277.29 1517.37 M1277.29 1513.66 Q1283.1 1513.66 1286.16 1518.27 Q1289.24 1522.85 1289.24 1531.6 Q1289.24 1540.33 1286.16 1544.94 Q1283.1 1549.52 1277.29 1549.52 Q1271.48 1549.52 1268.4 1544.94 Q1265.35 1540.33 1265.35 1531.6 Q1265.35 1522.85 1268.4 1518.27 Q1271.48 1513.66 1277.29 1513.66 Z" fill="#000000" fill-rule="evenodd" fill-opacity="1" /><path clip-path="url(#clip820)" d="M1750.52 1517.37 Q1746.91 1517.37 1745.08 1520.93 Q1743.28 1524.47 1743.28 1531.6 Q1743.28 1538.71 1745.08 1542.27 Q1746.91 1545.82 1750.52 1545.82 Q1754.16 1545.82 1755.96 1542.27 Q1757.79 1538.71 1757.79 1531.6 Q1757.79 1524.47 1755.96 1520.93 Q1754.16 1517.37 1750.52 1517.37 M1750.52 1513.66 Q1756.33 1513.66 1759.39 1518.27 Q1762.47 1522.85 1762.47 1531.6 Q1762.47 1540.33 1759.39 1544.94 Q1756.33 1549.52 1750.52 1549.52 Q1744.71 1549.52 1741.63 1544.94 Q1738.58 1540.33 1738.58 1531.6 Q1738.58 1522.85 1741.63 1518.27 Q1744.71 1513.66 1750.52 1513.66 Z" fill="#000000" fill-rule="evenodd" fill-opacity="1" /><path clip-path="url(#clip820)" d="M1770.68 1542.97 L1775.57 1542.97 L1775.57 1548.85 L1770.68 1548.85 L1770.68 1542.97 Z" fill="#000000" fill-rule="evenodd" fill-opacity="1" /><path clip-path="url(#clip820)" d="M1785.8 1514.29 L1804.15 1514.29 L1804.15 1518.22 L1790.08 1518.22 L1790.08 1526.7 Q1791.1 1526.35 1792.12 1526.19 Q1793.14 1526 1794.15 1526 Q1799.94 1526 1803.32 1529.17 Q1806.7 1532.34 1806.7 1537.76 Q1806.7 1543.34 1803.23 1546.44 Q1799.76 1549.52 1793.44 1549.52 Q1791.26 1549.52 1788.99 1549.15 Q1786.75 1548.78 1784.34 1548.04 L1784.34 1543.34 Q1786.42 1544.47 1788.65 1545.03 Q1790.87 1545.58 1793.34 1545.58 Q1797.35 1545.58 1799.69 1543.48 Q1802.03 1541.37 1802.03 1537.76 Q1802.03 1534.15 1799.69 1532.04 Q1797.35 1529.94 1793.34 1529.94 Q1791.47 1529.94 1789.59 1530.35 Q1787.74 1530.77 1785.8 1531.65 L1785.8 1514.29 Z" fill="#000000" fill-rule="evenodd" fill-opacity="1" /><path clip-path="url(#clip820)" d="M2257.75 1544.91 L2265.39 1544.91 L2265.39 1518.55 L2257.08 1520.21 L2257.08 1515.95 L2265.35 1514.29 L2270.02 1514.29 L2270.02 1544.91 L2277.66 1544.91 L2277.66 1548.85 L2257.75 1548.85 L2257.75 1544.91 Z" fill="#000000" fill-rule="evenodd" fill-opacity="1" /><path clip-path="url(#clip820)" d="M2287.11 1542.97 L2291.99 1542.97 L2291.99 1548.85 L2287.11 1548.85 L2287.11 1542.97 Z" fill="#000000" fill-rule="evenodd" fill-opacity="1" /><path clip-path="url(#clip820)" d="M2312.17 1517.37 Q2308.56 1517.37 2306.73 1520.93 Q2304.93 1524.47 2304.93 1531.6 Q2304.93 1538.71 2306.73 1542.27 Q2308.56 1545.82 2312.17 1545.82 Q2315.81 1545.82 2317.61 1542.27 Q2319.44 1538.71 2319.44 1531.6 Q2319.44 1524.47 2317.61 1520.93 Q2315.81 1517.37 2312.17 1517.37 M2312.17 1513.66 Q2317.98 1513.66 2321.04 1518.27 Q2324.12 1522.85 2324.12 1531.6 Q2324.12 1540.33 2321.04 1544.94 Q2317.98 1549.52 2312.17 1549.52 Q2306.36 1549.52 2303.29 1544.94 Q2300.23 1540.33 2300.23 1531.6 Q2300.23 1522.85 2303.29 1518.27 Q2306.36 1513.66 2312.17 1513.66 Z" fill="#000000" fill-rule="evenodd" fill-opacity="1" /><polyline clip-path="url(#clip822)" style="stroke:#000000; stroke-linecap:butt; stroke-linejoin:round; stroke-width:2; stroke-opacity:0.1; fill:none" points="
  156.598,1445.72 2352.76,1445.72 
  "/>
<polyline clip-path="url(#clip822)" style="stroke:#000000; stroke-linecap:butt; stroke-linejoin:round; stroke-width:2; stroke-opacity:0.1; fill:none" points="
  156.598,1159.1 2352.76,1159.1 
  "/>
<polyline clip-path="url(#clip822)" style="stroke:#000000; stroke-linecap:butt; stroke-linejoin:round; stroke-width:2; stroke-opacity:0.1; fill:none" points="
  156.598,872.474 2352.76,872.474 
  "/>
<polyline clip-path="url(#clip822)" style="stroke:#000000; stroke-linecap:butt; stroke-linejoin:round; stroke-width:2; stroke-opacity:0.1; fill:none" points="
  156.598,585.854 2352.76,585.854 
  "/>
<polyline clip-path="url(#clip822)" style="stroke:#000000; stroke-linecap:butt; stroke-linejoin:round; stroke-width:2; stroke-opacity:0.1; fill:none" points="
  156.598,299.233 2352.76,299.233 
  "/>
<polyline clip-path="url(#clip820)" style="stroke:#000000; stroke-linecap:butt; stroke-linejoin:round; stroke-width:4; stroke-opacity:1; fill:none" points="
  156.598,1486.45 156.598,47.2441 
  "/>
<polyline clip-path="url(#clip820)" style="stroke:#000000; stroke-linecap:butt; stroke-linejoin:round; stroke-width:4; stroke-opacity:1; fill:none" points="
  156.598,1445.72 175.496,1445.72 
  "/>
<polyline clip-path="url(#clip820)" style="stroke:#000000; stroke-linecap:butt; stroke-linejoin:round; stroke-width:4; stroke-opacity:1; fill:none" points="
  156.598,1159.1 175.496,1159.1 
  "/>
<polyline clip-path="url(#clip820)" style="stroke:#000000; stroke-linecap:butt; stroke-linejoin:round; stroke-width:4; stroke-opacity:1; fill:none" points="
  156.598,872.474 175.496,872.474 
  "/>
<polyline clip-path="url(#clip820)" style="stroke:#000000; stroke-linecap:butt; stroke-linejoin:round; stroke-width:4; stroke-opacity:1; fill:none" points="
  156.598,585.854 175.496,585.854 
  "/>
<polyline clip-path="url(#clip820)" style="stroke:#000000; stroke-linecap:butt; stroke-linejoin:round; stroke-width:4; stroke-opacity:1; fill:none" points="
  156.598,299.233 175.496,299.233 
  "/>
<path clip-path="url(#clip820)" d="M63.4226 1431.51 Q59.8115 1431.51 57.9828 1435.08 Q56.1773 1438.62 56.1773 1445.75 Q56.1773 1452.86 57.9828 1456.42 Q59.8115 1459.96 63.4226 1459.96 Q67.0569 1459.96 68.8624 1456.42 Q70.6911 1452.86 70.6911 1445.75 Q70.6911 1438.62 68.8624 1435.08 Q67.0569 1431.51 63.4226 1431.51 M63.4226 1427.81 Q69.2328 1427.81 72.2883 1432.42 Q75.367 1437 75.367 1445.75 Q75.367 1454.48 72.2883 1459.08 Q69.2328 1463.67 63.4226 1463.67 Q57.6125 1463.67 54.5338 1459.08 Q51.4782 1454.48 51.4782 1445.75 Q51.4782 1437 54.5338 1432.42 Q57.6125 1427.81 63.4226 1427.81 Z" fill="#000000" fill-rule="evenodd" fill-opacity="1" /><path clip-path="url(#clip820)" d="M83.5845 1457.12 L88.4688 1457.12 L88.4688 1463 L83.5845 1463 L83.5845 1457.12 Z" fill="#000000" fill-rule="evenodd" fill-opacity="1" /><path clip-path="url(#clip820)" d="M108.654 1431.51 Q105.043 1431.51 103.214 1435.08 Q101.409 1438.62 101.409 1445.75 Q101.409 1452.86 103.214 1456.42 Q105.043 1459.96 108.654 1459.96 Q112.288 1459.96 114.094 1456.42 Q115.922 1452.86 115.922 1445.75 Q115.922 1438.62 114.094 1435.08 Q112.288 1431.51 108.654 1431.51 M108.654 1427.81 Q114.464 1427.81 117.52 1432.42 Q120.598 1437 120.598 1445.75 Q120.598 1454.48 117.52 1459.08 Q114.464 1463.67 108.654 1463.67 Q102.844 1463.67 99.765 1459.08 Q96.7095 1454.48 96.7095 1445.75 Q96.7095 1437 99.765 1432.42 Q102.844 1427.81 108.654 1427.81 Z" fill="#000000" fill-rule="evenodd" fill-opacity="1" /><path clip-path="url(#clip820)" d="M64.6495 1144.89 Q61.0384 1144.89 59.2097 1148.46 Q57.4041 1152 57.4041 1159.13 Q57.4041 1166.24 59.2097 1169.8 Q61.0384 1173.34 64.6495 1173.34 Q68.2837 1173.34 70.0892 1169.8 Q71.9179 1166.24 71.9179 1159.13 Q71.9179 1152 70.0892 1148.46 Q68.2837 1144.89 64.6495 1144.89 M64.6495 1141.19 Q70.4596 1141.19 73.5152 1145.8 Q76.5938 1150.38 76.5938 1159.13 Q76.5938 1167.86 73.5152 1172.46 Q70.4596 1177.05 64.6495 1177.05 Q58.8393 1177.05 55.7606 1172.46 Q52.7051 1167.86 52.7051 1159.13 Q52.7051 1150.38 55.7606 1145.8 Q58.8393 1141.19 64.6495 1141.19 Z" fill="#000000" fill-rule="evenodd" fill-opacity="1" /><path clip-path="url(#clip820)" d="M84.8114 1170.5 L89.6956 1170.5 L89.6956 1176.38 L84.8114 1176.38 L84.8114 1170.5 Z" fill="#000000" fill-rule="evenodd" fill-opacity="1" /><path clip-path="url(#clip820)" d="M100.691 1172.44 L108.33 1172.44 L108.33 1146.07 L100.02 1147.74 L100.02 1143.48 L108.283 1141.82 L112.959 1141.82 L112.959 1172.44 L120.598 1172.44 L120.598 1176.38 L100.691 1176.38 L100.691 1172.44 Z" fill="#000000" fill-rule="evenodd" fill-opacity="1" /><path clip-path="url(#clip820)" d="M65.0198 858.273 Q61.4087 858.273 59.58 861.838 Q57.7745 865.379 57.7745 872.509 Q57.7745 879.615 59.58 883.18 Q61.4087 886.722 65.0198 886.722 Q68.6541 886.722 70.4596 883.18 Q72.2883 879.615 72.2883 872.509 Q72.2883 865.379 70.4596 861.838 Q68.6541 858.273 65.0198 858.273 M65.0198 854.569 Q70.83 854.569 73.8855 859.176 Q76.9642 863.759 76.9642 872.509 Q76.9642 881.236 73.8855 885.842 Q70.83 890.426 65.0198 890.426 Q59.2097 890.426 56.131 885.842 Q53.0754 881.236 53.0754 872.509 Q53.0754 863.759 56.131 859.176 Q59.2097 854.569 65.0198 854.569 Z" fill="#000000" fill-rule="evenodd" fill-opacity="1" /><path clip-path="url(#clip820)" d="M85.1818 883.875 L90.066 883.875 L90.066 889.754 L85.1818 889.754 L85.1818 883.875 Z" fill="#000000" fill-rule="evenodd" fill-opacity="1" /><path clip-path="url(#clip820)" d="M104.279 885.819 L120.598 885.819 L120.598 889.754 L98.6539 889.754 L98.6539 885.819 Q101.316 883.065 105.899 878.435 Q110.506 873.782 111.686 872.44 Q113.932 869.916 114.811 868.18 Q115.714 866.421 115.714 864.731 Q115.714 861.977 113.77 860.241 Q111.848 858.504 108.746 858.504 Q106.547 858.504 104.094 859.268 Q101.663 860.032 98.8854 861.583 L98.8854 856.861 Q101.709 855.727 104.163 855.148 Q106.617 854.569 108.654 854.569 Q114.024 854.569 117.219 857.254 Q120.413 859.94 120.413 864.43 Q120.413 866.56 119.603 868.481 Q118.816 870.379 116.709 872.972 Q116.131 873.643 113.029 876.861 Q109.927 880.055 104.279 885.819 Z" fill="#000000" fill-rule="evenodd" fill-opacity="1" /><path clip-path="url(#clip820)" d="M64.0708 571.652 Q60.4597 571.652 58.631 575.217 Q56.8254 578.759 56.8254 585.888 Q56.8254 592.995 58.631 596.56 Q60.4597 600.101 64.0708 600.101 Q67.705 600.101 69.5105 596.56 Q71.3392 592.995 71.3392 585.888 Q71.3392 578.759 69.5105 575.217 Q67.705 571.652 64.0708 571.652 M64.0708 567.949 Q69.8809 567.949 72.9365 572.555 Q76.0151 577.138 76.0151 585.888 Q76.0151 594.615 72.9365 599.222 Q69.8809 603.805 64.0708 603.805 Q58.2606 603.805 55.1819 599.222 Q52.1264 594.615 52.1264 585.888 Q52.1264 577.138 55.1819 572.555 Q58.2606 567.949 64.0708 567.949 Z" fill="#000000" fill-rule="evenodd" fill-opacity="1" /><path clip-path="url(#clip820)" d="M84.2327 597.254 L89.1169 597.254 L89.1169 603.134 L84.2327 603.134 L84.2327 597.254 Z" fill="#000000" fill-rule="evenodd" fill-opacity="1" /><path clip-path="url(#clip820)" d="M113.469 584.499 Q116.825 585.217 118.7 587.486 Q120.598 589.754 120.598 593.087 Q120.598 598.203 117.08 601.004 Q113.561 603.805 107.08 603.805 Q104.904 603.805 102.589 603.365 Q100.297 602.948 97.8437 602.092 L97.8437 597.578 Q99.7882 598.712 102.103 599.291 Q104.418 599.87 106.941 599.87 Q111.339 599.87 113.631 598.134 Q115.945 596.398 115.945 593.087 Q115.945 590.032 113.793 588.319 Q111.663 586.583 107.844 586.583 L103.816 586.583 L103.816 582.74 L108.029 582.74 Q111.478 582.74 113.307 581.374 Q115.135 579.986 115.135 577.393 Q115.135 574.731 113.237 573.319 Q111.362 571.884 107.844 571.884 Q105.922 571.884 103.723 572.3 Q101.524 572.717 98.8854 573.597 L98.8854 569.43 Q101.547 568.689 103.862 568.319 Q106.2 567.949 108.26 567.949 Q113.584 567.949 116.686 570.379 Q119.788 572.787 119.788 576.907 Q119.788 579.777 118.145 581.768 Q116.501 583.736 113.469 584.499 Z" fill="#000000" fill-rule="evenodd" fill-opacity="1" /><path clip-path="url(#clip820)" d="M62.9365 285.032 Q59.3254 285.032 57.4967 288.596 Q55.6912 292.138 55.6912 299.268 Q55.6912 306.374 57.4967 309.939 Q59.3254 313.481 62.9365 313.481 Q66.5707 313.481 68.3763 309.939 Q70.205 306.374 70.205 299.268 Q70.205 292.138 68.3763 288.596 Q66.5707 285.032 62.9365 285.032 M62.9365 281.328 Q68.7467 281.328 71.8022 285.934 Q74.8809 290.518 74.8809 299.268 Q74.8809 307.994 71.8022 312.601 Q68.7467 317.184 62.9365 317.184 Q57.1264 317.184 54.0477 312.601 Q50.9921 307.994 50.9921 299.268 Q50.9921 290.518 54.0477 285.934 Q57.1264 281.328 62.9365 281.328 Z" fill="#000000" fill-rule="evenodd" fill-opacity="1" /><path clip-path="url(#clip820)" d="M83.0984 310.633 L87.9827 310.633 L87.9827 316.513 L83.0984 316.513 L83.0984 310.633 Z" fill="#000000" fill-rule="evenodd" fill-opacity="1" /><path clip-path="url(#clip820)" d="M111.015 286.027 L99.2095 304.476 L111.015 304.476 L111.015 286.027 M109.788 281.953 L115.668 281.953 L115.668 304.476 L120.598 304.476 L120.598 308.365 L115.668 308.365 L115.668 316.513 L111.015 316.513 L111.015 308.365 L95.4132 308.365 L95.4132 303.851 L109.788 281.953 Z" fill="#000000" fill-rule="evenodd" fill-opacity="1" /><polyline clip-path="url(#clip822)" style="stroke:#009af9; stroke-linecap:butt; stroke-linejoin:round; stroke-width:16; stroke-opacity:1; fill:none" points="
  218.754,1445.72 425.938,1071.06 633.123,740.527 840.308,463.532 1047.49,252.369 1254.68,121.068 1461.86,87.9763 1669.05,174.023 1876.23,406.579 2083.42,816.866 
  2290.6,1445.72 
  "/>
<circle clip-path="url(#clip822)" cx="218.754" cy="1445.72" r="14" fill="#009af9" fill-rule="evenodd" fill-opacity="1" stroke="#000000" stroke-opacity="1" stroke-width="3.2"/>
<circle clip-path="url(#clip822)" cx="425.938" cy="1071.06" r="14" fill="#009af9" fill-rule="evenodd" fill-opacity="1" stroke="#000000" stroke-opacity="1" stroke-width="3.2"/>
<circle clip-path="url(#clip822)" cx="633.123" cy="740.527" r="14" fill="#009af9" fill-rule="evenodd" fill-opacity="1" stroke="#000000" stroke-opacity="1" stroke-width="3.2"/>
<circle clip-path="url(#clip822)" cx="840.308" cy="463.532" r="14" fill="#009af9" fill-rule="evenodd" fill-opacity="1" stroke="#000000" stroke-opacity="1" stroke-width="3.2"/>
<circle clip-path="url(#clip822)" cx="1047.49" cy="252.369" r="14" fill="#009af9" fill-rule="evenodd" fill-opacity="1" stroke="#000000" stroke-opacity="1" stroke-width="3.2"/>
<circle clip-path="url(#clip822)" cx="1254.68" cy="121.068" r="14" fill="#009af9" fill-rule="evenodd" fill-opacity="1" stroke="#000000" stroke-opacity="1" stroke-width="3.2"/>
<circle clip-path="url(#clip822)" cx="1461.86" cy="87.9763" r="14" fill="#009af9" fill-rule="evenodd" fill-opacity="1" stroke="#000000" stroke-opacity="1" stroke-width="3.2"/>
<circle clip-path="url(#clip822)" cx="1669.05" cy="174.023" r="14" fill="#009af9" fill-rule="evenodd" fill-opacity="1" stroke="#000000" stroke-opacity="1" stroke-width="3.2"/>
<circle clip-path="url(#clip822)" cx="1876.23" cy="406.579" r="14" fill="#009af9" fill-rule="evenodd" fill-opacity="1" stroke="#000000" stroke-opacity="1" stroke-width="3.2"/>
<circle clip-path="url(#clip822)" cx="2083.42" cy="816.866" r="14" fill="#009af9" fill-rule="evenodd" fill-opacity="1" stroke="#000000" stroke-opacity="1" stroke-width="3.2"/>
<circle clip-path="url(#clip822)" cx="2290.6" cy="1445.72" r="14" fill="#009af9" fill-rule="evenodd" fill-opacity="1" stroke="#000000" stroke-opacity="1" stroke-width="3.2"/>
<path clip-path="url(#clip820)" d="
M1983.1 198.898 L2279.55 198.898 L2279.55 95.2176 L1983.1 95.2176  Z
  " fill="#ffffff" fill-rule="evenodd" fill-opacity="1"/>
<polyline clip-path="url(#clip820)" style="stroke:#000000; stroke-linecap:butt; stroke-linejoin:round; stroke-width:4; stroke-opacity:1; fill:none" points="
  1983.1,198.898 2279.55,198.898 2279.55,95.2176 1983.1,95.2176 1983.1,198.898 
  "/>
<polyline clip-path="url(#clip820)" style="stroke:#009af9; stroke-linecap:butt; stroke-linejoin:round; stroke-width:4; stroke-opacity:1; fill:none" points="
  2007.5,147.058 2153.92,147.058 
  "/>
<circle clip-path="url(#clip820)" cx="2080.71" cy="147.058" r="23" fill="#009af9" fill-rule="evenodd" fill-opacity="1" stroke="#000000" stroke-opacity="1" stroke-width="5.12"/>
<path clip-path="url(#clip820)" d="M2192.16 166.745 Q2190.35 171.375 2188.64 172.787 Q2186.93 174.199 2184.06 174.199 L2180.65 174.199 L2180.65 170.634 L2183.15 170.634 Q2184.91 170.634 2185.89 169.8 Q2186.86 168.967 2188.04 165.865 L2188.8 163.921 L2178.32 138.412 L2182.83 138.412 L2190.93 158.689 L2199.03 138.412 L2203.55 138.412 L2192.16 166.745 Z" fill="#000000" fill-rule="evenodd" fill-opacity="1" /><path clip-path="url(#clip820)" d="M2210.84 160.402 L2218.48 160.402 L2218.48 134.037 L2210.17 135.703 L2210.17 131.444 L2218.43 129.778 L2223.11 129.778 L2223.11 160.402 L2230.75 160.402 L2230.75 164.338 L2210.84 164.338 L2210.84 160.402 Z" fill="#000000" fill-rule="evenodd" fill-opacity="1" /></svg>
