<?xml version="1.0" encoding="utf-8"?>
<svg xmlns="http://www.w3.org/2000/svg" xmlns:xlink="http://www.w3.org/1999/xlink" width="600" height="400" viewBox="0 0 2400 1600">
<defs>
  <clipPath id="clip030">
    <rect x="0" y="0" width="2400" height="1600"/>
  </clipPath>
</defs>
<path clip-path="url(#clip030)" d="
M0 1600 L2400 1600 L2400 0 L0 0  Z
  " fill="#ffffff" fill-rule="evenodd" fill-opacity="1"/>
<defs>
  <clipPath id="clip031">
    <rect x="480" y="0" width="1681" height="1600"/>
  </clipPath>
</defs>
<path clip-path="url(#clip030)" d="
M213.607 1474.16 L2352.76 1474.16 L2352.76 47.2441 L213.607 47.2441  Z
  " fill="#ffffff" fill-rule="evenodd" fill-opacity="1"/>
<defs>
  <clipPath id="clip032">
    <rect x="213" y="47" width="2140" height="1428"/>
  </clipPath>
</defs>
<polyline clip-path="url(#clip032)" style="stroke:#000000; stroke-linecap:butt; stroke-linejoin:round; stroke-width:2; stroke-opacity:0.1; fill:none" points="
  284.014,1474.16 284.014,47.2441 
  "/>
<polyline clip-path="url(#clip032)" style="stroke:#000000; stroke-linecap:butt; stroke-linejoin:round; stroke-width:2; stroke-opacity:0.1; fill:none" points="
  1241.71,1474.16 1241.71,47.2441 
  "/>
<polyline clip-path="url(#clip032)" style="stroke:#000000; stroke-linecap:butt; stroke-linejoin:round; stroke-width:2; stroke-opacity:0.1; fill:none" points="
  2199.4,1474.16 2199.4,47.2441 
  "/>
<polyline clip-path="url(#clip030)" style="stroke:#000000; stroke-linecap:butt; stroke-linejoin:round; stroke-width:4; stroke-opacity:1; fill:none" points="
  213.607,1474.16 2352.76,1474.16 
  "/>
<polyline clip-path="url(#clip030)" style="stroke:#000000; stroke-linecap:butt; stroke-linejoin:round; stroke-width:4; stroke-opacity:1; fill:none" points="
  284.014,1474.16 284.014,1455.27 
  "/>
<polyline clip-path="url(#clip030)" style="stroke:#000000; stroke-linecap:butt; stroke-linejoin:round; stroke-width:4; stroke-opacity:1; fill:none" points="
  1241.71,1474.16 1241.71,1455.27 
  "/>
<polyline clip-path="url(#clip030)" style="stroke:#000000; stroke-linecap:butt; stroke-linejoin:round; stroke-width:4; stroke-opacity:1; fill:none" points="
  2199.4,1474.16 2199.4,1455.27 
  "/>
<path clip-path="url(#clip030)" d="M233.894 1548.29 L241.533 1548.29 L241.533 1521.92 L233.223 1523.59 L233.223 1519.33 L241.486 1517.66 L246.162 1517.66 L246.162 1548.29 L253.801 1548.29 L253.801 1552.22 L233.894 1552.22 L233.894 1548.29 Z" fill="#000000" fill-rule="evenodd" fill-opacity="1" /><path clip-path="url(#clip030)" d="M273.245 1520.74 Q269.634 1520.74 267.806 1524.31 Q266 1527.85 266 1534.98 Q266 1542.09 267.806 1545.65 Q269.634 1549.19 273.245 1549.19 Q276.88 1549.19 278.685 1545.65 Q280.514 1542.09 280.514 1534.98 Q280.514 1527.85 278.685 1524.31 Q276.88 1520.74 273.245 1520.74 M273.245 1517.04 Q279.056 1517.04 282.111 1521.65 Q285.19 1526.23 285.19 1534.98 Q285.19 1543.71 282.111 1548.31 Q279.056 1552.9 273.245 1552.9 Q267.435 1552.9 264.357 1548.31 Q261.301 1543.71 261.301 1534.98 Q261.301 1526.23 264.357 1521.65 Q267.435 1517.04 273.245 1517.04 Z" fill="#000000" fill-rule="evenodd" fill-opacity="1" /><path clip-path="url(#clip030)" d="M285.19 1511.14 L309.301 1511.14 L309.301 1514.34 L285.19 1514.34 L285.19 1511.14 Z" fill="#000000" fill-rule="evenodd" fill-opacity="1" /><path clip-path="url(#clip030)" d="M329.012 1509.67 Q331.739 1510.26 333.262 1512.1 Q334.805 1513.94 334.805 1516.65 Q334.805 1520.81 331.946 1523.08 Q329.087 1525.36 323.821 1525.36 Q322.053 1525.36 320.172 1525 Q318.31 1524.66 316.317 1523.97 L316.317 1520.3 Q317.897 1521.22 319.777 1521.69 Q321.658 1522.16 323.708 1522.16 Q327.282 1522.16 329.144 1520.75 Q331.024 1519.34 331.024 1516.65 Q331.024 1514.17 329.275 1512.78 Q327.545 1511.37 324.442 1511.37 L321.169 1511.37 L321.169 1508.24 L324.592 1508.24 Q327.394 1508.24 328.88 1507.13 Q330.366 1506.01 330.366 1503.9 Q330.366 1501.74 328.824 1500.59 Q327.3 1499.42 324.442 1499.42 Q322.881 1499.42 321.094 1499.76 Q319.307 1500.1 317.163 1500.82 L317.163 1497.43 Q319.326 1496.83 321.207 1496.53 Q323.106 1496.23 324.78 1496.23 Q329.106 1496.23 331.626 1498.2 Q334.146 1500.16 334.146 1503.51 Q334.146 1505.84 332.811 1507.45 Q331.476 1509.05 329.012 1509.67 Z" fill="#000000" fill-rule="evenodd" fill-opacity="1" /><path clip-path="url(#clip030)" d="M1191.97 1548.29 L1199.61 1548.29 L1199.61 1521.92 L1191.3 1523.59 L1191.3 1519.33 L1199.57 1517.66 L1204.24 1517.66 L1204.24 1548.29 L1211.88 1548.29 L1211.88 1552.22 L1191.97 1552.22 L1191.97 1548.29 Z" fill="#000000" fill-rule="evenodd" fill-opacity="1" /><path clip-path="url(#clip030)" d="M1231.33 1520.74 Q1227.71 1520.74 1225.89 1524.31 Q1224.08 1527.85 1224.08 1534.98 Q1224.08 1542.09 1225.89 1545.65 Q1227.71 1549.19 1231.33 1549.19 Q1234.96 1549.19 1236.77 1545.65 Q1238.59 1542.09 1238.59 1534.98 Q1238.59 1527.85 1236.77 1524.31 Q1234.96 1520.74 1231.33 1520.74 M1231.33 1517.04 Q1237.14 1517.04 1240.19 1521.65 Q1243.27 1526.23 1243.27 1534.98 Q1243.27 1543.71 1240.19 1548.31 Q1237.14 1552.9 1231.33 1552.9 Q1225.52 1552.9 1222.44 1548.31 Q1219.38 1543.71 1219.38 1534.98 Q1219.38 1526.23 1222.44 1521.65 Q1225.52 1517.04 1231.33 1517.04 Z" fill="#000000" fill-rule="evenodd" fill-opacity="1" /><path clip-path="url(#clip030)" d="M1243.27 1511.14 L1267.38 1511.14 L1267.38 1514.34 L1243.27 1514.34 L1243.27 1511.14 Z" fill="#000000" fill-rule="evenodd" fill-opacity="1" /><path clip-path="url(#clip030)" d="M1278.85 1521.62 L1292.11 1521.62 L1292.11 1524.81 L1274.28 1524.81 L1274.28 1521.62 Q1276.45 1519.38 1280.17 1515.62 Q1283.91 1511.84 1284.87 1510.75 Q1286.7 1508.7 1287.41 1507.29 Q1288.15 1505.86 1288.15 1504.48 Q1288.15 1502.24 1286.57 1500.83 Q1285 1499.42 1282.48 1499.42 Q1280.7 1499.42 1278.7 1500.04 Q1276.73 1500.67 1274.47 1501.93 L1274.47 1498.09 Q1276.77 1497.17 1278.76 1496.7 Q1280.75 1496.23 1282.41 1496.23 Q1286.77 1496.23 1289.37 1498.41 Q1291.96 1500.59 1291.96 1504.24 Q1291.96 1505.97 1291.31 1507.53 Q1290.67 1509.07 1288.95 1511.18 Q1288.48 1511.72 1285.96 1514.34 Q1283.44 1516.93 1278.85 1521.62 Z" fill="#000000" fill-rule="evenodd" fill-opacity="1" /><path clip-path="url(#clip030)" d="M2149.52 1548.29 L2157.16 1548.29 L2157.16 1521.92 L2148.85 1523.59 L2148.85 1519.33 L2157.11 1517.66 L2161.79 1517.66 L2161.79 1548.29 L2169.43 1548.29 L2169.43 1552.22 L2149.52 1552.22 L2149.52 1548.29 Z" fill="#000000" fill-rule="evenodd" fill-opacity="1" /><path clip-path="url(#clip030)" d="M2188.87 1520.74 Q2185.26 1520.74 2183.43 1524.31 Q2181.63 1527.85 2181.63 1534.98 Q2181.63 1542.09 2183.43 1545.65 Q2185.26 1549.19 2188.87 1549.19 Q2192.5 1549.19 2194.31 1545.65 Q2196.14 1542.09 2196.14 1534.98 Q2196.14 1527.85 2194.31 1524.31 Q2192.5 1520.74 2188.87 1520.74 M2188.87 1517.04 Q2194.68 1517.04 2197.74 1521.65 Q2200.82 1526.23 2200.82 1534.98 Q2200.82 1543.71 2197.74 1548.31 Q2194.68 1552.9 2188.87 1552.9 Q2183.06 1552.9 2179.98 1548.31 Q2176.93 1543.71 2176.93 1534.98 Q2176.93 1526.23 2179.98 1521.65 Q2183.06 1517.04 2188.87 1517.04 Z" fill="#000000" fill-rule="evenodd" fill-opacity="1" /><path clip-path="url(#clip030)" d="M2200.82 1511.14 L2224.93 1511.14 L2224.93 1514.34 L2200.82 1514.34 L2200.82 1511.14 Z" fill="#000000" fill-rule="evenodd" fill-opacity="1" /><path clip-path="url(#clip030)" d="M2233.79 1521.62 L2239.99 1521.62 L2239.99 1500.19 L2233.24 1501.55 L2233.24 1498.09 L2239.95 1496.73 L2243.75 1496.73 L2243.75 1521.62 L2249.96 1521.62 L2249.96 1524.81 L2233.79 1524.81 L2233.79 1521.62 Z" fill="#000000" fill-rule="evenodd" fill-opacity="1" /><polyline clip-path="url(#clip032)" style="stroke:#000000; stroke-linecap:butt; stroke-linejoin:round; stroke-width:2; stroke-opacity:0.1; fill:none" points="
  213.607,1200.51 2352.76,1200.51 
  "/>
<polyline clip-path="url(#clip032)" style="stroke:#000000; stroke-linecap:butt; stroke-linejoin:round; stroke-width:2; stroke-opacity:0.1; fill:none" points="
  213.607,629.118 2352.76,629.118 
  "/>
<polyline clip-path="url(#clip032)" style="stroke:#000000; stroke-linecap:butt; stroke-linejoin:round; stroke-width:2; stroke-opacity:0.1; fill:none" points="
  213.607,57.7217 2352.76,57.7217 
  "/>
<polyline clip-path="url(#clip030)" style="stroke:#000000; stroke-linecap:butt; stroke-linejoin:round; stroke-width:4; stroke-opacity:1; fill:none" points="
  213.607,1474.16 213.607,47.2441 
  "/>
<polyline clip-path="url(#clip030)" style="stroke:#000000; stroke-linecap:butt; stroke-linejoin:round; stroke-width:4; stroke-opacity:1; fill:none" points="
  213.607,1200.51 232.505,1200.51 
  "/>
<polyline clip-path="url(#clip030)" style="stroke:#000000; stroke-linecap:butt; stroke-linejoin:round; stroke-width:4; stroke-opacity:1; fill:none" points="
  213.607,629.118 232.505,629.118 
  "/>
<polyline clip-path="url(#clip030)" style="stroke:#000000; stroke-linecap:butt; stroke-linejoin:round; stroke-width:4; stroke-opacity:1; fill:none" points="
  213.607,57.7217 232.505,57.7217 
  "/>
<path clip-path="url(#clip030)" d="M51.6634 1220.31 L59.3023 1220.31 L59.3023 1193.94 L50.9921 1195.61 L50.9921 1191.35 L59.256 1189.68 L63.9319 1189.68 L63.9319 1220.31 L71.5707 1220.31 L71.5707 1224.24 L51.6634 1224.24 L51.6634 1220.31 Z" fill="#000000" fill-rule="evenodd" fill-opacity="1" /><path clip-path="url(#clip030)" d="M91.0151 1192.76 Q87.404 1192.76 85.5753 1196.32 Q83.7697 1199.87 83.7697 1207 Q83.7697 1214.1 85.5753 1217.67 Q87.404 1221.21 91.0151 1221.21 Q94.6493 1221.21 96.4548 1217.67 Q98.2835 1214.1 98.2835 1207 Q98.2835 1199.87 96.4548 1196.32 Q94.6493 1192.76 91.0151 1192.76 M91.0151 1189.06 Q96.8252 1189.06 99.8808 1193.66 Q102.959 1198.25 102.959 1207 Q102.959 1215.72 99.8808 1220.33 Q96.8252 1224.91 91.0151 1224.91 Q85.2049 1224.91 82.1262 1220.33 Q79.0707 1215.72 79.0707 1207 Q79.0707 1198.25 82.1262 1193.66 Q85.2049 1189.06 91.0151 1189.06 Z" fill="#000000" fill-rule="evenodd" fill-opacity="1" /><path clip-path="url(#clip030)" d="M102.959 1183.16 L127.071 1183.16 L127.071 1186.35 L102.959 1186.35 L102.959 1183.16 Z" fill="#000000" fill-rule="evenodd" fill-opacity="1" /><path clip-path="url(#clip030)" d="M135.929 1193.63 L142.136 1193.63 L142.136 1172.21 L135.384 1173.57 L135.384 1170.1 L142.098 1168.75 L145.898 1168.75 L145.898 1193.63 L152.104 1193.63 L152.104 1196.83 L135.929 1196.83 L135.929 1193.63 Z" fill="#000000" fill-rule="evenodd" fill-opacity="1" /><path clip-path="url(#clip030)" d="M167.903 1171.25 Q164.969 1171.25 163.483 1174.15 Q162.016 1177.03 162.016 1182.82 Q162.016 1188.59 163.483 1191.49 Q164.969 1194.37 167.903 1194.37 Q170.855 1194.37 172.322 1191.49 Q173.808 1188.59 173.808 1182.82 Q173.808 1177.03 172.322 1174.15 Q170.855 1171.25 167.903 1171.25 M167.903 1168.24 Q172.623 1168.24 175.106 1171.99 Q177.607 1175.71 177.607 1182.82 Q177.607 1189.91 175.106 1193.65 Q172.623 1197.38 167.903 1197.38 Q163.182 1197.38 160.68 1193.65 Q158.198 1189.91 158.198 1182.82 Q158.198 1175.71 160.68 1171.99 Q163.182 1168.24 167.903 1168.24 Z" fill="#000000" fill-rule="evenodd" fill-opacity="1" /><path clip-path="url(#clip030)" d="M76.9787 648.91 L84.6175 648.91 L84.6175 622.544 L76.3074 624.211 L76.3074 619.952 L84.5712 618.285 L89.2471 618.285 L89.2471 648.91 L96.886 648.91 L96.886 652.845 L76.9787 652.845 L76.9787 648.91 Z" fill="#000000" fill-rule="evenodd" fill-opacity="1" /><path clip-path="url(#clip030)" d="M116.33 621.364 Q112.719 621.364 110.891 624.929 Q109.085 628.47 109.085 635.6 Q109.085 642.706 110.891 646.271 Q112.719 649.813 116.33 649.813 Q119.965 649.813 121.77 646.271 Q123.599 642.706 123.599 635.6 Q123.599 628.47 121.77 624.929 Q119.965 621.364 116.33 621.364 M116.33 617.66 Q122.14 617.66 125.196 622.267 Q128.275 626.85 128.275 635.6 Q128.275 644.327 125.196 648.933 Q122.14 653.516 116.33 653.516 Q110.52 653.516 107.441 648.933 Q104.386 644.327 104.386 635.6 Q104.386 626.85 107.441 622.267 Q110.52 617.66 116.33 617.66 Z" fill="#000000" fill-rule="evenodd" fill-opacity="1" /><path clip-path="url(#clip030)" d="M128.275 611.762 L152.386 611.762 L152.386 614.959 L128.275 614.959 L128.275 611.762 Z" fill="#000000" fill-rule="evenodd" fill-opacity="1" /><path clip-path="url(#clip030)" d="M160.624 597.355 L175.539 597.355 L175.539 600.552 L164.103 600.552 L164.103 607.436 Q164.931 607.154 165.759 607.022 Q166.586 606.872 167.414 606.872 Q172.116 606.872 174.862 609.448 Q177.607 612.025 177.607 616.426 Q177.607 620.959 174.786 623.479 Q171.965 625.98 166.831 625.98 Q165.063 625.98 163.22 625.679 Q161.395 625.378 159.439 624.777 L159.439 620.959 Q161.132 621.88 162.937 622.332 Q164.743 622.783 166.755 622.783 Q170.009 622.783 171.909 621.071 Q173.808 619.36 173.808 616.426 Q173.808 613.492 171.909 611.78 Q170.009 610.069 166.755 610.069 Q165.232 610.069 163.709 610.407 Q162.204 610.746 160.624 611.461 L160.624 597.355 Z" fill="#000000" fill-rule="evenodd" fill-opacity="1" /><path clip-path="url(#clip030)" d="M106.902 77.5141 L114.541 77.5141 L114.541 51.1485 L106.231 52.8152 L106.231 48.556 L114.494 46.8893 L119.17 46.8893 L119.17 77.5141 L126.809 77.5141 L126.809 81.4493 L106.902 81.4493 L106.902 77.5141 Z" fill="#000000" fill-rule="evenodd" fill-opacity="1" /><path clip-path="url(#clip030)" d="M146.253 49.968 Q142.642 49.968 140.814 53.5328 Q139.008 57.0744 139.008 64.204 Q139.008 71.3105 140.814 74.8753 Q142.642 78.4169 146.253 78.4169 Q149.888 78.4169 151.693 74.8753 Q153.522 71.3105 153.522 64.204 Q153.522 57.0744 151.693 53.5328 Q149.888 49.968 146.253 49.968 M146.253 46.2643 Q152.064 46.2643 155.119 50.8708 Q158.198 55.4541 158.198 64.204 Q158.198 72.9308 155.119 77.5373 Q152.064 82.1206 146.253 82.1206 Q140.443 82.1206 137.365 77.5373 Q134.309 72.9308 134.309 64.204 Q134.309 55.4541 137.365 50.8708 Q140.443 46.2643 146.253 46.2643 Z" fill="#000000" fill-rule="evenodd" fill-opacity="1" /><path clip-path="url(#clip030)" d="M167.903 28.4603 Q164.969 28.4603 163.483 31.3567 Q162.016 34.2343 162.016 40.0271 Q162.016 45.8011 163.483 48.6975 Q164.969 51.5751 167.903 51.5751 Q170.855 51.5751 172.322 48.6975 Q173.808 45.8011 173.808 40.0271 Q173.808 34.2343 172.322 31.3567 Q170.855 28.4603 167.903 28.4603 M167.903 25.4511 Q172.623 25.4511 175.106 29.1938 Q177.607 32.9178 177.607 40.0271 Q177.607 47.1176 175.106 50.8604 Q172.623 54.5843 167.903 54.5843 Q163.182 54.5843 160.68 50.8604 Q158.198 47.1176 158.198 40.0271 Q158.198 32.9178 160.68 29.1938 Q163.182 25.4511 167.903 25.4511 Z" fill="#000000" fill-rule="evenodd" fill-opacity="1" /><polyline clip-path="url(#clip032)" style="stroke:#009af9; stroke-linecap:butt; stroke-linejoin:round; stroke-width:4; stroke-opacity:1; fill:none" points="
  2292.21,87.6286 2003.92,374.695 1715.62,482.875 1427.33,614.248 1139.03,752.026 850.739,890.198 562.444,1028.25 274.149,1155.58 
  "/>
<circle clip-path="url(#clip032)" cx="2292.21" cy="87.6286" r="14" fill="#009af9" fill-rule="evenodd" fill-opacity="1" stroke="#000000" stroke-opacity="1" stroke-width="3.2"/>
<circle clip-path="url(#clip032)" cx="2003.92" cy="374.695" r="14" fill="#009af9" fill-rule="evenodd" fill-opacity="1" stroke="#000000" stroke-opacity="1" stroke-width="3.2"/>
<circle clip-path="url(#clip032)" cx="1715.62" cy="482.875" r="14" fill="#009af9" fill-rule="evenodd" fill-opacity="1" stroke="#000000" stroke-opacity="1" stroke-width="3.2"/>
<circle clip-path="url(#clip032)" cx="1427.33" cy="614.248" r="14" fill="#009af9" fill-rule="evenodd" fill-opacity="1" stroke="#000000" stroke-opacity="1" stroke-width="3.2"/>
<circle clip-path="url(#clip032)" cx="1139.03" cy="752.026" r="14" fill="#009af9" fill-rule="evenodd" fill-opacity="1" stroke="#000000" stroke-opacity="1" stroke-width="3.2"/>
<circle clip-path="url(#clip032)" cx="850.739" cy="890.198" r="14" fill="#009af9" fill-rule="evenodd" fill-opacity="1" stroke="#000000" stroke-opacity="1" stroke-width="3.2"/>
<circle clip-path="url(#clip032)" cx="562.444" cy="1028.25" r="14" fill="#009af9" fill-rule="evenodd" fill-opacity="1" stroke="#000000" stroke-opacity="1" stroke-width="3.2"/>
<circle clip-path="url(#clip032)" cx="274.149" cy="1155.58" r="14" fill="#009af9" fill-rule="evenodd" fill-opacity="1" stroke="#000000" stroke-opacity="1" stroke-width="3.2"/>
<polyline clip-path="url(#clip032)" style="stroke:#e26f46; stroke-linecap:butt; stroke-linejoin:round; stroke-width:4; stroke-opacity:1; fill:none" points="
  2292.21,127.96 2003.92,216.672 1715.62,295.145 1427.33,368.65 1139.03,439.767 850.739,509.718 562.444,579.092 274.149,648.18 
  "/>
<path clip-path="url(#clip032)" d="M2276.21 111.96 L2276.21 143.96 L2308.21 143.96 L2308.21 111.96 L2276.21 111.96 Z" fill="#e26f46" fill-rule="evenodd" fill-opacity="1" stroke="#000000" stroke-opacity="1" stroke-width="3.2"/>
<path clip-path="url(#clip032)" d="M1987.92 200.672 L1987.92 232.672 L2019.92 232.672 L2019.92 200.672 L1987.92 200.672 Z" fill="#e26f46" fill-rule="evenodd" fill-opacity="1" stroke="#000000" stroke-opacity="1" stroke-width="3.2"/>
<path clip-path="url(#clip032)" d="M1699.62 279.145 L1699.62 311.145 L1731.62 311.145 L1731.62 279.145 L1699.62 279.145 Z" fill="#e26f46" fill-rule="evenodd" fill-opacity="1" stroke="#000000" stroke-opacity="1" stroke-width="3.2"/>
<path clip-path="url(#clip032)" d="M1411.33 352.65 L1411.33 384.65 L1443.33 384.65 L1443.33 352.65 L1411.33 352.65 Z" fill="#e26f46" fill-rule="evenodd" fill-opacity="1" stroke="#000000" stroke-opacity="1" stroke-width="3.2"/>
<path clip-path="url(#clip032)" d="M1123.03 423.767 L1123.03 455.767 L1155.03 455.767 L1155.03 423.767 L1123.03 423.767 Z" fill="#e26f46" fill-rule="evenodd" fill-opacity="1" stroke="#000000" stroke-opacity="1" stroke-width="3.2"/>
<path clip-path="url(#clip032)" d="M834.739 493.718 L834.739 525.718 L866.739 525.718 L866.739 493.718 L834.739 493.718 Z" fill="#e26f46" fill-rule="evenodd" fill-opacity="1" stroke="#000000" stroke-opacity="1" stroke-width="3.2"/>
<path clip-path="url(#clip032)" d="M546.444 563.092 L546.444 595.092 L578.444 595.092 L578.444 563.092 L546.444 563.092 Z" fill="#e26f46" fill-rule="evenodd" fill-opacity="1" stroke="#000000" stroke-opacity="1" stroke-width="3.2"/>
<path clip-path="url(#clip032)" d="M258.149 632.18 L258.149 664.18 L290.149 664.18 L290.149 632.18 L258.149 632.18 Z" fill="#e26f46" fill-rule="evenodd" fill-opacity="1" stroke="#000000" stroke-opacity="1" stroke-width="3.2"/>
<polyline clip-path="url(#clip032)" style="stroke:#3da44d; stroke-linecap:butt; stroke-linejoin:round; stroke-width:4; stroke-opacity:1; fill:none" points="
  274.149,745.751 293.857,741.047 476.087,697.558 585.599,671.422 678.19,649.325 778.77,625.321 871.496,603.191 970.908,579.466 1086.09,551.978 1188.44,527.55 
  1278.2,506.129 1376.06,482.774 1474.5,459.281 1583.34,433.306 1686.9,408.591 1794.58,382.893 1885.22,361.261 1995.88,334.851 2099.91,310.025 2266.57,270.251 
  2292.21,264.13 
  "/>
<polyline clip-path="url(#clip032)" style="stroke:#c271d2; stroke-linecap:butt; stroke-linejoin:round; stroke-width:4; stroke-opacity:1; fill:none" points="
  274.149,1433.78 293.857,1424.37 476.087,1337.39 585.599,1285.12 678.19,1240.93 778.77,1192.92 871.496,1148.66 970.908,1101.21 1086.09,1046.23 1188.44,997.379 
  1278.2,954.537 1376.06,907.827 1474.5,860.84 1583.34,808.889 1686.9,759.46 1794.58,708.065 1885.22,664.801 1995.88,611.981 2099.91,562.328 2266.57,482.781 
  2292.21,470.539 
  "/>
<path clip-path="url(#clip030)" d="
M284.912 354.008 L576.739 354.008 L576.739 94.8081 L284.912 94.8081  Z
  " fill="#ffffff" fill-rule="evenodd" fill-opacity="1"/>
<polyline clip-path="url(#clip030)" style="stroke:#000000; stroke-linecap:butt; stroke-linejoin:round; stroke-width:4; stroke-opacity:1; fill:none" points="
  284.912,354.008 576.739,354.008 576.739,94.8081 284.912,94.8081 284.912,354.008 
  "/>
<polyline clip-path="url(#clip030)" style="stroke:#009af9; stroke-linecap:butt; stroke-linejoin:round; stroke-width:4; stroke-opacity:1; fill:none" points="
  308.681,146.648 451.291,146.648 
  "/>
<circle clip-path="url(#clip030)" cx="379.986" cy="146.648" r="23" fill="#009af9" fill-rule="evenodd" fill-opacity="1" stroke="#000000" stroke-opacity="1" stroke-width="5.12"/>
<path clip-path="url(#clip030)" d="M488.901 166.336 Q487.096 170.965 485.383 172.377 Q483.67 173.789 480.8 173.789 L477.397 173.789 L477.397 170.224 L479.897 170.224 Q481.656 170.224 482.628 169.391 Q483.601 168.558 484.781 165.456 L485.545 163.511 L475.059 138.002 L479.573 138.002 L487.675 158.28 L495.776 138.002 L500.29 138.002 L488.901 166.336 Z" fill="#000000" fill-rule="evenodd" fill-opacity="1" /><path clip-path="url(#clip030)" d="M507.582 159.993 L515.221 159.993 L515.221 133.627 L506.911 135.294 L506.911 131.035 L515.174 129.368 L519.85 129.368 L519.85 159.993 L527.489 159.993 L527.489 163.928 L507.582 163.928 L507.582 159.993 Z" fill="#000000" fill-rule="evenodd" fill-opacity="1" /><polyline clip-path="url(#clip030)" style="stroke:#e26f46; stroke-linecap:butt; stroke-linejoin:round; stroke-width:4; stroke-opacity:1; fill:none" points="
  308.681,198.488 451.291,198.488 
  "/>
<path clip-path="url(#clip030)" d="M354.386 172.888 L354.386 224.088 L405.586 224.088 L405.586 172.888 L354.386 172.888 Z" fill="#e26f46" fill-rule="evenodd" fill-opacity="1" stroke="#000000" stroke-opacity="1" stroke-width="5.12"/>
<path clip-path="url(#clip030)" d="M488.901 218.176 Q487.096 222.805 485.383 224.217 Q483.67 225.629 480.8 225.629 L477.397 225.629 L477.397 222.064 L479.897 222.064 Q481.656 222.064 482.628 221.231 Q483.601 220.398 484.781 217.296 L485.545 215.351 L475.059 189.842 L479.573 189.842 L487.675 210.12 L495.776 189.842 L500.29 189.842 L488.901 218.176 Z" fill="#000000" fill-rule="evenodd" fill-opacity="1" /><path clip-path="url(#clip030)" d="M510.8 211.833 L527.119 211.833 L527.119 215.768 L505.175 215.768 L505.175 211.833 Q507.837 209.078 512.42 204.449 Q517.026 199.796 518.207 198.453 Q520.452 195.93 521.332 194.194 Q522.235 192.435 522.235 190.745 Q522.235 187.99 520.29 186.254 Q518.369 184.518 515.267 184.518 Q513.068 184.518 510.614 185.282 Q508.184 186.046 505.406 187.597 L505.406 182.875 Q508.23 181.741 510.684 181.162 Q513.137 180.583 515.174 180.583 Q520.545 180.583 523.739 183.268 Q526.934 185.953 526.934 190.444 Q526.934 192.574 526.123 194.495 Q525.336 196.393 523.23 198.986 Q522.651 199.657 519.549 202.875 Q516.448 206.069 510.8 211.833 Z" fill="#000000" fill-rule="evenodd" fill-opacity="1" /><polyline clip-path="url(#clip030)" style="stroke:#3da44d; stroke-linecap:butt; stroke-linejoin:round; stroke-width:4; stroke-opacity:1; fill:none" points="
  308.681,250.328 451.291,250.328 
  "/>
<path clip-path="url(#clip030)" d="M488.901 270.016 Q487.096 274.645 485.383 276.057 Q483.67 277.469 480.8 277.469 L477.397 277.469 L477.397 273.904 L479.897 273.904 Q481.656 273.904 482.628 273.071 Q483.601 272.238 484.781 269.136 L485.545 267.191 L475.059 241.682 L479.573 241.682 L487.675 261.96 L495.776 241.682 L500.29 241.682 L488.901 270.016 Z" fill="#000000" fill-rule="evenodd" fill-opacity="1" /><path clip-path="url(#clip030)" d="M520.938 248.974 Q524.295 249.692 526.17 251.96 Q528.068 254.229 528.068 257.562 Q528.068 262.678 524.549 265.478 Q521.031 268.279 514.549 268.279 Q512.374 268.279 510.059 267.84 Q507.767 267.423 505.313 266.566 L505.313 262.053 Q507.258 263.187 509.573 263.766 Q511.887 264.344 514.411 264.344 Q518.809 264.344 521.1 262.608 Q523.415 260.872 523.415 257.562 Q523.415 254.506 521.262 252.793 Q519.133 251.057 515.313 251.057 L511.286 251.057 L511.286 247.215 L515.499 247.215 Q518.948 247.215 520.776 245.849 Q522.605 244.46 522.605 241.868 Q522.605 239.205 520.707 237.793 Q518.832 236.358 515.313 236.358 Q513.392 236.358 511.193 236.775 Q508.994 237.192 506.355 238.071 L506.355 233.905 Q509.017 233.164 511.332 232.793 Q513.67 232.423 515.73 232.423 Q521.054 232.423 524.156 234.854 Q527.258 237.261 527.258 241.381 Q527.258 244.252 525.614 246.242 Q523.971 248.21 520.938 248.974 Z" fill="#000000" fill-rule="evenodd" fill-opacity="1" /><polyline clip-path="url(#clip030)" style="stroke:#c271d2; stroke-linecap:butt; stroke-linejoin:round; stroke-width:4; stroke-opacity:1; fill:none" points="
  308.681,302.168 451.291,302.168 
  "/>
<path clip-path="url(#clip030)" d="M488.901 321.856 Q487.096 326.485 485.383 327.897 Q483.67 329.309 480.8 329.309 L477.397 329.309 L477.397 325.744 L479.897 325.744 Q481.656 325.744 482.628 324.911 Q483.601 324.078 484.781 320.976 L485.545 319.031 L475.059 293.522 L479.573 293.522 L487.675 313.8 L495.776 293.522 L500.29 293.522 L488.901 321.856 Z" fill="#000000" fill-rule="evenodd" fill-opacity="1" /><path clip-path="url(#clip030)" d="M519.619 288.962 L507.813 307.411 L519.619 307.411 L519.619 288.962 M518.392 284.888 L524.272 284.888 L524.272 307.411 L529.202 307.411 L529.202 311.3 L524.272 311.3 L524.272 319.448 L519.619 319.448 L519.619 311.3 L504.017 311.3 L504.017 306.786 L518.392 284.888 Z" fill="#000000" fill-rule="evenodd" fill-opacity="1" /></svg>
