<?xml version="1.0" encoding="utf-8"?>
<svg xmlns="http://www.w3.org/2000/svg" xmlns:xlink="http://www.w3.org/1999/xlink" width="600" height="400" viewBox="0 0 2400 1600">
<defs>
  <clipPath id="clip570">
    <rect x="0" y="0" width="2400" height="1600"/>
  </clipPath>
</defs>
<path clip-path="url(#clip570)" d="
M0 1600 L2400 1600 L2400 0 L0 0  Z
  " fill="#ffffff" fill-rule="evenodd" fill-opacity="1"/>
<defs>
  <clipPath id="clip571">
    <rect x="480" y="0" width="1681" height="1600"/>
  </clipPath>
</defs>
<path clip-path="url(#clip570)" d="
M148.057 1486.45 L2352.76 1486.45 L2352.76 47.2441 L148.057 47.2441  Z
  " fill="#ffffff" fill-rule="evenodd" fill-opacity="1"/>
<defs>
  <clipPath id="clip572">
    <rect x="148" y="47" width="2206" height="1440"/>
  </clipPath>
</defs>
<polyline clip-path="url(#clip572)" style="stroke:#000000; stroke-linecap:butt; stroke-linejoin:round; stroke-width:2; stroke-opacity:0.1; fill:none" points="
  210.454,1486.45 210.454,47.2441 
  "/>
<polyline clip-path="url(#clip572)" style="stroke:#000000; stroke-linecap:butt; stroke-linejoin:round; stroke-width:2; stroke-opacity:0.1; fill:none" points="
  626.435,1486.45 626.435,47.2441 
  "/>
<polyline clip-path="url(#clip572)" style="stroke:#000000; stroke-linecap:butt; stroke-linejoin:round; stroke-width:2; stroke-opacity:0.1; fill:none" points="
  1042.42,1486.45 1042.42,47.2441 
  "/>
<polyline clip-path="url(#clip572)" style="stroke:#000000; stroke-linecap:butt; stroke-linejoin:round; stroke-width:2; stroke-opacity:0.1; fill:none" points="
  1458.4,1486.45 1458.4,47.2441 
  "/>
<polyline clip-path="url(#clip572)" style="stroke:#000000; stroke-linecap:butt; stroke-linejoin:round; stroke-width:2; stroke-opacity:0.1; fill:none" points="
  1874.38,1486.45 1874.38,47.2441 
  "/>
<polyline clip-path="url(#clip572)" style="stroke:#000000; stroke-linecap:butt; stroke-linejoin:round; stroke-width:2; stroke-opacity:0.1; fill:none" points="
  2290.36,1486.45 2290.36,47.2441 
  "/>
<polyline clip-path="url(#clip570)" style="stroke:#000000; stroke-linecap:butt; stroke-linejoin:round; stroke-width:4; stroke-opacity:1; fill:none" points="
  148.057,1486.45 2352.76,1486.45 
  "/>
<polyline clip-path="url(#clip570)" style="stroke:#000000; stroke-linecap:butt; stroke-linejoin:round; stroke-width:4; stroke-opacity:1; fill:none" points="
  210.454,1486.45 210.454,1467.55 
  "/>
<polyline clip-path="url(#clip570)" style="stroke:#000000; stroke-linecap:butt; stroke-linejoin:round; stroke-width:4; stroke-opacity:1; fill:none" points="
  626.435,1486.45 626.435,1467.55 
  "/>
<polyline clip-path="url(#clip570)" style="stroke:#000000; stroke-linecap:butt; stroke-linejoin:round; stroke-width:4; stroke-opacity:1; fill:none" points="
  1042.42,1486.45 1042.42,1467.55 
  "/>
<polyline clip-path="url(#clip570)" style="stroke:#000000; stroke-linecap:butt; stroke-linejoin:round; stroke-width:4; stroke-opacity:1; fill:none" points="
  1458.4,1486.45 1458.4,1467.55 
  "/>
<polyline clip-path="url(#clip570)" style="stroke:#000000; stroke-linecap:butt; stroke-linejoin:round; stroke-width:4; stroke-opacity:1; fill:none" points="
  1874.38,1486.45 1874.38,1467.55 
  "/>
<polyline clip-path="url(#clip570)" style="stroke:#000000; stroke-linecap:butt; stroke-linejoin:round; stroke-width:4; stroke-opacity:1; fill:none" points="
  2290.36,1486.45 2290.36,1467.55 
  "/>
<path clip-path="url(#clip570)" d="M210.454 1517.37 Q206.843 1517.37 205.014 1520.93 Q203.208 1524.47 203.208 1531.6 Q203.208 1538.71 205.014 1542.27 Q206.843 1545.82 210.454 1545.82 Q214.088 1545.82 215.894 1542.27 Q217.722 1538.71 217.722 1531.6 Q217.722 1524.47 215.894 1520.93 Q214.088 1517.37 210.454 1517.37 M210.454 1513.66 Q216.264 1513.66 219.319 1518.27 Q222.398 1522.85 222.398 1531.6 Q222.398 1540.33 219.319 1544.94 Q216.264 1549.52 210.454 1549.52 Q204.644 1549.52 201.565 1544.94 Q198.509 1540.33 198.509 1531.6 Q198.509 1522.85 201.565 1518.27 Q204.644 1513.66 210.454 1513.66 Z" fill="#000000" fill-rule="evenodd" fill-opacity="1" /><path clip-path="url(#clip570)" d="M616.817 1544.91 L624.456 1544.91 L624.456 1518.55 L616.145 1520.21 L616.145 1515.95 L624.409 1514.29 L629.085 1514.29 L629.085 1544.91 L636.724 1544.91 L636.724 1548.85 L616.817 1548.85 L616.817 1544.91 Z" fill="#000000" fill-rule="evenodd" fill-opacity="1" /><path clip-path="url(#clip570)" d="M1037.07 1544.91 L1053.39 1544.91 L1053.39 1548.85 L1031.44 1548.85 L1031.44 1544.91 Q1034.11 1542.16 1038.69 1537.53 Q1043.3 1532.88 1044.48 1531.53 Q1046.72 1529.01 1047.6 1527.27 Q1048.5 1525.51 1048.5 1523.82 Q1048.5 1521.07 1046.56 1519.33 Q1044.64 1517.6 1041.54 1517.6 Q1039.34 1517.6 1036.88 1518.36 Q1034.45 1519.13 1031.68 1520.68 L1031.68 1515.95 Q1034.5 1514.82 1036.95 1514.24 Q1039.41 1513.66 1041.44 1513.66 Q1046.81 1513.66 1050.01 1516.35 Q1053.2 1519.03 1053.2 1523.52 Q1053.2 1525.65 1052.39 1527.57 Q1051.61 1529.47 1049.5 1532.07 Q1048.92 1532.74 1045.82 1535.95 Q1042.72 1539.15 1037.07 1544.91 Z" fill="#000000" fill-rule="evenodd" fill-opacity="1" /><path clip-path="url(#clip570)" d="M1462.64 1530.21 Q1466 1530.93 1467.88 1533.2 Q1469.77 1535.47 1469.77 1538.8 Q1469.77 1543.92 1466.26 1546.72 Q1462.74 1549.52 1456.26 1549.52 Q1454.08 1549.52 1451.76 1549.08 Q1449.47 1548.66 1447.02 1547.81 L1447.02 1543.29 Q1448.96 1544.43 1451.28 1545.01 Q1453.59 1545.58 1456.12 1545.58 Q1460.51 1545.58 1462.81 1543.85 Q1465.12 1542.11 1465.12 1538.8 Q1465.12 1535.75 1462.97 1534.03 Q1460.84 1532.3 1457.02 1532.3 L1452.99 1532.3 L1452.99 1528.45 L1457.2 1528.45 Q1460.65 1528.45 1462.48 1527.09 Q1464.31 1525.7 1464.31 1523.11 Q1464.31 1520.45 1462.41 1519.03 Q1460.54 1517.6 1457.02 1517.6 Q1455.1 1517.6 1452.9 1518.01 Q1450.7 1518.43 1448.06 1519.31 L1448.06 1515.14 Q1450.72 1514.4 1453.04 1514.03 Q1455.38 1513.66 1457.44 1513.66 Q1462.76 1513.66 1465.86 1516.09 Q1468.96 1518.5 1468.96 1522.62 Q1468.96 1525.49 1467.32 1527.48 Q1465.68 1529.45 1462.64 1530.21 Z" fill="#000000" fill-rule="evenodd" fill-opacity="1" /><path clip-path="url(#clip570)" d="M1877.39 1518.36 L1865.58 1536.81 L1877.39 1536.81 L1877.39 1518.36 M1876.16 1514.29 L1882.04 1514.29 L1882.04 1536.81 L1886.97 1536.81 L1886.97 1540.7 L1882.04 1540.7 L1882.04 1548.85 L1877.39 1548.85 L1877.39 1540.7 L1861.79 1540.7 L1861.79 1536.19 L1876.16 1514.29 Z" fill="#000000" fill-rule="evenodd" fill-opacity="1" /><path clip-path="url(#clip570)" d="M2280.64 1514.29 L2298.99 1514.29 L2298.99 1518.22 L2284.92 1518.22 L2284.92 1526.7 Q2285.94 1526.35 2286.96 1526.19 Q2287.97 1526 2288.99 1526 Q2294.78 1526 2298.16 1529.17 Q2301.54 1532.34 2301.54 1537.76 Q2301.54 1543.34 2298.07 1546.44 Q2294.59 1549.52 2288.28 1549.52 Q2286.1 1549.52 2283.83 1549.15 Q2281.59 1548.78 2279.18 1548.04 L2279.18 1543.34 Q2281.26 1544.47 2283.48 1545.03 Q2285.71 1545.58 2288.18 1545.58 Q2292.19 1545.58 2294.53 1543.48 Q2296.86 1541.37 2296.86 1537.76 Q2296.86 1534.15 2294.53 1532.04 Q2292.19 1529.94 2288.18 1529.94 Q2286.31 1529.94 2284.43 1530.35 Q2282.58 1530.77 2280.64 1531.65 L2280.64 1514.29 Z" fill="#000000" fill-rule="evenodd" fill-opacity="1" /><polyline clip-path="url(#clip572)" style="stroke:#000000; stroke-linecap:butt; stroke-linejoin:round; stroke-width:2; stroke-opacity:0.1; fill:none" points="
  148.057,1415.34 2352.76,1415.34 
  "/>
<polyline clip-path="url(#clip572)" style="stroke:#000000; stroke-linecap:butt; stroke-linejoin:round; stroke-width:2; stroke-opacity:0.1; fill:none" points="
  148.057,1215.76 2352.76,1215.76 
  "/>
<polyline clip-path="url(#clip572)" style="stroke:#000000; stroke-linecap:butt; stroke-linejoin:round; stroke-width:2; stroke-opacity:0.1; fill:none" points="
  148.057,1016.18 2352.76,1016.18 
  "/>
<polyline clip-path="url(#clip572)" style="stroke:#000000; stroke-linecap:butt; stroke-linejoin:round; stroke-width:2; stroke-opacity:0.1; fill:none" points="
  148.057,816.597 2352.76,816.597 
  "/>
<polyline clip-path="url(#clip572)" style="stroke:#000000; stroke-linecap:butt; stroke-linejoin:round; stroke-width:2; stroke-opacity:0.1; fill:none" points="
  148.057,617.016 2352.76,617.016 
  "/>
<polyline clip-path="url(#clip572)" style="stroke:#000000; stroke-linecap:butt; stroke-linejoin:round; stroke-width:2; stroke-opacity:0.1; fill:none" points="
  148.057,417.436 2352.76,417.436 
  "/>
<polyline clip-path="url(#clip572)" style="stroke:#000000; stroke-linecap:butt; stroke-linejoin:round; stroke-width:2; stroke-opacity:0.1; fill:none" points="
  148.057,217.855 2352.76,217.855 
  "/>
<polyline clip-path="url(#clip570)" style="stroke:#000000; stroke-linecap:butt; stroke-linejoin:round; stroke-width:4; stroke-opacity:1; fill:none" points="
  148.057,1486.45 148.057,47.2441 
  "/>
<polyline clip-path="url(#clip570)" style="stroke:#000000; stroke-linecap:butt; stroke-linejoin:round; stroke-width:4; stroke-opacity:1; fill:none" points="
  148.057,1415.34 166.954,1415.34 
  "/>
<polyline clip-path="url(#clip570)" style="stroke:#000000; stroke-linecap:butt; stroke-linejoin:round; stroke-width:4; stroke-opacity:1; fill:none" points="
  148.057,1215.76 166.954,1215.76 
  "/>
<polyline clip-path="url(#clip570)" style="stroke:#000000; stroke-linecap:butt; stroke-linejoin:round; stroke-width:4; stroke-opacity:1; fill:none" points="
  148.057,1016.18 166.954,1016.18 
  "/>
<polyline clip-path="url(#clip570)" style="stroke:#000000; stroke-linecap:butt; stroke-linejoin:round; stroke-width:4; stroke-opacity:1; fill:none" points="
  148.057,816.597 166.954,816.597 
  "/>
<polyline clip-path="url(#clip570)" style="stroke:#000000; stroke-linecap:butt; stroke-linejoin:round; stroke-width:4; stroke-opacity:1; fill:none" points="
  148.057,617.016 166.954,617.016 
  "/>
<polyline clip-path="url(#clip570)" style="stroke:#000000; stroke-linecap:butt; stroke-linejoin:round; stroke-width:4; stroke-opacity:1; fill:none" points="
  148.057,417.436 166.954,417.436 
  "/>
<polyline clip-path="url(#clip570)" style="stroke:#000000; stroke-linecap:butt; stroke-linejoin:round; stroke-width:4; stroke-opacity:1; fill:none" points="
  148.057,217.855 166.954,217.855 
  "/>
<path clip-path="url(#clip570)" d="M50.9921 1415.79 L80.6679 1415.79 L80.6679 1419.73 L50.9921 1419.73 L50.9921 1415.79 Z" fill="#000000" fill-rule="evenodd" fill-opacity="1" /><path clip-path="url(#clip570)" d="M104.927 1413.98 Q108.283 1414.7 110.158 1416.97 Q112.057 1419.24 112.057 1422.57 Q112.057 1427.69 108.538 1430.49 Q105.02 1433.29 98.5382 1433.29 Q96.3623 1433.29 94.0475 1432.85 Q91.7558 1432.43 89.3021 1431.58 L89.3021 1427.06 Q91.2465 1428.2 93.5613 1428.78 Q95.8761 1429.35 98.3993 1429.35 Q102.797 1429.35 105.089 1427.62 Q107.404 1425.88 107.404 1422.57 Q107.404 1419.52 105.251 1417.8 Q103.121 1416.07 99.3021 1416.07 L95.2743 1416.07 L95.2743 1412.23 L99.4872 1412.23 Q102.936 1412.23 104.765 1410.86 Q106.594 1409.47 106.594 1406.88 Q106.594 1404.22 104.696 1402.8 Q102.821 1401.37 99.3021 1401.37 Q97.3808 1401.37 95.1817 1401.79 Q92.9826 1402.2 90.3438 1403.08 L90.3438 1398.91 Q93.0058 1398.17 95.3206 1397.8 Q97.6585 1397.43 99.7187 1397.43 Q105.043 1397.43 108.145 1399.86 Q111.246 1402.27 111.246 1406.39 Q111.246 1409.26 109.603 1411.25 Q107.959 1413.22 104.927 1413.98 Z" fill="#000000" fill-rule="evenodd" fill-opacity="1" /><path clip-path="url(#clip570)" d="M51.9412 1216.21 L81.617 1216.21 L81.617 1220.14 L51.9412 1220.14 L51.9412 1216.21 Z" fill="#000000" fill-rule="evenodd" fill-opacity="1" /><path clip-path="url(#clip570)" d="M95.7373 1229.1 L112.057 1229.1 L112.057 1233.04 L90.1123 1233.04 L90.1123 1229.1 Q92.7743 1226.35 97.3576 1221.72 Q101.964 1217.07 103.145 1215.72 Q105.39 1213.2 106.27 1211.46 Q107.172 1209.7 107.172 1208.01 Q107.172 1205.26 105.228 1203.52 Q103.307 1201.79 100.205 1201.79 Q98.0058 1201.79 95.5521 1202.55 Q93.1215 1203.32 90.3438 1204.87 L90.3438 1200.14 Q93.1678 1199.01 95.6215 1198.43 Q98.0752 1197.85 100.112 1197.85 Q105.483 1197.85 108.677 1200.54 Q111.871 1203.22 111.871 1207.71 Q111.871 1209.84 111.061 1211.76 Q110.274 1213.66 108.168 1216.26 Q107.589 1216.93 104.487 1220.14 Q101.385 1223.34 95.7373 1229.1 Z" fill="#000000" fill-rule="evenodd" fill-opacity="1" /><path clip-path="url(#clip570)" d="M51.5708 1016.63 L81.2466 1016.63 L81.2466 1020.56 L51.5708 1020.56 L51.5708 1016.63 Z" fill="#000000" fill-rule="evenodd" fill-opacity="1" /><path clip-path="url(#clip570)" d="M92.1493 1029.52 L99.7882 1029.52 L99.7882 1003.16 L91.478 1004.82 L91.478 1000.56 L99.7419 998.897 L104.418 998.897 L104.418 1029.52 L112.057 1029.52 L112.057 1033.46 L92.1493 1033.46 L92.1493 1029.52 Z" fill="#000000" fill-rule="evenodd" fill-opacity="1" /><path clip-path="url(#clip570)" d="M100.112 802.395 Q96.5011 802.395 94.6724 805.96 Q92.8669 809.502 92.8669 816.632 Q92.8669 823.738 94.6724 827.303 Q96.5011 830.844 100.112 830.844 Q103.746 830.844 105.552 827.303 Q107.381 823.738 107.381 816.632 Q107.381 809.502 105.552 805.96 Q103.746 802.395 100.112 802.395 M100.112 798.692 Q105.922 798.692 108.978 803.298 Q112.057 807.882 112.057 816.632 Q112.057 825.358 108.978 829.965 Q105.922 834.548 100.112 834.548 Q94.3021 834.548 91.2234 829.965 Q88.1679 825.358 88.1679 816.632 Q88.1679 807.882 91.2234 803.298 Q94.3021 798.692 100.112 798.692 Z" fill="#000000" fill-rule="evenodd" fill-opacity="1" /><path clip-path="url(#clip570)" d="M92.1493 630.361 L99.7882 630.361 L99.7882 603.995 L91.478 605.662 L91.478 601.403 L99.7419 599.736 L104.418 599.736 L104.418 630.361 L112.057 630.361 L112.057 634.296 L92.1493 634.296 L92.1493 630.361 Z" fill="#000000" fill-rule="evenodd" fill-opacity="1" /><path clip-path="url(#clip570)" d="M95.7373 430.78 L112.057 430.78 L112.057 434.716 L90.1123 434.716 L90.1123 430.78 Q92.7743 428.026 97.3576 423.396 Q101.964 418.744 103.145 417.401 Q105.39 414.878 106.27 413.142 Q107.172 411.382 107.172 409.693 Q107.172 406.938 105.228 405.202 Q103.307 403.466 100.205 403.466 Q98.0058 403.466 95.5521 404.23 Q93.1215 404.994 90.3438 406.545 L90.3438 401.822 Q93.1678 400.688 95.6215 400.109 Q98.0752 399.531 100.112 399.531 Q105.483 399.531 108.677 402.216 Q111.871 404.901 111.871 409.392 Q111.871 411.521 111.061 413.443 Q110.274 415.341 108.168 417.933 Q107.589 418.605 104.487 421.822 Q101.385 425.017 95.7373 430.78 Z" fill="#000000" fill-rule="evenodd" fill-opacity="1" /><path clip-path="url(#clip570)" d="M104.927 216.501 Q108.283 217.219 110.158 219.487 Q112.057 221.756 112.057 225.089 Q112.057 230.205 108.538 233.005 Q105.02 235.806 98.5382 235.806 Q96.3623 235.806 94.0475 235.367 Q91.7558 234.95 89.3021 234.093 L89.3021 229.58 Q91.2465 230.714 93.5613 231.293 Q95.8761 231.871 98.3993 231.871 Q102.797 231.871 105.089 230.135 Q107.404 228.399 107.404 225.089 Q107.404 222.033 105.251 220.32 Q103.121 218.584 99.3021 218.584 L95.2743 218.584 L95.2743 214.742 L99.4872 214.742 Q102.936 214.742 104.765 213.376 Q106.594 211.987 106.594 209.394 Q106.594 206.732 104.696 205.32 Q102.821 203.885 99.3021 203.885 Q97.3808 203.885 95.1817 204.302 Q92.9826 204.719 90.3438 205.598 L90.3438 201.432 Q93.0058 200.691 95.3206 200.32 Q97.6585 199.95 99.7187 199.95 Q105.043 199.95 108.145 202.381 Q111.246 204.788 111.246 208.908 Q111.246 211.779 109.603 213.769 Q107.959 215.737 104.927 216.501 Z" fill="#000000" fill-rule="evenodd" fill-opacity="1" /><circle clip-path="url(#clip572)" cx="210.454" cy="716.807" r="14" fill="#009af9" fill-rule="evenodd" fill-opacity="1" stroke="#000000" stroke-opacity="1" stroke-width="3.2"/>
<circle clip-path="url(#clip572)" cx="252.884" cy="513.234" r="14" fill="#009af9" fill-rule="evenodd" fill-opacity="1" stroke="#000000" stroke-opacity="1" stroke-width="3.2"/>
<circle clip-path="url(#clip572)" cx="295.314" cy="727.066" r="14" fill="#009af9" fill-rule="evenodd" fill-opacity="1" stroke="#000000" stroke-opacity="1" stroke-width="3.2"/>
<circle clip-path="url(#clip572)" cx="337.744" cy="511.007" r="14" fill="#009af9" fill-rule="evenodd" fill-opacity="1" stroke="#000000" stroke-opacity="1" stroke-width="3.2"/>
<circle clip-path="url(#clip572)" cx="380.174" cy="746.179" r="14" fill="#009af9" fill-rule="evenodd" fill-opacity="1" stroke="#000000" stroke-opacity="1" stroke-width="3.2"/>
<circle clip-path="url(#clip572)" cx="422.604" cy="516.107" r="14" fill="#009af9" fill-rule="evenodd" fill-opacity="1" stroke="#000000" stroke-opacity="1" stroke-width="3.2"/>
<circle clip-path="url(#clip572)" cx="465.034" cy="773.773" r="14" fill="#009af9" fill-rule="evenodd" fill-opacity="1" stroke="#000000" stroke-opacity="1" stroke-width="3.2"/>
<circle clip-path="url(#clip572)" cx="507.464" cy="527.886" r="14" fill="#009af9" fill-rule="evenodd" fill-opacity="1" stroke="#000000" stroke-opacity="1" stroke-width="3.2"/>
<circle clip-path="url(#clip572)" cx="549.894" cy="809.158" r="14" fill="#009af9" fill-rule="evenodd" fill-opacity="1" stroke="#000000" stroke-opacity="1" stroke-width="3.2"/>
<circle clip-path="url(#clip572)" cx="592.324" cy="545.382" r="14" fill="#009af9" fill-rule="evenodd" fill-opacity="1" stroke="#000000" stroke-opacity="1" stroke-width="3.2"/>
<circle clip-path="url(#clip572)" cx="634.754" cy="851.356" r="14" fill="#009af9" fill-rule="evenodd" fill-opacity="1" stroke="#000000" stroke-opacity="1" stroke-width="3.2"/>
<circle clip-path="url(#clip572)" cx="677.184" cy="567.362" r="14" fill="#009af9" fill-rule="evenodd" fill-opacity="1" stroke="#000000" stroke-opacity="1" stroke-width="3.2"/>
<circle clip-path="url(#clip572)" cx="719.615" cy="899.149" r="14" fill="#009af9" fill-rule="evenodd" fill-opacity="1" stroke="#000000" stroke-opacity="1" stroke-width="3.2"/>
<circle clip-path="url(#clip572)" cx="762.045" cy="592.36" r="14" fill="#009af9" fill-rule="evenodd" fill-opacity="1" stroke="#000000" stroke-opacity="1" stroke-width="3.2"/>
<circle clip-path="url(#clip572)" cx="804.475" cy="951.129" r="14" fill="#009af9" fill-rule="evenodd" fill-opacity="1" stroke="#000000" stroke-opacity="1" stroke-width="3.2"/>
<circle clip-path="url(#clip572)" cx="846.905" cy="618.742" r="14" fill="#009af9" fill-rule="evenodd" fill-opacity="1" stroke="#000000" stroke-opacity="1" stroke-width="3.2"/>
<circle clip-path="url(#clip572)" cx="889.335" cy="1005.76" r="14" fill="#009af9" fill-rule="evenodd" fill-opacity="1" stroke="#000000" stroke-opacity="1" stroke-width="3.2"/>
<circle clip-path="url(#clip572)" cx="931.765" cy="644.77" r="14" fill="#009af9" fill-rule="evenodd" fill-opacity="1" stroke="#000000" stroke-opacity="1" stroke-width="3.2"/>
<circle clip-path="url(#clip572)" cx="974.195" cy="1061.45" r="14" fill="#009af9" fill-rule="evenodd" fill-opacity="1" stroke="#000000" stroke-opacity="1" stroke-width="3.2"/>
<circle clip-path="url(#clip572)" cx="1016.62" cy="668.665" r="14" fill="#009af9" fill-rule="evenodd" fill-opacity="1" stroke="#000000" stroke-opacity="1" stroke-width="3.2"/>
<circle clip-path="url(#clip572)" cx="1059.06" cy="1116.61" r="14" fill="#009af9" fill-rule="evenodd" fill-opacity="1" stroke="#000000" stroke-opacity="1" stroke-width="3.2"/>
<circle clip-path="url(#clip572)" cx="1101.49" cy="688.681" r="14" fill="#009af9" fill-rule="evenodd" fill-opacity="1" stroke="#000000" stroke-opacity="1" stroke-width="3.2"/>
<circle clip-path="url(#clip572)" cx="1143.92" cy="1169.75" r="14" fill="#009af9" fill-rule="evenodd" fill-opacity="1" stroke="#000000" stroke-opacity="1" stroke-width="3.2"/>
<circle clip-path="url(#clip572)" cx="1186.35" cy="703.169" r="14" fill="#009af9" fill-rule="evenodd" fill-opacity="1" stroke="#000000" stroke-opacity="1" stroke-width="3.2"/>
<circle clip-path="url(#clip572)" cx="1228.78" cy="1219.51" r="14" fill="#009af9" fill-rule="evenodd" fill-opacity="1" stroke="#000000" stroke-opacity="1" stroke-width="3.2"/>
<circle clip-path="url(#clip572)" cx="1271.21" cy="710.646" r="14" fill="#009af9" fill-rule="evenodd" fill-opacity="1" stroke="#000000" stroke-opacity="1" stroke-width="3.2"/>
<circle clip-path="url(#clip572)" cx="1313.64" cy="1264.74" r="14" fill="#009af9" fill-rule="evenodd" fill-opacity="1" stroke="#000000" stroke-opacity="1" stroke-width="3.2"/>
<circle clip-path="url(#clip572)" cx="1356.07" cy="709.846" r="14" fill="#009af9" fill-rule="evenodd" fill-opacity="1" stroke="#000000" stroke-opacity="1" stroke-width="3.2"/>
<circle clip-path="url(#clip572)" cx="1398.5" cy="1304.56" r="14" fill="#009af9" fill-rule="evenodd" fill-opacity="1" stroke="#000000" stroke-opacity="1" stroke-width="3.2"/>
<circle clip-path="url(#clip572)" cx="1440.93" cy="699.767" r="14" fill="#009af9" fill-rule="evenodd" fill-opacity="1" stroke="#000000" stroke-opacity="1" stroke-width="3.2"/>
<circle clip-path="url(#clip572)" cx="1483.36" cy="1338.4" r="14" fill="#009af9" fill-rule="evenodd" fill-opacity="1" stroke="#000000" stroke-opacity="1" stroke-width="3.2"/>
<circle clip-path="url(#clip572)" cx="1525.79" cy="679.71" r="14" fill="#009af9" fill-rule="evenodd" fill-opacity="1" stroke="#000000" stroke-opacity="1" stroke-width="3.2"/>
<circle clip-path="url(#clip572)" cx="1568.22" cy="1366.02" r="14" fill="#009af9" fill-rule="evenodd" fill-opacity="1" stroke="#000000" stroke-opacity="1" stroke-width="3.2"/>
<circle clip-path="url(#clip572)" cx="1610.65" cy="649.296" r="14" fill="#009af9" fill-rule="evenodd" fill-opacity="1" stroke="#000000" stroke-opacity="1" stroke-width="3.2"/>
<circle clip-path="url(#clip572)" cx="1653.08" cy="1387.53" r="14" fill="#009af9" fill-rule="evenodd" fill-opacity="1" stroke="#000000" stroke-opacity="1" stroke-width="3.2"/>
<circle clip-path="url(#clip572)" cx="1695.51" cy="608.478" r="14" fill="#009af9" fill-rule="evenodd" fill-opacity="1" stroke="#000000" stroke-opacity="1" stroke-width="3.2"/>
<circle clip-path="url(#clip572)" cx="1737.94" cy="1403.39" r="14" fill="#009af9" fill-rule="evenodd" fill-opacity="1" stroke="#000000" stroke-opacity="1" stroke-width="3.2"/>
<circle clip-path="url(#clip572)" cx="1780.37" cy="557.535" r="14" fill="#009af9" fill-rule="evenodd" fill-opacity="1" stroke="#000000" stroke-opacity="1" stroke-width="3.2"/>
<circle clip-path="url(#clip572)" cx="1822.8" cy="1414.43" r="14" fill="#009af9" fill-rule="evenodd" fill-opacity="1" stroke="#000000" stroke-opacity="1" stroke-width="3.2"/>
<circle clip-path="url(#clip572)" cx="1865.23" cy="497.048" r="14" fill="#009af9" fill-rule="evenodd" fill-opacity="1" stroke="#000000" stroke-opacity="1" stroke-width="3.2"/>
<circle clip-path="url(#clip572)" cx="1907.66" cy="1421.77" r="14" fill="#009af9" fill-rule="evenodd" fill-opacity="1" stroke="#000000" stroke-opacity="1" stroke-width="3.2"/>
<circle clip-path="url(#clip572)" cx="1950.09" cy="427.87" r="14" fill="#009af9" fill-rule="evenodd" fill-opacity="1" stroke="#000000" stroke-opacity="1" stroke-width="3.2"/>
<circle clip-path="url(#clip572)" cx="1992.52" cy="1426.83" r="14" fill="#009af9" fill-rule="evenodd" fill-opacity="1" stroke="#000000" stroke-opacity="1" stroke-width="3.2"/>
<circle clip-path="url(#clip572)" cx="2034.95" cy="351.08" r="14" fill="#009af9" fill-rule="evenodd" fill-opacity="1" stroke="#000000" stroke-opacity="1" stroke-width="3.2"/>
<circle clip-path="url(#clip572)" cx="2077.38" cy="1431.27" r="14" fill="#009af9" fill-rule="evenodd" fill-opacity="1" stroke="#000000" stroke-opacity="1" stroke-width="3.2"/>
<circle clip-path="url(#clip572)" cx="2119.81" cy="267.926" r="14" fill="#009af9" fill-rule="evenodd" fill-opacity="1" stroke="#000000" stroke-opacity="1" stroke-width="3.2"/>
<circle clip-path="url(#clip572)" cx="2162.24" cy="1436.92" r="14" fill="#009af9" fill-rule="evenodd" fill-opacity="1" stroke="#000000" stroke-opacity="1" stroke-width="3.2"/>
<circle clip-path="url(#clip572)" cx="2204.67" cy="179.761" r="14" fill="#009af9" fill-rule="evenodd" fill-opacity="1" stroke="#000000" stroke-opacity="1" stroke-width="3.2"/>
<circle clip-path="url(#clip572)" cx="2247.1" cy="1445.72" r="14" fill="#009af9" fill-rule="evenodd" fill-opacity="1" stroke="#000000" stroke-opacity="1" stroke-width="3.2"/>
<circle clip-path="url(#clip572)" cx="2289.53" cy="87.9763" r="14" fill="#009af9" fill-rule="evenodd" fill-opacity="1" stroke="#000000" stroke-opacity="1" stroke-width="3.2"/>
<circle clip-path="url(#clip572)" cx="2290.36" cy="114.872" r="14" fill="#009af9" fill-rule="evenodd" fill-opacity="1" stroke="#000000" stroke-opacity="1" stroke-width="3.2"/>
<polyline clip-path="url(#clip572)" style="stroke:#e26f46; stroke-linecap:butt; stroke-linejoin:round; stroke-width:4; stroke-opacity:1; fill:none" points="
  210.454,617.016 215.532,617.031 220.61,617.076 225.688,617.15 230.766,617.254 277.719,619.62 324.673,624.493 371.626,631.81 418.579,641.479 475.013,656.037 
  531.447,673.546 579.162,690.414 626.876,708.941 730.538,753.714 826.105,798.5 928.564,847.508 1047.27,901.764 1100.02,923.906 1152.77,944.325 1199.02,960.554 
  1245.27,975.004 1295.7,988.523 1346.13,999.519 1396.86,1007.87 1447.59,1013.38 1503.68,1016.07 1559.77,1015.14 1613.13,1010.9 1666.5,1003.48 1721.99,992.499 
  1777.47,978.396 1824.18,964.284 1870.89,948.312 1984.95,902.793 2092.16,854.064 2263.92,772.251 2290.36,759.983 
  "/>
<path clip-path="url(#clip570)" d="
M1981.87 250.738 L2279.27 250.738 L2279.27 95.2176 L1981.87 95.2176  Z
  " fill="#ffffff" fill-rule="evenodd" fill-opacity="1"/>
<polyline clip-path="url(#clip570)" style="stroke:#000000; stroke-linecap:butt; stroke-linejoin:round; stroke-width:4; stroke-opacity:1; fill:none" points="
  1981.87,250.738 2279.27,250.738 2279.27,95.2176 1981.87,95.2176 1981.87,250.738 
  "/>
<circle clip-path="url(#clip570)" cx="2079.86" cy="147.058" r="23" fill="#009af9" fill-rule="evenodd" fill-opacity="1" stroke="#000000" stroke-opacity="1" stroke-width="5.12"/>
<path clip-path="url(#clip570)" d="M2191.68 166.745 Q2189.88 171.375 2188.17 172.787 Q2186.45 174.199 2183.58 174.199 L2180.18 174.199 L2180.18 170.634 L2182.68 170.634 Q2184.44 170.634 2185.41 169.8 Q2186.38 168.967 2187.56 165.865 L2188.33 163.921 L2177.84 138.412 L2182.36 138.412 L2190.46 158.689 L2198.56 138.412 L2203.07 138.412 L2191.68 166.745 Z" fill="#000000" fill-rule="evenodd" fill-opacity="1" /><path clip-path="url(#clip570)" d="M2210.37 160.402 L2218 160.402 L2218 134.037 L2209.69 135.703 L2209.69 131.444 L2217.96 129.778 L2222.63 129.778 L2222.63 160.402 L2230.27 160.402 L2230.27 164.338 L2210.37 164.338 L2210.37 160.402 Z" fill="#000000" fill-rule="evenodd" fill-opacity="1" /><polyline clip-path="url(#clip570)" style="stroke:#e26f46; stroke-linecap:butt; stroke-linejoin:round; stroke-width:4; stroke-opacity:1; fill:none" points="
  2006.37,198.898 2153.35,198.898 
  "/>
<path clip-path="url(#clip570)" d="M2191.68 218.585 Q2189.88 223.215 2188.17 224.627 Q2186.45 226.039 2183.58 226.039 L2180.18 226.039 L2180.18 222.474 L2182.68 222.474 Q2184.44 222.474 2185.41 221.64 Q2186.38 220.807 2187.56 217.705 L2188.33 215.761 L2177.84 190.252 L2182.36 190.252 L2190.46 210.529 L2198.56 190.252 L2203.07 190.252 L2191.68 218.585 Z" fill="#000000" fill-rule="evenodd" fill-opacity="1" /><path clip-path="url(#clip570)" d="M2213.58 212.242 L2229.9 212.242 L2229.9 216.178 L2207.96 216.178 L2207.96 212.242 Q2210.62 209.488 2215.2 204.858 Q2219.81 200.205 2220.99 198.863 Q2223.24 196.34 2224.12 194.604 Q2225.02 192.844 2225.02 191.155 Q2225.02 188.4 2223.07 186.664 Q2221.15 184.928 2218.05 184.928 Q2215.85 184.928 2213.4 185.692 Q2210.97 186.455 2208.19 188.006 L2208.19 183.284 Q2211.01 182.15 2213.47 181.571 Q2215.92 180.993 2217.96 180.993 Q2223.33 180.993 2226.52 183.678 Q2229.72 186.363 2229.72 190.854 Q2229.72 192.983 2228.91 194.905 Q2228.12 196.803 2226.01 199.395 Q2225.43 200.067 2222.33 203.284 Q2219.23 206.479 2213.58 212.242 Z" fill="#000000" fill-rule="evenodd" fill-opacity="1" /></svg>
