<?xml version="1.0" encoding="utf-8"?>
<svg xmlns="http://www.w3.org/2000/svg" xmlns:xlink="http://www.w3.org/1999/xlink" width="600" height="400" viewBox="0 0 2400 1600">
<defs>
  <clipPath id="clip330">
    <rect x="0" y="0" width="2400" height="1600"/>
  </clipPath>
</defs>
<path clip-path="url(#clip330)" d="
M0 1600 L2400 1600 L2400 0 L0 0  Z
  " fill="#ffffff" fill-rule="evenodd" fill-opacity="1"/>
<defs>
  <clipPath id="clip331">
    <rect x="480" y="0" width="1681" height="1600"/>
  </clipPath>
</defs>
<path clip-path="url(#clip330)" d="
M178.867 1486.45 L2352.76 1486.45 L2352.76 47.2441 L178.867 47.2441  Z
  " fill="#ffffff" fill-rule="evenodd" fill-opacity="1"/>
<defs>
  <clipPath id="clip332">
    <rect x="178" y="47" width="2175" height="1440"/>
  </clipPath>
</defs>
<polyline clip-path="url(#clip332)" style="stroke:#000000; stroke-linecap:butt; stroke-linejoin:round; stroke-width:2; stroke-opacity:0.1; fill:none" points="
  178.867,1486.45 178.867,47.2441 
  "/>
<polyline clip-path="url(#clip332)" style="stroke:#000000; stroke-linecap:butt; stroke-linejoin:round; stroke-width:2; stroke-opacity:0.1; fill:none" points="
  722.339,1486.45 722.339,47.2441 
  "/>
<polyline clip-path="url(#clip332)" style="stroke:#000000; stroke-linecap:butt; stroke-linejoin:round; stroke-width:2; stroke-opacity:0.1; fill:none" points="
  1265.81,1486.45 1265.81,47.2441 
  "/>
<polyline clip-path="url(#clip332)" style="stroke:#000000; stroke-linecap:butt; stroke-linejoin:round; stroke-width:2; stroke-opacity:0.1; fill:none" points="
  1809.28,1486.45 1809.28,47.2441 
  "/>
<polyline clip-path="url(#clip332)" style="stroke:#000000; stroke-linecap:butt; stroke-linejoin:round; stroke-width:2; stroke-opacity:0.1; fill:none" points="
  2352.76,1486.45 2352.76,47.2441 
  "/>
<polyline clip-path="url(#clip330)" style="stroke:#000000; stroke-linecap:butt; stroke-linejoin:round; stroke-width:4; stroke-opacity:1; fill:none" points="
  178.867,1486.45 2352.76,1486.45 
  "/>
<polyline clip-path="url(#clip330)" style="stroke:#000000; stroke-linecap:butt; stroke-linejoin:round; stroke-width:4; stroke-opacity:1; fill:none" points="
  178.867,1486.45 178.867,1467.55 
  "/>
<polyline clip-path="url(#clip330)" style="stroke:#000000; stroke-linecap:butt; stroke-linejoin:round; stroke-width:4; stroke-opacity:1; fill:none" points="
  722.339,1486.45 722.339,1467.55 
  "/>
<polyline clip-path="url(#clip330)" style="stroke:#000000; stroke-linecap:butt; stroke-linejoin:round; stroke-width:4; stroke-opacity:1; fill:none" points="
  1265.81,1486.45 1265.81,1467.55 
  "/>
<polyline clip-path="url(#clip330)" style="stroke:#000000; stroke-linecap:butt; stroke-linejoin:round; stroke-width:4; stroke-opacity:1; fill:none" points="
  1809.28,1486.45 1809.28,1467.55 
  "/>
<polyline clip-path="url(#clip330)" style="stroke:#000000; stroke-linecap:butt; stroke-linejoin:round; stroke-width:4; stroke-opacity:1; fill:none" points="
  2352.76,1486.45 2352.76,1467.55 
  "/>
<path clip-path="url(#clip330)" d="M125.395 1530.29 L155.07 1530.29 L155.07 1534.23 L125.395 1534.23 L125.395 1530.29 Z" fill="#000000" fill-rule="evenodd" fill-opacity="1" /><path clip-path="url(#clip330)" d="M165.973 1543.18 L173.612 1543.18 L173.612 1516.82 L165.302 1518.49 L165.302 1514.23 L173.566 1512.56 L178.242 1512.56 L178.242 1543.18 L185.88 1543.18 L185.88 1547.12 L165.973 1547.12 L165.973 1543.18 Z" fill="#000000" fill-rule="evenodd" fill-opacity="1" /><path clip-path="url(#clip330)" d="M195.325 1541.24 L200.209 1541.24 L200.209 1547.12 L195.325 1547.12 L195.325 1541.24 Z" fill="#000000" fill-rule="evenodd" fill-opacity="1" /><path clip-path="url(#clip330)" d="M220.394 1515.64 Q216.783 1515.64 214.954 1519.2 Q213.149 1522.75 213.149 1529.87 Q213.149 1536.98 214.954 1540.55 Q216.783 1544.09 220.394 1544.09 Q224.028 1544.09 225.834 1540.55 Q227.663 1536.98 227.663 1529.87 Q227.663 1522.75 225.834 1519.2 Q224.028 1515.64 220.394 1515.64 M220.394 1511.93 Q226.204 1511.93 229.26 1516.54 Q232.339 1521.12 232.339 1529.87 Q232.339 1538.6 229.26 1543.21 Q226.204 1547.79 220.394 1547.79 Q214.584 1547.79 211.505 1543.21 Q208.45 1538.6 208.45 1529.87 Q208.45 1521.12 211.505 1516.54 Q214.584 1511.93 220.394 1511.93 Z" fill="#000000" fill-rule="evenodd" fill-opacity="1" /><path clip-path="url(#clip330)" d="M669.365 1530.29 L699.04 1530.29 L699.04 1534.23 L669.365 1534.23 L669.365 1530.29 Z" fill="#000000" fill-rule="evenodd" fill-opacity="1" /><path clip-path="url(#clip330)" d="M719.133 1515.64 Q715.522 1515.64 713.693 1519.2 Q711.888 1522.75 711.888 1529.87 Q711.888 1536.98 713.693 1540.55 Q715.522 1544.09 719.133 1544.09 Q722.767 1544.09 724.573 1540.55 Q726.401 1536.98 726.401 1529.87 Q726.401 1522.75 724.573 1519.2 Q722.767 1515.64 719.133 1515.64 M719.133 1511.93 Q724.943 1511.93 727.999 1516.54 Q731.077 1521.12 731.077 1529.87 Q731.077 1538.6 727.999 1543.21 Q724.943 1547.79 719.133 1547.79 Q713.323 1547.79 710.244 1543.21 Q707.189 1538.6 707.189 1529.87 Q707.189 1521.12 710.244 1516.54 Q713.323 1511.93 719.133 1511.93 Z" fill="#000000" fill-rule="evenodd" fill-opacity="1" /><path clip-path="url(#clip330)" d="M739.295 1541.24 L744.179 1541.24 L744.179 1547.12 L739.295 1547.12 L739.295 1541.24 Z" fill="#000000" fill-rule="evenodd" fill-opacity="1" /><path clip-path="url(#clip330)" d="M754.411 1512.56 L772.767 1512.56 L772.767 1516.5 L758.693 1516.5 L758.693 1524.97 Q759.711 1524.62 760.73 1524.46 Q761.748 1524.27 762.767 1524.27 Q768.554 1524.27 771.934 1527.44 Q775.313 1530.62 775.313 1536.03 Q775.313 1541.61 771.841 1544.71 Q768.369 1547.79 762.049 1547.79 Q759.873 1547.79 757.605 1547.42 Q755.36 1547.05 752.952 1546.31 L752.952 1541.61 Q755.036 1542.74 757.258 1543.3 Q759.48 1543.86 761.957 1543.86 Q765.961 1543.86 768.299 1541.75 Q770.637 1539.64 770.637 1536.03 Q770.637 1532.42 768.299 1530.31 Q765.961 1528.21 761.957 1528.21 Q760.082 1528.21 758.207 1528.62 Q756.355 1529.04 754.411 1529.92 L754.411 1512.56 Z" fill="#000000" fill-rule="evenodd" fill-opacity="1" /><path clip-path="url(#clip330)" d="M1243.2 1515.64 Q1239.58 1515.64 1237.76 1519.2 Q1235.95 1522.75 1235.95 1529.87 Q1235.95 1536.98 1237.76 1540.55 Q1239.58 1544.09 1243.2 1544.09 Q1246.83 1544.09 1248.64 1540.55 Q1250.46 1536.98 1250.46 1529.87 Q1250.46 1522.75 1248.64 1519.2 Q1246.83 1515.64 1243.2 1515.64 M1243.2 1511.93 Q1249.01 1511.93 1252.06 1516.54 Q1255.14 1521.12 1255.14 1529.87 Q1255.14 1538.6 1252.06 1543.21 Q1249.01 1547.79 1243.2 1547.79 Q1237.39 1547.79 1234.31 1543.21 Q1231.25 1538.6 1231.25 1529.87 Q1231.25 1521.12 1234.31 1516.54 Q1237.39 1511.93 1243.2 1511.93 Z" fill="#000000" fill-rule="evenodd" fill-opacity="1" /><path clip-path="url(#clip330)" d="M1263.36 1541.24 L1268.24 1541.24 L1268.24 1547.12 L1263.36 1547.12 L1263.36 1541.24 Z" fill="#000000" fill-rule="evenodd" fill-opacity="1" /><path clip-path="url(#clip330)" d="M1288.43 1515.64 Q1284.82 1515.64 1282.99 1519.2 Q1281.18 1522.75 1281.18 1529.87 Q1281.18 1536.98 1282.99 1540.55 Q1284.82 1544.09 1288.43 1544.09 Q1292.06 1544.09 1293.87 1540.55 Q1295.7 1536.98 1295.7 1529.87 Q1295.7 1522.75 1293.87 1519.2 Q1292.06 1515.64 1288.43 1515.64 M1288.43 1511.93 Q1294.24 1511.93 1297.29 1516.54 Q1300.37 1521.12 1300.37 1529.87 Q1300.37 1538.6 1297.29 1543.21 Q1294.24 1547.79 1288.43 1547.79 Q1282.62 1547.79 1279.54 1543.21 Q1276.48 1538.6 1276.48 1529.87 Q1276.48 1521.12 1279.54 1516.54 Q1282.62 1511.93 1288.43 1511.93 Z" fill="#000000" fill-rule="evenodd" fill-opacity="1" /><path clip-path="url(#clip330)" d="M1787.17 1515.64 Q1783.55 1515.64 1781.73 1519.2 Q1779.92 1522.75 1779.92 1529.87 Q1779.92 1536.98 1781.73 1540.55 Q1783.55 1544.09 1787.17 1544.09 Q1790.8 1544.09 1792.61 1540.55 Q1794.43 1536.98 1794.43 1529.87 Q1794.43 1522.75 1792.61 1519.2 Q1790.8 1515.64 1787.17 1515.64 M1787.17 1511.93 Q1792.98 1511.93 1796.03 1516.54 Q1799.11 1521.12 1799.11 1529.87 Q1799.11 1538.6 1796.03 1543.21 Q1792.98 1547.79 1787.17 1547.79 Q1781.36 1547.79 1778.28 1543.21 Q1775.22 1538.6 1775.22 1529.87 Q1775.22 1521.12 1778.28 1516.54 Q1781.36 1511.93 1787.17 1511.93 Z" fill="#000000" fill-rule="evenodd" fill-opacity="1" /><path clip-path="url(#clip330)" d="M1807.33 1541.24 L1812.21 1541.24 L1812.21 1547.12 L1807.33 1547.12 L1807.33 1541.24 Z" fill="#000000" fill-rule="evenodd" fill-opacity="1" /><path clip-path="url(#clip330)" d="M1822.44 1512.56 L1840.8 1512.56 L1840.8 1516.5 L1826.73 1516.5 L1826.73 1524.97 Q1827.74 1524.62 1828.76 1524.46 Q1829.78 1524.27 1830.8 1524.27 Q1836.59 1524.27 1839.97 1527.44 Q1843.35 1530.62 1843.35 1536.03 Q1843.35 1541.61 1839.87 1544.71 Q1836.4 1547.79 1830.08 1547.79 Q1827.91 1547.79 1825.64 1547.42 Q1823.39 1547.05 1820.98 1546.31 L1820.98 1541.61 Q1823.07 1542.74 1825.29 1543.3 Q1827.51 1543.86 1829.99 1543.86 Q1833.99 1543.86 1836.33 1541.75 Q1838.67 1539.64 1838.67 1536.03 Q1838.67 1532.42 1836.33 1530.31 Q1833.99 1528.21 1829.99 1528.21 Q1828.11 1528.21 1826.24 1528.62 Q1824.39 1529.04 1822.44 1529.92 L1822.44 1512.56 Z" fill="#000000" fill-rule="evenodd" fill-opacity="1" /><path clip-path="url(#clip330)" d="M2319.91 1543.18 L2327.55 1543.18 L2327.55 1516.82 L2319.24 1518.49 L2319.24 1514.23 L2327.5 1512.56 L2332.18 1512.56 L2332.18 1543.18 L2339.82 1543.18 L2339.82 1547.12 L2319.91 1547.12 L2319.91 1543.18 Z" fill="#000000" fill-rule="evenodd" fill-opacity="1" /><path clip-path="url(#clip330)" d="M2349.26 1541.24 L2354.14 1541.24 L2354.14 1547.12 L2349.26 1547.12 L2349.26 1541.24 Z" fill="#000000" fill-rule="evenodd" fill-opacity="1" /><path clip-path="url(#clip330)" d="M2374.33 1515.64 Q2370.72 1515.64 2368.89 1519.2 Q2367.08 1522.75 2367.08 1529.87 Q2367.08 1536.98 2368.89 1540.55 Q2370.72 1544.09 2374.33 1544.09 Q2377.96 1544.09 2379.77 1540.55 Q2381.6 1536.98 2381.6 1529.87 Q2381.6 1522.75 2379.77 1519.2 Q2377.96 1515.64 2374.33 1515.64 M2374.33 1511.93 Q2380.14 1511.93 2383.2 1516.54 Q2386.27 1521.12 2386.27 1529.87 Q2386.27 1538.6 2383.2 1543.21 Q2380.14 1547.79 2374.33 1547.79 Q2368.52 1547.79 2365.44 1543.21 Q2362.39 1538.6 2362.39 1529.87 Q2362.39 1521.12 2365.44 1516.54 Q2368.52 1511.93 2374.33 1511.93 Z" fill="#000000" fill-rule="evenodd" fill-opacity="1" /><polyline clip-path="url(#clip332)" style="stroke:#000000; stroke-linecap:butt; stroke-linejoin:round; stroke-width:2; stroke-opacity:0.1; fill:none" points="
  178.867,1307.07 2352.76,1307.07 
  "/>
<polyline clip-path="url(#clip332)" style="stroke:#000000; stroke-linecap:butt; stroke-linejoin:round; stroke-width:2; stroke-opacity:0.1; fill:none" points="
  178.867,1036.95 2352.76,1036.95 
  "/>
<polyline clip-path="url(#clip332)" style="stroke:#000000; stroke-linecap:butt; stroke-linejoin:round; stroke-width:2; stroke-opacity:0.1; fill:none" points="
  178.867,766.832 2352.76,766.832 
  "/>
<polyline clip-path="url(#clip332)" style="stroke:#000000; stroke-linecap:butt; stroke-linejoin:round; stroke-width:2; stroke-opacity:0.1; fill:none" points="
  178.867,496.712 2352.76,496.712 
  "/>
<polyline clip-path="url(#clip332)" style="stroke:#000000; stroke-linecap:butt; stroke-linejoin:round; stroke-width:2; stroke-opacity:0.1; fill:none" points="
  178.867,226.592 2352.76,226.592 
  "/>
<polyline clip-path="url(#clip330)" style="stroke:#000000; stroke-linecap:butt; stroke-linejoin:round; stroke-width:4; stroke-opacity:1; fill:none" points="
  178.867,1486.45 178.867,47.2441 
  "/>
<polyline clip-path="url(#clip330)" style="stroke:#000000; stroke-linecap:butt; stroke-linejoin:round; stroke-width:4; stroke-opacity:1; fill:none" points="
  178.867,1307.07 197.764,1307.07 
  "/>
<polyline clip-path="url(#clip330)" style="stroke:#000000; stroke-linecap:butt; stroke-linejoin:round; stroke-width:4; stroke-opacity:1; fill:none" points="
  178.867,1036.95 197.764,1036.95 
  "/>
<polyline clip-path="url(#clip330)" style="stroke:#000000; stroke-linecap:butt; stroke-linejoin:round; stroke-width:4; stroke-opacity:1; fill:none" points="
  178.867,766.832 197.764,766.832 
  "/>
<polyline clip-path="url(#clip330)" style="stroke:#000000; stroke-linecap:butt; stroke-linejoin:round; stroke-width:4; stroke-opacity:1; fill:none" points="
  178.867,496.712 197.764,496.712 
  "/>
<polyline clip-path="url(#clip330)" style="stroke:#000000; stroke-linecap:butt; stroke-linejoin:round; stroke-width:4; stroke-opacity:1; fill:none" points="
  178.867,226.592 197.764,226.592 
  "/>
<path clip-path="url(#clip330)" d="M50.9921 1307.52 L80.6679 1307.52 L80.6679 1311.46 L50.9921 1311.46 L50.9921 1307.52 Z" fill="#000000" fill-rule="evenodd" fill-opacity="1" /><path clip-path="url(#clip330)" d="M91.5706 1320.42 L99.2095 1320.42 L99.2095 1294.05 L90.8993 1295.72 L90.8993 1291.46 L99.1632 1289.79 L103.839 1289.79 L103.839 1320.42 L111.478 1320.42 L111.478 1324.35 L91.5706 1324.35 L91.5706 1320.42 Z" fill="#000000" fill-rule="evenodd" fill-opacity="1" /><path clip-path="url(#clip330)" d="M130.922 1292.87 Q127.311 1292.87 125.482 1296.44 Q123.677 1299.98 123.677 1307.11 Q123.677 1314.21 125.482 1317.78 Q127.311 1321.32 130.922 1321.32 Q134.556 1321.32 136.362 1317.78 Q138.191 1314.21 138.191 1307.11 Q138.191 1299.98 136.362 1296.44 Q134.556 1292.87 130.922 1292.87 M130.922 1289.17 Q136.732 1289.17 139.788 1293.77 Q142.867 1298.36 142.867 1307.11 Q142.867 1315.83 139.788 1320.44 Q136.732 1325.02 130.922 1325.02 Q125.112 1325.02 122.033 1320.44 Q118.978 1315.83 118.978 1307.11 Q118.978 1298.36 122.033 1293.77 Q125.112 1289.17 130.922 1289.17 Z" fill="#000000" fill-rule="evenodd" fill-opacity="1" /><path clip-path="url(#clip330)" d="M82.1494 1037.4 L111.825 1037.4 L111.825 1041.34 L82.1494 1041.34 L82.1494 1037.4 Z" fill="#000000" fill-rule="evenodd" fill-opacity="1" /><path clip-path="url(#clip330)" d="M121.964 1019.67 L140.32 1019.67 L140.32 1023.61 L126.246 1023.61 L126.246 1032.08 Q127.265 1031.73 128.283 1031.57 Q129.302 1031.39 130.32 1031.39 Q136.107 1031.39 139.487 1034.56 Q142.867 1037.73 142.867 1043.14 Q142.867 1048.72 139.394 1051.82 Q135.922 1054.9 129.603 1054.9 Q127.427 1054.9 125.158 1054.53 Q122.913 1054.16 120.506 1053.42 L120.506 1048.72 Q122.589 1049.86 124.811 1050.41 Q127.033 1050.97 129.51 1050.97 Q133.515 1050.97 135.853 1048.86 Q138.191 1046.76 138.191 1043.14 Q138.191 1039.53 135.853 1037.43 Q133.515 1035.32 129.51 1035.32 Q127.635 1035.32 125.76 1035.74 Q123.908 1036.15 121.964 1037.03 L121.964 1019.67 Z" fill="#000000" fill-rule="evenodd" fill-opacity="1" /><path clip-path="url(#clip330)" d="M130.922 752.631 Q127.311 752.631 125.482 756.196 Q123.677 759.737 123.677 766.867 Q123.677 773.973 125.482 777.538 Q127.311 781.08 130.922 781.08 Q134.556 781.08 136.362 777.538 Q138.191 773.973 138.191 766.867 Q138.191 759.737 136.362 756.196 Q134.556 752.631 130.922 752.631 M130.922 748.927 Q136.732 748.927 139.788 753.534 Q142.867 758.117 142.867 766.867 Q142.867 775.594 139.788 780.2 Q136.732 784.783 130.922 784.783 Q125.112 784.783 122.033 780.2 Q118.978 775.594 118.978 766.867 Q118.978 758.117 122.033 753.534 Q125.112 748.927 130.922 748.927 Z" fill="#000000" fill-rule="evenodd" fill-opacity="1" /><path clip-path="url(#clip330)" d="M121.964 479.432 L140.32 479.432 L140.32 483.367 L126.246 483.367 L126.246 491.839 Q127.265 491.492 128.283 491.33 Q129.302 491.145 130.32 491.145 Q136.107 491.145 139.487 494.316 Q142.867 497.487 142.867 502.904 Q142.867 508.483 139.394 511.584 Q135.922 514.663 129.603 514.663 Q127.427 514.663 125.158 514.293 Q122.913 513.922 120.506 513.182 L120.506 508.483 Q122.589 509.617 124.811 510.172 Q127.033 510.728 129.51 510.728 Q133.515 510.728 135.853 508.622 Q138.191 506.515 138.191 502.904 Q138.191 499.293 135.853 497.186 Q133.515 495.08 129.51 495.08 Q127.635 495.08 125.76 495.497 Q123.908 495.913 121.964 496.793 L121.964 479.432 Z" fill="#000000" fill-rule="evenodd" fill-opacity="1" /><path clip-path="url(#clip330)" d="M91.5706 239.937 L99.2095 239.937 L99.2095 213.571 L90.8993 215.238 L90.8993 210.978 L99.1632 209.312 L103.839 209.312 L103.839 239.937 L111.478 239.937 L111.478 243.872 L91.5706 243.872 L91.5706 239.937 Z" fill="#000000" fill-rule="evenodd" fill-opacity="1" /><path clip-path="url(#clip330)" d="M130.922 212.39 Q127.311 212.39 125.482 215.955 Q123.677 219.497 123.677 226.626 Q123.677 233.733 125.482 237.298 Q127.311 240.839 130.922 240.839 Q134.556 240.839 136.362 237.298 Q138.191 233.733 138.191 226.626 Q138.191 219.497 136.362 215.955 Q134.556 212.39 130.922 212.39 M130.922 208.687 Q136.732 208.687 139.788 213.293 Q142.867 217.877 142.867 226.626 Q142.867 235.353 139.788 239.96 Q136.732 244.543 130.922 244.543 Q125.112 244.543 122.033 239.96 Q118.978 235.353 118.978 226.626 Q118.978 217.877 122.033 213.293 Q125.112 208.687 130.922 208.687 Z" fill="#000000" fill-rule="evenodd" fill-opacity="1" /><polyline clip-path="url(#clip332)" style="stroke:#009af9; stroke-linecap:butt; stroke-linejoin:round; stroke-width:4; stroke-opacity:1; fill:none" points="
  178.867,1092.31 184.174,1128.23 189.482,1162.79 194.789,1195.86 200.096,1227.32 212.365,1293.21 224.634,1348.53 236.903,1392.17 249.172,1423.25 261.44,1441.14 
  273.709,1445.49 285.978,1436.21 298.247,1413.49 310.515,1377.77 322.784,1329.79 335.053,1270.5 347.322,1201.09 359.59,1122.96 371.859,1037.67 384.128,946.949 
  396.397,852.608 425.889,622.473 455.381,408.959 470.127,316.272 484.873,236.649 499.619,172.397 514.365,125.38 526.833,100.098 539.3,88.644 551.768,91.2561 
  564.235,107.88 576.703,138.171 589.17,181.5 601.638,236.97 614.106,303.429 627.649,386.463 641.192,478.803 654.735,578.19 668.279,682.192 695.365,893.814 
  722.452,1093.09 734.938,1175.33 747.423,1249.08 759.909,1312.8 772.395,1365.17 784.881,1405.08 797.366,1431.72 809.852,1444.54 822.338,1443.25 835.724,1426.25 
  849.11,1393.49 862.496,1345.75 875.882,1284.17 889.268,1210.23 902.654,1125.69 916.04,1032.57 929.426,933.096 960.444,691.508 991.462,459.503 1006.97,356.472 
  1022.48,266.599 1030.23,227.516 1037.99,192.764 1045.74,162.624 1053.5,137.336 1060.39,119.101 1067.28,104.976 1074.17,95.0494 1081.06,89.3848 1087.95,88.018 
  1094.85,90.9577 1101.74,98.1853 1108.63,109.655 1122.41,145.003 1136.19,196.105 1149.98,261.668 1163.76,340.03 1187.93,502.214 1212.1,684.93 1236.27,874 
  1260.45,1054.76 1273.62,1144.72 1286.8,1225.93 1299.98,1296.51 1313.16,1354.82 1326.33,1399.5 1339.51,1429.54 1352.69,1444.22 1365.86,1443.21 1379.12,1426.39 
  1392.37,1394.11 1405.63,1347.13 1418.88,1286.55 1432.14,1213.78 1445.4,1130.54 1458.65,1038.77 1471.91,940.631 1501.22,712.592 1530.53,490.721 1545.18,390.093 
  1559.84,300.255 1574.49,223.779 1589.15,162.857 1603.09,120.928 1617.04,95.7506 1624.01,89.6647 1630.98,87.9763 1637.96,90.6963 1644.93,97.8071 1658.87,124.988 
  1672.82,168.814 1679.79,196.63 1686.76,228.149 1693.73,263.166 1700.71,301.454 1715.2,390.442 1729.7,489.981 1744.2,597.281 1758.7,709.334 1787.7,935.089 
  1816.7,1142.11 1828.9,1217.94 1841.11,1284.81 1853.31,1341.38 1865.52,1386.53 1877.72,1419.36 1889.93,1439.22 1902.13,1445.72 1914.34,1438.72 1921.79,1427.86 
  1929.24,1412.1 1936.69,1391.56 1944.14,1366.38 1959.04,1302.92 1973.94,1223.58 1988.84,1130.72 2003.74,1027.09 2018.64,915.75 2033.54,800.005 2061.56,582.483 
  2089.57,384.132 2103.58,298.729 2117.59,225.575 2131.59,166.585 2145.6,123.302 2156.82,100.738 2168.04,89.367 2179.26,89.3801 2190.48,100.777 2201.7,123.366 
  2212.92,156.768 2224.14,200.422 2235.36,253.593 2246.59,315.389 2257.81,384.771 2269.03,460.573 2280.25,541.521 2302.69,713.353 2325.13,888.763 2332.03,941.648 
  2338.94,993.419 2345.85,1043.75 2352.76,1092.31 
  "/>
<polyline clip-path="url(#clip332)" style="stroke:#e26f46; stroke-linecap:butt; stroke-linejoin:round; stroke-width:4; stroke-opacity:1; fill:none" points="
  450.603,1146.12 722.339,387.548 994.075,1146.12 1265.81,387.548 1537.55,1146.12 1809.28,387.548 2081.02,1146.12 2352.76,387.548 
  "/>
<circle clip-path="url(#clip332)" cx="450.603" cy="1146.12" r="14" fill="#e26f46" fill-rule="evenodd" fill-opacity="1" stroke="#000000" stroke-opacity="1" stroke-width="3.2"/>
<circle clip-path="url(#clip332)" cx="722.339" cy="387.548" r="14" fill="#e26f46" fill-rule="evenodd" fill-opacity="1" stroke="#000000" stroke-opacity="1" stroke-width="3.2"/>
<circle clip-path="url(#clip332)" cx="994.075" cy="1146.12" r="14" fill="#e26f46" fill-rule="evenodd" fill-opacity="1" stroke="#000000" stroke-opacity="1" stroke-width="3.2"/>
<circle clip-path="url(#clip332)" cx="1265.81" cy="387.548" r="14" fill="#e26f46" fill-rule="evenodd" fill-opacity="1" stroke="#000000" stroke-opacity="1" stroke-width="3.2"/>
<circle clip-path="url(#clip332)" cx="1537.55" cy="1146.12" r="14" fill="#e26f46" fill-rule="evenodd" fill-opacity="1" stroke="#000000" stroke-opacity="1" stroke-width="3.2"/>
<circle clip-path="url(#clip332)" cx="1809.28" cy="387.548" r="14" fill="#e26f46" fill-rule="evenodd" fill-opacity="1" stroke="#000000" stroke-opacity="1" stroke-width="3.2"/>
<circle clip-path="url(#clip332)" cx="2081.02" cy="1146.12" r="14" fill="#e26f46" fill-rule="evenodd" fill-opacity="1" stroke="#000000" stroke-opacity="1" stroke-width="3.2"/>
<circle clip-path="url(#clip332)" cx="2352.76" cy="387.548" r="14" fill="#e26f46" fill-rule="evenodd" fill-opacity="1" stroke="#000000" stroke-opacity="1" stroke-width="3.2"/>
<polyline clip-path="url(#clip332)" style="stroke:#3da44d; stroke-linecap:butt; stroke-linejoin:round; stroke-width:4; stroke-opacity:1; fill:none" points="
  178.867,1146.12 450.603,387.548 722.339,1146.12 994.075,387.548 1265.81,1146.12 1537.55,387.548 1809.28,1146.12 2081.02,387.548 
  "/>
<circle clip-path="url(#clip332)" cx="178.867" cy="1146.12" r="14" fill="#3da44d" fill-rule="evenodd" fill-opacity="1" stroke="#000000" stroke-opacity="1" stroke-width="3.2"/>
<circle clip-path="url(#clip332)" cx="450.603" cy="387.548" r="14" fill="#3da44d" fill-rule="evenodd" fill-opacity="1" stroke="#000000" stroke-opacity="1" stroke-width="3.2"/>
<circle clip-path="url(#clip332)" cx="722.339" cy="1146.12" r="14" fill="#3da44d" fill-rule="evenodd" fill-opacity="1" stroke="#000000" stroke-opacity="1" stroke-width="3.2"/>
<circle clip-path="url(#clip332)" cx="994.075" cy="387.548" r="14" fill="#3da44d" fill-rule="evenodd" fill-opacity="1" stroke="#000000" stroke-opacity="1" stroke-width="3.2"/>
<circle clip-path="url(#clip332)" cx="1265.81" cy="1146.12" r="14" fill="#3da44d" fill-rule="evenodd" fill-opacity="1" stroke="#000000" stroke-opacity="1" stroke-width="3.2"/>
<circle clip-path="url(#clip332)" cx="1537.55" cy="387.548" r="14" fill="#3da44d" fill-rule="evenodd" fill-opacity="1" stroke="#000000" stroke-opacity="1" stroke-width="3.2"/>
<circle clip-path="url(#clip332)" cx="1809.28" cy="1146.12" r="14" fill="#3da44d" fill-rule="evenodd" fill-opacity="1" stroke="#000000" stroke-opacity="1" stroke-width="3.2"/>
<circle clip-path="url(#clip332)" cx="2081.02" cy="387.548" r="14" fill="#3da44d" fill-rule="evenodd" fill-opacity="1" stroke="#000000" stroke-opacity="1" stroke-width="3.2"/>
<polyline clip-path="url(#clip332)" style="stroke:#c271d2; stroke-linecap:butt; stroke-linejoin:round; stroke-width:4; stroke-opacity:1; fill:none" points="
  450.603,766.832 722.339,766.832 994.075,766.832 1265.81,766.832 1537.55,766.832 1809.28,766.832 2081.02,766.832 
  "/>
<circle clip-path="url(#clip332)" cx="450.603" cy="766.832" r="14" fill="#c271d2" fill-rule="evenodd" fill-opacity="1" stroke="#000000" stroke-opacity="1" stroke-width="3.2"/>
<circle clip-path="url(#clip332)" cx="722.339" cy="766.832" r="14" fill="#c271d2" fill-rule="evenodd" fill-opacity="1" stroke="#000000" stroke-opacity="1" stroke-width="3.2"/>
<circle clip-path="url(#clip332)" cx="994.075" cy="766.832" r="14" fill="#c271d2" fill-rule="evenodd" fill-opacity="1" stroke="#000000" stroke-opacity="1" stroke-width="3.2"/>
<circle clip-path="url(#clip332)" cx="1265.81" cy="766.832" r="14" fill="#c271d2" fill-rule="evenodd" fill-opacity="1" stroke="#000000" stroke-opacity="1" stroke-width="3.2"/>
<circle clip-path="url(#clip332)" cx="1537.55" cy="766.832" r="14" fill="#c271d2" fill-rule="evenodd" fill-opacity="1" stroke="#000000" stroke-opacity="1" stroke-width="3.2"/>
<circle clip-path="url(#clip332)" cx="1809.28" cy="766.832" r="14" fill="#c271d2" fill-rule="evenodd" fill-opacity="1" stroke="#000000" stroke-opacity="1" stroke-width="3.2"/>
<circle clip-path="url(#clip332)" cx="2081.02" cy="766.832" r="14" fill="#c271d2" fill-rule="evenodd" fill-opacity="1" stroke="#000000" stroke-opacity="1" stroke-width="3.2"/>
<path clip-path="url(#clip330)" d="
M1911.44 354.418 L2280.29 354.418 L2280.29 95.2176 L1911.44 95.2176  Z
  " fill="#ffffff" fill-rule="evenodd" fill-opacity="1"/>
<polyline clip-path="url(#clip330)" style="stroke:#000000; stroke-linecap:butt; stroke-linejoin:round; stroke-width:4; stroke-opacity:1; fill:none" points="
  1911.44,354.418 2280.29,354.418 2280.29,95.2176 1911.44,95.2176 1911.44,354.418 
  "/>
<polyline clip-path="url(#clip330)" style="stroke:#009af9; stroke-linecap:butt; stroke-linejoin:round; stroke-width:4; stroke-opacity:1; fill:none" points="
  1935.59,147.058 2080.52,147.058 
  "/>
<path clip-path="url(#clip330)" d="M2118.51 166.745 Q2116.71 171.375 2114.99 172.787 Q2113.28 174.199 2110.41 174.199 L2107.01 174.199 L2107.01 170.634 L2109.51 170.634 Q2111.27 170.634 2112.24 169.8 Q2113.21 168.967 2114.39 165.865 L2115.16 163.921 L2104.67 138.412 L2109.18 138.412 L2117.29 158.689 L2125.39 138.412 L2129.9 138.412 L2118.51 166.745 Z" fill="#000000" fill-rule="evenodd" fill-opacity="1" /><path clip-path="url(#clip330)" d="M2137.19 160.402 L2144.83 160.402 L2144.83 134.037 L2136.52 135.703 L2136.52 131.444 L2144.79 129.778 L2149.46 129.778 L2149.46 160.402 L2157.1 160.402 L2157.1 164.338 L2137.19 164.338 L2137.19 160.402 Z" fill="#000000" fill-rule="evenodd" fill-opacity="1" /><polyline clip-path="url(#clip330)" style="stroke:#e26f46; stroke-linecap:butt; stroke-linejoin:round; stroke-width:4; stroke-opacity:1; fill:none" points="
  1935.59,198.898 2080.52,198.898 
  "/>
<circle clip-path="url(#clip330)" cx="2008.05" cy="198.898" r="23" fill="#e26f46" fill-rule="evenodd" fill-opacity="1" stroke="#000000" stroke-opacity="1" stroke-width="5.12"/>
<path clip-path="url(#clip330)" d="M2123.58 194.187 L2123.58 180.159 L2127.84 180.159 L2127.84 216.178 L2123.58 216.178 L2123.58 212.289 Q2122.24 214.603 2120.18 215.738 Q2118.14 216.849 2115.27 216.849 Q2110.57 216.849 2107.61 213.099 Q2104.67 209.349 2104.67 203.238 Q2104.67 197.127 2107.61 193.377 Q2110.57 189.627 2115.27 189.627 Q2118.14 189.627 2120.18 190.761 Q2122.24 191.872 2123.58 194.187 M2109.07 203.238 Q2109.07 207.937 2110.99 210.622 Q2112.93 213.284 2116.31 213.284 Q2119.69 213.284 2121.64 210.622 Q2123.58 207.937 2123.58 203.238 Q2123.58 198.539 2121.64 195.877 Q2119.69 193.192 2116.31 193.192 Q2112.93 193.192 2110.99 195.877 Q2109.07 198.539 2109.07 203.238 Z" fill="#000000" fill-rule="evenodd" fill-opacity="1" /><path clip-path="url(#clip330)" d="M2136.61 190.252 L2140.87 190.252 L2140.87 216.178 L2136.61 216.178 L2136.61 190.252 M2136.61 180.159 L2140.87 180.159 L2140.87 185.553 L2136.61 185.553 L2136.61 180.159 Z" fill="#000000" fill-rule="evenodd" fill-opacity="1" /><path clip-path="url(#clip330)" d="M2162.91 180.159 L2162.91 183.701 L2158.84 183.701 Q2156.54 183.701 2155.64 184.627 Q2154.76 185.553 2154.76 187.96 L2154.76 190.252 L2161.78 190.252 L2161.78 193.562 L2154.76 193.562 L2154.76 216.178 L2150.48 216.178 L2150.48 193.562 L2146.41 193.562 L2146.41 190.252 L2150.48 190.252 L2150.48 188.446 Q2150.48 184.118 2152.49 182.15 Q2154.51 180.159 2158.88 180.159 L2162.91 180.159 Z" fill="#000000" fill-rule="evenodd" fill-opacity="1" /><path clip-path="url(#clip330)" d="M2179.6 180.159 L2179.6 183.701 L2175.53 183.701 Q2173.23 183.701 2172.33 184.627 Q2171.45 185.553 2171.45 187.96 L2171.45 190.252 L2178.47 190.252 L2178.47 193.562 L2171.45 193.562 L2171.45 216.178 L2167.17 216.178 L2167.17 193.562 L2163.1 193.562 L2163.1 190.252 L2167.17 190.252 L2167.17 188.446 Q2167.17 184.118 2169.18 182.15 Q2171.2 180.159 2175.57 180.159 L2179.6 180.159 Z" fill="#000000" fill-rule="evenodd" fill-opacity="1" /><path clip-path="url(#clip330)" d="M2184.58 212.242 L2192.22 212.242 L2192.22 185.877 L2183.91 187.543 L2183.91 183.284 L2192.17 181.618 L2196.85 181.618 L2196.85 212.242 L2204.48 212.242 L2204.48 216.178 L2184.58 216.178 L2184.58 212.242 Z" fill="#000000" fill-rule="evenodd" fill-opacity="1" /><path clip-path="url(#clip330)" d="M2213.33 180.159 L2217.59 180.159 L2217.59 216.178 L2213.33 216.178 L2213.33 180.159 Z" fill="#000000" fill-rule="evenodd" fill-opacity="1" /><polyline clip-path="url(#clip330)" style="stroke:#3da44d; stroke-linecap:butt; stroke-linejoin:round; stroke-width:4; stroke-opacity:1; fill:none" points="
  1935.59,250.738 2080.52,250.738 
  "/>
<circle clip-path="url(#clip330)" cx="2008.05" cy="250.738" r="23" fill="#3da44d" fill-rule="evenodd" fill-opacity="1" stroke="#000000" stroke-opacity="1" stroke-width="5.12"/>
<path clip-path="url(#clip330)" d="M2123.58 246.027 L2123.58 231.999 L2127.84 231.999 L2127.84 268.018 L2123.58 268.018 L2123.58 264.129 Q2122.24 266.443 2120.18 267.578 Q2118.14 268.689 2115.27 268.689 Q2110.57 268.689 2107.61 264.939 Q2104.67 261.189 2104.67 255.078 Q2104.67 248.967 2107.61 245.217 Q2110.57 241.467 2115.27 241.467 Q2118.14 241.467 2120.18 242.601 Q2122.24 243.712 2123.58 246.027 M2109.07 255.078 Q2109.07 259.777 2110.99 262.462 Q2112.93 265.124 2116.31 265.124 Q2119.69 265.124 2121.64 262.462 Q2123.58 259.777 2123.58 255.078 Q2123.58 250.379 2121.64 247.717 Q2119.69 245.032 2116.31 245.032 Q2112.93 245.032 2110.99 247.717 Q2109.07 250.379 2109.07 255.078 Z" fill="#000000" fill-rule="evenodd" fill-opacity="1" /><path clip-path="url(#clip330)" d="M2136.61 242.092 L2140.87 242.092 L2140.87 268.018 L2136.61 268.018 L2136.61 242.092 M2136.61 231.999 L2140.87 231.999 L2140.87 237.393 L2136.61 237.393 L2136.61 231.999 Z" fill="#000000" fill-rule="evenodd" fill-opacity="1" /><path clip-path="url(#clip330)" d="M2162.91 231.999 L2162.91 235.541 L2158.84 235.541 Q2156.54 235.541 2155.64 236.467 Q2154.76 237.393 2154.76 239.8 L2154.76 242.092 L2161.78 242.092 L2161.78 245.402 L2154.76 245.402 L2154.76 268.018 L2150.48 268.018 L2150.48 245.402 L2146.41 245.402 L2146.41 242.092 L2150.48 242.092 L2150.48 240.286 Q2150.48 235.958 2152.49 233.99 Q2154.51 231.999 2158.88 231.999 L2162.91 231.999 Z" fill="#000000" fill-rule="evenodd" fill-opacity="1" /><path clip-path="url(#clip330)" d="M2179.6 231.999 L2179.6 235.541 L2175.53 235.541 Q2173.23 235.541 2172.33 236.467 Q2171.45 237.393 2171.45 239.8 L2171.45 242.092 L2178.47 242.092 L2178.47 245.402 L2171.45 245.402 L2171.45 268.018 L2167.17 268.018 L2167.17 245.402 L2163.1 245.402 L2163.1 242.092 L2167.17 242.092 L2167.17 240.286 Q2167.17 235.958 2169.18 233.99 Q2171.2 231.999 2175.57 231.999 L2179.6 231.999 Z" fill="#000000" fill-rule="evenodd" fill-opacity="1" /><path clip-path="url(#clip330)" d="M2184.58 264.082 L2192.22 264.082 L2192.22 237.717 L2183.91 239.383 L2183.91 235.124 L2192.17 233.458 L2196.85 233.458 L2196.85 264.082 L2204.48 264.082 L2204.48 268.018 L2184.58 268.018 L2184.58 264.082 Z" fill="#000000" fill-rule="evenodd" fill-opacity="1" /><path clip-path="url(#clip330)" d="M2228.35 246.073 Q2227.63 245.657 2226.78 245.471 Q2225.94 245.263 2224.92 245.263 Q2221.31 245.263 2219.37 247.624 Q2217.45 249.962 2217.45 254.36 L2217.45 268.018 L2213.16 268.018 L2213.16 242.092 L2217.45 242.092 L2217.45 246.12 Q2218.79 243.758 2220.94 242.624 Q2223.1 241.467 2226.17 241.467 Q2226.61 241.467 2227.15 241.536 Q2227.68 241.583 2228.33 241.698 L2228.35 246.073 Z" fill="#000000" fill-rule="evenodd" fill-opacity="1" /><polyline clip-path="url(#clip330)" style="stroke:#c271d2; stroke-linecap:butt; stroke-linejoin:round; stroke-width:4; stroke-opacity:1; fill:none" points="
  1935.59,302.578 2080.52,302.578 
  "/>
<circle clip-path="url(#clip330)" cx="2008.05" cy="302.578" r="23" fill="#c271d2" fill-rule="evenodd" fill-opacity="1" stroke="#000000" stroke-opacity="1" stroke-width="5.12"/>
<path clip-path="url(#clip330)" d="M2123.58 297.867 L2123.58 283.839 L2127.84 283.839 L2127.84 319.858 L2123.58 319.858 L2123.58 315.969 Q2122.24 318.283 2120.18 319.418 Q2118.14 320.529 2115.27 320.529 Q2110.57 320.529 2107.61 316.779 Q2104.67 313.029 2104.67 306.918 Q2104.67 300.807 2107.61 297.057 Q2110.57 293.307 2115.27 293.307 Q2118.14 293.307 2120.18 294.441 Q2122.24 295.552 2123.58 297.867 M2109.07 306.918 Q2109.07 311.617 2110.99 314.302 Q2112.93 316.964 2116.31 316.964 Q2119.69 316.964 2121.64 314.302 Q2123.58 311.617 2123.58 306.918 Q2123.58 302.219 2121.64 299.557 Q2119.69 296.872 2116.31 296.872 Q2112.93 296.872 2110.99 299.557 Q2109.07 302.219 2109.07 306.918 Z" fill="#000000" fill-rule="evenodd" fill-opacity="1" /><path clip-path="url(#clip330)" d="M2136.61 293.932 L2140.87 293.932 L2140.87 319.858 L2136.61 319.858 L2136.61 293.932 M2136.61 283.839 L2140.87 283.839 L2140.87 289.233 L2136.61 289.233 L2136.61 283.839 Z" fill="#000000" fill-rule="evenodd" fill-opacity="1" /><path clip-path="url(#clip330)" d="M2162.91 283.839 L2162.91 287.381 L2158.84 287.381 Q2156.54 287.381 2155.64 288.307 Q2154.76 289.233 2154.76 291.64 L2154.76 293.932 L2161.78 293.932 L2161.78 297.242 L2154.76 297.242 L2154.76 319.858 L2150.48 319.858 L2150.48 297.242 L2146.41 297.242 L2146.41 293.932 L2150.48 293.932 L2150.48 292.126 Q2150.48 287.798 2152.49 285.83 Q2154.51 283.839 2158.88 283.839 L2162.91 283.839 Z" fill="#000000" fill-rule="evenodd" fill-opacity="1" /><path clip-path="url(#clip330)" d="M2179.6 283.839 L2179.6 287.381 L2175.53 287.381 Q2173.23 287.381 2172.33 288.307 Q2171.45 289.233 2171.45 291.64 L2171.45 293.932 L2178.47 293.932 L2178.47 297.242 L2171.45 297.242 L2171.45 319.858 L2167.17 319.858 L2167.17 297.242 L2163.1 297.242 L2163.1 293.932 L2167.17 293.932 L2167.17 292.126 Q2167.17 287.798 2169.18 285.83 Q2171.2 283.839 2175.57 283.839 L2179.6 283.839 Z" fill="#000000" fill-rule="evenodd" fill-opacity="1" /><path clip-path="url(#clip330)" d="M2184.58 315.922 L2192.22 315.922 L2192.22 289.557 L2183.91 291.223 L2183.91 286.964 L2192.17 285.298 L2196.85 285.298 L2196.85 315.922 L2204.48 315.922 L2204.48 319.858 L2184.58 319.858 L2184.58 315.922 Z" fill="#000000" fill-rule="evenodd" fill-opacity="1" /><path clip-path="url(#clip330)" d="M2231.98 294.927 L2231.98 298.909 Q2230.18 297.913 2228.35 297.427 Q2226.54 296.918 2224.69 296.918 Q2220.55 296.918 2218.26 299.557 Q2215.97 302.172 2215.97 306.918 Q2215.97 311.663 2218.26 314.302 Q2220.55 316.918 2224.69 316.918 Q2226.54 316.918 2228.35 316.432 Q2230.18 315.922 2231.98 314.927 L2231.98 318.862 Q2230.2 319.696 2228.28 320.112 Q2226.38 320.529 2224.23 320.529 Q2218.37 320.529 2214.92 316.848 Q2211.48 313.168 2211.48 306.918 Q2211.48 300.575 2214.95 296.941 Q2218.44 293.307 2224.51 293.307 Q2226.48 293.307 2228.35 293.723 Q2230.23 294.117 2231.98 294.927 Z" fill="#000000" fill-rule="evenodd" fill-opacity="1" /></svg>
