<?xml version="1.0" encoding="utf-8"?>
<svg xmlns="http://www.w3.org/2000/svg" xmlns:xlink="http://www.w3.org/1999/xlink" width="600" height="400" viewBox="0 0 2400 1600">
<defs>
  <clipPath id="clip510">
    <rect x="0" y="0" width="2400" height="1600"/>
  </clipPath>
</defs>
<path clip-path="url(#clip510)" d="
M0 1600 L2400 1600 L2400 0 L0 0  Z
  " fill="#ffffff" fill-rule="evenodd" fill-opacity="1"/>
<defs>
  <clipPath id="clip511">
    <rect x="480" y="0" width="1681" height="1600"/>
  </clipPath>
</defs>
<path clip-path="url(#clip510)" d="
M186.274 1486.45 L2352.76 1486.45 L2352.76 47.2441 L186.274 47.2441  Z
  " fill="#ffffff" fill-rule="evenodd" fill-opacity="1"/>
<defs>
  <clipPath id="clip512">
    <rect x="186" y="47" width="2167" height="1440"/>
  </clipPath>
</defs>
<polyline clip-path="url(#clip512)" style="stroke:#000000; stroke-linecap:butt; stroke-linejoin:round; stroke-width:2; stroke-opacity:0.1; fill:none" points="
  247.59,1486.45 247.59,47.2441 
  "/>
<polyline clip-path="url(#clip512)" style="stroke:#000000; stroke-linecap:butt; stroke-linejoin:round; stroke-width:2; stroke-opacity:0.1; fill:none" points="
  758.552,1486.45 758.552,47.2441 
  "/>
<polyline clip-path="url(#clip512)" style="stroke:#000000; stroke-linecap:butt; stroke-linejoin:round; stroke-width:2; stroke-opacity:0.1; fill:none" points="
  1269.51,1486.45 1269.51,47.2441 
  "/>
<polyline clip-path="url(#clip512)" style="stroke:#000000; stroke-linecap:butt; stroke-linejoin:round; stroke-width:2; stroke-opacity:0.1; fill:none" points="
  1780.48,1486.45 1780.48,47.2441 
  "/>
<polyline clip-path="url(#clip512)" style="stroke:#000000; stroke-linecap:butt; stroke-linejoin:round; stroke-width:2; stroke-opacity:0.1; fill:none" points="
  2291.44,1486.45 2291.44,47.2441 
  "/>
<polyline clip-path="url(#clip510)" style="stroke:#000000; stroke-linecap:butt; stroke-linejoin:round; stroke-width:4; stroke-opacity:1; fill:none" points="
  186.274,1486.45 2352.76,1486.45 
  "/>
<polyline clip-path="url(#clip510)" style="stroke:#000000; stroke-linecap:butt; stroke-linejoin:round; stroke-width:4; stroke-opacity:1; fill:none" points="
  247.59,1486.45 247.59,1467.55 
  "/>
<polyline clip-path="url(#clip510)" style="stroke:#000000; stroke-linecap:butt; stroke-linejoin:round; stroke-width:4; stroke-opacity:1; fill:none" points="
  758.552,1486.45 758.552,1467.55 
  "/>
<polyline clip-path="url(#clip510)" style="stroke:#000000; stroke-linecap:butt; stroke-linejoin:round; stroke-width:4; stroke-opacity:1; fill:none" points="
  1269.51,1486.45 1269.51,1467.55 
  "/>
<polyline clip-path="url(#clip510)" style="stroke:#000000; stroke-linecap:butt; stroke-linejoin:round; stroke-width:4; stroke-opacity:1; fill:none" points="
  1780.48,1486.45 1780.48,1467.55 
  "/>
<polyline clip-path="url(#clip510)" style="stroke:#000000; stroke-linecap:butt; stroke-linejoin:round; stroke-width:4; stroke-opacity:1; fill:none" points="
  2291.44,1486.45 2291.44,1467.55 
  "/>
<path clip-path="url(#clip510)" d="M194.118 1530.29 L223.793 1530.29 L223.793 1534.23 L194.118 1534.23 L194.118 1530.29 Z" fill="#000000" fill-rule="evenodd" fill-opacity="1" /><path clip-path="url(#clip510)" d="M234.696 1543.18 L242.335 1543.18 L242.335 1516.82 L234.025 1518.49 L234.025 1514.23 L242.289 1512.56 L246.965 1512.56 L246.965 1543.18 L254.603 1543.18 L254.603 1547.12 L234.696 1547.12 L234.696 1543.18 Z" fill="#000000" fill-rule="evenodd" fill-opacity="1" /><path clip-path="url(#clip510)" d="M264.048 1541.24 L268.932 1541.24 L268.932 1547.12 L264.048 1547.12 L264.048 1541.24 Z" fill="#000000" fill-rule="evenodd" fill-opacity="1" /><path clip-path="url(#clip510)" d="M289.117 1515.64 Q285.506 1515.64 283.677 1519.2 Q281.872 1522.75 281.872 1529.87 Q281.872 1536.98 283.677 1540.55 Q285.506 1544.09 289.117 1544.09 Q292.751 1544.09 294.557 1540.55 Q296.386 1536.98 296.386 1529.87 Q296.386 1522.75 294.557 1519.2 Q292.751 1515.64 289.117 1515.64 M289.117 1511.93 Q294.927 1511.93 297.983 1516.54 Q301.061 1521.12 301.061 1529.87 Q301.061 1538.6 297.983 1543.21 Q294.927 1547.79 289.117 1547.79 Q283.307 1547.79 280.228 1543.21 Q277.173 1538.6 277.173 1529.87 Q277.173 1521.12 280.228 1516.54 Q283.307 1511.93 289.117 1511.93 Z" fill="#000000" fill-rule="evenodd" fill-opacity="1" /><path clip-path="url(#clip510)" d="M705.578 1530.29 L735.254 1530.29 L735.254 1534.23 L705.578 1534.23 L705.578 1530.29 Z" fill="#000000" fill-rule="evenodd" fill-opacity="1" /><path clip-path="url(#clip510)" d="M755.346 1515.64 Q751.735 1515.64 749.906 1519.2 Q748.101 1522.75 748.101 1529.87 Q748.101 1536.98 749.906 1540.55 Q751.735 1544.09 755.346 1544.09 Q758.98 1544.09 760.786 1540.55 Q762.615 1536.98 762.615 1529.87 Q762.615 1522.75 760.786 1519.2 Q758.98 1515.64 755.346 1515.64 M755.346 1511.93 Q761.156 1511.93 764.212 1516.54 Q767.291 1521.12 767.291 1529.87 Q767.291 1538.6 764.212 1543.21 Q761.156 1547.79 755.346 1547.79 Q749.536 1547.79 746.457 1543.21 Q743.402 1538.6 743.402 1529.87 Q743.402 1521.12 746.457 1516.54 Q749.536 1511.93 755.346 1511.93 Z" fill="#000000" fill-rule="evenodd" fill-opacity="1" /><path clip-path="url(#clip510)" d="M775.508 1541.24 L780.392 1541.24 L780.392 1547.12 L775.508 1547.12 L775.508 1541.24 Z" fill="#000000" fill-rule="evenodd" fill-opacity="1" /><path clip-path="url(#clip510)" d="M790.624 1512.56 L808.98 1512.56 L808.98 1516.5 L794.906 1516.5 L794.906 1524.97 Q795.925 1524.62 796.943 1524.46 Q797.962 1524.27 798.98 1524.27 Q804.767 1524.27 808.147 1527.44 Q811.526 1530.62 811.526 1536.03 Q811.526 1541.61 808.054 1544.71 Q804.582 1547.79 798.263 1547.79 Q796.087 1547.79 793.818 1547.42 Q791.573 1547.05 789.166 1546.31 L789.166 1541.61 Q791.249 1542.74 793.471 1543.3 Q795.693 1543.86 798.17 1543.86 Q802.175 1543.86 804.513 1541.75 Q806.851 1539.64 806.851 1536.03 Q806.851 1532.42 804.513 1530.31 Q802.175 1528.21 798.17 1528.21 Q796.295 1528.21 794.42 1528.62 Q792.568 1529.04 790.624 1529.92 L790.624 1512.56 Z" fill="#000000" fill-rule="evenodd" fill-opacity="1" /><path clip-path="url(#clip510)" d="M1246.9 1515.64 Q1243.29 1515.64 1241.46 1519.2 Q1239.65 1522.75 1239.65 1529.87 Q1239.65 1536.98 1241.46 1540.55 Q1243.29 1544.09 1246.9 1544.09 Q1250.53 1544.09 1252.34 1540.55 Q1254.17 1536.98 1254.17 1529.87 Q1254.17 1522.75 1252.34 1519.2 Q1250.53 1515.64 1246.9 1515.64 M1246.9 1511.93 Q1252.71 1511.93 1255.77 1516.54 Q1258.84 1521.12 1258.84 1529.87 Q1258.84 1538.6 1255.77 1543.21 Q1252.71 1547.79 1246.9 1547.79 Q1241.09 1547.79 1238.01 1543.21 Q1234.95 1538.6 1234.95 1529.87 Q1234.95 1521.12 1238.01 1516.54 Q1241.09 1511.93 1246.9 1511.93 Z" fill="#000000" fill-rule="evenodd" fill-opacity="1" /><path clip-path="url(#clip510)" d="M1267.06 1541.24 L1271.95 1541.24 L1271.95 1547.12 L1267.06 1547.12 L1267.06 1541.24 Z" fill="#000000" fill-rule="evenodd" fill-opacity="1" /><path clip-path="url(#clip510)" d="M1292.13 1515.64 Q1288.52 1515.64 1286.69 1519.2 Q1284.89 1522.75 1284.89 1529.87 Q1284.89 1536.98 1286.69 1540.55 Q1288.52 1544.09 1292.13 1544.09 Q1295.76 1544.09 1297.57 1540.55 Q1299.4 1536.98 1299.4 1529.87 Q1299.4 1522.75 1297.57 1519.2 Q1295.76 1515.64 1292.13 1515.64 M1292.13 1511.93 Q1297.94 1511.93 1301 1516.54 Q1304.07 1521.12 1304.07 1529.87 Q1304.07 1538.6 1301 1543.21 Q1297.94 1547.79 1292.13 1547.79 Q1286.32 1547.79 1283.24 1543.21 Q1280.19 1538.6 1280.19 1529.87 Q1280.19 1521.12 1283.24 1516.54 Q1286.32 1511.93 1292.13 1511.93 Z" fill="#000000" fill-rule="evenodd" fill-opacity="1" /><path clip-path="url(#clip510)" d="M1758.36 1515.64 Q1754.75 1515.64 1752.92 1519.2 Q1751.11 1522.75 1751.11 1529.87 Q1751.11 1536.98 1752.92 1540.55 Q1754.75 1544.09 1758.36 1544.09 Q1761.99 1544.09 1763.8 1540.55 Q1765.63 1536.98 1765.63 1529.87 Q1765.63 1522.75 1763.8 1519.2 Q1761.99 1515.64 1758.36 1515.64 M1758.36 1511.93 Q1764.17 1511.93 1767.23 1516.54 Q1770.3 1521.12 1770.3 1529.87 Q1770.3 1538.6 1767.23 1543.21 Q1764.17 1547.79 1758.36 1547.79 Q1752.55 1547.79 1749.47 1543.21 Q1746.42 1538.6 1746.42 1529.87 Q1746.42 1521.12 1749.47 1516.54 Q1752.55 1511.93 1758.36 1511.93 Z" fill="#000000" fill-rule="evenodd" fill-opacity="1" /><path clip-path="url(#clip510)" d="M1778.52 1541.24 L1783.41 1541.24 L1783.41 1547.12 L1778.52 1547.12 L1778.52 1541.24 Z" fill="#000000" fill-rule="evenodd" fill-opacity="1" /><path clip-path="url(#clip510)" d="M1793.64 1512.56 L1811.99 1512.56 L1811.99 1516.5 L1797.92 1516.5 L1797.92 1524.97 Q1798.94 1524.62 1799.96 1524.46 Q1800.98 1524.27 1801.99 1524.27 Q1807.78 1524.27 1811.16 1527.44 Q1814.54 1530.62 1814.54 1536.03 Q1814.54 1541.61 1811.07 1544.71 Q1807.6 1547.79 1801.28 1547.79 Q1799.1 1547.79 1796.83 1547.42 Q1794.59 1547.05 1792.18 1546.31 L1792.18 1541.61 Q1794.26 1542.74 1796.48 1543.3 Q1798.71 1543.86 1801.18 1543.86 Q1805.19 1543.86 1807.53 1541.75 Q1809.86 1539.64 1809.86 1536.03 Q1809.86 1532.42 1807.53 1530.31 Q1805.19 1528.21 1801.18 1528.21 Q1799.31 1528.21 1797.43 1528.62 Q1795.58 1529.04 1793.64 1529.92 L1793.64 1512.56 Z" fill="#000000" fill-rule="evenodd" fill-opacity="1" /><path clip-path="url(#clip510)" d="M2258.59 1543.18 L2266.23 1543.18 L2266.23 1516.82 L2257.92 1518.49 L2257.92 1514.23 L2266.19 1512.56 L2270.86 1512.56 L2270.86 1543.18 L2278.5 1543.18 L2278.5 1547.12 L2258.59 1547.12 L2258.59 1543.18 Z" fill="#000000" fill-rule="evenodd" fill-opacity="1" /><path clip-path="url(#clip510)" d="M2287.95 1541.24 L2292.83 1541.24 L2292.83 1547.12 L2287.95 1547.12 L2287.95 1541.24 Z" fill="#000000" fill-rule="evenodd" fill-opacity="1" /><path clip-path="url(#clip510)" d="M2313.01 1515.64 Q2309.4 1515.64 2307.57 1519.2 Q2305.77 1522.75 2305.77 1529.87 Q2305.77 1536.98 2307.57 1540.55 Q2309.4 1544.09 2313.01 1544.09 Q2316.65 1544.09 2318.45 1540.55 Q2320.28 1536.98 2320.28 1529.87 Q2320.28 1522.75 2318.45 1519.2 Q2316.65 1515.64 2313.01 1515.64 M2313.01 1511.93 Q2318.82 1511.93 2321.88 1516.54 Q2324.96 1521.12 2324.96 1529.87 Q2324.96 1538.6 2321.88 1543.21 Q2318.82 1547.79 2313.01 1547.79 Q2307.2 1547.79 2304.13 1543.21 Q2301.07 1538.6 2301.07 1529.87 Q2301.07 1521.12 2304.13 1516.54 Q2307.2 1511.93 2313.01 1511.93 Z" fill="#000000" fill-rule="evenodd" fill-opacity="1" /><polyline clip-path="url(#clip512)" style="stroke:#000000; stroke-linecap:butt; stroke-linejoin:round; stroke-width:2; stroke-opacity:0.1; fill:none" points="
  186.274,1479.92 2352.76,1479.92 
  "/>
<polyline clip-path="url(#clip512)" style="stroke:#000000; stroke-linecap:butt; stroke-linejoin:round; stroke-width:2; stroke-opacity:0.1; fill:none" points="
  186.274,1181.33 2352.76,1181.33 
  "/>
<polyline clip-path="url(#clip512)" style="stroke:#000000; stroke-linecap:butt; stroke-linejoin:round; stroke-width:2; stroke-opacity:0.1; fill:none" points="
  186.274,882.737 2352.76,882.737 
  "/>
<polyline clip-path="url(#clip512)" style="stroke:#000000; stroke-linecap:butt; stroke-linejoin:round; stroke-width:2; stroke-opacity:0.1; fill:none" points="
  186.274,584.144 2352.76,584.144 
  "/>
<polyline clip-path="url(#clip512)" style="stroke:#000000; stroke-linecap:butt; stroke-linejoin:round; stroke-width:2; stroke-opacity:0.1; fill:none" points="
  186.274,285.55 2352.76,285.55 
  "/>
<polyline clip-path="url(#clip510)" style="stroke:#000000; stroke-linecap:butt; stroke-linejoin:round; stroke-width:4; stroke-opacity:1; fill:none" points="
  186.274,1486.45 186.274,47.2441 
  "/>
<polyline clip-path="url(#clip510)" style="stroke:#000000; stroke-linecap:butt; stroke-linejoin:round; stroke-width:4; stroke-opacity:1; fill:none" points="
  186.274,1479.92 205.172,1479.92 
  "/>
<polyline clip-path="url(#clip510)" style="stroke:#000000; stroke-linecap:butt; stroke-linejoin:round; stroke-width:4; stroke-opacity:1; fill:none" points="
  186.274,1181.33 205.172,1181.33 
  "/>
<polyline clip-path="url(#clip510)" style="stroke:#000000; stroke-linecap:butt; stroke-linejoin:round; stroke-width:4; stroke-opacity:1; fill:none" points="
  186.274,882.737 205.172,882.737 
  "/>
<polyline clip-path="url(#clip510)" style="stroke:#000000; stroke-linecap:butt; stroke-linejoin:round; stroke-width:4; stroke-opacity:1; fill:none" points="
  186.274,584.144 205.172,584.144 
  "/>
<polyline clip-path="url(#clip510)" style="stroke:#000000; stroke-linecap:butt; stroke-linejoin:round; stroke-width:4; stroke-opacity:1; fill:none" points="
  186.274,285.55 205.172,285.55 
  "/>
<path clip-path="url(#clip510)" d="M62.9365 1465.72 Q59.3254 1465.72 57.4967 1469.29 Q55.6912 1472.83 55.6912 1479.96 Q55.6912 1487.07 57.4967 1490.63 Q59.3254 1494.17 62.9365 1494.17 Q66.5707 1494.17 68.3763 1490.63 Q70.205 1487.07 70.205 1479.96 Q70.205 1472.83 68.3763 1469.29 Q66.5707 1465.72 62.9365 1465.72 M62.9365 1462.02 Q68.7467 1462.02 71.8022 1466.63 Q74.8809 1471.21 74.8809 1479.96 Q74.8809 1488.69 71.8022 1493.29 Q68.7467 1497.88 62.9365 1497.88 Q57.1264 1497.88 54.0477 1493.29 Q50.9921 1488.69 50.9921 1479.96 Q50.9921 1471.21 54.0477 1466.63 Q57.1264 1462.02 62.9365 1462.02 Z" fill="#000000" fill-rule="evenodd" fill-opacity="1" /><path clip-path="url(#clip510)" d="M83.0984 1491.33 L87.9827 1491.33 L87.9827 1497.2 L83.0984 1497.2 L83.0984 1491.33 Z" fill="#000000" fill-rule="evenodd" fill-opacity="1" /><path clip-path="url(#clip510)" d="M108.168 1465.72 Q104.557 1465.72 102.728 1469.29 Q100.922 1472.83 100.922 1479.96 Q100.922 1487.07 102.728 1490.63 Q104.557 1494.17 108.168 1494.17 Q111.802 1494.17 113.608 1490.63 Q115.436 1487.07 115.436 1479.96 Q115.436 1472.83 113.608 1469.29 Q111.802 1465.72 108.168 1465.72 M108.168 1462.02 Q113.978 1462.02 117.033 1466.63 Q120.112 1471.21 120.112 1479.96 Q120.112 1488.69 117.033 1493.29 Q113.978 1497.88 108.168 1497.88 Q102.358 1497.88 99.2789 1493.29 Q96.2234 1488.69 96.2234 1479.96 Q96.2234 1471.21 99.2789 1466.63 Q102.358 1462.02 108.168 1462.02 Z" fill="#000000" fill-rule="evenodd" fill-opacity="1" /><path clip-path="url(#clip510)" d="M138.33 1465.72 Q134.719 1465.72 132.89 1469.29 Q131.084 1472.83 131.084 1479.96 Q131.084 1487.07 132.89 1490.63 Q134.719 1494.17 138.33 1494.17 Q141.964 1494.17 143.769 1490.63 Q145.598 1487.07 145.598 1479.96 Q145.598 1472.83 143.769 1469.29 Q141.964 1465.72 138.33 1465.72 M138.33 1462.02 Q144.14 1462.02 147.195 1466.63 Q150.274 1471.21 150.274 1479.96 Q150.274 1488.69 147.195 1493.29 Q144.14 1497.88 138.33 1497.88 Q132.519 1497.88 129.441 1493.29 Q126.385 1488.69 126.385 1479.96 Q126.385 1471.21 129.441 1466.63 Q132.519 1462.02 138.33 1462.02 Z" fill="#000000" fill-rule="evenodd" fill-opacity="1" /><path clip-path="url(#clip510)" d="M63.9319 1167.13 Q60.3208 1167.13 58.4921 1170.69 Q56.6865 1174.24 56.6865 1181.37 Q56.6865 1188.47 58.4921 1192.04 Q60.3208 1195.58 63.9319 1195.58 Q67.5661 1195.58 69.3717 1192.04 Q71.2004 1188.47 71.2004 1181.37 Q71.2004 1174.24 69.3717 1170.69 Q67.5661 1167.13 63.9319 1167.13 M63.9319 1163.43 Q69.742 1163.43 72.7976 1168.03 Q75.8763 1172.62 75.8763 1181.37 Q75.8763 1190.09 72.7976 1194.7 Q69.742 1199.28 63.9319 1199.28 Q58.1217 1199.28 55.043 1194.7 Q51.9875 1190.09 51.9875 1181.37 Q51.9875 1172.62 55.043 1168.03 Q58.1217 1163.43 63.9319 1163.43 Z" fill="#000000" fill-rule="evenodd" fill-opacity="1" /><path clip-path="url(#clip510)" d="M84.0938 1192.73 L88.978 1192.73 L88.978 1198.61 L84.0938 1198.61 L84.0938 1192.73 Z" fill="#000000" fill-rule="evenodd" fill-opacity="1" /><path clip-path="url(#clip510)" d="M103.191 1194.68 L119.51 1194.68 L119.51 1198.61 L97.566 1198.61 L97.566 1194.68 Q100.228 1191.92 104.811 1187.29 Q109.418 1182.64 110.598 1181.3 Q112.844 1178.77 113.723 1177.04 Q114.626 1175.28 114.626 1173.59 Q114.626 1170.83 112.682 1169.1 Q110.76 1167.36 107.658 1167.36 Q105.459 1167.36 103.006 1168.13 Q100.575 1168.89 97.7974 1170.44 L97.7974 1165.72 Q100.621 1164.58 103.075 1164 Q105.529 1163.43 107.566 1163.43 Q112.936 1163.43 116.131 1166.11 Q119.325 1168.8 119.325 1173.29 Q119.325 1175.42 118.515 1177.34 Q117.728 1179.24 115.621 1181.83 Q115.043 1182.5 111.941 1185.72 Q108.839 1188.91 103.191 1194.68 Z" fill="#000000" fill-rule="evenodd" fill-opacity="1" /><path clip-path="url(#clip510)" d="M129.371 1164.05 L147.728 1164.05 L147.728 1167.99 L133.654 1167.99 L133.654 1176.46 Q134.672 1176.11 135.691 1175.95 Q136.709 1175.76 137.728 1175.76 Q143.515 1175.76 146.894 1178.94 Q150.274 1182.11 150.274 1187.52 Q150.274 1193.1 146.802 1196.2 Q143.33 1199.28 137.01 1199.28 Q134.834 1199.28 132.566 1198.91 Q130.32 1198.54 127.913 1197.8 L127.913 1193.1 Q129.996 1194.24 132.219 1194.79 Q134.441 1195.35 136.918 1195.35 Q140.922 1195.35 143.26 1193.24 Q145.598 1191.13 145.598 1187.52 Q145.598 1183.91 143.26 1181.81 Q140.922 1179.7 136.918 1179.7 Q135.043 1179.7 133.168 1180.12 Q131.316 1180.53 129.371 1181.41 L129.371 1164.05 Z" fill="#000000" fill-rule="evenodd" fill-opacity="1" /><path clip-path="url(#clip510)" d="M62.9365 868.536 Q59.3254 868.536 57.4967 872.101 Q55.6912 875.643 55.6912 882.772 Q55.6912 889.879 57.4967 893.443 Q59.3254 896.985 62.9365 896.985 Q66.5707 896.985 68.3763 893.443 Q70.205 889.879 70.205 882.772 Q70.205 875.643 68.3763 872.101 Q66.5707 868.536 62.9365 868.536 M62.9365 864.832 Q68.7467 864.832 71.8022 869.439 Q74.8809 874.022 74.8809 882.772 Q74.8809 891.499 71.8022 896.105 Q68.7467 900.689 62.9365 900.689 Q57.1264 900.689 54.0477 896.105 Q50.9921 891.499 50.9921 882.772 Q50.9921 874.022 54.0477 869.439 Q57.1264 864.832 62.9365 864.832 Z" fill="#000000" fill-rule="evenodd" fill-opacity="1" /><path clip-path="url(#clip510)" d="M83.0984 894.138 L87.9827 894.138 L87.9827 900.017 L83.0984 900.017 L83.0984 894.138 Z" fill="#000000" fill-rule="evenodd" fill-opacity="1" /><path clip-path="url(#clip510)" d="M98.2141 865.457 L116.57 865.457 L116.57 869.393 L102.496 869.393 L102.496 877.865 Q103.515 877.518 104.534 877.356 Q105.552 877.17 106.571 877.17 Q112.358 877.17 115.737 880.342 Q119.117 883.513 119.117 888.93 Q119.117 894.508 115.645 897.61 Q112.172 900.689 105.853 900.689 Q103.677 900.689 101.409 900.318 Q99.1632 899.948 96.7558 899.207 L96.7558 894.508 Q98.8391 895.642 101.061 896.198 Q103.284 896.754 105.76 896.754 Q109.765 896.754 112.103 894.647 Q114.441 892.541 114.441 888.93 Q114.441 885.318 112.103 883.212 Q109.765 881.106 105.76 881.106 Q103.885 881.106 102.01 881.522 Q100.159 881.939 98.2141 882.818 L98.2141 865.457 Z" fill="#000000" fill-rule="evenodd" fill-opacity="1" /><path clip-path="url(#clip510)" d="M138.33 868.536 Q134.719 868.536 132.89 872.101 Q131.084 875.643 131.084 882.772 Q131.084 889.879 132.89 893.443 Q134.719 896.985 138.33 896.985 Q141.964 896.985 143.769 893.443 Q145.598 889.879 145.598 882.772 Q145.598 875.643 143.769 872.101 Q141.964 868.536 138.33 868.536 M138.33 864.832 Q144.14 864.832 147.195 869.439 Q150.274 874.022 150.274 882.772 Q150.274 891.499 147.195 896.105 Q144.14 900.689 138.33 900.689 Q132.519 900.689 129.441 896.105 Q126.385 891.499 126.385 882.772 Q126.385 874.022 129.441 869.439 Q132.519 864.832 138.33 864.832 Z" fill="#000000" fill-rule="evenodd" fill-opacity="1" /><path clip-path="url(#clip510)" d="M63.9319 569.942 Q60.3208 569.942 58.4921 573.507 Q56.6865 577.049 56.6865 584.178 Q56.6865 591.285 58.4921 594.85 Q60.3208 598.391 63.9319 598.391 Q67.5661 598.391 69.3717 594.85 Q71.2004 591.285 71.2004 584.178 Q71.2004 577.049 69.3717 573.507 Q67.5661 569.942 63.9319 569.942 M63.9319 566.239 Q69.742 566.239 72.7976 570.845 Q75.8763 575.429 75.8763 584.178 Q75.8763 592.905 72.7976 597.512 Q69.742 602.095 63.9319 602.095 Q58.1217 602.095 55.043 597.512 Q51.9875 592.905 51.9875 584.178 Q51.9875 575.429 55.043 570.845 Q58.1217 566.239 63.9319 566.239 Z" fill="#000000" fill-rule="evenodd" fill-opacity="1" /><path clip-path="url(#clip510)" d="M84.0938 595.544 L88.978 595.544 L88.978 601.424 L84.0938 601.424 L84.0938 595.544 Z" fill="#000000" fill-rule="evenodd" fill-opacity="1" /><path clip-path="url(#clip510)" d="M97.9826 566.864 L120.205 566.864 L120.205 568.855 L107.658 601.424 L102.774 601.424 L114.58 570.799 L97.9826 570.799 L97.9826 566.864 Z" fill="#000000" fill-rule="evenodd" fill-opacity="1" /><path clip-path="url(#clip510)" d="M129.371 566.864 L147.728 566.864 L147.728 570.799 L133.654 570.799 L133.654 579.271 Q134.672 578.924 135.691 578.762 Q136.709 578.577 137.728 578.577 Q143.515 578.577 146.894 581.748 Q150.274 584.919 150.274 590.336 Q150.274 595.915 146.802 599.016 Q143.33 602.095 137.01 602.095 Q134.834 602.095 132.566 601.725 Q130.32 601.354 127.913 600.614 L127.913 595.915 Q129.996 597.049 132.219 597.604 Q134.441 598.16 136.918 598.16 Q140.922 598.16 143.26 596.053 Q145.598 593.947 145.598 590.336 Q145.598 586.725 143.26 584.618 Q140.922 582.512 136.918 582.512 Q135.043 582.512 133.168 582.929 Q131.316 583.345 129.371 584.225 L129.371 566.864 Z" fill="#000000" fill-rule="evenodd" fill-opacity="1" /><path clip-path="url(#clip510)" d="M53.7467 298.895 L61.3856 298.895 L61.3856 272.529 L53.0754 274.196 L53.0754 269.937 L61.3393 268.27 L66.0152 268.27 L66.0152 298.895 L73.654 298.895 L73.654 302.83 L53.7467 302.83 L53.7467 298.895 Z" fill="#000000" fill-rule="evenodd" fill-opacity="1" /><path clip-path="url(#clip510)" d="M83.0984 296.95 L87.9827 296.95 L87.9827 302.83 L83.0984 302.83 L83.0984 296.95 Z" fill="#000000" fill-rule="evenodd" fill-opacity="1" /><path clip-path="url(#clip510)" d="M108.168 271.349 Q104.557 271.349 102.728 274.914 Q100.922 278.455 100.922 285.585 Q100.922 292.691 102.728 296.256 Q104.557 299.798 108.168 299.798 Q111.802 299.798 113.608 296.256 Q115.436 292.691 115.436 285.585 Q115.436 278.455 113.608 274.914 Q111.802 271.349 108.168 271.349 M108.168 267.645 Q113.978 267.645 117.033 272.252 Q120.112 276.835 120.112 285.585 Q120.112 294.312 117.033 298.918 Q113.978 303.501 108.168 303.501 Q102.358 303.501 99.2789 298.918 Q96.2234 294.312 96.2234 285.585 Q96.2234 276.835 99.2789 272.252 Q102.358 267.645 108.168 267.645 Z" fill="#000000" fill-rule="evenodd" fill-opacity="1" /><path clip-path="url(#clip510)" d="M138.33 271.349 Q134.719 271.349 132.89 274.914 Q131.084 278.455 131.084 285.585 Q131.084 292.691 132.89 296.256 Q134.719 299.798 138.33 299.798 Q141.964 299.798 143.769 296.256 Q145.598 292.691 145.598 285.585 Q145.598 278.455 143.769 274.914 Q141.964 271.349 138.33 271.349 M138.33 267.645 Q144.14 267.645 147.195 272.252 Q150.274 276.835 150.274 285.585 Q150.274 294.312 147.195 298.918 Q144.14 303.501 138.33 303.501 Q132.519 303.501 129.441 298.918 Q126.385 294.312 126.385 285.585 Q126.385 276.835 129.441 272.252 Q132.519 267.645 138.33 267.645 Z" fill="#000000" fill-rule="evenodd" fill-opacity="1" /><circle clip-path="url(#clip512)" cx="247.59" cy="1371.35" r="14" fill="#009af9" fill-rule="evenodd" fill-opacity="1" stroke="#000000" stroke-opacity="1" stroke-width="3.2"/>
<circle clip-path="url(#clip512)" cx="355.161" cy="1347.3" r="14" fill="#009af9" fill-rule="evenodd" fill-opacity="1" stroke="#000000" stroke-opacity="1" stroke-width="3.2"/>
<circle clip-path="url(#clip512)" cx="462.732" cy="1314.79" r="14" fill="#009af9" fill-rule="evenodd" fill-opacity="1" stroke="#000000" stroke-opacity="1" stroke-width="3.2"/>
<circle clip-path="url(#clip512)" cx="570.303" cy="1269.7" r="14" fill="#009af9" fill-rule="evenodd" fill-opacity="1" stroke="#000000" stroke-opacity="1" stroke-width="3.2"/>
<circle clip-path="url(#clip512)" cx="677.874" cy="1205.47" r="14" fill="#009af9" fill-rule="evenodd" fill-opacity="1" stroke="#000000" stroke-opacity="1" stroke-width="3.2"/>
<circle clip-path="url(#clip512)" cx="785.445" cy="1111.72" r="14" fill="#009af9" fill-rule="evenodd" fill-opacity="1" stroke="#000000" stroke-opacity="1" stroke-width="3.2"/>
<circle clip-path="url(#clip512)" cx="893.016" cy="973.263" r="14" fill="#009af9" fill-rule="evenodd" fill-opacity="1" stroke="#000000" stroke-opacity="1" stroke-width="3.2"/>
<circle clip-path="url(#clip512)" cx="1000.59" cy="774.247" r="14" fill="#009af9" fill-rule="evenodd" fill-opacity="1" stroke="#000000" stroke-opacity="1" stroke-width="3.2"/>
<circle clip-path="url(#clip512)" cx="1108.16" cy="523.895" r="14" fill="#009af9" fill-rule="evenodd" fill-opacity="1" stroke="#000000" stroke-opacity="1" stroke-width="3.2"/>
<circle clip-path="url(#clip512)" cx="1215.73" cy="317.743" r="14" fill="#009af9" fill-rule="evenodd" fill-opacity="1" stroke="#000000" stroke-opacity="1" stroke-width="3.2"/>
<circle clip-path="url(#clip512)" cx="1323.3" cy="317.743" r="14" fill="#009af9" fill-rule="evenodd" fill-opacity="1" stroke="#000000" stroke-opacity="1" stroke-width="3.2"/>
<circle clip-path="url(#clip512)" cx="1430.87" cy="523.895" r="14" fill="#009af9" fill-rule="evenodd" fill-opacity="1" stroke="#000000" stroke-opacity="1" stroke-width="3.2"/>
<circle clip-path="url(#clip512)" cx="1538.44" cy="774.247" r="14" fill="#009af9" fill-rule="evenodd" fill-opacity="1" stroke="#000000" stroke-opacity="1" stroke-width="3.2"/>
<circle clip-path="url(#clip512)" cx="1646.01" cy="973.263" r="14" fill="#009af9" fill-rule="evenodd" fill-opacity="1" stroke="#000000" stroke-opacity="1" stroke-width="3.2"/>
<circle clip-path="url(#clip512)" cx="1753.58" cy="1111.72" r="14" fill="#009af9" fill-rule="evenodd" fill-opacity="1" stroke="#000000" stroke-opacity="1" stroke-width="3.2"/>
<circle clip-path="url(#clip512)" cx="1861.16" cy="1205.47" r="14" fill="#009af9" fill-rule="evenodd" fill-opacity="1" stroke="#000000" stroke-opacity="1" stroke-width="3.2"/>
<circle clip-path="url(#clip512)" cx="1968.73" cy="1269.7" r="14" fill="#009af9" fill-rule="evenodd" fill-opacity="1" stroke="#000000" stroke-opacity="1" stroke-width="3.2"/>
<circle clip-path="url(#clip512)" cx="2076.3" cy="1314.79" r="14" fill="#009af9" fill-rule="evenodd" fill-opacity="1" stroke="#000000" stroke-opacity="1" stroke-width="3.2"/>
<circle clip-path="url(#clip512)" cx="2183.87" cy="1347.3" r="14" fill="#009af9" fill-rule="evenodd" fill-opacity="1" stroke="#000000" stroke-opacity="1" stroke-width="3.2"/>
<circle clip-path="url(#clip512)" cx="2291.44" cy="1371.35" r="14" fill="#009af9" fill-rule="evenodd" fill-opacity="1" stroke="#000000" stroke-opacity="1" stroke-width="3.2"/>
<polyline clip-path="url(#clip512)" style="stroke:#e26f46; stroke-linecap:butt; stroke-linejoin:round; stroke-width:4; stroke-opacity:1; fill:none" points="
  247.59,1371.35 257.569,1369.39 267.549,1367.39 359.828,1346.09 452.107,1318.48 507.563,1297.83 563.019,1273.27 609.906,1248.73 656.793,1219.99 707.726,1182.97 
  758.658,1138.57 805.614,1089.69 852.569,1031.69 877.74,996.318 902.91,957.665 928.081,915.552 953.251,869.855 1011.58,750.348 1069.9,615.401 1121.73,492.121 
  1173.57,382.308 1196.29,343.874 1219.02,314.017 1241.75,294.305 1264.47,285.841 1289.25,289.987 1314.03,307.788 1338.8,338.045 1363.58,378.845 1413.43,483.224 
  1463.28,601.397 1518.4,730.221 1573.51,846.276 1599.73,895.636 1625.95,941.081 1652.17,982.708 1678.39,1020.7 1732.92,1089.13 1787.45,1145.24 1833.35,1184.59 
  1879.25,1218 1935.28,1252.18 1991.32,1280.49 2044,1302.81 2096.68,1321.76 2181.07,1346.57 2265.46,1366.15 2278.45,1368.79 2291.44,1371.35 
  "/>
<polyline clip-path="url(#clip512)" style="stroke:#3da44d; stroke-linecap:butt; stroke-linejoin:round; stroke-width:4; stroke-opacity:1; fill:none" points="
  247.59,1371.35 248.837,1231.5 250.085,1102.4 251.332,983.515 252.579,874.32 253.827,774.327 255.074,683.058 256.322,600.058 257.569,524.888 258.817,457.128 
  260.064,396.375 261.312,342.24 262.559,294.352 263.807,252.356 265.054,215.91 265.678,199.666 266.302,184.687 266.926,170.936 267.549,158.375 268.991,133.689 
  270.433,114.721 271.875,101.054 273.317,92.2884 276.201,87.9763 279.084,98.9981 281.968,122.856 284.852,157.319 287.735,200.397 290.619,250.325 296.387,364.674 
  302.154,490.015 307.921,618.48 313.689,744.249 319.456,863.168 325.224,972.434 330.991,1070.32 336.759,1155.93 342.526,1229.05 348.293,1289.92 354.061,1339.16 
  359.828,1377.63 365.596,1406.34 371.363,1426.41 377.131,1438.97 382.898,1445.14 394.433,1442.59 405.968,1426.55 429.038,1377.73 452.107,1331.32 465.971,1310.46 
  479.835,1295.59 493.699,1285.98 507.563,1280.37 535.291,1275.53 563.019,1271.43 609.906,1253.37 656.793,1221.81 707.726,1181.43 758.658,1137.6 805.614,1090.27 
  852.569,1032.44 877.74,996.632 902.91,957.477 928.081,915.032 953.251,869.297 1011.58,750.508 1069.9,615.827 1121.73,491.942 1173.57,381.874 1196.29,343.626 
  1219.02,314.061 1241.75,294.623 1264.47,286.299 1289.25,290.375 1314.03,307.911 1338.8,337.843 1363.58,378.419 1413.43,482.999 1463.28,601.779 1518.4,730.497 
  1573.51,845.805 1625.95,940.728 1678.39,1021.33 1732.92,1089.72 1787.45,1144.03 1833.35,1183.1 1879.25,1219.54 1935.28,1256.67 1991.32,1274.04 2017.66,1277.35 
  2044,1285.29 2057.17,1293.88 2070.34,1307.08 2083.51,1325.62 2096.68,1349.47 2117.78,1395.08 2138.87,1435.89 2149.42,1445.72 2159.97,1441.68 2165.25,1432.53 
  2170.52,1417.49 2175.8,1395.69 2181.07,1366.28 2186.35,1328.42 2191.62,1281.36 2196.9,1224.48 2202.17,1157.33 2207.44,1079.72 2212.72,991.796 2217.99,894.155 
  2223.27,787.953 2228.54,675.047 2233.82,558.168 2239.09,441.108 2244.37,328.943 2247,276.696 2249.64,228.292 2252.28,184.846 2254.92,147.611 2257.55,117.987 
  2260.19,97.532 2262.83,87.9787 2265.46,91.2461 2266.28,95.1548 2267.09,100.543 2267.9,107.48 2268.71,116.034 2270.34,138.285 2271.96,167.9 2273.58,205.517 
  2275.21,251.812 2276.83,307.501 2278.45,373.339 2280.08,450.127 2281.7,538.709 2283.32,639.976 2284.95,754.868 2286.57,884.378 2288.19,1029.55 2289.82,1191.49 
  2291.44,1371.35 
  "/>
<path clip-path="url(#clip510)" d="
M1986.81 302.578 L2280.54 302.578 L2280.54 95.2176 L1986.81 95.2176  Z
  " fill="#ffffff" fill-rule="evenodd" fill-opacity="1"/>
<polyline clip-path="url(#clip510)" style="stroke:#000000; stroke-linecap:butt; stroke-linejoin:round; stroke-width:4; stroke-opacity:1; fill:none" points="
  1986.81,302.578 2280.54,302.578 2280.54,95.2176 1986.81,95.2176 1986.81,302.578 
  "/>
<circle clip-path="url(#clip510)" cx="2083.1" cy="147.058" r="23" fill="#009af9" fill-rule="evenodd" fill-opacity="1" stroke="#000000" stroke-opacity="1" stroke-width="5.12"/>
<path clip-path="url(#clip510)" d="M2193.23 166.745 Q2191.42 171.375 2189.71 172.787 Q2188 174.199 2185.13 174.199 L2181.72 174.199 L2181.72 170.634 L2184.22 170.634 Q2185.98 170.634 2186.96 169.8 Q2187.93 168.967 2189.11 165.865 L2189.87 163.921 L2179.39 138.412 L2183.9 138.412 L2192 158.689 L2200.1 138.412 L2204.62 138.412 L2193.23 166.745 Z" fill="#000000" fill-rule="evenodd" fill-opacity="1" /><path clip-path="url(#clip510)" d="M2211.91 160.402 L2219.55 160.402 L2219.55 134.037 L2211.24 135.703 L2211.24 131.444 L2219.5 129.778 L2224.18 129.778 L2224.18 160.402 L2231.82 160.402 L2231.82 164.338 L2211.91 164.338 L2211.91 160.402 Z" fill="#000000" fill-rule="evenodd" fill-opacity="1" /><polyline clip-path="url(#clip510)" style="stroke:#e26f46; stroke-linecap:butt; stroke-linejoin:round; stroke-width:4; stroke-opacity:1; fill:none" points="
  2010.88,198.898 2155.31,198.898 
  "/>
<path clip-path="url(#clip510)" d="M2193.23 218.585 Q2191.42 223.215 2189.71 224.627 Q2188 226.039 2185.13 226.039 L2181.72 226.039 L2181.72 222.474 L2184.22 222.474 Q2185.98 222.474 2186.96 221.64 Q2187.93 220.807 2189.11 217.705 L2189.87 215.761 L2179.39 190.252 L2183.9 190.252 L2192 210.529 L2200.1 190.252 L2204.62 190.252 L2193.23 218.585 Z" fill="#000000" fill-rule="evenodd" fill-opacity="1" /><path clip-path="url(#clip510)" d="M2215.13 212.242 L2231.45 212.242 L2231.45 216.178 L2209.5 216.178 L2209.5 212.242 Q2212.16 209.488 2216.75 204.858 Q2221.35 200.205 2222.53 198.863 Q2224.78 196.34 2225.66 194.604 Q2226.56 192.844 2226.56 191.155 Q2226.56 188.4 2224.62 186.664 Q2222.7 184.928 2219.59 184.928 Q2217.4 184.928 2214.94 185.692 Q2212.51 186.455 2209.73 188.006 L2209.73 183.284 Q2212.56 182.15 2215.01 181.571 Q2217.47 180.993 2219.5 180.993 Q2224.87 180.993 2228.07 183.678 Q2231.26 186.363 2231.26 190.854 Q2231.26 192.983 2230.45 194.905 Q2229.66 196.803 2227.56 199.395 Q2226.98 200.067 2223.88 203.284 Q2220.78 206.479 2215.13 212.242 Z" fill="#000000" fill-rule="evenodd" fill-opacity="1" /><polyline clip-path="url(#clip510)" style="stroke:#3da44d; stroke-linecap:butt; stroke-linejoin:round; stroke-width:4; stroke-opacity:1; fill:none" points="
  2010.88,250.738 2155.31,250.738 
  "/>
<path clip-path="url(#clip510)" d="M2193.23 270.425 Q2191.42 275.055 2189.71 276.467 Q2188 277.879 2185.13 277.879 L2181.72 277.879 L2181.72 274.314 L2184.22 274.314 Q2185.98 274.314 2186.96 273.48 Q2187.93 272.647 2189.11 269.545 L2189.87 267.601 L2179.39 242.092 L2183.9 242.092 L2192 262.369 L2200.1 242.092 L2204.62 242.092 L2193.23 270.425 Z" fill="#000000" fill-rule="evenodd" fill-opacity="1" /><path clip-path="url(#clip510)" d="M2225.27 249.383 Q2228.62 250.101 2230.5 252.369 Q2232.4 254.638 2232.4 257.971 Q2232.4 263.087 2228.88 265.888 Q2225.36 268.689 2218.88 268.689 Q2216.7 268.689 2214.39 268.249 Q2212.09 267.832 2209.64 266.976 L2209.64 262.462 Q2211.59 263.596 2213.9 264.175 Q2216.22 264.754 2218.74 264.754 Q2223.14 264.754 2225.43 263.018 Q2227.74 261.281 2227.74 257.971 Q2227.74 254.916 2225.59 253.203 Q2223.46 251.467 2219.64 251.467 L2215.61 251.467 L2215.61 247.624 L2219.83 247.624 Q2223.28 247.624 2225.1 246.258 Q2226.93 244.87 2226.93 242.277 Q2226.93 239.615 2225.03 238.203 Q2223.16 236.768 2219.64 236.768 Q2217.72 236.768 2215.52 237.184 Q2213.32 237.601 2210.68 238.481 L2210.68 234.314 Q2213.34 233.573 2215.66 233.203 Q2218 232.833 2220.06 232.833 Q2225.38 232.833 2228.48 235.263 Q2231.59 237.67 2231.59 241.791 Q2231.59 244.661 2229.94 246.652 Q2228.3 248.62 2225.27 249.383 Z" fill="#000000" fill-rule="evenodd" fill-opacity="1" /></svg>
