<?xml version="1.0" encoding="utf-8"?>
<svg xmlns="http://www.w3.org/2000/svg" xmlns:xlink="http://www.w3.org/1999/xlink" width="600" height="400" viewBox="0 0 2400 1600">
<defs>
  <clipPath id="clip380">
    <rect x="0" y="0" width="2400" height="1600"/>
  </clipPath>
</defs>
<path clip-path="url(#clip380)" d="
M0 1600 L2400 1600 L2400 0 L0 0  Z
  " fill="#ffffff" fill-rule="evenodd" fill-opacity="1"/>
<defs>
  <clipPath id="clip381">
    <rect x="480" y="0" width="1681" height="1600"/>
  </clipPath>
</defs>
<path clip-path="url(#clip380)" d="
M368.761 1474.16 L2352.76 1474.16 L2352.76 47.2441 L368.761 47.2441  Z
  " fill="#ffffff" fill-rule="evenodd" fill-opacity="1"/>
<defs>
  <clipPath id="clip382">
    <rect x="368" y="47" width="1985" height="1428"/>
  </clipPath>
</defs>
<polyline clip-path="url(#clip382)" style="stroke:#000000; stroke-linecap:butt; stroke-linejoin:round; stroke-width:2; stroke-opacity:0.1; fill:none" points="
  368.761,1474.16 368.761,47.2441 
  "/>
<polyline clip-path="url(#clip382)" style="stroke:#000000; stroke-linecap:butt; stroke-linejoin:round; stroke-width:2; stroke-opacity:0.1; fill:none" points="
  864.76,1474.16 864.76,47.2441 
  "/>
<polyline clip-path="url(#clip382)" style="stroke:#000000; stroke-linecap:butt; stroke-linejoin:round; stroke-width:2; stroke-opacity:0.1; fill:none" points="
  1360.76,1474.16 1360.76,47.2441 
  "/>
<polyline clip-path="url(#clip382)" style="stroke:#000000; stroke-linecap:butt; stroke-linejoin:round; stroke-width:2; stroke-opacity:0.1; fill:none" points="
  1856.76,1474.16 1856.76,47.2441 
  "/>
<polyline clip-path="url(#clip382)" style="stroke:#000000; stroke-linecap:butt; stroke-linejoin:round; stroke-width:2; stroke-opacity:0.1; fill:none" points="
  2352.76,1474.16 2352.76,47.2441 
  "/>
<polyline clip-path="url(#clip380)" style="stroke:#000000; stroke-linecap:butt; stroke-linejoin:round; stroke-width:4; stroke-opacity:1; fill:none" points="
  368.761,1474.16 2352.76,1474.16 
  "/>
<polyline clip-path="url(#clip380)" style="stroke:#000000; stroke-linecap:butt; stroke-linejoin:round; stroke-width:4; stroke-opacity:1; fill:none" points="
  368.761,1474.16 368.761,1455.27 
  "/>
<polyline clip-path="url(#clip380)" style="stroke:#000000; stroke-linecap:butt; stroke-linejoin:round; stroke-width:4; stroke-opacity:1; fill:none" points="
  864.76,1474.16 864.76,1455.27 
  "/>
<polyline clip-path="url(#clip380)" style="stroke:#000000; stroke-linecap:butt; stroke-linejoin:round; stroke-width:4; stroke-opacity:1; fill:none" points="
  1360.76,1474.16 1360.76,1455.27 
  "/>
<polyline clip-path="url(#clip380)" style="stroke:#000000; stroke-linecap:butt; stroke-linejoin:round; stroke-width:4; stroke-opacity:1; fill:none" points="
  1856.76,1474.16 1856.76,1455.27 
  "/>
<polyline clip-path="url(#clip380)" style="stroke:#000000; stroke-linecap:butt; stroke-linejoin:round; stroke-width:4; stroke-opacity:1; fill:none" points="
  2352.76,1474.16 2352.76,1455.27 
  "/>
<path clip-path="url(#clip380)" d="M228.347 1539.54 L258.023 1539.54 L258.023 1543.48 L228.347 1543.48 L228.347 1539.54 Z" fill="#000000" fill-rule="evenodd" fill-opacity="1" /><path clip-path="url(#clip380)" d="M268.925 1552.44 L276.564 1552.44 L276.564 1526.07 L268.254 1527.74 L268.254 1523.48 L276.518 1521.81 L281.194 1521.81 L281.194 1552.44 L288.833 1552.44 L288.833 1556.37 L268.925 1556.37 L268.925 1552.44 Z" fill="#000000" fill-rule="evenodd" fill-opacity="1" /><path clip-path="url(#clip380)" d="M298.277 1550.49 L303.161 1550.49 L303.161 1556.37 L298.277 1556.37 L298.277 1550.49 Z" fill="#000000" fill-rule="evenodd" fill-opacity="1" /><path clip-path="url(#clip380)" d="M323.346 1524.89 Q319.735 1524.89 317.907 1528.46 Q316.101 1532 316.101 1539.13 Q316.101 1546.23 317.907 1549.8 Q319.735 1553.34 323.346 1553.34 Q326.981 1553.34 328.786 1549.8 Q330.615 1546.23 330.615 1539.13 Q330.615 1532 328.786 1528.46 Q326.981 1524.89 323.346 1524.89 M323.346 1521.19 Q329.157 1521.19 332.212 1525.79 Q335.291 1530.38 335.291 1539.13 Q335.291 1547.85 332.212 1552.46 Q329.157 1557.04 323.346 1557.04 Q317.536 1557.04 314.458 1552.46 Q311.402 1547.85 311.402 1539.13 Q311.402 1530.38 314.458 1525.79 Q317.536 1521.19 323.346 1521.19 Z" fill="#000000" fill-rule="evenodd" fill-opacity="1" /><path clip-path="url(#clip380)" d="M371.68 1530.91 L361.101 1541.53 L371.68 1552.11 L368.925 1554.91 L358.3 1544.29 L347.675 1554.91 L344.944 1552.11 L355.499 1541.53 L344.944 1530.91 L347.675 1528.11 L358.3 1538.73 L368.925 1528.11 L371.68 1530.91 Z" fill="#000000" fill-rule="evenodd" fill-opacity="1" /><path clip-path="url(#clip380)" d="M384.041 1552.44 L391.679 1552.44 L391.679 1526.07 L383.369 1527.74 L383.369 1523.48 L391.633 1521.81 L396.309 1521.81 L396.309 1552.44 L403.948 1552.44 L403.948 1556.37 L384.041 1556.37 L384.041 1552.44 Z" fill="#000000" fill-rule="evenodd" fill-opacity="1" /><path clip-path="url(#clip380)" d="M423.392 1524.89 Q419.781 1524.89 417.952 1528.46 Q416.147 1532 416.147 1539.13 Q416.147 1546.23 417.952 1549.8 Q419.781 1553.34 423.392 1553.34 Q427.026 1553.34 428.832 1549.8 Q430.661 1546.23 430.661 1539.13 Q430.661 1532 428.832 1528.46 Q427.026 1524.89 423.392 1524.89 M423.392 1521.19 Q429.202 1521.19 432.258 1525.79 Q435.337 1530.38 435.337 1539.13 Q435.337 1547.85 432.258 1552.46 Q429.202 1557.04 423.392 1557.04 Q417.582 1557.04 414.503 1552.46 Q411.448 1547.85 411.448 1539.13 Q411.448 1530.38 414.503 1525.79 Q417.582 1521.19 423.392 1521.19 Z" fill="#000000" fill-rule="evenodd" fill-opacity="1" /><path clip-path="url(#clip380)" d="M435.337 1515.29 L459.448 1515.29 L459.448 1518.49 L435.337 1518.49 L435.337 1515.29 Z" fill="#000000" fill-rule="evenodd" fill-opacity="1" /><path clip-path="url(#clip380)" d="M468.307 1525.76 L474.513 1525.76 L474.513 1504.34 L467.761 1505.7 L467.761 1502.24 L474.476 1500.88 L478.275 1500.88 L478.275 1525.76 L484.481 1525.76 L484.481 1528.96 L468.307 1528.96 L468.307 1525.76 Z" fill="#000000" fill-rule="evenodd" fill-opacity="1" /><path clip-path="url(#clip380)" d="M492.193 1500.88 L507.107 1500.88 L507.107 1504.08 L495.672 1504.08 L495.672 1510.96 Q496.499 1510.68 497.327 1510.55 Q498.155 1510.4 498.982 1510.4 Q503.684 1510.4 506.43 1512.97 Q509.176 1515.55 509.176 1519.95 Q509.176 1524.49 506.355 1527.01 Q503.534 1529.51 498.399 1529.51 Q496.631 1529.51 494.788 1529.21 Q492.964 1528.91 491.008 1528.3 L491.008 1524.49 Q492.7 1525.41 494.506 1525.86 Q496.311 1526.31 498.324 1526.31 Q501.578 1526.31 503.477 1524.6 Q505.377 1522.89 505.377 1519.95 Q505.377 1517.02 503.477 1515.31 Q501.578 1513.6 498.324 1513.6 Q496.8 1513.6 495.277 1513.93 Q493.772 1514.27 492.193 1514.99 L492.193 1500.88 Z" fill="#000000" fill-rule="evenodd" fill-opacity="1" /><path clip-path="url(#clip380)" d="M723.875 1539.54 L753.551 1539.54 L753.551 1543.48 L723.875 1543.48 L723.875 1539.54 Z" fill="#000000" fill-rule="evenodd" fill-opacity="1" /><path clip-path="url(#clip380)" d="M763.69 1521.81 L782.046 1521.81 L782.046 1525.75 L767.972 1525.75 L767.972 1534.22 Q768.991 1533.87 770.009 1533.71 Q771.028 1533.52 772.046 1533.52 Q777.833 1533.52 781.213 1536.7 Q784.593 1539.87 784.593 1545.28 Q784.593 1550.86 781.12 1553.96 Q777.648 1557.04 771.329 1557.04 Q769.153 1557.04 766.884 1556.67 Q764.639 1556.3 762.232 1555.56 L762.232 1550.86 Q764.315 1552 766.537 1552.55 Q768.759 1553.11 771.236 1553.11 Q775.241 1553.11 777.579 1551 Q779.917 1548.9 779.917 1545.28 Q779.917 1541.67 777.579 1539.57 Q775.241 1537.46 771.236 1537.46 Q769.361 1537.46 767.486 1537.88 Q765.634 1538.29 763.69 1539.17 L763.69 1521.81 Z" fill="#000000" fill-rule="evenodd" fill-opacity="1" /><path clip-path="url(#clip380)" d="M793.806 1550.49 L798.69 1550.49 L798.69 1556.37 L793.806 1556.37 L793.806 1550.49 Z" fill="#000000" fill-rule="evenodd" fill-opacity="1" /><path clip-path="url(#clip380)" d="M818.875 1524.89 Q815.264 1524.89 813.435 1528.46 Q811.63 1532 811.63 1539.13 Q811.63 1546.23 813.435 1549.8 Q815.264 1553.34 818.875 1553.34 Q822.509 1553.34 824.315 1549.8 Q826.143 1546.23 826.143 1539.13 Q826.143 1532 824.315 1528.46 Q822.509 1524.89 818.875 1524.89 M818.875 1521.19 Q824.685 1521.19 827.741 1525.79 Q830.819 1530.38 830.819 1539.13 Q830.819 1547.85 827.741 1552.46 Q824.685 1557.04 818.875 1557.04 Q813.065 1557.04 809.986 1552.46 Q806.931 1547.85 806.931 1539.13 Q806.931 1530.38 809.986 1525.79 Q813.065 1521.19 818.875 1521.19 Z" fill="#000000" fill-rule="evenodd" fill-opacity="1" /><path clip-path="url(#clip380)" d="M867.208 1530.91 L856.629 1541.53 L867.208 1552.11 L864.453 1554.91 L853.828 1544.29 L843.203 1554.91 L840.472 1552.11 L851.027 1541.53 L840.472 1530.91 L843.203 1528.11 L853.828 1538.73 L864.453 1528.11 L867.208 1530.91 Z" fill="#000000" fill-rule="evenodd" fill-opacity="1" /><path clip-path="url(#clip380)" d="M879.569 1552.44 L887.208 1552.44 L887.208 1526.07 L878.898 1527.74 L878.898 1523.48 L887.162 1521.81 L891.837 1521.81 L891.837 1552.44 L899.476 1552.44 L899.476 1556.37 L879.569 1556.37 L879.569 1552.44 Z" fill="#000000" fill-rule="evenodd" fill-opacity="1" /><path clip-path="url(#clip380)" d="M918.921 1524.89 Q915.31 1524.89 913.481 1528.46 Q911.675 1532 911.675 1539.13 Q911.675 1546.23 913.481 1549.8 Q915.31 1553.34 918.921 1553.34 Q922.555 1553.34 924.36 1549.8 Q926.189 1546.23 926.189 1539.13 Q926.189 1532 924.36 1528.46 Q922.555 1524.89 918.921 1524.89 M918.921 1521.19 Q924.731 1521.19 927.786 1525.79 Q930.865 1530.38 930.865 1539.13 Q930.865 1547.85 927.786 1552.46 Q924.731 1557.04 918.921 1557.04 Q913.11 1557.04 910.032 1552.46 Q906.976 1547.85 906.976 1539.13 Q906.976 1530.38 910.032 1525.79 Q913.11 1521.19 918.921 1521.19 Z" fill="#000000" fill-rule="evenodd" fill-opacity="1" /><path clip-path="url(#clip380)" d="M930.865 1515.29 L954.977 1515.29 L954.977 1518.49 L930.865 1518.49 L930.865 1515.29 Z" fill="#000000" fill-rule="evenodd" fill-opacity="1" /><path clip-path="url(#clip380)" d="M963.835 1525.76 L970.042 1525.76 L970.042 1504.34 L963.29 1505.7 L963.29 1502.24 L970.004 1500.88 L973.803 1500.88 L973.803 1525.76 L980.01 1525.76 L980.01 1528.96 L963.835 1528.96 L963.835 1525.76 Z" fill="#000000" fill-rule="evenodd" fill-opacity="1" /><path clip-path="url(#clip380)" d="M996.278 1513.41 Q993.721 1513.41 992.216 1515.16 Q990.73 1516.91 990.73 1519.95 Q990.73 1522.98 992.216 1524.75 Q993.721 1526.5 996.278 1526.5 Q998.836 1526.5 1000.32 1524.75 Q1001.83 1522.98 1001.83 1519.95 Q1001.83 1516.91 1000.32 1515.16 Q998.836 1513.41 996.278 1513.41 M1003.82 1501.5 L1003.82 1504.96 Q1002.39 1504.29 1000.92 1503.93 Q999.476 1503.57 998.046 1503.57 Q994.285 1503.57 992.291 1506.11 Q990.316 1508.65 990.034 1513.78 Q991.144 1512.15 992.818 1511.28 Q994.492 1510.4 996.504 1510.4 Q1000.74 1510.4 1003.18 1512.97 Q1005.64 1515.53 1005.64 1519.95 Q1005.64 1524.28 1003.09 1526.89 Q1000.53 1529.51 996.278 1529.51 Q991.407 1529.51 988.831 1525.78 Q986.254 1522.04 986.254 1514.95 Q986.254 1508.29 989.414 1504.34 Q992.573 1500.37 997.896 1500.37 Q999.325 1500.37 1000.77 1500.66 Q1002.24 1500.94 1003.82 1501.5 Z" fill="#000000" fill-rule="evenodd" fill-opacity="1" /><path clip-path="url(#clip380)" d="M1360.76 1503.36 Q1357.15 1503.36 1355.32 1506.92 Q1353.51 1510.46 1353.51 1517.59 Q1353.51 1524.7 1355.32 1528.26 Q1357.15 1531.8 1360.76 1531.8 Q1364.39 1531.8 1366.2 1528.26 Q1368.03 1524.7 1368.03 1517.59 Q1368.03 1510.46 1366.2 1506.92 Q1364.39 1503.36 1360.76 1503.36 M1360.76 1499.65 Q1366.57 1499.65 1369.62 1504.26 Q1372.7 1508.84 1372.7 1517.59 Q1372.7 1526.32 1369.62 1530.92 Q1366.57 1535.51 1360.76 1535.51 Q1354.95 1535.51 1351.87 1530.92 Q1348.81 1526.32 1348.81 1517.59 Q1348.81 1508.84 1351.87 1504.26 Q1354.95 1499.65 1360.76 1499.65 Z" fill="#000000" fill-rule="evenodd" fill-opacity="1" /><path clip-path="url(#clip380)" d="M1736.51 1521.81 L1754.87 1521.81 L1754.87 1525.75 L1740.79 1525.75 L1740.79 1534.22 Q1741.81 1533.87 1742.83 1533.71 Q1743.85 1533.52 1744.87 1533.52 Q1750.65 1533.52 1754.03 1536.7 Q1757.41 1539.87 1757.41 1545.28 Q1757.41 1550.86 1753.94 1553.96 Q1750.47 1557.04 1744.15 1557.04 Q1741.97 1557.04 1739.7 1556.67 Q1737.46 1556.3 1735.05 1555.56 L1735.05 1550.86 Q1737.13 1552 1739.36 1552.55 Q1741.58 1553.11 1744.06 1553.11 Q1748.06 1553.11 1750.4 1551 Q1752.74 1548.9 1752.74 1545.28 Q1752.74 1541.67 1750.4 1539.57 Q1748.06 1537.46 1744.06 1537.46 Q1742.18 1537.46 1740.31 1537.88 Q1738.45 1538.29 1736.51 1539.17 L1736.51 1521.81 Z" fill="#000000" fill-rule="evenodd" fill-opacity="1" /><path clip-path="url(#clip380)" d="M1766.62 1550.49 L1771.51 1550.49 L1771.51 1556.37 L1766.62 1556.37 L1766.62 1550.49 Z" fill="#000000" fill-rule="evenodd" fill-opacity="1" /><path clip-path="url(#clip380)" d="M1791.69 1524.89 Q1788.08 1524.89 1786.25 1528.46 Q1784.45 1532 1784.45 1539.13 Q1784.45 1546.23 1786.25 1549.8 Q1788.08 1553.34 1791.69 1553.34 Q1795.33 1553.34 1797.13 1549.8 Q1798.96 1546.23 1798.96 1539.13 Q1798.96 1532 1797.13 1528.46 Q1795.33 1524.89 1791.69 1524.89 M1791.69 1521.19 Q1797.5 1521.19 1800.56 1525.79 Q1803.64 1530.38 1803.64 1539.13 Q1803.64 1547.85 1800.56 1552.46 Q1797.5 1557.04 1791.69 1557.04 Q1785.88 1557.04 1782.81 1552.46 Q1779.75 1547.85 1779.75 1539.13 Q1779.75 1530.38 1782.81 1525.79 Q1785.88 1521.19 1791.69 1521.19 Z" fill="#000000" fill-rule="evenodd" fill-opacity="1" /><path clip-path="url(#clip380)" d="M1840.03 1530.91 L1829.45 1541.53 L1840.03 1552.11 L1837.27 1554.91 L1826.65 1544.29 L1816.02 1554.91 L1813.29 1552.11 L1823.85 1541.53 L1813.29 1530.91 L1816.02 1528.11 L1826.65 1538.73 L1837.27 1528.11 L1840.03 1530.91 Z" fill="#000000" fill-rule="evenodd" fill-opacity="1" /><path clip-path="url(#clip380)" d="M1852.39 1552.44 L1860.03 1552.44 L1860.03 1526.07 L1851.72 1527.74 L1851.72 1523.48 L1859.98 1521.81 L1864.66 1521.81 L1864.66 1552.44 L1872.3 1552.44 L1872.3 1556.37 L1852.39 1556.37 L1852.39 1552.44 Z" fill="#000000" fill-rule="evenodd" fill-opacity="1" /><path clip-path="url(#clip380)" d="M1891.74 1524.89 Q1888.13 1524.89 1886.3 1528.46 Q1884.49 1532 1884.49 1539.13 Q1884.49 1546.23 1886.3 1549.8 Q1888.13 1553.34 1891.74 1553.34 Q1895.37 1553.34 1897.18 1549.8 Q1899.01 1546.23 1899.01 1539.13 Q1899.01 1532 1897.18 1528.46 Q1895.37 1524.89 1891.74 1524.89 M1891.74 1521.19 Q1897.55 1521.19 1900.61 1525.79 Q1903.68 1530.38 1903.68 1539.13 Q1903.68 1547.85 1900.61 1552.46 Q1897.55 1557.04 1891.74 1557.04 Q1885.93 1557.04 1882.85 1552.46 Q1879.8 1547.85 1879.8 1539.13 Q1879.8 1530.38 1882.85 1525.79 Q1885.93 1521.19 1891.74 1521.19 Z" fill="#000000" fill-rule="evenodd" fill-opacity="1" /><path clip-path="url(#clip380)" d="M1903.68 1515.29 L1927.8 1515.29 L1927.8 1518.49 L1903.68 1518.49 L1903.68 1515.29 Z" fill="#000000" fill-rule="evenodd" fill-opacity="1" /><path clip-path="url(#clip380)" d="M1936.65 1525.76 L1942.86 1525.76 L1942.86 1504.34 L1936.11 1505.7 L1936.11 1502.24 L1942.82 1500.88 L1946.62 1500.88 L1946.62 1525.76 L1952.83 1525.76 L1952.83 1528.96 L1936.65 1528.96 L1936.65 1525.76 Z" fill="#000000" fill-rule="evenodd" fill-opacity="1" /><path clip-path="url(#clip380)" d="M1969.1 1513.41 Q1966.54 1513.41 1965.04 1515.16 Q1963.55 1516.91 1963.55 1519.95 Q1963.55 1522.98 1965.04 1524.75 Q1966.54 1526.5 1969.1 1526.5 Q1971.66 1526.5 1973.14 1524.75 Q1974.65 1522.98 1974.65 1519.95 Q1974.65 1516.91 1973.14 1515.16 Q1971.66 1513.41 1969.1 1513.41 M1976.64 1501.5 L1976.64 1504.96 Q1975.21 1504.29 1973.74 1503.93 Q1972.29 1503.57 1970.87 1503.57 Q1967.1 1503.57 1965.11 1506.11 Q1963.14 1508.65 1962.85 1513.78 Q1963.96 1512.15 1965.64 1511.28 Q1967.31 1510.4 1969.32 1510.4 Q1973.55 1510.4 1976 1512.97 Q1978.46 1515.53 1978.46 1519.95 Q1978.46 1524.28 1975.91 1526.89 Q1973.35 1529.51 1969.1 1529.51 Q1964.23 1529.51 1961.65 1525.78 Q1959.07 1522.04 1959.07 1514.95 Q1959.07 1508.29 1962.23 1504.34 Q1965.39 1500.37 1970.72 1500.37 Q1972.14 1500.37 1973.59 1500.66 Q1975.06 1500.94 1976.64 1501.5 Z" fill="#000000" fill-rule="evenodd" fill-opacity="1" /><path clip-path="url(#clip380)" d="M2232.97 1552.44 L2240.61 1552.44 L2240.61 1526.07 L2232.3 1527.74 L2232.3 1523.48 L2240.56 1521.81 L2245.23 1521.81 L2245.23 1552.44 L2252.87 1552.44 L2252.87 1556.37 L2232.97 1556.37 L2232.97 1552.44 Z" fill="#000000" fill-rule="evenodd" fill-opacity="1" /><path clip-path="url(#clip380)" d="M2262.32 1550.49 L2267.2 1550.49 L2267.2 1556.37 L2262.32 1556.37 L2262.32 1550.49 Z" fill="#000000" fill-rule="evenodd" fill-opacity="1" /><path clip-path="url(#clip380)" d="M2287.39 1524.89 Q2283.78 1524.89 2281.95 1528.46 Q2280.14 1532 2280.14 1539.13 Q2280.14 1546.23 2281.95 1549.8 Q2283.78 1553.34 2287.39 1553.34 Q2291.02 1553.34 2292.83 1549.8 Q2294.66 1546.23 2294.66 1539.13 Q2294.66 1532 2292.83 1528.46 Q2291.02 1524.89 2287.39 1524.89 M2287.39 1521.19 Q2293.2 1521.19 2296.25 1525.79 Q2299.33 1530.38 2299.33 1539.13 Q2299.33 1547.85 2296.25 1552.46 Q2293.2 1557.04 2287.39 1557.04 Q2281.58 1557.04 2278.5 1552.46 Q2275.44 1547.85 2275.44 1539.13 Q2275.44 1530.38 2278.5 1525.79 Q2281.58 1521.19 2287.39 1521.19 Z" fill="#000000" fill-rule="evenodd" fill-opacity="1" /><path clip-path="url(#clip380)" d="M2335.72 1530.91 L2325.14 1541.53 L2335.72 1552.11 L2332.97 1554.91 L2322.34 1544.29 L2311.72 1554.91 L2308.98 1552.11 L2319.54 1541.53 L2308.98 1530.91 L2311.72 1528.11 L2322.34 1538.73 L2332.97 1528.11 L2335.72 1530.91 Z" fill="#000000" fill-rule="evenodd" fill-opacity="1" /><path clip-path="url(#clip380)" d="M2348.08 1552.44 L2355.72 1552.44 L2355.72 1526.07 L2347.41 1527.74 L2347.41 1523.48 L2355.67 1521.81 L2360.35 1521.81 L2360.35 1552.44 L2367.99 1552.44 L2367.99 1556.37 L2348.08 1556.37 L2348.08 1552.44 Z" fill="#000000" fill-rule="evenodd" fill-opacity="1" /><path clip-path="url(#clip380)" d="M2387.43 1524.89 Q2383.82 1524.89 2381.99 1528.46 Q2380.19 1532 2380.19 1539.13 Q2380.19 1546.23 2381.99 1549.8 Q2383.82 1553.34 2387.43 1553.34 Q2391.07 1553.34 2392.87 1549.8 Q2394.7 1546.23 2394.7 1539.13 Q2394.7 1532 2392.87 1528.46 Q2391.07 1524.89 2387.43 1524.89 M2387.43 1521.19 Q2393.24 1521.19 2396.3 1525.79 Q2399.38 1530.38 2399.38 1539.13 Q2399.38 1547.85 2396.3 1552.46 Q2393.24 1557.04 2387.43 1557.04 Q2381.62 1557.04 2378.54 1552.46 Q2375.49 1547.85 2375.49 1539.13 Q2375.49 1530.38 2378.54 1525.79 Q2381.62 1521.19 2387.43 1521.19 Z" fill="#000000" fill-rule="evenodd" fill-opacity="1" /><path clip-path="url(#clip380)" d="M2399.38 1515.29 L2423.49 1515.29 L2423.49 1518.49 L2399.38 1518.49 L2399.38 1515.29 Z" fill="#000000" fill-rule="evenodd" fill-opacity="1" /><path clip-path="url(#clip380)" d="M2432.35 1525.76 L2438.55 1525.76 L2438.55 1504.34 L2431.8 1505.7 L2431.8 1502.24 L2438.52 1500.88 L2442.32 1500.88 L2442.32 1525.76 L2448.52 1525.76 L2448.52 1528.96 L2432.35 1528.96 L2432.35 1525.76 Z" fill="#000000" fill-rule="evenodd" fill-opacity="1" /><path clip-path="url(#clip380)" d="M2456.23 1500.88 L2471.15 1500.88 L2471.15 1504.08 L2459.71 1504.08 L2459.71 1510.96 Q2460.54 1510.68 2461.37 1510.55 Q2462.2 1510.4 2463.02 1510.4 Q2467.72 1510.4 2470.47 1512.97 Q2473.22 1515.55 2473.22 1519.95 Q2473.22 1524.49 2470.4 1527.01 Q2467.57 1529.51 2462.44 1529.51 Q2460.67 1529.51 2458.83 1529.21 Q2457 1528.91 2455.05 1528.3 L2455.05 1524.49 Q2456.74 1525.41 2458.55 1525.86 Q2460.35 1526.31 2462.36 1526.31 Q2465.62 1526.31 2467.52 1524.6 Q2469.42 1522.89 2469.42 1519.95 Q2469.42 1517.02 2467.52 1515.31 Q2465.62 1513.6 2462.36 1513.6 Q2460.84 1513.6 2459.32 1513.93 Q2457.81 1514.27 2456.23 1514.99 L2456.23 1500.88 Z" fill="#000000" fill-rule="evenodd" fill-opacity="1" /><polyline clip-path="url(#clip382)" style="stroke:#000000; stroke-linecap:butt; stroke-linejoin:round; stroke-width:2; stroke-opacity:0.1; fill:none" points="
  368.761,1412.4 2352.76,1412.4 
  "/>
<polyline clip-path="url(#clip382)" style="stroke:#000000; stroke-linecap:butt; stroke-linejoin:round; stroke-width:2; stroke-opacity:0.1; fill:none" points="
  368.761,1103.57 2352.76,1103.57 
  "/>
<polyline clip-path="url(#clip382)" style="stroke:#000000; stroke-linecap:butt; stroke-linejoin:round; stroke-width:2; stroke-opacity:0.1; fill:none" points="
  368.761,794.744 2352.76,794.744 
  "/>
<polyline clip-path="url(#clip382)" style="stroke:#000000; stroke-linecap:butt; stroke-linejoin:round; stroke-width:2; stroke-opacity:0.1; fill:none" points="
  368.761,485.917 2352.76,485.917 
  "/>
<polyline clip-path="url(#clip382)" style="stroke:#000000; stroke-linecap:butt; stroke-linejoin:round; stroke-width:2; stroke-opacity:0.1; fill:none" points="
  368.761,177.089 2352.76,177.089 
  "/>
<polyline clip-path="url(#clip380)" style="stroke:#000000; stroke-linecap:butt; stroke-linejoin:round; stroke-width:4; stroke-opacity:1; fill:none" points="
  368.761,1474.16 368.761,47.2441 
  "/>
<polyline clip-path="url(#clip380)" style="stroke:#000000; stroke-linecap:butt; stroke-linejoin:round; stroke-width:4; stroke-opacity:1; fill:none" points="
  368.761,1412.4 387.659,1412.4 
  "/>
<polyline clip-path="url(#clip380)" style="stroke:#000000; stroke-linecap:butt; stroke-linejoin:round; stroke-width:4; stroke-opacity:1; fill:none" points="
  368.761,1103.57 387.659,1103.57 
  "/>
<polyline clip-path="url(#clip380)" style="stroke:#000000; stroke-linecap:butt; stroke-linejoin:round; stroke-width:4; stroke-opacity:1; fill:none" points="
  368.761,794.744 387.659,794.744 
  "/>
<polyline clip-path="url(#clip380)" style="stroke:#000000; stroke-linecap:butt; stroke-linejoin:round; stroke-width:4; stroke-opacity:1; fill:none" points="
  368.761,485.917 387.659,485.917 
  "/>
<polyline clip-path="url(#clip380)" style="stroke:#000000; stroke-linecap:butt; stroke-linejoin:round; stroke-width:4; stroke-opacity:1; fill:none" points="
  368.761,177.089 387.659,177.089 
  "/>
<path clip-path="url(#clip380)" d="M51.9325 1419.3 L81.6083 1419.3 L81.6083 1423.23 L51.9325 1423.23 L51.9325 1419.3 Z" fill="#000000" fill-rule="evenodd" fill-opacity="1" /><path clip-path="url(#clip380)" d="M92.511 1432.19 L100.15 1432.19 L100.15 1405.83 L91.8397 1407.49 L91.8397 1403.23 L100.104 1401.57 L104.779 1401.57 L104.779 1432.19 L112.418 1432.19 L112.418 1436.13 L92.511 1436.13 L92.511 1432.19 Z" fill="#000000" fill-rule="evenodd" fill-opacity="1" /><path clip-path="url(#clip380)" d="M121.863 1430.25 L126.747 1430.25 L126.747 1436.13 L121.863 1436.13 L121.863 1430.25 Z" fill="#000000" fill-rule="evenodd" fill-opacity="1" /><path clip-path="url(#clip380)" d="M146.932 1404.65 Q143.321 1404.65 141.492 1408.21 Q139.687 1411.75 139.687 1418.88 Q139.687 1425.99 141.492 1429.55 Q143.321 1433.09 146.932 1433.09 Q150.566 1433.09 152.372 1429.55 Q154.2 1425.99 154.2 1418.88 Q154.2 1411.75 152.372 1408.21 Q150.566 1404.65 146.932 1404.65 M146.932 1400.94 Q152.742 1400.94 155.798 1405.55 Q158.876 1410.13 158.876 1418.88 Q158.876 1427.61 155.798 1432.21 Q152.742 1436.8 146.932 1436.8 Q141.122 1436.8 138.043 1432.21 Q134.988 1427.61 134.988 1418.88 Q134.988 1410.13 138.043 1405.55 Q141.122 1400.94 146.932 1400.94 Z" fill="#000000" fill-rule="evenodd" fill-opacity="1" /><path clip-path="url(#clip380)" d="M195.265 1410.66 L184.686 1421.29 L195.265 1431.87 L192.51 1434.67 L181.886 1424.04 L171.261 1434.67 L168.529 1431.87 L179.085 1421.29 L168.529 1410.66 L171.261 1407.86 L181.886 1418.49 L192.51 1407.86 L195.265 1410.66 Z" fill="#000000" fill-rule="evenodd" fill-opacity="1" /><path clip-path="url(#clip380)" d="M207.626 1432.19 L215.265 1432.19 L215.265 1405.83 L206.955 1407.49 L206.955 1403.23 L215.219 1401.57 L219.895 1401.57 L219.895 1432.19 L227.533 1432.19 L227.533 1436.13 L207.626 1436.13 L207.626 1432.19 Z" fill="#000000" fill-rule="evenodd" fill-opacity="1" /><path clip-path="url(#clip380)" d="M246.978 1404.65 Q243.367 1404.65 241.538 1408.21 Q239.732 1411.75 239.732 1418.88 Q239.732 1425.99 241.538 1429.55 Q243.367 1433.09 246.978 1433.09 Q250.612 1433.09 252.418 1429.55 Q254.246 1425.99 254.246 1418.88 Q254.246 1411.75 252.418 1408.21 Q250.612 1404.65 246.978 1404.65 M246.978 1400.94 Q252.788 1400.94 255.843 1405.55 Q258.922 1410.13 258.922 1418.88 Q258.922 1427.61 255.843 1432.21 Q252.788 1436.8 246.978 1436.8 Q241.168 1436.8 238.089 1432.21 Q235.033 1427.61 235.033 1418.88 Q235.033 1410.13 238.089 1405.55 Q241.168 1400.94 246.978 1400.94 Z" fill="#000000" fill-rule="evenodd" fill-opacity="1" /><path clip-path="url(#clip380)" d="M258.922 1395.04 L283.034 1395.04 L283.034 1398.24 L258.922 1398.24 L258.922 1395.04 Z" fill="#000000" fill-rule="evenodd" fill-opacity="1" /><path clip-path="url(#clip380)" d="M291.892 1405.52 L298.099 1405.52 L298.099 1384.1 L291.347 1385.45 L291.347 1381.99 L298.061 1380.64 L301.86 1380.64 L301.86 1405.52 L308.067 1405.52 L308.067 1408.72 L291.892 1408.72 L291.892 1405.52 Z" fill="#000000" fill-rule="evenodd" fill-opacity="1" /><path clip-path="url(#clip380)" d="M315.778 1380.64 L330.693 1380.64 L330.693 1383.83 L319.257 1383.83 L319.257 1390.72 Q320.085 1390.44 320.913 1390.3 Q321.74 1390.15 322.568 1390.15 Q327.27 1390.15 330.016 1392.73 Q332.761 1395.31 332.761 1399.71 Q332.761 1404.24 329.94 1406.76 Q327.119 1409.26 321.985 1409.26 Q320.217 1409.26 318.374 1408.96 Q316.549 1408.66 314.593 1408.06 L314.593 1404.24 Q316.286 1405.16 318.091 1405.61 Q319.897 1406.06 321.909 1406.06 Q325.163 1406.06 327.063 1404.35 Q328.962 1402.64 328.962 1399.71 Q328.962 1396.77 327.063 1395.06 Q325.163 1393.35 321.909 1393.35 Q320.386 1393.35 318.863 1393.69 Q317.358 1394.03 315.778 1394.74 L315.778 1380.64 Z" fill="#000000" fill-rule="evenodd" fill-opacity="1" /><path clip-path="url(#clip380)" d="M50.9921 1110.47 L80.6679 1110.47 L80.6679 1114.41 L50.9921 1114.41 L50.9921 1110.47 Z" fill="#000000" fill-rule="evenodd" fill-opacity="1" /><path clip-path="url(#clip380)" d="M90.8067 1092.74 L109.163 1092.74 L109.163 1096.67 L95.0891 1096.67 L95.0891 1105.15 Q96.1076 1104.8 97.1261 1104.64 Q98.1447 1104.45 99.1632 1104.45 Q104.95 1104.45 108.33 1107.62 Q111.709 1110.79 111.709 1116.21 Q111.709 1121.79 108.237 1124.89 Q104.765 1127.97 98.4456 1127.97 Q96.2697 1127.97 94.0012 1127.6 Q91.7558 1127.23 89.3484 1126.49 L89.3484 1121.79 Q91.4317 1122.92 93.6539 1123.48 Q95.8761 1124.04 98.353 1124.04 Q102.358 1124.04 104.696 1121.93 Q107.033 1119.82 107.033 1116.21 Q107.033 1112.6 104.696 1110.49 Q102.358 1108.39 98.353 1108.39 Q96.478 1108.39 94.603 1108.8 Q92.7512 1109.22 90.8067 1110.1 L90.8067 1092.74 Z" fill="#000000" fill-rule="evenodd" fill-opacity="1" /><path clip-path="url(#clip380)" d="M120.922 1121.42 L125.807 1121.42 L125.807 1127.3 L120.922 1127.3 L120.922 1121.42 Z" fill="#000000" fill-rule="evenodd" fill-opacity="1" /><path clip-path="url(#clip380)" d="M145.992 1095.82 Q142.381 1095.82 140.552 1099.38 Q138.746 1102.92 138.746 1110.05 Q138.746 1117.16 140.552 1120.73 Q142.381 1124.27 145.992 1124.27 Q149.626 1124.27 151.431 1120.73 Q153.26 1117.16 153.26 1110.05 Q153.26 1102.92 151.431 1099.38 Q149.626 1095.82 145.992 1095.82 M145.992 1092.11 Q151.802 1092.11 154.857 1096.72 Q157.936 1101.3 157.936 1110.05 Q157.936 1118.78 154.857 1123.39 Q151.802 1127.97 145.992 1127.97 Q140.181 1127.97 137.103 1123.39 Q134.047 1118.78 134.047 1110.05 Q134.047 1101.3 137.103 1096.72 Q140.181 1092.11 145.992 1092.11 Z" fill="#000000" fill-rule="evenodd" fill-opacity="1" /><path clip-path="url(#clip380)" d="M194.325 1101.84 L183.746 1112.46 L194.325 1123.04 L191.57 1125.84 L180.945 1115.22 L170.32 1125.84 L167.589 1123.04 L178.144 1112.46 L167.589 1101.84 L170.32 1099.04 L180.945 1109.66 L191.57 1099.04 L194.325 1101.84 Z" fill="#000000" fill-rule="evenodd" fill-opacity="1" /><path clip-path="url(#clip380)" d="M206.686 1123.36 L214.325 1123.36 L214.325 1097 L206.014 1098.67 L206.014 1094.41 L214.278 1092.74 L218.954 1092.74 L218.954 1123.36 L226.593 1123.36 L226.593 1127.3 L206.686 1127.3 L206.686 1123.36 Z" fill="#000000" fill-rule="evenodd" fill-opacity="1" /><path clip-path="url(#clip380)" d="M246.037 1095.82 Q242.426 1095.82 240.598 1099.38 Q238.792 1102.92 238.792 1110.05 Q238.792 1117.16 240.598 1120.73 Q242.426 1124.27 246.037 1124.27 Q249.672 1124.27 251.477 1120.73 Q253.306 1117.16 253.306 1110.05 Q253.306 1102.92 251.477 1099.38 Q249.672 1095.82 246.037 1095.82 M246.037 1092.11 Q251.848 1092.11 254.903 1096.72 Q257.982 1101.3 257.982 1110.05 Q257.982 1118.78 254.903 1123.39 Q251.848 1127.97 246.037 1127.97 Q240.227 1127.97 237.149 1123.39 Q234.093 1118.78 234.093 1110.05 Q234.093 1101.3 237.149 1096.72 Q240.227 1092.11 246.037 1092.11 Z" fill="#000000" fill-rule="evenodd" fill-opacity="1" /><path clip-path="url(#clip380)" d="M257.982 1086.22 L282.093 1086.22 L282.093 1089.41 L257.982 1089.41 L257.982 1086.22 Z" fill="#000000" fill-rule="evenodd" fill-opacity="1" /><path clip-path="url(#clip380)" d="M290.952 1096.69 L297.158 1096.69 L297.158 1075.27 L290.406 1076.62 L290.406 1073.16 L297.121 1071.81 L300.92 1071.81 L300.92 1096.69 L307.126 1096.69 L307.126 1099.89 L290.952 1099.89 L290.952 1096.69 Z" fill="#000000" fill-rule="evenodd" fill-opacity="1" /><path clip-path="url(#clip380)" d="M323.395 1084.33 Q320.837 1084.33 319.333 1086.08 Q317.847 1087.83 317.847 1090.88 Q317.847 1093.91 319.333 1095.68 Q320.837 1097.43 323.395 1097.43 Q325.953 1097.43 327.439 1095.68 Q328.943 1093.91 328.943 1090.88 Q328.943 1087.83 327.439 1086.08 Q325.953 1084.33 323.395 1084.33 M330.937 1072.43 L330.937 1075.89 Q329.508 1075.21 328.041 1074.86 Q326.593 1074.5 325.163 1074.5 Q321.402 1074.5 319.408 1077.04 Q317.433 1079.58 317.151 1084.71 Q318.261 1083.07 319.935 1082.21 Q321.608 1081.33 323.621 1081.33 Q327.853 1081.33 330.298 1083.9 Q332.761 1086.46 332.761 1090.88 Q332.761 1095.21 330.204 1097.82 Q327.646 1100.43 323.395 1100.43 Q318.524 1100.43 315.947 1096.71 Q313.371 1092.97 313.371 1085.88 Q313.371 1079.22 316.53 1075.27 Q319.69 1071.3 325.013 1071.3 Q326.442 1071.3 327.89 1071.58 Q329.357 1071.87 330.937 1072.43 Z" fill="#000000" fill-rule="evenodd" fill-opacity="1" /><path clip-path="url(#clip380)" d="M320.817 780.543 Q317.206 780.543 315.377 784.108 Q313.572 787.649 313.572 794.779 Q313.572 801.885 315.377 805.45 Q317.206 808.992 320.817 808.992 Q324.451 808.992 326.257 805.45 Q328.086 801.885 328.086 794.779 Q328.086 787.649 326.257 784.108 Q324.451 780.543 320.817 780.543 M320.817 776.839 Q326.627 776.839 329.683 781.446 Q332.761 786.029 332.761 794.779 Q332.761 803.506 329.683 808.112 Q326.627 812.696 320.817 812.696 Q315.007 812.696 311.928 808.112 Q308.873 803.506 308.873 794.779 Q308.873 786.029 311.928 781.446 Q315.007 776.839 320.817 776.839 Z" fill="#000000" fill-rule="evenodd" fill-opacity="1" /><path clip-path="url(#clip380)" d="M90.8067 475.084 L109.163 475.084 L109.163 479.02 L95.0891 479.02 L95.0891 487.492 Q96.1076 487.145 97.1261 486.983 Q98.1447 486.797 99.1632 486.797 Q104.95 486.797 108.33 489.969 Q111.709 493.14 111.709 498.557 Q111.709 504.135 108.237 507.237 Q104.765 510.316 98.4456 510.316 Q96.2697 510.316 94.0012 509.945 Q91.7558 509.575 89.3484 508.834 L89.3484 504.135 Q91.4317 505.269 93.6539 505.825 Q95.8761 506.381 98.353 506.381 Q102.358 506.381 104.696 504.274 Q107.033 502.168 107.033 498.557 Q107.033 494.945 104.696 492.839 Q102.358 490.732 98.353 490.732 Q96.478 490.732 94.603 491.149 Q92.7512 491.566 90.8067 492.445 L90.8067 475.084 Z" fill="#000000" fill-rule="evenodd" fill-opacity="1" /><path clip-path="url(#clip380)" d="M120.922 503.765 L125.807 503.765 L125.807 509.644 L120.922 509.644 L120.922 503.765 Z" fill="#000000" fill-rule="evenodd" fill-opacity="1" /><path clip-path="url(#clip380)" d="M145.992 478.163 Q142.381 478.163 140.552 481.728 Q138.746 485.27 138.746 492.399 Q138.746 499.506 140.552 503.07 Q142.381 506.612 145.992 506.612 Q149.626 506.612 151.431 503.07 Q153.26 499.506 153.26 492.399 Q153.26 485.27 151.431 481.728 Q149.626 478.163 145.992 478.163 M145.992 474.459 Q151.802 474.459 154.857 479.066 Q157.936 483.649 157.936 492.399 Q157.936 501.126 154.857 505.732 Q151.802 510.316 145.992 510.316 Q140.181 510.316 137.103 505.732 Q134.047 501.126 134.047 492.399 Q134.047 483.649 137.103 479.066 Q140.181 474.459 145.992 474.459 Z" fill="#000000" fill-rule="evenodd" fill-opacity="1" /><path clip-path="url(#clip380)" d="M194.325 484.182 L183.746 494.807 L194.325 505.385 L191.57 508.186 L180.945 497.561 L170.32 508.186 L167.589 505.385 L178.144 494.807 L167.589 484.182 L170.32 481.381 L180.945 492.006 L191.57 481.381 L194.325 484.182 Z" fill="#000000" fill-rule="evenodd" fill-opacity="1" /><path clip-path="url(#clip380)" d="M206.686 505.709 L214.325 505.709 L214.325 479.344 L206.014 481.01 L206.014 476.751 L214.278 475.084 L218.954 475.084 L218.954 505.709 L226.593 505.709 L226.593 509.644 L206.686 509.644 L206.686 505.709 Z" fill="#000000" fill-rule="evenodd" fill-opacity="1" /><path clip-path="url(#clip380)" d="M246.037 478.163 Q242.426 478.163 240.598 481.728 Q238.792 485.27 238.792 492.399 Q238.792 499.506 240.598 503.07 Q242.426 506.612 246.037 506.612 Q249.672 506.612 251.477 503.07 Q253.306 499.506 253.306 492.399 Q253.306 485.27 251.477 481.728 Q249.672 478.163 246.037 478.163 M246.037 474.459 Q251.848 474.459 254.903 479.066 Q257.982 483.649 257.982 492.399 Q257.982 501.126 254.903 505.732 Q251.848 510.316 246.037 510.316 Q240.227 510.316 237.149 505.732 Q234.093 501.126 234.093 492.399 Q234.093 483.649 237.149 479.066 Q240.227 474.459 246.037 474.459 Z" fill="#000000" fill-rule="evenodd" fill-opacity="1" /><path clip-path="url(#clip380)" d="M257.982 468.561 L282.093 468.561 L282.093 471.758 L257.982 471.758 L257.982 468.561 Z" fill="#000000" fill-rule="evenodd" fill-opacity="1" /><path clip-path="url(#clip380)" d="M290.952 479.037 L297.158 479.037 L297.158 457.615 L290.406 458.969 L290.406 455.508 L297.121 454.154 L300.92 454.154 L300.92 479.037 L307.126 479.037 L307.126 482.234 L290.952 482.234 L290.952 479.037 Z" fill="#000000" fill-rule="evenodd" fill-opacity="1" /><path clip-path="url(#clip380)" d="M323.395 466.68 Q320.837 466.68 319.333 468.429 Q317.847 470.178 317.847 473.225 Q317.847 476.253 319.333 478.021 Q320.837 479.77 323.395 479.77 Q325.953 479.77 327.439 478.021 Q328.943 476.253 328.943 473.225 Q328.943 470.178 327.439 468.429 Q325.953 466.68 323.395 466.68 M330.937 454.775 L330.937 458.235 Q329.508 457.558 328.041 457.201 Q326.593 456.844 325.163 456.844 Q321.402 456.844 319.408 459.383 Q317.433 461.922 317.151 467.056 Q318.261 465.42 319.935 464.555 Q321.608 463.671 323.621 463.671 Q327.853 463.671 330.298 466.247 Q332.761 468.805 332.761 473.225 Q332.761 477.551 330.204 480.165 Q327.646 482.779 323.395 482.779 Q318.524 482.779 315.947 479.056 Q313.371 475.313 313.371 468.222 Q313.371 461.564 316.53 457.615 Q319.69 453.646 325.013 453.646 Q326.442 453.646 327.89 453.928 Q329.357 454.21 330.937 454.775 Z" fill="#000000" fill-rule="evenodd" fill-opacity="1" /><path clip-path="url(#clip380)" d="M92.511 196.882 L100.15 196.882 L100.15 170.516 L91.8397 172.183 L91.8397 167.924 L100.104 166.257 L104.779 166.257 L104.779 196.882 L112.418 196.882 L112.418 200.817 L92.511 200.817 L92.511 196.882 Z" fill="#000000" fill-rule="evenodd" fill-opacity="1" /><path clip-path="url(#clip380)" d="M121.863 194.937 L126.747 194.937 L126.747 200.817 L121.863 200.817 L121.863 194.937 Z" fill="#000000" fill-rule="evenodd" fill-opacity="1" /><path clip-path="url(#clip380)" d="M146.932 169.336 Q143.321 169.336 141.492 172.9 Q139.687 176.442 139.687 183.572 Q139.687 190.678 141.492 194.243 Q143.321 197.785 146.932 197.785 Q150.566 197.785 152.372 194.243 Q154.2 190.678 154.2 183.572 Q154.2 176.442 152.372 172.9 Q150.566 169.336 146.932 169.336 M146.932 165.632 Q152.742 165.632 155.798 170.238 Q158.876 174.822 158.876 183.572 Q158.876 192.299 155.798 196.905 Q152.742 201.488 146.932 201.488 Q141.122 201.488 138.043 196.905 Q134.988 192.299 134.988 183.572 Q134.988 174.822 138.043 170.238 Q141.122 165.632 146.932 165.632 Z" fill="#000000" fill-rule="evenodd" fill-opacity="1" /><path clip-path="url(#clip380)" d="M195.265 175.354 L184.686 185.979 L195.265 196.558 L192.51 199.359 L181.886 188.734 L171.261 199.359 L168.529 196.558 L179.085 185.979 L168.529 175.354 L171.261 172.553 L181.886 183.178 L192.51 172.553 L195.265 175.354 Z" fill="#000000" fill-rule="evenodd" fill-opacity="1" /><path clip-path="url(#clip380)" d="M207.626 196.882 L215.265 196.882 L215.265 170.516 L206.955 172.183 L206.955 167.924 L215.219 166.257 L219.895 166.257 L219.895 196.882 L227.533 196.882 L227.533 200.817 L207.626 200.817 L207.626 196.882 Z" fill="#000000" fill-rule="evenodd" fill-opacity="1" /><path clip-path="url(#clip380)" d="M246.978 169.336 Q243.367 169.336 241.538 172.9 Q239.732 176.442 239.732 183.572 Q239.732 190.678 241.538 194.243 Q243.367 197.785 246.978 197.785 Q250.612 197.785 252.418 194.243 Q254.246 190.678 254.246 183.572 Q254.246 176.442 252.418 172.9 Q250.612 169.336 246.978 169.336 M246.978 165.632 Q252.788 165.632 255.843 170.238 Q258.922 174.822 258.922 183.572 Q258.922 192.299 255.843 196.905 Q252.788 201.488 246.978 201.488 Q241.168 201.488 238.089 196.905 Q235.033 192.299 235.033 183.572 Q235.033 174.822 238.089 170.238 Q241.168 165.632 246.978 165.632 Z" fill="#000000" fill-rule="evenodd" fill-opacity="1" /><path clip-path="url(#clip380)" d="M258.922 159.733 L283.034 159.733 L283.034 162.931 L258.922 162.931 L258.922 159.733 Z" fill="#000000" fill-rule="evenodd" fill-opacity="1" /><path clip-path="url(#clip380)" d="M291.892 170.209 L298.099 170.209 L298.099 148.787 L291.347 150.141 L291.347 146.681 L298.061 145.327 L301.86 145.327 L301.86 170.209 L308.067 170.209 L308.067 173.407 L291.892 173.407 L291.892 170.209 Z" fill="#000000" fill-rule="evenodd" fill-opacity="1" /><path clip-path="url(#clip380)" d="M315.778 145.327 L330.693 145.327 L330.693 148.524 L319.257 148.524 L319.257 155.408 Q320.085 155.125 320.913 154.994 Q321.74 154.843 322.568 154.843 Q327.27 154.843 330.016 157.42 Q332.761 159.997 332.761 164.398 Q332.761 168.93 329.94 171.451 Q327.119 173.952 321.985 173.952 Q320.217 173.952 318.374 173.651 Q316.549 173.35 314.593 172.748 L314.593 168.93 Q316.286 169.852 318.091 170.303 Q319.897 170.755 321.909 170.755 Q325.163 170.755 327.063 169.043 Q328.962 167.332 328.962 164.398 Q328.962 161.464 327.063 159.752 Q325.163 158.041 321.909 158.041 Q320.386 158.041 318.863 158.379 Q317.358 158.718 315.778 159.432 L315.778 145.327 Z" fill="#000000" fill-rule="evenodd" fill-opacity="1" /><polyline clip-path="url(#clip382)" style="stroke:#009af9; stroke-linecap:butt; stroke-linejoin:round; stroke-width:4; stroke-opacity:1; fill:none" points="
  368.761,1411.91 373.605,1411.91 378.449,1411.91 383.293,1411.91 388.137,1411.91 399.334,1411.91 410.531,1411.91 413.33,1411.91 416.129,1411.91 418.929,1411.91 
  421.728,1411.91 423.128,1411.91 424.527,1411.91 425.927,1343.33 427.326,1343.33 428.726,1343.33 430.126,1343.33 431.525,1343.33 432.925,1343.33 438.524,1343.33 
  444.122,1343.33 449.721,1343.33 455.319,1343.33 466.516,1343.33 477.713,1343.33 488.91,1343.33 500.107,1343.33 511.304,1343.33 522.501,1343.33 525.301,1343.33 
  528.1,1343.33 529.5,1343.33 530.899,1343.33 532.299,1343.33 533.699,1343.33 535.098,1274.76 536.498,1274.76 537.897,1274.76 539.297,1274.76 542.096,1274.76 
  544.896,1274.76 550.494,1274.76 556.093,1274.76 561.691,1274.76 567.29,1274.76 580.748,1274.76 594.206,1274.76 607.663,1274.76 621.121,1274.76 627.85,1274.76 
  634.579,1274.76 637.944,1274.76 641.308,1274.76 642.149,1274.76 642.991,1274.76 643.832,1274.76 644.673,1274.76 645.514,1206.19 646.355,1206.19 647.196,1206.19 
  648.037,1206.19 649.72,1206.19 651.402,1206.19 653.084,1206.19 654.766,1206.19 658.131,1206.19 661.495,1206.19 668.224,1206.19 674.953,1206.19 697.71,1206.19 
  720.467,1206.19 731.846,1206.19 743.224,1206.19 746.069,1206.19 748.913,1206.19 750.336,1206.19 751.758,1206.19 752.469,1206.19 753.18,1206.19 753.892,1206.19 
  754.603,1206.19 755.314,1137.61 756.025,1137.61 756.736,1137.61 757.447,1137.61 758.87,1137.61 760.292,1137.61 763.137,1137.61 765.981,1137.61 772.161,1137.61 
  778.341,1137.61 784.522,1137.61 790.702,1137.61 803.062,1137.61 815.422,1137.61 827.782,1137.61 840.143,1137.61 846.323,1137.61 852.503,1137.61 855.593,1137.61 
  858.683,1137.61 860.228,1137.61 861.773,1137.61 862.546,1137.61 863.318,1137.61 864.091,1137.61 864.863,1137.61 865.575,1069.04 866.288,1069.04 867,1069.04 
  867.712,1069.04 869.136,1069.04 870.561,1069.04 873.409,1069.04 876.258,1069.04 881.956,1069.04 887.653,1069.04 899.048,1069.04 910.443,1069.04 921.838,1069.04 
  933.234,1069.04 944.629,1069.04 956.024,1069.04 962.132,1069.04 968.24,1069.04 969.767,1069.04 971.294,1069.04 972.058,1069.04 972.822,1069.04 973.585,1069.04 
  974.349,1069.04 975.112,1069.04 975.876,1000.46 976.639,1000.46 977.403,1000.46 978.93,1000.46 980.457,1000.46 983.511,1000.46 986.565,1000.46 989.62,1000.46 
  992.674,1000.46 998.782,1000.46 1004.89,1000.46 1029.32,1000.46 1053.76,1000.46 1060.83,1000.46 1067.91,1000.46 1071.45,1000.46 1074.99,1000.46 1076.76,1000.46 
  1078.53,1000.46 1080.3,1000.46 1082.07,1000.46 1082.95,1000.46 1083.84,1000.46 1084.72,1000.46 1085.6,931.891 1086.49,931.891 1087.37,931.891 1088.26,931.891 
  1089.14,931.891 1092.68,931.891 1096.22,931.891 1103.3,931.891 1110.37,931.891 1124.53,931.891 1138.68,931.891 1152.84,931.891 1166.99,931.891 1173.28,931.891 
  1179.57,931.891 1182.71,931.891 1185.86,931.891 1189,931.891 1192.15,931.891 1192.93,931.891 1193.72,931.891 1194.51,931.891 1195.29,931.891 1196.08,863.318 
  1196.87,863.318 1197.65,863.318 1198.44,863.318 1200.01,863.318 1201.58,863.318 1203.15,863.318 1204.73,863.318 1211.02,863.318 1217.31,863.318 1229.88,863.318 
  1242.46,863.318 1255.04,863.318 1267.62,863.318 1278.65,863.318 1289.68,863.318 1292.44,863.318 1295.2,863.318 1297.95,863.318 1300.71,863.318 1302.09,863.318 
  1303.47,863.318 1304.16,863.318 1304.85,863.318 1305.54,863.318 1306.23,794.744 1306.92,794.744 1307.61,794.744 1308.29,794.744 1308.98,794.744 1310.36,794.744 
  1311.74,794.744 1317.26,794.744 1322.77,794.744 1328.29,794.744 1333.8,794.744 1344.83,794.744 1355.86,794.744 1379.91,794.744 1403.97,794.744 1415.99,794.744 
  1428.02,794.744 1440.04,794.744 1452.07,794.744 1458.12,794.744 1464.17,794.744 1465.68,794.744 1467.19,794.744 1467.95,794.744 1468.7,794.744 1469.46,794.744 
  1470.22,794.744 1470.97,657.597 1471.73,657.597 1472.49,657.597 1473.24,657.597 1474.75,657.597 1476.27,657.597 1479.29,657.597 1482.31,657.597 1485.34,657.597 
  1488.36,657.597 1494.41,657.597 1500.46,657.597 1524.66,657.597 1548.85,657.597 1602.35,657.597 1655.85,657.597 1662.22,657.597 1668.58,657.597 1674.94,657.597 
  1681.31,657.597 1684.49,657.597 1687.67,657.597 1688.46,657.597 1689.26,657.597 1690.06,657.597 1690.85,657.597 1691.65,520.45 1692.44,520.45 1693.24,520.45 
  1694.03,520.45 1695.62,520.45 1697.21,520.45 1698.8,520.45 1700.4,520.45 1703.58,520.45 1706.76,520.45 1719.48,520.45 1732.21,520.45 1744.94,520.45 
  1757.66,520.45 1810.59,520.45 1863.52,520.45 1874.66,520.45 1885.8,520.45 1891.37,520.45 1896.94,520.45 1899.72,520.45 1902.51,520.45 1905.29,520.45 
  1908.08,520.45 1908.77,520.45 1909.47,520.45 1910.17,520.45 1910.86,520.45 1911.56,383.303 1912.26,383.303 1912.95,383.303 1913.65,383.303 1915.04,383.303 
  1916.43,383.303 1917.82,383.303 1919.22,383.303 1924.79,383.303 1930.36,383.303 1941.49,383.303 1952.63,383.303 2007.03,383.303 2061.43,383.303 2074.21,383.303 
  2086.99,383.303 2099.78,383.303 2112.56,383.303 2115.76,383.303 2118.95,383.303 2122.15,383.303 2125.35,383.303 2126.94,383.303 2128.54,383.303 2129.34,383.303 
  2130.14,383.303 2130.94,383.303 2131.74,246.157 2132.54,246.157 2133.34,246.157 2134.13,246.157 2134.93,246.157 2136.53,246.157 2138.13,246.157 2144.52,246.157 
  2150.91,246.157 2157.31,246.157 2163.7,246.157 2245.62,246.157 2327.54,246.157 2333.84,246.157 2340.15,246.157 2346.45,246.157 2352.76,109.01 
  "/>
<polyline clip-path="url(#clip382)" style="stroke:#e26f46; stroke-linecap:butt; stroke-linejoin:round; stroke-width:4; stroke-opacity:1; fill:none" points="
  368.761,1412.4 388.137,1400.34 567.29,1288.79 674.953,1221.75 765.981,1165.08 864.863,1103.51 956.024,1046.75 1053.76,985.895 1166.99,915.391 1267.62,852.736 
  1355.86,797.793 1452.07,737.89 1548.85,677.631 1655.85,611.007 1757.66,547.616 1863.52,481.704 1952.63,426.221 2061.43,358.481 2163.7,294.805 2327.54,192.789 
  2352.76,177.089 
  "/>
<polyline clip-path="url(#clip382)" style="stroke:#3da44d; stroke-linecap:butt; stroke-linejoin:round; stroke-width:4; stroke-opacity:1; fill:none" points="
  368.761,1412.4 388.137,1400.34 567.29,1288.79 674.953,1221.75 765.981,1165.08 864.863,1103.51 956.024,1046.75 1053.76,985.895 1166.99,915.391 1267.62,852.736 
  1355.86,797.793 1452.07,737.89 1548.85,677.631 1655.85,611.007 1757.66,547.616 1863.52,481.704 1952.63,426.221 2061.43,358.481 2163.7,294.805 2327.54,192.789 
  2352.76,177.089 
  "/>
<path clip-path="url(#clip380)" d="
M2013.17 302.168 L2286.62 302.168 L2286.62 94.8081 L2013.17 94.8081  Z
  " fill="#ffffff" fill-rule="evenodd" fill-opacity="1"/>
<polyline clip-path="url(#clip380)" style="stroke:#000000; stroke-linecap:butt; stroke-linejoin:round; stroke-width:4; stroke-opacity:1; fill:none" points="
  2013.17,302.168 2286.62,302.168 2286.62,94.8081 2013.17,94.8081 2013.17,302.168 
  "/>
<polyline clip-path="url(#clip380)" style="stroke:#009af9; stroke-linecap:butt; stroke-linejoin:round; stroke-width:4; stroke-opacity:1; fill:none" points="
  2035.21,146.648 2167.48,146.648 
  "/>
<path clip-path="url(#clip380)" d="M2203.37 166.336 Q2201.56 170.965 2199.85 172.377 Q2198.14 173.789 2195.27 173.789 L2191.86 173.789 L2191.86 170.224 L2194.36 170.224 Q2196.12 170.224 2197.09 169.391 Q2198.07 168.558 2199.25 165.456 L2200.01 163.511 L2189.53 138.002 L2194.04 138.002 L2202.14 158.28 L2210.24 138.002 L2214.76 138.002 L2203.37 166.336 Z" fill="#000000" fill-rule="evenodd" fill-opacity="1" /><path clip-path="url(#clip380)" d="M2222.05 159.993 L2229.69 159.993 L2229.69 133.627 L2221.38 135.294 L2221.38 131.035 L2229.64 129.368 L2234.32 129.368 L2234.32 159.993 L2241.96 159.993 L2241.96 163.928 L2222.05 163.928 L2222.05 159.993 Z" fill="#000000" fill-rule="evenodd" fill-opacity="1" /><polyline clip-path="url(#clip380)" style="stroke:#e26f46; stroke-linecap:butt; stroke-linejoin:round; stroke-width:4; stroke-opacity:1; fill:none" points="
  2035.21,198.488 2167.48,198.488 
  "/>
<path clip-path="url(#clip380)" d="M2203.37 218.176 Q2201.56 222.805 2199.85 224.217 Q2198.14 225.629 2195.27 225.629 L2191.86 225.629 L2191.86 222.064 L2194.36 222.064 Q2196.12 222.064 2197.09 221.231 Q2198.07 220.398 2199.25 217.296 L2200.01 215.351 L2189.53 189.842 L2194.04 189.842 L2202.14 210.12 L2210.24 189.842 L2214.76 189.842 L2203.37 218.176 Z" fill="#000000" fill-rule="evenodd" fill-opacity="1" /><path clip-path="url(#clip380)" d="M2225.27 211.833 L2241.58 211.833 L2241.58 215.768 L2219.64 215.768 L2219.64 211.833 Q2222.3 209.078 2226.89 204.449 Q2231.49 199.796 2232.67 198.453 Q2234.92 195.93 2235.8 194.194 Q2236.7 192.435 2236.7 190.745 Q2236.7 187.99 2234.76 186.254 Q2232.83 184.518 2229.73 184.518 Q2227.53 184.518 2225.08 185.282 Q2222.65 186.046 2219.87 187.597 L2219.87 182.875 Q2222.7 181.741 2225.15 181.162 Q2227.6 180.583 2229.64 180.583 Q2235.01 180.583 2238.21 183.268 Q2241.4 185.953 2241.4 190.444 Q2241.4 192.574 2240.59 194.495 Q2239.8 196.393 2237.7 198.986 Q2237.12 199.657 2234.02 202.875 Q2230.91 206.069 2225.27 211.833 Z" fill="#000000" fill-rule="evenodd" fill-opacity="1" /><polyline clip-path="url(#clip380)" style="stroke:#3da44d; stroke-linecap:butt; stroke-linejoin:round; stroke-width:4; stroke-opacity:1; fill:none" points="
  2035.21,250.328 2167.48,250.328 
  "/>
<path clip-path="url(#clip380)" d="M2203.37 270.016 Q2201.56 274.645 2199.85 276.057 Q2198.14 277.469 2195.27 277.469 L2191.86 277.469 L2191.86 273.904 L2194.36 273.904 Q2196.12 273.904 2197.09 273.071 Q2198.07 272.238 2199.25 269.136 L2200.01 267.191 L2189.53 241.682 L2194.04 241.682 L2202.14 261.96 L2210.24 241.682 L2214.76 241.682 L2203.37 270.016 Z" fill="#000000" fill-rule="evenodd" fill-opacity="1" /><path clip-path="url(#clip380)" d="M2235.4 248.974 Q2238.76 249.692 2240.64 251.96 Q2242.53 254.229 2242.53 257.562 Q2242.53 262.678 2239.02 265.478 Q2235.5 268.279 2229.02 268.279 Q2226.84 268.279 2224.52 267.84 Q2222.23 267.423 2219.78 266.566 L2219.78 262.053 Q2221.72 263.187 2224.04 263.766 Q2226.35 264.344 2228.88 264.344 Q2233.27 264.344 2235.57 262.608 Q2237.88 260.872 2237.88 257.562 Q2237.88 254.506 2235.73 252.793 Q2233.6 251.057 2229.78 251.057 L2225.75 251.057 L2225.75 247.215 L2229.96 247.215 Q2233.41 247.215 2235.24 245.849 Q2237.07 244.46 2237.07 241.868 Q2237.07 239.205 2235.17 237.793 Q2233.3 236.358 2229.78 236.358 Q2227.86 236.358 2225.66 236.775 Q2223.46 237.192 2220.82 238.071 L2220.82 233.905 Q2223.48 233.164 2225.8 232.793 Q2228.14 232.423 2230.2 232.423 Q2235.52 232.423 2238.62 234.854 Q2241.72 237.261 2241.72 241.381 Q2241.72 244.252 2240.08 246.242 Q2238.44 248.21 2235.4 248.974 Z" fill="#000000" fill-rule="evenodd" fill-opacity="1" /></svg>
