<?xml version="1.0" encoding="utf-8"?>
<svg xmlns="http://www.w3.org/2000/svg" xmlns:xlink="http://www.w3.org/1999/xlink" width="600" height="400" viewBox="0 0 2400 1600">
<defs>
  <clipPath id="clip700">
    <rect x="0" y="0" width="2400" height="1600"/>
  </clipPath>
</defs>
<path clip-path="url(#clip700)" d="
M0 1600 L2400 1600 L2400 0 L0 0  Z
  " fill="#ffffff" fill-rule="evenodd" fill-opacity="1"/>
<defs>
  <clipPath id="clip701">
    <rect x="480" y="0" width="1681" height="1600"/>
  </clipPath>
</defs>
<path clip-path="url(#clip700)" d="
M156.112 1486.45 L2352.76 1486.45 L2352.76 47.2441 L156.112 47.2441  Z
  " fill="#ffffff" fill-rule="evenodd" fill-opacity="1"/>
<defs>
  <clipPath id="clip702">
    <rect x="156" y="47" width="2198" height="1440"/>
  </clipPath>
</defs>
<polyline clip-path="url(#clip702)" style="stroke:#000000; stroke-linecap:butt; stroke-linejoin:round; stroke-width:2; stroke-opacity:0.1; fill:none" points="
  218.281,1486.45 218.281,47.2441 
  "/>
<polyline clip-path="url(#clip702)" style="stroke:#000000; stroke-linecap:butt; stroke-linejoin:round; stroke-width:2; stroke-opacity:0.1; fill:none" points="
  736.358,1486.45 736.358,47.2441 
  "/>
<polyline clip-path="url(#clip702)" style="stroke:#000000; stroke-linecap:butt; stroke-linejoin:round; stroke-width:2; stroke-opacity:0.1; fill:none" points="
  1254.43,1486.45 1254.43,47.2441 
  "/>
<polyline clip-path="url(#clip702)" style="stroke:#000000; stroke-linecap:butt; stroke-linejoin:round; stroke-width:2; stroke-opacity:0.1; fill:none" points="
  1772.51,1486.45 1772.51,47.2441 
  "/>
<polyline clip-path="url(#clip702)" style="stroke:#000000; stroke-linecap:butt; stroke-linejoin:round; stroke-width:2; stroke-opacity:0.1; fill:none" points="
  2290.59,1486.45 2290.59,47.2441 
  "/>
<polyline clip-path="url(#clip700)" style="stroke:#000000; stroke-linecap:butt; stroke-linejoin:round; stroke-width:4; stroke-opacity:1; fill:none" points="
  156.112,1486.45 2352.76,1486.45 
  "/>
<polyline clip-path="url(#clip700)" style="stroke:#000000; stroke-linecap:butt; stroke-linejoin:round; stroke-width:4; stroke-opacity:1; fill:none" points="
  218.281,1486.45 218.281,1467.55 
  "/>
<polyline clip-path="url(#clip700)" style="stroke:#000000; stroke-linecap:butt; stroke-linejoin:round; stroke-width:4; stroke-opacity:1; fill:none" points="
  736.358,1486.45 736.358,1467.55 
  "/>
<polyline clip-path="url(#clip700)" style="stroke:#000000; stroke-linecap:butt; stroke-linejoin:round; stroke-width:4; stroke-opacity:1; fill:none" points="
  1254.43,1486.45 1254.43,1467.55 
  "/>
<polyline clip-path="url(#clip700)" style="stroke:#000000; stroke-linecap:butt; stroke-linejoin:round; stroke-width:4; stroke-opacity:1; fill:none" points="
  1772.51,1486.45 1772.51,1467.55 
  "/>
<polyline clip-path="url(#clip700)" style="stroke:#000000; stroke-linecap:butt; stroke-linejoin:round; stroke-width:4; stroke-opacity:1; fill:none" points="
  2290.59,1486.45 2290.59,1467.55 
  "/>
<path clip-path="url(#clip700)" d="M164.809 1530.29 L194.485 1530.29 L194.485 1534.23 L164.809 1534.23 L164.809 1530.29 Z" fill="#000000" fill-rule="evenodd" fill-opacity="1" /><path clip-path="url(#clip700)" d="M205.388 1543.18 L213.027 1543.18 L213.027 1516.82 L204.717 1518.49 L204.717 1514.23 L212.98 1512.56 L217.656 1512.56 L217.656 1543.18 L225.295 1543.18 L225.295 1547.12 L205.388 1547.12 L205.388 1543.18 Z" fill="#000000" fill-rule="evenodd" fill-opacity="1" /><path clip-path="url(#clip700)" d="M234.74 1541.24 L239.624 1541.24 L239.624 1547.12 L234.74 1547.12 L234.74 1541.24 Z" fill="#000000" fill-rule="evenodd" fill-opacity="1" /><path clip-path="url(#clip700)" d="M259.809 1515.64 Q256.198 1515.64 254.369 1519.2 Q252.564 1522.75 252.564 1529.87 Q252.564 1536.98 254.369 1540.55 Q256.198 1544.09 259.809 1544.09 Q263.443 1544.09 265.249 1540.55 Q267.077 1536.98 267.077 1529.87 Q267.077 1522.75 265.249 1519.2 Q263.443 1515.64 259.809 1515.64 M259.809 1511.93 Q265.619 1511.93 268.675 1516.54 Q271.753 1521.12 271.753 1529.87 Q271.753 1538.6 268.675 1543.21 Q265.619 1547.79 259.809 1547.79 Q253.999 1547.79 250.92 1543.21 Q247.864 1538.6 247.864 1529.87 Q247.864 1521.12 250.92 1516.54 Q253.999 1511.93 259.809 1511.93 Z" fill="#000000" fill-rule="evenodd" fill-opacity="1" /><path clip-path="url(#clip700)" d="M683.383 1530.29 L713.059 1530.29 L713.059 1534.23 L683.383 1534.23 L683.383 1530.29 Z" fill="#000000" fill-rule="evenodd" fill-opacity="1" /><path clip-path="url(#clip700)" d="M733.152 1515.64 Q729.541 1515.64 727.712 1519.2 Q725.906 1522.75 725.906 1529.87 Q725.906 1536.98 727.712 1540.55 Q729.541 1544.09 733.152 1544.09 Q736.786 1544.09 738.591 1540.55 Q740.42 1536.98 740.42 1529.87 Q740.42 1522.75 738.591 1519.2 Q736.786 1515.64 733.152 1515.64 M733.152 1511.93 Q738.962 1511.93 742.017 1516.54 Q745.096 1521.12 745.096 1529.87 Q745.096 1538.6 742.017 1543.21 Q738.962 1547.79 733.152 1547.79 Q727.341 1547.79 724.263 1543.21 Q721.207 1538.6 721.207 1529.87 Q721.207 1521.12 724.263 1516.54 Q727.341 1511.93 733.152 1511.93 Z" fill="#000000" fill-rule="evenodd" fill-opacity="1" /><path clip-path="url(#clip700)" d="M753.314 1541.24 L758.198 1541.24 L758.198 1547.12 L753.314 1547.12 L753.314 1541.24 Z" fill="#000000" fill-rule="evenodd" fill-opacity="1" /><path clip-path="url(#clip700)" d="M768.429 1512.56 L786.786 1512.56 L786.786 1516.5 L772.712 1516.5 L772.712 1524.97 Q773.73 1524.62 774.749 1524.46 Q775.767 1524.27 776.786 1524.27 Q782.573 1524.27 785.952 1527.44 Q789.332 1530.62 789.332 1536.03 Q789.332 1541.61 785.86 1544.71 Q782.387 1547.79 776.068 1547.79 Q773.892 1547.79 771.624 1547.42 Q769.378 1547.05 766.971 1546.31 L766.971 1541.61 Q769.054 1542.74 771.276 1543.3 Q773.499 1543.86 775.975 1543.86 Q779.98 1543.86 782.318 1541.75 Q784.656 1539.64 784.656 1536.03 Q784.656 1532.42 782.318 1530.31 Q779.98 1528.21 775.975 1528.21 Q774.101 1528.21 772.226 1528.62 Q770.374 1529.04 768.429 1529.92 L768.429 1512.56 Z" fill="#000000" fill-rule="evenodd" fill-opacity="1" /><path clip-path="url(#clip700)" d="M1231.82 1515.64 Q1228.21 1515.64 1226.38 1519.2 Q1224.57 1522.75 1224.57 1529.87 Q1224.57 1536.98 1226.38 1540.55 Q1228.21 1544.09 1231.82 1544.09 Q1235.45 1544.09 1237.26 1540.55 Q1239.09 1536.98 1239.09 1529.87 Q1239.09 1522.75 1237.26 1519.2 Q1235.45 1515.64 1231.82 1515.64 M1231.82 1511.93 Q1237.63 1511.93 1240.68 1516.54 Q1243.76 1521.12 1243.76 1529.87 Q1243.76 1538.6 1240.68 1543.21 Q1237.63 1547.79 1231.82 1547.79 Q1226.01 1547.79 1222.93 1543.21 Q1219.87 1538.6 1219.87 1529.87 Q1219.87 1521.12 1222.93 1516.54 Q1226.01 1511.93 1231.82 1511.93 Z" fill="#000000" fill-rule="evenodd" fill-opacity="1" /><path clip-path="url(#clip700)" d="M1251.98 1541.24 L1256.86 1541.24 L1256.86 1547.12 L1251.98 1547.12 L1251.98 1541.24 Z" fill="#000000" fill-rule="evenodd" fill-opacity="1" /><path clip-path="url(#clip700)" d="M1277.05 1515.64 Q1273.44 1515.64 1271.61 1519.2 Q1269.8 1522.75 1269.8 1529.87 Q1269.8 1536.98 1271.61 1540.55 Q1273.44 1544.09 1277.05 1544.09 Q1280.68 1544.09 1282.49 1540.55 Q1284.32 1536.98 1284.32 1529.87 Q1284.32 1522.75 1282.49 1519.2 Q1280.68 1515.64 1277.05 1515.64 M1277.05 1511.93 Q1282.86 1511.93 1285.92 1516.54 Q1288.99 1521.12 1288.99 1529.87 Q1288.99 1538.6 1285.92 1543.21 Q1282.86 1547.79 1277.05 1547.79 Q1271.24 1547.79 1268.16 1543.21 Q1265.11 1538.6 1265.11 1529.87 Q1265.11 1521.12 1268.16 1516.54 Q1271.24 1511.93 1277.05 1511.93 Z" fill="#000000" fill-rule="evenodd" fill-opacity="1" /><path clip-path="url(#clip700)" d="M1750.39 1515.64 Q1746.78 1515.64 1744.95 1519.2 Q1743.15 1522.75 1743.15 1529.87 Q1743.15 1536.98 1744.95 1540.55 Q1746.78 1544.09 1750.39 1544.09 Q1754.03 1544.09 1755.83 1540.55 Q1757.66 1536.98 1757.66 1529.87 Q1757.66 1522.75 1755.83 1519.2 Q1754.03 1515.64 1750.39 1515.64 M1750.39 1511.93 Q1756.2 1511.93 1759.26 1516.54 Q1762.34 1521.12 1762.34 1529.87 Q1762.34 1538.6 1759.26 1543.21 Q1756.2 1547.79 1750.39 1547.79 Q1744.58 1547.79 1741.5 1543.21 Q1738.45 1538.6 1738.45 1529.87 Q1738.45 1521.12 1741.5 1516.54 Q1744.58 1511.93 1750.39 1511.93 Z" fill="#000000" fill-rule="evenodd" fill-opacity="1" /><path clip-path="url(#clip700)" d="M1770.55 1541.24 L1775.44 1541.24 L1775.44 1547.12 L1770.55 1547.12 L1770.55 1541.24 Z" fill="#000000" fill-rule="evenodd" fill-opacity="1" /><path clip-path="url(#clip700)" d="M1785.67 1512.56 L1804.03 1512.56 L1804.03 1516.5 L1789.95 1516.5 L1789.95 1524.97 Q1790.97 1524.62 1791.99 1524.46 Q1793.01 1524.27 1794.03 1524.27 Q1799.81 1524.27 1803.19 1527.44 Q1806.57 1530.62 1806.57 1536.03 Q1806.57 1541.61 1803.1 1544.71 Q1799.63 1547.79 1793.31 1547.79 Q1791.13 1547.79 1788.86 1547.42 Q1786.62 1547.05 1784.21 1546.31 L1784.21 1541.61 Q1786.3 1542.74 1788.52 1543.3 Q1790.74 1543.86 1793.22 1543.86 Q1797.22 1543.86 1799.56 1541.75 Q1801.9 1539.64 1801.9 1536.03 Q1801.9 1532.42 1799.56 1530.31 Q1797.22 1528.21 1793.22 1528.21 Q1791.34 1528.21 1789.47 1528.62 Q1787.61 1529.04 1785.67 1529.92 L1785.67 1512.56 Z" fill="#000000" fill-rule="evenodd" fill-opacity="1" /><path clip-path="url(#clip700)" d="M2257.74 1543.18 L2265.38 1543.18 L2265.38 1516.82 L2257.07 1518.49 L2257.07 1514.23 L2265.33 1512.56 L2270.01 1512.56 L2270.01 1543.18 L2277.65 1543.18 L2277.65 1547.12 L2257.74 1547.12 L2257.74 1543.18 Z" fill="#000000" fill-rule="evenodd" fill-opacity="1" /><path clip-path="url(#clip700)" d="M2287.09 1541.24 L2291.98 1541.24 L2291.98 1547.12 L2287.09 1547.12 L2287.09 1541.24 Z" fill="#000000" fill-rule="evenodd" fill-opacity="1" /><path clip-path="url(#clip700)" d="M2312.16 1515.64 Q2308.55 1515.64 2306.72 1519.2 Q2304.92 1522.75 2304.92 1529.87 Q2304.92 1536.98 2306.72 1540.55 Q2308.55 1544.09 2312.16 1544.09 Q2315.79 1544.09 2317.6 1540.55 Q2319.43 1536.98 2319.43 1529.87 Q2319.43 1522.75 2317.6 1519.2 Q2315.79 1515.64 2312.16 1515.64 M2312.16 1511.93 Q2317.97 1511.93 2321.03 1516.54 Q2324.11 1521.12 2324.11 1529.87 Q2324.11 1538.6 2321.03 1543.21 Q2317.97 1547.79 2312.16 1547.79 Q2306.35 1547.79 2303.27 1543.21 Q2300.22 1538.6 2300.22 1529.87 Q2300.22 1521.12 2303.27 1516.54 Q2306.35 1511.93 2312.16 1511.93 Z" fill="#000000" fill-rule="evenodd" fill-opacity="1" /><polyline clip-path="url(#clip702)" style="stroke:#000000; stroke-linecap:butt; stroke-linejoin:round; stroke-width:2; stroke-opacity:0.1; fill:none" points="
  156.112,1445.72 2352.76,1445.72 
  "/>
<polyline clip-path="url(#clip702)" style="stroke:#000000; stroke-linecap:butt; stroke-linejoin:round; stroke-width:2; stroke-opacity:0.1; fill:none" points="
  156.112,991.868 2352.76,991.868 
  "/>
<polyline clip-path="url(#clip702)" style="stroke:#000000; stroke-linecap:butt; stroke-linejoin:round; stroke-width:2; stroke-opacity:0.1; fill:none" points="
  156.112,538.021 2352.76,538.021 
  "/>
<polyline clip-path="url(#clip702)" style="stroke:#000000; stroke-linecap:butt; stroke-linejoin:round; stroke-width:2; stroke-opacity:0.1; fill:none" points="
  156.112,84.1736 2352.76,84.1736 
  "/>
<polyline clip-path="url(#clip700)" style="stroke:#000000; stroke-linecap:butt; stroke-linejoin:round; stroke-width:4; stroke-opacity:1; fill:none" points="
  156.112,1486.45 156.112,47.2441 
  "/>
<polyline clip-path="url(#clip700)" style="stroke:#000000; stroke-linecap:butt; stroke-linejoin:round; stroke-width:4; stroke-opacity:1; fill:none" points="
  156.112,1445.72 175.01,1445.72 
  "/>
<polyline clip-path="url(#clip700)" style="stroke:#000000; stroke-linecap:butt; stroke-linejoin:round; stroke-width:4; stroke-opacity:1; fill:none" points="
  156.112,991.868 175.01,991.868 
  "/>
<polyline clip-path="url(#clip700)" style="stroke:#000000; stroke-linecap:butt; stroke-linejoin:round; stroke-width:4; stroke-opacity:1; fill:none" points="
  156.112,538.021 175.01,538.021 
  "/>
<polyline clip-path="url(#clip700)" style="stroke:#000000; stroke-linecap:butt; stroke-linejoin:round; stroke-width:4; stroke-opacity:1; fill:none" points="
  156.112,84.1736 175.01,84.1736 
  "/>
<path clip-path="url(#clip700)" d="M62.9365 1431.51 Q59.3254 1431.51 57.4967 1435.08 Q55.6912 1438.62 55.6912 1445.75 Q55.6912 1452.86 57.4967 1456.42 Q59.3254 1459.96 62.9365 1459.96 Q66.5707 1459.96 68.3763 1456.42 Q70.205 1452.86 70.205 1445.75 Q70.205 1438.62 68.3763 1435.08 Q66.5707 1431.51 62.9365 1431.51 M62.9365 1427.81 Q68.7467 1427.81 71.8022 1432.42 Q74.8809 1437 74.8809 1445.75 Q74.8809 1454.48 71.8022 1459.08 Q68.7467 1463.67 62.9365 1463.67 Q57.1264 1463.67 54.0477 1459.08 Q50.9921 1454.48 50.9921 1445.75 Q50.9921 1437 54.0477 1432.42 Q57.1264 1427.81 62.9365 1427.81 Z" fill="#000000" fill-rule="evenodd" fill-opacity="1" /><path clip-path="url(#clip700)" d="M83.0984 1457.12 L87.9827 1457.12 L87.9827 1463 L83.0984 1463 L83.0984 1457.12 Z" fill="#000000" fill-rule="evenodd" fill-opacity="1" /><path clip-path="url(#clip700)" d="M108.168 1431.51 Q104.557 1431.51 102.728 1435.08 Q100.922 1438.62 100.922 1445.75 Q100.922 1452.86 102.728 1456.42 Q104.557 1459.96 108.168 1459.96 Q111.802 1459.96 113.608 1456.42 Q115.436 1452.86 115.436 1445.75 Q115.436 1438.62 113.608 1435.08 Q111.802 1431.51 108.168 1431.51 M108.168 1427.81 Q113.978 1427.81 117.033 1432.42 Q120.112 1437 120.112 1445.75 Q120.112 1454.48 117.033 1459.08 Q113.978 1463.67 108.168 1463.67 Q102.358 1463.67 99.2789 1459.08 Q96.2234 1454.48 96.2234 1445.75 Q96.2234 1437 99.2789 1432.42 Q102.358 1427.81 108.168 1427.81 Z" fill="#000000" fill-rule="evenodd" fill-opacity="1" /><path clip-path="url(#clip700)" d="M63.9319 977.667 Q60.3208 977.667 58.4921 981.232 Q56.6865 984.773 56.6865 991.903 Q56.6865 999.009 58.4921 1002.57 Q60.3208 1006.12 63.9319 1006.12 Q67.5661 1006.12 69.3717 1002.57 Q71.2004 999.009 71.2004 991.903 Q71.2004 984.773 69.3717 981.232 Q67.5661 977.667 63.9319 977.667 M63.9319 973.963 Q69.742 973.963 72.7976 978.57 Q75.8763 983.153 75.8763 991.903 Q75.8763 1000.63 72.7976 1005.24 Q69.742 1009.82 63.9319 1009.82 Q58.1217 1009.82 55.043 1005.24 Q51.9875 1000.63 51.9875 991.903 Q51.9875 983.153 55.043 978.57 Q58.1217 973.963 63.9319 973.963 Z" fill="#000000" fill-rule="evenodd" fill-opacity="1" /><path clip-path="url(#clip700)" d="M84.0938 1003.27 L88.978 1003.27 L88.978 1009.15 L84.0938 1009.15 L84.0938 1003.27 Z" fill="#000000" fill-rule="evenodd" fill-opacity="1" /><path clip-path="url(#clip700)" d="M99.2095 974.588 L117.566 974.588 L117.566 978.523 L103.492 978.523 L103.492 986.996 Q104.51 986.648 105.529 986.486 Q106.547 986.301 107.566 986.301 Q113.353 986.301 116.733 989.473 Q120.112 992.644 120.112 998.06 Q120.112 1003.64 116.64 1006.74 Q113.168 1009.82 106.848 1009.82 Q104.672 1009.82 102.404 1009.45 Q100.159 1009.08 97.7511 1008.34 L97.7511 1003.64 Q99.8345 1004.77 102.057 1005.33 Q104.279 1005.88 106.756 1005.88 Q110.76 1005.88 113.098 1003.78 Q115.436 1001.67 115.436 998.06 Q115.436 994.449 113.098 992.343 Q110.76 990.236 106.756 990.236 Q104.881 990.236 103.006 990.653 Q101.154 991.07 99.2095 991.949 L99.2095 974.588 Z" fill="#000000" fill-rule="evenodd" fill-opacity="1" /><path clip-path="url(#clip700)" d="M53.7467 551.366 L61.3856 551.366 L61.3856 525 L53.0754 526.667 L53.0754 522.408 L61.3393 520.741 L66.0152 520.741 L66.0152 551.366 L73.654 551.366 L73.654 555.301 L53.7467 555.301 L53.7467 551.366 Z" fill="#000000" fill-rule="evenodd" fill-opacity="1" /><path clip-path="url(#clip700)" d="M83.0984 549.421 L87.9827 549.421 L87.9827 555.301 L83.0984 555.301 L83.0984 549.421 Z" fill="#000000" fill-rule="evenodd" fill-opacity="1" /><path clip-path="url(#clip700)" d="M108.168 523.82 Q104.557 523.82 102.728 527.384 Q100.922 530.926 100.922 538.056 Q100.922 545.162 102.728 548.727 Q104.557 552.269 108.168 552.269 Q111.802 552.269 113.608 548.727 Q115.436 545.162 115.436 538.056 Q115.436 530.926 113.608 527.384 Q111.802 523.82 108.168 523.82 M108.168 520.116 Q113.978 520.116 117.033 524.722 Q120.112 529.306 120.112 538.056 Q120.112 546.782 117.033 551.389 Q113.978 555.972 108.168 555.972 Q102.358 555.972 99.2789 551.389 Q96.2234 546.782 96.2234 538.056 Q96.2234 529.306 99.2789 524.722 Q102.358 520.116 108.168 520.116 Z" fill="#000000" fill-rule="evenodd" fill-opacity="1" /><path clip-path="url(#clip700)" d="M54.7421 97.5184 L62.381 97.5184 L62.381 71.1528 L54.0708 72.8195 L54.0708 68.5603 L62.3347 66.8936 L67.0106 66.8936 L67.0106 97.5184 L74.6494 97.5184 L74.6494 101.454 L54.7421 101.454 L54.7421 97.5184 Z" fill="#000000" fill-rule="evenodd" fill-opacity="1" /><path clip-path="url(#clip700)" d="M84.0938 95.574 L88.978 95.574 L88.978 101.454 L84.0938 101.454 L84.0938 95.574 Z" fill="#000000" fill-rule="evenodd" fill-opacity="1" /><path clip-path="url(#clip700)" d="M99.2095 66.8936 L117.566 66.8936 L117.566 70.8288 L103.492 70.8288 L103.492 79.301 Q104.51 78.9537 105.529 78.7917 Q106.547 78.6065 107.566 78.6065 Q113.353 78.6065 116.733 81.7778 Q120.112 84.9491 120.112 90.3657 Q120.112 95.9444 116.64 99.0462 Q113.168 102.125 106.848 102.125 Q104.672 102.125 102.404 101.755 Q100.159 101.384 97.7511 100.643 L97.7511 95.9444 Q99.8345 97.0786 102.057 97.6342 Q104.279 98.1897 106.756 98.1897 Q110.76 98.1897 113.098 96.0833 Q115.436 93.9768 115.436 90.3657 Q115.436 86.7546 113.098 84.6481 Q110.76 82.5417 106.756 82.5417 Q104.881 82.5417 103.006 82.9583 Q101.154 83.375 99.2095 84.2546 L99.2095 66.8936 Z" fill="#000000" fill-rule="evenodd" fill-opacity="1" /><polyline clip-path="url(#clip702)" style="stroke:#009af9; stroke-linecap:butt; stroke-linejoin:round; stroke-width:4; stroke-opacity:1; fill:none" points="
  218.281,1445.72 327.35,1270.39 436.419,1101.17 545.487,939.302 654.556,786.216 763.625,643.53 872.694,513.014 981.762,396.549 1090.83,296.059 1199.9,213.414 
  1308.97,150.316 1418.04,108.171 1527.11,87.9763 1636.17,90.2243 1745.24,114.86 1854.31,161.284 1963.38,228.41 2072.45,314.762 2181.52,418.596 2290.59,538.021 
  
  "/>
<circle clip-path="url(#clip702)" cx="218.281" cy="1445.72" r="14" fill="#009af9" fill-rule="evenodd" fill-opacity="1" stroke="#000000" stroke-opacity="1" stroke-width="3.2"/>
<circle clip-path="url(#clip702)" cx="327.35" cy="1270.39" r="14" fill="#009af9" fill-rule="evenodd" fill-opacity="1" stroke="#000000" stroke-opacity="1" stroke-width="3.2"/>
<circle clip-path="url(#clip702)" cx="436.419" cy="1101.17" r="14" fill="#009af9" fill-rule="evenodd" fill-opacity="1" stroke="#000000" stroke-opacity="1" stroke-width="3.2"/>
<circle clip-path="url(#clip702)" cx="545.487" cy="939.302" r="14" fill="#009af9" fill-rule="evenodd" fill-opacity="1" stroke="#000000" stroke-opacity="1" stroke-width="3.2"/>
<circle clip-path="url(#clip702)" cx="654.556" cy="786.216" r="14" fill="#009af9" fill-rule="evenodd" fill-opacity="1" stroke="#000000" stroke-opacity="1" stroke-width="3.2"/>
<circle clip-path="url(#clip702)" cx="763.625" cy="643.53" r="14" fill="#009af9" fill-rule="evenodd" fill-opacity="1" stroke="#000000" stroke-opacity="1" stroke-width="3.2"/>
<circle clip-path="url(#clip702)" cx="872.694" cy="513.014" r="14" fill="#009af9" fill-rule="evenodd" fill-opacity="1" stroke="#000000" stroke-opacity="1" stroke-width="3.2"/>
<circle clip-path="url(#clip702)" cx="981.762" cy="396.549" r="14" fill="#009af9" fill-rule="evenodd" fill-opacity="1" stroke="#000000" stroke-opacity="1" stroke-width="3.2"/>
<circle clip-path="url(#clip702)" cx="1090.83" cy="296.059" r="14" fill="#009af9" fill-rule="evenodd" fill-opacity="1" stroke="#000000" stroke-opacity="1" stroke-width="3.2"/>
<circle clip-path="url(#clip702)" cx="1199.9" cy="213.414" r="14" fill="#009af9" fill-rule="evenodd" fill-opacity="1" stroke="#000000" stroke-opacity="1" stroke-width="3.2"/>
<circle clip-path="url(#clip702)" cx="1308.97" cy="150.316" r="14" fill="#009af9" fill-rule="evenodd" fill-opacity="1" stroke="#000000" stroke-opacity="1" stroke-width="3.2"/>
<circle clip-path="url(#clip702)" cx="1418.04" cy="108.171" r="14" fill="#009af9" fill-rule="evenodd" fill-opacity="1" stroke="#000000" stroke-opacity="1" stroke-width="3.2"/>
<circle clip-path="url(#clip702)" cx="1527.11" cy="87.9763" r="14" fill="#009af9" fill-rule="evenodd" fill-opacity="1" stroke="#000000" stroke-opacity="1" stroke-width="3.2"/>
<circle clip-path="url(#clip702)" cx="1636.17" cy="90.2243" r="14" fill="#009af9" fill-rule="evenodd" fill-opacity="1" stroke="#000000" stroke-opacity="1" stroke-width="3.2"/>
<circle clip-path="url(#clip702)" cx="1745.24" cy="114.86" r="14" fill="#009af9" fill-rule="evenodd" fill-opacity="1" stroke="#000000" stroke-opacity="1" stroke-width="3.2"/>
<circle clip-path="url(#clip702)" cx="1854.31" cy="161.284" r="14" fill="#009af9" fill-rule="evenodd" fill-opacity="1" stroke="#000000" stroke-opacity="1" stroke-width="3.2"/>
<circle clip-path="url(#clip702)" cx="1963.38" cy="228.41" r="14" fill="#009af9" fill-rule="evenodd" fill-opacity="1" stroke="#000000" stroke-opacity="1" stroke-width="3.2"/>
<circle clip-path="url(#clip702)" cx="2072.45" cy="314.762" r="14" fill="#009af9" fill-rule="evenodd" fill-opacity="1" stroke="#000000" stroke-opacity="1" stroke-width="3.2"/>
<circle clip-path="url(#clip702)" cx="2181.52" cy="418.596" r="14" fill="#009af9" fill-rule="evenodd" fill-opacity="1" stroke="#000000" stroke-opacity="1" stroke-width="3.2"/>
<circle clip-path="url(#clip702)" cx="2290.59" cy="538.021" r="14" fill="#009af9" fill-rule="evenodd" fill-opacity="1" stroke="#000000" stroke-opacity="1" stroke-width="3.2"/>
<path clip-path="url(#clip700)" d="
M1983.03 198.898 L2279.53 198.898 L2279.53 95.2176 L1983.03 95.2176  Z
  " fill="#ffffff" fill-rule="evenodd" fill-opacity="1"/>
<polyline clip-path="url(#clip700)" style="stroke:#000000; stroke-linecap:butt; stroke-linejoin:round; stroke-width:4; stroke-opacity:1; fill:none" points="
  1983.03,198.898 2279.53,198.898 2279.53,95.2176 1983.03,95.2176 1983.03,198.898 
  "/>
<polyline clip-path="url(#clip700)" style="stroke:#009af9; stroke-linecap:butt; stroke-linejoin:round; stroke-width:4; stroke-opacity:1; fill:none" points="
  2007.44,147.058 2153.88,147.058 
  "/>
<circle clip-path="url(#clip700)" cx="2080.66" cy="147.058" r="23" fill="#009af9" fill-rule="evenodd" fill-opacity="1" stroke="#000000" stroke-opacity="1" stroke-width="5.12"/>
<path clip-path="url(#clip700)" d="M2192.13 166.745 Q2190.33 171.375 2188.61 172.787 Q2186.9 174.199 2184.03 174.199 L2180.63 174.199 L2180.63 170.634 L2183.13 170.634 Q2184.89 170.634 2185.86 169.8 Q2186.83 168.967 2188.01 165.865 L2188.78 163.921 L2178.29 138.412 L2182.8 138.412 L2190.91 158.689 L2199.01 138.412 L2203.52 138.412 L2192.13 166.745 Z" fill="#000000" fill-rule="evenodd" fill-opacity="1" /><path clip-path="url(#clip700)" d="M2210.81 160.402 L2218.45 160.402 L2218.45 134.037 L2210.14 135.703 L2210.14 131.444 L2218.41 129.778 L2223.08 129.778 L2223.08 160.402 L2230.72 160.402 L2230.72 164.338 L2210.81 164.338 L2210.81 160.402 Z" fill="#000000" fill-rule="evenodd" fill-opacity="1" /></svg>
