<?xml version="1.0" encoding="utf-8"?>
<svg xmlns="http://www.w3.org/2000/svg" xmlns:xlink="http://www.w3.org/1999/xlink" width="600" height="400" viewBox="0 0 2400 1600">
<defs>
  <clipPath id="clip870">
    <rect x="0" y="0" width="2400" height="1600"/>
  </clipPath>
</defs>
<path clip-path="url(#clip870)" d="
M0 1600 L2400 1600 L2400 0 L0 0  Z
  " fill="#ffffff" fill-rule="evenodd" fill-opacity="1"/>
<defs>
  <clipPath id="clip871">
    <rect x="480" y="0" width="1681" height="1600"/>
  </clipPath>
</defs>
<path clip-path="url(#clip870)" d="
M156.598 1486.45 L2352.76 1486.45 L2352.76 47.2441 L156.598 47.2441  Z
  " fill="#ffffff" fill-rule="evenodd" fill-opacity="1"/>
<defs>
  <clipPath id="clip872">
    <rect x="156" y="47" width="2197" height="1440"/>
  </clipPath>
</defs>
<polyline clip-path="url(#clip872)" style="stroke:#000000; stroke-linecap:butt; stroke-linejoin:round; stroke-width:2; stroke-opacity:0.1; fill:none" points="
  425.938,1486.45 425.938,47.2441 
  "/>
<polyline clip-path="url(#clip872)" style="stroke:#000000; stroke-linecap:butt; stroke-linejoin:round; stroke-width:2; stroke-opacity:0.1; fill:none" points="
  840.308,1486.45 840.308,47.2441 
  "/>
<polyline clip-path="url(#clip872)" style="stroke:#000000; stroke-linecap:butt; stroke-linejoin:round; stroke-width:2; stroke-opacity:0.1; fill:none" points="
  1254.68,1486.45 1254.68,47.2441 
  "/>
<polyline clip-path="url(#clip872)" style="stroke:#000000; stroke-linecap:butt; stroke-linejoin:round; stroke-width:2; stroke-opacity:0.1; fill:none" points="
  1669.05,1486.45 1669.05,47.2441 
  "/>
<polyline clip-path="url(#clip872)" style="stroke:#000000; stroke-linecap:butt; stroke-linejoin:round; stroke-width:2; stroke-opacity:0.1; fill:none" points="
  2083.42,1486.45 2083.42,47.2441 
  "/>
<polyline clip-path="url(#clip870)" style="stroke:#000000; stroke-linecap:butt; stroke-linejoin:round; stroke-width:4; stroke-opacity:1; fill:none" points="
  156.598,1486.45 2352.76,1486.45 
  "/>
<polyline clip-path="url(#clip870)" style="stroke:#000000; stroke-linecap:butt; stroke-linejoin:round; stroke-width:4; stroke-opacity:1; fill:none" points="
  425.938,1486.45 425.938,1467.55 
  "/>
<polyline clip-path="url(#clip870)" style="stroke:#000000; stroke-linecap:butt; stroke-linejoin:round; stroke-width:4; stroke-opacity:1; fill:none" points="
  840.308,1486.45 840.308,1467.55 
  "/>
<polyline clip-path="url(#clip870)" style="stroke:#000000; stroke-linecap:butt; stroke-linejoin:round; stroke-width:4; stroke-opacity:1; fill:none" points="
  1254.68,1486.45 1254.68,1467.55 
  "/>
<polyline clip-path="url(#clip870)" style="stroke:#000000; stroke-linecap:butt; stroke-linejoin:round; stroke-width:4; stroke-opacity:1; fill:none" points="
  1669.05,1486.45 1669.05,1467.55 
  "/>
<polyline clip-path="url(#clip870)" style="stroke:#000000; stroke-linecap:butt; stroke-linejoin:round; stroke-width:4; stroke-opacity:1; fill:none" points="
  2083.42,1486.45 2083.42,1467.55 
  "/>
<path clip-path="url(#clip870)" d="M394.839 1530.29 L424.515 1530.29 L424.515 1534.23 L394.839 1534.23 L394.839 1530.29 Z" fill="#000000" fill-rule="evenodd" fill-opacity="1" /><path clip-path="url(#clip870)" d="M447.454 1516.63 L435.649 1535.08 L447.454 1535.08 L447.454 1516.63 M446.228 1512.56 L452.107 1512.56 L452.107 1535.08 L457.038 1535.08 L457.038 1538.97 L452.107 1538.97 L452.107 1547.12 L447.454 1547.12 L447.454 1538.97 L431.853 1538.97 L431.853 1534.46 L446.228 1512.56 Z" fill="#000000" fill-rule="evenodd" fill-opacity="1" /><path clip-path="url(#clip870)" d="M810.25 1530.29 L839.926 1530.29 L839.926 1534.23 L810.25 1534.23 L810.25 1530.29 Z" fill="#000000" fill-rule="evenodd" fill-opacity="1" /><path clip-path="url(#clip870)" d="M854.046 1543.18 L870.365 1543.18 L870.365 1547.12 L848.421 1547.12 L848.421 1543.18 Q851.083 1540.43 855.666 1535.8 Q860.273 1531.15 861.453 1529.81 Q863.699 1527.28 864.578 1525.55 Q865.481 1523.79 865.481 1522.1 Q865.481 1519.34 863.537 1517.61 Q861.615 1515.87 858.514 1515.87 Q856.315 1515.87 853.861 1516.63 Q851.43 1517.4 848.653 1518.95 L848.653 1514.23 Q851.477 1513.09 853.93 1512.51 Q856.384 1511.93 858.421 1511.93 Q863.791 1511.93 866.986 1514.62 Q870.18 1517.31 870.18 1521.8 Q870.18 1523.93 869.37 1525.85 Q868.583 1527.74 866.477 1530.34 Q865.898 1531.01 862.796 1534.23 Q859.694 1537.42 854.046 1543.18 Z" fill="#000000" fill-rule="evenodd" fill-opacity="1" /><path clip-path="url(#clip870)" d="M1254.68 1515.64 Q1251.07 1515.64 1249.24 1519.2 Q1247.43 1522.75 1247.43 1529.87 Q1247.43 1536.98 1249.24 1540.55 Q1251.07 1544.09 1254.68 1544.09 Q1258.31 1544.09 1260.12 1540.55 Q1261.95 1536.98 1261.95 1529.87 Q1261.95 1522.75 1260.12 1519.2 Q1258.31 1515.64 1254.68 1515.64 M1254.68 1511.93 Q1260.49 1511.93 1263.54 1516.54 Q1266.62 1521.12 1266.62 1529.87 Q1266.62 1538.6 1263.54 1543.21 Q1260.49 1547.79 1254.68 1547.79 Q1248.87 1547.79 1245.79 1543.21 Q1242.73 1538.6 1242.73 1529.87 Q1242.73 1521.12 1245.79 1516.54 Q1248.87 1511.93 1254.68 1511.93 Z" fill="#000000" fill-rule="evenodd" fill-opacity="1" /><path clip-path="url(#clip870)" d="M1663.7 1543.18 L1680.02 1543.18 L1680.02 1547.12 L1658.07 1547.12 L1658.07 1543.18 Q1660.74 1540.43 1665.32 1535.8 Q1669.93 1531.15 1671.11 1529.81 Q1673.35 1527.28 1674.23 1525.55 Q1675.13 1523.79 1675.13 1522.1 Q1675.13 1519.34 1673.19 1517.61 Q1671.27 1515.87 1668.17 1515.87 Q1665.97 1515.87 1663.51 1516.63 Q1661.08 1517.4 1658.31 1518.95 L1658.31 1514.23 Q1661.13 1513.09 1663.58 1512.51 Q1666.04 1511.93 1668.07 1511.93 Q1673.44 1511.93 1676.64 1514.62 Q1679.83 1517.31 1679.83 1521.8 Q1679.83 1523.93 1679.02 1525.85 Q1678.24 1527.74 1676.13 1530.34 Q1675.55 1531.01 1672.45 1534.23 Q1669.35 1537.42 1663.7 1543.18 Z" fill="#000000" fill-rule="evenodd" fill-opacity="1" /><path clip-path="url(#clip870)" d="M2086.43 1516.63 L2074.62 1535.08 L2086.43 1535.08 L2086.43 1516.63 M2085.2 1512.56 L2091.08 1512.56 L2091.08 1535.08 L2096.01 1535.08 L2096.01 1538.97 L2091.08 1538.97 L2091.08 1547.12 L2086.43 1547.12 L2086.43 1538.97 L2070.82 1538.97 L2070.82 1534.46 L2085.2 1512.56 Z" fill="#000000" fill-rule="evenodd" fill-opacity="1" /><polyline clip-path="url(#clip872)" style="stroke:#000000; stroke-linecap:butt; stroke-linejoin:round; stroke-width:2; stroke-opacity:0.1; fill:none" points="
  156.598,1294.86 2352.76,1294.86 
  "/>
<polyline clip-path="url(#clip872)" style="stroke:#000000; stroke-linecap:butt; stroke-linejoin:round; stroke-width:2; stroke-opacity:0.1; fill:none" points="
  156.598,993.136 2352.76,993.136 
  "/>
<polyline clip-path="url(#clip872)" style="stroke:#000000; stroke-linecap:butt; stroke-linejoin:round; stroke-width:2; stroke-opacity:0.1; fill:none" points="
  156.598,691.416 2352.76,691.416 
  "/>
<polyline clip-path="url(#clip872)" style="stroke:#000000; stroke-linecap:butt; stroke-linejoin:round; stroke-width:2; stroke-opacity:0.1; fill:none" points="
  156.598,389.696 2352.76,389.696 
  "/>
<polyline clip-path="url(#clip872)" style="stroke:#000000; stroke-linecap:butt; stroke-linejoin:round; stroke-width:2; stroke-opacity:0.1; fill:none" points="
  156.598,87.9763 2352.76,87.9763 
  "/>
<polyline clip-path="url(#clip870)" style="stroke:#000000; stroke-linecap:butt; stroke-linejoin:round; stroke-width:4; stroke-opacity:1; fill:none" points="
  156.598,1486.45 156.598,47.2441 
  "/>
<polyline clip-path="url(#clip870)" style="stroke:#000000; stroke-linecap:butt; stroke-linejoin:round; stroke-width:4; stroke-opacity:1; fill:none" points="
  156.598,1294.86 175.496,1294.86 
  "/>
<polyline clip-path="url(#clip870)" style="stroke:#000000; stroke-linecap:butt; stroke-linejoin:round; stroke-width:4; stroke-opacity:1; fill:none" points="
  156.598,993.136 175.496,993.136 
  "/>
<polyline clip-path="url(#clip870)" style="stroke:#000000; stroke-linecap:butt; stroke-linejoin:round; stroke-width:4; stroke-opacity:1; fill:none" points="
  156.598,691.416 175.496,691.416 
  "/>
<polyline clip-path="url(#clip870)" style="stroke:#000000; stroke-linecap:butt; stroke-linejoin:round; stroke-width:4; stroke-opacity:1; fill:none" points="
  156.598,389.696 175.496,389.696 
  "/>
<polyline clip-path="url(#clip870)" style="stroke:#000000; stroke-linecap:butt; stroke-linejoin:round; stroke-width:4; stroke-opacity:1; fill:none" points="
  156.598,87.9763 175.496,87.9763 
  "/>
<path clip-path="url(#clip870)" d="M65.0198 1280.65 Q61.4087 1280.65 59.58 1284.22 Q57.7745 1287.76 57.7745 1294.89 Q57.7745 1302 59.58 1305.56 Q61.4087 1309.1 65.0198 1309.1 Q68.6541 1309.1 70.4596 1305.56 Q72.2883 1302 72.2883 1294.89 Q72.2883 1287.76 70.4596 1284.22 Q68.6541 1280.65 65.0198 1280.65 M65.0198 1276.95 Q70.83 1276.95 73.8855 1281.56 Q76.9642 1286.14 76.9642 1294.89 Q76.9642 1303.62 73.8855 1308.22 Q70.83 1312.81 65.0198 1312.81 Q59.2097 1312.81 56.131 1308.22 Q53.0754 1303.62 53.0754 1294.89 Q53.0754 1286.14 56.131 1281.56 Q59.2097 1276.95 65.0198 1276.95 Z" fill="#000000" fill-rule="evenodd" fill-opacity="1" /><path clip-path="url(#clip870)" d="M85.1818 1306.26 L90.066 1306.26 L90.066 1312.14 L85.1818 1312.14 L85.1818 1306.26 Z" fill="#000000" fill-rule="evenodd" fill-opacity="1" /><path clip-path="url(#clip870)" d="M104.279 1308.2 L120.598 1308.2 L120.598 1312.14 L98.6539 1312.14 L98.6539 1308.2 Q101.316 1305.45 105.899 1300.82 Q110.506 1296.16 111.686 1294.82 Q113.932 1292.3 114.811 1290.56 Q115.714 1288.8 115.714 1287.11 Q115.714 1284.36 113.77 1282.62 Q111.848 1280.89 108.746 1280.89 Q106.547 1280.89 104.094 1281.65 Q101.663 1282.41 98.8854 1283.96 L98.8854 1279.24 Q101.709 1278.11 104.163 1277.53 Q106.617 1276.95 108.654 1276.95 Q114.024 1276.95 117.219 1279.64 Q120.413 1282.32 120.413 1286.81 Q120.413 1288.94 119.603 1290.86 Q118.816 1292.76 116.709 1295.35 Q116.131 1296.02 113.029 1299.24 Q109.927 1302.44 104.279 1308.2 Z" fill="#000000" fill-rule="evenodd" fill-opacity="1" /><path clip-path="url(#clip870)" d="M62.9365 978.935 Q59.3254 978.935 57.4967 982.499 Q55.6912 986.041 55.6912 993.171 Q55.6912 1000.28 57.4967 1003.84 Q59.3254 1007.38 62.9365 1007.38 Q66.5707 1007.38 68.3763 1003.84 Q70.205 1000.28 70.205 993.171 Q70.205 986.041 68.3763 982.499 Q66.5707 978.935 62.9365 978.935 M62.9365 975.231 Q68.7467 975.231 71.8022 979.837 Q74.8809 984.421 74.8809 993.171 Q74.8809 1001.9 71.8022 1006.5 Q68.7467 1011.09 62.9365 1011.09 Q57.1264 1011.09 54.0477 1006.5 Q50.9921 1001.9 50.9921 993.171 Q50.9921 984.421 54.0477 979.837 Q57.1264 975.231 62.9365 975.231 Z" fill="#000000" fill-rule="evenodd" fill-opacity="1" /><path clip-path="url(#clip870)" d="M83.0984 1004.54 L87.9827 1004.54 L87.9827 1010.42 L83.0984 1010.42 L83.0984 1004.54 Z" fill="#000000" fill-rule="evenodd" fill-opacity="1" /><path clip-path="url(#clip870)" d="M111.015 979.93 L99.2095 998.379 L111.015 998.379 L111.015 979.93 M109.788 975.856 L115.668 975.856 L115.668 998.379 L120.598 998.379 L120.598 1002.27 L115.668 1002.27 L115.668 1010.42 L111.015 1010.42 L111.015 1002.27 L95.4132 1002.27 L95.4132 997.754 L109.788 975.856 Z" fill="#000000" fill-rule="evenodd" fill-opacity="1" /><path clip-path="url(#clip870)" d="M63.2606 677.215 Q59.6495 677.215 57.8208 680.779 Q56.0152 684.321 56.0152 691.451 Q56.0152 698.557 57.8208 702.122 Q59.6495 705.664 63.2606 705.664 Q66.8948 705.664 68.7004 702.122 Q70.5291 698.557 70.5291 691.451 Q70.5291 684.321 68.7004 680.779 Q66.8948 677.215 63.2606 677.215 M63.2606 673.511 Q69.0707 673.511 72.1263 678.117 Q75.205 682.701 75.205 691.451 Q75.205 700.178 72.1263 704.784 Q69.0707 709.367 63.2606 709.367 Q57.4504 709.367 54.3717 704.784 Q51.3162 700.178 51.3162 691.451 Q51.3162 682.701 54.3717 678.117 Q57.4504 673.511 63.2606 673.511 Z" fill="#000000" fill-rule="evenodd" fill-opacity="1" /><path clip-path="url(#clip870)" d="M83.4225 702.816 L88.3067 702.816 L88.3067 708.696 L83.4225 708.696 L83.4225 702.816 Z" fill="#000000" fill-rule="evenodd" fill-opacity="1" /><path clip-path="url(#clip870)" d="M109.071 689.553 Q105.922 689.553 104.071 691.705 Q102.242 693.858 102.242 697.608 Q102.242 701.335 104.071 703.511 Q105.922 705.664 109.071 705.664 Q112.219 705.664 114.047 703.511 Q115.899 701.335 115.899 697.608 Q115.899 693.858 114.047 691.705 Q112.219 689.553 109.071 689.553 M118.353 674.9 L118.353 679.159 Q116.594 678.326 114.788 677.886 Q113.006 677.446 111.246 677.446 Q106.617 677.446 104.163 680.571 Q101.733 683.696 101.385 690.016 Q102.751 688.002 104.811 686.937 Q106.871 685.849 109.348 685.849 Q114.557 685.849 117.566 689.02 Q120.598 692.168 120.598 697.608 Q120.598 702.932 117.45 706.15 Q114.302 709.367 109.071 709.367 Q103.075 709.367 99.9039 704.784 Q96.7326 700.178 96.7326 691.451 Q96.7326 683.256 100.621 678.395 Q104.51 673.511 111.061 673.511 Q112.82 673.511 114.603 673.858 Q116.408 674.205 118.353 674.9 Z" fill="#000000" fill-rule="evenodd" fill-opacity="1" /><path clip-path="url(#clip870)" d="M63.5152 375.495 Q59.9041 375.495 58.0754 379.06 Q56.2699 382.601 56.2699 389.731 Q56.2699 396.837 58.0754 400.402 Q59.9041 403.944 63.5152 403.944 Q67.1494 403.944 68.955 400.402 Q70.7837 396.837 70.7837 389.731 Q70.7837 382.601 68.955 379.06 Q67.1494 375.495 63.5152 375.495 M63.5152 371.791 Q69.3254 371.791 72.3809 376.398 Q75.4596 380.981 75.4596 389.731 Q75.4596 398.458 72.3809 403.064 Q69.3254 407.647 63.5152 407.647 Q57.7051 407.647 54.6264 403.064 Q51.5708 398.458 51.5708 389.731 Q51.5708 380.981 54.6264 376.398 Q57.7051 371.791 63.5152 371.791 Z" fill="#000000" fill-rule="evenodd" fill-opacity="1" /><path clip-path="url(#clip870)" d="M83.6771 401.097 L88.5614 401.097 L88.5614 406.976 L83.6771 406.976 L83.6771 401.097 Z" fill="#000000" fill-rule="evenodd" fill-opacity="1" /><path clip-path="url(#clip870)" d="M108.746 390.564 Q105.413 390.564 103.492 392.347 Q101.594 394.129 101.594 397.254 Q101.594 400.379 103.492 402.161 Q105.413 403.944 108.746 403.944 Q112.08 403.944 114.001 402.161 Q115.922 400.356 115.922 397.254 Q115.922 394.129 114.001 392.347 Q112.103 390.564 108.746 390.564 M104.071 388.573 Q101.061 387.833 99.3715 385.773 Q97.7048 383.712 97.7048 380.749 Q97.7048 376.606 100.645 374.199 Q103.608 371.791 108.746 371.791 Q113.908 371.791 116.848 374.199 Q119.788 376.606 119.788 380.749 Q119.788 383.712 118.098 385.773 Q116.432 387.833 113.445 388.573 Q116.825 389.361 118.7 391.652 Q120.598 393.944 120.598 397.254 Q120.598 402.277 117.52 404.962 Q114.464 407.647 108.746 407.647 Q103.029 407.647 99.9502 404.962 Q96.8947 402.277 96.8947 397.254 Q96.8947 393.944 98.7928 391.652 Q100.691 389.361 104.071 388.573 M102.358 381.189 Q102.358 383.874 104.024 385.379 Q105.714 386.884 108.746 386.884 Q111.756 386.884 113.445 385.379 Q115.158 383.874 115.158 381.189 Q115.158 378.504 113.445 376.999 Q111.756 375.495 108.746 375.495 Q105.714 375.495 104.024 376.999 Q102.358 378.504 102.358 381.189 Z" fill="#000000" fill-rule="evenodd" fill-opacity="1" /><path clip-path="url(#clip870)" d="M54.2328 101.321 L61.8717 101.321 L61.8717 74.9555 L53.5616 76.6222 L53.5616 72.3629 L61.8254 70.6963 L66.5013 70.6963 L66.5013 101.321 L74.1402 101.321 L74.1402 105.256 L54.2328 105.256 L54.2328 101.321 Z" fill="#000000" fill-rule="evenodd" fill-opacity="1" /><path clip-path="url(#clip870)" d="M83.5845 99.3767 L88.4688 99.3767 L88.4688 105.256 L83.5845 105.256 L83.5845 99.3767 Z" fill="#000000" fill-rule="evenodd" fill-opacity="1" /><path clip-path="url(#clip870)" d="M108.654 73.775 Q105.043 73.775 103.214 77.3398 Q101.409 80.8814 101.409 88.011 Q101.409 95.1174 103.214 98.6822 Q105.043 102.224 108.654 102.224 Q112.288 102.224 114.094 98.6822 Q115.922 95.1174 115.922 88.011 Q115.922 80.8814 114.094 77.3398 Q112.288 73.775 108.654 73.775 M108.654 70.0713 Q114.464 70.0713 117.52 74.6777 Q120.598 79.261 120.598 88.011 Q120.598 96.7378 117.52 101.344 Q114.464 105.928 108.654 105.928 Q102.844 105.928 99.765 101.344 Q96.7095 96.7378 96.7095 88.011 Q96.7095 79.261 99.765 74.6777 Q102.844 70.0713 108.654 70.0713 Z" fill="#000000" fill-rule="evenodd" fill-opacity="1" /><polyline clip-path="url(#clip872)" style="stroke:#009af9; stroke-linecap:butt; stroke-linejoin:round; stroke-width:4; stroke-opacity:1; fill:none" points="
  218.754,1445.72 238.987,1445.72 426.073,1445.72 538.504,1445.72 633.562,1445.72 736.823,1445.72 832.02,1445.72 934.081,1445.72 1052.33,1445.72 1104.87,1445.71 
  1157.41,1445.6 1168.93,1445.37 1180.45,1444.67 1191.97,1442.53 1203.49,1436.08 1209.25,1429.01 1215.01,1416.85 1220.77,1396.16 1226.53,1361.6 1229.41,1336.8 
  1232.29,1305.5 1235.17,1266.5 1238.05,1218.68 1240.93,1161.17 1243.81,1093.62 1246.68,1016.46 1249.56,931.049 1252.7,831.299 1255.84,728.66 1258.98,627.742 
  1262.12,532.858 1265.26,447.326 1268.4,373.102 1271.54,310.788 1274.68,259.909 1277.82,219.304 1280.96,187.484 1284.1,162.903 1287.24,144.123 1293.52,119.188 
  1299.8,105.18 1312.36,93.1406 1324.92,89.5169 1337.47,88.435 1350.03,88.1128 1400.57,87.9773 1451.1,87.9763 1562.84,87.9763 1669.16,87.9763 1779.7,87.9763 
  1872.76,87.9763 1986.37,87.9763 2093.17,87.9763 2264.27,87.9763 2290.6,87.9763 
  "/>
<path clip-path="url(#clip870)" d="
M1983.1 198.898 L2279.55 198.898 L2279.55 95.2176 L1983.1 95.2176  Z
  " fill="#ffffff" fill-rule="evenodd" fill-opacity="1"/>
<polyline clip-path="url(#clip870)" style="stroke:#000000; stroke-linecap:butt; stroke-linejoin:round; stroke-width:4; stroke-opacity:1; fill:none" points="
  1983.1,198.898 2279.55,198.898 2279.55,95.2176 1983.1,95.2176 1983.1,198.898 
  "/>
<polyline clip-path="url(#clip870)" style="stroke:#009af9; stroke-linecap:butt; stroke-linejoin:round; stroke-width:4; stroke-opacity:1; fill:none" points="
  2007.5,147.058 2153.92,147.058 
  "/>
<path clip-path="url(#clip870)" d="M2192.16 166.745 Q2190.35 171.375 2188.64 172.787 Q2186.93 174.199 2184.06 174.199 L2180.65 174.199 L2180.65 170.634 L2183.15 170.634 Q2184.91 170.634 2185.89 169.8 Q2186.86 168.967 2188.04 165.865 L2188.8 163.921 L2178.32 138.412 L2182.83 138.412 L2190.93 158.689 L2199.03 138.412 L2203.55 138.412 L2192.16 166.745 Z" fill="#000000" fill-rule="evenodd" fill-opacity="1" /><path clip-path="url(#clip870)" d="M2210.84 160.402 L2218.48 160.402 L2218.48 134.037 L2210.17 135.703 L2210.17 131.444 L2218.43 129.778 L2223.11 129.778 L2223.11 160.402 L2230.75 160.402 L2230.75 164.338 L2210.84 164.338 L2210.84 160.402 Z" fill="#000000" fill-rule="evenodd" fill-opacity="1" /></svg>
