<?xml version="1.0" encoding="utf-8"?>
<svg xmlns="http://www.w3.org/2000/svg" xmlns:xlink="http://www.w3.org/1999/xlink" width="600" height="400" viewBox="0 0 2400 1600">
<defs>
  <clipPath id="clip420">
    <rect x="0" y="0" width="2400" height="1600"/>
  </clipPath>
</defs>
<path clip-path="url(#clip420)" d="
M0 1600 L2400 1600 L2400 0 L0 0  Z
  " fill="#ffffff" fill-rule="evenodd" fill-opacity="1"/>
<defs>
  <clipPath id="clip421">
    <rect x="480" y="0" width="1681" height="1600"/>
  </clipPath>
</defs>
<defs>
  <clipPath id="clip422">
    <rect x="178" y="123" width="2175" height="1364"/>
  </clipPath>
</defs>
<path clip-path="url(#clip420)" d="
M189.496 1474.16 L2352.76 1474.16 L2352.76 47.2441 L189.496 47.2441  Z
  " fill="#ffffff" fill-rule="evenodd" fill-opacity="1"/>
<defs>
  <clipPath id="clip423">
    <rect x="189" y="47" width="2164" height="1428"/>
  </clipPath>
</defs>
<polyline clip-path="url(#clip423)" style="stroke:#000000; stroke-linecap:butt; stroke-linejoin:round; stroke-width:2; stroke-opacity:0.1; fill:none" points="
  344.577,1474.16 344.577,47.2441 
  "/>
<polyline clip-path="url(#clip423)" style="stroke:#000000; stroke-linecap:butt; stroke-linejoin:round; stroke-width:2; stroke-opacity:0.1; fill:none" points="
  1313.07,1474.16 1313.07,47.2441 
  "/>
<polyline clip-path="url(#clip423)" style="stroke:#000000; stroke-linecap:butt; stroke-linejoin:round; stroke-width:2; stroke-opacity:0.1; fill:none" points="
  2281.56,1474.16 2281.56,47.2441 
  "/>
<polyline clip-path="url(#clip420)" style="stroke:#000000; stroke-linecap:butt; stroke-linejoin:round; stroke-width:4; stroke-opacity:1; fill:none" points="
  189.496,1474.16 2352.76,1474.16 
  "/>
<polyline clip-path="url(#clip420)" style="stroke:#000000; stroke-linecap:butt; stroke-linejoin:round; stroke-width:4; stroke-opacity:1; fill:none" points="
  344.577,1474.16 344.577,1455.27 
  "/>
<polyline clip-path="url(#clip420)" style="stroke:#000000; stroke-linecap:butt; stroke-linejoin:round; stroke-width:4; stroke-opacity:1; fill:none" points="
  1313.07,1474.16 1313.07,1455.27 
  "/>
<polyline clip-path="url(#clip420)" style="stroke:#000000; stroke-linecap:butt; stroke-linejoin:round; stroke-width:4; stroke-opacity:1; fill:none" points="
  2281.56,1474.16 2281.56,1455.27 
  "/>
<path clip-path="url(#clip420)" d="M310.904 1552.44 L318.543 1552.44 L318.543 1526.07 L310.233 1527.74 L310.233 1523.48 L318.497 1521.81 L323.173 1521.81 L323.173 1552.44 L330.811 1552.44 L330.811 1556.37 L310.904 1556.37 L310.904 1552.44 Z" fill="#000000" fill-rule="evenodd" fill-opacity="1" /><path clip-path="url(#clip420)" d="M350.256 1524.89 Q346.645 1524.89 344.816 1528.46 Q343.011 1532 343.011 1539.13 Q343.011 1546.23 344.816 1549.8 Q346.645 1553.34 350.256 1553.34 Q353.89 1553.34 355.696 1549.8 Q357.524 1546.23 357.524 1539.13 Q357.524 1532 355.696 1528.46 Q353.89 1524.89 350.256 1524.89 M350.256 1521.19 Q356.066 1521.19 359.122 1525.79 Q362.2 1530.38 362.2 1539.13 Q362.2 1547.85 359.122 1552.46 Q356.066 1557.04 350.256 1557.04 Q344.446 1557.04 341.367 1552.46 Q338.311 1547.85 338.311 1539.13 Q338.311 1530.38 341.367 1525.79 Q344.446 1521.19 350.256 1521.19 Z" fill="#000000" fill-rule="evenodd" fill-opacity="1" /><path clip-path="url(#clip420)" d="M362.746 1525.76 L368.952 1525.76 L368.952 1504.34 L362.2 1505.7 L362.2 1502.24 L368.915 1500.88 L372.714 1500.88 L372.714 1525.76 L378.92 1525.76 L378.92 1528.96 L362.746 1528.96 L362.746 1525.76 Z" fill="#000000" fill-rule="evenodd" fill-opacity="1" /><path clip-path="url(#clip420)" d="M1278.84 1552.44 L1286.48 1552.44 L1286.48 1526.07 L1278.17 1527.74 L1278.17 1523.48 L1286.43 1521.81 L1291.11 1521.81 L1291.11 1552.44 L1298.75 1552.44 L1298.75 1556.37 L1278.84 1556.37 L1278.84 1552.44 Z" fill="#000000" fill-rule="evenodd" fill-opacity="1" /><path clip-path="url(#clip420)" d="M1318.19 1524.89 Q1314.58 1524.89 1312.75 1528.46 Q1310.95 1532 1310.95 1539.13 Q1310.95 1546.23 1312.75 1549.8 Q1314.58 1553.34 1318.19 1553.34 Q1321.83 1553.34 1323.63 1549.8 Q1325.46 1546.23 1325.46 1539.13 Q1325.46 1532 1323.63 1528.46 Q1321.83 1524.89 1318.19 1524.89 M1318.19 1521.19 Q1324 1521.19 1327.06 1525.79 Q1330.14 1530.38 1330.14 1539.13 Q1330.14 1547.85 1327.06 1552.46 Q1324 1557.04 1318.19 1557.04 Q1312.38 1557.04 1309.3 1552.46 Q1306.25 1547.85 1306.25 1539.13 Q1306.25 1530.38 1309.3 1525.79 Q1312.38 1521.19 1318.19 1521.19 Z" fill="#000000" fill-rule="evenodd" fill-opacity="1" /><path clip-path="url(#clip420)" d="M1334.71 1525.76 L1347.96 1525.76 L1347.96 1528.96 L1330.14 1528.96 L1330.14 1525.76 Q1332.3 1523.53 1336.02 1519.76 Q1339.76 1515.98 1340.72 1514.89 Q1342.55 1512.84 1343.26 1511.43 Q1344 1510 1344 1508.63 Q1344 1506.39 1342.42 1504.98 Q1340.86 1503.57 1338.34 1503.57 Q1336.55 1503.57 1334.55 1504.19 Q1332.58 1504.81 1330.32 1506.07 L1330.32 1502.24 Q1332.62 1501.31 1334.61 1500.84 Q1336.61 1500.37 1338.26 1500.37 Q1342.62 1500.37 1345.22 1502.56 Q1347.81 1504.74 1347.81 1508.39 Q1347.81 1510.12 1347.16 1511.68 Q1346.52 1513.22 1344.81 1515.33 Q1344.34 1515.87 1341.81 1518.49 Q1339.29 1521.08 1334.71 1525.76 Z" fill="#000000" fill-rule="evenodd" fill-opacity="1" /><path clip-path="url(#clip420)" d="M2247 1552.44 L2254.64 1552.44 L2254.64 1526.07 L2246.33 1527.74 L2246.33 1523.48 L2254.59 1521.81 L2259.27 1521.81 L2259.27 1552.44 L2266.91 1552.44 L2266.91 1556.37 L2247 1556.37 L2247 1552.44 Z" fill="#000000" fill-rule="evenodd" fill-opacity="1" /><path clip-path="url(#clip420)" d="M2286.35 1524.89 Q2282.74 1524.89 2280.91 1528.46 Q2279.11 1532 2279.11 1539.13 Q2279.11 1546.23 2280.91 1549.8 Q2282.74 1553.34 2286.35 1553.34 Q2289.99 1553.34 2291.79 1549.8 Q2293.62 1546.23 2293.62 1539.13 Q2293.62 1532 2291.79 1528.46 Q2289.99 1524.89 2286.35 1524.89 M2286.35 1521.19 Q2292.16 1521.19 2295.22 1525.79 Q2298.3 1530.38 2298.3 1539.13 Q2298.3 1547.85 2295.22 1552.46 Q2292.16 1557.04 2286.35 1557.04 Q2280.54 1557.04 2277.46 1552.46 Q2274.41 1547.85 2274.41 1539.13 Q2274.41 1530.38 2277.46 1525.79 Q2280.54 1521.19 2286.35 1521.19 Z" fill="#000000" fill-rule="evenodd" fill-opacity="1" /><path clip-path="url(#clip420)" d="M2310.99 1513.82 Q2313.72 1514.4 2315.24 1516.25 Q2316.78 1518.09 2316.78 1520.8 Q2316.78 1524.96 2313.93 1527.23 Q2311.07 1529.51 2305.8 1529.51 Q2304.03 1529.51 2302.15 1529.15 Q2300.29 1528.81 2298.3 1528.12 L2298.3 1524.45 Q2299.88 1525.37 2301.76 1525.84 Q2303.64 1526.31 2305.69 1526.31 Q2309.26 1526.31 2311.12 1524.9 Q2313 1523.49 2313 1520.8 Q2313 1518.32 2311.25 1516.92 Q2309.52 1515.51 2306.42 1515.51 L2303.15 1515.51 L2303.15 1512.39 L2306.57 1512.39 Q2309.37 1512.39 2310.86 1511.28 Q2312.35 1510.15 2312.35 1508.05 Q2312.35 1505.88 2310.8 1504.74 Q2309.28 1503.57 2306.42 1503.57 Q2304.86 1503.57 2303.07 1503.91 Q2301.29 1504.25 2299.14 1504.96 L2299.14 1501.58 Q2301.31 1500.98 2303.19 1500.67 Q2305.09 1500.37 2306.76 1500.37 Q2311.09 1500.37 2313.61 1502.35 Q2316.13 1504.3 2316.13 1507.65 Q2316.13 1509.98 2314.79 1511.6 Q2313.45 1513.2 2310.99 1513.82 Z" fill="#000000" fill-rule="evenodd" fill-opacity="1" /><polyline clip-path="url(#clip423)" style="stroke:#000000; stroke-linecap:butt; stroke-linejoin:round; stroke-width:2; stroke-opacity:0.1; fill:none" points="
  189.496,1429.36 2352.76,1429.36 
  "/>
<polyline clip-path="url(#clip423)" style="stroke:#000000; stroke-linecap:butt; stroke-linejoin:round; stroke-width:2; stroke-opacity:0.1; fill:none" points="
  189.496,1214.57 2352.76,1214.57 
  "/>
<polyline clip-path="url(#clip423)" style="stroke:#000000; stroke-linecap:butt; stroke-linejoin:round; stroke-width:2; stroke-opacity:0.1; fill:none" points="
  189.496,999.78 2352.76,999.78 
  "/>
<polyline clip-path="url(#clip423)" style="stroke:#000000; stroke-linecap:butt; stroke-linejoin:round; stroke-width:2; stroke-opacity:0.1; fill:none" points="
  189.496,784.993 2352.76,784.993 
  "/>
<polyline clip-path="url(#clip423)" style="stroke:#000000; stroke-linecap:butt; stroke-linejoin:round; stroke-width:2; stroke-opacity:0.1; fill:none" points="
  189.496,570.205 2352.76,570.205 
  "/>
<polyline clip-path="url(#clip423)" style="stroke:#000000; stroke-linecap:butt; stroke-linejoin:round; stroke-width:2; stroke-opacity:0.1; fill:none" points="
  189.496,355.418 2352.76,355.418 
  "/>
<polyline clip-path="url(#clip423)" style="stroke:#000000; stroke-linecap:butt; stroke-linejoin:round; stroke-width:2; stroke-opacity:0.1; fill:none" points="
  189.496,140.63 2352.76,140.63 
  "/>
<polyline clip-path="url(#clip420)" style="stroke:#000000; stroke-linecap:butt; stroke-linejoin:round; stroke-width:4; stroke-opacity:1; fill:none" points="
  189.496,1474.16 189.496,47.2441 
  "/>
<polyline clip-path="url(#clip420)" style="stroke:#000000; stroke-linecap:butt; stroke-linejoin:round; stroke-width:4; stroke-opacity:1; fill:none" points="
  189.496,1429.36 208.394,1429.36 
  "/>
<polyline clip-path="url(#clip420)" style="stroke:#000000; stroke-linecap:butt; stroke-linejoin:round; stroke-width:4; stroke-opacity:1; fill:none" points="
  189.496,1214.57 208.394,1214.57 
  "/>
<polyline clip-path="url(#clip420)" style="stroke:#000000; stroke-linecap:butt; stroke-linejoin:round; stroke-width:4; stroke-opacity:1; fill:none" points="
  189.496,999.78 208.394,999.78 
  "/>
<polyline clip-path="url(#clip420)" style="stroke:#000000; stroke-linecap:butt; stroke-linejoin:round; stroke-width:4; stroke-opacity:1; fill:none" points="
  189.496,784.993 208.394,784.993 
  "/>
<polyline clip-path="url(#clip420)" style="stroke:#000000; stroke-linecap:butt; stroke-linejoin:round; stroke-width:4; stroke-opacity:1; fill:none" points="
  189.496,570.205 208.394,570.205 
  "/>
<polyline clip-path="url(#clip420)" style="stroke:#000000; stroke-linecap:butt; stroke-linejoin:round; stroke-width:4; stroke-opacity:1; fill:none" points="
  189.496,355.418 208.394,355.418 
  "/>
<polyline clip-path="url(#clip420)" style="stroke:#000000; stroke-linecap:butt; stroke-linejoin:round; stroke-width:4; stroke-opacity:1; fill:none" points="
  189.496,140.63 208.394,140.63 
  "/>
<path clip-path="url(#clip420)" d="M51.9267 1449.15 L59.5656 1449.15 L59.5656 1422.78 L51.2554 1424.45 L51.2554 1420.19 L59.5193 1418.52 L64.1952 1418.52 L64.1952 1449.15 L71.834 1449.15 L71.834 1453.08 L51.9267 1453.08 L51.9267 1449.15 Z" fill="#000000" fill-rule="evenodd" fill-opacity="1" /><path clip-path="url(#clip420)" d="M91.2784 1421.6 Q87.6673 1421.6 85.8386 1425.17 Q84.033 1428.71 84.033 1435.84 Q84.033 1442.94 85.8386 1446.51 Q87.6673 1450.05 91.2784 1450.05 Q94.9126 1450.05 96.7182 1446.51 Q98.5468 1442.94 98.5468 1435.84 Q98.5468 1428.71 96.7182 1425.17 Q94.9126 1421.6 91.2784 1421.6 M91.2784 1417.9 Q97.0885 1417.9 100.144 1422.5 Q103.223 1427.09 103.223 1435.84 Q103.223 1444.56 100.144 1449.17 Q97.0885 1453.75 91.2784 1453.75 Q85.4682 1453.75 82.3895 1449.17 Q79.334 1444.56 79.334 1435.84 Q79.334 1427.09 82.3895 1422.5 Q85.4682 1417.9 91.2784 1417.9 Z" fill="#000000" fill-rule="evenodd" fill-opacity="1" /><path clip-path="url(#clip420)" d="M103.223 1412 L127.334 1412 L127.334 1415.2 L103.223 1415.2 L103.223 1412 Z" fill="#000000" fill-rule="evenodd" fill-opacity="1" /><path clip-path="url(#clip420)" d="M144.13 1410.12 Q141.572 1410.12 140.067 1411.87 Q138.581 1413.62 138.581 1416.66 Q138.581 1419.69 140.067 1421.46 Q141.572 1423.21 144.13 1423.21 Q146.688 1423.21 148.173 1421.46 Q149.678 1419.69 149.678 1416.66 Q149.678 1413.62 148.173 1411.87 Q146.688 1410.12 144.13 1410.12 M151.672 1398.21 L151.672 1401.67 Q150.242 1401 148.775 1400.64 Q147.327 1400.28 145.898 1400.28 Q142.136 1400.28 140.142 1402.82 Q138.168 1405.36 137.885 1410.49 Q138.995 1408.86 140.669 1407.99 Q142.343 1407.11 144.355 1407.11 Q148.587 1407.11 151.032 1409.69 Q153.496 1412.24 153.496 1416.66 Q153.496 1420.99 150.938 1423.6 Q148.38 1426.22 144.13 1426.22 Q139.258 1426.22 136.682 1422.49 Q134.105 1418.75 134.105 1411.66 Q134.105 1405 137.265 1401.05 Q140.425 1397.08 145.747 1397.08 Q147.177 1397.08 148.625 1397.37 Q150.092 1397.65 151.672 1398.21 Z" fill="#000000" fill-rule="evenodd" fill-opacity="1" /><path clip-path="url(#clip420)" d="M52.8671 1234.36 L60.506 1234.36 L60.506 1207.99 L52.1958 1209.66 L52.1958 1205.4 L60.4597 1203.74 L65.1356 1203.74 L65.1356 1234.36 L72.7744 1234.36 L72.7744 1238.3 L52.8671 1238.3 L52.8671 1234.36 Z" fill="#000000" fill-rule="evenodd" fill-opacity="1" /><path clip-path="url(#clip420)" d="M92.2188 1206.81 Q88.6077 1206.81 86.779 1210.38 Q84.9734 1213.92 84.9734 1221.05 Q84.9734 1228.16 86.779 1231.72 Q88.6077 1235.26 92.2188 1235.26 Q95.853 1235.26 97.6585 1231.72 Q99.4872 1228.16 99.4872 1221.05 Q99.4872 1213.92 97.6585 1210.38 Q95.853 1206.81 92.2188 1206.81 M92.2188 1203.11 Q98.0289 1203.11 101.084 1207.72 Q104.163 1212.3 104.163 1221.05 Q104.163 1229.78 101.084 1234.38 Q98.0289 1238.97 92.2188 1238.97 Q86.4086 1238.97 83.3299 1234.38 Q80.2744 1229.78 80.2744 1221.05 Q80.2744 1212.3 83.3299 1207.72 Q86.4086 1203.11 92.2188 1203.11 Z" fill="#000000" fill-rule="evenodd" fill-opacity="1" /><path clip-path="url(#clip420)" d="M104.163 1197.21 L128.275 1197.21 L128.275 1200.41 L104.163 1200.41 L104.163 1197.21 Z" fill="#000000" fill-rule="evenodd" fill-opacity="1" /><path clip-path="url(#clip420)" d="M136.513 1182.81 L151.427 1182.81 L151.427 1186 L139.992 1186 L139.992 1192.89 Q140.819 1192.6 141.647 1192.47 Q142.475 1192.32 143.302 1192.32 Q148.004 1192.32 150.75 1194.9 Q153.496 1197.48 153.496 1201.88 Q153.496 1206.41 150.675 1208.93 Q147.854 1211.43 142.719 1211.43 Q140.951 1211.43 139.108 1211.13 Q137.284 1210.83 135.328 1210.23 L135.328 1206.41 Q137.02 1207.33 138.826 1207.78 Q140.631 1208.23 142.644 1208.23 Q145.898 1208.23 147.797 1206.52 Q149.697 1204.81 149.697 1201.88 Q149.697 1198.94 147.797 1197.23 Q145.898 1195.52 142.644 1195.52 Q141.12 1195.52 139.597 1195.86 Q138.092 1196.2 136.513 1196.91 L136.513 1182.81 Z" fill="#000000" fill-rule="evenodd" fill-opacity="1" /><path clip-path="url(#clip420)" d="M51.6634 1019.57 L59.3023 1019.57 L59.3023 993.207 L50.9921 994.874 L50.9921 990.615 L59.256 988.948 L63.9319 988.948 L63.9319 1019.57 L71.5707 1019.57 L71.5707 1023.51 L51.6634 1023.51 L51.6634 1019.57 Z" fill="#000000" fill-rule="evenodd" fill-opacity="1" /><path clip-path="url(#clip420)" d="M91.0151 992.027 Q87.404 992.027 85.5753 995.592 Q83.7697 999.133 83.7697 1006.26 Q83.7697 1013.37 85.5753 1016.93 Q87.404 1020.48 91.0151 1020.48 Q94.6493 1020.48 96.4548 1016.93 Q98.2835 1013.37 98.2835 1006.26 Q98.2835 999.133 96.4548 995.592 Q94.6493 992.027 91.0151 992.027 M91.0151 988.323 Q96.8252 988.323 99.8808 992.93 Q102.959 997.513 102.959 1006.26 Q102.959 1014.99 99.8808 1019.6 Q96.8252 1024.18 91.0151 1024.18 Q85.2049 1024.18 82.1262 1019.6 Q79.0707 1014.99 79.0707 1006.26 Q79.0707 997.513 82.1262 992.93 Q85.2049 988.323 91.0151 988.323 Z" fill="#000000" fill-rule="evenodd" fill-opacity="1" /><path clip-path="url(#clip420)" d="M102.959 982.424 L127.071 982.424 L127.071 985.622 L102.959 985.622 L102.959 982.424 Z" fill="#000000" fill-rule="evenodd" fill-opacity="1" /><path clip-path="url(#clip420)" d="M145.71 971.328 L136.118 986.318 L145.71 986.318 L145.71 971.328 M144.713 968.018 L149.49 968.018 L149.49 986.318 L153.496 986.318 L153.496 989.477 L149.49 989.477 L149.49 996.098 L145.71 996.098 L145.71 989.477 L133.033 989.477 L133.033 985.81 L144.713 968.018 Z" fill="#000000" fill-rule="evenodd" fill-opacity="1" /><path clip-path="url(#clip420)" d="M52.585 804.785 L60.2238 804.785 L60.2238 778.42 L51.9137 780.086 L51.9137 775.827 L60.1776 774.161 L64.8535 774.161 L64.8535 804.785 L72.4923 804.785 L72.4923 808.721 L52.585 808.721 L52.585 804.785 Z" fill="#000000" fill-rule="evenodd" fill-opacity="1" /><path clip-path="url(#clip420)" d="M91.9366 777.239 Q88.3255 777.239 86.4969 780.804 Q84.6913 784.346 84.6913 791.475 Q84.6913 798.582 86.4969 802.146 Q88.3255 805.688 91.9366 805.688 Q95.5709 805.688 97.3764 802.146 Q99.2051 798.582 99.2051 791.475 Q99.2051 784.346 97.3764 780.804 Q95.5709 777.239 91.9366 777.239 M91.9366 773.536 Q97.7468 773.536 100.802 778.142 Q103.881 782.725 103.881 791.475 Q103.881 800.202 100.802 804.808 Q97.7468 809.392 91.9366 809.392 Q86.1265 809.392 83.0478 804.808 Q79.9923 800.202 79.9923 791.475 Q79.9923 782.725 83.0478 778.142 Q86.1265 773.536 91.9366 773.536 Z" fill="#000000" fill-rule="evenodd" fill-opacity="1" /><path clip-path="url(#clip420)" d="M103.881 767.637 L127.993 767.637 L127.993 770.834 L103.881 770.834 L103.881 767.637 Z" fill="#000000" fill-rule="evenodd" fill-opacity="1" /><path clip-path="url(#clip420)" d="M147.703 766.17 Q150.43 766.753 151.954 768.596 Q153.496 770.439 153.496 773.148 Q153.496 777.304 150.637 779.58 Q147.778 781.856 142.512 781.856 Q140.744 781.856 138.863 781.498 Q137.002 781.16 135.008 780.464 L135.008 776.796 Q136.588 777.718 138.469 778.188 Q140.349 778.658 142.399 778.658 Q145.973 778.658 147.835 777.248 Q149.716 775.837 149.716 773.148 Q149.716 770.665 147.966 769.273 Q146.236 767.863 143.133 767.863 L139.86 767.863 L139.86 764.74 L143.283 764.74 Q146.086 764.74 147.571 763.631 Q149.057 762.502 149.057 760.396 Q149.057 758.233 147.515 757.086 Q145.992 755.92 143.133 755.92 Q141.572 755.92 139.785 756.258 Q137.998 756.597 135.854 757.311 L135.854 753.926 Q138.017 753.324 139.898 753.023 Q141.797 752.722 143.471 752.722 Q147.797 752.722 150.317 754.697 Q152.838 756.653 152.838 760.001 Q152.838 762.333 151.502 763.951 Q150.167 765.549 147.703 766.17 Z" fill="#000000" fill-rule="evenodd" fill-opacity="1" /><path clip-path="url(#clip420)" d="M53.3561 589.998 L60.995 589.998 L60.995 563.632 L52.6848 565.299 L52.6848 561.04 L60.9487 559.373 L65.6246 559.373 L65.6246 589.998 L73.2634 589.998 L73.2634 593.933 L53.3561 593.933 L53.3561 589.998 Z" fill="#000000" fill-rule="evenodd" fill-opacity="1" /><path clip-path="url(#clip420)" d="M92.7078 562.452 Q89.0967 562.452 87.268 566.016 Q85.4624 569.558 85.4624 576.688 Q85.4624 583.794 87.268 587.359 Q89.0967 590.901 92.7078 590.901 Q96.342 590.901 98.1475 587.359 Q99.9762 583.794 99.9762 576.688 Q99.9762 569.558 98.1475 566.016 Q96.342 562.452 92.7078 562.452 M92.7078 558.748 Q98.5179 558.748 101.573 563.354 Q104.652 567.938 104.652 576.688 Q104.652 585.414 101.573 590.021 Q98.5179 594.604 92.7078 594.604 Q86.8976 594.604 83.8189 590.021 Q80.7634 585.414 80.7634 576.688 Q80.7634 567.938 83.8189 563.354 Q86.8976 558.748 92.7078 558.748 Z" fill="#000000" fill-rule="evenodd" fill-opacity="1" /><path clip-path="url(#clip420)" d="M104.652 552.849 L128.764 552.849 L128.764 556.047 L104.652 556.047 L104.652 552.849 Z" fill="#000000" fill-rule="evenodd" fill-opacity="1" /><path clip-path="url(#clip420)" d="M140.236 563.325 L153.496 563.325 L153.496 566.523 L135.666 566.523 L135.666 563.325 Q137.829 561.087 141.553 557.326 Q145.296 553.545 146.255 552.454 Q148.079 550.404 148.794 548.994 Q149.527 547.564 149.527 546.191 Q149.527 543.953 147.948 542.543 Q146.387 541.132 143.866 541.132 Q142.08 541.132 140.086 541.753 Q138.111 542.373 135.854 543.634 L135.854 539.797 Q138.149 538.875 140.142 538.405 Q142.136 537.935 143.791 537.935 Q148.155 537.935 150.75 540.116 Q153.345 542.298 153.345 545.947 Q153.345 547.677 152.687 549.238 Q152.048 550.78 150.336 552.887 Q149.866 553.432 147.346 556.047 Q144.826 558.642 140.236 563.325 Z" fill="#000000" fill-rule="evenodd" fill-opacity="1" /><path clip-path="url(#clip420)" d="M53.0552 375.21 L60.694 375.21 L60.694 348.845 L52.3839 350.511 L52.3839 346.252 L60.6477 344.585 L65.3236 344.585 L65.3236 375.21 L72.9625 375.21 L72.9625 379.145 L53.0552 379.145 L53.0552 375.21 Z" fill="#000000" fill-rule="evenodd" fill-opacity="1" /><path clip-path="url(#clip420)" d="M92.4068 347.664 Q88.7957 347.664 86.967 351.229 Q85.1615 354.771 85.1615 361.9 Q85.1615 369.007 86.967 372.571 Q88.7957 376.113 92.4068 376.113 Q96.0411 376.113 97.8466 372.571 Q99.6753 369.007 99.6753 361.9 Q99.6753 354.771 97.8466 351.229 Q96.0411 347.664 92.4068 347.664 M92.4068 343.96 Q98.217 343.96 101.273 348.567 Q104.351 353.15 104.351 361.9 Q104.351 370.627 101.273 375.233 Q98.217 379.817 92.4068 379.817 Q86.5967 379.817 83.518 375.233 Q80.4625 370.627 80.4625 361.9 Q80.4625 353.15 83.518 348.567 Q86.5967 343.96 92.4068 343.96 Z" fill="#000000" fill-rule="evenodd" fill-opacity="1" /><path clip-path="url(#clip420)" d="M104.351 338.062 L128.463 338.062 L128.463 341.259 L104.351 341.259 L104.351 338.062 Z" fill="#000000" fill-rule="evenodd" fill-opacity="1" /><path clip-path="url(#clip420)" d="M137.321 348.538 L143.528 348.538 L143.528 327.116 L136.776 328.47 L136.776 325.009 L143.49 323.655 L147.289 323.655 L147.289 348.538 L153.496 348.538 L153.496 351.735 L137.321 351.735 L137.321 348.538 Z" fill="#000000" fill-rule="evenodd" fill-opacity="1" /><path clip-path="url(#clip420)" d="M82.7903 160.423 L90.4291 160.423 L90.4291 134.057 L82.119 135.724 L82.119 131.465 L90.3828 129.798 L95.0587 129.798 L95.0587 160.423 L102.698 160.423 L102.698 164.358 L82.7903 164.358 L82.7903 160.423 Z" fill="#000000" fill-rule="evenodd" fill-opacity="1" /><path clip-path="url(#clip420)" d="M122.142 132.877 Q118.531 132.877 116.702 136.441 Q114.897 139.983 114.897 147.113 Q114.897 154.219 116.702 157.784 Q118.531 161.325 122.142 161.325 Q125.776 161.325 127.582 157.784 Q129.41 154.219 129.41 147.113 Q129.41 139.983 127.582 136.441 Q125.776 132.877 122.142 132.877 M122.142 129.173 Q127.952 129.173 131.008 133.779 Q134.086 138.363 134.086 147.113 Q134.086 155.839 131.008 160.446 Q127.952 165.029 122.142 165.029 Q116.332 165.029 113.253 160.446 Q110.198 155.839 110.198 147.113 Q110.198 138.363 113.253 133.779 Q116.332 129.173 122.142 129.173 Z" fill="#000000" fill-rule="evenodd" fill-opacity="1" /><path clip-path="url(#clip420)" d="M143.791 111.369 Q140.857 111.369 139.371 114.265 Q137.904 117.143 137.904 122.936 Q137.904 128.71 139.371 131.606 Q140.857 134.484 143.791 134.484 Q146.744 134.484 148.211 131.606 Q149.697 128.71 149.697 122.936 Q149.697 117.143 148.211 114.265 Q146.744 111.369 143.791 111.369 M143.791 108.36 Q148.512 108.36 150.994 112.102 Q153.496 115.826 153.496 122.936 Q153.496 130.026 150.994 133.769 Q148.512 137.493 143.791 137.493 Q139.07 137.493 136.569 133.769 Q134.086 130.026 134.086 122.936 Q134.086 115.826 136.569 112.102 Q139.07 108.36 143.791 108.36 Z" fill="#000000" fill-rule="evenodd" fill-opacity="1" /><polyline clip-path="url(#clip423)" style="stroke:#009af9; stroke-linecap:butt; stroke-linejoin:round; stroke-width:4; stroke-opacity:1; fill:none" points="
  250.72,87.6286 542.265,91.4833 833.809,97.0221 1125.35,156.74 1416.9,377.474 1708.44,784.999 1999.99,944.386 2291.53,1073.85 
  "/>
<circle clip-path="url(#clip423)" cx="250.72" cy="87.6286" r="14" fill="#009af9" fill-rule="evenodd" fill-opacity="1" stroke="#000000" stroke-opacity="1" stroke-width="3.2"/>
<circle clip-path="url(#clip423)" cx="542.265" cy="91.4833" r="14" fill="#009af9" fill-rule="evenodd" fill-opacity="1" stroke="#000000" stroke-opacity="1" stroke-width="3.2"/>
<circle clip-path="url(#clip423)" cx="833.809" cy="97.0221" r="14" fill="#009af9" fill-rule="evenodd" fill-opacity="1" stroke="#000000" stroke-opacity="1" stroke-width="3.2"/>
<circle clip-path="url(#clip423)" cx="1125.35" cy="156.74" r="14" fill="#009af9" fill-rule="evenodd" fill-opacity="1" stroke="#000000" stroke-opacity="1" stroke-width="3.2"/>
<circle clip-path="url(#clip423)" cx="1416.9" cy="377.474" r="14" fill="#009af9" fill-rule="evenodd" fill-opacity="1" stroke="#000000" stroke-opacity="1" stroke-width="3.2"/>
<circle clip-path="url(#clip423)" cx="1708.44" cy="784.999" r="14" fill="#009af9" fill-rule="evenodd" fill-opacity="1" stroke="#000000" stroke-opacity="1" stroke-width="3.2"/>
<circle clip-path="url(#clip423)" cx="1999.99" cy="944.386" r="14" fill="#009af9" fill-rule="evenodd" fill-opacity="1" stroke="#000000" stroke-opacity="1" stroke-width="3.2"/>
<circle clip-path="url(#clip423)" cx="2291.53" cy="1073.85" r="14" fill="#009af9" fill-rule="evenodd" fill-opacity="1" stroke="#000000" stroke-opacity="1" stroke-width="3.2"/>
<polyline clip-path="url(#clip423)" style="stroke:#e26f46; stroke-linecap:butt; stroke-linejoin:round; stroke-width:4; stroke-opacity:1; fill:none" points="
  250.72,528.575 266.714,535.669 282.122,542.504 296.986,549.096 311.342,555.464 325.224,561.622 338.663,567.582 351.686,573.359 364.317,578.961 388.496,589.686 
  411.36,599.827 433.045,609.446 453.667,618.593 473.325,627.312 492.105,635.642 510.082,643.615 527.322,651.262 543.883,658.608 559.817,665.676 575.169,672.485 
  589.981,679.055 622.345,693.41 652.397,706.739 680.443,719.18 706.736,730.842 754.852,752.184 798.024,771.333 872.989,804.584 936.593,832.795 1040.65,878.949 
  1124,915.919 1253.18,973.22 1351.88,1016.99 1446.19,1058.83 1523.19,1092.98 1578.83,1117.66 1627.96,1139.45 1718.27,1179.51 1787.23,1210.09 1850.42,1238.12 
  1913.43,1266.07 1962.47,1287.82 2001.21,1305.01 2039.75,1322.1 2075.25,1337.85 2111.3,1353.84 2142.95,1367.88 2173.51,1381.43 2197.62,1392.13 2225.3,1404.4 
  2249.76,1415.25 2286.19,1431.41 2291.53,1433.78 
  "/>
<path clip-path="url(#clip420)" d="
M1943.53 250.328 L2280.65 250.328 L2280.65 94.8081 L1943.53 94.8081  Z
  " fill="#ffffff" fill-rule="evenodd" fill-opacity="1"/>
<polyline clip-path="url(#clip420)" style="stroke:#000000; stroke-linecap:butt; stroke-linejoin:round; stroke-width:4; stroke-opacity:1; fill:none" points="
  1943.53,250.328 2280.65,250.328 2280.65,94.8081 1943.53,94.8081 1943.53,250.328 
  "/>
<polyline clip-path="url(#clip420)" style="stroke:#009af9; stroke-linecap:butt; stroke-linejoin:round; stroke-width:4; stroke-opacity:1; fill:none" points="
  1967.57,146.648 2111.79,146.648 
  "/>
<circle clip-path="url(#clip420)" cx="2039.68" cy="146.648" r="23" fill="#009af9" fill-rule="evenodd" fill-opacity="1" stroke="#000000" stroke-opacity="1" stroke-width="5.12"/>
<path clip-path="url(#clip420)" d="M2149.66 166.336 Q2147.86 170.965 2146.15 172.377 Q2144.43 173.789 2141.56 173.789 L2138.16 173.789 L2138.16 170.224 L2140.66 170.224 Q2142.42 170.224 2143.39 169.391 Q2144.36 168.558 2145.54 165.456 L2146.31 163.511 L2135.82 138.002 L2140.34 138.002 L2148.44 158.28 L2156.54 138.002 L2161.05 138.002 L2149.66 166.336 Z" fill="#000000" fill-rule="evenodd" fill-opacity="1" /><path clip-path="url(#clip420)" d="M2168.35 159.993 L2175.98 159.993 L2175.98 133.627 L2167.67 135.294 L2167.67 131.035 L2175.94 129.368 L2180.61 129.368 L2180.61 159.993 L2188.25 159.993 L2188.25 163.928 L2168.35 163.928 L2168.35 159.993 Z" fill="#000000" fill-rule="evenodd" fill-opacity="1" /><polyline clip-path="url(#clip420)" style="stroke:#e26f46; stroke-linecap:butt; stroke-linejoin:round; stroke-width:4; stroke-opacity:1; fill:none" points="
  1967.57,198.488 2111.79,198.488 
  "/>
<path clip-path="url(#clip420)" d="M2135.82 183.461 L2135.82 181.962 Q2141.58 181.962 2144.56 178.893 Q2145.38 178.893 2145.52 179.081 Q2145.66 179.268 2145.66 180.135 L2145.66 207.047 Q2145.66 208.476 2146.36 208.921 Q2147.07 209.366 2150.13 209.366 L2151.66 209.366 L2151.66 210.842 Q2149.97 210.701 2143.88 210.701 Q2137.79 210.701 2136.13 210.842 L2136.13 209.366 L2137.65 209.366 Q2140.67 209.366 2141.4 208.944 Q2142.12 208.499 2142.12 207.047 L2142.12 182.196 Q2139.62 183.461 2135.82 183.461 Z" fill="#000000" fill-rule="evenodd" fill-opacity="1" /><path clip-path="url(#clip420)" d="M2159.57 222.155 Q2159.57 221.92 2159.76 221.405 L2176.69 176.153 Q2176.69 176.106 2176.81 175.848 Q2176.93 175.591 2177 175.427 Q2177.07 175.24 2177.21 175.099 Q2177.37 174.958 2177.56 174.958 Q2178.03 174.958 2178.03 175.544 Q2178.03 175.591 2177.89 176.153 L2160.91 221.452 Q2160.63 222.272 2160.44 222.506 Q2160.27 222.74 2159.99 222.74 Q2159.57 222.74 2159.57 222.155 Z" fill="#000000" fill-rule="evenodd" fill-opacity="1" /><path clip-path="url(#clip420)" d="M2209.32 203.979 Q2209.32 204.166 2209.11 204.892 Q2208.9 205.618 2208.38 206.743 Q2207.89 207.867 2207.21 208.898 Q2206.53 209.905 2205.41 210.654 Q2204.31 211.38 2203.04 211.38 Q2201.36 211.38 2200.23 210.256 Q2199.11 209.132 2199.11 207.445 Q2199.11 206.508 2199.6 205.22 Q2202.72 196.905 2202.72 194.048 Q2202.72 190.698 2200.12 190.698 Q2198.83 190.698 2197.61 191.19 Q2196.42 191.659 2195.6 192.314 Q2194.78 192.97 2194.03 193.884 Q2193.3 194.774 2192.93 195.383 Q2192.57 195.968 2192.29 196.554 L2191.68 198.943 Q2191.54 199.599 2190.86 202.152 L2189.81 206.485 Q2189.06 209.717 2188.9 210.022 Q2188.66 210.678 2188.15 211.029 Q2187.63 211.38 2187.12 211.38 Q2186.53 211.38 2186.13 211.029 Q2185.73 210.678 2185.73 210.069 Q2185.73 209.975 2185.81 209.624 Q2185.88 209.272 2185.99 208.78 Q2186.11 208.289 2186.16 208.008 L2188.94 196.929 Q2189.46 194.914 2189.58 194.282 Q2189.72 193.626 2189.72 192.9 Q2189.72 190.698 2188.22 190.698 Q2187 190.698 2186.2 192.151 Q2185.41 193.603 2184.73 196.413 Q2184.52 197.186 2184.38 197.35 Q2184.26 197.514 2183.91 197.514 Q2183.32 197.491 2183.32 197.022 Q2183.32 196.905 2183.51 196.132 Q2183.7 195.359 2184.05 194.259 Q2184.42 193.134 2184.77 192.385 Q2185.08 191.823 2185.24 191.565 Q2185.43 191.284 2185.88 190.745 Q2186.34 190.183 2186.95 189.925 Q2187.59 189.644 2188.36 189.644 Q2190.09 189.644 2191.36 190.769 Q2192.62 191.869 2192.78 193.814 Q2195.9 189.644 2200.26 189.644 Q2202.83 189.644 2204.31 191.003 Q2205.78 192.361 2205.78 194.774 Q2205.78 195.336 2205.67 196.062 Q2205.57 196.765 2205.34 197.655 Q2205.13 198.545 2204.94 199.224 Q2204.75 199.903 2204.38 201.004 Q2204 202.082 2203.84 202.55 Q2203.68 203.019 2203.28 204.119 Q2202.9 205.197 2202.86 205.314 Q2201.99 207.492 2201.99 208.734 Q2201.99 209.553 2202.25 209.928 Q2202.53 210.303 2203.14 210.303 Q2204.78 210.303 2206 208.687 Q2207.24 207.047 2208.03 204.377 Q2208.22 203.791 2208.31 203.651 Q2208.43 203.51 2208.76 203.51 Q2209.32 203.51 2209.32 203.979 Z" fill="#000000" fill-rule="evenodd" fill-opacity="1" /><path clip-path="url(#clip420)" d="M2214.18 196.502 Q2214.18 195.895 2214.23 195.715 Q2214.29 195.534 2214.55 195.256 L2221 188.074 Q2224.52 184.107 2224.52 180.647 Q2224.52 178.401 2223.34 176.794 Q2222.18 175.187 2220.03 175.187 Q2218.55 175.187 2217.31 176.089 Q2216.06 176.991 2215.49 178.598 Q2215.59 178.565 2215.93 178.565 Q2216.77 178.565 2217.23 179.09 Q2217.7 179.614 2217.7 180.319 Q2217.7 181.221 2217.11 181.664 Q2216.54 182.09 2215.96 182.09 Q2215.73 182.09 2215.42 182.041 Q2215.13 181.992 2214.65 181.533 Q2214.18 181.057 2214.18 180.221 Q2214.18 177.876 2215.95 176.007 Q2217.73 174.138 2220.46 174.138 Q2223.54 174.138 2225.56 175.974 Q2227.59 177.794 2227.59 180.647 Q2227.59 181.647 2227.28 182.565 Q2226.98 183.467 2226.57 184.172 Q2226.18 184.877 2225.1 186.009 Q2224.01 187.14 2223.15 187.943 Q2222.28 188.747 2220.33 190.452 L2216.77 193.911 L2222.82 193.911 Q2225.77 193.911 2226 193.649 Q2226.33 193.173 2226.74 190.665 L2227.59 190.665 L2226.64 196.502 L2214.18 196.502 Z" fill="#000000" fill-rule="evenodd" fill-opacity="1" /></svg>
