<?xml version="1.0" encoding="utf-8"?>
<svg xmlns="http://www.w3.org/2000/svg" xmlns:xlink="http://www.w3.org/1999/xlink" width="600" height="400" viewBox="0 0 2400 1600">
<defs>
  <clipPath id="clip780">
    <rect x="0" y="0" width="2400" height="1600"/>
  </clipPath>
</defs>
<path clip-path="url(#clip780)" d="
M0 1600 L2400 1600 L2400 0 L0 0  Z
  " fill="#ffffff" fill-rule="evenodd" fill-opacity="1"/>
<defs>
  <clipPath id="clip781">
    <rect x="480" y="0" width="1681" height="1600"/>
  </clipPath>
</defs>
<path clip-path="url(#clip780)" d="
M178.867 1486.45 L2352.76 1486.45 L2352.76 47.2441 L178.867 47.2441  Z
  " fill="#ffffff" fill-rule="evenodd" fill-opacity="1"/>
<defs>
  <clipPath id="clip782">
    <rect x="178" y="47" width="2175" height="1440"/>
  </clipPath>
</defs>
<polyline clip-path="url(#clip782)" style="stroke:#000000; stroke-linecap:butt; stroke-linejoin:round; stroke-width:2; stroke-opacity:0.1; fill:none" points="
  178.867,1486.45 178.867,47.2441 
  "/>
<polyline clip-path="url(#clip782)" style="stroke:#000000; stroke-linecap:butt; stroke-linejoin:round; stroke-width:2; stroke-opacity:0.1; fill:none" points="
  722.339,1486.45 722.339,47.2441 
  "/>
<polyline clip-path="url(#clip782)" style="stroke:#000000; stroke-linecap:butt; stroke-linejoin:round; stroke-width:2; stroke-opacity:0.1; fill:none" points="
  1265.81,1486.45 1265.81,47.2441 
  "/>
<polyline clip-path="url(#clip782)" style="stroke:#000000; stroke-linecap:butt; stroke-linejoin:round; stroke-width:2; stroke-opacity:0.1; fill:none" points="
  1809.28,1486.45 1809.28,47.2441 
  "/>
<polyline clip-path="url(#clip782)" style="stroke:#000000; stroke-linecap:butt; stroke-linejoin:round; stroke-width:2; stroke-opacity:0.1; fill:none" points="
  2352.76,1486.45 2352.76,47.2441 
  "/>
<polyline clip-path="url(#clip780)" style="stroke:#000000; stroke-linecap:butt; stroke-linejoin:round; stroke-width:4; stroke-opacity:1; fill:none" points="
  178.867,1486.45 2352.76,1486.45 
  "/>
<polyline clip-path="url(#clip780)" style="stroke:#000000; stroke-linecap:butt; stroke-linejoin:round; stroke-width:4; stroke-opacity:1; fill:none" points="
  178.867,1486.45 178.867,1467.55 
  "/>
<polyline clip-path="url(#clip780)" style="stroke:#000000; stroke-linecap:butt; stroke-linejoin:round; stroke-width:4; stroke-opacity:1; fill:none" points="
  722.339,1486.45 722.339,1467.55 
  "/>
<polyline clip-path="url(#clip780)" style="stroke:#000000; stroke-linecap:butt; stroke-linejoin:round; stroke-width:4; stroke-opacity:1; fill:none" points="
  1265.81,1486.45 1265.81,1467.55 
  "/>
<polyline clip-path="url(#clip780)" style="stroke:#000000; stroke-linecap:butt; stroke-linejoin:round; stroke-width:4; stroke-opacity:1; fill:none" points="
  1809.28,1486.45 1809.28,1467.55 
  "/>
<polyline clip-path="url(#clip780)" style="stroke:#000000; stroke-linecap:butt; stroke-linejoin:round; stroke-width:4; stroke-opacity:1; fill:none" points="
  2352.76,1486.45 2352.76,1467.55 
  "/>
<path clip-path="url(#clip780)" d="M125.395 1532.02 L155.07 1532.02 L155.07 1535.95 L125.395 1535.95 L125.395 1532.02 Z" fill="#000000" fill-rule="evenodd" fill-opacity="1" /><path clip-path="url(#clip780)" d="M165.973 1544.91 L173.612 1544.91 L173.612 1518.55 L165.302 1520.21 L165.302 1515.95 L173.566 1514.29 L178.242 1514.29 L178.242 1544.91 L185.88 1544.91 L185.88 1548.85 L165.973 1548.85 L165.973 1544.91 Z" fill="#000000" fill-rule="evenodd" fill-opacity="1" /><path clip-path="url(#clip780)" d="M195.325 1542.97 L200.209 1542.97 L200.209 1548.85 L195.325 1548.85 L195.325 1542.97 Z" fill="#000000" fill-rule="evenodd" fill-opacity="1" /><path clip-path="url(#clip780)" d="M220.394 1517.37 Q216.783 1517.37 214.954 1520.93 Q213.149 1524.47 213.149 1531.6 Q213.149 1538.71 214.954 1542.27 Q216.783 1545.82 220.394 1545.82 Q224.028 1545.82 225.834 1542.27 Q227.663 1538.71 227.663 1531.6 Q227.663 1524.47 225.834 1520.93 Q224.028 1517.37 220.394 1517.37 M220.394 1513.66 Q226.204 1513.66 229.26 1518.27 Q232.339 1522.85 232.339 1531.6 Q232.339 1540.33 229.26 1544.94 Q226.204 1549.52 220.394 1549.52 Q214.584 1549.52 211.505 1544.94 Q208.45 1540.33 208.45 1531.6 Q208.45 1522.85 211.505 1518.27 Q214.584 1513.66 220.394 1513.66 Z" fill="#000000" fill-rule="evenodd" fill-opacity="1" /><path clip-path="url(#clip780)" d="M669.365 1532.02 L699.04 1532.02 L699.04 1535.95 L669.365 1535.95 L669.365 1532.02 Z" fill="#000000" fill-rule="evenodd" fill-opacity="1" /><path clip-path="url(#clip780)" d="M719.133 1517.37 Q715.522 1517.37 713.693 1520.93 Q711.888 1524.47 711.888 1531.6 Q711.888 1538.71 713.693 1542.27 Q715.522 1545.82 719.133 1545.82 Q722.767 1545.82 724.573 1542.27 Q726.401 1538.71 726.401 1531.6 Q726.401 1524.47 724.573 1520.93 Q722.767 1517.37 719.133 1517.37 M719.133 1513.66 Q724.943 1513.66 727.999 1518.27 Q731.077 1522.85 731.077 1531.6 Q731.077 1540.33 727.999 1544.94 Q724.943 1549.52 719.133 1549.52 Q713.323 1549.52 710.244 1544.94 Q707.189 1540.33 707.189 1531.6 Q707.189 1522.85 710.244 1518.27 Q713.323 1513.66 719.133 1513.66 Z" fill="#000000" fill-rule="evenodd" fill-opacity="1" /><path clip-path="url(#clip780)" d="M739.295 1542.97 L744.179 1542.97 L744.179 1548.85 L739.295 1548.85 L739.295 1542.97 Z" fill="#000000" fill-rule="evenodd" fill-opacity="1" /><path clip-path="url(#clip780)" d="M754.411 1514.29 L772.767 1514.29 L772.767 1518.22 L758.693 1518.22 L758.693 1526.7 Q759.711 1526.35 760.73 1526.19 Q761.748 1526 762.767 1526 Q768.554 1526 771.934 1529.17 Q775.313 1532.34 775.313 1537.76 Q775.313 1543.34 771.841 1546.44 Q768.369 1549.52 762.049 1549.52 Q759.873 1549.52 757.605 1549.15 Q755.36 1548.78 752.952 1548.04 L752.952 1543.34 Q755.036 1544.47 757.258 1545.03 Q759.48 1545.58 761.957 1545.58 Q765.961 1545.58 768.299 1543.48 Q770.637 1541.37 770.637 1537.76 Q770.637 1534.15 768.299 1532.04 Q765.961 1529.94 761.957 1529.94 Q760.082 1529.94 758.207 1530.35 Q756.355 1530.77 754.411 1531.65 L754.411 1514.29 Z" fill="#000000" fill-rule="evenodd" fill-opacity="1" /><path clip-path="url(#clip780)" d="M1243.2 1517.37 Q1239.58 1517.37 1237.76 1520.93 Q1235.95 1524.47 1235.95 1531.6 Q1235.95 1538.71 1237.76 1542.27 Q1239.58 1545.82 1243.2 1545.82 Q1246.83 1545.82 1248.64 1542.27 Q1250.46 1538.71 1250.46 1531.6 Q1250.46 1524.47 1248.64 1520.93 Q1246.83 1517.37 1243.2 1517.37 M1243.2 1513.66 Q1249.01 1513.66 1252.06 1518.27 Q1255.14 1522.85 1255.14 1531.6 Q1255.14 1540.33 1252.06 1544.94 Q1249.01 1549.52 1243.2 1549.52 Q1237.39 1549.52 1234.31 1544.94 Q1231.25 1540.33 1231.25 1531.6 Q1231.25 1522.85 1234.31 1518.27 Q1237.39 1513.66 1243.2 1513.66 Z" fill="#000000" fill-rule="evenodd" fill-opacity="1" /><path clip-path="url(#clip780)" d="M1263.36 1542.97 L1268.24 1542.97 L1268.24 1548.85 L1263.36 1548.85 L1263.36 1542.97 Z" fill="#000000" fill-rule="evenodd" fill-opacity="1" /><path clip-path="url(#clip780)" d="M1288.43 1517.37 Q1284.82 1517.37 1282.99 1520.93 Q1281.18 1524.47 1281.18 1531.6 Q1281.18 1538.71 1282.99 1542.27 Q1284.82 1545.82 1288.43 1545.82 Q1292.06 1545.82 1293.87 1542.27 Q1295.7 1538.71 1295.7 1531.6 Q1295.7 1524.47 1293.87 1520.93 Q1292.06 1517.37 1288.43 1517.37 M1288.43 1513.66 Q1294.24 1513.66 1297.29 1518.27 Q1300.37 1522.85 1300.37 1531.6 Q1300.37 1540.33 1297.29 1544.94 Q1294.24 1549.52 1288.43 1549.52 Q1282.62 1549.52 1279.54 1544.94 Q1276.48 1540.33 1276.48 1531.6 Q1276.48 1522.85 1279.54 1518.27 Q1282.62 1513.66 1288.43 1513.66 Z" fill="#000000" fill-rule="evenodd" fill-opacity="1" /><path clip-path="url(#clip780)" d="M1787.17 1517.37 Q1783.55 1517.37 1781.73 1520.93 Q1779.92 1524.47 1779.92 1531.6 Q1779.92 1538.71 1781.73 1542.27 Q1783.55 1545.82 1787.17 1545.82 Q1790.8 1545.82 1792.61 1542.27 Q1794.43 1538.71 1794.43 1531.6 Q1794.43 1524.47 1792.61 1520.93 Q1790.8 1517.37 1787.17 1517.37 M1787.17 1513.66 Q1792.98 1513.66 1796.03 1518.27 Q1799.11 1522.85 1799.11 1531.6 Q1799.11 1540.33 1796.03 1544.94 Q1792.98 1549.52 1787.17 1549.52 Q1781.36 1549.52 1778.28 1544.94 Q1775.22 1540.33 1775.22 1531.6 Q1775.22 1522.85 1778.28 1518.27 Q1781.36 1513.66 1787.17 1513.66 Z" fill="#000000" fill-rule="evenodd" fill-opacity="1" /><path clip-path="url(#clip780)" d="M1807.33 1542.97 L1812.21 1542.97 L1812.21 1548.85 L1807.33 1548.85 L1807.33 1542.97 Z" fill="#000000" fill-rule="evenodd" fill-opacity="1" /><path clip-path="url(#clip780)" d="M1822.44 1514.29 L1840.8 1514.29 L1840.8 1518.22 L1826.73 1518.22 L1826.73 1526.7 Q1827.74 1526.35 1828.76 1526.19 Q1829.78 1526 1830.8 1526 Q1836.59 1526 1839.97 1529.17 Q1843.35 1532.34 1843.35 1537.76 Q1843.35 1543.34 1839.87 1546.44 Q1836.4 1549.52 1830.08 1549.52 Q1827.91 1549.52 1825.64 1549.15 Q1823.39 1548.78 1820.98 1548.04 L1820.98 1543.34 Q1823.07 1544.47 1825.29 1545.03 Q1827.51 1545.58 1829.99 1545.58 Q1833.99 1545.58 1836.33 1543.48 Q1838.67 1541.37 1838.67 1537.76 Q1838.67 1534.15 1836.33 1532.04 Q1833.99 1529.94 1829.99 1529.94 Q1828.11 1529.94 1826.24 1530.35 Q1824.39 1530.77 1822.44 1531.65 L1822.44 1514.29 Z" fill="#000000" fill-rule="evenodd" fill-opacity="1" /><path clip-path="url(#clip780)" d="M2319.91 1544.91 L2327.55 1544.91 L2327.55 1518.55 L2319.24 1520.21 L2319.24 1515.95 L2327.5 1514.29 L2332.18 1514.29 L2332.18 1544.91 L2339.82 1544.91 L2339.82 1548.85 L2319.91 1548.85 L2319.91 1544.91 Z" fill="#000000" fill-rule="evenodd" fill-opacity="1" /><path clip-path="url(#clip780)" d="M2349.26 1542.97 L2354.14 1542.97 L2354.14 1548.85 L2349.26 1548.85 L2349.26 1542.97 Z" fill="#000000" fill-rule="evenodd" fill-opacity="1" /><path clip-path="url(#clip780)" d="M2374.33 1517.37 Q2370.72 1517.37 2368.89 1520.93 Q2367.08 1524.47 2367.08 1531.6 Q2367.08 1538.71 2368.89 1542.27 Q2370.72 1545.82 2374.33 1545.82 Q2377.96 1545.82 2379.77 1542.27 Q2381.6 1538.71 2381.6 1531.6 Q2381.6 1524.47 2379.77 1520.93 Q2377.96 1517.37 2374.33 1517.37 M2374.33 1513.66 Q2380.14 1513.66 2383.2 1518.27 Q2386.27 1522.85 2386.27 1531.6 Q2386.27 1540.33 2383.2 1544.94 Q2380.14 1549.52 2374.33 1549.52 Q2368.52 1549.52 2365.44 1544.94 Q2362.39 1540.33 2362.39 1531.6 Q2362.39 1522.85 2365.44 1518.27 Q2368.52 1513.66 2374.33 1513.66 Z" fill="#000000" fill-rule="evenodd" fill-opacity="1" /><polyline clip-path="url(#clip782)" style="stroke:#000000; stroke-linecap:butt; stroke-linejoin:round; stroke-width:2; stroke-opacity:0.1; fill:none" points="
  178.867,1307.08 2352.76,1307.08 
  "/>
<polyline clip-path="url(#clip782)" style="stroke:#000000; stroke-linecap:butt; stroke-linejoin:round; stroke-width:2; stroke-opacity:0.1; fill:none" points="
  178.867,1036.95 2352.76,1036.95 
  "/>
<polyline clip-path="url(#clip782)" style="stroke:#000000; stroke-linecap:butt; stroke-linejoin:round; stroke-width:2; stroke-opacity:0.1; fill:none" points="
  178.867,766.824 2352.76,766.824 
  "/>
<polyline clip-path="url(#clip782)" style="stroke:#000000; stroke-linecap:butt; stroke-linejoin:round; stroke-width:2; stroke-opacity:0.1; fill:none" points="
  178.867,496.698 2352.76,496.698 
  "/>
<polyline clip-path="url(#clip782)" style="stroke:#000000; stroke-linecap:butt; stroke-linejoin:round; stroke-width:2; stroke-opacity:0.1; fill:none" points="
  178.867,226.572 2352.76,226.572 
  "/>
<polyline clip-path="url(#clip780)" style="stroke:#000000; stroke-linecap:butt; stroke-linejoin:round; stroke-width:4; stroke-opacity:1; fill:none" points="
  178.867,1486.45 178.867,47.2441 
  "/>
<polyline clip-path="url(#clip780)" style="stroke:#000000; stroke-linecap:butt; stroke-linejoin:round; stroke-width:4; stroke-opacity:1; fill:none" points="
  178.867,1307.08 197.764,1307.08 
  "/>
<polyline clip-path="url(#clip780)" style="stroke:#000000; stroke-linecap:butt; stroke-linejoin:round; stroke-width:4; stroke-opacity:1; fill:none" points="
  178.867,1036.95 197.764,1036.95 
  "/>
<polyline clip-path="url(#clip780)" style="stroke:#000000; stroke-linecap:butt; stroke-linejoin:round; stroke-width:4; stroke-opacity:1; fill:none" points="
  178.867,766.824 197.764,766.824 
  "/>
<polyline clip-path="url(#clip780)" style="stroke:#000000; stroke-linecap:butt; stroke-linejoin:round; stroke-width:4; stroke-opacity:1; fill:none" points="
  178.867,496.698 197.764,496.698 
  "/>
<polyline clip-path="url(#clip780)" style="stroke:#000000; stroke-linecap:butt; stroke-linejoin:round; stroke-width:4; stroke-opacity:1; fill:none" points="
  178.867,226.572 197.764,226.572 
  "/>
<path clip-path="url(#clip780)" d="M50.9921 1307.53 L80.6679 1307.53 L80.6679 1311.46 L50.9921 1311.46 L50.9921 1307.53 Z" fill="#000000" fill-rule="evenodd" fill-opacity="1" /><path clip-path="url(#clip780)" d="M91.5706 1320.42 L99.2095 1320.42 L99.2095 1294.06 L90.8993 1295.72 L90.8993 1291.46 L99.1632 1289.8 L103.839 1289.8 L103.839 1320.42 L111.478 1320.42 L111.478 1324.36 L91.5706 1324.36 L91.5706 1320.42 Z" fill="#000000" fill-rule="evenodd" fill-opacity="1" /><path clip-path="url(#clip780)" d="M130.922 1292.87 Q127.311 1292.87 125.482 1296.44 Q123.677 1299.98 123.677 1307.11 Q123.677 1314.22 125.482 1317.78 Q127.311 1321.32 130.922 1321.32 Q134.556 1321.32 136.362 1317.78 Q138.191 1314.22 138.191 1307.11 Q138.191 1299.98 136.362 1296.44 Q134.556 1292.87 130.922 1292.87 M130.922 1289.17 Q136.732 1289.17 139.788 1293.78 Q142.867 1298.36 142.867 1307.11 Q142.867 1315.84 139.788 1320.44 Q136.732 1325.03 130.922 1325.03 Q125.112 1325.03 122.033 1320.44 Q118.978 1315.84 118.978 1307.11 Q118.978 1298.36 122.033 1293.78 Q125.112 1289.17 130.922 1289.17 Z" fill="#000000" fill-rule="evenodd" fill-opacity="1" /><path clip-path="url(#clip780)" d="M82.1494 1037.4 L111.825 1037.4 L111.825 1041.34 L82.1494 1041.34 L82.1494 1037.4 Z" fill="#000000" fill-rule="evenodd" fill-opacity="1" /><path clip-path="url(#clip780)" d="M121.964 1019.67 L140.32 1019.67 L140.32 1023.61 L126.246 1023.61 L126.246 1032.08 Q127.265 1031.73 128.283 1031.57 Q129.302 1031.38 130.32 1031.38 Q136.107 1031.38 139.487 1034.55 Q142.867 1037.73 142.867 1043.14 Q142.867 1048.72 139.394 1051.82 Q135.922 1054.9 129.603 1054.9 Q127.427 1054.9 125.158 1054.53 Q122.913 1054.16 120.506 1053.42 L120.506 1048.72 Q122.589 1049.86 124.811 1050.41 Q127.033 1050.97 129.51 1050.97 Q133.515 1050.97 135.853 1048.86 Q138.191 1046.75 138.191 1043.14 Q138.191 1039.53 135.853 1037.42 Q133.515 1035.32 129.51 1035.32 Q127.635 1035.32 125.76 1035.73 Q123.908 1036.15 121.964 1037.03 L121.964 1019.67 Z" fill="#000000" fill-rule="evenodd" fill-opacity="1" /><path clip-path="url(#clip780)" d="M130.922 752.623 Q127.311 752.623 125.482 756.188 Q123.677 759.729 123.677 766.859 Q123.677 773.965 125.482 777.53 Q127.311 781.072 130.922 781.072 Q134.556 781.072 136.362 777.53 Q138.191 773.965 138.191 766.859 Q138.191 759.729 136.362 756.188 Q134.556 752.623 130.922 752.623 M130.922 748.919 Q136.732 748.919 139.788 753.526 Q142.867 758.109 142.867 766.859 Q142.867 775.586 139.788 780.192 Q136.732 784.775 130.922 784.775 Q125.112 784.775 122.033 780.192 Q118.978 775.586 118.978 766.859 Q118.978 758.109 122.033 753.526 Q125.112 748.919 130.922 748.919 Z" fill="#000000" fill-rule="evenodd" fill-opacity="1" /><path clip-path="url(#clip780)" d="M121.964 479.418 L140.32 479.418 L140.32 483.353 L126.246 483.353 L126.246 491.826 Q127.265 491.478 128.283 491.316 Q129.302 491.131 130.32 491.131 Q136.107 491.131 139.487 494.302 Q142.867 497.474 142.867 502.89 Q142.867 508.469 139.394 511.571 Q135.922 514.649 129.603 514.649 Q127.427 514.649 125.158 514.279 Q122.913 513.909 120.506 513.168 L120.506 508.469 Q122.589 509.603 124.811 510.159 Q127.033 510.714 129.51 510.714 Q133.515 510.714 135.853 508.608 Q138.191 506.501 138.191 502.89 Q138.191 499.279 135.853 497.173 Q133.515 495.066 129.51 495.066 Q127.635 495.066 125.76 495.483 Q123.908 495.9 121.964 496.779 L121.964 479.418 Z" fill="#000000" fill-rule="evenodd" fill-opacity="1" /><path clip-path="url(#clip780)" d="M91.5706 239.917 L99.2095 239.917 L99.2095 213.551 L90.8993 215.218 L90.8993 210.959 L99.1632 209.292 L103.839 209.292 L103.839 239.917 L111.478 239.917 L111.478 243.852 L91.5706 243.852 L91.5706 239.917 Z" fill="#000000" fill-rule="evenodd" fill-opacity="1" /><path clip-path="url(#clip780)" d="M130.922 212.371 Q127.311 212.371 125.482 215.936 Q123.677 219.477 123.677 226.607 Q123.677 233.713 125.482 237.278 Q127.311 240.82 130.922 240.82 Q134.556 240.82 136.362 237.278 Q138.191 233.713 138.191 226.607 Q138.191 219.477 136.362 215.936 Q134.556 212.371 130.922 212.371 M130.922 208.667 Q136.732 208.667 139.788 213.274 Q142.867 217.857 142.867 226.607 Q142.867 235.334 139.788 239.94 Q136.732 244.523 130.922 244.523 Q125.112 244.523 122.033 239.94 Q118.978 235.334 118.978 226.607 Q118.978 217.857 122.033 213.274 Q125.112 208.667 130.922 208.667 Z" fill="#000000" fill-rule="evenodd" fill-opacity="1" /><polyline clip-path="url(#clip782)" style="stroke:#009af9; stroke-linecap:butt; stroke-linejoin:round; stroke-width:4; stroke-opacity:1; fill:none" points="
  178.867,834.601 184.174,875.897 189.482,916.783 194.789,957.104 200.096,996.708 212.365,1084.7 224.634,1166.31 236.903,1239.9 249.172,1303.99 261.44,1357.28 
  273.709,1398.72 285.978,1427.46 298.247,1442.94 310.515,1444.83 322.784,1433.11 335.053,1408.01 347.322,1370.02 359.59,1319.92 371.859,1258.72 384.128,1187.63 
  396.397,1108.09 425.889,892.188 455.381,661.855 470.127,549.581 484.873,443.606 499.619,347.003 514.365,262.572 520.599,231.148 526.833,202.505 533.066,176.793 
  539.3,154.144 551.768,118.489 564.235,96.2809 576.703,87.9802 589.17,93.7591 601.638,113.498 614.106,146.786 627.649,197.49 641.192,262.123 654.735,339.105 
  668.279,426.55 695.365,624.075 722.452,835.483 747.423,1024.94 772.395,1193.03 784.881,1264.61 797.366,1325.84 809.852,1375.44 822.338,1412.39 835.724,1437.06 
  849.11,1445.72 862.496,1438.14 875.882,1414.53 889.268,1375.43 902.654,1321.78 916.04,1254.87 929.426,1176.29 944.935,1073.15 960.444,960.189 975.953,841.026 
  991.462,719.485 1006.97,599.461 1022.48,484.804 1037.99,379.189 1053.5,286.003 1060.39,249.383 1067.28,216.045 1074.17,186.202 1081.06,160.043 1094.85,119.414 
  1108.63,95.1888 1115.52,89.4357 1122.41,87.9801 1129.3,90.8312 1136.19,97.9709 1149.98,124.908 1163.76,168.109 1175.84,218.523 1187.93,279.624 1200.02,350.222 
  1212.1,428.94 1236.27,604.473 1260.45,792.603 1286.8,994.934 1313.16,1176.25 1326.33,1253.69 1339.51,1319.86 1352.69,1373.21 1365.86,1412.51 1379.12,1436.96 
  1392.37,1445.71 1405.63,1438.53 1418.88,1415.62 1432.14,1377.5 1445.4,1325.06 1458.65,1259.54 1471.91,1182.47 1486.56,1086 1501.22,980.395 1515.87,868.669 
  1530.53,754.026 1545.18,639.75 1559.84,529.113 1574.49,425.284 1589.15,331.236 1596.12,290.721 1603.09,253.297 1610.07,219.209 1617.04,188.676 1630.98,139.048 
  1644.93,105.701 1651.9,95.4199 1658.87,89.4989 1665.84,87.9763 1672.82,90.8621 1679.79,98.1375 1686.76,109.755 1693.73,125.64 1700.71,145.689 1715.2,200.115 
  1729.7,270.428 1744.2,354.656 1758.7,450.437 1787.7,665.674 1816.7,892.173 1828.9,984.764 1841.11,1073.02 1853.31,1155.2 1865.52,1229.65 1877.72,1294.9 
  1889.93,1349.66 1902.13,1392.83 1914.34,1423.55 1929.24,1443.33 1944.14,1443.08 1951.59,1435.42 1959.04,1422.81 1966.49,1405.33 1973.94,1383.12 1988.84,1325.18 
  2003.74,1250.72 2018.64,1161.93 2033.54,1061.44 2061.56,851.467 2089.57,632.692 2103.58,527.143 2117.59,427.866 2131.59,337.458 2145.6,258.286 2156.82,204.378 
  2168.04,159.92 2179.26,125.661 2190.48,102.176 2201.7,89.86 2212.92,88.9194 2224.14,99.3703 2235.36,121.037 2246.59,153.555 2257.81,196.379 2269.03,248.789 
  2280.25,309.903 2302.69,454.01 2325.13,619.055 2332.03,672.383 2338.94,726.313 2345.85,780.5 2352.76,834.601 
  "/>
<polyline clip-path="url(#clip782)" style="stroke:#e26f46; stroke-linecap:butt; stroke-linejoin:round; stroke-width:4; stroke-opacity:1; fill:none" points="
  450.603,1196.87 722.339,336.782 994.075,1196.87 1265.81,336.782 1537.55,1196.87 1809.28,336.782 2081.02,1196.87 2352.76,336.782 
  "/>
<circle clip-path="url(#clip782)" cx="450.603" cy="1196.87" r="14" fill="#e26f46" fill-rule="evenodd" fill-opacity="1" stroke="#000000" stroke-opacity="1" stroke-width="3.2"/>
<circle clip-path="url(#clip782)" cx="722.339" cy="336.782" r="14" fill="#e26f46" fill-rule="evenodd" fill-opacity="1" stroke="#000000" stroke-opacity="1" stroke-width="3.2"/>
<circle clip-path="url(#clip782)" cx="994.075" cy="1196.87" r="14" fill="#e26f46" fill-rule="evenodd" fill-opacity="1" stroke="#000000" stroke-opacity="1" stroke-width="3.2"/>
<circle clip-path="url(#clip782)" cx="1265.81" cy="336.782" r="14" fill="#e26f46" fill-rule="evenodd" fill-opacity="1" stroke="#000000" stroke-opacity="1" stroke-width="3.2"/>
<circle clip-path="url(#clip782)" cx="1537.55" cy="1196.87" r="14" fill="#e26f46" fill-rule="evenodd" fill-opacity="1" stroke="#000000" stroke-opacity="1" stroke-width="3.2"/>
<circle clip-path="url(#clip782)" cx="1809.28" cy="336.782" r="14" fill="#e26f46" fill-rule="evenodd" fill-opacity="1" stroke="#000000" stroke-opacity="1" stroke-width="3.2"/>
<circle clip-path="url(#clip782)" cx="2081.02" cy="1196.87" r="14" fill="#e26f46" fill-rule="evenodd" fill-opacity="1" stroke="#000000" stroke-opacity="1" stroke-width="3.2"/>
<circle clip-path="url(#clip782)" cx="2352.76" cy="336.782" r="14" fill="#e26f46" fill-rule="evenodd" fill-opacity="1" stroke="#000000" stroke-opacity="1" stroke-width="3.2"/>
<polyline clip-path="url(#clip782)" style="stroke:#3da44d; stroke-linecap:butt; stroke-linejoin:round; stroke-width:4; stroke-opacity:1; fill:none" points="
  178.867,1196.87 450.603,336.782 722.339,1196.87 994.075,336.782 1265.81,1196.87 1537.55,336.782 1809.28,1196.87 2081.02,336.782 
  "/>
<circle clip-path="url(#clip782)" cx="178.867" cy="1196.87" r="14" fill="#3da44d" fill-rule="evenodd" fill-opacity="1" stroke="#000000" stroke-opacity="1" stroke-width="3.2"/>
<circle clip-path="url(#clip782)" cx="450.603" cy="336.782" r="14" fill="#3da44d" fill-rule="evenodd" fill-opacity="1" stroke="#000000" stroke-opacity="1" stroke-width="3.2"/>
<circle clip-path="url(#clip782)" cx="722.339" cy="1196.87" r="14" fill="#3da44d" fill-rule="evenodd" fill-opacity="1" stroke="#000000" stroke-opacity="1" stroke-width="3.2"/>
<circle clip-path="url(#clip782)" cx="994.075" cy="336.782" r="14" fill="#3da44d" fill-rule="evenodd" fill-opacity="1" stroke="#000000" stroke-opacity="1" stroke-width="3.2"/>
<circle clip-path="url(#clip782)" cx="1265.81" cy="1196.87" r="14" fill="#3da44d" fill-rule="evenodd" fill-opacity="1" stroke="#000000" stroke-opacity="1" stroke-width="3.2"/>
<circle clip-path="url(#clip782)" cx="1537.55" cy="336.782" r="14" fill="#3da44d" fill-rule="evenodd" fill-opacity="1" stroke="#000000" stroke-opacity="1" stroke-width="3.2"/>
<circle clip-path="url(#clip782)" cx="1809.28" cy="1196.87" r="14" fill="#3da44d" fill-rule="evenodd" fill-opacity="1" stroke="#000000" stroke-opacity="1" stroke-width="3.2"/>
<circle clip-path="url(#clip782)" cx="2081.02" cy="336.782" r="14" fill="#3da44d" fill-rule="evenodd" fill-opacity="1" stroke="#000000" stroke-opacity="1" stroke-width="3.2"/>
<polyline clip-path="url(#clip782)" style="stroke:#c271d2; stroke-linecap:butt; stroke-linejoin:round; stroke-width:4; stroke-opacity:1; fill:none" points="
  450.603,766.824 722.339,766.824 994.075,766.824 1265.81,766.824 1537.55,766.824 1809.28,766.824 2081.02,766.824 
  "/>
<circle clip-path="url(#clip782)" cx="450.603" cy="766.824" r="14" fill="#c271d2" fill-rule="evenodd" fill-opacity="1" stroke="#000000" stroke-opacity="1" stroke-width="3.2"/>
<circle clip-path="url(#clip782)" cx="722.339" cy="766.824" r="14" fill="#c271d2" fill-rule="evenodd" fill-opacity="1" stroke="#000000" stroke-opacity="1" stroke-width="3.2"/>
<circle clip-path="url(#clip782)" cx="994.075" cy="766.824" r="14" fill="#c271d2" fill-rule="evenodd" fill-opacity="1" stroke="#000000" stroke-opacity="1" stroke-width="3.2"/>
<circle clip-path="url(#clip782)" cx="1265.81" cy="766.824" r="14" fill="#c271d2" fill-rule="evenodd" fill-opacity="1" stroke="#000000" stroke-opacity="1" stroke-width="3.2"/>
<circle clip-path="url(#clip782)" cx="1537.55" cy="766.824" r="14" fill="#c271d2" fill-rule="evenodd" fill-opacity="1" stroke="#000000" stroke-opacity="1" stroke-width="3.2"/>
<circle clip-path="url(#clip782)" cx="1809.28" cy="766.824" r="14" fill="#c271d2" fill-rule="evenodd" fill-opacity="1" stroke="#000000" stroke-opacity="1" stroke-width="3.2"/>
<circle clip-path="url(#clip782)" cx="2081.02" cy="766.824" r="14" fill="#c271d2" fill-rule="evenodd" fill-opacity="1" stroke="#000000" stroke-opacity="1" stroke-width="3.2"/>
<path clip-path="url(#clip780)" d="
M1911.44 354.418 L2280.29 354.418 L2280.29 95.2176 L1911.44 95.2176  Z
  " fill="#ffffff" fill-rule="evenodd" fill-opacity="1"/>
<polyline clip-path="url(#clip780)" style="stroke:#000000; stroke-linecap:butt; stroke-linejoin:round; stroke-width:4; stroke-opacity:1; fill:none" points="
  1911.44,354.418 2280.29,354.418 2280.29,95.2176 1911.44,95.2176 1911.44,354.418 
  "/>
<polyline clip-path="url(#clip780)" style="stroke:#009af9; stroke-linecap:butt; stroke-linejoin:round; stroke-width:4; stroke-opacity:1; fill:none" points="
  1935.59,147.058 2080.52,147.058 
  "/>
<path clip-path="url(#clip780)" d="M2118.51 166.745 Q2116.71 171.375 2114.99 172.787 Q2113.28 174.199 2110.41 174.199 L2107.01 174.199 L2107.01 170.634 L2109.51 170.634 Q2111.27 170.634 2112.24 169.8 Q2113.21 168.967 2114.39 165.865 L2115.16 163.921 L2104.67 138.412 L2109.18 138.412 L2117.29 158.689 L2125.39 138.412 L2129.9 138.412 L2118.51 166.745 Z" fill="#000000" fill-rule="evenodd" fill-opacity="1" /><path clip-path="url(#clip780)" d="M2137.19 160.402 L2144.83 160.402 L2144.83 134.037 L2136.52 135.703 L2136.52 131.444 L2144.79 129.778 L2149.46 129.778 L2149.46 160.402 L2157.1 160.402 L2157.1 164.338 L2137.19 164.338 L2137.19 160.402 Z" fill="#000000" fill-rule="evenodd" fill-opacity="1" /><polyline clip-path="url(#clip780)" style="stroke:#e26f46; stroke-linecap:butt; stroke-linejoin:round; stroke-width:4; stroke-opacity:1; fill:none" points="
  1935.59,198.898 2080.52,198.898 
  "/>
<circle clip-path="url(#clip780)" cx="2008.05" cy="198.898" r="23" fill="#e26f46" fill-rule="evenodd" fill-opacity="1" stroke="#000000" stroke-opacity="1" stroke-width="5.12"/>
<path clip-path="url(#clip780)" d="M2123.58 194.187 L2123.58 180.159 L2127.84 180.159 L2127.84 216.178 L2123.58 216.178 L2123.58 212.289 Q2122.24 214.603 2120.18 215.738 Q2118.14 216.849 2115.27 216.849 Q2110.57 216.849 2107.61 213.099 Q2104.67 209.349 2104.67 203.238 Q2104.67 197.127 2107.61 193.377 Q2110.57 189.627 2115.27 189.627 Q2118.14 189.627 2120.18 190.761 Q2122.24 191.872 2123.58 194.187 M2109.07 203.238 Q2109.07 207.937 2110.99 210.622 Q2112.93 213.284 2116.31 213.284 Q2119.69 213.284 2121.64 210.622 Q2123.58 207.937 2123.58 203.238 Q2123.58 198.539 2121.64 195.877 Q2119.69 193.192 2116.31 193.192 Q2112.93 193.192 2110.99 195.877 Q2109.07 198.539 2109.07 203.238 Z" fill="#000000" fill-rule="evenodd" fill-opacity="1" /><path clip-path="url(#clip780)" d="M2136.61 190.252 L2140.87 190.252 L2140.87 216.178 L2136.61 216.178 L2136.61 190.252 M2136.61 180.159 L2140.87 180.159 L2140.87 185.553 L2136.61 185.553 L2136.61 180.159 Z" fill="#000000" fill-rule="evenodd" fill-opacity="1" /><path clip-path="url(#clip780)" d="M2162.91 180.159 L2162.91 183.701 L2158.84 183.701 Q2156.54 183.701 2155.64 184.627 Q2154.76 185.553 2154.76 187.96 L2154.76 190.252 L2161.78 190.252 L2161.78 193.562 L2154.76 193.562 L2154.76 216.178 L2150.48 216.178 L2150.48 193.562 L2146.41 193.562 L2146.41 190.252 L2150.48 190.252 L2150.48 188.446 Q2150.48 184.118 2152.49 182.15 Q2154.51 180.159 2158.88 180.159 L2162.91 180.159 Z" fill="#000000" fill-rule="evenodd" fill-opacity="1" /><path clip-path="url(#clip780)" d="M2179.6 180.159 L2179.6 183.701 L2175.53 183.701 Q2173.23 183.701 2172.33 184.627 Q2171.45 185.553 2171.45 187.96 L2171.45 190.252 L2178.47 190.252 L2178.47 193.562 L2171.45 193.562 L2171.45 216.178 L2167.17 216.178 L2167.17 193.562 L2163.1 193.562 L2163.1 190.252 L2167.17 190.252 L2167.17 188.446 Q2167.17 184.118 2169.18 182.15 Q2171.2 180.159 2175.57 180.159 L2179.6 180.159 Z" fill="#000000" fill-rule="evenodd" fill-opacity="1" /><path clip-path="url(#clip780)" d="M2184.58 212.242 L2192.22 212.242 L2192.22 185.877 L2183.91 187.543 L2183.91 183.284 L2192.17 181.618 L2196.85 181.618 L2196.85 212.242 L2204.48 212.242 L2204.48 216.178 L2184.58 216.178 L2184.58 212.242 Z" fill="#000000" fill-rule="evenodd" fill-opacity="1" /><path clip-path="url(#clip780)" d="M2213.33 180.159 L2217.59 180.159 L2217.59 216.178 L2213.33 216.178 L2213.33 180.159 Z" fill="#000000" fill-rule="evenodd" fill-opacity="1" /><polyline clip-path="url(#clip780)" style="stroke:#3da44d; stroke-linecap:butt; stroke-linejoin:round; stroke-width:4; stroke-opacity:1; fill:none" points="
  1935.59,250.738 2080.52,250.738 
  "/>
<circle clip-path="url(#clip780)" cx="2008.05" cy="250.738" r="23" fill="#3da44d" fill-rule="evenodd" fill-opacity="1" stroke="#000000" stroke-opacity="1" stroke-width="5.12"/>
<path clip-path="url(#clip780)" d="M2123.58 246.027 L2123.58 231.999 L2127.84 231.999 L2127.84 268.018 L2123.58 268.018 L2123.58 264.129 Q2122.24 266.443 2120.18 267.578 Q2118.14 268.689 2115.27 268.689 Q2110.57 268.689 2107.61 264.939 Q2104.67 261.189 2104.67 255.078 Q2104.67 248.967 2107.61 245.217 Q2110.57 241.467 2115.27 241.467 Q2118.14 241.467 2120.18 242.601 Q2122.24 243.712 2123.58 246.027 M2109.07 255.078 Q2109.07 259.777 2110.99 262.462 Q2112.93 265.124 2116.31 265.124 Q2119.69 265.124 2121.64 262.462 Q2123.58 259.777 2123.58 255.078 Q2123.58 250.379 2121.64 247.717 Q2119.69 245.032 2116.31 245.032 Q2112.93 245.032 2110.99 247.717 Q2109.07 250.379 2109.07 255.078 Z" fill="#000000" fill-rule="evenodd" fill-opacity="1" /><path clip-path="url(#clip780)" d="M2136.61 242.092 L2140.87 242.092 L2140.87 268.018 L2136.61 268.018 L2136.61 242.092 M2136.61 231.999 L2140.87 231.999 L2140.87 237.393 L2136.61 237.393 L2136.61 231.999 Z" fill="#000000" fill-rule="evenodd" fill-opacity="1" /><path clip-path="url(#clip780)" d="M2162.91 231.999 L2162.91 235.541 L2158.84 235.541 Q2156.54 235.541 2155.64 236.467 Q2154.76 237.393 2154.76 239.8 L2154.76 242.092 L2161.78 242.092 L2161.78 245.402 L2154.76 245.402 L2154.76 268.018 L2150.48 268.018 L2150.48 245.402 L2146.41 245.402 L2146.41 242.092 L2150.48 242.092 L2150.48 240.286 Q2150.48 235.958 2152.49 233.99 Q2154.51 231.999 2158.88 231.999 L2162.91 231.999 Z" fill="#000000" fill-rule="evenodd" fill-opacity="1" /><path clip-path="url(#clip780)" d="M2179.6 231.999 L2179.6 235.541 L2175.53 235.541 Q2173.23 235.541 2172.33 236.467 Q2171.45 237.393 2171.45 239.8 L2171.45 242.092 L2178.47 242.092 L2178.47 245.402 L2171.45 245.402 L2171.45 268.018 L2167.17 268.018 L2167.17 245.402 L2163.1 245.402 L2163.1 242.092 L2167.17 242.092 L2167.17 240.286 Q2167.17 235.958 2169.18 233.99 Q2171.2 231.999 2175.57 231.999 L2179.6 231.999 Z" fill="#000000" fill-rule="evenodd" fill-opacity="1" /><path clip-path="url(#clip780)" d="M2184.58 264.082 L2192.22 264.082 L2192.22 237.717 L2183.91 239.383 L2183.91 235.124 L2192.17 233.458 L2196.85 233.458 L2196.85 264.082 L2204.48 264.082 L2204.48 268.018 L2184.58 268.018 L2184.58 264.082 Z" fill="#000000" fill-rule="evenodd" fill-opacity="1" /><path clip-path="url(#clip780)" d="M2228.35 246.073 Q2227.63 245.657 2226.78 245.471 Q2225.94 245.263 2224.92 245.263 Q2221.31 245.263 2219.37 247.624 Q2217.45 249.962 2217.45 254.36 L2217.45 268.018 L2213.16 268.018 L2213.16 242.092 L2217.45 242.092 L2217.45 246.12 Q2218.79 243.758 2220.94 242.624 Q2223.1 241.467 2226.17 241.467 Q2226.61 241.467 2227.15 241.536 Q2227.68 241.583 2228.33 241.698 L2228.35 246.073 Z" fill="#000000" fill-rule="evenodd" fill-opacity="1" /><polyline clip-path="url(#clip780)" style="stroke:#c271d2; stroke-linecap:butt; stroke-linejoin:round; stroke-width:4; stroke-opacity:1; fill:none" points="
  1935.59,302.578 2080.52,302.578 
  "/>
<circle clip-path="url(#clip780)" cx="2008.05" cy="302.578" r="23" fill="#c271d2" fill-rule="evenodd" fill-opacity="1" stroke="#000000" stroke-opacity="1" stroke-width="5.12"/>
<path clip-path="url(#clip780)" d="M2123.58 297.867 L2123.58 283.839 L2127.84 283.839 L2127.84 319.858 L2123.58 319.858 L2123.58 315.969 Q2122.24 318.283 2120.18 319.418 Q2118.14 320.529 2115.27 320.529 Q2110.57 320.529 2107.61 316.779 Q2104.67 313.029 2104.67 306.918 Q2104.67 300.807 2107.61 297.057 Q2110.57 293.307 2115.27 293.307 Q2118.14 293.307 2120.18 294.441 Q2122.24 295.552 2123.58 297.867 M2109.07 306.918 Q2109.07 311.617 2110.99 314.302 Q2112.93 316.964 2116.31 316.964 Q2119.69 316.964 2121.64 314.302 Q2123.58 311.617 2123.58 306.918 Q2123.58 302.219 2121.64 299.557 Q2119.69 296.872 2116.31 296.872 Q2112.93 296.872 2110.99 299.557 Q2109.07 302.219 2109.07 306.918 Z" fill="#000000" fill-rule="evenodd" fill-opacity="1" /><path clip-path="url(#clip780)" d="M2136.61 293.932 L2140.87 293.932 L2140.87 319.858 L2136.61 319.858 L2136.61 293.932 M2136.61 283.839 L2140.87 283.839 L2140.87 289.233 L2136.61 289.233 L2136.61 283.839 Z" fill="#000000" fill-rule="evenodd" fill-opacity="1" /><path clip-path="url(#clip780)" d="M2162.91 283.839 L2162.91 287.381 L2158.84 287.381 Q2156.54 287.381 2155.64 288.307 Q2154.76 289.233 2154.76 291.64 L2154.76 293.932 L2161.78 293.932 L2161.78 297.242 L2154.76 297.242 L2154.76 319.858 L2150.48 319.858 L2150.48 297.242 L2146.41 297.242 L2146.41 293.932 L2150.48 293.932 L2150.48 292.126 Q2150.48 287.798 2152.49 285.83 Q2154.51 283.839 2158.88 283.839 L2162.91 283.839 Z" fill="#000000" fill-rule="evenodd" fill-opacity="1" /><path clip-path="url(#clip780)" d="M2179.6 283.839 L2179.6 287.381 L2175.53 287.381 Q2173.23 287.381 2172.33 288.307 Q2171.45 289.233 2171.45 291.64 L2171.45 293.932 L2178.47 293.932 L2178.47 297.242 L2171.45 297.242 L2171.45 319.858 L2167.17 319.858 L2167.17 297.242 L2163.1 297.242 L2163.1 293.932 L2167.17 293.932 L2167.17 292.126 Q2167.17 287.798 2169.18 285.83 Q2171.2 283.839 2175.57 283.839 L2179.6 283.839 Z" fill="#000000" fill-rule="evenodd" fill-opacity="1" /><path clip-path="url(#clip780)" d="M2184.58 315.922 L2192.22 315.922 L2192.22 289.557 L2183.91 291.223 L2183.91 286.964 L2192.17 285.298 L2196.85 285.298 L2196.85 315.922 L2204.48 315.922 L2204.48 319.858 L2184.58 319.858 L2184.58 315.922 Z" fill="#000000" fill-rule="evenodd" fill-opacity="1" /><path clip-path="url(#clip780)" d="M2231.98 294.927 L2231.98 298.909 Q2230.18 297.913 2228.35 297.427 Q2226.54 296.918 2224.69 296.918 Q2220.55 296.918 2218.26 299.557 Q2215.97 302.172 2215.97 306.918 Q2215.97 311.663 2218.26 314.302 Q2220.55 316.918 2224.69 316.918 Q2226.54 316.918 2228.35 316.432 Q2230.18 315.922 2231.98 314.927 L2231.98 318.862 Q2230.2 319.696 2228.28 320.112 Q2226.38 320.529 2224.23 320.529 Q2218.37 320.529 2214.92 316.848 Q2211.48 313.168 2211.48 306.918 Q2211.48 300.575 2214.95 296.941 Q2218.44 293.307 2224.51 293.307 Q2226.48 293.307 2228.35 293.723 Q2230.23 294.117 2231.98 294.927 Z" fill="#000000" fill-rule="evenodd" fill-opacity="1" /></svg>
