<?xml version="1.0" encoding="utf-8"?>
<svg xmlns="http://www.w3.org/2000/svg" xmlns:xlink="http://www.w3.org/1999/xlink" width="600" height="400" viewBox="0 0 2400 1600">
<defs>
  <clipPath id="clip300">
    <rect x="0" y="0" width="2400" height="1600"/>
  </clipPath>
</defs>
<path clip-path="url(#clip300)" d="
M0 1600 L2400 1600 L2400 0 L0 0  Z
  " fill="#ffffff" fill-rule="evenodd" fill-opacity="1"/>
<defs>
  <clipPath id="clip301">
    <rect x="480" y="0" width="1681" height="1600"/>
  </clipPath>
</defs>
<path clip-path="url(#clip300)" d="
M276.876 1426.75 L2352.76 1426.75 L2352.76 47.2441 L276.876 47.2441  Z
  " fill="#ffffff" fill-rule="evenodd" fill-opacity="1"/>
<defs>
  <clipPath id="clip302">
    <rect x="276" y="47" width="2077" height="1381"/>
  </clipPath>
</defs>
<polyline clip-path="url(#clip302)" style="stroke:#000000; stroke-linecap:butt; stroke-linejoin:round; stroke-width:2; stroke-opacity:0.1; fill:none" points="
  577.067,1426.75 577.067,47.2441 
  "/>
<polyline clip-path="url(#clip302)" style="stroke:#000000; stroke-linecap:butt; stroke-linejoin:round; stroke-width:2; stroke-opacity:0.1; fill:none" points="
  1759.9,1426.75 1759.9,47.2441 
  "/>
<polyline clip-path="url(#clip300)" style="stroke:#000000; stroke-linecap:butt; stroke-linejoin:round; stroke-width:4; stroke-opacity:1; fill:none" points="
  276.876,1426.75 2352.76,1426.75 
  "/>
<polyline clip-path="url(#clip300)" style="stroke:#000000; stroke-linecap:butt; stroke-linejoin:round; stroke-width:4; stroke-opacity:1; fill:none" points="
  577.067,1426.75 577.067,1407.85 
  "/>
<polyline clip-path="url(#clip300)" style="stroke:#000000; stroke-linecap:butt; stroke-linejoin:round; stroke-width:4; stroke-opacity:1; fill:none" points="
  1759.9,1426.75 1759.9,1407.85 
  "/>
<path clip-path="url(#clip300)" d="M527.333 1505.02 L534.972 1505.02 L534.972 1478.66 L526.661 1480.32 L526.661 1476.06 L534.925 1474.4 L539.601 1474.4 L539.601 1505.02 L547.24 1505.02 L547.24 1508.96 L527.333 1508.96 L527.333 1505.02 Z" fill="#000000" fill-rule="evenodd" fill-opacity="1" /><path clip-path="url(#clip300)" d="M566.684 1477.48 Q563.073 1477.48 561.245 1481.04 Q559.439 1484.58 559.439 1491.71 Q559.439 1498.82 561.245 1502.38 Q563.073 1505.92 566.684 1505.92 Q570.319 1505.92 572.124 1502.38 Q573.953 1498.82 573.953 1491.71 Q573.953 1484.58 572.124 1481.04 Q570.319 1477.48 566.684 1477.48 M566.684 1473.77 Q572.495 1473.77 575.55 1478.38 Q578.629 1482.96 578.629 1491.71 Q578.629 1500.44 575.55 1505.05 Q572.495 1509.63 566.684 1509.63 Q560.874 1509.63 557.796 1505.05 Q554.74 1500.44 554.74 1491.71 Q554.74 1482.96 557.796 1478.38 Q560.874 1473.77 566.684 1473.77 Z" fill="#000000" fill-rule="evenodd" fill-opacity="1" /><path clip-path="url(#clip300)" d="M578.629 1467.87 L602.74 1467.87 L602.74 1471.07 L578.629 1471.07 L578.629 1467.87 Z" fill="#000000" fill-rule="evenodd" fill-opacity="1" /><path clip-path="url(#clip300)" d="M614.213 1478.35 L627.473 1478.35 L627.473 1481.55 L609.643 1481.55 L609.643 1478.35 Q611.806 1476.11 615.53 1472.35 Q619.272 1468.57 620.232 1467.48 Q622.056 1465.43 622.771 1464.02 Q623.504 1462.59 623.504 1461.22 Q623.504 1458.98 621.924 1457.57 Q620.363 1456.16 617.843 1456.16 Q616.056 1456.16 614.063 1456.78 Q612.088 1457.4 609.831 1458.66 L609.831 1454.82 Q612.125 1453.9 614.119 1453.43 Q616.113 1452.96 617.768 1452.96 Q622.131 1452.96 624.727 1455.14 Q627.322 1457.32 627.322 1460.97 Q627.322 1462.7 626.664 1464.26 Q626.024 1465.8 624.313 1467.91 Q623.843 1468.46 621.322 1471.07 Q618.802 1473.67 614.213 1478.35 Z" fill="#000000" fill-rule="evenodd" fill-opacity="1" /><path clip-path="url(#clip300)" d="M1724.88 1505.02 L1732.52 1505.02 L1732.52 1478.66 L1724.21 1480.32 L1724.21 1476.06 L1732.48 1474.4 L1737.15 1474.4 L1737.15 1505.02 L1744.79 1505.02 L1744.79 1508.96 L1724.88 1508.96 L1724.88 1505.02 Z" fill="#000000" fill-rule="evenodd" fill-opacity="1" /><path clip-path="url(#clip300)" d="M1764.24 1477.48 Q1760.62 1477.48 1758.8 1481.04 Q1756.99 1484.58 1756.99 1491.71 Q1756.99 1498.82 1758.8 1502.38 Q1760.62 1505.92 1764.24 1505.92 Q1767.87 1505.92 1769.68 1502.38 Q1771.5 1498.82 1771.5 1491.71 Q1771.5 1484.58 1769.68 1481.04 Q1767.87 1477.48 1764.24 1477.48 M1764.24 1473.77 Q1770.05 1473.77 1773.1 1478.38 Q1776.18 1482.96 1776.18 1491.71 Q1776.18 1500.44 1773.1 1505.05 Q1770.05 1509.63 1764.24 1509.63 Q1758.43 1509.63 1755.35 1505.05 Q1752.29 1500.44 1752.29 1491.71 Q1752.29 1482.96 1755.35 1478.38 Q1758.43 1473.77 1764.24 1473.77 Z" fill="#000000" fill-rule="evenodd" fill-opacity="1" /><path clip-path="url(#clip300)" d="M1785.89 1455.97 Q1782.95 1455.97 1781.47 1458.86 Q1780 1461.74 1780 1467.53 Q1780 1473.31 1781.47 1476.21 Q1782.95 1479.08 1785.89 1479.08 Q1788.84 1479.08 1790.31 1476.21 Q1791.79 1473.31 1791.79 1467.53 Q1791.79 1461.74 1790.31 1458.86 Q1788.84 1455.97 1785.89 1455.97 M1785.89 1452.96 Q1790.61 1452.96 1793.09 1456.7 Q1795.59 1460.43 1795.59 1467.53 Q1795.59 1474.63 1793.09 1478.37 Q1790.61 1482.09 1785.89 1482.09 Q1781.16 1482.09 1778.66 1478.37 Q1776.18 1474.63 1776.18 1467.53 Q1776.18 1460.43 1778.66 1456.7 Q1781.16 1452.96 1785.89 1452.96 Z" fill="#000000" fill-rule="evenodd" fill-opacity="1" /><path clip-path="url(#clip300)" d="M1276.36 1574.39 Q1276.36 1574.13 1277.23 1572.45 Q1278.1 1570.75 1281.16 1564.66 Q1284.22 1558.54 1287.38 1552.13 L1298.75 1529.27 Q1299.55 1527.82 1300.58 1527.82 Q1301.52 1527.82 1301.94 1528.4 Q1302.35 1528.98 1304.29 1532.87 Q1305.28 1534.77 1305.86 1536 L1324.51 1573.32 Q1324.83 1574.13 1324.87 1574.39 Q1324.87 1575.03 1323.74 1575.03 L1278.1 1575.03 Q1276.36 1575.03 1276.36 1574.39 M1280.71 1570.01 L1316.2 1570.01 L1298.46 1534.39 L1280.71 1570.01 Z" fill="#000000" fill-rule="evenodd" fill-opacity="1" /><path clip-path="url(#clip300)" d="M1349.95 1547.33 Q1349.95 1548.24 1349.53 1548.46 Q1349.11 1548.65 1347.96 1548.65 L1341.77 1548.65 L1336.88 1568.11 Q1336.49 1569.81 1336.49 1571.26 Q1336.49 1572.87 1336.97 1573.58 Q1337.49 1574.29 1338.55 1574.29 Q1340.64 1574.29 1342.9 1572.39 Q1345.19 1570.49 1347.12 1565.85 Q1347.38 1565.24 1347.5 1565.11 Q1347.67 1564.95 1348.08 1564.95 Q1348.89 1564.95 1348.89 1565.59 Q1348.89 1565.82 1348.44 1566.85 Q1348.02 1567.88 1347.09 1569.39 Q1346.18 1570.91 1344.99 1572.33 Q1343.83 1573.74 1342.06 1574.77 Q1340.29 1575.77 1338.39 1575.77 Q1335.72 1575.77 1334.01 1574.06 Q1332.34 1572.36 1332.34 1569.68 Q1332.34 1568.81 1333.01 1566.04 Q1333.69 1563.24 1337.36 1548.65 L1331.53 1548.65 Q1330.73 1548.65 1330.4 1548.62 Q1330.11 1548.59 1329.89 1548.43 Q1329.69 1548.24 1329.69 1547.85 Q1329.69 1547.24 1329.95 1546.98 Q1330.21 1546.69 1330.53 1546.66 Q1330.89 1546.59 1331.69 1546.59 L1337.87 1546.59 L1340.45 1536.13 Q1340.71 1535.1 1341.35 1534.52 Q1342.03 1533.9 1342.42 1533.84 Q1342.8 1533.74 1343.09 1533.74 Q1343.96 1533.74 1344.48 1534.23 Q1344.99 1534.68 1344.99 1535.51 Q1344.99 1535.96 1342.29 1546.59 L1348.08 1546.59 Q1348.82 1546.59 1349.11 1546.62 Q1349.44 1546.66 1349.69 1546.82 Q1349.95 1546.98 1349.95 1547.33 Z" fill="#000000" fill-rule="evenodd" fill-opacity="1" /><polyline clip-path="url(#clip302)" style="stroke:#000000; stroke-linecap:butt; stroke-linejoin:round; stroke-width:2; stroke-opacity:0.1; fill:none" points="
  276.876,1279.45 2352.76,1279.45 
  "/>
<polyline clip-path="url(#clip302)" style="stroke:#000000; stroke-linecap:butt; stroke-linejoin:round; stroke-width:2; stroke-opacity:0.1; fill:none" points="
  276.876,841.185 2352.76,841.185 
  "/>
<polyline clip-path="url(#clip302)" style="stroke:#000000; stroke-linecap:butt; stroke-linejoin:round; stroke-width:2; stroke-opacity:0.1; fill:none" points="
  276.876,402.92 2352.76,402.92 
  "/>
<polyline clip-path="url(#clip300)" style="stroke:#000000; stroke-linecap:butt; stroke-linejoin:round; stroke-width:4; stroke-opacity:1; fill:none" points="
  276.876,1426.75 276.876,47.2441 
  "/>
<polyline clip-path="url(#clip300)" style="stroke:#000000; stroke-linecap:butt; stroke-linejoin:round; stroke-width:4; stroke-opacity:1; fill:none" points="
  276.876,1279.45 295.773,1279.45 
  "/>
<polyline clip-path="url(#clip300)" style="stroke:#000000; stroke-linecap:butt; stroke-linejoin:round; stroke-width:4; stroke-opacity:1; fill:none" points="
  276.876,841.185 295.773,841.185 
  "/>
<polyline clip-path="url(#clip300)" style="stroke:#000000; stroke-linecap:butt; stroke-linejoin:round; stroke-width:4; stroke-opacity:1; fill:none" points="
  276.876,402.92 295.773,402.92 
  "/>
<path clip-path="url(#clip300)" d="M114.931 1299.24 L122.57 1299.24 L122.57 1272.88 L114.26 1274.54 L114.26 1270.28 L122.524 1268.62 L127.2 1268.62 L127.2 1299.24 L134.839 1299.24 L134.839 1303.18 L114.931 1303.18 L114.931 1299.24 Z" fill="#000000" fill-rule="evenodd" fill-opacity="1" /><path clip-path="url(#clip300)" d="M154.283 1271.7 Q150.672 1271.7 148.843 1275.26 Q147.038 1278.8 147.038 1285.93 Q147.038 1293.04 148.843 1296.6 Q150.672 1300.14 154.283 1300.14 Q157.917 1300.14 159.723 1296.6 Q161.552 1293.04 161.552 1285.93 Q161.552 1278.8 159.723 1275.26 Q157.917 1271.7 154.283 1271.7 M154.283 1267.99 Q160.093 1267.99 163.149 1272.6 Q166.227 1277.18 166.227 1285.93 Q166.227 1294.66 163.149 1299.26 Q160.093 1303.85 154.283 1303.85 Q148.473 1303.85 145.394 1299.26 Q142.339 1294.66 142.339 1285.93 Q142.339 1277.18 145.394 1272.6 Q148.473 1267.99 154.283 1267.99 Z" fill="#000000" fill-rule="evenodd" fill-opacity="1" /><path clip-path="url(#clip300)" d="M166.227 1262.09 L190.339 1262.09 L190.339 1265.29 L166.227 1265.29 L166.227 1262.09 Z" fill="#000000" fill-rule="evenodd" fill-opacity="1" /><path clip-path="url(#clip300)" d="M199.197 1272.57 L205.404 1272.57 L205.404 1251.15 L198.652 1252.5 L198.652 1249.04 L205.366 1247.69 L209.166 1247.69 L209.166 1272.57 L215.372 1272.57 L215.372 1275.77 L199.197 1275.77 L199.197 1272.57 Z" fill="#000000" fill-rule="evenodd" fill-opacity="1" /><path clip-path="url(#clip300)" d="M231.171 1250.19 Q228.237 1250.19 226.751 1253.08 Q225.284 1255.96 225.284 1261.75 Q225.284 1267.53 226.751 1270.42 Q228.237 1273.3 231.171 1273.3 Q234.124 1273.3 235.591 1270.42 Q237.076 1267.53 237.076 1261.75 Q237.076 1255.96 235.591 1253.08 Q234.124 1250.19 231.171 1250.19 M231.171 1247.18 Q235.891 1247.18 238.374 1250.92 Q240.876 1254.65 240.876 1261.75 Q240.876 1268.84 238.374 1272.59 Q235.891 1276.31 231.171 1276.31 Q226.45 1276.31 223.949 1272.59 Q221.466 1268.84 221.466 1261.75 Q221.466 1254.65 223.949 1250.92 Q226.45 1247.18 231.171 1247.18 Z" fill="#000000" fill-rule="evenodd" fill-opacity="1" /><path clip-path="url(#clip300)" d="M140.247 860.977 L147.886 860.977 L147.886 834.612 L139.575 836.278 L139.575 832.019 L147.839 830.352 L152.515 830.352 L152.515 860.977 L160.154 860.977 L160.154 864.912 L140.247 864.912 L140.247 860.977 Z" fill="#000000" fill-rule="evenodd" fill-opacity="1" /><path clip-path="url(#clip300)" d="M179.598 833.431 Q175.987 833.431 174.159 836.996 Q172.353 840.537 172.353 847.667 Q172.353 854.773 174.159 858.338 Q175.987 861.88 179.598 861.88 Q183.233 861.88 185.038 858.338 Q186.867 854.773 186.867 847.667 Q186.867 840.537 185.038 836.996 Q183.233 833.431 179.598 833.431 M179.598 829.727 Q185.409 829.727 188.464 834.334 Q191.543 838.917 191.543 847.667 Q191.543 856.394 188.464 861 Q185.409 865.584 179.598 865.584 Q173.788 865.584 170.71 861 Q167.654 856.394 167.654 847.667 Q167.654 838.917 170.71 834.334 Q173.788 829.727 179.598 829.727 Z" fill="#000000" fill-rule="evenodd" fill-opacity="1" /><path clip-path="url(#clip300)" d="M191.543 823.829 L215.654 823.829 L215.654 827.026 L191.543 827.026 L191.543 823.829 Z" fill="#000000" fill-rule="evenodd" fill-opacity="1" /><path clip-path="url(#clip300)" d="M223.892 809.422 L238.807 809.422 L238.807 812.619 L227.372 812.619 L227.372 819.503 Q228.199 819.221 229.027 819.089 Q229.854 818.939 230.682 818.939 Q235.384 818.939 238.13 821.515 Q240.876 824.092 240.876 828.493 Q240.876 833.026 238.054 835.546 Q235.233 838.047 230.099 838.047 Q228.331 838.047 226.488 837.746 Q224.663 837.445 222.707 836.844 L222.707 833.026 Q224.4 833.947 226.205 834.399 Q228.011 834.85 230.023 834.85 Q233.277 834.85 235.177 833.138 Q237.076 831.427 237.076 828.493 Q237.076 825.559 235.177 823.847 Q233.277 822.136 230.023 822.136 Q228.5 822.136 226.977 822.474 Q225.472 822.813 223.892 823.528 L223.892 809.422 Z" fill="#000000" fill-rule="evenodd" fill-opacity="1" /><path clip-path="url(#clip300)" d="M170.17 422.713 L177.809 422.713 L177.809 396.347 L169.499 398.014 L169.499 393.755 L177.762 392.088 L182.438 392.088 L182.438 422.713 L190.077 422.713 L190.077 426.648 L170.17 426.648 L170.17 422.713 Z" fill="#000000" fill-rule="evenodd" fill-opacity="1" /><path clip-path="url(#clip300)" d="M209.522 395.167 Q205.91 395.167 204.082 398.731 Q202.276 402.273 202.276 409.403 Q202.276 416.509 204.082 420.074 Q205.91 423.616 209.522 423.616 Q213.156 423.616 214.961 420.074 Q216.79 416.509 216.79 409.403 Q216.79 402.273 214.961 398.731 Q213.156 395.167 209.522 395.167 M209.522 391.463 Q215.332 391.463 218.387 396.069 Q221.466 400.653 221.466 409.403 Q221.466 418.13 218.387 422.736 Q215.332 427.319 209.522 427.319 Q203.711 427.319 200.633 422.736 Q197.577 418.13 197.577 409.403 Q197.577 400.653 200.633 396.069 Q203.711 391.463 209.522 391.463 Z" fill="#000000" fill-rule="evenodd" fill-opacity="1" /><path clip-path="url(#clip300)" d="M231.171 373.659 Q228.237 373.659 226.751 376.555 Q225.284 379.433 225.284 385.226 Q225.284 391 226.751 393.896 Q228.237 396.774 231.171 396.774 Q234.124 396.774 235.591 393.896 Q237.076 391 237.076 385.226 Q237.076 379.433 235.591 376.555 Q234.124 373.659 231.171 373.659 M231.171 370.65 Q235.891 370.65 238.374 374.393 Q240.876 378.116 240.876 385.226 Q240.876 392.316 238.374 396.059 Q235.891 399.783 231.171 399.783 Q226.45 399.783 223.949 396.059 Q221.466 392.316 221.466 385.226 Q221.466 378.116 223.949 374.393 Q226.45 370.65 231.171 370.65 Z" fill="#000000" fill-rule="evenodd" fill-opacity="1" /><path clip-path="url(#clip300)" d="M44.7161 781.064 L47.5806 781.064 L47.5806 807.991 Q53.6281 807.609 56.8109 804.362 Q59.9619 801.084 59.9619 795.259 Q59.9619 791.885 59.1344 788.734 Q58.3069 785.551 56.6518 782.432 L62.1899 782.432 Q63.5267 785.583 64.227 788.893 Q64.9272 792.204 64.9272 795.609 Q64.9272 804.139 59.9619 809.136 Q54.9967 814.102 46.5303 814.102 Q37.7774 814.102 32.6531 809.391 Q27.4968 804.649 27.4968 796.628 Q27.4968 789.435 32.1438 785.265 Q36.7589 781.064 44.7161 781.064 M42.9973 786.92 Q38.1912 786.984 35.3266 789.626 Q32.4621 792.235 32.4621 796.564 Q32.4621 801.466 35.2312 804.426 Q38.0002 807.354 43.0292 807.8 L42.9973 786.92 Z" fill="#000000" fill-rule="evenodd" fill-opacity="1" /><path clip-path="url(#clip300)" d="M33.8307 750.795 Q33.2578 751.781 33.0032 752.959 Q32.7167 754.105 32.7167 755.505 Q32.7167 760.471 35.9632 763.144 Q39.1779 765.786 45.2253 765.786 L64.0042 765.786 L64.0042 771.674 L28.3562 771.674 L28.3562 765.786 L33.8944 765.786 Q30.6479 763.94 29.0883 760.98 Q27.4968 758.02 27.4968 753.787 Q27.4968 753.182 27.5923 752.45 Q27.656 751.718 27.8151 750.827 L33.8307 750.795 Z" fill="#000000" fill-rule="evenodd" fill-opacity="1" /><path clip-path="url(#clip300)" d="M33.8307 725.141 Q33.2578 726.128 33.0032 727.305 Q32.7167 728.451 32.7167 729.852 Q32.7167 734.817 35.9632 737.49 Q39.1779 740.132 45.2253 740.132 L64.0042 740.132 L64.0042 746.02 L28.3562 746.02 L28.3562 740.132 L33.8944 740.132 Q30.6479 738.286 29.0883 735.326 Q27.4968 732.366 27.4968 728.133 Q27.4968 727.528 27.5923 726.796 Q27.656 726.064 27.8151 725.173 L33.8307 725.141 Z" fill="#000000" fill-rule="evenodd" fill-opacity="1" /><path clip-path="url(#clip300)" d="M32.4621 706.617 Q32.4621 711.327 36.1542 714.065 Q39.8145 716.802 46.212 716.802 Q52.6095 716.802 56.3017 714.096 Q59.9619 711.359 59.9619 706.617 Q59.9619 701.938 56.2698 699.201 Q52.5777 696.463 46.212 696.463 Q39.8781 696.463 36.186 699.201 Q32.4621 701.938 32.4621 706.617 M27.4968 706.617 Q27.4968 698.978 32.4621 694.617 Q37.4273 690.257 46.212 690.257 Q54.9649 690.257 59.9619 694.617 Q64.9272 698.978 64.9272 706.617 Q64.9272 714.287 59.9619 718.648 Q54.9649 722.977 46.212 722.977 Q37.4273 722.977 32.4621 718.648 Q27.4968 714.287 27.4968 706.617 Z" fill="#000000" fill-rule="evenodd" fill-opacity="1" /><path clip-path="url(#clip300)" d="M33.8307 659.892 Q33.2578 660.879 33.0032 662.057 Q32.7167 663.203 32.7167 664.603 Q32.7167 669.568 35.9632 672.242 Q39.1779 674.884 45.2253 674.884 L64.0042 674.884 L64.0042 680.772 L28.3562 680.772 L28.3562 674.884 L33.8944 674.884 Q30.6479 673.038 29.0883 670.078 Q27.4968 667.117 27.4968 662.884 Q27.4968 662.28 27.5923 661.547 Q27.656 660.815 27.8151 659.924 L33.8307 659.892 Z" fill="#000000" fill-rule="evenodd" fill-opacity="1" /><polyline clip-path="url(#clip302)" style="stroke:#009af9; stroke-linecap:butt; stroke-linejoin:round; stroke-width:20; stroke-opacity:1; fill:none" points="
  2294,352.057 2115.97,352.057 1937.94,387.067 1759.9,425.76 1581.87,481.537 1403.83,534.795 1225.8,587.621 1047.76,640.397 869.73,693.168 691.696,745.94 
  513.661,798.713 335.627,851.485 
  "/>
<circle clip-path="url(#clip302)" cx="2294" cy="352.057" r="14" fill="#009af9" fill-rule="evenodd" fill-opacity="1" stroke="#000000" stroke-opacity="1" stroke-width="3.2"/>
<circle clip-path="url(#clip302)" cx="2115.97" cy="352.057" r="14" fill="#009af9" fill-rule="evenodd" fill-opacity="1" stroke="#000000" stroke-opacity="1" stroke-width="3.2"/>
<circle clip-path="url(#clip302)" cx="1937.94" cy="387.067" r="14" fill="#009af9" fill-rule="evenodd" fill-opacity="1" stroke="#000000" stroke-opacity="1" stroke-width="3.2"/>
<circle clip-path="url(#clip302)" cx="1759.9" cy="425.76" r="14" fill="#009af9" fill-rule="evenodd" fill-opacity="1" stroke="#000000" stroke-opacity="1" stroke-width="3.2"/>
<circle clip-path="url(#clip302)" cx="1581.87" cy="481.537" r="14" fill="#009af9" fill-rule="evenodd" fill-opacity="1" stroke="#000000" stroke-opacity="1" stroke-width="3.2"/>
<circle clip-path="url(#clip302)" cx="1403.83" cy="534.795" r="14" fill="#009af9" fill-rule="evenodd" fill-opacity="1" stroke="#000000" stroke-opacity="1" stroke-width="3.2"/>
<circle clip-path="url(#clip302)" cx="1225.8" cy="587.621" r="14" fill="#009af9" fill-rule="evenodd" fill-opacity="1" stroke="#000000" stroke-opacity="1" stroke-width="3.2"/>
<circle clip-path="url(#clip302)" cx="1047.76" cy="640.397" r="14" fill="#009af9" fill-rule="evenodd" fill-opacity="1" stroke="#000000" stroke-opacity="1" stroke-width="3.2"/>
<circle clip-path="url(#clip302)" cx="869.73" cy="693.168" r="14" fill="#009af9" fill-rule="evenodd" fill-opacity="1" stroke="#000000" stroke-opacity="1" stroke-width="3.2"/>
<circle clip-path="url(#clip302)" cx="691.696" cy="745.94" r="14" fill="#009af9" fill-rule="evenodd" fill-opacity="1" stroke="#000000" stroke-opacity="1" stroke-width="3.2"/>
<circle clip-path="url(#clip302)" cx="513.661" cy="798.713" r="14" fill="#009af9" fill-rule="evenodd" fill-opacity="1" stroke="#000000" stroke-opacity="1" stroke-width="3.2"/>
<circle clip-path="url(#clip302)" cx="335.627" cy="851.485" r="14" fill="#009af9" fill-rule="evenodd" fill-opacity="1" stroke="#000000" stroke-opacity="1" stroke-width="3.2"/>
<polyline clip-path="url(#clip302)" style="stroke:#e26f46; stroke-linecap:butt; stroke-linejoin:round; stroke-width:20; stroke-opacity:1; fill:none" points="
  2294,379.397 2115.97,379.397 1937.94,454.145 1759.9,543.955 1581.87,648.994 1403.83,754.459 1225.8,859.985 1047.76,965.525 869.73,1071.07 691.696,1176.61 
  513.661,1282.16 335.627,1387.71 
  "/>
<path clip-path="url(#clip302)" d="M2278 363.397 L2278 395.397 L2310 395.397 L2310 363.397 L2278 363.397 Z" fill="#e26f46" fill-rule="evenodd" fill-opacity="1" stroke="#000000" stroke-opacity="1" stroke-width="3.2"/>
<path clip-path="url(#clip302)" d="M2099.97 363.397 L2099.97 395.397 L2131.97 395.397 L2131.97 363.397 L2099.97 363.397 Z" fill="#e26f46" fill-rule="evenodd" fill-opacity="1" stroke="#000000" stroke-opacity="1" stroke-width="3.2"/>
<path clip-path="url(#clip302)" d="M1921.94 438.145 L1921.94 470.145 L1953.94 470.145 L1953.94 438.145 L1921.94 438.145 Z" fill="#e26f46" fill-rule="evenodd" fill-opacity="1" stroke="#000000" stroke-opacity="1" stroke-width="3.2"/>
<path clip-path="url(#clip302)" d="M1743.9 527.955 L1743.9 559.955 L1775.9 559.955 L1775.9 527.955 L1743.9 527.955 Z" fill="#e26f46" fill-rule="evenodd" fill-opacity="1" stroke="#000000" stroke-opacity="1" stroke-width="3.2"/>
<path clip-path="url(#clip302)" d="M1565.87 632.994 L1565.87 664.994 L1597.87 664.994 L1597.87 632.994 L1565.87 632.994 Z" fill="#e26f46" fill-rule="evenodd" fill-opacity="1" stroke="#000000" stroke-opacity="1" stroke-width="3.2"/>
<path clip-path="url(#clip302)" d="M1387.83 738.459 L1387.83 770.459 L1419.83 770.459 L1419.83 738.459 L1387.83 738.459 Z" fill="#e26f46" fill-rule="evenodd" fill-opacity="1" stroke="#000000" stroke-opacity="1" stroke-width="3.2"/>
<path clip-path="url(#clip302)" d="M1209.8 843.985 L1209.8 875.985 L1241.8 875.985 L1241.8 843.985 L1209.8 843.985 Z" fill="#e26f46" fill-rule="evenodd" fill-opacity="1" stroke="#000000" stroke-opacity="1" stroke-width="3.2"/>
<path clip-path="url(#clip302)" d="M1031.76 949.525 L1031.76 981.525 L1063.76 981.525 L1063.76 949.525 L1031.76 949.525 Z" fill="#e26f46" fill-rule="evenodd" fill-opacity="1" stroke="#000000" stroke-opacity="1" stroke-width="3.2"/>
<path clip-path="url(#clip302)" d="M853.73 1055.07 L853.73 1087.07 L885.73 1087.07 L885.73 1055.07 L853.73 1055.07 Z" fill="#e26f46" fill-rule="evenodd" fill-opacity="1" stroke="#000000" stroke-opacity="1" stroke-width="3.2"/>
<path clip-path="url(#clip302)" d="M675.696 1160.61 L675.696 1192.61 L707.696 1192.61 L707.696 1160.61 L675.696 1160.61 Z" fill="#e26f46" fill-rule="evenodd" fill-opacity="1" stroke="#000000" stroke-opacity="1" stroke-width="3.2"/>
<path clip-path="url(#clip302)" d="M497.661 1266.16 L497.661 1298.16 L529.661 1298.16 L529.661 1266.16 L497.661 1266.16 Z" fill="#e26f46" fill-rule="evenodd" fill-opacity="1" stroke="#000000" stroke-opacity="1" stroke-width="3.2"/>
<path clip-path="url(#clip302)" d="M319.627 1371.71 L319.627 1403.71 L351.627 1403.71 L351.627 1371.71 L319.627 1371.71 Z" fill="#e26f46" fill-rule="evenodd" fill-opacity="1" stroke="#000000" stroke-opacity="1" stroke-width="3.2"/>
<polyline clip-path="url(#clip302)" style="stroke:#3da44d; stroke-linecap:butt; stroke-linejoin:round; stroke-width:20; stroke-opacity:1; fill:none" points="
  2294,323.762 2115.97,350.148 1937.94,376.534 1759.9,402.92 1581.87,429.307 1403.83,455.693 1225.8,482.079 1047.76,508.465 869.73,534.851 691.696,561.237 
  513.661,587.623 335.627,614.01 
  "/>
<polyline clip-path="url(#clip302)" style="stroke:#c271d2; stroke-linecap:butt; stroke-linejoin:round; stroke-width:20; stroke-opacity:1; fill:none" points="
  2294,244.604 2115.97,297.376 1937.94,350.148 1759.9,402.92 1581.87,455.693 1403.83,508.465 1225.8,561.237 1047.76,614.01 869.73,666.782 691.696,719.554 
  513.661,772.326 335.627,825.099 
  "/>
<polyline clip-path="url(#clip302)" style="stroke:#ac8d18; stroke-linecap:butt; stroke-linejoin:round; stroke-width:20; stroke-opacity:1; fill:none" points="
  2294,165.445 2115.97,244.604 1937.94,323.762 1759.9,402.92 1581.87,482.079 1403.83,561.237 1225.8,640.396 1047.76,719.554 869.73,798.713 691.696,877.871 
  513.661,957.029 335.627,1036.19 
  "/>
<polyline clip-path="url(#clip302)" style="stroke:#00a9ad; stroke-linecap:butt; stroke-linejoin:round; stroke-width:20; stroke-opacity:1; fill:none" points="
  2294,86.2867 2115.97,191.831 1937.94,297.376 1759.9,402.92 1581.87,508.465 1403.83,614.01 1225.8,719.554 1047.76,825.099 869.73,930.643 691.696,1036.19 
  513.661,1141.73 335.627,1247.28 
  "/>
<path clip-path="url(#clip300)" d="
M346.072 456.108 L687.697 456.108 L687.697 93.2276 L346.072 93.2276  Z
  " fill="#ffffff" fill-rule="evenodd" fill-opacity="1"/>
<polyline clip-path="url(#clip300)" style="stroke:#000000; stroke-linecap:butt; stroke-linejoin:round; stroke-width:4; stroke-opacity:1; fill:none" points="
  346.072,456.108 687.697,456.108 687.697,93.2276 346.072,93.2276 346.072,456.108 
  "/>
<polyline clip-path="url(#clip300)" style="stroke:#009af9; stroke-linecap:butt; stroke-linejoin:round; stroke-width:4; stroke-opacity:1; fill:none" points="
  369.137,145.068 507.529,145.068 
  "/>
<circle clip-path="url(#clip300)" cx="438.333" cy="145.068" r="23" fill="#009af9" fill-rule="evenodd" fill-opacity="1" stroke="#000000" stroke-opacity="1" stroke-width="5.12"/>
<path clip-path="url(#clip300)" d="M552.307 146.7 L552.307 162.348 L548.048 162.348 L548.048 146.838 Q548.048 143.158 546.613 141.329 Q545.177 139.501 542.307 139.501 Q538.858 139.501 536.867 141.7 Q534.877 143.899 534.877 147.695 L534.877 162.348 L530.594 162.348 L530.594 126.329 L534.877 126.329 L534.877 140.45 Q536.404 138.112 538.465 136.954 Q540.548 135.797 543.256 135.797 Q547.724 135.797 550.015 138.575 Q552.307 141.329 552.307 146.7 Z" fill="#000000" fill-rule="evenodd" fill-opacity="1" /><path clip-path="url(#clip300)" d="M582.978 148.32 L582.978 150.403 L563.395 150.403 Q563.673 154.801 566.034 157.116 Q568.418 159.408 572.654 159.408 Q575.108 159.408 577.4 158.806 Q579.714 158.204 581.983 157 L581.983 161.028 Q579.691 162 577.284 162.51 Q574.876 163.019 572.4 163.019 Q566.196 163.019 562.562 159.408 Q558.951 155.797 558.951 149.639 Q558.951 143.274 562.376 139.547 Q565.826 135.797 571.659 135.797 Q576.89 135.797 579.923 139.176 Q582.978 142.533 582.978 148.32 M578.719 147.07 Q578.673 143.575 576.751 141.491 Q574.853 139.408 571.705 139.408 Q568.14 139.408 565.988 141.422 Q563.858 143.436 563.534 147.093 L578.719 147.07 Z" fill="#000000" fill-rule="evenodd" fill-opacity="1" /><path clip-path="url(#clip300)" d="M589.529 152.116 L589.529 136.422 L593.788 136.422 L593.788 151.954 Q593.788 155.635 595.224 157.487 Q596.659 159.315 599.529 159.315 Q602.978 159.315 604.969 157.116 Q606.983 154.917 606.983 151.121 L606.983 136.422 L611.242 136.422 L611.242 162.348 L606.983 162.348 L606.983 158.366 Q605.432 160.727 603.372 161.885 Q601.335 163.019 598.626 163.019 Q594.159 163.019 591.844 160.241 Q589.529 157.463 589.529 152.116 M600.247 135.797 L600.247 135.797 Z" fill="#000000" fill-rule="evenodd" fill-opacity="1" /><path clip-path="url(#clip300)" d="M641.566 146.7 L641.566 162.348 L637.307 162.348 L637.307 146.838 Q637.307 143.158 635.871 141.329 Q634.436 139.501 631.566 139.501 Q628.117 139.501 626.126 141.7 Q624.135 143.899 624.135 147.695 L624.135 162.348 L619.853 162.348 L619.853 136.422 L624.135 136.422 L624.135 140.45 Q625.663 138.112 627.723 136.954 Q629.807 135.797 632.515 135.797 Q636.983 135.797 639.274 138.575 Q641.566 141.329 641.566 146.7 Z" fill="#000000" fill-rule="evenodd" fill-opacity="1" /><polyline clip-path="url(#clip300)" style="stroke:#e26f46; stroke-linecap:butt; stroke-linejoin:round; stroke-width:4; stroke-opacity:1; fill:none" points="
  369.137,196.908 507.529,196.908 
  "/>
<path clip-path="url(#clip300)" d="M412.733 171.308 L412.733 222.508 L463.933 222.508 L463.933 171.308 L412.733 171.308 Z" fill="#e26f46" fill-rule="evenodd" fill-opacity="1" stroke="#000000" stroke-opacity="1" stroke-width="5.12"/>
<path clip-path="url(#clip300)" d="M545.779 192.243 Q545.062 191.827 544.205 191.641 Q543.372 191.433 542.353 191.433 Q538.742 191.433 536.798 193.794 Q534.877 196.132 534.877 200.53 L534.877 214.188 L530.594 214.188 L530.594 188.262 L534.877 188.262 L534.877 192.29 Q536.219 189.928 538.372 188.794 Q540.525 187.637 543.603 187.637 Q544.043 187.637 544.576 187.706 Q545.108 187.753 545.756 187.868 L545.779 192.243 Z" fill="#000000" fill-rule="evenodd" fill-opacity="1" /><path clip-path="url(#clip300)" d="M550.085 178.169 L554.367 178.169 L554.367 199.442 L567.076 188.262 L572.515 188.262 L558.765 200.391 L573.094 214.188 L567.538 214.188 L554.367 201.526 L554.367 214.188 L550.085 214.188 L550.085 178.169 Z" fill="#000000" fill-rule="evenodd" fill-opacity="1" /><path clip-path="url(#clip300)" d="M591.149 183.702 L579.344 202.151 L591.149 202.151 L591.149 183.702 M589.923 179.628 L595.802 179.628 L595.802 202.151 L600.733 202.151 L600.733 206.04 L595.802 206.04 L595.802 214.188 L591.149 214.188 L591.149 206.04 L575.548 206.04 L575.548 201.526 L589.923 179.628 Z" fill="#000000" fill-rule="evenodd" fill-opacity="1" /><polyline clip-path="url(#clip300)" style="stroke:#3da44d; stroke-linecap:butt; stroke-linejoin:round; stroke-width:4; stroke-opacity:1; fill:none" points="
  369.137,248.748 507.529,248.748 
  "/>
<path clip-path="url(#clip300)" d="M554.134 265.848 Q554.134 266.035 553.923 266.761 Q553.712 267.487 553.197 268.612 Q552.705 269.736 552.026 270.766 Q551.347 271.774 550.222 272.523 Q549.121 273.249 547.857 273.249 Q546.17 273.249 545.046 272.125 Q543.922 271.001 543.922 269.314 Q543.922 269.08 543.945 268.846 Q543.968 268.612 543.992 268.471 Q544.015 268.307 544.086 268.049 Q544.179 267.768 544.203 267.651 Q544.25 267.534 544.367 267.183 Q544.507 266.808 544.554 266.668 Q547.529 259.079 547.529 255.917 Q547.529 252.567 544.929 252.567 Q542.61 252.567 540.315 254.254 Q539.261 255.097 538.253 256.596 Q537.246 258.095 537.059 258.657 Q536.848 259.875 536.544 260.812 Q536.403 261.468 535.724 264.021 L534.67 268.354 L533.756 271.984 Q533.569 272.5 533.054 272.874 Q532.538 273.249 531.976 273.249 Q531.508 273.249 531.039 272.921 Q530.594 272.617 530.594 271.891 Q530.594 271.516 530.782 270.837 L537.738 243.198 L537.879 242.261 Q537.879 241.98 537.761 241.84 Q537.668 241.676 537.106 241.559 Q536.567 241.442 535.49 241.442 Q535.044 241.442 534.834 241.418 Q534.646 241.395 534.482 241.278 Q534.318 241.137 534.318 240.856 Q534.318 240.458 534.482 240.247 Q534.67 240.013 534.81 239.966 Q534.951 239.919 535.232 239.896 Q535.63 239.872 536.965 239.755 Q538.3 239.615 539.448 239.521 Q540.596 239.427 541.087 239.427 Q541.369 239.427 541.509 239.568 Q541.673 239.685 541.696 239.825 L541.72 239.943 L537.972 255.191 Q540.947 251.513 545.069 251.513 Q547.739 251.513 549.168 252.895 Q550.597 254.254 550.597 256.643 Q550.597 259.383 547.669 267.183 Q546.803 269.361 546.803 270.602 Q546.803 271.422 547.06 271.797 Q547.341 272.172 547.95 272.172 Q548.887 272.172 549.707 271.633 Q550.55 271.071 551.136 270.157 Q551.721 269.221 552.119 268.284 Q552.541 267.323 552.846 266.246 Q553.033 265.66 553.127 265.52 Q553.244 265.379 553.572 265.379 Q554.134 265.379 554.134 265.848 Z" fill="#000000" fill-rule="evenodd" fill-opacity="1" /><path clip-path="url(#clip300)" d="M559.011 227.235 L559.011 226.186 Q563.044 226.186 565.127 224.038 Q565.701 224.038 565.799 224.169 Q565.897 224.301 565.897 224.907 L565.897 243.746 Q565.897 244.746 566.389 245.057 Q566.881 245.369 569.029 245.369 L570.095 245.369 L570.095 246.402 Q568.914 246.304 564.651 246.304 Q560.388 246.304 559.224 246.402 L559.224 245.369 L560.29 245.369 Q562.405 245.369 562.913 245.074 Q563.422 244.762 563.422 243.746 L563.422 226.35 Q561.667 227.235 559.011 227.235 Z" fill="#000000" fill-rule="evenodd" fill-opacity="1" /><polyline clip-path="url(#clip300)" style="stroke:#c271d2; stroke-linecap:butt; stroke-linejoin:round; stroke-width:4; stroke-opacity:1; fill:none" points="
  369.137,300.588 507.529,300.588 
  "/>
<path clip-path="url(#clip300)" d="M554.134 317.688 Q554.134 317.875 553.923 318.601 Q553.712 319.327 553.197 320.452 Q552.705 321.576 552.026 322.606 Q551.347 323.614 550.222 324.363 Q549.121 325.089 547.857 325.089 Q546.17 325.089 545.046 323.965 Q543.922 322.841 543.922 321.154 Q543.922 320.92 543.945 320.686 Q543.968 320.452 543.992 320.311 Q544.015 320.147 544.086 319.889 Q544.179 319.608 544.203 319.491 Q544.25 319.374 544.367 319.023 Q544.507 318.648 544.554 318.508 Q547.529 310.919 547.529 307.757 Q547.529 304.407 544.929 304.407 Q542.61 304.407 540.315 306.094 Q539.261 306.937 538.253 308.436 Q537.246 309.935 537.059 310.497 Q536.848 311.715 536.544 312.652 Q536.403 313.308 535.724 315.861 L534.67 320.194 L533.756 323.824 Q533.569 324.34 533.054 324.714 Q532.538 325.089 531.976 325.089 Q531.508 325.089 531.039 324.761 Q530.594 324.457 530.594 323.731 Q530.594 323.356 530.782 322.677 L537.738 295.038 L537.879 294.101 Q537.879 293.82 537.761 293.68 Q537.668 293.516 537.106 293.399 Q536.567 293.282 535.49 293.282 Q535.044 293.282 534.834 293.258 Q534.646 293.235 534.482 293.118 Q534.318 292.977 534.318 292.696 Q534.318 292.298 534.482 292.087 Q534.67 291.853 534.81 291.806 Q534.951 291.759 535.232 291.736 Q535.63 291.712 536.965 291.595 Q538.3 291.455 539.448 291.361 Q540.596 291.267 541.087 291.267 Q541.369 291.267 541.509 291.408 Q541.673 291.525 541.696 291.665 L541.72 291.783 L537.972 307.031 Q540.947 303.353 545.069 303.353 Q547.739 303.353 549.168 304.735 Q550.597 306.094 550.597 308.483 Q550.597 311.223 547.669 319.023 Q546.803 321.201 546.803 322.442 Q546.803 323.262 547.06 323.637 Q547.341 324.012 547.95 324.012 Q548.887 324.012 549.707 323.473 Q550.55 322.911 551.136 321.997 Q551.721 321.061 552.119 320.124 Q552.541 319.163 552.846 318.086 Q553.033 317.5 553.127 317.36 Q553.244 317.219 553.572 317.219 Q554.134 317.219 554.134 317.688 Z" fill="#000000" fill-rule="evenodd" fill-opacity="1" /><path clip-path="url(#clip300)" d="M559.011 298.242 Q559.011 297.635 559.06 297.455 Q559.126 297.275 559.388 296.996 L565.832 289.815 Q569.357 285.847 569.357 282.387 Q569.357 280.141 568.176 278.534 Q567.012 276.927 564.864 276.927 Q563.389 276.927 562.143 277.829 Q560.897 278.731 560.323 280.338 Q560.421 280.305 560.765 280.305 Q561.602 280.305 562.061 280.83 Q562.536 281.354 562.536 282.059 Q562.536 282.961 561.946 283.404 Q561.372 283.83 560.798 283.83 Q560.569 283.83 560.257 283.781 Q559.962 283.732 559.487 283.273 Q559.011 282.797 559.011 281.961 Q559.011 279.616 560.782 277.747 Q562.569 275.878 565.291 275.878 Q568.373 275.878 570.39 277.714 Q572.423 279.534 572.423 282.387 Q572.423 283.387 572.111 284.306 Q571.816 285.207 571.406 285.912 Q571.013 286.617 569.931 287.749 Q568.849 288.88 567.98 289.683 Q567.111 290.487 565.159 292.192 L561.602 295.651 L567.652 295.651 Q570.603 295.651 570.832 295.389 Q571.16 294.914 571.57 292.405 L572.423 292.405 L571.472 298.242 L559.011 298.242 Z" fill="#000000" fill-rule="evenodd" fill-opacity="1" /><polyline clip-path="url(#clip300)" style="stroke:#ac8d18; stroke-linecap:butt; stroke-linejoin:round; stroke-width:4; stroke-opacity:1; fill:none" points="
  369.137,352.428 507.529,352.428 
  "/>
<path clip-path="url(#clip300)" d="M554.134 369.894 Q554.134 370.082 553.923 370.808 Q553.712 371.534 553.197 372.658 Q552.705 373.782 552.026 374.813 Q551.347 375.82 550.222 376.57 Q549.121 377.296 547.857 377.296 Q546.17 377.296 545.046 376.171 Q543.922 375.047 543.922 373.361 Q543.922 373.126 543.945 372.892 Q543.968 372.658 543.992 372.517 Q544.015 372.354 544.086 372.096 Q544.179 371.815 544.203 371.698 Q544.25 371.581 544.367 371.229 Q544.507 370.854 544.554 370.714 Q547.529 363.125 547.529 359.963 Q547.529 356.614 544.929 356.614 Q542.61 356.614 540.315 358.3 Q539.261 359.143 538.253 360.642 Q537.246 362.141 537.059 362.703 Q536.848 363.921 536.544 364.858 Q536.403 365.514 535.724 368.067 L534.67 372.4 L533.756 376.031 Q533.569 376.546 533.054 376.921 Q532.538 377.296 531.976 377.296 Q531.508 377.296 531.039 376.968 Q530.594 376.663 530.594 375.937 Q530.594 375.562 530.782 374.883 L537.738 347.245 L537.879 346.308 Q537.879 346.027 537.761 345.886 Q537.668 345.722 537.106 345.605 Q536.567 345.488 535.49 345.488 Q535.044 345.488 534.834 345.465 Q534.646 345.441 534.482 345.324 Q534.318 345.183 534.318 344.902 Q534.318 344.504 534.482 344.293 Q534.67 344.059 534.81 344.012 Q534.951 343.965 535.232 343.942 Q535.63 343.919 536.965 343.802 Q538.3 343.661 539.448 343.567 Q540.596 343.474 541.087 343.474 Q541.369 343.474 541.509 343.614 Q541.673 343.731 541.696 343.872 L541.72 343.989 L537.972 359.237 Q540.947 355.56 545.069 355.56 Q547.739 355.56 549.168 356.942 Q550.597 358.3 550.597 360.689 Q550.597 363.43 547.669 371.229 Q546.803 373.408 546.803 374.649 Q546.803 375.469 547.06 375.843 Q547.341 376.218 547.95 376.218 Q548.887 376.218 549.707 375.679 Q550.55 375.117 551.136 374.204 Q551.721 373.267 552.119 372.33 Q552.541 371.37 552.846 370.292 Q553.033 369.707 553.127 369.566 Q553.244 369.426 553.572 369.426 Q554.134 369.426 554.134 369.894 Z" fill="#000000" fill-rule="evenodd" fill-opacity="1" /><path clip-path="url(#clip300)" d="M559.011 345.19 Q559.011 344.19 559.585 343.715 Q560.159 343.239 560.897 343.239 Q561.667 343.239 562.208 343.747 Q562.766 344.239 562.766 345.108 Q562.766 346.043 562.11 346.568 Q561.47 347.092 560.552 346.961 Q561.356 348.305 562.831 348.912 Q564.323 349.519 565.701 349.519 Q567.143 349.519 568.307 348.273 Q569.488 347.027 569.488 343.977 Q569.488 341.386 568.471 339.894 Q567.471 338.402 565.487 338.402 L564.012 338.402 Q563.504 338.402 563.356 338.353 Q563.208 338.304 563.208 338.025 Q563.208 337.697 563.717 337.632 Q564.225 337.632 565.028 337.534 Q566.979 337.468 568.012 335.779 Q568.947 334.205 568.947 331.959 Q568.947 329.909 567.963 329.057 Q566.996 328.188 565.733 328.188 Q564.553 328.188 563.258 328.68 Q561.962 329.172 561.257 330.27 Q563.34 330.27 563.34 331.959 Q563.34 332.697 562.864 333.189 Q562.405 333.664 561.634 333.664 Q560.897 333.664 560.405 333.205 Q559.913 332.73 559.913 331.926 Q559.913 330.008 561.618 328.68 Q563.34 327.352 565.865 327.352 Q568.357 327.352 570.193 328.663 Q572.046 329.975 572.046 331.992 Q572.046 333.976 570.734 335.599 Q569.422 337.222 567.34 337.894 Q569.898 338.402 571.423 340.14 Q572.947 341.862 572.947 343.977 Q572.947 346.6 570.882 348.535 Q568.816 350.453 565.799 350.453 Q563.012 350.453 561.011 348.945 Q559.011 347.437 559.011 345.19 Z" fill="#000000" fill-rule="evenodd" fill-opacity="1" /><polyline clip-path="url(#clip300)" style="stroke:#00a9ad; stroke-linecap:butt; stroke-linejoin:round; stroke-width:4; stroke-opacity:1; fill:none" points="
  369.137,404.268 507.529,404.268 
  "/>
<path clip-path="url(#clip300)" d="M554.134 421.498 Q554.134 421.685 553.923 422.411 Q553.712 423.137 553.197 424.262 Q552.705 425.386 552.026 426.417 Q551.347 427.424 550.222 428.173 Q549.121 428.899 547.857 428.899 Q546.17 428.899 545.046 427.775 Q543.922 426.651 543.922 424.964 Q543.922 424.73 543.945 424.496 Q543.968 424.262 543.992 424.121 Q544.015 423.957 544.086 423.7 Q544.179 423.419 544.203 423.301 Q544.25 423.184 544.367 422.833 Q544.507 422.458 544.554 422.318 Q547.529 414.729 547.529 411.567 Q547.529 408.217 544.929 408.217 Q542.61 408.217 540.315 409.904 Q539.261 410.747 538.253 412.246 Q537.246 413.745 537.059 414.307 Q536.848 415.525 536.544 416.462 Q536.403 417.118 535.724 419.671 L534.67 424.004 L533.756 427.635 Q533.569 428.15 533.054 428.525 Q532.538 428.899 531.976 428.899 Q531.508 428.899 531.039 428.571 Q530.594 428.267 530.594 427.541 Q530.594 427.166 530.782 426.487 L537.738 398.848 L537.879 397.911 Q537.879 397.63 537.761 397.49 Q537.668 397.326 537.106 397.209 Q536.567 397.092 535.49 397.092 Q535.044 397.092 534.834 397.068 Q534.646 397.045 534.482 396.928 Q534.318 396.787 534.318 396.506 Q534.318 396.108 534.482 395.897 Q534.67 395.663 534.81 395.616 Q534.951 395.569 535.232 395.546 Q535.63 395.522 536.965 395.405 Q538.3 395.265 539.448 395.171 Q540.596 395.077 541.087 395.077 Q541.369 395.077 541.509 395.218 Q541.673 395.335 541.696 395.476 L541.72 395.593 L537.972 410.841 Q540.947 407.163 545.069 407.163 Q547.739 407.163 549.168 408.545 Q550.597 409.904 550.597 412.293 Q550.597 415.033 547.669 422.833 Q546.803 425.011 546.803 426.253 Q546.803 427.072 547.06 427.447 Q547.341 427.822 547.95 427.822 Q548.887 427.822 549.707 427.283 Q550.55 426.721 551.136 425.808 Q551.721 424.871 552.119 423.934 Q552.541 422.974 552.846 421.896 Q553.033 421.311 553.127 421.17 Q553.244 421.029 553.572 421.029 Q554.134 421.029 554.134 421.498 Z" fill="#000000" fill-rule="evenodd" fill-opacity="1" /><path clip-path="url(#clip300)" d="M559.011 396.622 L559.011 395.589 L569.324 379.833 Q569.586 379.423 569.996 379.439 Q570.373 379.439 570.455 379.587 Q570.537 379.734 570.537 380.308 L570.537 395.589 L573.898 395.589 L573.898 396.622 L570.537 396.622 L570.537 399.54 Q570.537 400.508 570.931 400.819 Q571.341 401.131 573.079 401.131 L573.784 401.131 L573.784 402.164 Q572.406 402.065 569.226 402.065 Q566.061 402.065 564.684 402.164 L564.684 401.131 L565.389 401.131 Q567.127 401.131 567.537 400.836 Q567.947 400.524 567.947 399.54 L567.947 396.622 L559.011 396.622 M559.962 395.589 L568.144 395.589 L568.144 383.063 L559.962 395.589 Z" fill="#000000" fill-rule="evenodd" fill-opacity="1" /></svg>
