<?xml version="1.0" encoding="utf-8"?>
<svg xmlns="http://www.w3.org/2000/svg" xmlns:xlink="http://www.w3.org/1999/xlink" width="600" height="400" viewBox="0 0 2400 1600">
<defs>
  <clipPath id="clip780">
    <rect x="0" y="0" width="2400" height="1600"/>
  </clipPath>
</defs>
<path clip-path="url(#clip780)" d="
M0 1600 L2400 1600 L2400 0 L0 0  Z
  " fill="#ffffff" fill-rule="evenodd" fill-opacity="1"/>
<defs>
  <clipPath id="clip781">
    <rect x="480" y="0" width="1681" height="1600"/>
  </clipPath>
</defs>
<defs>
  <clipPath id="clip782">
    <rect x="213" y="47" width="2140" height="1428"/>
  </clipPath>
</defs>
<path clip-path="url(#clip780)" d="
M213.607 1474.16 L2352.76 1474.16 L2352.76 47.2441 L213.607 47.2441  Z
  " fill="#ffffff" fill-rule="evenodd" fill-opacity="1"/>
<polyline clip-path="url(#clip782)" style="stroke:#000000; stroke-linecap:butt; stroke-linejoin:round; stroke-width:2; stroke-opacity:0.1; fill:none" points="
  366.96,1474.16 366.96,47.2441 
  "/>
<polyline clip-path="url(#clip782)" style="stroke:#000000; stroke-linecap:butt; stroke-linejoin:round; stroke-width:2; stroke-opacity:0.1; fill:none" points="
  1324.65,1474.16 1324.65,47.2441 
  "/>
<polyline clip-path="url(#clip782)" style="stroke:#000000; stroke-linecap:butt; stroke-linejoin:round; stroke-width:2; stroke-opacity:0.1; fill:none" points="
  2282.35,1474.16 2282.35,47.2441 
  "/>
<polyline clip-path="url(#clip780)" style="stroke:#000000; stroke-linecap:butt; stroke-linejoin:round; stroke-width:4; stroke-opacity:1; fill:none" points="
  213.607,1474.16 2352.76,1474.16 
  "/>
<polyline clip-path="url(#clip780)" style="stroke:#000000; stroke-linecap:butt; stroke-linejoin:round; stroke-width:4; stroke-opacity:1; fill:none" points="
  366.96,1474.16 366.96,1455.27 
  "/>
<polyline clip-path="url(#clip780)" style="stroke:#000000; stroke-linecap:butt; stroke-linejoin:round; stroke-width:4; stroke-opacity:1; fill:none" points="
  1324.65,1474.16 1324.65,1455.27 
  "/>
<polyline clip-path="url(#clip780)" style="stroke:#000000; stroke-linecap:butt; stroke-linejoin:round; stroke-width:4; stroke-opacity:1; fill:none" points="
  2282.35,1474.16 2282.35,1455.27 
  "/>
<path clip-path="url(#clip780)" d="M333.287 1552.44 L340.926 1552.44 L340.926 1526.07 L332.616 1527.74 L332.616 1523.48 L340.88 1521.81 L345.556 1521.81 L345.556 1552.44 L353.195 1552.44 L353.195 1556.37 L333.287 1556.37 L333.287 1552.44 Z" fill="#000000" fill-rule="evenodd" fill-opacity="1" /><path clip-path="url(#clip780)" d="M372.639 1524.89 Q369.028 1524.89 367.199 1528.46 Q365.394 1532 365.394 1539.13 Q365.394 1546.23 367.199 1549.8 Q369.028 1553.34 372.639 1553.34 Q376.273 1553.34 378.079 1549.8 Q379.907 1546.23 379.907 1539.13 Q379.907 1532 378.079 1528.46 Q376.273 1524.89 372.639 1524.89 M372.639 1521.19 Q378.449 1521.19 381.505 1525.79 Q384.583 1530.38 384.583 1539.13 Q384.583 1547.85 381.505 1552.46 Q378.449 1557.04 372.639 1557.04 Q366.829 1557.04 363.75 1552.46 Q360.694 1547.85 360.694 1539.13 Q360.694 1530.38 363.75 1525.79 Q366.829 1521.19 372.639 1521.19 Z" fill="#000000" fill-rule="evenodd" fill-opacity="1" /><path clip-path="url(#clip780)" d="M385.129 1525.76 L391.335 1525.76 L391.335 1504.34 L384.583 1505.7 L384.583 1502.24 L391.298 1500.88 L395.097 1500.88 L395.097 1525.76 L401.303 1525.76 L401.303 1528.96 L385.129 1528.96 L385.129 1525.76 Z" fill="#000000" fill-rule="evenodd" fill-opacity="1" /><path clip-path="url(#clip780)" d="M1290.43 1552.44 L1298.07 1552.44 L1298.07 1526.07 L1289.76 1527.74 L1289.76 1523.48 L1298.02 1521.81 L1302.7 1521.81 L1302.7 1552.44 L1310.33 1552.44 L1310.33 1556.37 L1290.43 1556.37 L1290.43 1552.44 Z" fill="#000000" fill-rule="evenodd" fill-opacity="1" /><path clip-path="url(#clip780)" d="M1329.78 1524.89 Q1326.17 1524.89 1324.34 1528.46 Q1322.53 1532 1322.53 1539.13 Q1322.53 1546.23 1324.34 1549.8 Q1326.17 1553.34 1329.78 1553.34 Q1333.41 1553.34 1335.22 1549.8 Q1337.05 1546.23 1337.05 1539.13 Q1337.05 1532 1335.22 1528.46 Q1333.41 1524.89 1329.78 1524.89 M1329.78 1521.19 Q1335.59 1521.19 1338.64 1525.79 Q1341.72 1530.38 1341.72 1539.13 Q1341.72 1547.85 1338.64 1552.46 Q1335.59 1557.04 1329.78 1557.04 Q1323.97 1557.04 1320.89 1552.46 Q1317.83 1547.85 1317.83 1539.13 Q1317.83 1530.38 1320.89 1525.79 Q1323.97 1521.19 1329.78 1521.19 Z" fill="#000000" fill-rule="evenodd" fill-opacity="1" /><path clip-path="url(#clip780)" d="M1346.29 1525.76 L1359.55 1525.76 L1359.55 1528.96 L1341.72 1528.96 L1341.72 1525.76 Q1343.89 1523.53 1347.61 1519.76 Q1351.35 1515.98 1352.31 1514.89 Q1354.14 1512.84 1354.85 1511.43 Q1355.58 1510 1355.58 1508.63 Q1355.58 1506.39 1354 1504.98 Q1352.44 1503.57 1349.92 1503.57 Q1348.14 1503.57 1346.14 1504.19 Q1344.17 1504.81 1341.91 1506.07 L1341.91 1502.24 Q1344.21 1501.31 1346.2 1500.84 Q1348.19 1500.37 1349.85 1500.37 Q1354.21 1500.37 1356.81 1502.56 Q1359.4 1504.74 1359.4 1508.39 Q1359.4 1510.12 1358.74 1511.68 Q1358.11 1513.22 1356.39 1515.33 Q1355.92 1515.87 1353.4 1518.49 Q1350.88 1521.08 1346.29 1525.76 Z" fill="#000000" fill-rule="evenodd" fill-opacity="1" /><path clip-path="url(#clip780)" d="M2247.79 1552.44 L2255.43 1552.44 L2255.43 1526.07 L2247.12 1527.74 L2247.12 1523.48 L2255.39 1521.81 L2260.06 1521.81 L2260.06 1552.44 L2267.7 1552.44 L2267.7 1556.37 L2247.79 1556.37 L2247.79 1552.44 Z" fill="#000000" fill-rule="evenodd" fill-opacity="1" /><path clip-path="url(#clip780)" d="M2287.15 1524.89 Q2283.53 1524.89 2281.71 1528.46 Q2279.9 1532 2279.9 1539.13 Q2279.9 1546.23 2281.71 1549.8 Q2283.53 1553.34 2287.15 1553.34 Q2290.78 1553.34 2292.58 1549.8 Q2294.41 1546.23 2294.41 1539.13 Q2294.41 1532 2292.58 1528.46 Q2290.78 1524.89 2287.15 1524.89 M2287.15 1521.19 Q2292.96 1521.19 2296.01 1525.79 Q2299.09 1530.38 2299.09 1539.13 Q2299.09 1547.85 2296.01 1552.46 Q2292.96 1557.04 2287.15 1557.04 Q2281.33 1557.04 2278.26 1552.46 Q2275.2 1547.85 2275.2 1539.13 Q2275.2 1530.38 2278.26 1525.79 Q2281.33 1521.19 2287.15 1521.19 Z" fill="#000000" fill-rule="evenodd" fill-opacity="1" /><path clip-path="url(#clip780)" d="M2311.78 1513.82 Q2314.51 1514.4 2316.04 1516.25 Q2317.58 1518.09 2317.58 1520.8 Q2317.58 1524.96 2314.72 1527.23 Q2311.86 1529.51 2306.59 1529.51 Q2304.83 1529.51 2302.94 1529.15 Q2301.08 1528.81 2299.09 1528.12 L2299.09 1524.45 Q2300.67 1525.37 2302.55 1525.84 Q2304.43 1526.31 2306.48 1526.31 Q2310.05 1526.31 2311.92 1524.9 Q2313.8 1523.49 2313.8 1520.8 Q2313.8 1518.32 2312.05 1516.92 Q2310.32 1515.51 2307.21 1515.51 L2303.94 1515.51 L2303.94 1512.39 L2307.36 1512.39 Q2310.17 1512.39 2311.65 1511.28 Q2313.14 1510.15 2313.14 1508.05 Q2313.14 1505.88 2311.6 1504.74 Q2310.07 1503.57 2307.21 1503.57 Q2305.65 1503.57 2303.87 1503.91 Q2302.08 1504.25 2299.94 1504.96 L2299.94 1501.58 Q2302.1 1500.98 2303.98 1500.67 Q2305.88 1500.37 2307.55 1500.37 Q2311.88 1500.37 2314.4 1502.35 Q2316.92 1504.3 2316.92 1507.65 Q2316.92 1509.98 2315.58 1511.6 Q2314.25 1513.2 2311.78 1513.82 Z" fill="#000000" fill-rule="evenodd" fill-opacity="1" /><polyline clip-path="url(#clip782)" style="stroke:#000000; stroke-linecap:butt; stroke-linejoin:round; stroke-width:2; stroke-opacity:0.1; fill:none" points="
  213.607,1211.28 2352.76,1211.28 
  "/>
<polyline clip-path="url(#clip782)" style="stroke:#000000; stroke-linecap:butt; stroke-linejoin:round; stroke-width:2; stroke-opacity:0.1; fill:none" points="
  213.607,666.242 2352.76,666.242 
  "/>
<polyline clip-path="url(#clip782)" style="stroke:#000000; stroke-linecap:butt; stroke-linejoin:round; stroke-width:2; stroke-opacity:0.1; fill:none" points="
  213.607,121.208 2352.76,121.208 
  "/>
<polyline clip-path="url(#clip780)" style="stroke:#000000; stroke-linecap:butt; stroke-linejoin:round; stroke-width:4; stroke-opacity:1; fill:none" points="
  213.607,1474.16 213.607,47.2441 
  "/>
<polyline clip-path="url(#clip780)" style="stroke:#000000; stroke-linecap:butt; stroke-linejoin:round; stroke-width:4; stroke-opacity:1; fill:none" points="
  213.607,1211.28 232.505,1211.28 
  "/>
<polyline clip-path="url(#clip780)" style="stroke:#000000; stroke-linecap:butt; stroke-linejoin:round; stroke-width:4; stroke-opacity:1; fill:none" points="
  213.607,666.242 232.505,666.242 
  "/>
<polyline clip-path="url(#clip780)" style="stroke:#000000; stroke-linecap:butt; stroke-linejoin:round; stroke-width:4; stroke-opacity:1; fill:none" points="
  213.607,121.208 232.505,121.208 
  "/>
<path clip-path="url(#clip780)" d="M51.6634 1231.07 L59.3023 1231.07 L59.3023 1204.7 L50.9921 1206.37 L50.9921 1202.11 L59.256 1200.44 L63.9319 1200.44 L63.9319 1231.07 L71.5707 1231.07 L71.5707 1235 L51.6634 1235 L51.6634 1231.07 Z" fill="#000000" fill-rule="evenodd" fill-opacity="1" /><path clip-path="url(#clip780)" d="M91.0151 1203.52 Q87.404 1203.52 85.5753 1207.09 Q83.7697 1210.63 83.7697 1217.76 Q83.7697 1224.86 85.5753 1228.43 Q87.404 1231.97 91.0151 1231.97 Q94.6493 1231.97 96.4548 1228.43 Q98.2835 1224.86 98.2835 1217.76 Q98.2835 1210.63 96.4548 1207.09 Q94.6493 1203.52 91.0151 1203.52 M91.0151 1199.82 Q96.8252 1199.82 99.8808 1204.42 Q102.959 1209.01 102.959 1217.76 Q102.959 1226.48 99.8808 1231.09 Q96.8252 1235.67 91.0151 1235.67 Q85.2049 1235.67 82.1262 1231.09 Q79.0707 1226.48 79.0707 1217.76 Q79.0707 1209.01 82.1262 1204.42 Q85.2049 1199.82 91.0151 1199.82 Z" fill="#000000" fill-rule="evenodd" fill-opacity="1" /><path clip-path="url(#clip780)" d="M102.959 1193.92 L127.071 1193.92 L127.071 1197.12 L102.959 1197.12 L102.959 1193.92 Z" fill="#000000" fill-rule="evenodd" fill-opacity="1" /><path clip-path="url(#clip780)" d="M135.929 1204.4 L142.136 1204.4 L142.136 1182.97 L135.384 1184.33 L135.384 1180.87 L142.098 1179.51 L145.898 1179.51 L145.898 1204.4 L152.104 1204.4 L152.104 1207.59 L135.929 1207.59 L135.929 1204.4 Z" fill="#000000" fill-rule="evenodd" fill-opacity="1" /><path clip-path="url(#clip780)" d="M167.903 1182.01 Q164.969 1182.01 163.483 1184.91 Q162.016 1187.79 162.016 1193.58 Q162.016 1199.35 163.483 1202.25 Q164.969 1205.13 167.903 1205.13 Q170.855 1205.13 172.322 1202.25 Q173.808 1199.35 173.808 1193.58 Q173.808 1187.79 172.322 1184.91 Q170.855 1182.01 167.903 1182.01 M167.903 1179 Q172.623 1179 175.106 1182.75 Q177.607 1186.47 177.607 1193.58 Q177.607 1200.67 175.106 1204.41 Q172.623 1208.14 167.903 1208.14 Q163.182 1208.14 160.68 1204.41 Q158.198 1200.67 158.198 1193.58 Q158.198 1186.47 160.68 1182.75 Q163.182 1179 167.903 1179 Z" fill="#000000" fill-rule="evenodd" fill-opacity="1" /><path clip-path="url(#clip780)" d="M76.9787 686.034 L84.6175 686.034 L84.6175 659.669 L76.3074 661.335 L76.3074 657.076 L84.5712 655.409 L89.2471 655.409 L89.2471 686.034 L96.886 686.034 L96.886 689.969 L76.9787 689.969 L76.9787 686.034 Z" fill="#000000" fill-rule="evenodd" fill-opacity="1" /><path clip-path="url(#clip780)" d="M116.33 658.488 Q112.719 658.488 110.891 662.053 Q109.085 665.594 109.085 672.724 Q109.085 679.831 110.891 683.395 Q112.719 686.937 116.33 686.937 Q119.965 686.937 121.77 683.395 Q123.599 679.831 123.599 672.724 Q123.599 665.594 121.77 662.053 Q119.965 658.488 116.33 658.488 M116.33 654.784 Q122.14 654.784 125.196 659.391 Q128.275 663.974 128.275 672.724 Q128.275 681.451 125.196 686.057 Q122.14 690.641 116.33 690.641 Q110.52 690.641 107.441 686.057 Q104.386 681.451 104.386 672.724 Q104.386 663.974 107.441 659.391 Q110.52 654.784 116.33 654.784 Z" fill="#000000" fill-rule="evenodd" fill-opacity="1" /><path clip-path="url(#clip780)" d="M128.275 648.886 L152.386 648.886 L152.386 652.083 L128.275 652.083 L128.275 648.886 Z" fill="#000000" fill-rule="evenodd" fill-opacity="1" /><path clip-path="url(#clip780)" d="M160.624 634.479 L175.539 634.479 L175.539 637.676 L164.103 637.676 L164.103 644.56 Q164.931 644.278 165.759 644.146 Q166.586 643.996 167.414 643.996 Q172.116 643.996 174.862 646.572 Q177.607 649.149 177.607 653.55 Q177.607 658.083 174.786 660.603 Q171.965 663.104 166.831 663.104 Q165.063 663.104 163.22 662.803 Q161.395 662.503 159.439 661.901 L159.439 658.083 Q161.132 659.004 162.937 659.456 Q164.743 659.907 166.755 659.907 Q170.009 659.907 171.909 658.196 Q173.808 656.484 173.808 653.55 Q173.808 650.616 171.909 648.905 Q170.009 647.193 166.755 647.193 Q165.232 647.193 163.709 647.532 Q162.204 647.87 160.624 648.585 L160.624 634.479 Z" fill="#000000" fill-rule="evenodd" fill-opacity="1" /><path clip-path="url(#clip780)" d="M106.902 141 L114.541 141 L114.541 114.635 L106.231 116.301 L106.231 112.042 L114.494 110.376 L119.17 110.376 L119.17 141 L126.809 141 L126.809 144.936 L106.902 144.936 L106.902 141 Z" fill="#000000" fill-rule="evenodd" fill-opacity="1" /><path clip-path="url(#clip780)" d="M146.253 113.454 Q142.642 113.454 140.814 117.019 Q139.008 120.561 139.008 127.69 Q139.008 134.797 140.814 138.362 Q142.642 141.903 146.253 141.903 Q149.888 141.903 151.693 138.362 Q153.522 134.797 153.522 127.69 Q153.522 120.561 151.693 117.019 Q149.888 113.454 146.253 113.454 M146.253 109.751 Q152.064 109.751 155.119 114.357 Q158.198 118.94 158.198 127.69 Q158.198 136.417 155.119 141.024 Q152.064 145.607 146.253 145.607 Q140.443 145.607 137.365 141.024 Q134.309 136.417 134.309 127.69 Q134.309 118.94 137.365 114.357 Q140.443 109.751 146.253 109.751 Z" fill="#000000" fill-rule="evenodd" fill-opacity="1" /><path clip-path="url(#clip780)" d="M167.903 91.9466 Q164.969 91.9466 163.483 94.843 Q162.016 97.7206 162.016 103.513 Q162.016 109.287 163.483 112.184 Q164.969 115.061 167.903 115.061 Q170.855 115.061 172.322 112.184 Q173.808 109.287 173.808 103.513 Q173.808 97.7206 172.322 94.843 Q170.855 91.9466 167.903 91.9466 M167.903 88.9373 Q172.623 88.9373 175.106 92.6801 Q177.607 96.404 177.607 103.513 Q177.607 110.604 175.106 114.347 Q172.623 118.071 167.903 118.071 Q163.182 118.071 160.68 114.347 Q158.198 110.604 158.198 103.513 Q158.198 96.404 160.68 92.6801 Q163.182 88.9373 167.903 88.9373 Z" fill="#000000" fill-rule="evenodd" fill-opacity="1" /><polyline clip-path="url(#clip782)" style="stroke:#009af9; stroke-linecap:butt; stroke-linejoin:round; stroke-width:4; stroke-opacity:1; fill:none" points="
  274.149,87.6286 562.444,362.384 850.739,474.89 1139.03,600.024 1427.33,731.538 1715.62,863.403 2003.92,995.055 2292.21,1120.29 
  "/>
<circle clip-path="url(#clip782)" cx="274.149" cy="87.6286" r="14" fill="#009af9" fill-rule="evenodd" fill-opacity="1" stroke="#000000" stroke-opacity="1" stroke-width="3.2"/>
<circle clip-path="url(#clip782)" cx="562.444" cy="362.384" r="14" fill="#009af9" fill-rule="evenodd" fill-opacity="1" stroke="#000000" stroke-opacity="1" stroke-width="3.2"/>
<circle clip-path="url(#clip782)" cx="850.739" cy="474.89" r="14" fill="#009af9" fill-rule="evenodd" fill-opacity="1" stroke="#000000" stroke-opacity="1" stroke-width="3.2"/>
<circle clip-path="url(#clip782)" cx="1139.03" cy="600.024" r="14" fill="#009af9" fill-rule="evenodd" fill-opacity="1" stroke="#000000" stroke-opacity="1" stroke-width="3.2"/>
<circle clip-path="url(#clip782)" cx="1427.33" cy="731.538" r="14" fill="#009af9" fill-rule="evenodd" fill-opacity="1" stroke="#000000" stroke-opacity="1" stroke-width="3.2"/>
<circle clip-path="url(#clip782)" cx="1715.62" cy="863.403" r="14" fill="#009af9" fill-rule="evenodd" fill-opacity="1" stroke="#000000" stroke-opacity="1" stroke-width="3.2"/>
<circle clip-path="url(#clip782)" cx="2003.92" cy="995.055" r="14" fill="#009af9" fill-rule="evenodd" fill-opacity="1" stroke="#000000" stroke-opacity="1" stroke-width="3.2"/>
<circle clip-path="url(#clip782)" cx="2292.21" cy="1120.29" r="14" fill="#009af9" fill-rule="evenodd" fill-opacity="1" stroke="#000000" stroke-opacity="1" stroke-width="3.2"/>
<polyline clip-path="url(#clip782)" style="stroke:#e26f46; stroke-linecap:butt; stroke-linejoin:round; stroke-width:4; stroke-opacity:1; fill:none" points="
  274.149,318.094 289.965,321.694 305.202,325.163 319.899,328.508 334.096,331.74 347.823,334.865 361.112,337.89 373.989,340.822 386.48,343.665 410.39,349.108 
  432.999,354.255 454.442,359.136 474.834,363.778 494.273,368.204 512.843,372.431 530.62,376.478 547.668,380.359 564.045,384.087 579.801,387.674 594.982,391.129 
  609.628,394.464 641.632,401.749 671.349,408.514 699.083,414.827 725.083,420.746 772.662,431.577 815.353,441.295 889.482,458.171 952.377,472.488 1055.27,495.912 
  1137.69,514.674 1265.44,543.755 1363.03,565.971 1456.3,587.203 1532.43,604.535 1587.45,617.059 1636.04,628.119 1725.34,648.449 1793.53,663.972 1856.02,678.196 
  1918.33,692.381 1966.82,703.419 2005.13,712.141 2043.24,720.816 2078.34,728.807 2113.99,736.922 2145.29,744.047 2175.51,750.927 2199.35,756.355 2226.72,762.585 
  2250.9,768.09 2286.94,776.293 2292.21,777.494 
  "/>
<polyline clip-path="url(#clip782)" style="stroke:#3da44d; stroke-linecap:butt; stroke-linejoin:round; stroke-width:4; stroke-opacity:1; fill:none" points="
  274.149,514.98 609.628,667.719 1363.03,1010.73 1532.43,1087.86 1636.04,1135.03 1725.34,1175.69 1793.53,1206.74 1856.02,1235.18 1918.33,1263.55 1966.82,1285.63 
  2005.13,1303.07 2043.24,1320.42 2078.34,1336.41 2113.99,1352.64 2145.29,1366.89 2175.51,1380.65 2199.35,1391.5 2226.72,1403.96 2250.9,1414.97 2286.94,1431.38 
  2292.21,1433.78 
  "/>
<path clip-path="url(#clip780)" d="
M1945.56 302.168 L2281.45 302.168 L2281.45 94.8081 L1945.56 94.8081  Z
  " fill="#ffffff" fill-rule="evenodd" fill-opacity="1"/>
<polyline clip-path="url(#clip780)" style="stroke:#000000; stroke-linecap:butt; stroke-linejoin:round; stroke-width:4; stroke-opacity:1; fill:none" points="
  1945.56,302.168 2281.45,302.168 2281.45,94.8081 1945.56,94.8081 1945.56,302.168 
  "/>
<polyline clip-path="url(#clip780)" style="stroke:#009af9; stroke-linecap:butt; stroke-linejoin:round; stroke-width:4; stroke-opacity:1; fill:none" points="
  1969.33,146.648 2111.94,146.648 
  "/>
<circle clip-path="url(#clip780)" cx="2040.63" cy="146.648" r="23" fill="#009af9" fill-rule="evenodd" fill-opacity="1" stroke="#000000" stroke-opacity="1" stroke-width="5.12"/>
<path clip-path="url(#clip780)" d="M2149.55 166.336 Q2147.74 170.965 2146.03 172.377 Q2144.32 173.789 2141.45 173.789 L2138.05 173.789 L2138.05 170.224 L2140.55 170.224 Q2142.3 170.224 2143.28 169.391 Q2144.25 168.558 2145.43 165.456 L2146.19 163.511 L2135.71 138.002 L2140.22 138.002 L2148.32 158.28 L2156.42 138.002 L2160.94 138.002 L2149.55 166.336 Z" fill="#000000" fill-rule="evenodd" fill-opacity="1" /><path clip-path="url(#clip780)" d="M2168.23 159.993 L2175.87 159.993 L2175.87 133.627 L2167.56 135.294 L2167.56 131.035 L2175.82 129.368 L2180.5 129.368 L2180.5 159.993 L2188.14 159.993 L2188.14 163.928 L2168.23 163.928 L2168.23 159.993 Z" fill="#000000" fill-rule="evenodd" fill-opacity="1" /><polyline clip-path="url(#clip780)" style="stroke:#e26f46; stroke-linecap:butt; stroke-linejoin:round; stroke-width:4; stroke-opacity:1; fill:none" points="
  1969.33,198.488 2111.94,198.488 
  "/>
<path clip-path="url(#clip780)" d="M2135.71 183.461 L2135.71 181.962 Q2141.47 181.962 2144.44 178.893 Q2145.26 178.893 2145.4 179.081 Q2145.54 179.268 2145.54 180.135 L2145.54 207.047 Q2145.54 208.476 2146.25 208.921 Q2146.95 209.366 2150.02 209.366 L2151.54 209.366 L2151.54 210.842 Q2149.85 210.701 2143.76 210.701 Q2137.67 210.701 2136.01 210.842 L2136.01 209.366 L2137.53 209.366 Q2140.56 209.366 2141.28 208.944 Q2142.01 208.499 2142.01 207.047 L2142.01 182.196 Q2139.5 183.461 2135.71 183.461 Z" fill="#000000" fill-rule="evenodd" fill-opacity="1" /><path clip-path="url(#clip780)" d="M2159.46 222.155 Q2159.46 221.92 2159.64 221.405 L2176.58 176.153 Q2176.58 176.106 2176.7 175.848 Q2176.81 175.591 2176.88 175.427 Q2176.95 175.24 2177.09 175.099 Q2177.26 174.958 2177.45 174.958 Q2177.91 174.958 2177.91 175.544 Q2177.91 175.591 2177.77 176.153 L2160.79 221.452 Q2160.51 222.272 2160.32 222.506 Q2160.16 222.74 2159.88 222.74 Q2159.46 222.74 2159.46 222.155 Z" fill="#000000" fill-rule="evenodd" fill-opacity="1" /><path clip-path="url(#clip780)" d="M2209.21 203.979 Q2209.21 204.166 2209 204.892 Q2208.78 205.618 2208.27 206.743 Q2207.78 207.867 2207.1 208.898 Q2206.42 209.905 2205.29 210.654 Q2204.19 211.38 2202.93 211.38 Q2201.24 211.38 2200.12 210.256 Q2198.99 209.132 2198.99 207.445 Q2198.99 206.508 2199.49 205.22 Q2202.6 196.905 2202.6 194.048 Q2202.6 190.698 2200 190.698 Q2198.71 190.698 2197.49 191.19 Q2196.3 191.659 2195.48 192.314 Q2194.66 192.97 2193.91 193.884 Q2193.19 194.774 2192.81 195.383 Q2192.46 195.968 2192.18 196.554 L2191.57 198.943 Q2191.43 199.599 2190.75 202.152 L2189.7 206.485 Q2188.95 209.717 2188.78 210.022 Q2188.55 210.678 2188.03 211.029 Q2187.52 211.38 2187 211.38 Q2186.42 211.38 2186.02 211.029 Q2185.62 210.678 2185.62 210.069 Q2185.62 209.975 2185.69 209.624 Q2185.76 209.272 2185.88 208.78 Q2185.99 208.289 2186.04 208.008 L2188.83 196.929 Q2189.34 194.914 2189.46 194.282 Q2189.6 193.626 2189.6 192.9 Q2189.6 190.698 2188.1 190.698 Q2186.88 190.698 2186.09 192.151 Q2185.29 193.603 2184.61 196.413 Q2184.4 197.186 2184.26 197.35 Q2184.14 197.514 2183.79 197.514 Q2183.21 197.491 2183.21 197.022 Q2183.21 196.905 2183.39 196.132 Q2183.58 195.359 2183.93 194.259 Q2184.31 193.134 2184.66 192.385 Q2184.96 191.823 2185.13 191.565 Q2185.32 191.284 2185.76 190.745 Q2186.23 190.183 2186.84 189.925 Q2187.47 189.644 2188.24 189.644 Q2189.98 189.644 2191.24 190.769 Q2192.51 191.869 2192.67 193.814 Q2195.78 189.644 2200.14 189.644 Q2202.72 189.644 2204.19 191.003 Q2205.67 192.361 2205.67 194.774 Q2205.67 195.336 2205.55 196.062 Q2205.46 196.765 2205.22 197.655 Q2205.01 198.545 2204.83 199.224 Q2204.64 199.903 2204.26 201.004 Q2203.89 202.082 2203.73 202.55 Q2203.56 203.019 2203.16 204.119 Q2202.79 205.197 2202.74 205.314 Q2201.87 207.492 2201.87 208.734 Q2201.87 209.553 2202.13 209.928 Q2202.41 210.303 2203.02 210.303 Q2204.66 210.303 2205.88 208.687 Q2207.12 207.047 2207.92 204.377 Q2208.11 203.791 2208.2 203.651 Q2208.32 203.51 2208.64 203.51 Q2209.21 203.51 2209.21 203.979 Z" fill="#000000" fill-rule="evenodd" fill-opacity="1" /><path clip-path="url(#clip780)" d="M2214.06 196.502 Q2214.06 195.895 2214.11 195.715 Q2214.18 195.534 2214.44 195.256 L2220.88 188.074 Q2224.41 184.107 2224.41 180.647 Q2224.41 178.401 2223.23 176.794 Q2222.06 175.187 2219.91 175.187 Q2218.44 175.187 2217.19 176.089 Q2215.95 176.991 2215.37 178.598 Q2215.47 178.565 2215.82 178.565 Q2216.65 178.565 2217.11 179.09 Q2217.59 179.614 2217.59 180.319 Q2217.59 181.221 2217 181.664 Q2216.42 182.09 2215.85 182.09 Q2215.62 182.09 2215.31 182.041 Q2215.01 181.992 2214.54 181.533 Q2214.06 181.057 2214.06 180.221 Q2214.06 177.876 2215.83 176.007 Q2217.62 174.138 2220.34 174.138 Q2223.42 174.138 2225.44 175.974 Q2227.47 177.794 2227.47 180.647 Q2227.47 181.647 2227.16 182.565 Q2226.87 183.467 2226.46 184.172 Q2226.06 184.877 2224.98 186.009 Q2223.9 187.14 2223.03 187.943 Q2222.16 188.747 2220.21 190.452 L2216.65 193.911 L2222.7 193.911 Q2225.65 193.911 2225.88 193.649 Q2226.21 193.173 2226.62 190.665 L2227.47 190.665 L2226.52 196.502 L2214.06 196.502 Z" fill="#000000" fill-rule="evenodd" fill-opacity="1" /><polyline clip-path="url(#clip780)" style="stroke:#3da44d; stroke-linecap:butt; stroke-linejoin:round; stroke-width:4; stroke-opacity:1; fill:none" points="
  1969.33,250.328 2111.94,250.328 
  "/>
<path clip-path="url(#clip780)" d="M2135.71 235.431 L2135.71 233.932 Q2141.47 233.932 2144.44 230.864 Q2145.26 230.864 2145.4 231.051 Q2145.54 231.238 2145.54 232.105 L2145.54 259.017 Q2145.54 260.446 2146.25 260.891 Q2146.95 261.336 2150.02 261.336 L2151.54 261.336 L2151.54 262.812 Q2149.85 262.671 2143.76 262.671 Q2137.67 262.671 2136.01 262.812 L2136.01 261.336 L2137.53 261.336 Q2140.56 261.336 2141.28 260.915 Q2142.01 260.47 2142.01 259.017 L2142.01 234.166 Q2139.5 235.431 2135.71 235.431 Z" fill="#000000" fill-rule="evenodd" fill-opacity="1" /><path clip-path="url(#clip780)" d="M2159.46 274.125 Q2159.46 273.891 2159.64 273.375 L2176.58 228.123 Q2176.58 228.076 2176.7 227.819 Q2176.81 227.561 2176.88 227.397 Q2176.95 227.21 2177.09 227.069 Q2177.26 226.929 2177.45 226.929 Q2177.91 226.929 2177.91 227.514 Q2177.91 227.561 2177.77 228.123 L2160.79 273.422 Q2160.51 274.242 2160.32 274.476 Q2160.16 274.71 2159.88 274.71 Q2159.46 274.71 2159.46 274.125 Z" fill="#000000" fill-rule="evenodd" fill-opacity="1" /><path clip-path="url(#clip780)" d="M2209.21 255.949 Q2209.21 256.136 2209 256.862 Q2208.78 257.589 2208.27 258.713 Q2207.78 259.837 2207.1 260.868 Q2206.42 261.875 2205.29 262.624 Q2204.19 263.351 2202.93 263.351 Q2201.24 263.351 2200.12 262.226 Q2198.99 261.102 2198.99 259.416 Q2198.99 258.479 2199.49 257.19 Q2202.6 248.875 2202.6 246.018 Q2202.6 242.668 2200 242.668 Q2198.71 242.668 2197.49 243.16 Q2196.3 243.629 2195.48 244.285 Q2194.66 244.94 2193.91 245.854 Q2193.19 246.744 2192.81 247.353 Q2192.46 247.939 2192.18 248.524 L2191.57 250.913 Q2191.43 251.569 2190.75 254.122 L2189.7 258.455 Q2188.95 261.688 2188.78 261.992 Q2188.55 262.648 2188.03 262.999 Q2187.52 263.351 2187 263.351 Q2186.42 263.351 2186.02 262.999 Q2185.62 262.648 2185.62 262.039 Q2185.62 261.945 2185.69 261.594 Q2185.76 261.242 2185.88 260.751 Q2185.99 260.259 2186.04 259.978 L2188.83 248.899 Q2189.34 246.885 2189.46 246.252 Q2189.6 245.596 2189.6 244.87 Q2189.6 242.668 2188.1 242.668 Q2186.88 242.668 2186.09 244.121 Q2185.29 245.573 2184.61 248.384 Q2184.4 249.157 2184.26 249.32 Q2184.14 249.484 2183.79 249.484 Q2183.21 249.461 2183.21 248.993 Q2183.21 248.875 2183.39 248.102 Q2183.58 247.33 2183.93 246.229 Q2184.31 245.104 2184.66 244.355 Q2184.96 243.793 2185.13 243.535 Q2185.32 243.254 2185.76 242.715 Q2186.23 242.153 2186.84 241.896 Q2187.47 241.614 2188.24 241.614 Q2189.98 241.614 2191.24 242.739 Q2192.51 243.84 2192.67 245.784 Q2195.78 241.614 2200.14 241.614 Q2202.72 241.614 2204.19 242.973 Q2205.67 244.331 2205.67 246.744 Q2205.67 247.306 2205.55 248.032 Q2205.46 248.735 2205.22 249.625 Q2205.01 250.515 2204.83 251.194 Q2204.64 251.874 2204.26 252.974 Q2203.89 254.052 2203.73 254.52 Q2203.56 254.989 2203.16 256.09 Q2202.79 257.167 2202.74 257.284 Q2201.87 259.462 2201.87 260.704 Q2201.87 261.524 2202.13 261.898 Q2202.41 262.273 2203.02 262.273 Q2204.66 262.273 2205.88 260.657 Q2207.12 259.017 2207.92 256.347 Q2208.11 255.762 2208.2 255.621 Q2208.32 255.481 2208.64 255.481 Q2209.21 255.481 2209.21 255.949 Z" fill="#000000" fill-rule="evenodd" fill-opacity="1" /><path clip-path="url(#clip780)" d="M2214.06 243.042 L2214.06 242.009 L2224.37 226.253 Q2224.64 225.843 2225.05 225.859 Q2225.42 225.859 2225.51 226.007 Q2225.59 226.154 2225.59 226.728 L2225.59 242.009 L2228.95 242.009 L2228.95 243.042 L2225.59 243.042 L2225.59 245.96 Q2225.59 246.928 2225.98 247.239 Q2226.39 247.551 2228.13 247.551 L2228.83 247.551 L2228.83 248.584 Q2227.46 248.485 2224.28 248.485 Q2221.11 248.485 2219.73 248.584 L2219.73 247.551 L2220.44 247.551 Q2222.18 247.551 2222.59 247.255 Q2223 246.944 2223 245.96 L2223 243.042 L2214.06 243.042 M2215.01 242.009 L2223.19 242.009 L2223.19 229.483 L2215.01 242.009 Z" fill="#000000" fill-rule="evenodd" fill-opacity="1" /></svg>
