<?xml version="1.0" encoding="utf-8"?>
<svg xmlns="http://www.w3.org/2000/svg" xmlns:xlink="http://www.w3.org/1999/xlink" width="600" height="400" viewBox="0 0 2400 1600">
<defs>
  <clipPath id="clip530">
    <rect x="0" y="0" width="2400" height="1600"/>
  </clipPath>
</defs>
<path clip-path="url(#clip530)" d="
M0 1600 L2400 1600 L2400 0 L0 0  Z
  " fill="#ffffff" fill-rule="evenodd" fill-opacity="1"/>
<defs>
  <clipPath id="clip531">
    <rect x="480" y="0" width="1681" height="1600"/>
  </clipPath>
</defs>
<path clip-path="url(#clip530)" d="
M189.233 1474.16 L2352.76 1474.16 L2352.76 47.2441 L189.233 47.2441  Z
  " fill="#ffffff" fill-rule="evenodd" fill-opacity="1"/>
<defs>
  <clipPath id="clip532">
    <rect x="189" y="47" width="2165" height="1428"/>
  </clipPath>
</defs>
<polyline clip-path="url(#clip532)" style="stroke:#000000; stroke-linecap:butt; stroke-linejoin:round; stroke-width:2; stroke-opacity:0.1; fill:none" points="
  260.441,1474.16 260.441,47.2441 
  "/>
<polyline clip-path="url(#clip532)" style="stroke:#000000; stroke-linecap:butt; stroke-linejoin:round; stroke-width:2; stroke-opacity:0.1; fill:none" points="
  1229.05,1474.16 1229.05,47.2441 
  "/>
<polyline clip-path="url(#clip532)" style="stroke:#000000; stroke-linecap:butt; stroke-linejoin:round; stroke-width:2; stroke-opacity:0.1; fill:none" points="
  2197.66,1474.16 2197.66,47.2441 
  "/>
<polyline clip-path="url(#clip530)" style="stroke:#000000; stroke-linecap:butt; stroke-linejoin:round; stroke-width:4; stroke-opacity:1; fill:none" points="
  189.233,1474.16 2352.76,1474.16 
  "/>
<polyline clip-path="url(#clip530)" style="stroke:#000000; stroke-linecap:butt; stroke-linejoin:round; stroke-width:4; stroke-opacity:1; fill:none" points="
  260.441,1474.16 260.441,1455.27 
  "/>
<polyline clip-path="url(#clip530)" style="stroke:#000000; stroke-linecap:butt; stroke-linejoin:round; stroke-width:4; stroke-opacity:1; fill:none" points="
  1229.05,1474.16 1229.05,1455.27 
  "/>
<polyline clip-path="url(#clip530)" style="stroke:#000000; stroke-linecap:butt; stroke-linejoin:round; stroke-width:4; stroke-opacity:1; fill:none" points="
  2197.66,1474.16 2197.66,1455.27 
  "/>
<path clip-path="url(#clip530)" d="M210.321 1548.29 L217.96 1548.29 L217.96 1521.92 L209.65 1523.59 L209.65 1519.33 L217.914 1517.66 L222.59 1517.66 L222.59 1548.29 L230.229 1548.29 L230.229 1552.22 L210.321 1552.22 L210.321 1548.29 Z" fill="#000000" fill-rule="evenodd" fill-opacity="1" /><path clip-path="url(#clip530)" d="M249.673 1520.74 Q246.062 1520.74 244.233 1524.31 Q242.428 1527.85 242.428 1534.98 Q242.428 1542.09 244.233 1545.65 Q246.062 1549.19 249.673 1549.19 Q253.307 1549.19 255.113 1545.65 Q256.941 1542.09 256.941 1534.98 Q256.941 1527.85 255.113 1524.31 Q253.307 1520.74 249.673 1520.74 M249.673 1517.04 Q255.483 1517.04 258.539 1521.65 Q261.617 1526.23 261.617 1534.98 Q261.617 1543.71 258.539 1548.31 Q255.483 1552.9 249.673 1552.9 Q243.863 1552.9 240.784 1548.31 Q237.728 1543.71 237.728 1534.98 Q237.728 1526.23 240.784 1521.65 Q243.863 1517.04 249.673 1517.04 Z" fill="#000000" fill-rule="evenodd" fill-opacity="1" /><path clip-path="url(#clip530)" d="M261.617 1511.14 L285.729 1511.14 L285.729 1514.34 L261.617 1514.34 L261.617 1511.14 Z" fill="#000000" fill-rule="evenodd" fill-opacity="1" /><path clip-path="url(#clip530)" d="M305.439 1509.67 Q308.166 1510.26 309.69 1512.1 Q311.232 1513.94 311.232 1516.65 Q311.232 1520.81 308.373 1523.08 Q305.515 1525.36 300.248 1525.36 Q298.48 1525.36 296.6 1525 Q294.738 1524.66 292.744 1523.97 L292.744 1520.3 Q294.324 1521.22 296.205 1521.69 Q298.085 1522.16 300.136 1522.16 Q303.709 1522.16 305.571 1520.75 Q307.452 1519.34 307.452 1516.65 Q307.452 1514.17 305.703 1512.78 Q303.972 1511.37 300.869 1511.37 L297.596 1511.37 L297.596 1508.24 L301.02 1508.24 Q303.822 1508.24 305.308 1507.13 Q306.793 1506.01 306.793 1503.9 Q306.793 1501.74 305.251 1500.59 Q303.728 1499.42 300.869 1499.42 Q299.308 1499.42 297.521 1499.76 Q295.735 1500.1 293.59 1500.82 L293.59 1497.43 Q295.753 1496.83 297.634 1496.53 Q299.534 1496.23 301.208 1496.23 Q305.533 1496.23 308.054 1498.2 Q310.574 1500.16 310.574 1503.51 Q310.574 1505.84 309.238 1507.45 Q307.903 1509.05 305.439 1509.67 Z" fill="#000000" fill-rule="evenodd" fill-opacity="1" /><path clip-path="url(#clip530)" d="M1179.31 1548.29 L1186.95 1548.29 L1186.95 1521.92 L1178.64 1523.59 L1178.64 1519.33 L1186.91 1517.66 L1191.58 1517.66 L1191.58 1548.29 L1199.22 1548.29 L1199.22 1552.22 L1179.31 1552.22 L1179.31 1548.29 Z" fill="#000000" fill-rule="evenodd" fill-opacity="1" /><path clip-path="url(#clip530)" d="M1218.67 1520.74 Q1215.05 1520.74 1213.23 1524.31 Q1211.42 1527.85 1211.42 1534.98 Q1211.42 1542.09 1213.23 1545.65 Q1215.05 1549.19 1218.67 1549.19 Q1222.3 1549.19 1224.11 1545.65 Q1225.93 1542.09 1225.93 1534.98 Q1225.93 1527.85 1224.11 1524.31 Q1222.3 1520.74 1218.67 1520.74 M1218.67 1517.04 Q1224.48 1517.04 1227.53 1521.65 Q1230.61 1526.23 1230.61 1534.98 Q1230.61 1543.71 1227.53 1548.31 Q1224.48 1552.9 1218.67 1552.9 Q1212.86 1552.9 1209.78 1548.31 Q1206.72 1543.71 1206.72 1534.98 Q1206.72 1526.23 1209.78 1521.65 Q1212.86 1517.04 1218.67 1517.04 Z" fill="#000000" fill-rule="evenodd" fill-opacity="1" /><path clip-path="url(#clip530)" d="M1230.61 1511.14 L1254.72 1511.14 L1254.72 1514.34 L1230.61 1514.34 L1230.61 1511.14 Z" fill="#000000" fill-rule="evenodd" fill-opacity="1" /><path clip-path="url(#clip530)" d="M1266.19 1521.62 L1279.45 1521.62 L1279.45 1524.81 L1261.62 1524.81 L1261.62 1521.62 Q1263.79 1519.38 1267.51 1515.62 Q1271.25 1511.84 1272.21 1510.75 Q1274.04 1508.7 1274.75 1507.29 Q1275.49 1505.86 1275.49 1504.48 Q1275.49 1502.24 1273.91 1500.83 Q1272.34 1499.42 1269.82 1499.42 Q1268.04 1499.42 1266.04 1500.04 Q1264.07 1500.67 1261.81 1501.93 L1261.81 1498.09 Q1264.11 1497.17 1266.1 1496.7 Q1268.09 1496.23 1269.75 1496.23 Q1274.11 1496.23 1276.71 1498.41 Q1279.3 1500.59 1279.3 1504.24 Q1279.3 1505.97 1278.65 1507.53 Q1278.01 1509.07 1276.29 1511.18 Q1275.82 1511.72 1273.3 1514.34 Q1270.78 1516.93 1266.19 1521.62 Z" fill="#000000" fill-rule="evenodd" fill-opacity="1" /><path clip-path="url(#clip530)" d="M2147.77 1548.29 L2155.41 1548.29 L2155.41 1521.92 L2147.1 1523.59 L2147.1 1519.33 L2155.36 1517.66 L2160.04 1517.66 L2160.04 1548.29 L2167.68 1548.29 L2167.68 1552.22 L2147.77 1552.22 L2147.77 1548.29 Z" fill="#000000" fill-rule="evenodd" fill-opacity="1" /><path clip-path="url(#clip530)" d="M2187.12 1520.74 Q2183.51 1520.74 2181.68 1524.31 Q2179.88 1527.85 2179.88 1534.98 Q2179.88 1542.09 2181.68 1545.65 Q2183.51 1549.19 2187.12 1549.19 Q2190.76 1549.19 2192.56 1545.65 Q2194.39 1542.09 2194.39 1534.98 Q2194.39 1527.85 2192.56 1524.31 Q2190.76 1520.74 2187.12 1520.74 M2187.12 1517.04 Q2192.93 1517.04 2195.99 1521.65 Q2199.07 1526.23 2199.07 1534.98 Q2199.07 1543.71 2195.99 1548.31 Q2192.93 1552.9 2187.12 1552.9 Q2181.31 1552.9 2178.23 1548.31 Q2175.18 1543.71 2175.18 1534.98 Q2175.18 1526.23 2178.23 1521.65 Q2181.31 1517.04 2187.12 1517.04 Z" fill="#000000" fill-rule="evenodd" fill-opacity="1" /><path clip-path="url(#clip530)" d="M2199.07 1511.14 L2223.18 1511.14 L2223.18 1514.34 L2199.07 1514.34 L2199.07 1511.14 Z" fill="#000000" fill-rule="evenodd" fill-opacity="1" /><path clip-path="url(#clip530)" d="M2232.04 1521.62 L2238.24 1521.62 L2238.24 1500.19 L2231.49 1501.55 L2231.49 1498.09 L2238.21 1496.73 L2242.01 1496.73 L2242.01 1521.62 L2248.21 1521.62 L2248.21 1524.81 L2232.04 1524.81 L2232.04 1521.62 Z" fill="#000000" fill-rule="evenodd" fill-opacity="1" /><polyline clip-path="url(#clip532)" style="stroke:#000000; stroke-linecap:butt; stroke-linejoin:round; stroke-width:2; stroke-opacity:0.1; fill:none" points="
  189.233,1428.51 2352.76,1428.51 
  "/>
<polyline clip-path="url(#clip532)" style="stroke:#000000; stroke-linecap:butt; stroke-linejoin:round; stroke-width:2; stroke-opacity:0.1; fill:none" points="
  189.233,660.805 2352.76,660.805 
  "/>
<polyline clip-path="url(#clip530)" style="stroke:#000000; stroke-linecap:butt; stroke-linejoin:round; stroke-width:4; stroke-opacity:1; fill:none" points="
  189.233,1474.16 189.233,47.2441 
  "/>
<polyline clip-path="url(#clip530)" style="stroke:#000000; stroke-linecap:butt; stroke-linejoin:round; stroke-width:4; stroke-opacity:1; fill:none" points="
  189.233,1428.51 208.13,1428.51 
  "/>
<polyline clip-path="url(#clip530)" style="stroke:#000000; stroke-linecap:butt; stroke-linejoin:round; stroke-width:4; stroke-opacity:1; fill:none" points="
  189.233,660.805 208.13,660.805 
  "/>
<path clip-path="url(#clip530)" d="M51.6634 1448.3 L59.3023 1448.3 L59.3023 1421.94 L50.9921 1423.6 L50.9921 1419.34 L59.256 1417.68 L63.9319 1417.68 L63.9319 1448.3 L71.5707 1448.3 L71.5707 1452.24 L51.6634 1452.24 L51.6634 1448.3 Z" fill="#000000" fill-rule="evenodd" fill-opacity="1" /><path clip-path="url(#clip530)" d="M91.0151 1420.75 Q87.404 1420.75 85.5753 1424.32 Q83.7697 1427.86 83.7697 1434.99 Q83.7697 1442.1 85.5753 1445.66 Q87.404 1449.2 91.0151 1449.2 Q94.6493 1449.2 96.4548 1445.66 Q98.2835 1442.1 98.2835 1434.99 Q98.2835 1427.86 96.4548 1424.32 Q94.6493 1420.75 91.0151 1420.75 M91.0151 1417.05 Q96.8252 1417.05 99.8808 1421.66 Q102.959 1426.24 102.959 1434.99 Q102.959 1443.72 99.8808 1448.32 Q96.8252 1452.91 91.0151 1452.91 Q85.2049 1452.91 82.1262 1448.32 Q79.0707 1443.72 79.0707 1434.99 Q79.0707 1426.24 82.1262 1421.66 Q85.2049 1417.05 91.0151 1417.05 Z" fill="#000000" fill-rule="evenodd" fill-opacity="1" /><path clip-path="url(#clip530)" d="M102.959 1411.15 L127.071 1411.15 L127.071 1414.35 L102.959 1414.35 L102.959 1411.15 Z" fill="#000000" fill-rule="evenodd" fill-opacity="1" /><path clip-path="url(#clip530)" d="M143.866 1409.27 Q141.308 1409.27 139.804 1411.02 Q138.318 1412.77 138.318 1415.82 Q138.318 1418.84 139.804 1420.61 Q141.308 1422.36 143.866 1422.36 Q146.424 1422.36 147.91 1420.61 Q149.415 1418.84 149.415 1415.82 Q149.415 1412.77 147.91 1411.02 Q146.424 1409.27 143.866 1409.27 M151.408 1397.37 L151.408 1400.83 Q149.979 1400.15 148.512 1399.79 Q147.064 1399.44 145.634 1399.44 Q141.873 1399.44 139.879 1401.97 Q137.904 1404.51 137.622 1409.65 Q138.732 1408.01 140.406 1407.15 Q142.08 1406.26 144.092 1406.26 Q148.324 1406.26 150.769 1408.84 Q153.233 1411.4 153.233 1415.82 Q153.233 1420.14 150.675 1422.76 Q148.117 1425.37 143.866 1425.37 Q138.995 1425.37 136.418 1421.65 Q133.842 1417.9 133.842 1410.81 Q133.842 1404.16 137.002 1400.21 Q140.161 1396.24 145.484 1396.24 Q146.913 1396.24 148.361 1396.52 Q149.828 1396.8 151.408 1397.37 Z" fill="#000000" fill-rule="evenodd" fill-opacity="1" /><path clip-path="url(#clip530)" d="M52.3217 680.598 L59.9605 680.598 L59.9605 654.232 L51.6504 655.899 L51.6504 651.639 L59.9142 649.973 L64.5901 649.973 L64.5901 680.598 L72.229 680.598 L72.229 684.533 L52.3217 684.533 L52.3217 680.598 Z" fill="#000000" fill-rule="evenodd" fill-opacity="1" /><path clip-path="url(#clip530)" d="M91.6733 653.051 Q88.0622 653.051 86.2335 656.616 Q84.428 660.158 84.428 667.287 Q84.428 674.394 86.2335 677.959 Q88.0622 681.5 91.6733 681.5 Q95.3076 681.5 97.1131 677.959 Q98.9418 674.394 98.9418 667.287 Q98.9418 660.158 97.1131 656.616 Q95.3076 653.051 91.6733 653.051 M91.6733 649.348 Q97.4835 649.348 100.539 653.954 Q103.618 658.537 103.618 667.287 Q103.618 676.014 100.539 680.621 Q97.4835 685.204 91.6733 685.204 Q85.8632 685.204 82.7845 680.621 Q79.729 676.014 79.729 667.287 Q79.729 658.537 82.7845 653.954 Q85.8632 649.348 91.6733 649.348 Z" fill="#000000" fill-rule="evenodd" fill-opacity="1" /><path clip-path="url(#clip530)" d="M103.618 643.449 L127.729 643.449 L127.729 646.646 L103.618 646.646 L103.618 643.449 Z" fill="#000000" fill-rule="evenodd" fill-opacity="1" /><path clip-path="url(#clip530)" d="M147.44 641.982 Q150.167 642.565 151.69 644.408 Q153.233 646.251 153.233 648.96 Q153.233 653.116 150.374 655.392 Q147.515 657.668 142.249 657.668 Q140.481 657.668 138.6 657.31 Q136.738 656.972 134.745 656.276 L134.745 652.608 Q136.324 653.53 138.205 654 Q140.086 654.47 142.136 654.47 Q145.71 654.47 147.571 653.06 Q149.452 651.649 149.452 648.96 Q149.452 646.477 147.703 645.085 Q145.973 643.675 142.87 643.675 L139.597 643.675 L139.597 640.553 L143.02 640.553 Q145.822 640.553 147.308 639.443 Q148.794 638.315 148.794 636.208 Q148.794 634.045 147.252 632.898 Q145.728 631.732 142.87 631.732 Q141.308 631.732 139.522 632.07 Q137.735 632.409 135.591 633.124 L135.591 629.738 Q137.754 629.136 139.635 628.835 Q141.534 628.534 143.208 628.534 Q147.534 628.534 150.054 630.509 Q152.574 632.465 152.574 635.813 Q152.574 638.145 151.239 639.763 Q149.904 641.361 147.44 641.982 Z" fill="#000000" fill-rule="evenodd" fill-opacity="1" /><polyline clip-path="url(#clip532)" style="stroke:#009af9; stroke-linecap:butt; stroke-linejoin:round; stroke-width:4; stroke-opacity:1; fill:none" points="
  2291.52,87.6286 1999.94,217.403 1708.36,329.079 1416.78,426.812 1125.2,515.367 833.624,598.516 542.044,678.706 250.464,757.344 
  "/>
<circle clip-path="url(#clip532)" cx="2291.52" cy="87.6286" r="14" fill="#009af9" fill-rule="evenodd" fill-opacity="1" stroke="#000000" stroke-opacity="1" stroke-width="3.2"/>
<circle clip-path="url(#clip532)" cx="1999.94" cy="217.403" r="14" fill="#009af9" fill-rule="evenodd" fill-opacity="1" stroke="#000000" stroke-opacity="1" stroke-width="3.2"/>
<circle clip-path="url(#clip532)" cx="1708.36" cy="329.079" r="14" fill="#009af9" fill-rule="evenodd" fill-opacity="1" stroke="#000000" stroke-opacity="1" stroke-width="3.2"/>
<circle clip-path="url(#clip532)" cx="1416.78" cy="426.812" r="14" fill="#009af9" fill-rule="evenodd" fill-opacity="1" stroke="#000000" stroke-opacity="1" stroke-width="3.2"/>
<circle clip-path="url(#clip532)" cx="1125.2" cy="515.367" r="14" fill="#009af9" fill-rule="evenodd" fill-opacity="1" stroke="#000000" stroke-opacity="1" stroke-width="3.2"/>
<circle clip-path="url(#clip532)" cx="833.624" cy="598.516" r="14" fill="#009af9" fill-rule="evenodd" fill-opacity="1" stroke="#000000" stroke-opacity="1" stroke-width="3.2"/>
<circle clip-path="url(#clip532)" cx="542.044" cy="678.706" r="14" fill="#009af9" fill-rule="evenodd" fill-opacity="1" stroke="#000000" stroke-opacity="1" stroke-width="3.2"/>
<circle clip-path="url(#clip532)" cx="250.464" cy="757.344" r="14" fill="#009af9" fill-rule="evenodd" fill-opacity="1" stroke="#000000" stroke-opacity="1" stroke-width="3.2"/>
<polyline clip-path="url(#clip532)" style="stroke:#e26f46; stroke-linecap:butt; stroke-linejoin:round; stroke-width:4; stroke-opacity:1; fill:none" points="
  2291.52,124.203 1999.94,201.237 1708.36,278.271 1416.78,355.305 1125.2,432.339 833.624,509.373 542.044,586.407 250.464,663.441 
  "/>
<polyline clip-path="url(#clip532)" style="stroke:#3da44d; stroke-linecap:butt; stroke-linejoin:round; stroke-width:4; stroke-opacity:1; fill:none" points="
  2291.52,355.305 1999.94,509.373 1708.36,663.441 1416.78,817.509 1125.2,971.577 833.624,1125.64 542.044,1279.71 250.464,1433.78 
  "/>
<path clip-path="url(#clip530)" d="
M261.35 302.168 L654.125 302.168 L654.125 94.8081 L261.35 94.8081  Z
  " fill="#ffffff" fill-rule="evenodd" fill-opacity="1"/>
<polyline clip-path="url(#clip530)" style="stroke:#000000; stroke-linecap:butt; stroke-linejoin:round; stroke-width:4; stroke-opacity:1; fill:none" points="
  261.35,302.168 654.125,302.168 654.125,94.8081 261.35,94.8081 261.35,302.168 
  "/>
<polyline clip-path="url(#clip530)" style="stroke:#009af9; stroke-linecap:butt; stroke-linejoin:round; stroke-width:4; stroke-opacity:1; fill:none" points="
  285.389,146.648 429.624,146.648 
  "/>
<circle clip-path="url(#clip530)" cx="357.507" cy="146.648" r="23" fill="#009af9" fill-rule="evenodd" fill-opacity="1" stroke="#000000" stroke-opacity="1" stroke-width="5.12"/>
<path clip-path="url(#clip530)" d="M467.506 166.336 Q465.7 170.965 463.987 172.377 Q462.274 173.789 459.404 173.789 L456.001 173.789 L456.001 170.224 L458.501 170.224 Q460.26 170.224 461.233 169.391 Q462.205 168.558 463.385 165.456 L464.149 163.511 L453.663 138.002 L458.177 138.002 L466.279 158.28 L474.381 138.002 L478.895 138.002 L467.506 166.336 Z" fill="#000000" fill-rule="evenodd" fill-opacity="1" /><path clip-path="url(#clip530)" d="M486.186 159.993 L493.825 159.993 L493.825 133.627 L485.515 135.294 L485.515 131.035 L493.779 129.368 L498.455 129.368 L498.455 159.993 L506.094 159.993 L506.094 163.928 L486.186 163.928 L486.186 159.993 Z" fill="#000000" fill-rule="evenodd" fill-opacity="1" /><polyline clip-path="url(#clip530)" style="stroke:#e26f46; stroke-linecap:butt; stroke-linejoin:round; stroke-width:4; stroke-opacity:1; fill:none" points="
  285.389,198.488 429.624,198.488 
  "/>
<path clip-path="url(#clip530)" d="M465.747 222.736 L463.432 222.736 L463.409 215.768 Q460.978 215.722 458.547 215.213 Q456.117 214.68 453.663 213.638 L453.663 209.472 Q456.024 210.953 458.432 211.717 Q460.862 212.458 463.432 212.481 L463.432 201.926 Q458.316 201.092 455.978 199.102 Q453.663 197.111 453.663 193.639 Q453.663 189.865 456.186 187.69 Q458.71 185.514 463.432 185.19 L463.432 179.75 L465.747 179.75 L465.747 185.12 Q467.899 185.213 469.913 185.583 Q471.927 185.93 473.848 186.555 L473.848 190.606 Q471.927 189.634 469.89 189.102 Q467.876 188.569 465.747 188.477 L465.747 198.361 Q471.001 199.171 473.478 201.254 Q475.955 203.338 475.955 206.949 Q475.955 210.861 473.316 213.129 Q470.7 215.375 465.747 215.722 L465.747 222.736 M463.432 197.944 L463.432 188.453 Q460.747 188.754 459.334 189.981 Q457.922 191.208 457.922 193.245 Q457.922 195.236 459.219 196.347 Q460.538 197.458 463.432 197.944 M465.747 202.389 L465.747 212.412 Q468.686 212.018 470.168 210.745 Q471.672 209.472 471.672 207.389 Q471.672 205.352 470.237 204.148 Q468.825 202.944 465.747 202.389 Z" fill="#000000" fill-rule="evenodd" fill-opacity="1" /><path clip-path="url(#clip530)" d="M505.908 200.12 L505.908 215.768 L501.649 215.768 L501.649 200.259 Q501.649 196.578 500.214 194.75 Q498.779 192.921 495.908 192.921 Q492.459 192.921 490.469 195.12 Q488.478 197.319 488.478 201.115 L488.478 215.768 L484.195 215.768 L484.195 179.75 L488.478 179.75 L488.478 193.87 Q490.006 191.532 492.066 190.375 Q494.149 189.217 496.857 189.217 Q501.325 189.217 503.617 191.995 Q505.908 194.75 505.908 200.12 Z" fill="#000000" fill-rule="evenodd" fill-opacity="1" /><path clip-path="url(#clip530)" d="M525.955 222.736 L523.64 222.736 L523.617 215.768 Q521.186 215.722 518.755 215.213 Q516.325 214.68 513.871 213.638 L513.871 209.472 Q516.232 210.953 518.64 211.717 Q521.07 212.458 523.64 212.481 L523.64 201.926 Q518.524 201.092 516.186 199.102 Q513.871 197.111 513.871 193.639 Q513.871 189.865 516.394 187.69 Q518.918 185.514 523.64 185.19 L523.64 179.75 L525.955 179.75 L525.955 185.12 Q528.107 185.213 530.121 185.583 Q532.135 185.93 534.056 186.555 L534.056 190.606 Q532.135 189.634 530.098 189.102 Q528.084 188.569 525.955 188.477 L525.955 198.361 Q531.209 199.171 533.686 201.254 Q536.163 203.338 536.163 206.949 Q536.163 210.861 533.524 213.129 Q530.908 215.375 525.955 215.722 L525.955 222.736 M523.64 197.944 L523.64 188.453 Q520.955 188.754 519.543 189.981 Q518.13 191.208 518.13 193.245 Q518.13 195.236 519.427 196.347 Q520.746 197.458 523.64 197.944 M525.955 202.389 L525.955 212.412 Q528.894 212.018 530.376 210.745 Q531.88 209.472 531.88 207.389 Q531.88 205.352 530.445 204.148 Q529.033 202.944 525.955 202.389 Z" fill="#000000" fill-rule="evenodd" fill-opacity="1" /><polyline clip-path="url(#clip530)" style="stroke:#3da44d; stroke-linecap:butt; stroke-linejoin:round; stroke-width:4; stroke-opacity:1; fill:none" points="
  285.389,250.328 429.624,250.328 
  "/>
<path clip-path="url(#clip530)" d="M465.747 274.576 L463.432 274.576 L463.409 267.608 Q460.978 267.562 458.547 267.053 Q456.117 266.52 453.663 265.478 L453.663 261.312 Q456.024 262.793 458.432 263.557 Q460.862 264.298 463.432 264.321 L463.432 253.766 Q458.316 252.932 455.978 250.942 Q453.663 248.951 453.663 245.479 Q453.663 241.705 456.186 239.53 Q458.71 237.354 463.432 237.03 L463.432 231.59 L465.747 231.59 L465.747 236.96 Q467.899 237.053 469.913 237.423 Q471.927 237.77 473.848 238.395 L473.848 242.446 Q471.927 241.474 469.89 240.942 Q467.876 240.409 465.747 240.317 L465.747 250.201 Q471.001 251.011 473.478 253.094 Q475.955 255.178 475.955 258.789 Q475.955 262.701 473.316 264.969 Q470.7 267.215 465.747 267.562 L465.747 274.576 M463.432 249.784 L463.432 240.293 Q460.747 240.594 459.334 241.821 Q457.922 243.048 457.922 245.085 Q457.922 247.076 459.219 248.187 Q460.538 249.298 463.432 249.784 M465.747 254.229 L465.747 264.252 Q468.686 263.858 470.168 262.585 Q471.672 261.312 471.672 259.229 Q471.672 257.192 470.237 255.988 Q468.825 254.784 465.747 254.229 Z" fill="#000000" fill-rule="evenodd" fill-opacity="1" /><path clip-path="url(#clip530)" d="M505.908 251.96 L505.908 267.608 L501.649 267.608 L501.649 252.099 Q501.649 248.418 500.214 246.59 Q498.779 244.761 495.908 244.761 Q492.459 244.761 490.469 246.96 Q488.478 249.159 488.478 252.955 L488.478 267.608 L484.195 267.608 L484.195 231.59 L488.478 231.59 L488.478 245.71 Q490.006 243.372 492.066 242.215 Q494.149 241.057 496.857 241.057 Q501.325 241.057 503.617 243.835 Q505.908 246.59 505.908 251.96 Z" fill="#000000" fill-rule="evenodd" fill-opacity="1" /><path clip-path="url(#clip530)" d="M532.066 233.048 L544.635 245.942 L539.982 245.942 L529.797 236.798 L519.612 245.942 L514.959 245.942 L527.529 233.048 L532.066 233.048 Z" fill="#000000" fill-rule="evenodd" fill-opacity="1" /><path clip-path="url(#clip530)" d="M558.755 263.673 L575.075 263.673 L575.075 267.608 L553.13 267.608 L553.13 263.673 Q555.792 260.918 560.376 256.289 Q564.982 251.636 566.163 250.293 Q568.408 247.77 569.288 246.034 Q570.19 244.275 570.19 242.585 Q570.19 239.83 568.246 238.094 Q566.325 236.358 563.223 236.358 Q561.024 236.358 558.57 237.122 Q556.14 237.886 553.362 239.437 L553.362 234.715 Q556.186 233.581 558.64 233.002 Q561.093 232.423 563.13 232.423 Q568.501 232.423 571.695 235.108 Q574.889 237.793 574.889 242.284 Q574.889 244.414 574.079 246.335 Q573.292 248.233 571.186 250.826 Q570.607 251.497 567.505 254.715 Q564.403 257.909 558.755 263.673 Z" fill="#000000" fill-rule="evenodd" fill-opacity="1" /><path clip-path="url(#clip530)" d="M595.838 274.576 L593.524 274.576 L593.5 267.608 Q591.07 267.562 588.639 267.053 Q586.209 266.52 583.755 265.478 L583.755 261.312 Q586.116 262.793 588.524 263.557 Q590.954 264.298 593.524 264.321 L593.524 253.766 Q588.408 252.932 586.07 250.942 Q583.755 248.951 583.755 245.479 Q583.755 241.705 586.278 239.53 Q588.801 237.354 593.524 237.03 L593.524 231.59 L595.838 231.59 L595.838 236.96 Q597.991 237.053 600.005 237.423 Q602.019 237.77 603.94 238.395 L603.94 242.446 Q602.019 241.474 599.982 240.942 Q597.968 240.409 595.838 240.317 L595.838 250.201 Q601.093 251.011 603.57 253.094 Q606.047 255.178 606.047 258.789 Q606.047 262.701 603.408 264.969 Q600.792 267.215 595.838 267.562 L595.838 274.576 M593.524 249.784 L593.524 240.293 Q590.838 240.594 589.426 241.821 Q588.014 243.048 588.014 245.085 Q588.014 247.076 589.311 248.187 Q590.63 249.298 593.524 249.784 M595.838 254.229 L595.838 264.252 Q598.778 263.858 600.26 262.585 Q601.764 261.312 601.764 259.229 Q601.764 257.192 600.329 255.988 Q598.917 254.784 595.838 254.229 Z" fill="#000000" fill-rule="evenodd" fill-opacity="1" /></svg>
