<?xml version="1.0" encoding="utf-8"?>
<svg xmlns="http://www.w3.org/2000/svg" xmlns:xlink="http://www.w3.org/1999/xlink" width="600" height="400" viewBox="0 0 2400 1600">
<defs>
  <clipPath id="clip670">
    <rect x="0" y="0" width="2400" height="1600"/>
  </clipPath>
</defs>
<path clip-path="url(#clip670)" d="
M0 1600 L2400 1600 L2400 0 L0 0  Z
  " fill="#ffffff" fill-rule="evenodd" fill-opacity="1"/>
<defs>
  <clipPath id="clip671">
    <rect x="480" y="0" width="1681" height="1600"/>
  </clipPath>
</defs>
<path clip-path="url(#clip670)" d="
M213.607 1486.45 L2352.76 1486.45 L2352.76 47.2441 L213.607 47.2441  Z
  " fill="#ffffff" fill-rule="evenodd" fill-opacity="1"/>
<defs>
  <clipPath id="clip672">
    <rect x="213" y="47" width="2140" height="1440"/>
  </clipPath>
</defs>
<polyline clip-path="url(#clip672)" style="stroke:#000000; stroke-linecap:butt; stroke-linejoin:round; stroke-width:2; stroke-opacity:0.1; fill:none" points="
  218.092,1486.45 218.092,47.2441 
  "/>
<polyline clip-path="url(#clip672)" style="stroke:#000000; stroke-linecap:butt; stroke-linejoin:round; stroke-width:2; stroke-opacity:0.1; fill:none" points="
  778.666,1486.45 778.666,47.2441 
  "/>
<polyline clip-path="url(#clip672)" style="stroke:#000000; stroke-linecap:butt; stroke-linejoin:round; stroke-width:2; stroke-opacity:0.1; fill:none" points="
  1339.24,1486.45 1339.24,47.2441 
  "/>
<polyline clip-path="url(#clip672)" style="stroke:#000000; stroke-linecap:butt; stroke-linejoin:round; stroke-width:2; stroke-opacity:0.1; fill:none" points="
  1899.81,1486.45 1899.81,47.2441 
  "/>
<polyline clip-path="url(#clip670)" style="stroke:#000000; stroke-linecap:butt; stroke-linejoin:round; stroke-width:4; stroke-opacity:1; fill:none" points="
  213.607,1486.45 2352.76,1486.45 
  "/>
<polyline clip-path="url(#clip670)" style="stroke:#000000; stroke-linecap:butt; stroke-linejoin:round; stroke-width:4; stroke-opacity:1; fill:none" points="
  218.092,1486.45 218.092,1467.55 
  "/>
<polyline clip-path="url(#clip670)" style="stroke:#000000; stroke-linecap:butt; stroke-linejoin:round; stroke-width:4; stroke-opacity:1; fill:none" points="
  778.666,1486.45 778.666,1467.55 
  "/>
<polyline clip-path="url(#clip670)" style="stroke:#000000; stroke-linecap:butt; stroke-linejoin:round; stroke-width:4; stroke-opacity:1; fill:none" points="
  1339.24,1486.45 1339.24,1467.55 
  "/>
<polyline clip-path="url(#clip670)" style="stroke:#000000; stroke-linecap:butt; stroke-linejoin:round; stroke-width:4; stroke-opacity:1; fill:none" points="
  1899.81,1486.45 1899.81,1467.55 
  "/>
<path clip-path="url(#clip670)" d="M218.092 1515.64 Q214.481 1515.64 212.652 1519.2 Q210.847 1522.75 210.847 1529.87 Q210.847 1536.98 212.652 1540.55 Q214.481 1544.09 218.092 1544.09 Q221.726 1544.09 223.532 1540.55 Q225.361 1536.98 225.361 1529.87 Q225.361 1522.75 223.532 1519.2 Q221.726 1515.64 218.092 1515.64 M218.092 1511.93 Q223.902 1511.93 226.958 1516.54 Q230.036 1521.12 230.036 1529.87 Q230.036 1538.6 226.958 1543.21 Q223.902 1547.79 218.092 1547.79 Q212.282 1547.79 209.203 1543.21 Q206.148 1538.6 206.148 1529.87 Q206.148 1521.12 209.203 1516.54 Q212.282 1511.93 218.092 1511.93 Z" fill="#000000" fill-rule="evenodd" fill-opacity="1" /><path clip-path="url(#clip670)" d="M753.353 1543.18 L760.992 1543.18 L760.992 1516.82 L752.682 1518.49 L752.682 1514.23 L760.946 1512.56 L765.622 1512.56 L765.622 1543.18 L773.26 1543.18 L773.26 1547.12 L753.353 1547.12 L753.353 1543.18 Z" fill="#000000" fill-rule="evenodd" fill-opacity="1" /><path clip-path="url(#clip670)" d="M792.705 1515.64 Q789.094 1515.64 787.265 1519.2 Q785.459 1522.75 785.459 1529.87 Q785.459 1536.98 787.265 1540.55 Q789.094 1544.09 792.705 1544.09 Q796.339 1544.09 798.145 1540.55 Q799.973 1536.98 799.973 1529.87 Q799.973 1522.75 798.145 1519.2 Q796.339 1515.64 792.705 1515.64 M792.705 1511.93 Q798.515 1511.93 801.571 1516.54 Q804.649 1521.12 804.649 1529.87 Q804.649 1538.6 801.571 1543.21 Q798.515 1547.79 792.705 1547.79 Q786.895 1547.79 783.816 1543.21 Q780.76 1538.6 780.76 1529.87 Q780.76 1521.12 783.816 1516.54 Q786.895 1511.93 792.705 1511.93 Z" fill="#000000" fill-rule="evenodd" fill-opacity="1" /><path clip-path="url(#clip670)" d="M1318.01 1543.18 L1334.33 1543.18 L1334.33 1547.12 L1312.39 1547.12 L1312.39 1543.18 Q1315.05 1540.43 1319.63 1535.8 Q1324.24 1531.15 1325.42 1529.81 Q1327.67 1527.28 1328.54 1525.55 Q1329.45 1523.79 1329.45 1522.1 Q1329.45 1519.34 1327.5 1517.61 Q1325.58 1515.87 1322.48 1515.87 Q1320.28 1515.87 1317.83 1516.63 Q1315.4 1517.4 1312.62 1518.95 L1312.62 1514.23 Q1315.44 1513.09 1317.9 1512.51 Q1320.35 1511.93 1322.39 1511.93 Q1327.76 1511.93 1330.95 1514.62 Q1334.15 1517.31 1334.15 1521.8 Q1334.15 1523.93 1333.34 1525.85 Q1332.55 1527.74 1330.44 1530.34 Q1329.86 1531.01 1326.76 1534.23 Q1323.66 1537.42 1318.01 1543.18 Z" fill="#000000" fill-rule="evenodd" fill-opacity="1" /><path clip-path="url(#clip670)" d="M1354.15 1515.64 Q1350.54 1515.64 1348.71 1519.2 Q1346.9 1522.75 1346.9 1529.87 Q1346.9 1536.98 1348.71 1540.55 Q1350.54 1544.09 1354.15 1544.09 Q1357.78 1544.09 1359.59 1540.55 Q1361.41 1536.98 1361.41 1529.87 Q1361.41 1522.75 1359.59 1519.2 Q1357.78 1515.64 1354.15 1515.64 M1354.15 1511.93 Q1359.96 1511.93 1363.01 1516.54 Q1366.09 1521.12 1366.09 1529.87 Q1366.09 1538.6 1363.01 1543.21 Q1359.96 1547.79 1354.15 1547.79 Q1348.34 1547.79 1345.26 1543.21 Q1342.2 1538.6 1342.2 1529.87 Q1342.2 1521.12 1345.26 1516.54 Q1348.34 1511.93 1354.15 1511.93 Z" fill="#000000" fill-rule="evenodd" fill-opacity="1" /><path clip-path="url(#clip670)" d="M1888.66 1528.49 Q1892.01 1529.2 1893.89 1531.47 Q1895.78 1533.74 1895.78 1537.07 Q1895.78 1542.19 1892.27 1544.99 Q1888.75 1547.79 1882.27 1547.79 Q1880.09 1547.79 1877.78 1547.35 Q1875.48 1546.93 1873.03 1546.08 L1873.03 1541.56 Q1874.97 1542.7 1877.29 1543.28 Q1879.6 1543.86 1882.13 1543.86 Q1886.53 1543.86 1888.82 1542.12 Q1891.13 1540.38 1891.13 1537.07 Q1891.13 1534.02 1888.98 1532.31 Q1886.85 1530.57 1883.03 1530.57 L1879 1530.57 L1879 1526.73 L1883.22 1526.73 Q1886.66 1526.73 1888.49 1525.36 Q1890.32 1523.97 1890.32 1521.38 Q1890.32 1518.72 1888.42 1517.31 Q1886.55 1515.87 1883.03 1515.87 Q1881.11 1515.87 1878.91 1516.29 Q1876.71 1516.7 1874.07 1517.58 L1874.07 1513.42 Q1876.73 1512.68 1879.05 1512.31 Q1881.39 1511.93 1883.45 1511.93 Q1888.77 1511.93 1891.87 1514.37 Q1894.97 1516.77 1894.97 1520.89 Q1894.97 1523.76 1893.33 1525.75 Q1891.69 1527.72 1888.66 1528.49 Z" fill="#000000" fill-rule="evenodd" fill-opacity="1" /><path clip-path="url(#clip670)" d="M1914.65 1515.64 Q1911.04 1515.64 1909.21 1519.2 Q1907.41 1522.75 1907.41 1529.87 Q1907.41 1536.98 1909.21 1540.55 Q1911.04 1544.09 1914.65 1544.09 Q1918.28 1544.09 1920.09 1540.55 Q1921.92 1536.98 1921.92 1529.87 Q1921.92 1522.75 1920.09 1519.2 Q1918.28 1515.64 1914.65 1515.64 M1914.65 1511.93 Q1920.46 1511.93 1923.52 1516.54 Q1926.59 1521.12 1926.59 1529.87 Q1926.59 1538.6 1923.52 1543.21 Q1920.46 1547.79 1914.65 1547.79 Q1908.84 1547.79 1905.76 1543.21 Q1902.71 1538.6 1902.71 1529.87 Q1902.71 1521.12 1905.76 1516.54 Q1908.84 1511.93 1914.65 1511.93 Z" fill="#000000" fill-rule="evenodd" fill-opacity="1" /><polyline clip-path="url(#clip672)" style="stroke:#000000; stroke-linecap:butt; stroke-linejoin:round; stroke-width:2; stroke-opacity:0.1; fill:none" points="
  213.607,1239.14 2352.76,1239.14 
  "/>
<polyline clip-path="url(#clip672)" style="stroke:#000000; stroke-linecap:butt; stroke-linejoin:round; stroke-width:2; stroke-opacity:0.1; fill:none" points="
  213.607,680.381 2352.76,680.381 
  "/>
<polyline clip-path="url(#clip672)" style="stroke:#000000; stroke-linecap:butt; stroke-linejoin:round; stroke-width:2; stroke-opacity:0.1; fill:none" points="
  213.607,121.617 2352.76,121.617 
  "/>
<polyline clip-path="url(#clip670)" style="stroke:#000000; stroke-linecap:butt; stroke-linejoin:round; stroke-width:4; stroke-opacity:1; fill:none" points="
  213.607,1486.45 213.607,47.2441 
  "/>
<polyline clip-path="url(#clip670)" style="stroke:#000000; stroke-linecap:butt; stroke-linejoin:round; stroke-width:4; stroke-opacity:1; fill:none" points="
  213.607,1239.14 232.505,1239.14 
  "/>
<polyline clip-path="url(#clip670)" style="stroke:#000000; stroke-linecap:butt; stroke-linejoin:round; stroke-width:4; stroke-opacity:1; fill:none" points="
  213.607,680.381 232.505,680.381 
  "/>
<polyline clip-path="url(#clip670)" style="stroke:#000000; stroke-linecap:butt; stroke-linejoin:round; stroke-width:4; stroke-opacity:1; fill:none" points="
  213.607,121.617 232.505,121.617 
  "/>
<path clip-path="url(#clip670)" d="M51.6634 1258.94 L59.3023 1258.94 L59.3023 1232.57 L50.9921 1234.24 L50.9921 1229.98 L59.256 1228.31 L63.9319 1228.31 L63.9319 1258.94 L71.5707 1258.94 L71.5707 1262.87 L51.6634 1262.87 L51.6634 1258.94 Z" fill="#000000" fill-rule="evenodd" fill-opacity="1" /><path clip-path="url(#clip670)" d="M91.0151 1231.39 Q87.404 1231.39 85.5753 1234.96 Q83.7697 1238.5 83.7697 1245.63 Q83.7697 1252.73 85.5753 1256.3 Q87.404 1259.84 91.0151 1259.84 Q94.6493 1259.84 96.4548 1256.3 Q98.2835 1252.73 98.2835 1245.63 Q98.2835 1238.5 96.4548 1234.96 Q94.6493 1231.39 91.0151 1231.39 M91.0151 1227.69 Q96.8252 1227.69 99.8808 1232.29 Q102.959 1236.88 102.959 1245.63 Q102.959 1254.35 99.8808 1258.96 Q96.8252 1263.54 91.0151 1263.54 Q85.2049 1263.54 82.1262 1258.96 Q79.0707 1254.35 79.0707 1245.63 Q79.0707 1236.88 82.1262 1232.29 Q85.2049 1227.69 91.0151 1227.69 Z" fill="#000000" fill-rule="evenodd" fill-opacity="1" /><path clip-path="url(#clip670)" d="M102.959 1221.79 L127.071 1221.79 L127.071 1224.99 L102.959 1224.99 L102.959 1221.79 Z" fill="#000000" fill-rule="evenodd" fill-opacity="1" /><path clip-path="url(#clip670)" d="M135.929 1232.26 L142.136 1232.26 L142.136 1210.84 L135.384 1212.2 L135.384 1208.74 L142.098 1207.38 L145.898 1207.38 L145.898 1232.26 L152.104 1232.26 L152.104 1235.46 L135.929 1235.46 L135.929 1232.26 Z" fill="#000000" fill-rule="evenodd" fill-opacity="1" /><path clip-path="url(#clip670)" d="M167.903 1209.88 Q164.969 1209.88 163.483 1212.78 Q162.016 1215.66 162.016 1221.45 Q162.016 1227.22 163.483 1230.12 Q164.969 1233 167.903 1233 Q170.855 1233 172.322 1230.12 Q173.808 1227.22 173.808 1221.45 Q173.808 1215.66 172.322 1212.78 Q170.855 1209.88 167.903 1209.88 M167.903 1206.87 Q172.623 1206.87 175.106 1210.62 Q177.607 1214.34 177.607 1221.45 Q177.607 1228.54 175.106 1232.28 Q172.623 1236.01 167.903 1236.01 Q163.182 1236.01 160.68 1232.28 Q158.198 1228.54 158.198 1221.45 Q158.198 1214.34 160.68 1210.62 Q163.182 1206.87 167.903 1206.87 Z" fill="#000000" fill-rule="evenodd" fill-opacity="1" /><path clip-path="url(#clip670)" d="M76.9787 700.173 L84.6175 700.173 L84.6175 673.808 L76.3074 675.474 L76.3074 671.215 L84.5712 669.548 L89.2471 669.548 L89.2471 700.173 L96.886 700.173 L96.886 704.108 L76.9787 704.108 L76.9787 700.173 Z" fill="#000000" fill-rule="evenodd" fill-opacity="1" /><path clip-path="url(#clip670)" d="M116.33 672.627 Q112.719 672.627 110.891 676.192 Q109.085 679.734 109.085 686.863 Q109.085 693.97 110.891 697.534 Q112.719 701.076 116.33 701.076 Q119.965 701.076 121.77 697.534 Q123.599 693.97 123.599 686.863 Q123.599 679.734 121.77 676.192 Q119.965 672.627 116.33 672.627 M116.33 668.923 Q122.14 668.923 125.196 673.53 Q128.275 678.113 128.275 686.863 Q128.275 695.59 125.196 700.196 Q122.14 704.78 116.33 704.78 Q110.52 704.78 107.441 700.196 Q104.386 695.59 104.386 686.863 Q104.386 678.113 107.441 673.53 Q110.52 668.923 116.33 668.923 Z" fill="#000000" fill-rule="evenodd" fill-opacity="1" /><path clip-path="url(#clip670)" d="M128.275 663.025 L152.386 663.025 L152.386 666.222 L128.275 666.222 L128.275 663.025 Z" fill="#000000" fill-rule="evenodd" fill-opacity="1" /><path clip-path="url(#clip670)" d="M160.624 648.618 L175.539 648.618 L175.539 651.815 L164.103 651.815 L164.103 658.699 Q164.931 658.417 165.759 658.285 Q166.586 658.135 167.414 658.135 Q172.116 658.135 174.862 660.711 Q177.607 663.288 177.607 667.689 Q177.607 672.222 174.786 674.742 Q171.965 677.243 166.831 677.243 Q165.063 677.243 163.22 676.943 Q161.395 676.642 159.439 676.04 L159.439 672.222 Q161.132 673.143 162.937 673.595 Q164.743 674.046 166.755 674.046 Q170.009 674.046 171.909 672.335 Q173.808 670.623 173.808 667.689 Q173.808 664.755 171.909 663.044 Q170.009 661.332 166.755 661.332 Q165.232 661.332 163.709 661.671 Q162.204 662.009 160.624 662.724 L160.624 648.618 Z" fill="#000000" fill-rule="evenodd" fill-opacity="1" /><path clip-path="url(#clip670)" d="M106.902 141.41 L114.541 141.41 L114.541 115.044 L106.231 116.711 L106.231 112.451 L114.494 110.785 L119.17 110.785 L119.17 141.41 L126.809 141.41 L126.809 145.345 L106.902 145.345 L106.902 141.41 Z" fill="#000000" fill-rule="evenodd" fill-opacity="1" /><path clip-path="url(#clip670)" d="M146.253 113.863 Q142.642 113.863 140.814 117.428 Q139.008 120.97 139.008 128.1 Q139.008 135.206 140.814 138.771 Q142.642 142.312 146.253 142.312 Q149.888 142.312 151.693 138.771 Q153.522 135.206 153.522 128.1 Q153.522 120.97 151.693 117.428 Q149.888 113.863 146.253 113.863 M146.253 110.16 Q152.064 110.16 155.119 114.766 Q158.198 119.35 158.198 128.1 Q158.198 136.826 155.119 141.433 Q152.064 146.016 146.253 146.016 Q140.443 146.016 137.365 141.433 Q134.309 136.826 134.309 128.1 Q134.309 119.35 137.365 114.766 Q140.443 110.16 146.253 110.16 Z" fill="#000000" fill-rule="evenodd" fill-opacity="1" /><path clip-path="url(#clip670)" d="M167.903 92.3558 Q164.969 92.3558 163.483 95.2522 Q162.016 98.1298 162.016 103.923 Q162.016 109.697 163.483 112.593 Q164.969 115.471 167.903 115.471 Q170.855 115.471 172.322 112.593 Q173.808 109.697 173.808 103.923 Q173.808 98.1298 172.322 95.2522 Q170.855 92.3558 167.903 92.3558 M167.903 89.3466 Q172.623 89.3466 175.106 93.0893 Q177.607 96.8133 177.607 103.923 Q177.607 111.013 175.106 114.756 Q172.623 118.48 167.903 118.48 Q163.182 118.48 160.68 114.756 Q158.198 111.013 158.198 103.923 Q158.198 96.8133 160.68 93.0893 Q163.182 89.3466 167.903 89.3466 Z" fill="#000000" fill-rule="evenodd" fill-opacity="1" /><circle clip-path="url(#clip672)" cx="274.149" cy="186.825" r="14" fill="#009af9" fill-rule="evenodd" fill-opacity="1" stroke="#000000" stroke-opacity="1" stroke-width="3.2"/>
<circle clip-path="url(#clip672)" cx="330.207" cy="136.291" r="14" fill="#009af9" fill-rule="evenodd" fill-opacity="1" stroke="#000000" stroke-opacity="1" stroke-width="3.2"/>
<circle clip-path="url(#clip672)" cx="386.264" cy="191.066" r="14" fill="#009af9" fill-rule="evenodd" fill-opacity="1" stroke="#000000" stroke-opacity="1" stroke-width="3.2"/>
<circle clip-path="url(#clip672)" cx="442.321" cy="340.874" r="14" fill="#009af9" fill-rule="evenodd" fill-opacity="1" stroke="#000000" stroke-opacity="1" stroke-width="3.2"/>
<circle clip-path="url(#clip672)" cx="498.379" cy="226.974" r="14" fill="#009af9" fill-rule="evenodd" fill-opacity="1" stroke="#000000" stroke-opacity="1" stroke-width="3.2"/>
<circle clip-path="url(#clip672)" cx="554.436" cy="265.496" r="14" fill="#009af9" fill-rule="evenodd" fill-opacity="1" stroke="#000000" stroke-opacity="1" stroke-width="3.2"/>
<circle clip-path="url(#clip672)" cx="610.494" cy="310.675" r="14" fill="#009af9" fill-rule="evenodd" fill-opacity="1" stroke="#000000" stroke-opacity="1" stroke-width="3.2"/>
<circle clip-path="url(#clip672)" cx="666.551" cy="381.662" r="14" fill="#009af9" fill-rule="evenodd" fill-opacity="1" stroke="#000000" stroke-opacity="1" stroke-width="3.2"/>
<circle clip-path="url(#clip672)" cx="722.608" cy="401.927" r="14" fill="#009af9" fill-rule="evenodd" fill-opacity="1" stroke="#000000" stroke-opacity="1" stroke-width="3.2"/>
<circle clip-path="url(#clip672)" cx="778.666" cy="467.47" r="14" fill="#009af9" fill-rule="evenodd" fill-opacity="1" stroke="#000000" stroke-opacity="1" stroke-width="3.2"/>
<circle clip-path="url(#clip672)" cx="834.723" cy="450.124" r="14" fill="#009af9" fill-rule="evenodd" fill-opacity="1" stroke="#000000" stroke-opacity="1" stroke-width="3.2"/>
<circle clip-path="url(#clip672)" cx="890.78" cy="542.116" r="14" fill="#009af9" fill-rule="evenodd" fill-opacity="1" stroke="#000000" stroke-opacity="1" stroke-width="3.2"/>
<circle clip-path="url(#clip672)" cx="946.838" cy="512.848" r="14" fill="#009af9" fill-rule="evenodd" fill-opacity="1" stroke="#000000" stroke-opacity="1" stroke-width="3.2"/>
<circle clip-path="url(#clip672)" cx="1002.89" cy="584.936" r="14" fill="#009af9" fill-rule="evenodd" fill-opacity="1" stroke="#000000" stroke-opacity="1" stroke-width="3.2"/>
<circle clip-path="url(#clip672)" cx="1058.95" cy="601.681" r="14" fill="#009af9" fill-rule="evenodd" fill-opacity="1" stroke="#000000" stroke-opacity="1" stroke-width="3.2"/>
<circle clip-path="url(#clip672)" cx="1115.01" cy="678.355" r="14" fill="#009af9" fill-rule="evenodd" fill-opacity="1" stroke="#000000" stroke-opacity="1" stroke-width="3.2"/>
<circle clip-path="url(#clip672)" cx="1171.07" cy="646.519" r="14" fill="#009af9" fill-rule="evenodd" fill-opacity="1" stroke="#000000" stroke-opacity="1" stroke-width="3.2"/>
<circle clip-path="url(#clip672)" cx="1227.12" cy="715.674" r="14" fill="#009af9" fill-rule="evenodd" fill-opacity="1" stroke="#000000" stroke-opacity="1" stroke-width="3.2"/>
<circle clip-path="url(#clip672)" cx="1283.18" cy="742.218" r="14" fill="#009af9" fill-rule="evenodd" fill-opacity="1" stroke="#000000" stroke-opacity="1" stroke-width="3.2"/>
<circle clip-path="url(#clip672)" cx="1339.24" cy="791.272" r="14" fill="#009af9" fill-rule="evenodd" fill-opacity="1" stroke="#000000" stroke-opacity="1" stroke-width="3.2"/>
<circle clip-path="url(#clip672)" cx="1395.3" cy="797.82" r="14" fill="#009af9" fill-rule="evenodd" fill-opacity="1" stroke="#000000" stroke-opacity="1" stroke-width="3.2"/>
<circle clip-path="url(#clip672)" cx="1451.35" cy="925.369" r="14" fill="#009af9" fill-rule="evenodd" fill-opacity="1" stroke="#000000" stroke-opacity="1" stroke-width="3.2"/>
<circle clip-path="url(#clip672)" cx="1507.41" cy="835.099" r="14" fill="#009af9" fill-rule="evenodd" fill-opacity="1" stroke="#000000" stroke-opacity="1" stroke-width="3.2"/>
<circle clip-path="url(#clip672)" cx="1563.47" cy="876.953" r="14" fill="#009af9" fill-rule="evenodd" fill-opacity="1" stroke="#000000" stroke-opacity="1" stroke-width="3.2"/>
<circle clip-path="url(#clip672)" cx="1619.53" cy="932.923" r="14" fill="#009af9" fill-rule="evenodd" fill-opacity="1" stroke="#000000" stroke-opacity="1" stroke-width="3.2"/>
<circle clip-path="url(#clip672)" cx="1675.58" cy="1053.02" r="14" fill="#009af9" fill-rule="evenodd" fill-opacity="1" stroke="#000000" stroke-opacity="1" stroke-width="3.2"/>
<circle clip-path="url(#clip672)" cx="1731.64" cy="970.833" r="14" fill="#009af9" fill-rule="evenodd" fill-opacity="1" stroke="#000000" stroke-opacity="1" stroke-width="3.2"/>
<circle clip-path="url(#clip672)" cx="1787.7" cy="1014.34" r="14" fill="#009af9" fill-rule="evenodd" fill-opacity="1" stroke="#000000" stroke-opacity="1" stroke-width="3.2"/>
<circle clip-path="url(#clip672)" cx="1843.76" cy="1077.05" r="14" fill="#009af9" fill-rule="evenodd" fill-opacity="1" stroke="#000000" stroke-opacity="1" stroke-width="3.2"/>
<circle clip-path="url(#clip672)" cx="1899.81" cy="1132.31" r="14" fill="#009af9" fill-rule="evenodd" fill-opacity="1" stroke="#000000" stroke-opacity="1" stroke-width="3.2"/>
<circle clip-path="url(#clip672)" cx="1955.87" cy="1129.42" r="14" fill="#009af9" fill-rule="evenodd" fill-opacity="1" stroke="#000000" stroke-opacity="1" stroke-width="3.2"/>
<circle clip-path="url(#clip672)" cx="2011.93" cy="1301.47" r="14" fill="#009af9" fill-rule="evenodd" fill-opacity="1" stroke="#000000" stroke-opacity="1" stroke-width="3.2"/>
<circle clip-path="url(#clip672)" cx="2067.98" cy="1167.46" r="14" fill="#009af9" fill-rule="evenodd" fill-opacity="1" stroke="#000000" stroke-opacity="1" stroke-width="3.2"/>
<circle clip-path="url(#clip672)" cx="2124.04" cy="1204.27" r="14" fill="#009af9" fill-rule="evenodd" fill-opacity="1" stroke="#000000" stroke-opacity="1" stroke-width="3.2"/>
<circle clip-path="url(#clip672)" cx="2180.1" cy="1244.95" r="14" fill="#009af9" fill-rule="evenodd" fill-opacity="1" stroke="#000000" stroke-opacity="1" stroke-width="3.2"/>
<circle clip-path="url(#clip672)" cx="2236.16" cy="1296.74" r="14" fill="#009af9" fill-rule="evenodd" fill-opacity="1" stroke="#000000" stroke-opacity="1" stroke-width="3.2"/>
<circle clip-path="url(#clip672)" cx="2292.21" cy="1445.72" r="14" fill="#009af9" fill-rule="evenodd" fill-opacity="1" stroke="#000000" stroke-opacity="1" stroke-width="3.2"/>
<circle clip-path="url(#clip672)" cx="274.149" cy="87.9763" r="14" fill="#e26f46" fill-rule="evenodd" fill-opacity="1" stroke="#000000" stroke-opacity="1" stroke-width="3.2"/>
<circle clip-path="url(#clip672)" cx="330.207" cy="121.617" r="14" fill="#e26f46" fill-rule="evenodd" fill-opacity="1" stroke="#000000" stroke-opacity="1" stroke-width="3.2"/>
<circle clip-path="url(#clip672)" cx="386.264" cy="155.258" r="14" fill="#e26f46" fill-rule="evenodd" fill-opacity="1" stroke="#000000" stroke-opacity="1" stroke-width="3.2"/>
<circle clip-path="url(#clip672)" cx="442.321" cy="188.899" r="14" fill="#e26f46" fill-rule="evenodd" fill-opacity="1" stroke="#000000" stroke-opacity="1" stroke-width="3.2"/>
<circle clip-path="url(#clip672)" cx="498.379" cy="222.54" r="14" fill="#e26f46" fill-rule="evenodd" fill-opacity="1" stroke="#000000" stroke-opacity="1" stroke-width="3.2"/>
<circle clip-path="url(#clip672)" cx="554.436" cy="256.181" r="14" fill="#e26f46" fill-rule="evenodd" fill-opacity="1" stroke="#000000" stroke-opacity="1" stroke-width="3.2"/>
<circle clip-path="url(#clip672)" cx="610.494" cy="289.822" r="14" fill="#e26f46" fill-rule="evenodd" fill-opacity="1" stroke="#000000" stroke-opacity="1" stroke-width="3.2"/>
<circle clip-path="url(#clip672)" cx="666.551" cy="323.463" r="14" fill="#e26f46" fill-rule="evenodd" fill-opacity="1" stroke="#000000" stroke-opacity="1" stroke-width="3.2"/>
<circle clip-path="url(#clip672)" cx="722.608" cy="357.104" r="14" fill="#e26f46" fill-rule="evenodd" fill-opacity="1" stroke="#000000" stroke-opacity="1" stroke-width="3.2"/>
<circle clip-path="url(#clip672)" cx="778.666" cy="390.745" r="14" fill="#e26f46" fill-rule="evenodd" fill-opacity="1" stroke="#000000" stroke-opacity="1" stroke-width="3.2"/>
<circle clip-path="url(#clip672)" cx="834.723" cy="424.386" r="14" fill="#e26f46" fill-rule="evenodd" fill-opacity="1" stroke="#000000" stroke-opacity="1" stroke-width="3.2"/>
<circle clip-path="url(#clip672)" cx="890.78" cy="458.026" r="14" fill="#e26f46" fill-rule="evenodd" fill-opacity="1" stroke="#000000" stroke-opacity="1" stroke-width="3.2"/>
<circle clip-path="url(#clip672)" cx="946.838" cy="491.667" r="14" fill="#e26f46" fill-rule="evenodd" fill-opacity="1" stroke="#000000" stroke-opacity="1" stroke-width="3.2"/>
<circle clip-path="url(#clip672)" cx="1002.89" cy="525.308" r="14" fill="#e26f46" fill-rule="evenodd" fill-opacity="1" stroke="#000000" stroke-opacity="1" stroke-width="3.2"/>
<circle clip-path="url(#clip672)" cx="1058.95" cy="558.949" r="14" fill="#e26f46" fill-rule="evenodd" fill-opacity="1" stroke="#000000" stroke-opacity="1" stroke-width="3.2"/>
<circle clip-path="url(#clip672)" cx="1115.01" cy="592.59" r="14" fill="#e26f46" fill-rule="evenodd" fill-opacity="1" stroke="#000000" stroke-opacity="1" stroke-width="3.2"/>
<circle clip-path="url(#clip672)" cx="1171.07" cy="626.231" r="14" fill="#e26f46" fill-rule="evenodd" fill-opacity="1" stroke="#000000" stroke-opacity="1" stroke-width="3.2"/>
<circle clip-path="url(#clip672)" cx="1227.12" cy="659.872" r="14" fill="#e26f46" fill-rule="evenodd" fill-opacity="1" stroke="#000000" stroke-opacity="1" stroke-width="3.2"/>
<circle clip-path="url(#clip672)" cx="1283.18" cy="693.513" r="14" fill="#e26f46" fill-rule="evenodd" fill-opacity="1" stroke="#000000" stroke-opacity="1" stroke-width="3.2"/>
<circle clip-path="url(#clip672)" cx="1339.24" cy="727.154" r="14" fill="#e26f46" fill-rule="evenodd" fill-opacity="1" stroke="#000000" stroke-opacity="1" stroke-width="3.2"/>
<circle clip-path="url(#clip672)" cx="1395.3" cy="760.795" r="14" fill="#e26f46" fill-rule="evenodd" fill-opacity="1" stroke="#000000" stroke-opacity="1" stroke-width="3.2"/>
<circle clip-path="url(#clip672)" cx="1451.35" cy="794.436" r="14" fill="#e26f46" fill-rule="evenodd" fill-opacity="1" stroke="#000000" stroke-opacity="1" stroke-width="3.2"/>
<circle clip-path="url(#clip672)" cx="1507.41" cy="828.077" r="14" fill="#e26f46" fill-rule="evenodd" fill-opacity="1" stroke="#000000" stroke-opacity="1" stroke-width="3.2"/>
<circle clip-path="url(#clip672)" cx="1563.47" cy="861.718" r="14" fill="#e26f46" fill-rule="evenodd" fill-opacity="1" stroke="#000000" stroke-opacity="1" stroke-width="3.2"/>
<circle clip-path="url(#clip672)" cx="1619.53" cy="895.358" r="14" fill="#e26f46" fill-rule="evenodd" fill-opacity="1" stroke="#000000" stroke-opacity="1" stroke-width="3.2"/>
<circle clip-path="url(#clip672)" cx="1675.58" cy="928.999" r="14" fill="#e26f46" fill-rule="evenodd" fill-opacity="1" stroke="#000000" stroke-opacity="1" stroke-width="3.2"/>
<circle clip-path="url(#clip672)" cx="1731.64" cy="962.64" r="14" fill="#e26f46" fill-rule="evenodd" fill-opacity="1" stroke="#000000" stroke-opacity="1" stroke-width="3.2"/>
<circle clip-path="url(#clip672)" cx="1787.7" cy="996.281" r="14" fill="#e26f46" fill-rule="evenodd" fill-opacity="1" stroke="#000000" stroke-opacity="1" stroke-width="3.2"/>
<circle clip-path="url(#clip672)" cx="1843.76" cy="1029.92" r="14" fill="#e26f46" fill-rule="evenodd" fill-opacity="1" stroke="#000000" stroke-opacity="1" stroke-width="3.2"/>
<circle clip-path="url(#clip672)" cx="1899.81" cy="1063.56" r="14" fill="#e26f46" fill-rule="evenodd" fill-opacity="1" stroke="#000000" stroke-opacity="1" stroke-width="3.2"/>
<circle clip-path="url(#clip672)" cx="1955.87" cy="1097.2" r="14" fill="#e26f46" fill-rule="evenodd" fill-opacity="1" stroke="#000000" stroke-opacity="1" stroke-width="3.2"/>
<circle clip-path="url(#clip672)" cx="2011.93" cy="1130.84" r="14" fill="#e26f46" fill-rule="evenodd" fill-opacity="1" stroke="#000000" stroke-opacity="1" stroke-width="3.2"/>
<circle clip-path="url(#clip672)" cx="2067.98" cy="1164.49" r="14" fill="#e26f46" fill-rule="evenodd" fill-opacity="1" stroke="#000000" stroke-opacity="1" stroke-width="3.2"/>
<circle clip-path="url(#clip672)" cx="2124.04" cy="1198.13" r="14" fill="#e26f46" fill-rule="evenodd" fill-opacity="1" stroke="#000000" stroke-opacity="1" stroke-width="3.2"/>
<circle clip-path="url(#clip672)" cx="2180.1" cy="1231.77" r="14" fill="#e26f46" fill-rule="evenodd" fill-opacity="1" stroke="#000000" stroke-opacity="1" stroke-width="3.2"/>
<circle clip-path="url(#clip672)" cx="2236.16" cy="1265.41" r="14" fill="#e26f46" fill-rule="evenodd" fill-opacity="1" stroke="#000000" stroke-opacity="1" stroke-width="3.2"/>
<circle clip-path="url(#clip672)" cx="2292.21" cy="1299.05" r="14" fill="#e26f46" fill-rule="evenodd" fill-opacity="1" stroke="#000000" stroke-opacity="1" stroke-width="3.2"/>
<path clip-path="url(#clip670)" d="
M1991.34 250.738 L2281.45 250.738 L2281.45 95.2176 L1991.34 95.2176  Z
  " fill="#ffffff" fill-rule="evenodd" fill-opacity="1"/>
<polyline clip-path="url(#clip670)" style="stroke:#000000; stroke-linecap:butt; stroke-linejoin:round; stroke-width:4; stroke-opacity:1; fill:none" points="
  1991.34,250.738 2281.45,250.738 2281.45,95.2176 1991.34,95.2176 1991.34,250.738 
  "/>
<circle clip-path="url(#clip670)" cx="2086.41" cy="147.058" r="23" fill="#009af9" fill-rule="evenodd" fill-opacity="1" stroke="#000000" stroke-opacity="1" stroke-width="5.12"/>
<path clip-path="url(#clip670)" d="M2195.33 166.745 Q2193.52 171.375 2191.81 172.787 Q2190.1 174.199 2187.22 174.199 L2183.82 174.199 L2183.82 170.634 L2186.32 170.634 Q2188.08 170.634 2189.05 169.8 Q2190.03 168.967 2191.21 165.865 L2191.97 163.921 L2181.48 138.412 L2186 138.412 L2194.1 158.689 L2202.2 138.412 L2206.72 138.412 L2195.33 166.745 Z" fill="#000000" fill-rule="evenodd" fill-opacity="1" /><path clip-path="url(#clip670)" d="M2214.01 160.402 L2221.65 160.402 L2221.65 134.037 L2213.34 135.703 L2213.34 131.444 L2221.6 129.778 L2226.28 129.778 L2226.28 160.402 L2233.91 160.402 L2233.91 164.338 L2214.01 164.338 L2214.01 160.402 Z" fill="#000000" fill-rule="evenodd" fill-opacity="1" /><circle clip-path="url(#clip670)" cx="2086.41" cy="198.898" r="23" fill="#e26f46" fill-rule="evenodd" fill-opacity="1" stroke="#000000" stroke-opacity="1" stroke-width="5.12"/>
<path clip-path="url(#clip670)" d="M2195.33 218.585 Q2193.52 223.215 2191.81 224.627 Q2190.1 226.039 2187.22 226.039 L2183.82 226.039 L2183.82 222.474 L2186.32 222.474 Q2188.08 222.474 2189.05 221.64 Q2190.03 220.807 2191.21 217.705 L2191.97 215.761 L2181.48 190.252 L2186 190.252 L2194.1 210.529 L2202.2 190.252 L2206.72 190.252 L2195.33 218.585 Z" fill="#000000" fill-rule="evenodd" fill-opacity="1" /><path clip-path="url(#clip670)" d="M2217.22 212.242 L2233.54 212.242 L2233.54 216.178 L2211.6 216.178 L2211.6 212.242 Q2214.26 209.488 2218.84 204.858 Q2223.45 200.205 2224.63 198.863 Q2226.88 196.34 2227.76 194.604 Q2228.66 192.844 2228.66 191.155 Q2228.66 188.4 2226.72 186.664 Q2224.79 184.928 2221.69 184.928 Q2219.49 184.928 2217.04 185.692 Q2214.61 186.455 2211.83 188.006 L2211.83 183.284 Q2214.66 182.15 2217.11 181.571 Q2219.56 180.993 2221.6 180.993 Q2226.97 180.993 2230.16 183.678 Q2233.36 186.363 2233.36 190.854 Q2233.36 192.983 2232.55 194.905 Q2231.76 196.803 2229.66 199.395 Q2229.08 200.067 2225.97 203.284 Q2222.87 206.479 2217.22 212.242 Z" fill="#000000" fill-rule="evenodd" fill-opacity="1" /></svg>
