<?xml version="1.0" encoding="utf-8"?>
<svg xmlns="http://www.w3.org/2000/svg" xmlns:xlink="http://www.w3.org/1999/xlink" width="600" height="400" viewBox="0 0 2400 1600">
<defs>
  <clipPath id="clip730">
    <rect x="0" y="0" width="2400" height="1600"/>
  </clipPath>
</defs>
<path clip-path="url(#clip730)" d="
M0 1600 L2400 1600 L2400 0 L0 0  Z
  " fill="#ffffff" fill-rule="evenodd" fill-opacity="1"/>
<defs>
  <clipPath id="clip731">
    <rect x="480" y="0" width="1681" height="1600"/>
  </clipPath>
</defs>
<path clip-path="url(#clip730)" d="
M112.177 1486.45 L2352.76 1486.45 L2352.76 47.2441 L112.177 47.2441  Z
  " fill="#ffffff" fill-rule="evenodd" fill-opacity="1"/>
<defs>
  <clipPath id="clip732">
    <rect x="112" y="47" width="2242" height="1440"/>
  </clipPath>
</defs>
<polyline clip-path="url(#clip732)" style="stroke:#000000; stroke-linecap:butt; stroke-linejoin:round; stroke-width:2; stroke-opacity:0.1; fill:none" points="
  410.451,1486.45 410.451,47.2441 
  "/>
<polyline clip-path="url(#clip732)" style="stroke:#000000; stroke-linecap:butt; stroke-linejoin:round; stroke-width:2; stroke-opacity:0.1; fill:none" points="
  880.174,1486.45 880.174,47.2441 
  "/>
<polyline clip-path="url(#clip732)" style="stroke:#000000; stroke-linecap:butt; stroke-linejoin:round; stroke-width:2; stroke-opacity:0.1; fill:none" points="
  1349.9,1486.45 1349.9,47.2441 
  "/>
<polyline clip-path="url(#clip732)" style="stroke:#000000; stroke-linecap:butt; stroke-linejoin:round; stroke-width:2; stroke-opacity:0.1; fill:none" points="
  1819.62,1486.45 1819.62,47.2441 
  "/>
<polyline clip-path="url(#clip732)" style="stroke:#000000; stroke-linecap:butt; stroke-linejoin:round; stroke-width:2; stroke-opacity:0.1; fill:none" points="
  2289.34,1486.45 2289.34,47.2441 
  "/>
<polyline clip-path="url(#clip730)" style="stroke:#000000; stroke-linecap:butt; stroke-linejoin:round; stroke-width:4; stroke-opacity:1; fill:none" points="
  112.177,1486.45 2352.76,1486.45 
  "/>
<polyline clip-path="url(#clip730)" style="stroke:#000000; stroke-linecap:butt; stroke-linejoin:round; stroke-width:4; stroke-opacity:1; fill:none" points="
  410.451,1486.45 410.451,1467.55 
  "/>
<polyline clip-path="url(#clip730)" style="stroke:#000000; stroke-linecap:butt; stroke-linejoin:round; stroke-width:4; stroke-opacity:1; fill:none" points="
  880.174,1486.45 880.174,1467.55 
  "/>
<polyline clip-path="url(#clip730)" style="stroke:#000000; stroke-linecap:butt; stroke-linejoin:round; stroke-width:4; stroke-opacity:1; fill:none" points="
  1349.9,1486.45 1349.9,1467.55 
  "/>
<polyline clip-path="url(#clip730)" style="stroke:#000000; stroke-linecap:butt; stroke-linejoin:round; stroke-width:4; stroke-opacity:1; fill:none" points="
  1819.62,1486.45 1819.62,1467.55 
  "/>
<polyline clip-path="url(#clip730)" style="stroke:#000000; stroke-linecap:butt; stroke-linejoin:round; stroke-width:4; stroke-opacity:1; fill:none" points="
  2289.34,1486.45 2289.34,1467.55 
  "/>
<path clip-path="url(#clip730)" d="M405.104 1544.91 L421.423 1544.91 L421.423 1548.85 L399.479 1548.85 L399.479 1544.91 Q402.141 1542.16 406.724 1537.53 Q411.331 1532.88 412.511 1531.53 Q414.757 1529.01 415.636 1527.27 Q416.539 1525.51 416.539 1523.82 Q416.539 1521.07 414.595 1519.33 Q412.673 1517.6 409.572 1517.6 Q407.373 1517.6 404.919 1518.36 Q402.488 1519.13 399.711 1520.68 L399.711 1515.95 Q402.535 1514.82 404.988 1514.24 Q407.442 1513.66 409.479 1513.66 Q414.849 1513.66 418.044 1516.35 Q421.238 1519.03 421.238 1523.52 Q421.238 1525.65 420.428 1527.57 Q419.641 1529.47 417.535 1532.07 Q416.956 1532.74 413.854 1535.95 Q410.752 1539.15 405.104 1544.91 Z" fill="#000000" fill-rule="evenodd" fill-opacity="1" /><path clip-path="url(#clip730)" d="M883.184 1518.36 L871.378 1536.81 L883.184 1536.81 L883.184 1518.36 M881.957 1514.29 L887.836 1514.29 L887.836 1536.81 L892.767 1536.81 L892.767 1540.7 L887.836 1540.7 L887.836 1548.85 L883.184 1548.85 L883.184 1540.7 L867.582 1540.7 L867.582 1536.19 L881.957 1514.29 Z" fill="#000000" fill-rule="evenodd" fill-opacity="1" /><path clip-path="url(#clip730)" d="M1350.3 1529.7 Q1347.15 1529.7 1345.3 1531.86 Q1343.47 1534.01 1343.47 1537.76 Q1343.47 1541.49 1345.3 1543.66 Q1347.15 1545.82 1350.3 1545.82 Q1353.45 1545.82 1355.28 1543.66 Q1357.13 1541.49 1357.13 1537.76 Q1357.13 1534.01 1355.28 1531.86 Q1353.45 1529.7 1350.3 1529.7 M1359.58 1515.05 L1359.58 1519.31 Q1357.83 1518.48 1356.02 1518.04 Q1354.24 1517.6 1352.48 1517.6 Q1347.85 1517.6 1345.4 1520.72 Q1342.96 1523.85 1342.62 1530.17 Q1343.98 1528.15 1346.04 1527.09 Q1348.1 1526 1350.58 1526 Q1355.79 1526 1358.8 1529.17 Q1361.83 1532.32 1361.83 1537.76 Q1361.83 1543.08 1358.68 1546.3 Q1355.53 1549.52 1350.3 1549.52 Q1344.31 1549.52 1341.14 1544.94 Q1337.96 1540.33 1337.96 1531.6 Q1337.96 1523.41 1341.85 1518.55 Q1345.74 1513.66 1352.29 1513.66 Q1354.05 1513.66 1355.83 1514.01 Q1357.64 1514.36 1359.58 1515.05 Z" fill="#000000" fill-rule="evenodd" fill-opacity="1" /><path clip-path="url(#clip730)" d="M1819.62 1532.44 Q1816.29 1532.44 1814.37 1534.22 Q1812.47 1536 1812.47 1539.13 Q1812.47 1542.25 1814.37 1544.03 Q1816.29 1545.82 1819.62 1545.82 Q1822.95 1545.82 1824.87 1544.03 Q1826.8 1542.23 1826.8 1539.13 Q1826.8 1536 1824.87 1534.22 Q1822.98 1532.44 1819.62 1532.44 M1814.94 1530.45 Q1811.94 1529.7 1810.25 1527.64 Q1808.58 1525.58 1808.58 1522.62 Q1808.58 1518.48 1811.52 1516.07 Q1814.48 1513.66 1819.62 1513.66 Q1824.78 1513.66 1827.72 1516.07 Q1830.66 1518.48 1830.66 1522.62 Q1830.66 1525.58 1828.97 1527.64 Q1827.31 1529.7 1824.32 1530.45 Q1827.7 1531.23 1829.57 1533.52 Q1831.47 1535.82 1831.47 1539.13 Q1831.47 1544.15 1828.39 1546.83 Q1825.34 1549.52 1819.62 1549.52 Q1813.9 1549.52 1810.82 1546.83 Q1807.77 1544.15 1807.77 1539.13 Q1807.77 1535.82 1809.67 1533.52 Q1811.56 1531.23 1814.94 1530.45 M1813.23 1523.06 Q1813.23 1525.75 1814.9 1527.25 Q1816.59 1528.76 1819.62 1528.76 Q1822.63 1528.76 1824.32 1527.25 Q1826.03 1525.75 1826.03 1523.06 Q1826.03 1520.38 1824.32 1518.87 Q1822.63 1517.37 1819.62 1517.37 Q1816.59 1517.37 1814.9 1518.87 Q1813.23 1520.38 1813.23 1523.06 Z" fill="#000000" fill-rule="evenodd" fill-opacity="1" /><path clip-path="url(#clip730)" d="M2264.03 1544.91 L2271.67 1544.91 L2271.67 1518.55 L2263.36 1520.21 L2263.36 1515.95 L2271.62 1514.29 L2276.3 1514.29 L2276.3 1544.91 L2283.94 1544.91 L2283.94 1548.85 L2264.03 1548.85 L2264.03 1544.91 Z" fill="#000000" fill-rule="evenodd" fill-opacity="1" /><path clip-path="url(#clip730)" d="M2303.38 1517.37 Q2299.77 1517.37 2297.94 1520.93 Q2296.14 1524.47 2296.14 1531.6 Q2296.14 1538.71 2297.94 1542.27 Q2299.77 1545.82 2303.38 1545.82 Q2307.02 1545.82 2308.82 1542.27 Q2310.65 1538.71 2310.65 1531.6 Q2310.65 1524.47 2308.82 1520.93 Q2307.02 1517.37 2303.38 1517.37 M2303.38 1513.66 Q2309.19 1513.66 2312.25 1518.27 Q2315.33 1522.85 2315.33 1531.6 Q2315.33 1540.33 2312.25 1544.94 Q2309.19 1549.52 2303.38 1549.52 Q2297.57 1549.52 2294.49 1544.94 Q2291.44 1540.33 2291.44 1531.6 Q2291.44 1522.85 2294.49 1518.27 Q2297.57 1513.66 2303.38 1513.66 Z" fill="#000000" fill-rule="evenodd" fill-opacity="1" /><polyline clip-path="url(#clip732)" style="stroke:#000000; stroke-linecap:butt; stroke-linejoin:round; stroke-width:2; stroke-opacity:0.1; fill:none" points="
  112.177,1168.2 2352.76,1168.2 
  "/>
<polyline clip-path="url(#clip732)" style="stroke:#000000; stroke-linecap:butt; stroke-linejoin:round; stroke-width:2; stroke-opacity:0.1; fill:none" points="
  112.177,847.117 2352.76,847.117 
  "/>
<polyline clip-path="url(#clip732)" style="stroke:#000000; stroke-linecap:butt; stroke-linejoin:round; stroke-width:2; stroke-opacity:0.1; fill:none" points="
  112.177,526.033 2352.76,526.033 
  "/>
<polyline clip-path="url(#clip732)" style="stroke:#000000; stroke-linecap:butt; stroke-linejoin:round; stroke-width:2; stroke-opacity:0.1; fill:none" points="
  112.177,204.95 2352.76,204.95 
  "/>
<polyline clip-path="url(#clip730)" style="stroke:#000000; stroke-linecap:butt; stroke-linejoin:round; stroke-width:4; stroke-opacity:1; fill:none" points="
  112.177,1486.45 112.177,47.2441 
  "/>
<polyline clip-path="url(#clip730)" style="stroke:#000000; stroke-linecap:butt; stroke-linejoin:round; stroke-width:4; stroke-opacity:1; fill:none" points="
  112.177,1168.2 131.075,1168.2 
  "/>
<polyline clip-path="url(#clip730)" style="stroke:#000000; stroke-linecap:butt; stroke-linejoin:round; stroke-width:4; stroke-opacity:1; fill:none" points="
  112.177,847.117 131.075,847.117 
  "/>
<polyline clip-path="url(#clip730)" style="stroke:#000000; stroke-linecap:butt; stroke-linejoin:round; stroke-width:4; stroke-opacity:1; fill:none" points="
  112.177,526.033 131.075,526.033 
  "/>
<polyline clip-path="url(#clip730)" style="stroke:#000000; stroke-linecap:butt; stroke-linejoin:round; stroke-width:4; stroke-opacity:1; fill:none" points="
  112.177,204.95 131.075,204.95 
  "/>
<path clip-path="url(#clip730)" d="M59.8578 1181.55 L76.1772 1181.55 L76.1772 1185.48 L54.2328 1185.48 L54.2328 1181.55 Q56.8949 1178.79 61.4782 1174.16 Q66.0846 1169.51 67.2652 1168.17 Q69.5105 1165.64 70.3902 1163.91 Q71.2929 1162.15 71.2929 1160.46 Q71.2929 1157.7 69.3485 1155.97 Q67.4272 1154.23 64.3254 1154.23 Q62.1263 1154.23 59.6726 1154.99 Q57.2421 1155.76 54.4643 1157.31 L54.4643 1152.59 Q57.2884 1151.45 59.7421 1150.87 Q62.1958 1150.3 64.2328 1150.3 Q69.6031 1150.3 72.7976 1152.98 Q75.992 1155.67 75.992 1160.16 Q75.992 1162.29 75.1818 1164.21 Q74.3948 1166.11 72.2883 1168.7 Q71.7096 1169.37 68.6078 1172.59 Q65.5059 1175.78 59.8578 1181.55 Z" fill="#000000" fill-rule="evenodd" fill-opacity="1" /><path clip-path="url(#clip730)" d="M66.5939 833.911 L54.7884 852.36 L66.5939 852.36 L66.5939 833.911 M65.367 829.837 L71.2466 829.837 L71.2466 852.36 L76.1772 852.36 L76.1772 856.249 L71.2466 856.249 L71.2466 864.397 L66.5939 864.397 L66.5939 856.249 L50.9921 856.249 L50.9921 851.735 L65.367 829.837 Z" fill="#000000" fill-rule="evenodd" fill-opacity="1" /><path clip-path="url(#clip730)" d="M64.6495 524.17 Q61.5013 524.17 59.6495 526.323 Q57.8208 528.475 57.8208 532.225 Q57.8208 535.952 59.6495 538.128 Q61.5013 540.281 64.6495 540.281 Q67.7976 540.281 69.6263 538.128 Q71.4781 535.952 71.4781 532.225 Q71.4781 528.475 69.6263 526.323 Q67.7976 524.17 64.6495 524.17 M73.9318 509.517 L73.9318 513.776 Q72.1726 512.943 70.367 512.503 Q68.5846 512.063 66.8254 512.063 Q62.1958 512.063 59.7421 515.188 Q57.3115 518.313 56.9643 524.633 Q58.33 522.619 60.3902 521.554 Q62.4504 520.466 64.9272 520.466 Q70.1355 520.466 73.1448 523.637 Q76.1772 526.786 76.1772 532.225 Q76.1772 537.549 73.029 540.767 Q69.8809 543.985 64.6495 543.985 Q58.6541 543.985 55.4828 539.401 Q52.3116 534.795 52.3116 526.068 Q52.3116 517.874 56.2004 513.013 Q60.0893 508.128 66.6402 508.128 Q68.3994 508.128 70.1818 508.476 Q71.9874 508.823 73.9318 509.517 Z" fill="#000000" fill-rule="evenodd" fill-opacity="1" /><path clip-path="url(#clip730)" d="M64.3254 205.818 Q60.9921 205.818 59.0708 207.6 Q57.1726 209.383 57.1726 212.508 Q57.1726 215.633 59.0708 217.415 Q60.9921 219.197 64.3254 219.197 Q67.6587 219.197 69.58 217.415 Q71.5013 215.609 71.5013 212.508 Q71.5013 209.383 69.58 207.6 Q67.6819 205.818 64.3254 205.818 M59.6495 203.827 Q56.6402 203.086 54.9504 201.026 Q53.2838 198.966 53.2838 196.003 Q53.2838 191.86 56.2236 189.452 Q59.1865 187.045 64.3254 187.045 Q69.4874 187.045 72.4272 189.452 Q75.367 191.86 75.367 196.003 Q75.367 198.966 73.6772 201.026 Q72.0105 203.086 69.0244 203.827 Q72.404 204.614 74.279 206.906 Q76.1772 209.197 76.1772 212.508 Q76.1772 217.531 73.0985 220.216 Q70.0429 222.901 64.3254 222.901 Q58.6078 222.901 55.5291 220.216 Q52.4736 217.531 52.4736 212.508 Q52.4736 209.197 54.3717 206.906 Q56.2699 204.614 59.6495 203.827 M57.9365 196.443 Q57.9365 199.128 59.6032 200.633 Q61.293 202.137 64.3254 202.137 Q67.3346 202.137 69.0244 200.633 Q70.7374 199.128 70.7374 196.443 Q70.7374 193.758 69.0244 192.253 Q67.3346 190.748 64.3254 190.748 Q61.293 190.748 59.6032 192.253 Q57.9365 193.758 57.9365 196.443 Z" fill="#000000" fill-rule="evenodd" fill-opacity="1" /><polyline clip-path="url(#clip732)" style="stroke:#009af9; stroke-linecap:butt; stroke-linejoin:round; stroke-width:4; stroke-opacity:1; fill:none" points="
  175.59,1445.72 410.451,1328.74 645.313,1328.74 880.174,1320.27 1115.04,1128.07 1349.9,892.296 1584.76,641.396 1819.62,405.627 2054.48,213.426 2289.34,87.9763 
  
  "/>
<circle clip-path="url(#clip732)" cx="175.59" cy="1445.72" r="14" fill="#009af9" fill-rule="evenodd" fill-opacity="1" stroke="#000000" stroke-opacity="1" stroke-width="3.2"/>
<circle clip-path="url(#clip732)" cx="410.451" cy="1328.74" r="14" fill="#009af9" fill-rule="evenodd" fill-opacity="1" stroke="#000000" stroke-opacity="1" stroke-width="3.2"/>
<circle clip-path="url(#clip732)" cx="645.313" cy="1328.74" r="14" fill="#009af9" fill-rule="evenodd" fill-opacity="1" stroke="#000000" stroke-opacity="1" stroke-width="3.2"/>
<circle clip-path="url(#clip732)" cx="880.174" cy="1320.27" r="14" fill="#009af9" fill-rule="evenodd" fill-opacity="1" stroke="#000000" stroke-opacity="1" stroke-width="3.2"/>
<circle clip-path="url(#clip732)" cx="1115.04" cy="1128.07" r="14" fill="#009af9" fill-rule="evenodd" fill-opacity="1" stroke="#000000" stroke-opacity="1" stroke-width="3.2"/>
<circle clip-path="url(#clip732)" cx="1349.9" cy="892.296" r="14" fill="#009af9" fill-rule="evenodd" fill-opacity="1" stroke="#000000" stroke-opacity="1" stroke-width="3.2"/>
<circle clip-path="url(#clip732)" cx="1584.76" cy="641.396" r="14" fill="#009af9" fill-rule="evenodd" fill-opacity="1" stroke="#000000" stroke-opacity="1" stroke-width="3.2"/>
<circle clip-path="url(#clip732)" cx="1819.62" cy="405.627" r="14" fill="#009af9" fill-rule="evenodd" fill-opacity="1" stroke="#000000" stroke-opacity="1" stroke-width="3.2"/>
<circle clip-path="url(#clip732)" cx="2054.48" cy="213.426" r="14" fill="#009af9" fill-rule="evenodd" fill-opacity="1" stroke="#000000" stroke-opacity="1" stroke-width="3.2"/>
<circle clip-path="url(#clip732)" cx="2289.34" cy="87.9763" r="14" fill="#009af9" fill-rule="evenodd" fill-opacity="1" stroke="#000000" stroke-opacity="1" stroke-width="3.2"/>
<path clip-path="url(#clip730)" d="
M1976.69 198.898 L2278.07 198.898 L2278.07 95.2176 L1976.69 95.2176  Z
  " fill="#ffffff" fill-rule="evenodd" fill-opacity="1"/>
<polyline clip-path="url(#clip730)" style="stroke:#000000; stroke-linecap:butt; stroke-linejoin:round; stroke-width:4; stroke-opacity:1; fill:none" points="
  1976.69,198.898 2278.07,198.898 2278.07,95.2176 1976.69,95.2176 1976.69,198.898 
  "/>
<polyline clip-path="url(#clip730)" style="stroke:#009af9; stroke-linecap:butt; stroke-linejoin:round; stroke-width:4; stroke-opacity:1; fill:none" points="
  2001.58,147.058 2150.95,147.058 
  "/>
<circle clip-path="url(#clip730)" cx="2076.27" cy="147.058" r="23" fill="#009af9" fill-rule="evenodd" fill-opacity="1" stroke="#000000" stroke-opacity="1" stroke-width="5.12"/>
<path clip-path="url(#clip730)" d="M2189.69 166.745 Q2187.89 171.375 2186.17 172.787 Q2184.46 174.199 2181.59 174.199 L2178.19 174.199 L2178.19 170.634 L2180.69 170.634 Q2182.45 170.634 2183.42 169.8 Q2184.39 168.967 2185.57 165.865 L2186.34 163.921 L2175.85 138.412 L2180.36 138.412 L2188.46 158.689 L2196.57 138.412 L2201.08 138.412 L2189.69 166.745 Z" fill="#000000" fill-rule="evenodd" fill-opacity="1" /><path clip-path="url(#clip730)" d="M2208.37 160.402 L2216.01 160.402 L2216.01 134.037 L2207.7 135.703 L2207.7 131.444 L2215.96 129.778 L2220.64 129.778 L2220.64 160.402 L2228.28 160.402 L2228.28 164.338 L2208.37 164.338 L2208.37 160.402 Z" fill="#000000" fill-rule="evenodd" fill-opacity="1" /></svg>
