<?xml version="1.0" encoding="utf-8"?>
<svg xmlns="http://www.w3.org/2000/svg" xmlns:xlink="http://www.w3.org/1999/xlink" width="600" height="400" viewBox="0 0 2400 1600">
<defs>
  <clipPath id="clip430">
    <rect x="0" y="0" width="2400" height="1600"/>
  </clipPath>
</defs>
<path clip-path="url(#clip430)" d="
M0 1600 L2400 1600 L2400 0 L0 0  Z
  " fill="#ffffff" fill-rule="evenodd" fill-opacity="1"/>
<defs>
  <clipPath id="clip431">
    <rect x="480" y="0" width="1681" height="1600"/>
  </clipPath>
</defs>
<path clip-path="url(#clip430)" d="
M216.436 1486.45 L2352.76 1486.45 L2352.76 123.472 L216.436 123.472  Z
  " fill="#ffffff" fill-rule="evenodd" fill-opacity="1"/>
<defs>
  <clipPath id="clip432">
    <rect x="216" y="123" width="2137" height="1364"/>
  </clipPath>
</defs>
<polyline clip-path="url(#clip432)" style="stroke:#000000; stroke-linecap:butt; stroke-linejoin:round; stroke-width:2; stroke-opacity:0.1; fill:none" points="
  276.898,1486.45 276.898,123.472 
  "/>
<polyline clip-path="url(#clip432)" style="stroke:#000000; stroke-linecap:butt; stroke-linejoin:round; stroke-width:2; stroke-opacity:0.1; fill:none" points="
  780.747,1486.45 780.747,123.472 
  "/>
<polyline clip-path="url(#clip432)" style="stroke:#000000; stroke-linecap:butt; stroke-linejoin:round; stroke-width:2; stroke-opacity:0.1; fill:none" points="
  1284.6,1486.45 1284.6,123.472 
  "/>
<polyline clip-path="url(#clip432)" style="stroke:#000000; stroke-linecap:butt; stroke-linejoin:round; stroke-width:2; stroke-opacity:0.1; fill:none" points="
  1788.44,1486.45 1788.44,123.472 
  "/>
<polyline clip-path="url(#clip432)" style="stroke:#000000; stroke-linecap:butt; stroke-linejoin:round; stroke-width:2; stroke-opacity:0.1; fill:none" points="
  2292.29,1486.45 2292.29,123.472 
  "/>
<polyline clip-path="url(#clip430)" style="stroke:#000000; stroke-linecap:butt; stroke-linejoin:round; stroke-width:4; stroke-opacity:1; fill:none" points="
  216.436,1486.45 2352.76,1486.45 
  "/>
<polyline clip-path="url(#clip430)" style="stroke:#000000; stroke-linecap:butt; stroke-linejoin:round; stroke-width:4; stroke-opacity:1; fill:none" points="
  276.898,1486.45 276.898,1467.55 
  "/>
<polyline clip-path="url(#clip430)" style="stroke:#000000; stroke-linecap:butt; stroke-linejoin:round; stroke-width:4; stroke-opacity:1; fill:none" points="
  780.747,1486.45 780.747,1467.55 
  "/>
<polyline clip-path="url(#clip430)" style="stroke:#000000; stroke-linecap:butt; stroke-linejoin:round; stroke-width:4; stroke-opacity:1; fill:none" points="
  1284.6,1486.45 1284.6,1467.55 
  "/>
<polyline clip-path="url(#clip430)" style="stroke:#000000; stroke-linecap:butt; stroke-linejoin:round; stroke-width:4; stroke-opacity:1; fill:none" points="
  1788.44,1486.45 1788.44,1467.55 
  "/>
<polyline clip-path="url(#clip430)" style="stroke:#000000; stroke-linecap:butt; stroke-linejoin:round; stroke-width:4; stroke-opacity:1; fill:none" points="
  2292.29,1486.45 2292.29,1467.55 
  "/>
<path clip-path="url(#clip430)" d="M223.426 1530.29 L253.102 1530.29 L253.102 1534.23 L223.426 1534.23 L223.426 1530.29 Z" fill="#000000" fill-rule="evenodd" fill-opacity="1" /><path clip-path="url(#clip430)" d="M264.004 1543.18 L271.643 1543.18 L271.643 1516.82 L263.333 1518.49 L263.333 1514.23 L271.597 1512.56 L276.273 1512.56 L276.273 1543.18 L283.912 1543.18 L283.912 1547.12 L264.004 1547.12 L264.004 1543.18 Z" fill="#000000" fill-rule="evenodd" fill-opacity="1" /><path clip-path="url(#clip430)" d="M293.356 1541.24 L298.24 1541.24 L298.24 1547.12 L293.356 1547.12 L293.356 1541.24 Z" fill="#000000" fill-rule="evenodd" fill-opacity="1" /><path clip-path="url(#clip430)" d="M318.425 1515.64 Q314.814 1515.64 312.986 1519.2 Q311.18 1522.75 311.18 1529.87 Q311.18 1536.98 312.986 1540.55 Q314.814 1544.09 318.425 1544.09 Q322.06 1544.09 323.865 1540.55 Q325.694 1536.98 325.694 1529.87 Q325.694 1522.75 323.865 1519.2 Q322.06 1515.64 318.425 1515.64 M318.425 1511.93 Q324.235 1511.93 327.291 1516.54 Q330.37 1521.12 330.37 1529.87 Q330.37 1538.6 327.291 1543.21 Q324.235 1547.79 318.425 1547.79 Q312.615 1547.79 309.536 1543.21 Q306.481 1538.6 306.481 1529.87 Q306.481 1521.12 309.536 1516.54 Q312.615 1511.93 318.425 1511.93 Z" fill="#000000" fill-rule="evenodd" fill-opacity="1" /><path clip-path="url(#clip430)" d="M727.773 1530.29 L757.448 1530.29 L757.448 1534.23 L727.773 1534.23 L727.773 1530.29 Z" fill="#000000" fill-rule="evenodd" fill-opacity="1" /><path clip-path="url(#clip430)" d="M777.541 1515.64 Q773.93 1515.64 772.101 1519.2 Q770.295 1522.75 770.295 1529.87 Q770.295 1536.98 772.101 1540.55 Q773.93 1544.09 777.541 1544.09 Q781.175 1544.09 782.981 1540.55 Q784.809 1536.98 784.809 1529.87 Q784.809 1522.75 782.981 1519.2 Q781.175 1515.64 777.541 1515.64 M777.541 1511.93 Q783.351 1511.93 786.407 1516.54 Q789.485 1521.12 789.485 1529.87 Q789.485 1538.6 786.407 1543.21 Q783.351 1547.79 777.541 1547.79 Q771.731 1547.79 768.652 1543.21 Q765.596 1538.6 765.596 1529.87 Q765.596 1521.12 768.652 1516.54 Q771.731 1511.93 777.541 1511.93 Z" fill="#000000" fill-rule="evenodd" fill-opacity="1" /><path clip-path="url(#clip430)" d="M797.703 1541.24 L802.587 1541.24 L802.587 1547.12 L797.703 1547.12 L797.703 1541.24 Z" fill="#000000" fill-rule="evenodd" fill-opacity="1" /><path clip-path="url(#clip430)" d="M812.818 1512.56 L831.175 1512.56 L831.175 1516.5 L817.101 1516.5 L817.101 1524.97 Q818.119 1524.62 819.138 1524.46 Q820.156 1524.27 821.175 1524.27 Q826.962 1524.27 830.341 1527.44 Q833.721 1530.62 833.721 1536.03 Q833.721 1541.61 830.249 1544.71 Q826.777 1547.79 820.457 1547.79 Q818.281 1547.79 816.013 1547.42 Q813.767 1547.05 811.36 1546.31 L811.36 1541.61 Q813.443 1542.74 815.666 1543.3 Q817.888 1543.86 820.365 1543.86 Q824.369 1543.86 826.707 1541.75 Q829.045 1539.64 829.045 1536.03 Q829.045 1532.42 826.707 1530.31 Q824.369 1528.21 820.365 1528.21 Q818.49 1528.21 816.615 1528.62 Q814.763 1529.04 812.818 1529.92 L812.818 1512.56 Z" fill="#000000" fill-rule="evenodd" fill-opacity="1" /><path clip-path="url(#clip430)" d="M1261.98 1515.64 Q1258.37 1515.64 1256.54 1519.2 Q1254.73 1522.75 1254.73 1529.87 Q1254.73 1536.98 1256.54 1540.55 Q1258.37 1544.09 1261.98 1544.09 Q1265.61 1544.09 1267.42 1540.55 Q1269.25 1536.98 1269.25 1529.87 Q1269.25 1522.75 1267.42 1519.2 Q1265.61 1515.64 1261.98 1515.64 M1261.98 1511.93 Q1267.79 1511.93 1270.85 1516.54 Q1273.92 1521.12 1273.92 1529.87 Q1273.92 1538.6 1270.85 1543.21 Q1267.79 1547.79 1261.98 1547.79 Q1256.17 1547.79 1253.09 1543.21 Q1250.04 1538.6 1250.04 1529.87 Q1250.04 1521.12 1253.09 1516.54 Q1256.17 1511.93 1261.98 1511.93 Z" fill="#000000" fill-rule="evenodd" fill-opacity="1" /><path clip-path="url(#clip430)" d="M1282.14 1541.24 L1287.03 1541.24 L1287.03 1547.12 L1282.14 1547.12 L1282.14 1541.24 Z" fill="#000000" fill-rule="evenodd" fill-opacity="1" /><path clip-path="url(#clip430)" d="M1307.21 1515.64 Q1303.6 1515.64 1301.77 1519.2 Q1299.97 1522.75 1299.97 1529.87 Q1299.97 1536.98 1301.77 1540.55 Q1303.6 1544.09 1307.21 1544.09 Q1310.85 1544.09 1312.65 1540.55 Q1314.48 1536.98 1314.48 1529.87 Q1314.48 1522.75 1312.65 1519.2 Q1310.85 1515.64 1307.21 1515.64 M1307.21 1511.93 Q1313.02 1511.93 1316.08 1516.54 Q1319.16 1521.12 1319.16 1529.87 Q1319.16 1538.6 1316.08 1543.21 Q1313.02 1547.79 1307.21 1547.79 Q1301.4 1547.79 1298.32 1543.21 Q1295.27 1538.6 1295.27 1529.87 Q1295.27 1521.12 1298.32 1516.54 Q1301.4 1511.93 1307.21 1511.93 Z" fill="#000000" fill-rule="evenodd" fill-opacity="1" /><path clip-path="url(#clip430)" d="M1766.33 1515.64 Q1762.72 1515.64 1760.89 1519.2 Q1759.08 1522.75 1759.08 1529.87 Q1759.08 1536.98 1760.89 1540.55 Q1762.72 1544.09 1766.33 1544.09 Q1769.96 1544.09 1771.77 1540.55 Q1773.6 1536.98 1773.6 1529.87 Q1773.6 1522.75 1771.77 1519.2 Q1769.96 1515.64 1766.33 1515.64 M1766.33 1511.93 Q1772.14 1511.93 1775.19 1516.54 Q1778.27 1521.12 1778.27 1529.87 Q1778.27 1538.6 1775.19 1543.21 Q1772.14 1547.79 1766.33 1547.79 Q1760.52 1547.79 1757.44 1543.21 Q1754.38 1538.6 1754.38 1529.87 Q1754.38 1521.12 1757.44 1516.54 Q1760.52 1511.93 1766.33 1511.93 Z" fill="#000000" fill-rule="evenodd" fill-opacity="1" /><path clip-path="url(#clip430)" d="M1786.49 1541.24 L1791.37 1541.24 L1791.37 1547.12 L1786.49 1547.12 L1786.49 1541.24 Z" fill="#000000" fill-rule="evenodd" fill-opacity="1" /><path clip-path="url(#clip430)" d="M1801.6 1512.56 L1819.96 1512.56 L1819.96 1516.5 L1805.89 1516.5 L1805.89 1524.97 Q1806.91 1524.62 1807.92 1524.46 Q1808.94 1524.27 1809.96 1524.27 Q1815.75 1524.27 1819.13 1527.44 Q1822.51 1530.62 1822.51 1536.03 Q1822.51 1541.61 1819.04 1544.71 Q1815.56 1547.79 1809.24 1547.79 Q1807.07 1547.79 1804.8 1547.42 Q1802.55 1547.05 1800.15 1546.31 L1800.15 1541.61 Q1802.23 1542.74 1804.45 1543.3 Q1806.67 1543.86 1809.15 1543.86 Q1813.16 1543.86 1815.49 1541.75 Q1817.83 1539.64 1817.83 1536.03 Q1817.83 1532.42 1815.49 1530.31 Q1813.16 1528.21 1809.15 1528.21 Q1807.28 1528.21 1805.4 1528.62 Q1803.55 1529.04 1801.6 1529.92 L1801.6 1512.56 Z" fill="#000000" fill-rule="evenodd" fill-opacity="1" /><path clip-path="url(#clip430)" d="M2259.45 1543.18 L2267.09 1543.18 L2267.09 1516.82 L2258.78 1518.49 L2258.78 1514.23 L2267.04 1512.56 L2271.72 1512.56 L2271.72 1543.18 L2279.35 1543.18 L2279.35 1547.12 L2259.45 1547.12 L2259.45 1543.18 Z" fill="#000000" fill-rule="evenodd" fill-opacity="1" /><path clip-path="url(#clip430)" d="M2288.8 1541.24 L2293.68 1541.24 L2293.68 1547.12 L2288.8 1547.12 L2288.8 1541.24 Z" fill="#000000" fill-rule="evenodd" fill-opacity="1" /><path clip-path="url(#clip430)" d="M2313.87 1515.64 Q2310.26 1515.64 2308.43 1519.2 Q2306.62 1522.75 2306.62 1529.87 Q2306.62 1536.98 2308.43 1540.55 Q2310.26 1544.09 2313.87 1544.09 Q2317.5 1544.09 2319.31 1540.55 Q2321.14 1536.98 2321.14 1529.87 Q2321.14 1522.75 2319.31 1519.2 Q2317.5 1515.64 2313.87 1515.64 M2313.87 1511.93 Q2319.68 1511.93 2322.73 1516.54 Q2325.81 1521.12 2325.81 1529.87 Q2325.81 1538.6 2322.73 1543.21 Q2319.68 1547.79 2313.87 1547.79 Q2308.06 1547.79 2304.98 1543.21 Q2301.92 1538.6 2301.92 1529.87 Q2301.92 1521.12 2304.98 1516.54 Q2308.06 1511.93 2313.87 1511.93 Z" fill="#000000" fill-rule="evenodd" fill-opacity="1" /><polyline clip-path="url(#clip432)" style="stroke:#000000; stroke-linecap:butt; stroke-linejoin:round; stroke-width:2; stroke-opacity:0.1; fill:none" points="
  216.436,1447.87 2352.76,1447.87 
  "/>
<polyline clip-path="url(#clip432)" style="stroke:#000000; stroke-linecap:butt; stroke-linejoin:round; stroke-width:2; stroke-opacity:0.1; fill:none" points="
  216.436,1099.26 2352.76,1099.26 
  "/>
<polyline clip-path="url(#clip432)" style="stroke:#000000; stroke-linecap:butt; stroke-linejoin:round; stroke-width:2; stroke-opacity:0.1; fill:none" points="
  216.436,750.639 2352.76,750.639 
  "/>
<polyline clip-path="url(#clip432)" style="stroke:#000000; stroke-linecap:butt; stroke-linejoin:round; stroke-width:2; stroke-opacity:0.1; fill:none" points="
  216.436,402.021 2352.76,402.021 
  "/>
<polyline clip-path="url(#clip430)" style="stroke:#000000; stroke-linecap:butt; stroke-linejoin:round; stroke-width:4; stroke-opacity:1; fill:none" points="
  216.436,1486.45 216.436,123.472 
  "/>
<polyline clip-path="url(#clip430)" style="stroke:#000000; stroke-linecap:butt; stroke-linejoin:round; stroke-width:4; stroke-opacity:1; fill:none" points="
  216.436,1447.87 235.334,1447.87 
  "/>
<polyline clip-path="url(#clip430)" style="stroke:#000000; stroke-linecap:butt; stroke-linejoin:round; stroke-width:4; stroke-opacity:1; fill:none" points="
  216.436,1099.26 235.334,1099.26 
  "/>
<polyline clip-path="url(#clip430)" style="stroke:#000000; stroke-linecap:butt; stroke-linejoin:round; stroke-width:4; stroke-opacity:1; fill:none" points="
  216.436,750.639 235.334,750.639 
  "/>
<polyline clip-path="url(#clip430)" style="stroke:#000000; stroke-linecap:butt; stroke-linejoin:round; stroke-width:4; stroke-opacity:1; fill:none" points="
  216.436,402.021 235.334,402.021 
  "/>
<path clip-path="url(#clip430)" d="M62.9365 1433.67 Q59.3254 1433.67 57.4967 1437.24 Q55.6912 1440.78 55.6912 1447.91 Q55.6912 1455.01 57.4967 1458.58 Q59.3254 1462.12 62.9365 1462.12 Q66.5707 1462.12 68.3763 1458.58 Q70.205 1455.01 70.205 1447.91 Q70.205 1440.78 68.3763 1437.24 Q66.5707 1433.67 62.9365 1433.67 M62.9365 1429.97 Q68.7467 1429.97 71.8022 1434.57 Q74.8809 1439.16 74.8809 1447.91 Q74.8809 1456.63 71.8022 1461.24 Q68.7467 1465.82 62.9365 1465.82 Q57.1264 1465.82 54.0477 1461.24 Q50.9921 1456.63 50.9921 1447.91 Q50.9921 1439.16 54.0477 1434.57 Q57.1264 1429.97 62.9365 1429.97 Z" fill="#000000" fill-rule="evenodd" fill-opacity="1" /><path clip-path="url(#clip430)" d="M83.0984 1459.27 L87.9827 1459.27 L87.9827 1465.15 L83.0984 1465.15 L83.0984 1459.27 Z" fill="#000000" fill-rule="evenodd" fill-opacity="1" /><path clip-path="url(#clip430)" d="M108.168 1433.67 Q104.557 1433.67 102.728 1437.24 Q100.922 1440.78 100.922 1447.91 Q100.922 1455.01 102.728 1458.58 Q104.557 1462.12 108.168 1462.12 Q111.802 1462.12 113.608 1458.58 Q115.436 1455.01 115.436 1447.91 Q115.436 1440.78 113.608 1437.24 Q111.802 1433.67 108.168 1433.67 M108.168 1429.97 Q113.978 1429.97 117.033 1434.57 Q120.112 1439.16 120.112 1447.91 Q120.112 1456.63 117.033 1461.24 Q113.978 1465.82 108.168 1465.82 Q102.358 1465.82 99.2789 1461.24 Q96.2234 1456.63 96.2234 1447.91 Q96.2234 1439.16 99.2789 1434.57 Q102.358 1429.97 108.168 1429.97 Z" fill="#000000" fill-rule="evenodd" fill-opacity="1" /><path clip-path="url(#clip430)" d="M138.33 1433.67 Q134.719 1433.67 132.89 1437.24 Q131.084 1440.78 131.084 1447.91 Q131.084 1455.01 132.89 1458.58 Q134.719 1462.12 138.33 1462.12 Q141.964 1462.12 143.769 1458.58 Q145.598 1455.01 145.598 1447.91 Q145.598 1440.78 143.769 1437.24 Q141.964 1433.67 138.33 1433.67 M138.33 1429.97 Q144.14 1429.97 147.195 1434.57 Q150.274 1439.16 150.274 1447.91 Q150.274 1456.63 147.195 1461.24 Q144.14 1465.82 138.33 1465.82 Q132.519 1465.82 129.441 1461.24 Q126.385 1456.63 126.385 1447.91 Q126.385 1439.16 129.441 1434.57 Q132.519 1429.97 138.33 1429.97 Z" fill="#000000" fill-rule="evenodd" fill-opacity="1" /><path clip-path="url(#clip430)" d="M168.491 1433.67 Q164.88 1433.67 163.052 1437.24 Q161.246 1440.78 161.246 1447.91 Q161.246 1455.01 163.052 1458.58 Q164.88 1462.12 168.491 1462.12 Q172.126 1462.12 173.931 1458.58 Q175.76 1455.01 175.76 1447.91 Q175.76 1440.78 173.931 1437.24 Q172.126 1433.67 168.491 1433.67 M168.491 1429.97 Q174.302 1429.97 177.357 1434.57 Q180.436 1439.16 180.436 1447.91 Q180.436 1456.63 177.357 1461.24 Q174.302 1465.82 168.491 1465.82 Q162.681 1465.82 159.603 1461.24 Q156.547 1456.63 156.547 1447.91 Q156.547 1439.16 159.603 1434.57 Q162.681 1429.97 168.491 1429.97 Z" fill="#000000" fill-rule="evenodd" fill-opacity="1" /><path clip-path="url(#clip430)" d="M63.9319 1085.05 Q60.3208 1085.05 58.4921 1088.62 Q56.6865 1092.16 56.6865 1099.29 Q56.6865 1106.4 58.4921 1109.96 Q60.3208 1113.5 63.9319 1113.5 Q67.5661 1113.5 69.3717 1109.96 Q71.2004 1106.4 71.2004 1099.29 Q71.2004 1092.16 69.3717 1088.62 Q67.5661 1085.05 63.9319 1085.05 M63.9319 1081.35 Q69.742 1081.35 72.7976 1085.96 Q75.8763 1090.54 75.8763 1099.29 Q75.8763 1108.02 72.7976 1112.62 Q69.742 1117.21 63.9319 1117.21 Q58.1217 1117.21 55.043 1112.62 Q51.9875 1108.02 51.9875 1099.29 Q51.9875 1090.54 55.043 1085.96 Q58.1217 1081.35 63.9319 1081.35 Z" fill="#000000" fill-rule="evenodd" fill-opacity="1" /><path clip-path="url(#clip430)" d="M84.0938 1110.66 L88.978 1110.66 L88.978 1116.54 L84.0938 1116.54 L84.0938 1110.66 Z" fill="#000000" fill-rule="evenodd" fill-opacity="1" /><path clip-path="url(#clip430)" d="M109.163 1085.05 Q105.552 1085.05 103.723 1088.62 Q101.918 1092.16 101.918 1099.29 Q101.918 1106.4 103.723 1109.96 Q105.552 1113.5 109.163 1113.5 Q112.797 1113.5 114.603 1109.96 Q116.432 1106.4 116.432 1099.29 Q116.432 1092.16 114.603 1088.62 Q112.797 1085.05 109.163 1085.05 M109.163 1081.35 Q114.973 1081.35 118.029 1085.96 Q121.107 1090.54 121.107 1099.29 Q121.107 1108.02 118.029 1112.62 Q114.973 1117.21 109.163 1117.21 Q103.353 1117.21 100.274 1112.62 Q97.2187 1108.02 97.2187 1099.29 Q97.2187 1090.54 100.274 1085.96 Q103.353 1081.35 109.163 1081.35 Z" fill="#000000" fill-rule="evenodd" fill-opacity="1" /><path clip-path="url(#clip430)" d="M139.325 1085.05 Q135.714 1085.05 133.885 1088.62 Q132.08 1092.16 132.08 1099.29 Q132.08 1106.4 133.885 1109.96 Q135.714 1113.5 139.325 1113.5 Q142.959 1113.5 144.765 1109.96 Q146.593 1106.4 146.593 1099.29 Q146.593 1092.16 144.765 1088.62 Q142.959 1085.05 139.325 1085.05 M139.325 1081.35 Q145.135 1081.35 148.191 1085.96 Q151.269 1090.54 151.269 1099.29 Q151.269 1108.02 148.191 1112.62 Q145.135 1117.21 139.325 1117.21 Q133.515 1117.21 130.436 1112.62 Q127.381 1108.02 127.381 1099.29 Q127.381 1090.54 130.436 1085.96 Q133.515 1081.35 139.325 1081.35 Z" fill="#000000" fill-rule="evenodd" fill-opacity="1" /><path clip-path="url(#clip430)" d="M159.533 1081.98 L177.89 1081.98 L177.89 1085.91 L163.816 1085.91 L163.816 1094.38 Q164.834 1094.04 165.853 1093.87 Q166.871 1093.69 167.89 1093.69 Q173.677 1093.69 177.056 1096.86 Q180.436 1100.03 180.436 1105.45 Q180.436 1111.03 176.964 1114.13 Q173.491 1117.21 167.172 1117.21 Q164.996 1117.21 162.728 1116.84 Q160.482 1116.47 158.075 1115.73 L158.075 1111.03 Q160.158 1112.16 162.38 1112.72 Q164.603 1113.27 167.079 1113.27 Q171.084 1113.27 173.422 1111.17 Q175.76 1109.06 175.76 1105.45 Q175.76 1101.84 173.422 1099.73 Q171.084 1097.62 167.079 1097.62 Q165.204 1097.62 163.329 1098.04 Q161.478 1098.46 159.533 1099.34 L159.533 1081.98 Z" fill="#000000" fill-rule="evenodd" fill-opacity="1" /><path clip-path="url(#clip430)" d="M62.9365 736.437 Q59.3254 736.437 57.4967 740.002 Q55.6912 743.544 55.6912 750.673 Q55.6912 757.78 57.4967 761.345 Q59.3254 764.886 62.9365 764.886 Q66.5707 764.886 68.3763 761.345 Q70.205 757.78 70.205 750.673 Q70.205 743.544 68.3763 740.002 Q66.5707 736.437 62.9365 736.437 M62.9365 732.734 Q68.7467 732.734 71.8022 737.34 Q74.8809 741.923 74.8809 750.673 Q74.8809 759.4 71.8022 764.007 Q68.7467 768.59 62.9365 768.59 Q57.1264 768.59 54.0477 764.007 Q50.9921 759.4 50.9921 750.673 Q50.9921 741.923 54.0477 737.34 Q57.1264 732.734 62.9365 732.734 Z" fill="#000000" fill-rule="evenodd" fill-opacity="1" /><path clip-path="url(#clip430)" d="M83.0984 762.039 L87.9827 762.039 L87.9827 767.919 L83.0984 767.919 L83.0984 762.039 Z" fill="#000000" fill-rule="evenodd" fill-opacity="1" /><path clip-path="url(#clip430)" d="M108.168 736.437 Q104.557 736.437 102.728 740.002 Q100.922 743.544 100.922 750.673 Q100.922 757.78 102.728 761.345 Q104.557 764.886 108.168 764.886 Q111.802 764.886 113.608 761.345 Q115.436 757.78 115.436 750.673 Q115.436 743.544 113.608 740.002 Q111.802 736.437 108.168 736.437 M108.168 732.734 Q113.978 732.734 117.033 737.34 Q120.112 741.923 120.112 750.673 Q120.112 759.4 117.033 764.007 Q113.978 768.59 108.168 768.59 Q102.358 768.59 99.2789 764.007 Q96.2234 759.4 96.2234 750.673 Q96.2234 741.923 99.2789 737.34 Q102.358 732.734 108.168 732.734 Z" fill="#000000" fill-rule="evenodd" fill-opacity="1" /><path clip-path="url(#clip430)" d="M129.14 763.983 L136.779 763.983 L136.779 737.618 L128.469 739.285 L128.469 735.025 L136.732 733.359 L141.408 733.359 L141.408 763.983 L149.047 763.983 L149.047 767.919 L129.14 767.919 L129.14 763.983 Z" fill="#000000" fill-rule="evenodd" fill-opacity="1" /><path clip-path="url(#clip430)" d="M168.491 736.437 Q164.88 736.437 163.052 740.002 Q161.246 743.544 161.246 750.673 Q161.246 757.78 163.052 761.345 Q164.88 764.886 168.491 764.886 Q172.126 764.886 173.931 761.345 Q175.76 757.78 175.76 750.673 Q175.76 743.544 173.931 740.002 Q172.126 736.437 168.491 736.437 M168.491 732.734 Q174.302 732.734 177.357 737.34 Q180.436 741.923 180.436 750.673 Q180.436 759.4 177.357 764.007 Q174.302 768.59 168.491 768.59 Q162.681 768.59 159.603 764.007 Q156.547 759.4 156.547 750.673 Q156.547 741.923 159.603 737.34 Q162.681 732.734 168.491 732.734 Z" fill="#000000" fill-rule="evenodd" fill-opacity="1" /><path clip-path="url(#clip430)" d="M63.9319 387.82 Q60.3208 387.82 58.4921 391.385 Q56.6865 394.927 56.6865 402.056 Q56.6865 409.163 58.4921 412.727 Q60.3208 416.269 63.9319 416.269 Q67.5661 416.269 69.3717 412.727 Q71.2004 409.163 71.2004 402.056 Q71.2004 394.927 69.3717 391.385 Q67.5661 387.82 63.9319 387.82 M63.9319 384.116 Q69.742 384.116 72.7976 388.723 Q75.8763 393.306 75.8763 402.056 Q75.8763 410.783 72.7976 415.389 Q69.742 419.973 63.9319 419.973 Q58.1217 419.973 55.043 415.389 Q51.9875 410.783 51.9875 402.056 Q51.9875 393.306 55.043 388.723 Q58.1217 384.116 63.9319 384.116 Z" fill="#000000" fill-rule="evenodd" fill-opacity="1" /><path clip-path="url(#clip430)" d="M84.0938 413.422 L88.978 413.422 L88.978 419.301 L84.0938 419.301 L84.0938 413.422 Z" fill="#000000" fill-rule="evenodd" fill-opacity="1" /><path clip-path="url(#clip430)" d="M109.163 387.82 Q105.552 387.82 103.723 391.385 Q101.918 394.927 101.918 402.056 Q101.918 409.163 103.723 412.727 Q105.552 416.269 109.163 416.269 Q112.797 416.269 114.603 412.727 Q116.432 409.163 116.432 402.056 Q116.432 394.927 114.603 391.385 Q112.797 387.82 109.163 387.82 M109.163 384.116 Q114.973 384.116 118.029 388.723 Q121.107 393.306 121.107 402.056 Q121.107 410.783 118.029 415.389 Q114.973 419.973 109.163 419.973 Q103.353 419.973 100.274 415.389 Q97.2187 410.783 97.2187 402.056 Q97.2187 393.306 100.274 388.723 Q103.353 384.116 109.163 384.116 Z" fill="#000000" fill-rule="evenodd" fill-opacity="1" /><path clip-path="url(#clip430)" d="M130.135 415.366 L137.774 415.366 L137.774 389.001 L129.464 390.667 L129.464 386.408 L137.728 384.741 L142.404 384.741 L142.404 415.366 L150.043 415.366 L150.043 419.301 L130.135 419.301 L130.135 415.366 Z" fill="#000000" fill-rule="evenodd" fill-opacity="1" /><path clip-path="url(#clip430)" d="M159.533 384.741 L177.89 384.741 L177.89 388.677 L163.816 388.677 L163.816 397.149 Q164.834 396.802 165.853 396.64 Q166.871 396.454 167.89 396.454 Q173.677 396.454 177.056 399.626 Q180.436 402.797 180.436 408.214 Q180.436 413.792 176.964 416.894 Q173.491 419.973 167.172 419.973 Q164.996 419.973 162.728 419.602 Q160.482 419.232 158.075 418.491 L158.075 413.792 Q160.158 414.926 162.38 415.482 Q164.603 416.038 167.079 416.038 Q171.084 416.038 173.422 413.931 Q175.76 411.825 175.76 408.214 Q175.76 404.602 173.422 402.496 Q171.084 400.389 167.079 400.389 Q165.204 400.389 163.329 400.806 Q161.478 401.223 159.533 402.102 L159.533 384.741 Z" fill="#000000" fill-rule="evenodd" fill-opacity="1" /><path clip-path="url(#clip430)" d="M1124.36 18.8205 L1124.36 41.5461 L1134.65 41.5461 Q1140.36 41.5461 1143.48 38.5889 Q1146.6 35.6318 1146.6 30.163 Q1146.6 24.7348 1143.48 21.7777 Q1140.36 18.8205 1134.65 18.8205 L1124.36 18.8205 M1116.18 12.096 L1134.65 12.096 Q1144.82 12.096 1150 16.714 Q1155.23 21.2916 1155.23 30.163 Q1155.23 39.1155 1150 43.6931 Q1144.82 48.2706 1134.65 48.2706 L1124.36 48.2706 L1124.36 72.576 L1116.18 72.576 L1116.18 12.096 Z" fill="#000000" fill-rule="evenodd" fill-opacity="1" /><path clip-path="url(#clip430)" d="M1201.73 48.0275 L1201.73 51.6733 L1167.46 51.6733 Q1167.95 59.3701 1172.08 63.421 Q1176.25 67.4314 1183.67 67.4314 Q1187.96 67.4314 1191.97 66.3781 Q1196.02 65.3249 1199.99 63.2184 L1199.99 70.267 Q1195.98 71.9684 1191.77 72.8596 Q1187.56 73.7508 1183.22 73.7508 Q1172.37 73.7508 1166.01 67.4314 Q1159.69 61.1119 1159.69 50.3365 Q1159.69 39.1965 1165.68 32.6746 Q1171.72 26.1121 1181.93 26.1121 Q1191.08 26.1121 1196.39 32.0264 Q1201.73 37.9003 1201.73 48.0275 M1194.28 45.84 Q1194.2 39.7232 1190.84 36.0774 Q1187.52 32.4315 1182.01 32.4315 Q1175.77 32.4315 1172 35.9558 Q1168.27 39.4801 1167.71 45.8805 L1194.28 45.84 Z" fill="#000000" fill-rule="evenodd" fill-opacity="1" /><path clip-path="url(#clip430)" d="M1248.44 86.3491 L1248.44 92.1419 L1205.34 92.1419 L1205.34 86.3491 L1248.44 86.3491 Z" fill="#000000" fill-rule="evenodd" fill-opacity="1" /><path clip-path="url(#clip430)" d="M1293.16 45.1919 L1293.16 72.576 L1285.71 72.576 L1285.71 45.4349 Q1285.71 38.994 1283.2 35.7938 Q1280.69 32.5936 1275.66 32.5936 Q1269.63 32.5936 1266.14 36.4419 Q1262.66 40.2903 1262.66 46.9338 L1262.66 72.576 L1255.17 72.576 L1255.17 9.54393 L1262.66 9.54393 L1262.66 34.2544 Q1265.33 30.163 1268.94 28.1376 Q1272.58 26.1121 1277.32 26.1121 Q1285.14 26.1121 1289.15 30.9732 Q1293.16 35.7938 1293.16 45.1919 Z" fill="#000000" fill-rule="evenodd" fill-opacity="1" /><path clip-path="url(#clip430)" d="M1335.54 12.096 L1367.66 12.096 L1367.66 18.9825 L1343.03 18.9825 L1343.03 33.8088 Q1344.81 33.2012 1346.59 32.9176 Q1348.38 32.5936 1350.16 32.5936 Q1360.29 32.5936 1366.2 38.1433 Q1372.12 43.6931 1372.12 53.1722 Q1372.12 62.9348 1366.04 68.3631 Q1359.96 73.7508 1348.9 73.7508 Q1345.1 73.7508 1341.13 73.1026 Q1337.2 72.4545 1332.98 71.1582 L1332.98 62.9348 Q1336.63 64.9198 1340.52 65.892 Q1344.41 66.8642 1348.74 66.8642 Q1355.75 66.8642 1359.84 63.1779 Q1363.93 59.4916 1363.93 53.1722 Q1363.93 46.8528 1359.84 43.1664 Q1355.75 39.4801 1348.74 39.4801 Q1345.46 39.4801 1342.18 40.2093 Q1338.94 40.9384 1335.54 42.4778 L1335.54 12.096 Z" fill="#000000" fill-rule="evenodd" fill-opacity="1" /><path clip-path="url(#clip430)" d="M1388.24 62.2867 L1396.79 62.2867 L1396.79 72.576 L1388.24 72.576 L1388.24 62.2867 Z" fill="#000000" fill-rule="evenodd" fill-opacity="1" /><path clip-path="url(#clip430)" d="M1432.11 17.4837 Q1425.79 17.4837 1422.59 23.7221 Q1419.43 29.92 1419.43 42.3968 Q1419.43 54.833 1422.59 61.0714 Q1425.79 67.2693 1432.11 67.2693 Q1438.47 67.2693 1441.63 61.0714 Q1444.83 54.833 1444.83 42.3968 Q1444.83 29.92 1441.63 23.7221 Q1438.47 17.4837 1432.11 17.4837 M1432.11 11.0023 Q1442.28 11.0023 1447.62 19.0636 Q1453.01 27.0843 1453.01 42.3968 Q1453.01 57.6687 1447.62 65.73 Q1442.28 73.7508 1432.11 73.7508 Q1421.94 73.7508 1416.55 65.73 Q1411.21 57.6687 1411.21 42.3968 Q1411.21 27.0843 1416.55 19.0636 Q1421.94 11.0023 1432.11 11.0023 Z" fill="#000000" fill-rule="evenodd" fill-opacity="1" /><polyline clip-path="url(#clip432)" style="stroke:#009af9; stroke-linecap:butt; stroke-linejoin:round; stroke-width:4; stroke-opacity:1; fill:none" points="
  276.898,1447.87 328.575,1412.12 380.251,1376.36 431.928,1340.61 483.605,1304.85 535.282,1269.1 586.959,1233.34 638.636,1197.58 690.312,1161.83 741.989,1126.07 
  793.666,1090.32 845.343,1054.56 897.02,1018.81 948.697,983.05 1000.37,947.295 1052.05,911.539 1103.73,875.783 1155.4,840.028 1207.08,804.272 1258.76,768.516 
  1310.43,732.761 1362.11,697.005 1413.79,661.25 1465.46,625.494 1517.14,589.738 1568.82,553.983 1620.5,518.227 1672.17,482.472 1723.85,446.716 1775.53,410.96 
  1827.2,375.205 1878.88,339.45 1930.56,303.698 1982.23,267.964 2033.91,232.344 2085.59,197.415 2137.26,166.73 2188.94,162.047 2240.62,316.709 2292.29,1447.87 
  
  "/>
<circle clip-path="url(#clip432)" cx="276.898" cy="1447.87" r="14" fill="#009af9" fill-rule="evenodd" fill-opacity="1" stroke="#000000" stroke-opacity="1" stroke-width="3.2"/>
<circle clip-path="url(#clip432)" cx="328.575" cy="1412.12" r="14" fill="#009af9" fill-rule="evenodd" fill-opacity="1" stroke="#000000" stroke-opacity="1" stroke-width="3.2"/>
<circle clip-path="url(#clip432)" cx="380.251" cy="1376.36" r="14" fill="#009af9" fill-rule="evenodd" fill-opacity="1" stroke="#000000" stroke-opacity="1" stroke-width="3.2"/>
<circle clip-path="url(#clip432)" cx="431.928" cy="1340.61" r="14" fill="#009af9" fill-rule="evenodd" fill-opacity="1" stroke="#000000" stroke-opacity="1" stroke-width="3.2"/>
<circle clip-path="url(#clip432)" cx="483.605" cy="1304.85" r="14" fill="#009af9" fill-rule="evenodd" fill-opacity="1" stroke="#000000" stroke-opacity="1" stroke-width="3.2"/>
<circle clip-path="url(#clip432)" cx="535.282" cy="1269.1" r="14" fill="#009af9" fill-rule="evenodd" fill-opacity="1" stroke="#000000" stroke-opacity="1" stroke-width="3.2"/>
<circle clip-path="url(#clip432)" cx="586.959" cy="1233.34" r="14" fill="#009af9" fill-rule="evenodd" fill-opacity="1" stroke="#000000" stroke-opacity="1" stroke-width="3.2"/>
<circle clip-path="url(#clip432)" cx="638.636" cy="1197.58" r="14" fill="#009af9" fill-rule="evenodd" fill-opacity="1" stroke="#000000" stroke-opacity="1" stroke-width="3.2"/>
<circle clip-path="url(#clip432)" cx="690.312" cy="1161.83" r="14" fill="#009af9" fill-rule="evenodd" fill-opacity="1" stroke="#000000" stroke-opacity="1" stroke-width="3.2"/>
<circle clip-path="url(#clip432)" cx="741.989" cy="1126.07" r="14" fill="#009af9" fill-rule="evenodd" fill-opacity="1" stroke="#000000" stroke-opacity="1" stroke-width="3.2"/>
<circle clip-path="url(#clip432)" cx="793.666" cy="1090.32" r="14" fill="#009af9" fill-rule="evenodd" fill-opacity="1" stroke="#000000" stroke-opacity="1" stroke-width="3.2"/>
<circle clip-path="url(#clip432)" cx="845.343" cy="1054.56" r="14" fill="#009af9" fill-rule="evenodd" fill-opacity="1" stroke="#000000" stroke-opacity="1" stroke-width="3.2"/>
<circle clip-path="url(#clip432)" cx="897.02" cy="1018.81" r="14" fill="#009af9" fill-rule="evenodd" fill-opacity="1" stroke="#000000" stroke-opacity="1" stroke-width="3.2"/>
<circle clip-path="url(#clip432)" cx="948.697" cy="983.05" r="14" fill="#009af9" fill-rule="evenodd" fill-opacity="1" stroke="#000000" stroke-opacity="1" stroke-width="3.2"/>
<circle clip-path="url(#clip432)" cx="1000.37" cy="947.295" r="14" fill="#009af9" fill-rule="evenodd" fill-opacity="1" stroke="#000000" stroke-opacity="1" stroke-width="3.2"/>
<circle clip-path="url(#clip432)" cx="1052.05" cy="911.539" r="14" fill="#009af9" fill-rule="evenodd" fill-opacity="1" stroke="#000000" stroke-opacity="1" stroke-width="3.2"/>
<circle clip-path="url(#clip432)" cx="1103.73" cy="875.783" r="14" fill="#009af9" fill-rule="evenodd" fill-opacity="1" stroke="#000000" stroke-opacity="1" stroke-width="3.2"/>
<circle clip-path="url(#clip432)" cx="1155.4" cy="840.028" r="14" fill="#009af9" fill-rule="evenodd" fill-opacity="1" stroke="#000000" stroke-opacity="1" stroke-width="3.2"/>
<circle clip-path="url(#clip432)" cx="1207.08" cy="804.272" r="14" fill="#009af9" fill-rule="evenodd" fill-opacity="1" stroke="#000000" stroke-opacity="1" stroke-width="3.2"/>
<circle clip-path="url(#clip432)" cx="1258.76" cy="768.516" r="14" fill="#009af9" fill-rule="evenodd" fill-opacity="1" stroke="#000000" stroke-opacity="1" stroke-width="3.2"/>
<circle clip-path="url(#clip432)" cx="1310.43" cy="732.761" r="14" fill="#009af9" fill-rule="evenodd" fill-opacity="1" stroke="#000000" stroke-opacity="1" stroke-width="3.2"/>
<circle clip-path="url(#clip432)" cx="1362.11" cy="697.005" r="14" fill="#009af9" fill-rule="evenodd" fill-opacity="1" stroke="#000000" stroke-opacity="1" stroke-width="3.2"/>
<circle clip-path="url(#clip432)" cx="1413.79" cy="661.25" r="14" fill="#009af9" fill-rule="evenodd" fill-opacity="1" stroke="#000000" stroke-opacity="1" stroke-width="3.2"/>
<circle clip-path="url(#clip432)" cx="1465.46" cy="625.494" r="14" fill="#009af9" fill-rule="evenodd" fill-opacity="1" stroke="#000000" stroke-opacity="1" stroke-width="3.2"/>
<circle clip-path="url(#clip432)" cx="1517.14" cy="589.738" r="14" fill="#009af9" fill-rule="evenodd" fill-opacity="1" stroke="#000000" stroke-opacity="1" stroke-width="3.2"/>
<circle clip-path="url(#clip432)" cx="1568.82" cy="553.983" r="14" fill="#009af9" fill-rule="evenodd" fill-opacity="1" stroke="#000000" stroke-opacity="1" stroke-width="3.2"/>
<circle clip-path="url(#clip432)" cx="1620.5" cy="518.227" r="14" fill="#009af9" fill-rule="evenodd" fill-opacity="1" stroke="#000000" stroke-opacity="1" stroke-width="3.2"/>
<circle clip-path="url(#clip432)" cx="1672.17" cy="482.472" r="14" fill="#009af9" fill-rule="evenodd" fill-opacity="1" stroke="#000000" stroke-opacity="1" stroke-width="3.2"/>
<circle clip-path="url(#clip432)" cx="1723.85" cy="446.716" r="14" fill="#009af9" fill-rule="evenodd" fill-opacity="1" stroke="#000000" stroke-opacity="1" stroke-width="3.2"/>
<circle clip-path="url(#clip432)" cx="1775.53" cy="410.96" r="14" fill="#009af9" fill-rule="evenodd" fill-opacity="1" stroke="#000000" stroke-opacity="1" stroke-width="3.2"/>
<circle clip-path="url(#clip432)" cx="1827.2" cy="375.205" r="14" fill="#009af9" fill-rule="evenodd" fill-opacity="1" stroke="#000000" stroke-opacity="1" stroke-width="3.2"/>
<circle clip-path="url(#clip432)" cx="1878.88" cy="339.45" r="14" fill="#009af9" fill-rule="evenodd" fill-opacity="1" stroke="#000000" stroke-opacity="1" stroke-width="3.2"/>
<circle clip-path="url(#clip432)" cx="1930.56" cy="303.698" r="14" fill="#009af9" fill-rule="evenodd" fill-opacity="1" stroke="#000000" stroke-opacity="1" stroke-width="3.2"/>
<circle clip-path="url(#clip432)" cx="1982.23" cy="267.964" r="14" fill="#009af9" fill-rule="evenodd" fill-opacity="1" stroke="#000000" stroke-opacity="1" stroke-width="3.2"/>
<circle clip-path="url(#clip432)" cx="2033.91" cy="232.344" r="14" fill="#009af9" fill-rule="evenodd" fill-opacity="1" stroke="#000000" stroke-opacity="1" stroke-width="3.2"/>
<circle clip-path="url(#clip432)" cx="2085.59" cy="197.415" r="14" fill="#009af9" fill-rule="evenodd" fill-opacity="1" stroke="#000000" stroke-opacity="1" stroke-width="3.2"/>
<circle clip-path="url(#clip432)" cx="2137.26" cy="166.73" r="14" fill="#009af9" fill-rule="evenodd" fill-opacity="1" stroke="#000000" stroke-opacity="1" stroke-width="3.2"/>
<circle clip-path="url(#clip432)" cx="2188.94" cy="162.047" r="14" fill="#009af9" fill-rule="evenodd" fill-opacity="1" stroke="#000000" stroke-opacity="1" stroke-width="3.2"/>
<circle clip-path="url(#clip432)" cx="2240.62" cy="316.709" r="14" fill="#009af9" fill-rule="evenodd" fill-opacity="1" stroke="#000000" stroke-opacity="1" stroke-width="3.2"/>
<circle clip-path="url(#clip432)" cx="2292.29" cy="1447.87" r="14" fill="#009af9" fill-rule="evenodd" fill-opacity="1" stroke="#000000" stroke-opacity="1" stroke-width="3.2"/>
</svg>
