<?xml version="1.0" encoding="utf-8"?>
<svg xmlns="http://www.w3.org/2000/svg" xmlns:xlink="http://www.w3.org/1999/xlink" width="600" height="400" viewBox="0 0 2400 1600">
<defs>
  <clipPath id="clip650">
    <rect x="0" y="0" width="2400" height="1600"/>
  </clipPath>
</defs>
<path clip-path="url(#clip650)" d="
M0 1600 L2400 1600 L2400 0 L0 0  Z
  " fill="#ffffff" fill-rule="evenodd" fill-opacity="1"/>
<defs>
  <clipPath id="clip651">
    <rect x="480" y="0" width="1681" height="1600"/>
  </clipPath>
</defs>
<path clip-path="url(#clip650)" d="
M257.204 1423.18 L2352.76 1423.18 L2352.76 47.2441 L257.204 47.2441  Z
  " fill="#ffffff" fill-rule="evenodd" fill-opacity="1"/>
<defs>
  <clipPath id="clip652">
    <rect x="257" y="47" width="2097" height="1377"/>
  </clipPath>
</defs>
<polyline clip-path="url(#clip652)" style="stroke:#000000; stroke-linecap:butt; stroke-linejoin:round; stroke-width:2; stroke-opacity:0.1; fill:none" points="
  316.512,1423.18 316.512,47.2441 
  "/>
<polyline clip-path="url(#clip652)" style="stroke:#000000; stroke-linecap:butt; stroke-linejoin:round; stroke-width:2; stroke-opacity:0.1; fill:none" points="
  613.626,1423.18 613.626,47.2441 
  "/>
<polyline clip-path="url(#clip652)" style="stroke:#000000; stroke-linecap:butt; stroke-linejoin:round; stroke-width:2; stroke-opacity:0.1; fill:none" points="
  910.74,1423.18 910.74,47.2441 
  "/>
<polyline clip-path="url(#clip652)" style="stroke:#000000; stroke-linecap:butt; stroke-linejoin:round; stroke-width:2; stroke-opacity:0.1; fill:none" points="
  1207.85,1423.18 1207.85,47.2441 
  "/>
<polyline clip-path="url(#clip652)" style="stroke:#000000; stroke-linecap:butt; stroke-linejoin:round; stroke-width:2; stroke-opacity:0.1; fill:none" points="
  1504.97,1423.18 1504.97,47.2441 
  "/>
<polyline clip-path="url(#clip652)" style="stroke:#000000; stroke-linecap:butt; stroke-linejoin:round; stroke-width:2; stroke-opacity:0.1; fill:none" points="
  1802.08,1423.18 1802.08,47.2441 
  "/>
<polyline clip-path="url(#clip652)" style="stroke:#000000; stroke-linecap:butt; stroke-linejoin:round; stroke-width:2; stroke-opacity:0.1; fill:none" points="
  2099.2,1423.18 2099.2,47.2441 
  "/>
<polyline clip-path="url(#clip650)" style="stroke:#000000; stroke-linecap:butt; stroke-linejoin:round; stroke-width:4; stroke-opacity:1; fill:none" points="
  257.204,1423.18 2352.76,1423.18 
  "/>
<polyline clip-path="url(#clip650)" style="stroke:#000000; stroke-linecap:butt; stroke-linejoin:round; stroke-width:4; stroke-opacity:1; fill:none" points="
  316.512,1423.18 316.512,1404.28 
  "/>
<polyline clip-path="url(#clip650)" style="stroke:#000000; stroke-linecap:butt; stroke-linejoin:round; stroke-width:4; stroke-opacity:1; fill:none" points="
  613.626,1423.18 613.626,1404.28 
  "/>
<polyline clip-path="url(#clip650)" style="stroke:#000000; stroke-linecap:butt; stroke-linejoin:round; stroke-width:4; stroke-opacity:1; fill:none" points="
  910.74,1423.18 910.74,1404.28 
  "/>
<polyline clip-path="url(#clip650)" style="stroke:#000000; stroke-linecap:butt; stroke-linejoin:round; stroke-width:4; stroke-opacity:1; fill:none" points="
  1207.85,1423.18 1207.85,1404.28 
  "/>
<polyline clip-path="url(#clip650)" style="stroke:#000000; stroke-linecap:butt; stroke-linejoin:round; stroke-width:4; stroke-opacity:1; fill:none" points="
  1504.97,1423.18 1504.97,1404.28 
  "/>
<polyline clip-path="url(#clip650)" style="stroke:#000000; stroke-linecap:butt; stroke-linejoin:round; stroke-width:4; stroke-opacity:1; fill:none" points="
  1802.08,1423.18 1802.08,1404.28 
  "/>
<polyline clip-path="url(#clip650)" style="stroke:#000000; stroke-linecap:butt; stroke-linejoin:round; stroke-width:4; stroke-opacity:1; fill:none" points="
  2099.2,1423.18 2099.2,1404.28 
  "/>
<path clip-path="url(#clip650)" d="M293.896 1452.37 Q290.285 1452.37 288.457 1455.94 Q286.651 1459.48 286.651 1466.61 Q286.651 1473.71 288.457 1477.28 Q290.285 1480.82 293.896 1480.82 Q297.531 1480.82 299.336 1477.28 Q301.165 1473.71 301.165 1466.61 Q301.165 1459.48 299.336 1455.94 Q297.531 1452.37 293.896 1452.37 M293.896 1448.67 Q299.707 1448.67 302.762 1453.27 Q305.841 1457.86 305.841 1466.61 Q305.841 1475.33 302.762 1479.94 Q299.707 1484.52 293.896 1484.52 Q288.086 1484.52 285.008 1479.94 Q281.952 1475.33 281.952 1466.61 Q281.952 1457.86 285.008 1453.27 Q288.086 1448.67 293.896 1448.67 Z" fill="#000000" fill-rule="evenodd" fill-opacity="1" /><path clip-path="url(#clip650)" d="M314.058 1477.97 L318.943 1477.97 L318.943 1483.85 L314.058 1483.85 L314.058 1477.97 Z" fill="#000000" fill-rule="evenodd" fill-opacity="1" /><path clip-path="url(#clip650)" d="M339.128 1452.37 Q335.517 1452.37 333.688 1455.94 Q331.882 1459.48 331.882 1466.61 Q331.882 1473.71 333.688 1477.28 Q335.517 1480.82 339.128 1480.82 Q342.762 1480.82 344.568 1477.28 Q346.396 1473.71 346.396 1466.61 Q346.396 1459.48 344.568 1455.94 Q342.762 1452.37 339.128 1452.37 M339.128 1448.67 Q344.938 1448.67 347.993 1453.27 Q351.072 1457.86 351.072 1466.61 Q351.072 1475.33 347.993 1479.94 Q344.938 1484.52 339.128 1484.52 Q333.318 1484.52 330.239 1479.94 Q327.183 1475.33 327.183 1466.61 Q327.183 1457.86 330.239 1453.27 Q333.318 1448.67 339.128 1448.67 Z" fill="#000000" fill-rule="evenodd" fill-opacity="1" /><path clip-path="url(#clip650)" d="M591.624 1452.37 Q588.013 1452.37 586.184 1455.94 Q584.379 1459.48 584.379 1466.61 Q584.379 1473.71 586.184 1477.28 Q588.013 1480.82 591.624 1480.82 Q595.258 1480.82 597.064 1477.28 Q598.892 1473.71 598.892 1466.61 Q598.892 1459.48 597.064 1455.94 Q595.258 1452.37 591.624 1452.37 M591.624 1448.67 Q597.434 1448.67 600.49 1453.27 Q603.568 1457.86 603.568 1466.61 Q603.568 1475.33 600.49 1479.94 Q597.434 1484.52 591.624 1484.52 Q585.814 1484.52 582.735 1479.94 Q579.679 1475.33 579.679 1466.61 Q579.679 1457.86 582.735 1453.27 Q585.814 1448.67 591.624 1448.67 Z" fill="#000000" fill-rule="evenodd" fill-opacity="1" /><path clip-path="url(#clip650)" d="M611.786 1477.97 L616.67 1477.97 L616.67 1483.85 L611.786 1483.85 L611.786 1477.97 Z" fill="#000000" fill-rule="evenodd" fill-opacity="1" /><path clip-path="url(#clip650)" d="M627.665 1479.92 L635.304 1479.92 L635.304 1453.55 L626.994 1455.22 L626.994 1450.96 L635.258 1449.29 L639.934 1449.29 L639.934 1479.92 L647.573 1479.92 L647.573 1483.85 L627.665 1483.85 L627.665 1479.92 Z" fill="#000000" fill-rule="evenodd" fill-opacity="1" /><path clip-path="url(#clip650)" d="M888.923 1452.37 Q885.312 1452.37 883.483 1455.94 Q881.678 1459.48 881.678 1466.61 Q881.678 1473.71 883.483 1477.28 Q885.312 1480.82 888.923 1480.82 Q892.557 1480.82 894.363 1477.28 Q896.191 1473.71 896.191 1466.61 Q896.191 1459.48 894.363 1455.94 Q892.557 1452.37 888.923 1452.37 M888.923 1448.67 Q894.733 1448.67 897.789 1453.27 Q900.867 1457.86 900.867 1466.61 Q900.867 1475.33 897.789 1479.94 Q894.733 1484.52 888.923 1484.52 Q883.113 1484.52 880.034 1479.94 Q876.979 1475.33 876.979 1466.61 Q876.979 1457.86 880.034 1453.27 Q883.113 1448.67 888.923 1448.67 Z" fill="#000000" fill-rule="evenodd" fill-opacity="1" /><path clip-path="url(#clip650)" d="M909.085 1477.97 L913.969 1477.97 L913.969 1483.85 L909.085 1483.85 L909.085 1477.97 Z" fill="#000000" fill-rule="evenodd" fill-opacity="1" /><path clip-path="url(#clip650)" d="M928.182 1479.92 L944.501 1479.92 L944.501 1483.85 L922.557 1483.85 L922.557 1479.92 Q925.219 1477.16 929.802 1472.53 Q934.409 1467.88 935.589 1466.54 Q937.835 1464.01 938.714 1462.28 Q939.617 1460.52 939.617 1458.83 Q939.617 1456.07 937.673 1454.34 Q935.751 1452.6 932.65 1452.6 Q930.451 1452.6 927.997 1453.37 Q925.566 1454.13 922.789 1455.68 L922.789 1450.96 Q925.613 1449.82 928.066 1449.25 Q930.52 1448.67 932.557 1448.67 Q937.927 1448.67 941.122 1451.35 Q944.316 1454.04 944.316 1458.53 Q944.316 1460.66 943.506 1462.58 Q942.719 1464.48 940.613 1467.07 Q940.034 1467.74 936.932 1470.96 Q933.83 1474.15 928.182 1479.92 Z" fill="#000000" fill-rule="evenodd" fill-opacity="1" /><path clip-path="url(#clip650)" d="M1185.56 1452.37 Q1181.95 1452.37 1180.12 1455.94 Q1178.32 1459.48 1178.32 1466.61 Q1178.32 1473.71 1180.12 1477.28 Q1181.95 1480.82 1185.56 1480.82 Q1189.2 1480.82 1191 1477.28 Q1192.83 1473.71 1192.83 1466.61 Q1192.83 1459.48 1191 1455.94 Q1189.2 1452.37 1185.56 1452.37 M1185.56 1448.67 Q1191.37 1448.67 1194.43 1453.27 Q1197.51 1457.86 1197.51 1466.61 Q1197.51 1475.33 1194.43 1479.94 Q1191.37 1484.52 1185.56 1484.52 Q1179.75 1484.52 1176.67 1479.94 Q1173.62 1475.33 1173.62 1466.61 Q1173.62 1457.86 1176.67 1453.27 Q1179.75 1448.67 1185.56 1448.67 Z" fill="#000000" fill-rule="evenodd" fill-opacity="1" /><path clip-path="url(#clip650)" d="M1205.72 1477.97 L1210.61 1477.97 L1210.61 1483.85 L1205.72 1483.85 L1205.72 1477.97 Z" fill="#000000" fill-rule="evenodd" fill-opacity="1" /><path clip-path="url(#clip650)" d="M1234.96 1465.22 Q1238.32 1465.94 1240.19 1468.2 Q1242.09 1470.47 1242.09 1473.81 Q1242.09 1478.92 1238.57 1481.72 Q1235.05 1484.52 1228.57 1484.52 Q1226.4 1484.52 1224.08 1484.08 Q1221.79 1483.67 1219.34 1482.81 L1219.34 1478.3 Q1221.28 1479.43 1223.59 1480.01 Q1225.91 1480.59 1228.43 1480.59 Q1232.83 1480.59 1235.12 1478.85 Q1237.44 1477.12 1237.44 1473.81 Q1237.44 1470.75 1235.28 1469.04 Q1233.15 1467.3 1229.34 1467.3 L1225.31 1467.3 L1225.31 1463.46 L1229.52 1463.46 Q1232.97 1463.46 1234.8 1462.09 Q1236.63 1460.7 1236.63 1458.11 Q1236.63 1455.45 1234.73 1454.04 Q1232.85 1452.6 1229.34 1452.6 Q1227.41 1452.6 1225.22 1453.02 Q1223.02 1453.44 1220.38 1454.31 L1220.38 1450.15 Q1223.04 1449.41 1225.35 1449.04 Q1227.69 1448.67 1229.75 1448.67 Q1235.08 1448.67 1238.18 1451.1 Q1241.28 1453.5 1241.28 1457.63 Q1241.28 1460.5 1239.64 1462.49 Q1237.99 1464.45 1234.96 1465.22 Z" fill="#000000" fill-rule="evenodd" fill-opacity="1" /><path clip-path="url(#clip650)" d="M1482.11 1452.37 Q1478.5 1452.37 1476.67 1455.94 Q1474.86 1459.48 1474.86 1466.61 Q1474.86 1473.71 1476.67 1477.28 Q1478.5 1480.82 1482.11 1480.82 Q1485.74 1480.82 1487.55 1477.28 Q1489.38 1473.71 1489.38 1466.61 Q1489.38 1459.48 1487.55 1455.94 Q1485.74 1452.37 1482.11 1452.37 M1482.11 1448.67 Q1487.92 1448.67 1490.97 1453.27 Q1494.05 1457.86 1494.05 1466.61 Q1494.05 1475.33 1490.97 1479.94 Q1487.92 1484.52 1482.11 1484.52 Q1476.3 1484.52 1473.22 1479.94 Q1470.16 1475.33 1470.16 1466.61 Q1470.16 1457.86 1473.22 1453.27 Q1476.3 1448.67 1482.11 1448.67 Z" fill="#000000" fill-rule="evenodd" fill-opacity="1" /><path clip-path="url(#clip650)" d="M1502.27 1477.97 L1507.16 1477.97 L1507.16 1483.85 L1502.27 1483.85 L1502.27 1477.97 Z" fill="#000000" fill-rule="evenodd" fill-opacity="1" /><path clip-path="url(#clip650)" d="M1530.19 1453.37 L1518.38 1471.81 L1530.19 1471.81 L1530.19 1453.37 M1528.96 1449.29 L1534.84 1449.29 L1534.84 1471.81 L1539.77 1471.81 L1539.77 1475.7 L1534.84 1475.7 L1534.84 1483.85 L1530.19 1483.85 L1530.19 1475.7 L1514.59 1475.7 L1514.59 1471.19 L1528.96 1449.29 Z" fill="#000000" fill-rule="evenodd" fill-opacity="1" /><path clip-path="url(#clip650)" d="M1779.96 1452.37 Q1776.35 1452.37 1774.52 1455.94 Q1772.72 1459.48 1772.72 1466.61 Q1772.72 1473.71 1774.52 1477.28 Q1776.35 1480.82 1779.96 1480.82 Q1783.6 1480.82 1785.4 1477.28 Q1787.23 1473.71 1787.23 1466.61 Q1787.23 1459.48 1785.4 1455.94 Q1783.6 1452.37 1779.96 1452.37 M1779.96 1448.67 Q1785.77 1448.67 1788.83 1453.27 Q1791.91 1457.86 1791.91 1466.61 Q1791.91 1475.33 1788.83 1479.94 Q1785.77 1484.52 1779.96 1484.52 Q1774.15 1484.52 1771.08 1479.94 Q1768.02 1475.33 1768.02 1466.61 Q1768.02 1457.86 1771.08 1453.27 Q1774.15 1448.67 1779.96 1448.67 Z" fill="#000000" fill-rule="evenodd" fill-opacity="1" /><path clip-path="url(#clip650)" d="M1800.13 1477.97 L1805.01 1477.97 L1805.01 1483.85 L1800.13 1483.85 L1800.13 1477.97 Z" fill="#000000" fill-rule="evenodd" fill-opacity="1" /><path clip-path="url(#clip650)" d="M1815.24 1449.29 L1833.6 1449.29 L1833.6 1453.23 L1819.52 1453.23 L1819.52 1461.7 Q1820.54 1461.35 1821.56 1461.19 Q1822.58 1461 1823.6 1461 Q1829.39 1461 1832.76 1464.18 Q1836.14 1467.35 1836.14 1472.76 Q1836.14 1478.34 1832.67 1481.44 Q1829.2 1484.52 1822.88 1484.52 Q1820.7 1484.52 1818.44 1484.15 Q1816.19 1483.78 1813.78 1483.04 L1813.78 1478.34 Q1815.87 1479.48 1818.09 1480.03 Q1820.31 1480.59 1822.79 1480.59 Q1826.79 1480.59 1829.13 1478.48 Q1831.47 1476.38 1831.47 1472.76 Q1831.47 1469.15 1829.13 1467.05 Q1826.79 1464.94 1822.79 1464.94 Q1820.91 1464.94 1819.04 1465.36 Q1817.19 1465.77 1815.24 1466.65 L1815.24 1449.29 Z" fill="#000000" fill-rule="evenodd" fill-opacity="1" /><path clip-path="url(#clip650)" d="M2076.5 1452.37 Q2072.89 1452.37 2071.06 1455.94 Q2069.25 1459.48 2069.25 1466.61 Q2069.25 1473.71 2071.06 1477.28 Q2072.89 1480.82 2076.5 1480.82 Q2080.13 1480.82 2081.94 1477.28 Q2083.77 1473.71 2083.77 1466.61 Q2083.77 1459.48 2081.94 1455.94 Q2080.13 1452.37 2076.5 1452.37 M2076.5 1448.67 Q2082.31 1448.67 2085.36 1453.27 Q2088.44 1457.86 2088.44 1466.61 Q2088.44 1475.33 2085.36 1479.94 Q2082.31 1484.52 2076.5 1484.52 Q2070.69 1484.52 2067.61 1479.94 Q2064.55 1475.33 2064.55 1466.61 Q2064.55 1457.86 2067.61 1453.27 Q2070.69 1448.67 2076.5 1448.67 Z" fill="#000000" fill-rule="evenodd" fill-opacity="1" /><path clip-path="url(#clip650)" d="M2096.66 1477.97 L2101.55 1477.97 L2101.55 1483.85 L2096.66 1483.85 L2096.66 1477.97 Z" fill="#000000" fill-rule="evenodd" fill-opacity="1" /><path clip-path="url(#clip650)" d="M2122.31 1464.71 Q2119.16 1464.71 2117.31 1466.86 Q2115.48 1469.01 2115.48 1472.76 Q2115.48 1476.49 2117.31 1478.67 Q2119.16 1480.82 2122.31 1480.82 Q2125.46 1480.82 2127.29 1478.67 Q2129.14 1476.49 2129.14 1472.76 Q2129.14 1469.01 2127.29 1466.86 Q2125.46 1464.71 2122.31 1464.71 M2131.59 1450.06 L2131.59 1454.31 Q2129.83 1453.48 2128.03 1453.04 Q2126.24 1452.6 2124.49 1452.6 Q2119.86 1452.6 2117.4 1455.73 Q2114.97 1458.85 2114.62 1465.17 Q2115.99 1463.16 2118.05 1462.09 Q2120.11 1461 2122.59 1461 Q2127.8 1461 2130.8 1464.18 Q2133.84 1467.32 2133.84 1472.76 Q2133.84 1478.09 2130.69 1481.31 Q2127.54 1484.52 2122.31 1484.52 Q2116.31 1484.52 2113.14 1479.94 Q2109.97 1475.33 2109.97 1466.61 Q2109.97 1458.41 2113.86 1453.55 Q2117.75 1448.67 2124.3 1448.67 Q2126.06 1448.67 2127.84 1449.01 Q2129.65 1449.36 2131.59 1450.06 Z" fill="#000000" fill-rule="evenodd" fill-opacity="1" /><path clip-path="url(#clip650)" d="M1247.56 1545.76 Q1249.63 1546.46 1251.57 1548.76 Q1253.55 1551.05 1255.52 1555.06 L1262.04 1568.04 L1255.14 1568.04 L1249.06 1555.85 Q1246.7 1551.08 1244.47 1549.52 Q1242.28 1547.96 1238.46 1547.96 L1231.46 1547.96 L1231.46 1568.04 L1225.03 1568.04 L1225.03 1520.52 L1239.54 1520.52 Q1247.69 1520.52 1251.7 1523.93 Q1255.71 1527.34 1255.71 1534.21 Q1255.71 1538.7 1253.61 1541.66 Q1251.54 1544.62 1247.56 1545.76 M1231.46 1525.81 L1231.46 1542.68 L1239.54 1542.68 Q1244.19 1542.68 1246.54 1540.54 Q1248.93 1538.38 1248.93 1534.21 Q1248.93 1530.04 1246.54 1527.94 Q1244.19 1525.81 1239.54 1525.81 L1231.46 1525.81 Z" fill="#000000" fill-rule="evenodd" fill-opacity="1" /><path clip-path="url(#clip650)" d="M1297.63 1548.76 L1297.63 1551.62 L1270.7 1551.62 Q1271.08 1557.67 1274.33 1560.85 Q1277.61 1564 1283.43 1564 Q1286.81 1564 1289.96 1563.17 Q1293.14 1562.35 1296.26 1560.69 L1296.26 1566.23 Q1293.11 1567.57 1289.8 1568.27 Q1286.49 1568.97 1283.08 1568.97 Q1274.55 1568.97 1269.55 1564 Q1264.59 1559.04 1264.59 1550.57 Q1264.59 1541.82 1269.3 1536.69 Q1274.04 1531.54 1282.06 1531.54 Q1289.26 1531.54 1293.43 1536.18 Q1297.63 1540.8 1297.63 1548.76 M1291.77 1547.04 Q1291.71 1542.23 1289.07 1539.37 Q1286.46 1536.5 1282.13 1536.5 Q1277.23 1536.5 1274.27 1539.27 Q1271.34 1542.04 1270.89 1547.07 L1291.77 1547.04 Z" fill="#000000" fill-rule="evenodd" fill-opacity="1" /><path clip-path="url(#clip650)" d="M1321.31 1518.58 Q1317.04 1525.9 1314.97 1533.06 Q1312.91 1540.23 1312.91 1547.58 Q1312.91 1554.93 1314.97 1562.16 Q1317.07 1569.35 1321.31 1576.64 L1316.22 1576.64 Q1311.44 1569.16 1309.05 1561.93 Q1306.7 1554.71 1306.7 1547.58 Q1306.7 1540.48 1309.05 1533.29 Q1311.41 1526.09 1316.22 1518.58 L1321.31 1518.58 Z" fill="#000000" fill-rule="evenodd" fill-opacity="1" /><path clip-path="url(#clip650)" d="M1362.3 1532.4 L1349.41 1549.74 L1362.97 1568.04 L1356.06 1568.04 L1345.69 1554.04 L1335.31 1568.04 L1328.41 1568.04 L1342.25 1549.39 L1329.58 1532.4 L1336.49 1532.4 L1345.94 1545.1 L1355.4 1532.4 L1362.3 1532.4 Z" fill="#000000" fill-rule="evenodd" fill-opacity="1" /><path clip-path="url(#clip650)" d="M1370.32 1518.58 L1375.42 1518.58 Q1380.19 1526.09 1382.55 1533.29 Q1384.93 1540.48 1384.93 1547.58 Q1384.93 1554.71 1382.55 1561.93 Q1380.19 1569.16 1375.42 1576.64 L1370.32 1576.64 Q1374.56 1569.35 1376.63 1562.16 Q1378.73 1554.93 1378.73 1547.58 Q1378.73 1540.23 1376.63 1533.06 Q1374.56 1525.9 1370.32 1518.58 Z" fill="#000000" fill-rule="evenodd" fill-opacity="1" /><polyline clip-path="url(#clip652)" style="stroke:#000000; stroke-linecap:butt; stroke-linejoin:round; stroke-width:2; stroke-opacity:0.1; fill:none" points="
  257.204,1423.18 2352.76,1423.18 
  "/>
<polyline clip-path="url(#clip652)" style="stroke:#000000; stroke-linecap:butt; stroke-linejoin:round; stroke-width:2; stroke-opacity:0.1; fill:none" points="
  257.204,1079.2 2352.76,1079.2 
  "/>
<polyline clip-path="url(#clip652)" style="stroke:#000000; stroke-linecap:butt; stroke-linejoin:round; stroke-width:2; stroke-opacity:0.1; fill:none" points="
  257.204,735.212 2352.76,735.212 
  "/>
<polyline clip-path="url(#clip652)" style="stroke:#000000; stroke-linecap:butt; stroke-linejoin:round; stroke-width:2; stroke-opacity:0.1; fill:none" points="
  257.204,391.228 2352.76,391.228 
  "/>
<polyline clip-path="url(#clip652)" style="stroke:#000000; stroke-linecap:butt; stroke-linejoin:round; stroke-width:2; stroke-opacity:0.1; fill:none" points="
  257.204,47.2441 2352.76,47.2441 
  "/>
<polyline clip-path="url(#clip650)" style="stroke:#000000; stroke-linecap:butt; stroke-linejoin:round; stroke-width:4; stroke-opacity:1; fill:none" points="
  257.204,1423.18 257.204,47.2441 
  "/>
<polyline clip-path="url(#clip650)" style="stroke:#000000; stroke-linecap:butt; stroke-linejoin:round; stroke-width:4; stroke-opacity:1; fill:none" points="
  257.204,1423.18 276.102,1423.18 
  "/>
<polyline clip-path="url(#clip650)" style="stroke:#000000; stroke-linecap:butt; stroke-linejoin:round; stroke-width:4; stroke-opacity:1; fill:none" points="
  257.204,1079.2 276.102,1079.2 
  "/>
<polyline clip-path="url(#clip650)" style="stroke:#000000; stroke-linecap:butt; stroke-linejoin:round; stroke-width:4; stroke-opacity:1; fill:none" points="
  257.204,735.212 276.102,735.212 
  "/>
<polyline clip-path="url(#clip650)" style="stroke:#000000; stroke-linecap:butt; stroke-linejoin:round; stroke-width:4; stroke-opacity:1; fill:none" points="
  257.204,391.228 276.102,391.228 
  "/>
<polyline clip-path="url(#clip650)" style="stroke:#000000; stroke-linecap:butt; stroke-linejoin:round; stroke-width:4; stroke-opacity:1; fill:none" points="
  257.204,47.2441 276.102,47.2441 
  "/>
<path clip-path="url(#clip650)" d="M114.26 1423.63 L143.936 1423.63 L143.936 1427.57 L114.26 1427.57 L114.26 1423.63 Z" fill="#000000" fill-rule="evenodd" fill-opacity="1" /><path clip-path="url(#clip650)" d="M154.839 1436.52 L162.477 1436.52 L162.477 1410.16 L154.167 1411.83 L154.167 1407.57 L162.431 1405.9 L167.107 1405.9 L167.107 1436.52 L174.746 1436.52 L174.746 1440.46 L154.839 1440.46 L154.839 1436.52 Z" fill="#000000" fill-rule="evenodd" fill-opacity="1" /><path clip-path="url(#clip650)" d="M184.19 1434.58 L189.075 1434.58 L189.075 1440.46 L184.19 1440.46 L184.19 1434.58 Z" fill="#000000" fill-rule="evenodd" fill-opacity="1" /><path clip-path="url(#clip650)" d="M209.26 1408.98 Q205.649 1408.98 203.82 1412.54 Q202.014 1416.08 202.014 1423.21 Q202.014 1430.32 203.82 1433.89 Q205.649 1437.43 209.26 1437.43 Q212.894 1437.43 214.699 1433.89 Q216.528 1430.32 216.528 1423.21 Q216.528 1416.08 214.699 1412.54 Q212.894 1408.98 209.26 1408.98 M209.26 1405.27 Q215.07 1405.27 218.125 1409.88 Q221.204 1414.46 221.204 1423.21 Q221.204 1431.94 218.125 1436.55 Q215.07 1441.13 209.26 1441.13 Q203.449 1441.13 200.371 1436.55 Q197.315 1431.94 197.315 1423.21 Q197.315 1414.46 200.371 1409.88 Q203.449 1405.27 209.26 1405.27 Z" fill="#000000" fill-rule="evenodd" fill-opacity="1" /><path clip-path="url(#clip650)" d="M115.256 1079.65 L144.931 1079.65 L144.931 1083.58 L115.256 1083.58 L115.256 1079.65 Z" fill="#000000" fill-rule="evenodd" fill-opacity="1" /><path clip-path="url(#clip650)" d="M165.024 1064.99 Q161.413 1064.99 159.584 1068.56 Q157.778 1072.1 157.778 1079.23 Q157.778 1086.34 159.584 1089.9 Q161.413 1093.44 165.024 1093.44 Q168.658 1093.44 170.464 1089.9 Q172.292 1086.34 172.292 1079.23 Q172.292 1072.1 170.464 1068.56 Q168.658 1064.99 165.024 1064.99 M165.024 1061.29 Q170.834 1061.29 173.889 1065.9 Q176.968 1070.48 176.968 1079.23 Q176.968 1087.96 173.889 1092.56 Q170.834 1097.15 165.024 1097.15 Q159.214 1097.15 156.135 1092.56 Q153.079 1087.96 153.079 1079.23 Q153.079 1070.48 156.135 1065.9 Q159.214 1061.29 165.024 1061.29 Z" fill="#000000" fill-rule="evenodd" fill-opacity="1" /><path clip-path="url(#clip650)" d="M185.186 1090.6 L190.07 1090.6 L190.07 1096.48 L185.186 1096.48 L185.186 1090.6 Z" fill="#000000" fill-rule="evenodd" fill-opacity="1" /><path clip-path="url(#clip650)" d="M200.301 1061.92 L218.658 1061.92 L218.658 1065.85 L204.584 1065.85 L204.584 1074.32 Q205.602 1073.98 206.621 1073.81 Q207.639 1073.63 208.658 1073.63 Q214.445 1073.63 217.824 1076.8 Q221.204 1079.97 221.204 1085.39 Q221.204 1090.97 217.732 1094.07 Q214.26 1097.15 207.94 1097.15 Q205.764 1097.15 203.496 1096.78 Q201.25 1096.41 198.843 1095.67 L198.843 1090.97 Q200.926 1092.1 203.149 1092.66 Q205.371 1093.21 207.848 1093.21 Q211.852 1093.21 214.19 1091.11 Q216.528 1089 216.528 1085.39 Q216.528 1081.78 214.19 1079.67 Q211.852 1077.56 207.848 1077.56 Q205.973 1077.56 204.098 1077.98 Q202.246 1078.4 200.301 1079.28 L200.301 1061.92 Z" fill="#000000" fill-rule="evenodd" fill-opacity="1" /><path clip-path="url(#clip650)" d="M164.028 721.011 Q160.417 721.011 158.589 724.575 Q156.783 728.117 156.783 735.247 Q156.783 742.353 158.589 745.918 Q160.417 749.46 164.028 749.46 Q167.663 749.46 169.468 745.918 Q171.297 742.353 171.297 735.247 Q171.297 728.117 169.468 724.575 Q167.663 721.011 164.028 721.011 M164.028 717.307 Q169.839 717.307 172.894 721.913 Q175.973 726.497 175.973 735.247 Q175.973 743.973 172.894 748.58 Q169.839 753.163 164.028 753.163 Q158.218 753.163 155.14 748.58 Q152.084 743.973 152.084 735.247 Q152.084 726.497 155.14 721.913 Q158.218 717.307 164.028 717.307 Z" fill="#000000" fill-rule="evenodd" fill-opacity="1" /><path clip-path="url(#clip650)" d="M184.19 746.612 L189.075 746.612 L189.075 752.492 L184.19 752.492 L184.19 746.612 Z" fill="#000000" fill-rule="evenodd" fill-opacity="1" /><path clip-path="url(#clip650)" d="M209.26 721.011 Q205.649 721.011 203.82 724.575 Q202.014 728.117 202.014 735.247 Q202.014 742.353 203.82 745.918 Q205.649 749.46 209.26 749.46 Q212.894 749.46 214.699 745.918 Q216.528 742.353 216.528 735.247 Q216.528 728.117 214.699 724.575 Q212.894 721.011 209.26 721.011 M209.26 717.307 Q215.07 717.307 218.125 721.913 Q221.204 726.497 221.204 735.247 Q221.204 743.973 218.125 748.58 Q215.07 753.163 209.26 753.163 Q203.449 753.163 200.371 748.58 Q197.315 743.973 197.315 735.247 Q197.315 726.497 200.371 721.913 Q203.449 717.307 209.26 717.307 Z" fill="#000000" fill-rule="evenodd" fill-opacity="1" /><path clip-path="url(#clip650)" d="M165.024 377.027 Q161.413 377.027 159.584 380.592 Q157.778 384.133 157.778 391.263 Q157.778 398.369 159.584 401.934 Q161.413 405.476 165.024 405.476 Q168.658 405.476 170.464 401.934 Q172.292 398.369 172.292 391.263 Q172.292 384.133 170.464 380.592 Q168.658 377.027 165.024 377.027 M165.024 373.323 Q170.834 373.323 173.889 377.929 Q176.968 382.513 176.968 391.263 Q176.968 399.99 173.889 404.596 Q170.834 409.179 165.024 409.179 Q159.214 409.179 156.135 404.596 Q153.079 399.99 153.079 391.263 Q153.079 382.513 156.135 377.929 Q159.214 373.323 165.024 373.323 Z" fill="#000000" fill-rule="evenodd" fill-opacity="1" /><path clip-path="url(#clip650)" d="M185.186 402.628 L190.07 402.628 L190.07 408.508 L185.186 408.508 L185.186 402.628 Z" fill="#000000" fill-rule="evenodd" fill-opacity="1" /><path clip-path="url(#clip650)" d="M200.301 373.948 L218.658 373.948 L218.658 377.883 L204.584 377.883 L204.584 386.355 Q205.602 386.008 206.621 385.846 Q207.639 385.661 208.658 385.661 Q214.445 385.661 217.824 388.832 Q221.204 392.003 221.204 397.42 Q221.204 402.999 217.732 406.101 Q214.26 409.179 207.94 409.179 Q205.764 409.179 203.496 408.809 Q201.25 408.439 198.843 407.698 L198.843 402.999 Q200.926 404.133 203.149 404.689 Q205.371 405.244 207.848 405.244 Q211.852 405.244 214.19 403.138 Q216.528 401.031 216.528 397.42 Q216.528 393.809 214.19 391.703 Q211.852 389.596 207.848 389.596 Q205.973 389.596 204.098 390.013 Q202.246 390.429 200.301 391.309 L200.301 373.948 Z" fill="#000000" fill-rule="evenodd" fill-opacity="1" /><path clip-path="url(#clip650)" d="M154.839 60.5889 L162.477 60.5889 L162.477 34.2233 L154.167 35.89 L154.167 31.6308 L162.431 29.9641 L167.107 29.9641 L167.107 60.5889 L174.746 60.5889 L174.746 64.5241 L154.839 64.5241 L154.839 60.5889 Z" fill="#000000" fill-rule="evenodd" fill-opacity="1" /><path clip-path="url(#clip650)" d="M184.19 58.6445 L189.075 58.6445 L189.075 64.5241 L184.19 64.5241 L184.19 58.6445 Z" fill="#000000" fill-rule="evenodd" fill-opacity="1" /><path clip-path="url(#clip650)" d="M209.26 33.0428 Q205.649 33.0428 203.82 36.6076 Q202.014 40.1492 202.014 47.2788 Q202.014 54.3853 203.82 57.9501 Q205.649 61.4917 209.26 61.4917 Q212.894 61.4917 214.699 57.9501 Q216.528 54.3853 216.528 47.2788 Q216.528 40.1492 214.699 36.6076 Q212.894 33.0428 209.26 33.0428 M209.26 29.3391 Q215.07 29.3391 218.125 33.9456 Q221.204 38.5289 221.204 47.2788 Q221.204 56.0056 218.125 60.6121 Q215.07 65.1954 209.26 65.1954 Q203.449 65.1954 200.371 60.6121 Q197.315 56.0056 197.315 47.2788 Q197.315 38.5289 200.371 33.9456 Q203.449 29.3391 209.26 29.3391 Z" fill="#000000" fill-rule="evenodd" fill-opacity="1" /><path clip-path="url(#clip650)" d="M16.4842 815.293 L16.4842 808.863 L64.0042 808.863 L64.0042 815.293 L16.4842 815.293 Z" fill="#000000" fill-rule="evenodd" fill-opacity="1" /><path clip-path="url(#clip650)" d="M35.1993 768.568 Q31.2526 766.372 29.3747 763.317 Q27.4968 760.261 27.4968 756.123 Q27.4968 750.553 31.4117 747.53 Q35.2948 744.506 42.4881 744.506 L64.0042 744.506 L64.0042 750.394 L42.679 750.394 Q37.5546 750.394 35.072 752.208 Q32.5894 754.023 32.5894 757.747 Q32.5894 762.298 35.6131 764.94 Q38.6368 767.582 43.8567 767.582 L64.0042 767.582 L64.0042 773.47 L42.679 773.47 Q37.5228 773.47 35.072 775.284 Q32.5894 777.098 32.5894 780.886 Q32.5894 785.374 35.6449 788.016 Q38.6686 790.657 43.8567 790.657 L64.0042 790.657 L64.0042 796.546 L28.3562 796.546 L28.3562 790.657 L33.8944 790.657 Q30.616 788.652 29.0564 785.851 Q27.4968 783.05 27.4968 779.199 Q27.4968 775.316 29.4702 772.61 Q31.4436 769.873 35.1993 768.568 Z" fill="#000000" fill-rule="evenodd" fill-opacity="1" /><path clip-path="url(#clip650)" d="M14.5426 718.757 Q21.8632 723.022 29.0246 725.09 Q36.186 727.159 43.5384 727.159 Q50.8908 727.159 58.1159 725.09 Q65.3091 722.99 72.5979 718.757 L72.5979 723.849 Q65.1182 728.623 57.8931 731.011 Q50.668 733.366 43.5384 733.366 Q36.4406 733.366 29.2474 731.011 Q22.0542 728.655 14.5426 723.849 L14.5426 718.757 Z" fill="#000000" fill-rule="evenodd" fill-opacity="1" /><path clip-path="url(#clip650)" d="M28.3562 677.761 L45.7028 690.652 L64.0042 677.093 L64.0042 684 L49.9996 694.376 L64.0042 704.752 L64.0042 711.659 L45.3526 697.813 L28.3562 710.481 L28.3562 703.574 L41.0558 694.121 L28.3562 684.668 L28.3562 677.761 Z" fill="#000000" fill-rule="evenodd" fill-opacity="1" /><path clip-path="url(#clip650)" d="M14.5426 669.741 L14.5426 664.648 Q22.0542 659.874 29.2474 657.519 Q36.4406 655.131 43.5384 655.131 Q50.668 655.131 57.8931 657.519 Q65.1182 659.874 72.5979 664.648 L72.5979 669.741 Q65.3091 665.507 58.1159 663.439 Q50.8908 661.338 43.5384 661.338 Q36.186 661.338 29.0246 663.439 Q21.8632 665.507 14.5426 669.741 Z" fill="#000000" fill-rule="evenodd" fill-opacity="1" /><circle clip-path="url(#clip652)" cx="316.512" cy="735.212" r="14" fill="#009af9" fill-rule="evenodd" fill-opacity="1" stroke="#000000" stroke-opacity="1" stroke-width="3.2"/>
<circle clip-path="url(#clip652)" cx="316.512" cy="735.212" r="14" fill="#009af9" fill-rule="evenodd" fill-opacity="1" stroke="#000000" stroke-opacity="1" stroke-width="3.2"/>
<circle clip-path="url(#clip652)" cx="316.512" cy="735.212" r="14" fill="#009af9" fill-rule="evenodd" fill-opacity="1" stroke="#000000" stroke-opacity="1" stroke-width="3.2"/>
<circle clip-path="url(#clip652)" cx="316.512" cy="735.212" r="14" fill="#009af9" fill-rule="evenodd" fill-opacity="1" stroke="#000000" stroke-opacity="1" stroke-width="3.2"/>
<circle clip-path="url(#clip652)" cx="316.512" cy="735.212" r="14" fill="#009af9" fill-rule="evenodd" fill-opacity="1" stroke="#000000" stroke-opacity="1" stroke-width="3.2"/>
<circle clip-path="url(#clip652)" cx="316.512" cy="735.212" r="14" fill="#009af9" fill-rule="evenodd" fill-opacity="1" stroke="#000000" stroke-opacity="1" stroke-width="3.2"/>
<circle clip-path="url(#clip652)" cx="316.512" cy="735.212" r="14" fill="#009af9" fill-rule="evenodd" fill-opacity="1" stroke="#000000" stroke-opacity="1" stroke-width="3.2"/>
<circle clip-path="url(#clip652)" cx="316.512" cy="735.212" r="14" fill="#009af9" fill-rule="evenodd" fill-opacity="1" stroke="#000000" stroke-opacity="1" stroke-width="3.2"/>
<circle clip-path="url(#clip652)" cx="316.512" cy="735.212" r="14" fill="#009af9" fill-rule="evenodd" fill-opacity="1" stroke="#000000" stroke-opacity="1" stroke-width="3.2"/>
<circle clip-path="url(#clip652)" cx="316.512" cy="735.212" r="14" fill="#009af9" fill-rule="evenodd" fill-opacity="1" stroke="#000000" stroke-opacity="1" stroke-width="3.2"/>
<circle clip-path="url(#clip652)" cx="316.512" cy="735.212" r="14" fill="#009af9" fill-rule="evenodd" fill-opacity="1" stroke="#000000" stroke-opacity="1" stroke-width="3.2"/>
<circle clip-path="url(#clip652)" cx="316.512" cy="735.212" r="14" fill="#009af9" fill-rule="evenodd" fill-opacity="1" stroke="#000000" stroke-opacity="1" stroke-width="3.2"/>
<circle clip-path="url(#clip652)" cx="316.512" cy="735.212" r="14" fill="#009af9" fill-rule="evenodd" fill-opacity="1" stroke="#000000" stroke-opacity="1" stroke-width="3.2"/>
<circle clip-path="url(#clip652)" cx="316.512" cy="735.212" r="14" fill="#009af9" fill-rule="evenodd" fill-opacity="1" stroke="#000000" stroke-opacity="1" stroke-width="3.2"/>
<circle clip-path="url(#clip652)" cx="316.512" cy="735.212" r="14" fill="#009af9" fill-rule="evenodd" fill-opacity="1" stroke="#000000" stroke-opacity="1" stroke-width="3.2"/>
<circle clip-path="url(#clip652)" cx="316.512" cy="735.212" r="14" fill="#009af9" fill-rule="evenodd" fill-opacity="1" stroke="#000000" stroke-opacity="1" stroke-width="3.2"/>
<circle clip-path="url(#clip652)" cx="316.512" cy="735.212" r="14" fill="#009af9" fill-rule="evenodd" fill-opacity="1" stroke="#000000" stroke-opacity="1" stroke-width="3.2"/>
<circle clip-path="url(#clip652)" cx="316.512" cy="735.212" r="14" fill="#009af9" fill-rule="evenodd" fill-opacity="1" stroke="#000000" stroke-opacity="1" stroke-width="3.2"/>
<circle clip-path="url(#clip652)" cx="316.512" cy="735.212" r="14" fill="#009af9" fill-rule="evenodd" fill-opacity="1" stroke="#000000" stroke-opacity="1" stroke-width="3.2"/>
<circle clip-path="url(#clip652)" cx="316.512" cy="735.212" r="14" fill="#009af9" fill-rule="evenodd" fill-opacity="1" stroke="#000000" stroke-opacity="1" stroke-width="3.2"/>
<circle clip-path="url(#clip652)" cx="316.512" cy="735.212" r="14" fill="#009af9" fill-rule="evenodd" fill-opacity="1" stroke="#000000" stroke-opacity="1" stroke-width="3.2"/>
<circle clip-path="url(#clip652)" cx="316.512" cy="735.212" r="14" fill="#009af9" fill-rule="evenodd" fill-opacity="1" stroke="#000000" stroke-opacity="1" stroke-width="3.2"/>
<circle clip-path="url(#clip652)" cx="316.512" cy="735.212" r="14" fill="#009af9" fill-rule="evenodd" fill-opacity="1" stroke="#000000" stroke-opacity="1" stroke-width="3.2"/>
<circle clip-path="url(#clip652)" cx="316.512" cy="735.212" r="14" fill="#009af9" fill-rule="evenodd" fill-opacity="1" stroke="#000000" stroke-opacity="1" stroke-width="3.2"/>
<circle clip-path="url(#clip652)" cx="316.512" cy="735.212" r="14" fill="#009af9" fill-rule="evenodd" fill-opacity="1" stroke="#000000" stroke-opacity="1" stroke-width="3.2"/>
<circle clip-path="url(#clip652)" cx="316.512" cy="735.212" r="14" fill="#009af9" fill-rule="evenodd" fill-opacity="1" stroke="#000000" stroke-opacity="1" stroke-width="3.2"/>
<circle clip-path="url(#clip652)" cx="316.512" cy="735.212" r="14" fill="#009af9" fill-rule="evenodd" fill-opacity="1" stroke="#000000" stroke-opacity="1" stroke-width="3.2"/>
<circle clip-path="url(#clip652)" cx="316.512" cy="735.212" r="14" fill="#009af9" fill-rule="evenodd" fill-opacity="1" stroke="#000000" stroke-opacity="1" stroke-width="3.2"/>
<circle clip-path="url(#clip652)" cx="316.512" cy="735.212" r="14" fill="#009af9" fill-rule="evenodd" fill-opacity="1" stroke="#000000" stroke-opacity="1" stroke-width="3.2"/>
<circle clip-path="url(#clip652)" cx="316.512" cy="735.212" r="14" fill="#009af9" fill-rule="evenodd" fill-opacity="1" stroke="#000000" stroke-opacity="1" stroke-width="3.2"/>
<circle clip-path="url(#clip652)" cx="316.512" cy="735.212" r="14" fill="#009af9" fill-rule="evenodd" fill-opacity="1" stroke="#000000" stroke-opacity="1" stroke-width="3.2"/>
<circle clip-path="url(#clip652)" cx="316.512" cy="735.212" r="14" fill="#009af9" fill-rule="evenodd" fill-opacity="1" stroke="#000000" stroke-opacity="1" stroke-width="3.2"/>
<circle clip-path="url(#clip652)" cx="316.512" cy="735.212" r="14" fill="#009af9" fill-rule="evenodd" fill-opacity="1" stroke="#000000" stroke-opacity="1" stroke-width="3.2"/>
<circle clip-path="url(#clip652)" cx="316.512" cy="735.212" r="14" fill="#009af9" fill-rule="evenodd" fill-opacity="1" stroke="#000000" stroke-opacity="1" stroke-width="3.2"/>
<circle clip-path="url(#clip652)" cx="317.549" cy="735.212" r="14" fill="#009af9" fill-rule="evenodd" fill-opacity="1" stroke="#000000" stroke-opacity="1" stroke-width="3.2"/>
<circle clip-path="url(#clip652)" cx="320.276" cy="735.212" r="14" fill="#009af9" fill-rule="evenodd" fill-opacity="1" stroke="#000000" stroke-opacity="1" stroke-width="3.2"/>
<circle clip-path="url(#clip652)" cx="325.235" cy="735.212" r="14" fill="#009af9" fill-rule="evenodd" fill-opacity="1" stroke="#000000" stroke-opacity="1" stroke-width="3.2"/>
<circle clip-path="url(#clip652)" cx="331.16" cy="735.212" r="14" fill="#009af9" fill-rule="evenodd" fill-opacity="1" stroke="#000000" stroke-opacity="1" stroke-width="3.2"/>
<circle clip-path="url(#clip652)" cx="340.517" cy="735.212" r="14" fill="#009af9" fill-rule="evenodd" fill-opacity="1" stroke="#000000" stroke-opacity="1" stroke-width="3.2"/>
<circle clip-path="url(#clip652)" cx="348.311" cy="735.212" r="14" fill="#009af9" fill-rule="evenodd" fill-opacity="1" stroke="#000000" stroke-opacity="1" stroke-width="3.2"/>
<circle clip-path="url(#clip652)" cx="363.209" cy="735.212" r="14" fill="#009af9" fill-rule="evenodd" fill-opacity="1" stroke="#000000" stroke-opacity="1" stroke-width="3.2"/>
<circle clip-path="url(#clip652)" cx="367.701" cy="735.212" r="14" fill="#009af9" fill-rule="evenodd" fill-opacity="1" stroke="#000000" stroke-opacity="1" stroke-width="3.2"/>
<circle clip-path="url(#clip652)" cx="386.606" cy="735.212" r="14" fill="#009af9" fill-rule="evenodd" fill-opacity="1" stroke="#000000" stroke-opacity="1" stroke-width="3.2"/>
<circle clip-path="url(#clip652)" cx="393.034" cy="735.212" r="14" fill="#009af9" fill-rule="evenodd" fill-opacity="1" stroke="#000000" stroke-opacity="1" stroke-width="3.2"/>
<circle clip-path="url(#clip652)" cx="415.594" cy="735.212" r="14" fill="#009af9" fill-rule="evenodd" fill-opacity="1" stroke="#000000" stroke-opacity="1" stroke-width="3.2"/>
<circle clip-path="url(#clip652)" cx="429.614" cy="735.212" r="14" fill="#009af9" fill-rule="evenodd" fill-opacity="1" stroke="#000000" stroke-opacity="1" stroke-width="3.2"/>
<circle clip-path="url(#clip652)" cx="453.969" cy="735.212" r="14" fill="#009af9" fill-rule="evenodd" fill-opacity="1" stroke="#000000" stroke-opacity="1" stroke-width="3.2"/>
<circle clip-path="url(#clip652)" cx="472.461" cy="735.212" r="14" fill="#009af9" fill-rule="evenodd" fill-opacity="1" stroke="#000000" stroke-opacity="1" stroke-width="3.2"/>
<circle clip-path="url(#clip652)" cx="499.091" cy="735.212" r="14" fill="#009af9" fill-rule="evenodd" fill-opacity="1" stroke="#000000" stroke-opacity="1" stroke-width="3.2"/>
<circle clip-path="url(#clip652)" cx="520.97" cy="735.212" r="14" fill="#009af9" fill-rule="evenodd" fill-opacity="1" stroke="#000000" stroke-opacity="1" stroke-width="3.2"/>
<circle clip-path="url(#clip652)" cx="549.77" cy="735.212" r="14" fill="#009af9" fill-rule="evenodd" fill-opacity="1" stroke="#000000" stroke-opacity="1" stroke-width="3.2"/>
<circle clip-path="url(#clip652)" cx="574.388" cy="735.212" r="14" fill="#009af9" fill-rule="evenodd" fill-opacity="1" stroke="#000000" stroke-opacity="1" stroke-width="3.2"/>
<circle clip-path="url(#clip652)" cx="605.017" cy="735.212" r="14" fill="#009af9" fill-rule="evenodd" fill-opacity="1" stroke="#000000" stroke-opacity="1" stroke-width="3.2"/>
<circle clip-path="url(#clip652)" cx="631.786" cy="735.212" r="14" fill="#009af9" fill-rule="evenodd" fill-opacity="1" stroke="#000000" stroke-opacity="1" stroke-width="3.2"/>
<circle clip-path="url(#clip652)" cx="663.729" cy="735.212" r="14" fill="#009af9" fill-rule="evenodd" fill-opacity="1" stroke="#000000" stroke-opacity="1" stroke-width="3.2"/>
<circle clip-path="url(#clip652)" cx="691.992" cy="735.212" r="14" fill="#009af9" fill-rule="evenodd" fill-opacity="1" stroke="#000000" stroke-opacity="1" stroke-width="3.2"/>
<circle clip-path="url(#clip652)" cx="724.545" cy="735.212" r="14" fill="#009af9" fill-rule="evenodd" fill-opacity="1" stroke="#000000" stroke-opacity="1" stroke-width="3.2"/>
<circle clip-path="url(#clip652)" cx="753.495" cy="735.212" r="14" fill="#009af9" fill-rule="evenodd" fill-opacity="1" stroke="#000000" stroke-opacity="1" stroke-width="3.2"/>
<circle clip-path="url(#clip652)" cx="785.705" cy="735.212" r="14" fill="#009af9" fill-rule="evenodd" fill-opacity="1" stroke="#000000" stroke-opacity="1" stroke-width="3.2"/>
<circle clip-path="url(#clip652)" cx="814.283" cy="735.212" r="14" fill="#009af9" fill-rule="evenodd" fill-opacity="1" stroke="#000000" stroke-opacity="1" stroke-width="3.2"/>
<circle clip-path="url(#clip652)" cx="844.848" cy="735.212" r="14" fill="#009af9" fill-rule="evenodd" fill-opacity="1" stroke="#000000" stroke-opacity="1" stroke-width="3.2"/>
<circle clip-path="url(#clip652)" cx="871.616" cy="735.212" r="14" fill="#009af9" fill-rule="evenodd" fill-opacity="1" stroke="#000000" stroke-opacity="1" stroke-width="3.2"/>
<circle clip-path="url(#clip652)" cx="898.749" cy="735.212" r="14" fill="#009af9" fill-rule="evenodd" fill-opacity="1" stroke="#000000" stroke-opacity="1" stroke-width="3.2"/>
<circle clip-path="url(#clip652)" cx="921.749" cy="735.212" r="14" fill="#009af9" fill-rule="evenodd" fill-opacity="1" stroke="#000000" stroke-opacity="1" stroke-width="3.2"/>
<circle clip-path="url(#clip652)" cx="943.128" cy="735.212" r="14" fill="#009af9" fill-rule="evenodd" fill-opacity="1" stroke="#000000" stroke-opacity="1" stroke-width="3.2"/>
<circle clip-path="url(#clip652)" cx="959.862" cy="735.212" r="14" fill="#009af9" fill-rule="evenodd" fill-opacity="1" stroke="#000000" stroke-opacity="1" stroke-width="3.2"/>
<circle clip-path="url(#clip652)" cx="972.895" cy="735.212" r="14" fill="#009af9" fill-rule="evenodd" fill-opacity="1" stroke="#000000" stroke-opacity="1" stroke-width="3.2"/>
<circle clip-path="url(#clip652)" cx="980.748" cy="735.212" r="14" fill="#009af9" fill-rule="evenodd" fill-opacity="1" stroke="#000000" stroke-opacity="1" stroke-width="3.2"/>
<circle clip-path="url(#clip652)" cx="1633.16" cy="735.212" r="14" fill="#009af9" fill-rule="evenodd" fill-opacity="1" stroke="#000000" stroke-opacity="1" stroke-width="3.2"/>
<circle clip-path="url(#clip652)" cx="1641.13" cy="735.212" r="14" fill="#009af9" fill-rule="evenodd" fill-opacity="1" stroke="#000000" stroke-opacity="1" stroke-width="3.2"/>
<circle clip-path="url(#clip652)" cx="1654.2" cy="735.212" r="14" fill="#009af9" fill-rule="evenodd" fill-opacity="1" stroke="#000000" stroke-opacity="1" stroke-width="3.2"/>
<circle clip-path="url(#clip652)" cx="1671.24" cy="735.212" r="14" fill="#009af9" fill-rule="evenodd" fill-opacity="1" stroke="#000000" stroke-opacity="1" stroke-width="3.2"/>
<circle clip-path="url(#clip652)" cx="1692.53" cy="735.212" r="14" fill="#009af9" fill-rule="evenodd" fill-opacity="1" stroke="#000000" stroke-opacity="1" stroke-width="3.2"/>
<circle clip-path="url(#clip652)" cx="1716.02" cy="735.212" r="14" fill="#009af9" fill-rule="evenodd" fill-opacity="1" stroke="#000000" stroke-opacity="1" stroke-width="3.2"/>
<circle clip-path="url(#clip652)" cx="1742.86" cy="735.212" r="14" fill="#009af9" fill-rule="evenodd" fill-opacity="1" stroke="#000000" stroke-opacity="1" stroke-width="3.2"/>
<circle clip-path="url(#clip652)" cx="1770.29" cy="735.212" r="14" fill="#009af9" fill-rule="evenodd" fill-opacity="1" stroke="#000000" stroke-opacity="1" stroke-width="3.2"/>
<circle clip-path="url(#clip652)" cx="1800.33" cy="735.212" r="14" fill="#009af9" fill-rule="evenodd" fill-opacity="1" stroke="#000000" stroke-opacity="1" stroke-width="3.2"/>
<circle clip-path="url(#clip652)" cx="1829.75" cy="735.212" r="14" fill="#009af9" fill-rule="evenodd" fill-opacity="1" stroke="#000000" stroke-opacity="1" stroke-width="3.2"/>
<circle clip-path="url(#clip652)" cx="1861.2" cy="735.212" r="14" fill="#009af9" fill-rule="evenodd" fill-opacity="1" stroke="#000000" stroke-opacity="1" stroke-width="3.2"/>
<circle clip-path="url(#clip652)" cx="1891.19" cy="735.212" r="14" fill="#009af9" fill-rule="evenodd" fill-opacity="1" stroke="#000000" stroke-opacity="1" stroke-width="3.2"/>
<circle clip-path="url(#clip652)" cx="1922.75" cy="735.212" r="14" fill="#009af9" fill-rule="evenodd" fill-opacity="1" stroke="#000000" stroke-opacity="1" stroke-width="3.2"/>
<circle clip-path="url(#clip652)" cx="1952.26" cy="735.212" r="14" fill="#009af9" fill-rule="evenodd" fill-opacity="1" stroke="#000000" stroke-opacity="1" stroke-width="3.2"/>
<circle clip-path="url(#clip652)" cx="1982.98" cy="735.212" r="14" fill="#009af9" fill-rule="evenodd" fill-opacity="1" stroke="#000000" stroke-opacity="1" stroke-width="3.2"/>
<circle clip-path="url(#clip652)" cx="2011.23" cy="735.212" r="14" fill="#009af9" fill-rule="evenodd" fill-opacity="1" stroke="#000000" stroke-opacity="1" stroke-width="3.2"/>
<circle clip-path="url(#clip652)" cx="2040.38" cy="735.212" r="14" fill="#009af9" fill-rule="evenodd" fill-opacity="1" stroke="#000000" stroke-opacity="1" stroke-width="3.2"/>
<circle clip-path="url(#clip652)" cx="2066.76" cy="735.212" r="14" fill="#009af9" fill-rule="evenodd" fill-opacity="1" stroke="#000000" stroke-opacity="1" stroke-width="3.2"/>
<circle clip-path="url(#clip652)" cx="2093.78" cy="735.212" r="14" fill="#009af9" fill-rule="evenodd" fill-opacity="1" stroke="#000000" stroke-opacity="1" stroke-width="3.2"/>
<circle clip-path="url(#clip652)" cx="2117.83" cy="735.212" r="14" fill="#009af9" fill-rule="evenodd" fill-opacity="1" stroke="#000000" stroke-opacity="1" stroke-width="3.2"/>
<circle clip-path="url(#clip652)" cx="2142.28" cy="735.212" r="14" fill="#009af9" fill-rule="evenodd" fill-opacity="1" stroke="#000000" stroke-opacity="1" stroke-width="3.2"/>
<circle clip-path="url(#clip652)" cx="2163.59" cy="735.212" r="14" fill="#009af9" fill-rule="evenodd" fill-opacity="1" stroke="#000000" stroke-opacity="1" stroke-width="3.2"/>
<circle clip-path="url(#clip652)" cx="2185.11" cy="735.212" r="14" fill="#009af9" fill-rule="evenodd" fill-opacity="1" stroke="#000000" stroke-opacity="1" stroke-width="3.2"/>
<circle clip-path="url(#clip652)" cx="2203.38" cy="735.212" r="14" fill="#009af9" fill-rule="evenodd" fill-opacity="1" stroke="#000000" stroke-opacity="1" stroke-width="3.2"/>
<circle clip-path="url(#clip652)" cx="2221.67" cy="735.212" r="14" fill="#009af9" fill-rule="evenodd" fill-opacity="1" stroke="#000000" stroke-opacity="1" stroke-width="3.2"/>
<circle clip-path="url(#clip652)" cx="2236.63" cy="735.212" r="14" fill="#009af9" fill-rule="evenodd" fill-opacity="1" stroke="#000000" stroke-opacity="1" stroke-width="3.2"/>
<circle clip-path="url(#clip652)" cx="2251.48" cy="735.212" r="14" fill="#009af9" fill-rule="evenodd" fill-opacity="1" stroke="#000000" stroke-opacity="1" stroke-width="3.2"/>
<circle clip-path="url(#clip652)" cx="2262.93" cy="735.212" r="14" fill="#009af9" fill-rule="evenodd" fill-opacity="1" stroke="#000000" stroke-opacity="1" stroke-width="3.2"/>
<circle clip-path="url(#clip652)" cx="2274.16" cy="735.212" r="14" fill="#009af9" fill-rule="evenodd" fill-opacity="1" stroke="#000000" stroke-opacity="1" stroke-width="3.2"/>
<circle clip-path="url(#clip652)" cx="2281.95" cy="735.212" r="14" fill="#009af9" fill-rule="evenodd" fill-opacity="1" stroke="#000000" stroke-opacity="1" stroke-width="3.2"/>
<circle clip-path="url(#clip652)" cx="2289.44" cy="735.212" r="14" fill="#009af9" fill-rule="evenodd" fill-opacity="1" stroke="#000000" stroke-opacity="1" stroke-width="3.2"/>
<circle clip-path="url(#clip652)" cx="2293.45" cy="735.212" r="14" fill="#009af9" fill-rule="evenodd" fill-opacity="1" stroke="#000000" stroke-opacity="1" stroke-width="3.2"/>
<path clip-path="url(#clip650)" d="
M1997.63 196.789 L2282.9 196.789 L2282.9 93.1086 L1997.63 93.1086  Z
  " fill="#ffffff" fill-rule="evenodd" fill-opacity="1"/>
<polyline clip-path="url(#clip650)" style="stroke:#000000; stroke-linecap:butt; stroke-linejoin:round; stroke-width:4; stroke-opacity:1; fill:none" points="
  1997.63,196.789 2282.9,196.789 2282.9,93.1086 1997.63,93.1086 1997.63,196.789 
  "/>
<circle clip-path="url(#clip650)" cx="2090.77" cy="144.949" r="23" fill="#009af9" fill-rule="evenodd" fill-opacity="1" stroke="#000000" stroke-opacity="1" stroke-width="5.12"/>
<path clip-path="url(#clip650)" d="M2197.75 164.636 Q2195.94 169.266 2194.23 170.678 Q2192.52 172.09 2189.65 172.09 L2186.24 172.09 L2186.24 168.525 L2188.74 168.525 Q2190.5 168.525 2191.48 167.692 Q2192.45 166.858 2193.63 163.756 L2194.39 161.812 L2183.91 136.303 L2188.42 136.303 L2196.52 156.581 L2204.62 136.303 L2209.14 136.303 L2197.75 164.636 Z" fill="#000000" fill-rule="evenodd" fill-opacity="1" /><path clip-path="url(#clip650)" d="M2216.43 158.293 L2224.07 158.293 L2224.07 131.928 L2215.76 133.595 L2215.76 129.335 L2224.02 127.669 L2228.7 127.669 L2228.7 158.293 L2236.34 158.293 L2236.34 162.229 L2216.43 162.229 L2216.43 158.293 Z" fill="#000000" fill-rule="evenodd" fill-opacity="1" /></svg>
