<?xml version="1.0" encoding="utf-8"?>
<svg xmlns="http://www.w3.org/2000/svg" xmlns:xlink="http://www.w3.org/1999/xlink" width="600" height="400" viewBox="0 0 2400 1600">
<defs>
  <clipPath id="clip260">
    <rect x="0" y="0" width="2400" height="1600"/>
  </clipPath>
</defs>
<path clip-path="url(#clip260)" d="
M0 1600 L2400 1600 L2400 0 L0 0  Z
  " fill="#ffffff" fill-rule="evenodd" fill-opacity="1"/>
<defs>
  <clipPath id="clip261">
    <rect x="480" y="0" width="1681" height="1600"/>
  </clipPath>
</defs>
<path clip-path="url(#clip260)" d="
M213.607 1486.45 L2352.76 1486.45 L2352.76 47.2441 L213.607 47.2441  Z
  " fill="#ffffff" fill-rule="evenodd" fill-opacity="1"/>
<defs>
  <clipPath id="clip262">
    <rect x="213" y="47" width="2140" height="1440"/>
  </clipPath>
</defs>
<polyline clip-path="url(#clip262)" style="stroke:#000000; stroke-linecap:butt; stroke-linejoin:round; stroke-width:2; stroke-opacity:0.1; fill:none" points="
  699.005,1486.45 699.005,47.2441 
  "/>
<polyline clip-path="url(#clip262)" style="stroke:#000000; stroke-linecap:butt; stroke-linejoin:round; stroke-width:2; stroke-opacity:0.1; fill:none" points="
  1230.07,1486.45 1230.07,47.2441 
  "/>
<polyline clip-path="url(#clip262)" style="stroke:#000000; stroke-linecap:butt; stroke-linejoin:round; stroke-width:2; stroke-opacity:0.1; fill:none" points="
  1761.14,1486.45 1761.14,47.2441 
  "/>
<polyline clip-path="url(#clip262)" style="stroke:#000000; stroke-linecap:butt; stroke-linejoin:round; stroke-width:2; stroke-opacity:0.1; fill:none" points="
  2292.21,1486.45 2292.21,47.2441 
  "/>
<polyline clip-path="url(#clip260)" style="stroke:#000000; stroke-linecap:butt; stroke-linejoin:round; stroke-width:4; stroke-opacity:1; fill:none" points="
  213.607,1486.45 2352.76,1486.45 
  "/>
<polyline clip-path="url(#clip260)" style="stroke:#000000; stroke-linecap:butt; stroke-linejoin:round; stroke-width:4; stroke-opacity:1; fill:none" points="
  699.005,1486.45 699.005,1467.55 
  "/>
<polyline clip-path="url(#clip260)" style="stroke:#000000; stroke-linecap:butt; stroke-linejoin:round; stroke-width:4; stroke-opacity:1; fill:none" points="
  1230.07,1486.45 1230.07,1467.55 
  "/>
<polyline clip-path="url(#clip260)" style="stroke:#000000; stroke-linecap:butt; stroke-linejoin:round; stroke-width:4; stroke-opacity:1; fill:none" points="
  1761.14,1486.45 1761.14,1467.55 
  "/>
<polyline clip-path="url(#clip260)" style="stroke:#000000; stroke-linecap:butt; stroke-linejoin:round; stroke-width:4; stroke-opacity:1; fill:none" points="
  2292.21,1486.45 2292.21,1467.55 
  "/>
<path clip-path="url(#clip260)" d="M689.283 1512.56 L707.639 1512.56 L707.639 1516.5 L693.565 1516.5 L693.565 1524.97 Q694.584 1524.62 695.602 1524.46 Q696.621 1524.27 697.639 1524.27 Q703.426 1524.27 706.806 1527.44 Q710.186 1530.62 710.186 1536.03 Q710.186 1541.61 706.713 1544.71 Q703.241 1547.79 696.922 1547.79 Q694.746 1547.79 692.477 1547.42 Q690.232 1547.05 687.825 1546.31 L687.825 1541.61 Q689.908 1542.74 692.13 1543.3 Q694.352 1543.86 696.829 1543.86 Q700.834 1543.86 703.172 1541.75 Q705.51 1539.64 705.51 1536.03 Q705.51 1532.42 703.172 1530.31 Q700.834 1528.21 696.829 1528.21 Q694.954 1528.21 693.079 1528.62 Q691.227 1529.04 689.283 1529.92 L689.283 1512.56 Z" fill="#000000" fill-rule="evenodd" fill-opacity="1" /><path clip-path="url(#clip260)" d="M1204.76 1543.18 L1212.4 1543.18 L1212.4 1516.82 L1204.09 1518.49 L1204.09 1514.23 L1212.35 1512.56 L1217.03 1512.56 L1217.03 1543.18 L1224.67 1543.18 L1224.67 1547.12 L1204.76 1547.12 L1204.76 1543.18 Z" fill="#000000" fill-rule="evenodd" fill-opacity="1" /><path clip-path="url(#clip260)" d="M1244.11 1515.64 Q1240.5 1515.64 1238.67 1519.2 Q1236.87 1522.75 1236.87 1529.87 Q1236.87 1536.98 1238.67 1540.55 Q1240.5 1544.09 1244.11 1544.09 Q1247.75 1544.09 1249.55 1540.55 Q1251.38 1536.98 1251.38 1529.87 Q1251.38 1522.75 1249.55 1519.2 Q1247.75 1515.64 1244.11 1515.64 M1244.11 1511.93 Q1249.92 1511.93 1252.98 1516.54 Q1256.06 1521.12 1256.06 1529.87 Q1256.06 1538.6 1252.98 1543.21 Q1249.92 1547.79 1244.11 1547.79 Q1238.3 1547.79 1235.23 1543.21 Q1232.17 1538.6 1232.17 1529.87 Q1232.17 1521.12 1235.23 1516.54 Q1238.3 1511.93 1244.11 1511.93 Z" fill="#000000" fill-rule="evenodd" fill-opacity="1" /><path clip-path="url(#clip260)" d="M1736.33 1543.18 L1743.97 1543.18 L1743.97 1516.82 L1735.66 1518.49 L1735.66 1514.23 L1743.92 1512.56 L1748.6 1512.56 L1748.6 1543.18 L1756.24 1543.18 L1756.24 1547.12 L1736.33 1547.12 L1736.33 1543.18 Z" fill="#000000" fill-rule="evenodd" fill-opacity="1" /><path clip-path="url(#clip260)" d="M1765.73 1512.56 L1784.08 1512.56 L1784.08 1516.5 L1770.01 1516.5 L1770.01 1524.97 Q1771.03 1524.62 1772.05 1524.46 Q1773.07 1524.27 1774.08 1524.27 Q1779.87 1524.27 1783.25 1527.44 Q1786.63 1530.62 1786.63 1536.03 Q1786.63 1541.61 1783.16 1544.71 Q1779.69 1547.79 1773.37 1547.79 Q1771.19 1547.79 1768.92 1547.42 Q1766.68 1547.05 1764.27 1546.31 L1764.27 1541.61 Q1766.35 1542.74 1768.57 1543.3 Q1770.8 1543.86 1773.27 1543.86 Q1777.28 1543.86 1779.62 1541.75 Q1781.95 1539.64 1781.95 1536.03 Q1781.95 1532.42 1779.62 1530.31 Q1777.28 1528.21 1773.27 1528.21 Q1771.4 1528.21 1769.52 1528.62 Q1767.67 1529.04 1765.73 1529.92 L1765.73 1512.56 Z" fill="#000000" fill-rule="evenodd" fill-opacity="1" /><path clip-path="url(#clip260)" d="M2270.99 1543.18 L2287.31 1543.18 L2287.31 1547.12 L2265.36 1547.12 L2265.36 1543.18 Q2268.02 1540.43 2272.61 1535.8 Q2277.21 1531.15 2278.39 1529.81 Q2280.64 1527.28 2281.52 1525.55 Q2282.42 1523.79 2282.42 1522.1 Q2282.42 1519.34 2280.48 1517.61 Q2278.56 1515.87 2275.45 1515.87 Q2273.26 1515.87 2270.8 1516.63 Q2268.37 1517.4 2265.59 1518.95 L2265.59 1514.23 Q2268.42 1513.09 2270.87 1512.51 Q2273.33 1511.93 2275.36 1511.93 Q2280.73 1511.93 2283.93 1514.62 Q2287.12 1517.31 2287.12 1521.8 Q2287.12 1523.93 2286.31 1525.85 Q2285.52 1527.74 2283.42 1530.34 Q2282.84 1531.01 2279.74 1534.23 Q2276.64 1537.42 2270.99 1543.18 Z" fill="#000000" fill-rule="evenodd" fill-opacity="1" /><path clip-path="url(#clip260)" d="M2307.12 1515.64 Q2303.51 1515.64 2301.68 1519.2 Q2299.88 1522.75 2299.88 1529.87 Q2299.88 1536.98 2301.68 1540.55 Q2303.51 1544.09 2307.12 1544.09 Q2310.76 1544.09 2312.56 1540.55 Q2314.39 1536.98 2314.39 1529.87 Q2314.39 1522.75 2312.56 1519.2 Q2310.76 1515.64 2307.12 1515.64 M2307.12 1511.93 Q2312.93 1511.93 2315.99 1516.54 Q2319.07 1521.12 2319.07 1529.87 Q2319.07 1538.6 2315.99 1543.21 Q2312.93 1547.79 2307.12 1547.79 Q2301.31 1547.79 2298.23 1543.21 Q2295.18 1538.6 2295.18 1529.87 Q2295.18 1521.12 2298.23 1516.54 Q2301.31 1511.93 2307.12 1511.93 Z" fill="#000000" fill-rule="evenodd" fill-opacity="1" /><polyline clip-path="url(#clip262)" style="stroke:#000000; stroke-linecap:butt; stroke-linejoin:round; stroke-width:2; stroke-opacity:0.1; fill:none" points="
  213.607,1121.76 2352.76,1121.76 
  "/>
<polyline clip-path="url(#clip262)" style="stroke:#000000; stroke-linecap:butt; stroke-linejoin:round; stroke-width:2; stroke-opacity:0.1; fill:none" points="
  213.607,683.443 2352.76,683.443 
  "/>
<polyline clip-path="url(#clip262)" style="stroke:#000000; stroke-linecap:butt; stroke-linejoin:round; stroke-width:2; stroke-opacity:0.1; fill:none" points="
  213.607,245.129 2352.76,245.129 
  "/>
<polyline clip-path="url(#clip260)" style="stroke:#000000; stroke-linecap:butt; stroke-linejoin:round; stroke-width:4; stroke-opacity:1; fill:none" points="
  213.607,1486.45 213.607,47.2441 
  "/>
<polyline clip-path="url(#clip260)" style="stroke:#000000; stroke-linecap:butt; stroke-linejoin:round; stroke-width:4; stroke-opacity:1; fill:none" points="
  213.607,1121.76 232.505,1121.76 
  "/>
<polyline clip-path="url(#clip260)" style="stroke:#000000; stroke-linecap:butt; stroke-linejoin:round; stroke-width:4; stroke-opacity:1; fill:none" points="
  213.607,683.443 232.505,683.443 
  "/>
<polyline clip-path="url(#clip260)" style="stroke:#000000; stroke-linecap:butt; stroke-linejoin:round; stroke-width:4; stroke-opacity:1; fill:none" points="
  213.607,245.129 232.505,245.129 
  "/>
<path clip-path="url(#clip260)" d="M51.6634 1141.55 L59.3023 1141.55 L59.3023 1115.18 L50.9921 1116.85 L50.9921 1112.59 L59.256 1110.92 L63.9319 1110.92 L63.9319 1141.55 L71.5707 1141.55 L71.5707 1145.48 L51.6634 1145.48 L51.6634 1141.55 Z" fill="#000000" fill-rule="evenodd" fill-opacity="1" /><path clip-path="url(#clip260)" d="M91.0151 1114 Q87.404 1114 85.5753 1117.57 Q83.7697 1121.11 83.7697 1128.24 Q83.7697 1135.35 85.5753 1138.91 Q87.404 1142.45 91.0151 1142.45 Q94.6493 1142.45 96.4548 1138.91 Q98.2835 1135.35 98.2835 1128.24 Q98.2835 1121.11 96.4548 1117.57 Q94.6493 1114 91.0151 1114 M91.0151 1110.3 Q96.8252 1110.3 99.8808 1114.91 Q102.959 1119.49 102.959 1128.24 Q102.959 1136.97 99.8808 1141.57 Q96.8252 1146.16 91.0151 1146.16 Q85.2049 1146.16 82.1262 1141.57 Q79.0707 1136.97 79.0707 1128.24 Q79.0707 1119.49 82.1262 1114.91 Q85.2049 1110.3 91.0151 1110.3 Z" fill="#000000" fill-rule="evenodd" fill-opacity="1" /><path clip-path="url(#clip260)" d="M102.959 1104.4 L127.071 1104.4 L127.071 1107.6 L102.959 1107.6 L102.959 1104.4 Z" fill="#000000" fill-rule="evenodd" fill-opacity="1" /><path clip-path="url(#clip260)" d="M135.929 1114.88 L142.136 1114.88 L142.136 1093.46 L135.384 1094.81 L135.384 1091.35 L142.098 1089.99 L145.898 1089.99 L145.898 1114.88 L152.104 1114.88 L152.104 1118.07 L135.929 1118.07 L135.929 1114.88 Z" fill="#000000" fill-rule="evenodd" fill-opacity="1" /><path clip-path="url(#clip260)" d="M167.903 1092.5 Q164.969 1092.5 163.483 1095.39 Q162.016 1098.27 162.016 1104.06 Q162.016 1109.84 163.483 1112.73 Q164.969 1115.61 167.903 1115.61 Q170.855 1115.61 172.322 1112.73 Q173.808 1109.84 173.808 1104.06 Q173.808 1098.27 172.322 1095.39 Q170.855 1092.5 167.903 1092.5 M167.903 1089.49 Q172.623 1089.49 175.106 1093.23 Q177.607 1096.95 177.607 1104.06 Q177.607 1111.15 175.106 1114.9 Q172.623 1118.62 167.903 1118.62 Q163.182 1118.62 160.68 1114.9 Q158.198 1111.15 158.198 1104.06 Q158.198 1096.95 160.68 1093.23 Q163.182 1089.49 167.903 1089.49 Z" fill="#000000" fill-rule="evenodd" fill-opacity="1" /><path clip-path="url(#clip260)" d="M76.9787 703.235 L84.6175 703.235 L84.6175 676.87 L76.3074 678.536 L76.3074 674.277 L84.5712 672.611 L89.2471 672.611 L89.2471 703.235 L96.886 703.235 L96.886 707.171 L76.9787 707.171 L76.9787 703.235 Z" fill="#000000" fill-rule="evenodd" fill-opacity="1" /><path clip-path="url(#clip260)" d="M116.33 675.689 Q112.719 675.689 110.891 679.254 Q109.085 682.796 109.085 689.925 Q109.085 697.032 110.891 700.596 Q112.719 704.138 116.33 704.138 Q119.965 704.138 121.77 700.596 Q123.599 697.032 123.599 689.925 Q123.599 682.796 121.77 679.254 Q119.965 675.689 116.33 675.689 M116.33 671.986 Q122.14 671.986 125.196 676.592 Q128.275 681.175 128.275 689.925 Q128.275 698.652 125.196 703.259 Q122.14 707.842 116.33 707.842 Q110.52 707.842 107.441 703.259 Q104.386 698.652 104.386 689.925 Q104.386 681.175 107.441 676.592 Q110.52 671.986 116.33 671.986 Z" fill="#000000" fill-rule="evenodd" fill-opacity="1" /><path clip-path="url(#clip260)" d="M128.275 666.087 L152.386 666.087 L152.386 669.284 L128.275 669.284 L128.275 666.087 Z" fill="#000000" fill-rule="evenodd" fill-opacity="1" /><path clip-path="url(#clip260)" d="M160.624 651.68 L175.539 651.68 L175.539 654.877 L164.103 654.877 L164.103 661.761 Q164.931 661.479 165.759 661.347 Q166.586 661.197 167.414 661.197 Q172.116 661.197 174.862 663.774 Q177.607 666.35 177.607 670.751 Q177.607 675.284 174.786 677.804 Q171.965 680.306 166.831 680.306 Q165.063 680.306 163.22 680.005 Q161.395 679.704 159.439 679.102 L159.439 675.284 Q161.132 676.205 162.937 676.657 Q164.743 677.108 166.755 677.108 Q170.009 677.108 171.909 675.397 Q173.808 673.685 173.808 670.751 Q173.808 667.817 171.909 666.106 Q170.009 664.394 166.755 664.394 Q165.232 664.394 163.709 664.733 Q162.204 665.071 160.624 665.786 L160.624 651.68 Z" fill="#000000" fill-rule="evenodd" fill-opacity="1" /><path clip-path="url(#clip260)" d="M106.902 264.921 L114.541 264.921 L114.541 238.555 L106.231 240.222 L106.231 235.963 L114.494 234.296 L119.17 234.296 L119.17 264.921 L126.809 264.921 L126.809 268.856 L106.902 268.856 L106.902 264.921 Z" fill="#000000" fill-rule="evenodd" fill-opacity="1" /><path clip-path="url(#clip260)" d="M146.253 237.375 Q142.642 237.375 140.814 240.94 Q139.008 244.481 139.008 251.611 Q139.008 258.717 140.814 262.282 Q142.642 265.824 146.253 265.824 Q149.888 265.824 151.693 262.282 Q153.522 258.717 153.522 251.611 Q153.522 244.481 151.693 240.94 Q149.888 237.375 146.253 237.375 M146.253 233.671 Q152.064 233.671 155.119 238.278 Q158.198 242.861 158.198 251.611 Q158.198 260.338 155.119 264.944 Q152.064 269.527 146.253 269.527 Q140.443 269.527 137.365 264.944 Q134.309 260.338 134.309 251.611 Q134.309 242.861 137.365 238.278 Q140.443 233.671 146.253 233.671 Z" fill="#000000" fill-rule="evenodd" fill-opacity="1" /><path clip-path="url(#clip260)" d="M167.903 215.867 Q164.969 215.867 163.483 218.764 Q162.016 221.641 162.016 227.434 Q162.016 233.208 163.483 236.104 Q164.969 238.982 167.903 238.982 Q170.855 238.982 172.322 236.104 Q173.808 233.208 173.808 227.434 Q173.808 221.641 172.322 218.764 Q170.855 215.867 167.903 215.867 M167.903 212.858 Q172.623 212.858 175.106 216.601 Q177.607 220.325 177.607 227.434 Q177.607 234.525 175.106 238.267 Q172.623 241.991 167.903 241.991 Q163.182 241.991 160.68 238.267 Q158.198 234.525 158.198 227.434 Q158.198 220.325 160.68 216.601 Q163.182 212.858 167.903 212.858 Z" fill="#000000" fill-rule="evenodd" fill-opacity="1" /><polyline clip-path="url(#clip262)" style="stroke:#009af9; stroke-linecap:butt; stroke-linejoin:round; stroke-width:4; stroke-opacity:1; fill:none" points="
  274.149,87.9763 380.363,132.917 486.577,194.884 592.791,257.416 699.005,407.34 805.219,710.347 911.433,1316.29 1017.65,1442.09 1123.86,1445.72 1230.07,1437.89 
  1336.29,1437.89 1442.5,1437.89 1548.72,1437.89 1654.93,1437.89 1761.14,1437.89 1867.36,1437.89 1973.57,1437.89 2079.79,1437.89 2186,1437.89 2292.21,1437.89 
  
  "/>
<circle clip-path="url(#clip262)" cx="274.149" cy="87.9763" r="14" fill="#009af9" fill-rule="evenodd" fill-opacity="1" stroke="#000000" stroke-opacity="1" stroke-width="3.2"/>
<circle clip-path="url(#clip262)" cx="380.363" cy="132.917" r="14" fill="#009af9" fill-rule="evenodd" fill-opacity="1" stroke="#000000" stroke-opacity="1" stroke-width="3.2"/>
<circle clip-path="url(#clip262)" cx="486.577" cy="194.884" r="14" fill="#009af9" fill-rule="evenodd" fill-opacity="1" stroke="#000000" stroke-opacity="1" stroke-width="3.2"/>
<circle clip-path="url(#clip262)" cx="592.791" cy="257.416" r="14" fill="#009af9" fill-rule="evenodd" fill-opacity="1" stroke="#000000" stroke-opacity="1" stroke-width="3.2"/>
<circle clip-path="url(#clip262)" cx="699.005" cy="407.34" r="14" fill="#009af9" fill-rule="evenodd" fill-opacity="1" stroke="#000000" stroke-opacity="1" stroke-width="3.2"/>
<circle clip-path="url(#clip262)" cx="805.219" cy="710.347" r="14" fill="#009af9" fill-rule="evenodd" fill-opacity="1" stroke="#000000" stroke-opacity="1" stroke-width="3.2"/>
<circle clip-path="url(#clip262)" cx="911.433" cy="1316.29" r="14" fill="#009af9" fill-rule="evenodd" fill-opacity="1" stroke="#000000" stroke-opacity="1" stroke-width="3.2"/>
<circle clip-path="url(#clip262)" cx="1017.65" cy="1442.09" r="14" fill="#009af9" fill-rule="evenodd" fill-opacity="1" stroke="#000000" stroke-opacity="1" stroke-width="3.2"/>
<circle clip-path="url(#clip262)" cx="1123.86" cy="1445.72" r="14" fill="#009af9" fill-rule="evenodd" fill-opacity="1" stroke="#000000" stroke-opacity="1" stroke-width="3.2"/>
<circle clip-path="url(#clip262)" cx="1230.07" cy="1437.89" r="14" fill="#009af9" fill-rule="evenodd" fill-opacity="1" stroke="#000000" stroke-opacity="1" stroke-width="3.2"/>
<circle clip-path="url(#clip262)" cx="1336.29" cy="1437.89" r="14" fill="#009af9" fill-rule="evenodd" fill-opacity="1" stroke="#000000" stroke-opacity="1" stroke-width="3.2"/>
<circle clip-path="url(#clip262)" cx="1442.5" cy="1437.89" r="14" fill="#009af9" fill-rule="evenodd" fill-opacity="1" stroke="#000000" stroke-opacity="1" stroke-width="3.2"/>
<circle clip-path="url(#clip262)" cx="1548.72" cy="1437.89" r="14" fill="#009af9" fill-rule="evenodd" fill-opacity="1" stroke="#000000" stroke-opacity="1" stroke-width="3.2"/>
<circle clip-path="url(#clip262)" cx="1654.93" cy="1437.89" r="14" fill="#009af9" fill-rule="evenodd" fill-opacity="1" stroke="#000000" stroke-opacity="1" stroke-width="3.2"/>
<circle clip-path="url(#clip262)" cx="1761.14" cy="1437.89" r="14" fill="#009af9" fill-rule="evenodd" fill-opacity="1" stroke="#000000" stroke-opacity="1" stroke-width="3.2"/>
<circle clip-path="url(#clip262)" cx="1867.36" cy="1437.89" r="14" fill="#009af9" fill-rule="evenodd" fill-opacity="1" stroke="#000000" stroke-opacity="1" stroke-width="3.2"/>
<circle clip-path="url(#clip262)" cx="1973.57" cy="1437.89" r="14" fill="#009af9" fill-rule="evenodd" fill-opacity="1" stroke="#000000" stroke-opacity="1" stroke-width="3.2"/>
<circle clip-path="url(#clip262)" cx="2079.79" cy="1437.89" r="14" fill="#009af9" fill-rule="evenodd" fill-opacity="1" stroke="#000000" stroke-opacity="1" stroke-width="3.2"/>
<circle clip-path="url(#clip262)" cx="2186" cy="1437.89" r="14" fill="#009af9" fill-rule="evenodd" fill-opacity="1" stroke="#000000" stroke-opacity="1" stroke-width="3.2"/>
<circle clip-path="url(#clip262)" cx="2292.21" cy="1437.89" r="14" fill="#009af9" fill-rule="evenodd" fill-opacity="1" stroke="#000000" stroke-opacity="1" stroke-width="3.2"/>
<path clip-path="url(#clip260)" d="
M1991.34 198.898 L2281.45 198.898 L2281.45 95.2176 L1991.34 95.2176  Z
  " fill="#ffffff" fill-rule="evenodd" fill-opacity="1"/>
<polyline clip-path="url(#clip260)" style="stroke:#000000; stroke-linecap:butt; stroke-linejoin:round; stroke-width:4; stroke-opacity:1; fill:none" points="
  1991.34,198.898 2281.45,198.898 2281.45,95.2176 1991.34,95.2176 1991.34,198.898 
  "/>
<polyline clip-path="url(#clip260)" style="stroke:#009af9; stroke-linecap:butt; stroke-linejoin:round; stroke-width:4; stroke-opacity:1; fill:none" points="
  2015.11,147.058 2157.72,147.058 
  "/>
<circle clip-path="url(#clip260)" cx="2086.41" cy="147.058" r="23" fill="#009af9" fill-rule="evenodd" fill-opacity="1" stroke="#000000" stroke-opacity="1" stroke-width="5.12"/>
<path clip-path="url(#clip260)" d="M2195.33 166.745 Q2193.52 171.375 2191.81 172.787 Q2190.1 174.199 2187.22 174.199 L2183.82 174.199 L2183.82 170.634 L2186.32 170.634 Q2188.08 170.634 2189.05 169.8 Q2190.03 168.967 2191.21 165.865 L2191.97 163.921 L2181.48 138.412 L2186 138.412 L2194.1 158.689 L2202.2 138.412 L2206.72 138.412 L2195.33 166.745 Z" fill="#000000" fill-rule="evenodd" fill-opacity="1" /><path clip-path="url(#clip260)" d="M2214.01 160.402 L2221.65 160.402 L2221.65 134.037 L2213.34 135.703 L2213.34 131.444 L2221.6 129.778 L2226.28 129.778 L2226.28 160.402 L2233.91 160.402 L2233.91 164.338 L2214.01 164.338 L2214.01 160.402 Z" fill="#000000" fill-rule="evenodd" fill-opacity="1" /></svg>
