<?xml version="1.0" encoding="utf-8"?>
<svg xmlns="http://www.w3.org/2000/svg" xmlns:xlink="http://www.w3.org/1999/xlink" width="600" height="400" viewBox="0 0 2400 1600">
<defs>
  <clipPath id="clip510">
    <rect x="0" y="0" width="2400" height="1600"/>
  </clipPath>
</defs>
<path clip-path="url(#clip510)" d="
M0 1600 L2400 1600 L2400 0 L0 0  Z
  " fill="#ffffff" fill-rule="evenodd" fill-opacity="1"/>
<defs>
  <clipPath id="clip511">
    <rect x="480" y="0" width="1681" height="1600"/>
  </clipPath>
</defs>
<path clip-path="url(#clip510)" d="
M156.598 1486.45 L2352.76 1486.45 L2352.76 47.2441 L156.598 47.2441  Z
  " fill="#ffffff" fill-rule="evenodd" fill-opacity="1"/>
<defs>
  <clipPath id="clip512">
    <rect x="156" y="47" width="2197" height="1440"/>
  </clipPath>
</defs>
<polyline clip-path="url(#clip512)" style="stroke:#000000; stroke-linecap:butt; stroke-linejoin:round; stroke-width:2; stroke-opacity:0.1; fill:none" points="
  218.754,1486.45 218.754,47.2441 
  "/>
<polyline clip-path="url(#clip512)" style="stroke:#000000; stroke-linecap:butt; stroke-linejoin:round; stroke-width:2; stroke-opacity:0.1; fill:none" points="
  564.061,1486.45 564.061,47.2441 
  "/>
<polyline clip-path="url(#clip512)" style="stroke:#000000; stroke-linecap:butt; stroke-linejoin:round; stroke-width:2; stroke-opacity:0.1; fill:none" points="
  909.369,1486.45 909.369,47.2441 
  "/>
<polyline clip-path="url(#clip512)" style="stroke:#000000; stroke-linecap:butt; stroke-linejoin:round; stroke-width:2; stroke-opacity:0.1; fill:none" points="
  1254.68,1486.45 1254.68,47.2441 
  "/>
<polyline clip-path="url(#clip512)" style="stroke:#000000; stroke-linecap:butt; stroke-linejoin:round; stroke-width:2; stroke-opacity:0.1; fill:none" points="
  1599.98,1486.45 1599.98,47.2441 
  "/>
<polyline clip-path="url(#clip512)" style="stroke:#000000; stroke-linecap:butt; stroke-linejoin:round; stroke-width:2; stroke-opacity:0.1; fill:none" points="
  1945.29,1486.45 1945.29,47.2441 
  "/>
<polyline clip-path="url(#clip512)" style="stroke:#000000; stroke-linecap:butt; stroke-linejoin:round; stroke-width:2; stroke-opacity:0.1; fill:none" points="
  2290.6,1486.45 2290.6,47.2441 
  "/>
<polyline clip-path="url(#clip510)" style="stroke:#000000; stroke-linecap:butt; stroke-linejoin:round; stroke-width:4; stroke-opacity:1; fill:none" points="
  156.598,1486.45 2352.76,1486.45 
  "/>
<polyline clip-path="url(#clip510)" style="stroke:#000000; stroke-linecap:butt; stroke-linejoin:round; stroke-width:4; stroke-opacity:1; fill:none" points="
  218.754,1486.45 218.754,1467.55 
  "/>
<polyline clip-path="url(#clip510)" style="stroke:#000000; stroke-linecap:butt; stroke-linejoin:round; stroke-width:4; stroke-opacity:1; fill:none" points="
  564.061,1486.45 564.061,1467.55 
  "/>
<polyline clip-path="url(#clip510)" style="stroke:#000000; stroke-linecap:butt; stroke-linejoin:round; stroke-width:4; stroke-opacity:1; fill:none" points="
  909.369,1486.45 909.369,1467.55 
  "/>
<polyline clip-path="url(#clip510)" style="stroke:#000000; stroke-linecap:butt; stroke-linejoin:round; stroke-width:4; stroke-opacity:1; fill:none" points="
  1254.68,1486.45 1254.68,1467.55 
  "/>
<polyline clip-path="url(#clip510)" style="stroke:#000000; stroke-linecap:butt; stroke-linejoin:round; stroke-width:4; stroke-opacity:1; fill:none" points="
  1599.98,1486.45 1599.98,1467.55 
  "/>
<polyline clip-path="url(#clip510)" style="stroke:#000000; stroke-linecap:butt; stroke-linejoin:round; stroke-width:4; stroke-opacity:1; fill:none" points="
  1945.29,1486.45 1945.29,1467.55 
  "/>
<polyline clip-path="url(#clip510)" style="stroke:#000000; stroke-linecap:butt; stroke-linejoin:round; stroke-width:4; stroke-opacity:1; fill:none" points="
  2290.6,1486.45 2290.6,1467.55 
  "/>
<path clip-path="url(#clip510)" d="M188.221 1530.29 L217.897 1530.29 L217.897 1534.23 L188.221 1534.23 L188.221 1530.29 Z" fill="#000000" fill-rule="evenodd" fill-opacity="1" /><path clip-path="url(#clip510)" d="M242.156 1528.49 Q245.513 1529.2 247.388 1531.47 Q249.286 1533.74 249.286 1537.07 Q249.286 1542.19 245.767 1544.99 Q242.249 1547.79 235.767 1547.79 Q233.592 1547.79 231.277 1547.35 Q228.985 1546.93 226.531 1546.08 L226.531 1541.56 Q228.476 1542.7 230.791 1543.28 Q233.105 1543.86 235.629 1543.86 Q240.027 1543.86 242.318 1542.12 Q244.633 1540.38 244.633 1537.07 Q244.633 1534.02 242.48 1532.31 Q240.351 1530.57 236.531 1530.57 L232.504 1530.57 L232.504 1526.73 L236.717 1526.73 Q240.166 1526.73 241.994 1525.36 Q243.823 1523.97 243.823 1521.38 Q243.823 1518.72 241.925 1517.31 Q240.05 1515.87 236.531 1515.87 Q234.61 1515.87 232.411 1516.29 Q230.212 1516.7 227.573 1517.58 L227.573 1513.42 Q230.235 1512.68 232.55 1512.31 Q234.888 1511.93 236.948 1511.93 Q242.272 1511.93 245.374 1514.37 Q248.476 1516.77 248.476 1520.89 Q248.476 1523.76 246.832 1525.75 Q245.189 1527.72 242.156 1528.49 Z" fill="#000000" fill-rule="evenodd" fill-opacity="1" /><path clip-path="url(#clip510)" d="M534.004 1530.29 L563.68 1530.29 L563.68 1534.23 L534.004 1534.23 L534.004 1530.29 Z" fill="#000000" fill-rule="evenodd" fill-opacity="1" /><path clip-path="url(#clip510)" d="M577.8 1543.18 L594.119 1543.18 L594.119 1547.12 L572.175 1547.12 L572.175 1543.18 Q574.837 1540.43 579.42 1535.8 Q584.027 1531.15 585.207 1529.81 Q587.453 1527.28 588.332 1525.55 Q589.235 1523.79 589.235 1522.1 Q589.235 1519.34 587.29 1517.61 Q585.369 1515.87 582.267 1515.87 Q580.068 1515.87 577.615 1516.63 Q575.184 1517.4 572.406 1518.95 L572.406 1514.23 Q575.23 1513.09 577.684 1512.51 Q580.138 1511.93 582.175 1511.93 Q587.545 1511.93 590.74 1514.62 Q593.934 1517.31 593.934 1521.8 Q593.934 1523.93 593.124 1525.85 Q592.337 1527.74 590.23 1530.34 Q589.652 1531.01 586.55 1534.23 Q583.448 1537.42 577.8 1543.18 Z" fill="#000000" fill-rule="evenodd" fill-opacity="1" /><path clip-path="url(#clip510)" d="M879.126 1530.29 L908.802 1530.29 L908.802 1534.23 L879.126 1534.23 L879.126 1530.29 Z" fill="#000000" fill-rule="evenodd" fill-opacity="1" /><path clip-path="url(#clip510)" d="M919.705 1543.18 L927.344 1543.18 L927.344 1516.82 L919.034 1518.49 L919.034 1514.23 L927.297 1512.56 L931.973 1512.56 L931.973 1543.18 L939.612 1543.18 L939.612 1547.12 L919.705 1547.12 L919.705 1543.18 Z" fill="#000000" fill-rule="evenodd" fill-opacity="1" /><path clip-path="url(#clip510)" d="M1254.68 1515.64 Q1251.07 1515.64 1249.24 1519.2 Q1247.43 1522.75 1247.43 1529.87 Q1247.43 1536.98 1249.24 1540.55 Q1251.07 1544.09 1254.68 1544.09 Q1258.31 1544.09 1260.12 1540.55 Q1261.95 1536.98 1261.95 1529.87 Q1261.95 1522.75 1260.12 1519.2 Q1258.31 1515.64 1254.68 1515.64 M1254.68 1511.93 Q1260.49 1511.93 1263.54 1516.54 Q1266.62 1521.12 1266.62 1529.87 Q1266.62 1538.6 1263.54 1543.21 Q1260.49 1547.79 1254.68 1547.79 Q1248.87 1547.79 1245.79 1543.21 Q1242.73 1538.6 1242.73 1529.87 Q1242.73 1521.12 1245.79 1516.54 Q1248.87 1511.93 1254.68 1511.93 Z" fill="#000000" fill-rule="evenodd" fill-opacity="1" /><path clip-path="url(#clip510)" d="M1590.37 1543.18 L1598.01 1543.18 L1598.01 1516.82 L1589.7 1518.49 L1589.7 1514.23 L1597.96 1512.56 L1602.64 1512.56 L1602.64 1543.18 L1610.27 1543.18 L1610.27 1547.12 L1590.37 1547.12 L1590.37 1543.18 Z" fill="#000000" fill-rule="evenodd" fill-opacity="1" /><path clip-path="url(#clip510)" d="M1939.95 1543.18 L1956.26 1543.18 L1956.26 1547.12 L1934.32 1547.12 L1934.32 1543.18 Q1936.98 1540.43 1941.57 1535.8 Q1946.17 1531.15 1947.35 1529.81 Q1949.6 1527.28 1950.48 1525.55 Q1951.38 1523.79 1951.38 1522.1 Q1951.38 1519.34 1949.44 1517.61 Q1947.51 1515.87 1944.41 1515.87 Q1942.21 1515.87 1939.76 1516.63 Q1937.33 1517.4 1934.55 1518.95 L1934.55 1514.23 Q1937.38 1513.09 1939.83 1512.51 Q1942.28 1511.93 1944.32 1511.93 Q1949.69 1511.93 1952.89 1514.62 Q1956.08 1517.31 1956.08 1521.8 Q1956.08 1523.93 1955.27 1525.85 Q1954.48 1527.74 1952.38 1530.34 Q1951.8 1531.01 1948.7 1534.23 Q1945.59 1537.42 1939.95 1543.18 Z" fill="#000000" fill-rule="evenodd" fill-opacity="1" /><path clip-path="url(#clip510)" d="M2294.85 1528.49 Q2298.2 1529.2 2300.08 1531.47 Q2301.98 1533.74 2301.98 1537.07 Q2301.98 1542.19 2298.46 1544.99 Q2294.94 1547.79 2288.46 1547.79 Q2286.28 1547.79 2283.97 1547.35 Q2281.68 1546.93 2279.22 1546.08 L2279.22 1541.56 Q2281.17 1542.7 2283.48 1543.28 Q2285.8 1543.86 2288.32 1543.86 Q2292.72 1543.86 2295.01 1542.12 Q2297.33 1540.38 2297.33 1537.07 Q2297.33 1534.02 2295.17 1532.31 Q2293.04 1530.57 2289.22 1530.57 L2285.2 1530.57 L2285.2 1526.73 L2289.41 1526.73 Q2292.86 1526.73 2294.69 1525.36 Q2296.51 1523.97 2296.51 1521.38 Q2296.51 1518.72 2294.62 1517.31 Q2292.74 1515.87 2289.22 1515.87 Q2287.3 1515.87 2285.1 1516.29 Q2282.9 1516.7 2280.26 1517.58 L2280.26 1513.42 Q2282.93 1512.68 2285.24 1512.31 Q2287.58 1511.93 2289.64 1511.93 Q2294.96 1511.93 2298.07 1514.37 Q2301.17 1516.77 2301.17 1520.89 Q2301.17 1523.76 2299.52 1525.75 Q2297.88 1527.72 2294.85 1528.49 Z" fill="#000000" fill-rule="evenodd" fill-opacity="1" /><polyline clip-path="url(#clip512)" style="stroke:#000000; stroke-linecap:butt; stroke-linejoin:round; stroke-width:2; stroke-opacity:0.1; fill:none" points="
  156.598,1445.72 2352.76,1445.72 
  "/>
<polyline clip-path="url(#clip512)" style="stroke:#000000; stroke-linecap:butt; stroke-linejoin:round; stroke-width:2; stroke-opacity:0.1; fill:none" points="
  156.598,1242.05 2352.76,1242.05 
  "/>
<polyline clip-path="url(#clip512)" style="stroke:#000000; stroke-linecap:butt; stroke-linejoin:round; stroke-width:2; stroke-opacity:0.1; fill:none" points="
  156.598,1038.39 2352.76,1038.39 
  "/>
<polyline clip-path="url(#clip512)" style="stroke:#000000; stroke-linecap:butt; stroke-linejoin:round; stroke-width:2; stroke-opacity:0.1; fill:none" points="
  156.598,834.733 2352.76,834.733 
  "/>
<polyline clip-path="url(#clip512)" style="stroke:#000000; stroke-linecap:butt; stroke-linejoin:round; stroke-width:2; stroke-opacity:0.1; fill:none" points="
  156.598,631.072 2352.76,631.072 
  "/>
<polyline clip-path="url(#clip512)" style="stroke:#000000; stroke-linecap:butt; stroke-linejoin:round; stroke-width:2; stroke-opacity:0.1; fill:none" points="
  156.598,427.411 2352.76,427.411 
  "/>
<polyline clip-path="url(#clip512)" style="stroke:#000000; stroke-linecap:butt; stroke-linejoin:round; stroke-width:2; stroke-opacity:0.1; fill:none" points="
  156.598,223.75 2352.76,223.75 
  "/>
<polyline clip-path="url(#clip510)" style="stroke:#000000; stroke-linecap:butt; stroke-linejoin:round; stroke-width:4; stroke-opacity:1; fill:none" points="
  156.598,1486.45 156.598,47.2441 
  "/>
<polyline clip-path="url(#clip510)" style="stroke:#000000; stroke-linecap:butt; stroke-linejoin:round; stroke-width:4; stroke-opacity:1; fill:none" points="
  156.598,1445.72 175.496,1445.72 
  "/>
<polyline clip-path="url(#clip510)" style="stroke:#000000; stroke-linecap:butt; stroke-linejoin:round; stroke-width:4; stroke-opacity:1; fill:none" points="
  156.598,1242.05 175.496,1242.05 
  "/>
<polyline clip-path="url(#clip510)" style="stroke:#000000; stroke-linecap:butt; stroke-linejoin:round; stroke-width:4; stroke-opacity:1; fill:none" points="
  156.598,1038.39 175.496,1038.39 
  "/>
<polyline clip-path="url(#clip510)" style="stroke:#000000; stroke-linecap:butt; stroke-linejoin:round; stroke-width:4; stroke-opacity:1; fill:none" points="
  156.598,834.733 175.496,834.733 
  "/>
<polyline clip-path="url(#clip510)" style="stroke:#000000; stroke-linecap:butt; stroke-linejoin:round; stroke-width:4; stroke-opacity:1; fill:none" points="
  156.598,631.072 175.496,631.072 
  "/>
<polyline clip-path="url(#clip510)" style="stroke:#000000; stroke-linecap:butt; stroke-linejoin:round; stroke-width:4; stroke-opacity:1; fill:none" points="
  156.598,427.411 175.496,427.411 
  "/>
<polyline clip-path="url(#clip510)" style="stroke:#000000; stroke-linecap:butt; stroke-linejoin:round; stroke-width:4; stroke-opacity:1; fill:none" points="
  156.598,223.75 175.496,223.75 
  "/>
<path clip-path="url(#clip510)" d="M63.4226 1431.51 Q59.8115 1431.51 57.9828 1435.08 Q56.1773 1438.62 56.1773 1445.75 Q56.1773 1452.86 57.9828 1456.42 Q59.8115 1459.96 63.4226 1459.96 Q67.0569 1459.96 68.8624 1456.42 Q70.6911 1452.86 70.6911 1445.75 Q70.6911 1438.62 68.8624 1435.08 Q67.0569 1431.51 63.4226 1431.51 M63.4226 1427.81 Q69.2328 1427.81 72.2883 1432.42 Q75.367 1437 75.367 1445.75 Q75.367 1454.48 72.2883 1459.08 Q69.2328 1463.67 63.4226 1463.67 Q57.6125 1463.67 54.5338 1459.08 Q51.4782 1454.48 51.4782 1445.75 Q51.4782 1437 54.5338 1432.42 Q57.6125 1427.81 63.4226 1427.81 Z" fill="#000000" fill-rule="evenodd" fill-opacity="1" /><path clip-path="url(#clip510)" d="M83.5845 1457.12 L88.4688 1457.12 L88.4688 1463 L83.5845 1463 L83.5845 1457.12 Z" fill="#000000" fill-rule="evenodd" fill-opacity="1" /><path clip-path="url(#clip510)" d="M108.654 1431.51 Q105.043 1431.51 103.214 1435.08 Q101.409 1438.62 101.409 1445.75 Q101.409 1452.86 103.214 1456.42 Q105.043 1459.96 108.654 1459.96 Q112.288 1459.96 114.094 1456.42 Q115.922 1452.86 115.922 1445.75 Q115.922 1438.62 114.094 1435.08 Q112.288 1431.51 108.654 1431.51 M108.654 1427.81 Q114.464 1427.81 117.52 1432.42 Q120.598 1437 120.598 1445.75 Q120.598 1454.48 117.52 1459.08 Q114.464 1463.67 108.654 1463.67 Q102.844 1463.67 99.765 1459.08 Q96.7095 1454.48 96.7095 1445.75 Q96.7095 1437 99.765 1432.42 Q102.844 1427.81 108.654 1427.81 Z" fill="#000000" fill-rule="evenodd" fill-opacity="1" /><path clip-path="url(#clip510)" d="M65.0198 1227.85 Q61.4087 1227.85 59.58 1231.42 Q57.7745 1234.96 57.7745 1242.09 Q57.7745 1249.2 59.58 1252.76 Q61.4087 1256.3 65.0198 1256.3 Q68.6541 1256.3 70.4596 1252.76 Q72.2883 1249.2 72.2883 1242.09 Q72.2883 1234.96 70.4596 1231.42 Q68.6541 1227.85 65.0198 1227.85 M65.0198 1224.15 Q70.83 1224.15 73.8855 1228.76 Q76.9642 1233.34 76.9642 1242.09 Q76.9642 1250.82 73.8855 1255.42 Q70.83 1260.01 65.0198 1260.01 Q59.2097 1260.01 56.131 1255.42 Q53.0754 1250.82 53.0754 1242.09 Q53.0754 1233.34 56.131 1228.76 Q59.2097 1224.15 65.0198 1224.15 Z" fill="#000000" fill-rule="evenodd" fill-opacity="1" /><path clip-path="url(#clip510)" d="M85.1818 1253.46 L90.066 1253.46 L90.066 1259.33 L85.1818 1259.33 L85.1818 1253.46 Z" fill="#000000" fill-rule="evenodd" fill-opacity="1" /><path clip-path="url(#clip510)" d="M104.279 1255.4 L120.598 1255.4 L120.598 1259.33 L98.6539 1259.33 L98.6539 1255.4 Q101.316 1252.65 105.899 1248.02 Q110.506 1243.36 111.686 1242.02 Q113.932 1239.5 114.811 1237.76 Q115.714 1236 115.714 1234.31 Q115.714 1231.56 113.77 1229.82 Q111.848 1228.08 108.746 1228.08 Q106.547 1228.08 104.094 1228.85 Q101.663 1229.61 98.8854 1231.16 L98.8854 1226.44 Q101.709 1225.31 104.163 1224.73 Q106.617 1224.15 108.654 1224.15 Q114.024 1224.15 117.219 1226.83 Q120.413 1229.52 120.413 1234.01 Q120.413 1236.14 119.603 1238.06 Q118.816 1239.96 116.709 1242.55 Q116.131 1243.22 113.029 1246.44 Q109.927 1249.64 104.279 1255.4 Z" fill="#000000" fill-rule="evenodd" fill-opacity="1" /><path clip-path="url(#clip510)" d="M62.9365 1024.19 Q59.3254 1024.19 57.4967 1027.76 Q55.6912 1031.3 55.6912 1038.43 Q55.6912 1045.54 57.4967 1049.1 Q59.3254 1052.64 62.9365 1052.64 Q66.5707 1052.64 68.3763 1049.1 Q70.205 1045.54 70.205 1038.43 Q70.205 1031.3 68.3763 1027.76 Q66.5707 1024.19 62.9365 1024.19 M62.9365 1020.49 Q68.7467 1020.49 71.8022 1025.1 Q74.8809 1029.68 74.8809 1038.43 Q74.8809 1047.16 71.8022 1051.76 Q68.7467 1056.35 62.9365 1056.35 Q57.1264 1056.35 54.0477 1051.76 Q50.9921 1047.16 50.9921 1038.43 Q50.9921 1029.68 54.0477 1025.1 Q57.1264 1020.49 62.9365 1020.49 Z" fill="#000000" fill-rule="evenodd" fill-opacity="1" /><path clip-path="url(#clip510)" d="M83.0984 1049.79 L87.9827 1049.79 L87.9827 1055.67 L83.0984 1055.67 L83.0984 1049.79 Z" fill="#000000" fill-rule="evenodd" fill-opacity="1" /><path clip-path="url(#clip510)" d="M111.015 1025.19 L99.2095 1043.64 L111.015 1043.64 L111.015 1025.19 M109.788 1021.11 L115.668 1021.11 L115.668 1043.64 L120.598 1043.64 L120.598 1047.53 L115.668 1047.53 L115.668 1055.67 L111.015 1055.67 L111.015 1047.53 L95.4132 1047.53 L95.4132 1043.01 L109.788 1021.11 Z" fill="#000000" fill-rule="evenodd" fill-opacity="1" /><path clip-path="url(#clip510)" d="M63.2606 820.532 Q59.6495 820.532 57.8208 824.096 Q56.0152 827.638 56.0152 834.768 Q56.0152 841.874 57.8208 845.439 Q59.6495 848.981 63.2606 848.981 Q66.8948 848.981 68.7004 845.439 Q70.5291 841.874 70.5291 834.768 Q70.5291 827.638 68.7004 824.096 Q66.8948 820.532 63.2606 820.532 M63.2606 816.828 Q69.0707 816.828 72.1263 821.434 Q75.205 826.018 75.205 834.768 Q75.205 843.494 72.1263 848.101 Q69.0707 852.684 63.2606 852.684 Q57.4504 852.684 54.3717 848.101 Q51.3162 843.494 51.3162 834.768 Q51.3162 826.018 54.3717 821.434 Q57.4504 816.828 63.2606 816.828 Z" fill="#000000" fill-rule="evenodd" fill-opacity="1" /><path clip-path="url(#clip510)" d="M83.4225 846.133 L88.3067 846.133 L88.3067 852.013 L83.4225 852.013 L83.4225 846.133 Z" fill="#000000" fill-rule="evenodd" fill-opacity="1" /><path clip-path="url(#clip510)" d="M109.071 832.87 Q105.922 832.87 104.071 835.022 Q102.242 837.175 102.242 840.925 Q102.242 844.652 104.071 846.828 Q105.922 848.981 109.071 848.981 Q112.219 848.981 114.047 846.828 Q115.899 844.652 115.899 840.925 Q115.899 837.175 114.047 835.022 Q112.219 832.87 109.071 832.87 M118.353 818.217 L118.353 822.476 Q116.594 821.643 114.788 821.203 Q113.006 820.763 111.246 820.763 Q106.617 820.763 104.163 823.888 Q101.733 827.013 101.385 833.332 Q102.751 831.319 104.811 830.254 Q106.871 829.166 109.348 829.166 Q114.557 829.166 117.566 832.337 Q120.598 835.485 120.598 840.925 Q120.598 846.249 117.45 849.467 Q114.302 852.684 109.071 852.684 Q103.075 852.684 99.9039 848.101 Q96.7326 843.494 96.7326 834.768 Q96.7326 826.573 100.621 821.712 Q104.51 816.828 111.061 816.828 Q112.82 816.828 114.603 817.175 Q116.408 817.522 118.353 818.217 Z" fill="#000000" fill-rule="evenodd" fill-opacity="1" /><path clip-path="url(#clip510)" d="M63.5152 616.871 Q59.9041 616.871 58.0754 620.436 Q56.2699 623.977 56.2699 631.107 Q56.2699 638.213 58.0754 641.778 Q59.9041 645.32 63.5152 645.32 Q67.1494 645.32 68.955 641.778 Q70.7837 638.213 70.7837 631.107 Q70.7837 623.977 68.955 620.436 Q67.1494 616.871 63.5152 616.871 M63.5152 613.167 Q69.3254 613.167 72.3809 617.774 Q75.4596 622.357 75.4596 631.107 Q75.4596 639.834 72.3809 644.44 Q69.3254 649.023 63.5152 649.023 Q57.7051 649.023 54.6264 644.44 Q51.5708 639.834 51.5708 631.107 Q51.5708 622.357 54.6264 617.774 Q57.7051 613.167 63.5152 613.167 Z" fill="#000000" fill-rule="evenodd" fill-opacity="1" /><path clip-path="url(#clip510)" d="M83.6771 642.472 L88.5614 642.472 L88.5614 648.352 L83.6771 648.352 L83.6771 642.472 Z" fill="#000000" fill-rule="evenodd" fill-opacity="1" /><path clip-path="url(#clip510)" d="M108.746 631.94 Q105.413 631.94 103.492 633.722 Q101.594 635.505 101.594 638.63 Q101.594 641.755 103.492 643.537 Q105.413 645.32 108.746 645.32 Q112.08 645.32 114.001 643.537 Q115.922 641.732 115.922 638.63 Q115.922 635.505 114.001 633.722 Q112.103 631.94 108.746 631.94 M104.071 629.949 Q101.061 629.209 99.3715 627.148 Q97.7048 625.088 97.7048 622.125 Q97.7048 617.982 100.645 615.574 Q103.608 613.167 108.746 613.167 Q113.908 613.167 116.848 615.574 Q119.788 617.982 119.788 622.125 Q119.788 625.088 118.098 627.148 Q116.432 629.209 113.445 629.949 Q116.825 630.736 118.7 633.028 Q120.598 635.32 120.598 638.63 Q120.598 643.653 117.52 646.338 Q114.464 649.023 108.746 649.023 Q103.029 649.023 99.9502 646.338 Q96.8947 643.653 96.8947 638.63 Q96.8947 635.32 98.7928 633.028 Q100.691 630.736 104.071 629.949 M102.358 622.565 Q102.358 625.25 104.024 626.755 Q105.714 628.26 108.746 628.26 Q111.756 628.26 113.445 626.755 Q115.158 625.25 115.158 622.565 Q115.158 619.88 113.445 618.375 Q111.756 616.871 108.746 616.871 Q105.714 616.871 104.024 618.375 Q102.358 619.88 102.358 622.565 Z" fill="#000000" fill-rule="evenodd" fill-opacity="1" /><path clip-path="url(#clip510)" d="M54.2328 440.756 L61.8717 440.756 L61.8717 414.39 L53.5616 416.057 L53.5616 411.798 L61.8254 410.131 L66.5013 410.131 L66.5013 440.756 L74.1402 440.756 L74.1402 444.691 L54.2328 444.691 L54.2328 440.756 Z" fill="#000000" fill-rule="evenodd" fill-opacity="1" /><path clip-path="url(#clip510)" d="M83.5845 438.812 L88.4688 438.812 L88.4688 444.691 L83.5845 444.691 L83.5845 438.812 Z" fill="#000000" fill-rule="evenodd" fill-opacity="1" /><path clip-path="url(#clip510)" d="M108.654 413.21 Q105.043 413.21 103.214 416.775 Q101.409 420.316 101.409 427.446 Q101.409 434.552 103.214 438.117 Q105.043 441.659 108.654 441.659 Q112.288 441.659 114.094 438.117 Q115.922 434.552 115.922 427.446 Q115.922 420.316 114.094 416.775 Q112.288 413.21 108.654 413.21 M108.654 409.506 Q114.464 409.506 117.52 414.113 Q120.598 418.696 120.598 427.446 Q120.598 436.173 117.52 440.779 Q114.464 445.362 108.654 445.362 Q102.844 445.362 99.765 440.779 Q96.7095 436.173 96.7095 427.446 Q96.7095 418.696 99.765 414.113 Q102.844 409.506 108.654 409.506 Z" fill="#000000" fill-rule="evenodd" fill-opacity="1" /><path clip-path="url(#clip510)" d="M55.8301 237.095 L63.4689 237.095 L63.4689 210.729 L55.1588 212.396 L55.1588 208.137 L63.4226 206.47 L68.0985 206.47 L68.0985 237.095 L75.7374 237.095 L75.7374 241.03 L55.8301 241.03 L55.8301 237.095 Z" fill="#000000" fill-rule="evenodd" fill-opacity="1" /><path clip-path="url(#clip510)" d="M85.1818 235.151 L90.066 235.151 L90.066 241.03 L85.1818 241.03 L85.1818 235.151 Z" fill="#000000" fill-rule="evenodd" fill-opacity="1" /><path clip-path="url(#clip510)" d="M104.279 237.095 L120.598 237.095 L120.598 241.03 L98.6539 241.03 L98.6539 237.095 Q101.316 234.34 105.899 229.711 Q110.506 225.058 111.686 223.715 Q113.932 221.192 114.811 219.456 Q115.714 217.697 115.714 216.007 Q115.714 213.253 113.77 211.516 Q111.848 209.78 108.746 209.78 Q106.547 209.78 104.094 210.544 Q101.663 211.308 98.8854 212.859 L98.8854 208.137 Q101.709 207.003 104.163 206.424 Q106.617 205.845 108.654 205.845 Q114.024 205.845 117.219 208.53 Q120.413 211.216 120.413 215.706 Q120.413 217.836 119.603 219.757 Q118.816 221.655 116.709 224.248 Q116.131 224.919 113.029 228.137 Q109.927 231.331 104.279 237.095 Z" fill="#000000" fill-rule="evenodd" fill-opacity="1" /><polyline clip-path="url(#clip512)" style="stroke:#009af9; stroke-linecap:butt; stroke-linejoin:round; stroke-width:4; stroke-opacity:1; fill:none" points="
  218.754,1445.72 448.959,993.136 679.164,540.556 909.369,87.9763 1139.57,87.9763 1369.78,87.9763 1599.98,87.9763 1830.19,87.9763 2060.4,87.9763 2290.6,87.9763 
  
  "/>
<path clip-path="url(#clip510)" d="
M1983.1 198.898 L2279.55 198.898 L2279.55 95.2176 L1983.1 95.2176  Z
  " fill="#ffffff" fill-rule="evenodd" fill-opacity="1"/>
<polyline clip-path="url(#clip510)" style="stroke:#000000; stroke-linecap:butt; stroke-linejoin:round; stroke-width:4; stroke-opacity:1; fill:none" points="
  1983.1,198.898 2279.55,198.898 2279.55,95.2176 1983.1,95.2176 1983.1,198.898 
  "/>
<polyline clip-path="url(#clip510)" style="stroke:#009af9; stroke-linecap:butt; stroke-linejoin:round; stroke-width:4; stroke-opacity:1; fill:none" points="
  2007.5,147.058 2153.92,147.058 
  "/>
<path clip-path="url(#clip510)" d="M2192.16 166.745 Q2190.35 171.375 2188.64 172.787 Q2186.93 174.199 2184.06 174.199 L2180.65 174.199 L2180.65 170.634 L2183.15 170.634 Q2184.91 170.634 2185.89 169.8 Q2186.86 168.967 2188.04 165.865 L2188.8 163.921 L2178.32 138.412 L2182.83 138.412 L2190.93 158.689 L2199.03 138.412 L2203.55 138.412 L2192.16 166.745 Z" fill="#000000" fill-rule="evenodd" fill-opacity="1" /><path clip-path="url(#clip510)" d="M2210.84 160.402 L2218.48 160.402 L2218.48 134.037 L2210.17 135.703 L2210.17 131.444 L2218.43 129.778 L2223.11 129.778 L2223.11 160.402 L2230.75 160.402 L2230.75 164.338 L2210.84 164.338 L2210.84 160.402 Z" fill="#000000" fill-rule="evenodd" fill-opacity="1" /></svg>
