<?xml version="1.0" encoding="utf-8"?>
<svg xmlns="http://www.w3.org/2000/svg" xmlns:xlink="http://www.w3.org/1999/xlink" width="600" height="400" viewBox="0 0 2400 1600">
<defs>
  <clipPath id="clip520">
    <rect x="0" y="0" width="2400" height="1600"/>
  </clipPath>
</defs>
<path clip-path="url(#clip520)" d="
M0 1600 L2400 1600 L2400 0 L0 0  Z
  " fill="#ffffff" fill-rule="evenodd" fill-opacity="1"/>
<defs>
  <clipPath id="clip521">
    <rect x="480" y="0" width="1681" height="1600"/>
  </clipPath>
</defs>
<path clip-path="url(#clip520)" d="
M216.436 1486.45 L2352.76 1486.45 L2352.76 47.2441 L216.436 47.2441  Z
  " fill="#ffffff" fill-rule="evenodd" fill-opacity="1"/>
<defs>
  <clipPath id="clip522">
    <rect x="216" y="47" width="2137" height="1440"/>
  </clipPath>
</defs>
<polyline clip-path="url(#clip522)" style="stroke:#000000; stroke-linecap:butt; stroke-linejoin:round; stroke-width:2; stroke-opacity:0.1; fill:none" points="
  276.898,1486.45 276.898,47.2441 
  "/>
<polyline clip-path="url(#clip522)" style="stroke:#000000; stroke-linecap:butt; stroke-linejoin:round; stroke-width:2; stroke-opacity:0.1; fill:none" points="
  780.747,1486.45 780.747,47.2441 
  "/>
<polyline clip-path="url(#clip522)" style="stroke:#000000; stroke-linecap:butt; stroke-linejoin:round; stroke-width:2; stroke-opacity:0.1; fill:none" points="
  1284.6,1486.45 1284.6,47.2441 
  "/>
<polyline clip-path="url(#clip522)" style="stroke:#000000; stroke-linecap:butt; stroke-linejoin:round; stroke-width:2; stroke-opacity:0.1; fill:none" points="
  1788.44,1486.45 1788.44,47.2441 
  "/>
<polyline clip-path="url(#clip522)" style="stroke:#000000; stroke-linecap:butt; stroke-linejoin:round; stroke-width:2; stroke-opacity:0.1; fill:none" points="
  2292.29,1486.45 2292.29,47.2441 
  "/>
<polyline clip-path="url(#clip520)" style="stroke:#000000; stroke-linecap:butt; stroke-linejoin:round; stroke-width:4; stroke-opacity:1; fill:none" points="
  216.436,1486.45 2352.76,1486.45 
  "/>
<polyline clip-path="url(#clip520)" style="stroke:#000000; stroke-linecap:butt; stroke-linejoin:round; stroke-width:4; stroke-opacity:1; fill:none" points="
  276.898,1486.45 276.898,1467.55 
  "/>
<polyline clip-path="url(#clip520)" style="stroke:#000000; stroke-linecap:butt; stroke-linejoin:round; stroke-width:4; stroke-opacity:1; fill:none" points="
  780.747,1486.45 780.747,1467.55 
  "/>
<polyline clip-path="url(#clip520)" style="stroke:#000000; stroke-linecap:butt; stroke-linejoin:round; stroke-width:4; stroke-opacity:1; fill:none" points="
  1284.6,1486.45 1284.6,1467.55 
  "/>
<polyline clip-path="url(#clip520)" style="stroke:#000000; stroke-linecap:butt; stroke-linejoin:round; stroke-width:4; stroke-opacity:1; fill:none" points="
  1788.44,1486.45 1788.44,1467.55 
  "/>
<polyline clip-path="url(#clip520)" style="stroke:#000000; stroke-linecap:butt; stroke-linejoin:round; stroke-width:4; stroke-opacity:1; fill:none" points="
  2292.29,1486.45 2292.29,1467.55 
  "/>
<path clip-path="url(#clip520)" d="M223.426 1532.02 L253.102 1532.02 L253.102 1535.95 L223.426 1535.95 L223.426 1532.02 Z" fill="#000000" fill-rule="evenodd" fill-opacity="1" /><path clip-path="url(#clip520)" d="M264.004 1544.91 L271.643 1544.91 L271.643 1518.55 L263.333 1520.21 L263.333 1515.95 L271.597 1514.29 L276.273 1514.29 L276.273 1544.91 L283.912 1544.91 L283.912 1548.85 L264.004 1548.85 L264.004 1544.91 Z" fill="#000000" fill-rule="evenodd" fill-opacity="1" /><path clip-path="url(#clip520)" d="M293.356 1542.97 L298.24 1542.97 L298.24 1548.85 L293.356 1548.85 L293.356 1542.97 Z" fill="#000000" fill-rule="evenodd" fill-opacity="1" /><path clip-path="url(#clip520)" d="M318.425 1517.37 Q314.814 1517.37 312.986 1520.93 Q311.18 1524.47 311.18 1531.6 Q311.18 1538.71 312.986 1542.27 Q314.814 1545.82 318.425 1545.82 Q322.06 1545.82 323.865 1542.27 Q325.694 1538.71 325.694 1531.6 Q325.694 1524.47 323.865 1520.93 Q322.06 1517.37 318.425 1517.37 M318.425 1513.66 Q324.235 1513.66 327.291 1518.27 Q330.37 1522.85 330.37 1531.6 Q330.37 1540.33 327.291 1544.94 Q324.235 1549.52 318.425 1549.52 Q312.615 1549.52 309.536 1544.94 Q306.481 1540.33 306.481 1531.6 Q306.481 1522.85 309.536 1518.27 Q312.615 1513.66 318.425 1513.66 Z" fill="#000000" fill-rule="evenodd" fill-opacity="1" /><path clip-path="url(#clip520)" d="M727.773 1532.02 L757.448 1532.02 L757.448 1535.95 L727.773 1535.95 L727.773 1532.02 Z" fill="#000000" fill-rule="evenodd" fill-opacity="1" /><path clip-path="url(#clip520)" d="M777.541 1517.37 Q773.93 1517.37 772.101 1520.93 Q770.295 1524.47 770.295 1531.6 Q770.295 1538.71 772.101 1542.27 Q773.93 1545.82 777.541 1545.82 Q781.175 1545.82 782.981 1542.27 Q784.809 1538.71 784.809 1531.6 Q784.809 1524.47 782.981 1520.93 Q781.175 1517.37 777.541 1517.37 M777.541 1513.66 Q783.351 1513.66 786.407 1518.27 Q789.485 1522.85 789.485 1531.6 Q789.485 1540.33 786.407 1544.94 Q783.351 1549.52 777.541 1549.52 Q771.731 1549.52 768.652 1544.94 Q765.596 1540.33 765.596 1531.6 Q765.596 1522.85 768.652 1518.27 Q771.731 1513.66 777.541 1513.66 Z" fill="#000000" fill-rule="evenodd" fill-opacity="1" /><path clip-path="url(#clip520)" d="M797.703 1542.97 L802.587 1542.97 L802.587 1548.85 L797.703 1548.85 L797.703 1542.97 Z" fill="#000000" fill-rule="evenodd" fill-opacity="1" /><path clip-path="url(#clip520)" d="M812.818 1514.29 L831.175 1514.29 L831.175 1518.22 L817.101 1518.22 L817.101 1526.7 Q818.119 1526.35 819.138 1526.19 Q820.156 1526 821.175 1526 Q826.962 1526 830.341 1529.17 Q833.721 1532.34 833.721 1537.76 Q833.721 1543.34 830.249 1546.44 Q826.777 1549.52 820.457 1549.52 Q818.281 1549.52 816.013 1549.15 Q813.767 1548.78 811.36 1548.04 L811.36 1543.34 Q813.443 1544.47 815.666 1545.03 Q817.888 1545.58 820.365 1545.58 Q824.369 1545.58 826.707 1543.48 Q829.045 1541.37 829.045 1537.76 Q829.045 1534.15 826.707 1532.04 Q824.369 1529.94 820.365 1529.94 Q818.49 1529.94 816.615 1530.35 Q814.763 1530.77 812.818 1531.65 L812.818 1514.29 Z" fill="#000000" fill-rule="evenodd" fill-opacity="1" /><path clip-path="url(#clip520)" d="M1261.98 1517.37 Q1258.37 1517.37 1256.54 1520.93 Q1254.73 1524.47 1254.73 1531.6 Q1254.73 1538.71 1256.54 1542.27 Q1258.37 1545.82 1261.98 1545.82 Q1265.61 1545.82 1267.42 1542.27 Q1269.25 1538.71 1269.25 1531.6 Q1269.25 1524.47 1267.42 1520.93 Q1265.61 1517.37 1261.98 1517.37 M1261.98 1513.66 Q1267.79 1513.66 1270.85 1518.27 Q1273.92 1522.85 1273.92 1531.6 Q1273.92 1540.33 1270.85 1544.94 Q1267.79 1549.52 1261.98 1549.52 Q1256.17 1549.52 1253.09 1544.94 Q1250.04 1540.33 1250.04 1531.6 Q1250.04 1522.85 1253.09 1518.27 Q1256.17 1513.66 1261.98 1513.66 Z" fill="#000000" fill-rule="evenodd" fill-opacity="1" /><path clip-path="url(#clip520)" d="M1282.14 1542.97 L1287.03 1542.97 L1287.03 1548.85 L1282.14 1548.85 L1282.14 1542.97 Z" fill="#000000" fill-rule="evenodd" fill-opacity="1" /><path clip-path="url(#clip520)" d="M1307.21 1517.37 Q1303.6 1517.37 1301.77 1520.93 Q1299.97 1524.47 1299.97 1531.6 Q1299.97 1538.71 1301.77 1542.27 Q1303.6 1545.82 1307.21 1545.82 Q1310.85 1545.82 1312.65 1542.27 Q1314.48 1538.71 1314.48 1531.6 Q1314.48 1524.47 1312.65 1520.93 Q1310.85 1517.37 1307.21 1517.37 M1307.21 1513.66 Q1313.02 1513.66 1316.08 1518.27 Q1319.16 1522.85 1319.16 1531.6 Q1319.16 1540.33 1316.08 1544.94 Q1313.02 1549.52 1307.21 1549.52 Q1301.4 1549.52 1298.32 1544.94 Q1295.27 1540.33 1295.27 1531.6 Q1295.27 1522.85 1298.32 1518.27 Q1301.4 1513.66 1307.21 1513.66 Z" fill="#000000" fill-rule="evenodd" fill-opacity="1" /><path clip-path="url(#clip520)" d="M1766.33 1517.37 Q1762.72 1517.37 1760.89 1520.93 Q1759.08 1524.47 1759.08 1531.6 Q1759.08 1538.71 1760.89 1542.27 Q1762.72 1545.82 1766.33 1545.82 Q1769.96 1545.82 1771.77 1542.27 Q1773.6 1538.71 1773.6 1531.6 Q1773.6 1524.47 1771.77 1520.93 Q1769.96 1517.37 1766.33 1517.37 M1766.33 1513.66 Q1772.14 1513.66 1775.19 1518.27 Q1778.27 1522.85 1778.27 1531.6 Q1778.27 1540.33 1775.19 1544.94 Q1772.14 1549.52 1766.33 1549.52 Q1760.52 1549.52 1757.44 1544.94 Q1754.38 1540.33 1754.38 1531.6 Q1754.38 1522.85 1757.44 1518.27 Q1760.52 1513.66 1766.33 1513.66 Z" fill="#000000" fill-rule="evenodd" fill-opacity="1" /><path clip-path="url(#clip520)" d="M1786.49 1542.97 L1791.37 1542.97 L1791.37 1548.85 L1786.49 1548.85 L1786.49 1542.97 Z" fill="#000000" fill-rule="evenodd" fill-opacity="1" /><path clip-path="url(#clip520)" d="M1801.6 1514.29 L1819.96 1514.29 L1819.96 1518.22 L1805.89 1518.22 L1805.89 1526.7 Q1806.91 1526.35 1807.92 1526.19 Q1808.94 1526 1809.96 1526 Q1815.75 1526 1819.13 1529.17 Q1822.51 1532.34 1822.51 1537.76 Q1822.51 1543.34 1819.04 1546.44 Q1815.56 1549.52 1809.24 1549.52 Q1807.07 1549.52 1804.8 1549.15 Q1802.55 1548.78 1800.15 1548.04 L1800.15 1543.34 Q1802.23 1544.47 1804.45 1545.03 Q1806.67 1545.58 1809.15 1545.58 Q1813.16 1545.58 1815.49 1543.48 Q1817.83 1541.37 1817.83 1537.76 Q1817.83 1534.15 1815.49 1532.04 Q1813.16 1529.94 1809.15 1529.94 Q1807.28 1529.94 1805.4 1530.35 Q1803.55 1530.77 1801.6 1531.65 L1801.6 1514.29 Z" fill="#000000" fill-rule="evenodd" fill-opacity="1" /><path clip-path="url(#clip520)" d="M2259.45 1544.91 L2267.09 1544.91 L2267.09 1518.55 L2258.78 1520.21 L2258.78 1515.95 L2267.04 1514.29 L2271.72 1514.29 L2271.72 1544.91 L2279.35 1544.91 L2279.35 1548.85 L2259.45 1548.85 L2259.45 1544.91 Z" fill="#000000" fill-rule="evenodd" fill-opacity="1" /><path clip-path="url(#clip520)" d="M2288.8 1542.97 L2293.68 1542.97 L2293.68 1548.85 L2288.8 1548.85 L2288.8 1542.97 Z" fill="#000000" fill-rule="evenodd" fill-opacity="1" /><path clip-path="url(#clip520)" d="M2313.87 1517.37 Q2310.26 1517.37 2308.43 1520.93 Q2306.62 1524.47 2306.62 1531.6 Q2306.62 1538.71 2308.43 1542.27 Q2310.26 1545.82 2313.87 1545.82 Q2317.5 1545.82 2319.31 1542.27 Q2321.14 1538.71 2321.14 1531.6 Q2321.14 1524.47 2319.31 1520.93 Q2317.5 1517.37 2313.87 1517.37 M2313.87 1513.66 Q2319.68 1513.66 2322.73 1518.27 Q2325.81 1522.85 2325.81 1531.6 Q2325.81 1540.33 2322.73 1544.94 Q2319.68 1549.52 2313.87 1549.52 Q2308.06 1549.52 2304.98 1544.94 Q2301.92 1540.33 2301.92 1531.6 Q2301.92 1522.85 2304.98 1518.27 Q2308.06 1513.66 2313.87 1513.66 Z" fill="#000000" fill-rule="evenodd" fill-opacity="1" /><polyline clip-path="url(#clip522)" style="stroke:#000000; stroke-linecap:butt; stroke-linejoin:round; stroke-width:2; stroke-opacity:0.1; fill:none" points="
  216.436,1445.72 2352.76,1445.72 
  "/>
<polyline clip-path="url(#clip522)" style="stroke:#000000; stroke-linecap:butt; stroke-linejoin:round; stroke-width:2; stroke-opacity:0.1; fill:none" points="
  216.436,1125.62 2352.76,1125.62 
  "/>
<polyline clip-path="url(#clip522)" style="stroke:#000000; stroke-linecap:butt; stroke-linejoin:round; stroke-width:2; stroke-opacity:0.1; fill:none" points="
  216.436,805.532 2352.76,805.532 
  "/>
<polyline clip-path="url(#clip522)" style="stroke:#000000; stroke-linecap:butt; stroke-linejoin:round; stroke-width:2; stroke-opacity:0.1; fill:none" points="
  216.436,485.441 2352.76,485.441 
  "/>
<polyline clip-path="url(#clip522)" style="stroke:#000000; stroke-linecap:butt; stroke-linejoin:round; stroke-width:2; stroke-opacity:0.1; fill:none" points="
  216.436,165.349 2352.76,165.349 
  "/>
<polyline clip-path="url(#clip520)" style="stroke:#000000; stroke-linecap:butt; stroke-linejoin:round; stroke-width:4; stroke-opacity:1; fill:none" points="
  216.436,1486.45 216.436,47.2441 
  "/>
<polyline clip-path="url(#clip520)" style="stroke:#000000; stroke-linecap:butt; stroke-linejoin:round; stroke-width:4; stroke-opacity:1; fill:none" points="
  216.436,1445.72 235.334,1445.72 
  "/>
<polyline clip-path="url(#clip520)" style="stroke:#000000; stroke-linecap:butt; stroke-linejoin:round; stroke-width:4; stroke-opacity:1; fill:none" points="
  216.436,1125.62 235.334,1125.62 
  "/>
<polyline clip-path="url(#clip520)" style="stroke:#000000; stroke-linecap:butt; stroke-linejoin:round; stroke-width:4; stroke-opacity:1; fill:none" points="
  216.436,805.532 235.334,805.532 
  "/>
<polyline clip-path="url(#clip520)" style="stroke:#000000; stroke-linecap:butt; stroke-linejoin:round; stroke-width:4; stroke-opacity:1; fill:none" points="
  216.436,485.441 235.334,485.441 
  "/>
<polyline clip-path="url(#clip520)" style="stroke:#000000; stroke-linecap:butt; stroke-linejoin:round; stroke-width:4; stroke-opacity:1; fill:none" points="
  216.436,165.349 235.334,165.349 
  "/>
<path clip-path="url(#clip520)" d="M62.9365 1431.51 Q59.3254 1431.51 57.4967 1435.08 Q55.6912 1438.62 55.6912 1445.75 Q55.6912 1452.86 57.4967 1456.42 Q59.3254 1459.96 62.9365 1459.96 Q66.5707 1459.96 68.3763 1456.42 Q70.205 1452.86 70.205 1445.75 Q70.205 1438.62 68.3763 1435.08 Q66.5707 1431.51 62.9365 1431.51 M62.9365 1427.81 Q68.7467 1427.81 71.8022 1432.42 Q74.8809 1437 74.8809 1445.75 Q74.8809 1454.48 71.8022 1459.08 Q68.7467 1463.67 62.9365 1463.67 Q57.1264 1463.67 54.0477 1459.08 Q50.9921 1454.48 50.9921 1445.75 Q50.9921 1437 54.0477 1432.42 Q57.1264 1427.81 62.9365 1427.81 Z" fill="#000000" fill-rule="evenodd" fill-opacity="1" /><path clip-path="url(#clip520)" d="M83.0984 1457.12 L87.9827 1457.12 L87.9827 1463 L83.0984 1463 L83.0984 1457.12 Z" fill="#000000" fill-rule="evenodd" fill-opacity="1" /><path clip-path="url(#clip520)" d="M108.168 1431.51 Q104.557 1431.51 102.728 1435.08 Q100.922 1438.62 100.922 1445.75 Q100.922 1452.86 102.728 1456.42 Q104.557 1459.96 108.168 1459.96 Q111.802 1459.96 113.608 1456.42 Q115.436 1452.86 115.436 1445.75 Q115.436 1438.62 113.608 1435.08 Q111.802 1431.51 108.168 1431.51 M108.168 1427.81 Q113.978 1427.81 117.033 1432.42 Q120.112 1437 120.112 1445.75 Q120.112 1454.48 117.033 1459.08 Q113.978 1463.67 108.168 1463.67 Q102.358 1463.67 99.2789 1459.08 Q96.2234 1454.48 96.2234 1445.75 Q96.2234 1437 99.2789 1432.42 Q102.358 1427.81 108.168 1427.81 Z" fill="#000000" fill-rule="evenodd" fill-opacity="1" /><path clip-path="url(#clip520)" d="M138.33 1431.51 Q134.719 1431.51 132.89 1435.08 Q131.084 1438.62 131.084 1445.75 Q131.084 1452.86 132.89 1456.42 Q134.719 1459.96 138.33 1459.96 Q141.964 1459.96 143.769 1456.42 Q145.598 1452.86 145.598 1445.75 Q145.598 1438.62 143.769 1435.08 Q141.964 1431.51 138.33 1431.51 M138.33 1427.81 Q144.14 1427.81 147.195 1432.42 Q150.274 1437 150.274 1445.75 Q150.274 1454.48 147.195 1459.08 Q144.14 1463.67 138.33 1463.67 Q132.519 1463.67 129.441 1459.08 Q126.385 1454.48 126.385 1445.75 Q126.385 1437 129.441 1432.42 Q132.519 1427.81 138.33 1427.81 Z" fill="#000000" fill-rule="evenodd" fill-opacity="1" /><path clip-path="url(#clip520)" d="M168.491 1431.51 Q164.88 1431.51 163.052 1435.08 Q161.246 1438.62 161.246 1445.75 Q161.246 1452.86 163.052 1456.42 Q164.88 1459.96 168.491 1459.96 Q172.126 1459.96 173.931 1456.42 Q175.76 1452.86 175.76 1445.75 Q175.76 1438.62 173.931 1435.08 Q172.126 1431.51 168.491 1431.51 M168.491 1427.81 Q174.302 1427.81 177.357 1432.42 Q180.436 1437 180.436 1445.75 Q180.436 1454.48 177.357 1459.08 Q174.302 1463.67 168.491 1463.67 Q162.681 1463.67 159.603 1459.08 Q156.547 1454.48 156.547 1445.75 Q156.547 1437 159.603 1432.42 Q162.681 1427.81 168.491 1427.81 Z" fill="#000000" fill-rule="evenodd" fill-opacity="1" /><path clip-path="url(#clip520)" d="M63.9319 1111.42 Q60.3208 1111.42 58.4921 1114.99 Q56.6865 1118.53 56.6865 1125.66 Q56.6865 1132.77 58.4921 1136.33 Q60.3208 1139.87 63.9319 1139.87 Q67.5661 1139.87 69.3717 1136.33 Q71.2004 1132.77 71.2004 1125.66 Q71.2004 1118.53 69.3717 1114.99 Q67.5661 1111.42 63.9319 1111.42 M63.9319 1107.72 Q69.742 1107.72 72.7976 1112.33 Q75.8763 1116.91 75.8763 1125.66 Q75.8763 1134.39 72.7976 1138.99 Q69.742 1143.58 63.9319 1143.58 Q58.1217 1143.58 55.043 1138.99 Q51.9875 1134.39 51.9875 1125.66 Q51.9875 1116.91 55.043 1112.33 Q58.1217 1107.72 63.9319 1107.72 Z" fill="#000000" fill-rule="evenodd" fill-opacity="1" /><path clip-path="url(#clip520)" d="M84.0938 1137.02 L88.978 1137.02 L88.978 1142.9 L84.0938 1142.9 L84.0938 1137.02 Z" fill="#000000" fill-rule="evenodd" fill-opacity="1" /><path clip-path="url(#clip520)" d="M109.163 1111.42 Q105.552 1111.42 103.723 1114.99 Q101.918 1118.53 101.918 1125.66 Q101.918 1132.77 103.723 1136.33 Q105.552 1139.87 109.163 1139.87 Q112.797 1139.87 114.603 1136.33 Q116.432 1132.77 116.432 1125.66 Q116.432 1118.53 114.603 1114.99 Q112.797 1111.42 109.163 1111.42 M109.163 1107.72 Q114.973 1107.72 118.029 1112.33 Q121.107 1116.91 121.107 1125.66 Q121.107 1134.39 118.029 1138.99 Q114.973 1143.58 109.163 1143.58 Q103.353 1143.58 100.274 1138.99 Q97.2187 1134.39 97.2187 1125.66 Q97.2187 1116.91 100.274 1112.33 Q103.353 1107.72 109.163 1107.72 Z" fill="#000000" fill-rule="evenodd" fill-opacity="1" /><path clip-path="url(#clip520)" d="M139.325 1111.42 Q135.714 1111.42 133.885 1114.99 Q132.08 1118.53 132.08 1125.66 Q132.08 1132.77 133.885 1136.33 Q135.714 1139.87 139.325 1139.87 Q142.959 1139.87 144.765 1136.33 Q146.593 1132.77 146.593 1125.66 Q146.593 1118.53 144.765 1114.99 Q142.959 1111.42 139.325 1111.42 M139.325 1107.72 Q145.135 1107.72 148.191 1112.33 Q151.269 1116.91 151.269 1125.66 Q151.269 1134.39 148.191 1138.99 Q145.135 1143.58 139.325 1143.58 Q133.515 1143.58 130.436 1138.99 Q127.381 1134.39 127.381 1125.66 Q127.381 1116.91 130.436 1112.33 Q133.515 1107.72 139.325 1107.72 Z" fill="#000000" fill-rule="evenodd" fill-opacity="1" /><path clip-path="url(#clip520)" d="M159.533 1108.34 L177.89 1108.34 L177.89 1112.28 L163.816 1112.28 L163.816 1120.75 Q164.834 1120.4 165.853 1120.24 Q166.871 1120.06 167.89 1120.06 Q173.677 1120.06 177.056 1123.23 Q180.436 1126.4 180.436 1131.82 Q180.436 1137.39 176.964 1140.5 Q173.491 1143.58 167.172 1143.58 Q164.996 1143.58 162.728 1143.2 Q160.482 1142.83 158.075 1142.09 L158.075 1137.39 Q160.158 1138.53 162.38 1139.08 Q164.603 1139.64 167.079 1139.64 Q171.084 1139.64 173.422 1137.53 Q175.76 1135.43 175.76 1131.82 Q175.76 1128.21 173.422 1126.1 Q171.084 1123.99 167.079 1123.99 Q165.204 1123.99 163.329 1124.41 Q161.478 1124.83 159.533 1125.71 L159.533 1108.34 Z" fill="#000000" fill-rule="evenodd" fill-opacity="1" /><path clip-path="url(#clip520)" d="M62.9365 791.331 Q59.3254 791.331 57.4967 794.896 Q55.6912 798.437 55.6912 805.567 Q55.6912 812.674 57.4967 816.238 Q59.3254 819.78 62.9365 819.78 Q66.5707 819.78 68.3763 816.238 Q70.205 812.674 70.205 805.567 Q70.205 798.437 68.3763 794.896 Q66.5707 791.331 62.9365 791.331 M62.9365 787.627 Q68.7467 787.627 71.8022 792.234 Q74.8809 796.817 74.8809 805.567 Q74.8809 814.294 71.8022 818.9 Q68.7467 823.484 62.9365 823.484 Q57.1264 823.484 54.0477 818.9 Q50.9921 814.294 50.9921 805.567 Q50.9921 796.817 54.0477 792.234 Q57.1264 787.627 62.9365 787.627 Z" fill="#000000" fill-rule="evenodd" fill-opacity="1" /><path clip-path="url(#clip520)" d="M83.0984 816.933 L87.9827 816.933 L87.9827 822.812 L83.0984 822.812 L83.0984 816.933 Z" fill="#000000" fill-rule="evenodd" fill-opacity="1" /><path clip-path="url(#clip520)" d="M108.168 791.331 Q104.557 791.331 102.728 794.896 Q100.922 798.437 100.922 805.567 Q100.922 812.674 102.728 816.238 Q104.557 819.78 108.168 819.78 Q111.802 819.78 113.608 816.238 Q115.436 812.674 115.436 805.567 Q115.436 798.437 113.608 794.896 Q111.802 791.331 108.168 791.331 M108.168 787.627 Q113.978 787.627 117.033 792.234 Q120.112 796.817 120.112 805.567 Q120.112 814.294 117.033 818.9 Q113.978 823.484 108.168 823.484 Q102.358 823.484 99.2789 818.9 Q96.2234 814.294 96.2234 805.567 Q96.2234 796.817 99.2789 792.234 Q102.358 787.627 108.168 787.627 Z" fill="#000000" fill-rule="evenodd" fill-opacity="1" /><path clip-path="url(#clip520)" d="M129.14 818.877 L136.779 818.877 L136.779 792.512 L128.469 794.178 L128.469 789.919 L136.732 788.252 L141.408 788.252 L141.408 818.877 L149.047 818.877 L149.047 822.812 L129.14 822.812 L129.14 818.877 Z" fill="#000000" fill-rule="evenodd" fill-opacity="1" /><path clip-path="url(#clip520)" d="M168.491 791.331 Q164.88 791.331 163.052 794.896 Q161.246 798.437 161.246 805.567 Q161.246 812.674 163.052 816.238 Q164.88 819.78 168.491 819.78 Q172.126 819.78 173.931 816.238 Q175.76 812.674 175.76 805.567 Q175.76 798.437 173.931 794.896 Q172.126 791.331 168.491 791.331 M168.491 787.627 Q174.302 787.627 177.357 792.234 Q180.436 796.817 180.436 805.567 Q180.436 814.294 177.357 818.9 Q174.302 823.484 168.491 823.484 Q162.681 823.484 159.603 818.9 Q156.547 814.294 156.547 805.567 Q156.547 796.817 159.603 792.234 Q162.681 787.627 168.491 787.627 Z" fill="#000000" fill-rule="evenodd" fill-opacity="1" /><path clip-path="url(#clip520)" d="M63.9319 471.239 Q60.3208 471.239 58.4921 474.804 Q56.6865 478.346 56.6865 485.475 Q56.6865 492.582 58.4921 496.147 Q60.3208 499.688 63.9319 499.688 Q67.5661 499.688 69.3717 496.147 Q71.2004 492.582 71.2004 485.475 Q71.2004 478.346 69.3717 474.804 Q67.5661 471.239 63.9319 471.239 M63.9319 467.536 Q69.742 467.536 72.7976 472.142 Q75.8763 476.725 75.8763 485.475 Q75.8763 494.202 72.7976 498.809 Q69.742 503.392 63.9319 503.392 Q58.1217 503.392 55.043 498.809 Q51.9875 494.202 51.9875 485.475 Q51.9875 476.725 55.043 472.142 Q58.1217 467.536 63.9319 467.536 Z" fill="#000000" fill-rule="evenodd" fill-opacity="1" /><path clip-path="url(#clip520)" d="M84.0938 496.841 L88.978 496.841 L88.978 502.721 L84.0938 502.721 L84.0938 496.841 Z" fill="#000000" fill-rule="evenodd" fill-opacity="1" /><path clip-path="url(#clip520)" d="M109.163 471.239 Q105.552 471.239 103.723 474.804 Q101.918 478.346 101.918 485.475 Q101.918 492.582 103.723 496.147 Q105.552 499.688 109.163 499.688 Q112.797 499.688 114.603 496.147 Q116.432 492.582 116.432 485.475 Q116.432 478.346 114.603 474.804 Q112.797 471.239 109.163 471.239 M109.163 467.536 Q114.973 467.536 118.029 472.142 Q121.107 476.725 121.107 485.475 Q121.107 494.202 118.029 498.809 Q114.973 503.392 109.163 503.392 Q103.353 503.392 100.274 498.809 Q97.2187 494.202 97.2187 485.475 Q97.2187 476.725 100.274 472.142 Q103.353 467.536 109.163 467.536 Z" fill="#000000" fill-rule="evenodd" fill-opacity="1" /><path clip-path="url(#clip520)" d="M130.135 498.786 L137.774 498.786 L137.774 472.42 L129.464 474.087 L129.464 469.827 L137.728 468.161 L142.404 468.161 L142.404 498.786 L150.043 498.786 L150.043 502.721 L130.135 502.721 L130.135 498.786 Z" fill="#000000" fill-rule="evenodd" fill-opacity="1" /><path clip-path="url(#clip520)" d="M159.533 468.161 L177.89 468.161 L177.89 472.096 L163.816 472.096 L163.816 480.568 Q164.834 480.221 165.853 480.059 Q166.871 479.874 167.89 479.874 Q173.677 479.874 177.056 483.045 Q180.436 486.216 180.436 491.633 Q180.436 497.211 176.964 500.313 Q173.491 503.392 167.172 503.392 Q164.996 503.392 162.728 503.022 Q160.482 502.651 158.075 501.91 L158.075 497.211 Q160.158 498.346 162.38 498.901 Q164.603 499.457 167.079 499.457 Q171.084 499.457 173.422 497.35 Q175.76 495.244 175.76 491.633 Q175.76 488.022 173.422 485.915 Q171.084 483.809 167.079 483.809 Q165.204 483.809 163.329 484.225 Q161.478 484.642 159.533 485.522 L159.533 468.161 Z" fill="#000000" fill-rule="evenodd" fill-opacity="1" /><path clip-path="url(#clip520)" d="M62.9365 151.148 Q59.3254 151.148 57.4967 154.712 Q55.6912 158.254 55.6912 165.384 Q55.6912 172.49 57.4967 176.055 Q59.3254 179.597 62.9365 179.597 Q66.5707 179.597 68.3763 176.055 Q70.205 172.49 70.205 165.384 Q70.205 158.254 68.3763 154.712 Q66.5707 151.148 62.9365 151.148 M62.9365 147.444 Q68.7467 147.444 71.8022 152.05 Q74.8809 156.634 74.8809 165.384 Q74.8809 174.111 71.8022 178.717 Q68.7467 183.3 62.9365 183.3 Q57.1264 183.3 54.0477 178.717 Q50.9921 174.111 50.9921 165.384 Q50.9921 156.634 54.0477 152.05 Q57.1264 147.444 62.9365 147.444 Z" fill="#000000" fill-rule="evenodd" fill-opacity="1" /><path clip-path="url(#clip520)" d="M83.0984 176.749 L87.9827 176.749 L87.9827 182.629 L83.0984 182.629 L83.0984 176.749 Z" fill="#000000" fill-rule="evenodd" fill-opacity="1" /><path clip-path="url(#clip520)" d="M108.168 151.148 Q104.557 151.148 102.728 154.712 Q100.922 158.254 100.922 165.384 Q100.922 172.49 102.728 176.055 Q104.557 179.597 108.168 179.597 Q111.802 179.597 113.608 176.055 Q115.436 172.49 115.436 165.384 Q115.436 158.254 113.608 154.712 Q111.802 151.148 108.168 151.148 M108.168 147.444 Q113.978 147.444 117.033 152.05 Q120.112 156.634 120.112 165.384 Q120.112 174.111 117.033 178.717 Q113.978 183.3 108.168 183.3 Q102.358 183.3 99.2789 178.717 Q96.2234 174.111 96.2234 165.384 Q96.2234 156.634 99.2789 152.05 Q102.358 147.444 108.168 147.444 Z" fill="#000000" fill-rule="evenodd" fill-opacity="1" /><path clip-path="url(#clip520)" d="M132.357 178.694 L148.677 178.694 L148.677 182.629 L126.732 182.629 L126.732 178.694 Q129.394 175.939 133.978 171.31 Q138.584 166.657 139.765 165.314 Q142.01 162.791 142.89 161.055 Q143.793 159.296 143.793 157.606 Q143.793 154.851 141.848 153.115 Q139.927 151.379 136.825 151.379 Q134.626 151.379 132.172 152.143 Q129.742 152.907 126.964 154.458 L126.964 149.736 Q129.788 148.601 132.242 148.023 Q134.695 147.444 136.732 147.444 Q142.103 147.444 145.297 150.129 Q148.492 152.814 148.492 157.305 Q148.492 159.435 147.681 161.356 Q146.894 163.254 144.788 165.847 Q144.209 166.518 141.107 169.736 Q138.006 172.93 132.357 178.694 Z" fill="#000000" fill-rule="evenodd" fill-opacity="1" /><path clip-path="url(#clip520)" d="M168.491 151.148 Q164.88 151.148 163.052 154.712 Q161.246 158.254 161.246 165.384 Q161.246 172.49 163.052 176.055 Q164.88 179.597 168.491 179.597 Q172.126 179.597 173.931 176.055 Q175.76 172.49 175.76 165.384 Q175.76 158.254 173.931 154.712 Q172.126 151.148 168.491 151.148 M168.491 147.444 Q174.302 147.444 177.357 152.05 Q180.436 156.634 180.436 165.384 Q180.436 174.111 177.357 178.717 Q174.302 183.3 168.491 183.3 Q162.681 183.3 159.603 178.717 Q156.547 174.111 156.547 165.384 Q156.547 156.634 159.603 152.05 Q162.681 147.444 168.491 147.444 Z" fill="#000000" fill-rule="evenodd" fill-opacity="1" /><polyline clip-path="url(#clip522)" style="stroke:#009af9; stroke-linecap:butt; stroke-linejoin:round; stroke-width:16; stroke-opacity:1; fill:none" points="
  276.898,1445.72 311.698,1423.61 377.668,1381.7 443.637,1339.79 478.437,1317.68 513.238,1295.57 579.207,1253.66 645.177,1211.75 679.977,1189.64 714.778,1167.53 
  780.747,1125.62 846.716,1083.71 881.517,1061.61 916.317,1039.5 982.286,997.588 1048.26,955.677 1083.06,933.578 1117.86,911.452 1183.83,869.559 1249.8,827.636 
  1284.6,805.598 1319.4,783.362 1385.37,741.571 1451.34,699.567 1486.14,677.968 1520.94,654.94 1586.91,613.89 1652.87,571.303 1687.68,552.866 1722.48,524.123 
  1788.44,488.416 1854.41,441.621 1889.21,446.007 1924.02,376.021 1989.98,378.877 2055.95,301.709 2090.75,470.805 2125.55,103.185 2191.52,384.329 2257.49,87.9763 
  2292.29,1445.72 
  "/>
<circle clip-path="url(#clip522)" cx="276.898" cy="1445.72" r="14" fill="#009af9" fill-rule="evenodd" fill-opacity="1" stroke="#000000" stroke-opacity="1" stroke-width="3.2"/>
<circle clip-path="url(#clip522)" cx="311.698" cy="1423.61" r="14" fill="#009af9" fill-rule="evenodd" fill-opacity="1" stroke="#000000" stroke-opacity="1" stroke-width="3.2"/>
<circle clip-path="url(#clip522)" cx="377.668" cy="1381.7" r="14" fill="#009af9" fill-rule="evenodd" fill-opacity="1" stroke="#000000" stroke-opacity="1" stroke-width="3.2"/>
<circle clip-path="url(#clip522)" cx="443.637" cy="1339.79" r="14" fill="#009af9" fill-rule="evenodd" fill-opacity="1" stroke="#000000" stroke-opacity="1" stroke-width="3.2"/>
<circle clip-path="url(#clip522)" cx="478.437" cy="1317.68" r="14" fill="#009af9" fill-rule="evenodd" fill-opacity="1" stroke="#000000" stroke-opacity="1" stroke-width="3.2"/>
<circle clip-path="url(#clip522)" cx="513.238" cy="1295.57" r="14" fill="#009af9" fill-rule="evenodd" fill-opacity="1" stroke="#000000" stroke-opacity="1" stroke-width="3.2"/>
<circle clip-path="url(#clip522)" cx="579.207" cy="1253.66" r="14" fill="#009af9" fill-rule="evenodd" fill-opacity="1" stroke="#000000" stroke-opacity="1" stroke-width="3.2"/>
<circle clip-path="url(#clip522)" cx="645.177" cy="1211.75" r="14" fill="#009af9" fill-rule="evenodd" fill-opacity="1" stroke="#000000" stroke-opacity="1" stroke-width="3.2"/>
<circle clip-path="url(#clip522)" cx="679.977" cy="1189.64" r="14" fill="#009af9" fill-rule="evenodd" fill-opacity="1" stroke="#000000" stroke-opacity="1" stroke-width="3.2"/>
<circle clip-path="url(#clip522)" cx="714.778" cy="1167.53" r="14" fill="#009af9" fill-rule="evenodd" fill-opacity="1" stroke="#000000" stroke-opacity="1" stroke-width="3.2"/>
<circle clip-path="url(#clip522)" cx="780.747" cy="1125.62" r="14" fill="#009af9" fill-rule="evenodd" fill-opacity="1" stroke="#000000" stroke-opacity="1" stroke-width="3.2"/>
<circle clip-path="url(#clip522)" cx="846.716" cy="1083.71" r="14" fill="#009af9" fill-rule="evenodd" fill-opacity="1" stroke="#000000" stroke-opacity="1" stroke-width="3.2"/>
<circle clip-path="url(#clip522)" cx="881.517" cy="1061.61" r="14" fill="#009af9" fill-rule="evenodd" fill-opacity="1" stroke="#000000" stroke-opacity="1" stroke-width="3.2"/>
<circle clip-path="url(#clip522)" cx="916.317" cy="1039.5" r="14" fill="#009af9" fill-rule="evenodd" fill-opacity="1" stroke="#000000" stroke-opacity="1" stroke-width="3.2"/>
<circle clip-path="url(#clip522)" cx="982.286" cy="997.588" r="14" fill="#009af9" fill-rule="evenodd" fill-opacity="1" stroke="#000000" stroke-opacity="1" stroke-width="3.2"/>
<circle clip-path="url(#clip522)" cx="1048.26" cy="955.677" r="14" fill="#009af9" fill-rule="evenodd" fill-opacity="1" stroke="#000000" stroke-opacity="1" stroke-width="3.2"/>
<circle clip-path="url(#clip522)" cx="1083.06" cy="933.578" r="14" fill="#009af9" fill-rule="evenodd" fill-opacity="1" stroke="#000000" stroke-opacity="1" stroke-width="3.2"/>
<circle clip-path="url(#clip522)" cx="1117.86" cy="911.452" r="14" fill="#009af9" fill-rule="evenodd" fill-opacity="1" stroke="#000000" stroke-opacity="1" stroke-width="3.2"/>
<circle clip-path="url(#clip522)" cx="1183.83" cy="869.559" r="14" fill="#009af9" fill-rule="evenodd" fill-opacity="1" stroke="#000000" stroke-opacity="1" stroke-width="3.2"/>
<circle clip-path="url(#clip522)" cx="1249.8" cy="827.636" r="14" fill="#009af9" fill-rule="evenodd" fill-opacity="1" stroke="#000000" stroke-opacity="1" stroke-width="3.2"/>
<circle clip-path="url(#clip522)" cx="1284.6" cy="805.598" r="14" fill="#009af9" fill-rule="evenodd" fill-opacity="1" stroke="#000000" stroke-opacity="1" stroke-width="3.2"/>
<circle clip-path="url(#clip522)" cx="1319.4" cy="783.362" r="14" fill="#009af9" fill-rule="evenodd" fill-opacity="1" stroke="#000000" stroke-opacity="1" stroke-width="3.2"/>
<circle clip-path="url(#clip522)" cx="1385.37" cy="741.571" r="14" fill="#009af9" fill-rule="evenodd" fill-opacity="1" stroke="#000000" stroke-opacity="1" stroke-width="3.2"/>
<circle clip-path="url(#clip522)" cx="1451.34" cy="699.567" r="14" fill="#009af9" fill-rule="evenodd" fill-opacity="1" stroke="#000000" stroke-opacity="1" stroke-width="3.2"/>
<circle clip-path="url(#clip522)" cx="1486.14" cy="677.968" r="14" fill="#009af9" fill-rule="evenodd" fill-opacity="1" stroke="#000000" stroke-opacity="1" stroke-width="3.2"/>
<circle clip-path="url(#clip522)" cx="1520.94" cy="654.94" r="14" fill="#009af9" fill-rule="evenodd" fill-opacity="1" stroke="#000000" stroke-opacity="1" stroke-width="3.2"/>
<circle clip-path="url(#clip522)" cx="1586.91" cy="613.89" r="14" fill="#009af9" fill-rule="evenodd" fill-opacity="1" stroke="#000000" stroke-opacity="1" stroke-width="3.2"/>
<circle clip-path="url(#clip522)" cx="1652.87" cy="571.303" r="14" fill="#009af9" fill-rule="evenodd" fill-opacity="1" stroke="#000000" stroke-opacity="1" stroke-width="3.2"/>
<circle clip-path="url(#clip522)" cx="1687.68" cy="552.866" r="14" fill="#009af9" fill-rule="evenodd" fill-opacity="1" stroke="#000000" stroke-opacity="1" stroke-width="3.2"/>
<circle clip-path="url(#clip522)" cx="1722.48" cy="524.123" r="14" fill="#009af9" fill-rule="evenodd" fill-opacity="1" stroke="#000000" stroke-opacity="1" stroke-width="3.2"/>
<circle clip-path="url(#clip522)" cx="1788.44" cy="488.416" r="14" fill="#009af9" fill-rule="evenodd" fill-opacity="1" stroke="#000000" stroke-opacity="1" stroke-width="3.2"/>
<circle clip-path="url(#clip522)" cx="1854.41" cy="441.621" r="14" fill="#009af9" fill-rule="evenodd" fill-opacity="1" stroke="#000000" stroke-opacity="1" stroke-width="3.2"/>
<circle clip-path="url(#clip522)" cx="1889.21" cy="446.007" r="14" fill="#009af9" fill-rule="evenodd" fill-opacity="1" stroke="#000000" stroke-opacity="1" stroke-width="3.2"/>
<circle clip-path="url(#clip522)" cx="1924.02" cy="376.021" r="14" fill="#009af9" fill-rule="evenodd" fill-opacity="1" stroke="#000000" stroke-opacity="1" stroke-width="3.2"/>
<circle clip-path="url(#clip522)" cx="1989.98" cy="378.877" r="14" fill="#009af9" fill-rule="evenodd" fill-opacity="1" stroke="#000000" stroke-opacity="1" stroke-width="3.2"/>
<circle clip-path="url(#clip522)" cx="2055.95" cy="301.709" r="14" fill="#009af9" fill-rule="evenodd" fill-opacity="1" stroke="#000000" stroke-opacity="1" stroke-width="3.2"/>
<circle clip-path="url(#clip522)" cx="2090.75" cy="470.805" r="14" fill="#009af9" fill-rule="evenodd" fill-opacity="1" stroke="#000000" stroke-opacity="1" stroke-width="3.2"/>
<circle clip-path="url(#clip522)" cx="2125.55" cy="103.185" r="14" fill="#009af9" fill-rule="evenodd" fill-opacity="1" stroke="#000000" stroke-opacity="1" stroke-width="3.2"/>
<circle clip-path="url(#clip522)" cx="2191.52" cy="384.329" r="14" fill="#009af9" fill-rule="evenodd" fill-opacity="1" stroke="#000000" stroke-opacity="1" stroke-width="3.2"/>
<circle clip-path="url(#clip522)" cx="2257.49" cy="87.9763" r="14" fill="#009af9" fill-rule="evenodd" fill-opacity="1" stroke="#000000" stroke-opacity="1" stroke-width="3.2"/>
<circle clip-path="url(#clip522)" cx="2292.29" cy="1445.72" r="14" fill="#009af9" fill-rule="evenodd" fill-opacity="1" stroke="#000000" stroke-opacity="1" stroke-width="3.2"/>
</svg>
