<?xml version="1.0" encoding="utf-8"?>
<svg xmlns="http://www.w3.org/2000/svg" xmlns:xlink="http://www.w3.org/1999/xlink" width="600" height="400" viewBox="0 0 2400 1600">
<defs>
  <clipPath id="clip630">
    <rect x="0" y="0" width="2400" height="1600"/>
  </clipPath>
</defs>
<path clip-path="url(#clip630)" d="
M0 1600 L2400 1600 L2400 0 L0 0  Z
  " fill="#ffffff" fill-rule="evenodd" fill-opacity="1"/>
<defs>
  <clipPath id="clip631">
    <rect x="480" y="0" width="1681" height="1600"/>
  </clipPath>
</defs>
<path clip-path="url(#clip630)" d="
M186.274 1486.45 L2352.76 1486.45 L2352.76 123.472 L186.274 123.472  Z
  " fill="#ffffff" fill-rule="evenodd" fill-opacity="1"/>
<defs>
  <clipPath id="clip632">
    <rect x="186" y="123" width="2167" height="1364"/>
  </clipPath>
</defs>
<polyline clip-path="url(#clip632)" style="stroke:#000000; stroke-linecap:butt; stroke-linejoin:round; stroke-width:2; stroke-opacity:0.1; fill:none" points="
  247.59,1486.45 247.59,123.472 
  "/>
<polyline clip-path="url(#clip632)" style="stroke:#000000; stroke-linecap:butt; stroke-linejoin:round; stroke-width:2; stroke-opacity:0.1; fill:none" points="
  758.552,1486.45 758.552,123.472 
  "/>
<polyline clip-path="url(#clip632)" style="stroke:#000000; stroke-linecap:butt; stroke-linejoin:round; stroke-width:2; stroke-opacity:0.1; fill:none" points="
  1269.51,1486.45 1269.51,123.472 
  "/>
<polyline clip-path="url(#clip632)" style="stroke:#000000; stroke-linecap:butt; stroke-linejoin:round; stroke-width:2; stroke-opacity:0.1; fill:none" points="
  1780.48,1486.45 1780.48,123.472 
  "/>
<polyline clip-path="url(#clip632)" style="stroke:#000000; stroke-linecap:butt; stroke-linejoin:round; stroke-width:2; stroke-opacity:0.1; fill:none" points="
  2291.44,1486.45 2291.44,123.472 
  "/>
<polyline clip-path="url(#clip630)" style="stroke:#000000; stroke-linecap:butt; stroke-linejoin:round; stroke-width:4; stroke-opacity:1; fill:none" points="
  186.274,1486.45 2352.76,1486.45 
  "/>
<polyline clip-path="url(#clip630)" style="stroke:#000000; stroke-linecap:butt; stroke-linejoin:round; stroke-width:4; stroke-opacity:1; fill:none" points="
  247.59,1486.45 247.59,1467.55 
  "/>
<polyline clip-path="url(#clip630)" style="stroke:#000000; stroke-linecap:butt; stroke-linejoin:round; stroke-width:4; stroke-opacity:1; fill:none" points="
  758.552,1486.45 758.552,1467.55 
  "/>
<polyline clip-path="url(#clip630)" style="stroke:#000000; stroke-linecap:butt; stroke-linejoin:round; stroke-width:4; stroke-opacity:1; fill:none" points="
  1269.51,1486.45 1269.51,1467.55 
  "/>
<polyline clip-path="url(#clip630)" style="stroke:#000000; stroke-linecap:butt; stroke-linejoin:round; stroke-width:4; stroke-opacity:1; fill:none" points="
  1780.48,1486.45 1780.48,1467.55 
  "/>
<polyline clip-path="url(#clip630)" style="stroke:#000000; stroke-linecap:butt; stroke-linejoin:round; stroke-width:4; stroke-opacity:1; fill:none" points="
  2291.44,1486.45 2291.44,1467.55 
  "/>
<path clip-path="url(#clip630)" d="M194.118 1530.29 L223.793 1530.29 L223.793 1534.23 L194.118 1534.23 L194.118 1530.29 Z" fill="#000000" fill-rule="evenodd" fill-opacity="1" /><path clip-path="url(#clip630)" d="M234.696 1543.18 L242.335 1543.18 L242.335 1516.82 L234.025 1518.49 L234.025 1514.23 L242.289 1512.56 L246.965 1512.56 L246.965 1543.18 L254.603 1543.18 L254.603 1547.12 L234.696 1547.12 L234.696 1543.18 Z" fill="#000000" fill-rule="evenodd" fill-opacity="1" /><path clip-path="url(#clip630)" d="M264.048 1541.24 L268.932 1541.24 L268.932 1547.12 L264.048 1547.12 L264.048 1541.24 Z" fill="#000000" fill-rule="evenodd" fill-opacity="1" /><path clip-path="url(#clip630)" d="M289.117 1515.64 Q285.506 1515.64 283.677 1519.2 Q281.872 1522.75 281.872 1529.87 Q281.872 1536.98 283.677 1540.55 Q285.506 1544.09 289.117 1544.09 Q292.751 1544.09 294.557 1540.55 Q296.386 1536.98 296.386 1529.87 Q296.386 1522.75 294.557 1519.2 Q292.751 1515.64 289.117 1515.64 M289.117 1511.93 Q294.927 1511.93 297.983 1516.54 Q301.061 1521.12 301.061 1529.87 Q301.061 1538.6 297.983 1543.21 Q294.927 1547.79 289.117 1547.79 Q283.307 1547.79 280.228 1543.21 Q277.173 1538.6 277.173 1529.87 Q277.173 1521.12 280.228 1516.54 Q283.307 1511.93 289.117 1511.93 Z" fill="#000000" fill-rule="evenodd" fill-opacity="1" /><path clip-path="url(#clip630)" d="M705.578 1530.29 L735.254 1530.29 L735.254 1534.23 L705.578 1534.23 L705.578 1530.29 Z" fill="#000000" fill-rule="evenodd" fill-opacity="1" /><path clip-path="url(#clip630)" d="M755.346 1515.64 Q751.735 1515.64 749.906 1519.2 Q748.101 1522.75 748.101 1529.87 Q748.101 1536.98 749.906 1540.55 Q751.735 1544.09 755.346 1544.09 Q758.98 1544.09 760.786 1540.55 Q762.615 1536.98 762.615 1529.87 Q762.615 1522.75 760.786 1519.2 Q758.98 1515.64 755.346 1515.64 M755.346 1511.93 Q761.156 1511.93 764.212 1516.54 Q767.291 1521.12 767.291 1529.87 Q767.291 1538.6 764.212 1543.21 Q761.156 1547.79 755.346 1547.79 Q749.536 1547.79 746.457 1543.21 Q743.402 1538.6 743.402 1529.87 Q743.402 1521.12 746.457 1516.54 Q749.536 1511.93 755.346 1511.93 Z" fill="#000000" fill-rule="evenodd" fill-opacity="1" /><path clip-path="url(#clip630)" d="M775.508 1541.24 L780.392 1541.24 L780.392 1547.12 L775.508 1547.12 L775.508 1541.24 Z" fill="#000000" fill-rule="evenodd" fill-opacity="1" /><path clip-path="url(#clip630)" d="M790.624 1512.56 L808.98 1512.56 L808.98 1516.5 L794.906 1516.5 L794.906 1524.97 Q795.925 1524.62 796.943 1524.46 Q797.962 1524.27 798.98 1524.27 Q804.767 1524.27 808.147 1527.44 Q811.526 1530.62 811.526 1536.03 Q811.526 1541.61 808.054 1544.71 Q804.582 1547.79 798.263 1547.79 Q796.087 1547.79 793.818 1547.42 Q791.573 1547.05 789.166 1546.31 L789.166 1541.61 Q791.249 1542.74 793.471 1543.3 Q795.693 1543.86 798.17 1543.86 Q802.175 1543.86 804.513 1541.75 Q806.851 1539.64 806.851 1536.03 Q806.851 1532.42 804.513 1530.31 Q802.175 1528.21 798.17 1528.21 Q796.295 1528.21 794.42 1528.62 Q792.568 1529.04 790.624 1529.92 L790.624 1512.56 Z" fill="#000000" fill-rule="evenodd" fill-opacity="1" /><path clip-path="url(#clip630)" d="M1246.9 1515.64 Q1243.29 1515.64 1241.46 1519.2 Q1239.65 1522.75 1239.65 1529.87 Q1239.65 1536.98 1241.46 1540.55 Q1243.29 1544.09 1246.9 1544.09 Q1250.53 1544.09 1252.34 1540.55 Q1254.17 1536.98 1254.17 1529.87 Q1254.17 1522.75 1252.34 1519.2 Q1250.53 1515.64 1246.9 1515.64 M1246.9 1511.93 Q1252.71 1511.93 1255.77 1516.54 Q1258.84 1521.12 1258.84 1529.87 Q1258.84 1538.6 1255.77 1543.21 Q1252.71 1547.79 1246.9 1547.79 Q1241.09 1547.79 1238.01 1543.21 Q1234.95 1538.6 1234.95 1529.87 Q1234.95 1521.12 1238.01 1516.54 Q1241.09 1511.93 1246.9 1511.93 Z" fill="#000000" fill-rule="evenodd" fill-opacity="1" /><path clip-path="url(#clip630)" d="M1267.06 1541.24 L1271.95 1541.24 L1271.95 1547.12 L1267.06 1547.12 L1267.06 1541.24 Z" fill="#000000" fill-rule="evenodd" fill-opacity="1" /><path clip-path="url(#clip630)" d="M1292.13 1515.64 Q1288.52 1515.64 1286.69 1519.2 Q1284.89 1522.75 1284.89 1529.87 Q1284.89 1536.98 1286.69 1540.55 Q1288.52 1544.09 1292.13 1544.09 Q1295.76 1544.09 1297.57 1540.55 Q1299.4 1536.98 1299.4 1529.87 Q1299.4 1522.75 1297.57 1519.2 Q1295.76 1515.64 1292.13 1515.64 M1292.13 1511.93 Q1297.94 1511.93 1301 1516.54 Q1304.07 1521.12 1304.07 1529.87 Q1304.07 1538.6 1301 1543.21 Q1297.94 1547.79 1292.13 1547.79 Q1286.32 1547.79 1283.24 1543.21 Q1280.19 1538.6 1280.19 1529.87 Q1280.19 1521.12 1283.24 1516.54 Q1286.32 1511.93 1292.13 1511.93 Z" fill="#000000" fill-rule="evenodd" fill-opacity="1" /><path clip-path="url(#clip630)" d="M1758.36 1515.64 Q1754.75 1515.64 1752.92 1519.2 Q1751.11 1522.75 1751.11 1529.87 Q1751.11 1536.98 1752.92 1540.55 Q1754.75 1544.09 1758.36 1544.09 Q1761.99 1544.09 1763.8 1540.55 Q1765.63 1536.98 1765.63 1529.87 Q1765.63 1522.75 1763.8 1519.2 Q1761.99 1515.64 1758.36 1515.64 M1758.36 1511.93 Q1764.17 1511.93 1767.23 1516.54 Q1770.3 1521.12 1770.3 1529.87 Q1770.3 1538.6 1767.23 1543.21 Q1764.17 1547.79 1758.36 1547.79 Q1752.55 1547.79 1749.47 1543.21 Q1746.42 1538.6 1746.42 1529.87 Q1746.42 1521.12 1749.47 1516.54 Q1752.55 1511.93 1758.36 1511.93 Z" fill="#000000" fill-rule="evenodd" fill-opacity="1" /><path clip-path="url(#clip630)" d="M1778.52 1541.24 L1783.41 1541.24 L1783.41 1547.12 L1778.52 1547.12 L1778.52 1541.24 Z" fill="#000000" fill-rule="evenodd" fill-opacity="1" /><path clip-path="url(#clip630)" d="M1793.64 1512.56 L1811.99 1512.56 L1811.99 1516.5 L1797.92 1516.5 L1797.92 1524.97 Q1798.94 1524.62 1799.96 1524.46 Q1800.98 1524.27 1801.99 1524.27 Q1807.78 1524.27 1811.16 1527.44 Q1814.54 1530.62 1814.54 1536.03 Q1814.54 1541.61 1811.07 1544.71 Q1807.6 1547.79 1801.28 1547.79 Q1799.1 1547.79 1796.83 1547.42 Q1794.59 1547.05 1792.18 1546.31 L1792.18 1541.61 Q1794.26 1542.74 1796.48 1543.3 Q1798.71 1543.86 1801.18 1543.86 Q1805.19 1543.86 1807.53 1541.75 Q1809.86 1539.64 1809.86 1536.03 Q1809.86 1532.42 1807.53 1530.31 Q1805.19 1528.21 1801.18 1528.21 Q1799.31 1528.21 1797.43 1528.62 Q1795.58 1529.04 1793.64 1529.92 L1793.64 1512.56 Z" fill="#000000" fill-rule="evenodd" fill-opacity="1" /><path clip-path="url(#clip630)" d="M2258.59 1543.18 L2266.23 1543.18 L2266.23 1516.82 L2257.92 1518.49 L2257.92 1514.23 L2266.19 1512.56 L2270.86 1512.56 L2270.86 1543.18 L2278.5 1543.18 L2278.5 1547.12 L2258.59 1547.12 L2258.59 1543.18 Z" fill="#000000" fill-rule="evenodd" fill-opacity="1" /><path clip-path="url(#clip630)" d="M2287.95 1541.24 L2292.83 1541.24 L2292.83 1547.12 L2287.95 1547.12 L2287.95 1541.24 Z" fill="#000000" fill-rule="evenodd" fill-opacity="1" /><path clip-path="url(#clip630)" d="M2313.01 1515.64 Q2309.4 1515.64 2307.57 1519.2 Q2305.77 1522.75 2305.77 1529.87 Q2305.77 1536.98 2307.57 1540.55 Q2309.4 1544.09 2313.01 1544.09 Q2316.65 1544.09 2318.45 1540.55 Q2320.28 1536.98 2320.28 1529.87 Q2320.28 1522.75 2318.45 1519.2 Q2316.65 1515.64 2313.01 1515.64 M2313.01 1511.93 Q2318.82 1511.93 2321.88 1516.54 Q2324.96 1521.12 2324.96 1529.87 Q2324.96 1538.6 2321.88 1543.21 Q2318.82 1547.79 2313.01 1547.79 Q2307.2 1547.79 2304.13 1543.21 Q2301.07 1538.6 2301.07 1529.87 Q2301.07 1521.12 2304.13 1516.54 Q2307.2 1511.93 2313.01 1511.93 Z" fill="#000000" fill-rule="evenodd" fill-opacity="1" /><polyline clip-path="url(#clip632)" style="stroke:#000000; stroke-linecap:butt; stroke-linejoin:round; stroke-width:2; stroke-opacity:0.1; fill:none" points="
  186.274,1447.87 2352.76,1447.87 
  "/>
<polyline clip-path="url(#clip632)" style="stroke:#000000; stroke-linecap:butt; stroke-linejoin:round; stroke-width:2; stroke-opacity:0.1; fill:none" points="
  186.274,1022.09 2352.76,1022.09 
  "/>
<polyline clip-path="url(#clip632)" style="stroke:#000000; stroke-linecap:butt; stroke-linejoin:round; stroke-width:2; stroke-opacity:0.1; fill:none" points="
  186.274,596.304 2352.76,596.304 
  "/>
<polyline clip-path="url(#clip632)" style="stroke:#000000; stroke-linecap:butt; stroke-linejoin:round; stroke-width:2; stroke-opacity:0.1; fill:none" points="
  186.274,170.519 2352.76,170.519 
  "/>
<polyline clip-path="url(#clip630)" style="stroke:#000000; stroke-linecap:butt; stroke-linejoin:round; stroke-width:4; stroke-opacity:1; fill:none" points="
  186.274,1486.45 186.274,123.472 
  "/>
<polyline clip-path="url(#clip630)" style="stroke:#000000; stroke-linecap:butt; stroke-linejoin:round; stroke-width:4; stroke-opacity:1; fill:none" points="
  186.274,1447.87 205.172,1447.87 
  "/>
<polyline clip-path="url(#clip630)" style="stroke:#000000; stroke-linecap:butt; stroke-linejoin:round; stroke-width:4; stroke-opacity:1; fill:none" points="
  186.274,1022.09 205.172,1022.09 
  "/>
<polyline clip-path="url(#clip630)" style="stroke:#000000; stroke-linecap:butt; stroke-linejoin:round; stroke-width:4; stroke-opacity:1; fill:none" points="
  186.274,596.304 205.172,596.304 
  "/>
<polyline clip-path="url(#clip630)" style="stroke:#000000; stroke-linecap:butt; stroke-linejoin:round; stroke-width:4; stroke-opacity:1; fill:none" points="
  186.274,170.519 205.172,170.519 
  "/>
<path clip-path="url(#clip630)" d="M62.9365 1433.67 Q59.3254 1433.67 57.4967 1437.24 Q55.6912 1440.78 55.6912 1447.91 Q55.6912 1455.01 57.4967 1458.58 Q59.3254 1462.12 62.9365 1462.12 Q66.5707 1462.12 68.3763 1458.58 Q70.205 1455.01 70.205 1447.91 Q70.205 1440.78 68.3763 1437.24 Q66.5707 1433.67 62.9365 1433.67 M62.9365 1429.97 Q68.7467 1429.97 71.8022 1434.57 Q74.8809 1439.16 74.8809 1447.91 Q74.8809 1456.63 71.8022 1461.24 Q68.7467 1465.82 62.9365 1465.82 Q57.1264 1465.82 54.0477 1461.24 Q50.9921 1456.63 50.9921 1447.91 Q50.9921 1439.16 54.0477 1434.57 Q57.1264 1429.97 62.9365 1429.97 Z" fill="#000000" fill-rule="evenodd" fill-opacity="1" /><path clip-path="url(#clip630)" d="M83.0984 1459.27 L87.9827 1459.27 L87.9827 1465.15 L83.0984 1465.15 L83.0984 1459.27 Z" fill="#000000" fill-rule="evenodd" fill-opacity="1" /><path clip-path="url(#clip630)" d="M108.168 1433.67 Q104.557 1433.67 102.728 1437.24 Q100.922 1440.78 100.922 1447.91 Q100.922 1455.01 102.728 1458.58 Q104.557 1462.12 108.168 1462.12 Q111.802 1462.12 113.608 1458.58 Q115.436 1455.01 115.436 1447.91 Q115.436 1440.78 113.608 1437.24 Q111.802 1433.67 108.168 1433.67 M108.168 1429.97 Q113.978 1429.97 117.033 1434.57 Q120.112 1439.16 120.112 1447.91 Q120.112 1456.63 117.033 1461.24 Q113.978 1465.82 108.168 1465.82 Q102.358 1465.82 99.2789 1461.24 Q96.2234 1456.63 96.2234 1447.91 Q96.2234 1439.16 99.2789 1434.57 Q102.358 1429.97 108.168 1429.97 Z" fill="#000000" fill-rule="evenodd" fill-opacity="1" /><path clip-path="url(#clip630)" d="M138.33 1433.67 Q134.719 1433.67 132.89 1437.24 Q131.084 1440.78 131.084 1447.91 Q131.084 1455.01 132.89 1458.58 Q134.719 1462.12 138.33 1462.12 Q141.964 1462.12 143.769 1458.58 Q145.598 1455.01 145.598 1447.91 Q145.598 1440.78 143.769 1437.24 Q141.964 1433.67 138.33 1433.67 M138.33 1429.97 Q144.14 1429.97 147.195 1434.57 Q150.274 1439.16 150.274 1447.91 Q150.274 1456.63 147.195 1461.24 Q144.14 1465.82 138.33 1465.82 Q132.519 1465.82 129.441 1461.24 Q126.385 1456.63 126.385 1447.91 Q126.385 1439.16 129.441 1434.57 Q132.519 1429.97 138.33 1429.97 Z" fill="#000000" fill-rule="evenodd" fill-opacity="1" /><path clip-path="url(#clip630)" d="M63.9319 1007.89 Q60.3208 1007.89 58.4921 1011.45 Q56.6865 1014.99 56.6865 1022.12 Q56.6865 1029.23 58.4921 1032.79 Q60.3208 1036.34 63.9319 1036.34 Q67.5661 1036.34 69.3717 1032.79 Q71.2004 1029.23 71.2004 1022.12 Q71.2004 1014.99 69.3717 1011.45 Q67.5661 1007.89 63.9319 1007.89 M63.9319 1004.18 Q69.742 1004.18 72.7976 1008.79 Q75.8763 1013.37 75.8763 1022.12 Q75.8763 1030.85 72.7976 1035.46 Q69.742 1040.04 63.9319 1040.04 Q58.1217 1040.04 55.043 1035.46 Q51.9875 1030.85 51.9875 1022.12 Q51.9875 1013.37 55.043 1008.79 Q58.1217 1004.18 63.9319 1004.18 Z" fill="#000000" fill-rule="evenodd" fill-opacity="1" /><path clip-path="url(#clip630)" d="M84.0938 1033.49 L88.978 1033.49 L88.978 1039.37 L84.0938 1039.37 L84.0938 1033.49 Z" fill="#000000" fill-rule="evenodd" fill-opacity="1" /><path clip-path="url(#clip630)" d="M109.163 1007.89 Q105.552 1007.89 103.723 1011.45 Q101.918 1014.99 101.918 1022.12 Q101.918 1029.23 103.723 1032.79 Q105.552 1036.34 109.163 1036.34 Q112.797 1036.34 114.603 1032.79 Q116.432 1029.23 116.432 1022.12 Q116.432 1014.99 114.603 1011.45 Q112.797 1007.89 109.163 1007.89 M109.163 1004.18 Q114.973 1004.18 118.029 1008.79 Q121.107 1013.37 121.107 1022.12 Q121.107 1030.85 118.029 1035.46 Q114.973 1040.04 109.163 1040.04 Q103.353 1040.04 100.274 1035.46 Q97.2187 1030.85 97.2187 1022.12 Q97.2187 1013.37 100.274 1008.79 Q103.353 1004.18 109.163 1004.18 Z" fill="#000000" fill-rule="evenodd" fill-opacity="1" /><path clip-path="url(#clip630)" d="M129.371 1004.81 L147.728 1004.81 L147.728 1008.74 L133.654 1008.74 L133.654 1017.22 Q134.672 1016.87 135.691 1016.71 Q136.709 1016.52 137.728 1016.52 Q143.515 1016.52 146.894 1019.69 Q150.274 1022.86 150.274 1028.28 Q150.274 1033.86 146.802 1036.96 Q143.33 1040.04 137.01 1040.04 Q134.834 1040.04 132.566 1039.67 Q130.32 1039.3 127.913 1038.56 L127.913 1033.86 Q129.996 1034.99 132.219 1035.55 Q134.441 1036.1 136.918 1036.1 Q140.922 1036.1 143.26 1034 Q145.598 1031.89 145.598 1028.28 Q145.598 1024.67 143.26 1022.56 Q140.922 1020.46 136.918 1020.46 Q135.043 1020.46 133.168 1020.87 Q131.316 1021.29 129.371 1022.17 L129.371 1004.81 Z" fill="#000000" fill-rule="evenodd" fill-opacity="1" /><path clip-path="url(#clip630)" d="M62.9365 582.102 Q59.3254 582.102 57.4967 585.667 Q55.6912 589.209 55.6912 596.338 Q55.6912 603.445 57.4967 607.009 Q59.3254 610.551 62.9365 610.551 Q66.5707 610.551 68.3763 607.009 Q70.205 603.445 70.205 596.338 Q70.205 589.209 68.3763 585.667 Q66.5707 582.102 62.9365 582.102 M62.9365 578.399 Q68.7467 578.399 71.8022 583.005 Q74.8809 587.588 74.8809 596.338 Q74.8809 605.065 71.8022 609.672 Q68.7467 614.255 62.9365 614.255 Q57.1264 614.255 54.0477 609.672 Q50.9921 605.065 50.9921 596.338 Q50.9921 587.588 54.0477 583.005 Q57.1264 578.399 62.9365 578.399 Z" fill="#000000" fill-rule="evenodd" fill-opacity="1" /><path clip-path="url(#clip630)" d="M83.0984 607.704 L87.9827 607.704 L87.9827 613.584 L83.0984 613.584 L83.0984 607.704 Z" fill="#000000" fill-rule="evenodd" fill-opacity="1" /><path clip-path="url(#clip630)" d="M98.978 609.648 L106.617 609.648 L106.617 583.283 L98.3067 584.949 L98.3067 580.69 L106.571 579.024 L111.246 579.024 L111.246 609.648 L118.885 609.648 L118.885 613.584 L98.978 613.584 L98.978 609.648 Z" fill="#000000" fill-rule="evenodd" fill-opacity="1" /><path clip-path="url(#clip630)" d="M138.33 582.102 Q134.719 582.102 132.89 585.667 Q131.084 589.209 131.084 596.338 Q131.084 603.445 132.89 607.009 Q134.719 610.551 138.33 610.551 Q141.964 610.551 143.769 607.009 Q145.598 603.445 145.598 596.338 Q145.598 589.209 143.769 585.667 Q141.964 582.102 138.33 582.102 M138.33 578.399 Q144.14 578.399 147.195 583.005 Q150.274 587.588 150.274 596.338 Q150.274 605.065 147.195 609.672 Q144.14 614.255 138.33 614.255 Q132.519 614.255 129.441 609.672 Q126.385 605.065 126.385 596.338 Q126.385 587.588 129.441 583.005 Q132.519 578.399 138.33 578.399 Z" fill="#000000" fill-rule="evenodd" fill-opacity="1" /><path clip-path="url(#clip630)" d="M63.9319 156.317 Q60.3208 156.317 58.4921 159.882 Q56.6865 163.424 56.6865 170.553 Q56.6865 177.66 58.4921 181.225 Q60.3208 184.766 63.9319 184.766 Q67.5661 184.766 69.3717 181.225 Q71.2004 177.66 71.2004 170.553 Q71.2004 163.424 69.3717 159.882 Q67.5661 156.317 63.9319 156.317 M63.9319 152.614 Q69.742 152.614 72.7976 157.22 Q75.8763 161.803 75.8763 170.553 Q75.8763 179.28 72.7976 183.887 Q69.742 188.47 63.9319 188.47 Q58.1217 188.47 55.043 183.887 Q51.9875 179.28 51.9875 170.553 Q51.9875 161.803 55.043 157.22 Q58.1217 152.614 63.9319 152.614 Z" fill="#000000" fill-rule="evenodd" fill-opacity="1" /><path clip-path="url(#clip630)" d="M84.0938 181.919 L88.978 181.919 L88.978 187.799 L84.0938 187.799 L84.0938 181.919 Z" fill="#000000" fill-rule="evenodd" fill-opacity="1" /><path clip-path="url(#clip630)" d="M99.9733 183.864 L107.612 183.864 L107.612 157.498 L99.3021 159.165 L99.3021 154.905 L107.566 153.239 L112.242 153.239 L112.242 183.864 L119.881 183.864 L119.881 187.799 L99.9733 187.799 L99.9733 183.864 Z" fill="#000000" fill-rule="evenodd" fill-opacity="1" /><path clip-path="url(#clip630)" d="M129.371 153.239 L147.728 153.239 L147.728 157.174 L133.654 157.174 L133.654 165.646 Q134.672 165.299 135.691 165.137 Q136.709 164.952 137.728 164.952 Q143.515 164.952 146.894 168.123 Q150.274 171.294 150.274 176.711 Q150.274 182.29 146.802 185.391 Q143.33 188.47 137.01 188.47 Q134.834 188.47 132.566 188.1 Q130.32 187.729 127.913 186.989 L127.913 182.29 Q129.996 183.424 132.219 183.979 Q134.441 184.535 136.918 184.535 Q140.922 184.535 143.26 182.428 Q145.598 180.322 145.598 176.711 Q145.598 173.1 143.26 170.993 Q140.922 168.887 136.918 168.887 Q135.043 168.887 133.168 169.303 Q131.316 169.72 129.371 170.6 L129.371 153.239 Z" fill="#000000" fill-rule="evenodd" fill-opacity="1" /><path clip-path="url(#clip630)" d="M731.798 34.1734 Q730.542 33.4443 729.043 33.1202 Q727.585 32.7556 725.803 32.7556 Q719.483 32.7556 716.08 36.8875 Q712.718 40.9789 712.718 48.6757 L712.718 72.576 L705.224 72.576 L705.224 27.2059 L712.718 27.2059 L712.718 34.2544 Q715.068 30.1225 718.835 28.1376 Q722.602 26.1121 727.99 26.1121 Q728.76 26.1121 729.691 26.2337 Q730.623 26.3147 731.757 26.5172 L731.798 34.1734 Z" fill="#000000" fill-rule="evenodd" fill-opacity="1" /><path clip-path="url(#clip630)" d="M760.235 49.7694 Q751.202 49.7694 747.718 51.8354 Q744.234 53.9013 744.234 58.8839 Q744.234 62.8538 746.827 65.2034 Q749.46 67.5124 753.956 67.5124 Q760.154 67.5124 763.881 63.1374 Q767.648 58.7219 767.648 51.4303 L767.648 49.7694 L760.235 49.7694 M775.102 46.6907 L775.102 72.576 L767.648 72.576 L767.648 65.6895 Q765.096 69.8214 761.289 71.8063 Q757.481 73.7508 751.971 73.7508 Q745.004 73.7508 740.872 69.8619 Q736.781 65.9325 736.781 59.3701 Q736.781 51.7138 741.885 47.825 Q747.029 43.9361 757.197 43.9361 L767.648 43.9361 L767.648 43.2069 Q767.648 38.0623 764.246 35.2672 Q760.883 32.4315 754.767 32.4315 Q750.878 32.4315 747.191 33.3632 Q743.505 34.295 740.102 36.1584 L740.102 29.2718 Q744.194 27.692 748.042 26.9223 Q751.89 26.1121 755.536 26.1121 Q765.38 26.1121 770.241 31.2163 Q775.102 36.3204 775.102 46.6907 Z" fill="#000000" fill-rule="evenodd" fill-opacity="1" /><path clip-path="url(#clip630)" d="M797.828 14.324 L797.828 27.2059 L813.181 27.2059 L813.181 32.9987 L797.828 32.9987 L797.828 57.6282 Q797.828 63.1779 799.327 64.7578 Q800.866 66.3376 805.524 66.3376 L813.181 66.3376 L813.181 72.576 L805.524 72.576 Q796.896 72.576 793.615 69.3758 Q790.333 66.1351 790.333 57.6282 L790.333 32.9987 L784.865 32.9987 L784.865 27.2059 L790.333 27.2059 L790.333 14.324 L797.828 14.324 Z" fill="#000000" fill-rule="evenodd" fill-opacity="1" /><path clip-path="url(#clip630)" d="M822.984 27.2059 L830.437 27.2059 L830.437 72.576 L822.984 72.576 L822.984 27.2059 M822.984 9.54393 L830.437 9.54393 L830.437 18.9825 L822.984 18.9825 L822.984 9.54393 Z" fill="#000000" fill-rule="evenodd" fill-opacity="1" /><path clip-path="url(#clip630)" d="M863.614 32.4315 Q857.619 32.4315 854.135 37.1306 Q850.651 41.7891 850.651 49.9314 Q850.651 58.0738 854.095 62.7728 Q857.579 67.4314 863.614 67.4314 Q869.569 67.4314 873.053 62.7323 Q876.537 58.0333 876.537 49.9314 Q876.537 41.8701 873.053 37.1711 Q869.569 32.4315 863.614 32.4315 M863.614 26.1121 Q873.337 26.1121 878.886 32.4315 Q884.436 38.7509 884.436 49.9314 Q884.436 61.0714 878.886 67.4314 Q873.337 73.7508 863.614 73.7508 Q853.852 73.7508 848.302 67.4314 Q842.793 61.0714 842.793 49.9314 Q842.793 38.7509 848.302 32.4315 Q853.852 26.1121 863.614 26.1121 Z" fill="#000000" fill-rule="evenodd" fill-opacity="1" /><path clip-path="url(#clip630)" d="M941.716 17.4837 Q935.396 17.4837 932.196 23.7221 Q929.036 29.92 929.036 42.3968 Q929.036 54.833 932.196 61.0714 Q935.396 67.2693 941.716 67.2693 Q948.076 67.2693 951.235 61.0714 Q954.436 54.833 954.436 42.3968 Q954.436 29.92 951.235 23.7221 Q948.076 17.4837 941.716 17.4837 M941.716 11.0023 Q951.884 11.0023 957.231 19.0636 Q962.618 27.0843 962.618 42.3968 Q962.618 57.6687 957.231 65.73 Q951.884 73.7508 941.716 73.7508 Q931.548 73.7508 926.16 65.73 Q920.813 57.6687 920.813 42.3968 Q920.813 27.0843 926.16 19.0636 Q931.548 11.0023 941.716 11.0023 Z" fill="#000000" fill-rule="evenodd" fill-opacity="1" /><path clip-path="url(#clip630)" d="M976.999 62.2867 L985.547 62.2867 L985.547 72.576 L976.999 72.576 L976.999 62.2867 Z" fill="#000000" fill-rule="evenodd" fill-opacity="1" /><path clip-path="url(#clip630)" d="M1021.88 39.075 Q1016.37 39.075 1013.13 42.8424 Q1009.93 46.6097 1009.93 53.1722 Q1009.93 59.6941 1013.13 63.502 Q1016.37 67.2693 1021.88 67.2693 Q1027.39 67.2693 1030.59 63.502 Q1033.83 59.6941 1033.83 53.1722 Q1033.83 46.6097 1030.59 42.8424 Q1027.39 39.075 1021.88 39.075 M1038.13 13.4328 L1038.13 20.8865 Q1035.05 19.4281 1031.89 18.6585 Q1028.77 17.8888 1025.69 17.8888 Q1017.59 17.8888 1013.3 23.3575 Q1009.04 28.8262 1008.43 39.8852 Q1010.82 36.3609 1014.43 34.4975 Q1018.03 32.5936 1022.37 32.5936 Q1031.48 32.5936 1036.75 38.1433 Q1042.06 43.6525 1042.06 53.1722 Q1042.06 62.4892 1036.55 68.12 Q1031.04 73.7508 1021.88 73.7508 Q1011.39 73.7508 1005.84 65.73 Q1000.29 57.6687 1000.29 42.3968 Q1000.29 28.0566 1007.1 19.5497 Q1013.9 11.0023 1025.37 11.0023 Q1028.45 11.0023 1031.56 11.6099 Q1034.72 12.2175 1038.13 13.4328 Z" fill="#000000" fill-rule="evenodd" fill-opacity="1" /><path clip-path="url(#clip630)" d="M1074.67 39.075 Q1069.16 39.075 1065.92 42.8424 Q1062.72 46.6097 1062.72 53.1722 Q1062.72 59.6941 1065.92 63.502 Q1069.16 67.2693 1074.67 67.2693 Q1080.18 67.2693 1083.38 63.502 Q1086.62 59.6941 1086.62 53.1722 Q1086.62 46.6097 1083.38 42.8424 Q1080.18 39.075 1074.67 39.075 M1090.91 13.4328 L1090.91 20.8865 Q1087.83 19.4281 1084.67 18.6585 Q1081.55 17.8888 1078.47 17.8888 Q1070.37 17.8888 1066.08 23.3575 Q1061.83 28.8262 1061.22 39.8852 Q1063.61 36.3609 1067.21 34.4975 Q1070.82 32.5936 1075.15 32.5936 Q1084.27 32.5936 1089.53 38.1433 Q1094.84 43.6525 1094.84 53.1722 Q1094.84 62.4892 1089.33 68.12 Q1083.82 73.7508 1074.67 73.7508 Q1064.17 73.7508 1058.62 65.73 Q1053.08 57.6687 1053.08 42.3968 Q1053.08 28.0566 1059.88 19.5497 Q1066.69 11.0023 1078.15 11.0023 Q1081.23 11.0023 1084.35 11.6099 Q1087.51 12.2175 1090.91 13.4328 Z" fill="#000000" fill-rule="evenodd" fill-opacity="1" /><path clip-path="url(#clip630)" d="M1127.45 39.075 Q1121.94 39.075 1118.7 42.8424 Q1115.5 46.6097 1115.5 53.1722 Q1115.5 59.6941 1118.7 63.502 Q1121.94 67.2693 1127.45 67.2693 Q1132.96 67.2693 1136.16 63.502 Q1139.4 59.6941 1139.4 53.1722 Q1139.4 46.6097 1136.16 42.8424 Q1132.96 39.075 1127.45 39.075 M1143.69 13.4328 L1143.69 20.8865 Q1140.62 19.4281 1137.46 18.6585 Q1134.34 17.8888 1131.26 17.8888 Q1123.16 17.8888 1118.86 23.3575 Q1114.61 28.8262 1114 39.8852 Q1116.39 36.3609 1120 34.4975 Q1123.6 32.5936 1127.94 32.5936 Q1137.05 32.5936 1142.32 38.1433 Q1147.62 43.6525 1147.62 53.1722 Q1147.62 62.4892 1142.11 68.12 Q1136.6 73.7508 1127.45 73.7508 Q1116.96 73.7508 1111.41 65.73 Q1105.86 57.6687 1105.86 42.3968 Q1105.86 28.0566 1112.66 19.5497 Q1119.47 11.0023 1130.93 11.0023 Q1134.01 11.0023 1137.13 11.6099 Q1140.29 12.2175 1143.69 13.4328 Z" fill="#000000" fill-rule="evenodd" fill-opacity="1" /><path clip-path="url(#clip630)" d="M1180.23 39.075 Q1174.72 39.075 1171.48 42.8424 Q1168.28 46.6097 1168.28 53.1722 Q1168.28 59.6941 1171.48 63.502 Q1174.72 67.2693 1180.23 67.2693 Q1185.74 67.2693 1188.94 63.502 Q1192.18 59.6941 1192.18 53.1722 Q1192.18 46.6097 1188.94 42.8424 Q1185.74 39.075 1180.23 39.075 M1196.48 13.4328 L1196.48 20.8865 Q1193.4 19.4281 1190.24 18.6585 Q1187.12 17.8888 1184.04 17.8888 Q1175.94 17.8888 1171.65 23.3575 Q1167.39 28.8262 1166.78 39.8852 Q1169.17 36.3609 1172.78 34.4975 Q1176.38 32.5936 1180.72 32.5936 Q1189.83 32.5936 1195.1 38.1433 Q1200.41 43.6525 1200.41 53.1722 Q1200.41 62.4892 1194.9 68.12 Q1189.39 73.7508 1180.23 73.7508 Q1169.74 73.7508 1164.19 65.73 Q1158.64 57.6687 1158.64 42.3968 Q1158.64 28.0566 1165.45 19.5497 Q1172.25 11.0023 1183.72 11.0023 Q1186.8 11.0023 1189.91 11.6099 Q1193.07 12.2175 1196.48 13.4328 Z" fill="#000000" fill-rule="evenodd" fill-opacity="1" /><path clip-path="url(#clip630)" d="M1233.02 39.075 Q1227.51 39.075 1224.27 42.8424 Q1221.07 46.6097 1221.07 53.1722 Q1221.07 59.6941 1224.27 63.502 Q1227.51 67.2693 1233.02 67.2693 Q1238.53 67.2693 1241.73 63.502 Q1244.97 59.6941 1244.97 53.1722 Q1244.97 46.6097 1241.73 42.8424 Q1238.53 39.075 1233.02 39.075 M1249.26 13.4328 L1249.26 20.8865 Q1246.18 19.4281 1243.02 18.6585 Q1239.9 17.8888 1236.82 17.8888 Q1228.72 17.8888 1224.43 23.3575 Q1220.17 28.8262 1219.57 39.8852 Q1221.96 36.3609 1225.56 34.4975 Q1229.17 32.5936 1233.5 32.5936 Q1242.62 32.5936 1247.88 38.1433 Q1253.19 43.6525 1253.19 53.1722 Q1253.19 62.4892 1247.68 68.12 Q1242.17 73.7508 1233.02 73.7508 Q1222.52 73.7508 1216.97 65.73 Q1211.42 57.6687 1211.42 42.3968 Q1211.42 28.0566 1218.23 19.5497 Q1225.04 11.0023 1236.5 11.0023 Q1239.58 11.0023 1242.7 11.6099 Q1245.86 12.2175 1249.26 13.4328 Z" fill="#000000" fill-rule="evenodd" fill-opacity="1" /><path clip-path="url(#clip630)" d="M1285.8 39.075 Q1280.29 39.075 1277.05 42.8424 Q1273.85 46.6097 1273.85 53.1722 Q1273.85 59.6941 1277.05 63.502 Q1280.29 67.2693 1285.8 67.2693 Q1291.31 67.2693 1294.51 63.502 Q1297.75 59.6941 1297.75 53.1722 Q1297.75 46.6097 1294.51 42.8424 Q1291.31 39.075 1285.8 39.075 M1302.04 13.4328 L1302.04 20.8865 Q1298.97 19.4281 1295.81 18.6585 Q1292.69 17.8888 1289.61 17.8888 Q1281.51 17.8888 1277.21 23.3575 Q1272.96 28.8262 1272.35 39.8852 Q1274.74 36.3609 1278.35 34.4975 Q1281.95 32.5936 1286.29 32.5936 Q1295.4 32.5936 1300.67 38.1433 Q1305.97 43.6525 1305.97 53.1722 Q1305.97 62.4892 1300.46 68.12 Q1294.95 73.7508 1285.8 73.7508 Q1275.31 73.7508 1269.76 65.73 Q1264.21 57.6687 1264.21 42.3968 Q1264.21 28.0566 1271.01 19.5497 Q1277.82 11.0023 1289.28 11.0023 Q1292.36 11.0023 1295.48 11.6099 Q1298.64 12.2175 1302.04 13.4328 Z" fill="#000000" fill-rule="evenodd" fill-opacity="1" /><path clip-path="url(#clip630)" d="M1338.58 39.075 Q1333.07 39.075 1329.83 42.8424 Q1326.63 46.6097 1326.63 53.1722 Q1326.63 59.6941 1329.83 63.502 Q1333.07 67.2693 1338.58 67.2693 Q1344.09 67.2693 1347.29 63.502 Q1350.53 59.6941 1350.53 53.1722 Q1350.53 46.6097 1347.29 42.8424 Q1344.09 39.075 1338.58 39.075 M1354.83 13.4328 L1354.83 20.8865 Q1351.75 19.4281 1348.59 18.6585 Q1345.47 17.8888 1342.39 17.8888 Q1334.29 17.8888 1329.99 23.3575 Q1325.74 28.8262 1325.13 39.8852 Q1327.52 36.3609 1331.13 34.4975 Q1334.73 32.5936 1339.07 32.5936 Q1348.18 32.5936 1353.45 38.1433 Q1358.76 43.6525 1358.76 53.1722 Q1358.76 62.4892 1353.25 68.12 Q1347.74 73.7508 1338.58 73.7508 Q1328.09 73.7508 1322.54 65.73 Q1316.99 57.6687 1316.99 42.3968 Q1316.99 28.0566 1323.8 19.5497 Q1330.6 11.0023 1342.07 11.0023 Q1345.15 11.0023 1348.26 11.6099 Q1351.42 12.2175 1354.83 13.4328 Z" fill="#000000" fill-rule="evenodd" fill-opacity="1" /><path clip-path="url(#clip630)" d="M1391.37 39.075 Q1385.86 39.075 1382.62 42.8424 Q1379.42 46.6097 1379.42 53.1722 Q1379.42 59.6941 1382.62 63.502 Q1385.86 67.2693 1391.37 67.2693 Q1396.88 67.2693 1400.08 63.502 Q1403.32 59.6941 1403.32 53.1722 Q1403.32 46.6097 1400.08 42.8424 Q1396.88 39.075 1391.37 39.075 M1407.61 13.4328 L1407.61 20.8865 Q1404.53 19.4281 1401.37 18.6585 Q1398.25 17.8888 1395.17 17.8888 Q1387.07 17.8888 1382.78 23.3575 Q1378.52 28.8262 1377.92 39.8852 Q1380.31 36.3609 1383.91 34.4975 Q1387.52 32.5936 1391.85 32.5936 Q1400.97 32.5936 1406.23 38.1433 Q1411.54 43.6525 1411.54 53.1722 Q1411.54 62.4892 1406.03 68.12 Q1400.52 73.7508 1391.37 73.7508 Q1380.87 73.7508 1375.32 65.73 Q1369.77 57.6687 1369.77 42.3968 Q1369.77 28.0566 1376.58 19.5497 Q1383.39 11.0023 1394.85 11.0023 Q1397.93 11.0023 1401.05 11.6099 Q1404.21 12.2175 1407.61 13.4328 Z" fill="#000000" fill-rule="evenodd" fill-opacity="1" /><path clip-path="url(#clip630)" d="M1444.15 39.075 Q1438.64 39.075 1435.4 42.8424 Q1432.2 46.6097 1432.2 53.1722 Q1432.2 59.6941 1435.4 63.502 Q1438.64 67.2693 1444.15 67.2693 Q1449.66 67.2693 1452.86 63.502 Q1456.1 59.6941 1456.1 53.1722 Q1456.1 46.6097 1452.86 42.8424 Q1449.66 39.075 1444.15 39.075 M1460.39 13.4328 L1460.39 20.8865 Q1457.31 19.4281 1454.16 18.6585 Q1451.04 17.8888 1447.96 17.8888 Q1439.86 17.8888 1435.56 23.3575 Q1431.31 28.8262 1430.7 39.8852 Q1433.09 36.3609 1436.7 34.4975 Q1440.3 32.5936 1444.64 32.5936 Q1453.75 32.5936 1459.02 38.1433 Q1464.32 43.6525 1464.32 53.1722 Q1464.32 62.4892 1458.81 68.12 Q1453.3 73.7508 1444.15 73.7508 Q1433.66 73.7508 1428.11 65.73 Q1422.56 57.6687 1422.56 42.3968 Q1422.56 28.0566 1429.36 19.5497 Q1436.17 11.0023 1447.63 11.0023 Q1450.71 11.0023 1453.83 11.6099 Q1456.99 12.2175 1460.39 13.4328 Z" fill="#000000" fill-rule="evenodd" fill-opacity="1" /><path clip-path="url(#clip630)" d="M1496.93 39.075 Q1491.42 39.075 1488.18 42.8424 Q1484.98 46.6097 1484.98 53.1722 Q1484.98 59.6941 1488.18 63.502 Q1491.42 67.2693 1496.93 67.2693 Q1502.44 67.2693 1505.64 63.502 Q1508.88 59.6941 1508.88 53.1722 Q1508.88 46.6097 1505.64 42.8424 Q1502.44 39.075 1496.93 39.075 M1513.18 13.4328 L1513.18 20.8865 Q1510.1 19.4281 1506.94 18.6585 Q1503.82 17.8888 1500.74 17.8888 Q1492.64 17.8888 1488.34 23.3575 Q1484.09 28.8262 1483.48 39.8852 Q1485.87 36.3609 1489.48 34.4975 Q1493.08 32.5936 1497.42 32.5936 Q1506.53 32.5936 1511.8 38.1433 Q1517.11 43.6525 1517.11 53.1722 Q1517.11 62.4892 1511.6 68.12 Q1506.09 73.7508 1496.93 73.7508 Q1486.44 73.7508 1480.89 65.73 Q1475.34 57.6687 1475.34 42.3968 Q1475.34 28.0566 1482.15 19.5497 Q1488.95 11.0023 1500.42 11.0023 Q1503.5 11.0023 1506.61 11.6099 Q1509.77 12.2175 1513.18 13.4328 Z" fill="#000000" fill-rule="evenodd" fill-opacity="1" /><path clip-path="url(#clip630)" d="M1549.72 39.075 Q1544.21 39.075 1540.97 42.8424 Q1537.77 46.6097 1537.77 53.1722 Q1537.77 59.6941 1540.97 63.502 Q1544.21 67.2693 1549.72 67.2693 Q1555.23 67.2693 1558.43 63.502 Q1561.67 59.6941 1561.67 53.1722 Q1561.67 46.6097 1558.43 42.8424 Q1555.23 39.075 1549.72 39.075 M1565.96 13.4328 L1565.96 20.8865 Q1562.88 19.4281 1559.72 18.6585 Q1556.6 17.8888 1553.52 17.8888 Q1545.42 17.8888 1541.13 23.3575 Q1536.87 28.8262 1536.27 39.8852 Q1538.66 36.3609 1542.26 34.4975 Q1545.87 32.5936 1550.2 32.5936 Q1559.32 32.5936 1564.58 38.1433 Q1569.89 43.6525 1569.89 53.1722 Q1569.89 62.4892 1564.38 68.12 Q1558.87 73.7508 1549.72 73.7508 Q1539.22 73.7508 1533.67 65.73 Q1528.12 57.6687 1528.12 42.3968 Q1528.12 28.0566 1534.93 19.5497 Q1541.74 11.0023 1553.2 11.0023 Q1556.28 11.0023 1559.4 11.6099 Q1562.56 12.2175 1565.96 13.4328 Z" fill="#000000" fill-rule="evenodd" fill-opacity="1" /><path clip-path="url(#clip630)" d="M1602.5 39.075 Q1596.99 39.075 1593.75 42.8424 Q1590.55 46.6097 1590.55 53.1722 Q1590.55 59.6941 1593.75 63.502 Q1596.99 67.2693 1602.5 67.2693 Q1608.01 67.2693 1611.21 63.502 Q1614.45 59.6941 1614.45 53.1722 Q1614.45 46.6097 1611.21 42.8424 Q1608.01 39.075 1602.5 39.075 M1618.74 13.4328 L1618.74 20.8865 Q1615.66 19.4281 1612.51 18.6585 Q1609.39 17.8888 1606.31 17.8888 Q1598.21 17.8888 1593.91 23.3575 Q1589.66 28.8262 1589.05 39.8852 Q1591.44 36.3609 1595.05 34.4975 Q1598.65 32.5936 1602.99 32.5936 Q1612.1 32.5936 1617.37 38.1433 Q1622.67 43.6525 1622.67 53.1722 Q1622.67 62.4892 1617.16 68.12 Q1611.65 73.7508 1602.5 73.7508 Q1592.01 73.7508 1586.46 65.73 Q1580.91 57.6687 1580.91 42.3968 Q1580.91 28.0566 1587.71 19.5497 Q1594.52 11.0023 1605.98 11.0023 Q1609.06 11.0023 1612.18 11.6099 Q1615.34 12.2175 1618.74 13.4328 Z" fill="#000000" fill-rule="evenodd" fill-opacity="1" /><path clip-path="url(#clip630)" d="M1655.28 39.075 Q1649.77 39.075 1646.53 42.8424 Q1643.33 46.6097 1643.33 53.1722 Q1643.33 59.6941 1646.53 63.502 Q1649.77 67.2693 1655.28 67.2693 Q1660.79 67.2693 1663.99 63.502 Q1667.23 59.6941 1667.23 53.1722 Q1667.23 46.6097 1663.99 42.8424 Q1660.79 39.075 1655.28 39.075 M1671.53 13.4328 L1671.53 20.8865 Q1668.45 19.4281 1665.29 18.6585 Q1662.17 17.8888 1659.09 17.8888 Q1650.99 17.8888 1646.69 23.3575 Q1642.44 28.8262 1641.83 39.8852 Q1644.22 36.3609 1647.83 34.4975 Q1651.43 32.5936 1655.77 32.5936 Q1664.88 32.5936 1670.15 38.1433 Q1675.46 43.6525 1675.46 53.1722 Q1675.46 62.4892 1669.95 68.12 Q1664.44 73.7508 1655.28 73.7508 Q1644.79 73.7508 1639.24 65.73 Q1633.69 57.6687 1633.69 42.3968 Q1633.69 28.0566 1640.5 19.5497 Q1647.3 11.0023 1658.77 11.0023 Q1661.85 11.0023 1664.96 11.6099 Q1668.12 12.2175 1671.53 13.4328 Z" fill="#000000" fill-rule="evenodd" fill-opacity="1" /><path clip-path="url(#clip630)" d="M1708.07 39.075 Q1702.56 39.075 1699.32 42.8424 Q1696.12 46.6097 1696.12 53.1722 Q1696.12 59.6941 1699.32 63.502 Q1702.56 67.2693 1708.07 67.2693 Q1713.58 67.2693 1716.78 63.502 Q1720.02 59.6941 1720.02 53.1722 Q1720.02 46.6097 1716.78 42.8424 Q1713.58 39.075 1708.07 39.075 M1724.31 13.4328 L1724.31 20.8865 Q1721.23 19.4281 1718.07 18.6585 Q1714.95 17.8888 1711.87 17.8888 Q1703.77 17.8888 1699.48 23.3575 Q1695.22 28.8262 1694.62 39.8852 Q1697.01 36.3609 1700.61 34.4975 Q1704.22 32.5936 1708.55 32.5936 Q1717.67 32.5936 1722.93 38.1433 Q1728.24 43.6525 1728.24 53.1722 Q1728.24 62.4892 1722.73 68.12 Q1717.22 73.7508 1708.07 73.7508 Q1697.57 73.7508 1692.02 65.73 Q1686.47 57.6687 1686.47 42.3968 Q1686.47 28.0566 1693.28 19.5497 Q1700.09 11.0023 1711.55 11.0023 Q1714.63 11.0023 1717.75 11.6099 Q1720.91 12.2175 1724.31 13.4328 Z" fill="#000000" fill-rule="evenodd" fill-opacity="1" /><path clip-path="url(#clip630)" d="M1760.85 39.075 Q1755.34 39.075 1752.1 42.8424 Q1748.9 46.6097 1748.9 53.1722 Q1748.9 59.6941 1752.1 63.502 Q1755.34 67.2693 1760.85 67.2693 Q1766.36 67.2693 1769.56 63.502 Q1772.8 59.6941 1772.8 53.1722 Q1772.8 46.6097 1769.56 42.8424 Q1766.36 39.075 1760.85 39.075 M1777.09 13.4328 L1777.09 20.8865 Q1774.01 19.4281 1770.85 18.6585 Q1767.74 17.8888 1764.66 17.8888 Q1756.56 17.8888 1752.26 23.3575 Q1748.01 28.8262 1747.4 39.8852 Q1749.79 36.3609 1753.4 34.4975 Q1757 32.5936 1761.34 32.5936 Q1770.45 32.5936 1775.72 38.1433 Q1781.02 43.6525 1781.02 53.1722 Q1781.02 62.4892 1775.51 68.12 Q1770 73.7508 1760.85 73.7508 Q1750.36 73.7508 1744.81 65.73 Q1739.26 57.6687 1739.26 42.3968 Q1739.26 28.0566 1746.06 19.5497 Q1752.87 11.0023 1764.33 11.0023 Q1767.41 11.0023 1770.53 11.6099 Q1773.69 12.2175 1777.09 13.4328 Z" fill="#000000" fill-rule="evenodd" fill-opacity="1" /><path clip-path="url(#clip630)" d="M1813.63 39.075 Q1808.12 39.075 1804.88 42.8424 Q1801.68 46.6097 1801.68 53.1722 Q1801.68 59.6941 1804.88 63.502 Q1808.12 67.2693 1813.63 67.2693 Q1819.14 67.2693 1822.34 63.502 Q1825.58 59.6941 1825.58 53.1722 Q1825.58 46.6097 1822.34 42.8424 Q1819.14 39.075 1813.63 39.075 M1829.88 13.4328 L1829.88 20.8865 Q1826.8 19.4281 1823.64 18.6585 Q1820.52 17.8888 1817.44 17.8888 Q1809.34 17.8888 1805.04 23.3575 Q1800.79 28.8262 1800.18 39.8852 Q1802.57 36.3609 1806.18 34.4975 Q1809.78 32.5936 1814.12 32.5936 Q1823.23 32.5936 1828.5 38.1433 Q1833.81 43.6525 1833.81 53.1722 Q1833.81 62.4892 1828.3 68.12 Q1822.79 73.7508 1813.63 73.7508 Q1803.14 73.7508 1797.59 65.73 Q1792.04 57.6687 1792.04 42.3968 Q1792.04 28.0566 1798.85 19.5497 Q1805.65 11.0023 1817.12 11.0023 Q1820.19 11.0023 1823.31 11.6099 Q1826.47 12.2175 1829.88 13.4328 Z" fill="#000000" fill-rule="evenodd" fill-opacity="1" /><polyline clip-path="url(#clip632)" style="stroke:#009af9; stroke-linecap:butt; stroke-linejoin:round; stroke-width:4; stroke-opacity:1; fill:none" points="
  247.59,1447.87 318.067,1389.14 388.545,1330.42 459.022,1271.69 529.5,1212.96 599.978,1154.23 670.455,1095.51 740.933,1036.79 811.41,978.069 881.888,919.36 
  952.366,860.663 1022.84,801.99 1093.32,743.354 1163.8,684.782 1234.28,626.32 1304.75,568.04 1375.23,510.071 1445.71,452.626 1516.19,396.066 1586.66,341.003 
  1657.14,288.467 1727.62,240.202 1798.1,199.154 1868.57,170.299 1939.05,162.047 2009.53,188.607 2080.01,273.986 2150.49,458.751 2220.96,811.443 2291.44,1447.87 
  
  "/>
<circle clip-path="url(#clip632)" cx="247.59" cy="1447.87" r="14" fill="#009af9" fill-rule="evenodd" fill-opacity="1" stroke="#000000" stroke-opacity="1" stroke-width="3.2"/>
<circle clip-path="url(#clip632)" cx="318.067" cy="1389.14" r="14" fill="#009af9" fill-rule="evenodd" fill-opacity="1" stroke="#000000" stroke-opacity="1" stroke-width="3.2"/>
<circle clip-path="url(#clip632)" cx="388.545" cy="1330.42" r="14" fill="#009af9" fill-rule="evenodd" fill-opacity="1" stroke="#000000" stroke-opacity="1" stroke-width="3.2"/>
<circle clip-path="url(#clip632)" cx="459.022" cy="1271.69" r="14" fill="#009af9" fill-rule="evenodd" fill-opacity="1" stroke="#000000" stroke-opacity="1" stroke-width="3.2"/>
<circle clip-path="url(#clip632)" cx="529.5" cy="1212.96" r="14" fill="#009af9" fill-rule="evenodd" fill-opacity="1" stroke="#000000" stroke-opacity="1" stroke-width="3.2"/>
<circle clip-path="url(#clip632)" cx="599.978" cy="1154.23" r="14" fill="#009af9" fill-rule="evenodd" fill-opacity="1" stroke="#000000" stroke-opacity="1" stroke-width="3.2"/>
<circle clip-path="url(#clip632)" cx="670.455" cy="1095.51" r="14" fill="#009af9" fill-rule="evenodd" fill-opacity="1" stroke="#000000" stroke-opacity="1" stroke-width="3.2"/>
<circle clip-path="url(#clip632)" cx="740.933" cy="1036.79" r="14" fill="#009af9" fill-rule="evenodd" fill-opacity="1" stroke="#000000" stroke-opacity="1" stroke-width="3.2"/>
<circle clip-path="url(#clip632)" cx="811.41" cy="978.069" r="14" fill="#009af9" fill-rule="evenodd" fill-opacity="1" stroke="#000000" stroke-opacity="1" stroke-width="3.2"/>
<circle clip-path="url(#clip632)" cx="881.888" cy="919.36" r="14" fill="#009af9" fill-rule="evenodd" fill-opacity="1" stroke="#000000" stroke-opacity="1" stroke-width="3.2"/>
<circle clip-path="url(#clip632)" cx="952.366" cy="860.663" r="14" fill="#009af9" fill-rule="evenodd" fill-opacity="1" stroke="#000000" stroke-opacity="1" stroke-width="3.2"/>
<circle clip-path="url(#clip632)" cx="1022.84" cy="801.99" r="14" fill="#009af9" fill-rule="evenodd" fill-opacity="1" stroke="#000000" stroke-opacity="1" stroke-width="3.2"/>
<circle clip-path="url(#clip632)" cx="1093.32" cy="743.354" r="14" fill="#009af9" fill-rule="evenodd" fill-opacity="1" stroke="#000000" stroke-opacity="1" stroke-width="3.2"/>
<circle clip-path="url(#clip632)" cx="1163.8" cy="684.782" r="14" fill="#009af9" fill-rule="evenodd" fill-opacity="1" stroke="#000000" stroke-opacity="1" stroke-width="3.2"/>
<circle clip-path="url(#clip632)" cx="1234.28" cy="626.32" r="14" fill="#009af9" fill-rule="evenodd" fill-opacity="1" stroke="#000000" stroke-opacity="1" stroke-width="3.2"/>
<circle clip-path="url(#clip632)" cx="1304.75" cy="568.04" r="14" fill="#009af9" fill-rule="evenodd" fill-opacity="1" stroke="#000000" stroke-opacity="1" stroke-width="3.2"/>
<circle clip-path="url(#clip632)" cx="1375.23" cy="510.071" r="14" fill="#009af9" fill-rule="evenodd" fill-opacity="1" stroke="#000000" stroke-opacity="1" stroke-width="3.2"/>
<circle clip-path="url(#clip632)" cx="1445.71" cy="452.626" r="14" fill="#009af9" fill-rule="evenodd" fill-opacity="1" stroke="#000000" stroke-opacity="1" stroke-width="3.2"/>
<circle clip-path="url(#clip632)" cx="1516.19" cy="396.066" r="14" fill="#009af9" fill-rule="evenodd" fill-opacity="1" stroke="#000000" stroke-opacity="1" stroke-width="3.2"/>
<circle clip-path="url(#clip632)" cx="1586.66" cy="341.003" r="14" fill="#009af9" fill-rule="evenodd" fill-opacity="1" stroke="#000000" stroke-opacity="1" stroke-width="3.2"/>
<circle clip-path="url(#clip632)" cx="1657.14" cy="288.467" r="14" fill="#009af9" fill-rule="evenodd" fill-opacity="1" stroke="#000000" stroke-opacity="1" stroke-width="3.2"/>
<circle clip-path="url(#clip632)" cx="1727.62" cy="240.202" r="14" fill="#009af9" fill-rule="evenodd" fill-opacity="1" stroke="#000000" stroke-opacity="1" stroke-width="3.2"/>
<circle clip-path="url(#clip632)" cx="1798.1" cy="199.154" r="14" fill="#009af9" fill-rule="evenodd" fill-opacity="1" stroke="#000000" stroke-opacity="1" stroke-width="3.2"/>
<circle clip-path="url(#clip632)" cx="1868.57" cy="170.299" r="14" fill="#009af9" fill-rule="evenodd" fill-opacity="1" stroke="#000000" stroke-opacity="1" stroke-width="3.2"/>
<circle clip-path="url(#clip632)" cx="1939.05" cy="162.047" r="14" fill="#009af9" fill-rule="evenodd" fill-opacity="1" stroke="#000000" stroke-opacity="1" stroke-width="3.2"/>
<circle clip-path="url(#clip632)" cx="2009.53" cy="188.607" r="14" fill="#009af9" fill-rule="evenodd" fill-opacity="1" stroke="#000000" stroke-opacity="1" stroke-width="3.2"/>
<circle clip-path="url(#clip632)" cx="2080.01" cy="273.986" r="14" fill="#009af9" fill-rule="evenodd" fill-opacity="1" stroke="#000000" stroke-opacity="1" stroke-width="3.2"/>
<circle clip-path="url(#clip632)" cx="2150.49" cy="458.751" r="14" fill="#009af9" fill-rule="evenodd" fill-opacity="1" stroke="#000000" stroke-opacity="1" stroke-width="3.2"/>
<circle clip-path="url(#clip632)" cx="2220.96" cy="811.443" r="14" fill="#009af9" fill-rule="evenodd" fill-opacity="1" stroke="#000000" stroke-opacity="1" stroke-width="3.2"/>
<circle clip-path="url(#clip632)" cx="2291.44" cy="1447.87" r="14" fill="#009af9" fill-rule="evenodd" fill-opacity="1" stroke="#000000" stroke-opacity="1" stroke-width="3.2"/>
</svg>
