<?xml version="1.0" encoding="utf-8"?>
<svg xmlns="http://www.w3.org/2000/svg" xmlns:xlink="http://www.w3.org/1999/xlink" width="600" height="400" viewBox="0 0 2400 1600">
<defs>
  <clipPath id="clip330">
    <rect x="0" y="0" width="2400" height="1600"/>
  </clipPath>
</defs>
<path clip-path="url(#clip330)" d="
M0 1600 L2400 1600 L2400 0 L0 0  Z
  " fill="#ffffff" fill-rule="evenodd" fill-opacity="1"/>
<defs>
  <clipPath id="clip331">
    <rect x="480" y="0" width="1681" height="1600"/>
  </clipPath>
</defs>
<path clip-path="url(#clip330)" d="
M193.936 1486.45 L2352.76 1486.45 L2352.76 47.2441 L193.936 47.2441  Z
  " fill="#ffffff" fill-rule="evenodd" fill-opacity="1"/>
<defs>
  <clipPath id="clip332">
    <rect x="193" y="47" width="2160" height="1440"/>
  </clipPath>
</defs>
<polyline clip-path="url(#clip332)" style="stroke:#000000; stroke-linecap:butt; stroke-linejoin:round; stroke-width:2; stroke-opacity:0.1; fill:none" points="
  255.035,1486.45 255.035,47.2441 
  "/>
<polyline clip-path="url(#clip332)" style="stroke:#000000; stroke-linecap:butt; stroke-linejoin:round; stroke-width:2; stroke-opacity:0.1; fill:none" points="
  764.19,1486.45 764.19,47.2441 
  "/>
<polyline clip-path="url(#clip332)" style="stroke:#000000; stroke-linecap:butt; stroke-linejoin:round; stroke-width:2; stroke-opacity:0.1; fill:none" points="
  1273.35,1486.45 1273.35,47.2441 
  "/>
<polyline clip-path="url(#clip332)" style="stroke:#000000; stroke-linecap:butt; stroke-linejoin:round; stroke-width:2; stroke-opacity:0.1; fill:none" points="
  1782.5,1486.45 1782.5,47.2441 
  "/>
<polyline clip-path="url(#clip332)" style="stroke:#000000; stroke-linecap:butt; stroke-linejoin:round; stroke-width:2; stroke-opacity:0.1; fill:none" points="
  2291.66,1486.45 2291.66,47.2441 
  "/>
<polyline clip-path="url(#clip330)" style="stroke:#000000; stroke-linecap:butt; stroke-linejoin:round; stroke-width:4; stroke-opacity:1; fill:none" points="
  193.936,1486.45 2352.76,1486.45 
  "/>
<polyline clip-path="url(#clip330)" style="stroke:#000000; stroke-linecap:butt; stroke-linejoin:round; stroke-width:4; stroke-opacity:1; fill:none" points="
  255.035,1486.45 255.035,1467.55 
  "/>
<polyline clip-path="url(#clip330)" style="stroke:#000000; stroke-linecap:butt; stroke-linejoin:round; stroke-width:4; stroke-opacity:1; fill:none" points="
  764.19,1486.45 764.19,1467.55 
  "/>
<polyline clip-path="url(#clip330)" style="stroke:#000000; stroke-linecap:butt; stroke-linejoin:round; stroke-width:4; stroke-opacity:1; fill:none" points="
  1273.35,1486.45 1273.35,1467.55 
  "/>
<polyline clip-path="url(#clip330)" style="stroke:#000000; stroke-linecap:butt; stroke-linejoin:round; stroke-width:4; stroke-opacity:1; fill:none" points="
  1782.5,1486.45 1782.5,1467.55 
  "/>
<polyline clip-path="url(#clip330)" style="stroke:#000000; stroke-linecap:butt; stroke-linejoin:round; stroke-width:4; stroke-opacity:1; fill:none" points="
  2291.66,1486.45 2291.66,1467.55 
  "/>
<path clip-path="url(#clip330)" d="M201.563 1532.02 L231.239 1532.02 L231.239 1535.95 L201.563 1535.95 L201.563 1532.02 Z" fill="#000000" fill-rule="evenodd" fill-opacity="1" /><path clip-path="url(#clip330)" d="M242.141 1544.91 L249.78 1544.91 L249.78 1518.55 L241.47 1520.21 L241.47 1515.95 L249.734 1514.29 L254.41 1514.29 L254.41 1544.91 L262.049 1544.91 L262.049 1548.85 L242.141 1548.85 L242.141 1544.91 Z" fill="#000000" fill-rule="evenodd" fill-opacity="1" /><path clip-path="url(#clip330)" d="M271.493 1542.97 L276.377 1542.97 L276.377 1548.85 L271.493 1548.85 L271.493 1542.97 Z" fill="#000000" fill-rule="evenodd" fill-opacity="1" /><path clip-path="url(#clip330)" d="M296.562 1517.37 Q292.951 1517.37 291.122 1520.93 Q289.317 1524.47 289.317 1531.6 Q289.317 1538.71 291.122 1542.27 Q292.951 1545.82 296.562 1545.82 Q300.196 1545.82 302.002 1542.27 Q303.831 1538.71 303.831 1531.6 Q303.831 1524.47 302.002 1520.93 Q300.196 1517.37 296.562 1517.37 M296.562 1513.66 Q302.372 1513.66 305.428 1518.27 Q308.507 1522.85 308.507 1531.6 Q308.507 1540.33 305.428 1544.94 Q302.372 1549.52 296.562 1549.52 Q290.752 1549.52 287.673 1544.94 Q284.618 1540.33 284.618 1531.6 Q284.618 1522.85 287.673 1518.27 Q290.752 1513.66 296.562 1513.66 Z" fill="#000000" fill-rule="evenodd" fill-opacity="1" /><path clip-path="url(#clip330)" d="M711.216 1532.02 L740.892 1532.02 L740.892 1535.95 L711.216 1535.95 L711.216 1532.02 Z" fill="#000000" fill-rule="evenodd" fill-opacity="1" /><path clip-path="url(#clip330)" d="M760.984 1517.37 Q757.373 1517.37 755.545 1520.93 Q753.739 1524.47 753.739 1531.6 Q753.739 1538.71 755.545 1542.27 Q757.373 1545.82 760.984 1545.82 Q764.619 1545.82 766.424 1542.27 Q768.253 1538.71 768.253 1531.6 Q768.253 1524.47 766.424 1520.93 Q764.619 1517.37 760.984 1517.37 M760.984 1513.66 Q766.794 1513.66 769.85 1518.27 Q772.929 1522.85 772.929 1531.6 Q772.929 1540.33 769.85 1544.94 Q766.794 1549.52 760.984 1549.52 Q755.174 1549.52 752.095 1544.94 Q749.04 1540.33 749.04 1531.6 Q749.04 1522.85 752.095 1518.27 Q755.174 1513.66 760.984 1513.66 Z" fill="#000000" fill-rule="evenodd" fill-opacity="1" /><path clip-path="url(#clip330)" d="M781.146 1542.97 L786.03 1542.97 L786.03 1548.85 L781.146 1548.85 L781.146 1542.97 Z" fill="#000000" fill-rule="evenodd" fill-opacity="1" /><path clip-path="url(#clip330)" d="M796.262 1514.29 L814.618 1514.29 L814.618 1518.22 L800.544 1518.22 L800.544 1526.7 Q801.563 1526.35 802.581 1526.19 Q803.6 1526 804.618 1526 Q810.405 1526 813.785 1529.17 Q817.165 1532.34 817.165 1537.76 Q817.165 1543.34 813.692 1546.44 Q810.22 1549.52 803.901 1549.52 Q801.725 1549.52 799.456 1549.15 Q797.211 1548.78 794.804 1548.04 L794.804 1543.34 Q796.887 1544.47 799.109 1545.03 Q801.331 1545.58 803.808 1545.58 Q807.813 1545.58 810.151 1543.48 Q812.489 1541.37 812.489 1537.76 Q812.489 1534.15 810.151 1532.04 Q807.813 1529.94 803.808 1529.94 Q801.933 1529.94 800.058 1530.35 Q798.206 1530.77 796.262 1531.65 L796.262 1514.29 Z" fill="#000000" fill-rule="evenodd" fill-opacity="1" /><path clip-path="url(#clip330)" d="M1250.73 1517.37 Q1247.12 1517.37 1245.29 1520.93 Q1243.49 1524.47 1243.49 1531.6 Q1243.49 1538.71 1245.29 1542.27 Q1247.12 1545.82 1250.73 1545.82 Q1254.36 1545.82 1256.17 1542.27 Q1258 1538.71 1258 1531.6 Q1258 1524.47 1256.17 1520.93 Q1254.36 1517.37 1250.73 1517.37 M1250.73 1513.66 Q1256.54 1513.66 1259.6 1518.27 Q1262.67 1522.85 1262.67 1531.6 Q1262.67 1540.33 1259.6 1544.94 Q1256.54 1549.52 1250.73 1549.52 Q1244.92 1549.52 1241.84 1544.94 Q1238.79 1540.33 1238.79 1531.6 Q1238.79 1522.85 1241.84 1518.27 Q1244.92 1513.66 1250.73 1513.66 Z" fill="#000000" fill-rule="evenodd" fill-opacity="1" /><path clip-path="url(#clip330)" d="M1270.89 1542.97 L1275.78 1542.97 L1275.78 1548.85 L1270.89 1548.85 L1270.89 1542.97 Z" fill="#000000" fill-rule="evenodd" fill-opacity="1" /><path clip-path="url(#clip330)" d="M1295.96 1517.37 Q1292.35 1517.37 1290.52 1520.93 Q1288.72 1524.47 1288.72 1531.6 Q1288.72 1538.71 1290.52 1542.27 Q1292.35 1545.82 1295.96 1545.82 Q1299.6 1545.82 1301.4 1542.27 Q1303.23 1538.71 1303.23 1531.6 Q1303.23 1524.47 1301.4 1520.93 Q1299.6 1517.37 1295.96 1517.37 M1295.96 1513.66 Q1301.77 1513.66 1304.83 1518.27 Q1307.91 1522.85 1307.91 1531.6 Q1307.91 1540.33 1304.83 1544.94 Q1301.77 1549.52 1295.96 1549.52 Q1290.15 1549.52 1287.07 1544.94 Q1284.02 1540.33 1284.02 1531.6 Q1284.02 1522.85 1287.07 1518.27 Q1290.15 1513.66 1295.96 1513.66 Z" fill="#000000" fill-rule="evenodd" fill-opacity="1" /><path clip-path="url(#clip330)" d="M1760.38 1517.37 Q1756.77 1517.37 1754.94 1520.93 Q1753.14 1524.47 1753.14 1531.6 Q1753.14 1538.71 1754.94 1542.27 Q1756.77 1545.82 1760.38 1545.82 Q1764.02 1545.82 1765.82 1542.27 Q1767.65 1538.71 1767.65 1531.6 Q1767.65 1524.47 1765.82 1520.93 Q1764.02 1517.37 1760.38 1517.37 M1760.38 1513.66 Q1766.19 1513.66 1769.25 1518.27 Q1772.33 1522.85 1772.33 1531.6 Q1772.33 1540.33 1769.25 1544.94 Q1766.19 1549.52 1760.38 1549.52 Q1754.57 1549.52 1751.49 1544.94 Q1748.44 1540.33 1748.44 1531.6 Q1748.44 1522.85 1751.49 1518.27 Q1754.57 1513.66 1760.38 1513.66 Z" fill="#000000" fill-rule="evenodd" fill-opacity="1" /><path clip-path="url(#clip330)" d="M1780.55 1542.97 L1785.43 1542.97 L1785.43 1548.85 L1780.55 1548.85 L1780.55 1542.97 Z" fill="#000000" fill-rule="evenodd" fill-opacity="1" /><path clip-path="url(#clip330)" d="M1795.66 1514.29 L1814.02 1514.29 L1814.02 1518.22 L1799.94 1518.22 L1799.94 1526.7 Q1800.96 1526.35 1801.98 1526.19 Q1803 1526 1804.02 1526 Q1809.8 1526 1813.18 1529.17 Q1816.56 1532.34 1816.56 1537.76 Q1816.56 1543.34 1813.09 1546.44 Q1809.62 1549.52 1803.3 1549.52 Q1801.12 1549.52 1798.86 1549.15 Q1796.61 1548.78 1794.2 1548.04 L1794.2 1543.34 Q1796.29 1544.47 1798.51 1545.03 Q1800.73 1545.58 1803.21 1545.58 Q1807.21 1545.58 1809.55 1543.48 Q1811.89 1541.37 1811.89 1537.76 Q1811.89 1534.15 1809.55 1532.04 Q1807.21 1529.94 1803.21 1529.94 Q1801.33 1529.94 1799.46 1530.35 Q1797.61 1530.77 1795.66 1531.65 L1795.66 1514.29 Z" fill="#000000" fill-rule="evenodd" fill-opacity="1" /><path clip-path="url(#clip330)" d="M2258.81 1544.91 L2266.45 1544.91 L2266.45 1518.55 L2258.14 1520.21 L2258.14 1515.95 L2266.4 1514.29 L2271.08 1514.29 L2271.08 1544.91 L2278.72 1544.91 L2278.72 1548.85 L2258.81 1548.85 L2258.81 1544.91 Z" fill="#000000" fill-rule="evenodd" fill-opacity="1" /><path clip-path="url(#clip330)" d="M2288.16 1542.97 L2293.05 1542.97 L2293.05 1548.85 L2288.16 1548.85 L2288.16 1542.97 Z" fill="#000000" fill-rule="evenodd" fill-opacity="1" /><path clip-path="url(#clip330)" d="M2313.23 1517.37 Q2309.62 1517.37 2307.79 1520.93 Q2305.99 1524.47 2305.99 1531.6 Q2305.99 1538.71 2307.79 1542.27 Q2309.62 1545.82 2313.23 1545.82 Q2316.87 1545.82 2318.67 1542.27 Q2320.5 1538.71 2320.5 1531.6 Q2320.5 1524.47 2318.67 1520.93 Q2316.87 1517.37 2313.23 1517.37 M2313.23 1513.66 Q2319.04 1513.66 2322.1 1518.27 Q2325.18 1522.85 2325.18 1531.6 Q2325.18 1540.33 2322.1 1544.94 Q2319.04 1549.52 2313.23 1549.52 Q2307.42 1549.52 2304.34 1544.94 Q2301.29 1540.33 2301.29 1531.6 Q2301.29 1522.85 2304.34 1518.27 Q2307.42 1513.66 2313.23 1513.66 Z" fill="#000000" fill-rule="evenodd" fill-opacity="1" /><polyline clip-path="url(#clip332)" style="stroke:#000000; stroke-linecap:butt; stroke-linejoin:round; stroke-width:2; stroke-opacity:0.1; fill:none" points="
  193.936,1445.79 2352.76,1445.79 
  "/>
<polyline clip-path="url(#clip332)" style="stroke:#000000; stroke-linecap:butt; stroke-linejoin:round; stroke-width:2; stroke-opacity:0.1; fill:none" points="
  193.936,1106.31 2352.76,1106.31 
  "/>
<polyline clip-path="url(#clip332)" style="stroke:#000000; stroke-linecap:butt; stroke-linejoin:round; stroke-width:2; stroke-opacity:0.1; fill:none" points="
  193.936,766.83 2352.76,766.83 
  "/>
<polyline clip-path="url(#clip332)" style="stroke:#000000; stroke-linecap:butt; stroke-linejoin:round; stroke-width:2; stroke-opacity:0.1; fill:none" points="
  193.936,427.348 2352.76,427.348 
  "/>
<polyline clip-path="url(#clip332)" style="stroke:#000000; stroke-linecap:butt; stroke-linejoin:round; stroke-width:2; stroke-opacity:0.1; fill:none" points="
  193.936,87.8653 2352.76,87.8653 
  "/>
<polyline clip-path="url(#clip330)" style="stroke:#000000; stroke-linecap:butt; stroke-linejoin:round; stroke-width:4; stroke-opacity:1; fill:none" points="
  193.936,1486.45 193.936,47.2441 
  "/>
<polyline clip-path="url(#clip330)" style="stroke:#000000; stroke-linecap:butt; stroke-linejoin:round; stroke-width:4; stroke-opacity:1; fill:none" points="
  193.936,1445.79 212.834,1445.79 
  "/>
<polyline clip-path="url(#clip330)" style="stroke:#000000; stroke-linecap:butt; stroke-linejoin:round; stroke-width:4; stroke-opacity:1; fill:none" points="
  193.936,1106.31 212.834,1106.31 
  "/>
<polyline clip-path="url(#clip330)" style="stroke:#000000; stroke-linecap:butt; stroke-linejoin:round; stroke-width:4; stroke-opacity:1; fill:none" points="
  193.936,766.83 212.834,766.83 
  "/>
<polyline clip-path="url(#clip330)" style="stroke:#000000; stroke-linecap:butt; stroke-linejoin:round; stroke-width:4; stroke-opacity:1; fill:none" points="
  193.936,427.348 212.834,427.348 
  "/>
<polyline clip-path="url(#clip330)" style="stroke:#000000; stroke-linecap:butt; stroke-linejoin:round; stroke-width:4; stroke-opacity:1; fill:none" points="
  193.936,87.8653 212.834,87.8653 
  "/>
<path clip-path="url(#clip330)" d="M50.9921 1446.25 L80.6679 1446.25 L80.6679 1450.18 L50.9921 1450.18 L50.9921 1446.25 Z" fill="#000000" fill-rule="evenodd" fill-opacity="1" /><path clip-path="url(#clip330)" d="M91.5706 1459.14 L99.2095 1459.14 L99.2095 1432.77 L90.8993 1434.44 L90.8993 1430.18 L99.1632 1428.51 L103.839 1428.51 L103.839 1459.14 L111.478 1459.14 L111.478 1463.07 L91.5706 1463.07 L91.5706 1459.14 Z" fill="#000000" fill-rule="evenodd" fill-opacity="1" /><path clip-path="url(#clip330)" d="M120.922 1457.19 L125.807 1457.19 L125.807 1463.07 L120.922 1463.07 L120.922 1457.19 Z" fill="#000000" fill-rule="evenodd" fill-opacity="1" /><path clip-path="url(#clip330)" d="M145.992 1431.59 Q142.381 1431.59 140.552 1435.16 Q138.746 1438.7 138.746 1445.83 Q138.746 1452.94 140.552 1456.5 Q142.381 1460.04 145.992 1460.04 Q149.626 1460.04 151.431 1456.5 Q153.26 1452.94 153.26 1445.83 Q153.26 1438.7 151.431 1435.16 Q149.626 1431.59 145.992 1431.59 M145.992 1427.89 Q151.802 1427.89 154.857 1432.5 Q157.936 1437.08 157.936 1445.83 Q157.936 1454.56 154.857 1459.16 Q151.802 1463.75 145.992 1463.75 Q140.181 1463.75 137.103 1459.16 Q134.047 1454.56 134.047 1445.83 Q134.047 1437.08 137.103 1432.5 Q140.181 1427.89 145.992 1427.89 Z" fill="#000000" fill-rule="evenodd" fill-opacity="1" /><path clip-path="url(#clip330)" d="M51.9875 1106.76 L81.6633 1106.76 L81.6633 1110.7 L51.9875 1110.7 L51.9875 1106.76 Z" fill="#000000" fill-rule="evenodd" fill-opacity="1" /><path clip-path="url(#clip330)" d="M101.756 1092.11 Q98.1447 1092.11 96.316 1095.68 Q94.5104 1099.22 94.5104 1106.35 Q94.5104 1113.45 96.316 1117.02 Q98.1447 1120.56 101.756 1120.56 Q105.39 1120.56 107.196 1117.02 Q109.024 1113.45 109.024 1106.35 Q109.024 1099.22 107.196 1095.68 Q105.39 1092.11 101.756 1092.11 M101.756 1088.41 Q107.566 1088.41 110.621 1093.01 Q113.7 1097.6 113.7 1106.35 Q113.7 1115.07 110.621 1119.68 Q107.566 1124.26 101.756 1124.26 Q95.9456 1124.26 92.8669 1119.68 Q89.8114 1115.07 89.8114 1106.35 Q89.8114 1097.6 92.8669 1093.01 Q95.9456 1088.41 101.756 1088.41 Z" fill="#000000" fill-rule="evenodd" fill-opacity="1" /><path clip-path="url(#clip330)" d="M121.918 1117.71 L126.802 1117.71 L126.802 1123.59 L121.918 1123.59 L121.918 1117.71 Z" fill="#000000" fill-rule="evenodd" fill-opacity="1" /><path clip-path="url(#clip330)" d="M137.033 1089.03 L155.39 1089.03 L155.39 1092.97 L141.316 1092.97 L141.316 1101.44 Q142.334 1101.09 143.353 1100.93 Q144.371 1100.75 145.39 1100.75 Q151.177 1100.75 154.556 1103.92 Q157.936 1107.09 157.936 1112.5 Q157.936 1118.08 154.464 1121.18 Q150.992 1124.26 144.672 1124.26 Q142.496 1124.26 140.228 1123.89 Q137.982 1123.52 135.575 1122.78 L135.575 1118.08 Q137.658 1119.22 139.881 1119.77 Q142.103 1120.33 144.58 1120.33 Q148.584 1120.33 150.922 1118.22 Q153.26 1116.12 153.26 1112.5 Q153.26 1108.89 150.922 1106.79 Q148.584 1104.68 144.58 1104.68 Q142.705 1104.68 140.83 1105.1 Q138.978 1105.51 137.033 1106.39 L137.033 1089.03 Z" fill="#000000" fill-rule="evenodd" fill-opacity="1" /><path clip-path="url(#clip330)" d="M100.76 752.629 Q97.1493 752.629 95.3206 756.193 Q93.515 759.735 93.515 766.865 Q93.515 773.971 95.3206 777.536 Q97.1493 781.078 100.76 781.078 Q104.395 781.078 106.2 777.536 Q108.029 773.971 108.029 766.865 Q108.029 759.735 106.2 756.193 Q104.395 752.629 100.76 752.629 M100.76 748.925 Q106.571 748.925 109.626 753.531 Q112.705 758.115 112.705 766.865 Q112.705 775.591 109.626 780.198 Q106.571 784.781 100.76 784.781 Q94.9502 784.781 91.8715 780.198 Q88.816 775.591 88.816 766.865 Q88.816 758.115 91.8715 753.531 Q94.9502 748.925 100.76 748.925 Z" fill="#000000" fill-rule="evenodd" fill-opacity="1" /><path clip-path="url(#clip330)" d="M120.922 778.23 L125.807 778.23 L125.807 784.11 L120.922 784.11 L120.922 778.23 Z" fill="#000000" fill-rule="evenodd" fill-opacity="1" /><path clip-path="url(#clip330)" d="M145.992 752.629 Q142.381 752.629 140.552 756.193 Q138.746 759.735 138.746 766.865 Q138.746 773.971 140.552 777.536 Q142.381 781.078 145.992 781.078 Q149.626 781.078 151.431 777.536 Q153.26 773.971 153.26 766.865 Q153.26 759.735 151.431 756.193 Q149.626 752.629 145.992 752.629 M145.992 748.925 Q151.802 748.925 154.857 753.531 Q157.936 758.115 157.936 766.865 Q157.936 775.591 154.857 780.198 Q151.802 784.781 145.992 784.781 Q140.181 784.781 137.103 780.198 Q134.047 775.591 134.047 766.865 Q134.047 758.115 137.103 753.531 Q140.181 748.925 145.992 748.925 Z" fill="#000000" fill-rule="evenodd" fill-opacity="1" /><path clip-path="url(#clip330)" d="M101.756 413.146 Q98.1447 413.146 96.316 416.711 Q94.5104 420.253 94.5104 427.382 Q94.5104 434.489 96.316 438.054 Q98.1447 441.595 101.756 441.595 Q105.39 441.595 107.196 438.054 Q109.024 434.489 109.024 427.382 Q109.024 420.253 107.196 416.711 Q105.39 413.146 101.756 413.146 M101.756 409.443 Q107.566 409.443 110.621 414.049 Q113.7 418.632 113.7 427.382 Q113.7 436.109 110.621 440.716 Q107.566 445.299 101.756 445.299 Q95.9456 445.299 92.8669 440.716 Q89.8114 436.109 89.8114 427.382 Q89.8114 418.632 92.8669 414.049 Q95.9456 409.443 101.756 409.443 Z" fill="#000000" fill-rule="evenodd" fill-opacity="1" /><path clip-path="url(#clip330)" d="M121.918 438.748 L126.802 438.748 L126.802 444.628 L121.918 444.628 L121.918 438.748 Z" fill="#000000" fill-rule="evenodd" fill-opacity="1" /><path clip-path="url(#clip330)" d="M137.033 410.068 L155.39 410.068 L155.39 414.003 L141.316 414.003 L141.316 422.475 Q142.334 422.128 143.353 421.966 Q144.371 421.781 145.39 421.781 Q151.177 421.781 154.556 424.952 Q157.936 428.123 157.936 433.54 Q157.936 439.118 154.464 442.22 Q150.992 445.299 144.672 445.299 Q142.496 445.299 140.228 444.929 Q137.982 444.558 135.575 443.817 L135.575 439.118 Q137.658 440.253 139.881 440.808 Q142.103 441.364 144.58 441.364 Q148.584 441.364 150.922 439.257 Q153.26 437.151 153.26 433.54 Q153.26 429.929 150.922 427.822 Q148.584 425.716 144.58 425.716 Q142.705 425.716 140.83 426.132 Q138.978 426.549 137.033 427.429 L137.033 410.068 Z" fill="#000000" fill-rule="evenodd" fill-opacity="1" /><path clip-path="url(#clip330)" d="M91.5706 101.21 L99.2095 101.21 L99.2095 74.8446 L90.8993 76.5112 L90.8993 72.252 L99.1632 70.5853 L103.839 70.5853 L103.839 101.21 L111.478 101.21 L111.478 105.145 L91.5706 105.145 L91.5706 101.21 Z" fill="#000000" fill-rule="evenodd" fill-opacity="1" /><path clip-path="url(#clip330)" d="M120.922 99.2657 L125.807 99.2657 L125.807 105.145 L120.922 105.145 L120.922 99.2657 Z" fill="#000000" fill-rule="evenodd" fill-opacity="1" /><path clip-path="url(#clip330)" d="M145.992 73.664 Q142.381 73.664 140.552 77.2288 Q138.746 80.7705 138.746 87.9001 Q138.746 95.0065 140.552 98.5713 Q142.381 102.113 145.992 102.113 Q149.626 102.113 151.431 98.5713 Q153.26 95.0065 153.26 87.9001 Q153.26 80.7705 151.431 77.2288 Q149.626 73.664 145.992 73.664 M145.992 69.9604 Q151.802 69.9604 154.857 74.5668 Q157.936 79.1501 157.936 87.9001 Q157.936 96.6269 154.857 101.233 Q151.802 105.817 145.992 105.817 Q140.181 105.817 137.103 101.233 Q134.047 96.6269 134.047 87.9001 Q134.047 79.1501 137.103 74.5668 Q140.181 69.9604 145.992 69.9604 Z" fill="#000000" fill-rule="evenodd" fill-opacity="1" /><polyline clip-path="url(#clip332)" style="stroke:#009af9; stroke-linecap:butt; stroke-linejoin:round; stroke-width:4; stroke-opacity:1; fill:none" points="
  255.035,91.2573 509.612,1442.4 764.19,91.2573 1018.77,1442.4 1273.35,91.2573 1527.92,1442.4 1782.5,91.2573 2037.08,1442.4 2291.66,91.2573 
  "/>
<circle clip-path="url(#clip332)" cx="255.035" cy="91.2573" r="14" fill="#009af9" fill-rule="evenodd" fill-opacity="1" stroke="#000000" stroke-opacity="1" stroke-width="3.2"/>
<circle clip-path="url(#clip332)" cx="509.612" cy="1442.4" r="14" fill="#009af9" fill-rule="evenodd" fill-opacity="1" stroke="#000000" stroke-opacity="1" stroke-width="3.2"/>
<circle clip-path="url(#clip332)" cx="764.19" cy="91.2573" r="14" fill="#009af9" fill-rule="evenodd" fill-opacity="1" stroke="#000000" stroke-opacity="1" stroke-width="3.2"/>
<circle clip-path="url(#clip332)" cx="1018.77" cy="1442.4" r="14" fill="#009af9" fill-rule="evenodd" fill-opacity="1" stroke="#000000" stroke-opacity="1" stroke-width="3.2"/>
<circle clip-path="url(#clip332)" cx="1273.35" cy="91.2573" r="14" fill="#009af9" fill-rule="evenodd" fill-opacity="1" stroke="#000000" stroke-opacity="1" stroke-width="3.2"/>
<circle clip-path="url(#clip332)" cx="1527.92" cy="1442.4" r="14" fill="#009af9" fill-rule="evenodd" fill-opacity="1" stroke="#000000" stroke-opacity="1" stroke-width="3.2"/>
<circle clip-path="url(#clip332)" cx="1782.5" cy="91.2573" r="14" fill="#009af9" fill-rule="evenodd" fill-opacity="1" stroke="#000000" stroke-opacity="1" stroke-width="3.2"/>
<circle clip-path="url(#clip332)" cx="2037.08" cy="1442.4" r="14" fill="#009af9" fill-rule="evenodd" fill-opacity="1" stroke="#000000" stroke-opacity="1" stroke-width="3.2"/>
<circle clip-path="url(#clip332)" cx="2291.66" cy="91.2573" r="14" fill="#009af9" fill-rule="evenodd" fill-opacity="1" stroke="#000000" stroke-opacity="1" stroke-width="3.2"/>
<polyline clip-path="url(#clip332)" style="stroke:#e26f46; stroke-linecap:butt; stroke-linejoin:round; stroke-width:4; stroke-opacity:1; fill:none" points="
  255.035,91.2573 260.007,96.6854 264.979,104.636 269.952,115.079 274.924,127.975 286.418,166.891 297.912,217.858 309.406,279.851 320.9,351.625 343.888,518.583 
  366.877,705.385 389.865,897.098 412.853,1078.4 424.347,1160.55 435.841,1234.79 447.335,1299.64 458.829,1353.78 465.737,1380.71 472.644,1403.17 479.552,1421.02 
  486.459,1434.12 493.366,1442.37 500.274,1445.72 507.181,1444.13 514.089,1437.63 520.996,1426.26 527.904,1410.09 534.811,1389.26 541.719,1363.91 548.626,1334.22 
  555.534,1300.41 562.441,1262.73 569.348,1221.44 581.029,1144.29 592.709,1059.31 604.39,968.262 616.07,873.037 639.431,677.998 662.791,490.291 675.479,396.978 
  688.167,312.713 700.856,239.559 713.544,179.306 726.232,133.426 738.92,103.044 751.608,88.9021 764.296,91.3465 775.993,108.249 787.691,138.851 799.388,182.515 
  811.085,238.333 822.783,305.144 834.48,381.559 846.177,465.988 857.875,556.674 882.956,763.315 908.038,970.291 920.579,1067.71 933.119,1157.93 945.66,1238.81 
  958.201,1308.4 965.466,1342.89 972.731,1372.75 979.995,1397.74 987.26,1417.67 994.525,1432.37 1001.79,1441.73 1009.05,1445.66 1016.32,1444.14 1023.58,1437.18 
  1030.85,1424.84 1038.11,1407.21 1045.38,1384.44 1052.64,1356.71 1059.91,1324.24 1067.17,1287.29 1074.44,1246.16 1087.35,1163.79 1100.26,1071.36 1113.18,971.218 
  1126.09,865.895 1151.91,650.451 1177.74,446.727 1189.06,366.453 1200.38,293.983 1211.71,230.73 1223.03,177.928 1234.35,136.604 1245.67,107.565 1257,91.3769 
  1268.32,88.355 1280.67,100.125 1293.01,127.339 1305.36,169.365 1317.7,225.231 1330.05,293.641 1342.39,373.013 1354.74,461.506 1367.08,557.072 1391.92,761.684 
  1416.75,966.774 1429.17,1063.48 1441.59,1153.23 1454.01,1233.92 1466.43,1303.67 1480.16,1366.08 1493.89,1411.32 1500.75,1427.09 1507.62,1438.11 1514.48,1444.32 
  1521.35,1445.67 1528.21,1442.16 1535.08,1433.79 1541.94,1420.65 1548.81,1402.81 1562.54,1353.62 1576.27,1287.62 1589.33,1210.94 1602.4,1122.74 1615.46,1025.32 
  1628.52,921.189 1654.65,703.726 1680.78,492.766 1694.36,392.967 1707.95,303.648 1721.53,227.314 1735.11,166.103 1741.9,141.723 1748.7,121.731 1755.49,106.269 
  1762.28,95.4436 1769.07,89.3318 1775.86,87.9763 1782.65,91.3866 1789.45,99.5388 1800.88,123.801 1812.31,160.845 1823.75,209.934 1835.18,270.093 1846.62,340.126 
  1858.05,418.641 1869.49,504.076 1880.92,594.735 1908.84,826.692 1936.76,1051.61 1950.72,1153.05 1964.68,1243.06 1978.64,1318.97 1992.6,1378.53 1999.16,1400.36 
  2005.72,1418.03 2012.29,1431.44 2018.85,1440.5 2025.41,1445.14 2031.97,1445.33 2038.53,1441.08 2045.09,1432.41 2058.21,1402.07 2071.34,1355.11 2084.46,1292.76 
  2097.58,1216.64 2108.1,1147.08 2118.61,1071.12 2129.12,990.046 2139.63,905.224 2160.65,730.067 2181.68,557.37 2192.19,475.585 2202.7,398.694 2213.21,327.989 
  2223.73,264.658 2234.24,209.765 2244.75,164.234 2255.26,128.828 2265.77,104.144 2272.24,94.4669 2278.72,89.0752 2285.19,88.0031 2291.66,91.2573 
  "/>
<path clip-path="url(#clip330)" d="
M1988.5 250.738 L2280.8 250.738 L2280.8 95.2176 L1988.5 95.2176  Z
  " fill="#ffffff" fill-rule="evenodd" fill-opacity="1"/>
<polyline clip-path="url(#clip330)" style="stroke:#000000; stroke-linecap:butt; stroke-linejoin:round; stroke-width:4; stroke-opacity:1; fill:none" points="
  1988.5,250.738 2280.8,250.738 2280.8,95.2176 1988.5,95.2176 1988.5,250.738 
  "/>
<polyline clip-path="url(#clip330)" style="stroke:#009af9; stroke-linecap:butt; stroke-linejoin:round; stroke-width:4; stroke-opacity:1; fill:none" points="
  2012.48,147.058 2156.4,147.058 
  "/>
<circle clip-path="url(#clip330)" cx="2084.44" cy="147.058" r="23" fill="#009af9" fill-rule="evenodd" fill-opacity="1" stroke="#000000" stroke-opacity="1" stroke-width="5.12"/>
<path clip-path="url(#clip330)" d="M2194.23 166.745 Q2192.43 171.375 2190.72 172.787 Q2189 174.199 2186.13 174.199 L2182.73 174.199 L2182.73 170.634 L2185.23 170.634 Q2186.99 170.634 2187.96 169.8 Q2188.93 168.967 2190.11 165.865 L2190.88 163.921 L2180.39 138.412 L2184.91 138.412 L2193.01 158.689 L2201.11 138.412 L2205.62 138.412 L2194.23 166.745 Z" fill="#000000" fill-rule="evenodd" fill-opacity="1" /><path clip-path="url(#clip330)" d="M2212.91 160.402 L2220.55 160.402 L2220.55 134.037 L2212.24 135.703 L2212.24 131.444 L2220.51 129.778 L2225.18 129.778 L2225.18 160.402 L2232.82 160.402 L2232.82 164.338 L2212.91 164.338 L2212.91 160.402 Z" fill="#000000" fill-rule="evenodd" fill-opacity="1" /><polyline clip-path="url(#clip330)" style="stroke:#e26f46; stroke-linecap:butt; stroke-linejoin:round; stroke-width:4; stroke-opacity:1; fill:none" points="
  2012.48,198.898 2156.4,198.898 
  "/>
<path clip-path="url(#clip330)" d="M2194.23 218.585 Q2192.43 223.215 2190.72 224.627 Q2189 226.039 2186.13 226.039 L2182.73 226.039 L2182.73 222.474 L2185.23 222.474 Q2186.99 222.474 2187.96 221.64 Q2188.93 220.807 2190.11 217.705 L2190.88 215.761 L2180.39 190.252 L2184.91 190.252 L2193.01 210.529 L2201.11 190.252 L2205.62 190.252 L2194.23 218.585 Z" fill="#000000" fill-rule="evenodd" fill-opacity="1" /><path clip-path="url(#clip330)" d="M2216.13 212.242 L2232.45 212.242 L2232.45 216.178 L2210.51 216.178 L2210.51 212.242 Q2213.17 209.488 2217.75 204.858 Q2222.36 200.205 2223.54 198.863 Q2225.78 196.34 2226.66 194.604 Q2227.57 192.844 2227.57 191.155 Q2227.57 188.4 2225.62 186.664 Q2223.7 184.928 2220.6 184.928 Q2218.4 184.928 2215.95 185.692 Q2213.52 186.455 2210.74 188.006 L2210.74 183.284 Q2213.56 182.15 2216.02 181.571 Q2218.47 180.993 2220.51 180.993 Q2225.88 180.993 2229.07 183.678 Q2232.27 186.363 2232.27 190.854 Q2232.27 192.983 2231.46 194.905 Q2230.67 196.803 2228.56 199.395 Q2227.98 200.067 2224.88 203.284 Q2221.78 206.479 2216.13 212.242 Z" fill="#000000" fill-rule="evenodd" fill-opacity="1" /></svg>
