<?xml version="1.0" encoding="utf-8"?>
<svg xmlns="http://www.w3.org/2000/svg" xmlns:xlink="http://www.w3.org/1999/xlink" width="600" height="400" viewBox="0 0 2400 1600">
<defs>
  <clipPath id="clip160">
    <rect x="0" y="0" width="2400" height="1600"/>
  </clipPath>
</defs>
<path clip-path="url(#clip160)" d="
M0 1600 L2400 1600 L2400 0 L0 0  Z
  " fill="#ffffff" fill-rule="evenodd" fill-opacity="1"/>
<defs>
  <clipPath id="clip161">
    <rect x="480" y="0" width="1681" height="1600"/>
  </clipPath>
</defs>
<path clip-path="url(#clip160)" d="
M186.274 1486.45 L2352.76 1486.45 L2352.76 47.2441 L186.274 47.2441  Z
  " fill="#ffffff" fill-rule="evenodd" fill-opacity="1"/>
<defs>
  <clipPath id="clip162">
    <rect x="186" y="47" width="2167" height="1440"/>
  </clipPath>
</defs>
<polyline clip-path="url(#clip162)" style="stroke:#000000; stroke-linecap:butt; stroke-linejoin:round; stroke-width:2; stroke-opacity:0.1; fill:none" points="
  247.59,1486.45 247.59,47.2441 
  "/>
<polyline clip-path="url(#clip162)" style="stroke:#000000; stroke-linecap:butt; stroke-linejoin:round; stroke-width:2; stroke-opacity:0.1; fill:none" points="
  768.98,1486.45 768.98,47.2441 
  "/>
<polyline clip-path="url(#clip162)" style="stroke:#000000; stroke-linecap:butt; stroke-linejoin:round; stroke-width:2; stroke-opacity:0.1; fill:none" points="
  1290.37,1486.45 1290.37,47.2441 
  "/>
<polyline clip-path="url(#clip162)" style="stroke:#000000; stroke-linecap:butt; stroke-linejoin:round; stroke-width:2; stroke-opacity:0.1; fill:none" points="
  1811.76,1486.45 1811.76,47.2441 
  "/>
<polyline clip-path="url(#clip162)" style="stroke:#000000; stroke-linecap:butt; stroke-linejoin:round; stroke-width:2; stroke-opacity:0.1; fill:none" points="
  2333.15,1486.45 2333.15,47.2441 
  "/>
<polyline clip-path="url(#clip160)" style="stroke:#000000; stroke-linecap:butt; stroke-linejoin:round; stroke-width:4; stroke-opacity:1; fill:none" points="
  186.274,1486.45 2352.76,1486.45 
  "/>
<polyline clip-path="url(#clip160)" style="stroke:#000000; stroke-linecap:butt; stroke-linejoin:round; stroke-width:4; stroke-opacity:1; fill:none" points="
  247.59,1486.45 247.59,1467.55 
  "/>
<polyline clip-path="url(#clip160)" style="stroke:#000000; stroke-linecap:butt; stroke-linejoin:round; stroke-width:4; stroke-opacity:1; fill:none" points="
  768.98,1486.45 768.98,1467.55 
  "/>
<polyline clip-path="url(#clip160)" style="stroke:#000000; stroke-linecap:butt; stroke-linejoin:round; stroke-width:4; stroke-opacity:1; fill:none" points="
  1290.37,1486.45 1290.37,1467.55 
  "/>
<polyline clip-path="url(#clip160)" style="stroke:#000000; stroke-linecap:butt; stroke-linejoin:round; stroke-width:4; stroke-opacity:1; fill:none" points="
  1811.76,1486.45 1811.76,1467.55 
  "/>
<polyline clip-path="url(#clip160)" style="stroke:#000000; stroke-linecap:butt; stroke-linejoin:round; stroke-width:4; stroke-opacity:1; fill:none" points="
  2333.15,1486.45 2333.15,1467.55 
  "/>
<path clip-path="url(#clip160)" d="M194.118 1530.29 L223.793 1530.29 L223.793 1534.23 L194.118 1534.23 L194.118 1530.29 Z" fill="#000000" fill-rule="evenodd" fill-opacity="1" /><path clip-path="url(#clip160)" d="M234.696 1543.18 L242.335 1543.18 L242.335 1516.82 L234.025 1518.49 L234.025 1514.23 L242.289 1512.56 L246.965 1512.56 L246.965 1543.18 L254.603 1543.18 L254.603 1547.12 L234.696 1547.12 L234.696 1543.18 Z" fill="#000000" fill-rule="evenodd" fill-opacity="1" /><path clip-path="url(#clip160)" d="M264.048 1541.24 L268.932 1541.24 L268.932 1547.12 L264.048 1547.12 L264.048 1541.24 Z" fill="#000000" fill-rule="evenodd" fill-opacity="1" /><path clip-path="url(#clip160)" d="M289.117 1515.64 Q285.506 1515.64 283.677 1519.2 Q281.872 1522.75 281.872 1529.87 Q281.872 1536.98 283.677 1540.55 Q285.506 1544.09 289.117 1544.09 Q292.751 1544.09 294.557 1540.55 Q296.386 1536.98 296.386 1529.87 Q296.386 1522.75 294.557 1519.2 Q292.751 1515.64 289.117 1515.64 M289.117 1511.93 Q294.927 1511.93 297.983 1516.54 Q301.061 1521.12 301.061 1529.87 Q301.061 1538.6 297.983 1543.21 Q294.927 1547.79 289.117 1547.79 Q283.307 1547.79 280.228 1543.21 Q277.173 1538.6 277.173 1529.87 Q277.173 1521.12 280.228 1516.54 Q283.307 1511.93 289.117 1511.93 Z" fill="#000000" fill-rule="evenodd" fill-opacity="1" /><path clip-path="url(#clip160)" d="M716.006 1530.29 L745.682 1530.29 L745.682 1534.23 L716.006 1534.23 L716.006 1530.29 Z" fill="#000000" fill-rule="evenodd" fill-opacity="1" /><path clip-path="url(#clip160)" d="M765.774 1515.64 Q762.163 1515.64 760.334 1519.2 Q758.529 1522.75 758.529 1529.87 Q758.529 1536.98 760.334 1540.55 Q762.163 1544.09 765.774 1544.09 Q769.408 1544.09 771.214 1540.55 Q773.043 1536.98 773.043 1529.87 Q773.043 1522.75 771.214 1519.2 Q769.408 1515.64 765.774 1515.64 M765.774 1511.93 Q771.584 1511.93 774.64 1516.54 Q777.718 1521.12 777.718 1529.87 Q777.718 1538.6 774.64 1543.21 Q771.584 1547.79 765.774 1547.79 Q759.964 1547.79 756.885 1543.21 Q753.83 1538.6 753.83 1529.87 Q753.83 1521.12 756.885 1516.54 Q759.964 1511.93 765.774 1511.93 Z" fill="#000000" fill-rule="evenodd" fill-opacity="1" /><path clip-path="url(#clip160)" d="M785.936 1541.24 L790.82 1541.24 L790.82 1547.12 L785.936 1547.12 L785.936 1541.24 Z" fill="#000000" fill-rule="evenodd" fill-opacity="1" /><path clip-path="url(#clip160)" d="M801.052 1512.56 L819.408 1512.56 L819.408 1516.5 L805.334 1516.5 L805.334 1524.97 Q806.353 1524.62 807.371 1524.46 Q808.39 1524.27 809.408 1524.27 Q815.195 1524.27 818.575 1527.44 Q821.954 1530.62 821.954 1536.03 Q821.954 1541.61 818.482 1544.71 Q815.01 1547.79 808.69 1547.79 Q806.515 1547.79 804.246 1547.42 Q802.001 1547.05 799.593 1546.31 L799.593 1541.61 Q801.677 1542.74 803.899 1543.3 Q806.121 1543.86 808.598 1543.86 Q812.603 1543.86 814.94 1541.75 Q817.278 1539.64 817.278 1536.03 Q817.278 1532.42 814.94 1530.31 Q812.603 1528.21 808.598 1528.21 Q806.723 1528.21 804.848 1528.62 Q802.996 1529.04 801.052 1529.92 L801.052 1512.56 Z" fill="#000000" fill-rule="evenodd" fill-opacity="1" /><path clip-path="url(#clip160)" d="M1267.75 1515.64 Q1264.14 1515.64 1262.32 1519.2 Q1260.51 1522.75 1260.51 1529.87 Q1260.51 1536.98 1262.32 1540.55 Q1264.14 1544.09 1267.75 1544.09 Q1271.39 1544.09 1273.19 1540.55 Q1275.02 1536.98 1275.02 1529.87 Q1275.02 1522.75 1273.19 1519.2 Q1271.39 1515.64 1267.75 1515.64 M1267.75 1511.93 Q1273.57 1511.93 1276.62 1516.54 Q1279.7 1521.12 1279.7 1529.87 Q1279.7 1538.6 1276.62 1543.21 Q1273.57 1547.79 1267.75 1547.79 Q1261.94 1547.79 1258.87 1543.21 Q1255.81 1538.6 1255.81 1529.87 Q1255.81 1521.12 1258.87 1516.54 Q1261.94 1511.93 1267.75 1511.93 Z" fill="#000000" fill-rule="evenodd" fill-opacity="1" /><path clip-path="url(#clip160)" d="M1287.92 1541.24 L1292.8 1541.24 L1292.8 1547.12 L1287.92 1547.12 L1287.92 1541.24 Z" fill="#000000" fill-rule="evenodd" fill-opacity="1" /><path clip-path="url(#clip160)" d="M1312.99 1515.64 Q1309.38 1515.64 1307.55 1519.2 Q1305.74 1522.75 1305.74 1529.87 Q1305.74 1536.98 1307.55 1540.55 Q1309.38 1544.09 1312.99 1544.09 Q1316.62 1544.09 1318.43 1540.55 Q1320.25 1536.98 1320.25 1529.87 Q1320.25 1522.75 1318.43 1519.2 Q1316.62 1515.64 1312.99 1515.64 M1312.99 1511.93 Q1318.8 1511.93 1321.85 1516.54 Q1324.93 1521.12 1324.93 1529.87 Q1324.93 1538.6 1321.85 1543.21 Q1318.8 1547.79 1312.99 1547.79 Q1307.18 1547.79 1304.1 1543.21 Q1301.04 1538.6 1301.04 1529.87 Q1301.04 1521.12 1304.1 1516.54 Q1307.18 1511.93 1312.99 1511.93 Z" fill="#000000" fill-rule="evenodd" fill-opacity="1" /><path clip-path="url(#clip160)" d="M1789.64 1515.64 Q1786.03 1515.64 1784.2 1519.2 Q1782.4 1522.75 1782.4 1529.87 Q1782.4 1536.98 1784.2 1540.55 Q1786.03 1544.09 1789.64 1544.09 Q1793.28 1544.09 1795.08 1540.55 Q1796.91 1536.98 1796.91 1529.87 Q1796.91 1522.75 1795.08 1519.2 Q1793.28 1515.64 1789.64 1515.64 M1789.64 1511.93 Q1795.45 1511.93 1798.51 1516.54 Q1801.59 1521.12 1801.59 1529.87 Q1801.59 1538.6 1798.51 1543.21 Q1795.45 1547.79 1789.64 1547.79 Q1783.83 1547.79 1780.75 1543.21 Q1777.7 1538.6 1777.7 1529.87 Q1777.7 1521.12 1780.75 1516.54 Q1783.83 1511.93 1789.64 1511.93 Z" fill="#000000" fill-rule="evenodd" fill-opacity="1" /><path clip-path="url(#clip160)" d="M1809.81 1541.24 L1814.69 1541.24 L1814.69 1547.12 L1809.81 1547.12 L1809.81 1541.24 Z" fill="#000000" fill-rule="evenodd" fill-opacity="1" /><path clip-path="url(#clip160)" d="M1824.92 1512.56 L1843.28 1512.56 L1843.28 1516.5 L1829.2 1516.5 L1829.2 1524.97 Q1830.22 1524.62 1831.24 1524.46 Q1832.26 1524.27 1833.28 1524.27 Q1839.06 1524.27 1842.44 1527.44 Q1845.82 1530.62 1845.82 1536.03 Q1845.82 1541.61 1842.35 1544.71 Q1838.88 1547.79 1832.56 1547.79 Q1830.38 1547.79 1828.12 1547.42 Q1825.87 1547.05 1823.46 1546.31 L1823.46 1541.61 Q1825.55 1542.74 1827.77 1543.3 Q1829.99 1543.86 1832.47 1543.86 Q1836.47 1543.86 1838.81 1541.75 Q1841.15 1539.64 1841.15 1536.03 Q1841.15 1532.42 1838.81 1530.31 Q1836.47 1528.21 1832.47 1528.21 Q1830.59 1528.21 1828.72 1528.62 Q1826.87 1529.04 1824.92 1529.92 L1824.92 1512.56 Z" fill="#000000" fill-rule="evenodd" fill-opacity="1" /><path clip-path="url(#clip160)" d="M2300.3 1543.18 L2307.94 1543.18 L2307.94 1516.82 L2299.63 1518.49 L2299.63 1514.23 L2307.9 1512.56 L2312.57 1512.56 L2312.57 1543.18 L2320.21 1543.18 L2320.21 1547.12 L2300.3 1547.12 L2300.3 1543.18 Z" fill="#000000" fill-rule="evenodd" fill-opacity="1" /><path clip-path="url(#clip160)" d="M2329.66 1541.24 L2334.54 1541.24 L2334.54 1547.12 L2329.66 1547.12 L2329.66 1541.24 Z" fill="#000000" fill-rule="evenodd" fill-opacity="1" /><path clip-path="url(#clip160)" d="M2354.73 1515.64 Q2351.11 1515.64 2349.29 1519.2 Q2347.48 1522.75 2347.48 1529.87 Q2347.48 1536.98 2349.29 1540.55 Q2351.11 1544.09 2354.73 1544.09 Q2358.36 1544.09 2360.17 1540.55 Q2361.99 1536.98 2361.99 1529.87 Q2361.99 1522.75 2360.17 1519.2 Q2358.36 1515.64 2354.73 1515.64 M2354.73 1511.93 Q2360.54 1511.93 2363.59 1516.54 Q2366.67 1521.12 2366.67 1529.87 Q2366.67 1538.6 2363.59 1543.21 Q2360.54 1547.79 2354.73 1547.79 Q2348.92 1547.79 2345.84 1543.21 Q2342.78 1538.6 2342.78 1529.87 Q2342.78 1521.12 2345.84 1516.54 Q2348.92 1511.93 2354.73 1511.93 Z" fill="#000000" fill-rule="evenodd" fill-opacity="1" /><polyline clip-path="url(#clip162)" style="stroke:#000000; stroke-linecap:butt; stroke-linejoin:round; stroke-width:2; stroke-opacity:0.1; fill:none" points="
  186.274,1445.84 2352.76,1445.84 
  "/>
<polyline clip-path="url(#clip162)" style="stroke:#000000; stroke-linecap:butt; stroke-linejoin:round; stroke-width:2; stroke-opacity:0.1; fill:none" points="
  186.274,1110.93 2352.76,1110.93 
  "/>
<polyline clip-path="url(#clip162)" style="stroke:#000000; stroke-linecap:butt; stroke-linejoin:round; stroke-width:2; stroke-opacity:0.1; fill:none" points="
  186.274,776.026 2352.76,776.026 
  "/>
<polyline clip-path="url(#clip162)" style="stroke:#000000; stroke-linecap:butt; stroke-linejoin:round; stroke-width:2; stroke-opacity:0.1; fill:none" points="
  186.274,441.119 2352.76,441.119 
  "/>
<polyline clip-path="url(#clip162)" style="stroke:#000000; stroke-linecap:butt; stroke-linejoin:round; stroke-width:2; stroke-opacity:0.1; fill:none" points="
  186.274,106.212 2352.76,106.212 
  "/>
<polyline clip-path="url(#clip160)" style="stroke:#000000; stroke-linecap:butt; stroke-linejoin:round; stroke-width:4; stroke-opacity:1; fill:none" points="
  186.274,1486.45 186.274,47.2441 
  "/>
<polyline clip-path="url(#clip160)" style="stroke:#000000; stroke-linecap:butt; stroke-linejoin:round; stroke-width:4; stroke-opacity:1; fill:none" points="
  186.274,1445.84 205.172,1445.84 
  "/>
<polyline clip-path="url(#clip160)" style="stroke:#000000; stroke-linecap:butt; stroke-linejoin:round; stroke-width:4; stroke-opacity:1; fill:none" points="
  186.274,1110.93 205.172,1110.93 
  "/>
<polyline clip-path="url(#clip160)" style="stroke:#000000; stroke-linecap:butt; stroke-linejoin:round; stroke-width:4; stroke-opacity:1; fill:none" points="
  186.274,776.026 205.172,776.026 
  "/>
<polyline clip-path="url(#clip160)" style="stroke:#000000; stroke-linecap:butt; stroke-linejoin:round; stroke-width:4; stroke-opacity:1; fill:none" points="
  186.274,441.119 205.172,441.119 
  "/>
<polyline clip-path="url(#clip160)" style="stroke:#000000; stroke-linecap:butt; stroke-linejoin:round; stroke-width:4; stroke-opacity:1; fill:none" points="
  186.274,106.212 205.172,106.212 
  "/>
<path clip-path="url(#clip160)" d="M62.9365 1431.64 Q59.3254 1431.64 57.4967 1435.2 Q55.6912 1438.74 55.6912 1445.87 Q55.6912 1452.98 57.4967 1456.55 Q59.3254 1460.09 62.9365 1460.09 Q66.5707 1460.09 68.3763 1456.55 Q70.205 1452.98 70.205 1445.87 Q70.205 1438.74 68.3763 1435.2 Q66.5707 1431.64 62.9365 1431.64 M62.9365 1427.93 Q68.7467 1427.93 71.8022 1432.54 Q74.8809 1437.12 74.8809 1445.87 Q74.8809 1454.6 71.8022 1459.21 Q68.7467 1463.79 62.9365 1463.79 Q57.1264 1463.79 54.0477 1459.21 Q50.9921 1454.6 50.9921 1445.87 Q50.9921 1437.12 54.0477 1432.54 Q57.1264 1427.93 62.9365 1427.93 Z" fill="#000000" fill-rule="evenodd" fill-opacity="1" /><path clip-path="url(#clip160)" d="M83.0984 1457.24 L87.9827 1457.24 L87.9827 1463.12 L83.0984 1463.12 L83.0984 1457.24 Z" fill="#000000" fill-rule="evenodd" fill-opacity="1" /><path clip-path="url(#clip160)" d="M108.168 1431.64 Q104.557 1431.64 102.728 1435.2 Q100.922 1438.74 100.922 1445.87 Q100.922 1452.98 102.728 1456.55 Q104.557 1460.09 108.168 1460.09 Q111.802 1460.09 113.608 1456.55 Q115.436 1452.98 115.436 1445.87 Q115.436 1438.74 113.608 1435.2 Q111.802 1431.64 108.168 1431.64 M108.168 1427.93 Q113.978 1427.93 117.033 1432.54 Q120.112 1437.12 120.112 1445.87 Q120.112 1454.6 117.033 1459.21 Q113.978 1463.79 108.168 1463.79 Q102.358 1463.79 99.2789 1459.21 Q96.2234 1454.6 96.2234 1445.87 Q96.2234 1437.12 99.2789 1432.54 Q102.358 1427.93 108.168 1427.93 Z" fill="#000000" fill-rule="evenodd" fill-opacity="1" /><path clip-path="url(#clip160)" d="M138.33 1431.64 Q134.719 1431.64 132.89 1435.2 Q131.084 1438.74 131.084 1445.87 Q131.084 1452.98 132.89 1456.55 Q134.719 1460.09 138.33 1460.09 Q141.964 1460.09 143.769 1456.55 Q145.598 1452.98 145.598 1445.87 Q145.598 1438.74 143.769 1435.2 Q141.964 1431.64 138.33 1431.64 M138.33 1427.93 Q144.14 1427.93 147.195 1432.54 Q150.274 1437.12 150.274 1445.87 Q150.274 1454.6 147.195 1459.21 Q144.14 1463.79 138.33 1463.79 Q132.519 1463.79 129.441 1459.21 Q126.385 1454.6 126.385 1445.87 Q126.385 1437.12 129.441 1432.54 Q132.519 1427.93 138.33 1427.93 Z" fill="#000000" fill-rule="evenodd" fill-opacity="1" /><path clip-path="url(#clip160)" d="M63.9319 1096.73 Q60.3208 1096.73 58.4921 1100.3 Q56.6865 1103.84 56.6865 1110.97 Q56.6865 1118.07 58.4921 1121.64 Q60.3208 1125.18 63.9319 1125.18 Q67.5661 1125.18 69.3717 1121.64 Q71.2004 1118.07 71.2004 1110.97 Q71.2004 1103.84 69.3717 1100.3 Q67.5661 1096.73 63.9319 1096.73 M63.9319 1093.03 Q69.742 1093.03 72.7976 1097.63 Q75.8763 1102.22 75.8763 1110.97 Q75.8763 1119.69 72.7976 1124.3 Q69.742 1128.88 63.9319 1128.88 Q58.1217 1128.88 55.043 1124.3 Q51.9875 1119.69 51.9875 1110.97 Q51.9875 1102.22 55.043 1097.63 Q58.1217 1093.03 63.9319 1093.03 Z" fill="#000000" fill-rule="evenodd" fill-opacity="1" /><path clip-path="url(#clip160)" d="M84.0938 1122.33 L88.978 1122.33 L88.978 1128.21 L84.0938 1128.21 L84.0938 1122.33 Z" fill="#000000" fill-rule="evenodd" fill-opacity="1" /><path clip-path="url(#clip160)" d="M103.191 1124.28 L119.51 1124.28 L119.51 1128.21 L97.566 1128.21 L97.566 1124.28 Q100.228 1121.52 104.811 1116.89 Q109.418 1112.24 110.598 1110.9 Q112.844 1108.37 113.723 1106.64 Q114.626 1104.88 114.626 1103.19 Q114.626 1100.44 112.682 1098.7 Q110.76 1096.96 107.658 1096.96 Q105.459 1096.96 103.006 1097.73 Q100.575 1098.49 97.7974 1100.04 L97.7974 1095.32 Q100.621 1094.19 103.075 1093.61 Q105.529 1093.03 107.566 1093.03 Q112.936 1093.03 116.131 1095.71 Q119.325 1098.4 119.325 1102.89 Q119.325 1105.02 118.515 1106.94 Q117.728 1108.84 115.621 1111.43 Q115.043 1112.1 111.941 1115.32 Q108.839 1118.51 103.191 1124.28 Z" fill="#000000" fill-rule="evenodd" fill-opacity="1" /><path clip-path="url(#clip160)" d="M129.371 1093.65 L147.728 1093.65 L147.728 1097.59 L133.654 1097.59 L133.654 1106.06 Q134.672 1105.71 135.691 1105.55 Q136.709 1105.37 137.728 1105.37 Q143.515 1105.37 146.894 1108.54 Q150.274 1111.71 150.274 1117.12 Q150.274 1122.7 146.802 1125.81 Q143.33 1128.88 137.01 1128.88 Q134.834 1128.88 132.566 1128.51 Q130.32 1128.14 127.913 1127.4 L127.913 1122.7 Q129.996 1123.84 132.219 1124.39 Q134.441 1124.95 136.918 1124.95 Q140.922 1124.95 143.26 1122.84 Q145.598 1120.74 145.598 1117.12 Q145.598 1113.51 143.26 1111.41 Q140.922 1109.3 136.918 1109.3 Q135.043 1109.3 133.168 1109.72 Q131.316 1110.13 129.371 1111.01 L129.371 1093.65 Z" fill="#000000" fill-rule="evenodd" fill-opacity="1" /><path clip-path="url(#clip160)" d="M62.9365 761.824 Q59.3254 761.824 57.4967 765.389 Q55.6912 768.931 55.6912 776.06 Q55.6912 783.167 57.4967 786.732 Q59.3254 790.273 62.9365 790.273 Q66.5707 790.273 68.3763 786.732 Q70.205 783.167 70.205 776.06 Q70.205 768.931 68.3763 765.389 Q66.5707 761.824 62.9365 761.824 M62.9365 758.121 Q68.7467 758.121 71.8022 762.727 Q74.8809 767.31 74.8809 776.06 Q74.8809 784.787 71.8022 789.394 Q68.7467 793.977 62.9365 793.977 Q57.1264 793.977 54.0477 789.394 Q50.9921 784.787 50.9921 776.06 Q50.9921 767.31 54.0477 762.727 Q57.1264 758.121 62.9365 758.121 Z" fill="#000000" fill-rule="evenodd" fill-opacity="1" /><path clip-path="url(#clip160)" d="M83.0984 787.426 L87.9827 787.426 L87.9827 793.306 L83.0984 793.306 L83.0984 787.426 Z" fill="#000000" fill-rule="evenodd" fill-opacity="1" /><path clip-path="url(#clip160)" d="M98.2141 758.746 L116.57 758.746 L116.57 762.681 L102.496 762.681 L102.496 771.153 Q103.515 770.806 104.534 770.644 Q105.552 770.459 106.571 770.459 Q112.358 770.459 115.737 773.63 Q119.117 776.801 119.117 782.218 Q119.117 787.796 115.645 790.898 Q112.172 793.977 105.853 793.977 Q103.677 793.977 101.409 793.607 Q99.1632 793.236 96.7558 792.495 L96.7558 787.796 Q98.8391 788.931 101.061 789.486 Q103.284 790.042 105.76 790.042 Q109.765 790.042 112.103 787.935 Q114.441 785.829 114.441 782.218 Q114.441 778.607 112.103 776.5 Q109.765 774.394 105.76 774.394 Q103.885 774.394 102.01 774.81 Q100.159 775.227 98.2141 776.107 L98.2141 758.746 Z" fill="#000000" fill-rule="evenodd" fill-opacity="1" /><path clip-path="url(#clip160)" d="M138.33 761.824 Q134.719 761.824 132.89 765.389 Q131.084 768.931 131.084 776.06 Q131.084 783.167 132.89 786.732 Q134.719 790.273 138.33 790.273 Q141.964 790.273 143.769 786.732 Q145.598 783.167 145.598 776.06 Q145.598 768.931 143.769 765.389 Q141.964 761.824 138.33 761.824 M138.33 758.121 Q144.14 758.121 147.195 762.727 Q150.274 767.31 150.274 776.06 Q150.274 784.787 147.195 789.394 Q144.14 793.977 138.33 793.977 Q132.519 793.977 129.441 789.394 Q126.385 784.787 126.385 776.06 Q126.385 767.31 129.441 762.727 Q132.519 758.121 138.33 758.121 Z" fill="#000000" fill-rule="evenodd" fill-opacity="1" /><path clip-path="url(#clip160)" d="M63.9319 426.917 Q60.3208 426.917 58.4921 430.482 Q56.6865 434.024 56.6865 441.153 Q56.6865 448.26 58.4921 451.825 Q60.3208 455.366 63.9319 455.366 Q67.5661 455.366 69.3717 451.825 Q71.2004 448.26 71.2004 441.153 Q71.2004 434.024 69.3717 430.482 Q67.5661 426.917 63.9319 426.917 M63.9319 423.214 Q69.742 423.214 72.7976 427.82 Q75.8763 432.403 75.8763 441.153 Q75.8763 449.88 72.7976 454.487 Q69.742 459.07 63.9319 459.07 Q58.1217 459.07 55.043 454.487 Q51.9875 449.88 51.9875 441.153 Q51.9875 432.403 55.043 427.82 Q58.1217 423.214 63.9319 423.214 Z" fill="#000000" fill-rule="evenodd" fill-opacity="1" /><path clip-path="url(#clip160)" d="M84.0938 452.519 L88.978 452.519 L88.978 458.399 L84.0938 458.399 L84.0938 452.519 Z" fill="#000000" fill-rule="evenodd" fill-opacity="1" /><path clip-path="url(#clip160)" d="M97.9826 423.839 L120.205 423.839 L120.205 425.829 L107.658 458.399 L102.774 458.399 L114.58 427.774 L97.9826 427.774 L97.9826 423.839 Z" fill="#000000" fill-rule="evenodd" fill-opacity="1" /><path clip-path="url(#clip160)" d="M129.371 423.839 L147.728 423.839 L147.728 427.774 L133.654 427.774 L133.654 436.246 Q134.672 435.899 135.691 435.737 Q136.709 435.552 137.728 435.552 Q143.515 435.552 146.894 438.723 Q150.274 441.894 150.274 447.311 Q150.274 452.889 146.802 455.991 Q143.33 459.07 137.01 459.07 Q134.834 459.07 132.566 458.7 Q130.32 458.329 127.913 457.588 L127.913 452.889 Q129.996 454.024 132.219 454.579 Q134.441 455.135 136.918 455.135 Q140.922 455.135 143.26 453.028 Q145.598 450.922 145.598 447.311 Q145.598 443.7 143.26 441.593 Q140.922 439.487 136.918 439.487 Q135.043 439.487 133.168 439.903 Q131.316 440.32 129.371 441.2 L129.371 423.839 Z" fill="#000000" fill-rule="evenodd" fill-opacity="1" /><path clip-path="url(#clip160)" d="M53.7467 119.557 L61.3856 119.557 L61.3856 93.1909 L53.0754 94.8576 L53.0754 90.5983 L61.3393 88.9317 L66.0152 88.9317 L66.0152 119.557 L73.654 119.557 L73.654 123.492 L53.7467 123.492 L53.7467 119.557 Z" fill="#000000" fill-rule="evenodd" fill-opacity="1" /><path clip-path="url(#clip160)" d="M83.0984 117.612 L87.9827 117.612 L87.9827 123.492 L83.0984 123.492 L83.0984 117.612 Z" fill="#000000" fill-rule="evenodd" fill-opacity="1" /><path clip-path="url(#clip160)" d="M108.168 92.0104 Q104.557 92.0104 102.728 95.5752 Q100.922 99.1168 100.922 106.246 Q100.922 113.353 102.728 116.918 Q104.557 120.459 108.168 120.459 Q111.802 120.459 113.608 116.918 Q115.436 113.353 115.436 106.246 Q115.436 99.1168 113.608 95.5752 Q111.802 92.0104 108.168 92.0104 M108.168 88.3067 Q113.978 88.3067 117.033 92.9131 Q120.112 97.4964 120.112 106.246 Q120.112 114.973 117.033 119.58 Q113.978 124.163 108.168 124.163 Q102.358 124.163 99.2789 119.58 Q96.2234 114.973 96.2234 106.246 Q96.2234 97.4964 99.2789 92.9131 Q102.358 88.3067 108.168 88.3067 Z" fill="#000000" fill-rule="evenodd" fill-opacity="1" /><path clip-path="url(#clip160)" d="M138.33 92.0104 Q134.719 92.0104 132.89 95.5752 Q131.084 99.1168 131.084 106.246 Q131.084 113.353 132.89 116.918 Q134.719 120.459 138.33 120.459 Q141.964 120.459 143.769 116.918 Q145.598 113.353 145.598 106.246 Q145.598 99.1168 143.769 95.5752 Q141.964 92.0104 138.33 92.0104 M138.33 88.3067 Q144.14 88.3067 147.195 92.9131 Q150.274 97.4964 150.274 106.246 Q150.274 114.973 147.195 119.58 Q144.14 124.163 138.33 124.163 Q132.519 124.163 129.441 119.58 Q126.385 114.973 126.385 106.246 Q126.385 97.4964 129.441 92.9131 Q132.519 88.3067 138.33 88.3067 Z" fill="#000000" fill-rule="evenodd" fill-opacity="1" /><polyline clip-path="url(#clip162)" style="stroke:#009af9; stroke-linecap:butt; stroke-linejoin:round; stroke-width:4; stroke-opacity:1; fill:none" points="
  247.59,1445.67 289.301,1445.5 331.012,1445.18 372.723,1444.58 414.434,1443.5 456.146,1441.62 497.857,1438.44 539.568,1433.23 581.279,1424.96 622.991,1412.27 
  664.702,1393.37 706.413,1366.18 748.124,1328.33 789.836,1277.41 831.547,1211.27 873.258,1128.44 914.969,1028.56 956.681,912.826 998.392,784.315 1040.1,648.128 
  1081.81,511.213 1123.53,381.886 1165.24,269.048 1206.95,181.194 1248.66,125.364 1290.37,106.212 1332.08,125.364 1373.79,181.194 1415.5,269.048 1457.22,381.886 
  1498.93,511.213 1540.64,648.128 1582.35,784.315 1624.06,912.826 1665.77,1028.56 1707.48,1128.44 1749.19,1211.27 1790.91,1277.41 1832.62,1328.33 1874.33,1366.18 
  1916.04,1393.37 1957.75,1412.27 1999.46,1424.96 2041.17,1433.23 2082.88,1438.44 2124.6,1441.62 2166.31,1443.5 2208.02,1444.58 2249.73,1445.18 2291.44,1445.5 
  
  "/>
<polyline clip-path="url(#clip162)" style="stroke:#e26f46; stroke-linecap:butt; stroke-linejoin:round; stroke-width:4; stroke-opacity:1; fill:none" points="
  247.59,1444.38 289.301,1445.13 331.012,1445.51 372.723,1445.63 414.434,1445.56 456.146,1445.31 497.857,1444.82 539.568,1443.89 581.279,1442.25 622.991,1439.42 
  664.702,1434.7 706.413,1427.1 748.124,1415.26 789.836,1397.41 831.547,1371.43 873.258,1334.91 914.969,1285.35 956.681,1220.49 998.392,1138.71 1040.1,1039.51 
  1081.81,923.971 1123.53,795.103 1165.24,657.977 1206.95,519.58 1248.66,388.326 1290.37,273.25 1332.08,183.006 1373.79,124.787 1415.5,103.382 1457.22,120.522 
  1498.93,174.65 1540.64,261.153 1582.35,373.01 1624.06,501.73 1665.77,638.4 1707.48,774.684 1749.19,903.598 1790.91,1020 1832.62,1120.74 1874.33,1204.55 
  1916.04,1271.73 1957.75,1323.68 1999.46,1362.5 2041.17,1390.55 2082.88,1410.17 2124.6,1423.45 2166.31,1432.19 2208.02,1437.71 2249.73,1441.19 2291.44,1443.18 
  
  "/>
<polyline clip-path="url(#clip162)" style="stroke:#3da44d; stroke-linecap:butt; stroke-linejoin:round; stroke-width:4; stroke-opacity:1; fill:none" points="
  247.59,1437.01 289.301,1440.63 331.012,1442.86 372.723,1444.23 414.434,1445.04 456.146,1445.45 497.857,1445.62 539.568,1445.6 581.279,1445.42 622.991,1445.02 
  664.702,1444.25 706.413,1442.83 748.124,1440.34 789.836,1436.1 831.547,1429.15 873.258,1418.14 914.969,1401.34 956.681,1376.59 998.392,1341.41 1040.1,1293.23 
  1081.81,1229.67 1123.53,1148.97 1165.24,1050.49 1206.95,935.192 1248.66,805.994 1290.37,667.951 1332.08,528.091 1373.79,394.921 1415.5,277.615 1457.22,184.983 
  1498.93,124.372 1540.64,100.705 1582.35,115.816 1624.06,168.218 1665.77,253.342 1707.48,364.189 1749.19,492.27 1790.91,628.668 1832.62,765.025 1874.33,894.325 
  1916.04,1011.37 1957.75,1112.96 1999.46,1197.76 2041.17,1265.97 2082.88,1318.98 2124.6,1358.73 2166.31,1387.69 2208.02,1408.01 2249.73,1421.87 2291.44,1431.11 
  
  "/>
<polyline clip-path="url(#clip162)" style="stroke:#c271d2; stroke-linecap:butt; stroke-linejoin:round; stroke-width:4; stroke-opacity:1; fill:none" points="
  247.59,1405.78 289.301,1420.32 331.012,1429.99 372.723,1436.19 414.434,1440.1 456.146,1442.55 497.857,1444.05 539.568,1444.92 581.279,1445.39 622.991,1445.59 
  664.702,1445.63 706.413,1445.51 748.124,1445.2 789.836,1444.56 831.547,1443.36 873.258,1441.18 914.969,1437.41 956.681,1431.09 998.392,1420.92 1040.1,1405.16 
  1081.81,1381.63 1123.53,1347.82 1165.24,1301.06 1206.95,1238.83 1248.66,1159.25 1290.37,1061.52 1332.08,946.486 1373.79,816.986 1415.5,678.051 1457.22,536.744 
  1498.93,401.671 1540.64,282.143 1582.35,187.126 1624.06,124.121 1665.77,98.1827 1707.48,111.247 1749.19,161.901 1790.91,245.617 1832.62,355.424 1874.33,482.832 
  1916.04,618.942 1957.75,755.327 1999.46,885.029 2041.17,1002.67 2082.88,1105.14 2124.6,1190.91 2166.31,1260.13 2208.02,1314.19 2249.73,1354.96 2291.44,1384.69 
  
  "/>
<polyline clip-path="url(#clip162)" style="stroke:#ac8d18; stroke-linecap:butt; stroke-linejoin:round; stroke-width:4; stroke-opacity:1; fill:none" points="
  247.59,1309.34 289.301,1351.02 331.012,1381.67 372.723,1403.56 414.434,1418.68 456.146,1428.78 497.857,1435.36 539.568,1439.57 581.279,1442.22 622.991,1443.84 
  664.702,1444.79 706.413,1445.31 748.124,1445.56 789.836,1445.64 831.547,1445.58 873.258,1445.35 914.969,1444.84 956.681,1443.83 998.392,1441.96 1040.1,1438.63 
  1081.81,1432.94 1123.53,1423.59 1165.24,1408.87 1206.95,1386.58 1248.66,1354.15 1290.37,1308.81 1332.08,1247.95 1373.79,1169.52 1415.5,1072.59 1457.22,957.851 
  1498.93,828.079 1540.64,688.272 1582.35,545.537 1624.06,408.574 1665.77,286.835 1707.48,189.435 1749.19,124.04 1790.91,95.8086 1832.62,106.831 1874.33,155.681 
  1916.04,238 1957.75,346.699 1999.46,473.425 2041.17,609.218 2082.88,745.614 2124.6,875.65 2166.31,993.982 2208.02,1097.21 2249.73,1183.95 2291.44,1254.29 
  
  "/>
<polyline clip-path="url(#clip162)" style="stroke:#00a9ad; stroke-linecap:butt; stroke-linejoin:round; stroke-width:4; stroke-opacity:1; fill:none" points="
  247.59,1089.24 289.301,1177 331.012,1248.32 372.723,1304.36 414.434,1347.06 456.146,1378.63 497.857,1401.25 539.568,1416.96 581.279,1427.54 622.991,1434.51 
  664.702,1439.01 706.413,1441.86 748.124,1443.61 789.836,1444.65 831.547,1445.23 873.258,1445.53 914.969,1445.65 956.681,1445.64 998.392,1445.48 1040.1,1445.08 
  1081.81,1444.26 1123.53,1442.68 1165.24,1439.77 1206.95,1434.68 1248.66,1426.16 1290.37,1412.47 1332.08,1391.41 1373.79,1360.38 1415.5,1316.51 1457.22,1257.04 
  1498.93,1179.8 1540.64,1083.69 1582.35,969.287 1624.06,839.263 1665.77,698.622 1707.48,554.457 1749.19,415.649 1790.91,291.671 1832.62,191.931 1874.33,124.116 
  1916.04,93.5949 1957.75,102.551 1999.46,149.606 2041.17,230.421 2082.88,338.084 2124.6,464.042 2166.31,599.442 2208.02,735.922 2249.73,866.27 2291.44,985.145 
  
  "/>
<polyline clip-path="url(#clip162)" style="stroke:#ed5d92; stroke-linecap:butt; stroke-linejoin:round; stroke-width:4; stroke-opacity:1; fill:none" points="
  247.59,726.169 289.301,856.787 331.012,976.308 372.723,1081.26 414.434,1169.94 456.146,1242.25 497.857,1299.35 539.568,1343.06 581.279,1375.52 622.991,1398.87 
  664.702,1415.18 706.413,1426.27 748.124,1433.63 789.836,1438.43 831.547,1441.47 873.258,1443.36 914.969,1444.49 956.681,1445.13 998.392,1445.48 1040.1,1445.64 
  1081.81,1445.67 1123.53,1445.58 1165.24,1445.29 1206.95,1444.64 1248.66,1443.33 1290.37,1440.83 1332.08,1436.33 1373.79,1428.61 1415.5,1415.95 1457.22,1396.14 
  1498.93,1366.52 1540.64,1324.12 1582.35,1266.11 1624.06,1190.06 1665.77,1094.84 1707.48,980.772 1749.19,850.556 1790.91,709.084 1832.62,563.521 1874.33,422.858 
  1916.04,296.711 1957.75,194.546 1999.46,124.385 2041.17,91.5661 2082.88,98.3626 2124.6,143.661 2166.31,222.997 2208.02,329.451 2249.73,454.682 2291.44,589.758 
  
  "/>
<polyline clip-path="url(#clip162)" style="stroke:#c68125; stroke-linecap:butt; stroke-linejoin:round; stroke-width:4; stroke-opacity:1; fill:none" points="
  247.59,320.928 289.301,445.408 331.012,580.023 372.723,716.358 414.434,847.313 456.146,967.452 497.857,1073.18 539.568,1162.77 581.279,1236.12 622.991,1294.29 
  664.702,1339 706.413,1372.32 748.124,1396.42 789.836,1413.36 831.547,1424.96 873.258,1432.72 914.969,1437.81 956.681,1441.07 998.392,1443.1 1040.1,1444.32 
  1081.81,1445.03 1123.53,1445.42 1165.24,1445.62 1206.95,1445.7 1248.66,1445.66 1290.37,1445.46 1332.08,1444.97 1373.79,1443.9 1415.5,1441.82 1457.22,1437.87 
  1498.93,1430.96 1540.64,1419.3 1582.35,1400.78 1624.06,1372.56 1665.77,1331.68 1707.48,1275.13 1749.19,1200.33 1790.91,1106 1832.62,992.365 1874.33,861.909 
  1916.04,719.659 1957.75,572.761 1999.46,430.185 2041.17,301.89 2082.88,197.408 2124.6,124.775 2166.31,89.6536 2208.02,94.4082 2249.73,137.824 2291.44,215.586 
  
  "/>
<polyline clip-path="url(#clip162)" style="stroke:#00a98d; stroke-linecap:butt; stroke-linejoin:round; stroke-width:4; stroke-opacity:1; fill:none" points="
  247.59,90.5467 289.301,132.061 331.012,208.327 372.723,312.505 414.434,436.12 456.146,570.263 497.857,706.564 539.568,837.834 581.279,958.529 622.991,1065.01 
  664.702,1155.54 706.413,1229.94 748.124,1289.16 789.836,1334.86 831.547,1369.05 873.258,1393.91 914.969,1411.48 956.681,1423.61 998.392,1431.78 1040.1,1437.17 
  1081.81,1440.64 1123.53,1442.81 1165.24,1444.14 1206.95,1444.91 1248.66,1445.36 1290.37,1445.59 1332.08,1445.72 1373.79,1445.7 1415.5,1445.61 1457.22,1445.23 
  1498.93,1444.43 1540.64,1442.71 1582.35,1439.32 1624.06,1433.19 1665.77,1422.56 1707.48,1405.26 1749.19,1378.53 1790.91,1339.16 1832.62,1284.09 1874.33,1210.64 
  1916.04,1117.18 1957.75,1003.97 1999.46,873.419 2041.17,730.339 2082.88,582.064 2124.6,437.736 2166.31,307.257 2208.02,200.352 2249.73,125.365 2291.44,87.9763 
  
  "/>
<path clip-path="url(#clip160)" d="
M1985.68 613.618 L2280.54 613.618 L2280.54 95.2176 L1985.68 95.2176  Z
  " fill="#ffffff" fill-rule="evenodd" fill-opacity="1"/>
<polyline clip-path="url(#clip160)" style="stroke:#000000; stroke-linecap:butt; stroke-linejoin:round; stroke-width:4; stroke-opacity:1; fill:none" points="
  1985.68,613.618 2280.54,613.618 2280.54,95.2176 1985.68,95.2176 1985.68,613.618 
  "/>
<polyline clip-path="url(#clip160)" style="stroke:#009af9; stroke-linecap:butt; stroke-linejoin:round; stroke-width:4; stroke-opacity:1; fill:none" points="
  2009.75,147.058 2154.18,147.058 
  "/>
<path clip-path="url(#clip160)" d="M2192.1 166.745 Q2190.29 171.375 2188.58 172.787 Q2186.86 174.199 2183.99 174.199 L2180.59 174.199 L2180.59 170.634 L2183.09 170.634 Q2184.85 170.634 2185.82 169.8 Q2186.79 168.967 2187.97 165.865 L2188.74 163.921 L2178.25 138.412 L2182.77 138.412 L2190.87 158.689 L2198.97 138.412 L2203.48 138.412 L2192.1 166.745 Z" fill="#000000" fill-rule="evenodd" fill-opacity="1" /><path clip-path="url(#clip160)" d="M2210.78 160.402 L2218.41 160.402 L2218.41 134.037 L2210.1 135.703 L2210.1 131.444 L2218.37 129.778 L2223.04 129.778 L2223.04 160.402 L2230.68 160.402 L2230.68 164.338 L2210.78 164.338 L2210.78 160.402 Z" fill="#000000" fill-rule="evenodd" fill-opacity="1" /><polyline clip-path="url(#clip160)" style="stroke:#e26f46; stroke-linecap:butt; stroke-linejoin:round; stroke-width:4; stroke-opacity:1; fill:none" points="
  2009.75,198.898 2154.18,198.898 
  "/>
<path clip-path="url(#clip160)" d="M2192.1 218.585 Q2190.29 223.215 2188.58 224.627 Q2186.86 226.039 2183.99 226.039 L2180.59 226.039 L2180.59 222.474 L2183.09 222.474 Q2184.85 222.474 2185.82 221.64 Q2186.79 220.807 2187.97 217.705 L2188.74 215.761 L2178.25 190.252 L2182.77 190.252 L2190.87 210.529 L2198.97 190.252 L2203.48 190.252 L2192.1 218.585 Z" fill="#000000" fill-rule="evenodd" fill-opacity="1" /><path clip-path="url(#clip160)" d="M2213.99 212.242 L2230.31 212.242 L2230.31 216.178 L2208.37 216.178 L2208.37 212.242 Q2211.03 209.488 2215.61 204.858 Q2220.22 200.205 2221.4 198.863 Q2223.65 196.34 2224.53 194.604 Q2225.43 192.844 2225.43 191.155 Q2225.43 188.4 2223.48 186.664 Q2221.56 184.928 2218.46 184.928 Q2216.26 184.928 2213.81 185.692 Q2211.38 186.455 2208.6 188.006 L2208.6 183.284 Q2211.42 182.15 2213.88 181.571 Q2216.33 180.993 2218.37 180.993 Q2223.74 180.993 2226.93 183.678 Q2230.13 186.363 2230.13 190.854 Q2230.13 192.983 2229.32 194.905 Q2228.53 196.803 2226.42 199.395 Q2225.84 200.067 2222.74 203.284 Q2219.64 206.479 2213.99 212.242 Z" fill="#000000" fill-rule="evenodd" fill-opacity="1" /><polyline clip-path="url(#clip160)" style="stroke:#3da44d; stroke-linecap:butt; stroke-linejoin:round; stroke-width:4; stroke-opacity:1; fill:none" points="
  2009.75,250.738 2154.18,250.738 
  "/>
<path clip-path="url(#clip160)" d="M2192.1 270.425 Q2190.29 275.055 2188.58 276.467 Q2186.86 277.879 2183.99 277.879 L2180.59 277.879 L2180.59 274.314 L2183.09 274.314 Q2184.85 274.314 2185.82 273.48 Q2186.79 272.647 2187.97 269.545 L2188.74 267.601 L2178.25 242.092 L2182.77 242.092 L2190.87 262.369 L2198.97 242.092 L2203.48 242.092 L2192.1 270.425 Z" fill="#000000" fill-rule="evenodd" fill-opacity="1" /><path clip-path="url(#clip160)" d="M2224.13 249.383 Q2227.49 250.101 2229.36 252.369 Q2231.26 254.638 2231.26 257.971 Q2231.26 263.087 2227.74 265.888 Q2224.22 268.689 2217.74 268.689 Q2215.57 268.689 2213.25 268.249 Q2210.96 267.832 2208.51 266.976 L2208.51 262.462 Q2210.45 263.596 2212.77 264.175 Q2215.08 264.754 2217.6 264.754 Q2222 264.754 2224.29 263.018 Q2226.61 261.281 2226.61 257.971 Q2226.61 254.916 2224.46 253.203 Q2222.33 251.467 2218.51 251.467 L2214.48 251.467 L2214.48 247.624 L2218.69 247.624 Q2222.14 247.624 2223.97 246.258 Q2225.8 244.87 2225.8 242.277 Q2225.8 239.615 2223.9 238.203 Q2222.03 236.768 2218.51 236.768 Q2216.59 236.768 2214.39 237.184 Q2212.19 237.601 2209.55 238.481 L2209.55 234.314 Q2212.21 233.573 2214.53 233.203 Q2216.86 232.833 2218.92 232.833 Q2224.25 232.833 2227.35 235.263 Q2230.45 237.67 2230.45 241.791 Q2230.45 244.661 2228.81 246.652 Q2227.16 248.62 2224.13 249.383 Z" fill="#000000" fill-rule="evenodd" fill-opacity="1" /><polyline clip-path="url(#clip160)" style="stroke:#c271d2; stroke-linecap:butt; stroke-linejoin:round; stroke-width:4; stroke-opacity:1; fill:none" points="
  2009.75,302.578 2154.18,302.578 
  "/>
<path clip-path="url(#clip160)" d="M2192.1 322.265 Q2190.29 326.895 2188.58 328.307 Q2186.86 329.719 2183.99 329.719 L2180.59 329.719 L2180.59 326.154 L2183.09 326.154 Q2184.85 326.154 2185.82 325.32 Q2186.79 324.487 2187.97 321.385 L2188.74 319.441 L2178.25 293.932 L2182.77 293.932 L2190.87 314.209 L2198.97 293.932 L2203.48 293.932 L2192.1 322.265 Z" fill="#000000" fill-rule="evenodd" fill-opacity="1" /><path clip-path="url(#clip160)" d="M2222.81 289.372 L2211.01 307.821 L2222.81 307.821 L2222.81 289.372 M2221.59 285.298 L2227.47 285.298 L2227.47 307.821 L2232.4 307.821 L2232.4 311.709 L2227.47 311.709 L2227.47 319.858 L2222.81 319.858 L2222.81 311.709 L2207.21 311.709 L2207.21 307.196 L2221.59 285.298 Z" fill="#000000" fill-rule="evenodd" fill-opacity="1" /><polyline clip-path="url(#clip160)" style="stroke:#ac8d18; stroke-linecap:butt; stroke-linejoin:round; stroke-width:4; stroke-opacity:1; fill:none" points="
  2009.75,354.418 2154.18,354.418 
  "/>
<path clip-path="url(#clip160)" d="M2192.1 374.105 Q2190.29 378.735 2188.58 380.147 Q2186.86 381.559 2183.99 381.559 L2180.59 381.559 L2180.59 377.994 L2183.09 377.994 Q2184.85 377.994 2185.82 377.16 Q2186.79 376.327 2187.97 373.225 L2188.74 371.281 L2178.25 345.772 L2182.77 345.772 L2190.87 366.049 L2198.97 345.772 L2203.48 345.772 L2192.1 374.105 Z" fill="#000000" fill-rule="evenodd" fill-opacity="1" /><path clip-path="url(#clip160)" d="M2210.01 337.138 L2228.37 337.138 L2228.37 341.073 L2214.29 341.073 L2214.29 349.545 Q2215.31 349.198 2216.33 349.036 Q2217.35 348.85 2218.37 348.85 Q2224.16 348.85 2227.53 352.022 Q2230.91 355.193 2230.91 360.61 Q2230.91 366.188 2227.44 369.29 Q2223.97 372.369 2217.65 372.369 Q2215.47 372.369 2213.21 371.998 Q2210.96 371.628 2208.55 370.887 L2208.55 366.188 Q2210.64 367.323 2212.86 367.878 Q2215.08 368.434 2217.56 368.434 Q2221.56 368.434 2223.9 366.327 Q2226.24 364.221 2226.24 360.61 Q2226.24 356.999 2223.9 354.892 Q2221.56 352.786 2217.56 352.786 Q2215.68 352.786 2213.81 353.202 Q2211.96 353.619 2210.01 354.499 L2210.01 337.138 Z" fill="#000000" fill-rule="evenodd" fill-opacity="1" /><polyline clip-path="url(#clip160)" style="stroke:#00a9ad; stroke-linecap:butt; stroke-linejoin:round; stroke-width:4; stroke-opacity:1; fill:none" points="
  2009.75,406.258 2154.18,406.258 
  "/>
<path clip-path="url(#clip160)" d="M2192.1 425.945 Q2190.29 430.575 2188.58 431.987 Q2186.86 433.399 2183.99 433.399 L2180.59 433.399 L2180.59 429.834 L2183.09 429.834 Q2184.85 429.834 2185.82 429 Q2186.79 428.167 2187.97 425.065 L2188.74 423.121 L2178.25 397.612 L2182.77 397.612 L2190.87 417.889 L2198.97 397.612 L2203.48 397.612 L2192.1 425.945 Z" fill="#000000" fill-rule="evenodd" fill-opacity="1" /><path clip-path="url(#clip160)" d="M2220.54 404.394 Q2217.4 404.394 2215.54 406.547 Q2213.72 408.7 2213.72 412.45 Q2213.72 416.176 2215.54 418.352 Q2217.4 420.505 2220.54 420.505 Q2223.69 420.505 2225.52 418.352 Q2227.37 416.176 2227.37 412.45 Q2227.37 408.7 2225.52 406.547 Q2223.69 404.394 2220.54 404.394 M2229.83 389.741 L2229.83 394.001 Q2228.07 393.167 2226.26 392.728 Q2224.48 392.288 2222.72 392.288 Q2218.09 392.288 2215.64 395.413 Q2213.21 398.538 2212.86 404.857 Q2214.22 402.843 2216.28 401.778 Q2218.34 400.69 2220.82 400.69 Q2226.03 400.69 2229.04 403.862 Q2232.07 407.01 2232.07 412.45 Q2232.07 417.774 2228.92 420.991 Q2225.78 424.209 2220.54 424.209 Q2214.55 424.209 2211.38 419.626 Q2208.21 415.019 2208.21 406.292 Q2208.21 398.098 2212.09 393.237 Q2215.98 388.353 2222.53 388.353 Q2224.29 388.353 2226.08 388.7 Q2227.88 389.047 2229.83 389.741 Z" fill="#000000" fill-rule="evenodd" fill-opacity="1" /><polyline clip-path="url(#clip160)" style="stroke:#ed5d92; stroke-linecap:butt; stroke-linejoin:round; stroke-width:4; stroke-opacity:1; fill:none" points="
  2009.75,458.098 2154.18,458.098 
  "/>
<path clip-path="url(#clip160)" d="M2192.1 477.785 Q2190.29 482.415 2188.58 483.827 Q2186.86 485.239 2183.99 485.239 L2180.59 485.239 L2180.59 481.674 L2183.09 481.674 Q2184.85 481.674 2185.82 480.84 Q2186.79 480.007 2187.97 476.905 L2188.74 474.961 L2178.25 449.452 L2182.77 449.452 L2190.87 469.729 L2198.97 449.452 L2203.48 449.452 L2192.1 477.785 Z" fill="#000000" fill-rule="evenodd" fill-opacity="1" /><path clip-path="url(#clip160)" d="M2208.78 440.818 L2231.01 440.818 L2231.01 442.808 L2218.46 475.378 L2213.58 475.378 L2225.38 444.753 L2208.78 444.753 L2208.78 440.818 Z" fill="#000000" fill-rule="evenodd" fill-opacity="1" /><polyline clip-path="url(#clip160)" style="stroke:#c68125; stroke-linecap:butt; stroke-linejoin:round; stroke-width:4; stroke-opacity:1; fill:none" points="
  2009.75,509.938 2154.18,509.938 
  "/>
<path clip-path="url(#clip160)" d="M2192.1 529.625 Q2190.29 534.255 2188.58 535.667 Q2186.86 537.079 2183.99 537.079 L2180.59 537.079 L2180.59 533.514 L2183.09 533.514 Q2184.85 533.514 2185.82 532.68 Q2186.79 531.847 2187.97 528.745 L2188.74 526.801 L2178.25 501.292 L2182.77 501.292 L2190.87 521.569 L2198.97 501.292 L2203.48 501.292 L2192.1 529.625 Z" fill="#000000" fill-rule="evenodd" fill-opacity="1" /><path clip-path="url(#clip160)" d="M2219.97 510.806 Q2216.63 510.806 2214.71 512.588 Q2212.81 514.37 2212.81 517.495 Q2212.81 520.62 2214.71 522.403 Q2216.63 524.185 2219.97 524.185 Q2223.3 524.185 2225.22 522.403 Q2227.14 520.597 2227.14 517.495 Q2227.14 514.37 2225.22 512.588 Q2223.32 510.806 2219.97 510.806 M2215.29 508.815 Q2212.28 508.074 2210.59 506.014 Q2208.92 503.954 2208.92 500.991 Q2208.92 496.847 2211.86 494.44 Q2214.83 492.033 2219.97 492.033 Q2225.13 492.033 2228.07 494.44 Q2231.01 496.847 2231.01 500.991 Q2231.01 503.954 2229.32 506.014 Q2227.65 508.074 2224.66 508.815 Q2228.04 509.602 2229.92 511.894 Q2231.82 514.185 2231.82 517.495 Q2231.82 522.519 2228.74 525.204 Q2225.68 527.889 2219.97 527.889 Q2214.25 527.889 2211.17 525.204 Q2208.11 522.519 2208.11 517.495 Q2208.11 514.185 2210.01 511.894 Q2211.91 509.602 2215.29 508.815 M2213.58 501.431 Q2213.58 504.116 2215.24 505.62 Q2216.93 507.125 2219.97 507.125 Q2222.97 507.125 2224.66 505.62 Q2226.38 504.116 2226.38 501.431 Q2226.38 498.745 2224.66 497.241 Q2222.97 495.736 2219.97 495.736 Q2216.93 495.736 2215.24 497.241 Q2213.58 498.745 2213.58 501.431 Z" fill="#000000" fill-rule="evenodd" fill-opacity="1" /><polyline clip-path="url(#clip160)" style="stroke:#00a98d; stroke-linecap:butt; stroke-linejoin:round; stroke-width:4; stroke-opacity:1; fill:none" points="
  2009.75,561.778 2154.18,561.778 
  "/>
<path clip-path="url(#clip160)" d="M2192.1 581.465 Q2190.29 586.095 2188.58 587.507 Q2186.86 588.919 2183.99 588.919 L2180.59 588.919 L2180.59 585.354 L2183.09 585.354 Q2184.85 585.354 2185.82 584.52 Q2186.79 583.687 2187.97 580.585 L2188.74 578.641 L2178.25 553.132 L2182.77 553.132 L2190.87 573.409 L2198.97 553.132 L2203.48 553.132 L2192.1 581.465 Z" fill="#000000" fill-rule="evenodd" fill-opacity="1" /><path clip-path="url(#clip160)" d="M2210.1 578.34 L2210.1 574.081 Q2211.86 574.914 2213.67 575.354 Q2215.47 575.794 2217.21 575.794 Q2221.84 575.794 2224.27 572.692 Q2226.72 569.567 2227.07 563.224 Q2225.73 565.215 2223.67 566.28 Q2221.61 567.345 2219.11 567.345 Q2213.92 567.345 2210.89 564.22 Q2207.88 561.072 2207.88 555.632 Q2207.88 550.308 2211.03 547.09 Q2214.18 543.873 2219.41 543.873 Q2225.41 543.873 2228.55 548.479 Q2231.72 553.062 2231.72 561.812 Q2231.72 569.984 2227.84 574.868 Q2223.97 579.729 2217.42 579.729 Q2215.66 579.729 2213.85 579.382 Q2212.05 579.034 2210.1 578.34 M2219.41 563.687 Q2222.56 563.687 2224.39 561.534 Q2226.24 559.382 2226.24 555.632 Q2226.24 551.905 2224.39 549.752 Q2222.56 547.576 2219.41 547.576 Q2216.26 547.576 2214.41 549.752 Q2212.58 551.905 2212.58 555.632 Q2212.58 559.382 2214.41 561.534 Q2216.26 563.687 2219.41 563.687 Z" fill="#000000" fill-rule="evenodd" fill-opacity="1" /></svg>
