<?xml version="1.0" encoding="utf-8"?>
<svg xmlns="http://www.w3.org/2000/svg" xmlns:xlink="http://www.w3.org/1999/xlink" width="600" height="400" viewBox="0 0 2400 1600">
<defs>
  <clipPath id="clip460">
    <rect x="0" y="0" width="2400" height="1600"/>
  </clipPath>
</defs>
<path clip-path="url(#clip460)" d="
M0 1600 L2400 1600 L2400 0 L0 0  Z
  " fill="#ffffff" fill-rule="evenodd" fill-opacity="1"/>
<defs>
  <clipPath id="clip461">
    <rect x="480" y="0" width="1681" height="1600"/>
  </clipPath>
</defs>
<path clip-path="url(#clip460)" d="
M184.191 1486.45 L2352.76 1486.45 L2352.76 47.2441 L184.191 47.2441  Z
  " fill="#ffffff" fill-rule="evenodd" fill-opacity="1"/>
<defs>
  <clipPath id="clip462">
    <rect x="184" y="47" width="2170" height="1440"/>
  </clipPath>
</defs>
<polyline clip-path="url(#clip462)" style="stroke:#000000; stroke-linecap:butt; stroke-linejoin:round; stroke-width:2; stroke-opacity:0.1; fill:none" points="
  233.06,1486.45 233.06,47.2441 
  "/>
<polyline clip-path="url(#clip462)" style="stroke:#000000; stroke-linecap:butt; stroke-linejoin:round; stroke-width:2; stroke-opacity:0.1; fill:none" points="
  578.198,1486.45 578.198,47.2441 
  "/>
<polyline clip-path="url(#clip462)" style="stroke:#000000; stroke-linecap:butt; stroke-linejoin:round; stroke-width:2; stroke-opacity:0.1; fill:none" points="
  923.335,1486.45 923.335,47.2441 
  "/>
<polyline clip-path="url(#clip462)" style="stroke:#000000; stroke-linecap:butt; stroke-linejoin:round; stroke-width:2; stroke-opacity:0.1; fill:none" points="
  1268.47,1486.45 1268.47,47.2441 
  "/>
<polyline clip-path="url(#clip462)" style="stroke:#000000; stroke-linecap:butt; stroke-linejoin:round; stroke-width:2; stroke-opacity:0.1; fill:none" points="
  1613.61,1486.45 1613.61,47.2441 
  "/>
<polyline clip-path="url(#clip462)" style="stroke:#000000; stroke-linecap:butt; stroke-linejoin:round; stroke-width:2; stroke-opacity:0.1; fill:none" points="
  1958.75,1486.45 1958.75,47.2441 
  "/>
<polyline clip-path="url(#clip462)" style="stroke:#000000; stroke-linecap:butt; stroke-linejoin:round; stroke-width:2; stroke-opacity:0.1; fill:none" points="
  2303.89,1486.45 2303.89,47.2441 
  "/>
<polyline clip-path="url(#clip460)" style="stroke:#000000; stroke-linecap:butt; stroke-linejoin:round; stroke-width:4; stroke-opacity:1; fill:none" points="
  184.191,1486.45 2352.76,1486.45 
  "/>
<polyline clip-path="url(#clip460)" style="stroke:#000000; stroke-linecap:butt; stroke-linejoin:round; stroke-width:4; stroke-opacity:1; fill:none" points="
  233.06,1486.45 233.06,1467.55 
  "/>
<polyline clip-path="url(#clip460)" style="stroke:#000000; stroke-linecap:butt; stroke-linejoin:round; stroke-width:4; stroke-opacity:1; fill:none" points="
  578.198,1486.45 578.198,1467.55 
  "/>
<polyline clip-path="url(#clip460)" style="stroke:#000000; stroke-linecap:butt; stroke-linejoin:round; stroke-width:4; stroke-opacity:1; fill:none" points="
  923.335,1486.45 923.335,1467.55 
  "/>
<polyline clip-path="url(#clip460)" style="stroke:#000000; stroke-linecap:butt; stroke-linejoin:round; stroke-width:4; stroke-opacity:1; fill:none" points="
  1268.47,1486.45 1268.47,1467.55 
  "/>
<polyline clip-path="url(#clip460)" style="stroke:#000000; stroke-linecap:butt; stroke-linejoin:round; stroke-width:4; stroke-opacity:1; fill:none" points="
  1613.61,1486.45 1613.61,1467.55 
  "/>
<polyline clip-path="url(#clip460)" style="stroke:#000000; stroke-linecap:butt; stroke-linejoin:round; stroke-width:4; stroke-opacity:1; fill:none" points="
  1958.75,1486.45 1958.75,1467.55 
  "/>
<polyline clip-path="url(#clip460)" style="stroke:#000000; stroke-linecap:butt; stroke-linejoin:round; stroke-width:4; stroke-opacity:1; fill:none" points="
  2303.89,1486.45 2303.89,1467.55 
  "/>
<path clip-path="url(#clip460)" d="M202.527 1530.29 L232.203 1530.29 L232.203 1534.23 L202.527 1534.23 L202.527 1530.29 Z" fill="#000000" fill-rule="evenodd" fill-opacity="1" /><path clip-path="url(#clip460)" d="M256.462 1528.49 Q259.819 1529.2 261.694 1531.47 Q263.592 1533.74 263.592 1537.07 Q263.592 1542.19 260.073 1544.99 Q256.555 1547.79 250.073 1547.79 Q247.898 1547.79 245.583 1547.35 Q243.291 1546.93 240.837 1546.08 L240.837 1541.56 Q242.782 1542.7 245.097 1543.28 Q247.411 1543.86 249.935 1543.86 Q254.333 1543.86 256.624 1542.12 Q258.939 1540.38 258.939 1537.07 Q258.939 1534.02 256.786 1532.31 Q254.657 1530.57 250.837 1530.57 L246.81 1530.57 L246.81 1526.73 L251.023 1526.73 Q254.472 1526.73 256.3 1525.36 Q258.129 1523.97 258.129 1521.38 Q258.129 1518.72 256.231 1517.31 Q254.356 1515.87 250.837 1515.87 Q248.916 1515.87 246.717 1516.29 Q244.518 1516.7 241.879 1517.58 L241.879 1513.42 Q244.541 1512.68 246.856 1512.31 Q249.194 1511.93 251.254 1511.93 Q256.578 1511.93 259.68 1514.37 Q262.782 1516.77 262.782 1520.89 Q262.782 1523.76 261.138 1525.75 Q259.495 1527.72 256.462 1528.49 Z" fill="#000000" fill-rule="evenodd" fill-opacity="1" /><path clip-path="url(#clip460)" d="M548.14 1530.29 L577.816 1530.29 L577.816 1534.23 L548.14 1534.23 L548.14 1530.29 Z" fill="#000000" fill-rule="evenodd" fill-opacity="1" /><path clip-path="url(#clip460)" d="M591.936 1543.18 L608.255 1543.18 L608.255 1547.12 L586.311 1547.12 L586.311 1543.18 Q588.973 1540.43 593.556 1535.8 Q598.163 1531.15 599.343 1529.81 Q601.589 1527.28 602.468 1525.55 Q603.371 1523.79 603.371 1522.1 Q603.371 1519.34 601.427 1517.61 Q599.505 1515.87 596.403 1515.87 Q594.204 1515.87 591.751 1516.63 Q589.32 1517.4 586.542 1518.95 L586.542 1514.23 Q589.366 1513.09 591.82 1512.51 Q594.274 1511.93 596.311 1511.93 Q601.681 1511.93 604.876 1514.62 Q608.07 1517.31 608.07 1521.8 Q608.07 1523.93 607.26 1525.85 Q606.473 1527.74 604.366 1530.34 Q603.788 1531.01 600.686 1534.23 Q597.584 1537.42 591.936 1543.18 Z" fill="#000000" fill-rule="evenodd" fill-opacity="1" /><path clip-path="url(#clip460)" d="M893.093 1530.29 L922.768 1530.29 L922.768 1534.23 L893.093 1534.23 L893.093 1530.29 Z" fill="#000000" fill-rule="evenodd" fill-opacity="1" /><path clip-path="url(#clip460)" d="M933.671 1543.18 L941.31 1543.18 L941.31 1516.82 L933 1518.49 L933 1514.23 L941.264 1512.56 L945.939 1512.56 L945.939 1543.18 L953.578 1543.18 L953.578 1547.12 L933.671 1547.12 L933.671 1543.18 Z" fill="#000000" fill-rule="evenodd" fill-opacity="1" /><path clip-path="url(#clip460)" d="M1268.47 1515.64 Q1264.86 1515.64 1263.03 1519.2 Q1261.23 1522.75 1261.23 1529.87 Q1261.23 1536.98 1263.03 1540.55 Q1264.86 1544.09 1268.47 1544.09 Q1272.11 1544.09 1273.91 1540.55 Q1275.74 1536.98 1275.74 1529.87 Q1275.74 1522.75 1273.91 1519.2 Q1272.11 1515.64 1268.47 1515.64 M1268.47 1511.93 Q1274.28 1511.93 1277.34 1516.54 Q1280.42 1521.12 1280.42 1529.87 Q1280.42 1538.6 1277.34 1543.21 Q1274.28 1547.79 1268.47 1547.79 Q1262.66 1547.79 1259.58 1543.21 Q1256.53 1538.6 1256.53 1529.87 Q1256.53 1521.12 1259.58 1516.54 Q1262.66 1511.93 1268.47 1511.93 Z" fill="#000000" fill-rule="evenodd" fill-opacity="1" /><path clip-path="url(#clip460)" d="M1603.99 1543.18 L1611.63 1543.18 L1611.63 1516.82 L1603.32 1518.49 L1603.32 1514.23 L1611.59 1512.56 L1616.26 1512.56 L1616.26 1543.18 L1623.9 1543.18 L1623.9 1547.12 L1603.99 1547.12 L1603.99 1543.18 Z" fill="#000000" fill-rule="evenodd" fill-opacity="1" /><path clip-path="url(#clip460)" d="M1953.4 1543.18 L1969.72 1543.18 L1969.72 1547.12 L1947.78 1547.12 L1947.78 1543.18 Q1950.44 1540.43 1955.02 1535.8 Q1959.63 1531.15 1960.81 1529.81 Q1963.05 1527.28 1963.93 1525.55 Q1964.84 1523.79 1964.84 1522.1 Q1964.84 1519.34 1962.89 1517.61 Q1960.97 1515.87 1957.87 1515.87 Q1955.67 1515.87 1953.22 1516.63 Q1950.79 1517.4 1948.01 1518.95 L1948.01 1514.23 Q1950.83 1513.09 1953.29 1512.51 Q1955.74 1511.93 1957.78 1511.93 Q1963.15 1511.93 1966.34 1514.62 Q1969.54 1517.31 1969.54 1521.8 Q1969.54 1523.93 1968.73 1525.85 Q1967.94 1527.74 1965.83 1530.34 Q1965.25 1531.01 1962.15 1534.23 Q1959.05 1537.42 1953.4 1543.18 Z" fill="#000000" fill-rule="evenodd" fill-opacity="1" /><path clip-path="url(#clip460)" d="M2308.13 1528.49 Q2311.49 1529.2 2313.37 1531.47 Q2315.26 1533.74 2315.26 1537.07 Q2315.26 1542.19 2311.75 1544.99 Q2308.23 1547.79 2301.75 1547.79 Q2299.57 1547.79 2297.26 1547.35 Q2294.96 1546.93 2292.51 1546.08 L2292.51 1541.56 Q2294.45 1542.7 2296.77 1543.28 Q2299.08 1543.86 2301.61 1543.86 Q2306 1543.86 2308.3 1542.12 Q2310.61 1540.38 2310.61 1537.07 Q2310.61 1534.02 2308.46 1532.31 Q2306.33 1530.57 2302.51 1530.57 L2298.48 1530.57 L2298.48 1526.73 L2302.69 1526.73 Q2306.14 1526.73 2307.97 1525.36 Q2309.8 1523.97 2309.8 1521.38 Q2309.8 1518.72 2307.9 1517.31 Q2306.03 1515.87 2302.51 1515.87 Q2300.59 1515.87 2298.39 1516.29 Q2296.19 1516.7 2293.55 1517.58 L2293.55 1513.42 Q2296.21 1512.68 2298.53 1512.31 Q2300.87 1511.93 2302.93 1511.93 Q2308.25 1511.93 2311.35 1514.37 Q2314.45 1516.77 2314.45 1520.89 Q2314.45 1523.76 2312.81 1525.75 Q2311.17 1527.72 2308.13 1528.49 Z" fill="#000000" fill-rule="evenodd" fill-opacity="1" /><polyline clip-path="url(#clip462)" style="stroke:#000000; stroke-linecap:butt; stroke-linejoin:round; stroke-width:2; stroke-opacity:0.1; fill:none" points="
  184.191,1445.75 2352.76,1445.75 
  "/>
<polyline clip-path="url(#clip462)" style="stroke:#000000; stroke-linecap:butt; stroke-linejoin:round; stroke-width:2; stroke-opacity:0.1; fill:none" points="
  184.191,1101.82 2352.76,1101.82 
  "/>
<polyline clip-path="url(#clip462)" style="stroke:#000000; stroke-linecap:butt; stroke-linejoin:round; stroke-width:2; stroke-opacity:0.1; fill:none" points="
  184.191,757.893 2352.76,757.893 
  "/>
<polyline clip-path="url(#clip462)" style="stroke:#000000; stroke-linecap:butt; stroke-linejoin:round; stroke-width:2; stroke-opacity:0.1; fill:none" points="
  184.191,413.965 2352.76,413.965 
  "/>
<polyline clip-path="url(#clip462)" style="stroke:#000000; stroke-linecap:butt; stroke-linejoin:round; stroke-width:2; stroke-opacity:0.1; fill:none" points="
  184.191,70.0376 2352.76,70.0376 
  "/>
<polyline clip-path="url(#clip460)" style="stroke:#000000; stroke-linecap:butt; stroke-linejoin:round; stroke-width:4; stroke-opacity:1; fill:none" points="
  184.191,1486.45 184.191,47.2441 
  "/>
<polyline clip-path="url(#clip460)" style="stroke:#000000; stroke-linecap:butt; stroke-linejoin:round; stroke-width:4; stroke-opacity:1; fill:none" points="
  184.191,1445.75 203.088,1445.75 
  "/>
<polyline clip-path="url(#clip460)" style="stroke:#000000; stroke-linecap:butt; stroke-linejoin:round; stroke-width:4; stroke-opacity:1; fill:none" points="
  184.191,1101.82 203.088,1101.82 
  "/>
<polyline clip-path="url(#clip460)" style="stroke:#000000; stroke-linecap:butt; stroke-linejoin:round; stroke-width:4; stroke-opacity:1; fill:none" points="
  184.191,757.893 203.088,757.893 
  "/>
<polyline clip-path="url(#clip460)" style="stroke:#000000; stroke-linecap:butt; stroke-linejoin:round; stroke-width:4; stroke-opacity:1; fill:none" points="
  184.191,413.965 203.088,413.965 
  "/>
<polyline clip-path="url(#clip460)" style="stroke:#000000; stroke-linecap:butt; stroke-linejoin:round; stroke-width:4; stroke-opacity:1; fill:none" points="
  184.191,70.0376 203.088,70.0376 
  "/>
<path clip-path="url(#clip460)" d="M91.0151 1431.55 Q87.404 1431.55 85.5753 1435.11 Q83.7697 1438.65 83.7697 1445.78 Q83.7697 1452.89 85.5753 1456.45 Q87.404 1460 91.0151 1460 Q94.6493 1460 96.4548 1456.45 Q98.2835 1452.89 98.2835 1445.78 Q98.2835 1438.65 96.4548 1435.11 Q94.6493 1431.55 91.0151 1431.55 M91.0151 1427.84 Q96.8252 1427.84 99.8808 1432.45 Q102.959 1437.03 102.959 1445.78 Q102.959 1454.51 99.8808 1459.12 Q96.8252 1463.7 91.0151 1463.7 Q85.2049 1463.7 82.1262 1459.12 Q79.0707 1454.51 79.0707 1445.78 Q79.0707 1437.03 82.1262 1432.45 Q85.2049 1427.84 91.0151 1427.84 Z" fill="#000000" fill-rule="evenodd" fill-opacity="1" /><path clip-path="url(#clip460)" d="M111.177 1457.15 L116.061 1457.15 L116.061 1463.03 L111.177 1463.03 L111.177 1457.15 Z" fill="#000000" fill-rule="evenodd" fill-opacity="1" /><path clip-path="url(#clip460)" d="M136.246 1431.55 Q132.635 1431.55 130.807 1435.11 Q129.001 1438.65 129.001 1445.78 Q129.001 1452.89 130.807 1456.45 Q132.635 1460 136.246 1460 Q139.881 1460 141.686 1456.45 Q143.515 1452.89 143.515 1445.78 Q143.515 1438.65 141.686 1435.11 Q139.881 1431.55 136.246 1431.55 M136.246 1427.84 Q142.056 1427.84 145.112 1432.45 Q148.191 1437.03 148.191 1445.78 Q148.191 1454.51 145.112 1459.12 Q142.056 1463.7 136.246 1463.7 Q130.436 1463.7 127.357 1459.12 Q124.302 1454.51 124.302 1445.78 Q124.302 1437.03 127.357 1432.45 Q130.436 1427.84 136.246 1427.84 Z" fill="#000000" fill-rule="evenodd" fill-opacity="1" /><path clip-path="url(#clip460)" d="M86.0382 1115.17 L102.358 1115.17 L102.358 1119.1 L80.4133 1119.1 L80.4133 1115.17 Q83.0753 1112.41 87.6586 1107.78 Q92.2651 1103.13 93.4456 1101.79 Q95.691 1099.26 96.5706 1097.53 Q97.4734 1095.77 97.4734 1094.08 Q97.4734 1091.32 95.5289 1089.59 Q93.6076 1087.85 90.5058 1087.85 Q88.3067 1087.85 85.8531 1088.62 Q83.4225 1089.38 80.6447 1090.93 L80.6447 1086.21 Q83.4688 1085.07 85.9225 1084.49 Q88.3762 1083.92 90.4132 1083.92 Q95.7836 1083.92 98.978 1086.6 Q102.172 1089.29 102.172 1093.78 Q102.172 1095.91 101.362 1097.83 Q100.575 1099.73 98.4687 1102.32 Q97.89 1102.99 94.7882 1106.21 Q91.6864 1109.4 86.0382 1115.17 Z" fill="#000000" fill-rule="evenodd" fill-opacity="1" /><path clip-path="url(#clip460)" d="M112.172 1113.22 L117.057 1113.22 L117.057 1119.1 L112.172 1119.1 L112.172 1113.22 Z" fill="#000000" fill-rule="evenodd" fill-opacity="1" /><path clip-path="url(#clip460)" d="M127.288 1084.54 L145.644 1084.54 L145.644 1088.48 L131.57 1088.48 L131.57 1096.95 Q132.589 1096.6 133.607 1096.44 Q134.626 1096.25 135.644 1096.25 Q141.431 1096.25 144.811 1099.43 Q148.191 1102.6 148.191 1108.01 Q148.191 1113.59 144.718 1116.69 Q141.246 1119.77 134.927 1119.77 Q132.751 1119.77 130.482 1119.4 Q128.237 1119.03 125.83 1118.29 L125.83 1113.59 Q127.913 1114.73 130.135 1115.28 Q132.357 1115.84 134.834 1115.84 Q138.839 1115.84 141.177 1113.73 Q143.515 1111.62 143.515 1108.01 Q143.515 1104.4 141.177 1102.3 Q138.839 1100.19 134.834 1100.19 Q132.959 1100.19 131.084 1100.61 Q129.232 1101.02 127.288 1101.9 L127.288 1084.54 Z" fill="#000000" fill-rule="evenodd" fill-opacity="1" /><path clip-path="url(#clip460)" d="M81.0614 740.613 L99.4178 740.613 L99.4178 744.548 L85.3438 744.548 L85.3438 753.021 Q86.3623 752.673 87.3808 752.511 Q88.3993 752.326 89.4178 752.326 Q95.2049 752.326 98.5845 755.497 Q101.964 758.669 101.964 764.085 Q101.964 769.664 98.4919 772.766 Q95.0197 775.844 88.7003 775.844 Q86.5243 775.844 84.2558 775.474 Q82.0105 775.104 79.6031 774.363 L79.6031 769.664 Q81.6864 770.798 83.9086 771.354 Q86.1308 771.909 88.6077 771.909 Q92.6123 771.909 94.9502 769.803 Q97.2882 767.696 97.2882 764.085 Q97.2882 760.474 94.9502 758.368 Q92.6123 756.261 88.6077 756.261 Q86.7327 756.261 84.8577 756.678 Q83.0058 757.095 81.0614 757.974 L81.0614 740.613 Z" fill="#000000" fill-rule="evenodd" fill-opacity="1" /><path clip-path="url(#clip460)" d="M111.177 769.294 L116.061 769.294 L116.061 775.173 L111.177 775.173 L111.177 769.294 Z" fill="#000000" fill-rule="evenodd" fill-opacity="1" /><path clip-path="url(#clip460)" d="M136.246 743.692 Q132.635 743.692 130.807 747.257 Q129.001 750.798 129.001 757.928 Q129.001 765.034 130.807 768.599 Q132.635 772.141 136.246 772.141 Q139.881 772.141 141.686 768.599 Q143.515 765.034 143.515 757.928 Q143.515 750.798 141.686 747.257 Q139.881 743.692 136.246 743.692 M136.246 739.988 Q142.056 739.988 145.112 744.595 Q148.191 749.178 148.191 757.928 Q148.191 766.655 145.112 771.261 Q142.056 775.844 136.246 775.844 Q130.436 775.844 127.357 771.261 Q124.302 766.655 124.302 757.928 Q124.302 749.178 127.357 744.595 Q130.436 739.988 136.246 739.988 Z" fill="#000000" fill-rule="evenodd" fill-opacity="1" /><path clip-path="url(#clip460)" d="M80.8299 396.685 L103.052 396.685 L103.052 398.676 L90.5058 431.245 L85.6216 431.245 L97.4271 400.621 L80.8299 400.621 L80.8299 396.685 Z" fill="#000000" fill-rule="evenodd" fill-opacity="1" /><path clip-path="url(#clip460)" d="M112.172 425.366 L117.057 425.366 L117.057 431.245 L112.172 431.245 L112.172 425.366 Z" fill="#000000" fill-rule="evenodd" fill-opacity="1" /><path clip-path="url(#clip460)" d="M127.288 396.685 L145.644 396.685 L145.644 400.621 L131.57 400.621 L131.57 409.093 Q132.589 408.746 133.607 408.583 Q134.626 408.398 135.644 408.398 Q141.431 408.398 144.811 411.57 Q148.191 414.741 148.191 420.157 Q148.191 425.736 144.718 428.838 Q141.246 431.917 134.927 431.917 Q132.751 431.917 130.482 431.546 Q128.237 431.176 125.83 430.435 L125.83 425.736 Q127.913 426.87 130.135 427.426 Q132.357 427.982 134.834 427.982 Q138.839 427.982 141.177 425.875 Q143.515 423.769 143.515 420.157 Q143.515 416.546 141.177 414.44 Q138.839 412.333 134.834 412.333 Q132.959 412.333 131.084 412.75 Q129.232 413.167 127.288 414.046 L127.288 396.685 Z" fill="#000000" fill-rule="evenodd" fill-opacity="1" /><path clip-path="url(#clip460)" d="M51.6634 83.3824 L59.3023 83.3824 L59.3023 57.0168 L50.9921 58.6835 L50.9921 54.4243 L59.256 52.7576 L63.9319 52.7576 L63.9319 83.3824 L71.5707 83.3824 L71.5707 87.3176 L51.6634 87.3176 L51.6634 83.3824 Z" fill="#000000" fill-rule="evenodd" fill-opacity="1" /><path clip-path="url(#clip460)" d="M91.0151 55.8363 Q87.404 55.8363 85.5753 59.4011 Q83.7697 62.9427 83.7697 70.0723 Q83.7697 77.1788 85.5753 80.7436 Q87.404 84.2852 91.0151 84.2852 Q94.6493 84.2852 96.4548 80.7436 Q98.2835 77.1788 98.2835 70.0723 Q98.2835 62.9427 96.4548 59.4011 Q94.6493 55.8363 91.0151 55.8363 M91.0151 52.1326 Q96.8252 52.1326 99.8808 56.7391 Q102.959 61.3224 102.959 70.0723 Q102.959 78.7991 99.8808 83.4056 Q96.8252 87.9889 91.0151 87.9889 Q85.2049 87.9889 82.1262 83.4056 Q79.0707 78.7991 79.0707 70.0723 Q79.0707 61.3224 82.1262 56.7391 Q85.2049 52.1326 91.0151 52.1326 Z" fill="#000000" fill-rule="evenodd" fill-opacity="1" /><path clip-path="url(#clip460)" d="M111.177 81.438 L116.061 81.438 L116.061 87.3176 L111.177 87.3176 L111.177 81.438 Z" fill="#000000" fill-rule="evenodd" fill-opacity="1" /><path clip-path="url(#clip460)" d="M136.246 55.8363 Q132.635 55.8363 130.807 59.4011 Q129.001 62.9427 129.001 70.0723 Q129.001 77.1788 130.807 80.7436 Q132.635 84.2852 136.246 84.2852 Q139.881 84.2852 141.686 80.7436 Q143.515 77.1788 143.515 70.0723 Q143.515 62.9427 141.686 59.4011 Q139.881 55.8363 136.246 55.8363 M136.246 52.1326 Q142.056 52.1326 145.112 56.7391 Q148.191 61.3224 148.191 70.0723 Q148.191 78.7991 145.112 83.4056 Q142.056 87.9889 136.246 87.9889 Q130.436 87.9889 127.357 83.4056 Q124.302 78.7991 124.302 70.0723 Q124.302 61.3224 127.357 56.7391 Q130.436 52.1326 136.246 52.1326 Z" fill="#000000" fill-rule="evenodd" fill-opacity="1" /><polyline clip-path="url(#clip462)" style="stroke:#009af9; stroke-linecap:butt; stroke-linejoin:round; stroke-width:4; stroke-opacity:1; fill:none" points="
  184.191,895.464 189.485,895.497 194.78,895.594 200.074,895.756 205.368,895.982 254.323,901.125 303.278,911.681 352.233,927.437 401.188,948.078 430.608,962.662 
  460.028,978.757 489.447,996.245 518.867,1015 568.616,1049.21 618.364,1085.93 726.445,1170.7 826.086,1249.03 879.499,1288.74 932.912,1325.63 994.796,1363.69 
  1056.68,1395.55 1084.18,1407.45 1111.67,1417.84 1139.17,1426.67 1166.67,1433.87 1214.9,1442.44 1263.12,1445.72 1315.7,1443.18 1368.28,1434.32 1421.17,1419.26 
  1474.06,1398.36 1532.54,1369.07 1591.02,1334.09 1646.66,1296.45 1702.3,1255.54 1818.01,1164.71 1915.41,1088.34 1974.87,1044.55 2034.33,1004.49 2090.22,971.302 
  2146.11,943.326 2190.88,925.176 2235.65,911.15 2280.42,901.485 2325.2,896.341 2332.09,895.958 2338.98,895.684 2345.87,895.519 2352.76,895.464 
  "/>
<polyline clip-path="url(#clip462)" style="stroke:#e26f46; stroke-linecap:butt; stroke-linejoin:round; stroke-width:4; stroke-opacity:1; fill:none" points="
  184.191,87.9763 194.78,114.366 205.368,140.497 303.278,369.848 401.188,577.056 460.028,690.928 518.867,796.803 568.616,880.081 618.364,957.642 672.404,1035.42 
  726.445,1106.45 776.265,1165.95 826.086,1219.73 879.499,1271.01 932.912,1315.71 994.796,1359.25 1056.68,1393.94 1111.67,1417.35 1166.67,1433.78 1214.9,1442.43 
  1263.12,1445.72 1315.7,1443.17 1368.28,1434.24 1421.17,1418.82 1474.06,1396.93 1532.54,1365.22 1591.02,1325.6 1646.66,1280.57 1702.3,1228.39 1760.16,1166.55 
  1818.01,1096.98 1866.71,1032.43 1915.41,962.394 1974.87,869.465 2034.33,768.37 2090.22,665.892 2146.11,556.198 2235.65,365.421 2325.2,156.123 2338.98,122.269 
  2352.76,87.9763 
  "/>
<path clip-path="url(#clip460)" d="
M1987.09 250.738 L2280.47 250.738 L2280.47 95.2176 L1987.09 95.2176  Z
  " fill="#ffffff" fill-rule="evenodd" fill-opacity="1"/>
<polyline clip-path="url(#clip460)" style="stroke:#000000; stroke-linecap:butt; stroke-linejoin:round; stroke-width:4; stroke-opacity:1; fill:none" points="
  1987.09,250.738 2280.47,250.738 2280.47,95.2176 1987.09,95.2176 1987.09,250.738 
  "/>
<polyline clip-path="url(#clip460)" style="stroke:#009af9; stroke-linecap:butt; stroke-linejoin:round; stroke-width:4; stroke-opacity:1; fill:none" points="
  2011.18,147.058 2155.75,147.058 
  "/>
<path clip-path="url(#clip460)" d="M2193.69 166.745 Q2191.89 171.375 2190.17 172.787 Q2188.46 174.199 2185.59 174.199 L2182.19 174.199 L2182.19 170.634 L2184.69 170.634 Q2186.45 170.634 2187.42 169.8 Q2188.39 168.967 2189.57 165.865 L2190.34 163.921 L2179.85 138.412 L2184.36 138.412 L2192.47 158.689 L2200.57 138.412 L2205.08 138.412 L2193.69 166.745 Z" fill="#000000" fill-rule="evenodd" fill-opacity="1" /><path clip-path="url(#clip460)" d="M2212.37 160.402 L2220.01 160.402 L2220.01 134.037 L2211.7 135.703 L2211.7 131.444 L2219.97 129.778 L2224.64 129.778 L2224.64 160.402 L2232.28 160.402 L2232.28 164.338 L2212.37 164.338 L2212.37 160.402 Z" fill="#000000" fill-rule="evenodd" fill-opacity="1" /><polyline clip-path="url(#clip460)" style="stroke:#e26f46; stroke-linecap:butt; stroke-linejoin:round; stroke-width:4; stroke-opacity:1; fill:none" points="
  2011.18,198.898 2155.75,198.898 
  "/>
<path clip-path="url(#clip460)" d="M2193.69 218.585 Q2191.89 223.215 2190.17 224.627 Q2188.46 226.039 2185.59 226.039 L2182.19 226.039 L2182.19 222.474 L2184.69 222.474 Q2186.45 222.474 2187.42 221.64 Q2188.39 220.807 2189.57 217.705 L2190.34 215.761 L2179.85 190.252 L2184.36 190.252 L2192.47 210.529 L2200.57 190.252 L2205.08 190.252 L2193.69 218.585 Z" fill="#000000" fill-rule="evenodd" fill-opacity="1" /><path clip-path="url(#clip460)" d="M2215.59 212.242 L2231.91 212.242 L2231.91 216.178 L2209.97 216.178 L2209.97 212.242 Q2212.63 209.488 2217.21 204.858 Q2221.82 200.205 2223 198.863 Q2225.24 196.34 2226.12 194.604 Q2227.03 192.844 2227.03 191.155 Q2227.03 188.4 2225.08 186.664 Q2223.16 184.928 2220.06 184.928 Q2217.86 184.928 2215.41 185.692 Q2212.97 186.455 2210.2 188.006 L2210.2 183.284 Q2213.02 182.15 2215.47 181.571 Q2217.93 180.993 2219.97 180.993 Q2225.34 180.993 2228.53 183.678 Q2231.72 186.363 2231.72 190.854 Q2231.72 192.983 2230.91 194.905 Q2230.13 196.803 2228.02 199.395 Q2227.44 200.067 2224.34 203.284 Q2221.24 206.479 2215.59 212.242 Z" fill="#000000" fill-rule="evenodd" fill-opacity="1" /></svg>
