<?xml version="1.0" encoding="utf-8"?>
<svg xmlns="http://www.w3.org/2000/svg" xmlns:xlink="http://www.w3.org/1999/xlink" width="600" height="400" viewBox="0 0 2400 1600">
<defs>
  <clipPath id="clip550">
    <rect x="0" y="0" width="2400" height="1600"/>
  </clipPath>
</defs>
<path clip-path="url(#clip550)" d="
M0 1600 L2400 1600 L2400 0 L0 0  Z
  " fill="#ffffff" fill-rule="evenodd" fill-opacity="1"/>
<defs>
  <clipPath id="clip551">
    <rect x="480" y="0" width="1681" height="1600"/>
  </clipPath>
</defs>
<defs>
  <clipPath id="clip552">
    <rect x="1893" y="47" width="73" height="1440"/>
  </clipPath>
</defs>
<path clip-path="url(#clip550)" d="
M193.936 1486.45 L2352.76 1486.45 L2352.76 47.2441 L193.936 47.2441  Z
  " fill="#ffffff" fill-rule="evenodd" fill-opacity="1"/>
<defs>
  <clipPath id="clip553">
    <rect x="193" y="47" width="2160" height="1440"/>
  </clipPath>
</defs>
<polyline clip-path="url(#clip553)" style="stroke:#000000; stroke-linecap:butt; stroke-linejoin:round; stroke-width:2; stroke-opacity:0.1; fill:none" points="
  255.035,1486.45 255.035,47.2441 
  "/>
<polyline clip-path="url(#clip553)" style="stroke:#000000; stroke-linecap:butt; stroke-linejoin:round; stroke-width:2; stroke-opacity:0.1; fill:none" points="
  764.19,1486.45 764.19,47.2441 
  "/>
<polyline clip-path="url(#clip553)" style="stroke:#000000; stroke-linecap:butt; stroke-linejoin:round; stroke-width:2; stroke-opacity:0.1; fill:none" points="
  1273.35,1486.45 1273.35,47.2441 
  "/>
<polyline clip-path="url(#clip553)" style="stroke:#000000; stroke-linecap:butt; stroke-linejoin:round; stroke-width:2; stroke-opacity:0.1; fill:none" points="
  1782.5,1486.45 1782.5,47.2441 
  "/>
<polyline clip-path="url(#clip553)" style="stroke:#000000; stroke-linecap:butt; stroke-linejoin:round; stroke-width:2; stroke-opacity:0.1; fill:none" points="
  2291.66,1486.45 2291.66,47.2441 
  "/>
<polyline clip-path="url(#clip550)" style="stroke:#000000; stroke-linecap:butt; stroke-linejoin:round; stroke-width:4; stroke-opacity:1; fill:none" points="
  193.936,1486.45 2352.76,1486.45 
  "/>
<polyline clip-path="url(#clip550)" style="stroke:#000000; stroke-linecap:butt; stroke-linejoin:round; stroke-width:4; stroke-opacity:1; fill:none" points="
  255.035,1486.45 255.035,1467.55 
  "/>
<polyline clip-path="url(#clip550)" style="stroke:#000000; stroke-linecap:butt; stroke-linejoin:round; stroke-width:4; stroke-opacity:1; fill:none" points="
  764.19,1486.45 764.19,1467.55 
  "/>
<polyline clip-path="url(#clip550)" style="stroke:#000000; stroke-linecap:butt; stroke-linejoin:round; stroke-width:4; stroke-opacity:1; fill:none" points="
  1273.35,1486.45 1273.35,1467.55 
  "/>
<polyline clip-path="url(#clip550)" style="stroke:#000000; stroke-linecap:butt; stroke-linejoin:round; stroke-width:4; stroke-opacity:1; fill:none" points="
  1782.5,1486.45 1782.5,1467.55 
  "/>
<polyline clip-path="url(#clip550)" style="stroke:#000000; stroke-linecap:butt; stroke-linejoin:round; stroke-width:4; stroke-opacity:1; fill:none" points="
  2291.66,1486.45 2291.66,1467.55 
  "/>
<path clip-path="url(#clip550)" d="M224.977 1530.29 L254.653 1530.29 L254.653 1534.23 L224.977 1534.23 L224.977 1530.29 Z" fill="#000000" fill-rule="evenodd" fill-opacity="1" /><path clip-path="url(#clip550)" d="M268.773 1543.18 L285.092 1543.18 L285.092 1547.12 L263.148 1547.12 L263.148 1543.18 Q265.81 1540.43 270.393 1535.8 Q275 1531.15 276.18 1529.81 Q278.426 1527.28 279.305 1525.55 Q280.208 1523.79 280.208 1522.1 Q280.208 1519.34 278.264 1517.61 Q276.342 1515.87 273.241 1515.87 Q271.042 1515.87 268.588 1516.63 Q266.157 1517.4 263.38 1518.95 L263.38 1514.23 Q266.204 1513.09 268.657 1512.51 Q271.111 1511.93 273.148 1511.93 Q278.518 1511.93 281.713 1514.62 Q284.907 1517.31 284.907 1521.8 Q284.907 1523.93 284.097 1525.85 Q283.31 1527.74 281.204 1530.34 Q280.625 1531.01 277.523 1534.23 Q274.421 1537.42 268.773 1543.18 Z" fill="#000000" fill-rule="evenodd" fill-opacity="1" /><path clip-path="url(#clip550)" d="M733.947 1530.29 L763.623 1530.29 L763.623 1534.23 L733.947 1534.23 L733.947 1530.29 Z" fill="#000000" fill-rule="evenodd" fill-opacity="1" /><path clip-path="url(#clip550)" d="M774.526 1543.18 L782.165 1543.18 L782.165 1516.82 L773.855 1518.49 L773.855 1514.23 L782.118 1512.56 L786.794 1512.56 L786.794 1543.18 L794.433 1543.18 L794.433 1547.12 L774.526 1547.12 L774.526 1543.18 Z" fill="#000000" fill-rule="evenodd" fill-opacity="1" /><path clip-path="url(#clip550)" d="M1273.35 1515.64 Q1269.73 1515.64 1267.91 1519.2 Q1266.1 1522.75 1266.1 1529.87 Q1266.1 1536.98 1267.91 1540.55 Q1269.73 1544.09 1273.35 1544.09 Q1276.98 1544.09 1278.79 1540.55 Q1280.61 1536.98 1280.61 1529.87 Q1280.61 1522.75 1278.79 1519.2 Q1276.98 1515.64 1273.35 1515.64 M1273.35 1511.93 Q1279.16 1511.93 1282.21 1516.54 Q1285.29 1521.12 1285.29 1529.87 Q1285.29 1538.6 1282.21 1543.21 Q1279.16 1547.79 1273.35 1547.79 Q1267.54 1547.79 1264.46 1543.21 Q1261.4 1538.6 1261.4 1529.87 Q1261.4 1521.12 1264.46 1516.54 Q1267.54 1511.93 1273.35 1511.93 Z" fill="#000000" fill-rule="evenodd" fill-opacity="1" /><path clip-path="url(#clip550)" d="M1772.88 1543.18 L1780.52 1543.18 L1780.52 1516.82 L1772.21 1518.49 L1772.21 1514.23 L1780.48 1512.56 L1785.15 1512.56 L1785.15 1543.18 L1792.79 1543.18 L1792.79 1547.12 L1772.88 1547.12 L1772.88 1543.18 Z" fill="#000000" fill-rule="evenodd" fill-opacity="1" /><path clip-path="url(#clip550)" d="M2286.31 1543.18 L2302.63 1543.18 L2302.63 1547.12 L2280.69 1547.12 L2280.69 1543.18 Q2283.35 1540.43 2287.93 1535.8 Q2292.54 1531.15 2293.72 1529.81 Q2295.96 1527.28 2296.84 1525.55 Q2297.75 1523.79 2297.75 1522.1 Q2297.75 1519.34 2295.8 1517.61 Q2293.88 1515.87 2290.78 1515.87 Q2288.58 1515.87 2286.12 1516.63 Q2283.69 1517.4 2280.92 1518.95 L2280.92 1514.23 Q2283.74 1513.09 2286.19 1512.51 Q2288.65 1511.93 2290.69 1511.93 Q2296.06 1511.93 2299.25 1514.62 Q2302.44 1517.31 2302.44 1521.8 Q2302.44 1523.93 2301.63 1525.85 Q2300.85 1527.74 2298.74 1530.34 Q2298.16 1531.01 2295.06 1534.23 Q2291.96 1537.42 2286.31 1543.18 Z" fill="#000000" fill-rule="evenodd" fill-opacity="1" /><polyline clip-path="url(#clip553)" style="stroke:#000000; stroke-linecap:butt; stroke-linejoin:round; stroke-width:2; stroke-opacity:0.1; fill:none" points="
  193.936,1423.45 2352.76,1423.45 
  "/>
<polyline clip-path="url(#clip553)" style="stroke:#000000; stroke-linecap:butt; stroke-linejoin:round; stroke-width:2; stroke-opacity:0.1; fill:none" points="
  193.936,1095 2352.76,1095 
  "/>
<polyline clip-path="url(#clip553)" style="stroke:#000000; stroke-linecap:butt; stroke-linejoin:round; stroke-width:2; stroke-opacity:0.1; fill:none" points="
  193.936,766.553 2352.76,766.553 
  "/>
<polyline clip-path="url(#clip553)" style="stroke:#000000; stroke-linecap:butt; stroke-linejoin:round; stroke-width:2; stroke-opacity:0.1; fill:none" points="
  193.936,438.103 2352.76,438.103 
  "/>
<polyline clip-path="url(#clip553)" style="stroke:#000000; stroke-linecap:butt; stroke-linejoin:round; stroke-width:2; stroke-opacity:0.1; fill:none" points="
  193.936,109.653 2352.76,109.653 
  "/>
<polyline clip-path="url(#clip550)" style="stroke:#000000; stroke-linecap:butt; stroke-linejoin:round; stroke-width:4; stroke-opacity:1; fill:none" points="
  193.936,1486.45 193.936,47.2441 
  "/>
<polyline clip-path="url(#clip550)" style="stroke:#000000; stroke-linecap:butt; stroke-linejoin:round; stroke-width:4; stroke-opacity:1; fill:none" points="
  193.936,1423.45 212.834,1423.45 
  "/>
<polyline clip-path="url(#clip550)" style="stroke:#000000; stroke-linecap:butt; stroke-linejoin:round; stroke-width:4; stroke-opacity:1; fill:none" points="
  193.936,1095 212.834,1095 
  "/>
<polyline clip-path="url(#clip550)" style="stroke:#000000; stroke-linecap:butt; stroke-linejoin:round; stroke-width:4; stroke-opacity:1; fill:none" points="
  193.936,766.553 212.834,766.553 
  "/>
<polyline clip-path="url(#clip550)" style="stroke:#000000; stroke-linecap:butt; stroke-linejoin:round; stroke-width:4; stroke-opacity:1; fill:none" points="
  193.936,438.103 212.834,438.103 
  "/>
<polyline clip-path="url(#clip550)" style="stroke:#000000; stroke-linecap:butt; stroke-linejoin:round; stroke-width:4; stroke-opacity:1; fill:none" points="
  193.936,109.653 212.834,109.653 
  "/>
<path clip-path="url(#clip550)" d="M50.9921 1423.9 L80.6679 1423.9 L80.6679 1427.84 L50.9921 1427.84 L50.9921 1423.9 Z" fill="#000000" fill-rule="evenodd" fill-opacity="1" /><path clip-path="url(#clip550)" d="M91.5706 1436.8 L99.2095 1436.8 L99.2095 1410.43 L90.8993 1412.1 L90.8993 1407.84 L99.1632 1406.17 L103.839 1406.17 L103.839 1436.8 L111.478 1436.8 L111.478 1440.73 L91.5706 1440.73 L91.5706 1436.8 Z" fill="#000000" fill-rule="evenodd" fill-opacity="1" /><path clip-path="url(#clip550)" d="M120.922 1434.85 L125.807 1434.85 L125.807 1440.73 L120.922 1440.73 L120.922 1434.85 Z" fill="#000000" fill-rule="evenodd" fill-opacity="1" /><path clip-path="url(#clip550)" d="M145.992 1409.25 Q142.381 1409.25 140.552 1412.82 Q138.746 1416.36 138.746 1423.49 Q138.746 1430.59 140.552 1434.16 Q142.381 1437.7 145.992 1437.7 Q149.626 1437.7 151.431 1434.16 Q153.26 1430.59 153.26 1423.49 Q153.26 1416.36 151.431 1412.82 Q149.626 1409.25 145.992 1409.25 M145.992 1405.55 Q151.802 1405.55 154.857 1410.15 Q157.936 1414.74 157.936 1423.49 Q157.936 1432.21 154.857 1436.82 Q151.802 1441.4 145.992 1441.4 Q140.181 1441.4 137.103 1436.82 Q134.047 1432.21 134.047 1423.49 Q134.047 1414.74 137.103 1410.15 Q140.181 1405.55 145.992 1405.55 Z" fill="#000000" fill-rule="evenodd" fill-opacity="1" /><path clip-path="url(#clip550)" d="M51.9875 1095.45 L81.6633 1095.45 L81.6633 1099.39 L51.9875 1099.39 L51.9875 1095.45 Z" fill="#000000" fill-rule="evenodd" fill-opacity="1" /><path clip-path="url(#clip550)" d="M101.756 1080.8 Q98.1447 1080.8 96.316 1084.37 Q94.5104 1087.91 94.5104 1095.04 Q94.5104 1102.14 96.316 1105.71 Q98.1447 1109.25 101.756 1109.25 Q105.39 1109.25 107.196 1105.71 Q109.024 1102.14 109.024 1095.04 Q109.024 1087.91 107.196 1084.37 Q105.39 1080.8 101.756 1080.8 M101.756 1077.1 Q107.566 1077.1 110.621 1081.7 Q113.7 1086.29 113.7 1095.04 Q113.7 1103.76 110.621 1108.37 Q107.566 1112.95 101.756 1112.95 Q95.9456 1112.95 92.8669 1108.37 Q89.8114 1103.76 89.8114 1095.04 Q89.8114 1086.29 92.8669 1081.7 Q95.9456 1077.1 101.756 1077.1 Z" fill="#000000" fill-rule="evenodd" fill-opacity="1" /><path clip-path="url(#clip550)" d="M121.918 1106.4 L126.802 1106.4 L126.802 1112.28 L121.918 1112.28 L121.918 1106.4 Z" fill="#000000" fill-rule="evenodd" fill-opacity="1" /><path clip-path="url(#clip550)" d="M137.033 1077.72 L155.39 1077.72 L155.39 1081.66 L141.316 1081.66 L141.316 1090.13 Q142.334 1089.78 143.353 1089.62 Q144.371 1089.44 145.39 1089.44 Q151.177 1089.44 154.556 1092.61 Q157.936 1095.78 157.936 1101.2 Q157.936 1106.77 154.464 1109.88 Q150.992 1112.95 144.672 1112.95 Q142.496 1112.95 140.228 1112.58 Q137.982 1112.21 135.575 1111.47 L135.575 1106.77 Q137.658 1107.91 139.881 1108.46 Q142.103 1109.02 144.58 1109.02 Q148.584 1109.02 150.922 1106.91 Q153.26 1104.81 153.26 1101.2 Q153.26 1097.58 150.922 1095.48 Q148.584 1093.37 144.58 1093.37 Q142.705 1093.37 140.83 1093.79 Q138.978 1094.2 137.033 1095.08 L137.033 1077.72 Z" fill="#000000" fill-rule="evenodd" fill-opacity="1" /><path clip-path="url(#clip550)" d="M100.76 752.352 Q97.1493 752.352 95.3206 755.917 Q93.515 759.458 93.515 766.588 Q93.515 773.694 95.3206 777.259 Q97.1493 780.801 100.76 780.801 Q104.395 780.801 106.2 777.259 Q108.029 773.694 108.029 766.588 Q108.029 759.458 106.2 755.917 Q104.395 752.352 100.76 752.352 M100.76 748.648 Q106.571 748.648 109.626 753.255 Q112.705 757.838 112.705 766.588 Q112.705 775.315 109.626 779.921 Q106.571 784.504 100.76 784.504 Q94.9502 784.504 91.8715 779.921 Q88.816 775.315 88.816 766.588 Q88.816 757.838 91.8715 753.255 Q94.9502 748.648 100.76 748.648 Z" fill="#000000" fill-rule="evenodd" fill-opacity="1" /><path clip-path="url(#clip550)" d="M120.922 777.953 L125.807 777.953 L125.807 783.833 L120.922 783.833 L120.922 777.953 Z" fill="#000000" fill-rule="evenodd" fill-opacity="1" /><path clip-path="url(#clip550)" d="M145.992 752.352 Q142.381 752.352 140.552 755.917 Q138.746 759.458 138.746 766.588 Q138.746 773.694 140.552 777.259 Q142.381 780.801 145.992 780.801 Q149.626 780.801 151.431 777.259 Q153.26 773.694 153.26 766.588 Q153.26 759.458 151.431 755.917 Q149.626 752.352 145.992 752.352 M145.992 748.648 Q151.802 748.648 154.857 753.255 Q157.936 757.838 157.936 766.588 Q157.936 775.315 154.857 779.921 Q151.802 784.504 145.992 784.504 Q140.181 784.504 137.103 779.921 Q134.047 775.315 134.047 766.588 Q134.047 757.838 137.103 753.255 Q140.181 748.648 145.992 748.648 Z" fill="#000000" fill-rule="evenodd" fill-opacity="1" /><path clip-path="url(#clip550)" d="M101.756 423.902 Q98.1447 423.902 96.316 427.466 Q94.5104 431.008 94.5104 438.138 Q94.5104 445.244 96.316 448.809 Q98.1447 452.351 101.756 452.351 Q105.39 452.351 107.196 448.809 Q109.024 445.244 109.024 438.138 Q109.024 431.008 107.196 427.466 Q105.39 423.902 101.756 423.902 M101.756 420.198 Q107.566 420.198 110.621 424.804 Q113.7 429.388 113.7 438.138 Q113.7 446.864 110.621 451.471 Q107.566 456.054 101.756 456.054 Q95.9456 456.054 92.8669 451.471 Q89.8114 446.864 89.8114 438.138 Q89.8114 429.388 92.8669 424.804 Q95.9456 420.198 101.756 420.198 Z" fill="#000000" fill-rule="evenodd" fill-opacity="1" /><path clip-path="url(#clip550)" d="M121.918 449.503 L126.802 449.503 L126.802 455.383 L121.918 455.383 L121.918 449.503 Z" fill="#000000" fill-rule="evenodd" fill-opacity="1" /><path clip-path="url(#clip550)" d="M137.033 420.823 L155.39 420.823 L155.39 424.758 L141.316 424.758 L141.316 433.23 Q142.334 432.883 143.353 432.721 Q144.371 432.536 145.39 432.536 Q151.177 432.536 154.556 435.707 Q157.936 438.878 157.936 444.295 Q157.936 449.874 154.464 452.976 Q150.992 456.054 144.672 456.054 Q142.496 456.054 140.228 455.684 Q137.982 455.313 135.575 454.573 L135.575 449.874 Q137.658 451.008 139.881 451.564 Q142.103 452.119 144.58 452.119 Q148.584 452.119 150.922 450.013 Q153.26 447.906 153.26 444.295 Q153.26 440.684 150.922 438.577 Q148.584 436.471 144.58 436.471 Q142.705 436.471 140.83 436.888 Q138.978 437.304 137.033 438.184 L137.033 420.823 Z" fill="#000000" fill-rule="evenodd" fill-opacity="1" /><path clip-path="url(#clip550)" d="M91.5706 122.998 L99.2095 122.998 L99.2095 96.632 L90.8993 98.2987 L90.8993 94.0395 L99.1632 92.3728 L103.839 92.3728 L103.839 122.998 L111.478 122.998 L111.478 126.933 L91.5706 126.933 L91.5706 122.998 Z" fill="#000000" fill-rule="evenodd" fill-opacity="1" /><path clip-path="url(#clip550)" d="M120.922 121.053 L125.807 121.053 L125.807 126.933 L120.922 126.933 L120.922 121.053 Z" fill="#000000" fill-rule="evenodd" fill-opacity="1" /><path clip-path="url(#clip550)" d="M145.992 95.4515 Q142.381 95.4515 140.552 99.0163 Q138.746 102.558 138.746 109.688 Q138.746 116.794 140.552 120.359 Q142.381 123.9 145.992 123.9 Q149.626 123.9 151.431 120.359 Q153.26 116.794 153.26 109.688 Q153.26 102.558 151.431 99.0163 Q149.626 95.4515 145.992 95.4515 M145.992 91.7478 Q151.802 91.7478 154.857 96.3543 Q157.936 100.938 157.936 109.688 Q157.936 118.414 154.857 123.021 Q151.802 127.604 145.992 127.604 Q140.181 127.604 137.103 123.021 Q134.047 118.414 134.047 109.688 Q134.047 100.938 137.103 96.3543 Q140.181 91.7478 145.992 91.7478 Z" fill="#000000" fill-rule="evenodd" fill-opacity="1" /><circle clip-path="url(#clip553)" cx="255.035" cy="1363.87" r="14" fill="#009af9" fill-rule="evenodd" fill-opacity="1" stroke="#000000" stroke-opacity="1" stroke-width="3.2"/>
<circle clip-path="url(#clip553)" cx="933.909" cy="1172.76" r="14" fill="#009af9" fill-rule="evenodd" fill-opacity="1" stroke="#000000" stroke-opacity="1" stroke-width="3.2"/>
<circle clip-path="url(#clip553)" cx="1612.78" cy="360.346" r="14" fill="#009af9" fill-rule="evenodd" fill-opacity="1" stroke="#000000" stroke-opacity="1" stroke-width="3.2"/>
<circle clip-path="url(#clip553)" cx="2291.66" cy="169.235" r="14" fill="#009af9" fill-rule="evenodd" fill-opacity="1" stroke="#000000" stroke-opacity="1" stroke-width="3.2"/>
<polyline clip-path="url(#clip553)" style="stroke:#e26f46; stroke-linecap:butt; stroke-linejoin:round; stroke-width:4; stroke-opacity:1; fill:none" points="
  255.035,1363.87 260.007,1367.73 264.979,1371.49 269.952,1375.15 274.924,1378.71 320.9,1407.07 366.877,1427.43 412.853,1440.19 458.829,1445.72 514.089,1443.35 
  569.348,1431.77 616.07,1415.29 662.791,1393.12 764.296,1327.24 857.875,1247.97 958.201,1147.01 1074.44,1014.55 1177.74,887.682 1268.32,772.951 1367.08,647.777 
  1466.43,525.53 1576.27,399.34 1680.78,292.67 1735.11,243.911 1789.45,200.565 1835.18,168.742 1880.92,141.587 1936.76,115.315 1992.6,97.259 2045.09,88.395 
  2097.58,87.9763 2139.63,94.1198 2181.68,106.346 2223.73,124.951 2265.77,150.228 2272.24,154.73 2278.72,159.397 2285.19,164.232 2291.66,169.235 
  "/>
<polyline clip-path="url(#clip553)" style="stroke:#3da44d; stroke-linecap:butt; stroke-linejoin:round; stroke-width:4; stroke-opacity:1; fill:none" points="
  255.035,1363.87 264.979,1369.1 274.924,1374.09 366.877,1409.08 458.829,1423.18 514.089,1421.37 569.348,1411.86 616.07,1397.89 662.791,1378.61 713.544,1351.83 
  764.296,1319.24 811.085,1284.33 857.875,1245.05 958.201,1147.68 1074.44,1016.7 1177.74,889.182 1268.32,773.037 1367.08,646.301 1466.43,523.372 1576.27,398.382 
  1680.78,295.224 1735.11,249.169 1789.45,209.001 1835.18,180.088 1880.92,155.905 1936.76,133.072 1992.6,117.851 2045.09,110.648 2097.58,110.411 2181.68,124.526 
  2265.77,156.116 2278.72,162.481 2291.66,169.235 
  "/>
<path clip-path="url(#clip550)" d="
M265.897 302.578 L593.645 302.578 L593.645 95.2176 L265.897 95.2176  Z
  " fill="#ffffff" fill-rule="evenodd" fill-opacity="1"/>
<polyline clip-path="url(#clip550)" style="stroke:#000000; stroke-linecap:butt; stroke-linejoin:round; stroke-width:4; stroke-opacity:1; fill:none" points="
  265.897,302.578 593.645,302.578 593.645,95.2176 265.897,95.2176 265.897,302.578 
  "/>
<circle clip-path="url(#clip550)" cx="361.844" cy="147.058" r="23" fill="#009af9" fill-rule="evenodd" fill-opacity="1" stroke="#000000" stroke-opacity="1" stroke-width="5.12"/>
<path clip-path="url(#clip550)" d="M482.456 143.64 Q481.847 146.662 481.027 148.395 Q479.692 151.042 477.467 151.042 Q475.921 151.042 474.75 150.175 Q473.602 149.285 473.204 147.809 Q472.759 148.395 472.361 148.793 Q471.986 149.191 471.26 149.8 Q470.534 150.386 469.55 150.714 Q468.59 151.042 467.489 151.042 Q466.645 151.042 465.873 150.878 Q465.1 150.737 464.28 150.339 Q463.483 149.917 462.898 149.285 Q462.336 148.652 461.961 147.622 Q461.586 146.591 461.586 145.28 Q461.586 143.64 462.219 141.415 Q462.874 139.19 464.373 135.208 Q465.193 133.1 465.193 131.929 Q465.193 131.39 465.076 131.039 Q464.959 130.687 464.725 130.57 Q464.514 130.43 464.373 130.406 Q464.233 130.36 463.999 130.36 Q462.547 130.36 461.282 131.835 Q460.017 133.311 459.15 136.309 Q458.963 136.894 458.846 137.035 Q458.729 137.175 458.377 137.175 Q457.792 137.152 457.792 136.684 Q457.792 136.496 458.003 135.77 Q458.213 135.021 458.705 133.92 Q459.221 132.795 459.923 131.788 Q460.626 130.758 461.727 130.032 Q462.851 129.306 464.139 129.306 Q465.896 129.306 466.973 130.453 Q468.074 131.578 468.074 133.241 Q468.074 134.271 467.254 136.262 Q464.655 143.172 464.655 146.053 Q464.655 149.964 467.629 149.964 Q468.613 149.964 469.526 149.566 Q470.463 149.168 471.072 148.606 Q471.681 148.044 472.15 147.435 Q472.642 146.826 472.852 146.427 Q473.087 146.029 473.11 145.935 L476.694 131.507 Q476.834 130.945 477.092 130.57 Q477.373 130.172 477.701 130.032 Q478.029 129.891 478.216 129.868 Q478.404 129.821 478.567 129.821 Q479.153 129.821 479.551 130.172 Q479.973 130.524 479.973 131.133 Q479.973 131.25 479.832 131.812 Q479.715 132.35 479.528 133.147 Q479.34 133.92 479.247 134.341 Q478.497 137.293 478.427 137.597 L477.092 142.773 Q477.022 143.078 476.787 144.062 Q476.577 145.045 476.459 145.561 Q476.342 146.053 476.225 146.732 Q476.132 147.388 476.132 147.762 Q476.132 148.934 476.483 149.449 Q476.834 149.964 477.607 149.964 Q478.333 149.964 478.895 149.472 Q479.481 148.957 479.926 147.973 Q480.371 146.966 480.629 146.146 Q480.886 145.327 481.214 144.038 Q481.331 143.476 481.425 143.336 Q481.542 143.172 481.87 143.172 Q482.456 143.172 482.456 143.64 Z" fill="#000000" fill-rule="evenodd" fill-opacity="1" /><path clip-path="url(#clip550)" d="M495.909 143.238 Q495.909 143.96 495.318 144.501 Q494.745 145.025 494.121 145.025 Q493.548 145.025 493.187 144.681 Q492.843 144.32 492.843 143.812 Q492.843 143.14 493.416 142.582 Q493.99 142.025 494.663 142.025 Q495.22 142.025 495.564 142.369 Q495.909 142.714 495.909 143.238 M496.204 159.421 Q496.204 159.552 496.056 160.077 Q495.909 160.585 495.548 161.372 Q495.204 162.142 494.728 162.864 Q494.253 163.585 493.466 164.094 Q492.695 164.602 491.81 164.602 Q490.613 164.602 489.826 163.815 Q489.055 163.028 489.055 161.847 Q489.055 161.208 489.826 159.158 Q492.056 153.19 492.138 152.944 Q492.515 152.01 492.515 151.19 Q492.515 150.813 492.433 150.584 Q492.351 150.338 492.187 150.256 Q492.023 150.157 491.924 150.141 Q491.842 150.124 491.679 150.124 Q490.711 150.124 489.809 151.108 Q488.908 152.092 488.285 154.289 Q488.153 154.699 488.071 154.797 Q487.989 154.896 487.744 154.896 Q487.334 154.879 487.334 154.551 Q487.334 154.453 487.448 154.076 Q487.563 153.682 487.776 153.092 Q487.989 152.485 488.367 151.862 Q488.744 151.223 489.203 150.665 Q489.678 150.108 490.35 149.747 Q491.023 149.387 491.777 149.387 Q493.007 149.387 493.761 150.19 Q494.531 150.977 494.531 152.141 Q494.531 152.781 494.089 153.912 Q493.548 155.387 493.351 155.863 L492.039 159.388 Q491.564 160.667 491.416 161.06 Q491.285 161.437 491.17 161.897 Q491.072 162.339 491.072 162.749 Q491.072 163.323 491.252 163.585 Q491.449 163.848 491.875 163.848 Q493.056 163.848 493.925 162.684 Q494.794 161.503 495.302 159.7 Q495.318 159.65 495.335 159.568 Q495.466 159.158 495.597 159.109 Q495.663 159.093 495.794 159.093 Q496.204 159.093 496.204 159.421 Z" fill="#000000" fill-rule="evenodd" fill-opacity="1" /><polyline clip-path="url(#clip550)" style="stroke:#e26f46; stroke-linecap:butt; stroke-linejoin:round; stroke-width:4; stroke-opacity:1; fill:none" points="
  289.884,198.898 433.805,198.898 
  "/>
<path clip-path="url(#clip550)" d="M482.854 197.234 Q482.854 200.654 481.121 203.957 Q479.411 207.259 476.717 209.297 Q474.024 211.311 471.283 211.311 Q469.644 211.311 468.543 210.421 Q467.465 209.508 466.88 208.22 Q466.435 209.812 465.474 213.63 Q464.514 217.448 464.514 217.823 Q464.514 218.034 464.561 218.127 Q464.608 218.221 464.818 218.338 Q465.029 218.479 465.545 218.525 Q466.06 218.596 466.927 218.596 Q467.372 218.596 467.536 218.596 Q467.723 218.619 467.887 218.736 Q468.074 218.853 468.074 219.111 Q468.074 220.071 467.208 220.071 Q466.435 220.071 464.842 220.001 Q463.249 219.931 462.453 219.931 Q461.774 219.931 460.415 220.001 Q459.057 220.071 458.424 220.071 Q457.792 220.071 457.792 219.509 Q457.792 219.181 457.885 218.97 Q457.956 218.783 458.143 218.689 Q458.33 218.619 458.494 218.596 Q458.635 218.596 458.916 218.596 Q459.993 218.596 460.462 218.408 Q460.93 218.244 461.094 217.893 Q461.282 217.565 461.493 216.628 L466.88 195.267 Q467.208 193.838 467.208 192.831 Q467.208 191.566 466.809 191.098 Q466.411 190.629 465.709 190.629 Q464.491 190.629 463.694 192.081 Q462.898 193.534 462.219 196.344 Q462.008 197.117 461.867 197.281 Q461.75 197.445 461.399 197.445 Q460.813 197.422 460.813 196.953 Q460.813 196.836 461.001 196.087 Q461.188 195.314 461.539 194.189 Q461.914 193.042 462.312 192.316 Q462.547 191.824 462.757 191.496 Q462.968 191.168 463.39 190.653 Q463.835 190.137 464.467 189.856 Q465.1 189.575 465.873 189.575 Q467.372 189.575 468.613 190.465 Q469.854 191.355 470.182 193.159 Q471.517 191.59 473.157 190.582 Q474.796 189.575 476.459 189.575 Q479.223 189.575 481.027 191.73 Q482.854 193.862 482.854 197.234 M479.387 195.126 Q479.387 192.995 478.567 191.824 Q477.771 190.629 476.319 190.629 Q474.515 190.629 472.431 192.456 Q470.37 194.189 469.948 195.806 L467.582 205.198 L467.442 205.971 Q467.442 206.111 467.512 206.533 Q467.606 206.931 467.863 207.587 Q468.144 208.243 468.519 208.828 Q468.917 209.391 469.62 209.812 Q470.346 210.234 471.236 210.234 Q472.665 210.234 474.211 208.969 Q475.78 207.704 476.951 205.315 Q477.677 203.769 478.521 200.443 Q479.387 197.094 479.387 195.126 Z" fill="#000000" fill-rule="evenodd" fill-opacity="1" /><path clip-path="url(#clip550)" d="M481.681 198.78 Q481.681 190.676 484.702 184.141 Q485.991 181.401 487.794 179.105 Q489.598 176.81 490.792 175.803 Q491.987 174.796 492.315 174.796 Q492.783 174.796 492.807 175.264 Q492.807 175.498 492.174 176.084 Q484.445 183.954 484.468 198.78 Q484.468 213.654 491.987 221.219 Q492.807 222.039 492.807 222.296 Q492.807 222.765 492.315 222.765 Q491.987 222.765 490.839 221.805 Q489.691 220.844 487.911 218.642 Q486.131 216.441 484.843 213.747 Q481.681 207.212 481.681 198.78 Z" fill="#000000" fill-rule="evenodd" fill-opacity="1" /><path clip-path="url(#clip550)" d="M523.987 192.737 Q523.987 194.049 523.168 194.798 Q522.348 195.525 521.411 195.525 Q520.521 195.525 520.052 195.009 Q519.584 194.494 519.584 193.838 Q519.584 192.948 520.24 192.175 Q520.896 191.402 521.879 191.238 Q520.919 190.629 519.49 190.629 Q518.553 190.629 517.734 191.121 Q516.937 191.613 516.445 192.245 Q515.977 192.878 515.555 193.791 Q515.157 194.681 514.993 195.22 Q514.853 195.735 514.735 196.297 L513.096 202.856 Q512.3 205.971 512.3 207.072 Q512.3 208.43 512.955 209.344 Q513.611 210.234 514.923 210.234 Q515.438 210.234 516.024 210.093 Q516.609 209.929 517.359 209.508 Q518.132 209.063 518.811 208.407 Q519.514 207.728 520.193 206.58 Q520.872 205.432 521.317 203.957 Q521.458 203.441 521.926 203.441 Q522.512 203.441 522.512 203.91 Q522.512 204.308 522.184 205.151 Q521.879 205.971 521.2 207.048 Q520.544 208.102 519.678 209.063 Q518.811 210 517.523 210.655 Q516.235 211.311 514.829 211.311 Q512.815 211.311 511.48 210.234 Q510.145 209.156 509.653 207.657 Q509.536 207.868 509.372 208.149 Q509.208 208.43 508.716 209.063 Q508.247 209.672 507.709 210.14 Q507.17 210.585 506.327 210.937 Q505.507 211.311 504.617 211.311 Q503.493 211.311 502.486 210.983 Q501.502 210.655 500.799 209.906 Q500.096 209.156 500.096 208.126 Q500.096 206.978 500.869 206.182 Q501.666 205.362 502.743 205.362 Q503.422 205.362 503.961 205.76 Q504.523 206.158 504.523 207.025 Q504.523 207.985 503.867 208.711 Q503.212 209.437 502.275 209.625 Q503.235 210.234 504.664 210.234 Q506.21 210.234 507.428 208.875 Q508.646 207.517 509.231 205.245 Q510.683 199.787 511.246 197.351 Q511.808 194.892 511.808 193.838 Q511.808 192.854 511.55 192.175 Q511.292 191.496 510.847 191.191 Q510.426 190.863 510.028 190.746 Q509.653 190.629 509.231 190.629 Q508.529 190.629 507.732 190.91 Q506.959 191.191 506.022 191.847 Q505.109 192.48 504.242 193.791 Q503.376 195.103 502.79 196.906 Q502.673 197.445 502.158 197.445 Q501.595 197.422 501.595 196.953 Q501.595 196.555 501.9 195.735 Q502.228 194.892 502.884 193.838 Q503.563 192.784 504.43 191.847 Q505.32 190.887 506.608 190.231 Q507.92 189.575 509.325 189.575 Q509.957 189.575 510.566 189.716 Q511.199 189.833 511.948 190.184 Q512.721 190.536 513.4 191.309 Q514.08 192.081 514.501 193.206 Q514.782 192.667 515.157 192.152 Q515.555 191.636 516.164 191.004 Q516.797 190.348 517.663 189.973 Q518.553 189.575 519.537 189.575 Q520.497 189.575 521.434 189.833 Q522.371 190.067 523.168 190.84 Q523.987 191.59 523.987 192.737 Z" fill="#000000" fill-rule="evenodd" fill-opacity="1" /><path clip-path="url(#clip550)" d="M527.256 222.296 Q527.256 222.062 527.865 221.477 Q535.594 213.607 535.594 198.78 Q535.594 183.907 528.169 176.388 Q527.256 175.522 527.256 175.264 Q527.256 174.796 527.724 174.796 Q528.052 174.796 529.2 175.756 Q530.371 176.716 532.128 178.918 Q533.908 181.12 535.22 183.813 Q538.382 190.348 538.382 198.78 Q538.382 206.884 535.36 213.419 Q534.072 216.16 532.268 218.455 Q530.465 220.751 529.27 221.758 Q528.076 222.765 527.724 222.765 Q527.256 222.765 527.256 222.296 Z" fill="#000000" fill-rule="evenodd" fill-opacity="1" /><polyline clip-path="url(#clip550)" style="stroke:#3da44d; stroke-linecap:butt; stroke-linejoin:round; stroke-width:4; stroke-opacity:1; fill:none" points="
  289.884,250.738 433.805,250.738 
  "/>
<path clip-path="url(#clip550)" d="M476.218 242.856 L476.218 246.883 Q474.412 245.957 472.468 245.495 Q470.523 245.032 468.44 245.032 Q465.269 245.032 463.671 246.004 Q462.097 246.976 462.097 248.92 Q462.097 250.402 463.232 251.258 Q464.366 252.092 467.792 252.856 L469.25 253.18 Q473.787 254.152 475.685 255.934 Q477.606 257.694 477.606 260.865 Q477.606 264.476 474.736 266.582 Q471.889 268.689 466.889 268.689 Q464.806 268.689 462.537 268.272 Q460.292 267.879 457.792 267.068 L457.792 262.67 Q460.153 263.897 462.445 264.522 Q464.736 265.124 466.982 265.124 Q469.991 265.124 471.611 264.106 Q473.231 263.064 473.231 261.189 Q473.231 259.453 472.051 258.527 Q470.894 257.601 466.935 256.744 L465.454 256.397 Q461.495 255.564 459.736 253.851 Q457.977 252.115 457.977 249.106 Q457.977 245.448 460.57 243.458 Q463.162 241.467 467.931 241.467 Q470.292 241.467 472.375 241.814 Q474.458 242.161 476.218 242.856 Z" fill="#000000" fill-rule="evenodd" fill-opacity="1" /><path clip-path="url(#clip550)" d="M484.389 242.092 L488.648 242.092 L488.648 268.018 L484.389 268.018 L484.389 242.092 M484.389 231.999 L488.648 231.999 L488.648 237.393 L484.389 237.393 L484.389 231.999 Z" fill="#000000" fill-rule="evenodd" fill-opacity="1" /><path clip-path="url(#clip550)" d="M519.111 252.369 L519.111 268.018 L514.852 268.018 L514.852 252.508 Q514.852 248.828 513.416 246.999 Q511.981 245.17 509.111 245.17 Q505.662 245.17 503.671 247.37 Q501.68 249.569 501.68 253.365 L501.68 268.018 L497.398 268.018 L497.398 242.092 L501.68 242.092 L501.68 246.12 Q503.208 243.782 505.268 242.624 Q507.352 241.467 510.06 241.467 Q514.528 241.467 516.819 244.245 Q519.111 246.999 519.111 252.369 Z" fill="#000000" fill-rule="evenodd" fill-opacity="1" /></svg>
