<?xml version="1.0" encoding="utf-8"?>
<svg xmlns="http://www.w3.org/2000/svg" xmlns:xlink="http://www.w3.org/1999/xlink" width="600" height="400" viewBox="0 0 2400 1600">
<defs>
  <clipPath id="clip390">
    <rect x="0" y="0" width="2400" height="1600"/>
  </clipPath>
</defs>
<path clip-path="url(#clip390)" d="
M0 1600 L2400 1600 L2400 0 L0 0  Z
  " fill="#ffffff" fill-rule="evenodd" fill-opacity="1"/>
<defs>
  <clipPath id="clip391">
    <rect x="480" y="0" width="1681" height="1600"/>
  </clipPath>
</defs>
<path clip-path="url(#clip390)" d="
M216.436 1486.45 L2352.76 1486.45 L2352.76 123.472 L216.436 123.472  Z
  " fill="#ffffff" fill-rule="evenodd" fill-opacity="1"/>
<defs>
  <clipPath id="clip392">
    <rect x="216" y="123" width="2137" height="1364"/>
  </clipPath>
</defs>
<polyline clip-path="url(#clip392)" style="stroke:#000000; stroke-linecap:butt; stroke-linejoin:round; stroke-width:2; stroke-opacity:0.1; fill:none" points="
  276.898,1486.45 276.898,123.472 
  "/>
<polyline clip-path="url(#clip392)" style="stroke:#000000; stroke-linecap:butt; stroke-linejoin:round; stroke-width:2; stroke-opacity:0.1; fill:none" points="
  780.747,1486.45 780.747,123.472 
  "/>
<polyline clip-path="url(#clip392)" style="stroke:#000000; stroke-linecap:butt; stroke-linejoin:round; stroke-width:2; stroke-opacity:0.1; fill:none" points="
  1284.6,1486.45 1284.6,123.472 
  "/>
<polyline clip-path="url(#clip392)" style="stroke:#000000; stroke-linecap:butt; stroke-linejoin:round; stroke-width:2; stroke-opacity:0.1; fill:none" points="
  1788.44,1486.45 1788.44,123.472 
  "/>
<polyline clip-path="url(#clip392)" style="stroke:#000000; stroke-linecap:butt; stroke-linejoin:round; stroke-width:2; stroke-opacity:0.1; fill:none" points="
  2292.29,1486.45 2292.29,123.472 
  "/>
<polyline clip-path="url(#clip390)" style="stroke:#000000; stroke-linecap:butt; stroke-linejoin:round; stroke-width:4; stroke-opacity:1; fill:none" points="
  216.436,1486.45 2352.76,1486.45 
  "/>
<polyline clip-path="url(#clip390)" style="stroke:#000000; stroke-linecap:butt; stroke-linejoin:round; stroke-width:4; stroke-opacity:1; fill:none" points="
  276.898,1486.45 276.898,1467.55 
  "/>
<polyline clip-path="url(#clip390)" style="stroke:#000000; stroke-linecap:butt; stroke-linejoin:round; stroke-width:4; stroke-opacity:1; fill:none" points="
  780.747,1486.45 780.747,1467.55 
  "/>
<polyline clip-path="url(#clip390)" style="stroke:#000000; stroke-linecap:butt; stroke-linejoin:round; stroke-width:4; stroke-opacity:1; fill:none" points="
  1284.6,1486.45 1284.6,1467.55 
  "/>
<polyline clip-path="url(#clip390)" style="stroke:#000000; stroke-linecap:butt; stroke-linejoin:round; stroke-width:4; stroke-opacity:1; fill:none" points="
  1788.44,1486.45 1788.44,1467.55 
  "/>
<polyline clip-path="url(#clip390)" style="stroke:#000000; stroke-linecap:butt; stroke-linejoin:round; stroke-width:4; stroke-opacity:1; fill:none" points="
  2292.29,1486.45 2292.29,1467.55 
  "/>
<path clip-path="url(#clip390)" d="M223.426 1530.29 L253.102 1530.29 L253.102 1534.23 L223.426 1534.23 L223.426 1530.29 Z" fill="#000000" fill-rule="evenodd" fill-opacity="1" /><path clip-path="url(#clip390)" d="M264.004 1543.18 L271.643 1543.18 L271.643 1516.82 L263.333 1518.49 L263.333 1514.23 L271.597 1512.56 L276.273 1512.56 L276.273 1543.18 L283.912 1543.18 L283.912 1547.12 L264.004 1547.12 L264.004 1543.18 Z" fill="#000000" fill-rule="evenodd" fill-opacity="1" /><path clip-path="url(#clip390)" d="M293.356 1541.24 L298.24 1541.24 L298.24 1547.12 L293.356 1547.12 L293.356 1541.24 Z" fill="#000000" fill-rule="evenodd" fill-opacity="1" /><path clip-path="url(#clip390)" d="M318.425 1515.64 Q314.814 1515.64 312.986 1519.2 Q311.18 1522.75 311.18 1529.87 Q311.18 1536.98 312.986 1540.55 Q314.814 1544.09 318.425 1544.09 Q322.06 1544.09 323.865 1540.55 Q325.694 1536.98 325.694 1529.87 Q325.694 1522.75 323.865 1519.2 Q322.06 1515.64 318.425 1515.64 M318.425 1511.93 Q324.235 1511.93 327.291 1516.54 Q330.37 1521.12 330.37 1529.87 Q330.37 1538.6 327.291 1543.21 Q324.235 1547.79 318.425 1547.79 Q312.615 1547.79 309.536 1543.21 Q306.481 1538.6 306.481 1529.87 Q306.481 1521.12 309.536 1516.54 Q312.615 1511.93 318.425 1511.93 Z" fill="#000000" fill-rule="evenodd" fill-opacity="1" /><path clip-path="url(#clip390)" d="M727.773 1530.29 L757.448 1530.29 L757.448 1534.23 L727.773 1534.23 L727.773 1530.29 Z" fill="#000000" fill-rule="evenodd" fill-opacity="1" /><path clip-path="url(#clip390)" d="M777.541 1515.64 Q773.93 1515.64 772.101 1519.2 Q770.295 1522.75 770.295 1529.87 Q770.295 1536.98 772.101 1540.55 Q773.93 1544.09 777.541 1544.09 Q781.175 1544.09 782.981 1540.55 Q784.809 1536.98 784.809 1529.87 Q784.809 1522.75 782.981 1519.2 Q781.175 1515.64 777.541 1515.64 M777.541 1511.93 Q783.351 1511.93 786.407 1516.54 Q789.485 1521.12 789.485 1529.87 Q789.485 1538.6 786.407 1543.21 Q783.351 1547.79 777.541 1547.79 Q771.731 1547.79 768.652 1543.21 Q765.596 1538.6 765.596 1529.87 Q765.596 1521.12 768.652 1516.54 Q771.731 1511.93 777.541 1511.93 Z" fill="#000000" fill-rule="evenodd" fill-opacity="1" /><path clip-path="url(#clip390)" d="M797.703 1541.24 L802.587 1541.24 L802.587 1547.12 L797.703 1547.12 L797.703 1541.24 Z" fill="#000000" fill-rule="evenodd" fill-opacity="1" /><path clip-path="url(#clip390)" d="M812.818 1512.56 L831.175 1512.56 L831.175 1516.5 L817.101 1516.5 L817.101 1524.97 Q818.119 1524.62 819.138 1524.46 Q820.156 1524.27 821.175 1524.27 Q826.962 1524.27 830.341 1527.44 Q833.721 1530.62 833.721 1536.03 Q833.721 1541.61 830.249 1544.71 Q826.777 1547.79 820.457 1547.79 Q818.281 1547.79 816.013 1547.42 Q813.767 1547.05 811.36 1546.31 L811.36 1541.61 Q813.443 1542.74 815.666 1543.3 Q817.888 1543.86 820.365 1543.86 Q824.369 1543.86 826.707 1541.75 Q829.045 1539.64 829.045 1536.03 Q829.045 1532.42 826.707 1530.31 Q824.369 1528.21 820.365 1528.21 Q818.49 1528.21 816.615 1528.62 Q814.763 1529.04 812.818 1529.92 L812.818 1512.56 Z" fill="#000000" fill-rule="evenodd" fill-opacity="1" /><path clip-path="url(#clip390)" d="M1261.98 1515.64 Q1258.37 1515.64 1256.54 1519.2 Q1254.73 1522.75 1254.73 1529.87 Q1254.73 1536.98 1256.54 1540.55 Q1258.37 1544.09 1261.98 1544.09 Q1265.61 1544.09 1267.42 1540.55 Q1269.25 1536.98 1269.25 1529.87 Q1269.25 1522.75 1267.42 1519.2 Q1265.61 1515.64 1261.98 1515.64 M1261.98 1511.93 Q1267.79 1511.93 1270.85 1516.54 Q1273.92 1521.12 1273.92 1529.87 Q1273.92 1538.6 1270.85 1543.21 Q1267.79 1547.79 1261.98 1547.79 Q1256.17 1547.79 1253.09 1543.21 Q1250.04 1538.6 1250.04 1529.87 Q1250.04 1521.12 1253.09 1516.54 Q1256.17 1511.93 1261.98 1511.93 Z" fill="#000000" fill-rule="evenodd" fill-opacity="1" /><path clip-path="url(#clip390)" d="M1282.14 1541.24 L1287.03 1541.24 L1287.03 1547.12 L1282.14 1547.12 L1282.14 1541.24 Z" fill="#000000" fill-rule="evenodd" fill-opacity="1" /><path clip-path="url(#clip390)" d="M1307.21 1515.64 Q1303.6 1515.64 1301.77 1519.2 Q1299.97 1522.75 1299.97 1529.87 Q1299.97 1536.98 1301.77 1540.55 Q1303.6 1544.09 1307.21 1544.09 Q1310.85 1544.09 1312.65 1540.55 Q1314.48 1536.98 1314.48 1529.87 Q1314.48 1522.75 1312.65 1519.2 Q1310.85 1515.64 1307.21 1515.64 M1307.21 1511.93 Q1313.02 1511.93 1316.08 1516.54 Q1319.16 1521.12 1319.16 1529.87 Q1319.16 1538.6 1316.08 1543.21 Q1313.02 1547.79 1307.21 1547.79 Q1301.4 1547.79 1298.32 1543.21 Q1295.27 1538.6 1295.27 1529.87 Q1295.27 1521.12 1298.32 1516.54 Q1301.4 1511.93 1307.21 1511.93 Z" fill="#000000" fill-rule="evenodd" fill-opacity="1" /><path clip-path="url(#clip390)" d="M1766.33 1515.64 Q1762.72 1515.64 1760.89 1519.2 Q1759.08 1522.75 1759.08 1529.87 Q1759.08 1536.98 1760.89 1540.55 Q1762.72 1544.09 1766.33 1544.09 Q1769.96 1544.09 1771.77 1540.55 Q1773.6 1536.98 1773.6 1529.87 Q1773.6 1522.75 1771.77 1519.2 Q1769.96 1515.64 1766.33 1515.64 M1766.33 1511.93 Q1772.14 1511.93 1775.19 1516.54 Q1778.27 1521.12 1778.27 1529.87 Q1778.27 1538.6 1775.19 1543.21 Q1772.14 1547.79 1766.33 1547.79 Q1760.52 1547.79 1757.44 1543.21 Q1754.38 1538.6 1754.38 1529.87 Q1754.38 1521.12 1757.44 1516.54 Q1760.52 1511.93 1766.33 1511.93 Z" fill="#000000" fill-rule="evenodd" fill-opacity="1" /><path clip-path="url(#clip390)" d="M1786.49 1541.24 L1791.37 1541.24 L1791.37 1547.12 L1786.49 1547.12 L1786.49 1541.24 Z" fill="#000000" fill-rule="evenodd" fill-opacity="1" /><path clip-path="url(#clip390)" d="M1801.6 1512.56 L1819.96 1512.56 L1819.96 1516.5 L1805.89 1516.5 L1805.89 1524.97 Q1806.91 1524.62 1807.92 1524.46 Q1808.94 1524.27 1809.96 1524.27 Q1815.75 1524.27 1819.13 1527.44 Q1822.51 1530.62 1822.51 1536.03 Q1822.51 1541.61 1819.04 1544.71 Q1815.56 1547.79 1809.24 1547.79 Q1807.07 1547.79 1804.8 1547.42 Q1802.55 1547.05 1800.15 1546.31 L1800.15 1541.61 Q1802.23 1542.74 1804.45 1543.3 Q1806.67 1543.86 1809.15 1543.86 Q1813.16 1543.86 1815.49 1541.75 Q1817.83 1539.64 1817.83 1536.03 Q1817.83 1532.42 1815.49 1530.31 Q1813.16 1528.21 1809.15 1528.21 Q1807.28 1528.21 1805.4 1528.62 Q1803.55 1529.04 1801.6 1529.92 L1801.6 1512.56 Z" fill="#000000" fill-rule="evenodd" fill-opacity="1" /><path clip-path="url(#clip390)" d="M2259.45 1543.18 L2267.09 1543.18 L2267.09 1516.82 L2258.78 1518.49 L2258.78 1514.23 L2267.04 1512.56 L2271.72 1512.56 L2271.72 1543.18 L2279.35 1543.18 L2279.35 1547.12 L2259.45 1547.12 L2259.45 1543.18 Z" fill="#000000" fill-rule="evenodd" fill-opacity="1" /><path clip-path="url(#clip390)" d="M2288.8 1541.24 L2293.68 1541.24 L2293.68 1547.12 L2288.8 1547.12 L2288.8 1541.24 Z" fill="#000000" fill-rule="evenodd" fill-opacity="1" /><path clip-path="url(#clip390)" d="M2313.87 1515.64 Q2310.26 1515.64 2308.43 1519.2 Q2306.62 1522.75 2306.62 1529.87 Q2306.62 1536.98 2308.43 1540.55 Q2310.26 1544.09 2313.87 1544.09 Q2317.5 1544.09 2319.31 1540.55 Q2321.14 1536.98 2321.14 1529.87 Q2321.14 1522.75 2319.31 1519.2 Q2317.5 1515.64 2313.87 1515.64 M2313.87 1511.93 Q2319.68 1511.93 2322.73 1516.54 Q2325.81 1521.12 2325.81 1529.87 Q2325.81 1538.6 2322.73 1543.21 Q2319.68 1547.79 2313.87 1547.79 Q2308.06 1547.79 2304.98 1543.21 Q2301.92 1538.6 2301.92 1529.87 Q2301.92 1521.12 2304.98 1516.54 Q2308.06 1511.93 2313.87 1511.93 Z" fill="#000000" fill-rule="evenodd" fill-opacity="1" /><polyline clip-path="url(#clip392)" style="stroke:#000000; stroke-linecap:butt; stroke-linejoin:round; stroke-width:2; stroke-opacity:0.1; fill:none" points="
  216.436,1447.87 2352.76,1447.87 
  "/>
<polyline clip-path="url(#clip392)" style="stroke:#000000; stroke-linecap:butt; stroke-linejoin:round; stroke-width:2; stroke-opacity:0.1; fill:none" points="
  216.436,1220.41 2352.76,1220.41 
  "/>
<polyline clip-path="url(#clip392)" style="stroke:#000000; stroke-linecap:butt; stroke-linejoin:round; stroke-width:2; stroke-opacity:0.1; fill:none" points="
  216.436,992.941 2352.76,992.941 
  "/>
<polyline clip-path="url(#clip392)" style="stroke:#000000; stroke-linecap:butt; stroke-linejoin:round; stroke-width:2; stroke-opacity:0.1; fill:none" points="
  216.436,765.476 2352.76,765.476 
  "/>
<polyline clip-path="url(#clip392)" style="stroke:#000000; stroke-linecap:butt; stroke-linejoin:round; stroke-width:2; stroke-opacity:0.1; fill:none" points="
  216.436,538.01 2352.76,538.01 
  "/>
<polyline clip-path="url(#clip392)" style="stroke:#000000; stroke-linecap:butt; stroke-linejoin:round; stroke-width:2; stroke-opacity:0.1; fill:none" points="
  216.436,310.544 2352.76,310.544 
  "/>
<polyline clip-path="url(#clip390)" style="stroke:#000000; stroke-linecap:butt; stroke-linejoin:round; stroke-width:4; stroke-opacity:1; fill:none" points="
  216.436,1486.45 216.436,123.472 
  "/>
<polyline clip-path="url(#clip390)" style="stroke:#000000; stroke-linecap:butt; stroke-linejoin:round; stroke-width:4; stroke-opacity:1; fill:none" points="
  216.436,1447.87 235.334,1447.87 
  "/>
<polyline clip-path="url(#clip390)" style="stroke:#000000; stroke-linecap:butt; stroke-linejoin:round; stroke-width:4; stroke-opacity:1; fill:none" points="
  216.436,1220.41 235.334,1220.41 
  "/>
<polyline clip-path="url(#clip390)" style="stroke:#000000; stroke-linecap:butt; stroke-linejoin:round; stroke-width:4; stroke-opacity:1; fill:none" points="
  216.436,992.941 235.334,992.941 
  "/>
<polyline clip-path="url(#clip390)" style="stroke:#000000; stroke-linecap:butt; stroke-linejoin:round; stroke-width:4; stroke-opacity:1; fill:none" points="
  216.436,765.476 235.334,765.476 
  "/>
<polyline clip-path="url(#clip390)" style="stroke:#000000; stroke-linecap:butt; stroke-linejoin:round; stroke-width:4; stroke-opacity:1; fill:none" points="
  216.436,538.01 235.334,538.01 
  "/>
<polyline clip-path="url(#clip390)" style="stroke:#000000; stroke-linecap:butt; stroke-linejoin:round; stroke-width:4; stroke-opacity:1; fill:none" points="
  216.436,310.544 235.334,310.544 
  "/>
<path clip-path="url(#clip390)" d="M62.9365 1433.67 Q59.3254 1433.67 57.4967 1437.24 Q55.6912 1440.78 55.6912 1447.91 Q55.6912 1455.01 57.4967 1458.58 Q59.3254 1462.12 62.9365 1462.12 Q66.5707 1462.12 68.3763 1458.58 Q70.205 1455.01 70.205 1447.91 Q70.205 1440.78 68.3763 1437.24 Q66.5707 1433.67 62.9365 1433.67 M62.9365 1429.97 Q68.7467 1429.97 71.8022 1434.57 Q74.8809 1439.16 74.8809 1447.91 Q74.8809 1456.63 71.8022 1461.24 Q68.7467 1465.82 62.9365 1465.82 Q57.1264 1465.82 54.0477 1461.24 Q50.9921 1456.63 50.9921 1447.91 Q50.9921 1439.16 54.0477 1434.57 Q57.1264 1429.97 62.9365 1429.97 Z" fill="#000000" fill-rule="evenodd" fill-opacity="1" /><path clip-path="url(#clip390)" d="M83.0984 1459.27 L87.9827 1459.27 L87.9827 1465.15 L83.0984 1465.15 L83.0984 1459.27 Z" fill="#000000" fill-rule="evenodd" fill-opacity="1" /><path clip-path="url(#clip390)" d="M108.168 1433.67 Q104.557 1433.67 102.728 1437.24 Q100.922 1440.78 100.922 1447.91 Q100.922 1455.01 102.728 1458.58 Q104.557 1462.12 108.168 1462.12 Q111.802 1462.12 113.608 1458.58 Q115.436 1455.01 115.436 1447.91 Q115.436 1440.78 113.608 1437.24 Q111.802 1433.67 108.168 1433.67 M108.168 1429.97 Q113.978 1429.97 117.033 1434.57 Q120.112 1439.16 120.112 1447.91 Q120.112 1456.63 117.033 1461.24 Q113.978 1465.82 108.168 1465.82 Q102.358 1465.82 99.2789 1461.24 Q96.2234 1456.63 96.2234 1447.91 Q96.2234 1439.16 99.2789 1434.57 Q102.358 1429.97 108.168 1429.97 Z" fill="#000000" fill-rule="evenodd" fill-opacity="1" /><path clip-path="url(#clip390)" d="M138.33 1433.67 Q134.719 1433.67 132.89 1437.24 Q131.084 1440.78 131.084 1447.91 Q131.084 1455.01 132.89 1458.58 Q134.719 1462.12 138.33 1462.12 Q141.964 1462.12 143.769 1458.58 Q145.598 1455.01 145.598 1447.91 Q145.598 1440.78 143.769 1437.24 Q141.964 1433.67 138.33 1433.67 M138.33 1429.97 Q144.14 1429.97 147.195 1434.57 Q150.274 1439.16 150.274 1447.91 Q150.274 1456.63 147.195 1461.24 Q144.14 1465.82 138.33 1465.82 Q132.519 1465.82 129.441 1461.24 Q126.385 1456.63 126.385 1447.91 Q126.385 1439.16 129.441 1434.57 Q132.519 1429.97 138.33 1429.97 Z" fill="#000000" fill-rule="evenodd" fill-opacity="1" /><path clip-path="url(#clip390)" d="M168.491 1433.67 Q164.88 1433.67 163.052 1437.24 Q161.246 1440.78 161.246 1447.91 Q161.246 1455.01 163.052 1458.58 Q164.88 1462.12 168.491 1462.12 Q172.126 1462.12 173.931 1458.58 Q175.76 1455.01 175.76 1447.91 Q175.76 1440.78 173.931 1437.24 Q172.126 1433.67 168.491 1433.67 M168.491 1429.97 Q174.302 1429.97 177.357 1434.57 Q180.436 1439.16 180.436 1447.91 Q180.436 1456.63 177.357 1461.24 Q174.302 1465.82 168.491 1465.82 Q162.681 1465.82 159.603 1461.24 Q156.547 1456.63 156.547 1447.91 Q156.547 1439.16 159.603 1434.57 Q162.681 1429.97 168.491 1429.97 Z" fill="#000000" fill-rule="evenodd" fill-opacity="1" /><path clip-path="url(#clip390)" d="M63.9319 1206.21 Q60.3208 1206.21 58.4921 1209.77 Q56.6865 1213.31 56.6865 1220.44 Q56.6865 1227.55 58.4921 1231.11 Q60.3208 1234.65 63.9319 1234.65 Q67.5661 1234.65 69.3717 1231.11 Q71.2004 1227.55 71.2004 1220.44 Q71.2004 1213.31 69.3717 1209.77 Q67.5661 1206.21 63.9319 1206.21 M63.9319 1202.5 Q69.742 1202.5 72.7976 1207.11 Q75.8763 1211.69 75.8763 1220.44 Q75.8763 1229.17 72.7976 1233.78 Q69.742 1238.36 63.9319 1238.36 Q58.1217 1238.36 55.043 1233.78 Q51.9875 1229.17 51.9875 1220.44 Q51.9875 1211.69 55.043 1207.11 Q58.1217 1202.5 63.9319 1202.5 Z" fill="#000000" fill-rule="evenodd" fill-opacity="1" /><path clip-path="url(#clip390)" d="M84.0938 1231.81 L88.978 1231.81 L88.978 1237.69 L84.0938 1237.69 L84.0938 1231.81 Z" fill="#000000" fill-rule="evenodd" fill-opacity="1" /><path clip-path="url(#clip390)" d="M109.163 1206.21 Q105.552 1206.21 103.723 1209.77 Q101.918 1213.31 101.918 1220.44 Q101.918 1227.55 103.723 1231.11 Q105.552 1234.65 109.163 1234.65 Q112.797 1234.65 114.603 1231.11 Q116.432 1227.55 116.432 1220.44 Q116.432 1213.31 114.603 1209.77 Q112.797 1206.21 109.163 1206.21 M109.163 1202.5 Q114.973 1202.5 118.029 1207.11 Q121.107 1211.69 121.107 1220.44 Q121.107 1229.17 118.029 1233.78 Q114.973 1238.36 109.163 1238.36 Q103.353 1238.36 100.274 1233.78 Q97.2187 1229.17 97.2187 1220.44 Q97.2187 1211.69 100.274 1207.11 Q103.353 1202.5 109.163 1202.5 Z" fill="#000000" fill-rule="evenodd" fill-opacity="1" /><path clip-path="url(#clip390)" d="M139.325 1206.21 Q135.714 1206.21 133.885 1209.77 Q132.08 1213.31 132.08 1220.44 Q132.08 1227.55 133.885 1231.11 Q135.714 1234.65 139.325 1234.65 Q142.959 1234.65 144.765 1231.11 Q146.593 1227.55 146.593 1220.44 Q146.593 1213.31 144.765 1209.77 Q142.959 1206.21 139.325 1206.21 M139.325 1202.5 Q145.135 1202.5 148.191 1207.11 Q151.269 1211.69 151.269 1220.44 Q151.269 1229.17 148.191 1233.78 Q145.135 1238.36 139.325 1238.36 Q133.515 1238.36 130.436 1233.78 Q127.381 1229.17 127.381 1220.44 Q127.381 1211.69 130.436 1207.11 Q133.515 1202.5 139.325 1202.5 Z" fill="#000000" fill-rule="evenodd" fill-opacity="1" /><path clip-path="url(#clip390)" d="M159.533 1203.13 L177.89 1203.13 L177.89 1207.06 L163.816 1207.06 L163.816 1215.53 Q164.834 1215.19 165.853 1215.03 Q166.871 1214.84 167.89 1214.84 Q173.677 1214.84 177.056 1218.01 Q180.436 1221.18 180.436 1226.6 Q180.436 1232.18 176.964 1235.28 Q173.491 1238.36 167.172 1238.36 Q164.996 1238.36 162.728 1237.99 Q160.482 1237.62 158.075 1236.88 L158.075 1232.18 Q160.158 1233.31 162.38 1233.87 Q164.603 1234.42 167.079 1234.42 Q171.084 1234.42 173.422 1232.32 Q175.76 1230.21 175.76 1226.6 Q175.76 1222.99 173.422 1220.88 Q171.084 1218.78 167.079 1218.78 Q165.204 1218.78 163.329 1219.19 Q161.478 1219.61 159.533 1220.49 L159.533 1203.13 Z" fill="#000000" fill-rule="evenodd" fill-opacity="1" /><path clip-path="url(#clip390)" d="M62.9365 978.74 Q59.3254 978.74 57.4967 982.305 Q55.6912 985.847 55.6912 992.976 Q55.6912 1000.08 57.4967 1003.65 Q59.3254 1007.19 62.9365 1007.19 Q66.5707 1007.19 68.3763 1003.65 Q70.205 1000.08 70.205 992.976 Q70.205 985.847 68.3763 982.305 Q66.5707 978.74 62.9365 978.74 M62.9365 975.036 Q68.7467 975.036 71.8022 979.643 Q74.8809 984.226 74.8809 992.976 Q74.8809 1001.7 71.8022 1006.31 Q68.7467 1010.89 62.9365 1010.89 Q57.1264 1010.89 54.0477 1006.31 Q50.9921 1001.7 50.9921 992.976 Q50.9921 984.226 54.0477 979.643 Q57.1264 975.036 62.9365 975.036 Z" fill="#000000" fill-rule="evenodd" fill-opacity="1" /><path clip-path="url(#clip390)" d="M83.0984 1004.34 L87.9827 1004.34 L87.9827 1010.22 L83.0984 1010.22 L83.0984 1004.34 Z" fill="#000000" fill-rule="evenodd" fill-opacity="1" /><path clip-path="url(#clip390)" d="M108.168 978.74 Q104.557 978.74 102.728 982.305 Q100.922 985.847 100.922 992.976 Q100.922 1000.08 102.728 1003.65 Q104.557 1007.19 108.168 1007.19 Q111.802 1007.19 113.608 1003.65 Q115.436 1000.08 115.436 992.976 Q115.436 985.847 113.608 982.305 Q111.802 978.74 108.168 978.74 M108.168 975.036 Q113.978 975.036 117.033 979.643 Q120.112 984.226 120.112 992.976 Q120.112 1001.7 117.033 1006.31 Q113.978 1010.89 108.168 1010.89 Q102.358 1010.89 99.2789 1006.31 Q96.2234 1001.7 96.2234 992.976 Q96.2234 984.226 99.2789 979.643 Q102.358 975.036 108.168 975.036 Z" fill="#000000" fill-rule="evenodd" fill-opacity="1" /><path clip-path="url(#clip390)" d="M129.14 1006.29 L136.779 1006.29 L136.779 979.921 L128.469 981.587 L128.469 977.328 L136.732 975.661 L141.408 975.661 L141.408 1006.29 L149.047 1006.29 L149.047 1010.22 L129.14 1010.22 L129.14 1006.29 Z" fill="#000000" fill-rule="evenodd" fill-opacity="1" /><path clip-path="url(#clip390)" d="M168.491 978.74 Q164.88 978.74 163.052 982.305 Q161.246 985.847 161.246 992.976 Q161.246 1000.08 163.052 1003.65 Q164.88 1007.19 168.491 1007.19 Q172.126 1007.19 173.931 1003.65 Q175.76 1000.08 175.76 992.976 Q175.76 985.847 173.931 982.305 Q172.126 978.74 168.491 978.74 M168.491 975.036 Q174.302 975.036 177.357 979.643 Q180.436 984.226 180.436 992.976 Q180.436 1001.7 177.357 1006.31 Q174.302 1010.89 168.491 1010.89 Q162.681 1010.89 159.603 1006.31 Q156.547 1001.7 156.547 992.976 Q156.547 984.226 159.603 979.643 Q162.681 975.036 168.491 975.036 Z" fill="#000000" fill-rule="evenodd" fill-opacity="1" /><path clip-path="url(#clip390)" d="M63.9319 751.274 Q60.3208 751.274 58.4921 754.839 Q56.6865 758.381 56.6865 765.51 Q56.6865 772.617 58.4921 776.181 Q60.3208 779.723 63.9319 779.723 Q67.5661 779.723 69.3717 776.181 Q71.2004 772.617 71.2004 765.51 Q71.2004 758.381 69.3717 754.839 Q67.5661 751.274 63.9319 751.274 M63.9319 747.571 Q69.742 747.571 72.7976 752.177 Q75.8763 756.76 75.8763 765.51 Q75.8763 774.237 72.7976 778.844 Q69.742 783.427 63.9319 783.427 Q58.1217 783.427 55.043 778.844 Q51.9875 774.237 51.9875 765.51 Q51.9875 756.76 55.043 752.177 Q58.1217 747.571 63.9319 747.571 Z" fill="#000000" fill-rule="evenodd" fill-opacity="1" /><path clip-path="url(#clip390)" d="M84.0938 776.876 L88.978 776.876 L88.978 782.756 L84.0938 782.756 L84.0938 776.876 Z" fill="#000000" fill-rule="evenodd" fill-opacity="1" /><path clip-path="url(#clip390)" d="M109.163 751.274 Q105.552 751.274 103.723 754.839 Q101.918 758.381 101.918 765.51 Q101.918 772.617 103.723 776.181 Q105.552 779.723 109.163 779.723 Q112.797 779.723 114.603 776.181 Q116.432 772.617 116.432 765.51 Q116.432 758.381 114.603 754.839 Q112.797 751.274 109.163 751.274 M109.163 747.571 Q114.973 747.571 118.029 752.177 Q121.107 756.76 121.107 765.51 Q121.107 774.237 118.029 778.844 Q114.973 783.427 109.163 783.427 Q103.353 783.427 100.274 778.844 Q97.2187 774.237 97.2187 765.51 Q97.2187 756.76 100.274 752.177 Q103.353 747.571 109.163 747.571 Z" fill="#000000" fill-rule="evenodd" fill-opacity="1" /><path clip-path="url(#clip390)" d="M130.135 778.82 L137.774 778.82 L137.774 752.455 L129.464 754.121 L129.464 749.862 L137.728 748.196 L142.404 748.196 L142.404 778.82 L150.043 778.82 L150.043 782.756 L130.135 782.756 L130.135 778.82 Z" fill="#000000" fill-rule="evenodd" fill-opacity="1" /><path clip-path="url(#clip390)" d="M159.533 748.196 L177.89 748.196 L177.89 752.131 L163.816 752.131 L163.816 760.603 Q164.834 760.256 165.853 760.094 Q166.871 759.908 167.89 759.908 Q173.677 759.908 177.056 763.08 Q180.436 766.251 180.436 771.668 Q180.436 777.246 176.964 780.348 Q173.491 783.427 167.172 783.427 Q164.996 783.427 162.728 783.056 Q160.482 782.686 158.075 781.945 L158.075 777.246 Q160.158 778.381 162.38 778.936 Q164.603 779.492 167.079 779.492 Q171.084 779.492 173.422 777.385 Q175.76 775.279 175.76 771.668 Q175.76 768.057 173.422 765.95 Q171.084 763.844 167.079 763.844 Q165.204 763.844 163.329 764.26 Q161.478 764.677 159.533 765.557 L159.533 748.196 Z" fill="#000000" fill-rule="evenodd" fill-opacity="1" /><path clip-path="url(#clip390)" d="M62.9365 523.808 Q59.3254 523.808 57.4967 527.373 Q55.6912 530.915 55.6912 538.044 Q55.6912 545.151 57.4967 548.716 Q59.3254 552.257 62.9365 552.257 Q66.5707 552.257 68.3763 548.716 Q70.205 545.151 70.205 538.044 Q70.205 530.915 68.3763 527.373 Q66.5707 523.808 62.9365 523.808 M62.9365 520.105 Q68.7467 520.105 71.8022 524.711 Q74.8809 529.294 74.8809 538.044 Q74.8809 546.771 71.8022 551.378 Q68.7467 555.961 62.9365 555.961 Q57.1264 555.961 54.0477 551.378 Q50.9921 546.771 50.9921 538.044 Q50.9921 529.294 54.0477 524.711 Q57.1264 520.105 62.9365 520.105 Z" fill="#000000" fill-rule="evenodd" fill-opacity="1" /><path clip-path="url(#clip390)" d="M83.0984 549.41 L87.9827 549.41 L87.9827 555.29 L83.0984 555.29 L83.0984 549.41 Z" fill="#000000" fill-rule="evenodd" fill-opacity="1" /><path clip-path="url(#clip390)" d="M108.168 523.808 Q104.557 523.808 102.728 527.373 Q100.922 530.915 100.922 538.044 Q100.922 545.151 102.728 548.716 Q104.557 552.257 108.168 552.257 Q111.802 552.257 113.608 548.716 Q115.436 545.151 115.436 538.044 Q115.436 530.915 113.608 527.373 Q111.802 523.808 108.168 523.808 M108.168 520.105 Q113.978 520.105 117.033 524.711 Q120.112 529.294 120.112 538.044 Q120.112 546.771 117.033 551.378 Q113.978 555.961 108.168 555.961 Q102.358 555.961 99.2789 551.378 Q96.2234 546.771 96.2234 538.044 Q96.2234 529.294 99.2789 524.711 Q102.358 520.105 108.168 520.105 Z" fill="#000000" fill-rule="evenodd" fill-opacity="1" /><path clip-path="url(#clip390)" d="M132.357 551.354 L148.677 551.354 L148.677 555.29 L126.732 555.29 L126.732 551.354 Q129.394 548.6 133.978 543.97 Q138.584 539.318 139.765 537.975 Q142.01 535.452 142.89 533.716 Q143.793 531.956 143.793 530.267 Q143.793 527.512 141.848 525.776 Q139.927 524.04 136.825 524.04 Q134.626 524.04 132.172 524.804 Q129.742 525.568 126.964 527.119 L126.964 522.396 Q129.788 521.262 132.242 520.683 Q134.695 520.105 136.732 520.105 Q142.103 520.105 145.297 522.79 Q148.492 525.475 148.492 529.966 Q148.492 532.095 147.681 534.017 Q146.894 535.915 144.788 538.507 Q144.209 539.179 141.107 542.396 Q138.006 545.591 132.357 551.354 Z" fill="#000000" fill-rule="evenodd" fill-opacity="1" /><path clip-path="url(#clip390)" d="M168.491 523.808 Q164.88 523.808 163.052 527.373 Q161.246 530.915 161.246 538.044 Q161.246 545.151 163.052 548.716 Q164.88 552.257 168.491 552.257 Q172.126 552.257 173.931 548.716 Q175.76 545.151 175.76 538.044 Q175.76 530.915 173.931 527.373 Q172.126 523.808 168.491 523.808 M168.491 520.105 Q174.302 520.105 177.357 524.711 Q180.436 529.294 180.436 538.044 Q180.436 546.771 177.357 551.378 Q174.302 555.961 168.491 555.961 Q162.681 555.961 159.603 551.378 Q156.547 546.771 156.547 538.044 Q156.547 529.294 159.603 524.711 Q162.681 520.105 168.491 520.105 Z" fill="#000000" fill-rule="evenodd" fill-opacity="1" /><path clip-path="url(#clip390)" d="M63.9319 296.342 Q60.3208 296.342 58.4921 299.907 Q56.6865 303.449 56.6865 310.579 Q56.6865 317.685 58.4921 321.25 Q60.3208 324.791 63.9319 324.791 Q67.5661 324.791 69.3717 321.25 Q71.2004 317.685 71.2004 310.579 Q71.2004 303.449 69.3717 299.907 Q67.5661 296.342 63.9319 296.342 M63.9319 292.639 Q69.742 292.639 72.7976 297.245 Q75.8763 301.829 75.8763 310.579 Q75.8763 319.305 72.7976 323.912 Q69.742 328.495 63.9319 328.495 Q58.1217 328.495 55.043 323.912 Q51.9875 319.305 51.9875 310.579 Q51.9875 301.829 55.043 297.245 Q58.1217 292.639 63.9319 292.639 Z" fill="#000000" fill-rule="evenodd" fill-opacity="1" /><path clip-path="url(#clip390)" d="M84.0938 321.944 L88.978 321.944 L88.978 327.824 L84.0938 327.824 L84.0938 321.944 Z" fill="#000000" fill-rule="evenodd" fill-opacity="1" /><path clip-path="url(#clip390)" d="M109.163 296.342 Q105.552 296.342 103.723 299.907 Q101.918 303.449 101.918 310.579 Q101.918 317.685 103.723 321.25 Q105.552 324.791 109.163 324.791 Q112.797 324.791 114.603 321.25 Q116.432 317.685 116.432 310.579 Q116.432 303.449 114.603 299.907 Q112.797 296.342 109.163 296.342 M109.163 292.639 Q114.973 292.639 118.029 297.245 Q121.107 301.829 121.107 310.579 Q121.107 319.305 118.029 323.912 Q114.973 328.495 109.163 328.495 Q103.353 328.495 100.274 323.912 Q97.2187 319.305 97.2187 310.579 Q97.2187 301.829 100.274 297.245 Q103.353 292.639 109.163 292.639 Z" fill="#000000" fill-rule="evenodd" fill-opacity="1" /><path clip-path="url(#clip390)" d="M133.353 323.889 L149.672 323.889 L149.672 327.824 L127.728 327.824 L127.728 323.889 Q130.39 321.134 134.973 316.504 Q139.58 311.852 140.76 310.509 Q143.006 307.986 143.885 306.25 Q144.788 304.491 144.788 302.801 Q144.788 300.046 142.843 298.31 Q140.922 296.574 137.82 296.574 Q135.621 296.574 133.168 297.338 Q130.737 298.102 127.959 299.653 L127.959 294.93 Q130.783 293.796 133.237 293.218 Q135.691 292.639 137.728 292.639 Q143.098 292.639 146.293 295.324 Q149.487 298.009 149.487 302.5 Q149.487 304.629 148.677 306.551 Q147.89 308.449 145.783 311.041 Q145.205 311.713 142.103 314.93 Q139.001 318.125 133.353 323.889 Z" fill="#000000" fill-rule="evenodd" fill-opacity="1" /><path clip-path="url(#clip390)" d="M159.533 293.264 L177.89 293.264 L177.89 297.199 L163.816 297.199 L163.816 305.671 Q164.834 305.324 165.853 305.162 Q166.871 304.977 167.89 304.977 Q173.677 304.977 177.056 308.148 Q180.436 311.319 180.436 316.736 Q180.436 322.315 176.964 325.416 Q173.491 328.495 167.172 328.495 Q164.996 328.495 162.728 328.125 Q160.482 327.754 158.075 327.014 L158.075 322.315 Q160.158 323.449 162.38 324.004 Q164.603 324.56 167.079 324.56 Q171.084 324.56 173.422 322.453 Q175.76 320.347 175.76 316.736 Q175.76 313.125 173.422 311.018 Q171.084 308.912 167.079 308.912 Q165.204 308.912 163.329 309.329 Q161.478 309.745 159.533 310.625 L159.533 293.264 Z" fill="#000000" fill-rule="evenodd" fill-opacity="1" /><path clip-path="url(#clip390)" d="M1124.36 18.8205 L1124.36 41.5461 L1134.65 41.5461 Q1140.36 41.5461 1143.48 38.5889 Q1146.6 35.6318 1146.6 30.163 Q1146.6 24.7348 1143.48 21.7777 Q1140.36 18.8205 1134.65 18.8205 L1124.36 18.8205 M1116.18 12.096 L1134.65 12.096 Q1144.82 12.096 1150 16.714 Q1155.23 21.2916 1155.23 30.163 Q1155.23 39.1155 1150 43.6931 Q1144.82 48.2706 1134.65 48.2706 L1124.36 48.2706 L1124.36 72.576 L1116.18 72.576 L1116.18 12.096 Z" fill="#000000" fill-rule="evenodd" fill-opacity="1" /><path clip-path="url(#clip390)" d="M1201.73 48.0275 L1201.73 51.6733 L1167.46 51.6733 Q1167.95 59.3701 1172.08 63.421 Q1176.25 67.4314 1183.67 67.4314 Q1187.96 67.4314 1191.97 66.3781 Q1196.02 65.3249 1199.99 63.2184 L1199.99 70.267 Q1195.98 71.9684 1191.77 72.8596 Q1187.56 73.7508 1183.22 73.7508 Q1172.37 73.7508 1166.01 67.4314 Q1159.69 61.1119 1159.69 50.3365 Q1159.69 39.1965 1165.68 32.6746 Q1171.72 26.1121 1181.93 26.1121 Q1191.08 26.1121 1196.39 32.0264 Q1201.73 37.9003 1201.73 48.0275 M1194.28 45.84 Q1194.2 39.7232 1190.84 36.0774 Q1187.52 32.4315 1182.01 32.4315 Q1175.77 32.4315 1172 35.9558 Q1168.27 39.4801 1167.71 45.8805 L1194.28 45.84 Z" fill="#000000" fill-rule="evenodd" fill-opacity="1" /><path clip-path="url(#clip390)" d="M1248.44 86.3491 L1248.44 92.1419 L1205.34 92.1419 L1205.34 86.3491 L1248.44 86.3491 Z" fill="#000000" fill-rule="evenodd" fill-opacity="1" /><path clip-path="url(#clip390)" d="M1293.16 45.1919 L1293.16 72.576 L1285.71 72.576 L1285.71 45.4349 Q1285.71 38.994 1283.2 35.7938 Q1280.69 32.5936 1275.66 32.5936 Q1269.63 32.5936 1266.14 36.4419 Q1262.66 40.2903 1262.66 46.9338 L1262.66 72.576 L1255.17 72.576 L1255.17 9.54393 L1262.66 9.54393 L1262.66 34.2544 Q1265.33 30.163 1268.94 28.1376 Q1272.58 26.1121 1277.32 26.1121 Q1285.14 26.1121 1289.15 30.9732 Q1293.16 35.7938 1293.16 45.1919 Z" fill="#000000" fill-rule="evenodd" fill-opacity="1" /><path clip-path="url(#clip390)" d="M1335.54 12.096 L1367.66 12.096 L1367.66 18.9825 L1343.03 18.9825 L1343.03 33.8088 Q1344.81 33.2012 1346.59 32.9176 Q1348.38 32.5936 1350.16 32.5936 Q1360.29 32.5936 1366.2 38.1433 Q1372.12 43.6931 1372.12 53.1722 Q1372.12 62.9348 1366.04 68.3631 Q1359.96 73.7508 1348.9 73.7508 Q1345.1 73.7508 1341.13 73.1026 Q1337.2 72.4545 1332.98 71.1582 L1332.98 62.9348 Q1336.63 64.9198 1340.52 65.892 Q1344.41 66.8642 1348.74 66.8642 Q1355.75 66.8642 1359.84 63.1779 Q1363.93 59.4916 1363.93 53.1722 Q1363.93 46.8528 1359.84 43.1664 Q1355.75 39.4801 1348.74 39.4801 Q1345.46 39.4801 1342.18 40.2093 Q1338.94 40.9384 1335.54 42.4778 L1335.54 12.096 Z" fill="#000000" fill-rule="evenodd" fill-opacity="1" /><path clip-path="url(#clip390)" d="M1388.24 62.2867 L1396.79 62.2867 L1396.79 72.576 L1388.24 72.576 L1388.24 62.2867 Z" fill="#000000" fill-rule="evenodd" fill-opacity="1" /><path clip-path="url(#clip390)" d="M1432.11 17.4837 Q1425.79 17.4837 1422.59 23.7221 Q1419.43 29.92 1419.43 42.3968 Q1419.43 54.833 1422.59 61.0714 Q1425.79 67.2693 1432.11 67.2693 Q1438.47 67.2693 1441.63 61.0714 Q1444.83 54.833 1444.83 42.3968 Q1444.83 29.92 1441.63 23.7221 Q1438.47 17.4837 1432.11 17.4837 M1432.11 11.0023 Q1442.28 11.0023 1447.62 19.0636 Q1453.01 27.0843 1453.01 42.3968 Q1453.01 57.6687 1447.62 65.73 Q1442.28 73.7508 1432.11 73.7508 Q1421.94 73.7508 1416.55 65.73 Q1411.21 57.6687 1411.21 42.3968 Q1411.21 27.0843 1416.55 19.0636 Q1421.94 11.0023 1432.11 11.0023 Z" fill="#000000" fill-rule="evenodd" fill-opacity="1" /><polyline clip-path="url(#clip392)" style="stroke:#009af9; stroke-linecap:butt; stroke-linejoin:round; stroke-width:4; stroke-opacity:1; fill:none" points="
  276.898,1447.87 328.575,1424.54 380.251,1401.21 431.928,1377.88 483.605,1354.55 535.282,1331.22 586.959,1307.89 638.636,1284.56 690.312,1261.23 741.989,1237.9 
  793.666,1214.57 845.343,1191.24 897.02,1167.92 948.697,1144.59 1000.37,1121.26 1052.05,1097.93 1103.73,1074.6 1155.4,1051.27 1207.08,1027.94 1258.76,1004.61 
  1310.43,981.276 1362.11,957.947 1413.79,934.616 1465.46,911.289 1517.14,887.953 1568.82,864.636 1620.5,841.277 1672.17,818.014 1723.85,794.532 1775.53,771.549 
  1827.2,747.429 1878.88,725.9 1930.56,698.466 1982.23,684.488 2033.91,639.849 2085.59,665.076 2137.26,531.1 2188.94,759.898 2240.62,162.047 2292.29,1447.87 
  
  "/>
<circle clip-path="url(#clip392)" cx="276.898" cy="1447.87" r="14" fill="#009af9" fill-rule="evenodd" fill-opacity="1" stroke="#000000" stroke-opacity="1" stroke-width="3.2"/>
<circle clip-path="url(#clip392)" cx="328.575" cy="1424.54" r="14" fill="#009af9" fill-rule="evenodd" fill-opacity="1" stroke="#000000" stroke-opacity="1" stroke-width="3.2"/>
<circle clip-path="url(#clip392)" cx="380.251" cy="1401.21" r="14" fill="#009af9" fill-rule="evenodd" fill-opacity="1" stroke="#000000" stroke-opacity="1" stroke-width="3.2"/>
<circle clip-path="url(#clip392)" cx="431.928" cy="1377.88" r="14" fill="#009af9" fill-rule="evenodd" fill-opacity="1" stroke="#000000" stroke-opacity="1" stroke-width="3.2"/>
<circle clip-path="url(#clip392)" cx="483.605" cy="1354.55" r="14" fill="#009af9" fill-rule="evenodd" fill-opacity="1" stroke="#000000" stroke-opacity="1" stroke-width="3.2"/>
<circle clip-path="url(#clip392)" cx="535.282" cy="1331.22" r="14" fill="#009af9" fill-rule="evenodd" fill-opacity="1" stroke="#000000" stroke-opacity="1" stroke-width="3.2"/>
<circle clip-path="url(#clip392)" cx="586.959" cy="1307.89" r="14" fill="#009af9" fill-rule="evenodd" fill-opacity="1" stroke="#000000" stroke-opacity="1" stroke-width="3.2"/>
<circle clip-path="url(#clip392)" cx="638.636" cy="1284.56" r="14" fill="#009af9" fill-rule="evenodd" fill-opacity="1" stroke="#000000" stroke-opacity="1" stroke-width="3.2"/>
<circle clip-path="url(#clip392)" cx="690.312" cy="1261.23" r="14" fill="#009af9" fill-rule="evenodd" fill-opacity="1" stroke="#000000" stroke-opacity="1" stroke-width="3.2"/>
<circle clip-path="url(#clip392)" cx="741.989" cy="1237.9" r="14" fill="#009af9" fill-rule="evenodd" fill-opacity="1" stroke="#000000" stroke-opacity="1" stroke-width="3.2"/>
<circle clip-path="url(#clip392)" cx="793.666" cy="1214.57" r="14" fill="#009af9" fill-rule="evenodd" fill-opacity="1" stroke="#000000" stroke-opacity="1" stroke-width="3.2"/>
<circle clip-path="url(#clip392)" cx="845.343" cy="1191.24" r="14" fill="#009af9" fill-rule="evenodd" fill-opacity="1" stroke="#000000" stroke-opacity="1" stroke-width="3.2"/>
<circle clip-path="url(#clip392)" cx="897.02" cy="1167.92" r="14" fill="#009af9" fill-rule="evenodd" fill-opacity="1" stroke="#000000" stroke-opacity="1" stroke-width="3.2"/>
<circle clip-path="url(#clip392)" cx="948.697" cy="1144.59" r="14" fill="#009af9" fill-rule="evenodd" fill-opacity="1" stroke="#000000" stroke-opacity="1" stroke-width="3.2"/>
<circle clip-path="url(#clip392)" cx="1000.37" cy="1121.26" r="14" fill="#009af9" fill-rule="evenodd" fill-opacity="1" stroke="#000000" stroke-opacity="1" stroke-width="3.2"/>
<circle clip-path="url(#clip392)" cx="1052.05" cy="1097.93" r="14" fill="#009af9" fill-rule="evenodd" fill-opacity="1" stroke="#000000" stroke-opacity="1" stroke-width="3.2"/>
<circle clip-path="url(#clip392)" cx="1103.73" cy="1074.6" r="14" fill="#009af9" fill-rule="evenodd" fill-opacity="1" stroke="#000000" stroke-opacity="1" stroke-width="3.2"/>
<circle clip-path="url(#clip392)" cx="1155.4" cy="1051.27" r="14" fill="#009af9" fill-rule="evenodd" fill-opacity="1" stroke="#000000" stroke-opacity="1" stroke-width="3.2"/>
<circle clip-path="url(#clip392)" cx="1207.08" cy="1027.94" r="14" fill="#009af9" fill-rule="evenodd" fill-opacity="1" stroke="#000000" stroke-opacity="1" stroke-width="3.2"/>
<circle clip-path="url(#clip392)" cx="1258.76" cy="1004.61" r="14" fill="#009af9" fill-rule="evenodd" fill-opacity="1" stroke="#000000" stroke-opacity="1" stroke-width="3.2"/>
<circle clip-path="url(#clip392)" cx="1310.43" cy="981.276" r="14" fill="#009af9" fill-rule="evenodd" fill-opacity="1" stroke="#000000" stroke-opacity="1" stroke-width="3.2"/>
<circle clip-path="url(#clip392)" cx="1362.11" cy="957.947" r="14" fill="#009af9" fill-rule="evenodd" fill-opacity="1" stroke="#000000" stroke-opacity="1" stroke-width="3.2"/>
<circle clip-path="url(#clip392)" cx="1413.79" cy="934.616" r="14" fill="#009af9" fill-rule="evenodd" fill-opacity="1" stroke="#000000" stroke-opacity="1" stroke-width="3.2"/>
<circle clip-path="url(#clip392)" cx="1465.46" cy="911.289" r="14" fill="#009af9" fill-rule="evenodd" fill-opacity="1" stroke="#000000" stroke-opacity="1" stroke-width="3.2"/>
<circle clip-path="url(#clip392)" cx="1517.14" cy="887.953" r="14" fill="#009af9" fill-rule="evenodd" fill-opacity="1" stroke="#000000" stroke-opacity="1" stroke-width="3.2"/>
<circle clip-path="url(#clip392)" cx="1568.82" cy="864.636" r="14" fill="#009af9" fill-rule="evenodd" fill-opacity="1" stroke="#000000" stroke-opacity="1" stroke-width="3.2"/>
<circle clip-path="url(#clip392)" cx="1620.5" cy="841.277" r="14" fill="#009af9" fill-rule="evenodd" fill-opacity="1" stroke="#000000" stroke-opacity="1" stroke-width="3.2"/>
<circle clip-path="url(#clip392)" cx="1672.17" cy="818.014" r="14" fill="#009af9" fill-rule="evenodd" fill-opacity="1" stroke="#000000" stroke-opacity="1" stroke-width="3.2"/>
<circle clip-path="url(#clip392)" cx="1723.85" cy="794.532" r="14" fill="#009af9" fill-rule="evenodd" fill-opacity="1" stroke="#000000" stroke-opacity="1" stroke-width="3.2"/>
<circle clip-path="url(#clip392)" cx="1775.53" cy="771.549" r="14" fill="#009af9" fill-rule="evenodd" fill-opacity="1" stroke="#000000" stroke-opacity="1" stroke-width="3.2"/>
<circle clip-path="url(#clip392)" cx="1827.2" cy="747.429" r="14" fill="#009af9" fill-rule="evenodd" fill-opacity="1" stroke="#000000" stroke-opacity="1" stroke-width="3.2"/>
<circle clip-path="url(#clip392)" cx="1878.88" cy="725.9" r="14" fill="#009af9" fill-rule="evenodd" fill-opacity="1" stroke="#000000" stroke-opacity="1" stroke-width="3.2"/>
<circle clip-path="url(#clip392)" cx="1930.56" cy="698.466" r="14" fill="#009af9" fill-rule="evenodd" fill-opacity="1" stroke="#000000" stroke-opacity="1" stroke-width="3.2"/>
<circle clip-path="url(#clip392)" cx="1982.23" cy="684.488" r="14" fill="#009af9" fill-rule="evenodd" fill-opacity="1" stroke="#000000" stroke-opacity="1" stroke-width="3.2"/>
<circle clip-path="url(#clip392)" cx="2033.91" cy="639.849" r="14" fill="#009af9" fill-rule="evenodd" fill-opacity="1" stroke="#000000" stroke-opacity="1" stroke-width="3.2"/>
<circle clip-path="url(#clip392)" cx="2085.59" cy="665.076" r="14" fill="#009af9" fill-rule="evenodd" fill-opacity="1" stroke="#000000" stroke-opacity="1" stroke-width="3.2"/>
<circle clip-path="url(#clip392)" cx="2137.26" cy="531.1" r="14" fill="#009af9" fill-rule="evenodd" fill-opacity="1" stroke="#000000" stroke-opacity="1" stroke-width="3.2"/>
<circle clip-path="url(#clip392)" cx="2188.94" cy="759.898" r="14" fill="#009af9" fill-rule="evenodd" fill-opacity="1" stroke="#000000" stroke-opacity="1" stroke-width="3.2"/>
<circle clip-path="url(#clip392)" cx="2240.62" cy="162.047" r="14" fill="#009af9" fill-rule="evenodd" fill-opacity="1" stroke="#000000" stroke-opacity="1" stroke-width="3.2"/>
<circle clip-path="url(#clip392)" cx="2292.29" cy="1447.87" r="14" fill="#009af9" fill-rule="evenodd" fill-opacity="1" stroke="#000000" stroke-opacity="1" stroke-width="3.2"/>
</svg>
