<?xml version="1.0" encoding="utf-8"?>
<svg xmlns="http://www.w3.org/2000/svg" xmlns:xlink="http://www.w3.org/1999/xlink" width="600" height="400" viewBox="0 0 2400 1600">
<defs>
  <clipPath id="clip810">
    <rect x="0" y="0" width="2400" height="1600"/>
  </clipPath>
</defs>
<path clip-path="url(#clip810)" d="
M0 1600 L2400 1600 L2400 0 L0 0  Z
  " fill="#ffffff" fill-rule="evenodd" fill-opacity="1"/>
<defs>
  <clipPath id="clip811">
    <rect x="480" y="0" width="1681" height="1600"/>
  </clipPath>
</defs>
<path clip-path="url(#clip810)" d="
M186.274 1486.45 L2352.76 1486.45 L2352.76 47.2441 L186.274 47.2441  Z
  " fill="#ffffff" fill-rule="evenodd" fill-opacity="1"/>
<defs>
  <clipPath id="clip812">
    <rect x="186" y="47" width="2167" height="1440"/>
  </clipPath>
</defs>
<polyline clip-path="url(#clip812)" style="stroke:#000000; stroke-linecap:butt; stroke-linejoin:round; stroke-width:2; stroke-opacity:0.1; fill:none" points="
  186.274,1486.45 186.274,47.2441 
  "/>
<polyline clip-path="url(#clip812)" style="stroke:#000000; stroke-linecap:butt; stroke-linejoin:round; stroke-width:2; stroke-opacity:0.1; fill:none" points="
  619.57,1486.45 619.57,47.2441 
  "/>
<polyline clip-path="url(#clip812)" style="stroke:#000000; stroke-linecap:butt; stroke-linejoin:round; stroke-width:2; stroke-opacity:0.1; fill:none" points="
  1052.87,1486.45 1052.87,47.2441 
  "/>
<polyline clip-path="url(#clip812)" style="stroke:#000000; stroke-linecap:butt; stroke-linejoin:round; stroke-width:2; stroke-opacity:0.1; fill:none" points="
  1486.16,1486.45 1486.16,47.2441 
  "/>
<polyline clip-path="url(#clip812)" style="stroke:#000000; stroke-linecap:butt; stroke-linejoin:round; stroke-width:2; stroke-opacity:0.1; fill:none" points="
  1919.46,1486.45 1919.46,47.2441 
  "/>
<polyline clip-path="url(#clip812)" style="stroke:#000000; stroke-linecap:butt; stroke-linejoin:round; stroke-width:2; stroke-opacity:0.1; fill:none" points="
  2352.76,1486.45 2352.76,47.2441 
  "/>
<polyline clip-path="url(#clip810)" style="stroke:#000000; stroke-linecap:butt; stroke-linejoin:round; stroke-width:4; stroke-opacity:1; fill:none" points="
  186.274,1486.45 2352.76,1486.45 
  "/>
<polyline clip-path="url(#clip810)" style="stroke:#000000; stroke-linecap:butt; stroke-linejoin:round; stroke-width:4; stroke-opacity:1; fill:none" points="
  186.274,1486.45 186.274,1467.55 
  "/>
<polyline clip-path="url(#clip810)" style="stroke:#000000; stroke-linecap:butt; stroke-linejoin:round; stroke-width:4; stroke-opacity:1; fill:none" points="
  619.57,1486.45 619.57,1467.55 
  "/>
<polyline clip-path="url(#clip810)" style="stroke:#000000; stroke-linecap:butt; stroke-linejoin:round; stroke-width:4; stroke-opacity:1; fill:none" points="
  1052.87,1486.45 1052.87,1467.55 
  "/>
<polyline clip-path="url(#clip810)" style="stroke:#000000; stroke-linecap:butt; stroke-linejoin:round; stroke-width:4; stroke-opacity:1; fill:none" points="
  1486.16,1486.45 1486.16,1467.55 
  "/>
<polyline clip-path="url(#clip810)" style="stroke:#000000; stroke-linecap:butt; stroke-linejoin:round; stroke-width:4; stroke-opacity:1; fill:none" points="
  1919.46,1486.45 1919.46,1467.55 
  "/>
<polyline clip-path="url(#clip810)" style="stroke:#000000; stroke-linecap:butt; stroke-linejoin:round; stroke-width:4; stroke-opacity:1; fill:none" points="
  2352.76,1486.45 2352.76,1467.55 
  "/>
<path clip-path="url(#clip810)" d="M132.802 1530.29 L162.478 1530.29 L162.478 1534.23 L132.802 1534.23 L132.802 1530.29 Z" fill="#000000" fill-rule="evenodd" fill-opacity="1" /><path clip-path="url(#clip810)" d="M173.381 1543.18 L181.019 1543.18 L181.019 1516.82 L172.709 1518.49 L172.709 1514.23 L180.973 1512.56 L185.649 1512.56 L185.649 1543.18 L193.288 1543.18 L193.288 1547.12 L173.381 1547.12 L173.381 1543.18 Z" fill="#000000" fill-rule="evenodd" fill-opacity="1" /><path clip-path="url(#clip810)" d="M202.732 1541.24 L207.616 1541.24 L207.616 1547.12 L202.732 1547.12 L202.732 1541.24 Z" fill="#000000" fill-rule="evenodd" fill-opacity="1" /><path clip-path="url(#clip810)" d="M227.802 1515.64 Q224.19 1515.64 222.362 1519.2 Q220.556 1522.75 220.556 1529.87 Q220.556 1536.98 222.362 1540.55 Q224.19 1544.09 227.802 1544.09 Q231.436 1544.09 233.241 1540.55 Q235.07 1536.98 235.07 1529.87 Q235.07 1522.75 233.241 1519.2 Q231.436 1515.64 227.802 1515.64 M227.802 1511.93 Q233.612 1511.93 236.667 1516.54 Q239.746 1521.12 239.746 1529.87 Q239.746 1538.6 236.667 1543.21 Q233.612 1547.79 227.802 1547.79 Q221.991 1547.79 218.913 1543.21 Q215.857 1538.6 215.857 1529.87 Q215.857 1521.12 218.913 1516.54 Q221.991 1511.93 227.802 1511.93 Z" fill="#000000" fill-rule="evenodd" fill-opacity="1" /><path clip-path="url(#clip810)" d="M566.145 1530.29 L595.821 1530.29 L595.821 1534.23 L566.145 1534.23 L566.145 1530.29 Z" fill="#000000" fill-rule="evenodd" fill-opacity="1" /><path clip-path="url(#clip810)" d="M615.913 1515.64 Q612.302 1515.64 610.473 1519.2 Q608.668 1522.75 608.668 1529.87 Q608.668 1536.98 610.473 1540.55 Q612.302 1544.09 615.913 1544.09 Q619.547 1544.09 621.353 1540.55 Q623.181 1536.98 623.181 1529.87 Q623.181 1522.75 621.353 1519.2 Q619.547 1515.64 615.913 1515.64 M615.913 1511.93 Q621.723 1511.93 624.779 1516.54 Q627.857 1521.12 627.857 1529.87 Q627.857 1538.6 624.779 1543.21 Q621.723 1547.79 615.913 1547.79 Q610.103 1547.79 607.024 1543.21 Q603.969 1538.6 603.969 1529.87 Q603.969 1521.12 607.024 1516.54 Q610.103 1511.93 615.913 1511.93 Z" fill="#000000" fill-rule="evenodd" fill-opacity="1" /><path clip-path="url(#clip810)" d="M636.075 1541.24 L640.959 1541.24 L640.959 1547.12 L636.075 1547.12 L636.075 1541.24 Z" fill="#000000" fill-rule="evenodd" fill-opacity="1" /><path clip-path="url(#clip810)" d="M661.144 1530.71 Q657.811 1530.71 655.89 1532.49 Q653.991 1534.27 653.991 1537.4 Q653.991 1540.52 655.89 1542.31 Q657.811 1544.09 661.144 1544.09 Q664.478 1544.09 666.399 1542.31 Q668.32 1540.5 668.32 1537.4 Q668.32 1534.27 666.399 1532.49 Q664.501 1530.71 661.144 1530.71 M656.468 1528.72 Q653.459 1527.98 651.769 1525.92 Q650.103 1523.86 650.103 1520.89 Q650.103 1516.75 653.042 1514.34 Q656.005 1511.93 661.144 1511.93 Q666.306 1511.93 669.246 1514.34 Q672.186 1516.75 672.186 1520.89 Q672.186 1523.86 670.496 1525.92 Q668.829 1527.98 665.843 1528.72 Q669.223 1529.5 671.098 1531.8 Q672.996 1534.09 672.996 1537.4 Q672.996 1542.42 669.917 1545.11 Q666.862 1547.79 661.144 1547.79 Q655.427 1547.79 652.348 1545.11 Q649.292 1542.42 649.292 1537.4 Q649.292 1534.09 651.191 1531.8 Q653.089 1529.5 656.468 1528.72 M654.755 1521.33 Q654.755 1524.02 656.422 1525.52 Q658.112 1527.03 661.144 1527.03 Q664.153 1527.03 665.843 1525.52 Q667.556 1524.02 667.556 1521.33 Q667.556 1518.65 665.843 1517.14 Q664.153 1515.64 661.144 1515.64 Q658.112 1515.64 656.422 1517.14 Q654.755 1518.65 654.755 1521.33 Z" fill="#000000" fill-rule="evenodd" fill-opacity="1" /><path clip-path="url(#clip810)" d="M999.314 1530.29 L1028.99 1530.29 L1028.99 1534.23 L999.314 1534.23 L999.314 1530.29 Z" fill="#000000" fill-rule="evenodd" fill-opacity="1" /><path clip-path="url(#clip810)" d="M1049.08 1515.64 Q1045.47 1515.64 1043.64 1519.2 Q1041.84 1522.75 1041.84 1529.87 Q1041.84 1536.98 1043.64 1540.55 Q1045.47 1544.09 1049.08 1544.09 Q1052.72 1544.09 1054.52 1540.55 Q1056.35 1536.98 1056.35 1529.87 Q1056.35 1522.75 1054.52 1519.2 Q1052.72 1515.64 1049.08 1515.64 M1049.08 1511.93 Q1054.89 1511.93 1057.95 1516.54 Q1061.03 1521.12 1061.03 1529.87 Q1061.03 1538.6 1057.95 1543.21 Q1054.89 1547.79 1049.08 1547.79 Q1043.27 1547.79 1040.19 1543.21 Q1037.14 1538.6 1037.14 1529.87 Q1037.14 1521.12 1040.19 1516.54 Q1043.27 1511.93 1049.08 1511.93 Z" fill="#000000" fill-rule="evenodd" fill-opacity="1" /><path clip-path="url(#clip810)" d="M1069.24 1541.24 L1074.13 1541.24 L1074.13 1547.12 L1069.24 1547.12 L1069.24 1541.24 Z" fill="#000000" fill-rule="evenodd" fill-opacity="1" /><path clip-path="url(#clip810)" d="M1094.89 1527.98 Q1091.74 1527.98 1089.89 1530.13 Q1088.06 1532.28 1088.06 1536.03 Q1088.06 1539.76 1089.89 1541.93 Q1091.74 1544.09 1094.89 1544.09 Q1098.04 1544.09 1099.87 1541.93 Q1101.72 1539.76 1101.72 1536.03 Q1101.72 1532.28 1099.87 1530.13 Q1098.04 1527.98 1094.89 1527.98 M1104.17 1513.32 L1104.17 1517.58 Q1102.42 1516.75 1100.61 1516.31 Q1098.83 1515.87 1097.07 1515.87 Q1092.44 1515.87 1089.98 1519 Q1087.55 1522.12 1087.21 1528.44 Q1088.57 1526.43 1090.63 1525.36 Q1092.69 1524.27 1095.17 1524.27 Q1100.38 1524.27 1103.39 1527.44 Q1106.42 1530.59 1106.42 1536.03 Q1106.42 1541.36 1103.27 1544.57 Q1100.12 1547.79 1094.89 1547.79 Q1088.9 1547.79 1085.73 1543.21 Q1082.55 1538.6 1082.55 1529.87 Q1082.55 1521.68 1086.44 1516.82 Q1090.33 1511.93 1096.88 1511.93 Q1098.64 1511.93 1100.42 1512.28 Q1102.23 1512.63 1104.17 1513.32 Z" fill="#000000" fill-rule="evenodd" fill-opacity="1" /><path clip-path="url(#clip810)" d="M1432.45 1530.29 L1462.12 1530.29 L1462.12 1534.23 L1432.45 1534.23 L1432.45 1530.29 Z" fill="#000000" fill-rule="evenodd" fill-opacity="1" /><path clip-path="url(#clip810)" d="M1482.22 1515.64 Q1478.61 1515.64 1476.78 1519.2 Q1474.97 1522.75 1474.97 1529.87 Q1474.97 1536.98 1476.78 1540.55 Q1478.61 1544.09 1482.22 1544.09 Q1485.85 1544.09 1487.66 1540.55 Q1489.48 1536.98 1489.48 1529.87 Q1489.48 1522.75 1487.66 1519.2 Q1485.85 1515.64 1482.22 1515.64 M1482.22 1511.93 Q1488.03 1511.93 1491.08 1516.54 Q1494.16 1521.12 1494.16 1529.87 Q1494.16 1538.6 1491.08 1543.21 Q1488.03 1547.79 1482.22 1547.79 Q1476.41 1547.79 1473.33 1543.21 Q1470.27 1538.6 1470.27 1529.87 Q1470.27 1521.12 1473.33 1516.54 Q1476.41 1511.93 1482.22 1511.93 Z" fill="#000000" fill-rule="evenodd" fill-opacity="1" /><path clip-path="url(#clip810)" d="M1502.38 1541.24 L1507.26 1541.24 L1507.26 1547.12 L1502.38 1547.12 L1502.38 1541.24 Z" fill="#000000" fill-rule="evenodd" fill-opacity="1" /><path clip-path="url(#clip810)" d="M1530.29 1516.63 L1518.49 1535.08 L1530.29 1535.08 L1530.29 1516.63 M1529.07 1512.56 L1534.95 1512.56 L1534.95 1535.08 L1539.88 1535.08 L1539.88 1538.97 L1534.95 1538.97 L1534.95 1547.12 L1530.29 1547.12 L1530.29 1538.97 L1514.69 1538.97 L1514.69 1534.46 L1529.07 1512.56 Z" fill="#000000" fill-rule="evenodd" fill-opacity="1" /><path clip-path="url(#clip810)" d="M1866.79 1530.29 L1896.46 1530.29 L1896.46 1534.23 L1866.79 1534.23 L1866.79 1530.29 Z" fill="#000000" fill-rule="evenodd" fill-opacity="1" /><path clip-path="url(#clip810)" d="M1916.55 1515.64 Q1912.94 1515.64 1911.11 1519.2 Q1909.31 1522.75 1909.31 1529.87 Q1909.31 1536.98 1911.11 1540.55 Q1912.94 1544.09 1916.55 1544.09 Q1920.19 1544.09 1921.99 1540.55 Q1923.82 1536.98 1923.82 1529.87 Q1923.82 1522.75 1921.99 1519.2 Q1920.19 1515.64 1916.55 1515.64 M1916.55 1511.93 Q1922.36 1511.93 1925.42 1516.54 Q1928.5 1521.12 1928.5 1529.87 Q1928.5 1538.6 1925.42 1543.21 Q1922.36 1547.79 1916.55 1547.79 Q1910.74 1547.79 1907.67 1543.21 Q1904.61 1538.6 1904.61 1529.87 Q1904.61 1521.12 1907.67 1516.54 Q1910.74 1511.93 1916.55 1511.93 Z" fill="#000000" fill-rule="evenodd" fill-opacity="1" /><path clip-path="url(#clip810)" d="M1936.72 1541.24 L1941.6 1541.24 L1941.6 1547.12 L1936.72 1547.12 L1936.72 1541.24 Z" fill="#000000" fill-rule="evenodd" fill-opacity="1" /><path clip-path="url(#clip810)" d="M1955.81 1543.18 L1972.13 1543.18 L1972.13 1547.12 L1950.19 1547.12 L1950.19 1543.18 Q1952.85 1540.43 1957.43 1535.8 Q1962.04 1531.15 1963.22 1529.81 Q1965.47 1527.28 1966.35 1525.55 Q1967.25 1523.79 1967.25 1522.1 Q1967.25 1519.34 1965.3 1517.61 Q1963.38 1515.87 1960.28 1515.87 Q1958.08 1515.87 1955.63 1516.63 Q1953.2 1517.4 1950.42 1518.95 L1950.42 1514.23 Q1953.24 1513.09 1955.7 1512.51 Q1958.15 1511.93 1960.19 1511.93 Q1965.56 1511.93 1968.75 1514.62 Q1971.95 1517.31 1971.95 1521.8 Q1971.95 1523.93 1971.14 1525.85 Q1970.35 1527.74 1968.24 1530.34 Q1967.67 1531.01 1964.56 1534.23 Q1961.46 1537.42 1955.81 1543.18 Z" fill="#000000" fill-rule="evenodd" fill-opacity="1" /><path clip-path="url(#clip810)" d="M2330.14 1515.64 Q2326.53 1515.64 2324.7 1519.2 Q2322.89 1522.75 2322.89 1529.87 Q2322.89 1536.98 2324.7 1540.55 Q2326.53 1544.09 2330.14 1544.09 Q2333.77 1544.09 2335.58 1540.55 Q2337.41 1536.98 2337.41 1529.87 Q2337.41 1522.75 2335.58 1519.2 Q2333.77 1515.64 2330.14 1515.64 M2330.14 1511.93 Q2335.95 1511.93 2339.01 1516.54 Q2342.08 1521.12 2342.08 1529.87 Q2342.08 1538.6 2339.01 1543.21 Q2335.95 1547.79 2330.14 1547.79 Q2324.33 1547.79 2321.25 1543.21 Q2318.2 1538.6 2318.2 1529.87 Q2318.2 1521.12 2321.25 1516.54 Q2324.33 1511.93 2330.14 1511.93 Z" fill="#000000" fill-rule="evenodd" fill-opacity="1" /><path clip-path="url(#clip810)" d="M2350.3 1541.24 L2355.19 1541.24 L2355.19 1547.12 L2350.3 1547.12 L2350.3 1541.24 Z" fill="#000000" fill-rule="evenodd" fill-opacity="1" /><path clip-path="url(#clip810)" d="M2375.37 1515.64 Q2371.76 1515.64 2369.93 1519.2 Q2368.13 1522.75 2368.13 1529.87 Q2368.13 1536.98 2369.93 1540.55 Q2371.76 1544.09 2375.37 1544.09 Q2379.01 1544.09 2380.81 1540.55 Q2382.64 1536.98 2382.64 1529.87 Q2382.64 1522.75 2380.81 1519.2 Q2379.01 1515.64 2375.37 1515.64 M2375.37 1511.93 Q2381.18 1511.93 2384.24 1516.54 Q2387.32 1521.12 2387.32 1529.87 Q2387.32 1538.6 2384.24 1543.21 Q2381.18 1547.79 2375.37 1547.79 Q2369.56 1547.79 2366.48 1543.21 Q2363.43 1538.6 2363.43 1529.87 Q2363.43 1521.12 2366.48 1516.54 Q2369.56 1511.93 2375.37 1511.93 Z" fill="#000000" fill-rule="evenodd" fill-opacity="1" /><polyline clip-path="url(#clip812)" style="stroke:#000000; stroke-linecap:butt; stroke-linejoin:round; stroke-width:2; stroke-opacity:0.1; fill:none" points="
  186.274,1445.72 2352.76,1445.72 
  "/>
<polyline clip-path="url(#clip812)" style="stroke:#000000; stroke-linecap:butt; stroke-linejoin:round; stroke-width:2; stroke-opacity:0.1; fill:none" points="
  186.274,1106.28 2352.76,1106.28 
  "/>
<polyline clip-path="url(#clip812)" style="stroke:#000000; stroke-linecap:butt; stroke-linejoin:round; stroke-width:2; stroke-opacity:0.1; fill:none" points="
  186.274,766.846 2352.76,766.846 
  "/>
<polyline clip-path="url(#clip812)" style="stroke:#000000; stroke-linecap:butt; stroke-linejoin:round; stroke-width:2; stroke-opacity:0.1; fill:none" points="
  186.274,427.411 2352.76,427.411 
  "/>
<polyline clip-path="url(#clip812)" style="stroke:#000000; stroke-linecap:butt; stroke-linejoin:round; stroke-width:2; stroke-opacity:0.1; fill:none" points="
  186.274,87.9763 2352.76,87.9763 
  "/>
<polyline clip-path="url(#clip810)" style="stroke:#000000; stroke-linecap:butt; stroke-linejoin:round; stroke-width:4; stroke-opacity:1; fill:none" points="
  186.274,1486.45 186.274,47.2441 
  "/>
<polyline clip-path="url(#clip810)" style="stroke:#000000; stroke-linecap:butt; stroke-linejoin:round; stroke-width:4; stroke-opacity:1; fill:none" points="
  186.274,1445.72 205.172,1445.72 
  "/>
<polyline clip-path="url(#clip810)" style="stroke:#000000; stroke-linecap:butt; stroke-linejoin:round; stroke-width:4; stroke-opacity:1; fill:none" points="
  186.274,1106.28 205.172,1106.28 
  "/>
<polyline clip-path="url(#clip810)" style="stroke:#000000; stroke-linecap:butt; stroke-linejoin:round; stroke-width:4; stroke-opacity:1; fill:none" points="
  186.274,766.846 205.172,766.846 
  "/>
<polyline clip-path="url(#clip810)" style="stroke:#000000; stroke-linecap:butt; stroke-linejoin:round; stroke-width:4; stroke-opacity:1; fill:none" points="
  186.274,427.411 205.172,427.411 
  "/>
<polyline clip-path="url(#clip810)" style="stroke:#000000; stroke-linecap:butt; stroke-linejoin:round; stroke-width:4; stroke-opacity:1; fill:none" points="
  186.274,87.9763 205.172,87.9763 
  "/>
<path clip-path="url(#clip810)" d="M62.9365 1431.51 Q59.3254 1431.51 57.4967 1435.08 Q55.6912 1438.62 55.6912 1445.75 Q55.6912 1452.86 57.4967 1456.42 Q59.3254 1459.96 62.9365 1459.96 Q66.5707 1459.96 68.3763 1456.42 Q70.205 1452.86 70.205 1445.75 Q70.205 1438.62 68.3763 1435.08 Q66.5707 1431.51 62.9365 1431.51 M62.9365 1427.81 Q68.7467 1427.81 71.8022 1432.42 Q74.8809 1437 74.8809 1445.75 Q74.8809 1454.48 71.8022 1459.08 Q68.7467 1463.67 62.9365 1463.67 Q57.1264 1463.67 54.0477 1459.08 Q50.9921 1454.48 50.9921 1445.75 Q50.9921 1437 54.0477 1432.42 Q57.1264 1427.81 62.9365 1427.81 Z" fill="#000000" fill-rule="evenodd" fill-opacity="1" /><path clip-path="url(#clip810)" d="M83.0984 1457.12 L87.9827 1457.12 L87.9827 1463 L83.0984 1463 L83.0984 1457.12 Z" fill="#000000" fill-rule="evenodd" fill-opacity="1" /><path clip-path="url(#clip810)" d="M108.168 1431.51 Q104.557 1431.51 102.728 1435.08 Q100.922 1438.62 100.922 1445.75 Q100.922 1452.86 102.728 1456.42 Q104.557 1459.96 108.168 1459.96 Q111.802 1459.96 113.608 1456.42 Q115.436 1452.86 115.436 1445.75 Q115.436 1438.62 113.608 1435.08 Q111.802 1431.51 108.168 1431.51 M108.168 1427.81 Q113.978 1427.81 117.033 1432.42 Q120.112 1437 120.112 1445.75 Q120.112 1454.48 117.033 1459.08 Q113.978 1463.67 108.168 1463.67 Q102.358 1463.67 99.2789 1459.08 Q96.2234 1454.48 96.2234 1445.75 Q96.2234 1437 99.2789 1432.42 Q102.358 1427.81 108.168 1427.81 Z" fill="#000000" fill-rule="evenodd" fill-opacity="1" /><path clip-path="url(#clip810)" d="M138.33 1431.51 Q134.719 1431.51 132.89 1435.08 Q131.084 1438.62 131.084 1445.75 Q131.084 1452.86 132.89 1456.42 Q134.719 1459.96 138.33 1459.96 Q141.964 1459.96 143.769 1456.42 Q145.598 1452.86 145.598 1445.75 Q145.598 1438.62 143.769 1435.08 Q141.964 1431.51 138.33 1431.51 M138.33 1427.81 Q144.14 1427.81 147.195 1432.42 Q150.274 1437 150.274 1445.75 Q150.274 1454.48 147.195 1459.08 Q144.14 1463.67 138.33 1463.67 Q132.519 1463.67 129.441 1459.08 Q126.385 1454.48 126.385 1445.75 Q126.385 1437 129.441 1432.42 Q132.519 1427.81 138.33 1427.81 Z" fill="#000000" fill-rule="evenodd" fill-opacity="1" /><path clip-path="url(#clip810)" d="M63.9319 1092.08 Q60.3208 1092.08 58.4921 1095.64 Q56.6865 1099.19 56.6865 1106.32 Q56.6865 1113.42 58.4921 1116.99 Q60.3208 1120.53 63.9319 1120.53 Q67.5661 1120.53 69.3717 1116.99 Q71.2004 1113.42 71.2004 1106.32 Q71.2004 1099.19 69.3717 1095.64 Q67.5661 1092.08 63.9319 1092.08 M63.9319 1088.38 Q69.742 1088.38 72.7976 1092.98 Q75.8763 1097.57 75.8763 1106.32 Q75.8763 1115.04 72.7976 1119.65 Q69.742 1124.23 63.9319 1124.23 Q58.1217 1124.23 55.043 1119.65 Q51.9875 1115.04 51.9875 1106.32 Q51.9875 1097.57 55.043 1092.98 Q58.1217 1088.38 63.9319 1088.38 Z" fill="#000000" fill-rule="evenodd" fill-opacity="1" /><path clip-path="url(#clip810)" d="M84.0938 1117.68 L88.978 1117.68 L88.978 1123.56 L84.0938 1123.56 L84.0938 1117.68 Z" fill="#000000" fill-rule="evenodd" fill-opacity="1" /><path clip-path="url(#clip810)" d="M103.191 1119.63 L119.51 1119.63 L119.51 1123.56 L97.566 1123.56 L97.566 1119.63 Q100.228 1116.87 104.811 1112.24 Q109.418 1107.59 110.598 1106.25 Q112.844 1103.72 113.723 1101.99 Q114.626 1100.23 114.626 1098.54 Q114.626 1095.78 112.682 1094.05 Q110.76 1092.31 107.658 1092.31 Q105.459 1092.31 103.006 1093.07 Q100.575 1093.84 97.7974 1095.39 L97.7974 1090.67 Q100.621 1089.53 103.075 1088.95 Q105.529 1088.38 107.566 1088.38 Q112.936 1088.38 116.131 1091.06 Q119.325 1093.75 119.325 1098.24 Q119.325 1100.37 118.515 1102.29 Q117.728 1104.19 115.621 1106.78 Q115.043 1107.45 111.941 1110.67 Q108.839 1113.86 103.191 1119.63 Z" fill="#000000" fill-rule="evenodd" fill-opacity="1" /><path clip-path="url(#clip810)" d="M129.371 1089 L147.728 1089 L147.728 1092.94 L133.654 1092.94 L133.654 1101.41 Q134.672 1101.06 135.691 1100.9 Q136.709 1100.71 137.728 1100.71 Q143.515 1100.71 146.894 1103.89 Q150.274 1107.06 150.274 1112.47 Q150.274 1118.05 146.802 1121.15 Q143.33 1124.23 137.01 1124.23 Q134.834 1124.23 132.566 1123.86 Q130.32 1123.49 127.913 1122.75 L127.913 1118.05 Q129.996 1119.19 132.219 1119.74 Q134.441 1120.3 136.918 1120.3 Q140.922 1120.3 143.26 1118.19 Q145.598 1116.08 145.598 1112.47 Q145.598 1108.86 143.26 1106.76 Q140.922 1104.65 136.918 1104.65 Q135.043 1104.65 133.168 1105.07 Q131.316 1105.48 129.371 1106.36 L129.371 1089 Z" fill="#000000" fill-rule="evenodd" fill-opacity="1" /><path clip-path="url(#clip810)" d="M62.9365 752.645 Q59.3254 752.645 57.4967 756.209 Q55.6912 759.751 55.6912 766.881 Q55.6912 773.987 57.4967 777.552 Q59.3254 781.094 62.9365 781.094 Q66.5707 781.094 68.3763 777.552 Q70.205 773.987 70.205 766.881 Q70.205 759.751 68.3763 756.209 Q66.5707 752.645 62.9365 752.645 M62.9365 748.941 Q68.7467 748.941 71.8022 753.547 Q74.8809 758.131 74.8809 766.881 Q74.8809 775.608 71.8022 780.214 Q68.7467 784.797 62.9365 784.797 Q57.1264 784.797 54.0477 780.214 Q50.9921 775.608 50.9921 766.881 Q50.9921 758.131 54.0477 753.547 Q57.1264 748.941 62.9365 748.941 Z" fill="#000000" fill-rule="evenodd" fill-opacity="1" /><path clip-path="url(#clip810)" d="M83.0984 778.246 L87.9827 778.246 L87.9827 784.126 L83.0984 784.126 L83.0984 778.246 Z" fill="#000000" fill-rule="evenodd" fill-opacity="1" /><path clip-path="url(#clip810)" d="M98.2141 749.566 L116.57 749.566 L116.57 753.501 L102.496 753.501 L102.496 761.973 Q103.515 761.626 104.534 761.464 Q105.552 761.279 106.571 761.279 Q112.358 761.279 115.737 764.45 Q119.117 767.621 119.117 773.038 Q119.117 778.617 115.645 781.719 Q112.172 784.797 105.853 784.797 Q103.677 784.797 101.409 784.427 Q99.1632 784.057 96.7558 783.316 L96.7558 778.617 Q98.8391 779.751 101.061 780.307 Q103.284 780.862 105.76 780.862 Q109.765 780.862 112.103 778.756 Q114.441 776.649 114.441 773.038 Q114.441 769.427 112.103 767.321 Q109.765 765.214 105.76 765.214 Q103.885 765.214 102.01 765.631 Q100.159 766.047 98.2141 766.927 L98.2141 749.566 Z" fill="#000000" fill-rule="evenodd" fill-opacity="1" /><path clip-path="url(#clip810)" d="M138.33 752.645 Q134.719 752.645 132.89 756.209 Q131.084 759.751 131.084 766.881 Q131.084 773.987 132.89 777.552 Q134.719 781.094 138.33 781.094 Q141.964 781.094 143.769 777.552 Q145.598 773.987 145.598 766.881 Q145.598 759.751 143.769 756.209 Q141.964 752.645 138.33 752.645 M138.33 748.941 Q144.14 748.941 147.195 753.547 Q150.274 758.131 150.274 766.881 Q150.274 775.608 147.195 780.214 Q144.14 784.797 138.33 784.797 Q132.519 784.797 129.441 780.214 Q126.385 775.608 126.385 766.881 Q126.385 758.131 129.441 753.547 Q132.519 748.941 138.33 748.941 Z" fill="#000000" fill-rule="evenodd" fill-opacity="1" /><path clip-path="url(#clip810)" d="M63.9319 413.21 Q60.3208 413.21 58.4921 416.775 Q56.6865 420.316 56.6865 427.446 Q56.6865 434.552 58.4921 438.117 Q60.3208 441.659 63.9319 441.659 Q67.5661 441.659 69.3717 438.117 Q71.2004 434.552 71.2004 427.446 Q71.2004 420.316 69.3717 416.775 Q67.5661 413.21 63.9319 413.21 M63.9319 409.506 Q69.742 409.506 72.7976 414.113 Q75.8763 418.696 75.8763 427.446 Q75.8763 436.173 72.7976 440.779 Q69.742 445.362 63.9319 445.362 Q58.1217 445.362 55.043 440.779 Q51.9875 436.173 51.9875 427.446 Q51.9875 418.696 55.043 414.113 Q58.1217 409.506 63.9319 409.506 Z" fill="#000000" fill-rule="evenodd" fill-opacity="1" /><path clip-path="url(#clip810)" d="M84.0938 438.812 L88.978 438.812 L88.978 444.691 L84.0938 444.691 L84.0938 438.812 Z" fill="#000000" fill-rule="evenodd" fill-opacity="1" /><path clip-path="url(#clip810)" d="M97.9826 410.131 L120.205 410.131 L120.205 412.122 L107.658 444.691 L102.774 444.691 L114.58 414.066 L97.9826 414.066 L97.9826 410.131 Z" fill="#000000" fill-rule="evenodd" fill-opacity="1" /><path clip-path="url(#clip810)" d="M129.371 410.131 L147.728 410.131 L147.728 414.066 L133.654 414.066 L133.654 422.538 Q134.672 422.191 135.691 422.029 Q136.709 421.844 137.728 421.844 Q143.515 421.844 146.894 425.015 Q150.274 428.187 150.274 433.603 Q150.274 439.182 146.802 442.284 Q143.33 445.362 137.01 445.362 Q134.834 445.362 132.566 444.992 Q130.32 444.622 127.913 443.881 L127.913 439.182 Q129.996 440.316 132.219 440.872 Q134.441 441.427 136.918 441.427 Q140.922 441.427 143.26 439.321 Q145.598 437.214 145.598 433.603 Q145.598 429.992 143.26 427.886 Q140.922 425.779 136.918 425.779 Q135.043 425.779 133.168 426.196 Q131.316 426.613 129.371 427.492 L129.371 410.131 Z" fill="#000000" fill-rule="evenodd" fill-opacity="1" /><path clip-path="url(#clip810)" d="M53.7467 101.321 L61.3856 101.321 L61.3856 74.9555 L53.0754 76.6222 L53.0754 72.3629 L61.3393 70.6963 L66.0152 70.6963 L66.0152 101.321 L73.654 101.321 L73.654 105.256 L53.7467 105.256 L53.7467 101.321 Z" fill="#000000" fill-rule="evenodd" fill-opacity="1" /><path clip-path="url(#clip810)" d="M83.0984 99.3767 L87.9827 99.3767 L87.9827 105.256 L83.0984 105.256 L83.0984 99.3767 Z" fill="#000000" fill-rule="evenodd" fill-opacity="1" /><path clip-path="url(#clip810)" d="M108.168 73.775 Q104.557 73.775 102.728 77.3398 Q100.922 80.8814 100.922 88.011 Q100.922 95.1174 102.728 98.6822 Q104.557 102.224 108.168 102.224 Q111.802 102.224 113.608 98.6822 Q115.436 95.1174 115.436 88.011 Q115.436 80.8814 113.608 77.3398 Q111.802 73.775 108.168 73.775 M108.168 70.0713 Q113.978 70.0713 117.033 74.6777 Q120.112 79.261 120.112 88.011 Q120.112 96.7378 117.033 101.344 Q113.978 105.928 108.168 105.928 Q102.358 105.928 99.2789 101.344 Q96.2234 96.7378 96.2234 88.011 Q96.2234 79.261 99.2789 74.6777 Q102.358 70.0713 108.168 70.0713 Z" fill="#000000" fill-rule="evenodd" fill-opacity="1" /><path clip-path="url(#clip810)" d="M138.33 73.775 Q134.719 73.775 132.89 77.3398 Q131.084 80.8814 131.084 88.011 Q131.084 95.1174 132.89 98.6822 Q134.719 102.224 138.33 102.224 Q141.964 102.224 143.769 98.6822 Q145.598 95.1174 145.598 88.011 Q145.598 80.8814 143.769 77.3398 Q141.964 73.775 138.33 73.775 M138.33 70.0713 Q144.14 70.0713 147.195 74.6777 Q150.274 79.261 150.274 88.011 Q150.274 96.7378 147.195 101.344 Q144.14 105.928 138.33 105.928 Q132.519 105.928 129.441 101.344 Q126.385 96.7378 126.385 88.011 Q126.385 79.261 129.441 74.6777 Q132.519 70.0713 138.33 70.0713 Z" fill="#000000" fill-rule="evenodd" fill-opacity="1" /><polyline clip-path="url(#clip812)" style="stroke:#009af9; stroke-linecap:butt; stroke-linejoin:round; stroke-width:16; stroke-opacity:1; fill:none" points="
  271.234,1445.72 356.194,1445.72 441.154,1445.72 526.114,1445.72 611.074,1445.72 696.034,766.846 780.995,87.9763 865.955,766.846 950.915,1445.72 1035.87,1445.72 
  1120.83,1445.72 1205.79,1445.72 1290.75,1445.72 1375.72,1445.72 1460.68,1445.72 1545.64,1445.72 1630.6,1445.72 1715.56,1445.72 1800.52,1445.72 1885.48,1445.72 
  1970.44,1445.72 2055.4,1445.72 2140.36,1445.72 2225.32,1445.72 2310.28,1445.72 2395.24,1445.72 2480.2,1445.72 2565.16,1445.72 2650.12,1445.72 2735.08,1445.72 
  2820.04,1445.72 2905,1445.72 2989.96,1445.72 3074.92,1445.72 3159.88,1445.72 3244.84,1445.72 3329.8,1445.72 3414.76,1445.72 3499.72,1445.72 3584.68,1445.72 
  3669.64,1445.72 3754.6,1445.72 3839.56,1445.72 3924.52,1445.72 4009.48,1445.72 4094.44,1445.72 4179.4,1445.72 4264.36,1445.72 4349.32,1445.72 4434.28,1445.72 
  
  "/>
<circle clip-path="url(#clip812)" cx="271.234" cy="1445.72" r="14" fill="#009af9" fill-rule="evenodd" fill-opacity="1" stroke="#000000" stroke-opacity="1" stroke-width="3.2"/>
<circle clip-path="url(#clip812)" cx="356.194" cy="1445.72" r="14" fill="#009af9" fill-rule="evenodd" fill-opacity="1" stroke="#000000" stroke-opacity="1" stroke-width="3.2"/>
<circle clip-path="url(#clip812)" cx="441.154" cy="1445.72" r="14" fill="#009af9" fill-rule="evenodd" fill-opacity="1" stroke="#000000" stroke-opacity="1" stroke-width="3.2"/>
<circle clip-path="url(#clip812)" cx="526.114" cy="1445.72" r="14" fill="#009af9" fill-rule="evenodd" fill-opacity="1" stroke="#000000" stroke-opacity="1" stroke-width="3.2"/>
<circle clip-path="url(#clip812)" cx="611.074" cy="1445.72" r="14" fill="#009af9" fill-rule="evenodd" fill-opacity="1" stroke="#000000" stroke-opacity="1" stroke-width="3.2"/>
<circle clip-path="url(#clip812)" cx="696.034" cy="766.846" r="14" fill="#009af9" fill-rule="evenodd" fill-opacity="1" stroke="#000000" stroke-opacity="1" stroke-width="3.2"/>
<circle clip-path="url(#clip812)" cx="780.995" cy="87.9763" r="14" fill="#009af9" fill-rule="evenodd" fill-opacity="1" stroke="#000000" stroke-opacity="1" stroke-width="3.2"/>
<circle clip-path="url(#clip812)" cx="865.955" cy="766.846" r="14" fill="#009af9" fill-rule="evenodd" fill-opacity="1" stroke="#000000" stroke-opacity="1" stroke-width="3.2"/>
<circle clip-path="url(#clip812)" cx="950.915" cy="1445.72" r="14" fill="#009af9" fill-rule="evenodd" fill-opacity="1" stroke="#000000" stroke-opacity="1" stroke-width="3.2"/>
<circle clip-path="url(#clip812)" cx="1035.87" cy="1445.72" r="14" fill="#009af9" fill-rule="evenodd" fill-opacity="1" stroke="#000000" stroke-opacity="1" stroke-width="3.2"/>
<circle clip-path="url(#clip812)" cx="1120.83" cy="1445.72" r="14" fill="#009af9" fill-rule="evenodd" fill-opacity="1" stroke="#000000" stroke-opacity="1" stroke-width="3.2"/>
<circle clip-path="url(#clip812)" cx="1205.79" cy="1445.72" r="14" fill="#009af9" fill-rule="evenodd" fill-opacity="1" stroke="#000000" stroke-opacity="1" stroke-width="3.2"/>
<circle clip-path="url(#clip812)" cx="1290.75" cy="1445.72" r="14" fill="#009af9" fill-rule="evenodd" fill-opacity="1" stroke="#000000" stroke-opacity="1" stroke-width="3.2"/>
<circle clip-path="url(#clip812)" cx="1375.72" cy="1445.72" r="14" fill="#009af9" fill-rule="evenodd" fill-opacity="1" stroke="#000000" stroke-opacity="1" stroke-width="3.2"/>
<circle clip-path="url(#clip812)" cx="1460.68" cy="1445.72" r="14" fill="#009af9" fill-rule="evenodd" fill-opacity="1" stroke="#000000" stroke-opacity="1" stroke-width="3.2"/>
<circle clip-path="url(#clip812)" cx="1545.64" cy="1445.72" r="14" fill="#009af9" fill-rule="evenodd" fill-opacity="1" stroke="#000000" stroke-opacity="1" stroke-width="3.2"/>
<circle clip-path="url(#clip812)" cx="1630.6" cy="1445.72" r="14" fill="#009af9" fill-rule="evenodd" fill-opacity="1" stroke="#000000" stroke-opacity="1" stroke-width="3.2"/>
<circle clip-path="url(#clip812)" cx="1715.56" cy="1445.72" r="14" fill="#009af9" fill-rule="evenodd" fill-opacity="1" stroke="#000000" stroke-opacity="1" stroke-width="3.2"/>
<circle clip-path="url(#clip812)" cx="1800.52" cy="1445.72" r="14" fill="#009af9" fill-rule="evenodd" fill-opacity="1" stroke="#000000" stroke-opacity="1" stroke-width="3.2"/>
<circle clip-path="url(#clip812)" cx="1885.48" cy="1445.72" r="14" fill="#009af9" fill-rule="evenodd" fill-opacity="1" stroke="#000000" stroke-opacity="1" stroke-width="3.2"/>
<circle clip-path="url(#clip812)" cx="1970.44" cy="1445.72" r="14" fill="#009af9" fill-rule="evenodd" fill-opacity="1" stroke="#000000" stroke-opacity="1" stroke-width="3.2"/>
<circle clip-path="url(#clip812)" cx="2055.4" cy="1445.72" r="14" fill="#009af9" fill-rule="evenodd" fill-opacity="1" stroke="#000000" stroke-opacity="1" stroke-width="3.2"/>
<circle clip-path="url(#clip812)" cx="2140.36" cy="1445.72" r="14" fill="#009af9" fill-rule="evenodd" fill-opacity="1" stroke="#000000" stroke-opacity="1" stroke-width="3.2"/>
<circle clip-path="url(#clip812)" cx="2225.32" cy="1445.72" r="14" fill="#009af9" fill-rule="evenodd" fill-opacity="1" stroke="#000000" stroke-opacity="1" stroke-width="3.2"/>
<circle clip-path="url(#clip812)" cx="2310.28" cy="1445.72" r="14" fill="#009af9" fill-rule="evenodd" fill-opacity="1" stroke="#000000" stroke-opacity="1" stroke-width="3.2"/>
<polyline clip-path="url(#clip812)" style="stroke:#e26f46; stroke-linecap:butt; stroke-linejoin:round; stroke-width:16; stroke-opacity:1; fill:none" points="
  271.234,1445.72 356.194,1445.72 441.154,1445.72 526.114,1445.72 611.074,1445.72 696.034,1445.72 780.995,1445.72 865.955,766.846 950.915,87.9763 1035.87,766.846 
  1120.83,1445.72 1205.79,1445.72 1290.75,1445.72 1375.72,1445.72 1460.68,1445.72 1545.64,1445.72 1630.6,1445.72 1715.56,1445.72 1800.52,1445.72 1885.48,1445.72 
  1970.44,1445.72 2055.4,1445.72 2140.36,1445.72 2225.32,1445.72 2310.28,1445.72 2395.24,1445.72 2480.2,1445.72 2565.16,1445.72 2650.12,1445.72 2735.08,1445.72 
  2820.04,1445.72 2905,1445.72 2989.96,1445.72 3074.92,1445.72 3159.88,1445.72 3244.84,1445.72 3329.8,1445.72 3414.76,1445.72 3499.72,1445.72 3584.68,1445.72 
  3669.64,1445.72 3754.6,1445.72 3839.56,1445.72 3924.52,1445.72 4009.48,1445.72 4094.44,1445.72 4179.4,1445.72 4264.36,1445.72 4349.32,1445.72 4434.28,1445.72 
  
  "/>
<path clip-path="url(#clip812)" d="M255.234 1429.72 L255.234 1461.72 L287.234 1461.72 L287.234 1429.72 L255.234 1429.72 Z" fill="#e26f46" fill-rule="evenodd" fill-opacity="1" stroke="#000000" stroke-opacity="1" stroke-width="3.2"/>
<path clip-path="url(#clip812)" d="M340.194 1429.72 L340.194 1461.72 L372.194 1461.72 L372.194 1429.72 L340.194 1429.72 Z" fill="#e26f46" fill-rule="evenodd" fill-opacity="1" stroke="#000000" stroke-opacity="1" stroke-width="3.2"/>
<path clip-path="url(#clip812)" d="M425.154 1429.72 L425.154 1461.72 L457.154 1461.72 L457.154 1429.72 L425.154 1429.72 Z" fill="#e26f46" fill-rule="evenodd" fill-opacity="1" stroke="#000000" stroke-opacity="1" stroke-width="3.2"/>
<path clip-path="url(#clip812)" d="M510.114 1429.72 L510.114 1461.72 L542.114 1461.72 L542.114 1429.72 L510.114 1429.72 Z" fill="#e26f46" fill-rule="evenodd" fill-opacity="1" stroke="#000000" stroke-opacity="1" stroke-width="3.2"/>
<path clip-path="url(#clip812)" d="M595.074 1429.72 L595.074 1461.72 L627.074 1461.72 L627.074 1429.72 L595.074 1429.72 Z" fill="#e26f46" fill-rule="evenodd" fill-opacity="1" stroke="#000000" stroke-opacity="1" stroke-width="3.2"/>
<path clip-path="url(#clip812)" d="M680.034 1429.72 L680.034 1461.72 L712.034 1461.72 L712.034 1429.72 L680.034 1429.72 Z" fill="#e26f46" fill-rule="evenodd" fill-opacity="1" stroke="#000000" stroke-opacity="1" stroke-width="3.2"/>
<path clip-path="url(#clip812)" d="M764.995 1429.72 L764.995 1461.72 L796.995 1461.72 L796.995 1429.72 L764.995 1429.72 Z" fill="#e26f46" fill-rule="evenodd" fill-opacity="1" stroke="#000000" stroke-opacity="1" stroke-width="3.2"/>
<path clip-path="url(#clip812)" d="M849.955 750.846 L849.955 782.846 L881.955 782.846 L881.955 750.846 L849.955 750.846 Z" fill="#e26f46" fill-rule="evenodd" fill-opacity="1" stroke="#000000" stroke-opacity="1" stroke-width="3.2"/>
<path clip-path="url(#clip812)" d="M934.915 71.9763 L934.915 103.976 L966.915 103.976 L966.915 71.9763 L934.915 71.9763 Z" fill="#e26f46" fill-rule="evenodd" fill-opacity="1" stroke="#000000" stroke-opacity="1" stroke-width="3.2"/>
<path clip-path="url(#clip812)" d="M1019.87 750.846 L1019.87 782.846 L1051.87 782.846 L1051.87 750.846 L1019.87 750.846 Z" fill="#e26f46" fill-rule="evenodd" fill-opacity="1" stroke="#000000" stroke-opacity="1" stroke-width="3.2"/>
<path clip-path="url(#clip812)" d="M1104.83 1429.72 L1104.83 1461.72 L1136.83 1461.72 L1136.83 1429.72 L1104.83 1429.72 Z" fill="#e26f46" fill-rule="evenodd" fill-opacity="1" stroke="#000000" stroke-opacity="1" stroke-width="3.2"/>
<path clip-path="url(#clip812)" d="M1189.79 1429.72 L1189.79 1461.72 L1221.79 1461.72 L1221.79 1429.72 L1189.79 1429.72 Z" fill="#e26f46" fill-rule="evenodd" fill-opacity="1" stroke="#000000" stroke-opacity="1" stroke-width="3.2"/>
<path clip-path="url(#clip812)" d="M1274.75 1429.72 L1274.75 1461.72 L1306.75 1461.72 L1306.75 1429.72 L1274.75 1429.72 Z" fill="#e26f46" fill-rule="evenodd" fill-opacity="1" stroke="#000000" stroke-opacity="1" stroke-width="3.2"/>
<path clip-path="url(#clip812)" d="M1359.72 1429.72 L1359.72 1461.72 L1391.72 1461.72 L1391.72 1429.72 L1359.72 1429.72 Z" fill="#e26f46" fill-rule="evenodd" fill-opacity="1" stroke="#000000" stroke-opacity="1" stroke-width="3.2"/>
<path clip-path="url(#clip812)" d="M1444.68 1429.72 L1444.68 1461.72 L1476.68 1461.72 L1476.68 1429.72 L1444.68 1429.72 Z" fill="#e26f46" fill-rule="evenodd" fill-opacity="1" stroke="#000000" stroke-opacity="1" stroke-width="3.2"/>
<path clip-path="url(#clip812)" d="M1529.64 1429.72 L1529.64 1461.72 L1561.64 1461.72 L1561.64 1429.72 L1529.64 1429.72 Z" fill="#e26f46" fill-rule="evenodd" fill-opacity="1" stroke="#000000" stroke-opacity="1" stroke-width="3.2"/>
<path clip-path="url(#clip812)" d="M1614.6 1429.72 L1614.6 1461.72 L1646.6 1461.72 L1646.6 1429.72 L1614.6 1429.72 Z" fill="#e26f46" fill-rule="evenodd" fill-opacity="1" stroke="#000000" stroke-opacity="1" stroke-width="3.2"/>
<path clip-path="url(#clip812)" d="M1699.56 1429.72 L1699.56 1461.72 L1731.56 1461.72 L1731.56 1429.72 L1699.56 1429.72 Z" fill="#e26f46" fill-rule="evenodd" fill-opacity="1" stroke="#000000" stroke-opacity="1" stroke-width="3.2"/>
<path clip-path="url(#clip812)" d="M1784.52 1429.72 L1784.52 1461.72 L1816.52 1461.72 L1816.52 1429.72 L1784.52 1429.72 Z" fill="#e26f46" fill-rule="evenodd" fill-opacity="1" stroke="#000000" stroke-opacity="1" stroke-width="3.2"/>
<path clip-path="url(#clip812)" d="M1869.48 1429.72 L1869.48 1461.72 L1901.48 1461.72 L1901.48 1429.72 L1869.48 1429.72 Z" fill="#e26f46" fill-rule="evenodd" fill-opacity="1" stroke="#000000" stroke-opacity="1" stroke-width="3.2"/>
<path clip-path="url(#clip812)" d="M1954.44 1429.72 L1954.44 1461.72 L1986.44 1461.72 L1986.44 1429.72 L1954.44 1429.72 Z" fill="#e26f46" fill-rule="evenodd" fill-opacity="1" stroke="#000000" stroke-opacity="1" stroke-width="3.2"/>
<path clip-path="url(#clip812)" d="M2039.4 1429.72 L2039.4 1461.72 L2071.4 1461.72 L2071.4 1429.72 L2039.4 1429.72 Z" fill="#e26f46" fill-rule="evenodd" fill-opacity="1" stroke="#000000" stroke-opacity="1" stroke-width="3.2"/>
<path clip-path="url(#clip812)" d="M2124.36 1429.72 L2124.36 1461.72 L2156.36 1461.72 L2156.36 1429.72 L2124.36 1429.72 Z" fill="#e26f46" fill-rule="evenodd" fill-opacity="1" stroke="#000000" stroke-opacity="1" stroke-width="3.2"/>
<path clip-path="url(#clip812)" d="M2209.32 1429.72 L2209.32 1461.72 L2241.32 1461.72 L2241.32 1429.72 L2209.32 1429.72 Z" fill="#e26f46" fill-rule="evenodd" fill-opacity="1" stroke="#000000" stroke-opacity="1" stroke-width="3.2"/>
<path clip-path="url(#clip812)" d="M2294.28 1429.72 L2294.28 1461.72 L2326.28 1461.72 L2326.28 1429.72 L2294.28 1429.72 Z" fill="#e26f46" fill-rule="evenodd" fill-opacity="1" stroke="#000000" stroke-opacity="1" stroke-width="3.2"/>
<polyline clip-path="url(#clip812)" style="stroke:#3da44d; stroke-linecap:butt; stroke-linejoin:round; stroke-width:16; stroke-opacity:1; fill:none" points="
  271.234,1445.72 356.194,1445.72 441.154,1445.72 526.114,1445.72 611.074,1445.72 696.034,1445.72 780.995,1445.72 865.955,1445.72 950.915,1445.72 1035.87,766.846 
  1120.83,87.9763 1205.79,766.846 1290.75,1445.72 1375.72,1445.72 1460.68,1445.72 1545.64,1445.72 1630.6,1445.72 1715.56,1445.72 1800.52,1445.72 1885.48,1445.72 
  1970.44,1445.72 2055.4,1445.72 2140.36,1445.72 2225.32,1445.72 2310.28,1445.72 2395.24,1445.72 2480.2,1445.72 2565.16,1445.72 2650.12,1445.72 2735.08,1445.72 
  2820.04,1445.72 2905,1445.72 2989.96,1445.72 3074.92,1445.72 3159.88,1445.72 3244.84,1445.72 3329.8,1445.72 3414.76,1445.72 3499.72,1445.72 3584.68,1445.72 
  3669.64,1445.72 3754.6,1445.72 3839.56,1445.72 3924.52,1445.72 4009.48,1445.72 4094.44,1445.72 4179.4,1445.72 4264.36,1445.72 4349.32,1445.72 4434.28,1445.72 
  
  "/>
<path clip-path="url(#clip812)" d="M271.234 1429.72 L267.474 1440.53 L256.018 1440.77 L265.154 1447.7 L261.826 1458.66 L271.234 1452.12 L280.642 1458.66 L277.314 1447.7 L286.45 1440.77 L274.994 1440.53 L271.234 1429.72 Z" fill="#3da44d" fill-rule="evenodd" fill-opacity="1" stroke="#000000" stroke-opacity="1" stroke-width="3.2"/>
<path clip-path="url(#clip812)" d="M356.194 1429.72 L352.434 1440.53 L340.978 1440.77 L350.114 1447.7 L346.786 1458.66 L356.194 1452.12 L365.602 1458.66 L362.274 1447.7 L371.41 1440.77 L359.954 1440.53 L356.194 1429.72 Z" fill="#3da44d" fill-rule="evenodd" fill-opacity="1" stroke="#000000" stroke-opacity="1" stroke-width="3.2"/>
<path clip-path="url(#clip812)" d="M441.154 1429.72 L437.394 1440.53 L425.938 1440.77 L435.074 1447.7 L431.746 1458.66 L441.154 1452.12 L450.562 1458.66 L447.234 1447.7 L456.37 1440.77 L444.914 1440.53 L441.154 1429.72 Z" fill="#3da44d" fill-rule="evenodd" fill-opacity="1" stroke="#000000" stroke-opacity="1" stroke-width="3.2"/>
<path clip-path="url(#clip812)" d="M526.114 1429.72 L522.354 1440.53 L510.898 1440.77 L520.034 1447.7 L516.706 1458.66 L526.114 1452.12 L535.522 1458.66 L532.194 1447.7 L541.33 1440.77 L529.874 1440.53 L526.114 1429.72 Z" fill="#3da44d" fill-rule="evenodd" fill-opacity="1" stroke="#000000" stroke-opacity="1" stroke-width="3.2"/>
<path clip-path="url(#clip812)" d="M611.074 1429.72 L607.314 1440.53 L595.858 1440.77 L604.994 1447.7 L601.666 1458.66 L611.074 1452.12 L620.482 1458.66 L617.154 1447.7 L626.29 1440.77 L614.834 1440.53 L611.074 1429.72 Z" fill="#3da44d" fill-rule="evenodd" fill-opacity="1" stroke="#000000" stroke-opacity="1" stroke-width="3.2"/>
<path clip-path="url(#clip812)" d="M696.034 1429.72 L692.274 1440.53 L680.818 1440.77 L689.954 1447.7 L686.626 1458.66 L696.034 1452.12 L705.442 1458.66 L702.114 1447.7 L711.25 1440.77 L699.794 1440.53 L696.034 1429.72 Z" fill="#3da44d" fill-rule="evenodd" fill-opacity="1" stroke="#000000" stroke-opacity="1" stroke-width="3.2"/>
<path clip-path="url(#clip812)" d="M780.995 1429.72 L777.235 1440.53 L765.779 1440.77 L774.915 1447.7 L771.587 1458.66 L780.995 1452.12 L790.403 1458.66 L787.075 1447.7 L796.211 1440.77 L784.755 1440.53 L780.995 1429.72 Z" fill="#3da44d" fill-rule="evenodd" fill-opacity="1" stroke="#000000" stroke-opacity="1" stroke-width="3.2"/>
<path clip-path="url(#clip812)" d="M865.955 1429.72 L862.195 1440.53 L850.739 1440.77 L859.875 1447.7 L856.547 1458.66 L865.955 1452.12 L875.363 1458.66 L872.035 1447.7 L881.171 1440.77 L869.715 1440.53 L865.955 1429.72 Z" fill="#3da44d" fill-rule="evenodd" fill-opacity="1" stroke="#000000" stroke-opacity="1" stroke-width="3.2"/>
<path clip-path="url(#clip812)" d="M950.915 1429.72 L947.155 1440.53 L935.699 1440.77 L944.835 1447.7 L941.507 1458.66 L950.915 1452.12 L960.323 1458.66 L956.995 1447.7 L966.131 1440.77 L954.675 1440.53 L950.915 1429.72 Z" fill="#3da44d" fill-rule="evenodd" fill-opacity="1" stroke="#000000" stroke-opacity="1" stroke-width="3.2"/>
<path clip-path="url(#clip812)" d="M1035.87 750.846 L1032.11 761.662 L1020.66 761.902 L1029.79 768.83 L1026.47 779.79 L1035.87 773.246 L1045.28 779.79 L1041.95 768.83 L1051.09 761.902 L1039.63 761.662 L1035.87 750.846 Z" fill="#3da44d" fill-rule="evenodd" fill-opacity="1" stroke="#000000" stroke-opacity="1" stroke-width="3.2"/>
<path clip-path="url(#clip812)" d="M1120.83 71.9763 L1117.07 82.7923 L1105.62 83.0323 L1114.75 89.9603 L1111.43 100.92 L1120.83 94.3763 L1130.24 100.92 L1126.91 89.9603 L1136.05 83.0323 L1124.59 82.7923 L1120.83 71.9763 Z" fill="#3da44d" fill-rule="evenodd" fill-opacity="1" stroke="#000000" stroke-opacity="1" stroke-width="3.2"/>
<path clip-path="url(#clip812)" d="M1205.79 750.846 L1202.03 761.662 L1190.58 761.902 L1199.71 768.83 L1196.39 779.79 L1205.79 773.246 L1215.2 779.79 L1211.87 768.83 L1221.01 761.902 L1209.55 761.662 L1205.79 750.846 Z" fill="#3da44d" fill-rule="evenodd" fill-opacity="1" stroke="#000000" stroke-opacity="1" stroke-width="3.2"/>
<path clip-path="url(#clip812)" d="M1290.75 1429.72 L1286.99 1440.53 L1275.54 1440.77 L1284.67 1447.7 L1281.35 1458.66 L1290.75 1452.12 L1300.16 1458.66 L1296.83 1447.7 L1305.97 1440.77 L1294.51 1440.53 L1290.75 1429.72 Z" fill="#3da44d" fill-rule="evenodd" fill-opacity="1" stroke="#000000" stroke-opacity="1" stroke-width="3.2"/>
<path clip-path="url(#clip812)" d="M1375.72 1429.72 L1371.96 1440.53 L1360.5 1440.77 L1369.64 1447.7 L1366.31 1458.66 L1375.72 1452.12 L1385.12 1458.66 L1381.8 1447.7 L1390.93 1440.77 L1379.48 1440.53 L1375.72 1429.72 Z" fill="#3da44d" fill-rule="evenodd" fill-opacity="1" stroke="#000000" stroke-opacity="1" stroke-width="3.2"/>
<path clip-path="url(#clip812)" d="M1460.68 1429.72 L1456.92 1440.53 L1445.46 1440.77 L1454.6 1447.7 L1451.27 1458.66 L1460.68 1452.12 L1470.08 1458.66 L1466.76 1447.7 L1475.89 1440.77 L1464.44 1440.53 L1460.68 1429.72 Z" fill="#3da44d" fill-rule="evenodd" fill-opacity="1" stroke="#000000" stroke-opacity="1" stroke-width="3.2"/>
<path clip-path="url(#clip812)" d="M1545.64 1429.72 L1541.88 1440.53 L1530.42 1440.77 L1539.56 1447.7 L1536.23 1458.66 L1545.64 1452.12 L1555.04 1458.66 L1551.72 1447.7 L1560.85 1440.77 L1549.4 1440.53 L1545.64 1429.72 Z" fill="#3da44d" fill-rule="evenodd" fill-opacity="1" stroke="#000000" stroke-opacity="1" stroke-width="3.2"/>
<path clip-path="url(#clip812)" d="M1630.6 1429.72 L1626.84 1440.53 L1615.38 1440.77 L1624.52 1447.7 L1621.19 1458.66 L1630.6 1452.12 L1640 1458.66 L1636.68 1447.7 L1645.81 1440.77 L1634.36 1440.53 L1630.6 1429.72 Z" fill="#3da44d" fill-rule="evenodd" fill-opacity="1" stroke="#000000" stroke-opacity="1" stroke-width="3.2"/>
<path clip-path="url(#clip812)" d="M1715.56 1429.72 L1711.8 1440.53 L1700.34 1440.77 L1709.48 1447.7 L1706.15 1458.66 L1715.56 1452.12 L1724.96 1458.66 L1721.64 1447.7 L1730.77 1440.77 L1719.32 1440.53 L1715.56 1429.72 Z" fill="#3da44d" fill-rule="evenodd" fill-opacity="1" stroke="#000000" stroke-opacity="1" stroke-width="3.2"/>
<path clip-path="url(#clip812)" d="M1800.52 1429.72 L1796.76 1440.53 L1785.3 1440.77 L1794.44 1447.7 L1791.11 1458.66 L1800.52 1452.12 L1809.92 1458.66 L1806.6 1447.7 L1815.73 1440.77 L1804.28 1440.53 L1800.52 1429.72 Z" fill="#3da44d" fill-rule="evenodd" fill-opacity="1" stroke="#000000" stroke-opacity="1" stroke-width="3.2"/>
<path clip-path="url(#clip812)" d="M1885.48 1429.72 L1881.72 1440.53 L1870.26 1440.77 L1879.4 1447.7 L1876.07 1458.66 L1885.48 1452.12 L1894.88 1458.66 L1891.56 1447.7 L1900.69 1440.77 L1889.24 1440.53 L1885.48 1429.72 Z" fill="#3da44d" fill-rule="evenodd" fill-opacity="1" stroke="#000000" stroke-opacity="1" stroke-width="3.2"/>
<path clip-path="url(#clip812)" d="M1970.44 1429.72 L1966.68 1440.53 L1955.22 1440.77 L1964.36 1447.7 L1961.03 1458.66 L1970.44 1452.12 L1979.84 1458.66 L1976.52 1447.7 L1985.65 1440.77 L1974.2 1440.53 L1970.44 1429.72 Z" fill="#3da44d" fill-rule="evenodd" fill-opacity="1" stroke="#000000" stroke-opacity="1" stroke-width="3.2"/>
<path clip-path="url(#clip812)" d="M2055.4 1429.72 L2051.64 1440.53 L2040.18 1440.77 L2049.32 1447.7 L2045.99 1458.66 L2055.4 1452.12 L2064.8 1458.66 L2061.48 1447.7 L2070.61 1440.77 L2059.16 1440.53 L2055.4 1429.72 Z" fill="#3da44d" fill-rule="evenodd" fill-opacity="1" stroke="#000000" stroke-opacity="1" stroke-width="3.2"/>
<path clip-path="url(#clip812)" d="M2140.36 1429.72 L2136.6 1440.53 L2125.14 1440.77 L2134.28 1447.7 L2130.95 1458.66 L2140.36 1452.12 L2149.76 1458.66 L2146.44 1447.7 L2155.57 1440.77 L2144.12 1440.53 L2140.36 1429.72 Z" fill="#3da44d" fill-rule="evenodd" fill-opacity="1" stroke="#000000" stroke-opacity="1" stroke-width="3.2"/>
<path clip-path="url(#clip812)" d="M2225.32 1429.72 L2221.56 1440.53 L2210.1 1440.77 L2219.24 1447.7 L2215.91 1458.66 L2225.32 1452.12 L2234.72 1458.66 L2231.4 1447.7 L2240.53 1440.77 L2229.08 1440.53 L2225.32 1429.72 Z" fill="#3da44d" fill-rule="evenodd" fill-opacity="1" stroke="#000000" stroke-opacity="1" stroke-width="3.2"/>
<path clip-path="url(#clip812)" d="M2310.28 1429.72 L2306.52 1440.53 L2295.06 1440.77 L2304.2 1447.7 L2300.87 1458.66 L2310.28 1452.12 L2319.68 1458.66 L2316.36 1447.7 L2325.49 1440.77 L2314.04 1440.53 L2310.28 1429.72 Z" fill="#3da44d" fill-rule="evenodd" fill-opacity="1" stroke="#000000" stroke-opacity="1" stroke-width="3.2"/>
<path clip-path="url(#clip810)" d="
M1986.81 302.578 L2280.54 302.578 L2280.54 95.2176 L1986.81 95.2176  Z
  " fill="#ffffff" fill-rule="evenodd" fill-opacity="1"/>
<polyline clip-path="url(#clip810)" style="stroke:#000000; stroke-linecap:butt; stroke-linejoin:round; stroke-width:4; stroke-opacity:1; fill:none" points="
  1986.81,302.578 2280.54,302.578 2280.54,95.2176 1986.81,95.2176 1986.81,302.578 
  "/>
<polyline clip-path="url(#clip810)" style="stroke:#009af9; stroke-linecap:butt; stroke-linejoin:round; stroke-width:4; stroke-opacity:1; fill:none" points="
  2010.88,147.058 2155.31,147.058 
  "/>
<circle clip-path="url(#clip810)" cx="2083.1" cy="147.058" r="23" fill="#009af9" fill-rule="evenodd" fill-opacity="1" stroke="#000000" stroke-opacity="1" stroke-width="5.12"/>
<path clip-path="url(#clip810)" d="M2193.23 166.745 Q2191.42 171.375 2189.71 172.787 Q2188 174.199 2185.13 174.199 L2181.72 174.199 L2181.72 170.634 L2184.22 170.634 Q2185.98 170.634 2186.96 169.8 Q2187.93 168.967 2189.11 165.865 L2189.87 163.921 L2179.39 138.412 L2183.9 138.412 L2192 158.689 L2200.1 138.412 L2204.62 138.412 L2193.23 166.745 Z" fill="#000000" fill-rule="evenodd" fill-opacity="1" /><path clip-path="url(#clip810)" d="M2211.91 160.402 L2219.55 160.402 L2219.55 134.037 L2211.24 135.703 L2211.24 131.444 L2219.5 129.778 L2224.18 129.778 L2224.18 160.402 L2231.82 160.402 L2231.82 164.338 L2211.91 164.338 L2211.91 160.402 Z" fill="#000000" fill-rule="evenodd" fill-opacity="1" /><polyline clip-path="url(#clip810)" style="stroke:#e26f46; stroke-linecap:butt; stroke-linejoin:round; stroke-width:4; stroke-opacity:1; fill:none" points="
  2010.88,198.898 2155.31,198.898 
  "/>
<path clip-path="url(#clip810)" d="M2057.5 173.298 L2057.5 224.498 L2108.7 224.498 L2108.7 173.298 L2057.5 173.298 Z" fill="#e26f46" fill-rule="evenodd" fill-opacity="1" stroke="#000000" stroke-opacity="1" stroke-width="5.12"/>
<path clip-path="url(#clip810)" d="M2193.23 218.585 Q2191.42 223.215 2189.71 224.627 Q2188 226.039 2185.13 226.039 L2181.72 226.039 L2181.72 222.474 L2184.22 222.474 Q2185.98 222.474 2186.96 221.64 Q2187.93 220.807 2189.11 217.705 L2189.87 215.761 L2179.39 190.252 L2183.9 190.252 L2192 210.529 L2200.1 190.252 L2204.62 190.252 L2193.23 218.585 Z" fill="#000000" fill-rule="evenodd" fill-opacity="1" /><path clip-path="url(#clip810)" d="M2215.13 212.242 L2231.45 212.242 L2231.45 216.178 L2209.5 216.178 L2209.5 212.242 Q2212.16 209.488 2216.75 204.858 Q2221.35 200.205 2222.53 198.863 Q2224.78 196.34 2225.66 194.604 Q2226.56 192.844 2226.56 191.155 Q2226.56 188.4 2224.62 186.664 Q2222.7 184.928 2219.59 184.928 Q2217.4 184.928 2214.94 185.692 Q2212.51 186.455 2209.73 188.006 L2209.73 183.284 Q2212.56 182.15 2215.01 181.571 Q2217.47 180.993 2219.5 180.993 Q2224.87 180.993 2228.07 183.678 Q2231.26 186.363 2231.26 190.854 Q2231.26 192.983 2230.45 194.905 Q2229.66 196.803 2227.56 199.395 Q2226.98 200.067 2223.88 203.284 Q2220.78 206.479 2215.13 212.242 Z" fill="#000000" fill-rule="evenodd" fill-opacity="1" /><polyline clip-path="url(#clip810)" style="stroke:#3da44d; stroke-linecap:butt; stroke-linejoin:round; stroke-width:4; stroke-opacity:1; fill:none" points="
  2010.88,250.738 2155.31,250.738 
  "/>
<path clip-path="url(#clip810)" d="M2083.1 225.138 L2077.08 242.443 L2058.75 242.827 L2073.37 253.912 L2068.05 271.448 L2083.1 260.978 L2098.15 271.448 L2092.83 253.912 L2107.44 242.827 L2089.11 242.443 L2083.1 225.138 Z" fill="#3da44d" fill-rule="evenodd" fill-opacity="1" stroke="#000000" stroke-opacity="1" stroke-width="5.12"/>
<path clip-path="url(#clip810)" d="M2193.23 270.425 Q2191.42 275.055 2189.71 276.467 Q2188 277.879 2185.13 277.879 L2181.72 277.879 L2181.72 274.314 L2184.22 274.314 Q2185.98 274.314 2186.96 273.48 Q2187.93 272.647 2189.11 269.545 L2189.87 267.601 L2179.39 242.092 L2183.9 242.092 L2192 262.369 L2200.1 242.092 L2204.62 242.092 L2193.23 270.425 Z" fill="#000000" fill-rule="evenodd" fill-opacity="1" /><path clip-path="url(#clip810)" d="M2225.27 249.383 Q2228.62 250.101 2230.5 252.369 Q2232.4 254.638 2232.4 257.971 Q2232.4 263.087 2228.88 265.888 Q2225.36 268.689 2218.88 268.689 Q2216.7 268.689 2214.39 268.249 Q2212.09 267.832 2209.64 266.976 L2209.64 262.462 Q2211.59 263.596 2213.9 264.175 Q2216.22 264.754 2218.74 264.754 Q2223.14 264.754 2225.43 263.018 Q2227.74 261.281 2227.74 257.971 Q2227.74 254.916 2225.59 253.203 Q2223.46 251.467 2219.64 251.467 L2215.61 251.467 L2215.61 247.624 L2219.83 247.624 Q2223.28 247.624 2225.1 246.258 Q2226.93 244.87 2226.93 242.277 Q2226.93 239.615 2225.03 238.203 Q2223.16 236.768 2219.64 236.768 Q2217.72 236.768 2215.52 237.184 Q2213.32 237.601 2210.68 238.481 L2210.68 234.314 Q2213.34 233.573 2215.66 233.203 Q2218 232.833 2220.06 232.833 Q2225.38 232.833 2228.48 235.263 Q2231.59 237.67 2231.59 241.791 Q2231.59 244.661 2229.94 246.652 Q2228.3 248.62 2225.27 249.383 Z" fill="#000000" fill-rule="evenodd" fill-opacity="1" /></svg>
