<?xml version="1.0" encoding="utf-8"?>
<svg xmlns="http://www.w3.org/2000/svg" xmlns:xlink="http://www.w3.org/1999/xlink" width="600" height="400" viewBox="0 0 2400 1600">
<defs>
  <clipPath id="clip030">
    <rect x="0" y="0" width="2400" height="1600"/>
  </clipPath>
</defs>
<path clip-path="url(#clip030)" d="
M0 1600 L2400 1600 L2400 0 L0 0  Z
  " fill="#ffffff" fill-rule="evenodd" fill-opacity="1"/>
<defs>
  <clipPath id="clip031">
    <rect x="480" y="0" width="1681" height="1600"/>
  </clipPath>
</defs>
<path clip-path="url(#clip030)" d="
M216.436 1486.45 L2352.76 1486.45 L2352.76 47.2441 L216.436 47.2441  Z
  " fill="#ffffff" fill-rule="evenodd" fill-opacity="1"/>
<defs>
  <clipPath id="clip032">
    <rect x="216" y="47" width="2137" height="1440"/>
  </clipPath>
</defs>
<polyline clip-path="url(#clip032)" style="stroke:#000000; stroke-linecap:butt; stroke-linejoin:round; stroke-width:2; stroke-opacity:0.1; fill:none" points="
  276.898,1486.45 276.898,47.2441 
  "/>
<polyline clip-path="url(#clip032)" style="stroke:#000000; stroke-linecap:butt; stroke-linejoin:round; stroke-width:2; stroke-opacity:0.1; fill:none" points="
  780.747,1486.45 780.747,47.2441 
  "/>
<polyline clip-path="url(#clip032)" style="stroke:#000000; stroke-linecap:butt; stroke-linejoin:round; stroke-width:2; stroke-opacity:0.1; fill:none" points="
  1284.6,1486.45 1284.6,47.2441 
  "/>
<polyline clip-path="url(#clip032)" style="stroke:#000000; stroke-linecap:butt; stroke-linejoin:round; stroke-width:2; stroke-opacity:0.1; fill:none" points="
  1788.44,1486.45 1788.44,47.2441 
  "/>
<polyline clip-path="url(#clip032)" style="stroke:#000000; stroke-linecap:butt; stroke-linejoin:round; stroke-width:2; stroke-opacity:0.1; fill:none" points="
  2292.29,1486.45 2292.29,47.2441 
  "/>
<polyline clip-path="url(#clip030)" style="stroke:#000000; stroke-linecap:butt; stroke-linejoin:round; stroke-width:4; stroke-opacity:1; fill:none" points="
  216.436,1486.45 2352.76,1486.45 
  "/>
<polyline clip-path="url(#clip030)" style="stroke:#000000; stroke-linecap:butt; stroke-linejoin:round; stroke-width:4; stroke-opacity:1; fill:none" points="
  276.898,1486.45 276.898,1467.55 
  "/>
<polyline clip-path="url(#clip030)" style="stroke:#000000; stroke-linecap:butt; stroke-linejoin:round; stroke-width:4; stroke-opacity:1; fill:none" points="
  780.747,1486.45 780.747,1467.55 
  "/>
<polyline clip-path="url(#clip030)" style="stroke:#000000; stroke-linecap:butt; stroke-linejoin:round; stroke-width:4; stroke-opacity:1; fill:none" points="
  1284.6,1486.45 1284.6,1467.55 
  "/>
<polyline clip-path="url(#clip030)" style="stroke:#000000; stroke-linecap:butt; stroke-linejoin:round; stroke-width:4; stroke-opacity:1; fill:none" points="
  1788.44,1486.45 1788.44,1467.55 
  "/>
<polyline clip-path="url(#clip030)" style="stroke:#000000; stroke-linecap:butt; stroke-linejoin:round; stroke-width:4; stroke-opacity:1; fill:none" points="
  2292.29,1486.45 2292.29,1467.55 
  "/>
<path clip-path="url(#clip030)" d="M223.426 1530.29 L253.102 1530.29 L253.102 1534.23 L223.426 1534.23 L223.426 1530.29 Z" fill="#000000" fill-rule="evenodd" fill-opacity="1" /><path clip-path="url(#clip030)" d="M264.004 1543.18 L271.643 1543.18 L271.643 1516.82 L263.333 1518.49 L263.333 1514.23 L271.597 1512.56 L276.273 1512.56 L276.273 1543.18 L283.912 1543.18 L283.912 1547.12 L264.004 1547.12 L264.004 1543.18 Z" fill="#000000" fill-rule="evenodd" fill-opacity="1" /><path clip-path="url(#clip030)" d="M293.356 1541.24 L298.24 1541.24 L298.24 1547.12 L293.356 1547.12 L293.356 1541.24 Z" fill="#000000" fill-rule="evenodd" fill-opacity="1" /><path clip-path="url(#clip030)" d="M318.425 1515.64 Q314.814 1515.64 312.986 1519.2 Q311.18 1522.75 311.18 1529.87 Q311.18 1536.98 312.986 1540.55 Q314.814 1544.09 318.425 1544.09 Q322.06 1544.09 323.865 1540.55 Q325.694 1536.98 325.694 1529.87 Q325.694 1522.75 323.865 1519.2 Q322.06 1515.64 318.425 1515.64 M318.425 1511.93 Q324.235 1511.93 327.291 1516.54 Q330.37 1521.12 330.37 1529.87 Q330.37 1538.6 327.291 1543.21 Q324.235 1547.79 318.425 1547.79 Q312.615 1547.79 309.536 1543.21 Q306.481 1538.6 306.481 1529.87 Q306.481 1521.12 309.536 1516.54 Q312.615 1511.93 318.425 1511.93 Z" fill="#000000" fill-rule="evenodd" fill-opacity="1" /><path clip-path="url(#clip030)" d="M727.773 1530.29 L757.448 1530.29 L757.448 1534.23 L727.773 1534.23 L727.773 1530.29 Z" fill="#000000" fill-rule="evenodd" fill-opacity="1" /><path clip-path="url(#clip030)" d="M777.541 1515.64 Q773.93 1515.64 772.101 1519.2 Q770.295 1522.75 770.295 1529.87 Q770.295 1536.98 772.101 1540.55 Q773.93 1544.09 777.541 1544.09 Q781.175 1544.09 782.981 1540.55 Q784.809 1536.98 784.809 1529.87 Q784.809 1522.75 782.981 1519.2 Q781.175 1515.64 777.541 1515.64 M777.541 1511.93 Q783.351 1511.93 786.407 1516.54 Q789.485 1521.12 789.485 1529.87 Q789.485 1538.6 786.407 1543.21 Q783.351 1547.79 777.541 1547.79 Q771.731 1547.79 768.652 1543.21 Q765.596 1538.6 765.596 1529.87 Q765.596 1521.12 768.652 1516.54 Q771.731 1511.93 777.541 1511.93 Z" fill="#000000" fill-rule="evenodd" fill-opacity="1" /><path clip-path="url(#clip030)" d="M797.703 1541.24 L802.587 1541.24 L802.587 1547.12 L797.703 1547.12 L797.703 1541.24 Z" fill="#000000" fill-rule="evenodd" fill-opacity="1" /><path clip-path="url(#clip030)" d="M812.818 1512.56 L831.175 1512.56 L831.175 1516.5 L817.101 1516.5 L817.101 1524.97 Q818.119 1524.62 819.138 1524.46 Q820.156 1524.27 821.175 1524.27 Q826.962 1524.27 830.341 1527.44 Q833.721 1530.62 833.721 1536.03 Q833.721 1541.61 830.249 1544.71 Q826.777 1547.79 820.457 1547.79 Q818.281 1547.79 816.013 1547.42 Q813.767 1547.05 811.36 1546.31 L811.36 1541.61 Q813.443 1542.74 815.666 1543.3 Q817.888 1543.86 820.365 1543.86 Q824.369 1543.86 826.707 1541.75 Q829.045 1539.64 829.045 1536.03 Q829.045 1532.42 826.707 1530.31 Q824.369 1528.21 820.365 1528.21 Q818.49 1528.21 816.615 1528.62 Q814.763 1529.04 812.818 1529.92 L812.818 1512.56 Z" fill="#000000" fill-rule="evenodd" fill-opacity="1" /><path clip-path="url(#clip030)" d="M1261.98 1515.64 Q1258.37 1515.64 1256.54 1519.2 Q1254.73 1522.75 1254.73 1529.87 Q1254.73 1536.98 1256.54 1540.55 Q1258.37 1544.09 1261.98 1544.09 Q1265.61 1544.09 1267.42 1540.55 Q1269.25 1536.98 1269.25 1529.87 Q1269.25 1522.75 1267.42 1519.2 Q1265.61 1515.64 1261.98 1515.64 M1261.98 1511.93 Q1267.79 1511.93 1270.85 1516.54 Q1273.92 1521.12 1273.92 1529.87 Q1273.92 1538.6 1270.85 1543.21 Q1267.79 1547.79 1261.98 1547.79 Q1256.17 1547.79 1253.09 1543.21 Q1250.04 1538.6 1250.04 1529.87 Q1250.04 1521.12 1253.09 1516.54 Q1256.17 1511.93 1261.98 1511.93 Z" fill="#000000" fill-rule="evenodd" fill-opacity="1" /><path clip-path="url(#clip030)" d="M1282.14 1541.24 L1287.03 1541.24 L1287.03 1547.12 L1282.14 1547.12 L1282.14 1541.24 Z" fill="#000000" fill-rule="evenodd" fill-opacity="1" /><path clip-path="url(#clip030)" d="M1307.21 1515.64 Q1303.6 1515.64 1301.77 1519.2 Q1299.97 1522.75 1299.97 1529.87 Q1299.97 1536.98 1301.77 1540.55 Q1303.6 1544.09 1307.21 1544.09 Q1310.85 1544.09 1312.65 1540.55 Q1314.48 1536.98 1314.48 1529.87 Q1314.48 1522.75 1312.65 1519.2 Q1310.85 1515.64 1307.21 1515.64 M1307.21 1511.93 Q1313.02 1511.93 1316.08 1516.54 Q1319.16 1521.12 1319.16 1529.87 Q1319.16 1538.6 1316.08 1543.21 Q1313.02 1547.79 1307.21 1547.79 Q1301.4 1547.79 1298.32 1543.21 Q1295.27 1538.6 1295.27 1529.87 Q1295.27 1521.12 1298.32 1516.54 Q1301.4 1511.93 1307.21 1511.93 Z" fill="#000000" fill-rule="evenodd" fill-opacity="1" /><path clip-path="url(#clip030)" d="M1766.33 1515.64 Q1762.72 1515.64 1760.89 1519.2 Q1759.08 1522.75 1759.08 1529.87 Q1759.08 1536.98 1760.89 1540.55 Q1762.72 1544.09 1766.33 1544.09 Q1769.96 1544.09 1771.77 1540.55 Q1773.6 1536.98 1773.6 1529.87 Q1773.6 1522.75 1771.77 1519.2 Q1769.96 1515.64 1766.33 1515.64 M1766.33 1511.93 Q1772.14 1511.93 1775.19 1516.54 Q1778.27 1521.12 1778.27 1529.87 Q1778.27 1538.6 1775.19 1543.21 Q1772.14 1547.79 1766.33 1547.79 Q1760.52 1547.79 1757.44 1543.21 Q1754.38 1538.6 1754.38 1529.87 Q1754.38 1521.12 1757.44 1516.54 Q1760.52 1511.93 1766.33 1511.93 Z" fill="#000000" fill-rule="evenodd" fill-opacity="1" /><path clip-path="url(#clip030)" d="M1786.49 1541.24 L1791.37 1541.24 L1791.37 1547.12 L1786.49 1547.12 L1786.49 1541.24 Z" fill="#000000" fill-rule="evenodd" fill-opacity="1" /><path clip-path="url(#clip030)" d="M1801.6 1512.56 L1819.96 1512.56 L1819.96 1516.5 L1805.89 1516.5 L1805.89 1524.97 Q1806.91 1524.62 1807.92 1524.46 Q1808.94 1524.27 1809.96 1524.27 Q1815.75 1524.27 1819.13 1527.44 Q1822.51 1530.62 1822.51 1536.03 Q1822.51 1541.61 1819.04 1544.71 Q1815.56 1547.79 1809.24 1547.79 Q1807.07 1547.79 1804.8 1547.42 Q1802.55 1547.05 1800.15 1546.31 L1800.15 1541.61 Q1802.23 1542.74 1804.45 1543.3 Q1806.67 1543.86 1809.15 1543.86 Q1813.16 1543.86 1815.49 1541.75 Q1817.83 1539.64 1817.83 1536.03 Q1817.83 1532.42 1815.49 1530.31 Q1813.16 1528.21 1809.15 1528.21 Q1807.28 1528.21 1805.4 1528.62 Q1803.55 1529.04 1801.6 1529.92 L1801.6 1512.56 Z" fill="#000000" fill-rule="evenodd" fill-opacity="1" /><path clip-path="url(#clip030)" d="M2259.45 1543.18 L2267.09 1543.18 L2267.09 1516.82 L2258.78 1518.49 L2258.78 1514.23 L2267.04 1512.56 L2271.72 1512.56 L2271.72 1543.18 L2279.35 1543.18 L2279.35 1547.12 L2259.45 1547.12 L2259.45 1543.18 Z" fill="#000000" fill-rule="evenodd" fill-opacity="1" /><path clip-path="url(#clip030)" d="M2288.8 1541.24 L2293.68 1541.24 L2293.68 1547.12 L2288.8 1547.12 L2288.8 1541.24 Z" fill="#000000" fill-rule="evenodd" fill-opacity="1" /><path clip-path="url(#clip030)" d="M2313.87 1515.64 Q2310.26 1515.64 2308.43 1519.2 Q2306.62 1522.75 2306.62 1529.87 Q2306.62 1536.98 2308.43 1540.55 Q2310.26 1544.09 2313.87 1544.09 Q2317.5 1544.09 2319.31 1540.55 Q2321.14 1536.98 2321.14 1529.87 Q2321.14 1522.75 2319.31 1519.2 Q2317.5 1515.64 2313.87 1515.64 M2313.87 1511.93 Q2319.68 1511.93 2322.73 1516.54 Q2325.81 1521.12 2325.81 1529.87 Q2325.81 1538.6 2322.73 1543.21 Q2319.68 1547.79 2313.87 1547.79 Q2308.06 1547.79 2304.98 1543.21 Q2301.92 1538.6 2301.92 1529.87 Q2301.92 1521.12 2304.98 1516.54 Q2308.06 1511.93 2313.87 1511.93 Z" fill="#000000" fill-rule="evenodd" fill-opacity="1" /><polyline clip-path="url(#clip032)" style="stroke:#000000; stroke-linecap:butt; stroke-linejoin:round; stroke-width:2; stroke-opacity:0.1; fill:none" points="
  216.436,1445.72 2352.76,1445.72 
  "/>
<polyline clip-path="url(#clip032)" style="stroke:#000000; stroke-linecap:butt; stroke-linejoin:round; stroke-width:2; stroke-opacity:0.1; fill:none" points="
  216.436,1095.64 2352.76,1095.64 
  "/>
<polyline clip-path="url(#clip032)" style="stroke:#000000; stroke-linecap:butt; stroke-linejoin:round; stroke-width:2; stroke-opacity:0.1; fill:none" points="
  216.436,745.555 2352.76,745.555 
  "/>
<polyline clip-path="url(#clip032)" style="stroke:#000000; stroke-linecap:butt; stroke-linejoin:round; stroke-width:2; stroke-opacity:0.1; fill:none" points="
  216.436,395.474 2352.76,395.474 
  "/>
<polyline clip-path="url(#clip030)" style="stroke:#000000; stroke-linecap:butt; stroke-linejoin:round; stroke-width:4; stroke-opacity:1; fill:none" points="
  216.436,1486.45 216.436,47.2441 
  "/>
<polyline clip-path="url(#clip030)" style="stroke:#000000; stroke-linecap:butt; stroke-linejoin:round; stroke-width:4; stroke-opacity:1; fill:none" points="
  216.436,1445.72 235.334,1445.72 
  "/>
<polyline clip-path="url(#clip030)" style="stroke:#000000; stroke-linecap:butt; stroke-linejoin:round; stroke-width:4; stroke-opacity:1; fill:none" points="
  216.436,1095.64 235.334,1095.64 
  "/>
<polyline clip-path="url(#clip030)" style="stroke:#000000; stroke-linecap:butt; stroke-linejoin:round; stroke-width:4; stroke-opacity:1; fill:none" points="
  216.436,745.555 235.334,745.555 
  "/>
<polyline clip-path="url(#clip030)" style="stroke:#000000; stroke-linecap:butt; stroke-linejoin:round; stroke-width:4; stroke-opacity:1; fill:none" points="
  216.436,395.474 235.334,395.474 
  "/>
<path clip-path="url(#clip030)" d="M62.9365 1431.51 Q59.3254 1431.51 57.4967 1435.08 Q55.6912 1438.62 55.6912 1445.75 Q55.6912 1452.86 57.4967 1456.42 Q59.3254 1459.96 62.9365 1459.96 Q66.5707 1459.96 68.3763 1456.42 Q70.205 1452.86 70.205 1445.75 Q70.205 1438.62 68.3763 1435.08 Q66.5707 1431.51 62.9365 1431.51 M62.9365 1427.81 Q68.7467 1427.81 71.8022 1432.42 Q74.8809 1437 74.8809 1445.75 Q74.8809 1454.48 71.8022 1459.08 Q68.7467 1463.67 62.9365 1463.67 Q57.1264 1463.67 54.0477 1459.08 Q50.9921 1454.48 50.9921 1445.75 Q50.9921 1437 54.0477 1432.42 Q57.1264 1427.81 62.9365 1427.81 Z" fill="#000000" fill-rule="evenodd" fill-opacity="1" /><path clip-path="url(#clip030)" d="M83.0984 1457.12 L87.9827 1457.12 L87.9827 1463 L83.0984 1463 L83.0984 1457.12 Z" fill="#000000" fill-rule="evenodd" fill-opacity="1" /><path clip-path="url(#clip030)" d="M108.168 1431.51 Q104.557 1431.51 102.728 1435.08 Q100.922 1438.62 100.922 1445.75 Q100.922 1452.86 102.728 1456.42 Q104.557 1459.96 108.168 1459.96 Q111.802 1459.96 113.608 1456.42 Q115.436 1452.86 115.436 1445.75 Q115.436 1438.62 113.608 1435.08 Q111.802 1431.51 108.168 1431.51 M108.168 1427.81 Q113.978 1427.81 117.033 1432.42 Q120.112 1437 120.112 1445.75 Q120.112 1454.48 117.033 1459.08 Q113.978 1463.67 108.168 1463.67 Q102.358 1463.67 99.2789 1459.08 Q96.2234 1454.48 96.2234 1445.75 Q96.2234 1437 99.2789 1432.42 Q102.358 1427.81 108.168 1427.81 Z" fill="#000000" fill-rule="evenodd" fill-opacity="1" /><path clip-path="url(#clip030)" d="M138.33 1431.51 Q134.719 1431.51 132.89 1435.08 Q131.084 1438.62 131.084 1445.75 Q131.084 1452.86 132.89 1456.42 Q134.719 1459.96 138.33 1459.96 Q141.964 1459.96 143.769 1456.42 Q145.598 1452.86 145.598 1445.75 Q145.598 1438.62 143.769 1435.08 Q141.964 1431.51 138.33 1431.51 M138.33 1427.81 Q144.14 1427.81 147.195 1432.42 Q150.274 1437 150.274 1445.75 Q150.274 1454.48 147.195 1459.08 Q144.14 1463.67 138.33 1463.67 Q132.519 1463.67 129.441 1459.08 Q126.385 1454.48 126.385 1445.75 Q126.385 1437 129.441 1432.42 Q132.519 1427.81 138.33 1427.81 Z" fill="#000000" fill-rule="evenodd" fill-opacity="1" /><path clip-path="url(#clip030)" d="M168.491 1431.51 Q164.88 1431.51 163.052 1435.08 Q161.246 1438.62 161.246 1445.75 Q161.246 1452.86 163.052 1456.42 Q164.88 1459.96 168.491 1459.96 Q172.126 1459.96 173.931 1456.42 Q175.76 1452.86 175.76 1445.75 Q175.76 1438.62 173.931 1435.08 Q172.126 1431.51 168.491 1431.51 M168.491 1427.81 Q174.302 1427.81 177.357 1432.42 Q180.436 1437 180.436 1445.75 Q180.436 1454.48 177.357 1459.08 Q174.302 1463.67 168.491 1463.67 Q162.681 1463.67 159.603 1459.08 Q156.547 1454.48 156.547 1445.75 Q156.547 1437 159.603 1432.42 Q162.681 1427.81 168.491 1427.81 Z" fill="#000000" fill-rule="evenodd" fill-opacity="1" /><path clip-path="url(#clip030)" d="M63.9319 1081.43 Q60.3208 1081.43 58.4921 1085 Q56.6865 1088.54 56.6865 1095.67 Q56.6865 1102.78 58.4921 1106.34 Q60.3208 1109.88 63.9319 1109.88 Q67.5661 1109.88 69.3717 1106.34 Q71.2004 1102.78 71.2004 1095.67 Q71.2004 1088.54 69.3717 1085 Q67.5661 1081.43 63.9319 1081.43 M63.9319 1077.73 Q69.742 1077.73 72.7976 1082.34 Q75.8763 1086.92 75.8763 1095.67 Q75.8763 1104.4 72.7976 1109 Q69.742 1113.59 63.9319 1113.59 Q58.1217 1113.59 55.043 1109 Q51.9875 1104.4 51.9875 1095.67 Q51.9875 1086.92 55.043 1082.34 Q58.1217 1077.73 63.9319 1077.73 Z" fill="#000000" fill-rule="evenodd" fill-opacity="1" /><path clip-path="url(#clip030)" d="M84.0938 1107.04 L88.978 1107.04 L88.978 1112.92 L84.0938 1112.92 L84.0938 1107.04 Z" fill="#000000" fill-rule="evenodd" fill-opacity="1" /><path clip-path="url(#clip030)" d="M109.163 1081.43 Q105.552 1081.43 103.723 1085 Q101.918 1088.54 101.918 1095.67 Q101.918 1102.78 103.723 1106.34 Q105.552 1109.88 109.163 1109.88 Q112.797 1109.88 114.603 1106.34 Q116.432 1102.78 116.432 1095.67 Q116.432 1088.54 114.603 1085 Q112.797 1081.43 109.163 1081.43 M109.163 1077.73 Q114.973 1077.73 118.029 1082.34 Q121.107 1086.92 121.107 1095.67 Q121.107 1104.4 118.029 1109 Q114.973 1113.59 109.163 1113.59 Q103.353 1113.59 100.274 1109 Q97.2187 1104.4 97.2187 1095.67 Q97.2187 1086.92 100.274 1082.34 Q103.353 1077.73 109.163 1077.73 Z" fill="#000000" fill-rule="evenodd" fill-opacity="1" /><path clip-path="url(#clip030)" d="M139.325 1081.43 Q135.714 1081.43 133.885 1085 Q132.08 1088.54 132.08 1095.67 Q132.08 1102.78 133.885 1106.34 Q135.714 1109.88 139.325 1109.88 Q142.959 1109.88 144.765 1106.34 Q146.593 1102.78 146.593 1095.67 Q146.593 1088.54 144.765 1085 Q142.959 1081.43 139.325 1081.43 M139.325 1077.73 Q145.135 1077.73 148.191 1082.34 Q151.269 1086.92 151.269 1095.67 Q151.269 1104.4 148.191 1109 Q145.135 1113.59 139.325 1113.59 Q133.515 1113.59 130.436 1109 Q127.381 1104.4 127.381 1095.67 Q127.381 1086.92 130.436 1082.34 Q133.515 1077.73 139.325 1077.73 Z" fill="#000000" fill-rule="evenodd" fill-opacity="1" /><path clip-path="url(#clip030)" d="M159.533 1078.36 L177.89 1078.36 L177.89 1082.29 L163.816 1082.29 L163.816 1090.76 Q164.834 1090.42 165.853 1090.25 Q166.871 1090.07 167.89 1090.07 Q173.677 1090.07 177.056 1093.24 Q180.436 1096.41 180.436 1101.83 Q180.436 1107.41 176.964 1110.51 Q173.491 1113.59 167.172 1113.59 Q164.996 1113.59 162.728 1113.22 Q160.482 1112.85 158.075 1112.1 L158.075 1107.41 Q160.158 1108.54 162.38 1109.1 Q164.603 1109.65 167.079 1109.65 Q171.084 1109.65 173.422 1107.54 Q175.76 1105.44 175.76 1101.83 Q175.76 1098.22 173.422 1096.11 Q171.084 1094 167.079 1094 Q165.204 1094 163.329 1094.42 Q161.478 1094.84 159.533 1095.72 L159.533 1078.36 Z" fill="#000000" fill-rule="evenodd" fill-opacity="1" /><path clip-path="url(#clip030)" d="M62.9365 731.353 Q59.3254 731.353 57.4967 734.918 Q55.6912 738.46 55.6912 745.589 Q55.6912 752.696 57.4967 756.261 Q59.3254 759.802 62.9365 759.802 Q66.5707 759.802 68.3763 756.261 Q70.205 752.696 70.205 745.589 Q70.205 738.46 68.3763 734.918 Q66.5707 731.353 62.9365 731.353 M62.9365 727.65 Q68.7467 727.65 71.8022 732.256 Q74.8809 736.839 74.8809 745.589 Q74.8809 754.316 71.8022 758.923 Q68.7467 763.506 62.9365 763.506 Q57.1264 763.506 54.0477 758.923 Q50.9921 754.316 50.9921 745.589 Q50.9921 736.839 54.0477 732.256 Q57.1264 727.65 62.9365 727.65 Z" fill="#000000" fill-rule="evenodd" fill-opacity="1" /><path clip-path="url(#clip030)" d="M83.0984 756.955 L87.9827 756.955 L87.9827 762.835 L83.0984 762.835 L83.0984 756.955 Z" fill="#000000" fill-rule="evenodd" fill-opacity="1" /><path clip-path="url(#clip030)" d="M108.168 731.353 Q104.557 731.353 102.728 734.918 Q100.922 738.46 100.922 745.589 Q100.922 752.696 102.728 756.261 Q104.557 759.802 108.168 759.802 Q111.802 759.802 113.608 756.261 Q115.436 752.696 115.436 745.589 Q115.436 738.46 113.608 734.918 Q111.802 731.353 108.168 731.353 M108.168 727.65 Q113.978 727.65 117.033 732.256 Q120.112 736.839 120.112 745.589 Q120.112 754.316 117.033 758.923 Q113.978 763.506 108.168 763.506 Q102.358 763.506 99.2789 758.923 Q96.2234 754.316 96.2234 745.589 Q96.2234 736.839 99.2789 732.256 Q102.358 727.65 108.168 727.65 Z" fill="#000000" fill-rule="evenodd" fill-opacity="1" /><path clip-path="url(#clip030)" d="M129.14 758.899 L136.779 758.899 L136.779 732.534 L128.469 734.201 L128.469 729.941 L136.732 728.275 L141.408 728.275 L141.408 758.899 L149.047 758.899 L149.047 762.835 L129.14 762.835 L129.14 758.899 Z" fill="#000000" fill-rule="evenodd" fill-opacity="1" /><path clip-path="url(#clip030)" d="M168.491 731.353 Q164.88 731.353 163.052 734.918 Q161.246 738.46 161.246 745.589 Q161.246 752.696 163.052 756.261 Q164.88 759.802 168.491 759.802 Q172.126 759.802 173.931 756.261 Q175.76 752.696 175.76 745.589 Q175.76 738.46 173.931 734.918 Q172.126 731.353 168.491 731.353 M168.491 727.65 Q174.302 727.65 177.357 732.256 Q180.436 736.839 180.436 745.589 Q180.436 754.316 177.357 758.923 Q174.302 763.506 168.491 763.506 Q162.681 763.506 159.603 758.923 Q156.547 754.316 156.547 745.589 Q156.547 736.839 159.603 732.256 Q162.681 727.65 168.491 727.65 Z" fill="#000000" fill-rule="evenodd" fill-opacity="1" /><path clip-path="url(#clip030)" d="M63.9319 381.273 Q60.3208 381.273 58.4921 384.838 Q56.6865 388.379 56.6865 395.509 Q56.6865 402.615 58.4921 406.18 Q60.3208 409.722 63.9319 409.722 Q67.5661 409.722 69.3717 406.18 Q71.2004 402.615 71.2004 395.509 Q71.2004 388.379 69.3717 384.838 Q67.5661 381.273 63.9319 381.273 M63.9319 377.569 Q69.742 377.569 72.7976 382.176 Q75.8763 386.759 75.8763 395.509 Q75.8763 404.236 72.7976 408.842 Q69.742 413.425 63.9319 413.425 Q58.1217 413.425 55.043 408.842 Q51.9875 404.236 51.9875 395.509 Q51.9875 386.759 55.043 382.176 Q58.1217 377.569 63.9319 377.569 Z" fill="#000000" fill-rule="evenodd" fill-opacity="1" /><path clip-path="url(#clip030)" d="M84.0938 406.875 L88.978 406.875 L88.978 412.754 L84.0938 412.754 L84.0938 406.875 Z" fill="#000000" fill-rule="evenodd" fill-opacity="1" /><path clip-path="url(#clip030)" d="M109.163 381.273 Q105.552 381.273 103.723 384.838 Q101.918 388.379 101.918 395.509 Q101.918 402.615 103.723 406.18 Q105.552 409.722 109.163 409.722 Q112.797 409.722 114.603 406.18 Q116.432 402.615 116.432 395.509 Q116.432 388.379 114.603 384.838 Q112.797 381.273 109.163 381.273 M109.163 377.569 Q114.973 377.569 118.029 382.176 Q121.107 386.759 121.107 395.509 Q121.107 404.236 118.029 408.842 Q114.973 413.425 109.163 413.425 Q103.353 413.425 100.274 408.842 Q97.2187 404.236 97.2187 395.509 Q97.2187 386.759 100.274 382.176 Q103.353 377.569 109.163 377.569 Z" fill="#000000" fill-rule="evenodd" fill-opacity="1" /><path clip-path="url(#clip030)" d="M130.135 408.819 L137.774 408.819 L137.774 382.453 L129.464 384.12 L129.464 379.861 L137.728 378.194 L142.404 378.194 L142.404 408.819 L150.043 408.819 L150.043 412.754 L130.135 412.754 L130.135 408.819 Z" fill="#000000" fill-rule="evenodd" fill-opacity="1" /><path clip-path="url(#clip030)" d="M159.533 378.194 L177.89 378.194 L177.89 382.129 L163.816 382.129 L163.816 390.601 Q164.834 390.254 165.853 390.092 Q166.871 389.907 167.89 389.907 Q173.677 389.907 177.056 393.078 Q180.436 396.25 180.436 401.666 Q180.436 407.245 176.964 410.347 Q173.491 413.425 167.172 413.425 Q164.996 413.425 162.728 413.055 Q160.482 412.685 158.075 411.944 L158.075 407.245 Q160.158 408.379 162.38 408.935 Q164.603 409.49 167.079 409.49 Q171.084 409.49 173.422 407.384 Q175.76 405.277 175.76 401.666 Q175.76 398.055 173.422 395.949 Q171.084 393.842 167.079 393.842 Q165.204 393.842 163.329 394.259 Q161.478 394.676 159.533 395.555 L159.533 378.194 Z" fill="#000000" fill-rule="evenodd" fill-opacity="1" /><polyline clip-path="url(#clip032)" style="stroke:#009af9; stroke-linecap:butt; stroke-linejoin:round; stroke-width:4; stroke-opacity:1; fill:none" points="
  276.898,1445.72 285.519,1439.7 311.234,1444.49 353.604,1379.77 411.904,1381.01 485.135,1284.88 572.046,1271.77 671.148,1154.39 780.747,1127.56 898.967,995.575 
  1023.78,959.029 1153.06,818.829 1284.6,777.902 1416.13,636.06 1545.41,596.577 1670.23,459.734 1788.44,427.338 1898.04,302.029 1997.15,281.413 2084.06,174.258 
  2157.29,167.661 2215.59,87.9763 2257.96,135.904 2283.67,642.495 2292.29,1445.72 
  "/>
<circle clip-path="url(#clip032)" cx="276.898" cy="1445.72" r="14" fill="#009af9" fill-rule="evenodd" fill-opacity="1" stroke="#000000" stroke-opacity="1" stroke-width="3.2"/>
<circle clip-path="url(#clip032)" cx="285.519" cy="1439.7" r="14" fill="#009af9" fill-rule="evenodd" fill-opacity="1" stroke="#000000" stroke-opacity="1" stroke-width="3.2"/>
<circle clip-path="url(#clip032)" cx="311.234" cy="1444.49" r="14" fill="#009af9" fill-rule="evenodd" fill-opacity="1" stroke="#000000" stroke-opacity="1" stroke-width="3.2"/>
<circle clip-path="url(#clip032)" cx="353.604" cy="1379.77" r="14" fill="#009af9" fill-rule="evenodd" fill-opacity="1" stroke="#000000" stroke-opacity="1" stroke-width="3.2"/>
<circle clip-path="url(#clip032)" cx="411.904" cy="1381.01" r="14" fill="#009af9" fill-rule="evenodd" fill-opacity="1" stroke="#000000" stroke-opacity="1" stroke-width="3.2"/>
<circle clip-path="url(#clip032)" cx="485.135" cy="1284.88" r="14" fill="#009af9" fill-rule="evenodd" fill-opacity="1" stroke="#000000" stroke-opacity="1" stroke-width="3.2"/>
<circle clip-path="url(#clip032)" cx="572.046" cy="1271.77" r="14" fill="#009af9" fill-rule="evenodd" fill-opacity="1" stroke="#000000" stroke-opacity="1" stroke-width="3.2"/>
<circle clip-path="url(#clip032)" cx="671.148" cy="1154.39" r="14" fill="#009af9" fill-rule="evenodd" fill-opacity="1" stroke="#000000" stroke-opacity="1" stroke-width="3.2"/>
<circle clip-path="url(#clip032)" cx="780.747" cy="1127.56" r="14" fill="#009af9" fill-rule="evenodd" fill-opacity="1" stroke="#000000" stroke-opacity="1" stroke-width="3.2"/>
<circle clip-path="url(#clip032)" cx="898.967" cy="995.575" r="14" fill="#009af9" fill-rule="evenodd" fill-opacity="1" stroke="#000000" stroke-opacity="1" stroke-width="3.2"/>
<circle clip-path="url(#clip032)" cx="1023.78" cy="959.029" r="14" fill="#009af9" fill-rule="evenodd" fill-opacity="1" stroke="#000000" stroke-opacity="1" stroke-width="3.2"/>
<circle clip-path="url(#clip032)" cx="1153.06" cy="818.829" r="14" fill="#009af9" fill-rule="evenodd" fill-opacity="1" stroke="#000000" stroke-opacity="1" stroke-width="3.2"/>
<circle clip-path="url(#clip032)" cx="1284.6" cy="777.902" r="14" fill="#009af9" fill-rule="evenodd" fill-opacity="1" stroke="#000000" stroke-opacity="1" stroke-width="3.2"/>
<circle clip-path="url(#clip032)" cx="1416.13" cy="636.06" r="14" fill="#009af9" fill-rule="evenodd" fill-opacity="1" stroke="#000000" stroke-opacity="1" stroke-width="3.2"/>
<circle clip-path="url(#clip032)" cx="1545.41" cy="596.577" r="14" fill="#009af9" fill-rule="evenodd" fill-opacity="1" stroke="#000000" stroke-opacity="1" stroke-width="3.2"/>
<circle clip-path="url(#clip032)" cx="1670.23" cy="459.734" r="14" fill="#009af9" fill-rule="evenodd" fill-opacity="1" stroke="#000000" stroke-opacity="1" stroke-width="3.2"/>
<circle clip-path="url(#clip032)" cx="1788.44" cy="427.338" r="14" fill="#009af9" fill-rule="evenodd" fill-opacity="1" stroke="#000000" stroke-opacity="1" stroke-width="3.2"/>
<circle clip-path="url(#clip032)" cx="1898.04" cy="302.029" r="14" fill="#009af9" fill-rule="evenodd" fill-opacity="1" stroke="#000000" stroke-opacity="1" stroke-width="3.2"/>
<circle clip-path="url(#clip032)" cx="1997.15" cy="281.413" r="14" fill="#009af9" fill-rule="evenodd" fill-opacity="1" stroke="#000000" stroke-opacity="1" stroke-width="3.2"/>
<circle clip-path="url(#clip032)" cx="2084.06" cy="174.258" r="14" fill="#009af9" fill-rule="evenodd" fill-opacity="1" stroke="#000000" stroke-opacity="1" stroke-width="3.2"/>
<circle clip-path="url(#clip032)" cx="2157.29" cy="167.661" r="14" fill="#009af9" fill-rule="evenodd" fill-opacity="1" stroke="#000000" stroke-opacity="1" stroke-width="3.2"/>
<circle clip-path="url(#clip032)" cx="2215.59" cy="87.9763" r="14" fill="#009af9" fill-rule="evenodd" fill-opacity="1" stroke="#000000" stroke-opacity="1" stroke-width="3.2"/>
<circle clip-path="url(#clip032)" cx="2257.96" cy="135.904" r="14" fill="#009af9" fill-rule="evenodd" fill-opacity="1" stroke="#000000" stroke-opacity="1" stroke-width="3.2"/>
<circle clip-path="url(#clip032)" cx="2283.67" cy="642.495" r="14" fill="#009af9" fill-rule="evenodd" fill-opacity="1" stroke="#000000" stroke-opacity="1" stroke-width="3.2"/>
<circle clip-path="url(#clip032)" cx="2292.29" cy="1445.72" r="14" fill="#009af9" fill-rule="evenodd" fill-opacity="1" stroke="#000000" stroke-opacity="1" stroke-width="3.2"/>
</svg>
