<?xml version="1.0" encoding="utf-8"?>
<svg xmlns="http://www.w3.org/2000/svg" xmlns:xlink="http://www.w3.org/1999/xlink" width="600" height="400" viewBox="0 0 2400 1600">
<defs>
  <clipPath id="clip700">
    <rect x="0" y="0" width="2400" height="1600"/>
  </clipPath>
</defs>
<path clip-path="url(#clip700)" d="
M0 1600 L2400 1600 L2400 0 L0 0  Z
  " fill="#ffffff" fill-rule="evenodd" fill-opacity="1"/>
<defs>
  <clipPath id="clip701">
    <rect x="480" y="0" width="1681" height="1600"/>
  </clipPath>
</defs>
<path clip-path="url(#clip700)" d="
M213.607 1486.45 L2352.76 1486.45 L2352.76 47.2441 L213.607 47.2441  Z
  " fill="#ffffff" fill-rule="evenodd" fill-opacity="1"/>
<defs>
  <clipPath id="clip702">
    <rect x="213" y="47" width="2140" height="1440"/>
  </clipPath>
</defs>
<polyline clip-path="url(#clip702)" style="stroke:#000000; stroke-linecap:butt; stroke-linejoin:round; stroke-width:2; stroke-opacity:0.1; fill:none" points="
  699.005,1486.45 699.005,47.2441 
  "/>
<polyline clip-path="url(#clip702)" style="stroke:#000000; stroke-linecap:butt; stroke-linejoin:round; stroke-width:2; stroke-opacity:0.1; fill:none" points="
  1230.07,1486.45 1230.07,47.2441 
  "/>
<polyline clip-path="url(#clip702)" style="stroke:#000000; stroke-linecap:butt; stroke-linejoin:round; stroke-width:2; stroke-opacity:0.1; fill:none" points="
  1761.14,1486.45 1761.14,47.2441 
  "/>
<polyline clip-path="url(#clip702)" style="stroke:#000000; stroke-linecap:butt; stroke-linejoin:round; stroke-width:2; stroke-opacity:0.1; fill:none" points="
  2292.21,1486.45 2292.21,47.2441 
  "/>
<polyline clip-path="url(#clip700)" style="stroke:#000000; stroke-linecap:butt; stroke-linejoin:round; stroke-width:4; stroke-opacity:1; fill:none" points="
  213.607,1486.45 2352.76,1486.45 
  "/>
<polyline clip-path="url(#clip700)" style="stroke:#000000; stroke-linecap:butt; stroke-linejoin:round; stroke-width:4; stroke-opacity:1; fill:none" points="
  699.005,1486.45 699.005,1467.55 
  "/>
<polyline clip-path="url(#clip700)" style="stroke:#000000; stroke-linecap:butt; stroke-linejoin:round; stroke-width:4; stroke-opacity:1; fill:none" points="
  1230.07,1486.45 1230.07,1467.55 
  "/>
<polyline clip-path="url(#clip700)" style="stroke:#000000; stroke-linecap:butt; stroke-linejoin:round; stroke-width:4; stroke-opacity:1; fill:none" points="
  1761.14,1486.45 1761.14,1467.55 
  "/>
<polyline clip-path="url(#clip700)" style="stroke:#000000; stroke-linecap:butt; stroke-linejoin:round; stroke-width:4; stroke-opacity:1; fill:none" points="
  2292.21,1486.45 2292.21,1467.55 
  "/>
<path clip-path="url(#clip700)" d="M689.283 1512.56 L707.639 1512.56 L707.639 1516.5 L693.565 1516.5 L693.565 1524.97 Q694.584 1524.62 695.602 1524.46 Q696.621 1524.27 697.639 1524.27 Q703.426 1524.27 706.806 1527.44 Q710.186 1530.62 710.186 1536.03 Q710.186 1541.61 706.713 1544.71 Q703.241 1547.79 696.922 1547.79 Q694.746 1547.79 692.477 1547.42 Q690.232 1547.05 687.825 1546.31 L687.825 1541.61 Q689.908 1542.74 692.13 1543.3 Q694.352 1543.86 696.829 1543.86 Q700.834 1543.86 703.172 1541.75 Q705.51 1539.64 705.51 1536.03 Q705.51 1532.42 703.172 1530.31 Q700.834 1528.21 696.829 1528.21 Q694.954 1528.21 693.079 1528.62 Q691.227 1529.04 689.283 1529.92 L689.283 1512.56 Z" fill="#000000" fill-rule="evenodd" fill-opacity="1" /><path clip-path="url(#clip700)" d="M1204.76 1543.18 L1212.4 1543.18 L1212.4 1516.82 L1204.09 1518.49 L1204.09 1514.23 L1212.35 1512.56 L1217.03 1512.56 L1217.03 1543.18 L1224.67 1543.18 L1224.67 1547.12 L1204.76 1547.12 L1204.76 1543.18 Z" fill="#000000" fill-rule="evenodd" fill-opacity="1" /><path clip-path="url(#clip700)" d="M1244.11 1515.64 Q1240.5 1515.64 1238.67 1519.2 Q1236.87 1522.75 1236.87 1529.87 Q1236.87 1536.98 1238.67 1540.55 Q1240.5 1544.09 1244.11 1544.09 Q1247.75 1544.09 1249.55 1540.55 Q1251.38 1536.98 1251.38 1529.87 Q1251.38 1522.75 1249.55 1519.2 Q1247.75 1515.64 1244.11 1515.64 M1244.11 1511.93 Q1249.92 1511.93 1252.98 1516.54 Q1256.06 1521.12 1256.06 1529.87 Q1256.06 1538.6 1252.98 1543.21 Q1249.92 1547.79 1244.11 1547.79 Q1238.3 1547.79 1235.23 1543.21 Q1232.17 1538.6 1232.17 1529.87 Q1232.17 1521.12 1235.23 1516.54 Q1238.3 1511.93 1244.11 1511.93 Z" fill="#000000" fill-rule="evenodd" fill-opacity="1" /><path clip-path="url(#clip700)" d="M1736.33 1543.18 L1743.97 1543.18 L1743.97 1516.82 L1735.66 1518.49 L1735.66 1514.23 L1743.92 1512.56 L1748.6 1512.56 L1748.6 1543.18 L1756.24 1543.18 L1756.24 1547.12 L1736.33 1547.12 L1736.33 1543.18 Z" fill="#000000" fill-rule="evenodd" fill-opacity="1" /><path clip-path="url(#clip700)" d="M1765.73 1512.56 L1784.08 1512.56 L1784.08 1516.5 L1770.01 1516.5 L1770.01 1524.97 Q1771.03 1524.62 1772.05 1524.46 Q1773.07 1524.27 1774.08 1524.27 Q1779.87 1524.27 1783.25 1527.44 Q1786.63 1530.62 1786.63 1536.03 Q1786.63 1541.61 1783.16 1544.71 Q1779.69 1547.79 1773.37 1547.79 Q1771.19 1547.79 1768.92 1547.42 Q1766.68 1547.05 1764.27 1546.31 L1764.27 1541.61 Q1766.35 1542.74 1768.57 1543.3 Q1770.8 1543.86 1773.27 1543.86 Q1777.28 1543.86 1779.62 1541.75 Q1781.95 1539.64 1781.95 1536.03 Q1781.95 1532.42 1779.62 1530.31 Q1777.28 1528.21 1773.27 1528.21 Q1771.4 1528.21 1769.52 1528.62 Q1767.67 1529.04 1765.73 1529.92 L1765.73 1512.56 Z" fill="#000000" fill-rule="evenodd" fill-opacity="1" /><path clip-path="url(#clip700)" d="M2270.99 1543.18 L2287.31 1543.18 L2287.31 1547.12 L2265.36 1547.12 L2265.36 1543.18 Q2268.02 1540.43 2272.61 1535.8 Q2277.21 1531.15 2278.39 1529.81 Q2280.64 1527.28 2281.52 1525.55 Q2282.42 1523.79 2282.42 1522.1 Q2282.42 1519.34 2280.48 1517.61 Q2278.56 1515.87 2275.45 1515.87 Q2273.26 1515.87 2270.8 1516.63 Q2268.37 1517.4 2265.59 1518.95 L2265.59 1514.23 Q2268.42 1513.09 2270.87 1512.51 Q2273.33 1511.93 2275.36 1511.93 Q2280.73 1511.93 2283.93 1514.62 Q2287.12 1517.31 2287.12 1521.8 Q2287.12 1523.93 2286.31 1525.85 Q2285.52 1527.74 2283.42 1530.34 Q2282.84 1531.01 2279.74 1534.23 Q2276.64 1537.42 2270.99 1543.18 Z" fill="#000000" fill-rule="evenodd" fill-opacity="1" /><path clip-path="url(#clip700)" d="M2307.12 1515.64 Q2303.51 1515.64 2301.68 1519.2 Q2299.88 1522.75 2299.88 1529.87 Q2299.88 1536.98 2301.68 1540.55 Q2303.51 1544.09 2307.12 1544.09 Q2310.76 1544.09 2312.56 1540.55 Q2314.39 1536.98 2314.39 1529.87 Q2314.39 1522.75 2312.56 1519.2 Q2310.76 1515.64 2307.12 1515.64 M2307.12 1511.93 Q2312.93 1511.93 2315.99 1516.54 Q2319.07 1521.12 2319.07 1529.87 Q2319.07 1538.6 2315.99 1543.21 Q2312.93 1547.79 2307.12 1547.79 Q2301.31 1547.79 2298.23 1543.21 Q2295.18 1538.6 2295.18 1529.87 Q2295.18 1521.12 2298.23 1516.54 Q2301.31 1511.93 2307.12 1511.93 Z" fill="#000000" fill-rule="evenodd" fill-opacity="1" /><polyline clip-path="url(#clip702)" style="stroke:#000000; stroke-linecap:butt; stroke-linejoin:round; stroke-width:2; stroke-opacity:0.1; fill:none" points="
  213.607,1486.45 2352.76,1486.45 
  "/>
<polyline clip-path="url(#clip702)" style="stroke:#000000; stroke-linecap:butt; stroke-linejoin:round; stroke-width:2; stroke-opacity:0.1; fill:none" points="
  213.607,932.908 2352.76,932.908 
  "/>
<polyline clip-path="url(#clip702)" style="stroke:#000000; stroke-linecap:butt; stroke-linejoin:round; stroke-width:2; stroke-opacity:0.1; fill:none" points="
  213.607,379.368 2352.76,379.368 
  "/>
<polyline clip-path="url(#clip700)" style="stroke:#000000; stroke-linecap:butt; stroke-linejoin:round; stroke-width:4; stroke-opacity:1; fill:none" points="
  213.607,1486.45 213.607,47.2441 
  "/>
<polyline clip-path="url(#clip700)" style="stroke:#000000; stroke-linecap:butt; stroke-linejoin:round; stroke-width:4; stroke-opacity:1; fill:none" points="
  213.607,1486.45 232.505,1486.45 
  "/>
<polyline clip-path="url(#clip700)" style="stroke:#000000; stroke-linecap:butt; stroke-linejoin:round; stroke-width:4; stroke-opacity:1; fill:none" points="
  213.607,932.908 232.505,932.908 
  "/>
<polyline clip-path="url(#clip700)" style="stroke:#000000; stroke-linecap:butt; stroke-linejoin:round; stroke-width:4; stroke-opacity:1; fill:none" points="
  213.607,379.368 232.505,379.368 
  "/>
<path clip-path="url(#clip700)" d="M51.6634 1506.24 L59.3023 1506.24 L59.3023 1479.87 L50.9921 1481.54 L50.9921 1477.28 L59.256 1475.62 L63.9319 1475.62 L63.9319 1506.24 L71.5707 1506.24 L71.5707 1510.18 L51.6634 1510.18 L51.6634 1506.24 Z" fill="#000000" fill-rule="evenodd" fill-opacity="1" /><path clip-path="url(#clip700)" d="M91.0151 1478.69 Q87.404 1478.69 85.5753 1482.26 Q83.7697 1485.8 83.7697 1492.93 Q83.7697 1500.04 85.5753 1503.6 Q87.404 1507.14 91.0151 1507.14 Q94.6493 1507.14 96.4548 1503.6 Q98.2835 1500.04 98.2835 1492.93 Q98.2835 1485.8 96.4548 1482.26 Q94.6493 1478.69 91.0151 1478.69 M91.0151 1474.99 Q96.8252 1474.99 99.8808 1479.6 Q102.959 1484.18 102.959 1492.93 Q102.959 1501.66 99.8808 1506.26 Q96.8252 1510.85 91.0151 1510.85 Q85.2049 1510.85 82.1262 1506.26 Q79.0707 1501.66 79.0707 1492.93 Q79.0707 1484.18 82.1262 1479.6 Q85.2049 1474.99 91.0151 1474.99 Z" fill="#000000" fill-rule="evenodd" fill-opacity="1" /><path clip-path="url(#clip700)" d="M102.959 1469.09 L127.071 1469.09 L127.071 1472.29 L102.959 1472.29 L102.959 1469.09 Z" fill="#000000" fill-rule="evenodd" fill-opacity="1" /><path clip-path="url(#clip700)" d="M135.929 1479.57 L142.136 1479.57 L142.136 1458.15 L135.384 1459.5 L135.384 1456.04 L142.098 1454.69 L145.898 1454.69 L145.898 1479.57 L152.104 1479.57 L152.104 1482.77 L135.929 1482.77 L135.929 1479.57 Z" fill="#000000" fill-rule="evenodd" fill-opacity="1" /><path clip-path="url(#clip700)" d="M167.903 1457.19 Q164.969 1457.19 163.483 1460.08 Q162.016 1462.96 162.016 1468.75 Q162.016 1474.53 163.483 1477.42 Q164.969 1480.3 167.903 1480.3 Q170.855 1480.3 172.322 1477.42 Q173.808 1474.53 173.808 1468.75 Q173.808 1462.96 172.322 1460.08 Q170.855 1457.19 167.903 1457.19 M167.903 1454.18 Q172.623 1454.18 175.106 1457.92 Q177.607 1461.64 177.607 1468.75 Q177.607 1475.84 175.106 1479.59 Q172.623 1483.31 167.903 1483.31 Q163.182 1483.31 160.68 1479.59 Q158.198 1475.84 158.198 1468.75 Q158.198 1461.64 160.68 1457.92 Q163.182 1454.18 167.903 1454.18 Z" fill="#000000" fill-rule="evenodd" fill-opacity="1" /><path clip-path="url(#clip700)" d="M76.9787 952.7 L84.6175 952.7 L84.6175 926.335 L76.3074 928.001 L76.3074 923.742 L84.5712 922.076 L89.2471 922.076 L89.2471 952.7 L96.886 952.7 L96.886 956.636 L76.9787 956.636 L76.9787 952.7 Z" fill="#000000" fill-rule="evenodd" fill-opacity="1" /><path clip-path="url(#clip700)" d="M116.33 925.154 Q112.719 925.154 110.891 928.719 Q109.085 932.261 109.085 939.39 Q109.085 946.497 110.891 950.062 Q112.719 953.603 116.33 953.603 Q119.965 953.603 121.77 950.062 Q123.599 946.497 123.599 939.39 Q123.599 932.261 121.77 928.719 Q119.965 925.154 116.33 925.154 M116.33 921.451 Q122.14 921.451 125.196 926.057 Q128.275 930.64 128.275 939.39 Q128.275 948.117 125.196 952.724 Q122.14 957.307 116.33 957.307 Q110.52 957.307 107.441 952.724 Q104.386 948.117 104.386 939.39 Q104.386 930.64 107.441 926.057 Q110.52 921.451 116.33 921.451 Z" fill="#000000" fill-rule="evenodd" fill-opacity="1" /><path clip-path="url(#clip700)" d="M128.275 915.552 L152.386 915.552 L152.386 918.749 L128.275 918.749 L128.275 915.552 Z" fill="#000000" fill-rule="evenodd" fill-opacity="1" /><path clip-path="url(#clip700)" d="M160.624 901.145 L175.539 901.145 L175.539 904.342 L164.103 904.342 L164.103 911.226 Q164.931 910.944 165.759 910.812 Q166.586 910.662 167.414 910.662 Q172.116 910.662 174.862 913.239 Q177.607 915.815 177.607 920.216 Q177.607 924.749 174.786 927.269 Q171.965 929.771 166.831 929.771 Q165.063 929.771 163.22 929.47 Q161.395 929.169 159.439 928.567 L159.439 924.749 Q161.132 925.67 162.937 926.122 Q164.743 926.573 166.755 926.573 Q170.009 926.573 171.909 924.862 Q173.808 923.15 173.808 920.216 Q173.808 917.282 171.909 915.571 Q170.009 913.859 166.755 913.859 Q165.232 913.859 163.709 914.198 Q162.204 914.536 160.624 915.251 L160.624 901.145 Z" fill="#000000" fill-rule="evenodd" fill-opacity="1" /><path clip-path="url(#clip700)" d="M106.902 399.16 L114.541 399.16 L114.541 372.795 L106.231 374.462 L106.231 370.202 L114.494 368.536 L119.17 368.536 L119.17 399.16 L126.809 399.16 L126.809 403.096 L106.902 403.096 L106.902 399.16 Z" fill="#000000" fill-rule="evenodd" fill-opacity="1" /><path clip-path="url(#clip700)" d="M146.253 371.614 Q142.642 371.614 140.814 375.179 Q139.008 378.721 139.008 385.85 Q139.008 392.957 140.814 396.522 Q142.642 400.063 146.253 400.063 Q149.888 400.063 151.693 396.522 Q153.522 392.957 153.522 385.85 Q153.522 378.721 151.693 375.179 Q149.888 371.614 146.253 371.614 M146.253 367.911 Q152.064 367.911 155.119 372.517 Q158.198 377.1 158.198 385.85 Q158.198 394.577 155.119 399.184 Q152.064 403.767 146.253 403.767 Q140.443 403.767 137.365 399.184 Q134.309 394.577 134.309 385.85 Q134.309 377.1 137.365 372.517 Q140.443 367.911 146.253 367.911 Z" fill="#000000" fill-rule="evenodd" fill-opacity="1" /><path clip-path="url(#clip700)" d="M167.903 350.107 Q164.969 350.107 163.483 353.003 Q162.016 355.881 162.016 361.673 Q162.016 367.447 163.483 370.344 Q164.969 373.221 167.903 373.221 Q170.855 373.221 172.322 370.344 Q173.808 367.447 173.808 361.673 Q173.808 355.881 172.322 353.003 Q170.855 350.107 167.903 350.107 M167.903 347.097 Q172.623 347.097 175.106 350.84 Q177.607 354.564 177.607 361.673 Q177.607 368.764 175.106 372.507 Q172.623 376.231 167.903 376.231 Q163.182 376.231 160.68 372.507 Q158.198 368.764 158.198 361.673 Q158.198 354.564 160.68 350.84 Q163.182 347.097 167.903 347.097 Z" fill="#000000" fill-rule="evenodd" fill-opacity="1" /><polyline clip-path="url(#clip702)" style="stroke:#009af9; stroke-linecap:butt; stroke-linejoin:round; stroke-width:4; stroke-opacity:1; fill:none" points="
  274.149,227.658 380.363,267.452 486.577,288.271 592.791,303.324 699.005,322.307 805.219,339.14 911.433,354.433 1017.65,368.563 1123.86,381.829 1230.07,394.46 
  1336.29,406.627 1442.5,418.451 1548.72,430.023 1654.93,441.404 1761.14,452.641 1867.36,463.767 1973.57,474.809 2079.79,485.785 2186,496.709 2292.21,507.593 
  
  "/>
<circle clip-path="url(#clip702)" cx="274.149" cy="227.658" r="14" fill="#009af9" fill-rule="evenodd" fill-opacity="1" stroke="#000000" stroke-opacity="1" stroke-width="3.2"/>
<circle clip-path="url(#clip702)" cx="380.363" cy="267.452" r="14" fill="#009af9" fill-rule="evenodd" fill-opacity="1" stroke="#000000" stroke-opacity="1" stroke-width="3.2"/>
<circle clip-path="url(#clip702)" cx="486.577" cy="288.271" r="14" fill="#009af9" fill-rule="evenodd" fill-opacity="1" stroke="#000000" stroke-opacity="1" stroke-width="3.2"/>
<circle clip-path="url(#clip702)" cx="592.791" cy="303.324" r="14" fill="#009af9" fill-rule="evenodd" fill-opacity="1" stroke="#000000" stroke-opacity="1" stroke-width="3.2"/>
<circle clip-path="url(#clip702)" cx="699.005" cy="322.307" r="14" fill="#009af9" fill-rule="evenodd" fill-opacity="1" stroke="#000000" stroke-opacity="1" stroke-width="3.2"/>
<circle clip-path="url(#clip702)" cx="805.219" cy="339.14" r="14" fill="#009af9" fill-rule="evenodd" fill-opacity="1" stroke="#000000" stroke-opacity="1" stroke-width="3.2"/>
<circle clip-path="url(#clip702)" cx="911.433" cy="354.433" r="14" fill="#009af9" fill-rule="evenodd" fill-opacity="1" stroke="#000000" stroke-opacity="1" stroke-width="3.2"/>
<circle clip-path="url(#clip702)" cx="1017.65" cy="368.563" r="14" fill="#009af9" fill-rule="evenodd" fill-opacity="1" stroke="#000000" stroke-opacity="1" stroke-width="3.2"/>
<circle clip-path="url(#clip702)" cx="1123.86" cy="381.829" r="14" fill="#009af9" fill-rule="evenodd" fill-opacity="1" stroke="#000000" stroke-opacity="1" stroke-width="3.2"/>
<circle clip-path="url(#clip702)" cx="1230.07" cy="394.46" r="14" fill="#009af9" fill-rule="evenodd" fill-opacity="1" stroke="#000000" stroke-opacity="1" stroke-width="3.2"/>
<circle clip-path="url(#clip702)" cx="1336.29" cy="406.627" r="14" fill="#009af9" fill-rule="evenodd" fill-opacity="1" stroke="#000000" stroke-opacity="1" stroke-width="3.2"/>
<circle clip-path="url(#clip702)" cx="1442.5" cy="418.451" r="14" fill="#009af9" fill-rule="evenodd" fill-opacity="1" stroke="#000000" stroke-opacity="1" stroke-width="3.2"/>
<circle clip-path="url(#clip702)" cx="1548.72" cy="430.023" r="14" fill="#009af9" fill-rule="evenodd" fill-opacity="1" stroke="#000000" stroke-opacity="1" stroke-width="3.2"/>
<circle clip-path="url(#clip702)" cx="1654.93" cy="441.404" r="14" fill="#009af9" fill-rule="evenodd" fill-opacity="1" stroke="#000000" stroke-opacity="1" stroke-width="3.2"/>
<circle clip-path="url(#clip702)" cx="1761.14" cy="452.641" r="14" fill="#009af9" fill-rule="evenodd" fill-opacity="1" stroke="#000000" stroke-opacity="1" stroke-width="3.2"/>
<circle clip-path="url(#clip702)" cx="1867.36" cy="463.767" r="14" fill="#009af9" fill-rule="evenodd" fill-opacity="1" stroke="#000000" stroke-opacity="1" stroke-width="3.2"/>
<circle clip-path="url(#clip702)" cx="1973.57" cy="474.809" r="14" fill="#009af9" fill-rule="evenodd" fill-opacity="1" stroke="#000000" stroke-opacity="1" stroke-width="3.2"/>
<circle clip-path="url(#clip702)" cx="2079.79" cy="485.785" r="14" fill="#009af9" fill-rule="evenodd" fill-opacity="1" stroke="#000000" stroke-opacity="1" stroke-width="3.2"/>
<circle clip-path="url(#clip702)" cx="2186" cy="496.709" r="14" fill="#009af9" fill-rule="evenodd" fill-opacity="1" stroke="#000000" stroke-opacity="1" stroke-width="3.2"/>
<circle clip-path="url(#clip702)" cx="2292.21" cy="507.593" r="14" fill="#009af9" fill-rule="evenodd" fill-opacity="1" stroke="#000000" stroke-opacity="1" stroke-width="3.2"/>
<path clip-path="url(#clip700)" d="
M1991.34 198.898 L2281.45 198.898 L2281.45 95.2176 L1991.34 95.2176  Z
  " fill="#ffffff" fill-rule="evenodd" fill-opacity="1"/>
<polyline clip-path="url(#clip700)" style="stroke:#000000; stroke-linecap:butt; stroke-linejoin:round; stroke-width:4; stroke-opacity:1; fill:none" points="
  1991.34,198.898 2281.45,198.898 2281.45,95.2176 1991.34,95.2176 1991.34,198.898 
  "/>
<polyline clip-path="url(#clip700)" style="stroke:#009af9; stroke-linecap:butt; stroke-linejoin:round; stroke-width:4; stroke-opacity:1; fill:none" points="
  2015.11,147.058 2157.72,147.058 
  "/>
<circle clip-path="url(#clip700)" cx="2086.41" cy="147.058" r="23" fill="#009af9" fill-rule="evenodd" fill-opacity="1" stroke="#000000" stroke-opacity="1" stroke-width="5.12"/>
<path clip-path="url(#clip700)" d="M2195.33 166.745 Q2193.52 171.375 2191.81 172.787 Q2190.1 174.199 2187.22 174.199 L2183.82 174.199 L2183.82 170.634 L2186.32 170.634 Q2188.08 170.634 2189.05 169.8 Q2190.03 168.967 2191.21 165.865 L2191.97 163.921 L2181.48 138.412 L2186 138.412 L2194.1 158.689 L2202.2 138.412 L2206.72 138.412 L2195.33 166.745 Z" fill="#000000" fill-rule="evenodd" fill-opacity="1" /><path clip-path="url(#clip700)" d="M2214.01 160.402 L2221.65 160.402 L2221.65 134.037 L2213.34 135.703 L2213.34 131.444 L2221.6 129.778 L2226.28 129.778 L2226.28 160.402 L2233.91 160.402 L2233.91 164.338 L2214.01 164.338 L2214.01 160.402 Z" fill="#000000" fill-rule="evenodd" fill-opacity="1" /></svg>
