<?xml version="1.0" encoding="utf-8"?>
<svg xmlns="http://www.w3.org/2000/svg" xmlns:xlink="http://www.w3.org/1999/xlink" width="600" height="400" viewBox="0 0 2400 1600">
<defs>
  <clipPath id="clip160">
    <rect x="0" y="0" width="2400" height="1600"/>
  </clipPath>
</defs>
<path clip-path="url(#clip160)" d="
M0 1600 L2400 1600 L2400 0 L0 0  Z
  " fill="#ffffff" fill-rule="evenodd" fill-opacity="1"/>
<defs>
  <clipPath id="clip161">
    <rect x="480" y="0" width="1681" height="1600"/>
  </clipPath>
</defs>
<path clip-path="url(#clip160)" d="
M193.936 1486.45 L2352.76 1486.45 L2352.76 47.2441 L193.936 47.2441  Z
  " fill="#ffffff" fill-rule="evenodd" fill-opacity="1"/>
<defs>
  <clipPath id="clip162">
    <rect x="193" y="47" width="2160" height="1440"/>
  </clipPath>
</defs>
<polyline clip-path="url(#clip162)" style="stroke:#000000; stroke-linecap:butt; stroke-linejoin:round; stroke-width:2; stroke-opacity:0.1; fill:none" points="
  255.035,1486.45 255.035,47.2441 
  "/>
<polyline clip-path="url(#clip162)" style="stroke:#000000; stroke-linecap:butt; stroke-linejoin:round; stroke-width:2; stroke-opacity:0.1; fill:none" points="
  764.19,1486.45 764.19,47.2441 
  "/>
<polyline clip-path="url(#clip162)" style="stroke:#000000; stroke-linecap:butt; stroke-linejoin:round; stroke-width:2; stroke-opacity:0.1; fill:none" points="
  1273.35,1486.45 1273.35,47.2441 
  "/>
<polyline clip-path="url(#clip162)" style="stroke:#000000; stroke-linecap:butt; stroke-linejoin:round; stroke-width:2; stroke-opacity:0.1; fill:none" points="
  1782.5,1486.45 1782.5,47.2441 
  "/>
<polyline clip-path="url(#clip162)" style="stroke:#000000; stroke-linecap:butt; stroke-linejoin:round; stroke-width:2; stroke-opacity:0.1; fill:none" points="
  2291.66,1486.45 2291.66,47.2441 
  "/>
<polyline clip-path="url(#clip160)" style="stroke:#000000; stroke-linecap:butt; stroke-linejoin:round; stroke-width:4; stroke-opacity:1; fill:none" points="
  193.936,1486.45 2352.76,1486.45 
  "/>
<polyline clip-path="url(#clip160)" style="stroke:#000000; stroke-linecap:butt; stroke-linejoin:round; stroke-width:4; stroke-opacity:1; fill:none" points="
  255.035,1486.45 255.035,1467.55 
  "/>
<polyline clip-path="url(#clip160)" style="stroke:#000000; stroke-linecap:butt; stroke-linejoin:round; stroke-width:4; stroke-opacity:1; fill:none" points="
  764.19,1486.45 764.19,1467.55 
  "/>
<polyline clip-path="url(#clip160)" style="stroke:#000000; stroke-linecap:butt; stroke-linejoin:round; stroke-width:4; stroke-opacity:1; fill:none" points="
  1273.35,1486.45 1273.35,1467.55 
  "/>
<polyline clip-path="url(#clip160)" style="stroke:#000000; stroke-linecap:butt; stroke-linejoin:round; stroke-width:4; stroke-opacity:1; fill:none" points="
  1782.5,1486.45 1782.5,1467.55 
  "/>
<polyline clip-path="url(#clip160)" style="stroke:#000000; stroke-linecap:butt; stroke-linejoin:round; stroke-width:4; stroke-opacity:1; fill:none" points="
  2291.66,1486.45 2291.66,1467.55 
  "/>
<path clip-path="url(#clip160)" d="M232.419 1515.64 Q228.808 1515.64 226.979 1519.2 Q225.174 1522.75 225.174 1529.87 Q225.174 1536.98 226.979 1540.55 Q228.808 1544.09 232.419 1544.09 Q236.053 1544.09 237.859 1540.55 Q239.688 1536.98 239.688 1529.87 Q239.688 1522.75 237.859 1519.2 Q236.053 1515.64 232.419 1515.64 M232.419 1511.93 Q238.229 1511.93 241.285 1516.54 Q244.363 1521.12 244.363 1529.87 Q244.363 1538.6 241.285 1543.21 Q238.229 1547.79 232.419 1547.79 Q226.609 1547.79 223.53 1543.21 Q220.475 1538.6 220.475 1529.87 Q220.475 1521.12 223.53 1516.54 Q226.609 1511.93 232.419 1511.93 Z" fill="#000000" fill-rule="evenodd" fill-opacity="1" /><path clip-path="url(#clip160)" d="M252.581 1541.24 L257.465 1541.24 L257.465 1547.12 L252.581 1547.12 L252.581 1541.24 Z" fill="#000000" fill-rule="evenodd" fill-opacity="1" /><path clip-path="url(#clip160)" d="M277.65 1515.64 Q274.039 1515.64 272.211 1519.2 Q270.405 1522.75 270.405 1529.87 Q270.405 1536.98 272.211 1540.55 Q274.039 1544.09 277.65 1544.09 Q281.285 1544.09 283.09 1540.55 Q284.919 1536.98 284.919 1529.87 Q284.919 1522.75 283.09 1519.2 Q281.285 1515.64 277.65 1515.64 M277.65 1511.93 Q283.46 1511.93 286.516 1516.54 Q289.595 1521.12 289.595 1529.87 Q289.595 1538.6 286.516 1543.21 Q283.46 1547.79 277.65 1547.79 Q271.84 1547.79 268.761 1543.21 Q265.706 1538.6 265.706 1529.87 Q265.706 1521.12 268.761 1516.54 Q271.84 1511.93 277.65 1511.93 Z" fill="#000000" fill-rule="evenodd" fill-opacity="1" /><path clip-path="url(#clip160)" d="M735.927 1543.18 L752.246 1543.18 L752.246 1547.12 L730.302 1547.12 L730.302 1543.18 Q732.964 1540.43 737.547 1535.8 Q742.153 1531.15 743.334 1529.81 Q745.579 1527.28 746.459 1525.55 Q747.362 1523.79 747.362 1522.1 Q747.362 1519.34 745.417 1517.61 Q743.496 1515.87 740.394 1515.87 Q738.195 1515.87 735.741 1516.63 Q733.311 1517.4 730.533 1518.95 L730.533 1514.23 Q733.357 1513.09 735.811 1512.51 Q738.265 1511.93 740.302 1511.93 Q745.672 1511.93 748.866 1514.62 Q752.061 1517.31 752.061 1521.8 Q752.061 1523.93 751.251 1525.85 Q750.464 1527.74 748.357 1530.34 Q747.778 1531.01 744.677 1534.23 Q741.575 1537.42 735.927 1543.18 Z" fill="#000000" fill-rule="evenodd" fill-opacity="1" /><path clip-path="url(#clip160)" d="M762.061 1541.24 L766.945 1541.24 L766.945 1547.12 L762.061 1547.12 L762.061 1541.24 Z" fill="#000000" fill-rule="evenodd" fill-opacity="1" /><path clip-path="url(#clip160)" d="M777.176 1512.56 L795.533 1512.56 L795.533 1516.5 L781.459 1516.5 L781.459 1524.97 Q782.477 1524.62 783.496 1524.46 Q784.514 1524.27 785.533 1524.27 Q791.32 1524.27 794.699 1527.44 Q798.079 1530.62 798.079 1536.03 Q798.079 1541.61 794.607 1544.71 Q791.135 1547.79 784.815 1547.79 Q782.639 1547.79 780.371 1547.42 Q778.125 1547.05 775.718 1546.31 L775.718 1541.61 Q777.801 1542.74 780.024 1543.3 Q782.246 1543.86 784.723 1543.86 Q788.727 1543.86 791.065 1541.75 Q793.403 1539.64 793.403 1536.03 Q793.403 1532.42 791.065 1530.31 Q788.727 1528.21 784.723 1528.21 Q782.848 1528.21 780.973 1528.62 Q779.121 1529.04 777.176 1529.92 L777.176 1512.56 Z" fill="#000000" fill-rule="evenodd" fill-opacity="1" /><path clip-path="url(#clip160)" d="M1240.51 1512.56 L1258.87 1512.56 L1258.87 1516.5 L1244.79 1516.5 L1244.79 1524.97 Q1245.81 1524.62 1246.83 1524.46 Q1247.85 1524.27 1248.87 1524.27 Q1254.65 1524.27 1258.03 1527.44 Q1261.41 1530.62 1261.41 1536.03 Q1261.41 1541.61 1257.94 1544.71 Q1254.47 1547.79 1248.15 1547.79 Q1245.97 1547.79 1243.7 1547.42 Q1241.46 1547.05 1239.05 1546.31 L1239.05 1541.61 Q1241.14 1542.74 1243.36 1543.3 Q1245.58 1543.86 1248.06 1543.86 Q1252.06 1543.86 1254.4 1541.75 Q1256.74 1539.64 1256.74 1536.03 Q1256.74 1532.42 1254.4 1530.31 Q1252.06 1528.21 1248.06 1528.21 Q1246.18 1528.21 1244.31 1528.62 Q1242.45 1529.04 1240.51 1529.92 L1240.51 1512.56 Z" fill="#000000" fill-rule="evenodd" fill-opacity="1" /><path clip-path="url(#clip160)" d="M1270.63 1541.24 L1275.51 1541.24 L1275.51 1547.12 L1270.63 1547.12 L1270.63 1541.24 Z" fill="#000000" fill-rule="evenodd" fill-opacity="1" /><path clip-path="url(#clip160)" d="M1295.7 1515.64 Q1292.08 1515.64 1290.26 1519.2 Q1288.45 1522.75 1288.45 1529.87 Q1288.45 1536.98 1290.26 1540.55 Q1292.08 1544.09 1295.7 1544.09 Q1299.33 1544.09 1301.14 1540.55 Q1302.96 1536.98 1302.96 1529.87 Q1302.96 1522.75 1301.14 1519.2 Q1299.33 1515.64 1295.7 1515.64 M1295.7 1511.93 Q1301.51 1511.93 1304.56 1516.54 Q1307.64 1521.12 1307.64 1529.87 Q1307.64 1538.6 1304.56 1543.21 Q1301.51 1547.79 1295.7 1547.79 Q1289.89 1547.79 1286.81 1543.21 Q1283.75 1538.6 1283.75 1529.87 Q1283.75 1521.12 1286.81 1516.54 Q1289.89 1511.93 1295.7 1511.93 Z" fill="#000000" fill-rule="evenodd" fill-opacity="1" /><path clip-path="url(#clip160)" d="M1748.82 1512.56 L1771.04 1512.56 L1771.04 1514.55 L1758.5 1547.12 L1753.61 1547.12 L1765.42 1516.5 L1748.82 1516.5 L1748.82 1512.56 Z" fill="#000000" fill-rule="evenodd" fill-opacity="1" /><path clip-path="url(#clip160)" d="M1780.16 1541.24 L1785.05 1541.24 L1785.05 1547.12 L1780.16 1547.12 L1780.16 1541.24 Z" fill="#000000" fill-rule="evenodd" fill-opacity="1" /><path clip-path="url(#clip160)" d="M1795.28 1512.56 L1813.64 1512.56 L1813.64 1516.5 L1799.56 1516.5 L1799.56 1524.97 Q1800.58 1524.62 1801.6 1524.46 Q1802.62 1524.27 1803.64 1524.27 Q1809.42 1524.27 1812.8 1527.44 Q1816.18 1530.62 1816.18 1536.03 Q1816.18 1541.61 1812.71 1544.71 Q1809.24 1547.79 1802.92 1547.79 Q1800.74 1547.79 1798.47 1547.42 Q1796.23 1547.05 1793.82 1546.31 L1793.82 1541.61 Q1795.9 1542.74 1798.13 1543.3 Q1800.35 1543.86 1802.83 1543.86 Q1806.83 1543.86 1809.17 1541.75 Q1811.51 1539.64 1811.51 1536.03 Q1811.51 1532.42 1809.17 1530.31 Q1806.83 1528.21 1802.83 1528.21 Q1800.95 1528.21 1799.08 1528.62 Q1797.22 1529.04 1795.28 1529.92 L1795.28 1512.56 Z" fill="#000000" fill-rule="evenodd" fill-opacity="1" /><path clip-path="url(#clip160)" d="M2243.73 1543.18 L2251.37 1543.18 L2251.37 1516.82 L2243.06 1518.49 L2243.06 1514.23 L2251.32 1512.56 L2256 1512.56 L2256 1543.18 L2263.64 1543.18 L2263.64 1547.12 L2243.73 1547.12 L2243.73 1543.18 Z" fill="#000000" fill-rule="evenodd" fill-opacity="1" /><path clip-path="url(#clip160)" d="M2283.08 1515.64 Q2279.47 1515.64 2277.64 1519.2 Q2275.84 1522.75 2275.84 1529.87 Q2275.84 1536.98 2277.64 1540.55 Q2279.47 1544.09 2283.08 1544.09 Q2286.72 1544.09 2288.52 1540.55 Q2290.35 1536.98 2290.35 1529.87 Q2290.35 1522.75 2288.52 1519.2 Q2286.72 1515.64 2283.08 1515.64 M2283.08 1511.93 Q2288.89 1511.93 2291.95 1516.54 Q2295.03 1521.12 2295.03 1529.87 Q2295.03 1538.6 2291.95 1543.21 Q2288.89 1547.79 2283.08 1547.79 Q2277.27 1547.79 2274.19 1543.21 Q2271.14 1538.6 2271.14 1529.87 Q2271.14 1521.12 2274.19 1516.54 Q2277.27 1511.93 2283.08 1511.93 Z" fill="#000000" fill-rule="evenodd" fill-opacity="1" /><path clip-path="url(#clip160)" d="M2303.24 1541.24 L2308.13 1541.24 L2308.13 1547.12 L2303.24 1547.12 L2303.24 1541.24 Z" fill="#000000" fill-rule="evenodd" fill-opacity="1" /><path clip-path="url(#clip160)" d="M2328.31 1515.64 Q2324.7 1515.64 2322.87 1519.2 Q2321.07 1522.75 2321.07 1529.87 Q2321.07 1536.98 2322.87 1540.55 Q2324.7 1544.09 2328.31 1544.09 Q2331.95 1544.09 2333.75 1540.55 Q2335.58 1536.98 2335.58 1529.87 Q2335.58 1522.75 2333.75 1519.2 Q2331.95 1515.64 2328.31 1515.64 M2328.31 1511.93 Q2334.12 1511.93 2337.18 1516.54 Q2340.26 1521.12 2340.26 1529.87 Q2340.26 1538.6 2337.18 1543.21 Q2334.12 1547.79 2328.31 1547.79 Q2322.5 1547.79 2319.42 1543.21 Q2316.37 1538.6 2316.37 1529.87 Q2316.37 1521.12 2319.42 1516.54 Q2322.5 1511.93 2328.31 1511.93 Z" fill="#000000" fill-rule="evenodd" fill-opacity="1" /><polyline clip-path="url(#clip162)" style="stroke:#000000; stroke-linecap:butt; stroke-linejoin:round; stroke-width:2; stroke-opacity:0.1; fill:none" points="
  193.936,1436.71 2352.76,1436.71 
  "/>
<polyline clip-path="url(#clip162)" style="stroke:#000000; stroke-linecap:butt; stroke-linejoin:round; stroke-width:2; stroke-opacity:0.1; fill:none" points="
  193.936,1211.92 2352.76,1211.92 
  "/>
<polyline clip-path="url(#clip162)" style="stroke:#000000; stroke-linecap:butt; stroke-linejoin:round; stroke-width:2; stroke-opacity:0.1; fill:none" points="
  193.936,987.134 2352.76,987.134 
  "/>
<polyline clip-path="url(#clip162)" style="stroke:#000000; stroke-linecap:butt; stroke-linejoin:round; stroke-width:2; stroke-opacity:0.1; fill:none" points="
  193.936,762.344 2352.76,762.344 
  "/>
<polyline clip-path="url(#clip162)" style="stroke:#000000; stroke-linecap:butt; stroke-linejoin:round; stroke-width:2; stroke-opacity:0.1; fill:none" points="
  193.936,537.555 2352.76,537.555 
  "/>
<polyline clip-path="url(#clip162)" style="stroke:#000000; stroke-linecap:butt; stroke-linejoin:round; stroke-width:2; stroke-opacity:0.1; fill:none" points="
  193.936,312.766 2352.76,312.766 
  "/>
<polyline clip-path="url(#clip162)" style="stroke:#000000; stroke-linecap:butt; stroke-linejoin:round; stroke-width:2; stroke-opacity:0.1; fill:none" points="
  193.936,87.9763 2352.76,87.9763 
  "/>
<polyline clip-path="url(#clip160)" style="stroke:#000000; stroke-linecap:butt; stroke-linejoin:round; stroke-width:4; stroke-opacity:1; fill:none" points="
  193.936,1486.45 193.936,47.2441 
  "/>
<polyline clip-path="url(#clip160)" style="stroke:#000000; stroke-linecap:butt; stroke-linejoin:round; stroke-width:4; stroke-opacity:1; fill:none" points="
  193.936,1436.71 212.834,1436.71 
  "/>
<polyline clip-path="url(#clip160)" style="stroke:#000000; stroke-linecap:butt; stroke-linejoin:round; stroke-width:4; stroke-opacity:1; fill:none" points="
  193.936,1211.92 212.834,1211.92 
  "/>
<polyline clip-path="url(#clip160)" style="stroke:#000000; stroke-linecap:butt; stroke-linejoin:round; stroke-width:4; stroke-opacity:1; fill:none" points="
  193.936,987.134 212.834,987.134 
  "/>
<polyline clip-path="url(#clip160)" style="stroke:#000000; stroke-linecap:butt; stroke-linejoin:round; stroke-width:4; stroke-opacity:1; fill:none" points="
  193.936,762.344 212.834,762.344 
  "/>
<polyline clip-path="url(#clip160)" style="stroke:#000000; stroke-linecap:butt; stroke-linejoin:round; stroke-width:4; stroke-opacity:1; fill:none" points="
  193.936,537.555 212.834,537.555 
  "/>
<polyline clip-path="url(#clip160)" style="stroke:#000000; stroke-linecap:butt; stroke-linejoin:round; stroke-width:4; stroke-opacity:1; fill:none" points="
  193.936,312.766 212.834,312.766 
  "/>
<polyline clip-path="url(#clip160)" style="stroke:#000000; stroke-linecap:butt; stroke-linejoin:round; stroke-width:4; stroke-opacity:1; fill:none" points="
  193.936,87.9763 212.834,87.9763 
  "/>
<path clip-path="url(#clip160)" d="M51.9875 1437.16 L81.6633 1437.16 L81.6633 1441.1 L51.9875 1441.1 L51.9875 1437.16 Z" fill="#000000" fill-rule="evenodd" fill-opacity="1" /><path clip-path="url(#clip160)" d="M92.566 1450.06 L100.205 1450.06 L100.205 1423.69 L91.8947 1425.36 L91.8947 1421.1 L100.159 1419.43 L104.834 1419.43 L104.834 1450.06 L112.473 1450.06 L112.473 1453.99 L92.566 1453.99 L92.566 1450.06 Z" fill="#000000" fill-rule="evenodd" fill-opacity="1" /><path clip-path="url(#clip160)" d="M121.918 1448.11 L126.802 1448.11 L126.802 1453.99 L121.918 1453.99 L121.918 1448.11 Z" fill="#000000" fill-rule="evenodd" fill-opacity="1" /><path clip-path="url(#clip160)" d="M137.033 1419.43 L155.39 1419.43 L155.39 1423.37 L141.316 1423.37 L141.316 1431.84 Q142.334 1431.49 143.353 1431.33 Q144.371 1431.15 145.39 1431.15 Q151.177 1431.15 154.556 1434.32 Q157.936 1437.49 157.936 1442.9 Q157.936 1448.48 154.464 1451.59 Q150.992 1454.66 144.672 1454.66 Q142.496 1454.66 140.228 1454.29 Q137.982 1453.92 135.575 1453.18 L135.575 1448.48 Q137.658 1449.62 139.881 1450.17 Q142.103 1450.73 144.58 1450.73 Q148.584 1450.73 150.922 1448.62 Q153.26 1446.52 153.26 1442.9 Q153.26 1439.29 150.922 1437.19 Q148.584 1435.08 144.58 1435.08 Q142.705 1435.08 140.83 1435.5 Q138.978 1435.91 137.033 1436.79 L137.033 1419.43 Z" fill="#000000" fill-rule="evenodd" fill-opacity="1" /><path clip-path="url(#clip160)" d="M50.9921 1212.37 L80.6679 1212.37 L80.6679 1216.31 L50.9921 1216.31 L50.9921 1212.37 Z" fill="#000000" fill-rule="evenodd" fill-opacity="1" /><path clip-path="url(#clip160)" d="M91.5706 1225.27 L99.2095 1225.27 L99.2095 1198.9 L90.8993 1200.57 L90.8993 1196.31 L99.1632 1194.64 L103.839 1194.64 L103.839 1225.27 L111.478 1225.27 L111.478 1229.2 L91.5706 1229.2 L91.5706 1225.27 Z" fill="#000000" fill-rule="evenodd" fill-opacity="1" /><path clip-path="url(#clip160)" d="M120.922 1223.32 L125.807 1223.32 L125.807 1229.2 L120.922 1229.2 L120.922 1223.32 Z" fill="#000000" fill-rule="evenodd" fill-opacity="1" /><path clip-path="url(#clip160)" d="M145.992 1197.72 Q142.381 1197.72 140.552 1201.29 Q138.746 1204.83 138.746 1211.96 Q138.746 1219.06 140.552 1222.63 Q142.381 1226.17 145.992 1226.17 Q149.626 1226.17 151.431 1222.63 Q153.26 1219.06 153.26 1211.96 Q153.26 1204.83 151.431 1201.29 Q149.626 1197.72 145.992 1197.72 M145.992 1194.02 Q151.802 1194.02 154.857 1198.62 Q157.936 1203.21 157.936 1211.96 Q157.936 1220.68 154.857 1225.29 Q151.802 1229.87 145.992 1229.87 Q140.181 1229.87 137.103 1225.29 Q134.047 1220.68 134.047 1211.96 Q134.047 1203.21 137.103 1198.62 Q140.181 1194.02 145.992 1194.02 Z" fill="#000000" fill-rule="evenodd" fill-opacity="1" /><path clip-path="url(#clip160)" d="M51.9875 987.585 L81.6633 987.585 L81.6633 991.52 L51.9875 991.52 L51.9875 987.585 Z" fill="#000000" fill-rule="evenodd" fill-opacity="1" /><path clip-path="url(#clip160)" d="M101.756 972.933 Q98.1447 972.933 96.316 976.497 Q94.5104 980.039 94.5104 987.169 Q94.5104 994.275 96.316 997.84 Q98.1447 1001.38 101.756 1001.38 Q105.39 1001.38 107.196 997.84 Q109.024 994.275 109.024 987.169 Q109.024 980.039 107.196 976.497 Q105.39 972.933 101.756 972.933 M101.756 969.229 Q107.566 969.229 110.621 973.835 Q113.7 978.419 113.7 987.169 Q113.7 995.895 110.621 1000.5 Q107.566 1005.09 101.756 1005.09 Q95.9456 1005.09 92.8669 1000.5 Q89.8114 995.895 89.8114 987.169 Q89.8114 978.419 92.8669 973.835 Q95.9456 969.229 101.756 969.229 Z" fill="#000000" fill-rule="evenodd" fill-opacity="1" /><path clip-path="url(#clip160)" d="M121.918 998.534 L126.802 998.534 L126.802 1004.41 L121.918 1004.41 L121.918 998.534 Z" fill="#000000" fill-rule="evenodd" fill-opacity="1" /><path clip-path="url(#clip160)" d="M137.033 969.854 L155.39 969.854 L155.39 973.789 L141.316 973.789 L141.316 982.261 Q142.334 981.914 143.353 981.752 Q144.371 981.567 145.39 981.567 Q151.177 981.567 154.556 984.738 Q157.936 987.909 157.936 993.326 Q157.936 998.905 154.464 1002.01 Q150.992 1005.09 144.672 1005.09 Q142.496 1005.09 140.228 1004.71 Q137.982 1004.34 135.575 1003.6 L135.575 998.905 Q137.658 1000.04 139.881 1000.59 Q142.103 1001.15 144.58 1001.15 Q148.584 1001.15 150.922 999.043 Q153.26 996.937 153.26 993.326 Q153.26 989.715 150.922 987.608 Q148.584 985.502 144.58 985.502 Q142.705 985.502 140.83 985.919 Q138.978 986.335 137.033 987.215 L137.033 969.854 Z" fill="#000000" fill-rule="evenodd" fill-opacity="1" /><path clip-path="url(#clip160)" d="M100.76 748.143 Q97.1493 748.143 95.3206 751.708 Q93.515 755.25 93.515 762.379 Q93.515 769.486 95.3206 773.05 Q97.1493 776.592 100.76 776.592 Q104.395 776.592 106.2 773.05 Q108.029 769.486 108.029 762.379 Q108.029 755.25 106.2 751.708 Q104.395 748.143 100.76 748.143 M100.76 744.439 Q106.571 744.439 109.626 749.046 Q112.705 753.629 112.705 762.379 Q112.705 771.106 109.626 775.712 Q106.571 780.296 100.76 780.296 Q94.9502 780.296 91.8715 775.712 Q88.816 771.106 88.816 762.379 Q88.816 753.629 91.8715 749.046 Q94.9502 744.439 100.76 744.439 Z" fill="#000000" fill-rule="evenodd" fill-opacity="1" /><path clip-path="url(#clip160)" d="M120.922 773.745 L125.807 773.745 L125.807 779.624 L120.922 779.624 L120.922 773.745 Z" fill="#000000" fill-rule="evenodd" fill-opacity="1" /><path clip-path="url(#clip160)" d="M145.992 748.143 Q142.381 748.143 140.552 751.708 Q138.746 755.25 138.746 762.379 Q138.746 769.486 140.552 773.05 Q142.381 776.592 145.992 776.592 Q149.626 776.592 151.431 773.05 Q153.26 769.486 153.26 762.379 Q153.26 755.25 151.431 751.708 Q149.626 748.143 145.992 748.143 M145.992 744.439 Q151.802 744.439 154.857 749.046 Q157.936 753.629 157.936 762.379 Q157.936 771.106 154.857 775.712 Q151.802 780.296 145.992 780.296 Q140.181 780.296 137.103 775.712 Q134.047 771.106 134.047 762.379 Q134.047 753.629 137.103 749.046 Q140.181 744.439 145.992 744.439 Z" fill="#000000" fill-rule="evenodd" fill-opacity="1" /><path clip-path="url(#clip160)" d="M101.756 523.354 Q98.1447 523.354 96.316 526.919 Q94.5104 530.46 94.5104 537.59 Q94.5104 544.696 96.316 548.261 Q98.1447 551.803 101.756 551.803 Q105.39 551.803 107.196 548.261 Q109.024 544.696 109.024 537.59 Q109.024 530.46 107.196 526.919 Q105.39 523.354 101.756 523.354 M101.756 519.65 Q107.566 519.65 110.621 524.257 Q113.7 528.84 113.7 537.59 Q113.7 546.317 110.621 550.923 Q107.566 555.506 101.756 555.506 Q95.9456 555.506 92.8669 550.923 Q89.8114 546.317 89.8114 537.59 Q89.8114 528.84 92.8669 524.257 Q95.9456 519.65 101.756 519.65 Z" fill="#000000" fill-rule="evenodd" fill-opacity="1" /><path clip-path="url(#clip160)" d="M121.918 548.955 L126.802 548.955 L126.802 554.835 L121.918 554.835 L121.918 548.955 Z" fill="#000000" fill-rule="evenodd" fill-opacity="1" /><path clip-path="url(#clip160)" d="M137.033 520.275 L155.39 520.275 L155.39 524.21 L141.316 524.21 L141.316 532.682 Q142.334 532.335 143.353 532.173 Q144.371 531.988 145.39 531.988 Q151.177 531.988 154.556 535.159 Q157.936 538.331 157.936 543.747 Q157.936 549.326 154.464 552.428 Q150.992 555.506 144.672 555.506 Q142.496 555.506 140.228 555.136 Q137.982 554.766 135.575 554.025 L135.575 549.326 Q137.658 550.46 139.881 551.016 Q142.103 551.571 144.58 551.571 Q148.584 551.571 150.922 549.465 Q153.26 547.358 153.26 543.747 Q153.26 540.136 150.922 538.03 Q148.584 535.923 144.58 535.923 Q142.705 535.923 140.83 536.34 Q138.978 536.756 137.033 537.636 L137.033 520.275 Z" fill="#000000" fill-rule="evenodd" fill-opacity="1" /><path clip-path="url(#clip160)" d="M91.5706 326.11 L99.2095 326.11 L99.2095 299.745 L90.8993 301.412 L90.8993 297.152 L99.1632 295.486 L103.839 295.486 L103.839 326.11 L111.478 326.11 L111.478 330.046 L91.5706 330.046 L91.5706 326.11 Z" fill="#000000" fill-rule="evenodd" fill-opacity="1" /><path clip-path="url(#clip160)" d="M120.922 324.166 L125.807 324.166 L125.807 330.046 L120.922 330.046 L120.922 324.166 Z" fill="#000000" fill-rule="evenodd" fill-opacity="1" /><path clip-path="url(#clip160)" d="M145.992 298.564 Q142.381 298.564 140.552 302.129 Q138.746 305.671 138.746 312.8 Q138.746 319.907 140.552 323.472 Q142.381 327.013 145.992 327.013 Q149.626 327.013 151.431 323.472 Q153.26 319.907 153.26 312.8 Q153.26 305.671 151.431 302.129 Q149.626 298.564 145.992 298.564 M145.992 294.861 Q151.802 294.861 154.857 299.467 Q157.936 304.05 157.936 312.8 Q157.936 321.527 154.857 326.134 Q151.802 330.717 145.992 330.717 Q140.181 330.717 137.103 326.134 Q134.047 321.527 134.047 312.8 Q134.047 304.05 137.103 299.467 Q140.181 294.861 145.992 294.861 Z" fill="#000000" fill-rule="evenodd" fill-opacity="1" /><path clip-path="url(#clip160)" d="M92.566 101.321 L100.205 101.321 L100.205 74.9555 L91.8947 76.6222 L91.8947 72.3629 L100.159 70.6963 L104.834 70.6963 L104.834 101.321 L112.473 101.321 L112.473 105.256 L92.566 105.256 L92.566 101.321 Z" fill="#000000" fill-rule="evenodd" fill-opacity="1" /><path clip-path="url(#clip160)" d="M121.918 99.3767 L126.802 99.3767 L126.802 105.256 L121.918 105.256 L121.918 99.3767 Z" fill="#000000" fill-rule="evenodd" fill-opacity="1" /><path clip-path="url(#clip160)" d="M137.033 70.6963 L155.39 70.6963 L155.39 74.6314 L141.316 74.6314 L141.316 83.1036 Q142.334 82.7564 143.353 82.5944 Q144.371 82.4092 145.39 82.4092 Q151.177 82.4092 154.556 85.5805 Q157.936 88.7517 157.936 94.1684 Q157.936 99.747 154.464 102.849 Q150.992 105.928 144.672 105.928 Q142.496 105.928 140.228 105.557 Q137.982 105.187 135.575 104.446 L135.575 99.747 Q137.658 100.881 139.881 101.437 Q142.103 101.992 144.58 101.992 Q148.584 101.992 150.922 99.8859 Q153.26 97.7795 153.26 94.1684 Q153.26 90.5573 150.922 88.4508 Q148.584 86.3443 144.58 86.3443 Q142.705 86.3443 140.83 86.761 Q138.978 87.1777 137.033 88.0573 L137.033 70.6963 Z" fill="#000000" fill-rule="evenodd" fill-opacity="1" /><circle clip-path="url(#clip162)" cx="255.035" cy="537.555" r="14" fill="#009af9" fill-rule="evenodd" fill-opacity="1" stroke="#000000" stroke-opacity="1" stroke-width="3.2"/>
<circle clip-path="url(#clip162)" cx="336.5" cy="87.9763" r="14" fill="#009af9" fill-rule="evenodd" fill-opacity="1" stroke="#000000" stroke-opacity="1" stroke-width="3.2"/>
<circle clip-path="url(#clip162)" cx="417.964" cy="608.534" r="14" fill="#009af9" fill-rule="evenodd" fill-opacity="1" stroke="#000000" stroke-opacity="1" stroke-width="3.2"/>
<circle clip-path="url(#clip162)" cx="499.429" cy="289.706" r="14" fill="#009af9" fill-rule="evenodd" fill-opacity="1" stroke="#000000" stroke-opacity="1" stroke-width="3.2"/>
<circle clip-path="url(#clip162)" cx="580.894" cy="909.166" r="14" fill="#009af9" fill-rule="evenodd" fill-opacity="1" stroke="#000000" stroke-opacity="1" stroke-width="3.2"/>
<circle clip-path="url(#clip162)" cx="662.359" cy="641.778" r="14" fill="#009af9" fill-rule="evenodd" fill-opacity="1" stroke="#000000" stroke-opacity="1" stroke-width="3.2"/>
<circle clip-path="url(#clip162)" cx="743.824" cy="1257.09" r="14" fill="#009af9" fill-rule="evenodd" fill-opacity="1" stroke="#000000" stroke-opacity="1" stroke-width="3.2"/>
<circle clip-path="url(#clip162)" cx="825.289" cy="930.629" r="14" fill="#009af9" fill-rule="evenodd" fill-opacity="1" stroke="#000000" stroke-opacity="1" stroke-width="3.2"/>
<circle clip-path="url(#clip162)" cx="906.754" cy="1441.27" r="14" fill="#009af9" fill-rule="evenodd" fill-opacity="1" stroke="#000000" stroke-opacity="1" stroke-width="3.2"/>
<circle clip-path="url(#clip162)" cx="988.219" cy="981.047" r="14" fill="#009af9" fill-rule="evenodd" fill-opacity="1" stroke="#000000" stroke-opacity="1" stroke-width="3.2"/>
<circle clip-path="url(#clip162)" cx="1069.68" cy="1349.97" r="14" fill="#009af9" fill-rule="evenodd" fill-opacity="1" stroke="#000000" stroke-opacity="1" stroke-width="3.2"/>
<circle clip-path="url(#clip162)" cx="1151.15" cy="762.449" r="14" fill="#009af9" fill-rule="evenodd" fill-opacity="1" stroke="#000000" stroke-opacity="1" stroke-width="3.2"/>
<circle clip-path="url(#clip162)" cx="1232.61" cy="1038.58" r="14" fill="#009af9" fill-rule="evenodd" fill-opacity="1" stroke="#000000" stroke-opacity="1" stroke-width="3.2"/>
<circle clip-path="url(#clip162)" cx="1314.08" cy="407.433" r="14" fill="#009af9" fill-rule="evenodd" fill-opacity="1" stroke="#000000" stroke-opacity="1" stroke-width="3.2"/>
<circle clip-path="url(#clip162)" cx="1395.54" cy="695.986" r="14" fill="#009af9" fill-rule="evenodd" fill-opacity="1" stroke="#000000" stroke-opacity="1" stroke-width="3.2"/>
<circle clip-path="url(#clip162)" cx="1477.01" cy="131.347" r="14" fill="#009af9" fill-rule="evenodd" fill-opacity="1" stroke="#000000" stroke-opacity="1" stroke-width="3.2"/>
<circle clip-path="url(#clip162)" cx="1558.47" cy="529.997" r="14" fill="#009af9" fill-rule="evenodd" fill-opacity="1" stroke="#000000" stroke-opacity="1" stroke-width="3.2"/>
<circle clip-path="url(#clip162)" cx="1639.94" cy="101.662" r="14" fill="#009af9" fill-rule="evenodd" fill-opacity="1" stroke="#000000" stroke-opacity="1" stroke-width="3.2"/>
<circle clip-path="url(#clip162)" cx="1721.4" cy="641.302" r="14" fill="#009af9" fill-rule="evenodd" fill-opacity="1" stroke="#000000" stroke-opacity="1" stroke-width="3.2"/>
<circle clip-path="url(#clip162)" cx="1802.87" cy="336.383" r="14" fill="#009af9" fill-rule="evenodd" fill-opacity="1" stroke="#000000" stroke-opacity="1" stroke-width="3.2"/>
<circle clip-path="url(#clip162)" cx="1884.33" cy="962.383" r="14" fill="#009af9" fill-rule="evenodd" fill-opacity="1" stroke="#000000" stroke-opacity="1" stroke-width="3.2"/>
<circle clip-path="url(#clip162)" cx="1965.8" cy="693.133" r="14" fill="#009af9" fill-rule="evenodd" fill-opacity="1" stroke="#000000" stroke-opacity="1" stroke-width="3.2"/>
<circle clip-path="url(#clip162)" cx="2047.26" cy="1298.48" r="14" fill="#009af9" fill-rule="evenodd" fill-opacity="1" stroke="#000000" stroke-opacity="1" stroke-width="3.2"/>
<circle clip-path="url(#clip162)" cx="2128.73" cy="955.511" r="14" fill="#009af9" fill-rule="evenodd" fill-opacity="1" stroke="#000000" stroke-opacity="1" stroke-width="3.2"/>
<circle clip-path="url(#clip162)" cx="2210.19" cy="1445.72" r="14" fill="#009af9" fill-rule="evenodd" fill-opacity="1" stroke="#000000" stroke-opacity="1" stroke-width="3.2"/>
<circle clip-path="url(#clip162)" cx="2291.66" cy="964.363" r="14" fill="#009af9" fill-rule="evenodd" fill-opacity="1" stroke="#000000" stroke-opacity="1" stroke-width="3.2"/>
<polyline clip-path="url(#clip162)" style="stroke:#e26f46; stroke-linecap:butt; stroke-linejoin:round; stroke-width:4; stroke-opacity:1; fill:none" points="
  255.035,312.766 260.007,312.9 264.979,313.302 269.952,313.971 274.924,314.908 297.912,322.692 320.9,336.072 343.888,354.878 366.877,378.869 389.865,407.74 
  412.853,441.125 435.841,478.598 458.829,519.682 514.089,629.993 569.348,749.988 616.07,852.507 662.791,950.302 688.167,999.6 713.544,1045.22 738.92,1086.45 
  764.296,1122.66 787.691,1151.1 811.085,1174.42 834.48,1192.31 857.875,1204.53 882.956,1211.16 908.038,1210.98 933.119,1204.01 958.201,1190.35 987.26,1166.44 
  1016.32,1134.31 1045.38,1094.63 1074.44,1048.19 1126.09,951.981 1177.74,843.645 1223.03,744.12 1268.32,645.492 1317.7,544.679 1367.08,456.6 1391.92,418.775 
  1416.75,386.052 1441.59,358.919 1466.43,337.778 1493.89,321.755 1521.35,313.729 1548.81,313.847 1576.27,322.106 1602.4,337.387 1628.52,359.652 1654.65,388.536 
  1680.78,423.564 1707.95,465.88 1735.11,513.464 1762.28,565.469 1789.45,620.972 1835.18,719.561 1880.92,820.298 1936.76,938.844 1992.6,1044.21 2018.85,1086.88 
  2045.09,1124.17 2071.34,1155.46 2097.58,1180.24 2118.61,1195.1 2139.63,1205.35 2160.65,1210.88 2181.68,1211.64 2202.7,1207.62 2223.73,1198.86 2244.75,1185.45 
  2265.77,1167.53 2272.24,1161.14 2278.72,1154.34 2285.19,1147.15 2291.66,1139.57 
  "/>
<path clip-path="url(#clip160)" d="
M1988.5 250.738 L2280.8 250.738 L2280.8 95.2176 L1988.5 95.2176  Z
  " fill="#ffffff" fill-rule="evenodd" fill-opacity="1"/>
<polyline clip-path="url(#clip160)" style="stroke:#000000; stroke-linecap:butt; stroke-linejoin:round; stroke-width:4; stroke-opacity:1; fill:none" points="
  1988.5,250.738 2280.8,250.738 2280.8,95.2176 1988.5,95.2176 1988.5,250.738 
  "/>
<circle clip-path="url(#clip160)" cx="2084.44" cy="147.058" r="23" fill="#009af9" fill-rule="evenodd" fill-opacity="1" stroke="#000000" stroke-opacity="1" stroke-width="5.12"/>
<path clip-path="url(#clip160)" d="M2194.23 166.745 Q2192.43 171.375 2190.72 172.787 Q2189 174.199 2186.13 174.199 L2182.73 174.199 L2182.73 170.634 L2185.23 170.634 Q2186.99 170.634 2187.96 169.8 Q2188.93 168.967 2190.11 165.865 L2190.88 163.921 L2180.39 138.412 L2184.91 138.412 L2193.01 158.689 L2201.11 138.412 L2205.62 138.412 L2194.23 166.745 Z" fill="#000000" fill-rule="evenodd" fill-opacity="1" /><path clip-path="url(#clip160)" d="M2212.91 160.402 L2220.55 160.402 L2220.55 134.037 L2212.24 135.703 L2212.24 131.444 L2220.51 129.778 L2225.18 129.778 L2225.18 160.402 L2232.82 160.402 L2232.82 164.338 L2212.91 164.338 L2212.91 160.402 Z" fill="#000000" fill-rule="evenodd" fill-opacity="1" /><polyline clip-path="url(#clip160)" style="stroke:#e26f46; stroke-linecap:butt; stroke-linejoin:round; stroke-width:4; stroke-opacity:1; fill:none" points="
  2012.48,198.898 2156.4,198.898 
  "/>
<path clip-path="url(#clip160)" d="M2194.23 218.585 Q2192.43 223.215 2190.72 224.627 Q2189 226.039 2186.13 226.039 L2182.73 226.039 L2182.73 222.474 L2185.23 222.474 Q2186.99 222.474 2187.96 221.64 Q2188.93 220.807 2190.11 217.705 L2190.88 215.761 L2180.39 190.252 L2184.91 190.252 L2193.01 210.529 L2201.11 190.252 L2205.62 190.252 L2194.23 218.585 Z" fill="#000000" fill-rule="evenodd" fill-opacity="1" /><path clip-path="url(#clip160)" d="M2216.13 212.242 L2232.45 212.242 L2232.45 216.178 L2210.51 216.178 L2210.51 212.242 Q2213.17 209.488 2217.75 204.858 Q2222.36 200.205 2223.54 198.863 Q2225.78 196.34 2226.66 194.604 Q2227.57 192.844 2227.57 191.155 Q2227.57 188.4 2225.62 186.664 Q2223.7 184.928 2220.6 184.928 Q2218.4 184.928 2215.95 185.692 Q2213.52 186.455 2210.74 188.006 L2210.74 183.284 Q2213.56 182.15 2216.02 181.571 Q2218.47 180.993 2220.51 180.993 Q2225.88 180.993 2229.07 183.678 Q2232.27 186.363 2232.27 190.854 Q2232.27 192.983 2231.46 194.905 Q2230.67 196.803 2228.56 199.395 Q2227.98 200.067 2224.88 203.284 Q2221.78 206.479 2216.13 212.242 Z" fill="#000000" fill-rule="evenodd" fill-opacity="1" /></svg>
