<?xml version="1.0" encoding="utf-8"?>
<svg xmlns="http://www.w3.org/2000/svg" xmlns:xlink="http://www.w3.org/1999/xlink" width="600" height="400" viewBox="0 0 2400 1600">
<defs>
  <clipPath id="clip580">
    <rect x="0" y="0" width="2400" height="1600"/>
  </clipPath>
</defs>
<path clip-path="url(#clip580)" d="
M0 1600 L2400 1600 L2400 0 L0 0  Z
  " fill="#ffffff" fill-rule="evenodd" fill-opacity="1"/>
<defs>
  <clipPath id="clip581">
    <rect x="480" y="0" width="1681" height="1600"/>
  </clipPath>
</defs>
<path clip-path="url(#clip580)" d="
M193.936 1486.45 L2352.76 1486.45 L2352.76 47.2441 L193.936 47.2441  Z
  " fill="#ffffff" fill-rule="evenodd" fill-opacity="1"/>
<defs>
  <clipPath id="clip582">
    <rect x="193" y="47" width="2160" height="1440"/>
  </clipPath>
</defs>
<polyline clip-path="url(#clip582)" style="stroke:#000000; stroke-linecap:butt; stroke-linejoin:round; stroke-width:2; stroke-opacity:0.1; fill:none" points="
  193.936,1486.45 193.936,47.2441 
  "/>
<polyline clip-path="url(#clip582)" style="stroke:#000000; stroke-linecap:butt; stroke-linejoin:round; stroke-width:2; stroke-opacity:0.1; fill:none" points="
  553.739,1486.45 553.739,47.2441 
  "/>
<polyline clip-path="url(#clip582)" style="stroke:#000000; stroke-linecap:butt; stroke-linejoin:round; stroke-width:2; stroke-opacity:0.1; fill:none" points="
  913.543,1486.45 913.543,47.2441 
  "/>
<polyline clip-path="url(#clip582)" style="stroke:#000000; stroke-linecap:butt; stroke-linejoin:round; stroke-width:2; stroke-opacity:0.1; fill:none" points="
  1273.35,1486.45 1273.35,47.2441 
  "/>
<polyline clip-path="url(#clip582)" style="stroke:#000000; stroke-linecap:butt; stroke-linejoin:round; stroke-width:2; stroke-opacity:0.1; fill:none" points="
  1633.15,1486.45 1633.15,47.2441 
  "/>
<polyline clip-path="url(#clip582)" style="stroke:#000000; stroke-linecap:butt; stroke-linejoin:round; stroke-width:2; stroke-opacity:0.1; fill:none" points="
  1992.95,1486.45 1992.95,47.2441 
  "/>
<polyline clip-path="url(#clip582)" style="stroke:#000000; stroke-linecap:butt; stroke-linejoin:round; stroke-width:2; stroke-opacity:0.1; fill:none" points="
  2352.76,1486.45 2352.76,47.2441 
  "/>
<polyline clip-path="url(#clip580)" style="stroke:#000000; stroke-linecap:butt; stroke-linejoin:round; stroke-width:4; stroke-opacity:1; fill:none" points="
  193.936,1486.45 2352.76,1486.45 
  "/>
<polyline clip-path="url(#clip580)" style="stroke:#000000; stroke-linecap:butt; stroke-linejoin:round; stroke-width:4; stroke-opacity:1; fill:none" points="
  193.936,1486.45 193.936,1467.55 
  "/>
<polyline clip-path="url(#clip580)" style="stroke:#000000; stroke-linecap:butt; stroke-linejoin:round; stroke-width:4; stroke-opacity:1; fill:none" points="
  553.739,1486.45 553.739,1467.55 
  "/>
<polyline clip-path="url(#clip580)" style="stroke:#000000; stroke-linecap:butt; stroke-linejoin:round; stroke-width:4; stroke-opacity:1; fill:none" points="
  913.543,1486.45 913.543,1467.55 
  "/>
<polyline clip-path="url(#clip580)" style="stroke:#000000; stroke-linecap:butt; stroke-linejoin:round; stroke-width:4; stroke-opacity:1; fill:none" points="
  1273.35,1486.45 1273.35,1467.55 
  "/>
<polyline clip-path="url(#clip580)" style="stroke:#000000; stroke-linecap:butt; stroke-linejoin:round; stroke-width:4; stroke-opacity:1; fill:none" points="
  1633.15,1486.45 1633.15,1467.55 
  "/>
<polyline clip-path="url(#clip580)" style="stroke:#000000; stroke-linecap:butt; stroke-linejoin:round; stroke-width:4; stroke-opacity:1; fill:none" points="
  1992.95,1486.45 1992.95,1467.55 
  "/>
<polyline clip-path="url(#clip580)" style="stroke:#000000; stroke-linecap:butt; stroke-linejoin:round; stroke-width:4; stroke-opacity:1; fill:none" points="
  2352.76,1486.45 2352.76,1467.55 
  "/>
<path clip-path="url(#clip580)" d="M163.404 1530.29 L193.08 1530.29 L193.08 1534.23 L163.404 1534.23 L163.404 1530.29 Z" fill="#000000" fill-rule="evenodd" fill-opacity="1" /><path clip-path="url(#clip580)" d="M217.339 1528.49 Q220.695 1529.2 222.57 1531.47 Q224.468 1533.74 224.468 1537.07 Q224.468 1542.19 220.95 1544.99 Q217.431 1547.79 210.95 1547.79 Q208.774 1547.79 206.459 1547.35 Q204.167 1546.93 201.714 1546.08 L201.714 1541.56 Q203.658 1542.7 205.973 1543.28 Q208.288 1543.86 210.811 1543.86 Q215.209 1543.86 217.501 1542.12 Q219.815 1540.38 219.815 1537.07 Q219.815 1534.02 217.663 1532.31 Q215.533 1530.57 211.714 1530.57 L207.686 1530.57 L207.686 1526.73 L211.899 1526.73 Q215.348 1526.73 217.177 1525.36 Q219.005 1523.97 219.005 1521.38 Q219.005 1518.72 217.107 1517.31 Q215.232 1515.87 211.714 1515.87 Q209.792 1515.87 207.593 1516.29 Q205.394 1516.7 202.755 1517.58 L202.755 1513.42 Q205.417 1512.68 207.732 1512.31 Q210.07 1511.93 212.13 1511.93 Q217.454 1511.93 220.556 1514.37 Q223.658 1516.77 223.658 1520.89 Q223.658 1523.76 222.015 1525.75 Q220.371 1527.72 217.339 1528.49 Z" fill="#000000" fill-rule="evenodd" fill-opacity="1" /><path clip-path="url(#clip580)" d="M523.682 1530.29 L553.357 1530.29 L553.357 1534.23 L523.682 1534.23 L523.682 1530.29 Z" fill="#000000" fill-rule="evenodd" fill-opacity="1" /><path clip-path="url(#clip580)" d="M567.478 1543.18 L583.797 1543.18 L583.797 1547.12 L561.853 1547.12 L561.853 1543.18 Q564.515 1540.43 569.098 1535.8 Q573.704 1531.15 574.885 1529.81 Q577.13 1527.28 578.01 1525.55 Q578.913 1523.79 578.913 1522.1 Q578.913 1519.34 576.968 1517.61 Q575.047 1515.87 571.945 1515.87 Q569.746 1515.87 567.292 1516.63 Q564.862 1517.4 562.084 1518.95 L562.084 1514.23 Q564.908 1513.09 567.362 1512.51 Q569.816 1511.93 571.853 1511.93 Q577.223 1511.93 580.417 1514.62 Q583.612 1517.31 583.612 1521.8 Q583.612 1523.93 582.802 1525.85 Q582.015 1527.74 579.908 1530.34 Q579.329 1531.01 576.228 1534.23 Q573.126 1537.42 567.478 1543.18 Z" fill="#000000" fill-rule="evenodd" fill-opacity="1" /><path clip-path="url(#clip580)" d="M883.3 1530.29 L912.976 1530.29 L912.976 1534.23 L883.3 1534.23 L883.3 1530.29 Z" fill="#000000" fill-rule="evenodd" fill-opacity="1" /><path clip-path="url(#clip580)" d="M923.878 1543.18 L931.517 1543.18 L931.517 1516.82 L923.207 1518.49 L923.207 1514.23 L931.471 1512.56 L936.147 1512.56 L936.147 1543.18 L943.786 1543.18 L943.786 1547.12 L923.878 1547.12 L923.878 1543.18 Z" fill="#000000" fill-rule="evenodd" fill-opacity="1" /><path clip-path="url(#clip580)" d="M1273.35 1515.64 Q1269.73 1515.64 1267.91 1519.2 Q1266.1 1522.75 1266.1 1529.87 Q1266.1 1536.98 1267.91 1540.55 Q1269.73 1544.09 1273.35 1544.09 Q1276.98 1544.09 1278.79 1540.55 Q1280.61 1536.98 1280.61 1529.87 Q1280.61 1522.75 1278.79 1519.2 Q1276.98 1515.64 1273.35 1515.64 M1273.35 1511.93 Q1279.16 1511.93 1282.21 1516.54 Q1285.29 1521.12 1285.29 1529.87 Q1285.29 1538.6 1282.21 1543.21 Q1279.16 1547.79 1273.35 1547.79 Q1267.54 1547.79 1264.46 1543.21 Q1261.4 1538.6 1261.4 1529.87 Q1261.4 1521.12 1264.46 1516.54 Q1267.54 1511.93 1273.35 1511.93 Z" fill="#000000" fill-rule="evenodd" fill-opacity="1" /><path clip-path="url(#clip580)" d="M1623.53 1543.18 L1631.17 1543.18 L1631.17 1516.82 L1622.86 1518.49 L1622.86 1514.23 L1631.12 1512.56 L1635.8 1512.56 L1635.8 1543.18 L1643.44 1543.18 L1643.44 1547.12 L1623.53 1547.12 L1623.53 1543.18 Z" fill="#000000" fill-rule="evenodd" fill-opacity="1" /><path clip-path="url(#clip580)" d="M1987.61 1543.18 L2003.92 1543.18 L2003.92 1547.12 L1981.98 1547.12 L1981.98 1543.18 Q1984.64 1540.43 1989.23 1535.8 Q1993.83 1531.15 1995.01 1529.81 Q1997.26 1527.28 1998.14 1525.55 Q1999.04 1523.79 1999.04 1522.1 Q1999.04 1519.34 1997.1 1517.61 Q1995.17 1515.87 1992.07 1515.87 Q1989.87 1515.87 1987.42 1516.63 Q1984.99 1517.4 1982.21 1518.95 L1982.21 1514.23 Q1985.04 1513.09 1987.49 1512.51 Q1989.94 1511.93 1991.98 1511.93 Q1997.35 1511.93 2000.55 1514.62 Q2003.74 1517.31 2003.74 1521.8 Q2003.74 1523.93 2002.93 1525.85 Q2002.14 1527.74 2000.04 1530.34 Q1999.46 1531.01 1996.36 1534.23 Q1993.25 1537.42 1987.61 1543.18 Z" fill="#000000" fill-rule="evenodd" fill-opacity="1" /><path clip-path="url(#clip580)" d="M2357 1528.49 Q2360.36 1529.2 2362.24 1531.47 Q2364.13 1533.74 2364.13 1537.07 Q2364.13 1542.19 2360.61 1544.99 Q2357.1 1547.79 2350.61 1547.79 Q2348.44 1547.79 2346.12 1547.35 Q2343.83 1546.93 2341.38 1546.08 L2341.38 1541.56 Q2343.32 1542.7 2345.64 1543.28 Q2347.95 1543.86 2350.48 1543.86 Q2354.87 1543.86 2357.17 1542.12 Q2359.48 1540.38 2359.48 1537.07 Q2359.48 1534.02 2357.33 1532.31 Q2355.2 1530.57 2351.38 1530.57 L2347.35 1530.57 L2347.35 1526.73 L2351.56 1526.73 Q2355.01 1526.73 2356.84 1525.36 Q2358.67 1523.97 2358.67 1521.38 Q2358.67 1518.72 2356.77 1517.31 Q2354.9 1515.87 2351.38 1515.87 Q2349.46 1515.87 2347.26 1516.29 Q2345.06 1516.7 2342.42 1517.58 L2342.42 1513.42 Q2345.08 1512.68 2347.4 1512.31 Q2349.74 1511.93 2351.8 1511.93 Q2357.12 1511.93 2360.22 1514.37 Q2363.32 1516.77 2363.32 1520.89 Q2363.32 1523.76 2361.68 1525.75 Q2360.04 1527.72 2357 1528.49 Z" fill="#000000" fill-rule="evenodd" fill-opacity="1" /><polyline clip-path="url(#clip582)" style="stroke:#000000; stroke-linecap:butt; stroke-linejoin:round; stroke-width:2; stroke-opacity:0.1; fill:none" points="
  193.936,1452.54 2352.76,1452.54 
  "/>
<polyline clip-path="url(#clip582)" style="stroke:#000000; stroke-linecap:butt; stroke-linejoin:round; stroke-width:2; stroke-opacity:0.1; fill:none" points="
  193.936,1111.38 2352.76,1111.38 
  "/>
<polyline clip-path="url(#clip582)" style="stroke:#000000; stroke-linecap:butt; stroke-linejoin:round; stroke-width:2; stroke-opacity:0.1; fill:none" points="
  193.936,770.223 2352.76,770.223 
  "/>
<polyline clip-path="url(#clip582)" style="stroke:#000000; stroke-linecap:butt; stroke-linejoin:round; stroke-width:2; stroke-opacity:0.1; fill:none" points="
  193.936,429.062 2352.76,429.062 
  "/>
<polyline clip-path="url(#clip582)" style="stroke:#000000; stroke-linecap:butt; stroke-linejoin:round; stroke-width:2; stroke-opacity:0.1; fill:none" points="
  193.936,87.9015 2352.76,87.9015 
  "/>
<polyline clip-path="url(#clip580)" style="stroke:#000000; stroke-linecap:butt; stroke-linejoin:round; stroke-width:4; stroke-opacity:1; fill:none" points="
  193.936,1486.45 193.936,47.2441 
  "/>
<polyline clip-path="url(#clip580)" style="stroke:#000000; stroke-linecap:butt; stroke-linejoin:round; stroke-width:4; stroke-opacity:1; fill:none" points="
  193.936,1452.54 212.834,1452.54 
  "/>
<polyline clip-path="url(#clip580)" style="stroke:#000000; stroke-linecap:butt; stroke-linejoin:round; stroke-width:4; stroke-opacity:1; fill:none" points="
  193.936,1111.38 212.834,1111.38 
  "/>
<polyline clip-path="url(#clip580)" style="stroke:#000000; stroke-linecap:butt; stroke-linejoin:round; stroke-width:4; stroke-opacity:1; fill:none" points="
  193.936,770.223 212.834,770.223 
  "/>
<polyline clip-path="url(#clip580)" style="stroke:#000000; stroke-linecap:butt; stroke-linejoin:round; stroke-width:4; stroke-opacity:1; fill:none" points="
  193.936,429.062 212.834,429.062 
  "/>
<polyline clip-path="url(#clip580)" style="stroke:#000000; stroke-linecap:butt; stroke-linejoin:round; stroke-width:4; stroke-opacity:1; fill:none" points="
  193.936,87.9015 212.834,87.9015 
  "/>
<path clip-path="url(#clip580)" d="M50.9921 1453 L80.6679 1453 L80.6679 1456.93 L50.9921 1456.93 L50.9921 1453 Z" fill="#000000" fill-rule="evenodd" fill-opacity="1" /><path clip-path="url(#clip580)" d="M91.5706 1465.89 L99.2095 1465.89 L99.2095 1439.52 L90.8993 1441.19 L90.8993 1436.93 L99.1632 1435.26 L103.839 1435.26 L103.839 1465.89 L111.478 1465.89 L111.478 1469.82 L91.5706 1469.82 L91.5706 1465.89 Z" fill="#000000" fill-rule="evenodd" fill-opacity="1" /><path clip-path="url(#clip580)" d="M120.922 1463.94 L125.807 1463.94 L125.807 1469.82 L120.922 1469.82 L120.922 1463.94 Z" fill="#000000" fill-rule="evenodd" fill-opacity="1" /><path clip-path="url(#clip580)" d="M145.992 1438.34 Q142.381 1438.34 140.552 1441.91 Q138.746 1445.45 138.746 1452.58 Q138.746 1459.69 140.552 1463.25 Q142.381 1466.79 145.992 1466.79 Q149.626 1466.79 151.431 1463.25 Q153.26 1459.69 153.26 1452.58 Q153.26 1445.45 151.431 1441.91 Q149.626 1438.34 145.992 1438.34 M145.992 1434.64 Q151.802 1434.64 154.857 1439.25 Q157.936 1443.83 157.936 1452.58 Q157.936 1461.31 154.857 1465.91 Q151.802 1470.5 145.992 1470.5 Q140.181 1470.5 137.103 1465.91 Q134.047 1461.31 134.047 1452.58 Q134.047 1443.83 137.103 1439.25 Q140.181 1434.64 145.992 1434.64 Z" fill="#000000" fill-rule="evenodd" fill-opacity="1" /><path clip-path="url(#clip580)" d="M51.9875 1111.83 L81.6633 1111.83 L81.6633 1115.77 L51.9875 1115.77 L51.9875 1111.83 Z" fill="#000000" fill-rule="evenodd" fill-opacity="1" /><path clip-path="url(#clip580)" d="M101.756 1097.18 Q98.1447 1097.18 96.316 1100.75 Q94.5104 1104.29 94.5104 1111.42 Q94.5104 1118.52 96.316 1122.09 Q98.1447 1125.63 101.756 1125.63 Q105.39 1125.63 107.196 1122.09 Q109.024 1118.52 109.024 1111.42 Q109.024 1104.29 107.196 1100.75 Q105.39 1097.18 101.756 1097.18 M101.756 1093.48 Q107.566 1093.48 110.621 1098.08 Q113.7 1102.67 113.7 1111.42 Q113.7 1120.14 110.621 1124.75 Q107.566 1129.33 101.756 1129.33 Q95.9456 1129.33 92.8669 1124.75 Q89.8114 1120.14 89.8114 1111.42 Q89.8114 1102.67 92.8669 1098.08 Q95.9456 1093.48 101.756 1093.48 Z" fill="#000000" fill-rule="evenodd" fill-opacity="1" /><path clip-path="url(#clip580)" d="M121.918 1122.78 L126.802 1122.78 L126.802 1128.66 L121.918 1128.66 L121.918 1122.78 Z" fill="#000000" fill-rule="evenodd" fill-opacity="1" /><path clip-path="url(#clip580)" d="M137.033 1094.1 L155.39 1094.1 L155.39 1098.04 L141.316 1098.04 L141.316 1106.51 Q142.334 1106.16 143.353 1106 Q144.371 1105.82 145.39 1105.82 Q151.177 1105.82 154.556 1108.99 Q157.936 1112.16 157.936 1117.58 Q157.936 1123.15 154.464 1126.26 Q150.992 1129.33 144.672 1129.33 Q142.496 1129.33 140.228 1128.96 Q137.982 1128.59 135.575 1127.85 L135.575 1123.15 Q137.658 1124.29 139.881 1124.84 Q142.103 1125.4 144.58 1125.4 Q148.584 1125.4 150.922 1123.29 Q153.26 1121.19 153.26 1117.58 Q153.26 1113.96 150.922 1111.86 Q148.584 1109.75 144.58 1109.75 Q142.705 1109.75 140.83 1110.17 Q138.978 1110.58 137.033 1111.46 L137.033 1094.1 Z" fill="#000000" fill-rule="evenodd" fill-opacity="1" /><path clip-path="url(#clip580)" d="M100.76 756.021 Q97.1493 756.021 95.3206 759.586 Q93.515 763.128 93.515 770.257 Q93.515 777.364 95.3206 780.929 Q97.1493 784.47 100.76 784.47 Q104.395 784.47 106.2 780.929 Q108.029 777.364 108.029 770.257 Q108.029 763.128 106.2 759.586 Q104.395 756.021 100.76 756.021 M100.76 752.318 Q106.571 752.318 109.626 756.924 Q112.705 761.508 112.705 770.257 Q112.705 778.984 109.626 783.591 Q106.571 788.174 100.76 788.174 Q94.9502 788.174 91.8715 783.591 Q88.816 778.984 88.816 770.257 Q88.816 761.508 91.8715 756.924 Q94.9502 752.318 100.76 752.318 Z" fill="#000000" fill-rule="evenodd" fill-opacity="1" /><path clip-path="url(#clip580)" d="M120.922 781.623 L125.807 781.623 L125.807 787.503 L120.922 787.503 L120.922 781.623 Z" fill="#000000" fill-rule="evenodd" fill-opacity="1" /><path clip-path="url(#clip580)" d="M145.992 756.021 Q142.381 756.021 140.552 759.586 Q138.746 763.128 138.746 770.257 Q138.746 777.364 140.552 780.929 Q142.381 784.47 145.992 784.47 Q149.626 784.47 151.431 780.929 Q153.26 777.364 153.26 770.257 Q153.26 763.128 151.431 759.586 Q149.626 756.021 145.992 756.021 M145.992 752.318 Q151.802 752.318 154.857 756.924 Q157.936 761.508 157.936 770.257 Q157.936 778.984 154.857 783.591 Q151.802 788.174 145.992 788.174 Q140.181 788.174 137.103 783.591 Q134.047 778.984 134.047 770.257 Q134.047 761.508 137.103 756.924 Q140.181 752.318 145.992 752.318 Z" fill="#000000" fill-rule="evenodd" fill-opacity="1" /><path clip-path="url(#clip580)" d="M101.756 414.861 Q98.1447 414.861 96.316 418.426 Q94.5104 421.967 94.5104 429.097 Q94.5104 436.203 96.316 439.768 Q98.1447 443.31 101.756 443.31 Q105.39 443.31 107.196 439.768 Q109.024 436.203 109.024 429.097 Q109.024 421.967 107.196 418.426 Q105.39 414.861 101.756 414.861 M101.756 411.157 Q107.566 411.157 110.621 415.764 Q113.7 420.347 113.7 429.097 Q113.7 437.824 110.621 442.43 Q107.566 447.013 101.756 447.013 Q95.9456 447.013 92.8669 442.43 Q89.8114 437.824 89.8114 429.097 Q89.8114 420.347 92.8669 415.764 Q95.9456 411.157 101.756 411.157 Z" fill="#000000" fill-rule="evenodd" fill-opacity="1" /><path clip-path="url(#clip580)" d="M121.918 440.463 L126.802 440.463 L126.802 446.342 L121.918 446.342 L121.918 440.463 Z" fill="#000000" fill-rule="evenodd" fill-opacity="1" /><path clip-path="url(#clip580)" d="M137.033 411.782 L155.39 411.782 L155.39 415.717 L141.316 415.717 L141.316 424.189 Q142.334 423.842 143.353 423.68 Q144.371 423.495 145.39 423.495 Q151.177 423.495 154.556 426.666 Q157.936 429.838 157.936 435.254 Q157.936 440.833 154.464 443.935 Q150.992 447.013 144.672 447.013 Q142.496 447.013 140.228 446.643 Q137.982 446.273 135.575 445.532 L135.575 440.833 Q137.658 441.967 139.881 442.523 Q142.103 443.078 144.58 443.078 Q148.584 443.078 150.922 440.972 Q153.26 438.865 153.26 435.254 Q153.26 431.643 150.922 429.537 Q148.584 427.43 144.58 427.43 Q142.705 427.43 140.83 427.847 Q138.978 428.264 137.033 429.143 L137.033 411.782 Z" fill="#000000" fill-rule="evenodd" fill-opacity="1" /><path clip-path="url(#clip580)" d="M91.5706 101.246 L99.2095 101.246 L99.2095 74.8807 L90.8993 76.5474 L90.8993 72.2881 L99.1632 70.6215 L103.839 70.6215 L103.839 101.246 L111.478 101.246 L111.478 105.181 L91.5706 105.181 L91.5706 101.246 Z" fill="#000000" fill-rule="evenodd" fill-opacity="1" /><path clip-path="url(#clip580)" d="M120.922 99.3019 L125.807 99.3019 L125.807 105.181 L120.922 105.181 L120.922 99.3019 Z" fill="#000000" fill-rule="evenodd" fill-opacity="1" /><path clip-path="url(#clip580)" d="M145.992 73.7002 Q142.381 73.7002 140.552 77.265 Q138.746 80.8066 138.746 87.9362 Q138.746 95.0427 140.552 98.6075 Q142.381 102.149 145.992 102.149 Q149.626 102.149 151.431 98.6075 Q153.26 95.0427 153.26 87.9362 Q153.26 80.8066 151.431 77.265 Q149.626 73.7002 145.992 73.7002 M145.992 69.9965 Q151.802 69.9965 154.857 74.603 Q157.936 79.1863 157.936 87.9362 Q157.936 96.663 154.857 101.269 Q151.802 105.853 145.992 105.853 Q140.181 105.853 137.103 101.269 Q134.047 96.663 134.047 87.9362 Q134.047 79.1863 137.103 74.603 Q140.181 69.9965 145.992 69.9965 Z" fill="#000000" fill-rule="evenodd" fill-opacity="1" /><polyline clip-path="url(#clip582)" style="stroke:#009af9; stroke-linecap:butt; stroke-linejoin:round; stroke-width:4; stroke-opacity:1; fill:none" points="
  193.936,1445.72 199.207,1444.23 204.477,1442.61 209.748,1440.83 215.019,1438.92 263.754,1414.47 312.488,1378.22 361.223,1330.84 409.958,1273.18 439.246,1234.03 
  468.533,1191.8 497.821,1146.78 527.109,1099.27 576.633,1014.14 626.158,924.402 733.753,721.745 832.946,538.311 886.119,446.351 939.292,361.452 1000.9,274.344 
  1062.5,201.737 1089.88,174.701 1117.25,151.11 1144.63,131.101 1172,114.79 1220.01,95.3846 1268.02,87.9763 1320.36,93.7184 1372.7,113.752 1425.36,147.897 
  1478.01,195.345 1536.23,262.06 1594.44,342.049 1649.83,428.575 1705.23,523.182 1820.41,735.891 1917.38,918.561 1976.57,1025.63 2035.76,1125.8 2091.4,1211.25 
  2147.04,1286.18 2191.61,1337.39 2236.18,1379.91 2280.75,1413.09 2325.32,1436.42 2332.18,1439.11 2339.04,1441.55 2345.9,1443.76 2352.76,1445.72 
  "/>
<polyline clip-path="url(#clip582)" style="stroke:#e26f46; stroke-linecap:butt; stroke-linejoin:round; stroke-width:4; stroke-opacity:1; fill:none" points="
  673.674,826.416 913.543,453.043 1153.41,215.495 1393.28,215.495 1633.15,453.043 1873.02,826.416 
  "/>
<circle clip-path="url(#clip582)" cx="673.674" cy="826.416" r="14" fill="#e26f46" fill-rule="evenodd" fill-opacity="1" stroke="#000000" stroke-opacity="1" stroke-width="3.2"/>
<circle clip-path="url(#clip582)" cx="913.543" cy="453.043" r="14" fill="#e26f46" fill-rule="evenodd" fill-opacity="1" stroke="#000000" stroke-opacity="1" stroke-width="3.2"/>
<circle clip-path="url(#clip582)" cx="1153.41" cy="215.495" r="14" fill="#e26f46" fill-rule="evenodd" fill-opacity="1" stroke="#000000" stroke-opacity="1" stroke-width="3.2"/>
<circle clip-path="url(#clip582)" cx="1393.28" cy="215.495" r="14" fill="#e26f46" fill-rule="evenodd" fill-opacity="1" stroke="#000000" stroke-opacity="1" stroke-width="3.2"/>
<circle clip-path="url(#clip582)" cx="1633.15" cy="453.043" r="14" fill="#e26f46" fill-rule="evenodd" fill-opacity="1" stroke="#000000" stroke-opacity="1" stroke-width="3.2"/>
<circle clip-path="url(#clip582)" cx="1873.02" cy="826.416" r="14" fill="#e26f46" fill-rule="evenodd" fill-opacity="1" stroke="#000000" stroke-opacity="1" stroke-width="3.2"/>
<polyline clip-path="url(#clip582)" style="stroke:#3da44d; stroke-linecap:butt; stroke-linejoin:round; stroke-width:4; stroke-opacity:1; fill:none" points="
  433.805,1224.34 673.674,833.153 913.543,415.016 1153.41,148.988 1393.28,148.988 1633.15,415.016 1873.02,833.153 2112.89,1224.34 
  "/>
<circle clip-path="url(#clip582)" cx="433.805" cy="1224.34" r="14" fill="#3da44d" fill-rule="evenodd" fill-opacity="1" stroke="#000000" stroke-opacity="1" stroke-width="3.2"/>
<circle clip-path="url(#clip582)" cx="673.674" cy="833.153" r="14" fill="#3da44d" fill-rule="evenodd" fill-opacity="1" stroke="#000000" stroke-opacity="1" stroke-width="3.2"/>
<circle clip-path="url(#clip582)" cx="913.543" cy="415.016" r="14" fill="#3da44d" fill-rule="evenodd" fill-opacity="1" stroke="#000000" stroke-opacity="1" stroke-width="3.2"/>
<circle clip-path="url(#clip582)" cx="1153.41" cy="148.988" r="14" fill="#3da44d" fill-rule="evenodd" fill-opacity="1" stroke="#000000" stroke-opacity="1" stroke-width="3.2"/>
<circle clip-path="url(#clip582)" cx="1393.28" cy="148.988" r="14" fill="#3da44d" fill-rule="evenodd" fill-opacity="1" stroke="#000000" stroke-opacity="1" stroke-width="3.2"/>
<circle clip-path="url(#clip582)" cx="1633.15" cy="415.016" r="14" fill="#3da44d" fill-rule="evenodd" fill-opacity="1" stroke="#000000" stroke-opacity="1" stroke-width="3.2"/>
<circle clip-path="url(#clip582)" cx="1873.02" cy="833.153" r="14" fill="#3da44d" fill-rule="evenodd" fill-opacity="1" stroke="#000000" stroke-opacity="1" stroke-width="3.2"/>
<circle clip-path="url(#clip582)" cx="2112.89" cy="1224.34" r="14" fill="#3da44d" fill-rule="evenodd" fill-opacity="1" stroke="#000000" stroke-opacity="1" stroke-width="3.2"/>
<path clip-path="url(#clip580)" d="
M1909.24 302.578 L2280.8 302.578 L2280.8 95.2176 L1909.24 95.2176  Z
  " fill="#ffffff" fill-rule="evenodd" fill-opacity="1"/>
<polyline clip-path="url(#clip580)" style="stroke:#000000; stroke-linecap:butt; stroke-linejoin:round; stroke-width:4; stroke-opacity:1; fill:none" points="
  1909.24,302.578 2280.8,302.578 2280.8,95.2176 1909.24,95.2176 1909.24,302.578 
  "/>
<polyline clip-path="url(#clip580)" style="stroke:#009af9; stroke-linecap:butt; stroke-linejoin:round; stroke-width:4; stroke-opacity:1; fill:none" points="
  1933.22,147.058 2077.15,147.058 
  "/>
<path clip-path="url(#clip580)" d="M2114.97 166.745 Q2113.17 171.375 2111.46 172.787 Q2109.74 174.199 2106.87 174.199 L2103.47 174.199 L2103.47 170.634 L2105.97 170.634 Q2107.73 170.634 2108.7 169.8 Q2109.67 168.967 2110.85 165.865 L2111.62 163.921 L2101.13 138.412 L2105.65 138.412 L2113.75 158.689 L2121.85 138.412 L2126.36 138.412 L2114.97 166.745 Z" fill="#000000" fill-rule="evenodd" fill-opacity="1" /><path clip-path="url(#clip580)" d="M2133.66 160.402 L2141.29 160.402 L2141.29 134.037 L2132.98 135.703 L2132.98 131.444 L2141.25 129.778 L2145.92 129.778 L2145.92 160.402 L2153.56 160.402 L2153.56 164.338 L2133.66 164.338 L2133.66 160.402 Z" fill="#000000" fill-rule="evenodd" fill-opacity="1" /><polyline clip-path="url(#clip580)" style="stroke:#e26f46; stroke-linecap:butt; stroke-linejoin:round; stroke-width:4; stroke-opacity:1; fill:none" points="
  1933.22,198.898 2077.15,198.898 
  "/>
<circle clip-path="url(#clip580)" cx="2005.18" cy="198.898" r="23" fill="#e26f46" fill-rule="evenodd" fill-opacity="1" stroke="#000000" stroke-opacity="1" stroke-width="5.12"/>
<path clip-path="url(#clip580)" d="M2120.04 194.187 L2120.04 180.159 L2124.3 180.159 L2124.3 216.178 L2120.04 216.178 L2120.04 212.289 Q2118.7 214.603 2116.64 215.738 Q2114.6 216.849 2111.73 216.849 Q2107.04 216.849 2104.07 213.099 Q2101.13 209.349 2101.13 203.238 Q2101.13 197.127 2104.07 193.377 Q2107.04 189.627 2111.73 189.627 Q2114.6 189.627 2116.64 190.761 Q2118.7 191.872 2120.04 194.187 M2105.53 203.238 Q2105.53 207.937 2107.45 210.622 Q2109.4 213.284 2112.78 213.284 Q2116.16 213.284 2118.1 210.622 Q2120.04 207.937 2120.04 203.238 Q2120.04 198.539 2118.1 195.877 Q2116.16 193.192 2112.78 193.192 Q2109.4 193.192 2107.45 195.877 Q2105.53 198.539 2105.53 203.238 Z" fill="#000000" fill-rule="evenodd" fill-opacity="1" /><path clip-path="url(#clip580)" d="M2133.08 190.252 L2137.34 190.252 L2137.34 216.178 L2133.08 216.178 L2133.08 190.252 M2133.08 180.159 L2137.34 180.159 L2137.34 185.553 L2133.08 185.553 L2133.08 180.159 Z" fill="#000000" fill-rule="evenodd" fill-opacity="1" /><path clip-path="url(#clip580)" d="M2159.37 180.159 L2159.37 183.701 L2155.3 183.701 Q2153.01 183.701 2152.1 184.627 Q2151.22 185.553 2151.22 187.96 L2151.22 190.252 L2158.24 190.252 L2158.24 193.562 L2151.22 193.562 L2151.22 216.178 L2146.94 216.178 L2146.94 193.562 L2142.87 193.562 L2142.87 190.252 L2146.94 190.252 L2146.94 188.446 Q2146.94 184.118 2148.96 182.15 Q2150.97 180.159 2155.35 180.159 L2159.37 180.159 Z" fill="#000000" fill-rule="evenodd" fill-opacity="1" /><path clip-path="url(#clip580)" d="M2176.06 180.159 L2176.06 183.701 L2171.99 183.701 Q2169.7 183.701 2168.79 184.627 Q2167.91 185.553 2167.91 187.96 L2167.91 190.252 L2174.93 190.252 L2174.93 193.562 L2167.91 193.562 L2167.91 216.178 L2163.63 216.178 L2163.63 193.562 L2159.56 193.562 L2159.56 190.252 L2163.63 190.252 L2163.63 188.446 Q2163.63 184.118 2165.65 182.15 Q2167.66 180.159 2172.03 180.159 L2176.06 180.159 Z" fill="#000000" fill-rule="evenodd" fill-opacity="1" /><path clip-path="url(#clip580)" d="M2184.26 212.242 L2200.58 212.242 L2200.58 216.178 L2178.63 216.178 L2178.63 212.242 Q2181.29 209.488 2185.88 204.858 Q2190.48 200.205 2191.66 198.863 Q2193.91 196.34 2194.79 194.604 Q2195.69 192.844 2195.69 191.155 Q2195.69 188.4 2193.75 186.664 Q2191.83 184.928 2188.72 184.928 Q2186.53 184.928 2184.07 185.692 Q2181.64 186.455 2178.86 188.006 L2178.86 183.284 Q2181.69 182.15 2184.14 181.571 Q2186.59 180.993 2188.63 180.993 Q2194 180.993 2197.2 183.678 Q2200.39 186.363 2200.39 190.854 Q2200.39 192.983 2199.58 194.905 Q2198.79 196.803 2196.69 199.395 Q2196.11 200.067 2193.01 203.284 Q2189.91 206.479 2184.26 212.242 Z" fill="#000000" fill-rule="evenodd" fill-opacity="1" /><path clip-path="url(#clip580)" d="M2221.57 203.145 Q2216.41 203.145 2214.42 204.326 Q2212.43 205.506 2212.43 208.354 Q2212.43 210.622 2213.91 211.965 Q2215.41 213.284 2217.98 213.284 Q2221.53 213.284 2223.65 210.784 Q2225.81 208.261 2225.81 204.094 L2225.81 203.145 L2221.57 203.145 M2230.07 201.386 L2230.07 216.178 L2225.81 216.178 L2225.81 212.242 Q2224.35 214.603 2222.17 215.738 Q2220 216.849 2216.85 216.849 Q2212.87 216.849 2210.51 214.627 Q2208.17 212.381 2208.17 208.631 Q2208.17 204.256 2211.09 202.034 Q2214.03 199.812 2219.84 199.812 L2225.81 199.812 L2225.81 199.395 Q2225.81 196.455 2223.86 194.858 Q2221.94 193.238 2218.45 193.238 Q2216.22 193.238 2214.12 193.77 Q2212.01 194.303 2210.07 195.367 L2210.07 191.432 Q2212.4 190.53 2214.6 190.09 Q2216.8 189.627 2218.89 189.627 Q2224.51 189.627 2227.29 192.543 Q2230.07 195.46 2230.07 201.386 Z" fill="#000000" fill-rule="evenodd" fill-opacity="1" /><polyline clip-path="url(#clip580)" style="stroke:#3da44d; stroke-linecap:butt; stroke-linejoin:round; stroke-width:4; stroke-opacity:1; fill:none" points="
  1933.22,250.738 2077.15,250.738 
  "/>
<circle clip-path="url(#clip580)" cx="2005.18" cy="250.738" r="23" fill="#3da44d" fill-rule="evenodd" fill-opacity="1" stroke="#000000" stroke-opacity="1" stroke-width="5.12"/>
<path clip-path="url(#clip580)" d="M2120.04 246.027 L2120.04 231.999 L2124.3 231.999 L2124.3 268.018 L2120.04 268.018 L2120.04 264.129 Q2118.7 266.443 2116.64 267.578 Q2114.6 268.689 2111.73 268.689 Q2107.04 268.689 2104.07 264.939 Q2101.13 261.189 2101.13 255.078 Q2101.13 248.967 2104.07 245.217 Q2107.04 241.467 2111.73 241.467 Q2114.6 241.467 2116.64 242.601 Q2118.7 243.712 2120.04 246.027 M2105.53 255.078 Q2105.53 259.777 2107.45 262.462 Q2109.4 265.124 2112.78 265.124 Q2116.16 265.124 2118.1 262.462 Q2120.04 259.777 2120.04 255.078 Q2120.04 250.379 2118.1 247.717 Q2116.16 245.032 2112.78 245.032 Q2109.4 245.032 2107.45 247.717 Q2105.53 250.379 2105.53 255.078 Z" fill="#000000" fill-rule="evenodd" fill-opacity="1" /><path clip-path="url(#clip580)" d="M2133.08 242.092 L2137.34 242.092 L2137.34 268.018 L2133.08 268.018 L2133.08 242.092 M2133.08 231.999 L2137.34 231.999 L2137.34 237.393 L2133.08 237.393 L2133.08 231.999 Z" fill="#000000" fill-rule="evenodd" fill-opacity="1" /><path clip-path="url(#clip580)" d="M2159.37 231.999 L2159.37 235.541 L2155.3 235.541 Q2153.01 235.541 2152.1 236.467 Q2151.22 237.393 2151.22 239.8 L2151.22 242.092 L2158.24 242.092 L2158.24 245.402 L2151.22 245.402 L2151.22 268.018 L2146.94 268.018 L2146.94 245.402 L2142.87 245.402 L2142.87 242.092 L2146.94 242.092 L2146.94 240.286 Q2146.94 235.958 2148.96 233.99 Q2150.97 231.999 2155.35 231.999 L2159.37 231.999 Z" fill="#000000" fill-rule="evenodd" fill-opacity="1" /><path clip-path="url(#clip580)" d="M2176.06 231.999 L2176.06 235.541 L2171.99 235.541 Q2169.7 235.541 2168.79 236.467 Q2167.91 237.393 2167.91 239.8 L2167.91 242.092 L2174.93 242.092 L2174.93 245.402 L2167.91 245.402 L2167.91 268.018 L2163.63 268.018 L2163.63 245.402 L2159.56 245.402 L2159.56 242.092 L2163.63 242.092 L2163.63 240.286 Q2163.63 235.958 2165.65 233.99 Q2167.66 231.999 2172.03 231.999 L2176.06 231.999 Z" fill="#000000" fill-rule="evenodd" fill-opacity="1" /><path clip-path="url(#clip580)" d="M2184.26 264.082 L2200.58 264.082 L2200.58 268.018 L2178.63 268.018 L2178.63 264.082 Q2181.29 261.328 2185.88 256.698 Q2190.48 252.045 2191.66 250.703 Q2193.91 248.18 2194.79 246.444 Q2195.69 244.684 2195.69 242.995 Q2195.69 240.24 2193.75 238.504 Q2191.83 236.768 2188.72 236.768 Q2186.53 236.768 2184.07 237.532 Q2181.64 238.295 2178.86 239.846 L2178.86 235.124 Q2181.69 233.99 2184.14 233.411 Q2186.59 232.833 2188.63 232.833 Q2194 232.833 2197.2 235.518 Q2200.39 238.203 2200.39 242.694 Q2200.39 244.823 2199.58 246.745 Q2198.79 248.643 2196.69 251.235 Q2196.11 251.907 2193.01 255.124 Q2189.91 258.319 2184.26 264.082 Z" fill="#000000" fill-rule="evenodd" fill-opacity="1" /><path clip-path="url(#clip580)" d="M2228.4 255.078 Q2228.4 250.379 2226.46 247.717 Q2224.53 245.032 2221.15 245.032 Q2217.78 245.032 2215.83 247.717 Q2213.91 250.379 2213.91 255.078 Q2213.91 259.777 2215.83 262.462 Q2217.78 265.124 2221.15 265.124 Q2224.53 265.124 2226.46 262.462 Q2228.4 259.777 2228.4 255.078 M2213.91 246.027 Q2215.25 243.712 2217.29 242.601 Q2219.35 241.467 2222.2 241.467 Q2226.92 241.467 2229.86 245.217 Q2232.82 248.967 2232.82 255.078 Q2232.82 261.189 2229.86 264.939 Q2226.92 268.689 2222.2 268.689 Q2219.35 268.689 2217.29 267.578 Q2215.25 266.443 2213.91 264.129 L2213.91 268.018 L2209.63 268.018 L2209.63 231.999 L2213.91 231.999 L2213.91 246.027 Z" fill="#000000" fill-rule="evenodd" fill-opacity="1" /></svg>
