<?xml version="1.0" encoding="utf-8"?>
<svg xmlns="http://www.w3.org/2000/svg" xmlns:xlink="http://www.w3.org/1999/xlink" width="600" height="400" viewBox="0 0 2400 1600">
<defs>
  <clipPath id="clip220">
    <rect x="0" y="0" width="2400" height="1600"/>
  </clipPath>
</defs>
<path clip-path="url(#clip220)" d="
M0 1600 L2400 1600 L2400 0 L0 0  Z
  " fill="#ffffff" fill-rule="evenodd" fill-opacity="1"/>
<defs>
  <clipPath id="clip221">
    <rect x="480" y="0" width="1681" height="1600"/>
  </clipPath>
</defs>
<path clip-path="url(#clip220)" d="
M193.936 1486.45 L2352.76 1486.45 L2352.76 47.2441 L193.936 47.2441  Z
  " fill="#ffffff" fill-rule="evenodd" fill-opacity="1"/>
<defs>
  <clipPath id="clip222">
    <rect x="193" y="47" width="2160" height="1440"/>
  </clipPath>
</defs>
<polyline clip-path="url(#clip222)" style="stroke:#000000; stroke-linecap:butt; stroke-linejoin:round; stroke-width:2; stroke-opacity:0.1; fill:none" points="
  255.035,1486.45 255.035,47.2441 
  "/>
<polyline clip-path="url(#clip222)" style="stroke:#000000; stroke-linecap:butt; stroke-linejoin:round; stroke-width:2; stroke-opacity:0.1; fill:none" points="
  764.19,1486.45 764.19,47.2441 
  "/>
<polyline clip-path="url(#clip222)" style="stroke:#000000; stroke-linecap:butt; stroke-linejoin:round; stroke-width:2; stroke-opacity:0.1; fill:none" points="
  1273.35,1486.45 1273.35,47.2441 
  "/>
<polyline clip-path="url(#clip222)" style="stroke:#000000; stroke-linecap:butt; stroke-linejoin:round; stroke-width:2; stroke-opacity:0.1; fill:none" points="
  1782.5,1486.45 1782.5,47.2441 
  "/>
<polyline clip-path="url(#clip222)" style="stroke:#000000; stroke-linecap:butt; stroke-linejoin:round; stroke-width:2; stroke-opacity:0.1; fill:none" points="
  2291.66,1486.45 2291.66,47.2441 
  "/>
<polyline clip-path="url(#clip220)" style="stroke:#000000; stroke-linecap:butt; stroke-linejoin:round; stroke-width:4; stroke-opacity:1; fill:none" points="
  193.936,1486.45 2352.76,1486.45 
  "/>
<polyline clip-path="url(#clip220)" style="stroke:#000000; stroke-linecap:butt; stroke-linejoin:round; stroke-width:4; stroke-opacity:1; fill:none" points="
  255.035,1486.45 255.035,1467.55 
  "/>
<polyline clip-path="url(#clip220)" style="stroke:#000000; stroke-linecap:butt; stroke-linejoin:round; stroke-width:4; stroke-opacity:1; fill:none" points="
  764.19,1486.45 764.19,1467.55 
  "/>
<polyline clip-path="url(#clip220)" style="stroke:#000000; stroke-linecap:butt; stroke-linejoin:round; stroke-width:4; stroke-opacity:1; fill:none" points="
  1273.35,1486.45 1273.35,1467.55 
  "/>
<polyline clip-path="url(#clip220)" style="stroke:#000000; stroke-linecap:butt; stroke-linejoin:round; stroke-width:4; stroke-opacity:1; fill:none" points="
  1782.5,1486.45 1782.5,1467.55 
  "/>
<polyline clip-path="url(#clip220)" style="stroke:#000000; stroke-linecap:butt; stroke-linejoin:round; stroke-width:4; stroke-opacity:1; fill:none" points="
  2291.66,1486.45 2291.66,1467.55 
  "/>
<path clip-path="url(#clip220)" d="M224.977 1530.29 L254.653 1530.29 L254.653 1534.23 L224.977 1534.23 L224.977 1530.29 Z" fill="#000000" fill-rule="evenodd" fill-opacity="1" /><path clip-path="url(#clip220)" d="M268.773 1543.18 L285.092 1543.18 L285.092 1547.12 L263.148 1547.12 L263.148 1543.18 Q265.81 1540.43 270.393 1535.8 Q275 1531.15 276.18 1529.81 Q278.426 1527.28 279.305 1525.55 Q280.208 1523.79 280.208 1522.1 Q280.208 1519.34 278.264 1517.61 Q276.342 1515.87 273.241 1515.87 Q271.042 1515.87 268.588 1516.63 Q266.157 1517.4 263.38 1518.95 L263.38 1514.23 Q266.204 1513.09 268.657 1512.51 Q271.111 1511.93 273.148 1511.93 Q278.518 1511.93 281.713 1514.62 Q284.907 1517.31 284.907 1521.8 Q284.907 1523.93 284.097 1525.85 Q283.31 1527.74 281.204 1530.34 Q280.625 1531.01 277.523 1534.23 Q274.421 1537.42 268.773 1543.18 Z" fill="#000000" fill-rule="evenodd" fill-opacity="1" /><path clip-path="url(#clip220)" d="M733.947 1530.29 L763.623 1530.29 L763.623 1534.23 L733.947 1534.23 L733.947 1530.29 Z" fill="#000000" fill-rule="evenodd" fill-opacity="1" /><path clip-path="url(#clip220)" d="M774.526 1543.18 L782.165 1543.18 L782.165 1516.82 L773.855 1518.49 L773.855 1514.23 L782.118 1512.56 L786.794 1512.56 L786.794 1543.18 L794.433 1543.18 L794.433 1547.12 L774.526 1547.12 L774.526 1543.18 Z" fill="#000000" fill-rule="evenodd" fill-opacity="1" /><path clip-path="url(#clip220)" d="M1273.35 1515.64 Q1269.73 1515.64 1267.91 1519.2 Q1266.1 1522.75 1266.1 1529.87 Q1266.1 1536.98 1267.91 1540.55 Q1269.73 1544.09 1273.35 1544.09 Q1276.98 1544.09 1278.79 1540.55 Q1280.61 1536.98 1280.61 1529.87 Q1280.61 1522.75 1278.79 1519.2 Q1276.98 1515.64 1273.35 1515.64 M1273.35 1511.93 Q1279.16 1511.93 1282.21 1516.54 Q1285.29 1521.12 1285.29 1529.87 Q1285.29 1538.6 1282.21 1543.21 Q1279.16 1547.79 1273.35 1547.79 Q1267.54 1547.79 1264.46 1543.21 Q1261.4 1538.6 1261.4 1529.87 Q1261.4 1521.12 1264.46 1516.54 Q1267.54 1511.93 1273.35 1511.93 Z" fill="#000000" fill-rule="evenodd" fill-opacity="1" /><path clip-path="url(#clip220)" d="M1772.88 1543.18 L1780.52 1543.18 L1780.52 1516.82 L1772.21 1518.49 L1772.21 1514.23 L1780.48 1512.56 L1785.15 1512.56 L1785.15 1543.18 L1792.79 1543.18 L1792.79 1547.12 L1772.88 1547.12 L1772.88 1543.18 Z" fill="#000000" fill-rule="evenodd" fill-opacity="1" /><path clip-path="url(#clip220)" d="M2286.31 1543.18 L2302.63 1543.18 L2302.63 1547.12 L2280.69 1547.12 L2280.69 1543.18 Q2283.35 1540.43 2287.93 1535.8 Q2292.54 1531.15 2293.72 1529.81 Q2295.96 1527.28 2296.84 1525.55 Q2297.75 1523.79 2297.75 1522.1 Q2297.75 1519.34 2295.8 1517.61 Q2293.88 1515.87 2290.78 1515.87 Q2288.58 1515.87 2286.12 1516.63 Q2283.69 1517.4 2280.92 1518.95 L2280.92 1514.23 Q2283.74 1513.09 2286.19 1512.51 Q2288.65 1511.93 2290.69 1511.93 Q2296.06 1511.93 2299.25 1514.62 Q2302.44 1517.31 2302.44 1521.8 Q2302.44 1523.93 2301.63 1525.85 Q2300.85 1527.74 2298.74 1530.34 Q2298.16 1531.01 2295.06 1534.23 Q2291.96 1537.42 2286.31 1543.18 Z" fill="#000000" fill-rule="evenodd" fill-opacity="1" /><polyline clip-path="url(#clip222)" style="stroke:#000000; stroke-linecap:butt; stroke-linejoin:round; stroke-width:2; stroke-opacity:0.1; fill:none" points="
  193.936,1462.9 2352.76,1462.9 
  "/>
<polyline clip-path="url(#clip222)" style="stroke:#000000; stroke-linecap:butt; stroke-linejoin:round; stroke-width:2; stroke-opacity:0.1; fill:none" points="
  193.936,1223.98 2352.76,1223.98 
  "/>
<polyline clip-path="url(#clip222)" style="stroke:#000000; stroke-linecap:butt; stroke-linejoin:round; stroke-width:2; stroke-opacity:0.1; fill:none" points="
  193.936,985.064 2352.76,985.064 
  "/>
<polyline clip-path="url(#clip222)" style="stroke:#000000; stroke-linecap:butt; stroke-linejoin:round; stroke-width:2; stroke-opacity:0.1; fill:none" points="
  193.936,746.143 2352.76,746.143 
  "/>
<polyline clip-path="url(#clip222)" style="stroke:#000000; stroke-linecap:butt; stroke-linejoin:round; stroke-width:2; stroke-opacity:0.1; fill:none" points="
  193.936,507.223 2352.76,507.223 
  "/>
<polyline clip-path="url(#clip222)" style="stroke:#000000; stroke-linecap:butt; stroke-linejoin:round; stroke-width:2; stroke-opacity:0.1; fill:none" points="
  193.936,268.302 2352.76,268.302 
  "/>
<polyline clip-path="url(#clip220)" style="stroke:#000000; stroke-linecap:butt; stroke-linejoin:round; stroke-width:4; stroke-opacity:1; fill:none" points="
  193.936,1486.45 193.936,47.2441 
  "/>
<polyline clip-path="url(#clip220)" style="stroke:#000000; stroke-linecap:butt; stroke-linejoin:round; stroke-width:4; stroke-opacity:1; fill:none" points="
  193.936,1462.9 212.834,1462.9 
  "/>
<polyline clip-path="url(#clip220)" style="stroke:#000000; stroke-linecap:butt; stroke-linejoin:round; stroke-width:4; stroke-opacity:1; fill:none" points="
  193.936,1223.98 212.834,1223.98 
  "/>
<polyline clip-path="url(#clip220)" style="stroke:#000000; stroke-linecap:butt; stroke-linejoin:round; stroke-width:4; stroke-opacity:1; fill:none" points="
  193.936,985.064 212.834,985.064 
  "/>
<polyline clip-path="url(#clip220)" style="stroke:#000000; stroke-linecap:butt; stroke-linejoin:round; stroke-width:4; stroke-opacity:1; fill:none" points="
  193.936,746.143 212.834,746.143 
  "/>
<polyline clip-path="url(#clip220)" style="stroke:#000000; stroke-linecap:butt; stroke-linejoin:round; stroke-width:4; stroke-opacity:1; fill:none" points="
  193.936,507.223 212.834,507.223 
  "/>
<polyline clip-path="url(#clip220)" style="stroke:#000000; stroke-linecap:butt; stroke-linejoin:round; stroke-width:4; stroke-opacity:1; fill:none" points="
  193.936,268.302 212.834,268.302 
  "/>
<path clip-path="url(#clip220)" d="M50.9921 1463.36 L80.6679 1463.36 L80.6679 1467.29 L50.9921 1467.29 L50.9921 1463.36 Z" fill="#000000" fill-rule="evenodd" fill-opacity="1" /><path clip-path="url(#clip220)" d="M91.5706 1476.25 L99.2095 1476.25 L99.2095 1449.88 L90.8993 1451.55 L90.8993 1447.29 L99.1632 1445.62 L103.839 1445.62 L103.839 1476.25 L111.478 1476.25 L111.478 1480.18 L91.5706 1480.18 L91.5706 1476.25 Z" fill="#000000" fill-rule="evenodd" fill-opacity="1" /><path clip-path="url(#clip220)" d="M120.922 1474.31 L125.807 1474.31 L125.807 1480.18 L120.922 1480.18 L120.922 1474.31 Z" fill="#000000" fill-rule="evenodd" fill-opacity="1" /><path clip-path="url(#clip220)" d="M145.992 1448.7 Q142.381 1448.7 140.552 1452.27 Q138.746 1455.81 138.746 1462.94 Q138.746 1470.05 140.552 1473.61 Q142.381 1477.15 145.992 1477.15 Q149.626 1477.15 151.431 1473.61 Q153.26 1470.05 153.26 1462.94 Q153.26 1455.81 151.431 1452.27 Q149.626 1448.7 145.992 1448.7 M145.992 1445 Q151.802 1445 154.857 1449.61 Q157.936 1454.19 157.936 1462.94 Q157.936 1471.67 154.857 1476.27 Q151.802 1480.86 145.992 1480.86 Q140.181 1480.86 137.103 1476.27 Q134.047 1471.67 134.047 1462.94 Q134.047 1454.19 137.103 1449.61 Q140.181 1445 145.992 1445 Z" fill="#000000" fill-rule="evenodd" fill-opacity="1" /><path clip-path="url(#clip220)" d="M51.9875 1224.44 L81.6633 1224.44 L81.6633 1228.37 L51.9875 1228.37 L51.9875 1224.44 Z" fill="#000000" fill-rule="evenodd" fill-opacity="1" /><path clip-path="url(#clip220)" d="M101.756 1209.78 Q98.1447 1209.78 96.316 1213.35 Q94.5104 1216.89 94.5104 1224.02 Q94.5104 1231.13 96.316 1234.69 Q98.1447 1238.23 101.756 1238.23 Q105.39 1238.23 107.196 1234.69 Q109.024 1231.13 109.024 1224.02 Q109.024 1216.89 107.196 1213.35 Q105.39 1209.78 101.756 1209.78 M101.756 1206.08 Q107.566 1206.08 110.621 1210.69 Q113.7 1215.27 113.7 1224.02 Q113.7 1232.75 110.621 1237.35 Q107.566 1241.94 101.756 1241.94 Q95.9456 1241.94 92.8669 1237.35 Q89.8114 1232.75 89.8114 1224.02 Q89.8114 1215.27 92.8669 1210.69 Q95.9456 1206.08 101.756 1206.08 Z" fill="#000000" fill-rule="evenodd" fill-opacity="1" /><path clip-path="url(#clip220)" d="M121.918 1235.38 L126.802 1235.38 L126.802 1241.26 L121.918 1241.26 L121.918 1235.38 Z" fill="#000000" fill-rule="evenodd" fill-opacity="1" /><path clip-path="url(#clip220)" d="M137.033 1206.7 L155.39 1206.7 L155.39 1210.64 L141.316 1210.64 L141.316 1219.11 Q142.334 1218.76 143.353 1218.6 Q144.371 1218.42 145.39 1218.42 Q151.177 1218.42 154.556 1221.59 Q157.936 1224.76 157.936 1230.18 Q157.936 1235.75 154.464 1238.86 Q150.992 1241.94 144.672 1241.94 Q142.496 1241.94 140.228 1241.57 Q137.982 1241.19 135.575 1240.45 L135.575 1235.75 Q137.658 1236.89 139.881 1237.44 Q142.103 1238 144.58 1238 Q148.584 1238 150.922 1235.89 Q153.26 1233.79 153.26 1230.18 Q153.26 1226.57 150.922 1224.46 Q148.584 1222.35 144.58 1222.35 Q142.705 1222.35 140.83 1222.77 Q138.978 1223.19 137.033 1224.07 L137.033 1206.7 Z" fill="#000000" fill-rule="evenodd" fill-opacity="1" /><path clip-path="url(#clip220)" d="M100.76 970.862 Q97.1493 970.862 95.3206 974.427 Q93.515 977.969 93.515 985.098 Q93.515 992.205 95.3206 995.77 Q97.1493 999.311 100.76 999.311 Q104.395 999.311 106.2 995.77 Q108.029 992.205 108.029 985.098 Q108.029 977.969 106.2 974.427 Q104.395 970.862 100.76 970.862 M100.76 967.159 Q106.571 967.159 109.626 971.765 Q112.705 976.348 112.705 985.098 Q112.705 993.825 109.626 998.432 Q106.571 1003.01 100.76 1003.01 Q94.9502 1003.01 91.8715 998.432 Q88.816 993.825 88.816 985.098 Q88.816 976.348 91.8715 971.765 Q94.9502 967.159 100.76 967.159 Z" fill="#000000" fill-rule="evenodd" fill-opacity="1" /><path clip-path="url(#clip220)" d="M120.922 996.464 L125.807 996.464 L125.807 1002.34 L120.922 1002.34 L120.922 996.464 Z" fill="#000000" fill-rule="evenodd" fill-opacity="1" /><path clip-path="url(#clip220)" d="M145.992 970.862 Q142.381 970.862 140.552 974.427 Q138.746 977.969 138.746 985.098 Q138.746 992.205 140.552 995.77 Q142.381 999.311 145.992 999.311 Q149.626 999.311 151.431 995.77 Q153.26 992.205 153.26 985.098 Q153.26 977.969 151.431 974.427 Q149.626 970.862 145.992 970.862 M145.992 967.159 Q151.802 967.159 154.857 971.765 Q157.936 976.348 157.936 985.098 Q157.936 993.825 154.857 998.432 Q151.802 1003.01 145.992 1003.01 Q140.181 1003.01 137.103 998.432 Q134.047 993.825 134.047 985.098 Q134.047 976.348 137.103 971.765 Q140.181 967.159 145.992 967.159 Z" fill="#000000" fill-rule="evenodd" fill-opacity="1" /><path clip-path="url(#clip220)" d="M101.756 731.942 Q98.1447 731.942 96.316 735.507 Q94.5104 739.048 94.5104 746.178 Q94.5104 753.284 96.316 756.849 Q98.1447 760.391 101.756 760.391 Q105.39 760.391 107.196 756.849 Q109.024 753.284 109.024 746.178 Q109.024 739.048 107.196 735.507 Q105.39 731.942 101.756 731.942 M101.756 728.238 Q107.566 728.238 110.621 732.845 Q113.7 737.428 113.7 746.178 Q113.7 754.905 110.621 759.511 Q107.566 764.094 101.756 764.094 Q95.9456 764.094 92.8669 759.511 Q89.8114 754.905 89.8114 746.178 Q89.8114 737.428 92.8669 732.845 Q95.9456 728.238 101.756 728.238 Z" fill="#000000" fill-rule="evenodd" fill-opacity="1" /><path clip-path="url(#clip220)" d="M121.918 757.543 L126.802 757.543 L126.802 763.423 L121.918 763.423 L121.918 757.543 Z" fill="#000000" fill-rule="evenodd" fill-opacity="1" /><path clip-path="url(#clip220)" d="M137.033 728.863 L155.39 728.863 L155.39 732.798 L141.316 732.798 L141.316 741.27 Q142.334 740.923 143.353 740.761 Q144.371 740.576 145.39 740.576 Q151.177 740.576 154.556 743.747 Q157.936 746.919 157.936 752.335 Q157.936 757.914 154.464 761.016 Q150.992 764.094 144.672 764.094 Q142.496 764.094 140.228 763.724 Q137.982 763.354 135.575 762.613 L135.575 757.914 Q137.658 759.048 139.881 759.604 Q142.103 760.159 144.58 760.159 Q148.584 760.159 150.922 758.053 Q153.26 755.946 153.26 752.335 Q153.26 748.724 150.922 746.618 Q148.584 744.511 144.58 744.511 Q142.705 744.511 140.83 744.928 Q138.978 745.344 137.033 746.224 L137.033 728.863 Z" fill="#000000" fill-rule="evenodd" fill-opacity="1" /><path clip-path="url(#clip220)" d="M91.5706 520.567 L99.2095 520.567 L99.2095 494.202 L90.8993 495.868 L90.8993 491.609 L99.1632 489.943 L103.839 489.943 L103.839 520.567 L111.478 520.567 L111.478 524.503 L91.5706 524.503 L91.5706 520.567 Z" fill="#000000" fill-rule="evenodd" fill-opacity="1" /><path clip-path="url(#clip220)" d="M120.922 518.623 L125.807 518.623 L125.807 524.503 L120.922 524.503 L120.922 518.623 Z" fill="#000000" fill-rule="evenodd" fill-opacity="1" /><path clip-path="url(#clip220)" d="M145.992 493.021 Q142.381 493.021 140.552 496.586 Q138.746 500.128 138.746 507.257 Q138.746 514.364 140.552 517.928 Q142.381 521.47 145.992 521.47 Q149.626 521.47 151.431 517.928 Q153.26 514.364 153.26 507.257 Q153.26 500.128 151.431 496.586 Q149.626 493.021 145.992 493.021 M145.992 489.318 Q151.802 489.318 154.857 493.924 Q157.936 498.507 157.936 507.257 Q157.936 515.984 154.857 520.59 Q151.802 525.174 145.992 525.174 Q140.181 525.174 137.103 520.59 Q134.047 515.984 134.047 507.257 Q134.047 498.507 137.103 493.924 Q140.181 489.318 145.992 489.318 Z" fill="#000000" fill-rule="evenodd" fill-opacity="1" /><path clip-path="url(#clip220)" d="M92.566 281.647 L100.205 281.647 L100.205 255.281 L91.8947 256.948 L91.8947 252.689 L100.159 251.022 L104.834 251.022 L104.834 281.647 L112.473 281.647 L112.473 285.582 L92.566 285.582 L92.566 281.647 Z" fill="#000000" fill-rule="evenodd" fill-opacity="1" /><path clip-path="url(#clip220)" d="M121.918 279.702 L126.802 279.702 L126.802 285.582 L121.918 285.582 L121.918 279.702 Z" fill="#000000" fill-rule="evenodd" fill-opacity="1" /><path clip-path="url(#clip220)" d="M137.033 251.022 L155.39 251.022 L155.39 254.957 L141.316 254.957 L141.316 263.429 Q142.334 263.082 143.353 262.92 Q144.371 262.735 145.39 262.735 Q151.177 262.735 154.556 265.906 Q157.936 269.077 157.936 274.494 Q157.936 280.073 154.464 283.175 Q150.992 286.253 144.672 286.253 Q142.496 286.253 140.228 285.883 Q137.982 285.512 135.575 284.772 L135.575 280.073 Q137.658 281.207 139.881 281.763 Q142.103 282.318 144.58 282.318 Q148.584 282.318 150.922 280.212 Q153.26 278.105 153.26 274.494 Q153.26 270.883 150.922 268.776 Q148.584 266.67 144.58 266.67 Q142.705 266.67 140.83 267.087 Q138.978 267.503 137.033 268.383 L137.033 251.022 Z" fill="#000000" fill-rule="evenodd" fill-opacity="1" /><polyline clip-path="url(#clip222)" style="stroke:#009af9; stroke-linecap:butt; stroke-linejoin:round; stroke-width:4; stroke-opacity:1; fill:none" points="
  255.035,1445.72 764.19,1259.12 1273.35,766.846 1782.5,274.574 2291.66,87.9763 
  "/>
<circle clip-path="url(#clip222)" cx="255.035" cy="1445.72" r="14" fill="#009af9" fill-rule="evenodd" fill-opacity="1" stroke="#000000" stroke-opacity="1" stroke-width="3.2"/>
<circle clip-path="url(#clip222)" cx="764.19" cy="1259.12" r="14" fill="#009af9" fill-rule="evenodd" fill-opacity="1" stroke="#000000" stroke-opacity="1" stroke-width="3.2"/>
<circle clip-path="url(#clip222)" cx="1273.35" cy="766.846" r="14" fill="#009af9" fill-rule="evenodd" fill-opacity="1" stroke="#000000" stroke-opacity="1" stroke-width="3.2"/>
<circle clip-path="url(#clip222)" cx="1782.5" cy="274.574" r="14" fill="#009af9" fill-rule="evenodd" fill-opacity="1" stroke="#000000" stroke-opacity="1" stroke-width="3.2"/>
<circle clip-path="url(#clip222)" cx="2291.66" cy="87.9763" r="14" fill="#009af9" fill-rule="evenodd" fill-opacity="1" stroke="#000000" stroke-opacity="1" stroke-width="3.2"/>
<polyline clip-path="url(#clip222)" style="stroke:#e26f46; stroke-linecap:butt; stroke-linejoin:round; stroke-width:4; stroke-opacity:1; fill:none" points="
  255.035,1445.72 274.924,1444.35 458.829,1425.46 569.348,1406.3 662.791,1383.29 764.296,1348.94 857.875,1306.6 908.038,1279.1 958.201,1248.07 1016.32,1207.69 
  1074.44,1162.79 1177.74,1073.75 1268.32,989.78 1367.08,898.075 1466.43,812.071 1521.35,769.127 1576.27,730.161 1628.52,697.006 1680.78,667.702 1735.11,641.183 
  1789.45,618.434 1835.18,601.958 1880.92,587.691 1992.6,560.715 2097.58,543.321 2265.77,526.215 2291.66,524.412 
  "/>
<path clip-path="url(#clip220)" d="
M265.897 250.738 L558.196 250.738 L558.196 95.2176 L265.897 95.2176  Z
  " fill="#ffffff" fill-rule="evenodd" fill-opacity="1"/>
<polyline clip-path="url(#clip220)" style="stroke:#000000; stroke-linecap:butt; stroke-linejoin:round; stroke-width:4; stroke-opacity:1; fill:none" points="
  265.897,250.738 558.196,250.738 558.196,95.2176 265.897,95.2176 265.897,250.738 
  "/>
<polyline clip-path="url(#clip220)" style="stroke:#009af9; stroke-linecap:butt; stroke-linejoin:round; stroke-width:4; stroke-opacity:1; fill:none" points="
  289.884,147.058 433.805,147.058 
  "/>
<circle clip-path="url(#clip220)" cx="361.844" cy="147.058" r="23" fill="#009af9" fill-rule="evenodd" fill-opacity="1" stroke="#000000" stroke-opacity="1" stroke-width="5.12"/>
<path clip-path="url(#clip220)" d="M471.634 166.745 Q469.829 171.375 468.116 172.787 Q466.403 174.199 463.532 174.199 L460.13 174.199 L460.13 170.634 L462.63 170.634 Q464.389 170.634 465.361 169.8 Q466.333 168.967 467.514 165.865 L468.278 163.921 L457.792 138.412 L462.306 138.412 L470.407 158.689 L478.509 138.412 L483.023 138.412 L471.634 166.745 Z" fill="#000000" fill-rule="evenodd" fill-opacity="1" /><path clip-path="url(#clip220)" d="M490.315 160.402 L497.954 160.402 L497.954 134.037 L489.643 135.703 L489.643 131.444 L497.907 129.778 L502.583 129.778 L502.583 160.402 L510.222 160.402 L510.222 164.338 L490.315 164.338 L490.315 160.402 Z" fill="#000000" fill-rule="evenodd" fill-opacity="1" /><polyline clip-path="url(#clip220)" style="stroke:#e26f46; stroke-linecap:butt; stroke-linejoin:round; stroke-width:4; stroke-opacity:1; fill:none" points="
  289.884,198.898 433.805,198.898 
  "/>
<path clip-path="url(#clip220)" d="M471.634 218.585 Q469.829 223.215 468.116 224.627 Q466.403 226.039 463.532 226.039 L460.13 226.039 L460.13 222.474 L462.63 222.474 Q464.389 222.474 465.361 221.64 Q466.333 220.807 467.514 217.705 L468.278 215.761 L457.792 190.252 L462.306 190.252 L470.407 210.529 L478.509 190.252 L483.023 190.252 L471.634 218.585 Z" fill="#000000" fill-rule="evenodd" fill-opacity="1" /><path clip-path="url(#clip220)" d="M493.532 212.242 L509.852 212.242 L509.852 216.178 L487.907 216.178 L487.907 212.242 Q490.569 209.488 495.153 204.858 Q499.759 200.205 500.94 198.863 Q503.185 196.34 504.065 194.604 Q504.967 192.844 504.967 191.155 Q504.967 188.4 503.023 186.664 Q501.102 184.928 498 184.928 Q495.801 184.928 493.347 185.692 Q490.917 186.455 488.139 188.006 L488.139 183.284 Q490.963 182.15 493.417 181.571 Q495.87 180.993 497.907 180.993 Q503.278 180.993 506.472 183.678 Q509.666 186.363 509.666 190.854 Q509.666 192.983 508.856 194.905 Q508.069 196.803 505.963 199.395 Q505.384 200.067 502.282 203.284 Q499.18 206.479 493.532 212.242 Z" fill="#000000" fill-rule="evenodd" fill-opacity="1" /></svg>
