<?xml version="1.0" encoding="utf-8"?>
<svg xmlns="http://www.w3.org/2000/svg" xmlns:xlink="http://www.w3.org/1999/xlink" width="600" height="400" viewBox="0 0 2400 1600">
<defs>
  <clipPath id="clip910">
    <rect x="0" y="0" width="2400" height="1600"/>
  </clipPath>
</defs>
<path clip-path="url(#clip910)" d="
M0 1600 L2400 1600 L2400 0 L0 0  Z
  " fill="#ffffff" fill-rule="evenodd" fill-opacity="1"/>
<defs>
  <clipPath id="clip911">
    <rect x="480" y="0" width="1681" height="1600"/>
  </clipPath>
</defs>
<path clip-path="url(#clip910)" d="
M276.876 1410.9 L2352.76 1410.9 L2352.76 47.2441 L276.876 47.2441  Z
  " fill="#ffffff" fill-rule="evenodd" fill-opacity="1"/>
<defs>
  <clipPath id="clip912">
    <rect x="276" y="47" width="2077" height="1365"/>
  </clipPath>
</defs>
<polyline clip-path="url(#clip912)" style="stroke:#000000; stroke-linecap:butt; stroke-linejoin:round; stroke-width:2; stroke-opacity:0.1; fill:none" points="
  577.067,1410.9 577.067,47.2441 
  "/>
<polyline clip-path="url(#clip912)" style="stroke:#000000; stroke-linecap:butt; stroke-linejoin:round; stroke-width:2; stroke-opacity:0.1; fill:none" points="
  1759.9,1410.9 1759.9,47.2441 
  "/>
<polyline clip-path="url(#clip910)" style="stroke:#000000; stroke-linecap:butt; stroke-linejoin:round; stroke-width:4; stroke-opacity:1; fill:none" points="
  276.876,1410.9 2352.76,1410.9 
  "/>
<polyline clip-path="url(#clip910)" style="stroke:#000000; stroke-linecap:butt; stroke-linejoin:round; stroke-width:4; stroke-opacity:1; fill:none" points="
  577.067,1410.9 577.067,1392 
  "/>
<polyline clip-path="url(#clip910)" style="stroke:#000000; stroke-linecap:butt; stroke-linejoin:round; stroke-width:4; stroke-opacity:1; fill:none" points="
  1759.9,1410.9 1759.9,1392 
  "/>
<path clip-path="url(#clip910)" d="M527.333 1485.02 L534.972 1485.02 L534.972 1458.66 L526.661 1460.32 L526.661 1456.06 L534.925 1454.4 L539.601 1454.4 L539.601 1485.02 L547.24 1485.02 L547.24 1488.96 L527.333 1488.96 L527.333 1485.02 Z" fill="#000000" fill-rule="evenodd" fill-opacity="1" /><path clip-path="url(#clip910)" d="M566.684 1457.48 Q563.073 1457.48 561.245 1461.04 Q559.439 1464.58 559.439 1471.71 Q559.439 1478.82 561.245 1482.38 Q563.073 1485.92 566.684 1485.92 Q570.319 1485.92 572.124 1482.38 Q573.953 1478.82 573.953 1471.71 Q573.953 1464.58 572.124 1461.04 Q570.319 1457.48 566.684 1457.48 M566.684 1453.77 Q572.495 1453.77 575.55 1458.38 Q578.629 1462.96 578.629 1471.71 Q578.629 1480.44 575.55 1485.04 Q572.495 1489.63 566.684 1489.63 Q560.874 1489.63 557.796 1485.04 Q554.74 1480.44 554.74 1471.71 Q554.74 1462.96 557.796 1458.38 Q560.874 1453.77 566.684 1453.77 Z" fill="#000000" fill-rule="evenodd" fill-opacity="1" /><path clip-path="url(#clip910)" d="M578.629 1447.87 L602.74 1447.87 L602.74 1451.07 L578.629 1451.07 L578.629 1447.87 Z" fill="#000000" fill-rule="evenodd" fill-opacity="1" /><path clip-path="url(#clip910)" d="M614.213 1458.35 L627.473 1458.35 L627.473 1461.55 L609.643 1461.55 L609.643 1458.35 Q611.806 1456.11 615.53 1452.35 Q619.272 1448.57 620.232 1447.48 Q622.056 1445.43 622.771 1444.02 Q623.504 1442.59 623.504 1441.22 Q623.504 1438.98 621.924 1437.57 Q620.363 1436.16 617.843 1436.16 Q616.056 1436.16 614.063 1436.78 Q612.088 1437.4 609.831 1438.66 L609.831 1434.82 Q612.125 1433.9 614.119 1433.43 Q616.113 1432.96 617.768 1432.96 Q622.131 1432.96 624.727 1435.14 Q627.322 1437.32 627.322 1440.97 Q627.322 1442.7 626.664 1444.26 Q626.024 1445.8 624.313 1447.91 Q623.843 1448.46 621.322 1451.07 Q618.802 1453.67 614.213 1458.35 Z" fill="#000000" fill-rule="evenodd" fill-opacity="1" /><path clip-path="url(#clip910)" d="M1724.88 1485.02 L1732.52 1485.02 L1732.52 1458.66 L1724.21 1460.32 L1724.21 1456.06 L1732.48 1454.4 L1737.15 1454.4 L1737.15 1485.02 L1744.79 1485.02 L1744.79 1488.96 L1724.88 1488.96 L1724.88 1485.02 Z" fill="#000000" fill-rule="evenodd" fill-opacity="1" /><path clip-path="url(#clip910)" d="M1764.24 1457.48 Q1760.62 1457.48 1758.8 1461.04 Q1756.99 1464.58 1756.99 1471.71 Q1756.99 1478.82 1758.8 1482.38 Q1760.62 1485.92 1764.24 1485.92 Q1767.87 1485.92 1769.68 1482.38 Q1771.5 1478.82 1771.5 1471.71 Q1771.5 1464.58 1769.68 1461.04 Q1767.87 1457.48 1764.24 1457.48 M1764.24 1453.77 Q1770.05 1453.77 1773.1 1458.38 Q1776.18 1462.96 1776.18 1471.71 Q1776.18 1480.44 1773.1 1485.04 Q1770.05 1489.63 1764.24 1489.63 Q1758.43 1489.63 1755.35 1485.04 Q1752.29 1480.44 1752.29 1471.71 Q1752.29 1462.96 1755.35 1458.38 Q1758.43 1453.77 1764.24 1453.77 Z" fill="#000000" fill-rule="evenodd" fill-opacity="1" /><path clip-path="url(#clip910)" d="M1785.89 1435.97 Q1782.95 1435.97 1781.47 1438.86 Q1780 1441.74 1780 1447.53 Q1780 1453.31 1781.47 1456.2 Q1782.95 1459.08 1785.89 1459.08 Q1788.84 1459.08 1790.31 1456.2 Q1791.79 1453.31 1791.79 1447.53 Q1791.79 1441.74 1790.31 1438.86 Q1788.84 1435.97 1785.89 1435.97 M1785.89 1432.96 Q1790.61 1432.96 1793.09 1436.7 Q1795.59 1440.43 1795.59 1447.53 Q1795.59 1454.62 1793.09 1458.37 Q1790.61 1462.09 1785.89 1462.09 Q1781.16 1462.09 1778.66 1458.37 Q1776.18 1454.62 1776.18 1447.53 Q1776.18 1440.43 1778.66 1436.7 Q1781.16 1432.96 1785.89 1432.96 Z" fill="#000000" fill-rule="evenodd" fill-opacity="1" /><path clip-path="url(#clip910)" d="M1174.29 1583.77 L1171.11 1583.77 L1171.08 1574.19 Q1167.74 1574.12 1164.39 1573.42 Q1161.05 1572.69 1157.68 1571.26 L1157.68 1565.53 Q1160.92 1567.57 1164.23 1568.62 Q1167.58 1569.63 1171.11 1569.67 L1171.11 1555.15 Q1164.08 1554.01 1160.86 1551.27 Q1157.68 1548.53 1157.68 1543.76 Q1157.68 1538.57 1161.15 1535.58 Q1164.62 1532.59 1171.11 1532.14 L1171.11 1524.66 L1174.29 1524.66 L1174.29 1532.04 Q1177.25 1532.17 1180.02 1532.68 Q1182.79 1533.16 1185.43 1534.02 L1185.43 1539.59 Q1182.79 1538.25 1179.99 1537.52 Q1177.22 1536.79 1174.29 1536.66 L1174.29 1550.25 Q1181.52 1551.36 1184.92 1554.23 Q1188.33 1557.09 1188.33 1562.06 Q1188.33 1567.44 1184.7 1570.56 Q1181.1 1573.64 1174.29 1574.12 L1174.29 1583.77 M1171.11 1549.68 L1171.11 1536.63 Q1167.42 1537.04 1165.48 1538.73 Q1163.53 1540.42 1163.53 1543.22 Q1163.53 1545.95 1165.32 1547.48 Q1167.13 1549.01 1171.11 1549.68 M1174.29 1555.79 L1174.29 1569.57 Q1178.33 1569.03 1180.37 1567.28 Q1182.44 1565.53 1182.44 1562.66 Q1182.44 1559.86 1180.47 1558.21 Q1178.53 1556.55 1174.29 1555.79 Z" fill="#000000" fill-rule="evenodd" fill-opacity="1" /><path clip-path="url(#clip910)" d="M1199.15 1526.67 L1215.7 1580.23 L1210.29 1580.23 L1193.74 1526.67 L1199.15 1526.67 Z" fill="#000000" fill-rule="evenodd" fill-opacity="1" /><path clip-path="url(#clip910)" d="M1228.53 1531.95 L1228.53 1568.9 L1236.29 1568.9 Q1246.13 1568.9 1250.68 1564.45 Q1255.26 1559.99 1255.26 1550.38 Q1255.26 1540.83 1250.68 1536.4 Q1246.13 1531.95 1236.29 1531.95 L1228.53 1531.95 M1222.1 1526.67 L1235.31 1526.67 Q1249.12 1526.67 1255.58 1532.43 Q1262.04 1538.16 1262.04 1550.38 Q1262.04 1562.66 1255.55 1568.42 Q1249.06 1574.19 1235.31 1574.19 L1222.1 1574.19 L1222.1 1526.67 Z" fill="#000000" fill-rule="evenodd" fill-opacity="1" /><path clip-path="url(#clip910)" d="M1302.53 1554.9 L1302.53 1557.76 L1275.6 1557.76 Q1275.98 1563.81 1279.23 1566.99 Q1282.51 1570.14 1288.33 1570.14 Q1291.71 1570.14 1294.86 1569.32 Q1298.04 1568.49 1301.16 1566.83 L1301.16 1572.37 Q1298.01 1573.71 1294.7 1574.41 Q1291.39 1575.11 1287.98 1575.11 Q1279.45 1575.11 1274.46 1570.14 Q1269.49 1565.18 1269.49 1556.71 Q1269.49 1547.96 1274.2 1542.83 Q1278.94 1537.68 1286.97 1537.68 Q1294.16 1537.68 1298.33 1542.33 Q1302.53 1546.94 1302.53 1554.9 M1296.67 1553.18 Q1296.61 1548.37 1293.97 1545.51 Q1291.36 1542.64 1287.03 1542.64 Q1282.13 1542.64 1279.17 1545.41 Q1276.24 1548.18 1275.79 1553.21 L1296.67 1553.18 Z" fill="#000000" fill-rule="evenodd" fill-opacity="1" /><path clip-path="url(#clip910)" d="M1312.14 1524.66 L1318 1524.66 L1318 1574.19 L1312.14 1574.19 L1312.14 1524.66 Z" fill="#000000" fill-rule="evenodd" fill-opacity="1" /><path clip-path="url(#clip910)" d="M1336.05 1528.42 L1336.05 1538.54 L1348.11 1538.54 L1348.11 1543.09 L1336.05 1543.09 L1336.05 1562.44 Q1336.05 1566.8 1337.22 1568.04 Q1338.43 1569.28 1342.09 1569.28 L1348.11 1569.28 L1348.11 1574.19 L1342.09 1574.19 Q1335.31 1574.19 1332.74 1571.67 Q1330.16 1569.12 1330.16 1562.44 L1330.16 1543.09 L1325.86 1543.09 L1325.86 1538.54 L1330.16 1538.54 L1330.16 1528.42 L1336.05 1528.42 Z" fill="#000000" fill-rule="evenodd" fill-opacity="1" /><path clip-path="url(#clip910)" d="M1372.01 1556.27 Q1364.91 1556.27 1362.18 1557.89 Q1359.44 1559.51 1359.44 1563.43 Q1359.44 1566.55 1361.48 1568.39 Q1363.55 1570.21 1367.08 1570.21 Q1371.95 1570.21 1374.88 1566.77 Q1377.84 1563.3 1377.84 1557.57 L1377.84 1556.27 L1372.01 1556.27 M1383.69 1553.85 L1383.69 1574.19 L1377.84 1574.19 L1377.84 1568.77 Q1375.83 1572.02 1372.84 1573.58 Q1369.85 1575.11 1365.52 1575.11 Q1360.04 1575.11 1356.8 1572.05 Q1353.58 1568.97 1353.58 1563.81 Q1353.58 1557.79 1357.59 1554.74 Q1361.64 1551.68 1369.62 1551.68 L1377.84 1551.68 L1377.84 1551.11 Q1377.84 1547.07 1375.16 1544.87 Q1372.52 1542.64 1367.71 1542.64 Q1364.66 1542.64 1361.76 1543.38 Q1358.87 1544.11 1356.19 1545.57 L1356.19 1540.16 Q1359.41 1538.92 1362.43 1538.31 Q1365.45 1537.68 1368.32 1537.68 Q1376.05 1537.68 1379.87 1541.69 Q1383.69 1545.7 1383.69 1553.85 Z" fill="#000000" fill-rule="evenodd" fill-opacity="1" /><path clip-path="url(#clip910)" d="M1422.27 1528.42 L1422.27 1538.54 L1434.33 1538.54 L1434.33 1543.09 L1422.27 1543.09 L1422.27 1562.44 Q1422.27 1566.8 1423.45 1568.04 Q1424.66 1569.28 1428.32 1569.28 L1434.33 1569.28 L1434.33 1574.19 L1428.32 1574.19 Q1421.54 1574.19 1418.96 1571.67 Q1416.38 1569.12 1416.38 1562.44 L1416.38 1543.09 L1412.08 1543.09 L1412.08 1538.54 L1416.38 1538.54 L1416.38 1528.42 L1422.27 1528.42 Z" fill="#000000" fill-rule="evenodd" fill-opacity="1" /><path clip-path="url(#clip910)" d="M1457.92 1583.77 L1454.73 1583.77 L1454.7 1574.19 Q1451.36 1574.12 1448.02 1573.42 Q1444.68 1572.69 1441.3 1571.26 L1441.3 1565.53 Q1444.55 1567.57 1447.86 1568.62 Q1451.2 1569.63 1454.73 1569.67 L1454.73 1555.15 Q1447.7 1554.01 1444.49 1551.27 Q1441.3 1548.53 1441.3 1543.76 Q1441.3 1538.57 1444.77 1535.58 Q1448.24 1532.59 1454.73 1532.14 L1454.73 1524.66 L1457.92 1524.66 L1457.92 1532.04 Q1460.88 1532.17 1463.65 1532.68 Q1466.42 1533.16 1469.06 1534.02 L1469.06 1539.59 Q1466.42 1538.25 1463.61 1537.52 Q1460.85 1536.79 1457.92 1536.66 L1457.92 1550.25 Q1465.14 1551.36 1468.55 1554.23 Q1471.95 1557.09 1471.95 1562.06 Q1471.95 1567.44 1468.32 1570.56 Q1464.73 1573.64 1457.92 1574.12 L1457.92 1583.77 M1454.73 1549.68 L1454.73 1536.63 Q1451.04 1537.04 1449.1 1538.73 Q1447.16 1540.42 1447.16 1543.22 Q1447.16 1545.95 1448.94 1547.48 Q1450.76 1549.01 1454.73 1549.68 M1457.92 1555.79 L1457.92 1569.57 Q1461.96 1569.03 1464 1567.28 Q1466.06 1565.53 1466.06 1562.66 Q1466.06 1559.86 1464.09 1558.21 Q1462.15 1556.55 1457.92 1555.79 Z" fill="#000000" fill-rule="evenodd" fill-opacity="1" /><polyline clip-path="url(#clip912)" style="stroke:#000000; stroke-linecap:butt; stroke-linejoin:round; stroke-width:2; stroke-opacity:0.1; fill:none" points="
  276.876,1265.29 2352.76,1265.29 
  "/>
<polyline clip-path="url(#clip912)" style="stroke:#000000; stroke-linecap:butt; stroke-linejoin:round; stroke-width:2; stroke-opacity:0.1; fill:none" points="
  276.876,832.061 2352.76,832.061 
  "/>
<polyline clip-path="url(#clip912)" style="stroke:#000000; stroke-linecap:butt; stroke-linejoin:round; stroke-width:2; stroke-opacity:0.1; fill:none" points="
  276.876,398.833 2352.76,398.833 
  "/>
<polyline clip-path="url(#clip910)" style="stroke:#000000; stroke-linecap:butt; stroke-linejoin:round; stroke-width:4; stroke-opacity:1; fill:none" points="
  276.876,1410.9 276.876,47.2441 
  "/>
<polyline clip-path="url(#clip910)" style="stroke:#000000; stroke-linecap:butt; stroke-linejoin:round; stroke-width:4; stroke-opacity:1; fill:none" points="
  276.876,1265.29 295.773,1265.29 
  "/>
<polyline clip-path="url(#clip910)" style="stroke:#000000; stroke-linecap:butt; stroke-linejoin:round; stroke-width:4; stroke-opacity:1; fill:none" points="
  276.876,832.061 295.773,832.061 
  "/>
<polyline clip-path="url(#clip910)" style="stroke:#000000; stroke-linecap:butt; stroke-linejoin:round; stroke-width:4; stroke-opacity:1; fill:none" points="
  276.876,398.833 295.773,398.833 
  "/>
<path clip-path="url(#clip910)" d="M114.931 1285.08 L122.57 1285.08 L122.57 1258.72 L114.26 1260.38 L114.26 1256.12 L122.524 1254.46 L127.2 1254.46 L127.2 1285.08 L134.839 1285.08 L134.839 1289.02 L114.931 1289.02 L114.931 1285.08 Z" fill="#000000" fill-rule="evenodd" fill-opacity="1" /><path clip-path="url(#clip910)" d="M154.283 1257.53 Q150.672 1257.53 148.843 1261.1 Q147.038 1264.64 147.038 1271.77 Q147.038 1278.88 148.843 1282.44 Q150.672 1285.98 154.283 1285.98 Q157.917 1285.98 159.723 1282.44 Q161.552 1278.88 161.552 1271.77 Q161.552 1264.64 159.723 1261.1 Q157.917 1257.53 154.283 1257.53 M154.283 1253.83 Q160.093 1253.83 163.149 1258.44 Q166.227 1263.02 166.227 1271.77 Q166.227 1280.5 163.149 1285.1 Q160.093 1289.69 154.283 1289.69 Q148.473 1289.69 145.394 1285.1 Q142.339 1280.5 142.339 1271.77 Q142.339 1263.02 145.394 1258.44 Q148.473 1253.83 154.283 1253.83 Z" fill="#000000" fill-rule="evenodd" fill-opacity="1" /><path clip-path="url(#clip910)" d="M166.227 1247.93 L190.339 1247.93 L190.339 1251.13 L166.227 1251.13 L166.227 1247.93 Z" fill="#000000" fill-rule="evenodd" fill-opacity="1" /><path clip-path="url(#clip910)" d="M199.197 1258.41 L205.404 1258.41 L205.404 1236.99 L198.652 1238.34 L198.652 1234.88 L205.366 1233.53 L209.166 1233.53 L209.166 1258.41 L215.372 1258.41 L215.372 1261.61 L199.197 1261.61 L199.197 1258.41 Z" fill="#000000" fill-rule="evenodd" fill-opacity="1" /><path clip-path="url(#clip910)" d="M231.171 1236.03 Q228.237 1236.03 226.751 1238.92 Q225.284 1241.8 225.284 1247.59 Q225.284 1253.37 226.751 1256.26 Q228.237 1259.14 231.171 1259.14 Q234.124 1259.14 235.591 1256.26 Q237.076 1253.37 237.076 1247.59 Q237.076 1241.8 235.591 1238.92 Q234.124 1236.03 231.171 1236.03 M231.171 1233.02 Q235.891 1233.02 238.374 1236.76 Q240.876 1240.48 240.876 1247.59 Q240.876 1254.68 238.374 1258.43 Q235.891 1262.15 231.171 1262.15 Q226.45 1262.15 223.949 1258.43 Q221.466 1254.68 221.466 1247.59 Q221.466 1240.48 223.949 1236.76 Q226.45 1233.02 231.171 1233.02 Z" fill="#000000" fill-rule="evenodd" fill-opacity="1" /><path clip-path="url(#clip910)" d="M140.247 851.853 L147.886 851.853 L147.886 825.488 L139.575 827.154 L139.575 822.895 L147.839 821.228 L152.515 821.228 L152.515 851.853 L160.154 851.853 L160.154 855.788 L140.247 855.788 L140.247 851.853 Z" fill="#000000" fill-rule="evenodd" fill-opacity="1" /><path clip-path="url(#clip910)" d="M179.598 824.307 Q175.987 824.307 174.159 827.872 Q172.353 831.413 172.353 838.543 Q172.353 845.649 174.159 849.214 Q175.987 852.756 179.598 852.756 Q183.233 852.756 185.038 849.214 Q186.867 845.649 186.867 838.543 Q186.867 831.413 185.038 827.872 Q183.233 824.307 179.598 824.307 M179.598 820.603 Q185.409 820.603 188.464 825.21 Q191.543 829.793 191.543 838.543 Q191.543 847.27 188.464 851.876 Q185.409 856.46 179.598 856.46 Q173.788 856.46 170.71 851.876 Q167.654 847.27 167.654 838.543 Q167.654 829.793 170.71 825.21 Q173.788 820.603 179.598 820.603 Z" fill="#000000" fill-rule="evenodd" fill-opacity="1" /><path clip-path="url(#clip910)" d="M191.543 814.705 L215.654 814.705 L215.654 817.902 L191.543 817.902 L191.543 814.705 Z" fill="#000000" fill-rule="evenodd" fill-opacity="1" /><path clip-path="url(#clip910)" d="M223.892 800.298 L238.807 800.298 L238.807 803.495 L227.372 803.495 L227.372 810.379 Q228.199 810.097 229.027 809.965 Q229.854 809.815 230.682 809.815 Q235.384 809.815 238.13 812.391 Q240.876 814.968 240.876 819.369 Q240.876 823.902 238.054 826.422 Q235.233 828.923 230.099 828.923 Q228.331 828.923 226.488 828.622 Q224.663 828.321 222.707 827.72 L222.707 823.902 Q224.4 824.823 226.205 825.275 Q228.011 825.726 230.023 825.726 Q233.277 825.726 235.177 824.015 Q237.076 822.303 237.076 819.369 Q237.076 816.435 235.177 814.723 Q233.277 813.012 230.023 813.012 Q228.5 813.012 226.977 813.35 Q225.472 813.689 223.892 814.404 L223.892 800.298 Z" fill="#000000" fill-rule="evenodd" fill-opacity="1" /><path clip-path="url(#clip910)" d="M170.17 418.625 L177.809 418.625 L177.809 392.26 L169.499 393.926 L169.499 389.667 L177.762 388.001 L182.438 388.001 L182.438 418.625 L190.077 418.625 L190.077 422.561 L170.17 422.561 L170.17 418.625 Z" fill="#000000" fill-rule="evenodd" fill-opacity="1" /><path clip-path="url(#clip910)" d="M209.522 391.079 Q205.91 391.079 204.082 394.644 Q202.276 398.186 202.276 405.315 Q202.276 412.422 204.082 415.987 Q205.91 419.528 209.522 419.528 Q213.156 419.528 214.961 415.987 Q216.79 412.422 216.79 405.315 Q216.79 398.186 214.961 394.644 Q213.156 391.079 209.522 391.079 M209.522 387.376 Q215.332 387.376 218.387 391.982 Q221.466 396.565 221.466 405.315 Q221.466 414.042 218.387 418.649 Q215.332 423.232 209.522 423.232 Q203.711 423.232 200.633 418.649 Q197.577 414.042 197.577 405.315 Q197.577 396.565 200.633 391.982 Q203.711 387.376 209.522 387.376 Z" fill="#000000" fill-rule="evenodd" fill-opacity="1" /><path clip-path="url(#clip910)" d="M231.171 369.572 Q228.237 369.572 226.751 372.468 Q225.284 375.346 225.284 381.138 Q225.284 386.912 226.751 389.809 Q228.237 392.686 231.171 392.686 Q234.124 392.686 235.591 389.809 Q237.076 386.912 237.076 381.138 Q237.076 375.346 235.591 372.468 Q234.124 369.572 231.171 369.572 M231.171 366.562 Q235.891 366.562 238.374 370.305 Q240.876 374.029 240.876 381.138 Q240.876 388.229 238.374 391.972 Q235.891 395.696 231.171 395.696 Q226.45 395.696 223.949 391.972 Q221.466 388.229 221.466 381.138 Q221.466 374.029 223.949 370.305 Q226.45 366.562 231.171 366.562 Z" fill="#000000" fill-rule="evenodd" fill-opacity="1" /><path clip-path="url(#clip910)" d="M44.7161 773.137 L47.5806 773.137 L47.5806 800.064 Q53.6281 799.682 56.8109 796.435 Q59.9619 793.157 59.9619 787.332 Q59.9619 783.959 59.1344 780.808 Q58.3069 777.625 56.6518 774.506 L62.1899 774.506 Q63.5267 777.657 64.227 780.967 Q64.9272 784.277 64.9272 787.683 Q64.9272 796.213 59.9619 801.21 Q54.9967 806.175 46.5303 806.175 Q37.7774 806.175 32.6531 801.464 Q27.4968 796.722 27.4968 788.701 Q27.4968 781.508 32.1438 777.338 Q36.7589 773.137 44.7161 773.137 M42.9973 778.993 Q38.1912 779.057 35.3266 781.699 Q32.4621 784.309 32.4621 788.637 Q32.4621 793.539 35.2312 796.499 Q38.0002 799.427 43.0292 799.873 L42.9973 778.993 Z" fill="#000000" fill-rule="evenodd" fill-opacity="1" /><path clip-path="url(#clip910)" d="M33.8307 742.868 Q33.2578 743.855 33.0032 745.032 Q32.7167 746.178 32.7167 747.579 Q32.7167 752.544 35.9632 755.218 Q39.1779 757.859 45.2253 757.859 L64.0042 757.859 L64.0042 763.748 L28.3562 763.748 L28.3562 757.859 L33.8944 757.859 Q30.6479 756.013 29.0883 753.053 Q27.4968 750.093 27.4968 745.86 Q27.4968 745.255 27.5923 744.523 Q27.656 743.791 27.8151 742.9 L33.8307 742.868 Z" fill="#000000" fill-rule="evenodd" fill-opacity="1" /><path clip-path="url(#clip910)" d="M33.8307 717.214 Q33.2578 718.201 33.0032 719.379 Q32.7167 720.524 32.7167 721.925 Q32.7167 726.89 35.9632 729.564 Q39.1779 732.205 45.2253 732.205 L64.0042 732.205 L64.0042 738.094 L28.3562 738.094 L28.3562 732.205 L33.8944 732.205 Q30.6479 730.359 29.0883 727.399 Q27.4968 724.439 27.4968 720.206 Q27.4968 719.601 27.5923 718.869 Q27.656 718.137 27.8151 717.246 L33.8307 717.214 Z" fill="#000000" fill-rule="evenodd" fill-opacity="1" /><path clip-path="url(#clip910)" d="M32.4621 698.69 Q32.4621 703.401 36.1542 706.138 Q39.8145 708.875 46.212 708.875 Q52.6095 708.875 56.3017 706.17 Q59.9619 703.432 59.9619 698.69 Q59.9619 694.011 56.2698 691.274 Q52.5777 688.537 46.212 688.537 Q39.8781 688.537 36.186 691.274 Q32.4621 694.011 32.4621 698.69 M27.4968 698.69 Q27.4968 691.051 32.4621 686.691 Q37.4273 682.33 46.212 682.33 Q54.9649 682.33 59.9619 686.691 Q64.9272 691.051 64.9272 698.69 Q64.9272 706.361 59.9619 710.721 Q54.9649 715.05 46.212 715.05 Q37.4273 715.05 32.4621 710.721 Q27.4968 706.361 27.4968 698.69 Z" fill="#000000" fill-rule="evenodd" fill-opacity="1" /><path clip-path="url(#clip910)" d="M33.8307 651.966 Q33.2578 652.952 33.0032 654.13 Q32.7167 655.276 32.7167 656.676 Q32.7167 661.642 35.9632 664.315 Q39.1779 666.957 45.2253 666.957 L64.0042 666.957 L64.0042 672.845 L28.3562 672.845 L28.3562 666.957 L33.8944 666.957 Q30.6479 665.111 29.0883 662.151 Q27.4968 659.191 27.4968 654.958 Q27.4968 654.353 27.5923 653.621 Q27.656 652.889 27.8151 651.998 L33.8307 651.966 Z" fill="#000000" fill-rule="evenodd" fill-opacity="1" /><polyline clip-path="url(#clip912)" style="stroke:#009af9; stroke-linecap:butt; stroke-linejoin:round; stroke-width:20; stroke-opacity:1; fill:none" points="
  2294,348.554 2115.97,348.554 1937.94,383.162 1759.9,421.41 1581.87,476.546 1403.83,529.192 1225.8,581.411 1047.76,633.58 869.73,685.745 691.696,737.911 
  513.661,790.077 335.627,842.242 
  "/>
<circle clip-path="url(#clip912)" cx="2294" cy="348.554" r="14" fill="#009af9" fill-rule="evenodd" fill-opacity="1" stroke="#000000" stroke-opacity="1" stroke-width="3.2"/>
<circle clip-path="url(#clip912)" cx="2115.97" cy="348.554" r="14" fill="#009af9" fill-rule="evenodd" fill-opacity="1" stroke="#000000" stroke-opacity="1" stroke-width="3.2"/>
<circle clip-path="url(#clip912)" cx="1937.94" cy="383.162" r="14" fill="#009af9" fill-rule="evenodd" fill-opacity="1" stroke="#000000" stroke-opacity="1" stroke-width="3.2"/>
<circle clip-path="url(#clip912)" cx="1759.9" cy="421.41" r="14" fill="#009af9" fill-rule="evenodd" fill-opacity="1" stroke="#000000" stroke-opacity="1" stroke-width="3.2"/>
<circle clip-path="url(#clip912)" cx="1581.87" cy="476.546" r="14" fill="#009af9" fill-rule="evenodd" fill-opacity="1" stroke="#000000" stroke-opacity="1" stroke-width="3.2"/>
<circle clip-path="url(#clip912)" cx="1403.83" cy="529.192" r="14" fill="#009af9" fill-rule="evenodd" fill-opacity="1" stroke="#000000" stroke-opacity="1" stroke-width="3.2"/>
<circle clip-path="url(#clip912)" cx="1225.8" cy="581.411" r="14" fill="#009af9" fill-rule="evenodd" fill-opacity="1" stroke="#000000" stroke-opacity="1" stroke-width="3.2"/>
<circle clip-path="url(#clip912)" cx="1047.76" cy="633.58" r="14" fill="#009af9" fill-rule="evenodd" fill-opacity="1" stroke="#000000" stroke-opacity="1" stroke-width="3.2"/>
<circle clip-path="url(#clip912)" cx="869.73" cy="685.745" r="14" fill="#009af9" fill-rule="evenodd" fill-opacity="1" stroke="#000000" stroke-opacity="1" stroke-width="3.2"/>
<circle clip-path="url(#clip912)" cx="691.696" cy="737.911" r="14" fill="#009af9" fill-rule="evenodd" fill-opacity="1" stroke="#000000" stroke-opacity="1" stroke-width="3.2"/>
<circle clip-path="url(#clip912)" cx="513.661" cy="790.077" r="14" fill="#009af9" fill-rule="evenodd" fill-opacity="1" stroke="#000000" stroke-opacity="1" stroke-width="3.2"/>
<circle clip-path="url(#clip912)" cx="335.627" cy="842.242" r="14" fill="#009af9" fill-rule="evenodd" fill-opacity="1" stroke="#000000" stroke-opacity="1" stroke-width="3.2"/>
<polyline clip-path="url(#clip912)" style="stroke:#e26f46; stroke-linecap:butt; stroke-linejoin:round; stroke-width:20; stroke-opacity:1; fill:none" points="
  2294,375.58 2115.97,375.58 1937.94,449.469 1759.9,538.247 1581.87,642.079 1403.83,746.331 1225.8,850.645 1047.76,954.972 869.73,1059.3 691.696,1163.63 
  513.661,1267.97 335.627,1372.3 
  "/>
<path clip-path="url(#clip912)" d="M2278 359.58 L2278 391.58 L2310 391.58 L2310 359.58 L2278 359.58 Z" fill="#e26f46" fill-rule="evenodd" fill-opacity="1" stroke="#000000" stroke-opacity="1" stroke-width="3.2"/>
<path clip-path="url(#clip912)" d="M2099.97 359.58 L2099.97 391.58 L2131.97 391.58 L2131.97 359.58 L2099.97 359.58 Z" fill="#e26f46" fill-rule="evenodd" fill-opacity="1" stroke="#000000" stroke-opacity="1" stroke-width="3.2"/>
<path clip-path="url(#clip912)" d="M1921.94 433.469 L1921.94 465.469 L1953.94 465.469 L1953.94 433.469 L1921.94 433.469 Z" fill="#e26f46" fill-rule="evenodd" fill-opacity="1" stroke="#000000" stroke-opacity="1" stroke-width="3.2"/>
<path clip-path="url(#clip912)" d="M1743.9 522.247 L1743.9 554.247 L1775.9 554.247 L1775.9 522.247 L1743.9 522.247 Z" fill="#e26f46" fill-rule="evenodd" fill-opacity="1" stroke="#000000" stroke-opacity="1" stroke-width="3.2"/>
<path clip-path="url(#clip912)" d="M1565.87 626.079 L1565.87 658.079 L1597.87 658.079 L1597.87 626.079 L1565.87 626.079 Z" fill="#e26f46" fill-rule="evenodd" fill-opacity="1" stroke="#000000" stroke-opacity="1" stroke-width="3.2"/>
<path clip-path="url(#clip912)" d="M1387.83 730.331 L1387.83 762.331 L1419.83 762.331 L1419.83 730.331 L1387.83 730.331 Z" fill="#e26f46" fill-rule="evenodd" fill-opacity="1" stroke="#000000" stroke-opacity="1" stroke-width="3.2"/>
<path clip-path="url(#clip912)" d="M1209.8 834.645 L1209.8 866.645 L1241.8 866.645 L1241.8 834.645 L1209.8 834.645 Z" fill="#e26f46" fill-rule="evenodd" fill-opacity="1" stroke="#000000" stroke-opacity="1" stroke-width="3.2"/>
<path clip-path="url(#clip912)" d="M1031.76 938.972 L1031.76 970.972 L1063.76 970.972 L1063.76 938.972 L1031.76 938.972 Z" fill="#e26f46" fill-rule="evenodd" fill-opacity="1" stroke="#000000" stroke-opacity="1" stroke-width="3.2"/>
<path clip-path="url(#clip912)" d="M853.73 1043.3 L853.73 1075.3 L885.73 1075.3 L885.73 1043.3 L853.73 1043.3 Z" fill="#e26f46" fill-rule="evenodd" fill-opacity="1" stroke="#000000" stroke-opacity="1" stroke-width="3.2"/>
<path clip-path="url(#clip912)" d="M675.696 1147.63 L675.696 1179.63 L707.696 1179.63 L707.696 1147.63 L675.696 1147.63 Z" fill="#e26f46" fill-rule="evenodd" fill-opacity="1" stroke="#000000" stroke-opacity="1" stroke-width="3.2"/>
<path clip-path="url(#clip912)" d="M497.661 1251.97 L497.661 1283.97 L529.661 1283.97 L529.661 1251.97 L497.661 1251.97 Z" fill="#e26f46" fill-rule="evenodd" fill-opacity="1" stroke="#000000" stroke-opacity="1" stroke-width="3.2"/>
<path clip-path="url(#clip912)" d="M319.627 1356.3 L319.627 1388.3 L351.627 1388.3 L351.627 1356.3 L319.627 1356.3 Z" fill="#e26f46" fill-rule="evenodd" fill-opacity="1" stroke="#000000" stroke-opacity="1" stroke-width="3.2"/>
<polyline clip-path="url(#clip912)" style="stroke:#3da44d; stroke-linecap:butt; stroke-linejoin:round; stroke-width:20; stroke-opacity:1; fill:none" points="
  2294,320.584 2115.97,346.667 1937.94,372.75 1759.9,398.833 1581.87,424.916 1403.83,450.999 1225.8,477.082 1047.76,503.165 869.73,529.247 691.696,555.33 
  513.661,581.413 335.627,607.496 
  "/>
<polyline clip-path="url(#clip912)" style="stroke:#c271d2; stroke-linecap:butt; stroke-linejoin:round; stroke-width:20; stroke-opacity:1; fill:none" points="
  2294,242.335 2115.97,294.501 1937.94,346.667 1759.9,398.833 1581.87,450.999 1403.83,503.165 1225.8,555.33 1047.76,607.496 869.73,659.662 691.696,711.828 
  513.661,763.994 335.627,816.16 
  "/>
<polyline clip-path="url(#clip912)" style="stroke:#ac8d18; stroke-linecap:butt; stroke-linejoin:round; stroke-width:20; stroke-opacity:1; fill:none" points="
  2294,164.087 2115.97,242.335 1937.94,320.584 1759.9,398.833 1581.87,477.082 1403.83,555.33 1225.8,633.579 1047.76,711.828 869.73,790.077 691.696,868.325 
  513.661,946.574 335.627,1024.82 
  "/>
<polyline clip-path="url(#clip912)" style="stroke:#00a9ad; stroke-linecap:butt; stroke-linejoin:round; stroke-width:20; stroke-opacity:1; fill:none" points="
  2294,85.838 2115.97,190.17 1937.94,294.501 1759.9,398.833 1581.87,503.165 1403.83,607.496 1225.8,711.828 1047.76,816.16 869.73,920.491 691.696,1024.82 
  513.661,1129.15 335.627,1233.49 
  "/>
<path clip-path="url(#clip910)" d="
M346.072 455.579 L729.108 455.579 L729.108 92.6992 L346.072 92.6992  Z
  " fill="#ffffff" fill-rule="evenodd" fill-opacity="1"/>
<polyline clip-path="url(#clip910)" style="stroke:#000000; stroke-linecap:butt; stroke-linejoin:round; stroke-width:4; stroke-opacity:1; fill:none" points="
  346.072,455.579 729.108,455.579 729.108,92.6992 346.072,92.6992 346.072,455.579 
  "/>
<polyline clip-path="url(#clip910)" style="stroke:#009af9; stroke-linecap:butt; stroke-linejoin:round; stroke-width:4; stroke-opacity:1; fill:none" points="
  369.137,144.539 507.529,144.539 
  "/>
<circle clip-path="url(#clip910)" cx="438.333" cy="144.539" r="23" fill="#009af9" fill-rule="evenodd" fill-opacity="1" stroke="#000000" stroke-opacity="1" stroke-width="5.12"/>
<path clip-path="url(#clip910)" d="M552.307 146.171 L552.307 161.819 L548.048 161.819 L548.048 146.31 Q548.048 142.629 546.613 140.801 Q545.177 138.972 542.307 138.972 Q538.858 138.972 536.867 141.171 Q534.877 143.37 534.877 147.166 L534.877 161.819 L530.594 161.819 L530.594 125.801 L534.877 125.801 L534.877 139.921 Q536.404 137.583 538.465 136.426 Q540.548 135.268 543.256 135.268 Q547.724 135.268 550.015 138.046 Q552.307 140.801 552.307 146.171 Z" fill="#000000" fill-rule="evenodd" fill-opacity="1" /><path clip-path="url(#clip910)" d="M582.978 147.791 L582.978 149.875 L563.395 149.875 Q563.673 154.273 566.034 156.588 Q568.418 158.879 572.654 158.879 Q575.108 158.879 577.4 158.278 Q579.714 157.676 581.983 156.472 L581.983 160.5 Q579.691 161.472 577.284 161.981 Q574.876 162.49 572.4 162.49 Q566.196 162.49 562.562 158.879 Q558.951 155.268 558.951 149.111 Q558.951 142.745 562.376 139.018 Q565.826 135.268 571.659 135.268 Q576.89 135.268 579.923 138.648 Q582.978 142.004 582.978 147.791 M578.719 146.541 Q578.673 143.046 576.751 140.963 Q574.853 138.879 571.705 138.879 Q568.14 138.879 565.988 140.893 Q563.858 142.907 563.534 146.565 L578.719 146.541 Z" fill="#000000" fill-rule="evenodd" fill-opacity="1" /><path clip-path="url(#clip910)" d="M589.529 151.588 L589.529 135.893 L593.788 135.893 L593.788 151.426 Q593.788 155.106 595.224 156.958 Q596.659 158.787 599.529 158.787 Q602.978 158.787 604.969 156.588 Q606.983 154.389 606.983 150.592 L606.983 135.893 L611.242 135.893 L611.242 161.819 L606.983 161.819 L606.983 157.838 Q605.432 160.199 603.372 161.356 Q601.335 162.49 598.626 162.49 Q594.159 162.49 591.844 159.713 Q589.529 156.935 589.529 151.588 M600.247 135.268 L600.247 135.268 Z" fill="#000000" fill-rule="evenodd" fill-opacity="1" /><path clip-path="url(#clip910)" d="M641.566 146.171 L641.566 161.819 L637.307 161.819 L637.307 146.31 Q637.307 142.629 635.871 140.801 Q634.436 138.972 631.566 138.972 Q628.117 138.972 626.126 141.171 Q624.135 143.37 624.135 147.166 L624.135 161.819 L619.853 161.819 L619.853 135.893 L624.135 135.893 L624.135 139.921 Q625.663 137.583 627.723 136.426 Q629.807 135.268 632.515 135.268 Q636.983 135.268 639.274 138.046 Q641.566 140.801 641.566 146.171 Z" fill="#000000" fill-rule="evenodd" fill-opacity="1" /><polyline clip-path="url(#clip910)" style="stroke:#e26f46; stroke-linecap:butt; stroke-linejoin:round; stroke-width:4; stroke-opacity:1; fill:none" points="
  369.137,196.379 507.529,196.379 
  "/>
<path clip-path="url(#clip910)" d="M412.733 170.779 L412.733 221.979 L463.933 221.979 L463.933 170.779 L412.733 170.779 Z" fill="#e26f46" fill-rule="evenodd" fill-opacity="1" stroke="#000000" stroke-opacity="1" stroke-width="5.12"/>
<path clip-path="url(#clip910)" d="M545.779 191.715 Q545.062 191.298 544.205 191.113 Q543.372 190.905 542.353 190.905 Q538.742 190.905 536.798 193.266 Q534.877 195.604 534.877 200.002 L534.877 213.659 L530.594 213.659 L530.594 187.733 L534.877 187.733 L534.877 191.761 Q536.219 189.4 538.372 188.266 Q540.525 187.108 543.603 187.108 Q544.043 187.108 544.576 187.178 Q545.108 187.224 545.756 187.34 L545.779 191.715 Z" fill="#000000" fill-rule="evenodd" fill-opacity="1" /><path clip-path="url(#clip910)" d="M550.085 177.641 L554.367 177.641 L554.367 198.914 L567.076 187.733 L572.515 187.733 L558.765 199.863 L573.094 213.659 L567.538 213.659 L554.367 200.997 L554.367 213.659 L550.085 213.659 L550.085 177.641 Z" fill="#000000" fill-rule="evenodd" fill-opacity="1" /><path clip-path="url(#clip910)" d="M591.149 183.173 L579.344 201.622 L591.149 201.622 L591.149 183.173 M589.923 179.099 L595.802 179.099 L595.802 201.622 L600.733 201.622 L600.733 205.511 L595.802 205.511 L595.802 213.659 L591.149 213.659 L591.149 205.511 L575.548 205.511 L575.548 200.997 L589.923 179.099 Z" fill="#000000" fill-rule="evenodd" fill-opacity="1" /><polyline clip-path="url(#clip910)" style="stroke:#3da44d; stroke-linecap:butt; stroke-linejoin:round; stroke-width:4; stroke-opacity:1; fill:none" points="
  369.137,248.219 507.529,248.219 
  "/>
<path clip-path="url(#clip910)" d="M542.677 272.467 L540.363 272.467 L540.34 265.499 Q537.909 265.453 535.478 264.944 Q533.048 264.411 530.594 263.37 L530.594 259.203 Q532.955 260.684 535.363 261.448 Q537.793 262.189 540.363 262.212 L540.363 251.657 Q535.247 250.823 532.909 248.833 Q530.594 246.842 530.594 243.37 Q530.594 239.597 533.117 237.421 Q535.64 235.245 540.363 234.921 L540.363 229.481 L542.677 229.481 L542.677 234.851 Q544.83 234.944 546.844 235.314 Q548.858 235.661 550.779 236.286 L550.779 240.337 Q548.858 239.365 546.821 238.833 Q544.807 238.3 542.677 238.208 L542.677 248.092 Q547.932 248.902 550.409 250.985 Q552.886 253.069 552.886 256.68 Q552.886 260.592 550.247 262.86 Q547.631 265.106 542.677 265.453 L542.677 272.467 M540.363 247.675 L540.363 238.185 Q537.678 238.485 536.265 239.712 Q534.853 240.939 534.853 242.976 Q534.853 244.967 536.15 246.078 Q537.469 247.189 540.363 247.675 M542.677 252.12 L542.677 262.143 Q545.617 261.749 547.099 260.476 Q548.603 259.203 548.603 257.12 Q548.603 255.083 547.168 253.879 Q545.756 252.675 542.677 252.12 Z" fill="#000000" fill-rule="evenodd" fill-opacity="1" /><path clip-path="url(#clip910)" d="M582.839 249.851 L582.839 265.499 L578.58 265.499 L578.58 249.99 Q578.58 246.309 577.145 244.481 Q575.71 242.652 572.839 242.652 Q569.39 242.652 567.4 244.851 Q565.409 247.05 565.409 250.846 L565.409 265.499 L561.126 265.499 L561.126 229.481 L565.409 229.481 L565.409 243.601 Q566.937 241.263 568.997 240.106 Q571.08 238.948 573.788 238.948 Q578.256 238.948 580.548 241.726 Q582.839 244.481 582.839 249.851 Z" fill="#000000" fill-rule="evenodd" fill-opacity="1" /><path clip-path="url(#clip910)" d="M608.997 230.939 L621.566 243.833 L616.913 243.833 L606.728 234.689 L596.543 243.833 L591.89 243.833 L604.46 230.939 L608.997 230.939 Z" fill="#000000" fill-rule="evenodd" fill-opacity="1" /><path clip-path="url(#clip910)" d="M632.469 261.564 L640.108 261.564 L640.108 235.198 L631.797 236.865 L631.797 232.606 L640.061 230.939 L644.737 230.939 L644.737 261.564 L652.376 261.564 L652.376 265.499 L632.469 265.499 L632.469 261.564 Z" fill="#000000" fill-rule="evenodd" fill-opacity="1" /><path clip-path="url(#clip910)" d="M672.769 272.467 L670.455 272.467 L670.431 265.499 Q668.001 265.453 665.57 264.944 Q663.14 264.411 660.686 263.37 L660.686 259.203 Q663.047 260.684 665.455 261.448 Q667.885 262.189 670.455 262.212 L670.455 251.657 Q665.339 250.823 663.001 248.833 Q660.686 246.842 660.686 243.37 Q660.686 239.597 663.209 237.421 Q665.732 235.245 670.455 234.921 L670.455 229.481 L672.769 229.481 L672.769 234.851 Q674.922 234.944 676.936 235.314 Q678.95 235.661 680.871 236.286 L680.871 240.337 Q678.95 239.365 676.913 238.833 Q674.899 238.3 672.769 238.208 L672.769 248.092 Q678.024 248.902 680.501 250.985 Q682.978 253.069 682.978 256.68 Q682.978 260.592 680.339 262.86 Q677.723 265.106 672.769 265.453 L672.769 272.467 M670.455 247.675 L670.455 238.185 Q667.769 238.485 666.357 239.712 Q664.945 240.939 664.945 242.976 Q664.945 244.967 666.242 246.078 Q667.561 247.189 670.455 247.675 M672.769 252.12 L672.769 262.143 Q675.709 261.749 677.191 260.476 Q678.695 259.203 678.695 257.12 Q678.695 255.083 677.26 253.879 Q675.848 252.675 672.769 252.12 Z" fill="#000000" fill-rule="evenodd" fill-opacity="1" /><polyline clip-path="url(#clip910)" style="stroke:#c271d2; stroke-linecap:butt; stroke-linejoin:round; stroke-width:4; stroke-opacity:1; fill:none" points="
  369.137,300.059 507.529,300.059 
  "/>
<path clip-path="url(#clip910)" d="M542.677 324.307 L540.363 324.307 L540.34 317.339 Q537.909 317.293 535.478 316.784 Q533.048 316.251 530.594 315.21 L530.594 311.043 Q532.955 312.524 535.363 313.288 Q537.793 314.029 540.363 314.052 L540.363 303.497 Q535.247 302.663 532.909 300.673 Q530.594 298.682 530.594 295.21 Q530.594 291.437 533.117 289.261 Q535.64 287.085 540.363 286.761 L540.363 281.321 L542.677 281.321 L542.677 286.691 Q544.83 286.784 546.844 287.154 Q548.858 287.501 550.779 288.126 L550.779 292.177 Q548.858 291.205 546.821 290.673 Q544.807 290.14 542.677 290.048 L542.677 299.932 Q547.932 300.742 550.409 302.825 Q552.886 304.909 552.886 308.52 Q552.886 312.432 550.247 314.7 Q547.631 316.946 542.677 317.293 L542.677 324.307 M540.363 299.515 L540.363 290.025 Q537.678 290.325 536.265 291.552 Q534.853 292.779 534.853 294.816 Q534.853 296.807 536.15 297.918 Q537.469 299.029 540.363 299.515 M542.677 303.96 L542.677 313.983 Q545.617 313.589 547.099 312.316 Q548.603 311.043 548.603 308.96 Q548.603 306.923 547.168 305.719 Q545.756 304.515 542.677 303.96 Z" fill="#000000" fill-rule="evenodd" fill-opacity="1" /><path clip-path="url(#clip910)" d="M582.839 301.691 L582.839 317.339 L578.58 317.339 L578.58 301.83 Q578.58 298.149 577.145 296.321 Q575.71 294.492 572.839 294.492 Q569.39 294.492 567.4 296.691 Q565.409 298.89 565.409 302.686 L565.409 317.339 L561.126 317.339 L561.126 281.321 L565.409 281.321 L565.409 295.441 Q566.937 293.103 568.997 291.946 Q571.08 290.788 573.788 290.788 Q578.256 290.788 580.548 293.566 Q582.839 296.321 582.839 301.691 Z" fill="#000000" fill-rule="evenodd" fill-opacity="1" /><path clip-path="url(#clip910)" d="M608.997 282.779 L621.566 295.673 L616.913 295.673 L606.728 286.529 L596.543 295.673 L591.89 295.673 L604.46 282.779 L608.997 282.779 Z" fill="#000000" fill-rule="evenodd" fill-opacity="1" /><path clip-path="url(#clip910)" d="M635.686 313.404 L652.006 313.404 L652.006 317.339 L630.061 317.339 L630.061 313.404 Q632.723 310.649 637.307 306.02 Q641.913 301.367 643.094 300.024 Q645.339 297.501 646.219 295.765 Q647.121 294.006 647.121 292.316 Q647.121 289.562 645.177 287.825 Q643.256 286.089 640.154 286.089 Q637.955 286.089 635.501 286.853 Q633.071 287.617 630.293 289.168 L630.293 284.446 Q633.117 283.312 635.571 282.733 Q638.024 282.154 640.061 282.154 Q645.432 282.154 648.626 284.839 Q651.82 287.525 651.82 292.015 Q651.82 294.145 651.01 296.066 Q650.223 297.964 648.117 300.557 Q647.538 301.228 644.436 304.446 Q641.334 307.64 635.686 313.404 Z" fill="#000000" fill-rule="evenodd" fill-opacity="1" /><path clip-path="url(#clip910)" d="M672.769 324.307 L670.455 324.307 L670.431 317.339 Q668.001 317.293 665.57 316.784 Q663.14 316.251 660.686 315.21 L660.686 311.043 Q663.047 312.524 665.455 313.288 Q667.885 314.029 670.455 314.052 L670.455 303.497 Q665.339 302.663 663.001 300.673 Q660.686 298.682 660.686 295.21 Q660.686 291.437 663.209 289.261 Q665.732 287.085 670.455 286.761 L670.455 281.321 L672.769 281.321 L672.769 286.691 Q674.922 286.784 676.936 287.154 Q678.95 287.501 680.871 288.126 L680.871 292.177 Q678.95 291.205 676.913 290.673 Q674.899 290.14 672.769 290.048 L672.769 299.932 Q678.024 300.742 680.501 302.825 Q682.978 304.909 682.978 308.52 Q682.978 312.432 680.339 314.7 Q677.723 316.946 672.769 317.293 L672.769 324.307 M670.455 299.515 L670.455 290.025 Q667.769 290.325 666.357 291.552 Q664.945 292.779 664.945 294.816 Q664.945 296.807 666.242 297.918 Q667.561 299.029 670.455 299.515 M672.769 303.96 L672.769 313.983 Q675.709 313.589 677.191 312.316 Q678.695 311.043 678.695 308.96 Q678.695 306.923 677.26 305.719 Q675.848 304.515 672.769 303.96 Z" fill="#000000" fill-rule="evenodd" fill-opacity="1" /><polyline clip-path="url(#clip910)" style="stroke:#ac8d18; stroke-linecap:butt; stroke-linejoin:round; stroke-width:4; stroke-opacity:1; fill:none" points="
  369.137,351.899 507.529,351.899 
  "/>
<path clip-path="url(#clip910)" d="M542.677 376.147 L540.363 376.147 L540.34 369.179 Q537.909 369.133 535.478 368.624 Q533.048 368.091 530.594 367.05 L530.594 362.883 Q532.955 364.364 535.363 365.128 Q537.793 365.869 540.363 365.892 L540.363 355.337 Q535.247 354.503 532.909 352.513 Q530.594 350.522 530.594 347.05 Q530.594 343.277 533.117 341.101 Q535.64 338.925 540.363 338.601 L540.363 333.161 L542.677 333.161 L542.677 338.531 Q544.83 338.624 546.844 338.994 Q548.858 339.341 550.779 339.966 L550.779 344.017 Q548.858 343.045 546.821 342.513 Q544.807 341.98 542.677 341.888 L542.677 351.772 Q547.932 352.582 550.409 354.665 Q552.886 356.749 552.886 360.36 Q552.886 364.272 550.247 366.54 Q547.631 368.786 542.677 369.133 L542.677 376.147 M540.363 351.355 L540.363 341.865 Q537.678 342.165 536.265 343.392 Q534.853 344.619 534.853 346.656 Q534.853 348.647 536.15 349.758 Q537.469 350.869 540.363 351.355 M542.677 355.8 L542.677 365.823 Q545.617 365.429 547.099 364.156 Q548.603 362.883 548.603 360.8 Q548.603 358.763 547.168 357.559 Q545.756 356.355 542.677 355.8 Z" fill="#000000" fill-rule="evenodd" fill-opacity="1" /><path clip-path="url(#clip910)" d="M582.839 353.531 L582.839 369.179 L578.58 369.179 L578.58 353.67 Q578.58 349.989 577.145 348.161 Q575.71 346.332 572.839 346.332 Q569.39 346.332 567.4 348.531 Q565.409 350.73 565.409 354.526 L565.409 369.179 L561.126 369.179 L561.126 333.161 L565.409 333.161 L565.409 347.281 Q566.937 344.943 568.997 343.786 Q571.08 342.628 573.788 342.628 Q578.256 342.628 580.548 345.406 Q582.839 348.161 582.839 353.531 Z" fill="#000000" fill-rule="evenodd" fill-opacity="1" /><path clip-path="url(#clip910)" d="M608.997 334.619 L621.566 347.513 L616.913 347.513 L606.728 338.369 L596.543 347.513 L591.89 347.513 L604.46 334.619 L608.997 334.619 Z" fill="#000000" fill-rule="evenodd" fill-opacity="1" /><path clip-path="url(#clip910)" d="M645.825 350.545 Q649.182 351.263 651.057 353.531 Q652.955 355.8 652.955 359.133 Q652.955 364.249 649.436 367.05 Q645.918 369.85 639.436 369.85 Q637.26 369.85 634.946 369.411 Q632.654 368.994 630.2 368.138 L630.2 363.624 Q632.145 364.758 634.459 365.337 Q636.774 365.915 639.297 365.915 Q643.695 365.915 645.987 364.179 Q648.302 362.443 648.302 359.133 Q648.302 356.077 646.149 354.364 Q644.02 352.628 640.2 352.628 L636.172 352.628 L636.172 348.786 L640.385 348.786 Q643.834 348.786 645.663 347.42 Q647.492 346.031 647.492 343.439 Q647.492 340.777 645.594 339.365 Q643.719 337.929 640.2 337.929 Q638.279 337.929 636.08 338.346 Q633.881 338.763 631.242 339.642 L631.242 335.476 Q633.904 334.735 636.219 334.365 Q638.557 333.994 640.617 333.994 Q645.941 333.994 649.043 336.425 Q652.144 338.832 652.144 342.952 Q652.144 345.823 650.501 347.814 Q648.857 349.781 645.825 350.545 Z" fill="#000000" fill-rule="evenodd" fill-opacity="1" /><path clip-path="url(#clip910)" d="M672.769 376.147 L670.455 376.147 L670.431 369.179 Q668.001 369.133 665.57 368.624 Q663.14 368.091 660.686 367.05 L660.686 362.883 Q663.047 364.364 665.455 365.128 Q667.885 365.869 670.455 365.892 L670.455 355.337 Q665.339 354.503 663.001 352.513 Q660.686 350.522 660.686 347.05 Q660.686 343.277 663.209 341.101 Q665.732 338.925 670.455 338.601 L670.455 333.161 L672.769 333.161 L672.769 338.531 Q674.922 338.624 676.936 338.994 Q678.95 339.341 680.871 339.966 L680.871 344.017 Q678.95 343.045 676.913 342.513 Q674.899 341.98 672.769 341.888 L672.769 351.772 Q678.024 352.582 680.501 354.665 Q682.978 356.749 682.978 360.36 Q682.978 364.272 680.339 366.54 Q677.723 368.786 672.769 369.133 L672.769 376.147 M670.455 351.355 L670.455 341.865 Q667.769 342.165 666.357 343.392 Q664.945 344.619 664.945 346.656 Q664.945 348.647 666.242 349.758 Q667.561 350.869 670.455 351.355 M672.769 355.8 L672.769 365.823 Q675.709 365.429 677.191 364.156 Q678.695 362.883 678.695 360.8 Q678.695 358.763 677.26 357.559 Q675.848 356.355 672.769 355.8 Z" fill="#000000" fill-rule="evenodd" fill-opacity="1" /><polyline clip-path="url(#clip910)" style="stroke:#00a9ad; stroke-linecap:butt; stroke-linejoin:round; stroke-width:4; stroke-opacity:1; fill:none" points="
  369.137,403.739 507.529,403.739 
  "/>
<path clip-path="url(#clip910)" d="M542.677 427.987 L540.363 427.987 L540.34 421.019 Q537.909 420.973 535.478 420.464 Q533.048 419.931 530.594 418.89 L530.594 414.723 Q532.955 416.204 535.363 416.968 Q537.793 417.709 540.363 417.732 L540.363 407.177 Q535.247 406.343 532.909 404.353 Q530.594 402.362 530.594 398.89 Q530.594 395.117 533.117 392.941 Q535.64 390.765 540.363 390.441 L540.363 385.001 L542.677 385.001 L542.677 390.371 Q544.83 390.464 546.844 390.834 Q548.858 391.181 550.779 391.806 L550.779 395.857 Q548.858 394.885 546.821 394.353 Q544.807 393.82 542.677 393.728 L542.677 403.612 Q547.932 404.422 550.409 406.505 Q552.886 408.589 552.886 412.2 Q552.886 416.112 550.247 418.38 Q547.631 420.626 542.677 420.973 L542.677 427.987 M540.363 403.195 L540.363 393.705 Q537.678 394.005 536.265 395.232 Q534.853 396.459 534.853 398.496 Q534.853 400.487 536.15 401.598 Q537.469 402.709 540.363 403.195 M542.677 407.64 L542.677 417.663 Q545.617 417.269 547.099 415.996 Q548.603 414.723 548.603 412.64 Q548.603 410.603 547.168 409.399 Q545.756 408.195 542.677 407.64 Z" fill="#000000" fill-rule="evenodd" fill-opacity="1" /><path clip-path="url(#clip910)" d="M582.839 405.371 L582.839 421.019 L578.58 421.019 L578.58 405.51 Q578.58 401.829 577.145 400.001 Q575.71 398.172 572.839 398.172 Q569.39 398.172 567.4 400.371 Q565.409 402.57 565.409 406.366 L565.409 421.019 L561.126 421.019 L561.126 385.001 L565.409 385.001 L565.409 399.121 Q566.937 396.783 568.997 395.626 Q571.08 394.468 573.788 394.468 Q578.256 394.468 580.548 397.246 Q582.839 400.001 582.839 405.371 Z" fill="#000000" fill-rule="evenodd" fill-opacity="1" /><path clip-path="url(#clip910)" d="M608.997 386.459 L621.566 399.353 L616.913 399.353 L606.728 390.209 L596.543 399.353 L591.89 399.353 L604.46 386.459 L608.997 386.459 Z" fill="#000000" fill-rule="evenodd" fill-opacity="1" /><path clip-path="url(#clip910)" d="M644.506 390.533 L632.7 408.982 L644.506 408.982 L644.506 390.533 M643.279 386.459 L649.158 386.459 L649.158 408.982 L654.089 408.982 L654.089 412.871 L649.158 412.871 L649.158 421.019 L644.506 421.019 L644.506 412.871 L628.904 412.871 L628.904 408.357 L643.279 386.459 Z" fill="#000000" fill-rule="evenodd" fill-opacity="1" /><path clip-path="url(#clip910)" d="M672.769 427.987 L670.455 427.987 L670.431 421.019 Q668.001 420.973 665.57 420.464 Q663.14 419.931 660.686 418.89 L660.686 414.723 Q663.047 416.204 665.455 416.968 Q667.885 417.709 670.455 417.732 L670.455 407.177 Q665.339 406.343 663.001 404.353 Q660.686 402.362 660.686 398.89 Q660.686 395.117 663.209 392.941 Q665.732 390.765 670.455 390.441 L670.455 385.001 L672.769 385.001 L672.769 390.371 Q674.922 390.464 676.936 390.834 Q678.95 391.181 680.871 391.806 L680.871 395.857 Q678.95 394.885 676.913 394.353 Q674.899 393.82 672.769 393.728 L672.769 403.612 Q678.024 404.422 680.501 406.505 Q682.978 408.589 682.978 412.2 Q682.978 416.112 680.339 418.38 Q677.723 420.626 672.769 420.973 L672.769 427.987 M670.455 403.195 L670.455 393.705 Q667.769 394.005 666.357 395.232 Q664.945 396.459 664.945 398.496 Q664.945 400.487 666.242 401.598 Q667.561 402.709 670.455 403.195 M672.769 407.64 L672.769 417.663 Q675.709 417.269 677.191 415.996 Q678.695 414.723 678.695 412.64 Q678.695 410.603 677.26 409.399 Q675.848 408.195 672.769 407.64 Z" fill="#000000" fill-rule="evenodd" fill-opacity="1" /></svg>
