<?xml version="1.0" encoding="utf-8"?>
<svg xmlns="http://www.w3.org/2000/svg" xmlns:xlink="http://www.w3.org/1999/xlink" width="600" height="400" viewBox="0 0 2400 1600">
<defs>
  <clipPath id="clip590">
    <rect x="0" y="0" width="2400" height="1600"/>
  </clipPath>
</defs>
<path clip-path="url(#clip590)" d="
M0 1600 L2400 1600 L2400 0 L0 0  Z
  " fill="#ffffff" fill-rule="evenodd" fill-opacity="1"/>
<defs>
  <clipPath id="clip591">
    <rect x="480" y="0" width="1681" height="1600"/>
  </clipPath>
</defs>
<path clip-path="url(#clip590)" d="
M251.842 1410.9 L2352.76 1410.9 L2352.76 47.2441 L251.842 47.2441  Z
  " fill="#ffffff" fill-rule="evenodd" fill-opacity="1"/>
<defs>
  <clipPath id="clip592">
    <rect x="251" y="47" width="2102" height="1365"/>
  </clipPath>
</defs>
<polyline clip-path="url(#clip592)" style="stroke:#000000; stroke-linecap:butt; stroke-linejoin:round; stroke-width:2; stroke-opacity:0.1; fill:none" points="
  305.71,1410.9 305.71,47.2441 
  "/>
<polyline clip-path="url(#clip592)" style="stroke:#000000; stroke-linecap:butt; stroke-linejoin:round; stroke-width:2; stroke-opacity:0.1; fill:none" points="
  804.501,1410.9 804.501,47.2441 
  "/>
<polyline clip-path="url(#clip592)" style="stroke:#000000; stroke-linecap:butt; stroke-linejoin:round; stroke-width:2; stroke-opacity:0.1; fill:none" points="
  1303.29,1410.9 1303.29,47.2441 
  "/>
<polyline clip-path="url(#clip592)" style="stroke:#000000; stroke-linecap:butt; stroke-linejoin:round; stroke-width:2; stroke-opacity:0.1; fill:none" points="
  1802.08,1410.9 1802.08,47.2441 
  "/>
<polyline clip-path="url(#clip592)" style="stroke:#000000; stroke-linecap:butt; stroke-linejoin:round; stroke-width:2; stroke-opacity:0.1; fill:none" points="
  2300.87,1410.9 2300.87,47.2441 
  "/>
<polyline clip-path="url(#clip590)" style="stroke:#000000; stroke-linecap:butt; stroke-linejoin:round; stroke-width:4; stroke-opacity:1; fill:none" points="
  251.842,1410.9 2352.76,1410.9 
  "/>
<polyline clip-path="url(#clip590)" style="stroke:#000000; stroke-linecap:butt; stroke-linejoin:round; stroke-width:4; stroke-opacity:1; fill:none" points="
  305.71,1410.9 305.71,1392 
  "/>
<polyline clip-path="url(#clip590)" style="stroke:#000000; stroke-linecap:butt; stroke-linejoin:round; stroke-width:4; stroke-opacity:1; fill:none" points="
  804.501,1410.9 804.501,1392 
  "/>
<polyline clip-path="url(#clip590)" style="stroke:#000000; stroke-linecap:butt; stroke-linejoin:round; stroke-width:4; stroke-opacity:1; fill:none" points="
  1303.29,1410.9 1303.29,1392 
  "/>
<polyline clip-path="url(#clip590)" style="stroke:#000000; stroke-linecap:butt; stroke-linejoin:round; stroke-width:4; stroke-opacity:1; fill:none" points="
  1802.08,1410.9 1802.08,1392 
  "/>
<polyline clip-path="url(#clip590)" style="stroke:#000000; stroke-linecap:butt; stroke-linejoin:round; stroke-width:4; stroke-opacity:1; fill:none" points="
  2300.87,1410.9 2300.87,1392 
  "/>
<path clip-path="url(#clip590)" d="M243.074 1489.17 L250.712 1489.17 L250.712 1462.8 L242.402 1464.47 L242.402 1460.21 L250.666 1458.54 L255.342 1458.54 L255.342 1489.17 L262.981 1489.17 L262.981 1493.1 L243.074 1493.1 L243.074 1489.17 Z" fill="#000000" fill-rule="evenodd" fill-opacity="1" /><path clip-path="url(#clip590)" d="M282.425 1461.62 Q278.814 1461.62 276.985 1465.19 Q275.18 1468.73 275.18 1475.86 Q275.18 1482.97 276.985 1486.53 Q278.814 1490.07 282.425 1490.07 Q286.059 1490.07 287.865 1486.53 Q289.694 1482.97 289.694 1475.86 Q289.694 1468.73 287.865 1465.19 Q286.059 1461.62 282.425 1461.62 M282.425 1457.92 Q288.235 1457.92 291.291 1462.53 Q294.37 1467.11 294.37 1475.86 Q294.37 1484.59 291.291 1489.19 Q288.235 1493.78 282.425 1493.78 Q276.615 1493.78 273.536 1489.19 Q270.481 1484.59 270.481 1475.86 Q270.481 1467.11 273.536 1462.53 Q276.615 1457.92 282.425 1457.92 Z" fill="#000000" fill-rule="evenodd" fill-opacity="1" /><path clip-path="url(#clip590)" d="M294.37 1452.02 L318.481 1452.02 L318.481 1455.22 L294.37 1455.22 L294.37 1452.02 Z" fill="#000000" fill-rule="evenodd" fill-opacity="1" /><path clip-path="url(#clip590)" d="M327.34 1462.5 L333.546 1462.5 L333.546 1441.07 L326.794 1442.43 L326.794 1438.97 L333.509 1437.61 L337.308 1437.61 L337.308 1462.5 L343.514 1462.5 L343.514 1465.69 L327.34 1465.69 L327.34 1462.5 Z" fill="#000000" fill-rule="evenodd" fill-opacity="1" /><path clip-path="url(#clip590)" d="M359.313 1440.11 Q356.379 1440.11 354.893 1443.01 Q353.426 1445.89 353.426 1451.68 Q353.426 1457.46 354.893 1460.35 Q356.379 1463.23 359.313 1463.23 Q362.266 1463.23 363.733 1460.35 Q365.219 1457.46 365.219 1451.68 Q365.219 1445.89 363.733 1443.01 Q362.266 1440.11 359.313 1440.11 M359.313 1437.11 Q364.034 1437.11 366.516 1440.85 Q369.018 1444.57 369.018 1451.68 Q369.018 1458.77 366.516 1462.51 Q364.034 1466.24 359.313 1466.24 Q354.592 1466.24 352.091 1462.51 Q349.608 1458.77 349.608 1451.68 Q349.608 1444.57 352.091 1440.85 Q354.592 1437.11 359.313 1437.11 Z" fill="#000000" fill-rule="evenodd" fill-opacity="1" /><path clip-path="url(#clip590)" d="M754.522 1489.17 L762.161 1489.17 L762.161 1462.8 L753.851 1464.47 L753.851 1460.21 L762.115 1458.54 L766.791 1458.54 L766.791 1489.17 L774.43 1489.17 L774.43 1493.1 L754.522 1493.1 L754.522 1489.17 Z" fill="#000000" fill-rule="evenodd" fill-opacity="1" /><path clip-path="url(#clip590)" d="M793.874 1461.62 Q790.263 1461.62 788.434 1465.19 Q786.629 1468.73 786.629 1475.86 Q786.629 1482.97 788.434 1486.53 Q790.263 1490.07 793.874 1490.07 Q797.508 1490.07 799.314 1486.53 Q801.142 1482.97 801.142 1475.86 Q801.142 1468.73 799.314 1465.19 Q797.508 1461.62 793.874 1461.62 M793.874 1457.92 Q799.684 1457.92 802.74 1462.53 Q805.818 1467.11 805.818 1475.86 Q805.818 1484.59 802.74 1489.19 Q799.684 1493.78 793.874 1493.78 Q788.064 1493.78 784.985 1489.19 Q781.93 1484.59 781.93 1475.86 Q781.93 1467.11 784.985 1462.53 Q788.064 1457.92 793.874 1457.92 Z" fill="#000000" fill-rule="evenodd" fill-opacity="1" /><path clip-path="url(#clip590)" d="M805.818 1452.02 L829.93 1452.02 L829.93 1455.22 L805.818 1455.22 L805.818 1452.02 Z" fill="#000000" fill-rule="evenodd" fill-opacity="1" /><path clip-path="url(#clip590)" d="M838.168 1437.61 L853.082 1437.61 L853.082 1440.81 L841.647 1440.81 L841.647 1447.69 Q842.475 1447.41 843.302 1447.28 Q844.13 1447.13 844.957 1447.13 Q849.659 1447.13 852.405 1449.71 Q855.151 1452.28 855.151 1456.68 Q855.151 1461.22 852.33 1463.74 Q849.509 1466.24 844.374 1466.24 Q842.606 1466.24 840.763 1465.94 Q838.939 1465.64 836.983 1465.04 L836.983 1461.22 Q838.675 1462.14 840.481 1462.59 Q842.287 1463.04 844.299 1463.04 Q847.553 1463.04 849.452 1461.33 Q851.352 1459.62 851.352 1456.68 Q851.352 1453.75 849.452 1452.04 Q847.553 1450.33 844.299 1450.33 Q842.776 1450.33 841.252 1450.67 Q839.747 1451 838.168 1451.72 L838.168 1437.61 Z" fill="#000000" fill-rule="evenodd" fill-opacity="1" /><path clip-path="url(#clip590)" d="M1268.27 1489.17 L1275.91 1489.17 L1275.91 1462.8 L1267.6 1464.47 L1267.6 1460.21 L1275.87 1458.54 L1280.54 1458.54 L1280.54 1489.17 L1288.18 1489.17 L1288.18 1493.1 L1268.27 1493.1 L1268.27 1489.17 Z" fill="#000000" fill-rule="evenodd" fill-opacity="1" /><path clip-path="url(#clip590)" d="M1307.63 1461.62 Q1304.02 1461.62 1302.19 1465.19 Q1300.38 1468.73 1300.38 1475.86 Q1300.38 1482.97 1302.19 1486.53 Q1304.02 1490.07 1307.63 1490.07 Q1311.26 1490.07 1313.07 1486.53 Q1314.89 1482.97 1314.89 1475.86 Q1314.89 1468.73 1313.07 1465.19 Q1311.26 1461.62 1307.63 1461.62 M1307.63 1457.92 Q1313.44 1457.92 1316.49 1462.53 Q1319.57 1467.11 1319.57 1475.86 Q1319.57 1484.59 1316.49 1489.19 Q1313.44 1493.78 1307.63 1493.78 Q1301.82 1493.78 1298.74 1489.19 Q1295.68 1484.59 1295.68 1475.86 Q1295.68 1467.11 1298.74 1462.53 Q1301.82 1457.92 1307.63 1457.92 Z" fill="#000000" fill-rule="evenodd" fill-opacity="1" /><path clip-path="url(#clip590)" d="M1329.28 1440.11 Q1326.34 1440.11 1324.86 1443.01 Q1323.39 1445.89 1323.39 1451.68 Q1323.39 1457.46 1324.86 1460.35 Q1326.34 1463.23 1329.28 1463.23 Q1332.23 1463.23 1333.7 1460.35 Q1335.18 1457.46 1335.18 1451.68 Q1335.18 1445.89 1333.7 1443.01 Q1332.23 1440.11 1329.28 1440.11 M1329.28 1437.11 Q1334 1437.11 1336.48 1440.85 Q1338.98 1444.57 1338.98 1451.68 Q1338.98 1458.77 1336.48 1462.51 Q1334 1466.24 1329.28 1466.24 Q1324.55 1466.24 1322.05 1462.51 Q1319.57 1458.77 1319.57 1451.68 Q1319.57 1444.57 1322.05 1440.85 Q1324.55 1437.11 1329.28 1437.11 Z" fill="#000000" fill-rule="evenodd" fill-opacity="1" /><path clip-path="url(#clip590)" d="M1767.69 1489.17 L1775.33 1489.17 L1775.33 1462.8 L1767.02 1464.47 L1767.02 1460.21 L1775.28 1458.54 L1779.95 1458.54 L1779.95 1489.17 L1787.59 1489.17 L1787.59 1493.1 L1767.69 1493.1 L1767.69 1489.17 Z" fill="#000000" fill-rule="evenodd" fill-opacity="1" /><path clip-path="url(#clip590)" d="M1807.04 1461.62 Q1803.43 1461.62 1801.6 1465.19 Q1799.79 1468.73 1799.79 1475.86 Q1799.79 1482.97 1801.6 1486.53 Q1803.43 1490.07 1807.04 1490.07 Q1810.67 1490.07 1812.48 1486.53 Q1814.31 1482.97 1814.31 1475.86 Q1814.31 1468.73 1812.48 1465.19 Q1810.67 1461.62 1807.04 1461.62 M1807.04 1457.92 Q1812.85 1457.92 1815.9 1462.53 Q1818.98 1467.11 1818.98 1475.86 Q1818.98 1484.59 1815.9 1489.19 Q1812.85 1493.78 1807.04 1493.78 Q1801.23 1493.78 1798.15 1489.19 Q1795.09 1484.59 1795.09 1475.86 Q1795.09 1467.11 1798.15 1462.53 Q1801.23 1457.92 1807.04 1457.92 Z" fill="#000000" fill-rule="evenodd" fill-opacity="1" /><path clip-path="url(#clip590)" d="M1820.17 1437.61 L1835.08 1437.61 L1835.08 1440.81 L1823.65 1440.81 L1823.65 1447.69 Q1824.47 1447.41 1825.3 1447.28 Q1826.13 1447.13 1826.96 1447.13 Q1831.66 1447.13 1834.4 1449.71 Q1837.15 1452.28 1837.15 1456.68 Q1837.15 1461.22 1834.33 1463.74 Q1831.51 1466.24 1826.37 1466.24 Q1824.61 1466.24 1822.76 1465.94 Q1820.94 1465.64 1818.98 1465.04 L1818.98 1461.22 Q1820.68 1462.14 1822.48 1462.59 Q1824.29 1463.04 1826.3 1463.04 Q1829.55 1463.04 1831.45 1461.33 Q1833.35 1459.62 1833.35 1456.68 Q1833.35 1453.75 1831.45 1452.04 Q1829.55 1450.33 1826.3 1450.33 Q1824.78 1450.33 1823.25 1450.67 Q1821.75 1451 1820.17 1451.72 L1820.17 1437.61 Z" fill="#000000" fill-rule="evenodd" fill-opacity="1" /><path clip-path="url(#clip590)" d="M2254.45 1489.17 L2262.09 1489.17 L2262.09 1462.8 L2253.78 1464.47 L2253.78 1460.21 L2262.04 1458.54 L2266.72 1458.54 L2266.72 1489.17 L2274.36 1489.17 L2274.36 1493.1 L2254.45 1493.1 L2254.45 1489.17 Z" fill="#000000" fill-rule="evenodd" fill-opacity="1" /><path clip-path="url(#clip590)" d="M2293.8 1461.62 Q2290.19 1461.62 2288.36 1465.19 Q2286.56 1468.73 2286.56 1475.86 Q2286.56 1482.97 2288.36 1486.53 Q2290.19 1490.07 2293.8 1490.07 Q2297.44 1490.07 2299.24 1486.53 Q2301.07 1482.97 2301.07 1475.86 Q2301.07 1468.73 2299.24 1465.19 Q2297.44 1461.62 2293.8 1461.62 M2293.8 1457.92 Q2299.61 1457.92 2302.67 1462.53 Q2305.75 1467.11 2305.75 1475.86 Q2305.75 1484.59 2302.67 1489.19 Q2299.61 1493.78 2293.8 1493.78 Q2287.99 1493.78 2284.91 1489.19 Q2281.86 1484.59 2281.86 1475.86 Q2281.86 1467.11 2284.91 1462.53 Q2287.99 1457.92 2293.8 1457.92 Z" fill="#000000" fill-rule="evenodd" fill-opacity="1" /><path clip-path="url(#clip590)" d="M2306.29 1462.5 L2312.5 1462.5 L2312.5 1441.07 L2305.75 1442.43 L2305.75 1438.97 L2312.46 1437.61 L2316.26 1437.61 L2316.26 1462.5 L2322.47 1462.5 L2322.47 1465.69 L2306.29 1465.69 L2306.29 1462.5 Z" fill="#000000" fill-rule="evenodd" fill-opacity="1" /><path clip-path="url(#clip590)" d="M2338.26 1440.11 Q2335.33 1440.11 2333.84 1443.01 Q2332.38 1445.89 2332.38 1451.68 Q2332.38 1457.46 2333.84 1460.35 Q2335.33 1463.23 2338.26 1463.23 Q2341.22 1463.23 2342.68 1460.35 Q2344.17 1457.46 2344.17 1451.68 Q2344.17 1445.89 2342.68 1443.01 Q2341.22 1440.11 2338.26 1440.11 M2338.26 1437.11 Q2342.99 1437.11 2345.47 1440.85 Q2347.97 1444.57 2347.97 1451.68 Q2347.97 1458.77 2345.47 1462.51 Q2342.99 1466.24 2338.26 1466.24 Q2333.54 1466.24 2331.04 1462.51 Q2328.56 1458.77 2328.56 1451.68 Q2328.56 1444.57 2331.04 1440.85 Q2333.54 1437.11 2338.26 1437.11 Z" fill="#000000" fill-rule="evenodd" fill-opacity="1" /><path clip-path="url(#clip590)" d="M1265.46 1539.91 L1265.46 1545.38 Q1262.97 1544.01 1260.46 1543.34 Q1257.98 1542.64 1255.43 1542.64 Q1249.73 1542.64 1246.58 1546.27 Q1243.43 1549.87 1243.43 1556.39 Q1243.43 1562.92 1246.58 1566.55 Q1249.73 1570.14 1255.43 1570.14 Q1257.98 1570.14 1260.46 1569.47 Q1262.97 1568.77 1265.46 1567.41 L1265.46 1572.82 Q1263.01 1573.96 1260.37 1574.54 Q1257.76 1575.11 1254.8 1575.11 Q1246.74 1575.11 1242 1570.05 Q1237.26 1564.99 1237.26 1556.39 Q1237.26 1547.67 1242.03 1542.68 Q1246.84 1537.68 1255.18 1537.68 Q1257.88 1537.68 1260.46 1538.25 Q1263.04 1538.79 1265.46 1539.91 Z" fill="#000000" fill-rule="evenodd" fill-opacity="1" /><path clip-path="url(#clip590)" d="M1289.46 1542.64 Q1284.75 1542.64 1282.01 1546.34 Q1279.27 1550 1279.27 1556.39 Q1279.27 1562.79 1281.98 1566.48 Q1284.71 1570.14 1289.46 1570.14 Q1294.14 1570.14 1296.87 1566.45 Q1299.61 1562.76 1299.61 1556.39 Q1299.61 1550.06 1296.87 1546.37 Q1294.14 1542.64 1289.46 1542.64 M1289.46 1537.68 Q1297.1 1537.68 1301.46 1542.64 Q1305.82 1547.61 1305.82 1556.39 Q1305.82 1565.15 1301.46 1570.14 Q1297.1 1575.11 1289.46 1575.11 Q1281.79 1575.11 1277.43 1570.14 Q1273.1 1565.15 1273.1 1556.39 Q1273.1 1547.61 1277.43 1542.64 Q1281.79 1537.68 1289.46 1537.68 Z" fill="#000000" fill-rule="evenodd" fill-opacity="1" /><path clip-path="url(#clip590)" d="M1338.25 1539.59 L1338.25 1545.13 Q1335.77 1543.85 1333.09 1543.22 Q1330.42 1542.58 1327.56 1542.58 Q1323.19 1542.58 1321 1543.92 Q1318.83 1545.25 1318.83 1547.93 Q1318.83 1549.96 1320.39 1551.14 Q1321.95 1552.29 1326.66 1553.34 L1328.67 1553.78 Q1334.91 1555.12 1337.52 1557.57 Q1340.16 1559.99 1340.16 1564.35 Q1340.16 1569.32 1336.21 1572.21 Q1332.3 1575.11 1325.42 1575.11 Q1322.56 1575.11 1319.44 1574.54 Q1316.35 1573.99 1312.91 1572.88 L1312.91 1566.83 Q1316.16 1568.52 1319.31 1569.38 Q1322.46 1570.21 1325.55 1570.21 Q1329.69 1570.21 1331.92 1568.81 Q1334.14 1567.37 1334.14 1564.8 Q1334.14 1562.41 1332.52 1561.14 Q1330.93 1559.86 1325.49 1558.68 L1323.45 1558.21 Q1318.01 1557.06 1315.59 1554.71 Q1313.17 1552.32 1313.17 1548.18 Q1313.17 1543.15 1316.73 1540.42 Q1320.3 1537.68 1326.85 1537.68 Q1330.1 1537.68 1332.97 1538.16 Q1335.83 1538.63 1338.25 1539.59 Z" fill="#000000" fill-rule="evenodd" fill-opacity="1" /><path clip-path="url(#clip590)" d="M1355.28 1528.42 L1355.28 1538.54 L1367.34 1538.54 L1367.34 1543.09 L1355.28 1543.09 L1355.28 1562.44 Q1355.28 1566.8 1356.46 1568.04 Q1357.66 1569.28 1361.33 1569.28 L1367.34 1569.28 L1367.34 1574.19 L1361.33 1574.19 Q1354.55 1574.19 1351.97 1571.67 Q1349.39 1569.12 1349.39 1562.44 L1349.39 1543.09 L1345.09 1543.09 L1345.09 1538.54 L1349.39 1538.54 L1349.39 1528.42 L1355.28 1528.42 Z" fill="#000000" fill-rule="evenodd" fill-opacity="1" /><polyline clip-path="url(#clip592)" style="stroke:#000000; stroke-linecap:butt; stroke-linejoin:round; stroke-width:2; stroke-opacity:0.1; fill:none" points="
  251.842,1094.75 2352.76,1094.75 
  "/>
<polyline clip-path="url(#clip592)" style="stroke:#000000; stroke-linecap:butt; stroke-linejoin:round; stroke-width:2; stroke-opacity:0.1; fill:none" points="
  251.842,511.992 2352.76,511.992 
  "/>
<polyline clip-path="url(#clip590)" style="stroke:#000000; stroke-linecap:butt; stroke-linejoin:round; stroke-width:4; stroke-opacity:1; fill:none" points="
  251.842,1410.9 251.842,47.2441 
  "/>
<polyline clip-path="url(#clip590)" style="stroke:#000000; stroke-linecap:butt; stroke-linejoin:round; stroke-width:4; stroke-opacity:1; fill:none" points="
  251.842,1094.75 270.74,1094.75 
  "/>
<polyline clip-path="url(#clip590)" style="stroke:#000000; stroke-linecap:butt; stroke-linejoin:round; stroke-width:4; stroke-opacity:1; fill:none" points="
  251.842,511.992 270.74,511.992 
  "/>
<path clip-path="url(#clip590)" d="M114.931 1114.54 L122.57 1114.54 L122.57 1088.17 L114.26 1089.84 L114.26 1085.58 L122.524 1083.92 L127.2 1083.92 L127.2 1114.54 L134.839 1114.54 L134.839 1118.48 L114.931 1118.48 L114.931 1114.54 Z" fill="#000000" fill-rule="evenodd" fill-opacity="1" /><path clip-path="url(#clip590)" d="M154.283 1086.99 Q150.672 1086.99 148.843 1090.56 Q147.038 1094.1 147.038 1101.23 Q147.038 1108.34 148.843 1111.9 Q150.672 1115.44 154.283 1115.44 Q157.917 1115.44 159.723 1111.9 Q161.552 1108.34 161.552 1101.23 Q161.552 1094.1 159.723 1090.56 Q157.917 1086.99 154.283 1086.99 M154.283 1083.29 Q160.093 1083.29 163.149 1087.9 Q166.227 1092.48 166.227 1101.23 Q166.227 1109.96 163.149 1114.56 Q160.093 1119.15 154.283 1119.15 Q148.473 1119.15 145.394 1114.56 Q142.339 1109.96 142.339 1101.23 Q142.339 1092.48 145.394 1087.9 Q148.473 1083.29 154.283 1083.29 Z" fill="#000000" fill-rule="evenodd" fill-opacity="1" /><path clip-path="url(#clip590)" d="M166.227 1077.39 L190.339 1077.39 L190.339 1080.59 L166.227 1080.59 L166.227 1077.39 Z" fill="#000000" fill-rule="evenodd" fill-opacity="1" /><path clip-path="url(#clip590)" d="M210.05 1075.92 Q212.777 1076.51 214.3 1078.35 Q215.842 1080.19 215.842 1082.9 Q215.842 1087.06 212.984 1089.33 Q210.125 1091.61 204.859 1091.61 Q203.091 1091.61 201.21 1091.25 Q199.348 1090.91 197.354 1090.22 L197.354 1086.55 Q198.934 1087.47 200.815 1087.94 Q202.696 1088.41 204.746 1088.41 Q208.319 1088.41 210.181 1087 Q212.062 1085.59 212.062 1082.9 Q212.062 1080.42 210.313 1079.03 Q208.583 1077.62 205.479 1077.62 L202.207 1077.62 L202.207 1074.5 L205.63 1074.5 Q208.432 1074.5 209.918 1073.39 Q211.404 1072.26 211.404 1070.15 Q211.404 1067.99 209.861 1066.84 Q208.338 1065.67 205.479 1065.67 Q203.918 1065.67 202.132 1066.01 Q200.345 1066.35 198.201 1067.07 L198.201 1063.68 Q200.364 1063.08 202.244 1062.78 Q204.144 1062.48 205.818 1062.48 Q210.144 1062.48 212.664 1064.45 Q215.184 1066.41 215.184 1069.76 Q215.184 1072.09 213.849 1073.71 Q212.513 1075.3 210.05 1075.92 Z" fill="#000000" fill-rule="evenodd" fill-opacity="1" /><path clip-path="url(#clip590)" d="M145.137 531.784 L152.776 531.784 L152.776 505.419 L144.465 507.085 L144.465 502.826 L152.729 501.159 L157.405 501.159 L157.405 531.784 L165.044 531.784 L165.044 535.719 L145.137 535.719 L145.137 531.784 Z" fill="#000000" fill-rule="evenodd" fill-opacity="1" /><path clip-path="url(#clip590)" d="M184.488 504.238 Q180.877 504.238 179.049 507.803 Q177.243 511.345 177.243 518.474 Q177.243 525.581 179.049 529.145 Q180.877 532.687 184.488 532.687 Q188.123 532.687 189.928 529.145 Q191.757 525.581 191.757 518.474 Q191.757 511.345 189.928 507.803 Q188.123 504.238 184.488 504.238 M184.488 500.534 Q190.299 500.534 193.354 505.141 Q196.433 509.724 196.433 518.474 Q196.433 527.201 193.354 531.807 Q190.299 536.391 184.488 536.391 Q178.678 536.391 175.6 531.807 Q172.544 527.201 172.544 518.474 Q172.544 509.724 175.6 505.141 Q178.678 500.534 184.488 500.534 Z" fill="#000000" fill-rule="evenodd" fill-opacity="1" /><path clip-path="url(#clip590)" d="M206.138 482.731 Q203.204 482.731 201.718 485.627 Q200.251 488.504 200.251 494.297 Q200.251 500.071 201.718 502.968 Q203.204 505.845 206.138 505.845 Q209.09 505.845 210.557 502.968 Q212.043 500.071 212.043 494.297 Q212.043 488.504 210.557 485.627 Q209.09 482.731 206.138 482.731 M206.138 479.721 Q210.858 479.721 213.341 483.464 Q215.842 487.188 215.842 494.297 Q215.842 501.388 213.341 505.131 Q210.858 508.855 206.138 508.855 Q201.417 508.855 198.915 505.131 Q196.433 501.388 196.433 494.297 Q196.433 487.188 198.915 483.464 Q201.417 479.721 206.138 479.721 Z" fill="#000000" fill-rule="evenodd" fill-opacity="1" /><path clip-path="url(#clip590)" d="M44.7161 773.137 L47.5806 773.137 L47.5806 800.064 Q53.6281 799.682 56.8109 796.435 Q59.9619 793.157 59.9619 787.332 Q59.9619 783.959 59.1344 780.808 Q58.3069 777.625 56.6518 774.506 L62.1899 774.506 Q63.5267 777.657 64.227 780.967 Q64.9272 784.277 64.9272 787.683 Q64.9272 796.213 59.9619 801.21 Q54.9967 806.175 46.5303 806.175 Q37.7774 806.175 32.6531 801.464 Q27.4968 796.722 27.4968 788.701 Q27.4968 781.508 32.1438 777.338 Q36.7589 773.137 44.7161 773.137 M42.9973 778.993 Q38.1912 779.057 35.3266 781.699 Q32.4621 784.309 32.4621 788.637 Q32.4621 793.539 35.2312 796.499 Q38.0002 799.427 43.0292 799.873 L42.9973 778.993 Z" fill="#000000" fill-rule="evenodd" fill-opacity="1" /><path clip-path="url(#clip590)" d="M33.8307 742.868 Q33.2578 743.855 33.0032 745.032 Q32.7167 746.178 32.7167 747.579 Q32.7167 752.544 35.9632 755.218 Q39.1779 757.859 45.2253 757.859 L64.0042 757.859 L64.0042 763.748 L28.3562 763.748 L28.3562 757.859 L33.8944 757.859 Q30.6479 756.013 29.0883 753.053 Q27.4968 750.093 27.4968 745.86 Q27.4968 745.255 27.5923 744.523 Q27.656 743.791 27.8151 742.9 L33.8307 742.868 Z" fill="#000000" fill-rule="evenodd" fill-opacity="1" /><path clip-path="url(#clip590)" d="M33.8307 717.214 Q33.2578 718.201 33.0032 719.379 Q32.7167 720.524 32.7167 721.925 Q32.7167 726.89 35.9632 729.564 Q39.1779 732.205 45.2253 732.205 L64.0042 732.205 L64.0042 738.094 L28.3562 738.094 L28.3562 732.205 L33.8944 732.205 Q30.6479 730.359 29.0883 727.399 Q27.4968 724.439 27.4968 720.206 Q27.4968 719.601 27.5923 718.869 Q27.656 718.137 27.8151 717.246 L33.8307 717.214 Z" fill="#000000" fill-rule="evenodd" fill-opacity="1" /><path clip-path="url(#clip590)" d="M32.4621 698.69 Q32.4621 703.401 36.1542 706.138 Q39.8145 708.875 46.212 708.875 Q52.6095 708.875 56.3017 706.17 Q59.9619 703.432 59.9619 698.69 Q59.9619 694.011 56.2698 691.274 Q52.5777 688.537 46.212 688.537 Q39.8781 688.537 36.186 691.274 Q32.4621 694.011 32.4621 698.69 M27.4968 698.69 Q27.4968 691.051 32.4621 686.691 Q37.4273 682.33 46.212 682.33 Q54.9649 682.33 59.9619 686.691 Q64.9272 691.051 64.9272 698.69 Q64.9272 706.361 59.9619 710.721 Q54.9649 715.05 46.212 715.05 Q37.4273 715.05 32.4621 710.721 Q27.4968 706.361 27.4968 698.69 Z" fill="#000000" fill-rule="evenodd" fill-opacity="1" /><path clip-path="url(#clip590)" d="M33.8307 651.966 Q33.2578 652.952 33.0032 654.13 Q32.7167 655.276 32.7167 656.676 Q32.7167 661.642 35.9632 664.315 Q39.1779 666.957 45.2253 666.957 L64.0042 666.957 L64.0042 672.845 L28.3562 672.845 L28.3562 666.957 L33.8944 666.957 Q30.6479 665.111 29.0883 662.151 Q27.4968 659.191 27.4968 654.958 Q27.4968 654.353 27.5923 653.621 Q27.656 652.889 27.8151 651.998 L33.8307 651.966 Z" fill="#000000" fill-rule="evenodd" fill-opacity="1" /><polyline clip-path="url(#clip592)" style="stroke:#009af9; stroke-linecap:butt; stroke-linejoin:round; stroke-width:16; stroke-opacity:1; fill:none" points="
  311.302,85.838 491.483,202.789 671.665,319.741 851.846,436.692 1032.03,553.643 1212.21,670.595 1392.39,787.546 1572.57,904.497 1752.75,1021.45 1932.93,1138.4 
  2113.11,1255.35 2293.3,1372.3 
  "/>
<path clip-path="url(#clip590)" d="
M1996.86 196.379 L2282.73 196.379 L2282.73 92.6992 L1996.86 92.6992  Z
  " fill="#ffffff" fill-rule="evenodd" fill-opacity="1"/>
<polyline clip-path="url(#clip590)" style="stroke:#000000; stroke-linecap:butt; stroke-linejoin:round; stroke-width:4; stroke-opacity:1; fill:none" points="
  1996.86,196.379 2282.73,196.379 2282.73,92.6992 1996.86,92.6992 1996.86,196.379 
  "/>
<polyline clip-path="url(#clip590)" style="stroke:#009af9; stroke-linecap:butt; stroke-linejoin:round; stroke-width:4; stroke-opacity:1; fill:none" points="
  2020.2,144.539 2160.26,144.539 
  "/>
<path clip-path="url(#clip590)" d="M2197.45 164.227 Q2195.65 168.856 2193.93 170.268 Q2192.22 171.68 2189.35 171.68 L2185.95 171.68 L2185.95 168.115 L2188.45 168.115 Q2190.21 168.115 2191.18 167.282 Q2192.15 166.449 2193.33 163.347 L2194.09 161.403 L2183.61 135.893 L2188.12 135.893 L2196.22 156.171 L2204.33 135.893 L2208.84 135.893 L2197.45 164.227 Z" fill="#000000" fill-rule="evenodd" fill-opacity="1" /><path clip-path="url(#clip590)" d="M2216.13 157.884 L2223.77 157.884 L2223.77 131.518 L2215.46 133.185 L2215.46 128.926 L2223.72 127.259 L2228.4 127.259 L2228.4 157.884 L2236.04 157.884 L2236.04 161.819 L2216.13 161.819 L2216.13 157.884 Z" fill="#000000" fill-rule="evenodd" fill-opacity="1" /></svg>
