<?xml version="1.0" encoding="utf-8"?>
<svg xmlns="http://www.w3.org/2000/svg" xmlns:xlink="http://www.w3.org/1999/xlink" width="600" height="400" viewBox="0 0 2400 1600">
<defs>
  <clipPath id="clip530">
    <rect x="0" y="0" width="2400" height="1600"/>
  </clipPath>
</defs>
<path clip-path="url(#clip530)" d="
M0 1600 L2400 1600 L2400 0 L0 0  Z
  " fill="#ffffff" fill-rule="evenodd" fill-opacity="1"/>
<defs>
  <clipPath id="clip531">
    <rect x="480" y="0" width="1681" height="1600"/>
  </clipPath>
</defs>
<path clip-path="url(#clip530)" d="
M193.936 1486.45 L2352.76 1486.45 L2352.76 47.2441 L193.936 47.2441  Z
  " fill="#ffffff" fill-rule="evenodd" fill-opacity="1"/>
<defs>
  <clipPath id="clip532">
    <rect x="193" y="47" width="2160" height="1440"/>
  </clipPath>
</defs>
<polyline clip-path="url(#clip532)" style="stroke:#000000; stroke-linecap:butt; stroke-linejoin:round; stroke-width:2; stroke-opacity:0.1; fill:none" points="
  255.035,1486.45 255.035,47.2441 
  "/>
<polyline clip-path="url(#clip532)" style="stroke:#000000; stroke-linecap:butt; stroke-linejoin:round; stroke-width:2; stroke-opacity:0.1; fill:none" points="
  594.472,1486.45 594.472,47.2441 
  "/>
<polyline clip-path="url(#clip532)" style="stroke:#000000; stroke-linecap:butt; stroke-linejoin:round; stroke-width:2; stroke-opacity:0.1; fill:none" points="
  933.909,1486.45 933.909,47.2441 
  "/>
<polyline clip-path="url(#clip532)" style="stroke:#000000; stroke-linecap:butt; stroke-linejoin:round; stroke-width:2; stroke-opacity:0.1; fill:none" points="
  1273.35,1486.45 1273.35,47.2441 
  "/>
<polyline clip-path="url(#clip532)" style="stroke:#000000; stroke-linecap:butt; stroke-linejoin:round; stroke-width:2; stroke-opacity:0.1; fill:none" points="
  1612.78,1486.45 1612.78,47.2441 
  "/>
<polyline clip-path="url(#clip532)" style="stroke:#000000; stroke-linecap:butt; stroke-linejoin:round; stroke-width:2; stroke-opacity:0.1; fill:none" points="
  1952.22,1486.45 1952.22,47.2441 
  "/>
<polyline clip-path="url(#clip532)" style="stroke:#000000; stroke-linecap:butt; stroke-linejoin:round; stroke-width:2; stroke-opacity:0.1; fill:none" points="
  2291.66,1486.45 2291.66,47.2441 
  "/>
<polyline clip-path="url(#clip530)" style="stroke:#000000; stroke-linecap:butt; stroke-linejoin:round; stroke-width:4; stroke-opacity:1; fill:none" points="
  193.936,1486.45 2352.76,1486.45 
  "/>
<polyline clip-path="url(#clip530)" style="stroke:#000000; stroke-linecap:butt; stroke-linejoin:round; stroke-width:4; stroke-opacity:1; fill:none" points="
  255.035,1486.45 255.035,1467.55 
  "/>
<polyline clip-path="url(#clip530)" style="stroke:#000000; stroke-linecap:butt; stroke-linejoin:round; stroke-width:4; stroke-opacity:1; fill:none" points="
  594.472,1486.45 594.472,1467.55 
  "/>
<polyline clip-path="url(#clip530)" style="stroke:#000000; stroke-linecap:butt; stroke-linejoin:round; stroke-width:4; stroke-opacity:1; fill:none" points="
  933.909,1486.45 933.909,1467.55 
  "/>
<polyline clip-path="url(#clip530)" style="stroke:#000000; stroke-linecap:butt; stroke-linejoin:round; stroke-width:4; stroke-opacity:1; fill:none" points="
  1273.35,1486.45 1273.35,1467.55 
  "/>
<polyline clip-path="url(#clip530)" style="stroke:#000000; stroke-linecap:butt; stroke-linejoin:round; stroke-width:4; stroke-opacity:1; fill:none" points="
  1612.78,1486.45 1612.78,1467.55 
  "/>
<polyline clip-path="url(#clip530)" style="stroke:#000000; stroke-linecap:butt; stroke-linejoin:round; stroke-width:4; stroke-opacity:1; fill:none" points="
  1952.22,1486.45 1952.22,1467.55 
  "/>
<polyline clip-path="url(#clip530)" style="stroke:#000000; stroke-linecap:butt; stroke-linejoin:round; stroke-width:4; stroke-opacity:1; fill:none" points="
  2291.66,1486.45 2291.66,1467.55 
  "/>
<path clip-path="url(#clip530)" d="M224.502 1530.29 L254.178 1530.29 L254.178 1534.23 L224.502 1534.23 L224.502 1530.29 Z" fill="#000000" fill-rule="evenodd" fill-opacity="1" /><path clip-path="url(#clip530)" d="M278.437 1528.49 Q281.794 1529.2 283.669 1531.47 Q285.567 1533.74 285.567 1537.07 Q285.567 1542.19 282.048 1544.99 Q278.53 1547.79 272.048 1547.79 Q269.873 1547.79 267.558 1547.35 Q265.266 1546.93 262.812 1546.08 L262.812 1541.56 Q264.757 1542.7 267.072 1543.28 Q269.386 1543.86 271.91 1543.86 Q276.308 1543.86 278.599 1542.12 Q280.914 1540.38 280.914 1537.07 Q280.914 1534.02 278.761 1532.31 Q276.632 1530.57 272.812 1530.57 L268.785 1530.57 L268.785 1526.73 L272.998 1526.73 Q276.447 1526.73 278.275 1525.36 Q280.104 1523.97 280.104 1521.38 Q280.104 1518.72 278.206 1517.31 Q276.331 1515.87 272.812 1515.87 Q270.891 1515.87 268.692 1516.29 Q266.493 1516.7 263.854 1517.58 L263.854 1513.42 Q266.516 1512.68 268.831 1512.31 Q271.169 1511.93 273.229 1511.93 Q278.553 1511.93 281.655 1514.37 Q284.757 1516.77 284.757 1520.89 Q284.757 1523.76 283.113 1525.75 Q281.47 1527.72 278.437 1528.49 Z" fill="#000000" fill-rule="evenodd" fill-opacity="1" /><path clip-path="url(#clip530)" d="M564.414 1530.29 L594.09 1530.29 L594.09 1534.23 L564.414 1534.23 L564.414 1530.29 Z" fill="#000000" fill-rule="evenodd" fill-opacity="1" /><path clip-path="url(#clip530)" d="M608.21 1543.18 L624.529 1543.18 L624.529 1547.12 L602.585 1547.12 L602.585 1543.18 Q605.247 1540.43 609.83 1535.8 Q614.437 1531.15 615.617 1529.81 Q617.863 1527.28 618.742 1525.55 Q619.645 1523.79 619.645 1522.1 Q619.645 1519.34 617.701 1517.61 Q615.78 1515.87 612.678 1515.87 Q610.479 1515.87 608.025 1516.63 Q605.594 1517.4 602.817 1518.95 L602.817 1514.23 Q605.641 1513.09 608.094 1512.51 Q610.548 1511.93 612.585 1511.93 Q617.955 1511.93 621.15 1514.62 Q624.344 1517.31 624.344 1521.8 Q624.344 1523.93 623.534 1525.85 Q622.747 1527.74 620.641 1530.34 Q620.062 1531.01 616.96 1534.23 Q613.858 1537.42 608.21 1543.18 Z" fill="#000000" fill-rule="evenodd" fill-opacity="1" /><path clip-path="url(#clip530)" d="M903.666 1530.29 L933.342 1530.29 L933.342 1534.23 L903.666 1534.23 L903.666 1530.29 Z" fill="#000000" fill-rule="evenodd" fill-opacity="1" /><path clip-path="url(#clip530)" d="M944.244 1543.18 L951.883 1543.18 L951.883 1516.82 L943.573 1518.49 L943.573 1514.23 L951.837 1512.56 L956.513 1512.56 L956.513 1543.18 L964.152 1543.18 L964.152 1547.12 L944.244 1547.12 L944.244 1543.18 Z" fill="#000000" fill-rule="evenodd" fill-opacity="1" /><path clip-path="url(#clip530)" d="M1273.35 1515.64 Q1269.73 1515.64 1267.91 1519.2 Q1266.1 1522.75 1266.1 1529.87 Q1266.1 1536.98 1267.91 1540.55 Q1269.73 1544.09 1273.35 1544.09 Q1276.98 1544.09 1278.79 1540.55 Q1280.61 1536.98 1280.61 1529.87 Q1280.61 1522.75 1278.79 1519.2 Q1276.98 1515.64 1273.35 1515.64 M1273.35 1511.93 Q1279.16 1511.93 1282.21 1516.54 Q1285.29 1521.12 1285.29 1529.87 Q1285.29 1538.6 1282.21 1543.21 Q1279.16 1547.79 1273.35 1547.79 Q1267.54 1547.79 1264.46 1543.21 Q1261.4 1538.6 1261.4 1529.87 Q1261.4 1521.12 1264.46 1516.54 Q1267.54 1511.93 1273.35 1511.93 Z" fill="#000000" fill-rule="evenodd" fill-opacity="1" /><path clip-path="url(#clip530)" d="M1603.17 1543.18 L1610.8 1543.18 L1610.8 1516.82 L1602.49 1518.49 L1602.49 1514.23 L1610.76 1512.56 L1615.43 1512.56 L1615.43 1543.18 L1623.07 1543.18 L1623.07 1547.12 L1603.17 1547.12 L1603.17 1543.18 Z" fill="#000000" fill-rule="evenodd" fill-opacity="1" /><path clip-path="url(#clip530)" d="M1946.87 1543.18 L1963.19 1543.18 L1963.19 1547.12 L1941.25 1547.12 L1941.25 1543.18 Q1943.91 1540.43 1948.49 1535.8 Q1953.1 1531.15 1954.28 1529.81 Q1956.53 1527.28 1957.41 1525.55 Q1958.31 1523.79 1958.31 1522.1 Q1958.31 1519.34 1956.36 1517.61 Q1954.44 1515.87 1951.34 1515.87 Q1949.14 1515.87 1946.69 1516.63 Q1944.26 1517.4 1941.48 1518.95 L1941.48 1514.23 Q1944.3 1513.09 1946.76 1512.51 Q1949.21 1511.93 1951.25 1511.93 Q1956.62 1511.93 1959.81 1514.62 Q1963.01 1517.31 1963.01 1521.8 Q1963.01 1523.93 1962.2 1525.85 Q1961.41 1527.74 1959.3 1530.34 Q1958.72 1531.01 1955.62 1534.23 Q1952.52 1537.42 1946.87 1543.18 Z" fill="#000000" fill-rule="evenodd" fill-opacity="1" /><path clip-path="url(#clip530)" d="M2295.9 1528.49 Q2299.26 1529.2 2301.14 1531.47 Q2303.03 1533.74 2303.03 1537.07 Q2303.03 1542.19 2299.52 1544.99 Q2296 1547.79 2289.52 1547.79 Q2287.34 1547.79 2285.03 1547.35 Q2282.73 1546.93 2280.28 1546.08 L2280.28 1541.56 Q2282.22 1542.7 2284.54 1543.28 Q2286.85 1543.86 2289.38 1543.86 Q2293.78 1543.86 2296.07 1542.12 Q2298.38 1540.38 2298.38 1537.07 Q2298.38 1534.02 2296.23 1532.31 Q2294.1 1530.57 2290.28 1530.57 L2286.25 1530.57 L2286.25 1526.73 L2290.47 1526.73 Q2293.91 1526.73 2295.74 1525.36 Q2297.57 1523.97 2297.57 1521.38 Q2297.57 1518.72 2295.67 1517.31 Q2293.8 1515.87 2290.28 1515.87 Q2288.36 1515.87 2286.16 1516.29 Q2283.96 1516.7 2281.32 1517.58 L2281.32 1513.42 Q2283.98 1512.68 2286.3 1512.31 Q2288.64 1511.93 2290.7 1511.93 Q2296.02 1511.93 2299.12 1514.37 Q2302.22 1516.77 2302.22 1520.89 Q2302.22 1523.76 2300.58 1525.75 Q2298.94 1527.72 2295.9 1528.49 Z" fill="#000000" fill-rule="evenodd" fill-opacity="1" /><polyline clip-path="url(#clip532)" style="stroke:#000000; stroke-linecap:butt; stroke-linejoin:round; stroke-width:2; stroke-opacity:0.1; fill:none" points="
  193.936,1452.54 2352.76,1452.54 
  "/>
<polyline clip-path="url(#clip532)" style="stroke:#000000; stroke-linecap:butt; stroke-linejoin:round; stroke-width:2; stroke-opacity:0.1; fill:none" points="
  193.936,1111.4 2352.76,1111.4 
  "/>
<polyline clip-path="url(#clip532)" style="stroke:#000000; stroke-linecap:butt; stroke-linejoin:round; stroke-width:2; stroke-opacity:0.1; fill:none" points="
  193.936,770.26 2352.76,770.26 
  "/>
<polyline clip-path="url(#clip532)" style="stroke:#000000; stroke-linecap:butt; stroke-linejoin:round; stroke-width:2; stroke-opacity:0.1; fill:none" points="
  193.936,429.118 2352.76,429.118 
  "/>
<polyline clip-path="url(#clip532)" style="stroke:#000000; stroke-linecap:butt; stroke-linejoin:round; stroke-width:2; stroke-opacity:0.1; fill:none" points="
  193.936,87.9763 2352.76,87.9763 
  "/>
<polyline clip-path="url(#clip530)" style="stroke:#000000; stroke-linecap:butt; stroke-linejoin:round; stroke-width:4; stroke-opacity:1; fill:none" points="
  193.936,1486.45 193.936,47.2441 
  "/>
<polyline clip-path="url(#clip530)" style="stroke:#000000; stroke-linecap:butt; stroke-linejoin:round; stroke-width:4; stroke-opacity:1; fill:none" points="
  193.936,1452.54 212.834,1452.54 
  "/>
<polyline clip-path="url(#clip530)" style="stroke:#000000; stroke-linecap:butt; stroke-linejoin:round; stroke-width:4; stroke-opacity:1; fill:none" points="
  193.936,1111.4 212.834,1111.4 
  "/>
<polyline clip-path="url(#clip530)" style="stroke:#000000; stroke-linecap:butt; stroke-linejoin:round; stroke-width:4; stroke-opacity:1; fill:none" points="
  193.936,770.26 212.834,770.26 
  "/>
<polyline clip-path="url(#clip530)" style="stroke:#000000; stroke-linecap:butt; stroke-linejoin:round; stroke-width:4; stroke-opacity:1; fill:none" points="
  193.936,429.118 212.834,429.118 
  "/>
<polyline clip-path="url(#clip530)" style="stroke:#000000; stroke-linecap:butt; stroke-linejoin:round; stroke-width:4; stroke-opacity:1; fill:none" points="
  193.936,87.9763 212.834,87.9763 
  "/>
<path clip-path="url(#clip530)" d="M50.9921 1453 L80.6679 1453 L80.6679 1456.93 L50.9921 1456.93 L50.9921 1453 Z" fill="#000000" fill-rule="evenodd" fill-opacity="1" /><path clip-path="url(#clip530)" d="M91.5706 1465.89 L99.2095 1465.89 L99.2095 1439.52 L90.8993 1441.19 L90.8993 1436.93 L99.1632 1435.26 L103.839 1435.26 L103.839 1465.89 L111.478 1465.89 L111.478 1469.82 L91.5706 1469.82 L91.5706 1465.89 Z" fill="#000000" fill-rule="evenodd" fill-opacity="1" /><path clip-path="url(#clip530)" d="M120.922 1463.94 L125.807 1463.94 L125.807 1469.82 L120.922 1469.82 L120.922 1463.94 Z" fill="#000000" fill-rule="evenodd" fill-opacity="1" /><path clip-path="url(#clip530)" d="M145.992 1438.34 Q142.381 1438.34 140.552 1441.91 Q138.746 1445.45 138.746 1452.58 Q138.746 1459.68 140.552 1463.25 Q142.381 1466.79 145.992 1466.79 Q149.626 1466.79 151.431 1463.25 Q153.26 1459.68 153.26 1452.58 Q153.26 1445.45 151.431 1441.91 Q149.626 1438.34 145.992 1438.34 M145.992 1434.64 Q151.802 1434.64 154.857 1439.25 Q157.936 1443.83 157.936 1452.58 Q157.936 1461.31 154.857 1465.91 Q151.802 1470.49 145.992 1470.49 Q140.181 1470.49 137.103 1465.91 Q134.047 1461.31 134.047 1452.58 Q134.047 1443.83 137.103 1439.25 Q140.181 1434.64 145.992 1434.64 Z" fill="#000000" fill-rule="evenodd" fill-opacity="1" /><path clip-path="url(#clip530)" d="M51.9875 1111.85 L81.6633 1111.85 L81.6633 1115.79 L51.9875 1115.79 L51.9875 1111.85 Z" fill="#000000" fill-rule="evenodd" fill-opacity="1" /><path clip-path="url(#clip530)" d="M101.756 1097.2 Q98.1447 1097.2 96.316 1100.77 Q94.5104 1104.31 94.5104 1111.44 Q94.5104 1118.54 96.316 1122.11 Q98.1447 1125.65 101.756 1125.65 Q105.39 1125.65 107.196 1122.11 Q109.024 1118.54 109.024 1111.44 Q109.024 1104.31 107.196 1100.77 Q105.39 1097.2 101.756 1097.2 M101.756 1093.5 Q107.566 1093.5 110.621 1098.1 Q113.7 1102.69 113.7 1111.44 Q113.7 1120.16 110.621 1124.77 Q107.566 1129.35 101.756 1129.35 Q95.9456 1129.35 92.8669 1124.77 Q89.8114 1120.16 89.8114 1111.44 Q89.8114 1102.69 92.8669 1098.1 Q95.9456 1093.5 101.756 1093.5 Z" fill="#000000" fill-rule="evenodd" fill-opacity="1" /><path clip-path="url(#clip530)" d="M121.918 1122.8 L126.802 1122.8 L126.802 1128.68 L121.918 1128.68 L121.918 1122.8 Z" fill="#000000" fill-rule="evenodd" fill-opacity="1" /><path clip-path="url(#clip530)" d="M137.033 1094.12 L155.39 1094.12 L155.39 1098.06 L141.316 1098.06 L141.316 1106.53 Q142.334 1106.18 143.353 1106.02 Q144.371 1105.83 145.39 1105.83 Q151.177 1105.83 154.556 1109.01 Q157.936 1112.18 157.936 1117.59 Q157.936 1123.17 154.464 1126.27 Q150.992 1129.35 144.672 1129.35 Q142.496 1129.35 140.228 1128.98 Q137.982 1128.61 135.575 1127.87 L135.575 1123.17 Q137.658 1124.31 139.881 1124.86 Q142.103 1125.42 144.58 1125.42 Q148.584 1125.42 150.922 1123.31 Q153.26 1121.2 153.26 1117.59 Q153.26 1113.98 150.922 1111.88 Q148.584 1109.77 144.58 1109.77 Q142.705 1109.77 140.83 1110.19 Q138.978 1110.6 137.033 1111.48 L137.033 1094.12 Z" fill="#000000" fill-rule="evenodd" fill-opacity="1" /><path clip-path="url(#clip530)" d="M100.76 756.059 Q97.1493 756.059 95.3206 759.623 Q93.515 763.165 93.515 770.295 Q93.515 777.401 95.3206 780.966 Q97.1493 784.508 100.76 784.508 Q104.395 784.508 106.2 780.966 Q108.029 777.401 108.029 770.295 Q108.029 763.165 106.2 759.623 Q104.395 756.059 100.76 756.059 M100.76 752.355 Q106.571 752.355 109.626 756.961 Q112.705 761.545 112.705 770.295 Q112.705 779.021 109.626 783.628 Q106.571 788.211 100.76 788.211 Q94.9502 788.211 91.8715 783.628 Q88.816 779.021 88.816 770.295 Q88.816 761.545 91.8715 756.961 Q94.9502 752.355 100.76 752.355 Z" fill="#000000" fill-rule="evenodd" fill-opacity="1" /><path clip-path="url(#clip530)" d="M120.922 781.66 L125.807 781.66 L125.807 787.54 L120.922 787.54 L120.922 781.66 Z" fill="#000000" fill-rule="evenodd" fill-opacity="1" /><path clip-path="url(#clip530)" d="M145.992 756.059 Q142.381 756.059 140.552 759.623 Q138.746 763.165 138.746 770.295 Q138.746 777.401 140.552 780.966 Q142.381 784.508 145.992 784.508 Q149.626 784.508 151.431 780.966 Q153.26 777.401 153.26 770.295 Q153.26 763.165 151.431 759.623 Q149.626 756.059 145.992 756.059 M145.992 752.355 Q151.802 752.355 154.857 756.961 Q157.936 761.545 157.936 770.295 Q157.936 779.021 154.857 783.628 Q151.802 788.211 145.992 788.211 Q140.181 788.211 137.103 783.628 Q134.047 779.021 134.047 770.295 Q134.047 761.545 137.103 756.961 Q140.181 752.355 145.992 752.355 Z" fill="#000000" fill-rule="evenodd" fill-opacity="1" /><path clip-path="url(#clip530)" d="M101.756 414.917 Q98.1447 414.917 96.316 418.482 Q94.5104 422.023 94.5104 429.153 Q94.5104 436.259 96.316 439.824 Q98.1447 443.366 101.756 443.366 Q105.39 443.366 107.196 439.824 Q109.024 436.259 109.024 429.153 Q109.024 422.023 107.196 418.482 Q105.39 414.917 101.756 414.917 M101.756 411.213 Q107.566 411.213 110.621 415.82 Q113.7 420.403 113.7 429.153 Q113.7 437.88 110.621 442.486 Q107.566 447.069 101.756 447.069 Q95.9456 447.069 92.8669 442.486 Q89.8114 437.88 89.8114 429.153 Q89.8114 420.403 92.8669 415.82 Q95.9456 411.213 101.756 411.213 Z" fill="#000000" fill-rule="evenodd" fill-opacity="1" /><path clip-path="url(#clip530)" d="M121.918 440.519 L126.802 440.519 L126.802 446.398 L121.918 446.398 L121.918 440.519 Z" fill="#000000" fill-rule="evenodd" fill-opacity="1" /><path clip-path="url(#clip530)" d="M137.033 411.838 L155.39 411.838 L155.39 415.773 L141.316 415.773 L141.316 424.245 Q142.334 423.898 143.353 423.736 Q144.371 423.551 145.39 423.551 Q151.177 423.551 154.556 426.722 Q157.936 429.894 157.936 435.31 Q157.936 440.889 154.464 443.991 Q150.992 447.069 144.672 447.069 Q142.496 447.069 140.228 446.699 Q137.982 446.329 135.575 445.588 L135.575 440.889 Q137.658 442.023 139.881 442.579 Q142.103 443.134 144.58 443.134 Q148.584 443.134 150.922 441.028 Q153.26 438.921 153.26 435.31 Q153.26 431.699 150.922 429.593 Q148.584 427.486 144.58 427.486 Q142.705 427.486 140.83 427.903 Q138.978 428.32 137.033 429.199 L137.033 411.838 Z" fill="#000000" fill-rule="evenodd" fill-opacity="1" /><path clip-path="url(#clip530)" d="M91.5706 101.321 L99.2095 101.321 L99.2095 74.9555 L90.8993 76.6222 L90.8993 72.3629 L99.1632 70.6963 L103.839 70.6963 L103.839 101.321 L111.478 101.321 L111.478 105.256 L91.5706 105.256 L91.5706 101.321 Z" fill="#000000" fill-rule="evenodd" fill-opacity="1" /><path clip-path="url(#clip530)" d="M120.922 99.3767 L125.807 99.3767 L125.807 105.256 L120.922 105.256 L120.922 99.3767 Z" fill="#000000" fill-rule="evenodd" fill-opacity="1" /><path clip-path="url(#clip530)" d="M145.992 73.775 Q142.381 73.775 140.552 77.3398 Q138.746 80.8814 138.746 88.011 Q138.746 95.1174 140.552 98.6822 Q142.381 102.224 145.992 102.224 Q149.626 102.224 151.431 98.6822 Q153.26 95.1174 153.26 88.011 Q153.26 80.8814 151.431 77.3398 Q149.626 73.775 145.992 73.775 M145.992 70.0713 Q151.802 70.0713 154.857 74.6777 Q157.936 79.261 157.936 88.011 Q157.936 96.7378 154.857 101.344 Q151.802 105.928 145.992 105.928 Q140.181 105.928 137.103 101.344 Q134.047 96.7378 134.047 88.011 Q134.047 79.261 137.103 74.6777 Q140.181 70.0713 145.992 70.0713 Z" fill="#000000" fill-rule="evenodd" fill-opacity="1" /><polyline clip-path="url(#clip532)" style="stroke:#009af9; stroke-linecap:butt; stroke-linejoin:round; stroke-width:4; stroke-opacity:1; fill:none" points="
  255.035,1445.72 458.697,1273.37 662.359,925.276 866.021,523.029 1069.68,207.147 1273.35,87.9763 1477.01,207.147 1680.67,523.029 1884.33,925.276 2087.99,1273.37 
  2291.66,1445.72 
  "/>
<polyline clip-path="url(#clip532)" style="stroke:#e26f46; stroke-linecap:butt; stroke-linejoin:round; stroke-width:4; stroke-opacity:1; fill:none" points="
  255.035,1377.88 458.697,1109.56 662.359,722.718 866.021,352.479 1069.68,128.183 1273.35,128.183 1477.01,352.479 1680.67,722.718 1884.33,1109.56 2087.99,1377.88 
  
  "/>
<circle clip-path="url(#clip532)" cx="255.035" cy="1377.88" r="14" fill="#e26f46" fill-rule="evenodd" fill-opacity="1" stroke="#000000" stroke-opacity="1" stroke-width="3.2"/>
<circle clip-path="url(#clip532)" cx="458.697" cy="1109.56" r="14" fill="#e26f46" fill-rule="evenodd" fill-opacity="1" stroke="#000000" stroke-opacity="1" stroke-width="3.2"/>
<circle clip-path="url(#clip532)" cx="662.359" cy="722.718" r="14" fill="#e26f46" fill-rule="evenodd" fill-opacity="1" stroke="#000000" stroke-opacity="1" stroke-width="3.2"/>
<circle clip-path="url(#clip532)" cx="866.021" cy="352.479" r="14" fill="#e26f46" fill-rule="evenodd" fill-opacity="1" stroke="#000000" stroke-opacity="1" stroke-width="3.2"/>
<circle clip-path="url(#clip532)" cx="1069.68" cy="128.183" r="14" fill="#e26f46" fill-rule="evenodd" fill-opacity="1" stroke="#000000" stroke-opacity="1" stroke-width="3.2"/>
<circle clip-path="url(#clip532)" cx="1273.35" cy="128.183" r="14" fill="#e26f46" fill-rule="evenodd" fill-opacity="1" stroke="#000000" stroke-opacity="1" stroke-width="3.2"/>
<circle clip-path="url(#clip532)" cx="1477.01" cy="352.479" r="14" fill="#e26f46" fill-rule="evenodd" fill-opacity="1" stroke="#000000" stroke-opacity="1" stroke-width="3.2"/>
<circle clip-path="url(#clip532)" cx="1680.67" cy="722.718" r="14" fill="#e26f46" fill-rule="evenodd" fill-opacity="1" stroke="#000000" stroke-opacity="1" stroke-width="3.2"/>
<circle clip-path="url(#clip532)" cx="1884.33" cy="1109.56" r="14" fill="#e26f46" fill-rule="evenodd" fill-opacity="1" stroke="#000000" stroke-opacity="1" stroke-width="3.2"/>
<circle clip-path="url(#clip532)" cx="2087.99" cy="1377.88" r="14" fill="#e26f46" fill-rule="evenodd" fill-opacity="1" stroke="#000000" stroke-opacity="1" stroke-width="3.2"/>
<path clip-path="url(#clip530)" d="
M1988.5 250.738 L2280.8 250.738 L2280.8 95.2176 L1988.5 95.2176  Z
  " fill="#ffffff" fill-rule="evenodd" fill-opacity="1"/>
<polyline clip-path="url(#clip530)" style="stroke:#000000; stroke-linecap:butt; stroke-linejoin:round; stroke-width:4; stroke-opacity:1; fill:none" points="
  1988.5,250.738 2280.8,250.738 2280.8,95.2176 1988.5,95.2176 1988.5,250.738 
  "/>
<polyline clip-path="url(#clip530)" style="stroke:#009af9; stroke-linecap:butt; stroke-linejoin:round; stroke-width:4; stroke-opacity:1; fill:none" points="
  2012.48,147.058 2156.4,147.058 
  "/>
<path clip-path="url(#clip530)" d="M2194.23 166.745 Q2192.43 171.375 2190.72 172.787 Q2189 174.199 2186.13 174.199 L2182.73 174.199 L2182.73 170.634 L2185.23 170.634 Q2186.99 170.634 2187.96 169.8 Q2188.93 168.967 2190.11 165.865 L2190.88 163.921 L2180.39 138.412 L2184.91 138.412 L2193.01 158.689 L2201.11 138.412 L2205.62 138.412 L2194.23 166.745 Z" fill="#000000" fill-rule="evenodd" fill-opacity="1" /><path clip-path="url(#clip530)" d="M2212.91 160.402 L2220.55 160.402 L2220.55 134.037 L2212.24 135.703 L2212.24 131.444 L2220.51 129.778 L2225.18 129.778 L2225.18 160.402 L2232.82 160.402 L2232.82 164.338 L2212.91 164.338 L2212.91 160.402 Z" fill="#000000" fill-rule="evenodd" fill-opacity="1" /><polyline clip-path="url(#clip530)" style="stroke:#e26f46; stroke-linecap:butt; stroke-linejoin:round; stroke-width:4; stroke-opacity:1; fill:none" points="
  2012.48,198.898 2156.4,198.898 
  "/>
<circle clip-path="url(#clip530)" cx="2084.44" cy="198.898" r="23" fill="#e26f46" fill-rule="evenodd" fill-opacity="1" stroke="#000000" stroke-opacity="1" stroke-width="5.12"/>
<path clip-path="url(#clip530)" d="M2194.23 218.585 Q2192.43 223.215 2190.72 224.627 Q2189 226.039 2186.13 226.039 L2182.73 226.039 L2182.73 222.474 L2185.23 222.474 Q2186.99 222.474 2187.96 221.64 Q2188.93 220.807 2190.11 217.705 L2190.88 215.761 L2180.39 190.252 L2184.91 190.252 L2193.01 210.529 L2201.11 190.252 L2205.62 190.252 L2194.23 218.585 Z" fill="#000000" fill-rule="evenodd" fill-opacity="1" /><path clip-path="url(#clip530)" d="M2216.13 212.242 L2232.45 212.242 L2232.45 216.178 L2210.51 216.178 L2210.51 212.242 Q2213.17 209.488 2217.75 204.858 Q2222.36 200.205 2223.54 198.863 Q2225.78 196.34 2226.66 194.604 Q2227.57 192.844 2227.57 191.155 Q2227.57 188.4 2225.62 186.664 Q2223.7 184.928 2220.6 184.928 Q2218.4 184.928 2215.95 185.692 Q2213.52 186.455 2210.74 188.006 L2210.74 183.284 Q2213.56 182.15 2216.02 181.571 Q2218.47 180.993 2220.51 180.993 Q2225.88 180.993 2229.07 183.678 Q2232.27 186.363 2232.27 190.854 Q2232.27 192.983 2231.46 194.905 Q2230.67 196.803 2228.56 199.395 Q2227.98 200.067 2224.88 203.284 Q2221.78 206.479 2216.13 212.242 Z" fill="#000000" fill-rule="evenodd" fill-opacity="1" /></svg>
