<?xml version="1.0" encoding="utf-8"?>
<svg xmlns="http://www.w3.org/2000/svg" xmlns:xlink="http://www.w3.org/1999/xlink" width="600" height="400" viewBox="0 0 2400 1600">
<defs>
  <clipPath id="clip250">
    <rect x="0" y="0" width="2400" height="1600"/>
  </clipPath>
</defs>
<path clip-path="url(#clip250)" d="
M0 1600 L2400 1600 L2400 0 L0 0  Z
  " fill="#ffffff" fill-rule="evenodd" fill-opacity="1"/>
<defs>
  <clipPath id="clip251">
    <rect x="480" y="0" width="1681" height="1600"/>
  </clipPath>
</defs>
<path clip-path="url(#clip250)" d="
M189.496 1474.16 L2352.76 1474.16 L2352.76 47.2441 L189.496 47.2441  Z
  " fill="#ffffff" fill-rule="evenodd" fill-opacity="1"/>
<defs>
  <clipPath id="clip252">
    <rect x="189" y="47" width="2164" height="1428"/>
  </clipPath>
</defs>
<polyline clip-path="url(#clip252)" style="stroke:#000000; stroke-linecap:butt; stroke-linejoin:round; stroke-width:2; stroke-opacity:0.1; fill:none" points="
  259.449,1474.16 259.449,47.2441 
  "/>
<polyline clip-path="url(#clip252)" style="stroke:#000000; stroke-linecap:butt; stroke-linejoin:round; stroke-width:2; stroke-opacity:0.1; fill:none" points="
  1106.88,1474.16 1106.88,47.2441 
  "/>
<polyline clip-path="url(#clip252)" style="stroke:#000000; stroke-linecap:butt; stroke-linejoin:round; stroke-width:2; stroke-opacity:0.1; fill:none" points="
  1954.31,1474.16 1954.31,47.2441 
  "/>
<polyline clip-path="url(#clip250)" style="stroke:#000000; stroke-linecap:butt; stroke-linejoin:round; stroke-width:4; stroke-opacity:1; fill:none" points="
  189.496,1474.16 2352.76,1474.16 
  "/>
<polyline clip-path="url(#clip250)" style="stroke:#000000; stroke-linecap:butt; stroke-linejoin:round; stroke-width:4; stroke-opacity:1; fill:none" points="
  259.449,1474.16 259.449,1455.27 
  "/>
<polyline clip-path="url(#clip250)" style="stroke:#000000; stroke-linecap:butt; stroke-linejoin:round; stroke-width:4; stroke-opacity:1; fill:none" points="
  1106.88,1474.16 1106.88,1455.27 
  "/>
<polyline clip-path="url(#clip250)" style="stroke:#000000; stroke-linecap:butt; stroke-linejoin:round; stroke-width:4; stroke-opacity:1; fill:none" points="
  1954.31,1474.16 1954.31,1455.27 
  "/>
<path clip-path="url(#clip250)" d="M209.329 1552.44 L216.968 1552.44 L216.968 1526.07 L208.658 1527.74 L208.658 1523.48 L216.921 1521.81 L221.597 1521.81 L221.597 1552.44 L229.236 1552.44 L229.236 1556.37 L209.329 1556.37 L209.329 1552.44 Z" fill="#000000" fill-rule="evenodd" fill-opacity="1" /><path clip-path="url(#clip250)" d="M248.681 1524.89 Q245.069 1524.89 243.241 1528.46 Q241.435 1532 241.435 1539.13 Q241.435 1546.23 243.241 1549.8 Q245.069 1553.34 248.681 1553.34 Q252.315 1553.34 254.12 1549.8 Q255.949 1546.23 255.949 1539.13 Q255.949 1532 254.12 1528.46 Q252.315 1524.89 248.681 1524.89 M248.681 1521.19 Q254.491 1521.19 257.546 1525.79 Q260.625 1530.38 260.625 1539.13 Q260.625 1547.85 257.546 1552.46 Q254.491 1557.04 248.681 1557.04 Q242.87 1557.04 239.792 1552.46 Q236.736 1547.85 236.736 1539.13 Q236.736 1530.38 239.792 1525.79 Q242.87 1521.19 248.681 1521.19 Z" fill="#000000" fill-rule="evenodd" fill-opacity="1" /><path clip-path="url(#clip250)" d="M260.625 1515.29 L284.737 1515.29 L284.737 1518.49 L260.625 1518.49 L260.625 1515.29 Z" fill="#000000" fill-rule="evenodd" fill-opacity="1" /><path clip-path="url(#clip250)" d="M304.447 1513.82 Q307.174 1514.4 308.698 1516.25 Q310.24 1518.09 310.24 1520.8 Q310.24 1524.96 307.381 1527.23 Q304.522 1529.51 299.256 1529.51 Q297.488 1529.51 295.607 1529.15 Q293.745 1528.81 291.752 1528.12 L291.752 1524.45 Q293.332 1525.37 295.212 1525.84 Q297.093 1526.31 299.143 1526.31 Q302.717 1526.31 304.579 1524.9 Q306.459 1523.49 306.459 1520.8 Q306.459 1518.32 304.71 1516.92 Q302.98 1515.51 299.877 1515.51 L296.604 1515.51 L296.604 1512.39 L300.027 1512.39 Q302.83 1512.39 304.315 1511.28 Q305.801 1510.15 305.801 1508.05 Q305.801 1505.88 304.259 1504.74 Q302.736 1503.57 299.877 1503.57 Q298.316 1503.57 296.529 1503.91 Q294.742 1504.25 292.598 1504.96 L292.598 1501.58 Q294.761 1500.98 296.642 1500.67 Q298.541 1500.37 300.215 1500.37 Q304.541 1500.37 307.061 1502.35 Q309.582 1504.3 309.582 1507.65 Q309.582 1509.98 308.246 1511.6 Q306.911 1513.2 304.447 1513.82 Z" fill="#000000" fill-rule="evenodd" fill-opacity="1" /><path clip-path="url(#clip250)" d="M1057.14 1552.44 L1064.78 1552.44 L1064.78 1526.07 L1056.47 1527.74 L1056.47 1523.48 L1064.74 1521.81 L1069.41 1521.81 L1069.41 1552.44 L1077.05 1552.44 L1077.05 1556.37 L1057.14 1556.37 L1057.14 1552.44 Z" fill="#000000" fill-rule="evenodd" fill-opacity="1" /><path clip-path="url(#clip250)" d="M1096.49 1524.89 Q1092.88 1524.89 1091.05 1528.46 Q1089.25 1532 1089.25 1539.13 Q1089.25 1546.23 1091.05 1549.8 Q1092.88 1553.34 1096.49 1553.34 Q1100.13 1553.34 1101.93 1549.8 Q1103.76 1546.23 1103.76 1539.13 Q1103.76 1532 1101.93 1528.46 Q1100.13 1524.89 1096.49 1524.89 M1096.49 1521.19 Q1102.3 1521.19 1105.36 1525.79 Q1108.44 1530.38 1108.44 1539.13 Q1108.44 1547.85 1105.36 1552.46 Q1102.3 1557.04 1096.49 1557.04 Q1090.68 1557.04 1087.61 1552.46 Q1084.55 1547.85 1084.55 1539.13 Q1084.55 1530.38 1087.61 1525.79 Q1090.68 1521.19 1096.49 1521.19 Z" fill="#000000" fill-rule="evenodd" fill-opacity="1" /><path clip-path="url(#clip250)" d="M1108.44 1515.29 L1132.55 1515.29 L1132.55 1518.49 L1108.44 1518.49 L1108.44 1515.29 Z" fill="#000000" fill-rule="evenodd" fill-opacity="1" /><path clip-path="url(#clip250)" d="M1144.02 1525.76 L1157.28 1525.76 L1157.28 1528.96 L1139.45 1528.96 L1139.45 1525.76 Q1141.62 1523.53 1145.34 1519.76 Q1149.08 1515.98 1150.04 1514.89 Q1151.87 1512.84 1152.58 1511.43 Q1153.31 1510 1153.31 1508.63 Q1153.31 1506.39 1151.73 1504.98 Q1150.17 1503.57 1147.65 1503.57 Q1145.87 1503.57 1143.87 1504.19 Q1141.9 1504.81 1139.64 1506.07 L1139.64 1502.24 Q1141.94 1501.31 1143.93 1500.84 Q1145.92 1500.37 1147.58 1500.37 Q1151.94 1500.37 1154.54 1502.56 Q1157.13 1504.74 1157.13 1508.39 Q1157.13 1510.12 1156.47 1511.68 Q1155.83 1513.22 1154.12 1515.33 Q1153.65 1515.87 1151.13 1518.49 Q1148.61 1521.08 1144.02 1525.76 Z" fill="#000000" fill-rule="evenodd" fill-opacity="1" /><path clip-path="url(#clip250)" d="M1904.42 1552.44 L1912.06 1552.44 L1912.06 1526.07 L1903.75 1527.74 L1903.75 1523.48 L1912.01 1521.81 L1916.69 1521.81 L1916.69 1552.44 L1924.33 1552.44 L1924.33 1556.37 L1904.42 1556.37 L1904.42 1552.44 Z" fill="#000000" fill-rule="evenodd" fill-opacity="1" /><path clip-path="url(#clip250)" d="M1943.77 1524.89 Q1940.16 1524.89 1938.33 1528.46 Q1936.53 1532 1936.53 1539.13 Q1936.53 1546.23 1938.33 1549.8 Q1940.16 1553.34 1943.77 1553.34 Q1947.41 1553.34 1949.21 1549.8 Q1951.04 1546.23 1951.04 1539.13 Q1951.04 1532 1949.21 1528.46 Q1947.41 1524.89 1943.77 1524.89 M1943.77 1521.19 Q1949.58 1521.19 1952.64 1525.79 Q1955.72 1530.38 1955.72 1539.13 Q1955.72 1547.85 1952.64 1552.46 Q1949.58 1557.04 1943.77 1557.04 Q1937.96 1557.04 1934.88 1552.46 Q1931.83 1547.85 1931.83 1539.13 Q1931.83 1530.38 1934.88 1525.79 Q1937.96 1521.19 1943.77 1521.19 Z" fill="#000000" fill-rule="evenodd" fill-opacity="1" /><path clip-path="url(#clip250)" d="M1955.72 1515.29 L1979.83 1515.29 L1979.83 1518.49 L1955.72 1518.49 L1955.72 1515.29 Z" fill="#000000" fill-rule="evenodd" fill-opacity="1" /><path clip-path="url(#clip250)" d="M1988.69 1525.76 L1994.89 1525.76 L1994.89 1504.34 L1988.14 1505.7 L1988.14 1502.24 L1994.86 1500.88 L1998.66 1500.88 L1998.66 1525.76 L2004.86 1525.76 L2004.86 1528.96 L1988.69 1528.96 L1988.69 1525.76 Z" fill="#000000" fill-rule="evenodd" fill-opacity="1" /><polyline clip-path="url(#clip252)" style="stroke:#000000; stroke-linecap:butt; stroke-linejoin:round; stroke-width:2; stroke-opacity:0.1; fill:none" points="
  189.496,1468.52 2352.76,1468.52 
  "/>
<polyline clip-path="url(#clip252)" style="stroke:#000000; stroke-linecap:butt; stroke-linejoin:round; stroke-width:2; stroke-opacity:0.1; fill:none" points="
  189.496,1128.05 2352.76,1128.05 
  "/>
<polyline clip-path="url(#clip252)" style="stroke:#000000; stroke-linecap:butt; stroke-linejoin:round; stroke-width:2; stroke-opacity:0.1; fill:none" points="
  189.496,787.573 2352.76,787.573 
  "/>
<polyline clip-path="url(#clip252)" style="stroke:#000000; stroke-linecap:butt; stroke-linejoin:round; stroke-width:2; stroke-opacity:0.1; fill:none" points="
  189.496,447.101 2352.76,447.101 
  "/>
<polyline clip-path="url(#clip252)" style="stroke:#000000; stroke-linecap:butt; stroke-linejoin:round; stroke-width:2; stroke-opacity:0.1; fill:none" points="
  189.496,106.628 2352.76,106.628 
  "/>
<polyline clip-path="url(#clip250)" style="stroke:#000000; stroke-linecap:butt; stroke-linejoin:round; stroke-width:4; stroke-opacity:1; fill:none" points="
  189.496,1474.16 189.496,47.2441 
  "/>
<polyline clip-path="url(#clip250)" style="stroke:#000000; stroke-linecap:butt; stroke-linejoin:round; stroke-width:4; stroke-opacity:1; fill:none" points="
  189.496,1468.52 208.394,1468.52 
  "/>
<polyline clip-path="url(#clip250)" style="stroke:#000000; stroke-linecap:butt; stroke-linejoin:round; stroke-width:4; stroke-opacity:1; fill:none" points="
  189.496,1128.05 208.394,1128.05 
  "/>
<polyline clip-path="url(#clip250)" style="stroke:#000000; stroke-linecap:butt; stroke-linejoin:round; stroke-width:4; stroke-opacity:1; fill:none" points="
  189.496,787.573 208.394,787.573 
  "/>
<polyline clip-path="url(#clip250)" style="stroke:#000000; stroke-linecap:butt; stroke-linejoin:round; stroke-width:4; stroke-opacity:1; fill:none" points="
  189.496,447.101 208.394,447.101 
  "/>
<polyline clip-path="url(#clip250)" style="stroke:#000000; stroke-linecap:butt; stroke-linejoin:round; stroke-width:4; stroke-opacity:1; fill:none" points="
  189.496,106.628 208.394,106.628 
  "/>
<path clip-path="url(#clip250)" d="M51.6634 1488.31 L59.3023 1488.31 L59.3023 1461.95 L50.9921 1463.61 L50.9921 1459.35 L59.256 1457.69 L63.9319 1457.69 L63.9319 1488.31 L71.5707 1488.31 L71.5707 1492.25 L51.6634 1492.25 L51.6634 1488.31 Z" fill="#000000" fill-rule="evenodd" fill-opacity="1" /><path clip-path="url(#clip250)" d="M91.0151 1460.76 Q87.404 1460.76 85.5753 1464.33 Q83.7697 1467.87 83.7697 1475 Q83.7697 1482.11 85.5753 1485.67 Q87.404 1489.21 91.0151 1489.21 Q94.6493 1489.21 96.4548 1485.67 Q98.2835 1482.11 98.2835 1475 Q98.2835 1467.87 96.4548 1464.33 Q94.6493 1460.76 91.0151 1460.76 M91.0151 1457.06 Q96.8252 1457.06 99.8808 1461.67 Q102.959 1466.25 102.959 1475 Q102.959 1483.73 99.8808 1488.33 Q96.8252 1492.92 91.0151 1492.92 Q85.2049 1492.92 82.1262 1488.33 Q79.0707 1483.73 79.0707 1475 Q79.0707 1466.25 82.1262 1461.67 Q85.2049 1457.06 91.0151 1457.06 Z" fill="#000000" fill-rule="evenodd" fill-opacity="1" /><path clip-path="url(#clip250)" d="M102.959 1451.16 L127.071 1451.16 L127.071 1454.36 L102.959 1454.36 L102.959 1451.16 Z" fill="#000000" fill-rule="evenodd" fill-opacity="1" /><path clip-path="url(#clip250)" d="M145.71 1440.07 L136.118 1455.06 L145.71 1455.06 L145.71 1440.07 M144.713 1436.76 L149.49 1436.76 L149.49 1455.06 L153.496 1455.06 L153.496 1458.22 L149.49 1458.22 L149.49 1464.84 L145.71 1464.84 L145.71 1458.22 L133.033 1458.22 L133.033 1454.55 L144.713 1436.76 Z" fill="#000000" fill-rule="evenodd" fill-opacity="1" /><path clip-path="url(#clip250)" d="M52.585 1147.84 L60.2238 1147.84 L60.2238 1121.47 L51.9137 1123.14 L51.9137 1118.88 L60.1776 1117.21 L64.8535 1117.21 L64.8535 1147.84 L72.4923 1147.84 L72.4923 1151.77 L52.585 1151.77 L52.585 1147.84 Z" fill="#000000" fill-rule="evenodd" fill-opacity="1" /><path clip-path="url(#clip250)" d="M91.9366 1120.29 Q88.3255 1120.29 86.4969 1123.86 Q84.6913 1127.4 84.6913 1134.53 Q84.6913 1141.63 86.4969 1145.2 Q88.3255 1148.74 91.9366 1148.74 Q95.5709 1148.74 97.3764 1145.2 Q99.2051 1141.63 99.2051 1134.53 Q99.2051 1127.4 97.3764 1123.86 Q95.5709 1120.29 91.9366 1120.29 M91.9366 1116.59 Q97.7468 1116.59 100.802 1121.19 Q103.881 1125.78 103.881 1134.53 Q103.881 1143.25 100.802 1147.86 Q97.7468 1152.44 91.9366 1152.44 Q86.1265 1152.44 83.0478 1147.86 Q79.9923 1143.25 79.9923 1134.53 Q79.9923 1125.78 83.0478 1121.19 Q86.1265 1116.59 91.9366 1116.59 Z" fill="#000000" fill-rule="evenodd" fill-opacity="1" /><path clip-path="url(#clip250)" d="M103.881 1110.69 L127.993 1110.69 L127.993 1113.89 L103.881 1113.89 L103.881 1110.69 Z" fill="#000000" fill-rule="evenodd" fill-opacity="1" /><path clip-path="url(#clip250)" d="M147.703 1109.22 Q150.43 1109.81 151.954 1111.65 Q153.496 1113.49 153.496 1116.2 Q153.496 1120.36 150.637 1122.63 Q147.778 1124.91 142.512 1124.91 Q140.744 1124.91 138.863 1124.55 Q137.002 1124.21 135.008 1123.52 L135.008 1119.85 Q136.588 1120.77 138.469 1121.24 Q140.349 1121.71 142.399 1121.71 Q145.973 1121.71 147.835 1120.3 Q149.716 1118.89 149.716 1116.2 Q149.716 1113.72 147.966 1112.33 Q146.236 1110.92 143.133 1110.92 L139.86 1110.92 L139.86 1107.79 L143.283 1107.79 Q146.086 1107.79 147.571 1106.68 Q149.057 1105.56 149.057 1103.45 Q149.057 1101.29 147.515 1100.14 Q145.992 1098.97 143.133 1098.97 Q141.572 1098.97 139.785 1099.31 Q137.998 1099.65 135.854 1100.36 L135.854 1096.98 Q138.017 1096.38 139.898 1096.08 Q141.797 1095.78 143.471 1095.78 Q147.797 1095.78 150.317 1097.75 Q152.838 1099.71 152.838 1103.05 Q152.838 1105.39 151.502 1107 Q150.167 1108.6 147.703 1109.22 Z" fill="#000000" fill-rule="evenodd" fill-opacity="1" /><path clip-path="url(#clip250)" d="M53.3561 807.366 L60.995 807.366 L60.995 781 L52.6848 782.667 L52.6848 778.407 L60.9487 776.741 L65.6246 776.741 L65.6246 807.366 L73.2634 807.366 L73.2634 811.301 L53.3561 811.301 L53.3561 807.366 Z" fill="#000000" fill-rule="evenodd" fill-opacity="1" /><path clip-path="url(#clip250)" d="M92.7078 779.819 Q89.0967 779.819 87.268 783.384 Q85.4624 786.926 85.4624 794.056 Q85.4624 801.162 87.268 804.727 Q89.0967 808.268 92.7078 808.268 Q96.342 808.268 98.1475 804.727 Q99.9762 801.162 99.9762 794.056 Q99.9762 786.926 98.1475 783.384 Q96.342 779.819 92.7078 779.819 M92.7078 776.116 Q98.5179 776.116 101.573 780.722 Q104.652 785.306 104.652 794.056 Q104.652 802.782 101.573 807.389 Q98.5179 811.972 92.7078 811.972 Q86.8976 811.972 83.8189 807.389 Q80.7634 802.782 80.7634 794.056 Q80.7634 785.306 83.8189 780.722 Q86.8976 776.116 92.7078 776.116 Z" fill="#000000" fill-rule="evenodd" fill-opacity="1" /><path clip-path="url(#clip250)" d="M104.652 770.217 L128.764 770.217 L128.764 773.414 L104.652 773.414 L104.652 770.217 Z" fill="#000000" fill-rule="evenodd" fill-opacity="1" /><path clip-path="url(#clip250)" d="M140.236 780.693 L153.496 780.693 L153.496 783.89 L135.666 783.89 L135.666 780.693 Q137.829 778.455 141.553 774.693 Q145.296 770.913 146.255 769.822 Q148.079 767.772 148.794 766.362 Q149.527 764.932 149.527 763.559 Q149.527 761.321 147.948 759.91 Q146.387 758.5 143.866 758.5 Q142.08 758.5 140.086 759.121 Q138.111 759.741 135.854 761.001 L135.854 757.165 Q138.149 756.243 140.142 755.773 Q142.136 755.303 143.791 755.303 Q148.155 755.303 150.75 757.484 Q153.345 759.666 153.345 763.315 Q153.345 765.045 152.687 766.606 Q152.048 768.148 150.336 770.255 Q149.866 770.8 147.346 773.414 Q144.826 776.01 140.236 780.693 Z" fill="#000000" fill-rule="evenodd" fill-opacity="1" /><path clip-path="url(#clip250)" d="M53.0552 466.893 L60.694 466.893 L60.694 440.527 L52.3839 442.194 L52.3839 437.935 L60.6477 436.268 L65.3236 436.268 L65.3236 466.893 L72.9625 466.893 L72.9625 470.828 L53.0552 470.828 L53.0552 466.893 Z" fill="#000000" fill-rule="evenodd" fill-opacity="1" /><path clip-path="url(#clip250)" d="M92.4068 439.347 Q88.7957 439.347 86.967 442.912 Q85.1615 446.453 85.1615 453.583 Q85.1615 460.689 86.967 464.254 Q88.7957 467.796 92.4068 467.796 Q96.0411 467.796 97.8466 464.254 Q99.6753 460.689 99.6753 453.583 Q99.6753 446.453 97.8466 442.912 Q96.0411 439.347 92.4068 439.347 M92.4068 435.643 Q98.217 435.643 101.273 440.25 Q104.351 444.833 104.351 453.583 Q104.351 462.31 101.273 466.916 Q98.217 471.499 92.4068 471.499 Q86.5967 471.499 83.518 466.916 Q80.4625 462.31 80.4625 453.583 Q80.4625 444.833 83.518 440.25 Q86.5967 435.643 92.4068 435.643 Z" fill="#000000" fill-rule="evenodd" fill-opacity="1" /><path clip-path="url(#clip250)" d="M104.351 429.744 L128.463 429.744 L128.463 432.942 L104.351 432.942 L104.351 429.744 Z" fill="#000000" fill-rule="evenodd" fill-opacity="1" /><path clip-path="url(#clip250)" d="M137.321 440.22 L143.528 440.22 L143.528 418.798 L136.776 420.153 L136.776 416.692 L143.49 415.338 L147.289 415.338 L147.289 440.22 L153.496 440.22 L153.496 443.418 L137.321 443.418 L137.321 440.22 Z" fill="#000000" fill-rule="evenodd" fill-opacity="1" /><path clip-path="url(#clip250)" d="M82.7903 126.42 L90.4291 126.42 L90.4291 100.055 L82.119 101.721 L82.119 97.4621 L90.3828 95.7955 L95.0587 95.7955 L95.0587 126.42 L102.698 126.42 L102.698 130.355 L82.7903 130.355 L82.7903 126.42 Z" fill="#000000" fill-rule="evenodd" fill-opacity="1" /><path clip-path="url(#clip250)" d="M122.142 98.8741 Q118.531 98.8741 116.702 102.439 Q114.897 105.981 114.897 113.11 Q114.897 120.217 116.702 123.781 Q118.531 127.323 122.142 127.323 Q125.776 127.323 127.582 123.781 Q129.41 120.217 129.41 113.11 Q129.41 105.981 127.582 102.439 Q125.776 98.8741 122.142 98.8741 M122.142 95.1705 Q127.952 95.1705 131.008 99.7769 Q134.086 104.36 134.086 113.11 Q134.086 121.837 131.008 126.443 Q127.952 131.027 122.142 131.027 Q116.332 131.027 113.253 126.443 Q110.198 121.837 110.198 113.11 Q110.198 104.36 113.253 99.7769 Q116.332 95.1705 122.142 95.1705 Z" fill="#000000" fill-rule="evenodd" fill-opacity="1" /><path clip-path="url(#clip250)" d="M143.791 77.3665 Q140.857 77.3665 139.371 80.2629 Q137.904 83.1405 137.904 88.9333 Q137.904 94.7073 139.371 97.6036 Q140.857 100.481 143.791 100.481 Q146.744 100.481 148.211 97.6036 Q149.697 94.7073 149.697 88.9333 Q149.697 83.1405 148.211 80.2629 Q146.744 77.3665 143.791 77.3665 M143.791 74.3572 Q148.512 74.3572 150.994 78.1 Q153.496 81.8239 153.496 88.9333 Q153.496 96.0238 150.994 99.7665 Q148.512 103.49 143.791 103.49 Q139.07 103.49 136.569 99.7665 Q134.086 96.0238 134.086 88.9333 Q134.086 81.8239 136.569 78.1 Q139.07 74.3572 143.791 74.3572 Z" fill="#000000" fill-rule="evenodd" fill-opacity="1" /><polyline clip-path="url(#clip252)" style="stroke:#009af9; stroke-linecap:butt; stroke-linejoin:round; stroke-width:4; stroke-opacity:1; fill:none" points="
  2291.53,87.6286 2036.43,138.666 1781.33,192.874 1526.23,246.086 1271.13,298.409 1016.02,350.214 760.923,401.745 505.822,453.134 250.72,504.452 
  "/>
<circle clip-path="url(#clip252)" cx="2291.53" cy="87.6286" r="14" fill="#009af9" fill-rule="evenodd" fill-opacity="1" stroke="#000000" stroke-opacity="1" stroke-width="3.2"/>
<circle clip-path="url(#clip252)" cx="2036.43" cy="138.666" r="14" fill="#009af9" fill-rule="evenodd" fill-opacity="1" stroke="#000000" stroke-opacity="1" stroke-width="3.2"/>
<circle clip-path="url(#clip252)" cx="1781.33" cy="192.874" r="14" fill="#009af9" fill-rule="evenodd" fill-opacity="1" stroke="#000000" stroke-opacity="1" stroke-width="3.2"/>
<circle clip-path="url(#clip252)" cx="1526.23" cy="246.086" r="14" fill="#009af9" fill-rule="evenodd" fill-opacity="1" stroke="#000000" stroke-opacity="1" stroke-width="3.2"/>
<circle clip-path="url(#clip252)" cx="1271.13" cy="298.409" r="14" fill="#009af9" fill-rule="evenodd" fill-opacity="1" stroke="#000000" stroke-opacity="1" stroke-width="3.2"/>
<circle clip-path="url(#clip252)" cx="1016.02" cy="350.214" r="14" fill="#009af9" fill-rule="evenodd" fill-opacity="1" stroke="#000000" stroke-opacity="1" stroke-width="3.2"/>
<circle clip-path="url(#clip252)" cx="760.923" cy="401.745" r="14" fill="#009af9" fill-rule="evenodd" fill-opacity="1" stroke="#000000" stroke-opacity="1" stroke-width="3.2"/>
<circle clip-path="url(#clip252)" cx="505.822" cy="453.134" r="14" fill="#009af9" fill-rule="evenodd" fill-opacity="1" stroke="#000000" stroke-opacity="1" stroke-width="3.2"/>
<circle clip-path="url(#clip252)" cx="250.72" cy="504.452" r="14" fill="#009af9" fill-rule="evenodd" fill-opacity="1" stroke="#000000" stroke-opacity="1" stroke-width="3.2"/>
<polyline clip-path="url(#clip252)" style="stroke:#e26f46; stroke-linecap:butt; stroke-linejoin:round; stroke-width:4; stroke-opacity:1; fill:none" points="
  2291.53,87.6286 2036.43,138.666 1781.33,192.874 1526.23,246.086 1271.13,298.409 1016.02,350.214 760.923,401.745 505.822,453.134 250.72,504.452 
  "/>
<circle clip-path="url(#clip252)" cx="2291.53" cy="87.6286" r="14" fill="#e26f46" fill-rule="evenodd" fill-opacity="1" stroke="#000000" stroke-opacity="1" stroke-width="3.2"/>
<circle clip-path="url(#clip252)" cx="2036.43" cy="138.666" r="14" fill="#e26f46" fill-rule="evenodd" fill-opacity="1" stroke="#000000" stroke-opacity="1" stroke-width="3.2"/>
<circle clip-path="url(#clip252)" cx="1781.33" cy="192.874" r="14" fill="#e26f46" fill-rule="evenodd" fill-opacity="1" stroke="#000000" stroke-opacity="1" stroke-width="3.2"/>
<circle clip-path="url(#clip252)" cx="1526.23" cy="246.086" r="14" fill="#e26f46" fill-rule="evenodd" fill-opacity="1" stroke="#000000" stroke-opacity="1" stroke-width="3.2"/>
<circle clip-path="url(#clip252)" cx="1271.13" cy="298.409" r="14" fill="#e26f46" fill-rule="evenodd" fill-opacity="1" stroke="#000000" stroke-opacity="1" stroke-width="3.2"/>
<circle clip-path="url(#clip252)" cx="1016.02" cy="350.214" r="14" fill="#e26f46" fill-rule="evenodd" fill-opacity="1" stroke="#000000" stroke-opacity="1" stroke-width="3.2"/>
<circle clip-path="url(#clip252)" cx="760.923" cy="401.745" r="14" fill="#e26f46" fill-rule="evenodd" fill-opacity="1" stroke="#000000" stroke-opacity="1" stroke-width="3.2"/>
<circle clip-path="url(#clip252)" cx="505.822" cy="453.134" r="14" fill="#e26f46" fill-rule="evenodd" fill-opacity="1" stroke="#000000" stroke-opacity="1" stroke-width="3.2"/>
<circle clip-path="url(#clip252)" cx="250.72" cy="504.452" r="14" fill="#e26f46" fill-rule="evenodd" fill-opacity="1" stroke="#000000" stroke-opacity="1" stroke-width="3.2"/>
<polyline clip-path="url(#clip252)" style="stroke:#3da44d; stroke-linecap:butt; stroke-linejoin:round; stroke-width:4; stroke-opacity:1; fill:none" points="
  2291.53,236.066 2036.43,357.897 1781.33,508.957 1526.23,663.414 1271.13,817.909 1016.02,972.113 760.923,1126.1 505.822,1279.97 250.72,1433.78 
  "/>
<circle clip-path="url(#clip252)" cx="2291.53" cy="236.066" r="14" fill="#3da44d" fill-rule="evenodd" fill-opacity="1" stroke="#000000" stroke-opacity="1" stroke-width="3.2"/>
<circle clip-path="url(#clip252)" cx="2036.43" cy="357.897" r="14" fill="#3da44d" fill-rule="evenodd" fill-opacity="1" stroke="#000000" stroke-opacity="1" stroke-width="3.2"/>
<circle clip-path="url(#clip252)" cx="1781.33" cy="508.957" r="14" fill="#3da44d" fill-rule="evenodd" fill-opacity="1" stroke="#000000" stroke-opacity="1" stroke-width="3.2"/>
<circle clip-path="url(#clip252)" cx="1526.23" cy="663.414" r="14" fill="#3da44d" fill-rule="evenodd" fill-opacity="1" stroke="#000000" stroke-opacity="1" stroke-width="3.2"/>
<circle clip-path="url(#clip252)" cx="1271.13" cy="817.909" r="14" fill="#3da44d" fill-rule="evenodd" fill-opacity="1" stroke="#000000" stroke-opacity="1" stroke-width="3.2"/>
<circle clip-path="url(#clip252)" cx="1016.02" cy="972.113" r="14" fill="#3da44d" fill-rule="evenodd" fill-opacity="1" stroke="#000000" stroke-opacity="1" stroke-width="3.2"/>
<circle clip-path="url(#clip252)" cx="760.923" cy="1126.1" r="14" fill="#3da44d" fill-rule="evenodd" fill-opacity="1" stroke="#000000" stroke-opacity="1" stroke-width="3.2"/>
<circle clip-path="url(#clip252)" cx="505.822" cy="1279.97" r="14" fill="#3da44d" fill-rule="evenodd" fill-opacity="1" stroke="#000000" stroke-opacity="1" stroke-width="3.2"/>
<circle clip-path="url(#clip252)" cx="250.72" cy="1433.78" r="14" fill="#3da44d" fill-rule="evenodd" fill-opacity="1" stroke="#000000" stroke-opacity="1" stroke-width="3.2"/>
<polyline clip-path="url(#clip252)" style="stroke:#c271d2; stroke-linecap:butt; stroke-linejoin:round; stroke-width:4; stroke-opacity:1; fill:none" points="
  2291.53,311.613 2036.43,414.105 1781.33,516.598 1526.23,619.09 1271.13,721.583 1016.02,824.075 760.923,926.568 505.822,1029.06 250.72,1131.55 
  "/>
<path clip-path="url(#clip250)" d="
M1912.97 354.008 L2280.65 354.008 L2280.65 94.8081 L1912.97 94.8081  Z
  " fill="#ffffff" fill-rule="evenodd" fill-opacity="1"/>
<polyline clip-path="url(#clip250)" style="stroke:#000000; stroke-linecap:butt; stroke-linejoin:round; stroke-width:4; stroke-opacity:1; fill:none" points="
  1912.97,354.008 2280.65,354.008 2280.65,94.8081 1912.97,94.8081 1912.97,354.008 
  "/>
<polyline clip-path="url(#clip250)" style="stroke:#009af9; stroke-linecap:butt; stroke-linejoin:round; stroke-width:4; stroke-opacity:1; fill:none" points="
  1937.01,146.648 2081.22,146.648 
  "/>
<circle clip-path="url(#clip250)" cx="2009.12" cy="146.648" r="23" fill="#009af9" fill-rule="evenodd" fill-opacity="1" stroke="#000000" stroke-opacity="1" stroke-width="5.12"/>
<path clip-path="url(#clip250)" d="M2124.17 141.937 L2124.17 127.91 L2128.43 127.91 L2128.43 163.928 L2124.17 163.928 L2124.17 160.039 Q2122.83 162.354 2120.77 163.488 Q2118.73 164.599 2115.86 164.599 Q2111.16 164.599 2108.2 160.849 Q2105.26 157.099 2105.26 150.988 Q2105.26 144.877 2108.2 141.127 Q2111.16 137.377 2115.86 137.377 Q2118.73 137.377 2120.77 138.512 Q2122.83 139.623 2124.17 141.937 M2109.66 150.988 Q2109.66 155.687 2111.58 158.373 Q2113.52 161.035 2116.9 161.035 Q2120.28 161.035 2122.23 158.373 Q2124.17 155.687 2124.17 150.988 Q2124.17 146.289 2122.23 143.627 Q2120.28 140.942 2116.9 140.942 Q2113.52 140.942 2111.58 143.627 Q2109.66 146.289 2109.66 150.988 Z" fill="#000000" fill-rule="evenodd" fill-opacity="1" /><path clip-path="url(#clip250)" d="M2137.2 138.002 L2141.46 138.002 L2141.46 163.928 L2137.2 163.928 L2137.2 138.002 M2137.2 127.91 L2141.46 127.91 L2141.46 133.303 L2137.2 133.303 L2137.2 127.91 Z" fill="#000000" fill-rule="evenodd" fill-opacity="1" /><path clip-path="url(#clip250)" d="M2163.5 127.91 L2163.5 131.451 L2159.43 131.451 Q2157.14 131.451 2156.23 132.377 Q2155.35 133.303 2155.35 135.711 L2155.35 138.002 L2162.37 138.002 L2162.37 141.312 L2155.35 141.312 L2155.35 163.928 L2151.07 163.928 L2151.07 141.312 L2147 141.312 L2147 138.002 L2151.07 138.002 L2151.07 136.197 Q2151.07 131.868 2153.08 129.901 Q2155.1 127.91 2159.47 127.91 L2163.5 127.91 Z" fill="#000000" fill-rule="evenodd" fill-opacity="1" /><path clip-path="url(#clip250)" d="M2180.19 127.91 L2180.19 131.451 L2176.12 131.451 Q2173.83 131.451 2172.92 132.377 Q2172.04 133.303 2172.04 135.711 L2172.04 138.002 L2179.06 138.002 L2179.06 141.312 L2172.04 141.312 L2172.04 163.928 L2167.76 163.928 L2167.76 141.312 L2163.69 141.312 L2163.69 138.002 L2167.76 138.002 L2167.76 136.197 Q2167.76 131.868 2169.77 129.901 Q2171.79 127.91 2176.16 127.91 L2180.19 127.91 Z" fill="#000000" fill-rule="evenodd" fill-opacity="1" /><path clip-path="url(#clip250)" d="M2185.17 159.993 L2192.81 159.993 L2192.81 133.627 L2184.5 135.294 L2184.5 131.035 L2192.76 129.368 L2197.44 129.368 L2197.44 159.993 L2205.07 159.993 L2205.07 163.928 L2185.17 163.928 L2185.17 159.993 Z" fill="#000000" fill-rule="evenodd" fill-opacity="1" /><path clip-path="url(#clip250)" d="M2213.92 127.91 L2218.18 127.91 L2218.18 163.928 L2213.92 163.928 L2213.92 127.91 Z" fill="#000000" fill-rule="evenodd" fill-opacity="1" /><polyline clip-path="url(#clip250)" style="stroke:#e26f46; stroke-linecap:butt; stroke-linejoin:round; stroke-width:4; stroke-opacity:1; fill:none" points="
  1937.01,198.488 2081.22,198.488 
  "/>
<circle clip-path="url(#clip250)" cx="2009.12" cy="198.488" r="23" fill="#e26f46" fill-rule="evenodd" fill-opacity="1" stroke="#000000" stroke-opacity="1" stroke-width="5.12"/>
<path clip-path="url(#clip250)" d="M2124.17 193.777 L2124.17 179.75 L2128.43 179.75 L2128.43 215.768 L2124.17 215.768 L2124.17 211.879 Q2122.83 214.194 2120.77 215.328 Q2118.73 216.439 2115.86 216.439 Q2111.16 216.439 2108.2 212.689 Q2105.26 208.939 2105.26 202.828 Q2105.26 196.717 2108.2 192.967 Q2111.16 189.217 2115.86 189.217 Q2118.73 189.217 2120.77 190.352 Q2122.83 191.463 2124.17 193.777 M2109.66 202.828 Q2109.66 207.527 2111.58 210.213 Q2113.52 212.875 2116.9 212.875 Q2120.28 212.875 2122.23 210.213 Q2124.17 207.527 2124.17 202.828 Q2124.17 198.129 2122.23 195.467 Q2120.28 192.782 2116.9 192.782 Q2113.52 192.782 2111.58 195.467 Q2109.66 198.129 2109.66 202.828 Z" fill="#000000" fill-rule="evenodd" fill-opacity="1" /><path clip-path="url(#clip250)" d="M2137.2 189.842 L2141.46 189.842 L2141.46 215.768 L2137.2 215.768 L2137.2 189.842 M2137.2 179.75 L2141.46 179.75 L2141.46 185.143 L2137.2 185.143 L2137.2 179.75 Z" fill="#000000" fill-rule="evenodd" fill-opacity="1" /><path clip-path="url(#clip250)" d="M2163.5 179.75 L2163.5 183.291 L2159.43 183.291 Q2157.14 183.291 2156.23 184.217 Q2155.35 185.143 2155.35 187.551 L2155.35 189.842 L2162.37 189.842 L2162.37 193.152 L2155.35 193.152 L2155.35 215.768 L2151.07 215.768 L2151.07 193.152 L2147 193.152 L2147 189.842 L2151.07 189.842 L2151.07 188.037 Q2151.07 183.708 2153.08 181.741 Q2155.1 179.75 2159.47 179.75 L2163.5 179.75 Z" fill="#000000" fill-rule="evenodd" fill-opacity="1" /><path clip-path="url(#clip250)" d="M2180.19 179.75 L2180.19 183.291 L2176.12 183.291 Q2173.83 183.291 2172.92 184.217 Q2172.04 185.143 2172.04 187.551 L2172.04 189.842 L2179.06 189.842 L2179.06 193.152 L2172.04 193.152 L2172.04 215.768 L2167.76 215.768 L2167.76 193.152 L2163.69 193.152 L2163.69 189.842 L2167.76 189.842 L2167.76 188.037 Q2167.76 183.708 2169.77 181.741 Q2171.79 179.75 2176.16 179.75 L2180.19 179.75 Z" fill="#000000" fill-rule="evenodd" fill-opacity="1" /><path clip-path="url(#clip250)" d="M2185.17 211.833 L2192.81 211.833 L2192.81 185.467 L2184.5 187.134 L2184.5 182.875 L2192.76 181.208 L2197.44 181.208 L2197.44 211.833 L2205.07 211.833 L2205.07 215.768 L2185.17 215.768 L2185.17 211.833 Z" fill="#000000" fill-rule="evenodd" fill-opacity="1" /><path clip-path="url(#clip250)" d="M2228.94 193.824 Q2228.22 193.407 2227.37 193.222 Q2226.53 193.014 2225.51 193.014 Q2221.9 193.014 2219.96 195.375 Q2218.04 197.713 2218.04 202.111 L2218.04 215.768 L2213.76 215.768 L2213.76 189.842 L2218.04 189.842 L2218.04 193.87 Q2219.38 191.509 2221.53 190.375 Q2223.69 189.217 2226.76 189.217 Q2227.2 189.217 2227.74 189.287 Q2228.27 189.333 2228.92 189.449 L2228.94 193.824 Z" fill="#000000" fill-rule="evenodd" fill-opacity="1" /><polyline clip-path="url(#clip250)" style="stroke:#3da44d; stroke-linecap:butt; stroke-linejoin:round; stroke-width:4; stroke-opacity:1; fill:none" points="
  1937.01,250.328 2081.22,250.328 
  "/>
<circle clip-path="url(#clip250)" cx="2009.12" cy="250.328" r="23" fill="#3da44d" fill-rule="evenodd" fill-opacity="1" stroke="#000000" stroke-opacity="1" stroke-width="5.12"/>
<path clip-path="url(#clip250)" d="M2124.17 245.617 L2124.17 231.59 L2128.43 231.59 L2128.43 267.608 L2124.17 267.608 L2124.17 263.719 Q2122.83 266.034 2120.77 267.168 Q2118.73 268.279 2115.86 268.279 Q2111.16 268.279 2108.2 264.529 Q2105.26 260.779 2105.26 254.668 Q2105.26 248.557 2108.2 244.807 Q2111.16 241.057 2115.86 241.057 Q2118.73 241.057 2120.77 242.192 Q2122.83 243.303 2124.17 245.617 M2109.66 254.668 Q2109.66 259.367 2111.58 262.053 Q2113.52 264.715 2116.9 264.715 Q2120.28 264.715 2122.23 262.053 Q2124.17 259.367 2124.17 254.668 Q2124.17 249.969 2122.23 247.307 Q2120.28 244.622 2116.9 244.622 Q2113.52 244.622 2111.58 247.307 Q2109.66 249.969 2109.66 254.668 Z" fill="#000000" fill-rule="evenodd" fill-opacity="1" /><path clip-path="url(#clip250)" d="M2137.2 241.682 L2141.46 241.682 L2141.46 267.608 L2137.2 267.608 L2137.2 241.682 M2137.2 231.59 L2141.46 231.59 L2141.46 236.983 L2137.2 236.983 L2137.2 231.59 Z" fill="#000000" fill-rule="evenodd" fill-opacity="1" /><path clip-path="url(#clip250)" d="M2163.5 231.59 L2163.5 235.131 L2159.43 235.131 Q2157.14 235.131 2156.23 236.057 Q2155.35 236.983 2155.35 239.391 L2155.35 241.682 L2162.37 241.682 L2162.37 244.992 L2155.35 244.992 L2155.35 267.608 L2151.07 267.608 L2151.07 244.992 L2147 244.992 L2147 241.682 L2151.07 241.682 L2151.07 239.877 Q2151.07 235.548 2153.08 233.581 Q2155.1 231.59 2159.47 231.59 L2163.5 231.59 Z" fill="#000000" fill-rule="evenodd" fill-opacity="1" /><path clip-path="url(#clip250)" d="M2180.19 231.59 L2180.19 235.131 L2176.12 235.131 Q2173.83 235.131 2172.92 236.057 Q2172.04 236.983 2172.04 239.391 L2172.04 241.682 L2179.06 241.682 L2179.06 244.992 L2172.04 244.992 L2172.04 267.608 L2167.76 267.608 L2167.76 244.992 L2163.69 244.992 L2163.69 241.682 L2167.76 241.682 L2167.76 239.877 Q2167.76 235.548 2169.77 233.581 Q2171.79 231.59 2176.16 231.59 L2180.19 231.59 Z" fill="#000000" fill-rule="evenodd" fill-opacity="1" /><path clip-path="url(#clip250)" d="M2185.17 263.673 L2192.81 263.673 L2192.81 237.307 L2184.5 238.974 L2184.5 234.715 L2192.76 233.048 L2197.44 233.048 L2197.44 263.673 L2205.07 263.673 L2205.07 267.608 L2185.17 267.608 L2185.17 263.673 Z" fill="#000000" fill-rule="evenodd" fill-opacity="1" /><path clip-path="url(#clip250)" d="M2232.57 242.678 L2232.57 246.659 Q2230.77 245.664 2228.94 245.178 Q2227.14 244.668 2225.28 244.668 Q2221.14 244.668 2218.85 247.307 Q2216.56 249.923 2216.56 254.668 Q2216.56 259.414 2218.85 262.053 Q2221.14 264.668 2225.28 264.668 Q2227.14 264.668 2228.94 264.182 Q2230.77 263.673 2232.57 262.678 L2232.57 266.613 Q2230.79 267.446 2228.87 267.863 Q2226.97 268.279 2224.82 268.279 Q2218.96 268.279 2215.51 264.599 Q2212.07 260.918 2212.07 254.668 Q2212.07 248.326 2215.54 244.692 Q2219.03 241.057 2225.1 241.057 Q2227.07 241.057 2228.94 241.474 Q2230.82 241.868 2232.57 242.678 Z" fill="#000000" fill-rule="evenodd" fill-opacity="1" /><polyline clip-path="url(#clip250)" style="stroke:#c271d2; stroke-linecap:butt; stroke-linejoin:round; stroke-width:4; stroke-opacity:1; fill:none" points="
  1937.01,302.168 2081.22,302.168 
  "/>
<path clip-path="url(#clip250)" d="M2119.1 321.856 Q2117.3 326.485 2115.58 327.897 Q2113.87 329.309 2111 329.309 L2107.6 329.309 L2107.6 325.744 L2110.1 325.744 Q2111.86 325.744 2112.83 324.911 Q2113.8 324.078 2114.98 320.976 L2115.75 319.031 L2105.26 293.522 L2109.77 293.522 L2117.88 313.8 L2125.98 293.522 L2130.49 293.522 L2119.1 321.856 Z" fill="#000000" fill-rule="evenodd" fill-opacity="1" /><path clip-path="url(#clip250)" d="M2149.82 288.962 L2138.02 307.411 L2149.82 307.411 L2149.82 288.962 M2148.59 284.888 L2154.47 284.888 L2154.47 307.411 L2159.4 307.411 L2159.4 311.3 L2154.47 311.3 L2154.47 319.448 L2149.82 319.448 L2149.82 311.3 L2134.22 311.3 L2134.22 306.786 L2148.59 284.888 Z" fill="#000000" fill-rule="evenodd" fill-opacity="1" /></svg>
