<?xml version="1.0" encoding="utf-8"?>
<svg xmlns="http://www.w3.org/2000/svg" xmlns:xlink="http://www.w3.org/1999/xlink" width="600" height="400" viewBox="0 0 2400 1600">
<defs>
  <clipPath id="clip580">
    <rect x="0" y="0" width="2400" height="1600"/>
  </clipPath>
</defs>
<path clip-path="url(#clip580)" d="
M0 1600 L2400 1600 L2400 0 L0 0  Z
  " fill="#ffffff" fill-rule="evenodd" fill-opacity="1"/>
<defs>
  <clipPath id="clip581">
    <rect x="480" y="0" width="1681" height="1600"/>
  </clipPath>
</defs>
<path clip-path="url(#clip580)" d="
M184.191 1486.45 L2352.76 1486.45 L2352.76 47.2441 L184.191 47.2441  Z
  " fill="#ffffff" fill-rule="evenodd" fill-opacity="1"/>
<defs>
  <clipPath id="clip582">
    <rect x="184" y="47" width="2170" height="1440"/>
  </clipPath>
</defs>
<polyline clip-path="url(#clip582)" style="stroke:#000000; stroke-linecap:butt; stroke-linejoin:round; stroke-width:2; stroke-opacity:0.1; fill:none" points="
  291.668,1486.45 291.668,47.2441 
  "/>
<polyline clip-path="url(#clip582)" style="stroke:#000000; stroke-linecap:butt; stroke-linejoin:round; stroke-width:2; stroke-opacity:0.1; fill:none" points="
  617.27,1486.45 617.27,47.2441 
  "/>
<polyline clip-path="url(#clip582)" style="stroke:#000000; stroke-linecap:butt; stroke-linejoin:round; stroke-width:2; stroke-opacity:0.1; fill:none" points="
  942.872,1486.45 942.872,47.2441 
  "/>
<polyline clip-path="url(#clip582)" style="stroke:#000000; stroke-linecap:butt; stroke-linejoin:round; stroke-width:2; stroke-opacity:0.1; fill:none" points="
  1268.47,1486.45 1268.47,47.2441 
  "/>
<polyline clip-path="url(#clip582)" style="stroke:#000000; stroke-linecap:butt; stroke-linejoin:round; stroke-width:2; stroke-opacity:0.1; fill:none" points="
  1594.08,1486.45 1594.08,47.2441 
  "/>
<polyline clip-path="url(#clip582)" style="stroke:#000000; stroke-linecap:butt; stroke-linejoin:round; stroke-width:2; stroke-opacity:0.1; fill:none" points="
  1919.68,1486.45 1919.68,47.2441 
  "/>
<polyline clip-path="url(#clip582)" style="stroke:#000000; stroke-linecap:butt; stroke-linejoin:round; stroke-width:2; stroke-opacity:0.1; fill:none" points="
  2245.28,1486.45 2245.28,47.2441 
  "/>
<polyline clip-path="url(#clip580)" style="stroke:#000000; stroke-linecap:butt; stroke-linejoin:round; stroke-width:4; stroke-opacity:1; fill:none" points="
  184.191,1486.45 2352.76,1486.45 
  "/>
<polyline clip-path="url(#clip580)" style="stroke:#000000; stroke-linecap:butt; stroke-linejoin:round; stroke-width:4; stroke-opacity:1; fill:none" points="
  291.668,1486.45 291.668,1467.55 
  "/>
<polyline clip-path="url(#clip580)" style="stroke:#000000; stroke-linecap:butt; stroke-linejoin:round; stroke-width:4; stroke-opacity:1; fill:none" points="
  617.27,1486.45 617.27,1467.55 
  "/>
<polyline clip-path="url(#clip580)" style="stroke:#000000; stroke-linecap:butt; stroke-linejoin:round; stroke-width:4; stroke-opacity:1; fill:none" points="
  942.872,1486.45 942.872,1467.55 
  "/>
<polyline clip-path="url(#clip580)" style="stroke:#000000; stroke-linecap:butt; stroke-linejoin:round; stroke-width:4; stroke-opacity:1; fill:none" points="
  1268.47,1486.45 1268.47,1467.55 
  "/>
<polyline clip-path="url(#clip580)" style="stroke:#000000; stroke-linecap:butt; stroke-linejoin:round; stroke-width:4; stroke-opacity:1; fill:none" points="
  1594.08,1486.45 1594.08,1467.55 
  "/>
<polyline clip-path="url(#clip580)" style="stroke:#000000; stroke-linecap:butt; stroke-linejoin:round; stroke-width:4; stroke-opacity:1; fill:none" points="
  1919.68,1486.45 1919.68,1467.55 
  "/>
<polyline clip-path="url(#clip580)" style="stroke:#000000; stroke-linecap:butt; stroke-linejoin:round; stroke-width:4; stroke-opacity:1; fill:none" points="
  2245.28,1486.45 2245.28,1467.55 
  "/>
<path clip-path="url(#clip580)" d="M261.136 1530.29 L290.812 1530.29 L290.812 1534.23 L261.136 1534.23 L261.136 1530.29 Z" fill="#000000" fill-rule="evenodd" fill-opacity="1" /><path clip-path="url(#clip580)" d="M315.071 1528.49 Q318.427 1529.2 320.302 1531.47 Q322.2 1533.74 322.2 1537.07 Q322.2 1542.19 318.682 1544.99 Q315.163 1547.79 308.682 1547.79 Q306.506 1547.79 304.191 1547.35 Q301.899 1546.93 299.446 1546.08 L299.446 1541.56 Q301.39 1542.7 303.705 1543.28 Q306.02 1543.86 308.543 1543.86 Q312.941 1543.86 315.233 1542.12 Q317.547 1540.38 317.547 1537.07 Q317.547 1534.02 315.395 1532.31 Q313.265 1530.57 309.446 1530.57 L305.418 1530.57 L305.418 1526.73 L309.631 1526.73 Q313.08 1526.73 314.909 1525.36 Q316.737 1523.97 316.737 1521.38 Q316.737 1518.72 314.839 1517.31 Q312.964 1515.87 309.446 1515.87 Q307.524 1515.87 305.325 1516.29 Q303.126 1516.7 300.487 1517.58 L300.487 1513.42 Q303.149 1512.68 305.464 1512.31 Q307.802 1511.93 309.862 1511.93 Q315.186 1511.93 318.288 1514.37 Q321.39 1516.77 321.39 1520.89 Q321.39 1523.76 319.747 1525.75 Q318.103 1527.72 315.071 1528.49 Z" fill="#000000" fill-rule="evenodd" fill-opacity="1" /><path clip-path="url(#clip580)" d="M587.212 1530.29 L616.888 1530.29 L616.888 1534.23 L587.212 1534.23 L587.212 1530.29 Z" fill="#000000" fill-rule="evenodd" fill-opacity="1" /><path clip-path="url(#clip580)" d="M631.008 1543.18 L647.327 1543.18 L647.327 1547.12 L625.383 1547.12 L625.383 1543.18 Q628.045 1540.43 632.628 1535.8 Q637.235 1531.15 638.415 1529.81 Q640.661 1527.28 641.54 1525.55 Q642.443 1523.79 642.443 1522.1 Q642.443 1519.34 640.499 1517.61 Q638.578 1515.87 635.476 1515.87 Q633.277 1515.87 630.823 1516.63 Q628.392 1517.4 625.615 1518.95 L625.615 1514.23 Q628.439 1513.09 630.892 1512.51 Q633.346 1511.93 635.383 1511.93 Q640.753 1511.93 643.948 1514.62 Q647.142 1517.31 647.142 1521.8 Q647.142 1523.93 646.332 1525.85 Q645.545 1527.74 643.439 1530.34 Q642.86 1531.01 639.758 1534.23 Q636.656 1537.42 631.008 1543.18 Z" fill="#000000" fill-rule="evenodd" fill-opacity="1" /><path clip-path="url(#clip580)" d="M912.629 1530.29 L942.304 1530.29 L942.304 1534.23 L912.629 1534.23 L912.629 1530.29 Z" fill="#000000" fill-rule="evenodd" fill-opacity="1" /><path clip-path="url(#clip580)" d="M953.207 1543.18 L960.846 1543.18 L960.846 1516.82 L952.536 1518.49 L952.536 1514.23 L960.8 1512.56 L965.476 1512.56 L965.476 1543.18 L973.114 1543.18 L973.114 1547.12 L953.207 1547.12 L953.207 1543.18 Z" fill="#000000" fill-rule="evenodd" fill-opacity="1" /><path clip-path="url(#clip580)" d="M1268.47 1515.64 Q1264.86 1515.64 1263.03 1519.2 Q1261.23 1522.75 1261.23 1529.87 Q1261.23 1536.98 1263.03 1540.55 Q1264.86 1544.09 1268.47 1544.09 Q1272.11 1544.09 1273.91 1540.55 Q1275.74 1536.98 1275.74 1529.87 Q1275.74 1522.75 1273.91 1519.2 Q1272.11 1515.64 1268.47 1515.64 M1268.47 1511.93 Q1274.28 1511.93 1277.34 1516.54 Q1280.42 1521.12 1280.42 1529.87 Q1280.42 1538.6 1277.34 1543.21 Q1274.28 1547.79 1268.47 1547.79 Q1262.66 1547.79 1259.58 1543.21 Q1256.53 1538.6 1256.53 1529.87 Q1256.53 1521.12 1259.58 1516.54 Q1262.66 1511.93 1268.47 1511.93 Z" fill="#000000" fill-rule="evenodd" fill-opacity="1" /><path clip-path="url(#clip580)" d="M1584.46 1543.18 L1592.1 1543.18 L1592.1 1516.82 L1583.79 1518.49 L1583.79 1514.23 L1592.05 1512.56 L1596.73 1512.56 L1596.73 1543.18 L1604.36 1543.18 L1604.36 1547.12 L1584.46 1547.12 L1584.46 1543.18 Z" fill="#000000" fill-rule="evenodd" fill-opacity="1" /><path clip-path="url(#clip580)" d="M1914.33 1543.18 L1930.65 1543.18 L1930.65 1547.12 L1908.7 1547.12 L1908.7 1543.18 Q1911.37 1540.43 1915.95 1535.8 Q1920.56 1531.15 1921.74 1529.81 Q1923.98 1527.28 1924.86 1525.55 Q1925.76 1523.79 1925.76 1522.1 Q1925.76 1519.34 1923.82 1517.61 Q1921.9 1515.87 1918.8 1515.87 Q1916.6 1515.87 1914.14 1516.63 Q1911.71 1517.4 1908.94 1518.95 L1908.94 1514.23 Q1911.76 1513.09 1914.21 1512.51 Q1916.67 1511.93 1918.7 1511.93 Q1924.07 1511.93 1927.27 1514.62 Q1930.46 1517.31 1930.46 1521.8 Q1930.46 1523.93 1929.65 1525.85 Q1928.87 1527.74 1926.76 1530.34 Q1926.18 1531.01 1923.08 1534.23 Q1919.98 1537.42 1914.33 1543.18 Z" fill="#000000" fill-rule="evenodd" fill-opacity="1" /><path clip-path="url(#clip580)" d="M2249.53 1528.49 Q2252.88 1529.2 2254.76 1531.47 Q2256.66 1533.74 2256.66 1537.07 Q2256.66 1542.19 2253.14 1544.99 Q2249.62 1547.79 2243.14 1547.79 Q2240.96 1547.79 2238.65 1547.35 Q2236.36 1546.93 2233.9 1546.08 L2233.9 1541.56 Q2235.85 1542.7 2238.16 1543.28 Q2240.48 1543.86 2243 1543.86 Q2247.4 1543.86 2249.69 1542.12 Q2252 1540.38 2252 1537.07 Q2252 1534.02 2249.85 1532.31 Q2247.72 1530.57 2243.9 1530.57 L2239.87 1530.57 L2239.87 1526.73 L2244.09 1526.73 Q2247.54 1526.73 2249.36 1525.36 Q2251.19 1523.97 2251.19 1521.38 Q2251.19 1518.72 2249.29 1517.31 Q2247.42 1515.87 2243.9 1515.87 Q2241.98 1515.87 2239.78 1516.29 Q2237.58 1516.7 2234.94 1517.58 L2234.94 1513.42 Q2237.61 1512.68 2239.92 1512.31 Q2242.26 1511.93 2244.32 1511.93 Q2249.64 1511.93 2252.74 1514.37 Q2255.85 1516.77 2255.85 1520.89 Q2255.85 1523.76 2254.2 1525.75 Q2252.56 1527.72 2249.53 1528.49 Z" fill="#000000" fill-rule="evenodd" fill-opacity="1" /><polyline clip-path="url(#clip582)" style="stroke:#000000; stroke-linecap:butt; stroke-linejoin:round; stroke-width:2; stroke-opacity:0.1; fill:none" points="
  184.191,1445.75 2352.76,1445.75 
  "/>
<polyline clip-path="url(#clip582)" style="stroke:#000000; stroke-linecap:butt; stroke-linejoin:round; stroke-width:2; stroke-opacity:0.1; fill:none" points="
  184.191,1101.82 2352.76,1101.82 
  "/>
<polyline clip-path="url(#clip582)" style="stroke:#000000; stroke-linecap:butt; stroke-linejoin:round; stroke-width:2; stroke-opacity:0.1; fill:none" points="
  184.191,757.893 2352.76,757.893 
  "/>
<polyline clip-path="url(#clip582)" style="stroke:#000000; stroke-linecap:butt; stroke-linejoin:round; stroke-width:2; stroke-opacity:0.1; fill:none" points="
  184.191,413.965 2352.76,413.965 
  "/>
<polyline clip-path="url(#clip582)" style="stroke:#000000; stroke-linecap:butt; stroke-linejoin:round; stroke-width:2; stroke-opacity:0.1; fill:none" points="
  184.191,70.0376 2352.76,70.0376 
  "/>
<polyline clip-path="url(#clip580)" style="stroke:#000000; stroke-linecap:butt; stroke-linejoin:round; stroke-width:4; stroke-opacity:1; fill:none" points="
  184.191,1486.45 184.191,47.2441 
  "/>
<polyline clip-path="url(#clip580)" style="stroke:#000000; stroke-linecap:butt; stroke-linejoin:round; stroke-width:4; stroke-opacity:1; fill:none" points="
  184.191,1445.75 203.088,1445.75 
  "/>
<polyline clip-path="url(#clip580)" style="stroke:#000000; stroke-linecap:butt; stroke-linejoin:round; stroke-width:4; stroke-opacity:1; fill:none" points="
  184.191,1101.82 203.088,1101.82 
  "/>
<polyline clip-path="url(#clip580)" style="stroke:#000000; stroke-linecap:butt; stroke-linejoin:round; stroke-width:4; stroke-opacity:1; fill:none" points="
  184.191,757.893 203.088,757.893 
  "/>
<polyline clip-path="url(#clip580)" style="stroke:#000000; stroke-linecap:butt; stroke-linejoin:round; stroke-width:4; stroke-opacity:1; fill:none" points="
  184.191,413.965 203.088,413.965 
  "/>
<polyline clip-path="url(#clip580)" style="stroke:#000000; stroke-linecap:butt; stroke-linejoin:round; stroke-width:4; stroke-opacity:1; fill:none" points="
  184.191,70.0376 203.088,70.0376 
  "/>
<path clip-path="url(#clip580)" d="M91.0151 1431.55 Q87.404 1431.55 85.5753 1435.11 Q83.7697 1438.65 83.7697 1445.78 Q83.7697 1452.89 85.5753 1456.45 Q87.404 1460 91.0151 1460 Q94.6493 1460 96.4548 1456.45 Q98.2835 1452.89 98.2835 1445.78 Q98.2835 1438.65 96.4548 1435.11 Q94.6493 1431.55 91.0151 1431.55 M91.0151 1427.84 Q96.8252 1427.84 99.8808 1432.45 Q102.959 1437.03 102.959 1445.78 Q102.959 1454.51 99.8808 1459.12 Q96.8252 1463.7 91.0151 1463.7 Q85.2049 1463.7 82.1262 1459.12 Q79.0707 1454.51 79.0707 1445.78 Q79.0707 1437.03 82.1262 1432.45 Q85.2049 1427.84 91.0151 1427.84 Z" fill="#000000" fill-rule="evenodd" fill-opacity="1" /><path clip-path="url(#clip580)" d="M111.177 1457.15 L116.061 1457.15 L116.061 1463.03 L111.177 1463.03 L111.177 1457.15 Z" fill="#000000" fill-rule="evenodd" fill-opacity="1" /><path clip-path="url(#clip580)" d="M136.246 1431.55 Q132.635 1431.55 130.807 1435.11 Q129.001 1438.65 129.001 1445.78 Q129.001 1452.89 130.807 1456.45 Q132.635 1460 136.246 1460 Q139.881 1460 141.686 1456.45 Q143.515 1452.89 143.515 1445.78 Q143.515 1438.65 141.686 1435.11 Q139.881 1431.55 136.246 1431.55 M136.246 1427.84 Q142.056 1427.84 145.112 1432.45 Q148.191 1437.03 148.191 1445.78 Q148.191 1454.51 145.112 1459.12 Q142.056 1463.7 136.246 1463.7 Q130.436 1463.7 127.357 1459.12 Q124.302 1454.51 124.302 1445.78 Q124.302 1437.03 127.357 1432.45 Q130.436 1427.84 136.246 1427.84 Z" fill="#000000" fill-rule="evenodd" fill-opacity="1" /><path clip-path="url(#clip580)" d="M86.0382 1115.17 L102.358 1115.17 L102.358 1119.1 L80.4133 1119.1 L80.4133 1115.17 Q83.0753 1112.41 87.6586 1107.78 Q92.2651 1103.13 93.4456 1101.79 Q95.691 1099.26 96.5706 1097.53 Q97.4734 1095.77 97.4734 1094.08 Q97.4734 1091.32 95.5289 1089.59 Q93.6076 1087.85 90.5058 1087.85 Q88.3067 1087.85 85.8531 1088.62 Q83.4225 1089.38 80.6447 1090.93 L80.6447 1086.21 Q83.4688 1085.07 85.9225 1084.49 Q88.3762 1083.92 90.4132 1083.92 Q95.7836 1083.92 98.978 1086.6 Q102.172 1089.29 102.172 1093.78 Q102.172 1095.91 101.362 1097.83 Q100.575 1099.73 98.4687 1102.32 Q97.89 1102.99 94.7882 1106.21 Q91.6864 1109.4 86.0382 1115.17 Z" fill="#000000" fill-rule="evenodd" fill-opacity="1" /><path clip-path="url(#clip580)" d="M112.172 1113.22 L117.057 1113.22 L117.057 1119.1 L112.172 1119.1 L112.172 1113.22 Z" fill="#000000" fill-rule="evenodd" fill-opacity="1" /><path clip-path="url(#clip580)" d="M127.288 1084.54 L145.644 1084.54 L145.644 1088.48 L131.57 1088.48 L131.57 1096.95 Q132.589 1096.6 133.607 1096.44 Q134.626 1096.25 135.644 1096.25 Q141.431 1096.25 144.811 1099.43 Q148.191 1102.6 148.191 1108.01 Q148.191 1113.59 144.718 1116.69 Q141.246 1119.77 134.927 1119.77 Q132.751 1119.77 130.482 1119.4 Q128.237 1119.03 125.83 1118.29 L125.83 1113.59 Q127.913 1114.73 130.135 1115.28 Q132.357 1115.84 134.834 1115.84 Q138.839 1115.84 141.177 1113.73 Q143.515 1111.62 143.515 1108.01 Q143.515 1104.4 141.177 1102.3 Q138.839 1100.19 134.834 1100.19 Q132.959 1100.19 131.084 1100.61 Q129.232 1101.02 127.288 1101.9 L127.288 1084.54 Z" fill="#000000" fill-rule="evenodd" fill-opacity="1" /><path clip-path="url(#clip580)" d="M81.0614 740.613 L99.4178 740.613 L99.4178 744.548 L85.3438 744.548 L85.3438 753.021 Q86.3623 752.673 87.3808 752.511 Q88.3993 752.326 89.4178 752.326 Q95.2049 752.326 98.5845 755.497 Q101.964 758.669 101.964 764.085 Q101.964 769.664 98.4919 772.766 Q95.0197 775.844 88.7003 775.844 Q86.5243 775.844 84.2558 775.474 Q82.0105 775.104 79.6031 774.363 L79.6031 769.664 Q81.6864 770.798 83.9086 771.354 Q86.1308 771.909 88.6077 771.909 Q92.6123 771.909 94.9502 769.803 Q97.2882 767.696 97.2882 764.085 Q97.2882 760.474 94.9502 758.368 Q92.6123 756.261 88.6077 756.261 Q86.7327 756.261 84.8577 756.678 Q83.0058 757.095 81.0614 757.974 L81.0614 740.613 Z" fill="#000000" fill-rule="evenodd" fill-opacity="1" /><path clip-path="url(#clip580)" d="M111.177 769.294 L116.061 769.294 L116.061 775.173 L111.177 775.173 L111.177 769.294 Z" fill="#000000" fill-rule="evenodd" fill-opacity="1" /><path clip-path="url(#clip580)" d="M136.246 743.692 Q132.635 743.692 130.807 747.257 Q129.001 750.798 129.001 757.928 Q129.001 765.034 130.807 768.599 Q132.635 772.141 136.246 772.141 Q139.881 772.141 141.686 768.599 Q143.515 765.034 143.515 757.928 Q143.515 750.798 141.686 747.257 Q139.881 743.692 136.246 743.692 M136.246 739.988 Q142.056 739.988 145.112 744.595 Q148.191 749.178 148.191 757.928 Q148.191 766.655 145.112 771.261 Q142.056 775.844 136.246 775.844 Q130.436 775.844 127.357 771.261 Q124.302 766.655 124.302 757.928 Q124.302 749.178 127.357 744.595 Q130.436 739.988 136.246 739.988 Z" fill="#000000" fill-rule="evenodd" fill-opacity="1" /><path clip-path="url(#clip580)" d="M80.8299 396.685 L103.052 396.685 L103.052 398.676 L90.5058 431.245 L85.6216 431.245 L97.4271 400.621 L80.8299 400.621 L80.8299 396.685 Z" fill="#000000" fill-rule="evenodd" fill-opacity="1" /><path clip-path="url(#clip580)" d="M112.172 425.366 L117.057 425.366 L117.057 431.245 L112.172 431.245 L112.172 425.366 Z" fill="#000000" fill-rule="evenodd" fill-opacity="1" /><path clip-path="url(#clip580)" d="M127.288 396.685 L145.644 396.685 L145.644 400.621 L131.57 400.621 L131.57 409.093 Q132.589 408.746 133.607 408.583 Q134.626 408.398 135.644 408.398 Q141.431 408.398 144.811 411.57 Q148.191 414.741 148.191 420.157 Q148.191 425.736 144.718 428.838 Q141.246 431.917 134.927 431.917 Q132.751 431.917 130.482 431.546 Q128.237 431.176 125.83 430.435 L125.83 425.736 Q127.913 426.87 130.135 427.426 Q132.357 427.982 134.834 427.982 Q138.839 427.982 141.177 425.875 Q143.515 423.769 143.515 420.157 Q143.515 416.546 141.177 414.44 Q138.839 412.333 134.834 412.333 Q132.959 412.333 131.084 412.75 Q129.232 413.167 127.288 414.046 L127.288 396.685 Z" fill="#000000" fill-rule="evenodd" fill-opacity="1" /><path clip-path="url(#clip580)" d="M51.6634 83.3824 L59.3023 83.3824 L59.3023 57.0168 L50.9921 58.6835 L50.9921 54.4243 L59.256 52.7576 L63.9319 52.7576 L63.9319 83.3824 L71.5707 83.3824 L71.5707 87.3176 L51.6634 87.3176 L51.6634 83.3824 Z" fill="#000000" fill-rule="evenodd" fill-opacity="1" /><path clip-path="url(#clip580)" d="M91.0151 55.8363 Q87.404 55.8363 85.5753 59.4011 Q83.7697 62.9427 83.7697 70.0723 Q83.7697 77.1788 85.5753 80.7436 Q87.404 84.2852 91.0151 84.2852 Q94.6493 84.2852 96.4548 80.7436 Q98.2835 77.1788 98.2835 70.0723 Q98.2835 62.9427 96.4548 59.4011 Q94.6493 55.8363 91.0151 55.8363 M91.0151 52.1326 Q96.8252 52.1326 99.8808 56.7391 Q102.959 61.3224 102.959 70.0723 Q102.959 78.7991 99.8808 83.4056 Q96.8252 87.9889 91.0151 87.9889 Q85.2049 87.9889 82.1262 83.4056 Q79.0707 78.7991 79.0707 70.0723 Q79.0707 61.3224 82.1262 56.7391 Q85.2049 52.1326 91.0151 52.1326 Z" fill="#000000" fill-rule="evenodd" fill-opacity="1" /><path clip-path="url(#clip580)" d="M111.177 81.438 L116.061 81.438 L116.061 87.3176 L111.177 87.3176 L111.177 81.438 Z" fill="#000000" fill-rule="evenodd" fill-opacity="1" /><path clip-path="url(#clip580)" d="M136.246 55.8363 Q132.635 55.8363 130.807 59.4011 Q129.001 62.9427 129.001 70.0723 Q129.001 77.1788 130.807 80.7436 Q132.635 84.2852 136.246 84.2852 Q139.881 84.2852 141.686 80.7436 Q143.515 77.1788 143.515 70.0723 Q143.515 62.9427 141.686 59.4011 Q139.881 55.8363 136.246 55.8363 M136.246 52.1326 Q142.056 52.1326 145.112 56.7391 Q148.191 61.3224 148.191 70.0723 Q148.191 78.7991 145.112 83.4056 Q142.056 87.9889 136.246 87.9889 Q130.436 87.9889 127.357 83.4056 Q124.302 78.7991 124.302 70.0723 Q124.302 61.3224 127.357 56.7391 Q130.436 52.1326 136.246 52.1326 Z" fill="#000000" fill-rule="evenodd" fill-opacity="1" /><polyline clip-path="url(#clip582)" style="stroke:#009af9; stroke-linecap:butt; stroke-linejoin:round; stroke-width:4; stroke-opacity:1; fill:none" points="
  245.565,506.597 316.111,526.126 386.656,581.799 457.201,665.755 527.747,767.455 598.292,876.316 668.837,983.702 739.383,1083.76 809.928,1173.18 880.474,1250.44 
  951.019,1314.98 1021.56,1366.64 1092.11,1405.39 1162.66,1431.22 1233.2,1444.13 1303.75,1444.13 1374.29,1431.22 1444.84,1405.39 1515.38,1366.64 1585.93,1314.98 
  1656.47,1250.44 1727.02,1173.18 1797.56,1083.76 1868.11,983.702 1938.65,876.316 2009.2,767.455 2079.75,665.755 2150.29,581.799 2220.84,526.126 2291.38,506.597 
  
  "/>
<circle clip-path="url(#clip582)" cx="245.565" cy="506.597" r="14" fill="#009af9" fill-rule="evenodd" fill-opacity="1" stroke="#000000" stroke-opacity="1" stroke-width="3.2"/>
<circle clip-path="url(#clip582)" cx="316.111" cy="526.126" r="14" fill="#009af9" fill-rule="evenodd" fill-opacity="1" stroke="#000000" stroke-opacity="1" stroke-width="3.2"/>
<circle clip-path="url(#clip582)" cx="386.656" cy="581.799" r="14" fill="#009af9" fill-rule="evenodd" fill-opacity="1" stroke="#000000" stroke-opacity="1" stroke-width="3.2"/>
<circle clip-path="url(#clip582)" cx="457.201" cy="665.755" r="14" fill="#009af9" fill-rule="evenodd" fill-opacity="1" stroke="#000000" stroke-opacity="1" stroke-width="3.2"/>
<circle clip-path="url(#clip582)" cx="527.747" cy="767.455" r="14" fill="#009af9" fill-rule="evenodd" fill-opacity="1" stroke="#000000" stroke-opacity="1" stroke-width="3.2"/>
<circle clip-path="url(#clip582)" cx="598.292" cy="876.316" r="14" fill="#009af9" fill-rule="evenodd" fill-opacity="1" stroke="#000000" stroke-opacity="1" stroke-width="3.2"/>
<circle clip-path="url(#clip582)" cx="668.837" cy="983.702" r="14" fill="#009af9" fill-rule="evenodd" fill-opacity="1" stroke="#000000" stroke-opacity="1" stroke-width="3.2"/>
<circle clip-path="url(#clip582)" cx="739.383" cy="1083.76" r="14" fill="#009af9" fill-rule="evenodd" fill-opacity="1" stroke="#000000" stroke-opacity="1" stroke-width="3.2"/>
<circle clip-path="url(#clip582)" cx="809.928" cy="1173.18" r="14" fill="#009af9" fill-rule="evenodd" fill-opacity="1" stroke="#000000" stroke-opacity="1" stroke-width="3.2"/>
<circle clip-path="url(#clip582)" cx="880.474" cy="1250.44" r="14" fill="#009af9" fill-rule="evenodd" fill-opacity="1" stroke="#000000" stroke-opacity="1" stroke-width="3.2"/>
<circle clip-path="url(#clip582)" cx="951.019" cy="1314.98" r="14" fill="#009af9" fill-rule="evenodd" fill-opacity="1" stroke="#000000" stroke-opacity="1" stroke-width="3.2"/>
<circle clip-path="url(#clip582)" cx="1021.56" cy="1366.64" r="14" fill="#009af9" fill-rule="evenodd" fill-opacity="1" stroke="#000000" stroke-opacity="1" stroke-width="3.2"/>
<circle clip-path="url(#clip582)" cx="1092.11" cy="1405.39" r="14" fill="#009af9" fill-rule="evenodd" fill-opacity="1" stroke="#000000" stroke-opacity="1" stroke-width="3.2"/>
<circle clip-path="url(#clip582)" cx="1162.66" cy="1431.22" r="14" fill="#009af9" fill-rule="evenodd" fill-opacity="1" stroke="#000000" stroke-opacity="1" stroke-width="3.2"/>
<circle clip-path="url(#clip582)" cx="1233.2" cy="1444.13" r="14" fill="#009af9" fill-rule="evenodd" fill-opacity="1" stroke="#000000" stroke-opacity="1" stroke-width="3.2"/>
<circle clip-path="url(#clip582)" cx="1303.75" cy="1444.13" r="14" fill="#009af9" fill-rule="evenodd" fill-opacity="1" stroke="#000000" stroke-opacity="1" stroke-width="3.2"/>
<circle clip-path="url(#clip582)" cx="1374.29" cy="1431.22" r="14" fill="#009af9" fill-rule="evenodd" fill-opacity="1" stroke="#000000" stroke-opacity="1" stroke-width="3.2"/>
<circle clip-path="url(#clip582)" cx="1444.84" cy="1405.39" r="14" fill="#009af9" fill-rule="evenodd" fill-opacity="1" stroke="#000000" stroke-opacity="1" stroke-width="3.2"/>
<circle clip-path="url(#clip582)" cx="1515.38" cy="1366.64" r="14" fill="#009af9" fill-rule="evenodd" fill-opacity="1" stroke="#000000" stroke-opacity="1" stroke-width="3.2"/>
<circle clip-path="url(#clip582)" cx="1585.93" cy="1314.98" r="14" fill="#009af9" fill-rule="evenodd" fill-opacity="1" stroke="#000000" stroke-opacity="1" stroke-width="3.2"/>
<circle clip-path="url(#clip582)" cx="1656.47" cy="1250.44" r="14" fill="#009af9" fill-rule="evenodd" fill-opacity="1" stroke="#000000" stroke-opacity="1" stroke-width="3.2"/>
<circle clip-path="url(#clip582)" cx="1727.02" cy="1173.18" r="14" fill="#009af9" fill-rule="evenodd" fill-opacity="1" stroke="#000000" stroke-opacity="1" stroke-width="3.2"/>
<circle clip-path="url(#clip582)" cx="1797.56" cy="1083.76" r="14" fill="#009af9" fill-rule="evenodd" fill-opacity="1" stroke="#000000" stroke-opacity="1" stroke-width="3.2"/>
<circle clip-path="url(#clip582)" cx="1868.11" cy="983.702" r="14" fill="#009af9" fill-rule="evenodd" fill-opacity="1" stroke="#000000" stroke-opacity="1" stroke-width="3.2"/>
<circle clip-path="url(#clip582)" cx="1938.65" cy="876.316" r="14" fill="#009af9" fill-rule="evenodd" fill-opacity="1" stroke="#000000" stroke-opacity="1" stroke-width="3.2"/>
<circle clip-path="url(#clip582)" cx="2009.2" cy="767.455" r="14" fill="#009af9" fill-rule="evenodd" fill-opacity="1" stroke="#000000" stroke-opacity="1" stroke-width="3.2"/>
<circle clip-path="url(#clip582)" cx="2079.75" cy="665.755" r="14" fill="#009af9" fill-rule="evenodd" fill-opacity="1" stroke="#000000" stroke-opacity="1" stroke-width="3.2"/>
<circle clip-path="url(#clip582)" cx="2150.29" cy="581.799" r="14" fill="#009af9" fill-rule="evenodd" fill-opacity="1" stroke="#000000" stroke-opacity="1" stroke-width="3.2"/>
<circle clip-path="url(#clip582)" cx="2220.84" cy="526.126" r="14" fill="#009af9" fill-rule="evenodd" fill-opacity="1" stroke="#000000" stroke-opacity="1" stroke-width="3.2"/>
<circle clip-path="url(#clip582)" cx="2291.38" cy="506.597" r="14" fill="#009af9" fill-rule="evenodd" fill-opacity="1" stroke="#000000" stroke-opacity="1" stroke-width="3.2"/>
<polyline clip-path="url(#clip582)" style="stroke:#e26f46; stroke-linecap:butt; stroke-linejoin:round; stroke-width:4; stroke-opacity:1; fill:none" points="
  245.565,87.9763 255.555,114.366 265.544,140.497 357.912,369.848 450.28,577.056 505.789,690.928 561.298,796.803 608.23,880.081 655.162,957.642 706.144,1035.42 
  757.126,1106.45 804.126,1165.95 851.127,1219.73 901.516,1271.01 951.906,1315.71 1010.29,1359.25 1068.67,1393.94 1120.55,1417.35 1172.43,1433.78 1217.93,1442.43 
  1263.42,1445.72 1313.03,1443.17 1362.63,1434.24 1412.53,1418.82 1462.43,1396.93 1517.59,1365.22 1572.76,1325.6 1625.25,1280.57 1677.75,1228.39 1732.32,1166.55 
  1786.9,1096.98 1832.85,1032.43 1878.79,962.394 1934.88,869.465 1990.98,768.37 2043.7,665.892 2096.43,556.198 2180.91,365.421 2265.38,156.123 2278.38,122.269 
  2291.38,87.9763 
  "/>
<path clip-path="url(#clip580)" d="
M1891.63 250.738 L2280.47 250.738 L2280.47 95.2176 L1891.63 95.2176  Z
  " fill="#ffffff" fill-rule="evenodd" fill-opacity="1"/>
<polyline clip-path="url(#clip580)" style="stroke:#000000; stroke-linecap:butt; stroke-linejoin:round; stroke-width:4; stroke-opacity:1; fill:none" points="
  1891.63,250.738 2280.47,250.738 2280.47,95.2176 1891.63,95.2176 1891.63,250.738 
  "/>
<polyline clip-path="url(#clip580)" style="stroke:#009af9; stroke-linecap:butt; stroke-linejoin:round; stroke-width:4; stroke-opacity:1; fill:none" points="
  1915.72,147.058 2060.29,147.058 
  "/>
<circle clip-path="url(#clip580)" cx="1988.01" cy="147.058" r="23" fill="#009af9" fill-rule="evenodd" fill-opacity="1" stroke="#000000" stroke-opacity="1" stroke-width="5.12"/>
<path clip-path="url(#clip580)" d="M2102.81 139.176 L2102.81 143.203 Q2101.01 142.277 2099.06 141.815 Q2097.12 141.352 2095.04 141.352 Q2091.86 141.352 2090.27 142.324 Q2088.69 143.296 2088.69 145.24 Q2088.69 146.722 2089.83 147.578 Q2090.96 148.412 2094.39 149.176 L2095.85 149.5 Q2100.38 150.472 2102.28 152.254 Q2104.2 154.014 2104.2 157.185 Q2104.2 160.796 2101.33 162.902 Q2098.48 165.009 2093.48 165.009 Q2091.4 165.009 2089.13 164.592 Q2086.89 164.199 2084.39 163.388 L2084.39 158.99 Q2086.75 160.217 2089.04 160.842 Q2091.33 161.444 2093.58 161.444 Q2096.59 161.444 2098.21 160.426 Q2099.83 159.384 2099.83 157.509 Q2099.83 155.773 2098.65 154.847 Q2097.49 153.921 2093.53 153.064 L2092.05 152.717 Q2088.09 151.884 2086.33 150.171 Q2084.57 148.435 2084.57 145.426 Q2084.57 141.768 2087.17 139.778 Q2089.76 137.787 2094.53 137.787 Q2096.89 137.787 2098.97 138.134 Q2101.05 138.481 2102.81 139.176 Z" fill="#000000" fill-rule="evenodd" fill-opacity="1" /><path clip-path="url(#clip580)" d="M2115.2 131.051 L2115.2 138.412 L2123.97 138.412 L2123.97 141.722 L2115.2 141.722 L2115.2 155.796 Q2115.2 158.967 2116.05 159.87 Q2116.93 160.773 2119.6 160.773 L2123.97 160.773 L2123.97 164.338 L2119.6 164.338 Q2114.66 164.338 2112.79 162.509 Q2110.91 160.657 2110.91 155.796 L2110.91 141.722 L2107.79 141.722 L2107.79 138.412 L2110.91 138.412 L2110.91 131.051 L2115.2 131.051 Z" fill="#000000" fill-rule="evenodd" fill-opacity="1" /><path clip-path="url(#clip580)" d="M2151.75 150.31 L2151.75 152.393 L2132.16 152.393 Q2132.44 156.791 2134.8 159.106 Q2137.19 161.398 2141.42 161.398 Q2143.88 161.398 2146.17 160.796 Q2148.48 160.194 2150.75 158.99 L2150.75 163.018 Q2148.46 163.99 2146.05 164.5 Q2143.65 165.009 2141.17 165.009 Q2134.97 165.009 2131.33 161.398 Q2127.72 157.787 2127.72 151.629 Q2127.72 145.264 2131.15 141.537 Q2134.6 137.787 2140.43 137.787 Q2145.66 137.787 2148.69 141.166 Q2151.75 144.523 2151.75 150.31 M2147.49 149.06 Q2147.44 145.565 2145.52 143.481 Q2143.62 141.398 2140.47 141.398 Q2136.91 141.398 2134.76 143.412 Q2132.63 145.426 2132.3 149.083 L2147.49 149.06 Z" fill="#000000" fill-rule="evenodd" fill-opacity="1" /><path clip-path="url(#clip580)" d="M2180.29 148.689 L2180.29 164.338 L2176.03 164.338 L2176.03 148.828 Q2176.03 145.148 2174.6 143.319 Q2173.16 141.49 2170.29 141.49 Q2166.84 141.49 2164.85 143.69 Q2162.86 145.889 2162.86 149.685 L2162.86 164.338 L2158.58 164.338 L2158.58 138.412 L2162.86 138.412 L2162.86 142.44 Q2164.39 140.102 2166.45 138.944 Q2168.53 137.787 2171.24 137.787 Q2175.71 137.787 2178 140.565 Q2180.29 143.319 2180.29 148.689 Z" fill="#000000" fill-rule="evenodd" fill-opacity="1" /><path clip-path="url(#clip580)" d="M2207.44 139.407 L2207.44 143.389 Q2205.64 142.393 2203.81 141.907 Q2202 141.398 2200.15 141.398 Q2196.01 141.398 2193.72 144.037 Q2191.42 146.652 2191.42 151.398 Q2191.42 156.143 2193.72 158.782 Q2196.01 161.398 2200.15 161.398 Q2202 161.398 2203.81 160.912 Q2205.64 160.402 2207.44 159.407 L2207.44 163.342 Q2205.66 164.176 2203.74 164.592 Q2201.84 165.009 2199.69 165.009 Q2193.83 165.009 2190.38 161.328 Q2186.93 157.648 2186.93 151.398 Q2186.93 145.055 2190.41 141.421 Q2193.9 137.787 2199.97 137.787 Q2201.93 137.787 2203.81 138.203 Q2205.68 138.597 2207.44 139.407 Z" fill="#000000" fill-rule="evenodd" fill-opacity="1" /><path clip-path="url(#clip580)" d="M2214.85 138.412 L2219.11 138.412 L2219.11 164.338 L2214.85 164.338 L2214.85 138.412 M2214.85 128.319 L2219.11 128.319 L2219.11 133.713 L2214.85 133.713 L2214.85 128.319 Z" fill="#000000" fill-rule="evenodd" fill-opacity="1" /><path clip-path="url(#clip580)" d="M2228.02 128.319 L2232.28 128.319 L2232.28 164.338 L2228.02 164.338 L2228.02 128.319 Z" fill="#000000" fill-rule="evenodd" fill-opacity="1" /><polyline clip-path="url(#clip580)" style="stroke:#e26f46; stroke-linecap:butt; stroke-linejoin:round; stroke-width:4; stroke-opacity:1; fill:none" points="
  1915.72,198.898 2060.29,198.898 
  "/>
<path clip-path="url(#clip580)" d="M2108.41 202.15 L2108.41 204.233 L2088.83 204.233 Q2089.11 208.631 2091.47 210.946 Q2093.85 213.238 2098.09 213.238 Q2100.54 213.238 2102.84 212.636 Q2105.15 212.034 2107.42 210.83 L2107.42 214.858 Q2105.13 215.83 2102.72 216.34 Q2100.31 216.849 2097.84 216.849 Q2091.63 216.849 2088 213.238 Q2084.39 209.627 2084.39 203.469 Q2084.39 197.104 2087.81 193.377 Q2091.26 189.627 2097.1 189.627 Q2102.33 189.627 2105.36 193.006 Q2108.41 196.363 2108.41 202.15 M2104.16 200.9 Q2104.11 197.405 2102.19 195.321 Q2100.29 193.238 2097.14 193.238 Q2093.58 193.238 2091.42 195.252 Q2089.29 197.266 2088.97 200.923 L2104.16 200.9 Z" fill="#000000" fill-rule="evenodd" fill-opacity="1" /><path clip-path="url(#clip580)" d="M2136.12 190.252 L2126.75 202.867 L2136.61 216.178 L2131.59 216.178 L2124.04 205.992 L2116.49 216.178 L2111.47 216.178 L2121.54 202.613 L2112.33 190.252 L2117.35 190.252 L2124.23 199.488 L2131.1 190.252 L2136.12 190.252 Z" fill="#000000" fill-rule="evenodd" fill-opacity="1" /><path clip-path="url(#clip580)" d="M2154.41 203.145 Q2149.25 203.145 2147.26 204.326 Q2145.27 205.506 2145.27 208.354 Q2145.27 210.622 2146.75 211.965 Q2148.25 213.284 2150.82 213.284 Q2154.36 213.284 2156.49 210.784 Q2158.65 208.261 2158.65 204.094 L2158.65 203.145 L2154.41 203.145 M2162.91 201.386 L2162.91 216.178 L2158.65 216.178 L2158.65 212.242 Q2157.19 214.603 2155.01 215.738 Q2152.84 216.849 2149.69 216.849 Q2145.71 216.849 2143.35 214.627 Q2141.01 212.381 2141.01 208.631 Q2141.01 204.256 2143.92 202.034 Q2146.86 199.812 2152.67 199.812 L2158.65 199.812 L2158.65 199.395 Q2158.65 196.455 2156.7 194.858 Q2154.78 193.238 2151.29 193.238 Q2149.06 193.238 2146.96 193.77 Q2144.85 194.303 2142.91 195.367 L2142.91 191.432 Q2145.24 190.53 2147.44 190.09 Q2149.64 189.627 2151.72 189.627 Q2157.35 189.627 2160.13 192.543 Q2162.91 195.46 2162.91 201.386 Z" fill="#000000" fill-rule="evenodd" fill-opacity="1" /><path clip-path="url(#clip580)" d="M2190.34 191.247 L2190.34 195.229 Q2188.53 194.233 2186.7 193.747 Q2184.9 193.238 2183.04 193.238 Q2178.9 193.238 2176.61 195.877 Q2174.32 198.492 2174.32 203.238 Q2174.32 207.983 2176.61 210.622 Q2178.9 213.238 2183.04 213.238 Q2184.9 213.238 2186.7 212.752 Q2188.53 212.242 2190.34 211.247 L2190.34 215.182 Q2188.55 216.016 2186.63 216.432 Q2184.73 216.849 2182.58 216.849 Q2176.72 216.849 2173.28 213.168 Q2169.83 209.488 2169.83 203.238 Q2169.83 196.895 2173.3 193.261 Q2176.79 189.627 2182.86 189.627 Q2184.83 189.627 2186.7 190.043 Q2188.58 190.437 2190.34 191.247 Z" fill="#000000" fill-rule="evenodd" fill-opacity="1" /><path clip-path="url(#clip580)" d="M2201.96 182.891 L2201.96 190.252 L2210.73 190.252 L2210.73 193.562 L2201.96 193.562 L2201.96 207.636 Q2201.96 210.807 2202.81 211.71 Q2203.69 212.613 2206.35 212.613 L2210.73 212.613 L2210.73 216.178 L2206.35 216.178 Q2201.42 216.178 2199.55 214.349 Q2197.67 212.497 2197.67 207.636 L2197.67 193.562 L2194.55 193.562 L2194.55 190.252 L2197.67 190.252 L2197.67 182.891 L2201.96 182.891 Z" fill="#000000" fill-rule="evenodd" fill-opacity="1" /></svg>
