<?xml version="1.0" encoding="utf-8"?>
<svg xmlns="http://www.w3.org/2000/svg" xmlns:xlink="http://www.w3.org/1999/xlink" width="600" height="400" viewBox="0 0 2400 1600">
<defs>
  <clipPath id="clip420">
    <rect x="0" y="0" width="2400" height="1600"/>
  </clipPath>
</defs>
<path clip-path="url(#clip420)" d="
M0 1600 L2400 1600 L2400 0 L0 0  Z
  " fill="#ffffff" fill-rule="evenodd" fill-opacity="1"/>
<defs>
  <clipPath id="clip421">
    <rect x="480" y="0" width="1681" height="1600"/>
  </clipPath>
</defs>
<path clip-path="url(#clip420)" d="
M193.936 1486.45 L2352.76 1486.45 L2352.76 47.2441 L193.936 47.2441  Z
  " fill="#ffffff" fill-rule="evenodd" fill-opacity="1"/>
<defs>
  <clipPath id="clip422">
    <rect x="193" y="47" width="2160" height="1440"/>
  </clipPath>
</defs>
<polyline clip-path="url(#clip422)" style="stroke:#000000; stroke-linecap:butt; stroke-linejoin:round; stroke-width:2; stroke-opacity:0.1; fill:none" points="
  193.936,1486.45 193.936,47.2441 
  "/>
<polyline clip-path="url(#clip422)" style="stroke:#000000; stroke-linecap:butt; stroke-linejoin:round; stroke-width:2; stroke-opacity:0.1; fill:none" points="
  733.641,1486.45 733.641,47.2441 
  "/>
<polyline clip-path="url(#clip422)" style="stroke:#000000; stroke-linecap:butt; stroke-linejoin:round; stroke-width:2; stroke-opacity:0.1; fill:none" points="
  1273.35,1486.45 1273.35,47.2441 
  "/>
<polyline clip-path="url(#clip422)" style="stroke:#000000; stroke-linecap:butt; stroke-linejoin:round; stroke-width:2; stroke-opacity:0.1; fill:none" points="
  1813.05,1486.45 1813.05,47.2441 
  "/>
<polyline clip-path="url(#clip422)" style="stroke:#000000; stroke-linecap:butt; stroke-linejoin:round; stroke-width:2; stroke-opacity:0.1; fill:none" points="
  2352.76,1486.45 2352.76,47.2441 
  "/>
<polyline clip-path="url(#clip420)" style="stroke:#000000; stroke-linecap:butt; stroke-linejoin:round; stroke-width:4; stroke-opacity:1; fill:none" points="
  193.936,1486.45 2352.76,1486.45 
  "/>
<polyline clip-path="url(#clip420)" style="stroke:#000000; stroke-linecap:butt; stroke-linejoin:round; stroke-width:4; stroke-opacity:1; fill:none" points="
  193.936,1486.45 193.936,1467.55 
  "/>
<polyline clip-path="url(#clip420)" style="stroke:#000000; stroke-linecap:butt; stroke-linejoin:round; stroke-width:4; stroke-opacity:1; fill:none" points="
  733.641,1486.45 733.641,1467.55 
  "/>
<polyline clip-path="url(#clip420)" style="stroke:#000000; stroke-linecap:butt; stroke-linejoin:round; stroke-width:4; stroke-opacity:1; fill:none" points="
  1273.35,1486.45 1273.35,1467.55 
  "/>
<polyline clip-path="url(#clip420)" style="stroke:#000000; stroke-linecap:butt; stroke-linejoin:round; stroke-width:4; stroke-opacity:1; fill:none" points="
  1813.05,1486.45 1813.05,1467.55 
  "/>
<polyline clip-path="url(#clip420)" style="stroke:#000000; stroke-linecap:butt; stroke-linejoin:round; stroke-width:4; stroke-opacity:1; fill:none" points="
  2352.76,1486.45 2352.76,1467.55 
  "/>
<path clip-path="url(#clip420)" d="M163.878 1530.29 L193.554 1530.29 L193.554 1534.23 L163.878 1534.23 L163.878 1530.29 Z" fill="#000000" fill-rule="evenodd" fill-opacity="1" /><path clip-path="url(#clip420)" d="M207.674 1543.18 L223.994 1543.18 L223.994 1547.12 L202.049 1547.12 L202.049 1543.18 Q204.711 1540.43 209.295 1535.8 Q213.901 1531.15 215.082 1529.81 Q217.327 1527.28 218.207 1525.55 Q219.109 1523.79 219.109 1522.1 Q219.109 1519.34 217.165 1517.61 Q215.244 1515.87 212.142 1515.87 Q209.943 1515.87 207.489 1516.63 Q205.059 1517.4 202.281 1518.95 L202.281 1514.23 Q205.105 1513.09 207.559 1512.51 Q210.012 1511.93 212.049 1511.93 Q217.42 1511.93 220.614 1514.62 Q223.809 1517.31 223.809 1521.8 Q223.809 1523.93 222.998 1525.85 Q222.211 1527.74 220.105 1530.34 Q219.526 1531.01 216.424 1534.23 Q213.322 1537.42 207.674 1543.18 Z" fill="#000000" fill-rule="evenodd" fill-opacity="1" /><path clip-path="url(#clip420)" d="M703.398 1530.29 L733.074 1530.29 L733.074 1534.23 L703.398 1534.23 L703.398 1530.29 Z" fill="#000000" fill-rule="evenodd" fill-opacity="1" /><path clip-path="url(#clip420)" d="M743.977 1543.18 L751.615 1543.18 L751.615 1516.82 L743.305 1518.49 L743.305 1514.23 L751.569 1512.56 L756.245 1512.56 L756.245 1543.18 L763.884 1543.18 L763.884 1547.12 L743.977 1547.12 L743.977 1543.18 Z" fill="#000000" fill-rule="evenodd" fill-opacity="1" /><path clip-path="url(#clip420)" d="M1273.35 1515.64 Q1269.73 1515.64 1267.91 1519.2 Q1266.1 1522.75 1266.1 1529.87 Q1266.1 1536.98 1267.91 1540.55 Q1269.73 1544.09 1273.35 1544.09 Q1276.98 1544.09 1278.79 1540.55 Q1280.61 1536.98 1280.61 1529.87 Q1280.61 1522.75 1278.79 1519.2 Q1276.98 1515.64 1273.35 1515.64 M1273.35 1511.93 Q1279.16 1511.93 1282.21 1516.54 Q1285.29 1521.12 1285.29 1529.87 Q1285.29 1538.6 1282.21 1543.21 Q1279.16 1547.79 1273.35 1547.79 Q1267.54 1547.79 1264.46 1543.21 Q1261.4 1538.6 1261.4 1529.87 Q1261.4 1521.12 1264.46 1516.54 Q1267.54 1511.93 1273.35 1511.93 Z" fill="#000000" fill-rule="evenodd" fill-opacity="1" /><path clip-path="url(#clip420)" d="M1803.43 1543.18 L1811.07 1543.18 L1811.07 1516.82 L1802.76 1518.49 L1802.76 1514.23 L1811.03 1512.56 L1815.7 1512.56 L1815.7 1543.18 L1823.34 1543.18 L1823.34 1547.12 L1803.43 1547.12 L1803.43 1543.18 Z" fill="#000000" fill-rule="evenodd" fill-opacity="1" /><path clip-path="url(#clip420)" d="M2347.41 1543.18 L2363.73 1543.18 L2363.73 1547.12 L2341.78 1547.12 L2341.78 1543.18 Q2344.45 1540.43 2349.03 1535.8 Q2353.64 1531.15 2354.82 1529.81 Q2357.06 1527.28 2357.94 1525.55 Q2358.84 1523.79 2358.84 1522.1 Q2358.84 1519.34 2356.9 1517.61 Q2354.98 1515.87 2351.88 1515.87 Q2349.68 1515.87 2347.22 1516.63 Q2344.79 1517.4 2342.02 1518.95 L2342.02 1514.23 Q2344.84 1513.09 2347.29 1512.51 Q2349.75 1511.93 2351.78 1511.93 Q2357.15 1511.93 2360.35 1514.62 Q2363.54 1517.31 2363.54 1521.8 Q2363.54 1523.93 2362.73 1525.85 Q2361.95 1527.74 2359.84 1530.34 Q2359.26 1531.01 2356.16 1534.23 Q2353.06 1537.42 2347.41 1543.18 Z" fill="#000000" fill-rule="evenodd" fill-opacity="1" /><polyline clip-path="url(#clip422)" style="stroke:#000000; stroke-linecap:butt; stroke-linejoin:round; stroke-width:2; stroke-opacity:0.1; fill:none" points="
  193.936,1445.72 2352.76,1445.72 
  "/>
<polyline clip-path="url(#clip422)" style="stroke:#000000; stroke-linecap:butt; stroke-linejoin:round; stroke-width:2; stroke-opacity:0.1; fill:none" points="
  193.936,1106.28 2352.76,1106.28 
  "/>
<polyline clip-path="url(#clip422)" style="stroke:#000000; stroke-linecap:butt; stroke-linejoin:round; stroke-width:2; stroke-opacity:0.1; fill:none" points="
  193.936,766.839 2352.76,766.839 
  "/>
<polyline clip-path="url(#clip422)" style="stroke:#000000; stroke-linecap:butt; stroke-linejoin:round; stroke-width:2; stroke-opacity:0.1; fill:none" points="
  193.936,427.4 2352.76,427.4 
  "/>
<polyline clip-path="url(#clip422)" style="stroke:#000000; stroke-linecap:butt; stroke-linejoin:round; stroke-width:2; stroke-opacity:0.1; fill:none" points="
  193.936,87.9615 2352.76,87.9615 
  "/>
<polyline clip-path="url(#clip420)" style="stroke:#000000; stroke-linecap:butt; stroke-linejoin:round; stroke-width:4; stroke-opacity:1; fill:none" points="
  193.936,1486.45 193.936,47.2441 
  "/>
<polyline clip-path="url(#clip420)" style="stroke:#000000; stroke-linecap:butt; stroke-linejoin:round; stroke-width:4; stroke-opacity:1; fill:none" points="
  193.936,1445.72 212.834,1445.72 
  "/>
<polyline clip-path="url(#clip420)" style="stroke:#000000; stroke-linecap:butt; stroke-linejoin:round; stroke-width:4; stroke-opacity:1; fill:none" points="
  193.936,1106.28 212.834,1106.28 
  "/>
<polyline clip-path="url(#clip420)" style="stroke:#000000; stroke-linecap:butt; stroke-linejoin:round; stroke-width:4; stroke-opacity:1; fill:none" points="
  193.936,766.839 212.834,766.839 
  "/>
<polyline clip-path="url(#clip420)" style="stroke:#000000; stroke-linecap:butt; stroke-linejoin:round; stroke-width:4; stroke-opacity:1; fill:none" points="
  193.936,427.4 212.834,427.4 
  "/>
<polyline clip-path="url(#clip420)" style="stroke:#000000; stroke-linecap:butt; stroke-linejoin:round; stroke-width:4; stroke-opacity:1; fill:none" points="
  193.936,87.9615 212.834,87.9615 
  "/>
<path clip-path="url(#clip420)" d="M50.9921 1446.17 L80.6679 1446.17 L80.6679 1450.1 L50.9921 1450.1 L50.9921 1446.17 Z" fill="#000000" fill-rule="evenodd" fill-opacity="1" /><path clip-path="url(#clip420)" d="M91.5706 1459.06 L99.2095 1459.06 L99.2095 1432.69 L90.8993 1434.36 L90.8993 1430.1 L99.1632 1428.44 L103.839 1428.44 L103.839 1459.06 L111.478 1459.06 L111.478 1463 L91.5706 1463 L91.5706 1459.06 Z" fill="#000000" fill-rule="evenodd" fill-opacity="1" /><path clip-path="url(#clip420)" d="M120.922 1457.12 L125.807 1457.12 L125.807 1463 L120.922 1463 L120.922 1457.12 Z" fill="#000000" fill-rule="evenodd" fill-opacity="1" /><path clip-path="url(#clip420)" d="M145.992 1431.51 Q142.381 1431.51 140.552 1435.08 Q138.746 1438.62 138.746 1445.75 Q138.746 1452.86 140.552 1456.42 Q142.381 1459.96 145.992 1459.96 Q149.626 1459.96 151.431 1456.42 Q153.26 1452.86 153.26 1445.75 Q153.26 1438.62 151.431 1435.08 Q149.626 1431.51 145.992 1431.51 M145.992 1427.81 Q151.802 1427.81 154.857 1432.42 Q157.936 1437 157.936 1445.75 Q157.936 1454.48 154.857 1459.08 Q151.802 1463.67 145.992 1463.67 Q140.181 1463.67 137.103 1459.08 Q134.047 1454.48 134.047 1445.75 Q134.047 1437 137.103 1432.42 Q140.181 1427.81 145.992 1427.81 Z" fill="#000000" fill-rule="evenodd" fill-opacity="1" /><path clip-path="url(#clip420)" d="M51.9875 1106.73 L81.6633 1106.73 L81.6633 1110.66 L51.9875 1110.66 L51.9875 1106.73 Z" fill="#000000" fill-rule="evenodd" fill-opacity="1" /><path clip-path="url(#clip420)" d="M101.756 1092.08 Q98.1447 1092.08 96.316 1095.64 Q94.5104 1099.18 94.5104 1106.31 Q94.5104 1113.42 96.316 1116.98 Q98.1447 1120.52 101.756 1120.52 Q105.39 1120.52 107.196 1116.98 Q109.024 1113.42 109.024 1106.31 Q109.024 1099.18 107.196 1095.64 Q105.39 1092.08 101.756 1092.08 M101.756 1088.37 Q107.566 1088.37 110.621 1092.98 Q113.7 1097.56 113.7 1106.31 Q113.7 1115.04 110.621 1119.65 Q107.566 1124.23 101.756 1124.23 Q95.9456 1124.23 92.8669 1119.65 Q89.8114 1115.04 89.8114 1106.31 Q89.8114 1097.56 92.8669 1092.98 Q95.9456 1088.37 101.756 1088.37 Z" fill="#000000" fill-rule="evenodd" fill-opacity="1" /><path clip-path="url(#clip420)" d="M121.918 1117.68 L126.802 1117.68 L126.802 1123.56 L121.918 1123.56 L121.918 1117.68 Z" fill="#000000" fill-rule="evenodd" fill-opacity="1" /><path clip-path="url(#clip420)" d="M137.033 1089 L155.39 1089 L155.39 1092.93 L141.316 1092.93 L141.316 1101.4 Q142.334 1101.06 143.353 1100.9 Q144.371 1100.71 145.39 1100.71 Q151.177 1100.71 154.556 1103.88 Q157.936 1107.05 157.936 1112.47 Q157.936 1118.05 154.464 1121.15 Q150.992 1124.23 144.672 1124.23 Q142.496 1124.23 140.228 1123.86 Q137.982 1123.49 135.575 1122.75 L135.575 1118.05 Q137.658 1119.18 139.881 1119.74 Q142.103 1120.29 144.58 1120.29 Q148.584 1120.29 150.922 1118.19 Q153.26 1116.08 153.26 1112.47 Q153.26 1108.86 150.922 1106.75 Q148.584 1104.65 144.58 1104.65 Q142.705 1104.65 140.83 1105.06 Q138.978 1105.48 137.033 1106.36 L137.033 1089 Z" fill="#000000" fill-rule="evenodd" fill-opacity="1" /><path clip-path="url(#clip420)" d="M100.76 752.637 Q97.1493 752.637 95.3206 756.202 Q93.515 759.744 93.515 766.873 Q93.515 773.98 95.3206 777.545 Q97.1493 781.086 100.76 781.086 Q104.395 781.086 106.2 777.545 Q108.029 773.98 108.029 766.873 Q108.029 759.744 106.2 756.202 Q104.395 752.637 100.76 752.637 M100.76 748.934 Q106.571 748.934 109.626 753.54 Q112.705 758.123 112.705 766.873 Q112.705 775.6 109.626 780.207 Q106.571 784.79 100.76 784.79 Q94.9502 784.79 91.8715 780.207 Q88.816 775.6 88.816 766.873 Q88.816 758.123 91.8715 753.54 Q94.9502 748.934 100.76 748.934 Z" fill="#000000" fill-rule="evenodd" fill-opacity="1" /><path clip-path="url(#clip420)" d="M120.922 778.239 L125.807 778.239 L125.807 784.119 L120.922 784.119 L120.922 778.239 Z" fill="#000000" fill-rule="evenodd" fill-opacity="1" /><path clip-path="url(#clip420)" d="M145.992 752.637 Q142.381 752.637 140.552 756.202 Q138.746 759.744 138.746 766.873 Q138.746 773.98 140.552 777.545 Q142.381 781.086 145.992 781.086 Q149.626 781.086 151.431 777.545 Q153.26 773.98 153.26 766.873 Q153.26 759.744 151.431 756.202 Q149.626 752.637 145.992 752.637 M145.992 748.934 Q151.802 748.934 154.857 753.54 Q157.936 758.123 157.936 766.873 Q157.936 775.6 154.857 780.207 Q151.802 784.79 145.992 784.79 Q140.181 784.79 137.103 780.207 Q134.047 775.6 134.047 766.873 Q134.047 758.123 137.103 753.54 Q140.181 748.934 145.992 748.934 Z" fill="#000000" fill-rule="evenodd" fill-opacity="1" /><path clip-path="url(#clip420)" d="M101.756 413.199 Q98.1447 413.199 96.316 416.764 Q94.5104 420.305 94.5104 427.435 Q94.5104 434.541 96.316 438.106 Q98.1447 441.648 101.756 441.648 Q105.39 441.648 107.196 438.106 Q109.024 434.541 109.024 427.435 Q109.024 420.305 107.196 416.764 Q105.39 413.199 101.756 413.199 M101.756 409.495 Q107.566 409.495 110.621 414.102 Q113.7 418.685 113.7 427.435 Q113.7 436.162 110.621 440.768 Q107.566 445.351 101.756 445.351 Q95.9456 445.351 92.8669 440.768 Q89.8114 436.162 89.8114 427.435 Q89.8114 418.685 92.8669 414.102 Q95.9456 409.495 101.756 409.495 Z" fill="#000000" fill-rule="evenodd" fill-opacity="1" /><path clip-path="url(#clip420)" d="M121.918 438.8 L126.802 438.8 L126.802 444.68 L121.918 444.68 L121.918 438.8 Z" fill="#000000" fill-rule="evenodd" fill-opacity="1" /><path clip-path="url(#clip420)" d="M137.033 410.12 L155.39 410.12 L155.39 414.055 L141.316 414.055 L141.316 422.527 Q142.334 422.18 143.353 422.018 Q144.371 421.833 145.39 421.833 Q151.177 421.833 154.556 425.004 Q157.936 428.176 157.936 433.592 Q157.936 439.171 154.464 442.273 Q150.992 445.351 144.672 445.351 Q142.496 445.351 140.228 444.981 Q137.982 444.611 135.575 443.87 L135.575 439.171 Q137.658 440.305 139.881 440.861 Q142.103 441.416 144.58 441.416 Q148.584 441.416 150.922 439.31 Q153.26 437.203 153.26 433.592 Q153.26 429.981 150.922 427.875 Q148.584 425.768 144.58 425.768 Q142.705 425.768 140.83 426.185 Q138.978 426.601 137.033 427.481 L137.033 410.12 Z" fill="#000000" fill-rule="evenodd" fill-opacity="1" /><path clip-path="url(#clip420)" d="M91.5706 101.306 L99.2095 101.306 L99.2095 74.9408 L90.8993 76.6074 L90.8993 72.3482 L99.1632 70.6815 L103.839 70.6815 L103.839 101.306 L111.478 101.306 L111.478 105.242 L91.5706 105.242 L91.5706 101.306 Z" fill="#000000" fill-rule="evenodd" fill-opacity="1" /><path clip-path="url(#clip420)" d="M120.922 99.3619 L125.807 99.3619 L125.807 105.242 L120.922 105.242 L120.922 99.3619 Z" fill="#000000" fill-rule="evenodd" fill-opacity="1" /><path clip-path="url(#clip420)" d="M145.992 73.7602 Q142.381 73.7602 140.552 77.325 Q138.746 80.8667 138.746 87.9963 Q138.746 95.1027 140.552 98.6675 Q142.381 102.209 145.992 102.209 Q149.626 102.209 151.431 98.6675 Q153.26 95.1027 153.26 87.9963 Q153.26 80.8667 151.431 77.325 Q149.626 73.7602 145.992 73.7602 M145.992 70.0565 Q151.802 70.0565 154.857 74.663 Q157.936 79.2463 157.936 87.9963 Q157.936 96.7231 154.857 101.33 Q151.802 105.913 145.992 105.913 Q140.181 105.913 137.103 101.33 Q134.047 96.7231 134.047 87.9963 Q134.047 79.2463 137.103 74.663 Q140.181 70.0565 145.992 70.0565 Z" fill="#000000" fill-rule="evenodd" fill-opacity="1" /><circle clip-path="url(#clip422)" cx="1813.05" cy="223.398" r="14" fill="#009af9" fill-rule="evenodd" fill-opacity="1" stroke="#000000" stroke-opacity="1" stroke-width="3.2"/>
<path clip-path="url(#clip422)" d="M703.632 1301.08 L703.632 1333.08 L735.632 1333.08 L735.632 1301.08 L703.632 1301.08 Z" fill="#e26f46" fill-rule="evenodd" fill-opacity="1" stroke="#000000" stroke-opacity="1" stroke-width="3.2"/>
<path clip-path="url(#clip422)" d="M1878.86 178.02 L1875.1 188.836 L1863.65 189.076 L1872.78 196.004 L1869.45 206.964 L1878.86 200.42 L1888.27 206.964 L1884.94 196.004 L1894.08 189.076 L1882.62 188.836 L1878.86 178.02 Z" fill="#3da44d" fill-rule="evenodd" fill-opacity="1" stroke="#000000" stroke-opacity="1" stroke-width="3.2"/>
<path clip-path="url(#clip422)" d="M441.628 1385.45 L425.628 1401.45 L441.628 1417.45 L457.628 1401.45 L441.628 1385.45 Z" fill="#c271d2" fill-rule="evenodd" fill-opacity="1" stroke="#000000" stroke-opacity="1" stroke-width="3.2"/>
<polyline clip-path="url(#clip422)" style="stroke:#9b7fe8; stroke-linecap:butt; stroke-linejoin:round; stroke-width:4; stroke-opacity:1; fill:none" points="
  193.936,1429.25 215.019,1427.79 409.958,1406.66 527.109,1383.84 626.158,1355.12 679.956,1334.72 733.753,1310.22 783.35,1283.49 832.946,1252.32 886.119,1213.52 
  939.292,1168.78 1000.9,1109.31 1062.5,1041.85 1172,905.105 1268.02,774.209 1372.7,631.21 1478.01,499.009 1536.23,434.327 1594.44,376.718 1649.83,328.705 
  1705.23,287.187 1762.82,250.49 1820.41,219.783 1868.89,198.061 1917.38,179.651 2035.76,146.055 2147.04,125.455 2325.32,106.351 2352.76,104.429 
  "/>
<path clip-path="url(#clip420)" d="
M1957.11 1438.47 L2280.8 1438.47 L2280.8 764.554 L1957.11 764.554  Z
  " fill="#ffffff" fill-rule="evenodd" fill-opacity="1"/>
<polyline clip-path="url(#clip420)" style="stroke:#000000; stroke-linecap:butt; stroke-linejoin:round; stroke-width:4; stroke-opacity:1; fill:none" points="
  1957.11,1438.47 2280.8,1438.47 2280.8,764.554 1957.11,764.554 1957.11,1438.47 
  "/>
<polyline clip-path="url(#clip420)" style="stroke:#009af9; stroke-linecap:butt; stroke-linejoin:round; stroke-width:4; stroke-opacity:1; fill:none" points="
  1981.09,816.394 2125.02,816.394 
  "/>
<circle clip-path="url(#clip420)" cx="2053.05" cy="816.394" r="23" fill="#009af9" fill-rule="evenodd" fill-opacity="1" stroke="#000000" stroke-opacity="1" stroke-width="5.12"/>
<path clip-path="url(#clip420)" d="M2162.84 836.082 Q2161.04 840.711 2159.33 842.123 Q2157.61 843.535 2154.74 843.535 L2151.34 843.535 L2151.34 839.971 L2153.84 839.971 Q2155.6 839.971 2156.57 839.137 Q2157.54 838.304 2158.72 835.202 L2159.49 833.258 L2149 807.749 L2153.52 807.749 L2161.62 828.026 L2169.72 807.749 L2174.23 807.749 L2162.84 836.082 Z" fill="#000000" fill-rule="evenodd" fill-opacity="1" /><path clip-path="url(#clip420)" d="M2181.53 829.739 L2189.16 829.739 L2189.16 803.374 L2180.85 805.04 L2180.85 800.781 L2189.12 799.114 L2193.79 799.114 L2193.79 829.739 L2201.43 829.739 L2201.43 833.674 L2181.53 833.674 L2181.53 829.739 Z" fill="#000000" fill-rule="evenodd" fill-opacity="1" /><polyline clip-path="url(#clip420)" style="stroke:#e26f46; stroke-linecap:butt; stroke-linejoin:round; stroke-width:4; stroke-opacity:1; fill:none" points="
  1981.09,868.234 2125.02,868.234 
  "/>
<path clip-path="url(#clip420)" d="M2027.45 842.634 L2027.45 893.834 L2078.65 893.834 L2078.65 842.634 L2027.45 842.634 Z" fill="#e26f46" fill-rule="evenodd" fill-opacity="1" stroke="#000000" stroke-opacity="1" stroke-width="5.12"/>
<path clip-path="url(#clip420)" d="M2162.84 887.922 Q2161.04 892.551 2159.33 893.963 Q2157.61 895.375 2154.74 895.375 L2151.34 895.375 L2151.34 891.811 L2153.84 891.811 Q2155.6 891.811 2156.57 890.977 Q2157.54 890.144 2158.72 887.042 L2159.49 885.098 L2149 859.589 L2153.52 859.589 L2161.62 879.866 L2169.72 859.589 L2174.23 859.589 L2162.84 887.922 Z" fill="#000000" fill-rule="evenodd" fill-opacity="1" /><path clip-path="url(#clip420)" d="M2184.74 881.579 L2201.06 881.579 L2201.06 885.514 L2179.12 885.514 L2179.12 881.579 Q2181.78 878.825 2186.36 874.195 Q2190.97 869.542 2192.15 868.2 Q2194.4 865.677 2195.28 863.94 Q2196.18 862.181 2196.18 860.491 Q2196.18 857.737 2194.23 856.001 Q2192.31 854.265 2189.21 854.265 Q2187.01 854.265 2184.56 855.028 Q2182.13 855.792 2179.35 857.343 L2179.35 852.621 Q2182.17 851.487 2184.63 850.908 Q2187.08 850.329 2189.12 850.329 Q2194.49 850.329 2197.68 853.015 Q2200.88 855.7 2200.88 860.19 Q2200.88 862.32 2200.07 864.241 Q2199.28 866.14 2197.17 868.732 Q2196.59 869.403 2193.49 872.621 Q2190.39 875.815 2184.74 881.579 Z" fill="#000000" fill-rule="evenodd" fill-opacity="1" /><polyline clip-path="url(#clip420)" style="stroke:#3da44d; stroke-linecap:butt; stroke-linejoin:round; stroke-width:4; stroke-opacity:1; fill:none" points="
  1981.09,920.074 2125.02,920.074 
  "/>
<path clip-path="url(#clip420)" d="M2053.05 894.474 L2047.04 911.78 L2028.71 912.164 L2043.33 923.249 L2038 940.785 L2053.05 930.314 L2068.11 940.785 L2062.78 923.249 L2077.4 912.164 L2059.07 911.78 L2053.05 894.474 Z" fill="#3da44d" fill-rule="evenodd" fill-opacity="1" stroke="#000000" stroke-opacity="1" stroke-width="5.12"/>
<path clip-path="url(#clip420)" d="M2162.84 939.762 Q2161.04 944.391 2159.33 945.803 Q2157.61 947.215 2154.74 947.215 L2151.34 947.215 L2151.34 943.651 L2153.84 943.651 Q2155.6 943.651 2156.57 942.817 Q2157.54 941.984 2158.72 938.882 L2159.49 936.938 L2149 911.429 L2153.52 911.429 L2161.62 931.706 L2169.72 911.429 L2174.23 911.429 L2162.84 939.762 Z" fill="#000000" fill-rule="evenodd" fill-opacity="1" /><path clip-path="url(#clip420)" d="M2194.88 918.72 Q2198.24 919.438 2200.11 921.706 Q2202.01 923.975 2202.01 927.308 Q2202.01 932.424 2198.49 935.225 Q2194.97 938.026 2188.49 938.026 Q2186.32 938.026 2184 937.586 Q2181.71 937.169 2179.26 936.313 L2179.26 931.799 Q2181.2 932.933 2183.52 933.512 Q2185.83 934.091 2188.35 934.091 Q2192.75 934.091 2195.04 932.354 Q2197.36 930.618 2197.36 927.308 Q2197.36 924.253 2195.21 922.54 Q2193.08 920.804 2189.26 920.804 L2185.23 920.804 L2185.23 916.961 L2189.44 916.961 Q2192.89 916.961 2194.72 915.595 Q2196.55 914.206 2196.55 911.614 Q2196.55 908.952 2194.65 907.54 Q2192.78 906.105 2189.26 906.105 Q2187.34 906.105 2185.14 906.521 Q2182.94 906.938 2180.3 907.818 L2180.3 903.651 Q2182.96 902.91 2185.28 902.54 Q2187.61 902.169 2189.67 902.169 Q2195 902.169 2198.1 904.6 Q2201.2 907.007 2201.2 911.128 Q2201.2 913.998 2199.56 915.989 Q2197.91 917.956 2194.88 918.72 Z" fill="#000000" fill-rule="evenodd" fill-opacity="1" /><polyline clip-path="url(#clip420)" style="stroke:#c271d2; stroke-linecap:butt; stroke-linejoin:round; stroke-width:4; stroke-opacity:1; fill:none" points="
  1981.09,971.914 2125.02,971.914 
  "/>
<path clip-path="url(#clip420)" d="M2053.05 946.314 L2027.45 971.914 L2053.05 997.514 L2078.65 971.914 L2053.05 946.314 Z" fill="#c271d2" fill-rule="evenodd" fill-opacity="1" stroke="#000000" stroke-opacity="1" stroke-width="5.12"/>
<path clip-path="url(#clip420)" d="M2162.84 991.602 Q2161.04 996.231 2159.33 997.643 Q2157.61 999.055 2154.74 999.055 L2151.34 999.055 L2151.34 995.491 L2153.84 995.491 Q2155.6 995.491 2156.57 994.657 Q2157.54 993.824 2158.72 990.722 L2159.49 988.778 L2149 963.269 L2153.52 963.269 L2161.62 983.546 L2169.72 963.269 L2174.23 963.269 L2162.84 991.602 Z" fill="#000000" fill-rule="evenodd" fill-opacity="1" /><path clip-path="url(#clip420)" d="M2193.56 958.708 L2181.76 977.157 L2193.56 977.157 L2193.56 958.708 M2192.34 954.634 L2198.22 954.634 L2198.22 977.157 L2203.15 977.157 L2203.15 981.046 L2198.22 981.046 L2198.22 989.194 L2193.56 989.194 L2193.56 981.046 L2177.96 981.046 L2177.96 976.532 L2192.34 954.634 Z" fill="#000000" fill-rule="evenodd" fill-opacity="1" /><polyline clip-path="url(#clip420)" style="stroke:#ac8d18; stroke-linecap:butt; stroke-linejoin:round; stroke-width:4; stroke-opacity:1; fill:none" points="
  1981.09,1023.75 2125.02,1023.75 
  "/>
<path clip-path="url(#clip420)" d="M2053.05 1049.35 L2030.89 1036.55 L2030.89 1010.95 L2053.05 998.154 L2075.22 1010.95 L2075.22 1036.55 Z" fill="#ac8d18" fill-rule="evenodd" fill-opacity="1" stroke="#000000" stroke-opacity="1" stroke-width="5.12"/>
<path clip-path="url(#clip420)" d="M2162.84 1043.44 Q2161.04 1048.07 2159.33 1049.48 Q2157.61 1050.9 2154.74 1050.9 L2151.34 1050.9 L2151.34 1047.33 L2153.84 1047.33 Q2155.6 1047.33 2156.57 1046.5 Q2157.54 1045.66 2158.72 1042.56 L2159.49 1040.62 L2149 1015.11 L2153.52 1015.11 L2161.62 1035.39 L2169.72 1015.11 L2174.23 1015.11 L2162.84 1043.44 Z" fill="#000000" fill-rule="evenodd" fill-opacity="1" /><path clip-path="url(#clip420)" d="M2180.76 1006.47 L2199.12 1006.47 L2199.12 1010.41 L2185.04 1010.41 L2185.04 1018.88 Q2186.06 1018.53 2187.08 1018.37 Q2188.1 1018.19 2189.12 1018.19 Q2194.91 1018.19 2198.28 1021.36 Q2201.66 1024.53 2201.66 1029.95 Q2201.66 1035.53 2198.19 1038.63 Q2194.72 1041.71 2188.4 1041.71 Q2186.22 1041.71 2183.96 1041.34 Q2181.71 1040.96 2179.3 1040.22 L2179.3 1035.53 Q2181.39 1036.66 2183.61 1037.21 Q2185.83 1037.77 2188.31 1037.77 Q2192.31 1037.77 2194.65 1035.66 Q2196.99 1033.56 2196.99 1029.95 Q2196.99 1026.34 2194.65 1024.23 Q2192.31 1022.12 2188.31 1022.12 Q2186.43 1022.12 2184.56 1022.54 Q2182.71 1022.96 2180.76 1023.84 L2180.76 1006.47 Z" fill="#000000" fill-rule="evenodd" fill-opacity="1" /><polyline clip-path="url(#clip420)" style="stroke:#00a9ad; stroke-linecap:butt; stroke-linejoin:round; stroke-width:4; stroke-opacity:1; fill:none" points="
  1981.09,1075.59 2125.02,1075.59 
  "/>
<line clip-path="url(#clip420)" x1="2053.05" y1="1075.59" x2="2053.05" y2="1049.99" style="stroke:#00a9ad; stroke-width:3.2; stroke-opacity:1"/>
<line clip-path="url(#clip420)" x1="2053.05" y1="1075.59" x2="2027.45" y2="1075.59" style="stroke:#00a9ad; stroke-width:3.2; stroke-opacity:1"/>
<line clip-path="url(#clip420)" x1="2053.05" y1="1075.59" x2="2053.05" y2="1101.19" style="stroke:#00a9ad; stroke-width:3.2; stroke-opacity:1"/>
<line clip-path="url(#clip420)" x1="2053.05" y1="1075.59" x2="2078.65" y2="1075.59" style="stroke:#00a9ad; stroke-width:3.2; stroke-opacity:1"/>
<path clip-path="url(#clip420)" d="M2162.84 1095.28 Q2161.04 1099.91 2159.33 1101.32 Q2157.61 1102.74 2154.74 1102.74 L2151.34 1102.74 L2151.34 1099.17 L2153.84 1099.17 Q2155.6 1099.17 2156.57 1098.34 Q2157.54 1097.5 2158.72 1094.4 L2159.49 1092.46 L2149 1066.95 L2153.52 1066.95 L2161.62 1087.23 L2169.72 1066.95 L2174.23 1066.95 L2162.84 1095.28 Z" fill="#000000" fill-rule="evenodd" fill-opacity="1" /><path clip-path="url(#clip420)" d="M2191.29 1073.73 Q2188.15 1073.73 2186.29 1075.88 Q2184.47 1078.04 2184.47 1081.79 Q2184.47 1085.51 2186.29 1087.69 Q2188.15 1089.84 2191.29 1089.84 Q2194.44 1089.84 2196.27 1087.69 Q2198.12 1085.51 2198.12 1081.79 Q2198.12 1078.04 2196.27 1075.88 Q2194.44 1073.73 2191.29 1073.73 M2200.58 1059.08 L2200.58 1063.34 Q2198.82 1062.5 2197.01 1062.06 Q2195.23 1061.62 2193.47 1061.62 Q2188.84 1061.62 2186.39 1064.75 Q2183.96 1067.87 2183.61 1074.19 Q2184.97 1072.18 2187.03 1071.12 Q2189.09 1070.03 2191.57 1070.03 Q2196.78 1070.03 2199.79 1073.2 Q2202.82 1076.35 2202.82 1081.79 Q2202.82 1087.11 2199.67 1090.33 Q2196.53 1093.55 2191.29 1093.55 Q2185.3 1093.55 2182.13 1088.96 Q2178.96 1084.36 2178.96 1075.63 Q2178.96 1067.43 2182.84 1062.57 Q2186.73 1057.69 2193.28 1057.69 Q2195.04 1057.69 2196.83 1058.04 Q2198.63 1058.38 2200.58 1059.08 Z" fill="#000000" fill-rule="evenodd" fill-opacity="1" /><polyline clip-path="url(#clip420)" style="stroke:#ed5d92; stroke-linecap:butt; stroke-linejoin:round; stroke-width:4; stroke-opacity:1; fill:none" points="
  1981.09,1127.43 2125.02,1127.43 
  "/>
<path clip-path="url(#clip420)" d="M2162.84 1147.12 Q2161.04 1151.75 2159.33 1153.16 Q2157.61 1154.58 2154.74 1154.58 L2151.34 1154.58 L2151.34 1151.01 L2153.84 1151.01 Q2155.6 1151.01 2156.57 1150.18 Q2157.54 1149.34 2158.72 1146.24 L2159.49 1144.3 L2149 1118.79 L2153.52 1118.79 L2161.62 1139.07 L2169.72 1118.79 L2174.23 1118.79 L2162.84 1147.12 Z" fill="#000000" fill-rule="evenodd" fill-opacity="1" /><path clip-path="url(#clip420)" d="M2179.53 1110.15 L2201.76 1110.15 L2201.76 1112.15 L2189.21 1144.71 L2184.33 1144.71 L2196.13 1114.09 L2179.53 1114.09 L2179.53 1110.15 Z" fill="#000000" fill-rule="evenodd" fill-opacity="1" /><polyline clip-path="url(#clip420)" style="stroke:#c68125; stroke-linecap:butt; stroke-linejoin:round; stroke-width:4; stroke-opacity:1; fill:none" points="
  1981.09,1179.27 2125.02,1179.27 
  "/>
<path clip-path="url(#clip420)" d="M2162.84 1198.96 Q2161.04 1203.59 2159.33 1205 Q2157.61 1206.42 2154.74 1206.42 L2151.34 1206.42 L2151.34 1202.85 L2153.84 1202.85 Q2155.6 1202.85 2156.57 1202.02 Q2157.54 1201.18 2158.72 1198.08 L2159.49 1196.14 L2149 1170.63 L2153.52 1170.63 L2161.62 1190.91 L2169.72 1170.63 L2174.23 1170.63 L2162.84 1198.96 Z" fill="#000000" fill-rule="evenodd" fill-opacity="1" /><path clip-path="url(#clip420)" d="M2190.72 1180.14 Q2187.38 1180.14 2185.46 1181.92 Q2183.56 1183.71 2183.56 1186.83 Q2183.56 1189.96 2185.46 1191.74 Q2187.38 1193.52 2190.72 1193.52 Q2194.05 1193.52 2195.97 1191.74 Q2197.89 1189.93 2197.89 1186.83 Q2197.89 1183.71 2195.97 1181.92 Q2194.07 1180.14 2190.72 1180.14 M2186.04 1178.15 Q2183.03 1177.41 2181.34 1175.35 Q2179.67 1173.29 2179.67 1170.33 Q2179.67 1166.18 2182.61 1163.78 Q2185.58 1161.37 2190.72 1161.37 Q2195.88 1161.37 2198.82 1163.78 Q2201.76 1166.18 2201.76 1170.33 Q2201.76 1173.29 2200.07 1175.35 Q2198.4 1177.41 2195.41 1178.15 Q2198.79 1178.94 2200.67 1181.23 Q2202.57 1183.52 2202.57 1186.83 Q2202.57 1191.86 2199.49 1194.54 Q2196.43 1197.23 2190.72 1197.23 Q2185 1197.23 2181.92 1194.54 Q2178.86 1191.86 2178.86 1186.83 Q2178.86 1183.52 2180.76 1181.23 Q2182.66 1178.94 2186.04 1178.15 M2184.33 1170.77 Q2184.33 1173.45 2185.99 1174.96 Q2187.68 1176.46 2190.72 1176.46 Q2193.72 1176.46 2195.41 1174.96 Q2197.13 1173.45 2197.13 1170.77 Q2197.13 1168.08 2195.41 1166.58 Q2193.72 1165.07 2190.72 1165.07 Q2187.68 1165.07 2185.99 1166.58 Q2184.33 1168.08 2184.33 1170.77 Z" fill="#000000" fill-rule="evenodd" fill-opacity="1" /><polyline clip-path="url(#clip420)" style="stroke:#00a98d; stroke-linecap:butt; stroke-linejoin:round; stroke-width:4; stroke-opacity:1; fill:none" points="
  1981.09,1231.11 2125.02,1231.11 
  "/>
<path clip-path="url(#clip420)" d="M2162.84 1250.8 Q2161.04 1255.43 2159.33 1256.84 Q2157.61 1258.26 2154.74 1258.26 L2151.34 1258.26 L2151.34 1254.69 L2153.84 1254.69 Q2155.6 1254.69 2156.57 1253.86 Q2157.54 1253.02 2158.72 1249.92 L2159.49 1247.98 L2149 1222.47 L2153.52 1222.47 L2161.62 1242.75 L2169.72 1222.47 L2174.23 1222.47 L2162.84 1250.8 Z" fill="#000000" fill-rule="evenodd" fill-opacity="1" /><path clip-path="url(#clip420)" d="M2180.85 1247.68 L2180.85 1243.42 Q2182.61 1244.25 2184.42 1244.69 Q2186.22 1245.13 2187.96 1245.13 Q2192.59 1245.13 2195.02 1242.03 Q2197.47 1238.9 2197.82 1232.56 Q2196.48 1234.55 2194.42 1235.62 Q2192.36 1236.68 2189.86 1236.68 Q2184.67 1236.68 2181.64 1233.56 Q2178.63 1230.41 2178.63 1224.97 Q2178.63 1219.64 2181.78 1216.43 Q2184.93 1213.21 2190.16 1213.21 Q2196.15 1213.21 2199.3 1217.82 Q2202.47 1222.4 2202.47 1231.15 Q2202.47 1239.32 2198.59 1244.2 Q2194.72 1249.07 2188.17 1249.07 Q2186.41 1249.07 2184.6 1248.72 Q2182.8 1248.37 2180.85 1247.68 M2190.16 1233.02 Q2193.31 1233.02 2195.14 1230.87 Q2196.99 1228.72 2196.99 1224.97 Q2196.99 1221.24 2195.14 1219.09 Q2193.31 1216.91 2190.16 1216.91 Q2187.01 1216.91 2185.16 1219.09 Q2183.33 1221.24 2183.33 1224.97 Q2183.33 1228.72 2185.16 1230.87 Q2187.01 1233.02 2190.16 1233.02 Z" fill="#000000" fill-rule="evenodd" fill-opacity="1" /><polyline clip-path="url(#clip420)" style="stroke:#8e971d; stroke-linecap:butt; stroke-linejoin:round; stroke-width:4; stroke-opacity:1; fill:none" points="
  1981.09,1282.95 2125.02,1282.95 
  "/>
<path clip-path="url(#clip420)" d="M2162.84 1302.64 Q2161.04 1307.27 2159.33 1308.68 Q2157.61 1310.1 2154.74 1310.1 L2151.34 1310.1 L2151.34 1306.53 L2153.84 1306.53 Q2155.6 1306.53 2156.57 1305.7 Q2157.54 1304.86 2158.72 1301.76 L2159.49 1299.82 L2149 1274.31 L2153.52 1274.31 L2161.62 1294.59 L2169.72 1274.31 L2174.23 1274.31 L2162.84 1302.64 Z" fill="#000000" fill-rule="evenodd" fill-opacity="1" /><path clip-path="url(#clip420)" d="M2181.53 1296.3 L2189.16 1296.3 L2189.16 1269.93 L2180.85 1271.6 L2180.85 1267.34 L2189.12 1265.67 L2193.79 1265.67 L2193.79 1296.3 L2201.43 1296.3 L2201.43 1300.23 L2181.53 1300.23 L2181.53 1296.3 Z" fill="#000000" fill-rule="evenodd" fill-opacity="1" /><path clip-path="url(#clip420)" d="M2220.88 1268.75 Q2217.27 1268.75 2215.44 1272.32 Q2213.63 1275.86 2213.63 1282.99 Q2213.63 1290.1 2215.44 1293.66 Q2217.27 1297.2 2220.88 1297.2 Q2224.51 1297.2 2226.32 1293.66 Q2228.15 1290.1 2228.15 1282.99 Q2228.15 1275.86 2226.32 1272.32 Q2224.51 1268.75 2220.88 1268.75 M2220.88 1265.05 Q2226.69 1265.05 2229.74 1269.66 Q2232.82 1274.24 2232.82 1282.99 Q2232.82 1291.72 2229.74 1296.32 Q2226.69 1300.91 2220.88 1300.91 Q2215.07 1300.91 2211.99 1296.32 Q2208.93 1291.72 2208.93 1282.99 Q2208.93 1274.24 2211.99 1269.66 Q2215.07 1265.05 2220.88 1265.05 Z" fill="#000000" fill-rule="evenodd" fill-opacity="1" /><polyline clip-path="url(#clip420)" style="stroke:#00a8cb; stroke-linecap:butt; stroke-linejoin:round; stroke-width:4; stroke-opacity:1; fill:none" points="
  1981.09,1334.79 2125.02,1334.79 
  "/>
<path clip-path="url(#clip420)" d="M2162.84 1354.48 Q2161.04 1359.11 2159.33 1360.52 Q2157.61 1361.94 2154.74 1361.94 L2151.34 1361.94 L2151.34 1358.37 L2153.84 1358.37 Q2155.6 1358.37 2156.57 1357.54 Q2157.54 1356.7 2158.72 1353.6 L2159.49 1351.66 L2149 1326.15 L2153.52 1326.15 L2161.62 1346.43 L2169.72 1326.15 L2174.23 1326.15 L2162.84 1354.48 Z" fill="#000000" fill-rule="evenodd" fill-opacity="1" /><path clip-path="url(#clip420)" d="M2181.53 1348.14 L2189.16 1348.14 L2189.16 1321.77 L2180.85 1323.44 L2180.85 1319.18 L2189.12 1317.51 L2193.79 1317.51 L2193.79 1348.14 L2201.43 1348.14 L2201.43 1352.07 L2181.53 1352.07 L2181.53 1348.14 Z" fill="#000000" fill-rule="evenodd" fill-opacity="1" /><path clip-path="url(#clip420)" d="M2211.69 1348.14 L2219.33 1348.14 L2219.33 1321.77 L2211.02 1323.44 L2211.02 1319.18 L2219.28 1317.51 L2223.96 1317.51 L2223.96 1348.14 L2231.59 1348.14 L2231.59 1352.07 L2211.69 1352.07 L2211.69 1348.14 Z" fill="#000000" fill-rule="evenodd" fill-opacity="1" /><polyline clip-path="url(#clip420)" style="stroke:#9b7fe8; stroke-linecap:butt; stroke-linejoin:round; stroke-width:4; stroke-opacity:1; fill:none" points="
  1981.09,1386.63 2125.02,1386.63 
  "/>
<path clip-path="url(#clip420)" d="M2162.84 1406.32 Q2161.04 1410.95 2159.33 1412.36 Q2157.61 1413.78 2154.74 1413.78 L2151.34 1413.78 L2151.34 1410.21 L2153.84 1410.21 Q2155.6 1410.21 2156.57 1409.38 Q2157.54 1408.54 2158.72 1405.44 L2159.49 1403.5 L2149 1377.99 L2153.52 1377.99 L2161.62 1398.27 L2169.72 1377.99 L2174.23 1377.99 L2162.84 1406.32 Z" fill="#000000" fill-rule="evenodd" fill-opacity="1" /><path clip-path="url(#clip420)" d="M2181.53 1399.98 L2189.16 1399.98 L2189.16 1373.61 L2180.85 1375.28 L2180.85 1371.02 L2189.12 1369.35 L2193.79 1369.35 L2193.79 1399.98 L2201.43 1399.98 L2201.43 1403.91 L2181.53 1403.91 L2181.53 1399.98 Z" fill="#000000" fill-rule="evenodd" fill-opacity="1" /><path clip-path="url(#clip420)" d="M2214.9 1399.98 L2231.22 1399.98 L2231.22 1403.91 L2209.28 1403.91 L2209.28 1399.98 Q2211.94 1397.22 2216.53 1392.6 Q2221.13 1387.94 2222.31 1386.6 Q2224.56 1384.08 2225.44 1382.34 Q2226.34 1380.58 2226.34 1378.89 Q2226.34 1376.14 2224.4 1374.4 Q2222.47 1372.66 2219.37 1372.66 Q2217.17 1372.66 2214.72 1373.43 Q2212.29 1374.19 2209.51 1375.74 L2209.51 1371.02 Q2212.34 1369.89 2214.79 1369.31 Q2217.24 1368.73 2219.28 1368.73 Q2224.65 1368.73 2227.84 1371.41 Q2231.04 1374.1 2231.04 1378.59 Q2231.04 1380.72 2230.23 1382.64 Q2229.44 1384.54 2227.34 1387.13 Q2226.76 1387.8 2223.65 1391.02 Q2220.55 1394.22 2214.9 1399.98 Z" fill="#000000" fill-rule="evenodd" fill-opacity="1" /></svg>
