<?xml version="1.0" encoding="utf-8"?>
<svg xmlns="http://www.w3.org/2000/svg" xmlns:xlink="http://www.w3.org/1999/xlink" width="600" height="400" viewBox="0 0 2400 1600">
<defs>
  <clipPath id="clip170">
    <rect x="0" y="0" width="2400" height="1600"/>
  </clipPath>
</defs>
<path clip-path="url(#clip170)" d="
M0 1600 L2400 1600 L2400 0 L0 0  Z
  " fill="#ffffff" fill-rule="evenodd" fill-opacity="1"/>
<defs>
  <clipPath id="clip171">
    <rect x="480" y="0" width="1681" height="1600"/>
  </clipPath>
</defs>
<path clip-path="url(#clip170)" d="
M186.274 1486.45 L2352.76 1486.45 L2352.76 47.2441 L186.274 47.2441  Z
  " fill="#ffffff" fill-rule="evenodd" fill-opacity="1"/>
<defs>
  <clipPath id="clip172">
    <rect x="186" y="47" width="2167" height="1440"/>
  </clipPath>
</defs>
<polyline clip-path="url(#clip172)" style="stroke:#000000; stroke-linecap:butt; stroke-linejoin:round; stroke-width:2; stroke-opacity:0.1; fill:none" points="
  186.274,1486.45 186.274,47.2441 
  "/>
<polyline clip-path="url(#clip172)" style="stroke:#000000; stroke-linecap:butt; stroke-linejoin:round; stroke-width:2; stroke-opacity:0.1; fill:none" points="
  619.57,1486.45 619.57,47.2441 
  "/>
<polyline clip-path="url(#clip172)" style="stroke:#000000; stroke-linecap:butt; stroke-linejoin:round; stroke-width:2; stroke-opacity:0.1; fill:none" points="
  1052.87,1486.45 1052.87,47.2441 
  "/>
<polyline clip-path="url(#clip172)" style="stroke:#000000; stroke-linecap:butt; stroke-linejoin:round; stroke-width:2; stroke-opacity:0.1; fill:none" points="
  1486.16,1486.45 1486.16,47.2441 
  "/>
<polyline clip-path="url(#clip172)" style="stroke:#000000; stroke-linecap:butt; stroke-linejoin:round; stroke-width:2; stroke-opacity:0.1; fill:none" points="
  1919.46,1486.45 1919.46,47.2441 
  "/>
<polyline clip-path="url(#clip172)" style="stroke:#000000; stroke-linecap:butt; stroke-linejoin:round; stroke-width:2; stroke-opacity:0.1; fill:none" points="
  2352.76,1486.45 2352.76,47.2441 
  "/>
<polyline clip-path="url(#clip170)" style="stroke:#000000; stroke-linecap:butt; stroke-linejoin:round; stroke-width:4; stroke-opacity:1; fill:none" points="
  186.274,1486.45 2352.76,1486.45 
  "/>
<polyline clip-path="url(#clip170)" style="stroke:#000000; stroke-linecap:butt; stroke-linejoin:round; stroke-width:4; stroke-opacity:1; fill:none" points="
  186.274,1486.45 186.274,1467.55 
  "/>
<polyline clip-path="url(#clip170)" style="stroke:#000000; stroke-linecap:butt; stroke-linejoin:round; stroke-width:4; stroke-opacity:1; fill:none" points="
  619.57,1486.45 619.57,1467.55 
  "/>
<polyline clip-path="url(#clip170)" style="stroke:#000000; stroke-linecap:butt; stroke-linejoin:round; stroke-width:4; stroke-opacity:1; fill:none" points="
  1052.87,1486.45 1052.87,1467.55 
  "/>
<polyline clip-path="url(#clip170)" style="stroke:#000000; stroke-linecap:butt; stroke-linejoin:round; stroke-width:4; stroke-opacity:1; fill:none" points="
  1486.16,1486.45 1486.16,1467.55 
  "/>
<polyline clip-path="url(#clip170)" style="stroke:#000000; stroke-linecap:butt; stroke-linejoin:round; stroke-width:4; stroke-opacity:1; fill:none" points="
  1919.46,1486.45 1919.46,1467.55 
  "/>
<polyline clip-path="url(#clip170)" style="stroke:#000000; stroke-linecap:butt; stroke-linejoin:round; stroke-width:4; stroke-opacity:1; fill:none" points="
  2352.76,1486.45 2352.76,1467.55 
  "/>
<path clip-path="url(#clip170)" d="M132.802 1530.29 L162.478 1530.29 L162.478 1534.23 L132.802 1534.23 L132.802 1530.29 Z" fill="#000000" fill-rule="evenodd" fill-opacity="1" /><path clip-path="url(#clip170)" d="M173.381 1543.18 L181.019 1543.18 L181.019 1516.82 L172.709 1518.49 L172.709 1514.23 L180.973 1512.56 L185.649 1512.56 L185.649 1543.18 L193.288 1543.18 L193.288 1547.12 L173.381 1547.12 L173.381 1543.18 Z" fill="#000000" fill-rule="evenodd" fill-opacity="1" /><path clip-path="url(#clip170)" d="M202.732 1541.24 L207.616 1541.24 L207.616 1547.12 L202.732 1547.12 L202.732 1541.24 Z" fill="#000000" fill-rule="evenodd" fill-opacity="1" /><path clip-path="url(#clip170)" d="M227.802 1515.64 Q224.19 1515.64 222.362 1519.2 Q220.556 1522.75 220.556 1529.87 Q220.556 1536.98 222.362 1540.55 Q224.19 1544.09 227.802 1544.09 Q231.436 1544.09 233.241 1540.55 Q235.07 1536.98 235.07 1529.87 Q235.07 1522.75 233.241 1519.2 Q231.436 1515.64 227.802 1515.64 M227.802 1511.93 Q233.612 1511.93 236.667 1516.54 Q239.746 1521.12 239.746 1529.87 Q239.746 1538.6 236.667 1543.21 Q233.612 1547.79 227.802 1547.79 Q221.991 1547.79 218.913 1543.21 Q215.857 1538.6 215.857 1529.87 Q215.857 1521.12 218.913 1516.54 Q221.991 1511.93 227.802 1511.93 Z" fill="#000000" fill-rule="evenodd" fill-opacity="1" /><path clip-path="url(#clip170)" d="M566.191 1530.29 L595.867 1530.29 L595.867 1534.23 L566.191 1534.23 L566.191 1530.29 Z" fill="#000000" fill-rule="evenodd" fill-opacity="1" /><path clip-path="url(#clip170)" d="M615.959 1515.64 Q612.348 1515.64 610.52 1519.2 Q608.714 1522.75 608.714 1529.87 Q608.714 1536.98 610.52 1540.55 Q612.348 1544.09 615.959 1544.09 Q619.594 1544.09 621.399 1540.55 Q623.228 1536.98 623.228 1529.87 Q623.228 1522.75 621.399 1519.2 Q619.594 1515.64 615.959 1515.64 M615.959 1511.93 Q621.769 1511.93 624.825 1516.54 Q627.904 1521.12 627.904 1529.87 Q627.904 1538.6 624.825 1543.21 Q621.769 1547.79 615.959 1547.79 Q610.149 1547.79 607.07 1543.21 Q604.015 1538.6 604.015 1529.87 Q604.015 1521.12 607.07 1516.54 Q610.149 1511.93 615.959 1511.93 Z" fill="#000000" fill-rule="evenodd" fill-opacity="1" /><path clip-path="url(#clip170)" d="M636.121 1541.24 L641.005 1541.24 L641.005 1547.12 L636.121 1547.12 L636.121 1541.24 Z" fill="#000000" fill-rule="evenodd" fill-opacity="1" /><path clip-path="url(#clip170)" d="M651.329 1546.4 L651.329 1542.14 Q653.089 1542.98 654.894 1543.42 Q656.7 1543.86 658.436 1543.86 Q663.066 1543.86 665.496 1540.75 Q667.95 1537.63 668.297 1531.29 Q666.954 1533.28 664.894 1534.34 Q662.834 1535.41 660.334 1535.41 Q655.149 1535.41 652.117 1532.28 Q649.107 1529.13 649.107 1523.69 Q649.107 1518.37 652.255 1515.15 Q655.404 1511.93 660.635 1511.93 Q666.63 1511.93 669.778 1516.54 Q672.95 1521.12 672.95 1529.87 Q672.95 1538.05 669.061 1542.93 Q665.195 1547.79 658.644 1547.79 Q656.885 1547.79 655.079 1547.44 Q653.274 1547.1 651.329 1546.4 M660.635 1531.75 Q663.783 1531.75 665.612 1529.6 Q667.464 1527.44 667.464 1523.69 Q667.464 1519.97 665.612 1517.81 Q663.783 1515.64 660.635 1515.64 Q657.487 1515.64 655.635 1517.81 Q653.806 1519.97 653.806 1523.69 Q653.806 1527.44 655.635 1529.6 Q657.487 1531.75 660.635 1531.75 Z" fill="#000000" fill-rule="evenodd" fill-opacity="1" /><path clip-path="url(#clip170)" d="M999.441 1530.29 L1029.12 1530.29 L1029.12 1534.23 L999.441 1534.23 L999.441 1530.29 Z" fill="#000000" fill-rule="evenodd" fill-opacity="1" /><path clip-path="url(#clip170)" d="M1049.21 1515.64 Q1045.6 1515.64 1043.77 1519.2 Q1041.96 1522.75 1041.96 1529.87 Q1041.96 1536.98 1043.77 1540.55 Q1045.6 1544.09 1049.21 1544.09 Q1052.84 1544.09 1054.65 1540.55 Q1056.48 1536.98 1056.48 1529.87 Q1056.48 1522.75 1054.65 1519.2 Q1052.84 1515.64 1049.21 1515.64 M1049.21 1511.93 Q1055.02 1511.93 1058.08 1516.54 Q1061.15 1521.12 1061.15 1529.87 Q1061.15 1538.6 1058.08 1543.21 Q1055.02 1547.79 1049.21 1547.79 Q1043.4 1547.79 1040.32 1543.21 Q1037.26 1538.6 1037.26 1529.87 Q1037.26 1521.12 1040.32 1516.54 Q1043.4 1511.93 1049.21 1511.93 Z" fill="#000000" fill-rule="evenodd" fill-opacity="1" /><path clip-path="url(#clip170)" d="M1069.37 1541.24 L1074.26 1541.24 L1074.26 1547.12 L1069.37 1547.12 L1069.37 1541.24 Z" fill="#000000" fill-rule="evenodd" fill-opacity="1" /><path clip-path="url(#clip170)" d="M1094.44 1530.71 Q1091.11 1530.71 1089.19 1532.49 Q1087.29 1534.27 1087.29 1537.4 Q1087.29 1540.52 1089.19 1542.31 Q1091.11 1544.09 1094.44 1544.09 Q1097.77 1544.09 1099.7 1542.31 Q1101.62 1540.5 1101.62 1537.4 Q1101.62 1534.27 1099.7 1532.49 Q1097.8 1530.71 1094.44 1530.71 M1089.76 1528.72 Q1086.76 1527.98 1085.07 1525.92 Q1083.4 1523.86 1083.4 1520.89 Q1083.4 1516.75 1086.34 1514.34 Q1089.3 1511.93 1094.44 1511.93 Q1099.6 1511.93 1102.54 1514.34 Q1105.48 1516.75 1105.48 1520.89 Q1105.48 1523.86 1103.79 1525.92 Q1102.13 1527.98 1099.14 1528.72 Q1102.52 1529.5 1104.39 1531.8 Q1106.29 1534.09 1106.29 1537.4 Q1106.29 1542.42 1103.21 1545.11 Q1100.16 1547.79 1094.44 1547.79 Q1088.72 1547.79 1085.64 1545.11 Q1082.59 1542.42 1082.59 1537.4 Q1082.59 1534.09 1084.49 1531.8 Q1086.39 1529.5 1089.76 1528.72 M1088.05 1521.33 Q1088.05 1524.02 1089.72 1525.52 Q1091.41 1527.03 1094.44 1527.03 Q1097.45 1527.03 1099.14 1525.52 Q1100.85 1524.02 1100.85 1521.33 Q1100.85 1518.65 1099.14 1517.14 Q1097.45 1515.64 1094.44 1515.64 Q1091.41 1515.64 1089.72 1517.14 Q1088.05 1518.65 1088.05 1521.33 Z" fill="#000000" fill-rule="evenodd" fill-opacity="1" /><path clip-path="url(#clip170)" d="M1433.14 1530.29 L1462.82 1530.29 L1462.82 1534.23 L1433.14 1534.23 L1433.14 1530.29 Z" fill="#000000" fill-rule="evenodd" fill-opacity="1" /><path clip-path="url(#clip170)" d="M1482.91 1515.64 Q1479.3 1515.64 1477.47 1519.2 Q1475.67 1522.75 1475.67 1529.87 Q1475.67 1536.98 1477.47 1540.55 Q1479.3 1544.09 1482.91 1544.09 Q1486.55 1544.09 1488.35 1540.55 Q1490.18 1536.98 1490.18 1529.87 Q1490.18 1522.75 1488.35 1519.2 Q1486.55 1515.64 1482.91 1515.64 M1482.91 1511.93 Q1488.72 1511.93 1491.78 1516.54 Q1494.86 1521.12 1494.86 1529.87 Q1494.86 1538.6 1491.78 1543.21 Q1488.72 1547.79 1482.91 1547.79 Q1477.1 1547.79 1474.02 1543.21 Q1470.97 1538.6 1470.97 1529.87 Q1470.97 1521.12 1474.02 1516.54 Q1477.1 1511.93 1482.91 1511.93 Z" fill="#000000" fill-rule="evenodd" fill-opacity="1" /><path clip-path="url(#clip170)" d="M1503.07 1541.24 L1507.96 1541.24 L1507.96 1547.12 L1503.07 1547.12 L1503.07 1541.24 Z" fill="#000000" fill-rule="evenodd" fill-opacity="1" /><path clip-path="url(#clip170)" d="M1516.96 1512.56 L1539.18 1512.56 L1539.18 1514.55 L1526.64 1547.12 L1521.75 1547.12 L1533.56 1516.5 L1516.96 1516.5 L1516.96 1512.56 Z" fill="#000000" fill-rule="evenodd" fill-opacity="1" /><path clip-path="url(#clip170)" d="M1865.91 1530.29 L1895.58 1530.29 L1895.58 1534.23 L1865.91 1534.23 L1865.91 1530.29 Z" fill="#000000" fill-rule="evenodd" fill-opacity="1" /><path clip-path="url(#clip170)" d="M1915.67 1515.64 Q1912.06 1515.64 1910.24 1519.2 Q1908.43 1522.75 1908.43 1529.87 Q1908.43 1536.98 1910.24 1540.55 Q1912.06 1544.09 1915.67 1544.09 Q1919.31 1544.09 1921.11 1540.55 Q1922.94 1536.98 1922.94 1529.87 Q1922.94 1522.75 1921.11 1519.2 Q1919.31 1515.64 1915.67 1515.64 M1915.67 1511.93 Q1921.48 1511.93 1924.54 1516.54 Q1927.62 1521.12 1927.62 1529.87 Q1927.62 1538.6 1924.54 1543.21 Q1921.48 1547.79 1915.67 1547.79 Q1909.86 1547.79 1906.79 1543.21 Q1903.73 1538.6 1903.73 1529.87 Q1903.73 1521.12 1906.79 1516.54 Q1909.86 1511.93 1915.67 1511.93 Z" fill="#000000" fill-rule="evenodd" fill-opacity="1" /><path clip-path="url(#clip170)" d="M1935.84 1541.24 L1940.72 1541.24 L1940.72 1547.12 L1935.84 1547.12 L1935.84 1541.24 Z" fill="#000000" fill-rule="evenodd" fill-opacity="1" /><path clip-path="url(#clip170)" d="M1961.48 1527.98 Q1958.34 1527.98 1956.48 1530.13 Q1954.66 1532.28 1954.66 1536.03 Q1954.66 1539.76 1956.48 1541.93 Q1958.34 1544.09 1961.48 1544.09 Q1964.63 1544.09 1966.46 1541.93 Q1968.31 1539.76 1968.31 1536.03 Q1968.31 1532.28 1966.46 1530.13 Q1964.63 1527.98 1961.48 1527.98 M1970.77 1513.32 L1970.77 1517.58 Q1969.01 1516.75 1967.2 1516.31 Q1965.42 1515.87 1963.66 1515.87 Q1959.03 1515.87 1956.58 1519 Q1954.15 1522.12 1953.8 1528.44 Q1955.17 1526.43 1957.23 1525.36 Q1959.29 1524.27 1961.76 1524.27 Q1966.97 1524.27 1969.98 1527.44 Q1973.01 1530.59 1973.01 1536.03 Q1973.01 1541.36 1969.86 1544.57 Q1966.72 1547.79 1961.48 1547.79 Q1955.49 1547.79 1952.32 1543.21 Q1949.15 1538.6 1949.15 1529.87 Q1949.15 1521.68 1953.04 1516.82 Q1956.92 1511.93 1963.48 1511.93 Q1965.23 1511.93 1967.02 1512.28 Q1968.82 1512.63 1970.77 1513.32 Z" fill="#000000" fill-rule="evenodd" fill-opacity="1" /><path clip-path="url(#clip170)" d="M2299.78 1530.29 L2329.46 1530.29 L2329.46 1534.23 L2299.78 1534.23 L2299.78 1530.29 Z" fill="#000000" fill-rule="evenodd" fill-opacity="1" /><path clip-path="url(#clip170)" d="M2349.55 1515.64 Q2345.94 1515.64 2344.11 1519.2 Q2342.3 1522.75 2342.3 1529.87 Q2342.3 1536.98 2344.11 1540.55 Q2345.94 1544.09 2349.55 1544.09 Q2353.18 1544.09 2354.99 1540.55 Q2356.82 1536.98 2356.82 1529.87 Q2356.82 1522.75 2354.99 1519.2 Q2353.18 1515.64 2349.55 1515.64 M2349.55 1511.93 Q2355.36 1511.93 2358.42 1516.54 Q2361.49 1521.12 2361.49 1529.87 Q2361.49 1538.6 2358.42 1543.21 Q2355.36 1547.79 2349.55 1547.79 Q2343.74 1547.79 2340.66 1543.21 Q2337.61 1538.6 2337.61 1529.87 Q2337.61 1521.12 2340.66 1516.54 Q2343.74 1511.93 2349.55 1511.93 Z" fill="#000000" fill-rule="evenodd" fill-opacity="1" /><path clip-path="url(#clip170)" d="M2369.71 1541.24 L2374.6 1541.24 L2374.6 1547.12 L2369.71 1547.12 L2369.71 1541.24 Z" fill="#000000" fill-rule="evenodd" fill-opacity="1" /><path clip-path="url(#clip170)" d="M2384.83 1512.56 L2403.18 1512.56 L2403.18 1516.5 L2389.11 1516.5 L2389.11 1524.97 Q2390.13 1524.62 2391.15 1524.46 Q2392.17 1524.27 2393.18 1524.27 Q2398.97 1524.27 2402.35 1527.44 Q2405.73 1530.62 2405.73 1536.03 Q2405.73 1541.61 2402.26 1544.71 Q2398.79 1547.79 2392.47 1547.79 Q2390.29 1547.79 2388.02 1547.42 Q2385.78 1547.05 2383.37 1546.31 L2383.37 1541.61 Q2385.45 1542.74 2387.67 1543.3 Q2389.9 1543.86 2392.37 1543.86 Q2396.38 1543.86 2398.72 1541.75 Q2401.05 1539.64 2401.05 1536.03 Q2401.05 1532.42 2398.72 1530.31 Q2396.38 1528.21 2392.37 1528.21 Q2390.5 1528.21 2388.62 1528.62 Q2386.77 1529.04 2384.83 1529.92 L2384.83 1512.56 Z" fill="#000000" fill-rule="evenodd" fill-opacity="1" /><polyline clip-path="url(#clip172)" style="stroke:#000000; stroke-linecap:butt; stroke-linejoin:round; stroke-width:2; stroke-opacity:0.1; fill:none" points="
  186.274,1445.72 2352.76,1445.72 
  "/>
<polyline clip-path="url(#clip172)" style="stroke:#000000; stroke-linecap:butt; stroke-linejoin:round; stroke-width:2; stroke-opacity:0.1; fill:none" points="
  186.274,1106.28 2352.76,1106.28 
  "/>
<polyline clip-path="url(#clip172)" style="stroke:#000000; stroke-linecap:butt; stroke-linejoin:round; stroke-width:2; stroke-opacity:0.1; fill:none" points="
  186.274,766.846 2352.76,766.846 
  "/>
<polyline clip-path="url(#clip172)" style="stroke:#000000; stroke-linecap:butt; stroke-linejoin:round; stroke-width:2; stroke-opacity:0.1; fill:none" points="
  186.274,427.411 2352.76,427.411 
  "/>
<polyline clip-path="url(#clip172)" style="stroke:#000000; stroke-linecap:butt; stroke-linejoin:round; stroke-width:2; stroke-opacity:0.1; fill:none" points="
  186.274,87.9763 2352.76,87.9763 
  "/>
<polyline clip-path="url(#clip170)" style="stroke:#000000; stroke-linecap:butt; stroke-linejoin:round; stroke-width:4; stroke-opacity:1; fill:none" points="
  186.274,1486.45 186.274,47.2441 
  "/>
<polyline clip-path="url(#clip170)" style="stroke:#000000; stroke-linecap:butt; stroke-linejoin:round; stroke-width:4; stroke-opacity:1; fill:none" points="
  186.274,1445.72 205.172,1445.72 
  "/>
<polyline clip-path="url(#clip170)" style="stroke:#000000; stroke-linecap:butt; stroke-linejoin:round; stroke-width:4; stroke-opacity:1; fill:none" points="
  186.274,1106.28 205.172,1106.28 
  "/>
<polyline clip-path="url(#clip170)" style="stroke:#000000; stroke-linecap:butt; stroke-linejoin:round; stroke-width:4; stroke-opacity:1; fill:none" points="
  186.274,766.846 205.172,766.846 
  "/>
<polyline clip-path="url(#clip170)" style="stroke:#000000; stroke-linecap:butt; stroke-linejoin:round; stroke-width:4; stroke-opacity:1; fill:none" points="
  186.274,427.411 205.172,427.411 
  "/>
<polyline clip-path="url(#clip170)" style="stroke:#000000; stroke-linecap:butt; stroke-linejoin:round; stroke-width:4; stroke-opacity:1; fill:none" points="
  186.274,87.9763 205.172,87.9763 
  "/>
<path clip-path="url(#clip170)" d="M62.9365 1431.51 Q59.3254 1431.51 57.4967 1435.08 Q55.6912 1438.62 55.6912 1445.75 Q55.6912 1452.86 57.4967 1456.42 Q59.3254 1459.96 62.9365 1459.96 Q66.5707 1459.96 68.3763 1456.42 Q70.205 1452.86 70.205 1445.75 Q70.205 1438.62 68.3763 1435.08 Q66.5707 1431.51 62.9365 1431.51 M62.9365 1427.81 Q68.7467 1427.81 71.8022 1432.42 Q74.8809 1437 74.8809 1445.75 Q74.8809 1454.48 71.8022 1459.08 Q68.7467 1463.67 62.9365 1463.67 Q57.1264 1463.67 54.0477 1459.08 Q50.9921 1454.48 50.9921 1445.75 Q50.9921 1437 54.0477 1432.42 Q57.1264 1427.81 62.9365 1427.81 Z" fill="#000000" fill-rule="evenodd" fill-opacity="1" /><path clip-path="url(#clip170)" d="M83.0984 1457.12 L87.9827 1457.12 L87.9827 1463 L83.0984 1463 L83.0984 1457.12 Z" fill="#000000" fill-rule="evenodd" fill-opacity="1" /><path clip-path="url(#clip170)" d="M108.168 1431.51 Q104.557 1431.51 102.728 1435.08 Q100.922 1438.62 100.922 1445.75 Q100.922 1452.86 102.728 1456.42 Q104.557 1459.96 108.168 1459.96 Q111.802 1459.96 113.608 1456.42 Q115.436 1452.86 115.436 1445.75 Q115.436 1438.62 113.608 1435.08 Q111.802 1431.51 108.168 1431.51 M108.168 1427.81 Q113.978 1427.81 117.033 1432.42 Q120.112 1437 120.112 1445.75 Q120.112 1454.48 117.033 1459.08 Q113.978 1463.67 108.168 1463.67 Q102.358 1463.67 99.2789 1459.08 Q96.2234 1454.48 96.2234 1445.75 Q96.2234 1437 99.2789 1432.42 Q102.358 1427.81 108.168 1427.81 Z" fill="#000000" fill-rule="evenodd" fill-opacity="1" /><path clip-path="url(#clip170)" d="M138.33 1431.51 Q134.719 1431.51 132.89 1435.08 Q131.084 1438.62 131.084 1445.75 Q131.084 1452.86 132.89 1456.42 Q134.719 1459.96 138.33 1459.96 Q141.964 1459.96 143.769 1456.42 Q145.598 1452.86 145.598 1445.75 Q145.598 1438.62 143.769 1435.08 Q141.964 1431.51 138.33 1431.51 M138.33 1427.81 Q144.14 1427.81 147.195 1432.42 Q150.274 1437 150.274 1445.75 Q150.274 1454.48 147.195 1459.08 Q144.14 1463.67 138.33 1463.67 Q132.519 1463.67 129.441 1459.08 Q126.385 1454.48 126.385 1445.75 Q126.385 1437 129.441 1432.42 Q132.519 1427.81 138.33 1427.81 Z" fill="#000000" fill-rule="evenodd" fill-opacity="1" /><path clip-path="url(#clip170)" d="M63.9319 1092.08 Q60.3208 1092.08 58.4921 1095.64 Q56.6865 1099.19 56.6865 1106.32 Q56.6865 1113.42 58.4921 1116.99 Q60.3208 1120.53 63.9319 1120.53 Q67.5661 1120.53 69.3717 1116.99 Q71.2004 1113.42 71.2004 1106.32 Q71.2004 1099.19 69.3717 1095.64 Q67.5661 1092.08 63.9319 1092.08 M63.9319 1088.38 Q69.742 1088.38 72.7976 1092.98 Q75.8763 1097.57 75.8763 1106.32 Q75.8763 1115.04 72.7976 1119.65 Q69.742 1124.23 63.9319 1124.23 Q58.1217 1124.23 55.043 1119.65 Q51.9875 1115.04 51.9875 1106.32 Q51.9875 1097.57 55.043 1092.98 Q58.1217 1088.38 63.9319 1088.38 Z" fill="#000000" fill-rule="evenodd" fill-opacity="1" /><path clip-path="url(#clip170)" d="M84.0938 1117.68 L88.978 1117.68 L88.978 1123.56 L84.0938 1123.56 L84.0938 1117.68 Z" fill="#000000" fill-rule="evenodd" fill-opacity="1" /><path clip-path="url(#clip170)" d="M103.191 1119.63 L119.51 1119.63 L119.51 1123.56 L97.566 1123.56 L97.566 1119.63 Q100.228 1116.87 104.811 1112.24 Q109.418 1107.59 110.598 1106.25 Q112.844 1103.72 113.723 1101.99 Q114.626 1100.23 114.626 1098.54 Q114.626 1095.78 112.682 1094.05 Q110.76 1092.31 107.658 1092.31 Q105.459 1092.31 103.006 1093.07 Q100.575 1093.84 97.7974 1095.39 L97.7974 1090.67 Q100.621 1089.53 103.075 1088.95 Q105.529 1088.38 107.566 1088.38 Q112.936 1088.38 116.131 1091.06 Q119.325 1093.75 119.325 1098.24 Q119.325 1100.37 118.515 1102.29 Q117.728 1104.19 115.621 1106.78 Q115.043 1107.45 111.941 1110.67 Q108.839 1113.86 103.191 1119.63 Z" fill="#000000" fill-rule="evenodd" fill-opacity="1" /><path clip-path="url(#clip170)" d="M129.371 1089 L147.728 1089 L147.728 1092.94 L133.654 1092.94 L133.654 1101.41 Q134.672 1101.06 135.691 1100.9 Q136.709 1100.71 137.728 1100.71 Q143.515 1100.71 146.894 1103.89 Q150.274 1107.06 150.274 1112.47 Q150.274 1118.05 146.802 1121.15 Q143.33 1124.23 137.01 1124.23 Q134.834 1124.23 132.566 1123.86 Q130.32 1123.49 127.913 1122.75 L127.913 1118.05 Q129.996 1119.19 132.219 1119.74 Q134.441 1120.3 136.918 1120.3 Q140.922 1120.3 143.26 1118.19 Q145.598 1116.08 145.598 1112.47 Q145.598 1108.86 143.26 1106.76 Q140.922 1104.65 136.918 1104.65 Q135.043 1104.65 133.168 1105.07 Q131.316 1105.48 129.371 1106.36 L129.371 1089 Z" fill="#000000" fill-rule="evenodd" fill-opacity="1" /><path clip-path="url(#clip170)" d="M62.9365 752.645 Q59.3254 752.645 57.4967 756.209 Q55.6912 759.751 55.6912 766.881 Q55.6912 773.987 57.4967 777.552 Q59.3254 781.094 62.9365 781.094 Q66.5707 781.094 68.3763 777.552 Q70.205 773.987 70.205 766.881 Q70.205 759.751 68.3763 756.209 Q66.5707 752.645 62.9365 752.645 M62.9365 748.941 Q68.7467 748.941 71.8022 753.547 Q74.8809 758.131 74.8809 766.881 Q74.8809 775.608 71.8022 780.214 Q68.7467 784.797 62.9365 784.797 Q57.1264 784.797 54.0477 780.214 Q50.9921 775.608 50.9921 766.881 Q50.9921 758.131 54.0477 753.547 Q57.1264 748.941 62.9365 748.941 Z" fill="#000000" fill-rule="evenodd" fill-opacity="1" /><path clip-path="url(#clip170)" d="M83.0984 778.246 L87.9827 778.246 L87.9827 784.126 L83.0984 784.126 L83.0984 778.246 Z" fill="#000000" fill-rule="evenodd" fill-opacity="1" /><path clip-path="url(#clip170)" d="M98.2141 749.566 L116.57 749.566 L116.57 753.501 L102.496 753.501 L102.496 761.973 Q103.515 761.626 104.534 761.464 Q105.552 761.279 106.571 761.279 Q112.358 761.279 115.737 764.45 Q119.117 767.621 119.117 773.038 Q119.117 778.617 115.645 781.719 Q112.172 784.797 105.853 784.797 Q103.677 784.797 101.409 784.427 Q99.1632 784.057 96.7558 783.316 L96.7558 778.617 Q98.8391 779.751 101.061 780.307 Q103.284 780.862 105.76 780.862 Q109.765 780.862 112.103 778.756 Q114.441 776.649 114.441 773.038 Q114.441 769.427 112.103 767.321 Q109.765 765.214 105.76 765.214 Q103.885 765.214 102.01 765.631 Q100.159 766.047 98.2141 766.927 L98.2141 749.566 Z" fill="#000000" fill-rule="evenodd" fill-opacity="1" /><path clip-path="url(#clip170)" d="M138.33 752.645 Q134.719 752.645 132.89 756.209 Q131.084 759.751 131.084 766.881 Q131.084 773.987 132.89 777.552 Q134.719 781.094 138.33 781.094 Q141.964 781.094 143.769 777.552 Q145.598 773.987 145.598 766.881 Q145.598 759.751 143.769 756.209 Q141.964 752.645 138.33 752.645 M138.33 748.941 Q144.14 748.941 147.195 753.547 Q150.274 758.131 150.274 766.881 Q150.274 775.608 147.195 780.214 Q144.14 784.797 138.33 784.797 Q132.519 784.797 129.441 780.214 Q126.385 775.608 126.385 766.881 Q126.385 758.131 129.441 753.547 Q132.519 748.941 138.33 748.941 Z" fill="#000000" fill-rule="evenodd" fill-opacity="1" /><path clip-path="url(#clip170)" d="M63.9319 413.21 Q60.3208 413.21 58.4921 416.775 Q56.6865 420.316 56.6865 427.446 Q56.6865 434.552 58.4921 438.117 Q60.3208 441.659 63.9319 441.659 Q67.5661 441.659 69.3717 438.117 Q71.2004 434.552 71.2004 427.446 Q71.2004 420.316 69.3717 416.775 Q67.5661 413.21 63.9319 413.21 M63.9319 409.506 Q69.742 409.506 72.7976 414.113 Q75.8763 418.696 75.8763 427.446 Q75.8763 436.173 72.7976 440.779 Q69.742 445.362 63.9319 445.362 Q58.1217 445.362 55.043 440.779 Q51.9875 436.173 51.9875 427.446 Q51.9875 418.696 55.043 414.113 Q58.1217 409.506 63.9319 409.506 Z" fill="#000000" fill-rule="evenodd" fill-opacity="1" /><path clip-path="url(#clip170)" d="M84.0938 438.812 L88.978 438.812 L88.978 444.691 L84.0938 444.691 L84.0938 438.812 Z" fill="#000000" fill-rule="evenodd" fill-opacity="1" /><path clip-path="url(#clip170)" d="M97.9826 410.131 L120.205 410.131 L120.205 412.122 L107.658 444.691 L102.774 444.691 L114.58 414.066 L97.9826 414.066 L97.9826 410.131 Z" fill="#000000" fill-rule="evenodd" fill-opacity="1" /><path clip-path="url(#clip170)" d="M129.371 410.131 L147.728 410.131 L147.728 414.066 L133.654 414.066 L133.654 422.538 Q134.672 422.191 135.691 422.029 Q136.709 421.844 137.728 421.844 Q143.515 421.844 146.894 425.015 Q150.274 428.187 150.274 433.603 Q150.274 439.182 146.802 442.284 Q143.33 445.362 137.01 445.362 Q134.834 445.362 132.566 444.992 Q130.32 444.622 127.913 443.881 L127.913 439.182 Q129.996 440.316 132.219 440.872 Q134.441 441.427 136.918 441.427 Q140.922 441.427 143.26 439.321 Q145.598 437.214 145.598 433.603 Q145.598 429.992 143.26 427.886 Q140.922 425.779 136.918 425.779 Q135.043 425.779 133.168 426.196 Q131.316 426.613 129.371 427.492 L129.371 410.131 Z" fill="#000000" fill-rule="evenodd" fill-opacity="1" /><path clip-path="url(#clip170)" d="M53.7467 101.321 L61.3856 101.321 L61.3856 74.9555 L53.0754 76.6222 L53.0754 72.3629 L61.3393 70.6963 L66.0152 70.6963 L66.0152 101.321 L73.654 101.321 L73.654 105.256 L53.7467 105.256 L53.7467 101.321 Z" fill="#000000" fill-rule="evenodd" fill-opacity="1" /><path clip-path="url(#clip170)" d="M83.0984 99.3767 L87.9827 99.3767 L87.9827 105.256 L83.0984 105.256 L83.0984 99.3767 Z" fill="#000000" fill-rule="evenodd" fill-opacity="1" /><path clip-path="url(#clip170)" d="M108.168 73.775 Q104.557 73.775 102.728 77.3398 Q100.922 80.8814 100.922 88.011 Q100.922 95.1174 102.728 98.6822 Q104.557 102.224 108.168 102.224 Q111.802 102.224 113.608 98.6822 Q115.436 95.1174 115.436 88.011 Q115.436 80.8814 113.608 77.3398 Q111.802 73.775 108.168 73.775 M108.168 70.0713 Q113.978 70.0713 117.033 74.6777 Q120.112 79.261 120.112 88.011 Q120.112 96.7378 117.033 101.344 Q113.978 105.928 108.168 105.928 Q102.358 105.928 99.2789 101.344 Q96.2234 96.7378 96.2234 88.011 Q96.2234 79.261 99.2789 74.6777 Q102.358 70.0713 108.168 70.0713 Z" fill="#000000" fill-rule="evenodd" fill-opacity="1" /><path clip-path="url(#clip170)" d="M138.33 73.775 Q134.719 73.775 132.89 77.3398 Q131.084 80.8814 131.084 88.011 Q131.084 95.1174 132.89 98.6822 Q134.719 102.224 138.33 102.224 Q141.964 102.224 143.769 98.6822 Q145.598 95.1174 145.598 88.011 Q145.598 80.8814 143.769 77.3398 Q141.964 73.775 138.33 73.775 M138.33 70.0713 Q144.14 70.0713 147.195 74.6777 Q150.274 79.261 150.274 88.011 Q150.274 96.7378 147.195 101.344 Q144.14 105.928 138.33 105.928 Q132.519 105.928 129.441 101.344 Q126.385 96.7378 126.385 88.011 Q126.385 79.261 129.441 74.6777 Q132.519 70.0713 138.33 70.0713 Z" fill="#000000" fill-rule="evenodd" fill-opacity="1" /><polyline clip-path="url(#clip172)" style="stroke:#009af9; stroke-linecap:butt; stroke-linejoin:round; stroke-width:16; stroke-opacity:1; fill:none" points="
  272.075,1445.72 357.877,1445.72 443.678,1445.72 529.479,1445.72 615.28,1445.72 701.082,1445.72 786.883,1445.72 872.684,1445.72 958.485,766.846 1044.29,87.9763 
  1130.09,766.846 1215.89,1445.72 1301.69,1445.72 1387.49,1445.72 1473.29,1445.72 1559.09,1445.72 1644.9,1445.72 1730.7,1445.72 1816.5,1445.72 1902.3,1445.72 
  1988.1,1445.72 2073.9,1445.72 2159.7,1445.72 2245.5,1445.72 2331.31,1445.72 2417.11,1445.72 2502.91,1445.72 2588.71,1445.72 2674.51,1445.72 2760.31,1445.72 
  2846.11,1445.72 2931.91,1445.72 3017.72,1445.72 3103.52,1445.72 3189.32,1445.72 3275.12,1445.72 3360.92,1445.72 3446.72,1445.72 3532.52,1445.72 3618.32,1445.72 
  3704.13,1445.72 3789.93,1445.72 3875.73,1445.72 3961.53,1445.72 4047.33,1445.72 4133.13,1445.72 4218.93,1445.72 4304.73,1445.72 4390.54,1445.72 4476.34,1445.72 
  4562.14,1445.72 4647.94,1445.72 4733.74,1445.72 4819.54,1445.72 4905.34,1445.72 4991.14,1445.72 5076.95,1445.72 5162.75,1445.72 5248.55,1445.72 5334.35,1445.72 
  5420.15,1445.72 5505.95,1445.72 5591.75,1445.72 5677.55,1445.72 5763.36,1445.72 5849.16,1445.72 5934.96,1445.72 6020.76,1445.72 6106.56,1445.72 6192.36,1445.72 
  6278.16,1445.72 6363.96,1445.72 6449.77,1445.72 6535.57,1445.72 6621.37,1445.72 6707.17,1445.72 6792.97,1445.72 6878.77,1445.72 6964.57,1445.72 7050.38,1445.72 
  7136.18,1445.72 7221.98,1445.72 7307.78,1445.72 7393.58,1445.72 7479.38,1445.72 7565.18,1445.72 7650.98,1445.72 7736.79,1445.72 7822.59,1445.72 7908.39,1445.72 
  7994.19,1445.72 8079.99,1445.72 8165.79,1445.72 8251.59,1445.72 8337.39,1445.72 8423.2,1445.72 8509,1445.72 8594.8,1445.72 8680.6,1445.72 8766.4,1445.72 
  
  "/>
<circle clip-path="url(#clip172)" cx="272.075" cy="1445.72" r="14" fill="#009af9" fill-rule="evenodd" fill-opacity="1" stroke="#000000" stroke-opacity="1" stroke-width="3.2"/>
<circle clip-path="url(#clip172)" cx="357.877" cy="1445.72" r="14" fill="#009af9" fill-rule="evenodd" fill-opacity="1" stroke="#000000" stroke-opacity="1" stroke-width="3.2"/>
<circle clip-path="url(#clip172)" cx="443.678" cy="1445.72" r="14" fill="#009af9" fill-rule="evenodd" fill-opacity="1" stroke="#000000" stroke-opacity="1" stroke-width="3.2"/>
<circle clip-path="url(#clip172)" cx="529.479" cy="1445.72" r="14" fill="#009af9" fill-rule="evenodd" fill-opacity="1" stroke="#000000" stroke-opacity="1" stroke-width="3.2"/>
<circle clip-path="url(#clip172)" cx="615.28" cy="1445.72" r="14" fill="#009af9" fill-rule="evenodd" fill-opacity="1" stroke="#000000" stroke-opacity="1" stroke-width="3.2"/>
<circle clip-path="url(#clip172)" cx="701.082" cy="1445.72" r="14" fill="#009af9" fill-rule="evenodd" fill-opacity="1" stroke="#000000" stroke-opacity="1" stroke-width="3.2"/>
<circle clip-path="url(#clip172)" cx="786.883" cy="1445.72" r="14" fill="#009af9" fill-rule="evenodd" fill-opacity="1" stroke="#000000" stroke-opacity="1" stroke-width="3.2"/>
<circle clip-path="url(#clip172)" cx="872.684" cy="1445.72" r="14" fill="#009af9" fill-rule="evenodd" fill-opacity="1" stroke="#000000" stroke-opacity="1" stroke-width="3.2"/>
<circle clip-path="url(#clip172)" cx="958.485" cy="766.846" r="14" fill="#009af9" fill-rule="evenodd" fill-opacity="1" stroke="#000000" stroke-opacity="1" stroke-width="3.2"/>
<circle clip-path="url(#clip172)" cx="1044.29" cy="87.9763" r="14" fill="#009af9" fill-rule="evenodd" fill-opacity="1" stroke="#000000" stroke-opacity="1" stroke-width="3.2"/>
<circle clip-path="url(#clip172)" cx="1130.09" cy="766.846" r="14" fill="#009af9" fill-rule="evenodd" fill-opacity="1" stroke="#000000" stroke-opacity="1" stroke-width="3.2"/>
<circle clip-path="url(#clip172)" cx="1215.89" cy="1445.72" r="14" fill="#009af9" fill-rule="evenodd" fill-opacity="1" stroke="#000000" stroke-opacity="1" stroke-width="3.2"/>
<circle clip-path="url(#clip172)" cx="1301.69" cy="1445.72" r="14" fill="#009af9" fill-rule="evenodd" fill-opacity="1" stroke="#000000" stroke-opacity="1" stroke-width="3.2"/>
<circle clip-path="url(#clip172)" cx="1387.49" cy="1445.72" r="14" fill="#009af9" fill-rule="evenodd" fill-opacity="1" stroke="#000000" stroke-opacity="1" stroke-width="3.2"/>
<circle clip-path="url(#clip172)" cx="1473.29" cy="1445.72" r="14" fill="#009af9" fill-rule="evenodd" fill-opacity="1" stroke="#000000" stroke-opacity="1" stroke-width="3.2"/>
<circle clip-path="url(#clip172)" cx="1559.09" cy="1445.72" r="14" fill="#009af9" fill-rule="evenodd" fill-opacity="1" stroke="#000000" stroke-opacity="1" stroke-width="3.2"/>
<circle clip-path="url(#clip172)" cx="1644.9" cy="1445.72" r="14" fill="#009af9" fill-rule="evenodd" fill-opacity="1" stroke="#000000" stroke-opacity="1" stroke-width="3.2"/>
<circle clip-path="url(#clip172)" cx="1730.7" cy="1445.72" r="14" fill="#009af9" fill-rule="evenodd" fill-opacity="1" stroke="#000000" stroke-opacity="1" stroke-width="3.2"/>
<circle clip-path="url(#clip172)" cx="1816.5" cy="1445.72" r="14" fill="#009af9" fill-rule="evenodd" fill-opacity="1" stroke="#000000" stroke-opacity="1" stroke-width="3.2"/>
<circle clip-path="url(#clip172)" cx="1902.3" cy="1445.72" r="14" fill="#009af9" fill-rule="evenodd" fill-opacity="1" stroke="#000000" stroke-opacity="1" stroke-width="3.2"/>
<circle clip-path="url(#clip172)" cx="1988.1" cy="1445.72" r="14" fill="#009af9" fill-rule="evenodd" fill-opacity="1" stroke="#000000" stroke-opacity="1" stroke-width="3.2"/>
<circle clip-path="url(#clip172)" cx="2073.9" cy="1445.72" r="14" fill="#009af9" fill-rule="evenodd" fill-opacity="1" stroke="#000000" stroke-opacity="1" stroke-width="3.2"/>
<circle clip-path="url(#clip172)" cx="2159.7" cy="1445.72" r="14" fill="#009af9" fill-rule="evenodd" fill-opacity="1" stroke="#000000" stroke-opacity="1" stroke-width="3.2"/>
<circle clip-path="url(#clip172)" cx="2245.5" cy="1445.72" r="14" fill="#009af9" fill-rule="evenodd" fill-opacity="1" stroke="#000000" stroke-opacity="1" stroke-width="3.2"/>
<circle clip-path="url(#clip172)" cx="2331.31" cy="1445.72" r="14" fill="#009af9" fill-rule="evenodd" fill-opacity="1" stroke="#000000" stroke-opacity="1" stroke-width="3.2"/>
<polyline clip-path="url(#clip172)" style="stroke:#e26f46; stroke-linecap:butt; stroke-linejoin:round; stroke-width:16; stroke-opacity:1; fill:none" points="
  272.075,1445.72 357.877,1445.72 443.678,1445.72 529.479,1445.72 615.28,1445.72 701.082,1445.72 786.883,1445.72 872.684,1445.72 958.485,1445.72 1044.29,1445.72 
  1130.09,766.846 1215.89,87.9763 1301.69,766.846 1387.49,1445.72 1473.29,1445.72 1559.09,1445.72 1644.9,1445.72 1730.7,1445.72 1816.5,1445.72 1902.3,1445.72 
  1988.1,1445.72 2073.9,1445.72 2159.7,1445.72 2245.5,1445.72 2331.31,1445.72 2417.11,1445.72 2502.91,1445.72 2588.71,1445.72 2674.51,1445.72 2760.31,1445.72 
  2846.11,1445.72 2931.91,1445.72 3017.72,1445.72 3103.52,1445.72 3189.32,1445.72 3275.12,1445.72 3360.92,1445.72 3446.72,1445.72 3532.52,1445.72 3618.32,1445.72 
  3704.13,1445.72 3789.93,1445.72 3875.73,1445.72 3961.53,1445.72 4047.33,1445.72 4133.13,1445.72 4218.93,1445.72 4304.73,1445.72 4390.54,1445.72 4476.34,1445.72 
  4562.14,1445.72 4647.94,1445.72 4733.74,1445.72 4819.54,1445.72 4905.34,1445.72 4991.14,1445.72 5076.95,1445.72 5162.75,1445.72 5248.55,1445.72 5334.35,1445.72 
  5420.15,1445.72 5505.95,1445.72 5591.75,1445.72 5677.55,1445.72 5763.36,1445.72 5849.16,1445.72 5934.96,1445.72 6020.76,1445.72 6106.56,1445.72 6192.36,1445.72 
  6278.16,1445.72 6363.96,1445.72 6449.77,1445.72 6535.57,1445.72 6621.37,1445.72 6707.17,1445.72 6792.97,1445.72 6878.77,1445.72 6964.57,1445.72 7050.38,1445.72 
  7136.18,1445.72 7221.98,1445.72 7307.78,1445.72 7393.58,1445.72 7479.38,1445.72 7565.18,1445.72 7650.98,1445.72 7736.79,1445.72 7822.59,1445.72 7908.39,1445.72 
  7994.19,1445.72 8079.99,1445.72 8165.79,1445.72 8251.59,1445.72 8337.39,1445.72 8423.2,1445.72 8509,1445.72 8594.8,1445.72 8680.6,1445.72 8766.4,1445.72 
  
  "/>
<path clip-path="url(#clip172)" d="M256.075 1429.72 L256.075 1461.72 L288.075 1461.72 L288.075 1429.72 L256.075 1429.72 Z" fill="#e26f46" fill-rule="evenodd" fill-opacity="1" stroke="#000000" stroke-opacity="1" stroke-width="3.2"/>
<path clip-path="url(#clip172)" d="M341.877 1429.72 L341.877 1461.72 L373.877 1461.72 L373.877 1429.72 L341.877 1429.72 Z" fill="#e26f46" fill-rule="evenodd" fill-opacity="1" stroke="#000000" stroke-opacity="1" stroke-width="3.2"/>
<path clip-path="url(#clip172)" d="M427.678 1429.72 L427.678 1461.72 L459.678 1461.72 L459.678 1429.72 L427.678 1429.72 Z" fill="#e26f46" fill-rule="evenodd" fill-opacity="1" stroke="#000000" stroke-opacity="1" stroke-width="3.2"/>
<path clip-path="url(#clip172)" d="M513.479 1429.72 L513.479 1461.72 L545.479 1461.72 L545.479 1429.72 L513.479 1429.72 Z" fill="#e26f46" fill-rule="evenodd" fill-opacity="1" stroke="#000000" stroke-opacity="1" stroke-width="3.2"/>
<path clip-path="url(#clip172)" d="M599.28 1429.72 L599.28 1461.72 L631.28 1461.72 L631.28 1429.72 L599.28 1429.72 Z" fill="#e26f46" fill-rule="evenodd" fill-opacity="1" stroke="#000000" stroke-opacity="1" stroke-width="3.2"/>
<path clip-path="url(#clip172)" d="M685.082 1429.72 L685.082 1461.72 L717.082 1461.72 L717.082 1429.72 L685.082 1429.72 Z" fill="#e26f46" fill-rule="evenodd" fill-opacity="1" stroke="#000000" stroke-opacity="1" stroke-width="3.2"/>
<path clip-path="url(#clip172)" d="M770.883 1429.72 L770.883 1461.72 L802.883 1461.72 L802.883 1429.72 L770.883 1429.72 Z" fill="#e26f46" fill-rule="evenodd" fill-opacity="1" stroke="#000000" stroke-opacity="1" stroke-width="3.2"/>
<path clip-path="url(#clip172)" d="M856.684 1429.72 L856.684 1461.72 L888.684 1461.72 L888.684 1429.72 L856.684 1429.72 Z" fill="#e26f46" fill-rule="evenodd" fill-opacity="1" stroke="#000000" stroke-opacity="1" stroke-width="3.2"/>
<path clip-path="url(#clip172)" d="M942.485 1429.72 L942.485 1461.72 L974.485 1461.72 L974.485 1429.72 L942.485 1429.72 Z" fill="#e26f46" fill-rule="evenodd" fill-opacity="1" stroke="#000000" stroke-opacity="1" stroke-width="3.2"/>
<path clip-path="url(#clip172)" d="M1028.29 1429.72 L1028.29 1461.72 L1060.29 1461.72 L1060.29 1429.72 L1028.29 1429.72 Z" fill="#e26f46" fill-rule="evenodd" fill-opacity="1" stroke="#000000" stroke-opacity="1" stroke-width="3.2"/>
<path clip-path="url(#clip172)" d="M1114.09 750.846 L1114.09 782.846 L1146.09 782.846 L1146.09 750.846 L1114.09 750.846 Z" fill="#e26f46" fill-rule="evenodd" fill-opacity="1" stroke="#000000" stroke-opacity="1" stroke-width="3.2"/>
<path clip-path="url(#clip172)" d="M1199.89 71.9763 L1199.89 103.976 L1231.89 103.976 L1231.89 71.9763 L1199.89 71.9763 Z" fill="#e26f46" fill-rule="evenodd" fill-opacity="1" stroke="#000000" stroke-opacity="1" stroke-width="3.2"/>
<path clip-path="url(#clip172)" d="M1285.69 750.846 L1285.69 782.846 L1317.69 782.846 L1317.69 750.846 L1285.69 750.846 Z" fill="#e26f46" fill-rule="evenodd" fill-opacity="1" stroke="#000000" stroke-opacity="1" stroke-width="3.2"/>
<path clip-path="url(#clip172)" d="M1371.49 1429.72 L1371.49 1461.72 L1403.49 1461.72 L1403.49 1429.72 L1371.49 1429.72 Z" fill="#e26f46" fill-rule="evenodd" fill-opacity="1" stroke="#000000" stroke-opacity="1" stroke-width="3.2"/>
<path clip-path="url(#clip172)" d="M1457.29 1429.72 L1457.29 1461.72 L1489.29 1461.72 L1489.29 1429.72 L1457.29 1429.72 Z" fill="#e26f46" fill-rule="evenodd" fill-opacity="1" stroke="#000000" stroke-opacity="1" stroke-width="3.2"/>
<path clip-path="url(#clip172)" d="M1543.09 1429.72 L1543.09 1461.72 L1575.09 1461.72 L1575.09 1429.72 L1543.09 1429.72 Z" fill="#e26f46" fill-rule="evenodd" fill-opacity="1" stroke="#000000" stroke-opacity="1" stroke-width="3.2"/>
<path clip-path="url(#clip172)" d="M1628.9 1429.72 L1628.9 1461.72 L1660.9 1461.72 L1660.9 1429.72 L1628.9 1429.72 Z" fill="#e26f46" fill-rule="evenodd" fill-opacity="1" stroke="#000000" stroke-opacity="1" stroke-width="3.2"/>
<path clip-path="url(#clip172)" d="M1714.7 1429.72 L1714.7 1461.72 L1746.7 1461.72 L1746.7 1429.72 L1714.7 1429.72 Z" fill="#e26f46" fill-rule="evenodd" fill-opacity="1" stroke="#000000" stroke-opacity="1" stroke-width="3.2"/>
<path clip-path="url(#clip172)" d="M1800.5 1429.72 L1800.5 1461.72 L1832.5 1461.72 L1832.5 1429.72 L1800.5 1429.72 Z" fill="#e26f46" fill-rule="evenodd" fill-opacity="1" stroke="#000000" stroke-opacity="1" stroke-width="3.2"/>
<path clip-path="url(#clip172)" d="M1886.3 1429.72 L1886.3 1461.72 L1918.3 1461.72 L1918.3 1429.72 L1886.3 1429.72 Z" fill="#e26f46" fill-rule="evenodd" fill-opacity="1" stroke="#000000" stroke-opacity="1" stroke-width="3.2"/>
<path clip-path="url(#clip172)" d="M1972.1 1429.72 L1972.1 1461.72 L2004.1 1461.72 L2004.1 1429.72 L1972.1 1429.72 Z" fill="#e26f46" fill-rule="evenodd" fill-opacity="1" stroke="#000000" stroke-opacity="1" stroke-width="3.2"/>
<path clip-path="url(#clip172)" d="M2057.9 1429.72 L2057.9 1461.72 L2089.9 1461.72 L2089.9 1429.72 L2057.9 1429.72 Z" fill="#e26f46" fill-rule="evenodd" fill-opacity="1" stroke="#000000" stroke-opacity="1" stroke-width="3.2"/>
<path clip-path="url(#clip172)" d="M2143.7 1429.72 L2143.7 1461.72 L2175.7 1461.72 L2175.7 1429.72 L2143.7 1429.72 Z" fill="#e26f46" fill-rule="evenodd" fill-opacity="1" stroke="#000000" stroke-opacity="1" stroke-width="3.2"/>
<path clip-path="url(#clip172)" d="M2229.5 1429.72 L2229.5 1461.72 L2261.5 1461.72 L2261.5 1429.72 L2229.5 1429.72 Z" fill="#e26f46" fill-rule="evenodd" fill-opacity="1" stroke="#000000" stroke-opacity="1" stroke-width="3.2"/>
<path clip-path="url(#clip172)" d="M2315.31 1429.72 L2315.31 1461.72 L2347.31 1461.72 L2347.31 1429.72 L2315.31 1429.72 Z" fill="#e26f46" fill-rule="evenodd" fill-opacity="1" stroke="#000000" stroke-opacity="1" stroke-width="3.2"/>
<polyline clip-path="url(#clip172)" style="stroke:#3da44d; stroke-linecap:butt; stroke-linejoin:round; stroke-width:16; stroke-opacity:1; fill:none" points="
  272.075,1445.72 357.877,1445.72 443.678,1445.72 529.479,1445.72 615.28,1445.72 701.082,1445.72 786.883,1445.72 872.684,1445.72 958.485,1445.72 1044.29,1445.72 
  1130.09,1445.72 1215.89,1445.72 1301.69,766.846 1387.49,87.9763 1473.29,766.846 1559.09,1445.72 1644.9,1445.72 1730.7,1445.72 1816.5,1445.72 1902.3,1445.72 
  1988.1,1445.72 2073.9,1445.72 2159.7,1445.72 2245.5,1445.72 2331.31,1445.72 2417.11,1445.72 2502.91,1445.72 2588.71,1445.72 2674.51,1445.72 2760.31,1445.72 
  2846.11,1445.72 2931.91,1445.72 3017.72,1445.72 3103.52,1445.72 3189.32,1445.72 3275.12,1445.72 3360.92,1445.72 3446.72,1445.72 3532.52,1445.72 3618.32,1445.72 
  3704.13,1445.72 3789.93,1445.72 3875.73,1445.72 3961.53,1445.72 4047.33,1445.72 4133.13,1445.72 4218.93,1445.72 4304.73,1445.72 4390.54,1445.72 4476.34,1445.72 
  4562.14,1445.72 4647.94,1445.72 4733.74,1445.72 4819.54,1445.72 4905.34,1445.72 4991.14,1445.72 5076.95,1445.72 5162.75,1445.72 5248.55,1445.72 5334.35,1445.72 
  5420.15,1445.72 5505.95,1445.72 5591.75,1445.72 5677.55,1445.72 5763.36,1445.72 5849.16,1445.72 5934.96,1445.72 6020.76,1445.72 6106.56,1445.72 6192.36,1445.72 
  6278.16,1445.72 6363.96,1445.72 6449.77,1445.72 6535.57,1445.72 6621.37,1445.72 6707.17,1445.72 6792.97,1445.72 6878.77,1445.72 6964.57,1445.72 7050.38,1445.72 
  7136.18,1445.72 7221.98,1445.72 7307.78,1445.72 7393.58,1445.72 7479.38,1445.72 7565.18,1445.72 7650.98,1445.72 7736.79,1445.72 7822.59,1445.72 7908.39,1445.72 
  7994.19,1445.72 8079.99,1445.72 8165.79,1445.72 8251.59,1445.72 8337.39,1445.72 8423.2,1445.72 8509,1445.72 8594.8,1445.72 8680.6,1445.72 8766.4,1445.72 
  
  "/>
<path clip-path="url(#clip172)" d="M272.075 1429.72 L268.315 1440.53 L256.859 1440.77 L265.995 1447.7 L262.667 1458.66 L272.075 1452.12 L281.483 1458.66 L278.155 1447.7 L287.291 1440.77 L275.835 1440.53 L272.075 1429.72 Z" fill="#3da44d" fill-rule="evenodd" fill-opacity="1" stroke="#000000" stroke-opacity="1" stroke-width="3.2"/>
<path clip-path="url(#clip172)" d="M357.877 1429.72 L354.117 1440.53 L342.661 1440.77 L351.797 1447.7 L348.469 1458.66 L357.877 1452.12 L367.285 1458.66 L363.957 1447.7 L373.093 1440.77 L361.637 1440.53 L357.877 1429.72 Z" fill="#3da44d" fill-rule="evenodd" fill-opacity="1" stroke="#000000" stroke-opacity="1" stroke-width="3.2"/>
<path clip-path="url(#clip172)" d="M443.678 1429.72 L439.918 1440.53 L428.462 1440.77 L437.598 1447.7 L434.27 1458.66 L443.678 1452.12 L453.086 1458.66 L449.758 1447.7 L458.894 1440.77 L447.438 1440.53 L443.678 1429.72 Z" fill="#3da44d" fill-rule="evenodd" fill-opacity="1" stroke="#000000" stroke-opacity="1" stroke-width="3.2"/>
<path clip-path="url(#clip172)" d="M529.479 1429.72 L525.719 1440.53 L514.263 1440.77 L523.399 1447.7 L520.071 1458.66 L529.479 1452.12 L538.887 1458.66 L535.559 1447.7 L544.695 1440.77 L533.239 1440.53 L529.479 1429.72 Z" fill="#3da44d" fill-rule="evenodd" fill-opacity="1" stroke="#000000" stroke-opacity="1" stroke-width="3.2"/>
<path clip-path="url(#clip172)" d="M615.28 1429.72 L611.52 1440.53 L600.064 1440.77 L609.2 1447.7 L605.872 1458.66 L615.28 1452.12 L624.688 1458.66 L621.36 1447.7 L630.496 1440.77 L619.04 1440.53 L615.28 1429.72 Z" fill="#3da44d" fill-rule="evenodd" fill-opacity="1" stroke="#000000" stroke-opacity="1" stroke-width="3.2"/>
<path clip-path="url(#clip172)" d="M701.082 1429.72 L697.322 1440.53 L685.866 1440.77 L695.002 1447.7 L691.674 1458.66 L701.082 1452.12 L710.49 1458.66 L707.162 1447.7 L716.298 1440.77 L704.842 1440.53 L701.082 1429.72 Z" fill="#3da44d" fill-rule="evenodd" fill-opacity="1" stroke="#000000" stroke-opacity="1" stroke-width="3.2"/>
<path clip-path="url(#clip172)" d="M786.883 1429.72 L783.123 1440.53 L771.667 1440.77 L780.803 1447.7 L777.475 1458.66 L786.883 1452.12 L796.291 1458.66 L792.963 1447.7 L802.099 1440.77 L790.643 1440.53 L786.883 1429.72 Z" fill="#3da44d" fill-rule="evenodd" fill-opacity="1" stroke="#000000" stroke-opacity="1" stroke-width="3.2"/>
<path clip-path="url(#clip172)" d="M872.684 1429.72 L868.924 1440.53 L857.468 1440.77 L866.604 1447.7 L863.276 1458.66 L872.684 1452.12 L882.092 1458.66 L878.764 1447.7 L887.9 1440.77 L876.444 1440.53 L872.684 1429.72 Z" fill="#3da44d" fill-rule="evenodd" fill-opacity="1" stroke="#000000" stroke-opacity="1" stroke-width="3.2"/>
<path clip-path="url(#clip172)" d="M958.485 1429.72 L954.725 1440.53 L943.269 1440.77 L952.405 1447.7 L949.077 1458.66 L958.485 1452.12 L967.893 1458.66 L964.565 1447.7 L973.701 1440.77 L962.245 1440.53 L958.485 1429.72 Z" fill="#3da44d" fill-rule="evenodd" fill-opacity="1" stroke="#000000" stroke-opacity="1" stroke-width="3.2"/>
<path clip-path="url(#clip172)" d="M1044.29 1429.72 L1040.53 1440.53 L1029.07 1440.77 L1038.21 1447.7 L1034.88 1458.66 L1044.29 1452.12 L1053.69 1458.66 L1050.37 1447.7 L1059.5 1440.77 L1048.05 1440.53 L1044.29 1429.72 Z" fill="#3da44d" fill-rule="evenodd" fill-opacity="1" stroke="#000000" stroke-opacity="1" stroke-width="3.2"/>
<path clip-path="url(#clip172)" d="M1130.09 1429.72 L1126.33 1440.53 L1114.87 1440.77 L1124.01 1447.7 L1120.68 1458.66 L1130.09 1452.12 L1139.5 1458.66 L1136.17 1447.7 L1145.3 1440.77 L1133.85 1440.53 L1130.09 1429.72 Z" fill="#3da44d" fill-rule="evenodd" fill-opacity="1" stroke="#000000" stroke-opacity="1" stroke-width="3.2"/>
<path clip-path="url(#clip172)" d="M1215.89 1429.72 L1212.13 1440.53 L1200.67 1440.77 L1209.81 1447.7 L1206.48 1458.66 L1215.89 1452.12 L1225.3 1458.66 L1221.97 1447.7 L1231.11 1440.77 L1219.65 1440.53 L1215.89 1429.72 Z" fill="#3da44d" fill-rule="evenodd" fill-opacity="1" stroke="#000000" stroke-opacity="1" stroke-width="3.2"/>
<path clip-path="url(#clip172)" d="M1301.69 750.846 L1297.93 761.662 L1286.47 761.902 L1295.61 768.83 L1292.28 779.79 L1301.69 773.246 L1311.1 779.79 L1307.77 768.83 L1316.91 761.902 L1305.45 761.662 L1301.69 750.846 Z" fill="#3da44d" fill-rule="evenodd" fill-opacity="1" stroke="#000000" stroke-opacity="1" stroke-width="3.2"/>
<path clip-path="url(#clip172)" d="M1387.49 71.9763 L1383.73 82.7923 L1372.28 83.0323 L1381.41 89.9603 L1378.08 100.92 L1387.49 94.3763 L1396.9 100.92 L1393.57 89.9603 L1402.71 83.0323 L1391.25 82.7923 L1387.49 71.9763 Z" fill="#3da44d" fill-rule="evenodd" fill-opacity="1" stroke="#000000" stroke-opacity="1" stroke-width="3.2"/>
<path clip-path="url(#clip172)" d="M1473.29 750.846 L1469.53 761.662 L1458.08 761.902 L1467.21 768.83 L1463.88 779.79 L1473.29 773.246 L1482.7 779.79 L1479.37 768.83 L1488.51 761.902 L1477.05 761.662 L1473.29 750.846 Z" fill="#3da44d" fill-rule="evenodd" fill-opacity="1" stroke="#000000" stroke-opacity="1" stroke-width="3.2"/>
<path clip-path="url(#clip172)" d="M1559.09 1429.72 L1555.33 1440.53 L1543.88 1440.77 L1553.01 1447.7 L1549.69 1458.66 L1559.09 1452.12 L1568.5 1458.66 L1565.17 1447.7 L1574.31 1440.77 L1562.85 1440.53 L1559.09 1429.72 Z" fill="#3da44d" fill-rule="evenodd" fill-opacity="1" stroke="#000000" stroke-opacity="1" stroke-width="3.2"/>
<path clip-path="url(#clip172)" d="M1644.9 1429.72 L1641.14 1440.53 L1629.68 1440.77 L1638.82 1447.7 L1635.49 1458.66 L1644.9 1452.12 L1654.3 1458.66 L1650.98 1447.7 L1660.11 1440.77 L1648.66 1440.53 L1644.9 1429.72 Z" fill="#3da44d" fill-rule="evenodd" fill-opacity="1" stroke="#000000" stroke-opacity="1" stroke-width="3.2"/>
<path clip-path="url(#clip172)" d="M1730.7 1429.72 L1726.94 1440.53 L1715.48 1440.77 L1724.62 1447.7 L1721.29 1458.66 L1730.7 1452.12 L1740.1 1458.66 L1736.78 1447.7 L1745.91 1440.77 L1734.46 1440.53 L1730.7 1429.72 Z" fill="#3da44d" fill-rule="evenodd" fill-opacity="1" stroke="#000000" stroke-opacity="1" stroke-width="3.2"/>
<path clip-path="url(#clip172)" d="M1816.5 1429.72 L1812.74 1440.53 L1801.28 1440.77 L1810.42 1447.7 L1807.09 1458.66 L1816.5 1452.12 L1825.91 1458.66 L1822.58 1447.7 L1831.71 1440.77 L1820.26 1440.53 L1816.5 1429.72 Z" fill="#3da44d" fill-rule="evenodd" fill-opacity="1" stroke="#000000" stroke-opacity="1" stroke-width="3.2"/>
<path clip-path="url(#clip172)" d="M1902.3 1429.72 L1898.54 1440.53 L1887.08 1440.77 L1896.22 1447.7 L1892.89 1458.66 L1902.3 1452.12 L1911.71 1458.66 L1908.38 1447.7 L1917.52 1440.77 L1906.06 1440.53 L1902.3 1429.72 Z" fill="#3da44d" fill-rule="evenodd" fill-opacity="1" stroke="#000000" stroke-opacity="1" stroke-width="3.2"/>
<path clip-path="url(#clip172)" d="M1988.1 1429.72 L1984.34 1440.53 L1972.88 1440.77 L1982.02 1447.7 L1978.69 1458.66 L1988.1 1452.12 L1997.51 1458.66 L1994.18 1447.7 L2003.32 1440.77 L1991.86 1440.53 L1988.1 1429.72 Z" fill="#3da44d" fill-rule="evenodd" fill-opacity="1" stroke="#000000" stroke-opacity="1" stroke-width="3.2"/>
<path clip-path="url(#clip172)" d="M2073.9 1429.72 L2070.14 1440.53 L2058.69 1440.77 L2067.82 1447.7 L2064.49 1458.66 L2073.9 1452.12 L2083.31 1458.66 L2079.98 1447.7 L2089.12 1440.77 L2077.66 1440.53 L2073.9 1429.72 Z" fill="#3da44d" fill-rule="evenodd" fill-opacity="1" stroke="#000000" stroke-opacity="1" stroke-width="3.2"/>
<path clip-path="url(#clip172)" d="M2159.7 1429.72 L2155.94 1440.53 L2144.49 1440.77 L2153.62 1447.7 L2150.3 1458.66 L2159.7 1452.12 L2169.11 1458.66 L2165.78 1447.7 L2174.92 1440.77 L2163.46 1440.53 L2159.7 1429.72 Z" fill="#3da44d" fill-rule="evenodd" fill-opacity="1" stroke="#000000" stroke-opacity="1" stroke-width="3.2"/>
<path clip-path="url(#clip172)" d="M2245.5 1429.72 L2241.74 1440.53 L2230.29 1440.77 L2239.42 1447.7 L2236.1 1458.66 L2245.5 1452.12 L2254.91 1458.66 L2251.58 1447.7 L2260.72 1440.77 L2249.26 1440.53 L2245.5 1429.72 Z" fill="#3da44d" fill-rule="evenodd" fill-opacity="1" stroke="#000000" stroke-opacity="1" stroke-width="3.2"/>
<path clip-path="url(#clip172)" d="M2331.31 1429.72 L2327.55 1440.53 L2316.09 1440.77 L2325.23 1447.7 L2321.9 1458.66 L2331.31 1452.12 L2340.71 1458.66 L2337.39 1447.7 L2346.52 1440.77 L2335.07 1440.53 L2331.31 1429.72 Z" fill="#3da44d" fill-rule="evenodd" fill-opacity="1" stroke="#000000" stroke-opacity="1" stroke-width="3.2"/>
<path clip-path="url(#clip170)" d="
M1986.81 302.578 L2280.54 302.578 L2280.54 95.2176 L1986.81 95.2176  Z
  " fill="#ffffff" fill-rule="evenodd" fill-opacity="1"/>
<polyline clip-path="url(#clip170)" style="stroke:#000000; stroke-linecap:butt; stroke-linejoin:round; stroke-width:4; stroke-opacity:1; fill:none" points="
  1986.81,302.578 2280.54,302.578 2280.54,95.2176 1986.81,95.2176 1986.81,302.578 
  "/>
<polyline clip-path="url(#clip170)" style="stroke:#009af9; stroke-linecap:butt; stroke-linejoin:round; stroke-width:4; stroke-opacity:1; fill:none" points="
  2010.88,147.058 2155.31,147.058 
  "/>
<circle clip-path="url(#clip170)" cx="2083.1" cy="147.058" r="23" fill="#009af9" fill-rule="evenodd" fill-opacity="1" stroke="#000000" stroke-opacity="1" stroke-width="5.12"/>
<path clip-path="url(#clip170)" d="M2193.23 166.745 Q2191.42 171.375 2189.71 172.787 Q2188 174.199 2185.13 174.199 L2181.72 174.199 L2181.72 170.634 L2184.22 170.634 Q2185.98 170.634 2186.96 169.8 Q2187.93 168.967 2189.11 165.865 L2189.87 163.921 L2179.39 138.412 L2183.9 138.412 L2192 158.689 L2200.1 138.412 L2204.62 138.412 L2193.23 166.745 Z" fill="#000000" fill-rule="evenodd" fill-opacity="1" /><path clip-path="url(#clip170)" d="M2211.91 160.402 L2219.55 160.402 L2219.55 134.037 L2211.24 135.703 L2211.24 131.444 L2219.5 129.778 L2224.18 129.778 L2224.18 160.402 L2231.82 160.402 L2231.82 164.338 L2211.91 164.338 L2211.91 160.402 Z" fill="#000000" fill-rule="evenodd" fill-opacity="1" /><polyline clip-path="url(#clip170)" style="stroke:#e26f46; stroke-linecap:butt; stroke-linejoin:round; stroke-width:4; stroke-opacity:1; fill:none" points="
  2010.88,198.898 2155.31,198.898 
  "/>
<path clip-path="url(#clip170)" d="M2057.5 173.298 L2057.5 224.498 L2108.7 224.498 L2108.7 173.298 L2057.5 173.298 Z" fill="#e26f46" fill-rule="evenodd" fill-opacity="1" stroke="#000000" stroke-opacity="1" stroke-width="5.12"/>
<path clip-path="url(#clip170)" d="M2193.23 218.585 Q2191.42 223.215 2189.71 224.627 Q2188 226.039 2185.13 226.039 L2181.72 226.039 L2181.72 222.474 L2184.22 222.474 Q2185.98 222.474 2186.96 221.64 Q2187.93 220.807 2189.11 217.705 L2189.87 215.761 L2179.39 190.252 L2183.9 190.252 L2192 210.529 L2200.1 190.252 L2204.62 190.252 L2193.23 218.585 Z" fill="#000000" fill-rule="evenodd" fill-opacity="1" /><path clip-path="url(#clip170)" d="M2215.13 212.242 L2231.45 212.242 L2231.45 216.178 L2209.5 216.178 L2209.5 212.242 Q2212.16 209.488 2216.75 204.858 Q2221.35 200.205 2222.53 198.863 Q2224.78 196.34 2225.66 194.604 Q2226.56 192.844 2226.56 191.155 Q2226.56 188.4 2224.62 186.664 Q2222.7 184.928 2219.59 184.928 Q2217.4 184.928 2214.94 185.692 Q2212.51 186.455 2209.73 188.006 L2209.73 183.284 Q2212.56 182.15 2215.01 181.571 Q2217.47 180.993 2219.5 180.993 Q2224.87 180.993 2228.07 183.678 Q2231.26 186.363 2231.26 190.854 Q2231.26 192.983 2230.45 194.905 Q2229.66 196.803 2227.56 199.395 Q2226.98 200.067 2223.88 203.284 Q2220.78 206.479 2215.13 212.242 Z" fill="#000000" fill-rule="evenodd" fill-opacity="1" /><polyline clip-path="url(#clip170)" style="stroke:#3da44d; stroke-linecap:butt; stroke-linejoin:round; stroke-width:4; stroke-opacity:1; fill:none" points="
  2010.88,250.738 2155.31,250.738 
  "/>
<path clip-path="url(#clip170)" d="M2083.1 225.138 L2077.08 242.443 L2058.75 242.827 L2073.37 253.912 L2068.05 271.448 L2083.1 260.978 L2098.15 271.448 L2092.83 253.912 L2107.44 242.827 L2089.11 242.443 L2083.1 225.138 Z" fill="#3da44d" fill-rule="evenodd" fill-opacity="1" stroke="#000000" stroke-opacity="1" stroke-width="5.12"/>
<path clip-path="url(#clip170)" d="M2193.23 270.425 Q2191.42 275.055 2189.71 276.467 Q2188 277.879 2185.13 277.879 L2181.72 277.879 L2181.72 274.314 L2184.22 274.314 Q2185.98 274.314 2186.96 273.48 Q2187.93 272.647 2189.11 269.545 L2189.87 267.601 L2179.39 242.092 L2183.9 242.092 L2192 262.369 L2200.1 242.092 L2204.62 242.092 L2193.23 270.425 Z" fill="#000000" fill-rule="evenodd" fill-opacity="1" /><path clip-path="url(#clip170)" d="M2225.27 249.383 Q2228.62 250.101 2230.5 252.369 Q2232.4 254.638 2232.4 257.971 Q2232.4 263.087 2228.88 265.888 Q2225.36 268.689 2218.88 268.689 Q2216.7 268.689 2214.39 268.249 Q2212.09 267.832 2209.64 266.976 L2209.64 262.462 Q2211.59 263.596 2213.9 264.175 Q2216.22 264.754 2218.74 264.754 Q2223.14 264.754 2225.43 263.018 Q2227.74 261.281 2227.74 257.971 Q2227.74 254.916 2225.59 253.203 Q2223.46 251.467 2219.64 251.467 L2215.61 251.467 L2215.61 247.624 L2219.83 247.624 Q2223.28 247.624 2225.1 246.258 Q2226.93 244.87 2226.93 242.277 Q2226.93 239.615 2225.03 238.203 Q2223.16 236.768 2219.64 236.768 Q2217.72 236.768 2215.52 237.184 Q2213.32 237.601 2210.68 238.481 L2210.68 234.314 Q2213.34 233.573 2215.66 233.203 Q2218 232.833 2220.06 232.833 Q2225.38 232.833 2228.48 235.263 Q2231.59 237.67 2231.59 241.791 Q2231.59 244.661 2229.94 246.652 Q2228.3 248.62 2225.27 249.383 Z" fill="#000000" fill-rule="evenodd" fill-opacity="1" /></svg>
