<?xml version="1.0" encoding="utf-8"?>
<svg xmlns="http://www.w3.org/2000/svg" xmlns:xlink="http://www.w3.org/1999/xlink" width="600" height="400" viewBox="0 0 2400 1600">
<defs>
  <clipPath id="clip350">
    <rect x="0" y="0" width="2400" height="1600"/>
  </clipPath>
</defs>
<path clip-path="url(#clip350)" d="
M0 1600 L2400 1600 L2400 0 L0 0  Z
  " fill="#ffffff" fill-rule="evenodd" fill-opacity="1"/>
<defs>
  <clipPath id="clip351">
    <rect x="480" y="0" width="1681" height="1600"/>
  </clipPath>
</defs>
<path clip-path="url(#clip350)" d="
M186.274 1486.45 L2352.76 1486.45 L2352.76 47.2441 L186.274 47.2441  Z
  " fill="#ffffff" fill-rule="evenodd" fill-opacity="1"/>
<defs>
  <clipPath id="clip352">
    <rect x="186" y="47" width="2167" height="1440"/>
  </clipPath>
</defs>
<polyline clip-path="url(#clip352)" style="stroke:#000000; stroke-linecap:butt; stroke-linejoin:round; stroke-width:2; stroke-opacity:0.1; fill:none" points="
  247.59,1486.45 247.59,47.2441 
  "/>
<polyline clip-path="url(#clip352)" style="stroke:#000000; stroke-linecap:butt; stroke-linejoin:round; stroke-width:2; stroke-opacity:0.1; fill:none" points="
  758.552,1486.45 758.552,47.2441 
  "/>
<polyline clip-path="url(#clip352)" style="stroke:#000000; stroke-linecap:butt; stroke-linejoin:round; stroke-width:2; stroke-opacity:0.1; fill:none" points="
  1269.51,1486.45 1269.51,47.2441 
  "/>
<polyline clip-path="url(#clip352)" style="stroke:#000000; stroke-linecap:butt; stroke-linejoin:round; stroke-width:2; stroke-opacity:0.1; fill:none" points="
  1780.48,1486.45 1780.48,47.2441 
  "/>
<polyline clip-path="url(#clip352)" style="stroke:#000000; stroke-linecap:butt; stroke-linejoin:round; stroke-width:2; stroke-opacity:0.1; fill:none" points="
  2291.44,1486.45 2291.44,47.2441 
  "/>
<polyline clip-path="url(#clip350)" style="stroke:#000000; stroke-linecap:butt; stroke-linejoin:round; stroke-width:4; stroke-opacity:1; fill:none" points="
  186.274,1486.45 2352.76,1486.45 
  "/>
<polyline clip-path="url(#clip350)" style="stroke:#000000; stroke-linecap:butt; stroke-linejoin:round; stroke-width:4; stroke-opacity:1; fill:none" points="
  247.59,1486.45 247.59,1467.55 
  "/>
<polyline clip-path="url(#clip350)" style="stroke:#000000; stroke-linecap:butt; stroke-linejoin:round; stroke-width:4; stroke-opacity:1; fill:none" points="
  758.552,1486.45 758.552,1467.55 
  "/>
<polyline clip-path="url(#clip350)" style="stroke:#000000; stroke-linecap:butt; stroke-linejoin:round; stroke-width:4; stroke-opacity:1; fill:none" points="
  1269.51,1486.45 1269.51,1467.55 
  "/>
<polyline clip-path="url(#clip350)" style="stroke:#000000; stroke-linecap:butt; stroke-linejoin:round; stroke-width:4; stroke-opacity:1; fill:none" points="
  1780.48,1486.45 1780.48,1467.55 
  "/>
<polyline clip-path="url(#clip350)" style="stroke:#000000; stroke-linecap:butt; stroke-linejoin:round; stroke-width:4; stroke-opacity:1; fill:none" points="
  2291.44,1486.45 2291.44,1467.55 
  "/>
<path clip-path="url(#clip350)" d="M194.118 1532.02 L223.793 1532.02 L223.793 1535.95 L194.118 1535.95 L194.118 1532.02 Z" fill="#000000" fill-rule="evenodd" fill-opacity="1" /><path clip-path="url(#clip350)" d="M234.696 1544.91 L242.335 1544.91 L242.335 1518.55 L234.025 1520.21 L234.025 1515.95 L242.289 1514.29 L246.965 1514.29 L246.965 1544.91 L254.603 1544.91 L254.603 1548.85 L234.696 1548.85 L234.696 1544.91 Z" fill="#000000" fill-rule="evenodd" fill-opacity="1" /><path clip-path="url(#clip350)" d="M264.048 1542.97 L268.932 1542.97 L268.932 1548.85 L264.048 1548.85 L264.048 1542.97 Z" fill="#000000" fill-rule="evenodd" fill-opacity="1" /><path clip-path="url(#clip350)" d="M289.117 1517.37 Q285.506 1517.37 283.677 1520.93 Q281.872 1524.47 281.872 1531.6 Q281.872 1538.71 283.677 1542.27 Q285.506 1545.82 289.117 1545.82 Q292.751 1545.82 294.557 1542.27 Q296.386 1538.71 296.386 1531.6 Q296.386 1524.47 294.557 1520.93 Q292.751 1517.37 289.117 1517.37 M289.117 1513.66 Q294.927 1513.66 297.983 1518.27 Q301.061 1522.85 301.061 1531.6 Q301.061 1540.33 297.983 1544.94 Q294.927 1549.52 289.117 1549.52 Q283.307 1549.52 280.228 1544.94 Q277.173 1540.33 277.173 1531.6 Q277.173 1522.85 280.228 1518.27 Q283.307 1513.66 289.117 1513.66 Z" fill="#000000" fill-rule="evenodd" fill-opacity="1" /><path clip-path="url(#clip350)" d="M705.578 1532.02 L735.254 1532.02 L735.254 1535.95 L705.578 1535.95 L705.578 1532.02 Z" fill="#000000" fill-rule="evenodd" fill-opacity="1" /><path clip-path="url(#clip350)" d="M755.346 1517.37 Q751.735 1517.37 749.906 1520.93 Q748.101 1524.47 748.101 1531.6 Q748.101 1538.71 749.906 1542.27 Q751.735 1545.82 755.346 1545.82 Q758.98 1545.82 760.786 1542.27 Q762.615 1538.71 762.615 1531.6 Q762.615 1524.47 760.786 1520.93 Q758.98 1517.37 755.346 1517.37 M755.346 1513.66 Q761.156 1513.66 764.212 1518.27 Q767.291 1522.85 767.291 1531.6 Q767.291 1540.33 764.212 1544.94 Q761.156 1549.52 755.346 1549.52 Q749.536 1549.52 746.457 1544.94 Q743.402 1540.33 743.402 1531.6 Q743.402 1522.85 746.457 1518.27 Q749.536 1513.66 755.346 1513.66 Z" fill="#000000" fill-rule="evenodd" fill-opacity="1" /><path clip-path="url(#clip350)" d="M775.508 1542.97 L780.392 1542.97 L780.392 1548.85 L775.508 1548.85 L775.508 1542.97 Z" fill="#000000" fill-rule="evenodd" fill-opacity="1" /><path clip-path="url(#clip350)" d="M790.624 1514.29 L808.98 1514.29 L808.98 1518.22 L794.906 1518.22 L794.906 1526.7 Q795.925 1526.35 796.943 1526.19 Q797.962 1526 798.98 1526 Q804.767 1526 808.147 1529.17 Q811.526 1532.34 811.526 1537.76 Q811.526 1543.34 808.054 1546.44 Q804.582 1549.52 798.263 1549.52 Q796.087 1549.52 793.818 1549.15 Q791.573 1548.78 789.166 1548.04 L789.166 1543.34 Q791.249 1544.47 793.471 1545.03 Q795.693 1545.58 798.17 1545.58 Q802.175 1545.58 804.513 1543.48 Q806.851 1541.37 806.851 1537.76 Q806.851 1534.15 804.513 1532.04 Q802.175 1529.94 798.17 1529.94 Q796.295 1529.94 794.42 1530.35 Q792.568 1530.77 790.624 1531.65 L790.624 1514.29 Z" fill="#000000" fill-rule="evenodd" fill-opacity="1" /><path clip-path="url(#clip350)" d="M1246.9 1517.37 Q1243.29 1517.37 1241.46 1520.93 Q1239.65 1524.47 1239.65 1531.6 Q1239.65 1538.71 1241.46 1542.27 Q1243.29 1545.82 1246.9 1545.82 Q1250.53 1545.82 1252.34 1542.27 Q1254.17 1538.71 1254.17 1531.6 Q1254.17 1524.47 1252.34 1520.93 Q1250.53 1517.37 1246.9 1517.37 M1246.9 1513.66 Q1252.71 1513.66 1255.77 1518.27 Q1258.84 1522.85 1258.84 1531.6 Q1258.84 1540.33 1255.77 1544.94 Q1252.71 1549.52 1246.9 1549.52 Q1241.09 1549.52 1238.01 1544.94 Q1234.95 1540.33 1234.95 1531.6 Q1234.95 1522.85 1238.01 1518.27 Q1241.09 1513.66 1246.9 1513.66 Z" fill="#000000" fill-rule="evenodd" fill-opacity="1" /><path clip-path="url(#clip350)" d="M1267.06 1542.97 L1271.95 1542.97 L1271.95 1548.85 L1267.06 1548.85 L1267.06 1542.97 Z" fill="#000000" fill-rule="evenodd" fill-opacity="1" /><path clip-path="url(#clip350)" d="M1292.13 1517.37 Q1288.52 1517.37 1286.69 1520.93 Q1284.89 1524.47 1284.89 1531.6 Q1284.89 1538.71 1286.69 1542.27 Q1288.52 1545.82 1292.13 1545.82 Q1295.76 1545.82 1297.57 1542.27 Q1299.4 1538.71 1299.4 1531.6 Q1299.4 1524.47 1297.57 1520.93 Q1295.76 1517.37 1292.13 1517.37 M1292.13 1513.66 Q1297.94 1513.66 1301 1518.27 Q1304.07 1522.85 1304.07 1531.6 Q1304.07 1540.33 1301 1544.94 Q1297.94 1549.52 1292.13 1549.52 Q1286.32 1549.52 1283.24 1544.94 Q1280.19 1540.33 1280.19 1531.6 Q1280.19 1522.85 1283.24 1518.27 Q1286.32 1513.66 1292.13 1513.66 Z" fill="#000000" fill-rule="evenodd" fill-opacity="1" /><path clip-path="url(#clip350)" d="M1758.36 1517.37 Q1754.75 1517.37 1752.92 1520.93 Q1751.11 1524.47 1751.11 1531.6 Q1751.11 1538.71 1752.92 1542.27 Q1754.75 1545.82 1758.36 1545.82 Q1761.99 1545.82 1763.8 1542.27 Q1765.63 1538.71 1765.63 1531.6 Q1765.63 1524.47 1763.8 1520.93 Q1761.99 1517.37 1758.36 1517.37 M1758.36 1513.66 Q1764.17 1513.66 1767.23 1518.27 Q1770.3 1522.85 1770.3 1531.6 Q1770.3 1540.33 1767.23 1544.94 Q1764.17 1549.52 1758.36 1549.52 Q1752.55 1549.52 1749.47 1544.94 Q1746.42 1540.33 1746.42 1531.6 Q1746.42 1522.85 1749.47 1518.27 Q1752.55 1513.66 1758.36 1513.66 Z" fill="#000000" fill-rule="evenodd" fill-opacity="1" /><path clip-path="url(#clip350)" d="M1778.52 1542.97 L1783.41 1542.97 L1783.41 1548.85 L1778.52 1548.85 L1778.52 1542.97 Z" fill="#000000" fill-rule="evenodd" fill-opacity="1" /><path clip-path="url(#clip350)" d="M1793.64 1514.29 L1811.99 1514.29 L1811.99 1518.22 L1797.92 1518.22 L1797.92 1526.7 Q1798.94 1526.35 1799.96 1526.19 Q1800.98 1526 1801.99 1526 Q1807.78 1526 1811.16 1529.17 Q1814.54 1532.34 1814.54 1537.76 Q1814.54 1543.34 1811.07 1546.44 Q1807.6 1549.52 1801.28 1549.52 Q1799.1 1549.52 1796.83 1549.15 Q1794.59 1548.78 1792.18 1548.04 L1792.18 1543.34 Q1794.26 1544.47 1796.48 1545.03 Q1798.71 1545.58 1801.18 1545.58 Q1805.19 1545.58 1807.53 1543.48 Q1809.86 1541.37 1809.86 1537.76 Q1809.86 1534.15 1807.53 1532.04 Q1805.19 1529.94 1801.18 1529.94 Q1799.31 1529.94 1797.43 1530.35 Q1795.58 1530.77 1793.64 1531.65 L1793.64 1514.29 Z" fill="#000000" fill-rule="evenodd" fill-opacity="1" /><path clip-path="url(#clip350)" d="M2258.59 1544.91 L2266.23 1544.91 L2266.23 1518.55 L2257.92 1520.21 L2257.92 1515.95 L2266.19 1514.29 L2270.86 1514.29 L2270.86 1544.91 L2278.5 1544.91 L2278.5 1548.85 L2258.59 1548.85 L2258.59 1544.91 Z" fill="#000000" fill-rule="evenodd" fill-opacity="1" /><path clip-path="url(#clip350)" d="M2287.95 1542.97 L2292.83 1542.97 L2292.83 1548.85 L2287.95 1548.85 L2287.95 1542.97 Z" fill="#000000" fill-rule="evenodd" fill-opacity="1" /><path clip-path="url(#clip350)" d="M2313.01 1517.37 Q2309.4 1517.37 2307.57 1520.93 Q2305.77 1524.47 2305.77 1531.6 Q2305.77 1538.71 2307.57 1542.27 Q2309.4 1545.82 2313.01 1545.82 Q2316.65 1545.82 2318.45 1542.27 Q2320.28 1538.71 2320.28 1531.6 Q2320.28 1524.47 2318.45 1520.93 Q2316.65 1517.37 2313.01 1517.37 M2313.01 1513.66 Q2318.82 1513.66 2321.88 1518.27 Q2324.96 1522.85 2324.96 1531.6 Q2324.96 1540.33 2321.88 1544.94 Q2318.82 1549.52 2313.01 1549.52 Q2307.2 1549.52 2304.13 1544.94 Q2301.07 1540.33 2301.07 1531.6 Q2301.07 1522.85 2304.13 1518.27 Q2307.2 1513.66 2313.01 1513.66 Z" fill="#000000" fill-rule="evenodd" fill-opacity="1" /><polyline clip-path="url(#clip352)" style="stroke:#000000; stroke-linecap:butt; stroke-linejoin:round; stroke-width:2; stroke-opacity:0.1; fill:none" points="
  186.274,1207.89 2352.76,1207.89 
  "/>
<polyline clip-path="url(#clip352)" style="stroke:#000000; stroke-linecap:butt; stroke-linejoin:round; stroke-width:2; stroke-opacity:0.1; fill:none" points="
  186.274,927.911 2352.76,927.911 
  "/>
<polyline clip-path="url(#clip352)" style="stroke:#000000; stroke-linecap:butt; stroke-linejoin:round; stroke-width:2; stroke-opacity:0.1; fill:none" points="
  186.274,647.933 2352.76,647.933 
  "/>
<polyline clip-path="url(#clip352)" style="stroke:#000000; stroke-linecap:butt; stroke-linejoin:round; stroke-width:2; stroke-opacity:0.1; fill:none" points="
  186.274,367.955 2352.76,367.955 
  "/>
<polyline clip-path="url(#clip352)" style="stroke:#000000; stroke-linecap:butt; stroke-linejoin:round; stroke-width:2; stroke-opacity:0.1; fill:none" points="
  186.274,87.9763 2352.76,87.9763 
  "/>
<polyline clip-path="url(#clip350)" style="stroke:#000000; stroke-linecap:butt; stroke-linejoin:round; stroke-width:4; stroke-opacity:1; fill:none" points="
  186.274,1486.45 186.274,47.2441 
  "/>
<polyline clip-path="url(#clip350)" style="stroke:#000000; stroke-linecap:butt; stroke-linejoin:round; stroke-width:4; stroke-opacity:1; fill:none" points="
  186.274,1207.89 205.172,1207.89 
  "/>
<polyline clip-path="url(#clip350)" style="stroke:#000000; stroke-linecap:butt; stroke-linejoin:round; stroke-width:4; stroke-opacity:1; fill:none" points="
  186.274,927.911 205.172,927.911 
  "/>
<polyline clip-path="url(#clip350)" style="stroke:#000000; stroke-linecap:butt; stroke-linejoin:round; stroke-width:4; stroke-opacity:1; fill:none" points="
  186.274,647.933 205.172,647.933 
  "/>
<polyline clip-path="url(#clip350)" style="stroke:#000000; stroke-linecap:butt; stroke-linejoin:round; stroke-width:4; stroke-opacity:1; fill:none" points="
  186.274,367.955 205.172,367.955 
  "/>
<polyline clip-path="url(#clip350)" style="stroke:#000000; stroke-linecap:butt; stroke-linejoin:round; stroke-width:4; stroke-opacity:1; fill:none" points="
  186.274,87.9763 205.172,87.9763 
  "/>
<path clip-path="url(#clip350)" d="M62.9365 1193.69 Q59.3254 1193.69 57.4967 1197.25 Q55.6912 1200.79 55.6912 1207.92 Q55.6912 1215.03 57.4967 1218.6 Q59.3254 1222.14 62.9365 1222.14 Q66.5707 1222.14 68.3763 1218.6 Q70.205 1215.03 70.205 1207.92 Q70.205 1200.79 68.3763 1197.25 Q66.5707 1193.69 62.9365 1193.69 M62.9365 1189.98 Q68.7467 1189.98 71.8022 1194.59 Q74.8809 1199.17 74.8809 1207.92 Q74.8809 1216.65 71.8022 1221.26 Q68.7467 1225.84 62.9365 1225.84 Q57.1264 1225.84 54.0477 1221.26 Q50.9921 1216.65 50.9921 1207.92 Q50.9921 1199.17 54.0477 1194.59 Q57.1264 1189.98 62.9365 1189.98 Z" fill="#000000" fill-rule="evenodd" fill-opacity="1" /><path clip-path="url(#clip350)" d="M83.0984 1219.29 L87.9827 1219.29 L87.9827 1225.17 L83.0984 1225.17 L83.0984 1219.29 Z" fill="#000000" fill-rule="evenodd" fill-opacity="1" /><path clip-path="url(#clip350)" d="M108.168 1193.69 Q104.557 1193.69 102.728 1197.25 Q100.922 1200.79 100.922 1207.92 Q100.922 1215.03 102.728 1218.6 Q104.557 1222.14 108.168 1222.14 Q111.802 1222.14 113.608 1218.6 Q115.436 1215.03 115.436 1207.92 Q115.436 1200.79 113.608 1197.25 Q111.802 1193.69 108.168 1193.69 M108.168 1189.98 Q113.978 1189.98 117.033 1194.59 Q120.112 1199.17 120.112 1207.92 Q120.112 1216.65 117.033 1221.26 Q113.978 1225.84 108.168 1225.84 Q102.358 1225.84 99.2789 1221.26 Q96.2234 1216.65 96.2234 1207.92 Q96.2234 1199.17 99.2789 1194.59 Q102.358 1189.98 108.168 1189.98 Z" fill="#000000" fill-rule="evenodd" fill-opacity="1" /><path clip-path="url(#clip350)" d="M138.33 1193.69 Q134.719 1193.69 132.89 1197.25 Q131.084 1200.79 131.084 1207.92 Q131.084 1215.03 132.89 1218.6 Q134.719 1222.14 138.33 1222.14 Q141.964 1222.14 143.769 1218.6 Q145.598 1215.03 145.598 1207.92 Q145.598 1200.79 143.769 1197.25 Q141.964 1193.69 138.33 1193.69 M138.33 1189.98 Q144.14 1189.98 147.195 1194.59 Q150.274 1199.17 150.274 1207.92 Q150.274 1216.65 147.195 1221.26 Q144.14 1225.84 138.33 1225.84 Q132.519 1225.84 129.441 1221.26 Q126.385 1216.65 126.385 1207.92 Q126.385 1199.17 129.441 1194.59 Q132.519 1189.98 138.33 1189.98 Z" fill="#000000" fill-rule="evenodd" fill-opacity="1" /><path clip-path="url(#clip350)" d="M63.9319 913.71 Q60.3208 913.71 58.4921 917.275 Q56.6865 920.817 56.6865 927.946 Q56.6865 935.053 58.4921 938.617 Q60.3208 942.159 63.9319 942.159 Q67.5661 942.159 69.3717 938.617 Q71.2004 935.053 71.2004 927.946 Q71.2004 920.817 69.3717 917.275 Q67.5661 913.71 63.9319 913.71 M63.9319 910.006 Q69.742 910.006 72.7976 914.613 Q75.8763 919.196 75.8763 927.946 Q75.8763 936.673 72.7976 941.279 Q69.742 945.863 63.9319 945.863 Q58.1217 945.863 55.043 941.279 Q51.9875 936.673 51.9875 927.946 Q51.9875 919.196 55.043 914.613 Q58.1217 910.006 63.9319 910.006 Z" fill="#000000" fill-rule="evenodd" fill-opacity="1" /><path clip-path="url(#clip350)" d="M84.0938 939.312 L88.978 939.312 L88.978 945.191 L84.0938 945.191 L84.0938 939.312 Z" fill="#000000" fill-rule="evenodd" fill-opacity="1" /><path clip-path="url(#clip350)" d="M103.191 941.256 L119.51 941.256 L119.51 945.191 L97.566 945.191 L97.566 941.256 Q100.228 938.502 104.811 933.872 Q109.418 929.219 110.598 927.877 Q112.844 925.354 113.723 923.618 Q114.626 921.858 114.626 920.168 Q114.626 917.414 112.682 915.678 Q110.76 913.942 107.658 913.942 Q105.459 913.942 103.006 914.706 Q100.575 915.469 97.7974 917.02 L97.7974 912.298 Q100.621 911.164 103.075 910.585 Q105.529 910.006 107.566 910.006 Q112.936 910.006 116.131 912.692 Q119.325 915.377 119.325 919.868 Q119.325 921.997 118.515 923.918 Q117.728 925.817 115.621 928.409 Q115.043 929.08 111.941 932.298 Q108.839 935.492 103.191 941.256 Z" fill="#000000" fill-rule="evenodd" fill-opacity="1" /><path clip-path="url(#clip350)" d="M129.371 910.631 L147.728 910.631 L147.728 914.567 L133.654 914.567 L133.654 923.039 Q134.672 922.692 135.691 922.53 Q136.709 922.344 137.728 922.344 Q143.515 922.344 146.894 925.516 Q150.274 928.687 150.274 934.104 Q150.274 939.682 146.802 942.784 Q143.33 945.863 137.01 945.863 Q134.834 945.863 132.566 945.492 Q130.32 945.122 127.913 944.381 L127.913 939.682 Q129.996 940.816 132.219 941.372 Q134.441 941.928 136.918 941.928 Q140.922 941.928 143.26 939.821 Q145.598 937.715 145.598 934.104 Q145.598 930.492 143.26 928.386 Q140.922 926.28 136.918 926.28 Q135.043 926.28 133.168 926.696 Q131.316 927.113 129.371 927.992 L129.371 910.631 Z" fill="#000000" fill-rule="evenodd" fill-opacity="1" /><path clip-path="url(#clip350)" d="M62.9365 633.732 Q59.3254 633.732 57.4967 637.297 Q55.6912 640.838 55.6912 647.968 Q55.6912 655.074 57.4967 658.639 Q59.3254 662.181 62.9365 662.181 Q66.5707 662.181 68.3763 658.639 Q70.205 655.074 70.205 647.968 Q70.205 640.838 68.3763 637.297 Q66.5707 633.732 62.9365 633.732 M62.9365 630.028 Q68.7467 630.028 71.8022 634.635 Q74.8809 639.218 74.8809 647.968 Q74.8809 656.695 71.8022 661.301 Q68.7467 665.884 62.9365 665.884 Q57.1264 665.884 54.0477 661.301 Q50.9921 656.695 50.9921 647.968 Q50.9921 639.218 54.0477 634.635 Q57.1264 630.028 62.9365 630.028 Z" fill="#000000" fill-rule="evenodd" fill-opacity="1" /><path clip-path="url(#clip350)" d="M83.0984 659.333 L87.9827 659.333 L87.9827 665.213 L83.0984 665.213 L83.0984 659.333 Z" fill="#000000" fill-rule="evenodd" fill-opacity="1" /><path clip-path="url(#clip350)" d="M98.2141 630.653 L116.57 630.653 L116.57 634.588 L102.496 634.588 L102.496 643.06 Q103.515 642.713 104.534 642.551 Q105.552 642.366 106.571 642.366 Q112.358 642.366 115.737 645.537 Q119.117 648.709 119.117 654.125 Q119.117 659.704 115.645 662.806 Q112.172 665.884 105.853 665.884 Q103.677 665.884 101.409 665.514 Q99.1632 665.144 96.7558 664.403 L96.7558 659.704 Q98.8391 660.838 101.061 661.394 Q103.284 661.949 105.76 661.949 Q109.765 661.949 112.103 659.843 Q114.441 657.736 114.441 654.125 Q114.441 650.514 112.103 648.408 Q109.765 646.301 105.76 646.301 Q103.885 646.301 102.01 646.718 Q100.159 647.134 98.2141 648.014 L98.2141 630.653 Z" fill="#000000" fill-rule="evenodd" fill-opacity="1" /><path clip-path="url(#clip350)" d="M138.33 633.732 Q134.719 633.732 132.89 637.297 Q131.084 640.838 131.084 647.968 Q131.084 655.074 132.89 658.639 Q134.719 662.181 138.33 662.181 Q141.964 662.181 143.769 658.639 Q145.598 655.074 145.598 647.968 Q145.598 640.838 143.769 637.297 Q141.964 633.732 138.33 633.732 M138.33 630.028 Q144.14 630.028 147.195 634.635 Q150.274 639.218 150.274 647.968 Q150.274 656.695 147.195 661.301 Q144.14 665.884 138.33 665.884 Q132.519 665.884 129.441 661.301 Q126.385 656.695 126.385 647.968 Q126.385 639.218 129.441 634.635 Q132.519 630.028 138.33 630.028 Z" fill="#000000" fill-rule="evenodd" fill-opacity="1" /><path clip-path="url(#clip350)" d="M63.9319 353.753 Q60.3208 353.753 58.4921 357.318 Q56.6865 360.86 56.6865 367.989 Q56.6865 375.096 58.4921 378.661 Q60.3208 382.202 63.9319 382.202 Q67.5661 382.202 69.3717 378.661 Q71.2004 375.096 71.2004 367.989 Q71.2004 360.86 69.3717 357.318 Q67.5661 353.753 63.9319 353.753 M63.9319 350.05 Q69.742 350.05 72.7976 354.656 Q75.8763 359.239 75.8763 367.989 Q75.8763 376.716 72.7976 381.323 Q69.742 385.906 63.9319 385.906 Q58.1217 385.906 55.043 381.323 Q51.9875 376.716 51.9875 367.989 Q51.9875 359.239 55.043 354.656 Q58.1217 350.05 63.9319 350.05 Z" fill="#000000" fill-rule="evenodd" fill-opacity="1" /><path clip-path="url(#clip350)" d="M84.0938 379.355 L88.978 379.355 L88.978 385.235 L84.0938 385.235 L84.0938 379.355 Z" fill="#000000" fill-rule="evenodd" fill-opacity="1" /><path clip-path="url(#clip350)" d="M97.9826 350.675 L120.205 350.675 L120.205 352.665 L107.658 385.235 L102.774 385.235 L114.58 354.61 L97.9826 354.61 L97.9826 350.675 Z" fill="#000000" fill-rule="evenodd" fill-opacity="1" /><path clip-path="url(#clip350)" d="M129.371 350.675 L147.728 350.675 L147.728 354.61 L133.654 354.61 L133.654 363.082 Q134.672 362.735 135.691 362.573 Q136.709 362.388 137.728 362.388 Q143.515 362.388 146.894 365.559 Q150.274 368.73 150.274 374.147 Q150.274 379.725 146.802 382.827 Q143.33 385.906 137.01 385.906 Q134.834 385.906 132.566 385.536 Q130.32 385.165 127.913 384.424 L127.913 379.725 Q129.996 380.86 132.219 381.415 Q134.441 381.971 136.918 381.971 Q140.922 381.971 143.26 379.864 Q145.598 377.758 145.598 374.147 Q145.598 370.536 143.26 368.429 Q140.922 366.323 136.918 366.323 Q135.043 366.323 133.168 366.739 Q131.316 367.156 129.371 368.036 L129.371 350.675 Z" fill="#000000" fill-rule="evenodd" fill-opacity="1" /><path clip-path="url(#clip350)" d="M53.7467 101.321 L61.3856 101.321 L61.3856 74.9555 L53.0754 76.6222 L53.0754 72.3629 L61.3393 70.6963 L66.0152 70.6963 L66.0152 101.321 L73.654 101.321 L73.654 105.256 L53.7467 105.256 L53.7467 101.321 Z" fill="#000000" fill-rule="evenodd" fill-opacity="1" /><path clip-path="url(#clip350)" d="M83.0984 99.3767 L87.9827 99.3767 L87.9827 105.256 L83.0984 105.256 L83.0984 99.3767 Z" fill="#000000" fill-rule="evenodd" fill-opacity="1" /><path clip-path="url(#clip350)" d="M108.168 73.775 Q104.557 73.775 102.728 77.3398 Q100.922 80.8814 100.922 88.011 Q100.922 95.1174 102.728 98.6822 Q104.557 102.224 108.168 102.224 Q111.802 102.224 113.608 98.6822 Q115.436 95.1174 115.436 88.011 Q115.436 80.8814 113.608 77.3398 Q111.802 73.775 108.168 73.775 M108.168 70.0713 Q113.978 70.0713 117.033 74.6777 Q120.112 79.261 120.112 88.011 Q120.112 96.7378 117.033 101.344 Q113.978 105.928 108.168 105.928 Q102.358 105.928 99.2789 101.344 Q96.2234 96.7378 96.2234 88.011 Q96.2234 79.261 99.2789 74.6777 Q102.358 70.0713 108.168 70.0713 Z" fill="#000000" fill-rule="evenodd" fill-opacity="1" /><path clip-path="url(#clip350)" d="M138.33 73.775 Q134.719 73.775 132.89 77.3398 Q131.084 80.8814 131.084 88.011 Q131.084 95.1174 132.89 98.6822 Q134.719 102.224 138.33 102.224 Q141.964 102.224 143.769 98.6822 Q145.598 95.1174 145.598 88.011 Q145.598 80.8814 143.769 77.3398 Q141.964 73.775 138.33 73.775 M138.33 70.0713 Q144.14 70.0713 147.195 74.6777 Q150.274 79.261 150.274 88.011 Q150.274 96.7378 147.195 101.344 Q144.14 105.928 138.33 105.928 Q132.519 105.928 129.441 101.344 Q126.385 96.7378 126.385 88.011 Q126.385 79.261 129.441 74.6777 Q132.519 70.0713 138.33 70.0713 Z" fill="#000000" fill-rule="evenodd" fill-opacity="1" /><polyline clip-path="url(#clip352)" style="stroke:#009af9; stroke-linecap:butt; stroke-linejoin:round; stroke-width:16; stroke-opacity:1; fill:none" points="
  247.59,87.9763 268.234,526.74 288.879,843.871 309.524,1064.51 330.169,1209.82 350.814,1297.52 371.459,1342.23 392.104,1355.94 412.749,1348.34 433.394,1327.12 
  454.039,1298.28 474.684,1266.41 495.329,1234.87 515.974,1206.01 536.619,1181.4 557.264,1161.91 577.909,1147.91 598.554,1139.35 619.199,1135.9 639.844,1137 
  660.489,1141.96 681.134,1150.01 701.779,1160.35 722.424,1172.2 743.069,1184.82 763.713,1197.54 784.358,1209.76 805.003,1220.99 825.648,1230.84 846.293,1239.02 
  866.938,1245.32 887.583,1249.64 908.228,1251.98 928.873,1252.38 949.518,1250.99 970.163,1247.97 990.808,1243.56 1011.45,1238.01 1032.1,1231.61 1052.74,1224.65 
  1073.39,1217.4 1094.03,1210.16 1114.68,1203.17 1135.32,1196.68 1155.97,1190.9 1176.61,1185.99 1197.26,1182.08 1217.9,1179.27 1238.55,1177.61 1259.19,1177.1 
  1279.84,1177.71 1300.48,1179.39 1321.13,1182.02 1341.77,1185.49 1362.42,1189.64 1383.06,1194.3 1403.71,1199.29 1424.35,1204.41 1445,1209.49 1465.64,1214.34 
  1486.29,1218.78 1506.93,1222.67 1527.58,1225.87 1548.22,1228.27 1568.87,1229.81 1589.51,1230.43 1610.16,1230.14 1630.8,1228.95 1651.45,1226.92 1672.09,1224.16 
  1692.74,1220.79 1713.38,1216.94 1734.03,1212.8 1754.67,1208.56 1775.32,1204.39 1795.96,1200.51 1816.61,1197.09 1837.25,1194.31 1857.9,1192.31 1878.54,1191.2 
  1899.19,1191.05 1919.83,1191.89 1940.48,1193.68 1961.12,1196.33 1981.77,1199.68 2002.41,1203.53 2023.06,1207.61 2043.7,1211.61 2064.35,1215.21 2084.99,1218.05 
  2105.64,1219.81 2126.28,1220.24 2146.93,1219.15 2167.57,1216.56 2188.22,1212.66 2208.86,1207.97 2229.51,1203.41 2250.15,1200.38 2270.8,1200.94 2291.44,1207.89 
  
  "/>
<polyline clip-path="url(#clip352)" style="stroke:#e26f46; stroke-linecap:butt; stroke-linejoin:round; stroke-width:16; stroke-opacity:1; fill:none" points="
  247.59,1207.89 268.234,648.635 288.879,308.711 309.524,136.212 330.169,87.989 350.814,128.554 371.459,229.086 392.104,366.535 412.749,522.808 433.394,684.039 
  454.039,839.936 474.684,983.196 495.329,1108.99 515.974,1214.52 536.619,1298.57 557.264,1361.22 577.909,1403.49 598.554,1427.12 619.199,1434.31 639.844,1427.57 
  660.489,1409.53 681.134,1382.84 701.779,1350.07 722.424,1313.61 743.069,1275.64 763.713,1238.06 784.358,1202.49 805.003,1170.24 825.648,1142.35 846.293,1119.51 
  866.938,1102.18 887.583,1090.55 908.228,1084.55 928.873,1083.95 949.518,1088.33 970.163,1097.12 990.808,1109.66 1011.45,1125.21 1032.1,1142.98 1052.74,1162.18 
  1073.39,1182.02 1094.03,1201.74 1114.68,1220.66 1135.32,1238.14 1155.97,1253.64 1176.61,1266.74 1197.26,1277.09 1217.9,1284.47 1238.55,1288.77 1259.19,1289.98 
  1279.84,1288.2 1300.48,1283.61 1321.13,1276.5 1341.77,1267.21 1362.42,1256.15 1383.06,1243.78 1403.71,1230.58 1424.35,1217.04 1445,1203.68 1465.64,1190.95 
  1486.29,1179.32 1506.93,1169.16 1527.58,1160.84 1548.22,1154.6 1568.87,1150.64 1589.51,1149.07 1610.16,1149.9 1630.8,1153.06 1651.45,1158.37 1672.09,1165.59 
  1692.74,1174.4 1713.38,1184.4 1734.03,1195.15 1754.67,1206.17 1775.32,1216.94 1795.96,1226.99 1816.61,1235.81 1837.25,1242.97 1857.9,1248.11 1878.54,1250.94 
  1899.19,1251.29 1919.83,1249.1 1940.48,1244.47 1961.12,1237.64 1981.77,1229 2002.41,1219.1 2023.06,1208.62 2043.7,1198.34 2064.35,1189.12 2084.99,1181.85 
  2105.64,1177.34 2126.28,1176.26 2146.93,1179.05 2167.57,1185.71 2188.22,1195.7 2208.86,1207.68 2229.51,1219.34 2250.15,1227.06 2270.8,1225.63 2291.44,1207.89 
  
  "/>
<polyline clip-path="url(#clip352)" style="stroke:#3da44d; stroke-linecap:butt; stroke-linejoin:round; stroke-width:16; stroke-opacity:1; fill:none" points="
  247.59,1207.89 268.234,1389.51 288.879,1419.77 309.524,1345.68 330.169,1205.13 350.814,1028.13 371.459,837.918 392.104,651.988 412.749,482.974 433.394,339.458 
  454.039,226.689 474.684,147.211 495.329,101.42 515.974,88.0486 536.619,104.584 557.264,147.629 577.909,213.213 598.554,297.043 619.199,394.721 639.844,501.918 
  660.489,614.51 681.134,728.686 701.779,841.026 722.424,948.552 743.069,1048.77 763.713,1139.66 784.358,1219.71 805.003,1287.88 825.648,1343.57 846.293,1386.6 
  866.938,1417.16 887.583,1435.77 908.228,1443.25 928.873,1440.63 949.518,1429.13 970.163,1410.1 990.808,1384.96 1011.45,1355.21 1032.1,1322.29 1052.74,1287.64 
  1073.39,1252.6 1094.03,1218.42 1114.68,1186.2 1135.32,1156.92 1155.97,1131.35 1176.61,1110.13 1197.26,1093.69 1217.9,1082.3 1238.55,1076.03 1259.19,1074.81 
  1279.84,1078.4 1300.48,1086.42 1321.13,1098.37 1341.77,1113.64 1362.42,1131.55 1383.06,1151.36 1403.71,1172.3 1424.35,1193.59 1445,1214.45 1465.64,1234.16 
  1486.29,1252.06 1506.93,1267.55 1527.58,1280.15 1548.22,1289.48 1568.87,1295.27 1589.51,1297.41 1610.16,1295.91 1630.8,1290.9 1651.45,1282.66 1672.09,1271.6 
  1692.74,1258.21 1713.38,1243.1 1734.03,1226.94 1754.67,1210.46 1775.32,1194.41 1795.96,1179.51 1816.61,1166.49 1837.25,1155.96 1857.9,1148.46 1878.54,1144.4 
  1899.19,1144 1919.83,1147.33 1940.48,1154.23 1961.12,1164.32 1981.77,1177.02 2002.41,1191.52 2023.06,1206.83 2043.7,1221.79 2064.35,1235.17 2084.99,1245.69 
  2105.64,1252.18 2126.28,1253.67 2146.93,1249.59 2167.57,1239.91 2188.22,1225.48 2208.86,1208.19 2229.51,1191.42 2250.15,1180.34 2270.8,1182.42 2291.44,1207.89 
  
  "/>
<polyline clip-path="url(#clip352)" style="stroke:#c271d2; stroke-linecap:butt; stroke-linejoin:round; stroke-width:16; stroke-opacity:1; fill:none" points="
  247.59,1207.89 268.234,1108.49 288.879,1097.2 309.524,1139.62 330.169,1209.17 350.814,1285.84 371.459,1355.15 392.104,1407.28 412.749,1436.17 433.394,1438.85 
  454.039,1414.73 474.684,1365.12 495.329,1292.66 515.974,1201 536.619,1094.37 557.264,977.301 577.909,854.425 598.554,730.23 619.199,608.925 639.844,494.32 
  660.489,389.739 681.134,297.964 701.779,221.202 722.424,161.075 743.069,118.626 763.713,94.3437 784.358,88.1956 805.003,99.6729 825.648,127.842 846.293,171.405 
  866.938,228.754 887.583,298.041 908.228,377.238 928.873,464.195 949.518,556.704 970.163,652.556 990.808,749.588 1011.45,845.733 1032.1,939.064 1052.74,1027.83 
  1073.39,1110.47 1094.03,1185.67 1114.68,1252.35 1135.32,1309.69 1155.97,1357.14 1176.61,1394.38 1197.26,1421.39 1217.9,1438.36 1238.55,1445.72 1259.19,1444.1 
  1279.84,1434.32 1300.48,1417.36 1321.13,1394.3 1341.77,1366.36 1362.42,1334.77 1383.06,1300.83 1403.71,1265.81 1424.35,1230.95 1445,1197.42 1465.64,1166.29 
  1486.29,1138.53 1506.93,1114.93 1527.58,1096.14 1548.22,1082.61 1568.87,1074.62 1589.51,1072.23 1610.16,1075.34 1630.8,1083.62 1651.45,1096.58 1672.09,1113.57 
  1692.74,1133.78 1713.38,1156.29 1734.03,1180.1 1754.67,1204.16 1775.32,1227.38 1795.96,1248.72 1816.61,1267.22 1837.25,1282.01 1857.9,1292.37 1878.54,1297.82 
  1899.19,1298.05 1919.83,1293.06 1940.48,1283.1 1961.12,1268.76 1981.77,1250.88 2002.41,1230.62 2023.06,1209.36 2043.7,1188.7 2064.35,1170.35 2084.99,1156 
  2105.64,1147.26 2126.28,1145.38 2146.93,1151.1 2167.57,1164.38 2188.22,1184.05 2208.86,1207.48 2229.51,1230.12 2250.15,1244.98 2270.8,1242.11 2291.44,1207.89 
  
  "/>
<polyline clip-path="url(#clip352)" style="stroke:#ac8d18; stroke-linecap:butt; stroke-linejoin:round; stroke-width:16; stroke-opacity:1; fill:none" points="
  247.59,1207.89 268.234,1272.75 288.879,1278.98 309.524,1250.99 330.169,1207.09 350.814,1160.52 371.459,1120.27 392.104,1091.95 412.749,1078.42 433.394,1080.42 
  454.039,1097.08 474.684,1126.38 495.329,1165.5 515.974,1211.2 536.619,1260.01 557.264,1308.5 577.909,1353.41 598.554,1391.83 619.199,1421.23 639.844,1439.58 
  660.489,1445.35 681.134,1437.56 701.779,1415.74 722.424,1379.93 743.069,1330.63 763.713,1268.79 784.358,1195.71 805.003,1113.03 825.648,1022.62 846.293,926.557 
  866.938,827.03 887.583,726.303 908.228,626.641 928.873,530.253 949.518,439.245 970.163,355.57 990.808,280.989 1011.45,217.031 1032.1,164.974 1052.74,125.812 
  1073.39,100.251 1094.03,88.6928 1114.68,91.2377 1135.32,107.689 1155.97,137.562 1176.61,180.103 1197.26,234.309 1217.9,298.957 1238.55,372.628 1259.19,453.747 
  1279.84,540.617 1300.48,631.455 1321.13,724.435 1341.77,817.725 1362.42,909.529 1383.06,998.123 1403.71,1081.89 1424.35,1159.37 1445,1229.27 1465.64,1290.5 
  1486.29,1342.2 1506.93,1383.75 1527.58,1414.8 1548.22,1435.27 1568.87,1445.33 1589.51,1445.44 1610.16,1436.28 1630.8,1418.8 1651.45,1394.14 1672.09,1363.62 
  1692.74,1328.72 1713.38,1291.02 1734.03,1252.16 1754.67,1213.78 1775.32,1177.48 1795.96,1144.78 1816.61,1117.02 1837.25,1095.36 1857.9,1080.67 1878.54,1073.54 
  1899.19,1074.21 1919.83,1082.52 1940.48,1097.93 1961.12,1119.49 1981.77,1145.85 2002.41,1175.29 2023.06,1205.79 2043.7,1235.1 2064.35,1260.83 2084.99,1280.67 
  2105.64,1292.51 2126.28,1294.72 2146.93,1286.4 2167.57,1267.77 2188.22,1240.55 2208.86,1208.44 2229.51,1177.69 2250.15,1157.69 2270.8,1161.75 2291.44,1207.89 
  
  "/>
<polyline clip-path="url(#clip352)" style="stroke:#00a9ad; stroke-linecap:butt; stroke-linejoin:round; stroke-width:16; stroke-opacity:1; fill:none" points="
  247.59,1207.89 268.234,1161.75 288.879,1157.69 309.524,1177.69 330.169,1208.44 350.814,1240.55 371.459,1267.77 392.104,1286.4 412.749,1294.72 433.394,1292.51 
  454.039,1280.67 474.684,1260.83 495.329,1235.1 515.974,1205.79 536.619,1175.29 557.264,1145.85 577.909,1119.49 598.554,1097.93 619.199,1082.52 639.844,1074.21 
  660.489,1073.54 681.134,1080.67 701.779,1095.36 722.424,1117.02 743.069,1144.78 763.713,1177.48 784.358,1213.78 805.003,1252.16 825.648,1291.02 846.293,1328.72 
  866.938,1363.62 887.583,1394.14 908.228,1418.8 928.873,1436.28 949.518,1445.44 970.163,1445.33 990.808,1435.27 1011.45,1414.8 1032.1,1383.75 1052.74,1342.2 
  1073.39,1290.5 1094.03,1229.27 1114.68,1159.37 1135.32,1081.89 1155.97,998.123 1176.61,909.529 1197.26,817.725 1217.9,724.435 1238.55,631.455 1259.19,540.617 
  1279.84,453.747 1300.48,372.628 1321.13,298.957 1341.77,234.309 1362.42,180.103 1383.06,137.562 1403.71,107.689 1424.35,91.2377 1445,88.6928 1465.64,100.251 
  1486.29,125.812 1506.93,164.974 1527.58,217.031 1548.22,280.989 1568.87,355.57 1589.51,439.245 1610.16,530.253 1630.8,626.641 1651.45,726.303 1672.09,827.03 
  1692.74,926.557 1713.38,1022.62 1734.03,1113.03 1754.67,1195.71 1775.32,1268.79 1795.96,1330.63 1816.61,1379.93 1837.25,1415.74 1857.9,1437.56 1878.54,1445.35 
  1899.19,1439.58 1919.83,1421.23 1940.48,1391.83 1961.12,1353.41 1981.77,1308.5 2002.41,1260.01 2023.06,1211.2 2043.7,1165.5 2064.35,1126.38 2084.99,1097.08 
  2105.64,1080.42 2126.28,1078.42 2146.93,1091.95 2167.57,1120.27 2188.22,1160.52 2208.86,1207.09 2229.51,1250.99 2250.15,1278.98 2270.8,1272.75 2291.44,1207.89 
  
  "/>
<polyline clip-path="url(#clip352)" style="stroke:#ed5d92; stroke-linecap:butt; stroke-linejoin:round; stroke-width:16; stroke-opacity:1; fill:none" points="
  247.59,1207.89 268.234,1242.11 288.879,1244.98 309.524,1230.12 330.169,1207.48 350.814,1184.05 371.459,1164.38 392.104,1151.1 412.749,1145.38 433.394,1147.26 
  454.039,1156 474.684,1170.35 495.329,1188.7 515.974,1209.36 536.619,1230.62 557.264,1250.88 577.909,1268.76 598.554,1283.1 619.199,1293.06 639.844,1298.05 
  660.489,1297.82 681.134,1292.37 701.779,1282.01 722.424,1267.22 743.069,1248.72 763.713,1227.38 784.358,1204.16 805.003,1180.1 825.648,1156.29 846.293,1133.78 
  866.938,1113.57 887.583,1096.58 908.228,1083.62 928.873,1075.34 949.518,1072.23 970.163,1074.62 990.808,1082.61 1011.45,1096.14 1032.1,1114.93 1052.74,1138.53 
  1073.39,1166.29 1094.03,1197.42 1114.68,1230.95 1135.32,1265.81 1155.97,1300.83 1176.61,1334.77 1197.26,1366.36 1217.9,1394.3 1238.55,1417.36 1259.19,1434.32 
  1279.84,1444.1 1300.48,1445.72 1321.13,1438.36 1341.77,1421.39 1362.42,1394.38 1383.06,1357.14 1403.71,1309.69 1424.35,1252.35 1445,1185.67 1465.64,1110.47 
  1486.29,1027.83 1506.93,939.064 1527.58,845.733 1548.22,749.588 1568.87,652.556 1589.51,556.704 1610.16,464.195 1630.8,377.238 1651.45,298.041 1672.09,228.754 
  1692.74,171.405 1713.38,127.842 1734.03,99.6729 1754.67,88.1956 1775.32,94.3437 1795.96,118.626 1816.61,161.075 1837.25,221.202 1857.9,297.964 1878.54,389.739 
  1899.19,494.32 1919.83,608.925 1940.48,730.23 1961.12,854.425 1981.77,977.301 2002.41,1094.37 2023.06,1201 2043.7,1292.66 2064.35,1365.12 2084.99,1414.73 
  2105.64,1438.85 2126.28,1436.17 2146.93,1407.28 2167.57,1355.15 2188.22,1285.84 2208.86,1209.17 2229.51,1139.62 2250.15,1097.2 2270.8,1108.49 2291.44,1207.89 
  
  "/>
<polyline clip-path="url(#clip352)" style="stroke:#c68125; stroke-linecap:butt; stroke-linejoin:round; stroke-width:16; stroke-opacity:1; fill:none" points="
  247.59,1207.89 268.234,1182.42 288.879,1180.34 309.524,1191.42 330.169,1208.19 350.814,1225.48 371.459,1239.91 392.104,1249.59 412.749,1253.67 433.394,1252.18 
  454.039,1245.69 474.684,1235.17 495.329,1221.79 515.974,1206.83 536.619,1191.52 557.264,1177.02 577.909,1164.32 598.554,1154.23 619.199,1147.33 639.844,1144 
  660.489,1144.4 681.134,1148.46 701.779,1155.96 722.424,1166.49 743.069,1179.51 763.713,1194.41 784.358,1210.46 805.003,1226.94 825.648,1243.1 846.293,1258.21 
  866.938,1271.6 887.583,1282.66 908.228,1290.9 928.873,1295.91 949.518,1297.41 970.163,1295.27 990.808,1289.48 1011.45,1280.15 1032.1,1267.55 1052.74,1252.06 
  1073.39,1234.16 1094.03,1214.45 1114.68,1193.59 1135.32,1172.3 1155.97,1151.36 1176.61,1131.55 1197.26,1113.64 1217.9,1098.37 1238.55,1086.42 1259.19,1078.4 
  1279.84,1074.81 1300.48,1076.03 1321.13,1082.3 1341.77,1093.69 1362.42,1110.13 1383.06,1131.35 1403.71,1156.92 1424.35,1186.2 1445,1218.42 1465.64,1252.6 
  1486.29,1287.64 1506.93,1322.29 1527.58,1355.21 1548.22,1384.96 1568.87,1410.1 1589.51,1429.13 1610.16,1440.63 1630.8,1443.25 1651.45,1435.77 1672.09,1417.16 
  1692.74,1386.6 1713.38,1343.57 1734.03,1287.88 1754.67,1219.71 1775.32,1139.66 1795.96,1048.77 1816.61,948.552 1837.25,841.026 1857.9,728.686 1878.54,614.51 
  1899.19,501.918 1919.83,394.721 1940.48,297.043 1961.12,213.213 1981.77,147.629 2002.41,104.584 2023.06,88.0486 2043.7,101.42 2064.35,147.211 2084.99,226.689 
  2105.64,339.458 2126.28,482.974 2146.93,651.988 2167.57,837.918 2188.22,1028.13 2208.86,1205.13 2229.51,1345.68 2250.15,1419.77 2270.8,1389.51 2291.44,1207.89 
  
  "/>
<polyline clip-path="url(#clip352)" style="stroke:#00a98d; stroke-linecap:butt; stroke-linejoin:round; stroke-width:16; stroke-opacity:1; fill:none" points="
  247.59,1207.89 268.234,1225.63 288.879,1227.06 309.524,1219.34 330.169,1207.68 350.814,1195.7 371.459,1185.71 392.104,1179.05 412.749,1176.26 433.394,1177.34 
  454.039,1181.85 474.684,1189.12 495.329,1198.34 515.974,1208.62 536.619,1219.1 557.264,1229 577.909,1237.64 598.554,1244.47 619.199,1249.1 639.844,1251.29 
  660.489,1250.94 681.134,1248.11 701.779,1242.97 722.424,1235.81 743.069,1226.99 763.713,1216.94 784.358,1206.17 805.003,1195.15 825.648,1184.4 846.293,1174.4 
  866.938,1165.59 887.583,1158.37 908.228,1153.06 928.873,1149.9 949.518,1149.07 970.163,1150.64 990.808,1154.6 1011.45,1160.84 1032.1,1169.16 1052.74,1179.32 
  1073.39,1190.95 1094.03,1203.68 1114.68,1217.04 1135.32,1230.58 1155.97,1243.78 1176.61,1256.15 1197.26,1267.21 1217.9,1276.5 1238.55,1283.61 1259.19,1288.2 
  1279.84,1289.98 1300.48,1288.77 1321.13,1284.47 1341.77,1277.09 1362.42,1266.74 1383.06,1253.64 1403.71,1238.14 1424.35,1220.66 1445,1201.74 1465.64,1182.02 
  1486.29,1162.18 1506.93,1142.98 1527.58,1125.21 1548.22,1109.66 1568.87,1097.12 1589.51,1088.33 1610.16,1083.95 1630.8,1084.55 1651.45,1090.55 1672.09,1102.18 
  1692.74,1119.51 1713.38,1142.35 1734.03,1170.24 1754.67,1202.49 1775.32,1238.06 1795.96,1275.64 1816.61,1313.61 1837.25,1350.07 1857.9,1382.84 1878.54,1409.53 
  1899.19,1427.57 1919.83,1434.31 1940.48,1427.12 1961.12,1403.49 1981.77,1361.22 2002.41,1298.57 2023.06,1214.52 2043.7,1108.99 2064.35,983.196 2084.99,839.936 
  2105.64,684.039 2126.28,522.808 2146.93,366.535 2167.57,229.086 2188.22,128.554 2208.86,87.989 2229.51,136.212 2250.15,308.711 2270.8,648.635 2291.44,1207.89 
  
  "/>
<polyline clip-path="url(#clip352)" style="stroke:#8e971d; stroke-linecap:butt; stroke-linejoin:round; stroke-width:16; stroke-opacity:1; fill:none" points="
  247.59,1207.89 268.234,1200.94 288.879,1200.38 309.524,1203.41 330.169,1207.97 350.814,1212.66 371.459,1216.56 392.104,1219.15 412.749,1220.24 433.394,1219.81 
  454.039,1218.05 474.684,1215.21 495.329,1211.61 515.974,1207.61 536.619,1203.53 557.264,1199.68 577.909,1196.33 598.554,1193.68 619.199,1191.89 639.844,1191.05 
  660.489,1191.2 681.134,1192.31 701.779,1194.31 722.424,1197.09 743.069,1200.51 763.713,1204.39 784.358,1208.56 805.003,1212.8 825.648,1216.94 846.293,1220.79 
  866.938,1224.16 887.583,1226.92 908.228,1228.95 928.873,1230.14 949.518,1230.43 970.163,1229.81 990.808,1228.27 1011.45,1225.87 1032.1,1222.67 1052.74,1218.78 
  1073.39,1214.34 1094.03,1209.49 1114.68,1204.41 1135.32,1199.29 1155.97,1194.3 1176.61,1189.64 1197.26,1185.49 1217.9,1182.02 1238.55,1179.39 1259.19,1177.71 
  1279.84,1177.1 1300.48,1177.61 1321.13,1179.27 1341.77,1182.08 1362.42,1185.99 1383.06,1190.9 1403.71,1196.68 1424.35,1203.17 1445,1210.16 1465.64,1217.4 
  1486.29,1224.65 1506.93,1231.61 1527.58,1238.01 1548.22,1243.56 1568.87,1247.97 1589.51,1250.99 1610.16,1252.38 1630.8,1251.98 1651.45,1249.64 1672.09,1245.32 
  1692.74,1239.02 1713.38,1230.84 1734.03,1220.99 1754.67,1209.76 1775.32,1197.54 1795.96,1184.82 1816.61,1172.2 1837.25,1160.35 1857.9,1150.01 1878.54,1141.96 
  1899.19,1137 1919.83,1135.9 1940.48,1139.35 1961.12,1147.91 1981.77,1161.91 2002.41,1181.4 2023.06,1206.01 2043.7,1234.87 2064.35,1266.41 2084.99,1298.28 
  2105.64,1327.12 2126.28,1348.34 2146.93,1355.94 2167.57,1342.23 2188.22,1297.52 2208.86,1209.82 2229.51,1064.51 2250.15,843.871 2270.8,526.74 2291.44,87.9763 
  
  "/>
<circle clip-path="url(#clip352)" cx="247.59" cy="87.9763" r="14" fill="#00a8cb" fill-rule="evenodd" fill-opacity="1" stroke="#000000" stroke-opacity="1" stroke-width="3.2"/>
<circle clip-path="url(#clip352)" cx="329.82" cy="87.9763" r="14" fill="#00a8cb" fill-rule="evenodd" fill-opacity="1" stroke="#000000" stroke-opacity="1" stroke-width="3.2"/>
<circle clip-path="url(#clip352)" cx="514.543" cy="87.9763" r="14" fill="#00a8cb" fill-rule="evenodd" fill-opacity="1" stroke="#000000" stroke-opacity="1" stroke-width="3.2"/>
<circle clip-path="url(#clip352)" cx="781.111" cy="87.9763" r="14" fill="#00a8cb" fill-rule="evenodd" fill-opacity="1" stroke="#000000" stroke-opacity="1" stroke-width="3.2"/>
<circle clip-path="url(#clip352)" cx="1100.61" cy="87.9763" r="14" fill="#00a8cb" fill-rule="evenodd" fill-opacity="1" stroke="#000000" stroke-opacity="1" stroke-width="3.2"/>
<circle clip-path="url(#clip352)" cx="1438.42" cy="87.9763" r="14" fill="#00a8cb" fill-rule="evenodd" fill-opacity="1" stroke="#000000" stroke-opacity="1" stroke-width="3.2"/>
<circle clip-path="url(#clip352)" cx="1757.92" cy="87.9763" r="14" fill="#00a8cb" fill-rule="evenodd" fill-opacity="1" stroke="#000000" stroke-opacity="1" stroke-width="3.2"/>
<circle clip-path="url(#clip352)" cx="2024.49" cy="87.9763" r="14" fill="#00a8cb" fill-rule="evenodd" fill-opacity="1" stroke="#000000" stroke-opacity="1" stroke-width="3.2"/>
<circle clip-path="url(#clip352)" cx="2209.21" cy="87.9763" r="14" fill="#00a8cb" fill-rule="evenodd" fill-opacity="1" stroke="#000000" stroke-opacity="1" stroke-width="3.2"/>
<circle clip-path="url(#clip352)" cx="2291.44" cy="87.9763" r="14" fill="#00a8cb" fill-rule="evenodd" fill-opacity="1" stroke="#000000" stroke-opacity="1" stroke-width="3.2"/>
<path clip-path="url(#clip350)" d="
M1956 717.298 L2280.54 717.298 L2280.54 95.2176 L1956 95.2176  Z
  " fill="#ffffff" fill-rule="evenodd" fill-opacity="1"/>
<polyline clip-path="url(#clip350)" style="stroke:#000000; stroke-linecap:butt; stroke-linejoin:round; stroke-width:4; stroke-opacity:1; fill:none" points="
  1956,717.298 2280.54,717.298 2280.54,95.2176 1956,95.2176 1956,717.298 
  "/>
<polyline clip-path="url(#clip350)" style="stroke:#009af9; stroke-linecap:butt; stroke-linejoin:round; stroke-width:4; stroke-opacity:1; fill:none" points="
  1980.07,147.058 2124.5,147.058 
  "/>
<path clip-path="url(#clip350)" d="M2162.42 166.745 Q2160.61 171.375 2158.9 172.787 Q2157.19 174.199 2154.32 174.199 L2150.91 174.199 L2150.91 170.634 L2153.41 170.634 Q2155.17 170.634 2156.15 169.8 Q2157.12 168.967 2158.3 165.865 L2159.06 163.921 L2148.58 138.412 L2153.09 138.412 L2161.19 158.689 L2169.29 138.412 L2173.81 138.412 L2162.42 166.745 Z" fill="#000000" fill-rule="evenodd" fill-opacity="1" /><path clip-path="url(#clip350)" d="M2181.1 160.402 L2188.74 160.402 L2188.74 134.037 L2180.43 135.703 L2180.43 131.444 L2188.69 129.778 L2193.37 129.778 L2193.37 160.402 L2201.01 160.402 L2201.01 164.338 L2181.1 164.338 L2181.1 160.402 Z" fill="#000000" fill-rule="evenodd" fill-opacity="1" /><polyline clip-path="url(#clip350)" style="stroke:#e26f46; stroke-linecap:butt; stroke-linejoin:round; stroke-width:4; stroke-opacity:1; fill:none" points="
  1980.07,198.898 2124.5,198.898 
  "/>
<path clip-path="url(#clip350)" d="M2162.42 218.585 Q2160.61 223.215 2158.9 224.627 Q2157.19 226.039 2154.32 226.039 L2150.91 226.039 L2150.91 222.474 L2153.41 222.474 Q2155.17 222.474 2156.15 221.64 Q2157.12 220.807 2158.3 217.705 L2159.06 215.761 L2148.58 190.252 L2153.09 190.252 L2161.19 210.529 L2169.29 190.252 L2173.81 190.252 L2162.42 218.585 Z" fill="#000000" fill-rule="evenodd" fill-opacity="1" /><path clip-path="url(#clip350)" d="M2184.32 212.242 L2200.64 212.242 L2200.64 216.178 L2178.69 216.178 L2178.69 212.242 Q2181.35 209.488 2185.94 204.858 Q2190.54 200.205 2191.72 198.863 Q2193.97 196.34 2194.85 194.604 Q2195.75 192.844 2195.75 191.155 Q2195.75 188.4 2193.81 186.664 Q2191.89 184.928 2188.78 184.928 Q2186.59 184.928 2184.13 185.692 Q2181.7 186.455 2178.92 188.006 L2178.92 183.284 Q2181.75 182.15 2184.2 181.571 Q2186.66 180.993 2188.69 180.993 Q2194.06 180.993 2197.26 183.678 Q2200.45 186.363 2200.45 190.854 Q2200.45 192.983 2199.64 194.905 Q2198.85 196.803 2196.75 199.395 Q2196.17 200.067 2193.07 203.284 Q2189.97 206.479 2184.32 212.242 Z" fill="#000000" fill-rule="evenodd" fill-opacity="1" /><polyline clip-path="url(#clip350)" style="stroke:#3da44d; stroke-linecap:butt; stroke-linejoin:round; stroke-width:4; stroke-opacity:1; fill:none" points="
  1980.07,250.738 2124.5,250.738 
  "/>
<path clip-path="url(#clip350)" d="M2162.42 270.425 Q2160.61 275.055 2158.9 276.467 Q2157.19 277.879 2154.32 277.879 L2150.91 277.879 L2150.91 274.314 L2153.41 274.314 Q2155.17 274.314 2156.15 273.48 Q2157.12 272.647 2158.3 269.545 L2159.06 267.601 L2148.58 242.092 L2153.09 242.092 L2161.19 262.369 L2169.29 242.092 L2173.81 242.092 L2162.42 270.425 Z" fill="#000000" fill-rule="evenodd" fill-opacity="1" /><path clip-path="url(#clip350)" d="M2194.46 249.383 Q2197.81 250.101 2199.69 252.369 Q2201.59 254.638 2201.59 257.971 Q2201.59 263.087 2198.07 265.888 Q2194.55 268.689 2188.07 268.689 Q2185.89 268.689 2183.58 268.249 Q2181.28 267.832 2178.83 266.976 L2178.83 262.462 Q2180.78 263.596 2183.09 264.175 Q2185.41 264.754 2187.93 264.754 Q2192.33 264.754 2194.62 263.018 Q2196.93 261.281 2196.93 257.971 Q2196.93 254.916 2194.78 253.203 Q2192.65 251.467 2188.83 251.467 L2184.8 251.467 L2184.8 247.624 L2189.02 247.624 Q2192.47 247.624 2194.29 246.258 Q2196.12 244.87 2196.12 242.277 Q2196.12 239.615 2194.22 238.203 Q2192.35 236.768 2188.83 236.768 Q2186.91 236.768 2184.71 237.184 Q2182.51 237.601 2179.87 238.481 L2179.87 234.314 Q2182.53 233.573 2184.85 233.203 Q2187.19 232.833 2189.25 232.833 Q2194.57 232.833 2197.67 235.263 Q2200.78 237.67 2200.78 241.791 Q2200.78 244.661 2199.13 246.652 Q2197.49 248.62 2194.46 249.383 Z" fill="#000000" fill-rule="evenodd" fill-opacity="1" /><polyline clip-path="url(#clip350)" style="stroke:#c271d2; stroke-linecap:butt; stroke-linejoin:round; stroke-width:4; stroke-opacity:1; fill:none" points="
  1980.07,302.578 2124.5,302.578 
  "/>
<path clip-path="url(#clip350)" d="M2162.42 322.265 Q2160.61 326.895 2158.9 328.307 Q2157.19 329.719 2154.32 329.719 L2150.91 329.719 L2150.91 326.154 L2153.41 326.154 Q2155.17 326.154 2156.15 325.32 Q2157.12 324.487 2158.3 321.385 L2159.06 319.441 L2148.58 293.932 L2153.09 293.932 L2161.19 314.209 L2169.29 293.932 L2173.81 293.932 L2162.42 322.265 Z" fill="#000000" fill-rule="evenodd" fill-opacity="1" /><path clip-path="url(#clip350)" d="M2193.14 289.372 L2181.33 307.821 L2193.14 307.821 L2193.14 289.372 M2191.91 285.298 L2197.79 285.298 L2197.79 307.821 L2202.72 307.821 L2202.72 311.709 L2197.79 311.709 L2197.79 319.858 L2193.14 319.858 L2193.14 311.709 L2177.53 311.709 L2177.53 307.196 L2191.91 285.298 Z" fill="#000000" fill-rule="evenodd" fill-opacity="1" /><polyline clip-path="url(#clip350)" style="stroke:#ac8d18; stroke-linecap:butt; stroke-linejoin:round; stroke-width:4; stroke-opacity:1; fill:none" points="
  1980.07,354.418 2124.5,354.418 
  "/>
<path clip-path="url(#clip350)" d="M2162.42 374.105 Q2160.61 378.735 2158.9 380.147 Q2157.19 381.559 2154.32 381.559 L2150.91 381.559 L2150.91 377.994 L2153.41 377.994 Q2155.17 377.994 2156.15 377.16 Q2157.12 376.327 2158.3 373.225 L2159.06 371.281 L2148.58 345.772 L2153.09 345.772 L2161.19 366.049 L2169.29 345.772 L2173.81 345.772 L2162.42 374.105 Z" fill="#000000" fill-rule="evenodd" fill-opacity="1" /><path clip-path="url(#clip350)" d="M2180.34 337.138 L2198.69 337.138 L2198.69 341.073 L2184.62 341.073 L2184.62 349.545 Q2185.64 349.198 2186.66 349.036 Q2187.67 348.85 2188.69 348.85 Q2194.48 348.85 2197.86 352.022 Q2201.24 355.193 2201.24 360.61 Q2201.24 366.188 2197.77 369.29 Q2194.29 372.369 2187.97 372.369 Q2185.8 372.369 2183.53 371.998 Q2181.28 371.628 2178.88 370.887 L2178.88 366.188 Q2180.96 367.323 2183.18 367.878 Q2185.41 368.434 2187.88 368.434 Q2191.89 368.434 2194.22 366.327 Q2196.56 364.221 2196.56 360.61 Q2196.56 356.999 2194.22 354.892 Q2191.89 352.786 2187.88 352.786 Q2186.01 352.786 2184.13 353.202 Q2182.28 353.619 2180.34 354.499 L2180.34 337.138 Z" fill="#000000" fill-rule="evenodd" fill-opacity="1" /><polyline clip-path="url(#clip350)" style="stroke:#00a9ad; stroke-linecap:butt; stroke-linejoin:round; stroke-width:4; stroke-opacity:1; fill:none" points="
  1980.07,406.258 2124.5,406.258 
  "/>
<path clip-path="url(#clip350)" d="M2162.42 425.945 Q2160.61 430.575 2158.9 431.987 Q2157.19 433.399 2154.32 433.399 L2150.91 433.399 L2150.91 429.834 L2153.41 429.834 Q2155.17 429.834 2156.15 429 Q2157.12 428.167 2158.3 425.065 L2159.06 423.121 L2148.58 397.612 L2153.09 397.612 L2161.19 417.889 L2169.29 397.612 L2173.81 397.612 L2162.42 425.945 Z" fill="#000000" fill-rule="evenodd" fill-opacity="1" /><path clip-path="url(#clip350)" d="M2190.87 404.394 Q2187.72 404.394 2185.87 406.547 Q2184.04 408.7 2184.04 412.45 Q2184.04 416.176 2185.87 418.352 Q2187.72 420.505 2190.87 420.505 Q2194.02 420.505 2195.85 418.352 Q2197.7 416.176 2197.7 412.45 Q2197.7 408.7 2195.85 406.547 Q2194.02 404.394 2190.87 404.394 M2200.15 389.741 L2200.15 394.001 Q2198.39 393.167 2196.59 392.728 Q2194.8 392.288 2193.04 392.288 Q2188.41 392.288 2185.96 395.413 Q2183.53 398.538 2183.18 404.857 Q2184.55 402.843 2186.61 401.778 Q2188.67 400.69 2191.15 400.69 Q2196.35 400.69 2199.36 403.862 Q2202.4 407.01 2202.4 412.45 Q2202.4 417.774 2199.25 420.991 Q2196.1 424.209 2190.87 424.209 Q2184.87 424.209 2181.7 419.626 Q2178.53 415.019 2178.53 406.292 Q2178.53 398.098 2182.42 393.237 Q2186.31 388.353 2192.86 388.353 Q2194.62 388.353 2196.4 388.7 Q2198.21 389.047 2200.15 389.741 Z" fill="#000000" fill-rule="evenodd" fill-opacity="1" /><polyline clip-path="url(#clip350)" style="stroke:#ed5d92; stroke-linecap:butt; stroke-linejoin:round; stroke-width:4; stroke-opacity:1; fill:none" points="
  1980.07,458.098 2124.5,458.098 
  "/>
<path clip-path="url(#clip350)" d="M2162.42 477.785 Q2160.61 482.415 2158.9 483.827 Q2157.19 485.239 2154.32 485.239 L2150.91 485.239 L2150.91 481.674 L2153.41 481.674 Q2155.17 481.674 2156.15 480.84 Q2157.12 480.007 2158.3 476.905 L2159.06 474.961 L2148.58 449.452 L2153.09 449.452 L2161.19 469.729 L2169.29 449.452 L2173.81 449.452 L2162.42 477.785 Z" fill="#000000" fill-rule="evenodd" fill-opacity="1" /><path clip-path="url(#clip350)" d="M2179.11 440.818 L2201.33 440.818 L2201.33 442.808 L2188.78 475.378 L2183.9 475.378 L2195.71 444.753 L2179.11 444.753 L2179.11 440.818 Z" fill="#000000" fill-rule="evenodd" fill-opacity="1" /><polyline clip-path="url(#clip350)" style="stroke:#c68125; stroke-linecap:butt; stroke-linejoin:round; stroke-width:4; stroke-opacity:1; fill:none" points="
  1980.07,509.938 2124.5,509.938 
  "/>
<path clip-path="url(#clip350)" d="M2162.42 529.625 Q2160.61 534.255 2158.9 535.667 Q2157.19 537.079 2154.32 537.079 L2150.91 537.079 L2150.91 533.514 L2153.41 533.514 Q2155.17 533.514 2156.15 532.68 Q2157.12 531.847 2158.3 528.745 L2159.06 526.801 L2148.58 501.292 L2153.09 501.292 L2161.19 521.569 L2169.29 501.292 L2173.81 501.292 L2162.42 529.625 Z" fill="#000000" fill-rule="evenodd" fill-opacity="1" /><path clip-path="url(#clip350)" d="M2190.29 510.806 Q2186.96 510.806 2185.03 512.588 Q2183.14 514.37 2183.14 517.495 Q2183.14 520.62 2185.03 522.403 Q2186.96 524.185 2190.29 524.185 Q2193.62 524.185 2195.54 522.403 Q2197.47 520.597 2197.47 517.495 Q2197.47 514.37 2195.54 512.588 Q2193.65 510.806 2190.29 510.806 M2185.61 508.815 Q2182.6 508.074 2180.91 506.014 Q2179.25 503.954 2179.25 500.991 Q2179.25 496.847 2182.19 494.44 Q2185.15 492.033 2190.29 492.033 Q2195.45 492.033 2198.39 494.44 Q2201.33 496.847 2201.33 500.991 Q2201.33 503.954 2199.64 506.014 Q2197.97 508.074 2194.99 508.815 Q2198.37 509.602 2200.24 511.894 Q2202.14 514.185 2202.14 517.495 Q2202.14 522.519 2199.06 525.204 Q2196.01 527.889 2190.29 527.889 Q2184.57 527.889 2181.49 525.204 Q2178.44 522.519 2178.44 517.495 Q2178.44 514.185 2180.34 511.894 Q2182.23 509.602 2185.61 508.815 M2183.9 501.431 Q2183.9 504.116 2185.57 505.62 Q2187.26 507.125 2190.29 507.125 Q2193.3 507.125 2194.99 505.62 Q2196.7 504.116 2196.7 501.431 Q2196.7 498.745 2194.99 497.241 Q2193.3 495.736 2190.29 495.736 Q2187.26 495.736 2185.57 497.241 Q2183.9 498.745 2183.9 501.431 Z" fill="#000000" fill-rule="evenodd" fill-opacity="1" /><polyline clip-path="url(#clip350)" style="stroke:#00a98d; stroke-linecap:butt; stroke-linejoin:round; stroke-width:4; stroke-opacity:1; fill:none" points="
  1980.07,561.778 2124.5,561.778 
  "/>
<path clip-path="url(#clip350)" d="M2162.42 581.465 Q2160.61 586.095 2158.9 587.507 Q2157.19 588.919 2154.32 588.919 L2150.91 588.919 L2150.91 585.354 L2153.41 585.354 Q2155.17 585.354 2156.15 584.52 Q2157.12 583.687 2158.3 580.585 L2159.06 578.641 L2148.58 553.132 L2153.09 553.132 L2161.19 573.409 L2169.29 553.132 L2173.81 553.132 L2162.42 581.465 Z" fill="#000000" fill-rule="evenodd" fill-opacity="1" /><path clip-path="url(#clip350)" d="M2180.43 578.34 L2180.43 574.081 Q2182.19 574.914 2183.99 575.354 Q2185.8 575.794 2187.53 575.794 Q2192.16 575.794 2194.6 572.692 Q2197.05 569.567 2197.4 563.224 Q2196.05 565.215 2193.99 566.28 Q2191.93 567.345 2189.43 567.345 Q2184.25 567.345 2181.22 564.22 Q2178.21 561.072 2178.21 555.632 Q2178.21 550.308 2181.35 547.09 Q2184.5 543.873 2189.73 543.873 Q2195.73 543.873 2198.88 548.479 Q2202.05 553.062 2202.05 561.812 Q2202.05 569.984 2198.16 574.868 Q2194.29 579.729 2187.74 579.729 Q2185.98 579.729 2184.18 579.382 Q2182.37 579.034 2180.43 578.34 M2189.73 563.687 Q2192.88 563.687 2194.71 561.534 Q2196.56 559.382 2196.56 555.632 Q2196.56 551.905 2194.71 549.752 Q2192.88 547.576 2189.73 547.576 Q2186.59 547.576 2184.73 549.752 Q2182.91 551.905 2182.91 555.632 Q2182.91 559.382 2184.73 561.534 Q2186.59 563.687 2189.73 563.687 Z" fill="#000000" fill-rule="evenodd" fill-opacity="1" /><polyline clip-path="url(#clip350)" style="stroke:#8e971d; stroke-linecap:butt; stroke-linejoin:round; stroke-width:4; stroke-opacity:1; fill:none" points="
  1980.07,613.618 2124.5,613.618 
  "/>
<path clip-path="url(#clip350)" d="M2162.42 633.305 Q2160.61 637.935 2158.9 639.347 Q2157.19 640.759 2154.32 640.759 L2150.91 640.759 L2150.91 637.194 L2153.41 637.194 Q2155.17 637.194 2156.15 636.36 Q2157.12 635.527 2158.3 632.425 L2159.06 630.481 L2148.58 604.972 L2153.09 604.972 L2161.19 625.249 L2169.29 604.972 L2173.81 604.972 L2162.42 633.305 Z" fill="#000000" fill-rule="evenodd" fill-opacity="1" /><path clip-path="url(#clip350)" d="M2181.1 626.962 L2188.74 626.962 L2188.74 600.597 L2180.43 602.263 L2180.43 598.004 L2188.69 596.338 L2193.37 596.338 L2193.37 626.962 L2201.01 626.962 L2201.01 630.898 L2181.1 630.898 L2181.1 626.962 Z" fill="#000000" fill-rule="evenodd" fill-opacity="1" /><path clip-path="url(#clip350)" d="M2220.45 599.416 Q2216.84 599.416 2215.01 602.981 Q2213.21 606.523 2213.21 613.652 Q2213.21 620.759 2215.01 624.324 Q2216.84 627.865 2220.45 627.865 Q2224.09 627.865 2225.89 624.324 Q2227.72 620.759 2227.72 613.652 Q2227.72 606.523 2225.89 602.981 Q2224.09 599.416 2220.45 599.416 M2220.45 595.713 Q2226.26 595.713 2229.32 600.319 Q2232.4 604.902 2232.4 613.652 Q2232.4 622.379 2229.32 626.986 Q2226.26 631.569 2220.45 631.569 Q2214.64 631.569 2211.56 626.986 Q2208.51 622.379 2208.51 613.652 Q2208.51 604.902 2211.56 600.319 Q2214.64 595.713 2220.45 595.713 Z" fill="#000000" fill-rule="evenodd" fill-opacity="1" /><circle clip-path="url(#clip350)" cx="2052.29" cy="665.458" r="23" fill="#00a8cb" fill-rule="evenodd" fill-opacity="1" stroke="#000000" stroke-opacity="1" stroke-width="5.12"/>
<path clip-path="url(#clip350)" d="M2162.42 685.145 Q2160.61 689.775 2158.9 691.187 Q2157.19 692.599 2154.32 692.599 L2150.91 692.599 L2150.91 689.034 L2153.41 689.034 Q2155.17 689.034 2156.15 688.2 Q2157.12 687.367 2158.3 684.265 L2159.06 682.321 L2148.58 656.812 L2153.09 656.812 L2161.19 677.089 L2169.29 656.812 L2173.81 656.812 L2162.42 685.145 Z" fill="#000000" fill-rule="evenodd" fill-opacity="1" /><path clip-path="url(#clip350)" d="M2181.1 678.802 L2188.74 678.802 L2188.74 652.437 L2180.43 654.103 L2180.43 649.844 L2188.69 648.178 L2193.37 648.178 L2193.37 678.802 L2201.01 678.802 L2201.01 682.738 L2181.1 682.738 L2181.1 678.802 Z" fill="#000000" fill-rule="evenodd" fill-opacity="1" /><path clip-path="url(#clip350)" d="M2211.26 678.802 L2218.9 678.802 L2218.9 652.437 L2210.59 654.103 L2210.59 649.844 L2218.85 648.178 L2223.53 648.178 L2223.53 678.802 L2231.17 678.802 L2231.17 682.738 L2211.26 682.738 L2211.26 678.802 Z" fill="#000000" fill-rule="evenodd" fill-opacity="1" /></svg>
