<?xml version="1.0" encoding="utf-8"?>
<svg xmlns="http://www.w3.org/2000/svg" xmlns:xlink="http://www.w3.org/1999/xlink" width="600" height="400" viewBox="0 0 2400 1600">
<defs>
  <clipPath id="clip180">
    <rect x="0" y="0" width="2400" height="1600"/>
  </clipPath>
</defs>
<path clip-path="url(#clip180)" d="
M0 1600 L2400 1600 L2400 0 L0 0  Z
  " fill="#ffffff" fill-rule="evenodd" fill-opacity="1"/>
<defs>
  <clipPath id="clip181">
    <rect x="480" y="0" width="1681" height="1600"/>
  </clipPath>
</defs>
<path clip-path="url(#clip180)" d="
M156.112 1486.45 L2352.76 1486.45 L2352.76 47.2441 L156.112 47.2441  Z
  " fill="#ffffff" fill-rule="evenodd" fill-opacity="1"/>
<defs>
  <clipPath id="clip182">
    <rect x="156" y="47" width="2198" height="1440"/>
  </clipPath>
</defs>
<polyline clip-path="url(#clip182)" style="stroke:#000000; stroke-linecap:butt; stroke-linejoin:round; stroke-width:2; stroke-opacity:0.1; fill:none" points="
  218.281,1486.45 218.281,47.2441 
  "/>
<polyline clip-path="url(#clip182)" style="stroke:#000000; stroke-linecap:butt; stroke-linejoin:round; stroke-width:2; stroke-opacity:0.1; fill:none" points="
  736.358,1486.45 736.358,47.2441 
  "/>
<polyline clip-path="url(#clip182)" style="stroke:#000000; stroke-linecap:butt; stroke-linejoin:round; stroke-width:2; stroke-opacity:0.1; fill:none" points="
  1254.43,1486.45 1254.43,47.2441 
  "/>
<polyline clip-path="url(#clip182)" style="stroke:#000000; stroke-linecap:butt; stroke-linejoin:round; stroke-width:2; stroke-opacity:0.1; fill:none" points="
  1772.51,1486.45 1772.51,47.2441 
  "/>
<polyline clip-path="url(#clip182)" style="stroke:#000000; stroke-linecap:butt; stroke-linejoin:round; stroke-width:2; stroke-opacity:0.1; fill:none" points="
  2290.59,1486.45 2290.59,47.2441 
  "/>
<polyline clip-path="url(#clip180)" style="stroke:#000000; stroke-linecap:butt; stroke-linejoin:round; stroke-width:4; stroke-opacity:1; fill:none" points="
  156.112,1486.45 2352.76,1486.45 
  "/>
<polyline clip-path="url(#clip180)" style="stroke:#000000; stroke-linecap:butt; stroke-linejoin:round; stroke-width:4; stroke-opacity:1; fill:none" points="
  218.281,1486.45 218.281,1467.55 
  "/>
<polyline clip-path="url(#clip180)" style="stroke:#000000; stroke-linecap:butt; stroke-linejoin:round; stroke-width:4; stroke-opacity:1; fill:none" points="
  736.358,1486.45 736.358,1467.55 
  "/>
<polyline clip-path="url(#clip180)" style="stroke:#000000; stroke-linecap:butt; stroke-linejoin:round; stroke-width:4; stroke-opacity:1; fill:none" points="
  1254.43,1486.45 1254.43,1467.55 
  "/>
<polyline clip-path="url(#clip180)" style="stroke:#000000; stroke-linecap:butt; stroke-linejoin:round; stroke-width:4; stroke-opacity:1; fill:none" points="
  1772.51,1486.45 1772.51,1467.55 
  "/>
<polyline clip-path="url(#clip180)" style="stroke:#000000; stroke-linecap:butt; stroke-linejoin:round; stroke-width:4; stroke-opacity:1; fill:none" points="
  2290.59,1486.45 2290.59,1467.55 
  "/>
<path clip-path="url(#clip180)" d="M164.809 1530.29 L194.485 1530.29 L194.485 1534.23 L164.809 1534.23 L164.809 1530.29 Z" fill="#000000" fill-rule="evenodd" fill-opacity="1" /><path clip-path="url(#clip180)" d="M205.388 1543.18 L213.027 1543.18 L213.027 1516.82 L204.717 1518.49 L204.717 1514.23 L212.98 1512.56 L217.656 1512.56 L217.656 1543.18 L225.295 1543.18 L225.295 1547.12 L205.388 1547.12 L205.388 1543.18 Z" fill="#000000" fill-rule="evenodd" fill-opacity="1" /><path clip-path="url(#clip180)" d="M234.74 1541.24 L239.624 1541.24 L239.624 1547.12 L234.74 1547.12 L234.74 1541.24 Z" fill="#000000" fill-rule="evenodd" fill-opacity="1" /><path clip-path="url(#clip180)" d="M259.809 1515.64 Q256.198 1515.64 254.369 1519.2 Q252.564 1522.75 252.564 1529.87 Q252.564 1536.98 254.369 1540.55 Q256.198 1544.09 259.809 1544.09 Q263.443 1544.09 265.249 1540.55 Q267.077 1536.98 267.077 1529.87 Q267.077 1522.75 265.249 1519.2 Q263.443 1515.64 259.809 1515.64 M259.809 1511.93 Q265.619 1511.93 268.675 1516.54 Q271.753 1521.12 271.753 1529.87 Q271.753 1538.6 268.675 1543.21 Q265.619 1547.79 259.809 1547.79 Q253.999 1547.79 250.92 1543.21 Q247.864 1538.6 247.864 1529.87 Q247.864 1521.12 250.92 1516.54 Q253.999 1511.93 259.809 1511.93 Z" fill="#000000" fill-rule="evenodd" fill-opacity="1" /><path clip-path="url(#clip180)" d="M683.383 1530.29 L713.059 1530.29 L713.059 1534.23 L683.383 1534.23 L683.383 1530.29 Z" fill="#000000" fill-rule="evenodd" fill-opacity="1" /><path clip-path="url(#clip180)" d="M733.152 1515.64 Q729.541 1515.64 727.712 1519.2 Q725.906 1522.75 725.906 1529.87 Q725.906 1536.98 727.712 1540.55 Q729.541 1544.09 733.152 1544.09 Q736.786 1544.09 738.591 1540.55 Q740.42 1536.98 740.42 1529.87 Q740.42 1522.75 738.591 1519.2 Q736.786 1515.64 733.152 1515.64 M733.152 1511.93 Q738.962 1511.93 742.017 1516.54 Q745.096 1521.12 745.096 1529.87 Q745.096 1538.6 742.017 1543.21 Q738.962 1547.79 733.152 1547.79 Q727.341 1547.79 724.263 1543.21 Q721.207 1538.6 721.207 1529.87 Q721.207 1521.12 724.263 1516.54 Q727.341 1511.93 733.152 1511.93 Z" fill="#000000" fill-rule="evenodd" fill-opacity="1" /><path clip-path="url(#clip180)" d="M753.314 1541.24 L758.198 1541.24 L758.198 1547.12 L753.314 1547.12 L753.314 1541.24 Z" fill="#000000" fill-rule="evenodd" fill-opacity="1" /><path clip-path="url(#clip180)" d="M768.429 1512.56 L786.786 1512.56 L786.786 1516.5 L772.712 1516.5 L772.712 1524.97 Q773.73 1524.62 774.749 1524.46 Q775.767 1524.27 776.786 1524.27 Q782.573 1524.27 785.952 1527.44 Q789.332 1530.62 789.332 1536.03 Q789.332 1541.61 785.86 1544.71 Q782.387 1547.79 776.068 1547.79 Q773.892 1547.79 771.624 1547.42 Q769.378 1547.05 766.971 1546.31 L766.971 1541.61 Q769.054 1542.74 771.276 1543.3 Q773.499 1543.86 775.975 1543.86 Q779.98 1543.86 782.318 1541.75 Q784.656 1539.64 784.656 1536.03 Q784.656 1532.42 782.318 1530.31 Q779.98 1528.21 775.975 1528.21 Q774.101 1528.21 772.226 1528.62 Q770.374 1529.04 768.429 1529.92 L768.429 1512.56 Z" fill="#000000" fill-rule="evenodd" fill-opacity="1" /><path clip-path="url(#clip180)" d="M1231.82 1515.64 Q1228.21 1515.64 1226.38 1519.2 Q1224.57 1522.75 1224.57 1529.87 Q1224.57 1536.98 1226.38 1540.55 Q1228.21 1544.09 1231.82 1544.09 Q1235.45 1544.09 1237.26 1540.55 Q1239.09 1536.98 1239.09 1529.87 Q1239.09 1522.75 1237.26 1519.2 Q1235.45 1515.64 1231.82 1515.64 M1231.82 1511.93 Q1237.63 1511.93 1240.68 1516.54 Q1243.76 1521.12 1243.76 1529.87 Q1243.76 1538.6 1240.68 1543.21 Q1237.63 1547.79 1231.82 1547.79 Q1226.01 1547.79 1222.93 1543.21 Q1219.87 1538.6 1219.87 1529.87 Q1219.87 1521.12 1222.93 1516.54 Q1226.01 1511.93 1231.82 1511.93 Z" fill="#000000" fill-rule="evenodd" fill-opacity="1" /><path clip-path="url(#clip180)" d="M1251.98 1541.24 L1256.86 1541.24 L1256.86 1547.12 L1251.98 1547.12 L1251.98 1541.24 Z" fill="#000000" fill-rule="evenodd" fill-opacity="1" /><path clip-path="url(#clip180)" d="M1277.05 1515.64 Q1273.44 1515.64 1271.61 1519.2 Q1269.8 1522.75 1269.8 1529.87 Q1269.8 1536.98 1271.61 1540.55 Q1273.44 1544.09 1277.05 1544.09 Q1280.68 1544.09 1282.49 1540.55 Q1284.32 1536.98 1284.32 1529.87 Q1284.32 1522.75 1282.49 1519.2 Q1280.68 1515.64 1277.05 1515.64 M1277.05 1511.93 Q1282.86 1511.93 1285.92 1516.54 Q1288.99 1521.12 1288.99 1529.87 Q1288.99 1538.6 1285.92 1543.21 Q1282.86 1547.79 1277.05 1547.79 Q1271.24 1547.79 1268.16 1543.21 Q1265.11 1538.6 1265.11 1529.87 Q1265.11 1521.12 1268.16 1516.54 Q1271.24 1511.93 1277.05 1511.93 Z" fill="#000000" fill-rule="evenodd" fill-opacity="1" /><path clip-path="url(#clip180)" d="M1750.39 1515.64 Q1746.78 1515.64 1744.95 1519.2 Q1743.15 1522.75 1743.15 1529.87 Q1743.15 1536.98 1744.95 1540.55 Q1746.78 1544.09 1750.39 1544.09 Q1754.03 1544.09 1755.83 1540.55 Q1757.66 1536.98 1757.66 1529.87 Q1757.66 1522.75 1755.83 1519.2 Q1754.03 1515.64 1750.39 1515.64 M1750.39 1511.93 Q1756.2 1511.93 1759.26 1516.54 Q1762.34 1521.12 1762.34 1529.87 Q1762.34 1538.6 1759.26 1543.21 Q1756.2 1547.79 1750.39 1547.79 Q1744.58 1547.79 1741.5 1543.21 Q1738.45 1538.6 1738.45 1529.87 Q1738.45 1521.12 1741.5 1516.54 Q1744.58 1511.93 1750.39 1511.93 Z" fill="#000000" fill-rule="evenodd" fill-opacity="1" /><path clip-path="url(#clip180)" d="M1770.55 1541.24 L1775.44 1541.24 L1775.44 1547.12 L1770.55 1547.12 L1770.55 1541.24 Z" fill="#000000" fill-rule="evenodd" fill-opacity="1" /><path clip-path="url(#clip180)" d="M1785.67 1512.56 L1804.03 1512.56 L1804.03 1516.5 L1789.95 1516.5 L1789.95 1524.97 Q1790.97 1524.62 1791.99 1524.46 Q1793.01 1524.27 1794.03 1524.27 Q1799.81 1524.27 1803.19 1527.44 Q1806.57 1530.62 1806.57 1536.03 Q1806.57 1541.61 1803.1 1544.71 Q1799.63 1547.79 1793.31 1547.79 Q1791.13 1547.79 1788.86 1547.42 Q1786.62 1547.05 1784.21 1546.31 L1784.21 1541.61 Q1786.3 1542.74 1788.52 1543.3 Q1790.74 1543.86 1793.22 1543.86 Q1797.22 1543.86 1799.56 1541.75 Q1801.9 1539.64 1801.9 1536.03 Q1801.9 1532.42 1799.56 1530.31 Q1797.22 1528.21 1793.22 1528.21 Q1791.34 1528.21 1789.47 1528.62 Q1787.61 1529.04 1785.67 1529.92 L1785.67 1512.56 Z" fill="#000000" fill-rule="evenodd" fill-opacity="1" /><path clip-path="url(#clip180)" d="M2257.74 1543.18 L2265.38 1543.18 L2265.38 1516.82 L2257.07 1518.49 L2257.07 1514.23 L2265.33 1512.56 L2270.01 1512.56 L2270.01 1543.18 L2277.65 1543.18 L2277.65 1547.12 L2257.74 1547.12 L2257.74 1543.18 Z" fill="#000000" fill-rule="evenodd" fill-opacity="1" /><path clip-path="url(#clip180)" d="M2287.09 1541.24 L2291.98 1541.24 L2291.98 1547.12 L2287.09 1547.12 L2287.09 1541.24 Z" fill="#000000" fill-rule="evenodd" fill-opacity="1" /><path clip-path="url(#clip180)" d="M2312.16 1515.64 Q2308.55 1515.64 2306.72 1519.2 Q2304.92 1522.75 2304.92 1529.87 Q2304.92 1536.98 2306.72 1540.55 Q2308.55 1544.09 2312.16 1544.09 Q2315.79 1544.09 2317.6 1540.55 Q2319.43 1536.98 2319.43 1529.87 Q2319.43 1522.75 2317.6 1519.2 Q2315.79 1515.64 2312.16 1515.64 M2312.16 1511.93 Q2317.97 1511.93 2321.03 1516.54 Q2324.11 1521.12 2324.11 1529.87 Q2324.11 1538.6 2321.03 1543.21 Q2317.97 1547.79 2312.16 1547.79 Q2306.35 1547.79 2303.27 1543.21 Q2300.22 1538.6 2300.22 1529.87 Q2300.22 1521.12 2303.27 1516.54 Q2306.35 1511.93 2312.16 1511.93 Z" fill="#000000" fill-rule="evenodd" fill-opacity="1" /><polyline clip-path="url(#clip182)" style="stroke:#000000; stroke-linecap:butt; stroke-linejoin:round; stroke-width:2; stroke-opacity:0.1; fill:none" points="
  156.112,1445.72 2352.76,1445.72 
  "/>
<polyline clip-path="url(#clip182)" style="stroke:#000000; stroke-linecap:butt; stroke-linejoin:round; stroke-width:2; stroke-opacity:0.1; fill:none" points="
  156.112,1106.28 2352.76,1106.28 
  "/>
<polyline clip-path="url(#clip182)" style="stroke:#000000; stroke-linecap:butt; stroke-linejoin:round; stroke-width:2; stroke-opacity:0.1; fill:none" points="
  156.112,766.846 2352.76,766.846 
  "/>
<polyline clip-path="url(#clip182)" style="stroke:#000000; stroke-linecap:butt; stroke-linejoin:round; stroke-width:2; stroke-opacity:0.1; fill:none" points="
  156.112,427.411 2352.76,427.411 
  "/>
<polyline clip-path="url(#clip182)" style="stroke:#000000; stroke-linecap:butt; stroke-linejoin:round; stroke-width:2; stroke-opacity:0.1; fill:none" points="
  156.112,87.9763 2352.76,87.9763 
  "/>
<polyline clip-path="url(#clip180)" style="stroke:#000000; stroke-linecap:butt; stroke-linejoin:round; stroke-width:4; stroke-opacity:1; fill:none" points="
  156.112,1486.45 156.112,47.2441 
  "/>
<polyline clip-path="url(#clip180)" style="stroke:#000000; stroke-linecap:butt; stroke-linejoin:round; stroke-width:4; stroke-opacity:1; fill:none" points="
  156.112,1445.72 175.01,1445.72 
  "/>
<polyline clip-path="url(#clip180)" style="stroke:#000000; stroke-linecap:butt; stroke-linejoin:round; stroke-width:4; stroke-opacity:1; fill:none" points="
  156.112,1106.28 175.01,1106.28 
  "/>
<polyline clip-path="url(#clip180)" style="stroke:#000000; stroke-linecap:butt; stroke-linejoin:round; stroke-width:4; stroke-opacity:1; fill:none" points="
  156.112,766.846 175.01,766.846 
  "/>
<polyline clip-path="url(#clip180)" style="stroke:#000000; stroke-linecap:butt; stroke-linejoin:round; stroke-width:4; stroke-opacity:1; fill:none" points="
  156.112,427.411 175.01,427.411 
  "/>
<polyline clip-path="url(#clip180)" style="stroke:#000000; stroke-linecap:butt; stroke-linejoin:round; stroke-width:4; stroke-opacity:1; fill:none" points="
  156.112,87.9763 175.01,87.9763 
  "/>
<path clip-path="url(#clip180)" d="M62.9365 1431.51 Q59.3254 1431.51 57.4967 1435.08 Q55.6912 1438.62 55.6912 1445.75 Q55.6912 1452.86 57.4967 1456.42 Q59.3254 1459.96 62.9365 1459.96 Q66.5707 1459.96 68.3763 1456.42 Q70.205 1452.86 70.205 1445.75 Q70.205 1438.62 68.3763 1435.08 Q66.5707 1431.51 62.9365 1431.51 M62.9365 1427.81 Q68.7467 1427.81 71.8022 1432.42 Q74.8809 1437 74.8809 1445.75 Q74.8809 1454.48 71.8022 1459.08 Q68.7467 1463.67 62.9365 1463.67 Q57.1264 1463.67 54.0477 1459.08 Q50.9921 1454.48 50.9921 1445.75 Q50.9921 1437 54.0477 1432.42 Q57.1264 1427.81 62.9365 1427.81 Z" fill="#000000" fill-rule="evenodd" fill-opacity="1" /><path clip-path="url(#clip180)" d="M83.0984 1457.12 L87.9827 1457.12 L87.9827 1463 L83.0984 1463 L83.0984 1457.12 Z" fill="#000000" fill-rule="evenodd" fill-opacity="1" /><path clip-path="url(#clip180)" d="M108.168 1431.51 Q104.557 1431.51 102.728 1435.08 Q100.922 1438.62 100.922 1445.75 Q100.922 1452.86 102.728 1456.42 Q104.557 1459.96 108.168 1459.96 Q111.802 1459.96 113.608 1456.42 Q115.436 1452.86 115.436 1445.75 Q115.436 1438.62 113.608 1435.08 Q111.802 1431.51 108.168 1431.51 M108.168 1427.81 Q113.978 1427.81 117.033 1432.42 Q120.112 1437 120.112 1445.75 Q120.112 1454.48 117.033 1459.08 Q113.978 1463.67 108.168 1463.67 Q102.358 1463.67 99.2789 1459.08 Q96.2234 1454.48 96.2234 1445.75 Q96.2234 1437 99.2789 1432.42 Q102.358 1427.81 108.168 1427.81 Z" fill="#000000" fill-rule="evenodd" fill-opacity="1" /><path clip-path="url(#clip180)" d="M63.9319 1092.08 Q60.3208 1092.08 58.4921 1095.64 Q56.6865 1099.19 56.6865 1106.32 Q56.6865 1113.42 58.4921 1116.99 Q60.3208 1120.53 63.9319 1120.53 Q67.5661 1120.53 69.3717 1116.99 Q71.2004 1113.42 71.2004 1106.32 Q71.2004 1099.19 69.3717 1095.64 Q67.5661 1092.08 63.9319 1092.08 M63.9319 1088.38 Q69.742 1088.38 72.7976 1092.98 Q75.8763 1097.57 75.8763 1106.32 Q75.8763 1115.04 72.7976 1119.65 Q69.742 1124.23 63.9319 1124.23 Q58.1217 1124.23 55.043 1119.65 Q51.9875 1115.04 51.9875 1106.32 Q51.9875 1097.57 55.043 1092.98 Q58.1217 1088.38 63.9319 1088.38 Z" fill="#000000" fill-rule="evenodd" fill-opacity="1" /><path clip-path="url(#clip180)" d="M84.0938 1117.68 L88.978 1117.68 L88.978 1123.56 L84.0938 1123.56 L84.0938 1117.68 Z" fill="#000000" fill-rule="evenodd" fill-opacity="1" /><path clip-path="url(#clip180)" d="M99.2095 1089 L117.566 1089 L117.566 1092.94 L103.492 1092.94 L103.492 1101.41 Q104.51 1101.06 105.529 1100.9 Q106.547 1100.71 107.566 1100.71 Q113.353 1100.71 116.733 1103.89 Q120.112 1107.06 120.112 1112.47 Q120.112 1118.05 116.64 1121.15 Q113.168 1124.23 106.848 1124.23 Q104.672 1124.23 102.404 1123.86 Q100.159 1123.49 97.7511 1122.75 L97.7511 1118.05 Q99.8345 1119.19 102.057 1119.74 Q104.279 1120.3 106.756 1120.3 Q110.76 1120.3 113.098 1118.19 Q115.436 1116.08 115.436 1112.47 Q115.436 1108.86 113.098 1106.76 Q110.76 1104.65 106.756 1104.65 Q104.881 1104.65 103.006 1105.07 Q101.154 1105.48 99.2095 1106.36 L99.2095 1089 Z" fill="#000000" fill-rule="evenodd" fill-opacity="1" /><path clip-path="url(#clip180)" d="M53.7467 780.191 L61.3856 780.191 L61.3856 753.825 L53.0754 755.492 L53.0754 751.233 L61.3393 749.566 L66.0152 749.566 L66.0152 780.191 L73.654 780.191 L73.654 784.126 L53.7467 784.126 L53.7467 780.191 Z" fill="#000000" fill-rule="evenodd" fill-opacity="1" /><path clip-path="url(#clip180)" d="M83.0984 778.246 L87.9827 778.246 L87.9827 784.126 L83.0984 784.126 L83.0984 778.246 Z" fill="#000000" fill-rule="evenodd" fill-opacity="1" /><path clip-path="url(#clip180)" d="M108.168 752.645 Q104.557 752.645 102.728 756.209 Q100.922 759.751 100.922 766.881 Q100.922 773.987 102.728 777.552 Q104.557 781.094 108.168 781.094 Q111.802 781.094 113.608 777.552 Q115.436 773.987 115.436 766.881 Q115.436 759.751 113.608 756.209 Q111.802 752.645 108.168 752.645 M108.168 748.941 Q113.978 748.941 117.033 753.547 Q120.112 758.131 120.112 766.881 Q120.112 775.608 117.033 780.214 Q113.978 784.797 108.168 784.797 Q102.358 784.797 99.2789 780.214 Q96.2234 775.608 96.2234 766.881 Q96.2234 758.131 99.2789 753.547 Q102.358 748.941 108.168 748.941 Z" fill="#000000" fill-rule="evenodd" fill-opacity="1" /><path clip-path="url(#clip180)" d="M54.7421 440.756 L62.381 440.756 L62.381 414.39 L54.0708 416.057 L54.0708 411.798 L62.3347 410.131 L67.0106 410.131 L67.0106 440.756 L74.6494 440.756 L74.6494 444.691 L54.7421 444.691 L54.7421 440.756 Z" fill="#000000" fill-rule="evenodd" fill-opacity="1" /><path clip-path="url(#clip180)" d="M84.0938 438.812 L88.978 438.812 L88.978 444.691 L84.0938 444.691 L84.0938 438.812 Z" fill="#000000" fill-rule="evenodd" fill-opacity="1" /><path clip-path="url(#clip180)" d="M99.2095 410.131 L117.566 410.131 L117.566 414.066 L103.492 414.066 L103.492 422.538 Q104.51 422.191 105.529 422.029 Q106.547 421.844 107.566 421.844 Q113.353 421.844 116.733 425.015 Q120.112 428.187 120.112 433.603 Q120.112 439.182 116.64 442.284 Q113.168 445.362 106.848 445.362 Q104.672 445.362 102.404 444.992 Q100.159 444.622 97.7511 443.881 L97.7511 439.182 Q99.8345 440.316 102.057 440.872 Q104.279 441.427 106.756 441.427 Q110.76 441.427 113.098 439.321 Q115.436 437.214 115.436 433.603 Q115.436 429.992 113.098 427.886 Q110.76 425.779 106.756 425.779 Q104.881 425.779 103.006 426.196 Q101.154 426.613 99.2095 427.492 L99.2095 410.131 Z" fill="#000000" fill-rule="evenodd" fill-opacity="1" /><path clip-path="url(#clip180)" d="M56.9643 101.321 L73.2837 101.321 L73.2837 105.256 L51.3393 105.256 L51.3393 101.321 Q54.0014 98.5665 58.5847 93.9369 Q63.1911 89.2841 64.3717 87.9416 Q66.617 85.4184 67.4967 83.6823 Q68.3994 81.9231 68.3994 80.2333 Q68.3994 77.4786 66.455 75.7425 Q64.5337 74.0064 61.4319 74.0064 Q59.2328 74.0064 56.7791 74.7703 Q54.3486 75.5342 51.5708 77.0851 L51.5708 72.3629 Q54.3949 71.2287 56.8486 70.65 Q59.3023 70.0713 61.3393 70.0713 Q66.7096 70.0713 69.9041 72.7565 Q73.0985 75.4416 73.0985 79.9323 Q73.0985 82.062 72.2883 83.9832 Q71.5013 85.8814 69.3948 88.474 Q68.8161 89.1453 65.7143 92.3628 Q62.6124 95.5573 56.9643 101.321 Z" fill="#000000" fill-rule="evenodd" fill-opacity="1" /><path clip-path="url(#clip180)" d="M83.0984 99.3767 L87.9827 99.3767 L87.9827 105.256 L83.0984 105.256 L83.0984 99.3767 Z" fill="#000000" fill-rule="evenodd" fill-opacity="1" /><path clip-path="url(#clip180)" d="M108.168 73.775 Q104.557 73.775 102.728 77.3398 Q100.922 80.8814 100.922 88.011 Q100.922 95.1174 102.728 98.6822 Q104.557 102.224 108.168 102.224 Q111.802 102.224 113.608 98.6822 Q115.436 95.1174 115.436 88.011 Q115.436 80.8814 113.608 77.3398 Q111.802 73.775 108.168 73.775 M108.168 70.0713 Q113.978 70.0713 117.033 74.6777 Q120.112 79.261 120.112 88.011 Q120.112 96.7378 117.033 101.344 Q113.978 105.928 108.168 105.928 Q102.358 105.928 99.2789 101.344 Q96.2234 96.7378 96.2234 88.011 Q96.2234 79.261 99.2789 74.6777 Q102.358 70.0713 108.168 70.0713 Z" fill="#000000" fill-rule="evenodd" fill-opacity="1" /><polyline clip-path="url(#clip182)" style="stroke:#009af9; stroke-linecap:butt; stroke-linejoin:round; stroke-width:4; stroke-opacity:1; fill:none" points="
  218.281,1445.72 327.35,1374.26 436.419,1302.8 545.487,1231.34 654.556,1159.88 763.625,1088.42 872.694,1016.96 981.762,945.496 1090.83,874.036 1199.9,802.576 
  1308.97,731.116 1418.04,659.656 1527.11,588.196 1636.17,516.736 1745.24,445.276 1854.31,373.816 1963.38,302.356 2072.45,230.896 2181.52,159.436 2290.59,87.9763 
  
  "/>
<circle clip-path="url(#clip182)" cx="218.281" cy="1445.72" r="14" fill="#009af9" fill-rule="evenodd" fill-opacity="1" stroke="#000000" stroke-opacity="1" stroke-width="3.2"/>
<circle clip-path="url(#clip182)" cx="327.35" cy="1374.26" r="14" fill="#009af9" fill-rule="evenodd" fill-opacity="1" stroke="#000000" stroke-opacity="1" stroke-width="3.2"/>
<circle clip-path="url(#clip182)" cx="436.419" cy="1302.8" r="14" fill="#009af9" fill-rule="evenodd" fill-opacity="1" stroke="#000000" stroke-opacity="1" stroke-width="3.2"/>
<circle clip-path="url(#clip182)" cx="545.487" cy="1231.34" r="14" fill="#009af9" fill-rule="evenodd" fill-opacity="1" stroke="#000000" stroke-opacity="1" stroke-width="3.2"/>
<circle clip-path="url(#clip182)" cx="654.556" cy="1159.88" r="14" fill="#009af9" fill-rule="evenodd" fill-opacity="1" stroke="#000000" stroke-opacity="1" stroke-width="3.2"/>
<circle clip-path="url(#clip182)" cx="763.625" cy="1088.42" r="14" fill="#009af9" fill-rule="evenodd" fill-opacity="1" stroke="#000000" stroke-opacity="1" stroke-width="3.2"/>
<circle clip-path="url(#clip182)" cx="872.694" cy="1016.96" r="14" fill="#009af9" fill-rule="evenodd" fill-opacity="1" stroke="#000000" stroke-opacity="1" stroke-width="3.2"/>
<circle clip-path="url(#clip182)" cx="981.762" cy="945.496" r="14" fill="#009af9" fill-rule="evenodd" fill-opacity="1" stroke="#000000" stroke-opacity="1" stroke-width="3.2"/>
<circle clip-path="url(#clip182)" cx="1090.83" cy="874.036" r="14" fill="#009af9" fill-rule="evenodd" fill-opacity="1" stroke="#000000" stroke-opacity="1" stroke-width="3.2"/>
<circle clip-path="url(#clip182)" cx="1199.9" cy="802.576" r="14" fill="#009af9" fill-rule="evenodd" fill-opacity="1" stroke="#000000" stroke-opacity="1" stroke-width="3.2"/>
<circle clip-path="url(#clip182)" cx="1308.97" cy="731.116" r="14" fill="#009af9" fill-rule="evenodd" fill-opacity="1" stroke="#000000" stroke-opacity="1" stroke-width="3.2"/>
<circle clip-path="url(#clip182)" cx="1418.04" cy="659.656" r="14" fill="#009af9" fill-rule="evenodd" fill-opacity="1" stroke="#000000" stroke-opacity="1" stroke-width="3.2"/>
<circle clip-path="url(#clip182)" cx="1527.11" cy="588.196" r="14" fill="#009af9" fill-rule="evenodd" fill-opacity="1" stroke="#000000" stroke-opacity="1" stroke-width="3.2"/>
<circle clip-path="url(#clip182)" cx="1636.17" cy="516.736" r="14" fill="#009af9" fill-rule="evenodd" fill-opacity="1" stroke="#000000" stroke-opacity="1" stroke-width="3.2"/>
<circle clip-path="url(#clip182)" cx="1745.24" cy="445.276" r="14" fill="#009af9" fill-rule="evenodd" fill-opacity="1" stroke="#000000" stroke-opacity="1" stroke-width="3.2"/>
<circle clip-path="url(#clip182)" cx="1854.31" cy="373.816" r="14" fill="#009af9" fill-rule="evenodd" fill-opacity="1" stroke="#000000" stroke-opacity="1" stroke-width="3.2"/>
<circle clip-path="url(#clip182)" cx="1963.38" cy="302.356" r="14" fill="#009af9" fill-rule="evenodd" fill-opacity="1" stroke="#000000" stroke-opacity="1" stroke-width="3.2"/>
<circle clip-path="url(#clip182)" cx="2072.45" cy="230.896" r="14" fill="#009af9" fill-rule="evenodd" fill-opacity="1" stroke="#000000" stroke-opacity="1" stroke-width="3.2"/>
<circle clip-path="url(#clip182)" cx="2181.52" cy="159.436" r="14" fill="#009af9" fill-rule="evenodd" fill-opacity="1" stroke="#000000" stroke-opacity="1" stroke-width="3.2"/>
<circle clip-path="url(#clip182)" cx="2290.59" cy="87.9763" r="14" fill="#009af9" fill-rule="evenodd" fill-opacity="1" stroke="#000000" stroke-opacity="1" stroke-width="3.2"/>
<polyline clip-path="url(#clip182)" style="stroke:#e26f46; stroke-linecap:butt; stroke-linejoin:round; stroke-width:4; stroke-opacity:1; fill:none" points="
  218.281,1445.72 327.35,1332.91 436.419,1230.3 545.487,1137.7 654.556,1054.88 763.625,981.636 872.694,917.709 981.762,862.839 1090.83,816.736 1199.9,779.077 
  1308.97,749.499 1418.04,727.58 1527.11,712.814 1636.17,704.553 1745.24,701.857 1854.31,702.85 1963.38,708.861 2072.45,721.071 2181.52,740.21 2290.59,766.846 
  
  "/>
<path clip-path="url(#clip182)" d="M202.281 1429.72 L202.281 1461.72 L234.281 1461.72 L234.281 1429.72 L202.281 1429.72 Z" fill="#e26f46" fill-rule="evenodd" fill-opacity="1" stroke="#000000" stroke-opacity="1" stroke-width="3.2"/>
<path clip-path="url(#clip182)" d="M311.35 1316.91 L311.35 1348.91 L343.35 1348.91 L343.35 1316.91 L311.35 1316.91 Z" fill="#e26f46" fill-rule="evenodd" fill-opacity="1" stroke="#000000" stroke-opacity="1" stroke-width="3.2"/>
<path clip-path="url(#clip182)" d="M420.419 1214.3 L420.419 1246.3 L452.419 1246.3 L452.419 1214.3 L420.419 1214.3 Z" fill="#e26f46" fill-rule="evenodd" fill-opacity="1" stroke="#000000" stroke-opacity="1" stroke-width="3.2"/>
<path clip-path="url(#clip182)" d="M529.487 1121.7 L529.487 1153.7 L561.487 1153.7 L561.487 1121.7 L529.487 1121.7 Z" fill="#e26f46" fill-rule="evenodd" fill-opacity="1" stroke="#000000" stroke-opacity="1" stroke-width="3.2"/>
<path clip-path="url(#clip182)" d="M638.556 1038.88 L638.556 1070.88 L670.556 1070.88 L670.556 1038.88 L638.556 1038.88 Z" fill="#e26f46" fill-rule="evenodd" fill-opacity="1" stroke="#000000" stroke-opacity="1" stroke-width="3.2"/>
<path clip-path="url(#clip182)" d="M747.625 965.636 L747.625 997.636 L779.625 997.636 L779.625 965.636 L747.625 965.636 Z" fill="#e26f46" fill-rule="evenodd" fill-opacity="1" stroke="#000000" stroke-opacity="1" stroke-width="3.2"/>
<path clip-path="url(#clip182)" d="M856.694 901.709 L856.694 933.709 L888.694 933.709 L888.694 901.709 L856.694 901.709 Z" fill="#e26f46" fill-rule="evenodd" fill-opacity="1" stroke="#000000" stroke-opacity="1" stroke-width="3.2"/>
<path clip-path="url(#clip182)" d="M965.762 846.839 L965.762 878.839 L997.762 878.839 L997.762 846.839 L965.762 846.839 Z" fill="#e26f46" fill-rule="evenodd" fill-opacity="1" stroke="#000000" stroke-opacity="1" stroke-width="3.2"/>
<path clip-path="url(#clip182)" d="M1074.83 800.736 L1074.83 832.736 L1106.83 832.736 L1106.83 800.736 L1074.83 800.736 Z" fill="#e26f46" fill-rule="evenodd" fill-opacity="1" stroke="#000000" stroke-opacity="1" stroke-width="3.2"/>
<path clip-path="url(#clip182)" d="M1183.9 763.077 L1183.9 795.077 L1215.9 795.077 L1215.9 763.077 L1183.9 763.077 Z" fill="#e26f46" fill-rule="evenodd" fill-opacity="1" stroke="#000000" stroke-opacity="1" stroke-width="3.2"/>
<path clip-path="url(#clip182)" d="M1292.97 733.499 L1292.97 765.499 L1324.97 765.499 L1324.97 733.499 L1292.97 733.499 Z" fill="#e26f46" fill-rule="evenodd" fill-opacity="1" stroke="#000000" stroke-opacity="1" stroke-width="3.2"/>
<path clip-path="url(#clip182)" d="M1402.04 711.58 L1402.04 743.58 L1434.04 743.58 L1434.04 711.58 L1402.04 711.58 Z" fill="#e26f46" fill-rule="evenodd" fill-opacity="1" stroke="#000000" stroke-opacity="1" stroke-width="3.2"/>
<path clip-path="url(#clip182)" d="M1511.11 696.814 L1511.11 728.814 L1543.11 728.814 L1543.11 696.814 L1511.11 696.814 Z" fill="#e26f46" fill-rule="evenodd" fill-opacity="1" stroke="#000000" stroke-opacity="1" stroke-width="3.2"/>
<path clip-path="url(#clip182)" d="M1620.17 688.553 L1620.17 720.553 L1652.17 720.553 L1652.17 688.553 L1620.17 688.553 Z" fill="#e26f46" fill-rule="evenodd" fill-opacity="1" stroke="#000000" stroke-opacity="1" stroke-width="3.2"/>
<path clip-path="url(#clip182)" d="M1729.24 685.857 L1729.24 717.857 L1761.24 717.857 L1761.24 685.857 L1729.24 685.857 Z" fill="#e26f46" fill-rule="evenodd" fill-opacity="1" stroke="#000000" stroke-opacity="1" stroke-width="3.2"/>
<path clip-path="url(#clip182)" d="M1838.31 686.85 L1838.31 718.85 L1870.31 718.85 L1870.31 686.85 L1838.31 686.85 Z" fill="#e26f46" fill-rule="evenodd" fill-opacity="1" stroke="#000000" stroke-opacity="1" stroke-width="3.2"/>
<path clip-path="url(#clip182)" d="M1947.38 692.861 L1947.38 724.861 L1979.38 724.861 L1979.38 692.861 L1947.38 692.861 Z" fill="#e26f46" fill-rule="evenodd" fill-opacity="1" stroke="#000000" stroke-opacity="1" stroke-width="3.2"/>
<path clip-path="url(#clip182)" d="M2056.45 705.071 L2056.45 737.071 L2088.45 737.071 L2088.45 705.071 L2056.45 705.071 Z" fill="#e26f46" fill-rule="evenodd" fill-opacity="1" stroke="#000000" stroke-opacity="1" stroke-width="3.2"/>
<path clip-path="url(#clip182)" d="M2165.52 724.21 L2165.52 756.21 L2197.52 756.21 L2197.52 724.21 L2165.52 724.21 Z" fill="#e26f46" fill-rule="evenodd" fill-opacity="1" stroke="#000000" stroke-opacity="1" stroke-width="3.2"/>
<path clip-path="url(#clip182)" d="M2274.59 750.846 L2274.59 782.846 L2306.59 782.846 L2306.59 750.846 L2274.59 750.846 Z" fill="#e26f46" fill-rule="evenodd" fill-opacity="1" stroke="#000000" stroke-opacity="1" stroke-width="3.2"/>
<polyline clip-path="url(#clip182)" style="stroke:#3da44d; stroke-linecap:butt; stroke-linejoin:round; stroke-width:4; stroke-opacity:1; fill:none" points="
  218.281,1445.72 327.35,1332.89 436.419,1230.28 545.487,1137.67 654.556,1054.85 763.625,981.607 872.694,917.684 981.762,862.821 1090.83,816.726 1199.9,779.077 
  1308.97,749.509 1418.04,727.6 1527.11,712.843 1636.17,704.589 1745.24,701.897 1854.31,702.89 1963.38,708.898 2072.45,721.102 2181.52,740.235 2290.59,766.846 
  
  "/>
<path clip-path="url(#clip182)" d="M218.281 1429.72 L214.521 1440.53 L203.065 1440.77 L212.201 1447.7 L208.873 1458.66 L218.281 1452.12 L227.689 1458.66 L224.361 1447.7 L233.497 1440.77 L222.041 1440.53 L218.281 1429.72 Z" fill="#3da44d" fill-rule="evenodd" fill-opacity="1" stroke="#000000" stroke-opacity="1" stroke-width="3.2"/>
<path clip-path="url(#clip182)" d="M327.35 1316.89 L323.59 1327.71 L312.134 1327.95 L321.27 1334.88 L317.942 1345.84 L327.35 1339.29 L336.758 1345.84 L333.43 1334.88 L342.566 1327.95 L331.11 1327.71 L327.35 1316.89 Z" fill="#3da44d" fill-rule="evenodd" fill-opacity="1" stroke="#000000" stroke-opacity="1" stroke-width="3.2"/>
<path clip-path="url(#clip182)" d="M436.419 1214.28 L432.659 1225.09 L421.203 1225.33 L430.339 1232.26 L427.011 1243.22 L436.419 1236.68 L445.827 1243.22 L442.499 1232.26 L451.635 1225.33 L440.179 1225.09 L436.419 1214.28 Z" fill="#3da44d" fill-rule="evenodd" fill-opacity="1" stroke="#000000" stroke-opacity="1" stroke-width="3.2"/>
<path clip-path="url(#clip182)" d="M545.487 1121.67 L541.727 1132.48 L530.271 1132.72 L539.407 1139.65 L536.079 1150.61 L545.487 1144.07 L554.895 1150.61 L551.567 1139.65 L560.703 1132.72 L549.247 1132.48 L545.487 1121.67 Z" fill="#3da44d" fill-rule="evenodd" fill-opacity="1" stroke="#000000" stroke-opacity="1" stroke-width="3.2"/>
<path clip-path="url(#clip182)" d="M654.556 1038.85 L650.796 1049.67 L639.34 1049.91 L648.476 1056.84 L645.148 1067.8 L654.556 1061.25 L663.964 1067.8 L660.636 1056.84 L669.772 1049.91 L658.316 1049.67 L654.556 1038.85 Z" fill="#3da44d" fill-rule="evenodd" fill-opacity="1" stroke="#000000" stroke-opacity="1" stroke-width="3.2"/>
<path clip-path="url(#clip182)" d="M763.625 965.607 L759.865 976.423 L748.409 976.663 L757.545 983.591 L754.217 994.551 L763.625 988.007 L773.033 994.551 L769.705 983.591 L778.841 976.663 L767.385 976.423 L763.625 965.607 Z" fill="#3da44d" fill-rule="evenodd" fill-opacity="1" stroke="#000000" stroke-opacity="1" stroke-width="3.2"/>
<path clip-path="url(#clip182)" d="M872.694 901.684 L868.934 912.5 L857.478 912.74 L866.614 919.668 L863.286 930.628 L872.694 924.084 L882.102 930.628 L878.774 919.668 L887.91 912.74 L876.454 912.5 L872.694 901.684 Z" fill="#3da44d" fill-rule="evenodd" fill-opacity="1" stroke="#000000" stroke-opacity="1" stroke-width="3.2"/>
<path clip-path="url(#clip182)" d="M981.762 846.821 L978.002 857.637 L966.546 857.877 L975.682 864.805 L972.354 875.765 L981.762 869.221 L991.17 875.765 L987.842 864.805 L996.978 857.877 L985.522 857.637 L981.762 846.821 Z" fill="#3da44d" fill-rule="evenodd" fill-opacity="1" stroke="#000000" stroke-opacity="1" stroke-width="3.2"/>
<path clip-path="url(#clip182)" d="M1090.83 800.726 L1087.07 811.542 L1075.61 811.782 L1084.75 818.71 L1081.42 829.67 L1090.83 823.126 L1100.24 829.67 L1096.91 818.71 L1106.05 811.782 L1094.59 811.542 L1090.83 800.726 Z" fill="#3da44d" fill-rule="evenodd" fill-opacity="1" stroke="#000000" stroke-opacity="1" stroke-width="3.2"/>
<path clip-path="url(#clip182)" d="M1199.9 763.077 L1196.14 773.893 L1184.68 774.133 L1193.82 781.061 L1190.49 792.021 L1199.9 785.477 L1209.31 792.021 L1205.98 781.061 L1215.12 774.133 L1203.66 773.893 L1199.9 763.077 Z" fill="#3da44d" fill-rule="evenodd" fill-opacity="1" stroke="#000000" stroke-opacity="1" stroke-width="3.2"/>
<path clip-path="url(#clip182)" d="M1308.97 733.509 L1305.21 744.325 L1293.75 744.565 L1302.89 751.493 L1299.56 762.453 L1308.97 755.909 L1318.38 762.453 L1315.05 751.493 L1324.18 744.565 L1312.73 744.325 L1308.97 733.509 Z" fill="#3da44d" fill-rule="evenodd" fill-opacity="1" stroke="#000000" stroke-opacity="1" stroke-width="3.2"/>
<path clip-path="url(#clip182)" d="M1418.04 711.6 L1414.28 722.416 L1402.82 722.656 L1411.96 729.584 L1408.63 740.544 L1418.04 734 L1427.45 740.544 L1424.12 729.584 L1433.25 722.656 L1421.8 722.416 L1418.04 711.6 Z" fill="#3da44d" fill-rule="evenodd" fill-opacity="1" stroke="#000000" stroke-opacity="1" stroke-width="3.2"/>
<path clip-path="url(#clip182)" d="M1527.11 696.843 L1523.35 707.659 L1511.89 707.899 L1521.03 714.827 L1517.7 725.787 L1527.11 719.243 L1536.51 725.787 L1533.19 714.827 L1542.32 707.899 L1530.87 707.659 L1527.11 696.843 Z" fill="#3da44d" fill-rule="evenodd" fill-opacity="1" stroke="#000000" stroke-opacity="1" stroke-width="3.2"/>
<path clip-path="url(#clip182)" d="M1636.17 688.589 L1632.41 699.405 L1620.96 699.645 L1630.09 706.573 L1626.77 717.533 L1636.17 710.989 L1645.58 717.533 L1642.25 706.573 L1651.39 699.645 L1639.93 699.405 L1636.17 688.589 Z" fill="#3da44d" fill-rule="evenodd" fill-opacity="1" stroke="#000000" stroke-opacity="1" stroke-width="3.2"/>
<path clip-path="url(#clip182)" d="M1745.24 685.897 L1741.48 696.713 L1730.03 696.953 L1739.16 703.881 L1735.84 714.841 L1745.24 708.297 L1754.65 714.841 L1751.32 703.881 L1760.46 696.953 L1749 696.713 L1745.24 685.897 Z" fill="#3da44d" fill-rule="evenodd" fill-opacity="1" stroke="#000000" stroke-opacity="1" stroke-width="3.2"/>
<path clip-path="url(#clip182)" d="M1854.31 686.89 L1850.55 697.706 L1839.1 697.946 L1848.23 704.874 L1844.9 715.834 L1854.31 709.29 L1863.72 715.834 L1860.39 704.874 L1869.53 697.946 L1858.07 697.706 L1854.31 686.89 Z" fill="#3da44d" fill-rule="evenodd" fill-opacity="1" stroke="#000000" stroke-opacity="1" stroke-width="3.2"/>
<path clip-path="url(#clip182)" d="M1963.38 692.898 L1959.62 703.714 L1948.16 703.954 L1957.3 710.882 L1953.97 721.842 L1963.38 715.298 L1972.79 721.842 L1969.46 710.882 L1978.6 703.954 L1967.14 703.714 L1963.38 692.898 Z" fill="#3da44d" fill-rule="evenodd" fill-opacity="1" stroke="#000000" stroke-opacity="1" stroke-width="3.2"/>
<path clip-path="url(#clip182)" d="M2072.45 705.102 L2068.69 715.918 L2057.23 716.158 L2066.37 723.086 L2063.04 734.046 L2072.45 727.502 L2081.86 734.046 L2078.53 723.086 L2087.67 716.158 L2076.21 715.918 L2072.45 705.102 Z" fill="#3da44d" fill-rule="evenodd" fill-opacity="1" stroke="#000000" stroke-opacity="1" stroke-width="3.2"/>
<path clip-path="url(#clip182)" d="M2181.52 724.235 L2177.76 735.051 L2166.3 735.291 L2175.44 742.219 L2172.11 753.179 L2181.52 746.635 L2190.93 753.179 L2187.6 742.219 L2196.73 735.291 L2185.28 735.051 L2181.52 724.235 Z" fill="#3da44d" fill-rule="evenodd" fill-opacity="1" stroke="#000000" stroke-opacity="1" stroke-width="3.2"/>
<path clip-path="url(#clip182)" d="M2290.59 750.846 L2286.83 761.662 L2275.37 761.902 L2284.51 768.83 L2281.18 779.79 L2290.59 773.246 L2299.99 779.79 L2296.67 768.83 L2305.8 761.902 L2294.35 761.662 L2290.59 750.846 Z" fill="#3da44d" fill-rule="evenodd" fill-opacity="1" stroke="#000000" stroke-opacity="1" stroke-width="3.2"/>
<polyline clip-path="url(#clip182)" style="stroke:#c271d2; stroke-linecap:butt; stroke-linejoin:round; stroke-width:4; stroke-opacity:1; fill:none" points="
  218.281,1445.72 327.35,1332.89 436.419,1230.28 545.487,1137.67 654.556,1054.85 763.625,981.607 872.694,917.684 981.762,862.821 1090.83,816.726 1199.9,779.077 
  1308.97,749.509 1418.04,727.6 1527.11,712.843 1636.17,704.589 1745.24,701.897 1854.31,702.89 1963.38,708.898 2072.45,721.102 2181.52,740.235 2290.59,766.846 
  
  "/>
<path clip-path="url(#clip182)" d="M218.281 1429.72 L202.281 1445.72 L218.281 1461.72 L234.281 1445.72 L218.281 1429.72 Z" fill="#c271d2" fill-rule="evenodd" fill-opacity="1" stroke="#000000" stroke-opacity="1" stroke-width="3.2"/>
<path clip-path="url(#clip182)" d="M327.35 1316.89 L311.35 1332.89 L327.35 1348.89 L343.35 1332.89 L327.35 1316.89 Z" fill="#c271d2" fill-rule="evenodd" fill-opacity="1" stroke="#000000" stroke-opacity="1" stroke-width="3.2"/>
<path clip-path="url(#clip182)" d="M436.419 1214.28 L420.419 1230.28 L436.419 1246.28 L452.419 1230.28 L436.419 1214.28 Z" fill="#c271d2" fill-rule="evenodd" fill-opacity="1" stroke="#000000" stroke-opacity="1" stroke-width="3.2"/>
<path clip-path="url(#clip182)" d="M545.487 1121.67 L529.487 1137.67 L545.487 1153.67 L561.487 1137.67 L545.487 1121.67 Z" fill="#c271d2" fill-rule="evenodd" fill-opacity="1" stroke="#000000" stroke-opacity="1" stroke-width="3.2"/>
<path clip-path="url(#clip182)" d="M654.556 1038.85 L638.556 1054.85 L654.556 1070.85 L670.556 1054.85 L654.556 1038.85 Z" fill="#c271d2" fill-rule="evenodd" fill-opacity="1" stroke="#000000" stroke-opacity="1" stroke-width="3.2"/>
<path clip-path="url(#clip182)" d="M763.625 965.607 L747.625 981.607 L763.625 997.607 L779.625 981.607 L763.625 965.607 Z" fill="#c271d2" fill-rule="evenodd" fill-opacity="1" stroke="#000000" stroke-opacity="1" stroke-width="3.2"/>
<path clip-path="url(#clip182)" d="M872.694 901.684 L856.694 917.684 L872.694 933.684 L888.694 917.684 L872.694 901.684 Z" fill="#c271d2" fill-rule="evenodd" fill-opacity="1" stroke="#000000" stroke-opacity="1" stroke-width="3.2"/>
<path clip-path="url(#clip182)" d="M981.762 846.821 L965.762 862.821 L981.762 878.821 L997.762 862.821 L981.762 846.821 Z" fill="#c271d2" fill-rule="evenodd" fill-opacity="1" stroke="#000000" stroke-opacity="1" stroke-width="3.2"/>
<path clip-path="url(#clip182)" d="M1090.83 800.726 L1074.83 816.726 L1090.83 832.726 L1106.83 816.726 L1090.83 800.726 Z" fill="#c271d2" fill-rule="evenodd" fill-opacity="1" stroke="#000000" stroke-opacity="1" stroke-width="3.2"/>
<path clip-path="url(#clip182)" d="M1199.9 763.077 L1183.9 779.077 L1199.9 795.077 L1215.9 779.077 L1199.9 763.077 Z" fill="#c271d2" fill-rule="evenodd" fill-opacity="1" stroke="#000000" stroke-opacity="1" stroke-width="3.2"/>
<path clip-path="url(#clip182)" d="M1308.97 733.509 L1292.97 749.509 L1308.97 765.509 L1324.97 749.509 L1308.97 733.509 Z" fill="#c271d2" fill-rule="evenodd" fill-opacity="1" stroke="#000000" stroke-opacity="1" stroke-width="3.2"/>
<path clip-path="url(#clip182)" d="M1418.04 711.6 L1402.04 727.6 L1418.04 743.6 L1434.04 727.6 L1418.04 711.6 Z" fill="#c271d2" fill-rule="evenodd" fill-opacity="1" stroke="#000000" stroke-opacity="1" stroke-width="3.2"/>
<path clip-path="url(#clip182)" d="M1527.11 696.843 L1511.11 712.843 L1527.11 728.843 L1543.11 712.843 L1527.11 696.843 Z" fill="#c271d2" fill-rule="evenodd" fill-opacity="1" stroke="#000000" stroke-opacity="1" stroke-width="3.2"/>
<path clip-path="url(#clip182)" d="M1636.17 688.589 L1620.17 704.589 L1636.17 720.589 L1652.17 704.589 L1636.17 688.589 Z" fill="#c271d2" fill-rule="evenodd" fill-opacity="1" stroke="#000000" stroke-opacity="1" stroke-width="3.2"/>
<path clip-path="url(#clip182)" d="M1745.24 685.897 L1729.24 701.897 L1745.24 717.897 L1761.24 701.897 L1745.24 685.897 Z" fill="#c271d2" fill-rule="evenodd" fill-opacity="1" stroke="#000000" stroke-opacity="1" stroke-width="3.2"/>
<path clip-path="url(#clip182)" d="M1854.31 686.89 L1838.31 702.89 L1854.31 718.89 L1870.31 702.89 L1854.31 686.89 Z" fill="#c271d2" fill-rule="evenodd" fill-opacity="1" stroke="#000000" stroke-opacity="1" stroke-width="3.2"/>
<path clip-path="url(#clip182)" d="M1963.38 692.898 L1947.38 708.898 L1963.38 724.898 L1979.38 708.898 L1963.38 692.898 Z" fill="#c271d2" fill-rule="evenodd" fill-opacity="1" stroke="#000000" stroke-opacity="1" stroke-width="3.2"/>
<path clip-path="url(#clip182)" d="M2072.45 705.102 L2056.45 721.102 L2072.45 737.102 L2088.45 721.102 L2072.45 705.102 Z" fill="#c271d2" fill-rule="evenodd" fill-opacity="1" stroke="#000000" stroke-opacity="1" stroke-width="3.2"/>
<path clip-path="url(#clip182)" d="M2181.52 724.235 L2165.52 740.235 L2181.52 756.235 L2197.52 740.235 L2181.52 724.235 Z" fill="#c271d2" fill-rule="evenodd" fill-opacity="1" stroke="#000000" stroke-opacity="1" stroke-width="3.2"/>
<path clip-path="url(#clip182)" d="M2290.59 750.846 L2274.59 766.846 L2290.59 782.846 L2306.59 766.846 L2290.59 750.846 Z" fill="#c271d2" fill-rule="evenodd" fill-opacity="1" stroke="#000000" stroke-opacity="1" stroke-width="3.2"/>
<polyline clip-path="url(#clip182)" style="stroke:#ac8d18; stroke-linecap:butt; stroke-linejoin:round; stroke-width:4; stroke-opacity:1; fill:none" points="
  218.281,1445.72 327.35,1332.89 436.419,1230.28 545.487,1137.67 654.556,1054.85 763.625,981.607 872.694,917.684 981.762,862.821 1090.83,816.726 1199.9,779.077 
  1308.97,749.509 1418.04,727.6 1527.11,712.843 1636.17,704.589 1745.24,701.897 1854.31,702.89 1963.38,708.898 2072.45,721.102 2181.52,740.235 2290.59,766.846 
  
  "/>
<path clip-path="url(#clip182)" d="M218.281 1461.72 L204.425 1453.72 L204.425 1437.72 L218.281 1429.72 L232.137 1437.72 L232.137 1453.72 Z" fill="#ac8d18" fill-rule="evenodd" fill-opacity="1" stroke="#000000" stroke-opacity="1" stroke-width="3.2"/>
<path clip-path="url(#clip182)" d="M327.35 1348.89 L313.494 1340.89 L313.494 1324.89 L327.35 1316.89 L341.206 1324.89 L341.206 1340.89 Z" fill="#ac8d18" fill-rule="evenodd" fill-opacity="1" stroke="#000000" stroke-opacity="1" stroke-width="3.2"/>
<path clip-path="url(#clip182)" d="M436.419 1246.28 L422.563 1238.28 L422.563 1222.28 L436.419 1214.28 L450.275 1222.28 L450.275 1238.28 Z" fill="#ac8d18" fill-rule="evenodd" fill-opacity="1" stroke="#000000" stroke-opacity="1" stroke-width="3.2"/>
<path clip-path="url(#clip182)" d="M545.487 1153.67 L531.631 1145.67 L531.631 1129.67 L545.487 1121.67 L559.343 1129.67 L559.343 1145.67 Z" fill="#ac8d18" fill-rule="evenodd" fill-opacity="1" stroke="#000000" stroke-opacity="1" stroke-width="3.2"/>
<path clip-path="url(#clip182)" d="M654.556 1070.85 L640.7 1062.85 L640.7 1046.85 L654.556 1038.85 L668.412 1046.85 L668.412 1062.85 Z" fill="#ac8d18" fill-rule="evenodd" fill-opacity="1" stroke="#000000" stroke-opacity="1" stroke-width="3.2"/>
<path clip-path="url(#clip182)" d="M763.625 997.607 L749.769 989.607 L749.769 973.607 L763.625 965.607 L777.481 973.607 L777.481 989.607 Z" fill="#ac8d18" fill-rule="evenodd" fill-opacity="1" stroke="#000000" stroke-opacity="1" stroke-width="3.2"/>
<path clip-path="url(#clip182)" d="M872.694 933.684 L858.838 925.684 L858.838 909.684 L872.694 901.684 L886.55 909.684 L886.55 925.684 Z" fill="#ac8d18" fill-rule="evenodd" fill-opacity="1" stroke="#000000" stroke-opacity="1" stroke-width="3.2"/>
<path clip-path="url(#clip182)" d="M981.762 878.821 L967.906 870.821 L967.906 854.821 L981.762 846.821 L995.618 854.821 L995.618 870.821 Z" fill="#ac8d18" fill-rule="evenodd" fill-opacity="1" stroke="#000000" stroke-opacity="1" stroke-width="3.2"/>
<path clip-path="url(#clip182)" d="M1090.83 832.726 L1076.97 824.726 L1076.97 808.726 L1090.83 800.726 L1104.69 808.726 L1104.69 824.726 Z" fill="#ac8d18" fill-rule="evenodd" fill-opacity="1" stroke="#000000" stroke-opacity="1" stroke-width="3.2"/>
<path clip-path="url(#clip182)" d="M1199.9 795.077 L1186.04 787.077 L1186.04 771.077 L1199.9 763.077 L1213.76 771.077 L1213.76 787.077 Z" fill="#ac8d18" fill-rule="evenodd" fill-opacity="1" stroke="#000000" stroke-opacity="1" stroke-width="3.2"/>
<path clip-path="url(#clip182)" d="M1308.97 765.509 L1295.11 757.509 L1295.11 741.509 L1308.97 733.509 L1322.82 741.509 L1322.82 757.509 Z" fill="#ac8d18" fill-rule="evenodd" fill-opacity="1" stroke="#000000" stroke-opacity="1" stroke-width="3.2"/>
<path clip-path="url(#clip182)" d="M1418.04 743.6 L1404.18 735.6 L1404.18 719.6 L1418.04 711.6 L1431.89 719.6 L1431.89 735.6 Z" fill="#ac8d18" fill-rule="evenodd" fill-opacity="1" stroke="#000000" stroke-opacity="1" stroke-width="3.2"/>
<path clip-path="url(#clip182)" d="M1527.11 728.843 L1513.25 720.843 L1513.25 704.843 L1527.11 696.843 L1540.96 704.843 L1540.96 720.843 Z" fill="#ac8d18" fill-rule="evenodd" fill-opacity="1" stroke="#000000" stroke-opacity="1" stroke-width="3.2"/>
<path clip-path="url(#clip182)" d="M1636.17 720.589 L1622.32 712.589 L1622.32 696.589 L1636.17 688.589 L1650.03 696.589 L1650.03 712.589 Z" fill="#ac8d18" fill-rule="evenodd" fill-opacity="1" stroke="#000000" stroke-opacity="1" stroke-width="3.2"/>
<path clip-path="url(#clip182)" d="M1745.24 717.897 L1731.39 709.897 L1731.39 693.897 L1745.24 685.897 L1759.1 693.897 L1759.1 709.897 Z" fill="#ac8d18" fill-rule="evenodd" fill-opacity="1" stroke="#000000" stroke-opacity="1" stroke-width="3.2"/>
<path clip-path="url(#clip182)" d="M1854.31 718.89 L1840.46 710.89 L1840.46 694.89 L1854.31 686.89 L1868.17 694.89 L1868.17 710.89 Z" fill="#ac8d18" fill-rule="evenodd" fill-opacity="1" stroke="#000000" stroke-opacity="1" stroke-width="3.2"/>
<path clip-path="url(#clip182)" d="M1963.38 724.898 L1949.52 716.898 L1949.52 700.898 L1963.38 692.898 L1977.24 700.898 L1977.24 716.898 Z" fill="#ac8d18" fill-rule="evenodd" fill-opacity="1" stroke="#000000" stroke-opacity="1" stroke-width="3.2"/>
<path clip-path="url(#clip182)" d="M2072.45 737.102 L2058.59 729.102 L2058.59 713.102 L2072.45 705.102 L2086.31 713.102 L2086.31 729.102 Z" fill="#ac8d18" fill-rule="evenodd" fill-opacity="1" stroke="#000000" stroke-opacity="1" stroke-width="3.2"/>
<path clip-path="url(#clip182)" d="M2181.52 756.235 L2167.66 748.235 L2167.66 732.235 L2181.52 724.235 L2195.37 732.235 L2195.37 748.235 Z" fill="#ac8d18" fill-rule="evenodd" fill-opacity="1" stroke="#000000" stroke-opacity="1" stroke-width="3.2"/>
<path clip-path="url(#clip182)" d="M2290.59 782.846 L2276.73 774.846 L2276.73 758.846 L2290.59 750.846 L2304.44 758.846 L2304.44 774.846 Z" fill="#ac8d18" fill-rule="evenodd" fill-opacity="1" stroke="#000000" stroke-opacity="1" stroke-width="3.2"/>
<path clip-path="url(#clip180)" d="
M1981.32 1438.47 L2279.53 1438.47 L2279.53 1127.43 L1981.32 1127.43  Z
  " fill="#ffffff" fill-rule="evenodd" fill-opacity="1"/>
<polyline clip-path="url(#clip180)" style="stroke:#000000; stroke-linecap:butt; stroke-linejoin:round; stroke-width:4; stroke-opacity:1; fill:none" points="
  1981.32,1438.47 2279.53,1438.47 2279.53,1127.43 1981.32,1127.43 1981.32,1438.47 
  "/>
<polyline clip-path="url(#clip180)" style="stroke:#009af9; stroke-linecap:butt; stroke-linejoin:round; stroke-width:4; stroke-opacity:1; fill:none" points="
  2005.73,1179.27 2152.17,1179.27 
  "/>
<circle clip-path="url(#clip180)" cx="2078.95" cy="1179.27" r="23" fill="#009af9" fill-rule="evenodd" fill-opacity="1" stroke="#000000" stroke-opacity="1" stroke-width="5.12"/>
<path clip-path="url(#clip180)" d="M2190.42 1198.96 Q2188.61 1203.59 2186.9 1205 Q2185.19 1206.42 2182.32 1206.42 L2178.91 1206.42 L2178.91 1202.85 L2181.41 1202.85 Q2183.17 1202.85 2184.15 1202.02 Q2185.12 1201.18 2186.3 1198.08 L2187.06 1196.14 L2176.58 1170.63 L2181.09 1170.63 L2189.19 1190.91 L2197.29 1170.63 L2201.81 1170.63 L2190.42 1198.96 Z" fill="#000000" fill-rule="evenodd" fill-opacity="1" /><path clip-path="url(#clip180)" d="M2209.1 1192.62 L2216.74 1192.62 L2216.74 1166.25 L2208.43 1167.92 L2208.43 1163.66 L2216.69 1161.99 L2221.37 1161.99 L2221.37 1192.62 L2229.01 1192.62 L2229.01 1196.55 L2209.1 1196.55 L2209.1 1192.62 Z" fill="#000000" fill-rule="evenodd" fill-opacity="1" /><polyline clip-path="url(#clip180)" style="stroke:#e26f46; stroke-linecap:butt; stroke-linejoin:round; stroke-width:4; stroke-opacity:1; fill:none" points="
  2005.73,1231.11 2152.17,1231.11 
  "/>
<path clip-path="url(#clip180)" d="M2053.35 1205.51 L2053.35 1256.71 L2104.55 1256.71 L2104.55 1205.51 L2053.35 1205.51 Z" fill="#e26f46" fill-rule="evenodd" fill-opacity="1" stroke="#000000" stroke-opacity="1" stroke-width="5.12"/>
<path clip-path="url(#clip180)" d="M2190.42 1250.8 Q2188.61 1255.43 2186.9 1256.84 Q2185.19 1258.26 2182.32 1258.26 L2178.91 1258.26 L2178.91 1254.69 L2181.41 1254.69 Q2183.17 1254.69 2184.15 1253.86 Q2185.12 1253.02 2186.3 1249.92 L2187.06 1247.98 L2176.58 1222.47 L2181.09 1222.47 L2189.19 1242.75 L2197.29 1222.47 L2201.81 1222.47 L2190.42 1250.8 Z" fill="#000000" fill-rule="evenodd" fill-opacity="1" /><path clip-path="url(#clip180)" d="M2212.32 1244.46 L2228.64 1244.46 L2228.64 1248.39 L2206.69 1248.39 L2206.69 1244.46 Q2209.35 1241.7 2213.94 1237.08 Q2218.54 1232.42 2219.72 1231.08 Q2221.97 1228.56 2222.85 1226.82 Q2223.75 1225.06 2223.75 1223.37 Q2223.75 1220.62 2221.81 1218.88 Q2219.89 1217.14 2216.79 1217.14 Q2214.59 1217.14 2212.13 1217.91 Q2209.7 1218.67 2206.92 1220.22 L2206.92 1215.5 Q2209.75 1214.37 2212.2 1213.79 Q2214.66 1213.21 2216.69 1213.21 Q2222.06 1213.21 2225.26 1215.89 Q2228.45 1218.58 2228.45 1223.07 Q2228.45 1225.2 2227.64 1227.12 Q2226.85 1229.02 2224.75 1231.61 Q2224.17 1232.28 2221.07 1235.5 Q2217.97 1238.7 2212.32 1244.46 Z" fill="#000000" fill-rule="evenodd" fill-opacity="1" /><polyline clip-path="url(#clip180)" style="stroke:#3da44d; stroke-linecap:butt; stroke-linejoin:round; stroke-width:4; stroke-opacity:1; fill:none" points="
  2005.73,1282.95 2152.17,1282.95 
  "/>
<path clip-path="url(#clip180)" d="M2078.95 1257.35 L2072.93 1274.66 L2054.6 1275.04 L2069.22 1286.13 L2063.9 1303.66 L2078.95 1293.19 L2094 1303.66 L2088.68 1286.13 L2103.29 1275.04 L2084.96 1274.66 L2078.95 1257.35 Z" fill="#3da44d" fill-rule="evenodd" fill-opacity="1" stroke="#000000" stroke-opacity="1" stroke-width="5.12"/>
<path clip-path="url(#clip180)" d="M2190.42 1302.64 Q2188.61 1307.27 2186.9 1308.68 Q2185.19 1310.1 2182.32 1310.1 L2178.91 1310.1 L2178.91 1306.53 L2181.41 1306.53 Q2183.17 1306.53 2184.15 1305.7 Q2185.12 1304.86 2186.3 1301.76 L2187.06 1299.82 L2176.58 1274.31 L2181.09 1274.31 L2189.19 1294.59 L2197.29 1274.31 L2201.81 1274.31 L2190.42 1302.64 Z" fill="#000000" fill-rule="evenodd" fill-opacity="1" /><path clip-path="url(#clip180)" d="M2222.46 1281.6 Q2225.81 1282.32 2227.69 1284.59 Q2229.59 1286.85 2229.59 1290.19 Q2229.59 1295.3 2226.07 1298.1 Q2222.55 1300.91 2216.07 1300.91 Q2213.89 1300.91 2211.58 1300.47 Q2209.29 1300.05 2206.83 1299.19 L2206.83 1294.68 Q2208.78 1295.81 2211.09 1296.39 Q2213.41 1296.97 2215.93 1296.97 Q2220.33 1296.97 2222.62 1295.23 Q2224.93 1293.5 2224.93 1290.19 Q2224.93 1287.13 2222.78 1285.42 Q2220.65 1283.68 2216.83 1283.68 L2212.8 1283.68 L2212.8 1279.84 L2217.02 1279.84 Q2220.47 1279.84 2222.29 1278.48 Q2224.12 1277.09 2224.12 1274.49 Q2224.12 1271.83 2222.22 1270.42 Q2220.35 1268.98 2216.83 1268.98 Q2214.91 1268.98 2212.71 1269.4 Q2210.51 1269.82 2207.87 1270.7 L2207.87 1266.53 Q2210.54 1265.79 2212.85 1265.42 Q2215.19 1265.05 2217.25 1265.05 Q2222.57 1265.05 2225.67 1267.48 Q2228.78 1269.89 2228.78 1274.01 Q2228.78 1276.88 2227.13 1278.87 Q2225.49 1280.84 2222.46 1281.6 Z" fill="#000000" fill-rule="evenodd" fill-opacity="1" /><polyline clip-path="url(#clip180)" style="stroke:#c271d2; stroke-linecap:butt; stroke-linejoin:round; stroke-width:4; stroke-opacity:1; fill:none" points="
  2005.73,1334.79 2152.17,1334.79 
  "/>
<path clip-path="url(#clip180)" d="M2078.95 1309.19 L2053.35 1334.79 L2078.95 1360.39 L2104.55 1334.79 L2078.95 1309.19 Z" fill="#c271d2" fill-rule="evenodd" fill-opacity="1" stroke="#000000" stroke-opacity="1" stroke-width="5.12"/>
<path clip-path="url(#clip180)" d="M2190.42 1354.48 Q2188.61 1359.11 2186.9 1360.52 Q2185.19 1361.94 2182.32 1361.94 L2178.91 1361.94 L2178.91 1358.37 L2181.41 1358.37 Q2183.17 1358.37 2184.15 1357.54 Q2185.12 1356.7 2186.3 1353.6 L2187.06 1351.66 L2176.58 1326.15 L2181.09 1326.15 L2189.19 1346.43 L2197.29 1326.15 L2201.81 1326.15 L2190.42 1354.48 Z" fill="#000000" fill-rule="evenodd" fill-opacity="1" /><path clip-path="url(#clip180)" d="M2221.14 1321.59 L2209.33 1340.04 L2221.14 1340.04 L2221.14 1321.59 M2219.91 1317.51 L2225.79 1317.51 L2225.79 1340.04 L2230.72 1340.04 L2230.72 1343.93 L2225.79 1343.93 L2225.79 1352.07 L2221.14 1352.07 L2221.14 1343.93 L2205.54 1343.93 L2205.54 1339.41 L2219.91 1317.51 Z" fill="#000000" fill-rule="evenodd" fill-opacity="1" /><polyline clip-path="url(#clip180)" style="stroke:#ac8d18; stroke-linecap:butt; stroke-linejoin:round; stroke-width:4; stroke-opacity:1; fill:none" points="
  2005.73,1386.63 2152.17,1386.63 
  "/>
<path clip-path="url(#clip180)" d="M2078.95 1412.23 L2056.78 1399.43 L2056.78 1373.83 L2078.95 1361.03 L2101.12 1373.83 L2101.12 1399.43 Z" fill="#ac8d18" fill-rule="evenodd" fill-opacity="1" stroke="#000000" stroke-opacity="1" stroke-width="5.12"/>
<path clip-path="url(#clip180)" d="M2190.42 1406.32 Q2188.61 1410.95 2186.9 1412.36 Q2185.19 1413.78 2182.32 1413.78 L2178.91 1413.78 L2178.91 1410.21 L2181.41 1410.21 Q2183.17 1410.21 2184.15 1409.38 Q2185.12 1408.54 2186.3 1405.44 L2187.06 1403.5 L2176.58 1377.99 L2181.09 1377.99 L2189.19 1398.27 L2197.29 1377.99 L2201.81 1377.99 L2190.42 1406.32 Z" fill="#000000" fill-rule="evenodd" fill-opacity="1" /><path clip-path="url(#clip180)" d="M2208.34 1369.35 L2226.69 1369.35 L2226.69 1373.29 L2212.62 1373.29 L2212.62 1381.76 Q2213.64 1381.41 2214.66 1381.25 Q2215.67 1381.07 2216.69 1381.07 Q2222.48 1381.07 2225.86 1384.24 Q2229.24 1387.41 2229.24 1392.83 Q2229.24 1398.41 2225.77 1401.51 Q2222.29 1404.59 2215.97 1404.59 Q2213.8 1404.59 2211.53 1404.22 Q2209.29 1403.84 2206.88 1403.1 L2206.88 1398.41 Q2208.96 1399.54 2211.18 1400.09 Q2213.41 1400.65 2215.88 1400.65 Q2219.89 1400.65 2222.22 1398.54 Q2224.56 1396.44 2224.56 1392.83 Q2224.56 1389.22 2222.22 1387.11 Q2219.89 1385 2215.88 1385 Q2214.01 1385 2212.13 1385.42 Q2210.28 1385.84 2208.34 1386.72 L2208.34 1369.35 Z" fill="#000000" fill-rule="evenodd" fill-opacity="1" /></svg>
