<?xml version="1.0" encoding="utf-8"?>
<svg xmlns="http://www.w3.org/2000/svg" xmlns:xlink="http://www.w3.org/1999/xlink" width="600" height="400" viewBox="0 0 2400 1600">
<defs>
  <clipPath id="clip840">
    <rect x="0" y="0" width="2400" height="1600"/>
  </clipPath>
</defs>
<path clip-path="url(#clip840)" d="
M0 1600 L2400 1600 L2400 0 L0 0  Z
  " fill="#ffffff" fill-rule="evenodd" fill-opacity="1"/>
<defs>
  <clipPath id="clip841">
    <rect x="480" y="0" width="1681" height="1600"/>
  </clipPath>
</defs>
<path clip-path="url(#clip840)" d="
M188.292 1474.16 L2352.76 1474.16 L2352.76 47.2441 L188.292 47.2441  Z
  " fill="#ffffff" fill-rule="evenodd" fill-opacity="1"/>
<defs>
  <clipPath id="clip842">
    <rect x="188" y="47" width="2165" height="1428"/>
  </clipPath>
</defs>
<polyline clip-path="url(#clip842)" style="stroke:#000000; stroke-linecap:butt; stroke-linejoin:round; stroke-width:2; stroke-opacity:0.1; fill:none" points="
  645.147,1474.16 645.147,47.2441 
  "/>
<polyline clip-path="url(#clip842)" style="stroke:#000000; stroke-linecap:butt; stroke-linejoin:round; stroke-width:2; stroke-opacity:0.1; fill:none" points="
  1614.18,1474.16 1614.18,47.2441 
  "/>
<polyline clip-path="url(#clip840)" style="stroke:#000000; stroke-linecap:butt; stroke-linejoin:round; stroke-width:4; stroke-opacity:1; fill:none" points="
  188.292,1474.16 2352.76,1474.16 
  "/>
<polyline clip-path="url(#clip840)" style="stroke:#000000; stroke-linecap:butt; stroke-linejoin:round; stroke-width:4; stroke-opacity:1; fill:none" points="
  645.147,1474.16 645.147,1455.27 
  "/>
<polyline clip-path="url(#clip840)" style="stroke:#000000; stroke-linecap:butt; stroke-linejoin:round; stroke-width:4; stroke-opacity:1; fill:none" points="
  1614.18,1474.16 1614.18,1455.27 
  "/>
<path clip-path="url(#clip840)" d="M595.413 1548.29 L603.051 1548.29 L603.051 1521.92 L594.741 1523.59 L594.741 1519.33 L603.005 1517.66 L607.681 1517.66 L607.681 1548.29 L615.32 1548.29 L615.32 1552.22 L595.413 1552.22 L595.413 1548.29 Z" fill="#000000" fill-rule="evenodd" fill-opacity="1" /><path clip-path="url(#clip840)" d="M634.764 1520.74 Q631.153 1520.74 629.324 1524.31 Q627.519 1527.85 627.519 1534.98 Q627.519 1542.09 629.324 1545.65 Q631.153 1549.19 634.764 1549.19 Q638.398 1549.19 640.204 1545.65 Q642.033 1542.09 642.033 1534.98 Q642.033 1527.85 640.204 1524.31 Q638.398 1520.74 634.764 1520.74 M634.764 1517.04 Q640.574 1517.04 643.63 1521.65 Q646.709 1526.23 646.709 1534.98 Q646.709 1543.71 643.63 1548.31 Q640.574 1552.9 634.764 1552.9 Q628.954 1552.9 625.875 1548.31 Q622.82 1543.71 622.82 1534.98 Q622.82 1526.23 625.875 1521.65 Q628.954 1517.04 634.764 1517.04 Z" fill="#000000" fill-rule="evenodd" fill-opacity="1" /><path clip-path="url(#clip840)" d="M646.709 1511.14 L670.82 1511.14 L670.82 1514.34 L646.709 1514.34 L646.709 1511.14 Z" fill="#000000" fill-rule="evenodd" fill-opacity="1" /><path clip-path="url(#clip840)" d="M682.293 1521.62 L695.552 1521.62 L695.552 1524.81 L677.723 1524.81 L677.723 1521.62 Q679.886 1519.38 683.609 1515.62 Q687.352 1511.84 688.311 1510.75 Q690.136 1508.7 690.85 1507.29 Q691.584 1505.86 691.584 1504.48 Q691.584 1502.24 690.004 1500.83 Q688.443 1499.42 685.923 1499.42 Q684.136 1499.42 682.142 1500.04 Q680.168 1500.67 677.911 1501.93 L677.911 1498.09 Q680.205 1497.17 682.199 1496.7 Q684.193 1496.23 685.848 1496.23 Q690.211 1496.23 692.806 1498.41 Q695.402 1500.59 695.402 1504.24 Q695.402 1505.97 694.744 1507.53 Q694.104 1509.07 692.393 1511.18 Q691.923 1511.72 689.402 1514.34 Q686.882 1516.93 682.293 1521.62 Z" fill="#000000" fill-rule="evenodd" fill-opacity="1" /><path clip-path="url(#clip840)" d="M1564.29 1548.29 L1571.93 1548.29 L1571.93 1521.92 L1563.62 1523.59 L1563.62 1519.33 L1571.88 1517.66 L1576.56 1517.66 L1576.56 1548.29 L1584.2 1548.29 L1584.2 1552.22 L1564.29 1552.22 L1564.29 1548.29 Z" fill="#000000" fill-rule="evenodd" fill-opacity="1" /><path clip-path="url(#clip840)" d="M1603.64 1520.74 Q1600.03 1520.74 1598.2 1524.31 Q1596.4 1527.85 1596.4 1534.98 Q1596.4 1542.09 1598.2 1545.65 Q1600.03 1549.19 1603.64 1549.19 Q1607.28 1549.19 1609.08 1545.65 Q1610.91 1542.09 1610.91 1534.98 Q1610.91 1527.85 1609.08 1524.31 Q1607.28 1520.74 1603.64 1520.74 M1603.64 1517.04 Q1609.45 1517.04 1612.51 1521.65 Q1615.59 1526.23 1615.59 1534.98 Q1615.59 1543.71 1612.51 1548.31 Q1609.45 1552.9 1603.64 1552.9 Q1597.83 1552.9 1594.75 1548.31 Q1591.7 1543.71 1591.7 1534.98 Q1591.7 1526.23 1594.75 1521.65 Q1597.83 1517.04 1603.64 1517.04 Z" fill="#000000" fill-rule="evenodd" fill-opacity="1" /><path clip-path="url(#clip840)" d="M1615.59 1511.14 L1639.7 1511.14 L1639.7 1514.34 L1615.59 1514.34 L1615.59 1511.14 Z" fill="#000000" fill-rule="evenodd" fill-opacity="1" /><path clip-path="url(#clip840)" d="M1648.56 1521.62 L1654.76 1521.62 L1654.76 1500.19 L1648.01 1501.55 L1648.01 1498.09 L1654.73 1496.73 L1658.52 1496.73 L1658.52 1521.62 L1664.73 1521.62 L1664.73 1524.81 L1648.56 1524.81 L1648.56 1521.62 Z" fill="#000000" fill-rule="evenodd" fill-opacity="1" /><polyline clip-path="url(#clip842)" style="stroke:#000000; stroke-linecap:butt; stroke-linejoin:round; stroke-width:2; stroke-opacity:0.1; fill:none" points="
  188.292,1463.4 2352.76,1463.4 
  "/>
<polyline clip-path="url(#clip842)" style="stroke:#000000; stroke-linecap:butt; stroke-linejoin:round; stroke-width:2; stroke-opacity:0.1; fill:none" points="
  188.292,656.371 2352.76,656.371 
  "/>
<polyline clip-path="url(#clip840)" style="stroke:#000000; stroke-linecap:butt; stroke-linejoin:round; stroke-width:4; stroke-opacity:1; fill:none" points="
  188.292,1474.16 188.292,47.2441 
  "/>
<polyline clip-path="url(#clip840)" style="stroke:#000000; stroke-linecap:butt; stroke-linejoin:round; stroke-width:4; stroke-opacity:1; fill:none" points="
  188.292,1463.4 207.19,1463.4 
  "/>
<polyline clip-path="url(#clip840)" style="stroke:#000000; stroke-linecap:butt; stroke-linejoin:round; stroke-width:4; stroke-opacity:1; fill:none" points="
  188.292,656.371 207.19,656.371 
  "/>
<path clip-path="url(#clip840)" d="M51.6634 1483.19 L59.3023 1483.19 L59.3023 1456.83 L50.9921 1458.49 L50.9921 1454.24 L59.256 1452.57 L63.9319 1452.57 L63.9319 1483.19 L71.5707 1483.19 L71.5707 1487.13 L51.6634 1487.13 L51.6634 1483.19 Z" fill="#000000" fill-rule="evenodd" fill-opacity="1" /><path clip-path="url(#clip840)" d="M91.0151 1455.65 Q87.404 1455.65 85.5753 1459.21 Q83.7697 1462.75 83.7697 1469.88 Q83.7697 1476.99 85.5753 1480.55 Q87.404 1484.1 91.0151 1484.1 Q94.6493 1484.1 96.4548 1480.55 Q98.2835 1476.99 98.2835 1469.88 Q98.2835 1462.75 96.4548 1459.21 Q94.6493 1455.65 91.0151 1455.65 M91.0151 1451.94 Q96.8252 1451.94 99.8808 1456.55 Q102.959 1461.13 102.959 1469.88 Q102.959 1478.61 99.8808 1483.22 Q96.8252 1487.8 91.0151 1487.8 Q85.2049 1487.8 82.1262 1483.22 Q79.0707 1478.61 79.0707 1469.88 Q79.0707 1461.13 82.1262 1456.55 Q85.2049 1451.94 91.0151 1451.94 Z" fill="#000000" fill-rule="evenodd" fill-opacity="1" /><path clip-path="url(#clip840)" d="M102.959 1446.05 L127.071 1446.05 L127.071 1449.24 L102.959 1449.24 L102.959 1446.05 Z" fill="#000000" fill-rule="evenodd" fill-opacity="1" /><path clip-path="url(#clip840)" d="M135.309 1431.64 L150.223 1431.64 L150.223 1434.84 L138.788 1434.84 L138.788 1441.72 Q139.616 1441.44 140.443 1441.31 Q141.271 1441.16 142.098 1441.16 Q146.8 1441.16 149.546 1443.73 Q152.292 1446.31 152.292 1450.71 Q152.292 1455.24 149.471 1457.76 Q146.65 1460.26 141.515 1460.26 Q139.747 1460.26 137.904 1459.96 Q136.08 1459.66 134.124 1459.06 L134.124 1455.24 Q135.817 1456.16 137.622 1456.62 Q139.428 1457.07 141.44 1457.07 Q144.694 1457.07 146.593 1455.36 Q148.493 1453.64 148.493 1450.71 Q148.493 1447.78 146.593 1446.06 Q144.694 1444.35 141.44 1444.35 Q139.917 1444.35 138.393 1444.69 Q136.889 1445.03 135.309 1445.74 L135.309 1431.64 Z" fill="#000000" fill-rule="evenodd" fill-opacity="1" /><path clip-path="url(#clip840)" d="M81.5866 676.164 L89.2254 676.164 L89.2254 649.798 L80.9153 651.465 L80.9153 647.205 L89.1791 645.539 L93.855 645.539 L93.855 676.164 L101.494 676.164 L101.494 680.099 L81.5866 680.099 L81.5866 676.164 Z" fill="#000000" fill-rule="evenodd" fill-opacity="1" /><path clip-path="url(#clip840)" d="M120.938 648.617 Q117.327 648.617 115.498 652.182 Q113.693 655.724 113.693 662.853 Q113.693 669.96 115.498 673.525 Q117.327 677.066 120.938 677.066 Q124.572 677.066 126.378 673.525 Q128.207 669.96 128.207 662.853 Q128.207 655.724 126.378 652.182 Q124.572 648.617 120.938 648.617 M120.938 644.914 Q126.748 644.914 129.804 649.52 Q132.883 654.103 132.883 662.853 Q132.883 671.58 129.804 676.187 Q126.748 680.77 120.938 680.77 Q115.128 680.77 112.049 676.187 Q108.994 671.58 108.994 662.853 Q108.994 654.103 112.049 649.52 Q115.128 644.914 120.938 644.914 Z" fill="#000000" fill-rule="evenodd" fill-opacity="1" /><path clip-path="url(#clip840)" d="M142.587 627.11 Q139.653 627.11 138.168 630.006 Q136.701 632.884 136.701 638.677 Q136.701 644.45 138.168 647.347 Q139.653 650.224 142.587 650.224 Q145.54 650.224 147.007 647.347 Q148.493 644.45 148.493 638.677 Q148.493 632.884 147.007 630.006 Q145.54 627.11 142.587 627.11 M142.587 624.1 Q147.308 624.1 149.791 627.843 Q152.292 631.567 152.292 638.677 Q152.292 645.767 149.791 649.51 Q147.308 653.234 142.587 653.234 Q137.867 653.234 135.365 649.51 Q132.883 645.767 132.883 638.677 Q132.883 631.567 135.365 627.843 Q137.867 624.1 142.587 624.1 Z" fill="#000000" fill-rule="evenodd" fill-opacity="1" /><polyline clip-path="url(#clip842)" style="stroke:#009af9; stroke-linecap:butt; stroke-linejoin:round; stroke-width:4; stroke-opacity:1; fill:none" points="
  2291.5,87.6286 1999.79,330.718 1708.08,1015.62 1416.38,1064.86 1124.67,1113.8 832.964,1162.57 541.257,1211.24 249.551,1259.88 
  "/>
<circle clip-path="url(#clip842)" cx="2291.5" cy="87.6286" r="14" fill="#009af9" fill-rule="evenodd" fill-opacity="1" stroke="#000000" stroke-opacity="1" stroke-width="3.2"/>
<circle clip-path="url(#clip842)" cx="1999.79" cy="330.718" r="14" fill="#009af9" fill-rule="evenodd" fill-opacity="1" stroke="#000000" stroke-opacity="1" stroke-width="3.2"/>
<circle clip-path="url(#clip842)" cx="1708.08" cy="1015.62" r="14" fill="#009af9" fill-rule="evenodd" fill-opacity="1" stroke="#000000" stroke-opacity="1" stroke-width="3.2"/>
<circle clip-path="url(#clip842)" cx="1416.38" cy="1064.86" r="14" fill="#009af9" fill-rule="evenodd" fill-opacity="1" stroke="#000000" stroke-opacity="1" stroke-width="3.2"/>
<circle clip-path="url(#clip842)" cx="1124.67" cy="1113.8" r="14" fill="#009af9" fill-rule="evenodd" fill-opacity="1" stroke="#000000" stroke-opacity="1" stroke-width="3.2"/>
<circle clip-path="url(#clip842)" cx="832.964" cy="1162.57" r="14" fill="#009af9" fill-rule="evenodd" fill-opacity="1" stroke="#000000" stroke-opacity="1" stroke-width="3.2"/>
<circle clip-path="url(#clip842)" cx="541.257" cy="1211.24" r="14" fill="#009af9" fill-rule="evenodd" fill-opacity="1" stroke="#000000" stroke-opacity="1" stroke-width="3.2"/>
<circle clip-path="url(#clip842)" cx="249.551" cy="1259.88" r="14" fill="#009af9" fill-rule="evenodd" fill-opacity="1" stroke="#000000" stroke-opacity="1" stroke-width="3.2"/>
<polyline clip-path="url(#clip842)" style="stroke:#e26f46; stroke-linecap:butt; stroke-linejoin:round; stroke-width:4; stroke-opacity:1; fill:none" points="
  2291.5,704.959 1999.79,753.547 1708.08,802.135 1416.38,850.723 1124.67,899.311 832.964,947.899 541.257,996.488 249.551,1045.08 
  "/>
<polyline clip-path="url(#clip842)" style="stroke:#3da44d; stroke-linecap:butt; stroke-linejoin:round; stroke-width:4; stroke-opacity:1; fill:none" points="
  2291.5,753.547 1999.79,850.723 1708.08,947.899 1416.38,1045.08 1124.67,1142.25 832.964,1239.43 541.257,1336.6 249.551,1433.78 
  "/>
<path clip-path="url(#clip840)" d="
M260.441 302.168 L653.32 302.168 L653.32 94.8081 L260.441 94.8081  Z
  " fill="#ffffff" fill-rule="evenodd" fill-opacity="1"/>
<polyline clip-path="url(#clip840)" style="stroke:#000000; stroke-linecap:butt; stroke-linejoin:round; stroke-width:4; stroke-opacity:1; fill:none" points="
  260.441,302.168 653.32,302.168 653.32,94.8081 260.441,94.8081 260.441,302.168 
  "/>
<polyline clip-path="url(#clip840)" style="stroke:#009af9; stroke-linecap:butt; stroke-linejoin:round; stroke-width:4; stroke-opacity:1; fill:none" points="
  284.491,146.648 428.788,146.648 
  "/>
<circle clip-path="url(#clip840)" cx="356.639" cy="146.648" r="23" fill="#009af9" fill-rule="evenodd" fill-opacity="1" stroke="#000000" stroke-opacity="1" stroke-width="5.12"/>
<path clip-path="url(#clip840)" d="M466.68 166.336 Q464.875 170.965 463.162 172.377 Q461.449 173.789 458.578 173.789 L455.176 173.789 L455.176 170.224 L457.676 170.224 Q459.435 170.224 460.407 169.391 Q461.379 168.558 462.56 165.456 L463.324 163.511 L452.838 138.002 L457.352 138.002 L465.453 158.28 L473.555 138.002 L478.069 138.002 L466.68 166.336 Z" fill="#000000" fill-rule="evenodd" fill-opacity="1" /><path clip-path="url(#clip840)" d="M485.361 159.993 L493 159.993 L493 133.627 L484.689 135.294 L484.689 131.035 L492.953 129.368 L497.629 129.368 L497.629 159.993 L505.268 159.993 L505.268 163.928 L485.361 163.928 L485.361 159.993 Z" fill="#000000" fill-rule="evenodd" fill-opacity="1" /><polyline clip-path="url(#clip840)" style="stroke:#e26f46; stroke-linecap:butt; stroke-linejoin:round; stroke-width:4; stroke-opacity:1; fill:none" points="
  284.491,198.488 428.788,198.488 
  "/>
<path clip-path="url(#clip840)" d="M464.921 222.736 L462.606 222.736 L462.583 215.768 Q460.153 215.722 457.722 215.213 Q455.291 214.68 452.838 213.638 L452.838 209.472 Q455.199 210.953 457.606 211.717 Q460.037 212.458 462.606 212.481 L462.606 201.926 Q457.491 201.092 455.153 199.102 Q452.838 197.111 452.838 193.639 Q452.838 189.865 455.361 187.69 Q457.884 185.514 462.606 185.19 L462.606 179.75 L464.921 179.75 L464.921 185.12 Q467.074 185.213 469.088 185.583 Q471.102 185.93 473.023 186.555 L473.023 190.606 Q471.102 189.634 469.065 189.102 Q467.051 188.569 464.921 188.477 L464.921 198.361 Q470.176 199.171 472.652 201.254 Q475.129 203.338 475.129 206.949 Q475.129 210.861 472.49 213.129 Q469.875 215.375 464.921 215.722 L464.921 222.736 M462.606 197.944 L462.606 188.453 Q459.921 188.754 458.509 189.981 Q457.097 191.208 457.097 193.245 Q457.097 195.236 458.393 196.347 Q459.713 197.458 462.606 197.944 M464.921 202.389 L464.921 212.412 Q467.861 212.018 469.342 210.745 Q470.847 209.472 470.847 207.389 Q470.847 205.352 469.412 204.148 Q468 202.944 464.921 202.389 Z" fill="#000000" fill-rule="evenodd" fill-opacity="1" /><path clip-path="url(#clip840)" d="M505.083 200.12 L505.083 215.768 L500.824 215.768 L500.824 200.259 Q500.824 196.578 499.388 194.75 Q497.953 192.921 495.083 192.921 Q491.634 192.921 489.643 195.12 Q487.652 197.319 487.652 201.115 L487.652 215.768 L483.37 215.768 L483.37 179.75 L487.652 179.75 L487.652 193.87 Q489.18 191.532 491.24 190.375 Q493.324 189.217 496.032 189.217 Q500.5 189.217 502.791 191.995 Q505.083 194.75 505.083 200.12 Z" fill="#000000" fill-rule="evenodd" fill-opacity="1" /><path clip-path="url(#clip840)" d="M525.129 222.736 L522.814 222.736 L522.791 215.768 Q520.361 215.722 517.93 215.213 Q515.499 214.68 513.046 213.638 L513.046 209.472 Q515.407 210.953 517.814 211.717 Q520.245 212.458 522.814 212.481 L522.814 201.926 Q517.699 201.092 515.361 199.102 Q513.046 197.111 513.046 193.639 Q513.046 189.865 515.569 187.69 Q518.092 185.514 522.814 185.19 L522.814 179.75 L525.129 179.75 L525.129 185.12 Q527.282 185.213 529.296 185.583 Q531.31 185.93 533.231 186.555 L533.231 190.606 Q531.31 189.634 529.273 189.102 Q527.259 188.569 525.129 188.477 L525.129 198.361 Q530.384 199.171 532.861 201.254 Q535.337 203.338 535.337 206.949 Q535.337 210.861 532.698 213.129 Q530.083 215.375 525.129 215.722 L525.129 222.736 M522.814 197.944 L522.814 188.453 Q520.129 188.754 518.717 189.981 Q517.305 191.208 517.305 193.245 Q517.305 195.236 518.601 196.347 Q519.921 197.458 522.814 197.944 M525.129 202.389 L525.129 212.412 Q528.069 212.018 529.55 210.745 Q531.055 209.472 531.055 207.389 Q531.055 205.352 529.62 204.148 Q528.208 202.944 525.129 202.389 Z" fill="#000000" fill-rule="evenodd" fill-opacity="1" /><polyline clip-path="url(#clip840)" style="stroke:#3da44d; stroke-linecap:butt; stroke-linejoin:round; stroke-width:4; stroke-opacity:1; fill:none" points="
  284.491,250.328 428.788,250.328 
  "/>
<path clip-path="url(#clip840)" d="M464.921 274.576 L462.606 274.576 L462.583 267.608 Q460.153 267.562 457.722 267.053 Q455.291 266.52 452.838 265.478 L452.838 261.312 Q455.199 262.793 457.606 263.557 Q460.037 264.298 462.606 264.321 L462.606 253.766 Q457.491 252.932 455.153 250.942 Q452.838 248.951 452.838 245.479 Q452.838 241.705 455.361 239.53 Q457.884 237.354 462.606 237.03 L462.606 231.59 L464.921 231.59 L464.921 236.96 Q467.074 237.053 469.088 237.423 Q471.102 237.77 473.023 238.395 L473.023 242.446 Q471.102 241.474 469.065 240.942 Q467.051 240.409 464.921 240.317 L464.921 250.201 Q470.176 251.011 472.652 253.094 Q475.129 255.178 475.129 258.789 Q475.129 262.701 472.49 264.969 Q469.875 267.215 464.921 267.562 L464.921 274.576 M462.606 249.784 L462.606 240.293 Q459.921 240.594 458.509 241.821 Q457.097 243.048 457.097 245.085 Q457.097 247.076 458.393 248.187 Q459.713 249.298 462.606 249.784 M464.921 254.229 L464.921 264.252 Q467.861 263.858 469.342 262.585 Q470.847 261.312 470.847 259.229 Q470.847 257.192 469.412 255.988 Q468 254.784 464.921 254.229 Z" fill="#000000" fill-rule="evenodd" fill-opacity="1" /><path clip-path="url(#clip840)" d="M505.083 251.96 L505.083 267.608 L500.824 267.608 L500.824 252.099 Q500.824 248.418 499.388 246.59 Q497.953 244.761 495.083 244.761 Q491.634 244.761 489.643 246.96 Q487.652 249.159 487.652 252.955 L487.652 267.608 L483.37 267.608 L483.37 231.59 L487.652 231.59 L487.652 245.71 Q489.18 243.372 491.24 242.215 Q493.324 241.057 496.032 241.057 Q500.5 241.057 502.791 243.835 Q505.083 246.59 505.083 251.96 Z" fill="#000000" fill-rule="evenodd" fill-opacity="1" /><path clip-path="url(#clip840)" d="M531.24 233.048 L543.81 245.942 L539.157 245.942 L528.972 236.798 L518.787 245.942 L514.134 245.942 L526.703 233.048 L531.24 233.048 Z" fill="#000000" fill-rule="evenodd" fill-opacity="1" /><path clip-path="url(#clip840)" d="M557.93 263.673 L574.249 263.673 L574.249 267.608 L552.305 267.608 L552.305 263.673 Q554.967 260.918 559.55 256.289 Q564.157 251.636 565.337 250.293 Q567.583 247.77 568.462 246.034 Q569.365 244.275 569.365 242.585 Q569.365 239.83 567.421 238.094 Q565.499 236.358 562.397 236.358 Q560.198 236.358 557.745 237.122 Q555.314 237.886 552.536 239.437 L552.536 234.715 Q555.36 233.581 557.814 233.002 Q560.268 232.423 562.305 232.423 Q567.675 232.423 570.87 235.108 Q574.064 237.793 574.064 242.284 Q574.064 244.414 573.254 246.335 Q572.467 248.233 570.36 250.826 Q569.782 251.497 566.68 254.715 Q563.578 257.909 557.93 263.673 Z" fill="#000000" fill-rule="evenodd" fill-opacity="1" /><path clip-path="url(#clip840)" d="M595.013 274.576 L592.698 274.576 L592.675 267.608 Q590.244 267.562 587.814 267.053 Q585.383 266.52 582.93 265.478 L582.93 261.312 Q585.291 262.793 587.698 263.557 Q590.129 264.298 592.698 264.321 L592.698 253.766 Q587.582 252.932 585.244 250.942 Q582.93 248.951 582.93 245.479 Q582.93 241.705 585.453 239.53 Q587.976 237.354 592.698 237.03 L592.698 231.59 L595.013 231.59 L595.013 236.96 Q597.166 237.053 599.18 237.423 Q601.193 237.77 603.115 238.395 L603.115 242.446 Q601.193 241.474 599.156 240.942 Q597.143 240.409 595.013 240.317 L595.013 250.201 Q600.268 251.011 602.744 253.094 Q605.221 255.178 605.221 258.789 Q605.221 262.701 602.582 264.969 Q599.967 267.215 595.013 267.562 L595.013 274.576 M592.698 249.784 L592.698 240.293 Q590.013 240.594 588.601 241.821 Q587.189 243.048 587.189 245.085 Q587.189 247.076 588.485 248.187 Q589.805 249.298 592.698 249.784 M595.013 254.229 L595.013 264.252 Q597.953 263.858 599.434 262.585 Q600.939 261.312 600.939 259.229 Q600.939 257.192 599.504 255.988 Q598.092 254.784 595.013 254.229 Z" fill="#000000" fill-rule="evenodd" fill-opacity="1" /></svg>
