<?xml version="1.0" encoding="utf-8"?>
<svg xmlns="http://www.w3.org/2000/svg" xmlns:xlink="http://www.w3.org/1999/xlink" width="600" height="400" viewBox="0 0 2400 1600">
<defs>
  <clipPath id="clip200">
    <rect x="0" y="0" width="2400" height="1600"/>
  </clipPath>
</defs>
<path clip-path="url(#clip200)" d="
M0 1600 L2400 1600 L2400 0 L0 0  Z
  " fill="#ffffff" fill-rule="evenodd" fill-opacity="1"/>
<defs>
  <clipPath id="clip201">
    <rect x="480" y="0" width="1681" height="1600"/>
  </clipPath>
</defs>
<path clip-path="url(#clip200)" d="
M189.496 1474.16 L2352.76 1474.16 L2352.76 47.2441 L189.496 47.2441  Z
  " fill="#ffffff" fill-rule="evenodd" fill-opacity="1"/>
<defs>
  <clipPath id="clip202">
    <rect x="189" y="47" width="2164" height="1428"/>
  </clipPath>
</defs>
<polyline clip-path="url(#clip202)" style="stroke:#000000; stroke-linecap:butt; stroke-linejoin:round; stroke-width:2; stroke-opacity:0.1; fill:none" points="
  259.449,1474.16 259.449,47.2441 
  "/>
<polyline clip-path="url(#clip202)" style="stroke:#000000; stroke-linecap:butt; stroke-linejoin:round; stroke-width:2; stroke-opacity:0.1; fill:none" points="
  1106.88,1474.16 1106.88,47.2441 
  "/>
<polyline clip-path="url(#clip202)" style="stroke:#000000; stroke-linecap:butt; stroke-linejoin:round; stroke-width:2; stroke-opacity:0.1; fill:none" points="
  1954.31,1474.16 1954.31,47.2441 
  "/>
<polyline clip-path="url(#clip200)" style="stroke:#000000; stroke-linecap:butt; stroke-linejoin:round; stroke-width:4; stroke-opacity:1; fill:none" points="
  189.496,1474.16 2352.76,1474.16 
  "/>
<polyline clip-path="url(#clip200)" style="stroke:#000000; stroke-linecap:butt; stroke-linejoin:round; stroke-width:4; stroke-opacity:1; fill:none" points="
  259.449,1474.16 259.449,1455.27 
  "/>
<polyline clip-path="url(#clip200)" style="stroke:#000000; stroke-linecap:butt; stroke-linejoin:round; stroke-width:4; stroke-opacity:1; fill:none" points="
  1106.88,1474.16 1106.88,1455.27 
  "/>
<polyline clip-path="url(#clip200)" style="stroke:#000000; stroke-linecap:butt; stroke-linejoin:round; stroke-width:4; stroke-opacity:1; fill:none" points="
  1954.31,1474.16 1954.31,1455.27 
  "/>
<path clip-path="url(#clip200)" d="M209.329 1552.44 L216.968 1552.44 L216.968 1526.07 L208.658 1527.74 L208.658 1523.48 L216.921 1521.81 L221.597 1521.81 L221.597 1552.44 L229.236 1552.44 L229.236 1556.37 L209.329 1556.37 L209.329 1552.44 Z" fill="#000000" fill-rule="evenodd" fill-opacity="1" /><path clip-path="url(#clip200)" d="M248.681 1524.89 Q245.069 1524.89 243.241 1528.46 Q241.435 1532 241.435 1539.13 Q241.435 1546.23 243.241 1549.8 Q245.069 1553.34 248.681 1553.34 Q252.315 1553.34 254.12 1549.8 Q255.949 1546.23 255.949 1539.13 Q255.949 1532 254.12 1528.46 Q252.315 1524.89 248.681 1524.89 M248.681 1521.19 Q254.491 1521.19 257.546 1525.79 Q260.625 1530.38 260.625 1539.13 Q260.625 1547.85 257.546 1552.46 Q254.491 1557.04 248.681 1557.04 Q242.87 1557.04 239.792 1552.46 Q236.736 1547.85 236.736 1539.13 Q236.736 1530.38 239.792 1525.79 Q242.87 1521.19 248.681 1521.19 Z" fill="#000000" fill-rule="evenodd" fill-opacity="1" /><path clip-path="url(#clip200)" d="M260.625 1515.29 L284.737 1515.29 L284.737 1518.49 L260.625 1518.49 L260.625 1515.29 Z" fill="#000000" fill-rule="evenodd" fill-opacity="1" /><path clip-path="url(#clip200)" d="M304.447 1513.82 Q307.174 1514.4 308.698 1516.25 Q310.24 1518.09 310.24 1520.8 Q310.24 1524.96 307.381 1527.23 Q304.522 1529.51 299.256 1529.51 Q297.488 1529.51 295.607 1529.15 Q293.745 1528.81 291.752 1528.12 L291.752 1524.45 Q293.332 1525.37 295.212 1525.84 Q297.093 1526.31 299.143 1526.31 Q302.717 1526.31 304.579 1524.9 Q306.459 1523.49 306.459 1520.8 Q306.459 1518.32 304.71 1516.92 Q302.98 1515.51 299.877 1515.51 L296.604 1515.51 L296.604 1512.39 L300.027 1512.39 Q302.83 1512.39 304.315 1511.28 Q305.801 1510.15 305.801 1508.05 Q305.801 1505.88 304.259 1504.74 Q302.736 1503.57 299.877 1503.57 Q298.316 1503.57 296.529 1503.91 Q294.742 1504.25 292.598 1504.96 L292.598 1501.58 Q294.761 1500.98 296.642 1500.67 Q298.541 1500.37 300.215 1500.37 Q304.541 1500.37 307.061 1502.35 Q309.582 1504.3 309.582 1507.65 Q309.582 1509.98 308.246 1511.6 Q306.911 1513.2 304.447 1513.82 Z" fill="#000000" fill-rule="evenodd" fill-opacity="1" /><path clip-path="url(#clip200)" d="M1057.14 1552.44 L1064.78 1552.44 L1064.78 1526.07 L1056.47 1527.74 L1056.47 1523.48 L1064.74 1521.81 L1069.41 1521.81 L1069.41 1552.44 L1077.05 1552.44 L1077.05 1556.37 L1057.14 1556.37 L1057.14 1552.44 Z" fill="#000000" fill-rule="evenodd" fill-opacity="1" /><path clip-path="url(#clip200)" d="M1096.49 1524.89 Q1092.88 1524.89 1091.05 1528.46 Q1089.25 1532 1089.25 1539.13 Q1089.25 1546.23 1091.05 1549.8 Q1092.88 1553.34 1096.49 1553.34 Q1100.13 1553.34 1101.93 1549.8 Q1103.76 1546.23 1103.76 1539.13 Q1103.76 1532 1101.93 1528.46 Q1100.13 1524.89 1096.49 1524.89 M1096.49 1521.19 Q1102.3 1521.19 1105.36 1525.79 Q1108.44 1530.38 1108.44 1539.13 Q1108.44 1547.85 1105.36 1552.46 Q1102.3 1557.04 1096.49 1557.04 Q1090.68 1557.04 1087.61 1552.46 Q1084.55 1547.85 1084.55 1539.13 Q1084.55 1530.38 1087.61 1525.79 Q1090.68 1521.19 1096.49 1521.19 Z" fill="#000000" fill-rule="evenodd" fill-opacity="1" /><path clip-path="url(#clip200)" d="M1108.44 1515.29 L1132.55 1515.29 L1132.55 1518.49 L1108.44 1518.49 L1108.44 1515.29 Z" fill="#000000" fill-rule="evenodd" fill-opacity="1" /><path clip-path="url(#clip200)" d="M1144.02 1525.76 L1157.28 1525.76 L1157.28 1528.96 L1139.45 1528.96 L1139.45 1525.76 Q1141.62 1523.53 1145.34 1519.76 Q1149.08 1515.98 1150.04 1514.89 Q1151.87 1512.84 1152.58 1511.43 Q1153.31 1510 1153.31 1508.63 Q1153.31 1506.39 1151.73 1504.98 Q1150.17 1503.57 1147.65 1503.57 Q1145.87 1503.57 1143.87 1504.19 Q1141.9 1504.81 1139.64 1506.07 L1139.64 1502.24 Q1141.94 1501.31 1143.93 1500.84 Q1145.92 1500.37 1147.58 1500.37 Q1151.94 1500.37 1154.54 1502.56 Q1157.13 1504.74 1157.13 1508.39 Q1157.13 1510.12 1156.47 1511.68 Q1155.83 1513.22 1154.12 1515.33 Q1153.65 1515.87 1151.13 1518.49 Q1148.61 1521.08 1144.02 1525.76 Z" fill="#000000" fill-rule="evenodd" fill-opacity="1" /><path clip-path="url(#clip200)" d="M1904.42 1552.44 L1912.06 1552.44 L1912.06 1526.07 L1903.75 1527.74 L1903.75 1523.48 L1912.01 1521.81 L1916.69 1521.81 L1916.69 1552.44 L1924.33 1552.44 L1924.33 1556.37 L1904.42 1556.37 L1904.42 1552.44 Z" fill="#000000" fill-rule="evenodd" fill-opacity="1" /><path clip-path="url(#clip200)" d="M1943.77 1524.89 Q1940.16 1524.89 1938.33 1528.46 Q1936.53 1532 1936.53 1539.13 Q1936.53 1546.23 1938.33 1549.8 Q1940.16 1553.34 1943.77 1553.34 Q1947.41 1553.34 1949.21 1549.8 Q1951.04 1546.23 1951.04 1539.13 Q1951.04 1532 1949.21 1528.46 Q1947.41 1524.89 1943.77 1524.89 M1943.77 1521.19 Q1949.58 1521.19 1952.64 1525.79 Q1955.72 1530.38 1955.72 1539.13 Q1955.72 1547.85 1952.64 1552.46 Q1949.58 1557.04 1943.77 1557.04 Q1937.96 1557.04 1934.88 1552.46 Q1931.83 1547.85 1931.83 1539.13 Q1931.83 1530.38 1934.88 1525.79 Q1937.96 1521.19 1943.77 1521.19 Z" fill="#000000" fill-rule="evenodd" fill-opacity="1" /><path clip-path="url(#clip200)" d="M1955.72 1515.29 L1979.83 1515.29 L1979.83 1518.49 L1955.72 1518.49 L1955.72 1515.29 Z" fill="#000000" fill-rule="evenodd" fill-opacity="1" /><path clip-path="url(#clip200)" d="M1988.69 1525.76 L1994.89 1525.76 L1994.89 1504.34 L1988.14 1505.7 L1988.14 1502.24 L1994.86 1500.88 L1998.66 1500.88 L1998.66 1525.76 L2004.86 1525.76 L2004.86 1528.96 L1988.69 1528.96 L1988.69 1525.76 Z" fill="#000000" fill-rule="evenodd" fill-opacity="1" /><polyline clip-path="url(#clip202)" style="stroke:#000000; stroke-linecap:butt; stroke-linejoin:round; stroke-width:2; stroke-opacity:0.1; fill:none" points="
  189.496,1429.36 2352.76,1429.36 
  "/>
<polyline clip-path="url(#clip202)" style="stroke:#000000; stroke-linecap:butt; stroke-linejoin:round; stroke-width:2; stroke-opacity:0.1; fill:none" points="
  189.496,1214.66 2352.76,1214.66 
  "/>
<polyline clip-path="url(#clip202)" style="stroke:#000000; stroke-linecap:butt; stroke-linejoin:round; stroke-width:2; stroke-opacity:0.1; fill:none" points="
  189.496,999.956 2352.76,999.956 
  "/>
<polyline clip-path="url(#clip202)" style="stroke:#000000; stroke-linecap:butt; stroke-linejoin:round; stroke-width:2; stroke-opacity:0.1; fill:none" points="
  189.496,785.256 2352.76,785.256 
  "/>
<polyline clip-path="url(#clip202)" style="stroke:#000000; stroke-linecap:butt; stroke-linejoin:round; stroke-width:2; stroke-opacity:0.1; fill:none" points="
  189.496,570.555 2352.76,570.555 
  "/>
<polyline clip-path="url(#clip202)" style="stroke:#000000; stroke-linecap:butt; stroke-linejoin:round; stroke-width:2; stroke-opacity:0.1; fill:none" points="
  189.496,355.855 2352.76,355.855 
  "/>
<polyline clip-path="url(#clip202)" style="stroke:#000000; stroke-linecap:butt; stroke-linejoin:round; stroke-width:2; stroke-opacity:0.1; fill:none" points="
  189.496,141.154 2352.76,141.154 
  "/>
<polyline clip-path="url(#clip200)" style="stroke:#000000; stroke-linecap:butt; stroke-linejoin:round; stroke-width:4; stroke-opacity:1; fill:none" points="
  189.496,1474.16 189.496,47.2441 
  "/>
<polyline clip-path="url(#clip200)" style="stroke:#000000; stroke-linecap:butt; stroke-linejoin:round; stroke-width:4; stroke-opacity:1; fill:none" points="
  189.496,1429.36 208.394,1429.36 
  "/>
<polyline clip-path="url(#clip200)" style="stroke:#000000; stroke-linecap:butt; stroke-linejoin:round; stroke-width:4; stroke-opacity:1; fill:none" points="
  189.496,1214.66 208.394,1214.66 
  "/>
<polyline clip-path="url(#clip200)" style="stroke:#000000; stroke-linecap:butt; stroke-linejoin:round; stroke-width:4; stroke-opacity:1; fill:none" points="
  189.496,999.956 208.394,999.956 
  "/>
<polyline clip-path="url(#clip200)" style="stroke:#000000; stroke-linecap:butt; stroke-linejoin:round; stroke-width:4; stroke-opacity:1; fill:none" points="
  189.496,785.256 208.394,785.256 
  "/>
<polyline clip-path="url(#clip200)" style="stroke:#000000; stroke-linecap:butt; stroke-linejoin:round; stroke-width:4; stroke-opacity:1; fill:none" points="
  189.496,570.555 208.394,570.555 
  "/>
<polyline clip-path="url(#clip200)" style="stroke:#000000; stroke-linecap:butt; stroke-linejoin:round; stroke-width:4; stroke-opacity:1; fill:none" points="
  189.496,355.855 208.394,355.855 
  "/>
<polyline clip-path="url(#clip200)" style="stroke:#000000; stroke-linecap:butt; stroke-linejoin:round; stroke-width:4; stroke-opacity:1; fill:none" points="
  189.496,141.154 208.394,141.154 
  "/>
<path clip-path="url(#clip200)" d="M51.9267 1449.15 L59.5656 1449.15 L59.5656 1422.78 L51.2554 1424.45 L51.2554 1420.19 L59.5193 1418.52 L64.1952 1418.52 L64.1952 1449.15 L71.834 1449.15 L71.834 1453.08 L51.9267 1453.08 L51.9267 1449.15 Z" fill="#000000" fill-rule="evenodd" fill-opacity="1" /><path clip-path="url(#clip200)" d="M91.2784 1421.6 Q87.6673 1421.6 85.8386 1425.17 Q84.033 1428.71 84.033 1435.84 Q84.033 1442.95 85.8386 1446.51 Q87.6673 1450.05 91.2784 1450.05 Q94.9126 1450.05 96.7182 1446.51 Q98.5468 1442.95 98.5468 1435.84 Q98.5468 1428.71 96.7182 1425.17 Q94.9126 1421.6 91.2784 1421.6 M91.2784 1417.9 Q97.0885 1417.9 100.144 1422.51 Q103.223 1427.09 103.223 1435.84 Q103.223 1444.57 100.144 1449.17 Q97.0885 1453.76 91.2784 1453.76 Q85.4682 1453.76 82.3895 1449.17 Q79.334 1444.57 79.334 1435.84 Q79.334 1427.09 82.3895 1422.51 Q85.4682 1417.9 91.2784 1417.9 Z" fill="#000000" fill-rule="evenodd" fill-opacity="1" /><path clip-path="url(#clip200)" d="M103.223 1412 L127.334 1412 L127.334 1415.2 L103.223 1415.2 L103.223 1412 Z" fill="#000000" fill-rule="evenodd" fill-opacity="1" /><path clip-path="url(#clip200)" d="M144.13 1410.12 Q141.572 1410.12 140.067 1411.87 Q138.581 1413.62 138.581 1416.67 Q138.581 1419.69 140.067 1421.46 Q141.572 1423.21 144.13 1423.21 Q146.688 1423.21 148.173 1421.46 Q149.678 1419.69 149.678 1416.67 Q149.678 1413.62 148.173 1411.87 Q146.688 1410.12 144.13 1410.12 M151.672 1398.22 L151.672 1401.68 Q150.242 1401 148.775 1400.64 Q147.327 1400.28 145.898 1400.28 Q142.136 1400.28 140.142 1402.82 Q138.168 1405.36 137.885 1410.5 Q138.995 1408.86 140.669 1408 Q142.343 1407.11 144.355 1407.11 Q148.587 1407.11 151.032 1409.69 Q153.496 1412.25 153.496 1416.67 Q153.496 1420.99 150.938 1423.61 Q148.38 1426.22 144.13 1426.22 Q139.258 1426.22 136.682 1422.5 Q134.105 1418.75 134.105 1411.66 Q134.105 1405 137.265 1401.06 Q140.425 1397.09 145.747 1397.09 Q147.177 1397.09 148.625 1397.37 Q150.092 1397.65 151.672 1398.22 Z" fill="#000000" fill-rule="evenodd" fill-opacity="1" /><path clip-path="url(#clip200)" d="M52.8671 1234.45 L60.506 1234.45 L60.506 1208.08 L52.1958 1209.75 L52.1958 1205.49 L60.4597 1203.82 L65.1356 1203.82 L65.1356 1234.45 L72.7744 1234.45 L72.7744 1238.38 L52.8671 1238.38 L52.8671 1234.45 Z" fill="#000000" fill-rule="evenodd" fill-opacity="1" /><path clip-path="url(#clip200)" d="M92.2188 1206.9 Q88.6077 1206.9 86.779 1210.47 Q84.9734 1214.01 84.9734 1221.14 Q84.9734 1228.25 86.779 1231.81 Q88.6077 1235.35 92.2188 1235.35 Q95.853 1235.35 97.6585 1231.81 Q99.4872 1228.25 99.4872 1221.14 Q99.4872 1214.01 97.6585 1210.47 Q95.853 1206.9 92.2188 1206.9 M92.2188 1203.2 Q98.0289 1203.2 101.084 1207.81 Q104.163 1212.39 104.163 1221.14 Q104.163 1229.87 101.084 1234.47 Q98.0289 1239.06 92.2188 1239.06 Q86.4086 1239.06 83.3299 1234.47 Q80.2744 1229.87 80.2744 1221.14 Q80.2744 1212.39 83.3299 1207.81 Q86.4086 1203.2 92.2188 1203.2 Z" fill="#000000" fill-rule="evenodd" fill-opacity="1" /><path clip-path="url(#clip200)" d="M104.163 1197.3 L128.275 1197.3 L128.275 1200.5 L104.163 1200.5 L104.163 1197.3 Z" fill="#000000" fill-rule="evenodd" fill-opacity="1" /><path clip-path="url(#clip200)" d="M136.513 1182.89 L151.427 1182.89 L151.427 1186.09 L139.992 1186.09 L139.992 1192.97 Q140.819 1192.69 141.647 1192.56 Q142.475 1192.41 143.302 1192.41 Q148.004 1192.41 150.75 1194.99 Q153.496 1197.56 153.496 1201.97 Q153.496 1206.5 150.675 1209.02 Q147.854 1211.52 142.719 1211.52 Q140.951 1211.52 139.108 1211.22 Q137.284 1210.92 135.328 1210.32 L135.328 1206.5 Q137.02 1207.42 138.826 1207.87 Q140.631 1208.32 142.644 1208.32 Q145.898 1208.32 147.797 1206.61 Q149.697 1204.9 149.697 1201.97 Q149.697 1199.03 147.797 1197.32 Q145.898 1195.61 142.644 1195.61 Q141.12 1195.61 139.597 1195.95 Q138.092 1196.29 136.513 1197 L136.513 1182.89 Z" fill="#000000" fill-rule="evenodd" fill-opacity="1" /><path clip-path="url(#clip200)" d="M51.6634 1019.75 L59.3023 1019.75 L59.3023 993.383 L50.9921 995.05 L50.9921 990.791 L59.256 989.124 L63.9319 989.124 L63.9319 1019.75 L71.5707 1019.75 L71.5707 1023.68 L51.6634 1023.68 L51.6634 1019.75 Z" fill="#000000" fill-rule="evenodd" fill-opacity="1" /><path clip-path="url(#clip200)" d="M91.0151 992.203 Q87.404 992.203 85.5753 995.767 Q83.7697 999.309 83.7697 1006.44 Q83.7697 1013.55 85.5753 1017.11 Q87.404 1020.65 91.0151 1020.65 Q94.6493 1020.65 96.4548 1017.11 Q98.2835 1013.55 98.2835 1006.44 Q98.2835 999.309 96.4548 995.767 Q94.6493 992.203 91.0151 992.203 M91.0151 988.499 Q96.8252 988.499 99.8808 993.105 Q102.959 997.689 102.959 1006.44 Q102.959 1015.17 99.8808 1019.77 Q96.8252 1024.36 91.0151 1024.36 Q85.2049 1024.36 82.1262 1019.77 Q79.0707 1015.17 79.0707 1006.44 Q79.0707 997.689 82.1262 993.105 Q85.2049 988.499 91.0151 988.499 Z" fill="#000000" fill-rule="evenodd" fill-opacity="1" /><path clip-path="url(#clip200)" d="M102.959 982.6 L127.071 982.6 L127.071 985.798 L102.959 985.798 L102.959 982.6 Z" fill="#000000" fill-rule="evenodd" fill-opacity="1" /><path clip-path="url(#clip200)" d="M145.71 971.504 L136.118 986.493 L145.71 986.493 L145.71 971.504 M144.713 968.193 L149.49 968.193 L149.49 986.493 L153.496 986.493 L153.496 989.653 L149.49 989.653 L149.49 996.273 L145.71 996.273 L145.71 989.653 L133.033 989.653 L133.033 985.986 L144.713 968.193 Z" fill="#000000" fill-rule="evenodd" fill-opacity="1" /><path clip-path="url(#clip200)" d="M52.585 805.048 L60.2238 805.048 L60.2238 778.683 L51.9137 780.349 L51.9137 776.09 L60.1776 774.423 L64.8535 774.423 L64.8535 805.048 L72.4923 805.048 L72.4923 808.983 L52.585 808.983 L52.585 805.048 Z" fill="#000000" fill-rule="evenodd" fill-opacity="1" /><path clip-path="url(#clip200)" d="M91.9366 777.502 Q88.3255 777.502 86.4969 781.067 Q84.6913 784.608 84.6913 791.738 Q84.6913 798.844 86.4969 802.409 Q88.3255 805.951 91.9366 805.951 Q95.5709 805.951 97.3764 802.409 Q99.2051 798.844 99.2051 791.738 Q99.2051 784.608 97.3764 781.067 Q95.5709 777.502 91.9366 777.502 M91.9366 773.798 Q97.7468 773.798 100.802 778.405 Q103.881 782.988 103.881 791.738 Q103.881 800.465 100.802 805.071 Q97.7468 809.655 91.9366 809.655 Q86.1265 809.655 83.0478 805.071 Q79.9923 800.465 79.9923 791.738 Q79.9923 782.988 83.0478 778.405 Q86.1265 773.798 91.9366 773.798 Z" fill="#000000" fill-rule="evenodd" fill-opacity="1" /><path clip-path="url(#clip200)" d="M103.881 767.9 L127.993 767.9 L127.993 771.097 L103.881 771.097 L103.881 767.9 Z" fill="#000000" fill-rule="evenodd" fill-opacity="1" /><path clip-path="url(#clip200)" d="M147.703 766.433 Q150.43 767.016 151.954 768.859 Q153.496 770.702 153.496 773.41 Q153.496 777.567 150.637 779.843 Q147.778 782.118 142.512 782.118 Q140.744 782.118 138.863 781.761 Q137.002 781.422 135.008 780.727 L135.008 777.059 Q136.588 777.981 138.469 778.451 Q140.349 778.921 142.399 778.921 Q145.973 778.921 147.835 777.51 Q149.716 776.1 149.716 773.41 Q149.716 770.928 147.966 769.536 Q146.236 768.125 143.133 768.125 L139.86 768.125 L139.86 765.003 L143.283 765.003 Q146.086 765.003 147.571 763.894 Q149.057 762.765 149.057 760.659 Q149.057 758.496 147.515 757.349 Q145.992 756.182 143.133 756.182 Q141.572 756.182 139.785 756.521 Q137.998 756.859 135.854 757.574 L135.854 754.189 Q138.017 753.587 139.898 753.286 Q141.797 752.985 143.471 752.985 Q147.797 752.985 150.317 754.96 Q152.838 756.916 152.838 760.264 Q152.838 762.596 151.502 764.213 Q150.167 765.812 147.703 766.433 Z" fill="#000000" fill-rule="evenodd" fill-opacity="1" /><path clip-path="url(#clip200)" d="M53.3561 590.348 L60.995 590.348 L60.995 563.982 L52.6848 565.649 L52.6848 561.389 L60.9487 559.723 L65.6246 559.723 L65.6246 590.348 L73.2634 590.348 L73.2634 594.283 L53.3561 594.283 L53.3561 590.348 Z" fill="#000000" fill-rule="evenodd" fill-opacity="1" /><path clip-path="url(#clip200)" d="M92.7078 562.801 Q89.0967 562.801 87.268 566.366 Q85.4624 569.908 85.4624 577.037 Q85.4624 584.144 87.268 587.709 Q89.0967 591.25 92.7078 591.25 Q96.342 591.25 98.1475 587.709 Q99.9762 584.144 99.9762 577.037 Q99.9762 569.908 98.1475 566.366 Q96.342 562.801 92.7078 562.801 M92.7078 559.098 Q98.5179 559.098 101.573 563.704 Q104.652 568.288 104.652 577.037 Q104.652 585.764 101.573 590.371 Q98.5179 594.954 92.7078 594.954 Q86.8976 594.954 83.8189 590.371 Q80.7634 585.764 80.7634 577.037 Q80.7634 568.288 83.8189 563.704 Q86.8976 559.098 92.7078 559.098 Z" fill="#000000" fill-rule="evenodd" fill-opacity="1" /><path clip-path="url(#clip200)" d="M104.652 553.199 L128.764 553.199 L128.764 556.396 L104.652 556.396 L104.652 553.199 Z" fill="#000000" fill-rule="evenodd" fill-opacity="1" /><path clip-path="url(#clip200)" d="M140.236 563.675 L153.496 563.675 L153.496 566.872 L135.666 566.872 L135.666 563.675 Q137.829 561.437 141.553 557.675 Q145.296 553.895 146.255 552.804 Q148.079 550.754 148.794 549.344 Q149.527 547.914 149.527 546.541 Q149.527 544.303 147.948 542.892 Q146.387 541.482 143.866 541.482 Q142.08 541.482 140.086 542.103 Q138.111 542.723 135.854 543.983 L135.854 540.147 Q138.149 539.225 140.142 538.755 Q142.136 538.285 143.791 538.285 Q148.155 538.285 150.75 540.466 Q153.345 542.648 153.345 546.297 Q153.345 548.027 152.687 549.588 Q152.048 551.13 150.336 553.237 Q149.866 553.782 147.346 556.396 Q144.826 558.992 140.236 563.675 Z" fill="#000000" fill-rule="evenodd" fill-opacity="1" /><path clip-path="url(#clip200)" d="M53.0552 375.647 L60.694 375.647 L60.694 349.281 L52.3839 350.948 L52.3839 346.689 L60.6477 345.022 L65.3236 345.022 L65.3236 375.647 L72.9625 375.647 L72.9625 379.582 L53.0552 379.582 L53.0552 375.647 Z" fill="#000000" fill-rule="evenodd" fill-opacity="1" /><path clip-path="url(#clip200)" d="M92.4068 348.101 Q88.7957 348.101 86.967 351.666 Q85.1615 355.207 85.1615 362.337 Q85.1615 369.443 86.967 373.008 Q88.7957 376.55 92.4068 376.55 Q96.0411 376.55 97.8466 373.008 Q99.6753 369.443 99.6753 362.337 Q99.6753 355.207 97.8466 351.666 Q96.0411 348.101 92.4068 348.101 M92.4068 344.397 Q98.217 344.397 101.273 349.004 Q104.351 353.587 104.351 362.337 Q104.351 371.064 101.273 375.67 Q98.217 380.254 92.4068 380.254 Q86.5967 380.254 83.518 375.67 Q80.4625 371.064 80.4625 362.337 Q80.4625 353.587 83.518 349.004 Q86.5967 344.397 92.4068 344.397 Z" fill="#000000" fill-rule="evenodd" fill-opacity="1" /><path clip-path="url(#clip200)" d="M104.351 338.499 L128.463 338.499 L128.463 341.696 L104.351 341.696 L104.351 338.499 Z" fill="#000000" fill-rule="evenodd" fill-opacity="1" /><path clip-path="url(#clip200)" d="M137.321 348.975 L143.528 348.975 L143.528 327.552 L136.776 328.907 L136.776 325.446 L143.49 324.092 L147.289 324.092 L147.289 348.975 L153.496 348.975 L153.496 352.172 L137.321 352.172 L137.321 348.975 Z" fill="#000000" fill-rule="evenodd" fill-opacity="1" /><path clip-path="url(#clip200)" d="M82.7903 160.947 L90.4291 160.947 L90.4291 134.581 L82.119 136.248 L82.119 131.988 L90.3828 130.322 L95.0587 130.322 L95.0587 160.947 L102.698 160.947 L102.698 164.882 L82.7903 164.882 L82.7903 160.947 Z" fill="#000000" fill-rule="evenodd" fill-opacity="1" /><path clip-path="url(#clip200)" d="M122.142 133.4 Q118.531 133.4 116.702 136.965 Q114.897 140.507 114.897 147.636 Q114.897 154.743 116.702 158.308 Q118.531 161.849 122.142 161.849 Q125.776 161.849 127.582 158.308 Q129.41 154.743 129.41 147.636 Q129.41 140.507 127.582 136.965 Q125.776 133.4 122.142 133.4 M122.142 129.697 Q127.952 129.697 131.008 134.303 Q134.086 138.886 134.086 147.636 Q134.086 156.363 131.008 160.97 Q127.952 165.553 122.142 165.553 Q116.332 165.553 113.253 160.97 Q110.198 156.363 110.198 147.636 Q110.198 138.886 113.253 134.303 Q116.332 129.697 122.142 129.697 Z" fill="#000000" fill-rule="evenodd" fill-opacity="1" /><path clip-path="url(#clip200)" d="M143.791 111.893 Q140.857 111.893 139.371 114.789 Q137.904 117.667 137.904 123.46 Q137.904 129.233 139.371 132.13 Q140.857 135.007 143.791 135.007 Q146.744 135.007 148.211 132.13 Q149.697 129.233 149.697 123.46 Q149.697 117.667 148.211 114.789 Q146.744 111.893 143.791 111.893 M143.791 108.883 Q148.512 108.883 150.994 112.626 Q153.496 116.35 153.496 123.46 Q153.496 130.55 150.994 134.293 Q148.512 138.017 143.791 138.017 Q139.07 138.017 136.569 134.293 Q134.086 130.55 134.086 123.46 Q134.086 116.35 136.569 112.626 Q139.07 108.883 143.791 108.883 Z" fill="#000000" fill-rule="evenodd" fill-opacity="1" /><polyline clip-path="url(#clip202)" style="stroke:#009af9; stroke-linecap:butt; stroke-linejoin:round; stroke-width:4; stroke-opacity:1; fill:none" points="
  2291.53,87.6286 2036.43,273.114 1781.33,439.78 1526.23,587.21 1271.13,725.307 1016.02,858.917 760.923,990.336 505.822,1120.67 250.72,1250.47 
  "/>
<circle clip-path="url(#clip202)" cx="2291.53" cy="87.6286" r="14" fill="#009af9" fill-rule="evenodd" fill-opacity="1" stroke="#000000" stroke-opacity="1" stroke-width="3.2"/>
<circle clip-path="url(#clip202)" cx="2036.43" cy="273.114" r="14" fill="#009af9" fill-rule="evenodd" fill-opacity="1" stroke="#000000" stroke-opacity="1" stroke-width="3.2"/>
<circle clip-path="url(#clip202)" cx="1781.33" cy="439.78" r="14" fill="#009af9" fill-rule="evenodd" fill-opacity="1" stroke="#000000" stroke-opacity="1" stroke-width="3.2"/>
<circle clip-path="url(#clip202)" cx="1526.23" cy="587.21" r="14" fill="#009af9" fill-rule="evenodd" fill-opacity="1" stroke="#000000" stroke-opacity="1" stroke-width="3.2"/>
<circle clip-path="url(#clip202)" cx="1271.13" cy="725.307" r="14" fill="#009af9" fill-rule="evenodd" fill-opacity="1" stroke="#000000" stroke-opacity="1" stroke-width="3.2"/>
<circle clip-path="url(#clip202)" cx="1016.02" cy="858.917" r="14" fill="#009af9" fill-rule="evenodd" fill-opacity="1" stroke="#000000" stroke-opacity="1" stroke-width="3.2"/>
<circle clip-path="url(#clip202)" cx="760.923" cy="990.336" r="14" fill="#009af9" fill-rule="evenodd" fill-opacity="1" stroke="#000000" stroke-opacity="1" stroke-width="3.2"/>
<circle clip-path="url(#clip202)" cx="505.822" cy="1120.67" r="14" fill="#009af9" fill-rule="evenodd" fill-opacity="1" stroke="#000000" stroke-opacity="1" stroke-width="3.2"/>
<circle clip-path="url(#clip202)" cx="250.72" cy="1250.47" r="14" fill="#009af9" fill-rule="evenodd" fill-opacity="1" stroke="#000000" stroke-opacity="1" stroke-width="3.2"/>
<polyline clip-path="url(#clip202)" style="stroke:#e26f46; stroke-linecap:butt; stroke-linejoin:round; stroke-width:4; stroke-opacity:1; fill:none" points="
  250.72,1433.78 270.65,1423.68 454.934,1330.3 565.681,1274.19 659.315,1226.74 761.029,1175.2 854.8,1127.69 955.333,1076.75 1071.81,1017.73 1175.32,965.275 
  1266.09,919.282 1365.05,869.136 1464.6,818.692 1574.67,762.92 1679.4,709.854 1788.29,654.678 1879.95,608.232 1991.86,551.526 2097.06,498.221 2265.59,412.822 
  2291.53,399.679 
  "/>
<path clip-path="url(#clip200)" d="
M1987.85 250.328 L2280.65 250.328 L2280.65 94.8081 L1987.85 94.8081  Z
  " fill="#ffffff" fill-rule="evenodd" fill-opacity="1"/>
<polyline clip-path="url(#clip200)" style="stroke:#000000; stroke-linecap:butt; stroke-linejoin:round; stroke-width:4; stroke-opacity:1; fill:none" points="
  1987.85,250.328 2280.65,250.328 2280.65,94.8081 1987.85,94.8081 1987.85,250.328 
  "/>
<polyline clip-path="url(#clip200)" style="stroke:#009af9; stroke-linecap:butt; stroke-linejoin:round; stroke-width:4; stroke-opacity:1; fill:none" points="
  2011.89,146.648 2156.11,146.648 
  "/>
<circle clip-path="url(#clip200)" cx="2084" cy="146.648" r="23" fill="#009af9" fill-rule="evenodd" fill-opacity="1" stroke="#000000" stroke-opacity="1" stroke-width="5.12"/>
<path clip-path="url(#clip200)" d="M2193.99 166.336 Q2192.18 170.965 2190.47 172.377 Q2188.76 173.789 2185.89 173.789 L2182.48 173.789 L2182.48 170.224 L2184.98 170.224 Q2186.74 170.224 2187.71 169.391 Q2188.69 168.558 2189.87 165.456 L2190.63 163.511 L2180.14 138.002 L2184.66 138.002 L2192.76 158.28 L2200.86 138.002 L2205.38 138.002 L2193.99 166.336 Z" fill="#000000" fill-rule="evenodd" fill-opacity="1" /><path clip-path="url(#clip200)" d="M2212.67 159.993 L2220.31 159.993 L2220.31 133.627 L2212 135.294 L2212 131.035 L2220.26 129.368 L2224.94 129.368 L2224.94 159.993 L2232.57 159.993 L2232.57 163.928 L2212.67 163.928 L2212.67 159.993 Z" fill="#000000" fill-rule="evenodd" fill-opacity="1" /><polyline clip-path="url(#clip200)" style="stroke:#e26f46; stroke-linecap:butt; stroke-linejoin:round; stroke-width:4; stroke-opacity:1; fill:none" points="
  2011.89,198.488 2156.11,198.488 
  "/>
<path clip-path="url(#clip200)" d="M2193.99 218.176 Q2192.18 222.805 2190.47 224.217 Q2188.76 225.629 2185.89 225.629 L2182.48 225.629 L2182.48 222.064 L2184.98 222.064 Q2186.74 222.064 2187.71 221.231 Q2188.69 220.398 2189.87 217.296 L2190.63 215.351 L2180.14 189.842 L2184.66 189.842 L2192.76 210.12 L2200.86 189.842 L2205.38 189.842 L2193.99 218.176 Z" fill="#000000" fill-rule="evenodd" fill-opacity="1" /><path clip-path="url(#clip200)" d="M2215.89 211.833 L2232.2 211.833 L2232.2 215.768 L2210.26 215.768 L2210.26 211.833 Q2212.92 209.078 2217.51 204.449 Q2222.11 199.796 2223.29 198.453 Q2225.54 195.93 2226.42 194.194 Q2227.32 192.435 2227.32 190.745 Q2227.32 187.99 2225.38 186.254 Q2223.45 184.518 2220.35 184.518 Q2218.15 184.518 2215.7 185.282 Q2213.27 186.046 2210.49 187.597 L2210.49 182.875 Q2213.32 181.741 2215.77 181.162 Q2218.22 180.583 2220.26 180.583 Q2225.63 180.583 2228.82 183.268 Q2232.02 185.953 2232.02 190.444 Q2232.02 192.574 2231.21 194.495 Q2230.42 196.393 2228.32 198.986 Q2227.74 199.657 2224.64 202.875 Q2221.53 206.069 2215.89 211.833 Z" fill="#000000" fill-rule="evenodd" fill-opacity="1" /></svg>
