<?xml version="1.0" encoding="utf-8"?>
<svg xmlns="http://www.w3.org/2000/svg" xmlns:xlink="http://www.w3.org/1999/xlink" width="600" height="400" viewBox="0 0 2400 1600">
<defs>
  <clipPath id="clip640">
    <rect x="0" y="0" width="2400" height="1600"/>
  </clipPath>
</defs>
<path clip-path="url(#clip640)" d="
M0 1600 L2400 1600 L2400 0 L0 0  Z
  " fill="#ffffff" fill-rule="evenodd" fill-opacity="1"/>
<defs>
  <clipPath id="clip641">
    <rect x="480" y="0" width="1681" height="1600"/>
  </clipPath>
</defs>
<path clip-path="url(#clip640)" d="
M193.936 1486.45 L2352.76 1486.45 L2352.76 123.472 L193.936 123.472  Z
  " fill="#ffffff" fill-rule="evenodd" fill-opacity="1"/>
<defs>
  <clipPath id="clip642">
    <rect x="193" y="123" width="2160" height="1364"/>
  </clipPath>
</defs>
<polyline clip-path="url(#clip642)" style="stroke:#000000; stroke-linecap:butt; stroke-linejoin:round; stroke-width:2; stroke-opacity:0.1; fill:none" points="
  255.035,1486.45 255.035,123.472 
  "/>
<polyline clip-path="url(#clip642)" style="stroke:#000000; stroke-linecap:butt; stroke-linejoin:round; stroke-width:2; stroke-opacity:0.1; fill:none" points="
  764.19,1486.45 764.19,123.472 
  "/>
<polyline clip-path="url(#clip642)" style="stroke:#000000; stroke-linecap:butt; stroke-linejoin:round; stroke-width:2; stroke-opacity:0.1; fill:none" points="
  1273.35,1486.45 1273.35,123.472 
  "/>
<polyline clip-path="url(#clip642)" style="stroke:#000000; stroke-linecap:butt; stroke-linejoin:round; stroke-width:2; stroke-opacity:0.1; fill:none" points="
  1782.5,1486.45 1782.5,123.472 
  "/>
<polyline clip-path="url(#clip642)" style="stroke:#000000; stroke-linecap:butt; stroke-linejoin:round; stroke-width:2; stroke-opacity:0.1; fill:none" points="
  2291.66,1486.45 2291.66,123.472 
  "/>
<polyline clip-path="url(#clip640)" style="stroke:#000000; stroke-linecap:butt; stroke-linejoin:round; stroke-width:4; stroke-opacity:1; fill:none" points="
  193.936,1486.45 2352.76,1486.45 
  "/>
<polyline clip-path="url(#clip640)" style="stroke:#000000; stroke-linecap:butt; stroke-linejoin:round; stroke-width:4; stroke-opacity:1; fill:none" points="
  255.035,1486.45 255.035,1467.55 
  "/>
<polyline clip-path="url(#clip640)" style="stroke:#000000; stroke-linecap:butt; stroke-linejoin:round; stroke-width:4; stroke-opacity:1; fill:none" points="
  764.19,1486.45 764.19,1467.55 
  "/>
<polyline clip-path="url(#clip640)" style="stroke:#000000; stroke-linecap:butt; stroke-linejoin:round; stroke-width:4; stroke-opacity:1; fill:none" points="
  1273.35,1486.45 1273.35,1467.55 
  "/>
<polyline clip-path="url(#clip640)" style="stroke:#000000; stroke-linecap:butt; stroke-linejoin:round; stroke-width:4; stroke-opacity:1; fill:none" points="
  1782.5,1486.45 1782.5,1467.55 
  "/>
<polyline clip-path="url(#clip640)" style="stroke:#000000; stroke-linecap:butt; stroke-linejoin:round; stroke-width:4; stroke-opacity:1; fill:none" points="
  2291.66,1486.45 2291.66,1467.55 
  "/>
<path clip-path="url(#clip640)" d="M201.563 1532.02 L231.239 1532.02 L231.239 1535.95 L201.563 1535.95 L201.563 1532.02 Z" fill="#000000" fill-rule="evenodd" fill-opacity="1" /><path clip-path="url(#clip640)" d="M242.141 1544.91 L249.78 1544.91 L249.78 1518.55 L241.47 1520.21 L241.47 1515.95 L249.734 1514.29 L254.41 1514.29 L254.41 1544.91 L262.049 1544.91 L262.049 1548.85 L242.141 1548.85 L242.141 1544.91 Z" fill="#000000" fill-rule="evenodd" fill-opacity="1" /><path clip-path="url(#clip640)" d="M271.493 1542.97 L276.377 1542.97 L276.377 1548.85 L271.493 1548.85 L271.493 1542.97 Z" fill="#000000" fill-rule="evenodd" fill-opacity="1" /><path clip-path="url(#clip640)" d="M296.562 1517.37 Q292.951 1517.37 291.122 1520.93 Q289.317 1524.47 289.317 1531.6 Q289.317 1538.71 291.122 1542.27 Q292.951 1545.82 296.562 1545.82 Q300.196 1545.82 302.002 1542.27 Q303.831 1538.71 303.831 1531.6 Q303.831 1524.47 302.002 1520.93 Q300.196 1517.37 296.562 1517.37 M296.562 1513.66 Q302.372 1513.66 305.428 1518.27 Q308.507 1522.85 308.507 1531.6 Q308.507 1540.33 305.428 1544.94 Q302.372 1549.52 296.562 1549.52 Q290.752 1549.52 287.673 1544.94 Q284.618 1540.33 284.618 1531.6 Q284.618 1522.85 287.673 1518.27 Q290.752 1513.66 296.562 1513.66 Z" fill="#000000" fill-rule="evenodd" fill-opacity="1" /><path clip-path="url(#clip640)" d="M711.216 1532.02 L740.892 1532.02 L740.892 1535.95 L711.216 1535.95 L711.216 1532.02 Z" fill="#000000" fill-rule="evenodd" fill-opacity="1" /><path clip-path="url(#clip640)" d="M760.984 1517.37 Q757.373 1517.37 755.545 1520.93 Q753.739 1524.47 753.739 1531.6 Q753.739 1538.71 755.545 1542.27 Q757.373 1545.82 760.984 1545.82 Q764.619 1545.82 766.424 1542.27 Q768.253 1538.71 768.253 1531.6 Q768.253 1524.47 766.424 1520.93 Q764.619 1517.37 760.984 1517.37 M760.984 1513.66 Q766.794 1513.66 769.85 1518.27 Q772.929 1522.85 772.929 1531.6 Q772.929 1540.33 769.85 1544.94 Q766.794 1549.52 760.984 1549.52 Q755.174 1549.52 752.095 1544.94 Q749.04 1540.33 749.04 1531.6 Q749.04 1522.85 752.095 1518.27 Q755.174 1513.66 760.984 1513.66 Z" fill="#000000" fill-rule="evenodd" fill-opacity="1" /><path clip-path="url(#clip640)" d="M781.146 1542.97 L786.03 1542.97 L786.03 1548.85 L781.146 1548.85 L781.146 1542.97 Z" fill="#000000" fill-rule="evenodd" fill-opacity="1" /><path clip-path="url(#clip640)" d="M796.262 1514.29 L814.618 1514.29 L814.618 1518.22 L800.544 1518.22 L800.544 1526.7 Q801.563 1526.35 802.581 1526.19 Q803.6 1526 804.618 1526 Q810.405 1526 813.785 1529.17 Q817.165 1532.34 817.165 1537.76 Q817.165 1543.34 813.692 1546.44 Q810.22 1549.52 803.901 1549.52 Q801.725 1549.52 799.456 1549.15 Q797.211 1548.78 794.804 1548.04 L794.804 1543.34 Q796.887 1544.47 799.109 1545.03 Q801.331 1545.58 803.808 1545.58 Q807.813 1545.58 810.151 1543.48 Q812.489 1541.37 812.489 1537.76 Q812.489 1534.15 810.151 1532.04 Q807.813 1529.94 803.808 1529.94 Q801.933 1529.94 800.058 1530.35 Q798.206 1530.77 796.262 1531.65 L796.262 1514.29 Z" fill="#000000" fill-rule="evenodd" fill-opacity="1" /><path clip-path="url(#clip640)" d="M1250.73 1517.37 Q1247.12 1517.37 1245.29 1520.93 Q1243.49 1524.47 1243.49 1531.6 Q1243.49 1538.71 1245.29 1542.27 Q1247.12 1545.82 1250.73 1545.82 Q1254.36 1545.82 1256.17 1542.27 Q1258 1538.71 1258 1531.6 Q1258 1524.47 1256.17 1520.93 Q1254.36 1517.37 1250.73 1517.37 M1250.73 1513.66 Q1256.54 1513.66 1259.6 1518.27 Q1262.67 1522.85 1262.67 1531.6 Q1262.67 1540.33 1259.6 1544.94 Q1256.54 1549.52 1250.73 1549.52 Q1244.92 1549.52 1241.84 1544.94 Q1238.79 1540.33 1238.79 1531.6 Q1238.79 1522.85 1241.84 1518.27 Q1244.92 1513.66 1250.73 1513.66 Z" fill="#000000" fill-rule="evenodd" fill-opacity="1" /><path clip-path="url(#clip640)" d="M1270.89 1542.97 L1275.78 1542.97 L1275.78 1548.85 L1270.89 1548.85 L1270.89 1542.97 Z" fill="#000000" fill-rule="evenodd" fill-opacity="1" /><path clip-path="url(#clip640)" d="M1295.96 1517.37 Q1292.35 1517.37 1290.52 1520.93 Q1288.72 1524.47 1288.72 1531.6 Q1288.72 1538.71 1290.52 1542.27 Q1292.35 1545.82 1295.96 1545.82 Q1299.6 1545.82 1301.4 1542.27 Q1303.23 1538.71 1303.23 1531.6 Q1303.23 1524.47 1301.4 1520.93 Q1299.6 1517.37 1295.96 1517.37 M1295.96 1513.66 Q1301.77 1513.66 1304.83 1518.27 Q1307.91 1522.85 1307.91 1531.6 Q1307.91 1540.33 1304.83 1544.94 Q1301.77 1549.52 1295.96 1549.52 Q1290.15 1549.52 1287.07 1544.94 Q1284.02 1540.33 1284.02 1531.6 Q1284.02 1522.85 1287.07 1518.27 Q1290.15 1513.66 1295.96 1513.66 Z" fill="#000000" fill-rule="evenodd" fill-opacity="1" /><path clip-path="url(#clip640)" d="M1760.38 1517.37 Q1756.77 1517.37 1754.94 1520.93 Q1753.14 1524.47 1753.14 1531.6 Q1753.14 1538.71 1754.94 1542.27 Q1756.77 1545.82 1760.38 1545.82 Q1764.02 1545.82 1765.82 1542.27 Q1767.65 1538.71 1767.65 1531.6 Q1767.65 1524.47 1765.82 1520.93 Q1764.02 1517.37 1760.38 1517.37 M1760.38 1513.66 Q1766.19 1513.66 1769.25 1518.27 Q1772.33 1522.85 1772.33 1531.6 Q1772.33 1540.33 1769.25 1544.94 Q1766.19 1549.52 1760.38 1549.52 Q1754.57 1549.52 1751.49 1544.94 Q1748.44 1540.33 1748.44 1531.6 Q1748.44 1522.85 1751.49 1518.27 Q1754.57 1513.66 1760.38 1513.66 Z" fill="#000000" fill-rule="evenodd" fill-opacity="1" /><path clip-path="url(#clip640)" d="M1780.55 1542.97 L1785.43 1542.97 L1785.43 1548.85 L1780.55 1548.85 L1780.55 1542.97 Z" fill="#000000" fill-rule="evenodd" fill-opacity="1" /><path clip-path="url(#clip640)" d="M1795.66 1514.29 L1814.02 1514.29 L1814.02 1518.22 L1799.94 1518.22 L1799.94 1526.7 Q1800.96 1526.35 1801.98 1526.19 Q1803 1526 1804.02 1526 Q1809.8 1526 1813.18 1529.17 Q1816.56 1532.34 1816.56 1537.76 Q1816.56 1543.34 1813.09 1546.44 Q1809.62 1549.52 1803.3 1549.52 Q1801.12 1549.52 1798.86 1549.15 Q1796.61 1548.78 1794.2 1548.04 L1794.2 1543.34 Q1796.29 1544.47 1798.51 1545.03 Q1800.73 1545.58 1803.21 1545.58 Q1807.21 1545.58 1809.55 1543.48 Q1811.89 1541.37 1811.89 1537.76 Q1811.89 1534.15 1809.55 1532.04 Q1807.21 1529.94 1803.21 1529.94 Q1801.33 1529.94 1799.46 1530.35 Q1797.61 1530.77 1795.66 1531.65 L1795.66 1514.29 Z" fill="#000000" fill-rule="evenodd" fill-opacity="1" /><path clip-path="url(#clip640)" d="M2258.81 1544.91 L2266.45 1544.91 L2266.45 1518.55 L2258.14 1520.21 L2258.14 1515.95 L2266.4 1514.29 L2271.08 1514.29 L2271.08 1544.91 L2278.72 1544.91 L2278.72 1548.85 L2258.81 1548.85 L2258.81 1544.91 Z" fill="#000000" fill-rule="evenodd" fill-opacity="1" /><path clip-path="url(#clip640)" d="M2288.16 1542.97 L2293.05 1542.97 L2293.05 1548.85 L2288.16 1548.85 L2288.16 1542.97 Z" fill="#000000" fill-rule="evenodd" fill-opacity="1" /><path clip-path="url(#clip640)" d="M2313.23 1517.37 Q2309.62 1517.37 2307.79 1520.93 Q2305.99 1524.47 2305.99 1531.6 Q2305.99 1538.71 2307.79 1542.27 Q2309.62 1545.82 2313.23 1545.82 Q2316.87 1545.82 2318.67 1542.27 Q2320.5 1538.71 2320.5 1531.6 Q2320.5 1524.47 2318.67 1520.93 Q2316.87 1517.37 2313.23 1517.37 M2313.23 1513.66 Q2319.04 1513.66 2322.1 1518.27 Q2325.18 1522.85 2325.18 1531.6 Q2325.18 1540.33 2322.1 1544.94 Q2319.04 1549.52 2313.23 1549.52 Q2307.42 1549.52 2304.34 1544.94 Q2301.29 1540.33 2301.29 1531.6 Q2301.29 1522.85 2304.34 1518.27 Q2307.42 1513.66 2313.23 1513.66 Z" fill="#000000" fill-rule="evenodd" fill-opacity="1" /><polyline clip-path="url(#clip642)" style="stroke:#000000; stroke-linecap:butt; stroke-linejoin:round; stroke-width:2; stroke-opacity:0.1; fill:none" points="
  193.936,1446.02 2352.76,1446.02 
  "/>
<polyline clip-path="url(#clip642)" style="stroke:#000000; stroke-linecap:butt; stroke-linejoin:round; stroke-width:2; stroke-opacity:0.1; fill:none" points="
  193.936,1125.49 2352.76,1125.49 
  "/>
<polyline clip-path="url(#clip642)" style="stroke:#000000; stroke-linecap:butt; stroke-linejoin:round; stroke-width:2; stroke-opacity:0.1; fill:none" points="
  193.936,804.96 2352.76,804.96 
  "/>
<polyline clip-path="url(#clip642)" style="stroke:#000000; stroke-linecap:butt; stroke-linejoin:round; stroke-width:2; stroke-opacity:0.1; fill:none" points="
  193.936,484.431 2352.76,484.431 
  "/>
<polyline clip-path="url(#clip642)" style="stroke:#000000; stroke-linecap:butt; stroke-linejoin:round; stroke-width:2; stroke-opacity:0.1; fill:none" points="
  193.936,163.902 2352.76,163.902 
  "/>
<polyline clip-path="url(#clip640)" style="stroke:#000000; stroke-linecap:butt; stroke-linejoin:round; stroke-width:4; stroke-opacity:1; fill:none" points="
  193.936,1486.45 193.936,123.472 
  "/>
<polyline clip-path="url(#clip640)" style="stroke:#000000; stroke-linecap:butt; stroke-linejoin:round; stroke-width:4; stroke-opacity:1; fill:none" points="
  193.936,1446.02 212.834,1446.02 
  "/>
<polyline clip-path="url(#clip640)" style="stroke:#000000; stroke-linecap:butt; stroke-linejoin:round; stroke-width:4; stroke-opacity:1; fill:none" points="
  193.936,1125.49 212.834,1125.49 
  "/>
<polyline clip-path="url(#clip640)" style="stroke:#000000; stroke-linecap:butt; stroke-linejoin:round; stroke-width:4; stroke-opacity:1; fill:none" points="
  193.936,804.96 212.834,804.96 
  "/>
<polyline clip-path="url(#clip640)" style="stroke:#000000; stroke-linecap:butt; stroke-linejoin:round; stroke-width:4; stroke-opacity:1; fill:none" points="
  193.936,484.431 212.834,484.431 
  "/>
<polyline clip-path="url(#clip640)" style="stroke:#000000; stroke-linecap:butt; stroke-linejoin:round; stroke-width:4; stroke-opacity:1; fill:none" points="
  193.936,163.902 212.834,163.902 
  "/>
<path clip-path="url(#clip640)" d="M50.9921 1446.47 L80.6679 1446.47 L80.6679 1450.4 L50.9921 1450.4 L50.9921 1446.47 Z" fill="#000000" fill-rule="evenodd" fill-opacity="1" /><path clip-path="url(#clip640)" d="M91.5706 1459.36 L99.2095 1459.36 L99.2095 1433 L90.8993 1434.66 L90.8993 1430.4 L99.1632 1428.74 L103.839 1428.74 L103.839 1459.36 L111.478 1459.36 L111.478 1463.3 L91.5706 1463.3 L91.5706 1459.36 Z" fill="#000000" fill-rule="evenodd" fill-opacity="1" /><path clip-path="url(#clip640)" d="M120.922 1457.42 L125.807 1457.42 L125.807 1463.3 L120.922 1463.3 L120.922 1457.42 Z" fill="#000000" fill-rule="evenodd" fill-opacity="1" /><path clip-path="url(#clip640)" d="M145.992 1431.82 Q142.381 1431.82 140.552 1435.38 Q138.746 1438.92 138.746 1446.05 Q138.746 1453.16 140.552 1456.72 Q142.381 1460.27 145.992 1460.27 Q149.626 1460.27 151.431 1456.72 Q153.26 1453.16 153.26 1446.05 Q153.26 1438.92 151.431 1435.38 Q149.626 1431.82 145.992 1431.82 M145.992 1428.11 Q151.802 1428.11 154.857 1432.72 Q157.936 1437.3 157.936 1446.05 Q157.936 1454.78 154.857 1459.39 Q151.802 1463.97 145.992 1463.97 Q140.181 1463.97 137.103 1459.39 Q134.047 1454.78 134.047 1446.05 Q134.047 1437.3 137.103 1432.72 Q140.181 1428.11 145.992 1428.11 Z" fill="#000000" fill-rule="evenodd" fill-opacity="1" /><path clip-path="url(#clip640)" d="M51.9875 1125.94 L81.6633 1125.94 L81.6633 1129.88 L51.9875 1129.88 L51.9875 1125.94 Z" fill="#000000" fill-rule="evenodd" fill-opacity="1" /><path clip-path="url(#clip640)" d="M101.756 1111.29 Q98.1447 1111.29 96.316 1114.85 Q94.5104 1118.39 94.5104 1125.52 Q94.5104 1132.63 96.316 1136.2 Q98.1447 1139.74 101.756 1139.74 Q105.39 1139.74 107.196 1136.2 Q109.024 1132.63 109.024 1125.52 Q109.024 1118.39 107.196 1114.85 Q105.39 1111.29 101.756 1111.29 M101.756 1107.58 Q107.566 1107.58 110.621 1112.19 Q113.7 1116.77 113.7 1125.52 Q113.7 1134.25 110.621 1138.86 Q107.566 1143.44 101.756 1143.44 Q95.9456 1143.44 92.8669 1138.86 Q89.8114 1134.25 89.8114 1125.52 Q89.8114 1116.77 92.8669 1112.19 Q95.9456 1107.58 101.756 1107.58 Z" fill="#000000" fill-rule="evenodd" fill-opacity="1" /><path clip-path="url(#clip640)" d="M121.918 1136.89 L126.802 1136.89 L126.802 1142.77 L121.918 1142.77 L121.918 1136.89 Z" fill="#000000" fill-rule="evenodd" fill-opacity="1" /><path clip-path="url(#clip640)" d="M137.033 1108.21 L155.39 1108.21 L155.39 1112.14 L141.316 1112.14 L141.316 1120.62 Q142.334 1120.27 143.353 1120.11 Q144.371 1119.92 145.39 1119.92 Q151.177 1119.92 154.556 1123.09 Q157.936 1126.26 157.936 1131.68 Q157.936 1137.26 154.464 1140.36 Q150.992 1143.44 144.672 1143.44 Q142.496 1143.44 140.228 1143.07 Q137.982 1142.7 135.575 1141.96 L135.575 1137.26 Q137.658 1138.39 139.881 1138.95 Q142.103 1139.51 144.58 1139.51 Q148.584 1139.51 150.922 1137.4 Q153.26 1135.29 153.26 1131.68 Q153.26 1128.07 150.922 1125.96 Q148.584 1123.86 144.58 1123.86 Q142.705 1123.86 140.83 1124.27 Q138.978 1124.69 137.033 1125.57 L137.033 1108.21 Z" fill="#000000" fill-rule="evenodd" fill-opacity="1" /><path clip-path="url(#clip640)" d="M100.76 790.759 Q97.1493 790.759 95.3206 794.323 Q93.515 797.865 93.515 804.995 Q93.515 812.101 95.3206 815.666 Q97.1493 819.208 100.76 819.208 Q104.395 819.208 106.2 815.666 Q108.029 812.101 108.029 804.995 Q108.029 797.865 106.2 794.323 Q104.395 790.759 100.76 790.759 M100.76 787.055 Q106.571 787.055 109.626 791.661 Q112.705 796.245 112.705 804.995 Q112.705 813.722 109.626 818.328 Q106.571 822.911 100.76 822.911 Q94.9502 822.911 91.8715 818.328 Q88.816 813.722 88.816 804.995 Q88.816 796.245 91.8715 791.661 Q94.9502 787.055 100.76 787.055 Z" fill="#000000" fill-rule="evenodd" fill-opacity="1" /><path clip-path="url(#clip640)" d="M120.922 816.36 L125.807 816.36 L125.807 822.24 L120.922 822.24 L120.922 816.36 Z" fill="#000000" fill-rule="evenodd" fill-opacity="1" /><path clip-path="url(#clip640)" d="M145.992 790.759 Q142.381 790.759 140.552 794.323 Q138.746 797.865 138.746 804.995 Q138.746 812.101 140.552 815.666 Q142.381 819.208 145.992 819.208 Q149.626 819.208 151.431 815.666 Q153.26 812.101 153.26 804.995 Q153.26 797.865 151.431 794.323 Q149.626 790.759 145.992 790.759 M145.992 787.055 Q151.802 787.055 154.857 791.661 Q157.936 796.245 157.936 804.995 Q157.936 813.722 154.857 818.328 Q151.802 822.911 145.992 822.911 Q140.181 822.911 137.103 818.328 Q134.047 813.722 134.047 804.995 Q134.047 796.245 137.103 791.661 Q140.181 787.055 145.992 787.055 Z" fill="#000000" fill-rule="evenodd" fill-opacity="1" /><path clip-path="url(#clip640)" d="M101.756 470.23 Q98.1447 470.23 96.316 473.794 Q94.5104 477.336 94.5104 484.466 Q94.5104 491.572 96.316 495.137 Q98.1447 498.679 101.756 498.679 Q105.39 498.679 107.196 495.137 Q109.024 491.572 109.024 484.466 Q109.024 477.336 107.196 473.794 Q105.39 470.23 101.756 470.23 M101.756 466.526 Q107.566 466.526 110.621 471.132 Q113.7 475.716 113.7 484.466 Q113.7 493.192 110.621 497.799 Q107.566 502.382 101.756 502.382 Q95.9456 502.382 92.8669 497.799 Q89.8114 493.192 89.8114 484.466 Q89.8114 475.716 92.8669 471.132 Q95.9456 466.526 101.756 466.526 Z" fill="#000000" fill-rule="evenodd" fill-opacity="1" /><path clip-path="url(#clip640)" d="M121.918 495.831 L126.802 495.831 L126.802 501.711 L121.918 501.711 L121.918 495.831 Z" fill="#000000" fill-rule="evenodd" fill-opacity="1" /><path clip-path="url(#clip640)" d="M137.033 467.151 L155.39 467.151 L155.39 471.086 L141.316 471.086 L141.316 479.558 Q142.334 479.211 143.353 479.049 Q144.371 478.864 145.39 478.864 Q151.177 478.864 154.556 482.035 Q157.936 485.206 157.936 490.623 Q157.936 496.202 154.464 499.304 Q150.992 502.382 144.672 502.382 Q142.496 502.382 140.228 502.012 Q137.982 501.641 135.575 500.901 L135.575 496.202 Q137.658 497.336 139.881 497.891 Q142.103 498.447 144.58 498.447 Q148.584 498.447 150.922 496.341 Q153.26 494.234 153.26 490.623 Q153.26 487.012 150.922 484.905 Q148.584 482.799 144.58 482.799 Q142.705 482.799 140.83 483.216 Q138.978 483.632 137.033 484.512 L137.033 467.151 Z" fill="#000000" fill-rule="evenodd" fill-opacity="1" /><path clip-path="url(#clip640)" d="M91.5706 177.247 L99.2095 177.247 L99.2095 150.881 L90.8993 152.548 L90.8993 148.289 L99.1632 146.622 L103.839 146.622 L103.839 177.247 L111.478 177.247 L111.478 181.182 L91.5706 181.182 L91.5706 177.247 Z" fill="#000000" fill-rule="evenodd" fill-opacity="1" /><path clip-path="url(#clip640)" d="M120.922 175.302 L125.807 175.302 L125.807 181.182 L120.922 181.182 L120.922 175.302 Z" fill="#000000" fill-rule="evenodd" fill-opacity="1" /><path clip-path="url(#clip640)" d="M145.992 149.701 Q142.381 149.701 140.552 153.265 Q138.746 156.807 138.746 163.937 Q138.746 171.043 140.552 174.608 Q142.381 178.149 145.992 178.149 Q149.626 178.149 151.431 174.608 Q153.26 171.043 153.26 163.937 Q153.26 156.807 151.431 153.265 Q149.626 149.701 145.992 149.701 M145.992 145.997 Q151.802 145.997 154.857 150.603 Q157.936 155.187 157.936 163.937 Q157.936 172.663 154.857 177.27 Q151.802 181.853 145.992 181.853 Q140.181 181.853 137.103 177.27 Q134.047 172.663 134.047 163.937 Q134.047 155.187 137.103 150.603 Q140.181 145.997 145.992 145.997 Z" fill="#000000" fill-rule="evenodd" fill-opacity="1" /><path clip-path="url(#clip640)" d="M521.235 63.9476 L521.235 47.7034 L507.867 47.7034 L507.867 40.9789 L529.337 40.9789 L529.337 66.9452 Q524.597 70.3075 518.885 72.0494 Q513.174 73.7508 506.692 73.7508 Q492.514 73.7508 484.493 65.4869 Q476.513 57.1826 476.513 42.3968 Q476.513 27.5705 484.493 19.3066 Q492.514 11.0023 506.692 11.0023 Q512.606 11.0023 517.913 12.4606 Q523.26 13.9189 527.757 16.7545 L527.757 25.464 Q523.22 21.6156 518.116 19.6712 Q513.011 17.7268 507.381 17.7268 Q496.281 17.7268 490.691 23.9246 Q485.141 30.1225 485.141 42.3968 Q485.141 54.6305 490.691 60.8284 Q496.281 67.0263 507.381 67.0263 Q511.715 67.0263 515.118 66.2971 Q518.521 65.5274 521.235 63.9476 Z" fill="#000000" fill-rule="evenodd" fill-opacity="1" /><path clip-path="url(#clip640)" d="M564.579 49.7694 Q555.546 49.7694 552.062 51.8354 Q548.578 53.9013 548.578 58.8839 Q548.578 62.8538 551.171 65.2034 Q553.804 67.5124 558.301 67.5124 Q564.498 67.5124 568.225 63.1374 Q571.993 58.7219 571.993 51.4303 L571.993 49.7694 L564.579 49.7694 M579.446 46.6907 L579.446 72.576 L571.993 72.576 L571.993 65.6895 Q569.441 69.8214 565.633 71.8063 Q561.825 73.7508 556.316 73.7508 Q549.348 73.7508 545.216 69.8619 Q541.125 65.9325 541.125 59.3701 Q541.125 51.7138 546.229 47.825 Q551.374 43.9361 561.541 43.9361 L571.993 43.9361 L571.993 43.2069 Q571.993 38.0623 568.59 35.2672 Q565.228 32.4315 559.111 32.4315 Q555.222 32.4315 551.536 33.3632 Q547.849 34.295 544.447 36.1584 L544.447 29.2718 Q548.538 27.692 552.386 26.9223 Q556.235 26.1121 559.88 26.1121 Q569.724 26.1121 574.585 31.2163 Q579.446 36.3204 579.446 46.6907 Z" fill="#000000" fill-rule="evenodd" fill-opacity="1" /><path clip-path="url(#clip640)" d="M594.799 9.54393 L602.253 9.54393 L602.253 72.576 L594.799 72.576 L594.799 9.54393 Z" fill="#000000" fill-rule="evenodd" fill-opacity="1" /><path clip-path="url(#clip640)" d="M656.657 48.0275 L656.657 51.6733 L622.386 51.6733 Q622.872 59.3701 627.004 63.421 Q631.176 67.4314 638.59 67.4314 Q642.883 67.4314 646.894 66.3781 Q650.945 65.3249 654.915 63.2184 L654.915 70.267 Q650.904 71.9684 646.691 72.8596 Q642.478 73.7508 638.144 73.7508 Q627.287 73.7508 620.928 67.4314 Q614.608 61.1119 614.608 50.3365 Q614.608 39.1965 620.604 32.6746 Q626.639 26.1121 636.848 26.1121 Q646.003 26.1121 651.309 32.0264 Q656.657 37.9003 656.657 48.0275 M649.203 45.84 Q649.122 39.7232 645.76 36.0774 Q642.438 32.4315 636.929 32.4315 Q630.69 32.4315 626.923 35.9558 Q623.196 39.4801 622.629 45.8805 L649.203 45.84 Z" fill="#000000" fill-rule="evenodd" fill-opacity="1" /><path clip-path="url(#clip640)" d="M695.181 34.1734 Q693.925 33.4443 692.426 33.1202 Q690.968 32.7556 689.185 32.7556 Q682.866 32.7556 679.463 36.8875 Q676.101 40.9789 676.101 48.6757 L676.101 72.576 L668.607 72.576 L668.607 27.2059 L676.101 27.2059 L676.101 34.2544 Q678.45 30.1225 682.218 28.1376 Q685.985 26.1121 691.373 26.1121 Q692.142 26.1121 693.074 26.2337 Q694.006 26.3147 695.14 26.5172 L695.181 34.1734 Z" fill="#000000" fill-rule="evenodd" fill-opacity="1" /><path clip-path="url(#clip640)" d="M702.715 9.54393 L710.21 9.54393 L710.21 46.7717 L732.449 27.2059 L741.969 27.2059 L717.906 48.4326 L742.981 72.576 L733.259 72.576 L710.21 50.4176 L710.21 72.576 L702.715 72.576 L702.715 9.54393 Z" fill="#000000" fill-rule="evenodd" fill-opacity="1" /><path clip-path="url(#clip640)" d="M751.043 27.2059 L758.496 27.2059 L758.496 72.576 L751.043 72.576 L751.043 27.2059 M751.043 9.54393 L758.496 9.54393 L758.496 18.9825 L751.043 18.9825 L751.043 9.54393 Z" fill="#000000" fill-rule="evenodd" fill-opacity="1" /><path clip-path="url(#clip640)" d="M811.806 45.1919 L811.806 72.576 L804.353 72.576 L804.353 45.4349 Q804.353 38.994 801.841 35.7938 Q799.329 32.5936 794.306 32.5936 Q788.27 32.5936 784.787 36.4419 Q781.303 40.2903 781.303 46.9338 L781.303 72.576 L773.809 72.576 L773.809 27.2059 L781.303 27.2059 L781.303 34.2544 Q783.976 30.163 787.582 28.1376 Q791.228 26.1121 795.967 26.1121 Q803.785 26.1121 807.796 30.9732 Q811.806 35.7938 811.806 45.1919 Z" fill="#000000" fill-rule="evenodd" fill-opacity="1" /><path clip-path="url(#clip640)" d="M891.852 48.0275 L891.852 51.6733 L857.581 51.6733 Q858.068 59.3701 862.199 63.421 Q866.372 67.4314 873.785 67.4314 Q878.079 67.4314 882.089 66.3781 Q886.14 65.3249 890.11 63.2184 L890.11 70.267 Q886.1 71.9684 881.887 72.8596 Q877.674 73.7508 873.339 73.7508 Q862.483 73.7508 856.123 67.4314 Q849.804 61.1119 849.804 50.3365 Q849.804 39.1965 855.799 32.6746 Q861.835 26.1121 872.043 26.1121 Q881.198 26.1121 886.505 32.0264 Q891.852 37.9003 891.852 48.0275 M884.398 45.84 Q884.317 39.7232 880.955 36.0774 Q877.633 32.4315 872.124 32.4315 Q865.886 32.4315 862.118 35.9558 Q858.392 39.4801 857.824 45.8805 L884.398 45.84 Z" fill="#000000" fill-rule="evenodd" fill-opacity="1" /><path clip-path="url(#clip640)" d="M930.376 34.1734 Q929.12 33.4443 927.622 33.1202 Q926.163 32.7556 924.381 32.7556 Q918.061 32.7556 914.659 36.8875 Q911.296 40.9789 911.296 48.6757 L911.296 72.576 L903.802 72.576 L903.802 27.2059 L911.296 27.2059 L911.296 34.2544 Q913.646 30.1225 917.413 28.1376 Q921.181 26.1121 926.568 26.1121 Q927.338 26.1121 928.27 26.2337 Q929.201 26.3147 930.336 26.5172 L930.376 34.1734 Z" fill="#000000" fill-rule="evenodd" fill-opacity="1" /><path clip-path="url(#clip640)" d="M963.026 34.1734 Q961.771 33.4443 960.272 33.1202 Q958.813 32.7556 957.031 32.7556 Q950.712 32.7556 947.309 36.8875 Q943.947 40.9789 943.947 48.6757 L943.947 72.576 L936.453 72.576 L936.453 27.2059 L943.947 27.2059 L943.947 34.2544 Q946.296 30.1225 950.064 28.1376 Q953.831 26.1121 959.219 26.1121 Q959.988 26.1121 960.92 26.2337 Q961.852 26.3147 962.986 26.5172 L963.026 34.1734 Z" fill="#000000" fill-rule="evenodd" fill-opacity="1" /><path clip-path="url(#clip640)" d="M986.603 32.4315 Q980.607 32.4315 977.124 37.1306 Q973.64 41.7891 973.64 49.9314 Q973.64 58.0738 977.083 62.7728 Q980.567 67.4314 986.603 67.4314 Q992.558 67.4314 996.041 62.7323 Q999.525 58.0333 999.525 49.9314 Q999.525 41.8701 996.041 37.1711 Q992.558 32.4315 986.603 32.4315 M986.603 26.1121 Q996.325 26.1121 1001.87 32.4315 Q1007.42 38.7509 1007.42 49.9314 Q1007.42 61.0714 1001.87 67.4314 Q996.325 73.7508 986.603 73.7508 Q976.84 73.7508 971.29 67.4314 Q965.781 61.0714 965.781 49.9314 Q965.781 38.7509 971.29 32.4315 Q976.84 26.1121 986.603 26.1121 Z" fill="#000000" fill-rule="evenodd" fill-opacity="1" /><path clip-path="url(#clip640)" d="M1046.07 34.1734 Q1044.81 33.4443 1043.32 33.1202 Q1041.86 32.7556 1040.07 32.7556 Q1033.76 32.7556 1030.35 36.8875 Q1026.99 40.9789 1026.99 48.6757 L1026.99 72.576 L1019.5 72.576 L1019.5 27.2059 L1026.99 27.2059 L1026.99 34.2544 Q1029.34 30.1225 1033.11 28.1376 Q1036.87 26.1121 1042.26 26.1121 Q1043.03 26.1121 1043.96 26.2337 Q1044.9 26.3147 1046.03 26.5172 L1046.07 34.1734 Z" fill="#000000" fill-rule="evenodd" fill-opacity="1" /><path clip-path="url(#clip640)" d="M1054.33 62.2867 L1062.88 62.2867 L1062.88 72.576 L1054.33 72.576 L1054.33 62.2867 M1054.33 29.6769 L1062.88 29.6769 L1062.88 39.9662 L1054.33 39.9662 L1054.33 29.6769 Z" fill="#000000" fill-rule="evenodd" fill-opacity="1" /><path clip-path="url(#clip640)" d="M1125.31 17.4837 Q1118.99 17.4837 1115.79 23.7221 Q1112.63 29.92 1112.63 42.3968 Q1112.63 54.833 1115.79 61.0714 Q1118.99 67.2693 1125.31 67.2693 Q1131.67 67.2693 1134.83 61.0714 Q1138.03 54.833 1138.03 42.3968 Q1138.03 29.92 1134.83 23.7221 Q1131.67 17.4837 1125.31 17.4837 M1125.31 11.0023 Q1135.47 11.0023 1140.82 19.0636 Q1146.21 27.0843 1146.21 42.3968 Q1146.21 57.6687 1140.82 65.73 Q1135.47 73.7508 1125.31 73.7508 Q1115.14 73.7508 1109.75 65.73 Q1104.4 57.6687 1104.4 42.3968 Q1104.4 27.0843 1109.75 19.0636 Q1115.14 11.0023 1125.31 11.0023 Z" fill="#000000" fill-rule="evenodd" fill-opacity="1" /><path clip-path="url(#clip640)" d="M1160.59 62.2867 L1169.14 62.2867 L1169.14 72.576 L1160.59 72.576 L1160.59 62.2867 Z" fill="#000000" fill-rule="evenodd" fill-opacity="1" /><path clip-path="url(#clip640)" d="M1204.46 17.4837 Q1198.14 17.4837 1194.94 23.7221 Q1191.78 29.92 1191.78 42.3968 Q1191.78 54.833 1194.94 61.0714 Q1198.14 67.2693 1204.46 67.2693 Q1210.82 67.2693 1213.98 61.0714 Q1217.18 54.833 1217.18 42.3968 Q1217.18 29.92 1213.98 23.7221 Q1210.82 17.4837 1204.46 17.4837 M1204.46 11.0023 Q1214.63 11.0023 1219.98 19.0636 Q1225.36 27.0843 1225.36 42.3968 Q1225.36 57.6687 1219.98 65.73 Q1214.63 73.7508 1204.46 73.7508 Q1194.29 73.7508 1188.9 65.73 Q1183.56 57.6687 1183.56 42.3968 Q1183.56 27.0843 1188.9 19.0636 Q1194.29 11.0023 1204.46 11.0023 Z" fill="#000000" fill-rule="evenodd" fill-opacity="1" /><path clip-path="url(#clip640)" d="M1241.16 65.6895 L1254.53 65.6895 L1254.53 19.5497 L1239.99 22.4663 L1239.99 15.0127 L1254.45 12.096 L1262.63 12.096 L1262.63 65.6895 L1276 65.6895 L1276 72.576 L1241.16 72.576 L1241.16 65.6895 Z" fill="#000000" fill-rule="evenodd" fill-opacity="1" /><path clip-path="url(#clip640)" d="M1299.58 65.6895 L1328.13 65.6895 L1328.13 72.576 L1289.73 72.576 L1289.73 65.6895 Q1294.39 60.8689 1302.41 52.7671 Q1310.47 44.6248 1312.54 42.2752 Q1316.47 37.8598 1318.01 34.8216 Q1319.59 31.7429 1319.59 28.7857 Q1319.59 23.9651 1316.18 20.927 Q1312.82 17.8888 1307.39 17.8888 Q1303.55 17.8888 1299.25 19.2256 Q1295 20.5624 1290.14 23.2765 L1290.14 15.0127 Q1295.08 13.0277 1299.37 12.015 Q1303.67 11.0023 1307.23 11.0023 Q1316.63 11.0023 1322.22 15.7013 Q1327.81 20.4004 1327.81 28.2591 Q1327.81 31.9859 1326.39 35.3482 Q1325.02 38.6699 1321.33 43.2069 Q1320.32 44.3817 1314.89 50.0125 Q1309.46 55.6027 1299.58 65.6895 Z" fill="#000000" fill-rule="evenodd" fill-opacity="1" /><path clip-path="url(#clip640)" d="M1363.82 39.075 Q1358.31 39.075 1355.07 42.8424 Q1351.87 46.6097 1351.87 53.1722 Q1351.87 59.6941 1355.07 63.502 Q1358.31 67.2693 1363.82 67.2693 Q1369.33 67.2693 1372.53 63.502 Q1375.77 59.6941 1375.77 53.1722 Q1375.77 46.6097 1372.53 42.8424 Q1369.33 39.075 1363.82 39.075 M1380.07 13.4328 L1380.07 20.8865 Q1376.99 19.4281 1373.83 18.6585 Q1370.71 17.8888 1367.63 17.8888 Q1359.53 17.8888 1355.23 23.3575 Q1350.98 28.8262 1350.37 39.8852 Q1352.76 36.3609 1356.37 34.4975 Q1359.97 32.5936 1364.31 32.5936 Q1373.42 32.5936 1378.69 38.1433 Q1384 43.6525 1384 53.1722 Q1384 62.4892 1378.49 68.12 Q1372.98 73.7508 1363.82 73.7508 Q1353.33 73.7508 1347.78 65.73 Q1342.23 57.6687 1342.23 42.3968 Q1342.23 28.0566 1349.04 19.5497 Q1355.84 11.0023 1367.31 11.0023 Q1370.39 11.0023 1373.5 11.6099 Q1376.66 12.2175 1380.07 13.4328 Z" fill="#000000" fill-rule="evenodd" fill-opacity="1" /><path clip-path="url(#clip640)" d="M1416.61 39.075 Q1411.1 39.075 1407.86 42.8424 Q1404.66 46.6097 1404.66 53.1722 Q1404.66 59.6941 1407.86 63.502 Q1411.1 67.2693 1416.61 67.2693 Q1422.12 67.2693 1425.32 63.502 Q1428.56 59.6941 1428.56 53.1722 Q1428.56 46.6097 1425.32 42.8424 Q1422.12 39.075 1416.61 39.075 M1432.85 13.4328 L1432.85 20.8865 Q1429.77 19.4281 1426.61 18.6585 Q1423.49 17.8888 1420.41 17.8888 Q1412.31 17.8888 1408.02 23.3575 Q1403.76 28.8262 1403.16 39.8852 Q1405.55 36.3609 1409.15 34.4975 Q1412.76 32.5936 1417.09 32.5936 Q1426.21 32.5936 1431.47 38.1433 Q1436.78 43.6525 1436.78 53.1722 Q1436.78 62.4892 1431.27 68.12 Q1425.76 73.7508 1416.61 73.7508 Q1406.11 73.7508 1400.56 65.73 Q1395.01 57.6687 1395.01 42.3968 Q1395.01 28.0566 1401.82 19.5497 Q1408.63 11.0023 1420.09 11.0023 Q1423.17 11.0023 1426.29 11.6099 Q1429.45 12.2175 1432.85 13.4328 Z" fill="#000000" fill-rule="evenodd" fill-opacity="1" /><path clip-path="url(#clip640)" d="M1468.38 43.8551 Q1462.54 43.8551 1459.18 46.9743 Q1455.86 50.0935 1455.86 55.5622 Q1455.86 61.0309 1459.18 64.1501 Q1462.54 67.2693 1468.38 67.2693 Q1474.21 67.2693 1477.57 64.1501 Q1480.93 60.9904 1480.93 55.5622 Q1480.93 50.0935 1477.57 46.9743 Q1474.25 43.8551 1468.38 43.8551 M1460.19 40.3713 Q1454.93 39.075 1451.97 35.4697 Q1449.05 31.8644 1449.05 26.6793 Q1449.05 19.4281 1454.2 15.2152 Q1459.38 11.0023 1468.38 11.0023 Q1477.41 11.0023 1482.55 15.2152 Q1487.7 19.4281 1487.7 26.6793 Q1487.7 31.8644 1484.74 35.4697 Q1481.83 39.075 1476.6 40.3713 Q1482.51 41.7486 1485.8 45.759 Q1489.12 49.7694 1489.12 55.5622 Q1489.12 64.3527 1483.73 69.0517 Q1478.38 73.7508 1468.38 73.7508 Q1458.37 73.7508 1452.98 69.0517 Q1447.64 64.3527 1447.64 55.5622 Q1447.64 49.7694 1450.96 45.759 Q1454.28 41.7486 1460.19 40.3713 M1457.2 27.4489 Q1457.2 32.148 1460.11 34.7811 Q1463.07 37.4142 1468.38 37.4142 Q1473.64 37.4142 1476.6 34.7811 Q1479.6 32.148 1479.6 27.4489 Q1479.6 22.7499 1476.6 20.1168 Q1473.64 17.4837 1468.38 17.4837 Q1463.07 17.4837 1460.11 20.1168 Q1457.2 22.7499 1457.2 27.4489 Z" fill="#000000" fill-rule="evenodd" fill-opacity="1" /><path clip-path="url(#clip640)" d="M1505.08 65.6895 L1518.45 65.6895 L1518.45 19.5497 L1503.9 22.4663 L1503.9 15.0127 L1518.36 12.096 L1526.55 12.096 L1526.55 65.6895 L1539.92 65.6895 L1539.92 72.576 L1505.08 72.576 L1505.08 65.6895 Z" fill="#000000" fill-rule="evenodd" fill-opacity="1" /><path clip-path="url(#clip640)" d="M1573.94 43.8551 Q1568.11 43.8551 1564.75 46.9743 Q1561.43 50.0935 1561.43 55.5622 Q1561.43 61.0309 1564.75 64.1501 Q1568.11 67.2693 1573.94 67.2693 Q1579.78 67.2693 1583.14 64.1501 Q1586.5 60.9904 1586.5 55.5622 Q1586.5 50.0935 1583.14 46.9743 Q1579.82 43.8551 1573.94 43.8551 M1565.76 40.3713 Q1560.49 39.075 1557.54 35.4697 Q1554.62 31.8644 1554.62 26.6793 Q1554.62 19.4281 1559.77 15.2152 Q1564.95 11.0023 1573.94 11.0023 Q1582.98 11.0023 1588.12 15.2152 Q1593.27 19.4281 1593.27 26.6793 Q1593.27 31.8644 1590.31 35.4697 Q1587.39 39.075 1582.17 40.3713 Q1588.08 41.7486 1591.36 45.759 Q1594.68 49.7694 1594.68 55.5622 Q1594.68 64.3527 1589.3 69.0517 Q1583.95 73.7508 1573.94 73.7508 Q1563.94 73.7508 1558.55 69.0517 Q1553.2 64.3527 1553.2 55.5622 Q1553.2 49.7694 1556.52 45.759 Q1559.85 41.7486 1565.76 40.3713 M1562.76 27.4489 Q1562.76 32.148 1565.68 34.7811 Q1568.64 37.4142 1573.94 37.4142 Q1579.21 37.4142 1582.17 34.7811 Q1585.16 32.148 1585.16 27.4489 Q1585.16 22.7499 1582.17 20.1168 Q1579.21 17.4837 1573.94 17.4837 Q1568.64 17.4837 1565.68 20.1168 Q1562.76 22.7499 1562.76 27.4489 Z" fill="#000000" fill-rule="evenodd" fill-opacity="1" /><path clip-path="url(#clip640)" d="M1626.73 43.8551 Q1620.89 43.8551 1617.53 46.9743 Q1614.21 50.0935 1614.21 55.5622 Q1614.21 61.0309 1617.53 64.1501 Q1620.89 67.2693 1626.73 67.2693 Q1632.56 67.2693 1635.92 64.1501 Q1639.28 60.9904 1639.28 55.5622 Q1639.28 50.0935 1635.92 46.9743 Q1632.6 43.8551 1626.73 43.8551 M1618.54 40.3713 Q1613.28 39.075 1610.32 35.4697 Q1607.4 31.8644 1607.4 26.6793 Q1607.4 19.4281 1612.55 15.2152 Q1617.73 11.0023 1626.73 11.0023 Q1635.76 11.0023 1640.9 15.2152 Q1646.05 19.4281 1646.05 26.6793 Q1646.05 31.8644 1643.09 35.4697 Q1640.18 39.075 1634.95 40.3713 Q1640.86 41.7486 1644.15 45.759 Q1647.47 49.7694 1647.47 55.5622 Q1647.47 64.3527 1642.08 69.0517 Q1636.73 73.7508 1626.73 73.7508 Q1616.72 73.7508 1611.33 69.0517 Q1605.99 64.3527 1605.99 55.5622 Q1605.99 49.7694 1609.31 45.759 Q1612.63 41.7486 1618.54 40.3713 M1615.55 27.4489 Q1615.55 32.148 1618.46 34.7811 Q1621.42 37.4142 1626.73 37.4142 Q1631.99 37.4142 1634.95 34.7811 Q1637.95 32.148 1637.95 27.4489 Q1637.95 22.7499 1634.95 20.1168 Q1631.99 17.4837 1626.73 17.4837 Q1621.42 17.4837 1618.46 20.1168 Q1615.55 22.7499 1615.55 27.4489 Z" fill="#000000" fill-rule="evenodd" fill-opacity="1" /><path clip-path="url(#clip640)" d="M1669.06 65.6895 L1697.62 65.6895 L1697.62 72.576 L1659.21 72.576 L1659.21 65.6895 Q1663.87 60.8689 1671.89 52.7671 Q1679.96 44.6248 1682.02 42.2752 Q1685.95 37.8598 1687.49 34.8216 Q1689.07 31.7429 1689.07 28.7857 Q1689.07 23.9651 1685.67 20.927 Q1682.3 17.8888 1676.88 17.8888 Q1673.03 17.8888 1668.73 19.2256 Q1664.48 20.5624 1659.62 23.2765 L1659.62 15.0127 Q1664.56 13.0277 1668.86 12.015 Q1673.15 11.0023 1676.71 11.0023 Q1686.11 11.0023 1691.7 15.7013 Q1697.29 20.4004 1697.29 28.2591 Q1697.29 31.9859 1695.88 35.3482 Q1694.5 38.6699 1690.81 43.2069 Q1689.8 44.3817 1684.37 50.0125 Q1678.94 55.6027 1669.06 65.6895 Z" fill="#000000" fill-rule="evenodd" fill-opacity="1" /><path clip-path="url(#clip640)" d="M1714.87 12.096 L1747 12.096 L1747 18.9825 L1722.37 18.9825 L1722.37 33.8088 Q1724.15 33.2012 1725.93 32.9176 Q1727.72 32.5936 1729.5 32.5936 Q1739.63 32.5936 1745.54 38.1433 Q1751.45 43.6931 1751.45 53.1722 Q1751.45 62.9348 1745.38 68.3631 Q1739.3 73.7508 1728.24 73.7508 Q1724.43 73.7508 1720.46 73.1026 Q1716.54 72.4545 1712.32 71.1582 L1712.32 62.9348 Q1715.97 64.9198 1719.86 65.892 Q1723.75 66.8642 1728.08 66.8642 Q1735.09 66.8642 1739.18 63.1779 Q1743.27 59.4916 1743.27 53.1722 Q1743.27 46.8528 1739.18 43.1664 Q1735.09 39.4801 1728.08 39.4801 Q1724.8 39.4801 1721.52 40.2093 Q1718.28 40.9384 1714.87 42.4778 L1714.87 12.096 Z" fill="#000000" fill-rule="evenodd" fill-opacity="1" /><path clip-path="url(#clip640)" d="M1774.63 65.6895 L1803.18 65.6895 L1803.18 72.576 L1764.78 72.576 L1764.78 65.6895 Q1769.44 60.8689 1777.46 52.7671 Q1785.52 44.6248 1787.59 42.2752 Q1791.52 37.8598 1793.06 34.8216 Q1794.64 31.7429 1794.64 28.7857 Q1794.64 23.9651 1791.23 20.927 Q1787.87 17.8888 1782.44 17.8888 Q1778.59 17.8888 1774.3 19.2256 Q1770.05 20.5624 1765.19 23.2765 L1765.19 15.0127 Q1770.13 13.0277 1774.42 12.015 Q1778.72 11.0023 1782.28 11.0023 Q1791.68 11.0023 1797.27 15.7013 Q1802.86 20.4004 1802.86 28.2591 Q1802.86 31.9859 1801.44 35.3482 Q1800.06 38.6699 1796.38 43.2069 Q1795.37 44.3817 1789.94 50.0125 Q1784.51 55.6027 1774.63 65.6895 Z" fill="#000000" fill-rule="evenodd" fill-opacity="1" /><path clip-path="url(#clip640)" d="M1837.86 43.8551 Q1832.03 43.8551 1828.66 46.9743 Q1825.34 50.0935 1825.34 55.5622 Q1825.34 61.0309 1828.66 64.1501 Q1832.03 67.2693 1837.86 67.2693 Q1843.69 67.2693 1847.06 64.1501 Q1850.42 60.9904 1850.42 55.5622 Q1850.42 50.0935 1847.06 46.9743 Q1843.73 43.8551 1837.86 43.8551 M1829.68 40.3713 Q1824.41 39.075 1821.45 35.4697 Q1818.54 31.8644 1818.54 26.6793 Q1818.54 19.4281 1823.68 15.2152 Q1828.87 11.0023 1837.86 11.0023 Q1846.89 11.0023 1852.04 15.2152 Q1857.18 19.4281 1857.18 26.6793 Q1857.18 31.8644 1854.23 35.4697 Q1851.31 39.075 1846.08 40.3713 Q1852 41.7486 1855.28 45.759 Q1858.6 49.7694 1858.6 55.5622 Q1858.6 64.3527 1853.21 69.0517 Q1847.87 73.7508 1837.86 73.7508 Q1827.85 73.7508 1822.47 69.0517 Q1817.12 64.3527 1817.12 55.5622 Q1817.12 49.7694 1820.44 45.759 Q1823.76 41.7486 1829.68 40.3713 M1826.68 27.4489 Q1826.68 32.148 1829.6 34.7811 Q1832.55 37.4142 1837.86 37.4142 Q1843.13 37.4142 1846.08 34.7811 Q1849.08 32.148 1849.08 27.4489 Q1849.08 22.7499 1846.08 20.1168 Q1843.13 17.4837 1837.86 17.4837 Q1832.55 17.4837 1829.6 20.1168 Q1826.68 22.7499 1826.68 27.4489 Z" fill="#000000" fill-rule="evenodd" fill-opacity="1" /><path clip-path="url(#clip640)" d="M1897.93 39.9662 Q1903.81 41.222 1907.09 45.1919 Q1910.41 49.1618 1910.41 54.9951 Q1910.41 63.9476 1904.25 68.8492 Q1898.1 73.7508 1886.75 73.7508 Q1882.95 73.7508 1878.9 72.9811 Q1874.88 72.2519 1870.59 70.7531 L1870.59 62.8538 Q1873.99 64.8388 1878.04 65.8515 Q1882.1 66.8642 1886.51 66.8642 Q1894.21 66.8642 1898.22 63.826 Q1902.27 60.7879 1902.27 54.9951 Q1902.27 49.6479 1898.5 46.6502 Q1894.77 43.612 1888.09 43.612 L1881.04 43.612 L1881.04 36.8875 L1888.41 36.8875 Q1894.45 36.8875 1897.65 34.4975 Q1900.85 32.067 1900.85 27.5299 Q1900.85 22.8714 1897.53 20.4004 Q1894.25 17.8888 1888.09 17.8888 Q1884.73 17.8888 1880.88 18.618 Q1877.03 19.3471 1872.41 20.8865 L1872.41 13.5948 Q1877.07 12.2985 1881.12 11.6504 Q1885.21 11.0023 1888.82 11.0023 Q1898.14 11.0023 1903.57 15.2557 Q1908.99 19.4686 1908.99 26.6793 Q1908.99 31.7024 1906.12 35.1862 Q1903.24 38.6294 1897.93 39.9662 Z" fill="#000000" fill-rule="evenodd" fill-opacity="1" /><path clip-path="url(#clip640)" d="M1948.41 19.2256 L1927.75 51.5113 L1948.41 51.5113 L1948.41 19.2256 M1946.26 12.096 L1956.55 12.096 L1956.55 51.5113 L1965.18 51.5113 L1965.18 58.3168 L1956.55 58.3168 L1956.55 72.576 L1948.41 72.576 L1948.41 58.3168 L1921.11 58.3168 L1921.11 50.4176 L1946.26 12.096 Z" fill="#000000" fill-rule="evenodd" fill-opacity="1" /><path clip-path="url(#clip640)" d="M1996.21 43.8551 Q1990.38 43.8551 1987.01 46.9743 Q1983.69 50.0935 1983.69 55.5622 Q1983.69 61.0309 1987.01 64.1501 Q1990.38 67.2693 1996.21 67.2693 Q2002.04 67.2693 2005.41 64.1501 Q2008.77 60.9904 2008.77 55.5622 Q2008.77 50.0935 2005.41 46.9743 Q2002.08 43.8551 1996.21 43.8551 M1988.03 40.3713 Q1982.76 39.075 1979.8 35.4697 Q1976.89 31.8644 1976.89 26.6793 Q1976.89 19.4281 1982.03 15.2152 Q1987.22 11.0023 1996.21 11.0023 Q2005.24 11.0023 2010.39 15.2152 Q2015.53 19.4281 2015.53 26.6793 Q2015.53 31.8644 2012.58 35.4697 Q2009.66 39.075 2004.43 40.3713 Q2010.35 41.7486 2013.63 45.759 Q2016.95 49.7694 2016.95 55.5622 Q2016.95 64.3527 2011.56 69.0517 Q2006.22 73.7508 1996.21 73.7508 Q1986.2 73.7508 1980.82 69.0517 Q1975.47 64.3527 1975.47 55.5622 Q1975.47 49.7694 1978.79 45.759 Q1982.11 41.7486 1988.03 40.3713 M1985.03 27.4489 Q1985.03 32.148 1987.95 34.7811 Q1990.9 37.4142 1996.21 37.4142 Q2001.48 37.4142 2004.43 34.7811 Q2007.43 32.148 2007.43 27.4489 Q2007.43 22.7499 2004.43 20.1168 Q2001.48 17.4837 1996.21 17.4837 Q1990.9 17.4837 1987.95 20.1168 Q1985.03 22.7499 1985.03 27.4489 Z" fill="#000000" fill-rule="evenodd" fill-opacity="1" /><path clip-path="url(#clip640)" d="M2050.01 39.075 Q2044.5 39.075 2041.26 42.8424 Q2038.06 46.6097 2038.06 53.1722 Q2038.06 59.6941 2041.26 63.502 Q2044.5 67.2693 2050.01 67.2693 Q2055.51 67.2693 2058.72 63.502 Q2061.96 59.6941 2061.96 53.1722 Q2061.96 46.6097 2058.72 42.8424 Q2055.51 39.075 2050.01 39.075 M2066.25 13.4328 L2066.25 20.8865 Q2063.17 19.4281 2060.01 18.6585 Q2056.89 17.8888 2053.81 17.8888 Q2045.71 17.8888 2041.42 23.3575 Q2037.16 28.8262 2036.56 39.8852 Q2038.95 36.3609 2042.55 34.4975 Q2046.16 32.5936 2050.49 32.5936 Q2059.61 32.5936 2064.87 38.1433 Q2070.18 43.6525 2070.18 53.1722 Q2070.18 62.4892 2064.67 68.12 Q2059.16 73.7508 2050.01 73.7508 Q2039.51 73.7508 2033.96 65.73 Q2028.41 57.6687 2028.41 42.3968 Q2028.41 28.0566 2035.22 19.5497 Q2042.03 11.0023 2053.49 11.0023 Q2056.57 11.0023 2059.69 11.6099 Q2062.85 12.2175 2066.25 13.4328 Z" fill="#000000" fill-rule="evenodd" fill-opacity="1" /><polyline clip-path="url(#clip642)" style="stroke:#009af9; stroke-linecap:butt; stroke-linejoin:round; stroke-width:16; stroke-opacity:1; fill:none" points="
  255.035,1441.18 274.644,1447.87 320.273,1444.48 390.594,1446.98 483.78,1444.44 597.415,1445.24 728.557,1439.19 873.808,1421.76 1029.41,1338.59 1191.33,1050.08 
  1355.37,559.836 1517.28,271.332 1672.88,188.156 1818.14,170.729 1949.28,164.683 2062.91,165.477 2156.1,162.936 2226.42,165.445 2272.05,162.047 2291.66,168.742 
  
  "/>
<circle clip-path="url(#clip642)" cx="255.035" cy="1441.18" r="14" fill="#009af9" fill-rule="evenodd" fill-opacity="1" stroke="#000000" stroke-opacity="1" stroke-width="3.2"/>
<circle clip-path="url(#clip642)" cx="274.644" cy="1447.87" r="14" fill="#009af9" fill-rule="evenodd" fill-opacity="1" stroke="#000000" stroke-opacity="1" stroke-width="3.2"/>
<circle clip-path="url(#clip642)" cx="320.273" cy="1444.48" r="14" fill="#009af9" fill-rule="evenodd" fill-opacity="1" stroke="#000000" stroke-opacity="1" stroke-width="3.2"/>
<circle clip-path="url(#clip642)" cx="390.594" cy="1446.98" r="14" fill="#009af9" fill-rule="evenodd" fill-opacity="1" stroke="#000000" stroke-opacity="1" stroke-width="3.2"/>
<circle clip-path="url(#clip642)" cx="483.78" cy="1444.44" r="14" fill="#009af9" fill-rule="evenodd" fill-opacity="1" stroke="#000000" stroke-opacity="1" stroke-width="3.2"/>
<circle clip-path="url(#clip642)" cx="597.415" cy="1445.24" r="14" fill="#009af9" fill-rule="evenodd" fill-opacity="1" stroke="#000000" stroke-opacity="1" stroke-width="3.2"/>
<circle clip-path="url(#clip642)" cx="728.557" cy="1439.19" r="14" fill="#009af9" fill-rule="evenodd" fill-opacity="1" stroke="#000000" stroke-opacity="1" stroke-width="3.2"/>
<circle clip-path="url(#clip642)" cx="873.808" cy="1421.76" r="14" fill="#009af9" fill-rule="evenodd" fill-opacity="1" stroke="#000000" stroke-opacity="1" stroke-width="3.2"/>
<circle clip-path="url(#clip642)" cx="1029.41" cy="1338.59" r="14" fill="#009af9" fill-rule="evenodd" fill-opacity="1" stroke="#000000" stroke-opacity="1" stroke-width="3.2"/>
<circle clip-path="url(#clip642)" cx="1191.33" cy="1050.08" r="14" fill="#009af9" fill-rule="evenodd" fill-opacity="1" stroke="#000000" stroke-opacity="1" stroke-width="3.2"/>
<circle clip-path="url(#clip642)" cx="1355.37" cy="559.836" r="14" fill="#009af9" fill-rule="evenodd" fill-opacity="1" stroke="#000000" stroke-opacity="1" stroke-width="3.2"/>
<circle clip-path="url(#clip642)" cx="1517.28" cy="271.332" r="14" fill="#009af9" fill-rule="evenodd" fill-opacity="1" stroke="#000000" stroke-opacity="1" stroke-width="3.2"/>
<circle clip-path="url(#clip642)" cx="1672.88" cy="188.156" r="14" fill="#009af9" fill-rule="evenodd" fill-opacity="1" stroke="#000000" stroke-opacity="1" stroke-width="3.2"/>
<circle clip-path="url(#clip642)" cx="1818.14" cy="170.729" r="14" fill="#009af9" fill-rule="evenodd" fill-opacity="1" stroke="#000000" stroke-opacity="1" stroke-width="3.2"/>
<circle clip-path="url(#clip642)" cx="1949.28" cy="164.683" r="14" fill="#009af9" fill-rule="evenodd" fill-opacity="1" stroke="#000000" stroke-opacity="1" stroke-width="3.2"/>
<circle clip-path="url(#clip642)" cx="2062.91" cy="165.477" r="14" fill="#009af9" fill-rule="evenodd" fill-opacity="1" stroke="#000000" stroke-opacity="1" stroke-width="3.2"/>
<circle clip-path="url(#clip642)" cx="2156.1" cy="162.936" r="14" fill="#009af9" fill-rule="evenodd" fill-opacity="1" stroke="#000000" stroke-opacity="1" stroke-width="3.2"/>
<circle clip-path="url(#clip642)" cx="2226.42" cy="165.445" r="14" fill="#009af9" fill-rule="evenodd" fill-opacity="1" stroke="#000000" stroke-opacity="1" stroke-width="3.2"/>
<circle clip-path="url(#clip642)" cx="2272.05" cy="162.047" r="14" fill="#009af9" fill-rule="evenodd" fill-opacity="1" stroke="#000000" stroke-opacity="1" stroke-width="3.2"/>
<circle clip-path="url(#clip642)" cx="2291.66" cy="168.742" r="14" fill="#009af9" fill-rule="evenodd" fill-opacity="1" stroke="#000000" stroke-opacity="1" stroke-width="3.2"/>
<polyline clip-path="url(#clip642)" style="stroke:#e26f46; stroke-linecap:butt; stroke-linejoin:round; stroke-width:16; stroke-opacity:1; fill:none" points="
  255.035,1445.96 274.924,1445.95 458.829,1445.59 569.348,1444.74 662.791,1442.83 764.296,1437.43 857.875,1424.7 908.038,1411.5 958.201,1390.47 987.26,1373.17 
  1016.32,1350.9 1045.38,1322.51 1074.44,1286.79 1100.26,1247.93 1126.09,1201.64 1151.91,1147.53 1177.74,1085.59 1223.03,960.196 1268.32,820.776 1317.7,667.514 
  1367.08,529.123 1391.92,468.879 1416.75,415.842 1441.59,370.082 1466.43,331.283 1493.89,295.79 1521.35,267.126 1548.81,244.257 1576.27,226.186 1628.52,201.927 
  1680.78,186.938 1789.45,171.921 1880.92,167.18 1992.6,164.998 2097.58,164.293 2265.77,163.977 2291.66,163.96 
  "/>
<path clip-path="url(#clip640)" d="
M1988.5 1441.02 L2280.8 1441.02 L2280.8 1285.5 L1988.5 1285.5  Z
  " fill="#ffffff" fill-rule="evenodd" fill-opacity="1"/>
<polyline clip-path="url(#clip640)" style="stroke:#000000; stroke-linecap:butt; stroke-linejoin:round; stroke-width:4; stroke-opacity:1; fill:none" points="
  1988.5,1441.02 2280.8,1441.02 2280.8,1285.5 1988.5,1285.5 1988.5,1441.02 
  "/>
<polyline clip-path="url(#clip640)" style="stroke:#009af9; stroke-linecap:butt; stroke-linejoin:round; stroke-width:4; stroke-opacity:1; fill:none" points="
  2012.48,1337.34 2156.4,1337.34 
  "/>
<circle clip-path="url(#clip640)" cx="2084.44" cy="1337.34" r="23" fill="#009af9" fill-rule="evenodd" fill-opacity="1" stroke="#000000" stroke-opacity="1" stroke-width="5.12"/>
<path clip-path="url(#clip640)" d="M2194.23 1357.02 Q2192.43 1361.65 2190.72 1363.06 Q2189 1364.48 2186.13 1364.48 L2182.73 1364.48 L2182.73 1360.91 L2185.23 1360.91 Q2186.99 1360.91 2187.96 1360.08 Q2188.93 1359.24 2190.11 1356.14 L2190.88 1354.2 L2180.39 1328.69 L2184.91 1328.69 L2193.01 1348.97 L2201.11 1328.69 L2205.62 1328.69 L2194.23 1357.02 Z" fill="#000000" fill-rule="evenodd" fill-opacity="1" /><path clip-path="url(#clip640)" d="M2212.91 1350.68 L2220.55 1350.68 L2220.55 1324.31 L2212.24 1325.98 L2212.24 1321.72 L2220.51 1320.06 L2225.18 1320.06 L2225.18 1350.68 L2232.82 1350.68 L2232.82 1354.62 L2212.91 1354.62 L2212.91 1350.68 Z" fill="#000000" fill-rule="evenodd" fill-opacity="1" /><polyline clip-path="url(#clip640)" style="stroke:#e26f46; stroke-linecap:butt; stroke-linejoin:round; stroke-width:4; stroke-opacity:1; fill:none" points="
  2012.48,1389.18 2156.4,1389.18 
  "/>
<path clip-path="url(#clip640)" d="M2194.23 1408.86 Q2192.43 1413.49 2190.72 1414.9 Q2189 1416.32 2186.13 1416.32 L2182.73 1416.32 L2182.73 1412.75 L2185.23 1412.75 Q2186.99 1412.75 2187.96 1411.92 Q2188.93 1411.08 2190.11 1407.98 L2190.88 1406.04 L2180.39 1380.53 L2184.91 1380.53 L2193.01 1400.81 L2201.11 1380.53 L2205.62 1380.53 L2194.23 1408.86 Z" fill="#000000" fill-rule="evenodd" fill-opacity="1" /><path clip-path="url(#clip640)" d="M2216.13 1402.52 L2232.45 1402.52 L2232.45 1406.46 L2210.51 1406.46 L2210.51 1402.52 Q2213.17 1399.77 2217.75 1395.14 Q2222.36 1390.48 2223.54 1389.14 Q2225.78 1386.62 2226.66 1384.88 Q2227.57 1383.12 2227.57 1381.43 Q2227.57 1378.68 2225.62 1376.94 Q2223.7 1375.21 2220.6 1375.21 Q2218.4 1375.21 2215.95 1375.97 Q2213.52 1376.73 2210.74 1378.28 L2210.74 1373.56 Q2213.56 1372.43 2216.02 1371.85 Q2218.47 1371.27 2220.51 1371.27 Q2225.88 1371.27 2229.07 1373.96 Q2232.27 1376.64 2232.27 1381.13 Q2232.27 1383.26 2231.46 1385.18 Q2230.67 1387.08 2228.56 1389.67 Q2227.98 1390.34 2224.88 1393.56 Q2221.78 1396.76 2216.13 1402.52 Z" fill="#000000" fill-rule="evenodd" fill-opacity="1" /></svg>
