<?xml version="1.0" encoding="utf-8"?>
<svg xmlns="http://www.w3.org/2000/svg" xmlns:xlink="http://www.w3.org/1999/xlink" width="600" height="400" viewBox="0 0 2400 1600">
<defs>
  <clipPath id="clip060">
    <rect x="0" y="0" width="2400" height="1600"/>
  </clipPath>
</defs>
<path clip-path="url(#clip060)" d="
M0 1600 L2400 1600 L2400 0 L0 0  Z
  " fill="#ffffff" fill-rule="evenodd" fill-opacity="1"/>
<defs>
  <clipPath id="clip061">
    <rect x="480" y="0" width="1681" height="1600"/>
  </clipPath>
</defs>
<path clip-path="url(#clip060)" d="
M193.936 1486.45 L2352.76 1486.45 L2352.76 47.2441 L193.936 47.2441  Z
  " fill="#ffffff" fill-rule="evenodd" fill-opacity="1"/>
<defs>
  <clipPath id="clip062">
    <rect x="193" y="47" width="2160" height="1440"/>
  </clipPath>
</defs>
<polyline clip-path="url(#clip062)" style="stroke:#000000; stroke-linecap:butt; stroke-linejoin:round; stroke-width:2; stroke-opacity:0.1; fill:none" points="
  255.035,1486.45 255.035,47.2441 
  "/>
<polyline clip-path="url(#clip062)" style="stroke:#000000; stroke-linecap:butt; stroke-linejoin:round; stroke-width:2; stroke-opacity:0.1; fill:none" points="
  764.19,1486.45 764.19,47.2441 
  "/>
<polyline clip-path="url(#clip062)" style="stroke:#000000; stroke-linecap:butt; stroke-linejoin:round; stroke-width:2; stroke-opacity:0.1; fill:none" points="
  1273.35,1486.45 1273.35,47.2441 
  "/>
<polyline clip-path="url(#clip062)" style="stroke:#000000; stroke-linecap:butt; stroke-linejoin:round; stroke-width:2; stroke-opacity:0.1; fill:none" points="
  1782.5,1486.45 1782.5,47.2441 
  "/>
<polyline clip-path="url(#clip062)" style="stroke:#000000; stroke-linecap:butt; stroke-linejoin:round; stroke-width:2; stroke-opacity:0.1; fill:none" points="
  2291.66,1486.45 2291.66,47.2441 
  "/>
<polyline clip-path="url(#clip060)" style="stroke:#000000; stroke-linecap:butt; stroke-linejoin:round; stroke-width:4; stroke-opacity:1; fill:none" points="
  193.936,1486.45 2352.76,1486.45 
  "/>
<polyline clip-path="url(#clip060)" style="stroke:#000000; stroke-linecap:butt; stroke-linejoin:round; stroke-width:4; stroke-opacity:1; fill:none" points="
  255.035,1486.45 255.035,1467.55 
  "/>
<polyline clip-path="url(#clip060)" style="stroke:#000000; stroke-linecap:butt; stroke-linejoin:round; stroke-width:4; stroke-opacity:1; fill:none" points="
  764.19,1486.45 764.19,1467.55 
  "/>
<polyline clip-path="url(#clip060)" style="stroke:#000000; stroke-linecap:butt; stroke-linejoin:round; stroke-width:4; stroke-opacity:1; fill:none" points="
  1273.35,1486.45 1273.35,1467.55 
  "/>
<polyline clip-path="url(#clip060)" style="stroke:#000000; stroke-linecap:butt; stroke-linejoin:round; stroke-width:4; stroke-opacity:1; fill:none" points="
  1782.5,1486.45 1782.5,1467.55 
  "/>
<polyline clip-path="url(#clip060)" style="stroke:#000000; stroke-linecap:butt; stroke-linejoin:round; stroke-width:4; stroke-opacity:1; fill:none" points="
  2291.66,1486.45 2291.66,1467.55 
  "/>
<path clip-path="url(#clip060)" d="M224.977 1532.02 L254.653 1532.02 L254.653 1535.95 L224.977 1535.95 L224.977 1532.02 Z" fill="#000000" fill-rule="evenodd" fill-opacity="1" /><path clip-path="url(#clip060)" d="M268.773 1544.91 L285.092 1544.91 L285.092 1548.85 L263.148 1548.85 L263.148 1544.91 Q265.81 1542.16 270.393 1537.53 Q275 1532.88 276.18 1531.53 Q278.426 1529.01 279.305 1527.27 Q280.208 1525.51 280.208 1523.82 Q280.208 1521.07 278.264 1519.33 Q276.342 1517.6 273.241 1517.6 Q271.042 1517.6 268.588 1518.36 Q266.157 1519.13 263.38 1520.68 L263.38 1515.95 Q266.204 1514.82 268.657 1514.24 Q271.111 1513.66 273.148 1513.66 Q278.518 1513.66 281.713 1516.35 Q284.907 1519.03 284.907 1523.52 Q284.907 1525.65 284.097 1527.57 Q283.31 1529.47 281.204 1532.07 Q280.625 1532.74 277.523 1535.95 Q274.421 1539.15 268.773 1544.91 Z" fill="#000000" fill-rule="evenodd" fill-opacity="1" /><path clip-path="url(#clip060)" d="M733.947 1532.02 L763.623 1532.02 L763.623 1535.95 L733.947 1535.95 L733.947 1532.02 Z" fill="#000000" fill-rule="evenodd" fill-opacity="1" /><path clip-path="url(#clip060)" d="M774.526 1544.91 L782.165 1544.91 L782.165 1518.55 L773.855 1520.21 L773.855 1515.95 L782.118 1514.29 L786.794 1514.29 L786.794 1544.91 L794.433 1544.91 L794.433 1548.85 L774.526 1548.85 L774.526 1544.91 Z" fill="#000000" fill-rule="evenodd" fill-opacity="1" /><path clip-path="url(#clip060)" d="M1273.35 1517.37 Q1269.73 1517.37 1267.91 1520.93 Q1266.1 1524.47 1266.1 1531.6 Q1266.1 1538.71 1267.91 1542.27 Q1269.73 1545.82 1273.35 1545.82 Q1276.98 1545.82 1278.79 1542.27 Q1280.61 1538.71 1280.61 1531.6 Q1280.61 1524.47 1278.79 1520.93 Q1276.98 1517.37 1273.35 1517.37 M1273.35 1513.66 Q1279.16 1513.66 1282.21 1518.27 Q1285.29 1522.85 1285.29 1531.6 Q1285.29 1540.33 1282.21 1544.94 Q1279.16 1549.52 1273.35 1549.52 Q1267.54 1549.52 1264.46 1544.94 Q1261.4 1540.33 1261.4 1531.6 Q1261.4 1522.85 1264.46 1518.27 Q1267.54 1513.66 1273.35 1513.66 Z" fill="#000000" fill-rule="evenodd" fill-opacity="1" /><path clip-path="url(#clip060)" d="M1772.88 1544.91 L1780.52 1544.91 L1780.52 1518.55 L1772.21 1520.21 L1772.21 1515.95 L1780.48 1514.29 L1785.15 1514.29 L1785.15 1544.91 L1792.79 1544.91 L1792.79 1548.85 L1772.88 1548.85 L1772.88 1544.91 Z" fill="#000000" fill-rule="evenodd" fill-opacity="1" /><path clip-path="url(#clip060)" d="M2286.31 1544.91 L2302.63 1544.91 L2302.63 1548.85 L2280.69 1548.85 L2280.69 1544.91 Q2283.35 1542.16 2287.93 1537.53 Q2292.54 1532.88 2293.72 1531.53 Q2295.96 1529.01 2296.84 1527.27 Q2297.75 1525.51 2297.75 1523.82 Q2297.75 1521.07 2295.8 1519.33 Q2293.88 1517.6 2290.78 1517.6 Q2288.58 1517.6 2286.12 1518.36 Q2283.69 1519.13 2280.92 1520.68 L2280.92 1515.95 Q2283.74 1514.82 2286.19 1514.24 Q2288.65 1513.66 2290.69 1513.66 Q2296.06 1513.66 2299.25 1516.35 Q2302.44 1519.03 2302.44 1523.52 Q2302.44 1525.65 2301.63 1527.57 Q2300.85 1529.47 2298.74 1532.07 Q2298.16 1532.74 2295.06 1535.95 Q2291.96 1539.15 2286.31 1544.91 Z" fill="#000000" fill-rule="evenodd" fill-opacity="1" /><polyline clip-path="url(#clip062)" style="stroke:#000000; stroke-linecap:butt; stroke-linejoin:round; stroke-width:2; stroke-opacity:0.1; fill:none" points="
  193.936,1423.45 2352.76,1423.45 
  "/>
<polyline clip-path="url(#clip062)" style="stroke:#000000; stroke-linecap:butt; stroke-linejoin:round; stroke-width:2; stroke-opacity:0.1; fill:none" points="
  193.936,1095 2352.76,1095 
  "/>
<polyline clip-path="url(#clip062)" style="stroke:#000000; stroke-linecap:butt; stroke-linejoin:round; stroke-width:2; stroke-opacity:0.1; fill:none" points="
  193.936,766.553 2352.76,766.553 
  "/>
<polyline clip-path="url(#clip062)" style="stroke:#000000; stroke-linecap:butt; stroke-linejoin:round; stroke-width:2; stroke-opacity:0.1; fill:none" points="
  193.936,438.103 2352.76,438.103 
  "/>
<polyline clip-path="url(#clip062)" style="stroke:#000000; stroke-linecap:butt; stroke-linejoin:round; stroke-width:2; stroke-opacity:0.1; fill:none" points="
  193.936,109.653 2352.76,109.653 
  "/>
<polyline clip-path="url(#clip060)" style="stroke:#000000; stroke-linecap:butt; stroke-linejoin:round; stroke-width:4; stroke-opacity:1; fill:none" points="
  193.936,1486.45 193.936,47.2441 
  "/>
<polyline clip-path="url(#clip060)" style="stroke:#000000; stroke-linecap:butt; stroke-linejoin:round; stroke-width:4; stroke-opacity:1; fill:none" points="
  193.936,1423.45 212.834,1423.45 
  "/>
<polyline clip-path="url(#clip060)" style="stroke:#000000; stroke-linecap:butt; stroke-linejoin:round; stroke-width:4; stroke-opacity:1; fill:none" points="
  193.936,1095 212.834,1095 
  "/>
<polyline clip-path="url(#clip060)" style="stroke:#000000; stroke-linecap:butt; stroke-linejoin:round; stroke-width:4; stroke-opacity:1; fill:none" points="
  193.936,766.553 212.834,766.553 
  "/>
<polyline clip-path="url(#clip060)" style="stroke:#000000; stroke-linecap:butt; stroke-linejoin:round; stroke-width:4; stroke-opacity:1; fill:none" points="
  193.936,438.103 212.834,438.103 
  "/>
<polyline clip-path="url(#clip060)" style="stroke:#000000; stroke-linecap:butt; stroke-linejoin:round; stroke-width:4; stroke-opacity:1; fill:none" points="
  193.936,109.653 212.834,109.653 
  "/>
<path clip-path="url(#clip060)" d="M50.9921 1423.9 L80.6679 1423.9 L80.6679 1427.84 L50.9921 1427.84 L50.9921 1423.9 Z" fill="#000000" fill-rule="evenodd" fill-opacity="1" /><path clip-path="url(#clip060)" d="M91.5706 1436.8 L99.2095 1436.8 L99.2095 1410.43 L90.8993 1412.1 L90.8993 1407.84 L99.1632 1406.17 L103.839 1406.17 L103.839 1436.8 L111.478 1436.8 L111.478 1440.73 L91.5706 1440.73 L91.5706 1436.8 Z" fill="#000000" fill-rule="evenodd" fill-opacity="1" /><path clip-path="url(#clip060)" d="M120.922 1434.85 L125.807 1434.85 L125.807 1440.73 L120.922 1440.73 L120.922 1434.85 Z" fill="#000000" fill-rule="evenodd" fill-opacity="1" /><path clip-path="url(#clip060)" d="M145.992 1409.25 Q142.381 1409.25 140.552 1412.82 Q138.746 1416.36 138.746 1423.49 Q138.746 1430.59 140.552 1434.16 Q142.381 1437.7 145.992 1437.7 Q149.626 1437.7 151.431 1434.16 Q153.26 1430.59 153.26 1423.49 Q153.26 1416.36 151.431 1412.82 Q149.626 1409.25 145.992 1409.25 M145.992 1405.55 Q151.802 1405.55 154.857 1410.15 Q157.936 1414.74 157.936 1423.49 Q157.936 1432.21 154.857 1436.82 Q151.802 1441.4 145.992 1441.4 Q140.181 1441.4 137.103 1436.82 Q134.047 1432.21 134.047 1423.49 Q134.047 1414.74 137.103 1410.15 Q140.181 1405.55 145.992 1405.55 Z" fill="#000000" fill-rule="evenodd" fill-opacity="1" /><path clip-path="url(#clip060)" d="M51.9875 1095.45 L81.6633 1095.45 L81.6633 1099.39 L51.9875 1099.39 L51.9875 1095.45 Z" fill="#000000" fill-rule="evenodd" fill-opacity="1" /><path clip-path="url(#clip060)" d="M101.756 1080.8 Q98.1447 1080.8 96.316 1084.37 Q94.5104 1087.91 94.5104 1095.04 Q94.5104 1102.14 96.316 1105.71 Q98.1447 1109.25 101.756 1109.25 Q105.39 1109.25 107.196 1105.71 Q109.024 1102.14 109.024 1095.04 Q109.024 1087.91 107.196 1084.37 Q105.39 1080.8 101.756 1080.8 M101.756 1077.1 Q107.566 1077.1 110.621 1081.7 Q113.7 1086.29 113.7 1095.04 Q113.7 1103.76 110.621 1108.37 Q107.566 1112.95 101.756 1112.95 Q95.9456 1112.95 92.8669 1108.37 Q89.8114 1103.76 89.8114 1095.04 Q89.8114 1086.29 92.8669 1081.7 Q95.9456 1077.1 101.756 1077.1 Z" fill="#000000" fill-rule="evenodd" fill-opacity="1" /><path clip-path="url(#clip060)" d="M121.918 1106.4 L126.802 1106.4 L126.802 1112.28 L121.918 1112.28 L121.918 1106.4 Z" fill="#000000" fill-rule="evenodd" fill-opacity="1" /><path clip-path="url(#clip060)" d="M137.033 1077.72 L155.39 1077.72 L155.39 1081.66 L141.316 1081.66 L141.316 1090.13 Q142.334 1089.78 143.353 1089.62 Q144.371 1089.44 145.39 1089.44 Q151.177 1089.44 154.556 1092.61 Q157.936 1095.78 157.936 1101.2 Q157.936 1106.77 154.464 1109.88 Q150.992 1112.95 144.672 1112.95 Q142.496 1112.95 140.228 1112.58 Q137.982 1112.21 135.575 1111.47 L135.575 1106.77 Q137.658 1107.91 139.881 1108.46 Q142.103 1109.02 144.58 1109.02 Q148.584 1109.02 150.922 1106.91 Q153.26 1104.81 153.26 1101.2 Q153.26 1097.58 150.922 1095.48 Q148.584 1093.37 144.58 1093.37 Q142.705 1093.37 140.83 1093.79 Q138.978 1094.2 137.033 1095.08 L137.033 1077.72 Z" fill="#000000" fill-rule="evenodd" fill-opacity="1" /><path clip-path="url(#clip060)" d="M100.76 752.352 Q97.1493 752.352 95.3206 755.917 Q93.515 759.458 93.515 766.588 Q93.515 773.694 95.3206 777.259 Q97.1493 780.801 100.76 780.801 Q104.395 780.801 106.2 777.259 Q108.029 773.694 108.029 766.588 Q108.029 759.458 106.2 755.917 Q104.395 752.352 100.76 752.352 M100.76 748.648 Q106.571 748.648 109.626 753.255 Q112.705 757.838 112.705 766.588 Q112.705 775.315 109.626 779.921 Q106.571 784.504 100.76 784.504 Q94.9502 784.504 91.8715 779.921 Q88.816 775.315 88.816 766.588 Q88.816 757.838 91.8715 753.255 Q94.9502 748.648 100.76 748.648 Z" fill="#000000" fill-rule="evenodd" fill-opacity="1" /><path clip-path="url(#clip060)" d="M120.922 777.953 L125.807 777.953 L125.807 783.833 L120.922 783.833 L120.922 777.953 Z" fill="#000000" fill-rule="evenodd" fill-opacity="1" /><path clip-path="url(#clip060)" d="M145.992 752.352 Q142.381 752.352 140.552 755.917 Q138.746 759.458 138.746 766.588 Q138.746 773.694 140.552 777.259 Q142.381 780.801 145.992 780.801 Q149.626 780.801 151.431 777.259 Q153.26 773.694 153.26 766.588 Q153.26 759.458 151.431 755.917 Q149.626 752.352 145.992 752.352 M145.992 748.648 Q151.802 748.648 154.857 753.255 Q157.936 757.838 157.936 766.588 Q157.936 775.315 154.857 779.921 Q151.802 784.504 145.992 784.504 Q140.181 784.504 137.103 779.921 Q134.047 775.315 134.047 766.588 Q134.047 757.838 137.103 753.255 Q140.181 748.648 145.992 748.648 Z" fill="#000000" fill-rule="evenodd" fill-opacity="1" /><path clip-path="url(#clip060)" d="M101.756 423.902 Q98.1447 423.902 96.316 427.466 Q94.5104 431.008 94.5104 438.138 Q94.5104 445.244 96.316 448.809 Q98.1447 452.351 101.756 452.351 Q105.39 452.351 107.196 448.809 Q109.024 445.244 109.024 438.138 Q109.024 431.008 107.196 427.466 Q105.39 423.902 101.756 423.902 M101.756 420.198 Q107.566 420.198 110.621 424.804 Q113.7 429.388 113.7 438.138 Q113.7 446.864 110.621 451.471 Q107.566 456.054 101.756 456.054 Q95.9456 456.054 92.8669 451.471 Q89.8114 446.864 89.8114 438.138 Q89.8114 429.388 92.8669 424.804 Q95.9456 420.198 101.756 420.198 Z" fill="#000000" fill-rule="evenodd" fill-opacity="1" /><path clip-path="url(#clip060)" d="M121.918 449.503 L126.802 449.503 L126.802 455.383 L121.918 455.383 L121.918 449.503 Z" fill="#000000" fill-rule="evenodd" fill-opacity="1" /><path clip-path="url(#clip060)" d="M137.033 420.823 L155.39 420.823 L155.39 424.758 L141.316 424.758 L141.316 433.23 Q142.334 432.883 143.353 432.721 Q144.371 432.536 145.39 432.536 Q151.177 432.536 154.556 435.707 Q157.936 438.878 157.936 444.295 Q157.936 449.874 154.464 452.976 Q150.992 456.054 144.672 456.054 Q142.496 456.054 140.228 455.684 Q137.982 455.313 135.575 454.573 L135.575 449.874 Q137.658 451.008 139.881 451.564 Q142.103 452.119 144.58 452.119 Q148.584 452.119 150.922 450.013 Q153.26 447.906 153.26 444.295 Q153.26 440.684 150.922 438.577 Q148.584 436.471 144.58 436.471 Q142.705 436.471 140.83 436.888 Q138.978 437.304 137.033 438.184 L137.033 420.823 Z" fill="#000000" fill-rule="evenodd" fill-opacity="1" /><path clip-path="url(#clip060)" d="M91.5706 122.998 L99.2095 122.998 L99.2095 96.632 L90.8993 98.2987 L90.8993 94.0395 L99.1632 92.3728 L103.839 92.3728 L103.839 122.998 L111.478 122.998 L111.478 126.933 L91.5706 126.933 L91.5706 122.998 Z" fill="#000000" fill-rule="evenodd" fill-opacity="1" /><path clip-path="url(#clip060)" d="M120.922 121.053 L125.807 121.053 L125.807 126.933 L120.922 126.933 L120.922 121.053 Z" fill="#000000" fill-rule="evenodd" fill-opacity="1" /><path clip-path="url(#clip060)" d="M145.992 95.4515 Q142.381 95.4515 140.552 99.0163 Q138.746 102.558 138.746 109.688 Q138.746 116.794 140.552 120.359 Q142.381 123.9 145.992 123.9 Q149.626 123.9 151.431 120.359 Q153.26 116.794 153.26 109.688 Q153.26 102.558 151.431 99.0163 Q149.626 95.4515 145.992 95.4515 M145.992 91.7478 Q151.802 91.7478 154.857 96.3543 Q157.936 100.938 157.936 109.688 Q157.936 118.414 154.857 123.021 Q151.802 127.604 145.992 127.604 Q140.181 127.604 137.103 123.021 Q134.047 118.414 134.047 109.688 Q134.047 100.938 137.103 96.3543 Q140.181 91.7478 145.992 91.7478 Z" fill="#000000" fill-rule="evenodd" fill-opacity="1" /><circle clip-path="url(#clip062)" cx="255.035" cy="1363.87" r="14" fill="#009af9" fill-rule="evenodd" fill-opacity="1" stroke="#000000" stroke-opacity="1" stroke-width="3.2"/>
<circle clip-path="url(#clip062)" cx="933.909" cy="1172.76" r="14" fill="#009af9" fill-rule="evenodd" fill-opacity="1" stroke="#000000" stroke-opacity="1" stroke-width="3.2"/>
<circle clip-path="url(#clip062)" cx="1612.78" cy="360.346" r="14" fill="#009af9" fill-rule="evenodd" fill-opacity="1" stroke="#000000" stroke-opacity="1" stroke-width="3.2"/>
<circle clip-path="url(#clip062)" cx="2291.66" cy="169.235" r="14" fill="#009af9" fill-rule="evenodd" fill-opacity="1" stroke="#000000" stroke-opacity="1" stroke-width="3.2"/>
<polyline clip-path="url(#clip062)" style="stroke:#e26f46; stroke-linecap:butt; stroke-linejoin:round; stroke-width:4; stroke-opacity:1; fill:none" points="
  255.035,1363.87 260.007,1367.73 264.979,1371.49 269.952,1375.15 274.924,1378.71 320.9,1407.07 366.877,1427.43 412.853,1440.19 458.829,1445.72 514.089,1443.35 
  569.348,1431.77 616.07,1415.29 662.791,1393.12 764.296,1327.24 857.875,1247.97 958.201,1147.01 1074.44,1014.55 1177.74,887.682 1268.32,772.951 1367.08,647.777 
  1466.43,525.53 1576.27,399.34 1680.78,292.67 1735.11,243.911 1789.45,200.565 1835.18,168.742 1880.92,141.587 1936.76,115.315 1992.6,97.259 2045.09,88.395 
  2097.58,87.9763 2139.63,94.1198 2181.68,106.346 2223.73,124.951 2265.77,150.228 2272.24,154.73 2278.72,159.397 2285.19,164.232 2291.66,169.235 
  "/>
<polyline clip-path="url(#clip062)" style="stroke:#3da44d; stroke-linecap:butt; stroke-linejoin:round; stroke-width:4; stroke-opacity:1; fill:none" points="
  255.035,1363.87 264.979,1369.1 274.924,1374.09 366.877,1409.08 458.829,1423.18 514.089,1421.37 569.348,1411.86 616.07,1397.89 662.791,1378.61 713.544,1351.83 
  764.296,1319.24 811.085,1284.33 857.875,1245.05 958.201,1147.68 1074.44,1016.7 1177.74,889.182 1268.32,773.037 1367.08,646.301 1466.43,523.372 1576.27,398.382 
  1680.78,295.224 1735.11,249.169 1789.45,209.001 1835.18,180.088 1880.92,155.905 1936.76,133.072 1992.6,117.851 2045.09,110.648 2097.58,110.411 2181.68,124.526 
  2265.77,156.116 2278.72,162.481 2291.66,169.235 
  "/>
<path clip-path="url(#clip060)" d="
M265.897 302.578 L653.357 302.578 L653.357 95.2176 L265.897 95.2176  Z
  " fill="#ffffff" fill-rule="evenodd" fill-opacity="1"/>
<polyline clip-path="url(#clip060)" style="stroke:#000000; stroke-linecap:butt; stroke-linejoin:round; stroke-width:4; stroke-opacity:1; fill:none" points="
  265.897,302.578 653.357,302.578 653.357,95.2176 265.897,95.2176 265.897,302.578 
  "/>
<circle clip-path="url(#clip060)" cx="361.844" cy="147.058" r="23" fill="#009af9" fill-rule="evenodd" fill-opacity="1" stroke="#000000" stroke-opacity="1" stroke-width="5.12"/>
<path clip-path="url(#clip060)" d="M469.875 171.305 L467.56 171.305 L467.537 164.338 Q465.107 164.291 462.676 163.782 Q460.245 163.25 457.792 162.208 L457.792 158.041 Q460.153 159.523 462.56 160.287 Q464.991 161.027 467.56 161.051 L467.56 150.495 Q462.445 149.662 460.107 147.671 Q457.792 145.68 457.792 142.208 Q457.792 138.435 460.315 136.259 Q462.838 134.083 467.56 133.759 L467.56 128.319 L469.875 128.319 L469.875 133.69 Q472.028 133.782 474.042 134.153 Q476.056 134.5 477.977 135.125 L477.977 139.176 Q476.056 138.203 474.019 137.671 Q472.005 137.139 469.875 137.046 L469.875 146.93 Q475.13 147.74 477.606 149.824 Q480.083 151.907 480.083 155.518 Q480.083 159.43 477.444 161.699 Q474.829 163.944 469.875 164.291 L469.875 171.305 M467.56 146.514 L467.56 137.023 Q464.875 137.324 463.463 138.551 Q462.051 139.778 462.051 141.815 Q462.051 143.805 463.347 144.916 Q464.667 146.027 467.56 146.514 M469.875 150.958 L469.875 160.981 Q472.815 160.588 474.296 159.314 Q475.801 158.041 475.801 155.958 Q475.801 153.921 474.366 152.717 Q472.954 151.514 469.875 150.958 Z" fill="#000000" fill-rule="evenodd" fill-opacity="1" /><path clip-path="url(#clip060)" d="M488.046 154.106 L488.046 138.412 L492.305 138.412 L492.305 153.944 Q492.305 157.625 493.741 159.476 Q495.176 161.305 498.046 161.305 Q501.495 161.305 503.486 159.106 Q505.5 156.907 505.5 153.111 L505.5 138.412 L509.759 138.412 L509.759 164.338 L505.5 164.338 L505.5 160.356 Q503.949 162.717 501.889 163.875 Q499.852 165.009 497.143 165.009 Q492.676 165.009 490.361 162.231 Q488.046 159.453 488.046 154.106 M498.764 137.787 L498.764 137.787 Z" fill="#000000" fill-rule="evenodd" fill-opacity="1" /><path clip-path="url(#clip060)" d="M538.231 172.208 L538.231 175.518 L513.602 175.518 L513.602 172.208 L538.231 172.208 Z" fill="#000000" fill-rule="evenodd" fill-opacity="1" /><path clip-path="url(#clip060)" d="M542.236 138.412 L546.495 138.412 L546.495 164.338 L542.236 164.338 L542.236 138.412 M542.236 128.319 L546.495 128.319 L546.495 133.713 L542.236 133.713 L542.236 128.319 Z" fill="#000000" fill-rule="evenodd" fill-opacity="1" /><path clip-path="url(#clip060)" d="M566.958 171.305 L564.643 171.305 L564.62 164.338 Q562.189 164.291 559.759 163.782 Q557.328 163.25 554.875 162.208 L554.875 158.041 Q557.236 159.523 559.643 160.287 Q562.074 161.027 564.643 161.051 L564.643 150.495 Q559.527 149.662 557.189 147.671 Q554.875 145.68 554.875 142.208 Q554.875 138.435 557.398 136.259 Q559.921 134.083 564.643 133.759 L564.643 128.319 L566.958 128.319 L566.958 133.69 Q569.111 133.782 571.124 134.153 Q573.138 134.5 575.06 135.125 L575.06 139.176 Q573.138 138.203 571.101 137.671 Q569.087 137.139 566.958 137.046 L566.958 146.93 Q572.212 147.74 574.689 149.824 Q577.166 151.907 577.166 155.518 Q577.166 159.43 574.527 161.699 Q571.912 163.944 566.958 164.291 L566.958 171.305 M564.643 146.514 L564.643 137.023 Q561.958 137.324 560.546 138.551 Q559.134 139.778 559.134 141.815 Q559.134 143.805 560.43 144.916 Q561.75 146.027 564.643 146.514 M566.958 150.958 L566.958 160.981 Q569.898 160.588 571.379 159.314 Q572.884 158.041 572.884 155.958 Q572.884 153.921 571.449 152.717 Q570.037 151.514 566.958 150.958 Z" fill="#000000" fill-rule="evenodd" fill-opacity="1" /><polyline clip-path="url(#clip060)" style="stroke:#e26f46; stroke-linecap:butt; stroke-linejoin:round; stroke-width:4; stroke-opacity:1; fill:none" points="
  289.884,198.898 433.805,198.898 
  "/>
<path clip-path="url(#clip060)" d="M469.875 223.145 L467.56 223.145 L467.537 216.178 Q465.107 216.131 462.676 215.622 Q460.245 215.09 457.792 214.048 L457.792 209.881 Q460.153 211.363 462.56 212.127 Q464.991 212.867 467.56 212.891 L467.56 202.335 Q462.445 201.502 460.107 199.511 Q457.792 197.52 457.792 194.048 Q457.792 190.275 460.315 188.099 Q462.838 185.923 467.56 185.599 L467.56 180.159 L469.875 180.159 L469.875 185.53 Q472.028 185.622 474.042 185.993 Q476.056 186.34 477.977 186.965 L477.977 191.016 Q476.056 190.043 474.019 189.511 Q472.005 188.979 469.875 188.886 L469.875 198.77 Q475.13 199.58 477.606 201.664 Q480.083 203.747 480.083 207.358 Q480.083 211.27 477.444 213.539 Q474.829 215.784 469.875 216.131 L469.875 223.145 M467.56 198.354 L467.56 188.863 Q464.875 189.164 463.463 190.391 Q462.051 191.618 462.051 193.655 Q462.051 195.645 463.347 196.756 Q464.667 197.867 467.56 198.354 M469.875 202.798 L469.875 212.821 Q472.815 212.428 474.296 211.154 Q475.801 209.881 475.801 207.798 Q475.801 205.761 474.366 204.557 Q472.954 203.354 469.875 202.798 Z" fill="#000000" fill-rule="evenodd" fill-opacity="1" /><path clip-path="url(#clip060)" d="M492.606 212.289 L492.606 226.039 L488.324 226.039 L488.324 190.252 L492.606 190.252 L492.606 194.187 Q493.949 191.872 495.986 190.761 Q498.046 189.627 500.893 189.627 Q505.616 189.627 508.555 193.377 Q511.518 197.127 511.518 203.238 Q511.518 209.349 508.555 213.099 Q505.616 216.849 500.893 216.849 Q498.046 216.849 495.986 215.738 Q493.949 214.603 492.606 212.289 M507.097 203.238 Q507.097 198.539 505.153 195.877 Q503.231 193.192 499.852 193.192 Q496.472 193.192 494.528 195.877 Q492.606 198.539 492.606 203.238 Q492.606 207.937 494.528 210.622 Q496.472 213.284 499.852 213.284 Q503.231 213.284 505.153 210.622 Q507.097 207.937 507.097 203.238 Z" fill="#000000" fill-rule="evenodd" fill-opacity="1" /><path clip-path="url(#clip060)" d="M528.81 180.206 Q525.708 185.53 524.203 190.738 Q522.699 195.946 522.699 201.293 Q522.699 206.641 524.203 211.895 Q525.731 217.127 528.81 222.428 L525.106 222.428 Q521.634 216.988 519.898 211.733 Q518.185 206.479 518.185 201.293 Q518.185 196.131 519.898 190.9 Q521.611 185.668 525.106 180.206 L528.81 180.206 Z" fill="#000000" fill-rule="evenodd" fill-opacity="1" /><path clip-path="url(#clip060)" d="M558.625 190.252 L549.25 202.867 L559.111 216.178 L554.088 216.178 L546.541 205.992 L538.995 216.178 L533.972 216.178 L544.041 202.613 L534.828 190.252 L539.852 190.252 L546.726 199.488 L553.601 190.252 L558.625 190.252 Z" fill="#000000" fill-rule="evenodd" fill-opacity="1" /><path clip-path="url(#clip060)" d="M564.458 180.206 L568.162 180.206 Q571.634 185.668 573.347 190.9 Q575.083 196.131 575.083 201.293 Q575.083 206.479 573.347 211.733 Q571.634 216.988 568.162 222.428 L564.458 222.428 Q567.537 217.127 569.041 211.895 Q570.569 206.641 570.569 201.293 Q570.569 195.946 569.041 190.738 Q567.537 185.53 564.458 180.206 Z" fill="#000000" fill-rule="evenodd" fill-opacity="1" /><path clip-path="url(#clip060)" d="M595.175 223.145 L592.86 223.145 L592.837 216.178 Q590.407 216.131 587.976 215.622 Q585.546 215.09 583.092 214.048 L583.092 209.881 Q585.453 211.363 587.861 212.127 Q590.291 212.867 592.86 212.891 L592.86 202.335 Q587.745 201.502 585.407 199.511 Q583.092 197.52 583.092 194.048 Q583.092 190.275 585.615 188.099 Q588.138 185.923 592.86 185.599 L592.86 180.159 L595.175 180.159 L595.175 185.53 Q597.328 185.622 599.342 185.993 Q601.356 186.34 603.277 186.965 L603.277 191.016 Q601.356 190.043 599.319 189.511 Q597.305 188.979 595.175 188.886 L595.175 198.77 Q600.43 199.58 602.907 201.664 Q605.384 203.747 605.384 207.358 Q605.384 211.27 602.745 213.539 Q600.129 215.784 595.175 216.131 L595.175 223.145 M592.86 198.354 L592.86 188.863 Q590.175 189.164 588.763 190.391 Q587.351 191.618 587.351 193.655 Q587.351 195.645 588.648 196.756 Q589.967 197.867 592.86 198.354 M595.175 202.798 L595.175 212.821 Q598.115 212.428 599.597 211.154 Q601.101 209.881 601.101 207.798 Q601.101 205.761 599.666 204.557 Q598.254 203.354 595.175 202.798 Z" fill="#000000" fill-rule="evenodd" fill-opacity="1" /><polyline clip-path="url(#clip060)" style="stroke:#3da44d; stroke-linecap:butt; stroke-linejoin:round; stroke-width:4; stroke-opacity:1; fill:none" points="
  289.884,250.738 433.805,250.738 
  "/>
<path clip-path="url(#clip060)" d="M476.218 242.856 L476.218 246.883 Q474.412 245.957 472.468 245.495 Q470.523 245.032 468.44 245.032 Q465.269 245.032 463.671 246.004 Q462.097 246.976 462.097 248.92 Q462.097 250.402 463.232 251.258 Q464.366 252.092 467.792 252.856 L469.25 253.18 Q473.787 254.152 475.685 255.934 Q477.606 257.694 477.606 260.865 Q477.606 264.476 474.736 266.582 Q471.889 268.689 466.889 268.689 Q464.806 268.689 462.537 268.272 Q460.292 267.879 457.792 267.068 L457.792 262.67 Q460.153 263.897 462.445 264.522 Q464.736 265.124 466.982 265.124 Q469.991 265.124 471.611 264.106 Q473.231 263.064 473.231 261.189 Q473.231 259.453 472.051 258.527 Q470.894 257.601 466.935 256.744 L465.454 256.397 Q461.495 255.564 459.736 253.851 Q457.977 252.115 457.977 249.106 Q457.977 245.448 460.57 243.458 Q463.162 241.467 467.931 241.467 Q470.292 241.467 472.375 241.814 Q474.458 242.161 476.218 242.856 Z" fill="#000000" fill-rule="evenodd" fill-opacity="1" /><path clip-path="url(#clip060)" d="M484.389 242.092 L488.648 242.092 L488.648 268.018 L484.389 268.018 L484.389 242.092 M484.389 231.999 L488.648 231.999 L488.648 237.393 L484.389 237.393 L484.389 231.999 Z" fill="#000000" fill-rule="evenodd" fill-opacity="1" /><path clip-path="url(#clip060)" d="M519.111 252.369 L519.111 268.018 L514.852 268.018 L514.852 252.508 Q514.852 248.828 513.416 246.999 Q511.981 245.17 509.111 245.17 Q505.662 245.17 503.671 247.37 Q501.68 249.569 501.68 253.365 L501.68 268.018 L497.398 268.018 L497.398 242.092 L501.68 242.092 L501.68 246.12 Q503.208 243.782 505.268 242.624 Q507.352 241.467 510.06 241.467 Q514.528 241.467 516.819 244.245 Q519.111 246.999 519.111 252.369 Z" fill="#000000" fill-rule="evenodd" fill-opacity="1" /></svg>
