<?xml version="1.0" encoding="utf-8"?>
<svg xmlns="http://www.w3.org/2000/svg" xmlns:xlink="http://www.w3.org/1999/xlink" width="600" height="400" viewBox="0 0 2400 1600">
<defs>
  <clipPath id="clip040">
    <rect x="0" y="0" width="2400" height="1600"/>
  </clipPath>
</defs>
<path clip-path="url(#clip040)" d="
M0 1600 L2400 1600 L2400 0 L0 0  Z
  " fill="#ffffff" fill-rule="evenodd" fill-opacity="1"/>
<defs>
  <clipPath id="clip041">
    <rect x="480" y="0" width="1681" height="1600"/>
  </clipPath>
</defs>
<path clip-path="url(#clip040)" d="
M213.607 1486.45 L2352.76 1486.45 L2352.76 47.2441 L213.607 47.2441  Z
  " fill="#ffffff" fill-rule="evenodd" fill-opacity="1"/>
<defs>
  <clipPath id="clip042">
    <rect x="213" y="47" width="2140" height="1440"/>
  </clipPath>
</defs>
<polyline clip-path="url(#clip042)" style="stroke:#000000; stroke-linecap:butt; stroke-linejoin:round; stroke-width:2; stroke-opacity:0.1; fill:none" points="
  218.092,1486.45 218.092,47.2441 
  "/>
<polyline clip-path="url(#clip042)" style="stroke:#000000; stroke-linecap:butt; stroke-linejoin:round; stroke-width:2; stroke-opacity:0.1; fill:none" points="
  778.666,1486.45 778.666,47.2441 
  "/>
<polyline clip-path="url(#clip042)" style="stroke:#000000; stroke-linecap:butt; stroke-linejoin:round; stroke-width:2; stroke-opacity:0.1; fill:none" points="
  1339.24,1486.45 1339.24,47.2441 
  "/>
<polyline clip-path="url(#clip042)" style="stroke:#000000; stroke-linecap:butt; stroke-linejoin:round; stroke-width:2; stroke-opacity:0.1; fill:none" points="
  1899.81,1486.45 1899.81,47.2441 
  "/>
<polyline clip-path="url(#clip040)" style="stroke:#000000; stroke-linecap:butt; stroke-linejoin:round; stroke-width:4; stroke-opacity:1; fill:none" points="
  213.607,1486.45 2352.76,1486.45 
  "/>
<polyline clip-path="url(#clip040)" style="stroke:#000000; stroke-linecap:butt; stroke-linejoin:round; stroke-width:4; stroke-opacity:1; fill:none" points="
  218.092,1486.45 218.092,1467.55 
  "/>
<polyline clip-path="url(#clip040)" style="stroke:#000000; stroke-linecap:butt; stroke-linejoin:round; stroke-width:4; stroke-opacity:1; fill:none" points="
  778.666,1486.45 778.666,1467.55 
  "/>
<polyline clip-path="url(#clip040)" style="stroke:#000000; stroke-linecap:butt; stroke-linejoin:round; stroke-width:4; stroke-opacity:1; fill:none" points="
  1339.24,1486.45 1339.24,1467.55 
  "/>
<polyline clip-path="url(#clip040)" style="stroke:#000000; stroke-linecap:butt; stroke-linejoin:round; stroke-width:4; stroke-opacity:1; fill:none" points="
  1899.81,1486.45 1899.81,1467.55 
  "/>
<path clip-path="url(#clip040)" d="M218.092 1515.64 Q214.481 1515.64 212.652 1519.2 Q210.847 1522.75 210.847 1529.87 Q210.847 1536.98 212.652 1540.55 Q214.481 1544.09 218.092 1544.09 Q221.726 1544.09 223.532 1540.55 Q225.361 1536.98 225.361 1529.87 Q225.361 1522.75 223.532 1519.2 Q221.726 1515.64 218.092 1515.64 M218.092 1511.93 Q223.902 1511.93 226.958 1516.54 Q230.036 1521.12 230.036 1529.87 Q230.036 1538.6 226.958 1543.21 Q223.902 1547.79 218.092 1547.79 Q212.282 1547.79 209.203 1543.21 Q206.148 1538.6 206.148 1529.87 Q206.148 1521.12 209.203 1516.54 Q212.282 1511.93 218.092 1511.93 Z" fill="#000000" fill-rule="evenodd" fill-opacity="1" /><path clip-path="url(#clip040)" d="M753.353 1543.18 L760.992 1543.18 L760.992 1516.82 L752.682 1518.49 L752.682 1514.23 L760.946 1512.56 L765.622 1512.56 L765.622 1543.18 L773.26 1543.18 L773.26 1547.12 L753.353 1547.12 L753.353 1543.18 Z" fill="#000000" fill-rule="evenodd" fill-opacity="1" /><path clip-path="url(#clip040)" d="M792.705 1515.64 Q789.094 1515.64 787.265 1519.2 Q785.459 1522.75 785.459 1529.87 Q785.459 1536.98 787.265 1540.55 Q789.094 1544.09 792.705 1544.09 Q796.339 1544.09 798.145 1540.55 Q799.973 1536.98 799.973 1529.87 Q799.973 1522.75 798.145 1519.2 Q796.339 1515.64 792.705 1515.64 M792.705 1511.93 Q798.515 1511.93 801.571 1516.54 Q804.649 1521.12 804.649 1529.87 Q804.649 1538.6 801.571 1543.21 Q798.515 1547.79 792.705 1547.79 Q786.895 1547.79 783.816 1543.21 Q780.76 1538.6 780.76 1529.87 Q780.76 1521.12 783.816 1516.54 Q786.895 1511.93 792.705 1511.93 Z" fill="#000000" fill-rule="evenodd" fill-opacity="1" /><path clip-path="url(#clip040)" d="M1318.01 1543.18 L1334.33 1543.18 L1334.33 1547.12 L1312.39 1547.12 L1312.39 1543.18 Q1315.05 1540.43 1319.63 1535.8 Q1324.24 1531.15 1325.42 1529.81 Q1327.67 1527.28 1328.54 1525.55 Q1329.45 1523.79 1329.45 1522.1 Q1329.45 1519.34 1327.5 1517.61 Q1325.58 1515.87 1322.48 1515.87 Q1320.28 1515.87 1317.83 1516.63 Q1315.4 1517.4 1312.62 1518.95 L1312.62 1514.23 Q1315.44 1513.09 1317.9 1512.51 Q1320.35 1511.93 1322.39 1511.93 Q1327.76 1511.93 1330.95 1514.62 Q1334.15 1517.31 1334.15 1521.8 Q1334.15 1523.93 1333.34 1525.85 Q1332.55 1527.74 1330.44 1530.34 Q1329.86 1531.01 1326.76 1534.23 Q1323.66 1537.42 1318.01 1543.18 Z" fill="#000000" fill-rule="evenodd" fill-opacity="1" /><path clip-path="url(#clip040)" d="M1354.15 1515.64 Q1350.54 1515.64 1348.71 1519.2 Q1346.9 1522.75 1346.9 1529.87 Q1346.9 1536.98 1348.71 1540.55 Q1350.54 1544.09 1354.15 1544.09 Q1357.78 1544.09 1359.59 1540.55 Q1361.41 1536.98 1361.41 1529.87 Q1361.41 1522.75 1359.59 1519.2 Q1357.78 1515.64 1354.15 1515.64 M1354.15 1511.93 Q1359.96 1511.93 1363.01 1516.54 Q1366.09 1521.12 1366.09 1529.87 Q1366.09 1538.6 1363.01 1543.21 Q1359.96 1547.79 1354.15 1547.79 Q1348.34 1547.79 1345.26 1543.21 Q1342.2 1538.6 1342.2 1529.87 Q1342.2 1521.12 1345.26 1516.54 Q1348.34 1511.93 1354.15 1511.93 Z" fill="#000000" fill-rule="evenodd" fill-opacity="1" /><path clip-path="url(#clip040)" d="M1888.66 1528.49 Q1892.01 1529.2 1893.89 1531.47 Q1895.78 1533.74 1895.78 1537.07 Q1895.78 1542.19 1892.27 1544.99 Q1888.75 1547.79 1882.27 1547.79 Q1880.09 1547.79 1877.78 1547.35 Q1875.48 1546.93 1873.03 1546.08 L1873.03 1541.56 Q1874.97 1542.7 1877.29 1543.28 Q1879.6 1543.86 1882.13 1543.86 Q1886.53 1543.86 1888.82 1542.12 Q1891.13 1540.38 1891.13 1537.07 Q1891.13 1534.02 1888.98 1532.31 Q1886.85 1530.57 1883.03 1530.57 L1879 1530.57 L1879 1526.73 L1883.22 1526.73 Q1886.66 1526.73 1888.49 1525.36 Q1890.32 1523.97 1890.32 1521.38 Q1890.32 1518.72 1888.42 1517.31 Q1886.55 1515.87 1883.03 1515.87 Q1881.11 1515.87 1878.91 1516.29 Q1876.71 1516.7 1874.07 1517.58 L1874.07 1513.42 Q1876.73 1512.68 1879.05 1512.31 Q1881.39 1511.93 1883.45 1511.93 Q1888.77 1511.93 1891.87 1514.37 Q1894.97 1516.77 1894.97 1520.89 Q1894.97 1523.76 1893.33 1525.75 Q1891.69 1527.72 1888.66 1528.49 Z" fill="#000000" fill-rule="evenodd" fill-opacity="1" /><path clip-path="url(#clip040)" d="M1914.65 1515.64 Q1911.04 1515.64 1909.21 1519.2 Q1907.41 1522.75 1907.41 1529.87 Q1907.41 1536.98 1909.21 1540.55 Q1911.04 1544.09 1914.65 1544.09 Q1918.28 1544.09 1920.09 1540.55 Q1921.92 1536.98 1921.92 1529.87 Q1921.92 1522.75 1920.09 1519.2 Q1918.28 1515.64 1914.65 1515.64 M1914.65 1511.93 Q1920.46 1511.93 1923.52 1516.54 Q1926.59 1521.12 1926.59 1529.87 Q1926.59 1538.6 1923.52 1543.21 Q1920.46 1547.79 1914.65 1547.79 Q1908.84 1547.79 1905.76 1543.21 Q1902.71 1538.6 1902.71 1529.87 Q1902.71 1521.12 1905.76 1516.54 Q1908.84 1511.93 1914.65 1511.93 Z" fill="#000000" fill-rule="evenodd" fill-opacity="1" /><polyline clip-path="url(#clip042)" style="stroke:#000000; stroke-linecap:butt; stroke-linejoin:round; stroke-width:2; stroke-opacity:0.1; fill:none" points="
  213.607,1245.7 2352.76,1245.7 
  "/>
<polyline clip-path="url(#clip042)" style="stroke:#000000; stroke-linecap:butt; stroke-linejoin:round; stroke-width:2; stroke-opacity:0.1; fill:none" points="
  213.607,704.653 2352.76,704.653 
  "/>
<polyline clip-path="url(#clip042)" style="stroke:#000000; stroke-linecap:butt; stroke-linejoin:round; stroke-width:2; stroke-opacity:0.1; fill:none" points="
  213.607,163.611 2352.76,163.611 
  "/>
<polyline clip-path="url(#clip040)" style="stroke:#000000; stroke-linecap:butt; stroke-linejoin:round; stroke-width:4; stroke-opacity:1; fill:none" points="
  213.607,1486.45 213.607,47.2441 
  "/>
<polyline clip-path="url(#clip040)" style="stroke:#000000; stroke-linecap:butt; stroke-linejoin:round; stroke-width:4; stroke-opacity:1; fill:none" points="
  213.607,1245.7 232.505,1245.7 
  "/>
<polyline clip-path="url(#clip040)" style="stroke:#000000; stroke-linecap:butt; stroke-linejoin:round; stroke-width:4; stroke-opacity:1; fill:none" points="
  213.607,704.653 232.505,704.653 
  "/>
<polyline clip-path="url(#clip040)" style="stroke:#000000; stroke-linecap:butt; stroke-linejoin:round; stroke-width:4; stroke-opacity:1; fill:none" points="
  213.607,163.611 232.505,163.611 
  "/>
<path clip-path="url(#clip040)" d="M51.6634 1265.49 L59.3023 1265.49 L59.3023 1239.12 L50.9921 1240.79 L50.9921 1236.53 L59.256 1234.86 L63.9319 1234.86 L63.9319 1265.49 L71.5707 1265.49 L71.5707 1269.42 L51.6634 1269.42 L51.6634 1265.49 Z" fill="#000000" fill-rule="evenodd" fill-opacity="1" /><path clip-path="url(#clip040)" d="M91.0151 1237.94 Q87.404 1237.94 85.5753 1241.51 Q83.7697 1245.05 83.7697 1252.18 Q83.7697 1259.28 85.5753 1262.85 Q87.404 1266.39 91.0151 1266.39 Q94.6493 1266.39 96.4548 1262.85 Q98.2835 1259.28 98.2835 1252.18 Q98.2835 1245.05 96.4548 1241.51 Q94.6493 1237.94 91.0151 1237.94 M91.0151 1234.24 Q96.8252 1234.24 99.8808 1238.84 Q102.959 1243.43 102.959 1252.18 Q102.959 1260.9 99.8808 1265.51 Q96.8252 1270.09 91.0151 1270.09 Q85.2049 1270.09 82.1262 1265.51 Q79.0707 1260.9 79.0707 1252.18 Q79.0707 1243.43 82.1262 1238.84 Q85.2049 1234.24 91.0151 1234.24 Z" fill="#000000" fill-rule="evenodd" fill-opacity="1" /><path clip-path="url(#clip040)" d="M102.959 1228.34 L127.071 1228.34 L127.071 1231.54 L102.959 1231.54 L102.959 1228.34 Z" fill="#000000" fill-rule="evenodd" fill-opacity="1" /><path clip-path="url(#clip040)" d="M135.929 1238.82 L142.136 1238.82 L142.136 1217.39 L135.384 1218.75 L135.384 1215.29 L142.098 1213.93 L145.898 1213.93 L145.898 1238.82 L152.104 1238.82 L152.104 1242.01 L135.929 1242.01 L135.929 1238.82 Z" fill="#000000" fill-rule="evenodd" fill-opacity="1" /><path clip-path="url(#clip040)" d="M167.903 1216.43 Q164.969 1216.43 163.483 1219.33 Q162.016 1222.21 162.016 1228 Q162.016 1233.78 163.483 1236.67 Q164.969 1239.55 167.903 1239.55 Q170.855 1239.55 172.322 1236.67 Q173.808 1233.78 173.808 1228 Q173.808 1222.21 172.322 1219.33 Q170.855 1216.43 167.903 1216.43 M167.903 1213.43 Q172.623 1213.43 175.106 1217.17 Q177.607 1220.89 177.607 1228 Q177.607 1235.09 175.106 1238.83 Q172.623 1242.56 167.903 1242.56 Q163.182 1242.56 160.68 1238.83 Q158.198 1235.09 158.198 1228 Q158.198 1220.89 160.68 1217.17 Q163.182 1213.43 167.903 1213.43 Z" fill="#000000" fill-rule="evenodd" fill-opacity="1" /><path clip-path="url(#clip040)" d="M76.9787 724.446 L84.6175 724.446 L84.6175 698.08 L76.3074 699.747 L76.3074 695.488 L84.5712 693.821 L89.2471 693.821 L89.2471 724.446 L96.886 724.446 L96.886 728.381 L76.9787 728.381 L76.9787 724.446 Z" fill="#000000" fill-rule="evenodd" fill-opacity="1" /><path clip-path="url(#clip040)" d="M116.33 696.9 Q112.719 696.9 110.891 700.464 Q109.085 704.006 109.085 711.136 Q109.085 718.242 110.891 721.807 Q112.719 725.349 116.33 725.349 Q119.965 725.349 121.77 721.807 Q123.599 718.242 123.599 711.136 Q123.599 704.006 121.77 700.464 Q119.965 696.9 116.33 696.9 M116.33 693.196 Q122.14 693.196 125.196 697.802 Q128.275 702.386 128.275 711.136 Q128.275 719.862 125.196 724.469 Q122.14 729.052 116.33 729.052 Q110.52 729.052 107.441 724.469 Q104.386 719.862 104.386 711.136 Q104.386 702.386 107.441 697.802 Q110.52 693.196 116.33 693.196 Z" fill="#000000" fill-rule="evenodd" fill-opacity="1" /><path clip-path="url(#clip040)" d="M128.275 687.297 L152.386 687.297 L152.386 690.495 L128.275 690.495 L128.275 687.297 Z" fill="#000000" fill-rule="evenodd" fill-opacity="1" /><path clip-path="url(#clip040)" d="M160.624 672.891 L175.539 672.891 L175.539 676.088 L164.103 676.088 L164.103 682.971 Q164.931 682.689 165.759 682.558 Q166.586 682.407 167.414 682.407 Q172.116 682.407 174.862 684.984 Q177.607 687.561 177.607 691.962 Q177.607 696.494 174.786 699.015 Q171.965 701.516 166.831 701.516 Q165.063 701.516 163.22 701.215 Q161.395 700.914 159.439 700.312 L159.439 696.494 Q161.132 697.416 162.937 697.867 Q164.743 698.319 166.755 698.319 Q170.009 698.319 171.909 696.607 Q173.808 694.896 173.808 691.962 Q173.808 689.028 171.909 687.316 Q170.009 685.605 166.755 685.605 Q165.232 685.605 163.709 685.943 Q162.204 686.282 160.624 686.996 L160.624 672.891 Z" fill="#000000" fill-rule="evenodd" fill-opacity="1" /><path clip-path="url(#clip040)" d="M106.902 183.403 L114.541 183.403 L114.541 157.038 L106.231 158.704 L106.231 154.445 L114.494 152.778 L119.17 152.778 L119.17 183.403 L126.809 183.403 L126.809 187.338 L106.902 187.338 L106.902 183.403 Z" fill="#000000" fill-rule="evenodd" fill-opacity="1" /><path clip-path="url(#clip040)" d="M146.253 155.857 Q142.642 155.857 140.814 159.422 Q139.008 162.964 139.008 170.093 Q139.008 177.2 140.814 180.764 Q142.642 184.306 146.253 184.306 Q149.888 184.306 151.693 180.764 Q153.522 177.2 153.522 170.093 Q153.522 162.964 151.693 159.422 Q149.888 155.857 146.253 155.857 M146.253 152.153 Q152.064 152.153 155.119 156.76 Q158.198 161.343 158.198 170.093 Q158.198 178.82 155.119 183.426 Q152.064 188.01 146.253 188.01 Q140.443 188.01 137.365 183.426 Q134.309 178.82 134.309 170.093 Q134.309 161.343 137.365 156.76 Q140.443 152.153 146.253 152.153 Z" fill="#000000" fill-rule="evenodd" fill-opacity="1" /><path clip-path="url(#clip040)" d="M167.903 134.349 Q164.969 134.349 163.483 137.246 Q162.016 140.123 162.016 145.916 Q162.016 151.69 163.483 154.587 Q164.969 157.464 167.903 157.464 Q170.855 157.464 172.322 154.587 Q173.808 151.69 173.808 145.916 Q173.808 140.123 172.322 137.246 Q170.855 134.349 167.903 134.349 M167.903 131.34 Q172.623 131.34 175.106 135.083 Q177.607 138.807 177.607 145.916 Q177.607 153.007 175.106 156.749 Q172.623 160.473 167.903 160.473 Q163.182 160.473 160.68 156.749 Q158.198 153.007 158.198 145.916 Q158.198 138.807 160.68 135.083 Q163.182 131.34 167.903 131.34 Z" fill="#000000" fill-rule="evenodd" fill-opacity="1" /><circle clip-path="url(#clip042)" cx="274.149" cy="226.751" r="14" fill="#009af9" fill-rule="evenodd" fill-opacity="1" stroke="#000000" stroke-opacity="1" stroke-width="3.2"/>
<circle clip-path="url(#clip042)" cx="330.207" cy="177.819" r="14" fill="#009af9" fill-rule="evenodd" fill-opacity="1" stroke="#000000" stroke-opacity="1" stroke-width="3.2"/>
<circle clip-path="url(#clip042)" cx="386.264" cy="230.857" r="14" fill="#009af9" fill-rule="evenodd" fill-opacity="1" stroke="#000000" stroke-opacity="1" stroke-width="3.2"/>
<circle clip-path="url(#clip042)" cx="442.321" cy="375.914" r="14" fill="#009af9" fill-rule="evenodd" fill-opacity="1" stroke="#000000" stroke-opacity="1" stroke-width="3.2"/>
<circle clip-path="url(#clip042)" cx="498.379" cy="265.627" r="14" fill="#009af9" fill-rule="evenodd" fill-opacity="1" stroke="#000000" stroke-opacity="1" stroke-width="3.2"/>
<circle clip-path="url(#clip042)" cx="554.436" cy="302.927" r="14" fill="#009af9" fill-rule="evenodd" fill-opacity="1" stroke="#000000" stroke-opacity="1" stroke-width="3.2"/>
<circle clip-path="url(#clip042)" cx="610.494" cy="346.673" r="14" fill="#009af9" fill-rule="evenodd" fill-opacity="1" stroke="#000000" stroke-opacity="1" stroke-width="3.2"/>
<circle clip-path="url(#clip042)" cx="666.551" cy="415.408" r="14" fill="#009af9" fill-rule="evenodd" fill-opacity="1" stroke="#000000" stroke-opacity="1" stroke-width="3.2"/>
<circle clip-path="url(#clip042)" cx="722.608" cy="435.031" r="14" fill="#009af9" fill-rule="evenodd" fill-opacity="1" stroke="#000000" stroke-opacity="1" stroke-width="3.2"/>
<circle clip-path="url(#clip042)" cx="778.666" cy="498.495" r="14" fill="#009af9" fill-rule="evenodd" fill-opacity="1" stroke="#000000" stroke-opacity="1" stroke-width="3.2"/>
<circle clip-path="url(#clip042)" cx="834.723" cy="481.699" r="14" fill="#009af9" fill-rule="evenodd" fill-opacity="1" stroke="#000000" stroke-opacity="1" stroke-width="3.2"/>
<circle clip-path="url(#clip042)" cx="890.78" cy="570.773" r="14" fill="#009af9" fill-rule="evenodd" fill-opacity="1" stroke="#000000" stroke-opacity="1" stroke-width="3.2"/>
<circle clip-path="url(#clip042)" cx="946.838" cy="542.434" r="14" fill="#009af9" fill-rule="evenodd" fill-opacity="1" stroke="#000000" stroke-opacity="1" stroke-width="3.2"/>
<circle clip-path="url(#clip042)" cx="1002.89" cy="612.236" r="14" fill="#009af9" fill-rule="evenodd" fill-opacity="1" stroke="#000000" stroke-opacity="1" stroke-width="3.2"/>
<circle clip-path="url(#clip042)" cx="1058.95" cy="628.45" r="14" fill="#009af9" fill-rule="evenodd" fill-opacity="1" stroke="#000000" stroke-opacity="1" stroke-width="3.2"/>
<circle clip-path="url(#clip042)" cx="1115.01" cy="702.692" r="14" fill="#009af9" fill-rule="evenodd" fill-opacity="1" stroke="#000000" stroke-opacity="1" stroke-width="3.2"/>
<circle clip-path="url(#clip042)" cx="1171.07" cy="671.865" r="14" fill="#009af9" fill-rule="evenodd" fill-opacity="1" stroke="#000000" stroke-opacity="1" stroke-width="3.2"/>
<circle clip-path="url(#clip042)" cx="1227.12" cy="738.828" r="14" fill="#009af9" fill-rule="evenodd" fill-opacity="1" stroke="#000000" stroke-opacity="1" stroke-width="3.2"/>
<circle clip-path="url(#clip042)" cx="1283.18" cy="764.529" r="14" fill="#009af9" fill-rule="evenodd" fill-opacity="1" stroke="#000000" stroke-opacity="1" stroke-width="3.2"/>
<circle clip-path="url(#clip042)" cx="1339.24" cy="812.028" r="14" fill="#009af9" fill-rule="evenodd" fill-opacity="1" stroke="#000000" stroke-opacity="1" stroke-width="3.2"/>
<circle clip-path="url(#clip042)" cx="1395.3" cy="818.368" r="14" fill="#009af9" fill-rule="evenodd" fill-opacity="1" stroke="#000000" stroke-opacity="1" stroke-width="3.2"/>
<circle clip-path="url(#clip042)" cx="1451.35" cy="941.872" r="14" fill="#009af9" fill-rule="evenodd" fill-opacity="1" stroke="#000000" stroke-opacity="1" stroke-width="3.2"/>
<circle clip-path="url(#clip042)" cx="1507.41" cy="854.464" r="14" fill="#009af9" fill-rule="evenodd" fill-opacity="1" stroke="#000000" stroke-opacity="1" stroke-width="3.2"/>
<circle clip-path="url(#clip042)" cx="1563.47" cy="894.991" r="14" fill="#009af9" fill-rule="evenodd" fill-opacity="1" stroke="#000000" stroke-opacity="1" stroke-width="3.2"/>
<circle clip-path="url(#clip042)" cx="1619.53" cy="949.186" r="14" fill="#009af9" fill-rule="evenodd" fill-opacity="1" stroke="#000000" stroke-opacity="1" stroke-width="3.2"/>
<circle clip-path="url(#clip042)" cx="1675.58" cy="1065.48" r="14" fill="#009af9" fill-rule="evenodd" fill-opacity="1" stroke="#000000" stroke-opacity="1" stroke-width="3.2"/>
<circle clip-path="url(#clip042)" cx="1731.64" cy="985.894" r="14" fill="#009af9" fill-rule="evenodd" fill-opacity="1" stroke="#000000" stroke-opacity="1" stroke-width="3.2"/>
<circle clip-path="url(#clip042)" cx="1787.7" cy="1028.02" r="14" fill="#009af9" fill-rule="evenodd" fill-opacity="1" stroke="#000000" stroke-opacity="1" stroke-width="3.2"/>
<circle clip-path="url(#clip042)" cx="1843.76" cy="1088.74" r="14" fill="#009af9" fill-rule="evenodd" fill-opacity="1" stroke="#000000" stroke-opacity="1" stroke-width="3.2"/>
<circle clip-path="url(#clip042)" cx="1899.81" cy="1142.25" r="14" fill="#009af9" fill-rule="evenodd" fill-opacity="1" stroke="#000000" stroke-opacity="1" stroke-width="3.2"/>
<circle clip-path="url(#clip042)" cx="1955.87" cy="1139.45" r="14" fill="#009af9" fill-rule="evenodd" fill-opacity="1" stroke="#000000" stroke-opacity="1" stroke-width="3.2"/>
<circle clip-path="url(#clip042)" cx="2011.93" cy="1306.05" r="14" fill="#009af9" fill-rule="evenodd" fill-opacity="1" stroke="#000000" stroke-opacity="1" stroke-width="3.2"/>
<circle clip-path="url(#clip042)" cx="2067.98" cy="1176.29" r="14" fill="#009af9" fill-rule="evenodd" fill-opacity="1" stroke="#000000" stroke-opacity="1" stroke-width="3.2"/>
<circle clip-path="url(#clip042)" cx="2124.04" cy="1211.93" r="14" fill="#009af9" fill-rule="evenodd" fill-opacity="1" stroke="#000000" stroke-opacity="1" stroke-width="3.2"/>
<circle clip-path="url(#clip042)" cx="2180.1" cy="1251.32" r="14" fill="#009af9" fill-rule="evenodd" fill-opacity="1" stroke="#000000" stroke-opacity="1" stroke-width="3.2"/>
<circle clip-path="url(#clip042)" cx="2236.16" cy="1301.47" r="14" fill="#009af9" fill-rule="evenodd" fill-opacity="1" stroke="#000000" stroke-opacity="1" stroke-width="3.2"/>
<circle clip-path="url(#clip042)" cx="2292.21" cy="1445.72" r="14" fill="#009af9" fill-rule="evenodd" fill-opacity="1" stroke="#000000" stroke-opacity="1" stroke-width="3.2"/>
<polyline clip-path="url(#clip042)" style="stroke:#e26f46; stroke-linecap:butt; stroke-linejoin:round; stroke-width:4; stroke-opacity:1; fill:none" points="
  274.149,87.9763 330.207,120.55 386.264,153.124 442.321,185.698 498.379,218.272 554.436,250.846 610.494,283.42 666.551,315.994 722.608,348.568 778.666,381.142 
  834.723,413.716 890.78,446.29 946.838,478.864 1002.89,511.438 1058.95,544.012 1115.01,576.586 1171.07,609.16 1227.12,641.734 1283.18,674.308 1339.24,706.882 
  1395.3,739.456 1451.35,772.03 1507.41,804.604 1563.47,837.178 1619.53,869.752 1675.58,902.326 1731.64,934.9 1787.7,967.474 1843.76,1000.05 1899.81,1032.62 
  1955.87,1065.2 2011.93,1097.77 2067.98,1130.34 2124.04,1162.92 2180.1,1195.49 2236.16,1228.07 2292.21,1260.64 
  "/>
<path clip-path="url(#clip040)" d="
M1991.34 250.738 L2281.45 250.738 L2281.45 95.2176 L1991.34 95.2176  Z
  " fill="#ffffff" fill-rule="evenodd" fill-opacity="1"/>
<polyline clip-path="url(#clip040)" style="stroke:#000000; stroke-linecap:butt; stroke-linejoin:round; stroke-width:4; stroke-opacity:1; fill:none" points="
  1991.34,250.738 2281.45,250.738 2281.45,95.2176 1991.34,95.2176 1991.34,250.738 
  "/>
<circle clip-path="url(#clip040)" cx="2086.41" cy="147.058" r="23" fill="#009af9" fill-rule="evenodd" fill-opacity="1" stroke="#000000" stroke-opacity="1" stroke-width="5.12"/>
<path clip-path="url(#clip040)" d="M2195.33 166.745 Q2193.52 171.375 2191.81 172.787 Q2190.1 174.199 2187.22 174.199 L2183.82 174.199 L2183.82 170.634 L2186.32 170.634 Q2188.08 170.634 2189.05 169.8 Q2190.03 168.967 2191.21 165.865 L2191.97 163.921 L2181.48 138.412 L2186 138.412 L2194.1 158.689 L2202.2 138.412 L2206.72 138.412 L2195.33 166.745 Z" fill="#000000" fill-rule="evenodd" fill-opacity="1" /><path clip-path="url(#clip040)" d="M2214.01 160.402 L2221.65 160.402 L2221.65 134.037 L2213.34 135.703 L2213.34 131.444 L2221.6 129.778 L2226.28 129.778 L2226.28 160.402 L2233.91 160.402 L2233.91 164.338 L2214.01 164.338 L2214.01 160.402 Z" fill="#000000" fill-rule="evenodd" fill-opacity="1" /><polyline clip-path="url(#clip040)" style="stroke:#e26f46; stroke-linecap:butt; stroke-linejoin:round; stroke-width:4; stroke-opacity:1; fill:none" points="
  2015.11,198.898 2157.72,198.898 
  "/>
<path clip-path="url(#clip040)" d="M2195.33 218.585 Q2193.52 223.215 2191.81 224.627 Q2190.1 226.039 2187.22 226.039 L2183.82 226.039 L2183.82 222.474 L2186.32 222.474 Q2188.08 222.474 2189.05 221.64 Q2190.03 220.807 2191.21 217.705 L2191.97 215.761 L2181.48 190.252 L2186 190.252 L2194.1 210.529 L2202.2 190.252 L2206.72 190.252 L2195.33 218.585 Z" fill="#000000" fill-rule="evenodd" fill-opacity="1" /><path clip-path="url(#clip040)" d="M2217.22 212.242 L2233.54 212.242 L2233.54 216.178 L2211.6 216.178 L2211.6 212.242 Q2214.26 209.488 2218.84 204.858 Q2223.45 200.205 2224.63 198.863 Q2226.88 196.34 2227.76 194.604 Q2228.66 192.844 2228.66 191.155 Q2228.66 188.4 2226.72 186.664 Q2224.79 184.928 2221.69 184.928 Q2219.49 184.928 2217.04 185.692 Q2214.61 186.455 2211.83 188.006 L2211.83 183.284 Q2214.66 182.15 2217.11 181.571 Q2219.56 180.993 2221.6 180.993 Q2226.97 180.993 2230.16 183.678 Q2233.36 186.363 2233.36 190.854 Q2233.36 192.983 2232.55 194.905 Q2231.76 196.803 2229.66 199.395 Q2229.08 200.067 2225.97 203.284 Q2222.87 206.479 2217.22 212.242 Z" fill="#000000" fill-rule="evenodd" fill-opacity="1" /></svg>
