<?xml version="1.0" encoding="utf-8"?>
<svg xmlns="http://www.w3.org/2000/svg" xmlns:xlink="http://www.w3.org/1999/xlink" width="600" height="400" viewBox="0 0 2400 1600">
<defs>
  <clipPath id="clip360">
    <rect x="0" y="0" width="2400" height="1600"/>
  </clipPath>
</defs>
<path clip-path="url(#clip360)" d="
M0 1600 L2400 1600 L2400 0 L0 0  Z
  " fill="#ffffff" fill-rule="evenodd" fill-opacity="1"/>
<defs>
  <clipPath id="clip361">
    <rect x="480" y="0" width="1681" height="1600"/>
  </clipPath>
</defs>
<path clip-path="url(#clip360)" d="
M193.936 1486.45 L2352.76 1486.45 L2352.76 47.2441 L193.936 47.2441  Z
  " fill="#ffffff" fill-rule="evenodd" fill-opacity="1"/>
<defs>
  <clipPath id="clip362">
    <rect x="193" y="47" width="2160" height="1440"/>
  </clipPath>
</defs>
<polyline clip-path="url(#clip362)" style="stroke:#000000; stroke-linecap:butt; stroke-linejoin:round; stroke-width:2; stroke-opacity:0.1; fill:none" points="
  193.936,1486.45 193.936,47.2441 
  "/>
<polyline clip-path="url(#clip362)" style="stroke:#000000; stroke-linecap:butt; stroke-linejoin:round; stroke-width:2; stroke-opacity:0.1; fill:none" points="
  733.641,1486.45 733.641,47.2441 
  "/>
<polyline clip-path="url(#clip362)" style="stroke:#000000; stroke-linecap:butt; stroke-linejoin:round; stroke-width:2; stroke-opacity:0.1; fill:none" points="
  1273.35,1486.45 1273.35,47.2441 
  "/>
<polyline clip-path="url(#clip362)" style="stroke:#000000; stroke-linecap:butt; stroke-linejoin:round; stroke-width:2; stroke-opacity:0.1; fill:none" points="
  1813.05,1486.45 1813.05,47.2441 
  "/>
<polyline clip-path="url(#clip362)" style="stroke:#000000; stroke-linecap:butt; stroke-linejoin:round; stroke-width:2; stroke-opacity:0.1; fill:none" points="
  2352.76,1486.45 2352.76,47.2441 
  "/>
<polyline clip-path="url(#clip360)" style="stroke:#000000; stroke-linecap:butt; stroke-linejoin:round; stroke-width:4; stroke-opacity:1; fill:none" points="
  193.936,1486.45 2352.76,1486.45 
  "/>
<polyline clip-path="url(#clip360)" style="stroke:#000000; stroke-linecap:butt; stroke-linejoin:round; stroke-width:4; stroke-opacity:1; fill:none" points="
  193.936,1486.45 193.936,1467.55 
  "/>
<polyline clip-path="url(#clip360)" style="stroke:#000000; stroke-linecap:butt; stroke-linejoin:round; stroke-width:4; stroke-opacity:1; fill:none" points="
  733.641,1486.45 733.641,1467.55 
  "/>
<polyline clip-path="url(#clip360)" style="stroke:#000000; stroke-linecap:butt; stroke-linejoin:round; stroke-width:4; stroke-opacity:1; fill:none" points="
  1273.35,1486.45 1273.35,1467.55 
  "/>
<polyline clip-path="url(#clip360)" style="stroke:#000000; stroke-linecap:butt; stroke-linejoin:round; stroke-width:4; stroke-opacity:1; fill:none" points="
  1813.05,1486.45 1813.05,1467.55 
  "/>
<polyline clip-path="url(#clip360)" style="stroke:#000000; stroke-linecap:butt; stroke-linejoin:round; stroke-width:4; stroke-opacity:1; fill:none" points="
  2352.76,1486.45 2352.76,1467.55 
  "/>
<path clip-path="url(#clip360)" d="M162.837 1530.29 L192.512 1530.29 L192.512 1534.23 L162.837 1534.23 L162.837 1530.29 Z" fill="#000000" fill-rule="evenodd" fill-opacity="1" /><path clip-path="url(#clip360)" d="M215.452 1516.63 L203.647 1535.08 L215.452 1535.08 L215.452 1516.63 M214.225 1512.56 L220.105 1512.56 L220.105 1535.08 L225.035 1535.08 L225.035 1538.97 L220.105 1538.97 L220.105 1547.12 L215.452 1547.12 L215.452 1538.97 L199.85 1538.97 L199.85 1534.46 L214.225 1512.56 Z" fill="#000000" fill-rule="evenodd" fill-opacity="1" /><path clip-path="url(#clip360)" d="M703.583 1530.29 L733.259 1530.29 L733.259 1534.23 L703.583 1534.23 L703.583 1530.29 Z" fill="#000000" fill-rule="evenodd" fill-opacity="1" /><path clip-path="url(#clip360)" d="M747.379 1543.18 L763.699 1543.18 L763.699 1547.12 L741.754 1547.12 L741.754 1543.18 Q744.416 1540.43 749 1535.8 Q753.606 1531.15 754.787 1529.81 Q757.032 1527.28 757.912 1525.55 Q758.814 1523.79 758.814 1522.1 Q758.814 1519.34 756.87 1517.61 Q754.949 1515.87 751.847 1515.87 Q749.648 1515.87 747.194 1516.63 Q744.764 1517.4 741.986 1518.95 L741.986 1514.23 Q744.81 1513.09 747.264 1512.51 Q749.717 1511.93 751.754 1511.93 Q757.125 1511.93 760.319 1514.62 Q763.513 1517.31 763.513 1521.8 Q763.513 1523.93 762.703 1525.85 Q761.916 1527.74 759.81 1530.34 Q759.231 1531.01 756.129 1534.23 Q753.027 1537.42 747.379 1543.18 Z" fill="#000000" fill-rule="evenodd" fill-opacity="1" /><path clip-path="url(#clip360)" d="M1273.35 1515.64 Q1269.73 1515.64 1267.91 1519.2 Q1266.1 1522.75 1266.1 1529.87 Q1266.1 1536.98 1267.91 1540.55 Q1269.73 1544.09 1273.35 1544.09 Q1276.98 1544.09 1278.79 1540.55 Q1280.61 1536.98 1280.61 1529.87 Q1280.61 1522.75 1278.79 1519.2 Q1276.98 1515.64 1273.35 1515.64 M1273.35 1511.93 Q1279.16 1511.93 1282.21 1516.54 Q1285.29 1521.12 1285.29 1529.87 Q1285.29 1538.6 1282.21 1543.21 Q1279.16 1547.79 1273.35 1547.79 Q1267.54 1547.79 1264.46 1543.21 Q1261.4 1538.6 1261.4 1529.87 Q1261.4 1521.12 1264.46 1516.54 Q1267.54 1511.93 1273.35 1511.93 Z" fill="#000000" fill-rule="evenodd" fill-opacity="1" /><path clip-path="url(#clip360)" d="M1807.7 1543.18 L1824.02 1543.18 L1824.02 1547.12 L1802.08 1547.12 L1802.08 1543.18 Q1804.74 1540.43 1809.32 1535.8 Q1813.93 1531.15 1815.11 1529.81 Q1817.36 1527.28 1818.24 1525.55 Q1819.14 1523.79 1819.14 1522.1 Q1819.14 1519.34 1817.19 1517.61 Q1815.27 1515.87 1812.17 1515.87 Q1809.97 1515.87 1807.52 1516.63 Q1805.09 1517.4 1802.31 1518.95 L1802.31 1514.23 Q1805.13 1513.09 1807.59 1512.51 Q1810.04 1511.93 1812.08 1511.93 Q1817.45 1511.93 1820.64 1514.62 Q1823.84 1517.31 1823.84 1521.8 Q1823.84 1523.93 1823.03 1525.85 Q1822.24 1527.74 1820.13 1530.34 Q1819.56 1531.01 1816.45 1534.23 Q1813.35 1537.42 1807.7 1543.18 Z" fill="#000000" fill-rule="evenodd" fill-opacity="1" /><path clip-path="url(#clip360)" d="M2355.77 1516.63 L2343.96 1535.08 L2355.77 1535.08 L2355.77 1516.63 M2354.54 1512.56 L2360.42 1512.56 L2360.42 1535.08 L2365.35 1535.08 L2365.35 1538.97 L2360.42 1538.97 L2360.42 1547.12 L2355.77 1547.12 L2355.77 1538.97 L2340.16 1538.97 L2340.16 1534.46 L2354.54 1512.56 Z" fill="#000000" fill-rule="evenodd" fill-opacity="1" /><polyline clip-path="url(#clip362)" style="stroke:#000000; stroke-linecap:butt; stroke-linejoin:round; stroke-width:2; stroke-opacity:0.1; fill:none" points="
  193.936,1445.73 2352.76,1445.73 
  "/>
<polyline clip-path="url(#clip362)" style="stroke:#000000; stroke-linecap:butt; stroke-linejoin:round; stroke-width:2; stroke-opacity:0.1; fill:none" points="
  193.936,1106.26 2352.76,1106.26 
  "/>
<polyline clip-path="url(#clip362)" style="stroke:#000000; stroke-linecap:butt; stroke-linejoin:round; stroke-width:2; stroke-opacity:0.1; fill:none" points="
  193.936,766.788 2352.76,766.788 
  "/>
<polyline clip-path="url(#clip362)" style="stroke:#000000; stroke-linecap:butt; stroke-linejoin:round; stroke-width:2; stroke-opacity:0.1; fill:none" points="
  193.936,427.316 2352.76,427.316 
  "/>
<polyline clip-path="url(#clip362)" style="stroke:#000000; stroke-linecap:butt; stroke-linejoin:round; stroke-width:2; stroke-opacity:0.1; fill:none" points="
  193.936,87.844 2352.76,87.844 
  "/>
<polyline clip-path="url(#clip360)" style="stroke:#000000; stroke-linecap:butt; stroke-linejoin:round; stroke-width:4; stroke-opacity:1; fill:none" points="
  193.936,1486.45 193.936,47.2441 
  "/>
<polyline clip-path="url(#clip360)" style="stroke:#000000; stroke-linecap:butt; stroke-linejoin:round; stroke-width:4; stroke-opacity:1; fill:none" points="
  193.936,1445.73 212.834,1445.73 
  "/>
<polyline clip-path="url(#clip360)" style="stroke:#000000; stroke-linecap:butt; stroke-linejoin:round; stroke-width:4; stroke-opacity:1; fill:none" points="
  193.936,1106.26 212.834,1106.26 
  "/>
<polyline clip-path="url(#clip360)" style="stroke:#000000; stroke-linecap:butt; stroke-linejoin:round; stroke-width:4; stroke-opacity:1; fill:none" points="
  193.936,766.788 212.834,766.788 
  "/>
<polyline clip-path="url(#clip360)" style="stroke:#000000; stroke-linecap:butt; stroke-linejoin:round; stroke-width:4; stroke-opacity:1; fill:none" points="
  193.936,427.316 212.834,427.316 
  "/>
<polyline clip-path="url(#clip360)" style="stroke:#000000; stroke-linecap:butt; stroke-linejoin:round; stroke-width:4; stroke-opacity:1; fill:none" points="
  193.936,87.844 212.834,87.844 
  "/>
<path clip-path="url(#clip360)" d="M50.9921 1446.18 L80.6679 1446.18 L80.6679 1450.12 L50.9921 1450.12 L50.9921 1446.18 Z" fill="#000000" fill-rule="evenodd" fill-opacity="1" /><path clip-path="url(#clip360)" d="M91.5706 1459.08 L99.2095 1459.08 L99.2095 1432.71 L90.8993 1434.38 L90.8993 1430.12 L99.1632 1428.45 L103.839 1428.45 L103.839 1459.08 L111.478 1459.08 L111.478 1463.01 L91.5706 1463.01 L91.5706 1459.08 Z" fill="#000000" fill-rule="evenodd" fill-opacity="1" /><path clip-path="url(#clip360)" d="M120.922 1457.13 L125.807 1457.13 L125.807 1463.01 L120.922 1463.01 L120.922 1457.13 Z" fill="#000000" fill-rule="evenodd" fill-opacity="1" /><path clip-path="url(#clip360)" d="M145.992 1431.53 Q142.381 1431.53 140.552 1435.1 Q138.746 1438.64 138.746 1445.77 Q138.746 1452.87 140.552 1456.44 Q142.381 1459.98 145.992 1459.98 Q149.626 1459.98 151.431 1456.44 Q153.26 1452.87 153.26 1445.77 Q153.26 1438.64 151.431 1435.1 Q149.626 1431.53 145.992 1431.53 M145.992 1427.83 Q151.802 1427.83 154.857 1432.43 Q157.936 1437.02 157.936 1445.77 Q157.936 1454.49 154.857 1459.1 Q151.802 1463.68 145.992 1463.68 Q140.181 1463.68 137.103 1459.1 Q134.047 1454.49 134.047 1445.77 Q134.047 1437.02 137.103 1432.43 Q140.181 1427.83 145.992 1427.83 Z" fill="#000000" fill-rule="evenodd" fill-opacity="1" /><path clip-path="url(#clip360)" d="M51.9875 1106.71 L81.6633 1106.71 L81.6633 1110.65 L51.9875 1110.65 L51.9875 1106.71 Z" fill="#000000" fill-rule="evenodd" fill-opacity="1" /><path clip-path="url(#clip360)" d="M101.756 1092.06 Q98.1447 1092.06 96.316 1095.62 Q94.5104 1099.17 94.5104 1106.3 Q94.5104 1113.4 96.316 1116.97 Q98.1447 1120.51 101.756 1120.51 Q105.39 1120.51 107.196 1116.97 Q109.024 1113.4 109.024 1106.3 Q109.024 1099.17 107.196 1095.62 Q105.39 1092.06 101.756 1092.06 M101.756 1088.36 Q107.566 1088.36 110.621 1092.96 Q113.7 1097.55 113.7 1106.3 Q113.7 1115.02 110.621 1119.63 Q107.566 1124.21 101.756 1124.21 Q95.9456 1124.21 92.8669 1119.63 Q89.8114 1115.02 89.8114 1106.3 Q89.8114 1097.55 92.8669 1092.96 Q95.9456 1088.36 101.756 1088.36 Z" fill="#000000" fill-rule="evenodd" fill-opacity="1" /><path clip-path="url(#clip360)" d="M121.918 1117.66 L126.802 1117.66 L126.802 1123.54 L121.918 1123.54 L121.918 1117.66 Z" fill="#000000" fill-rule="evenodd" fill-opacity="1" /><path clip-path="url(#clip360)" d="M137.033 1088.98 L155.39 1088.98 L155.39 1092.92 L141.316 1092.92 L141.316 1101.39 Q142.334 1101.04 143.353 1100.88 Q144.371 1100.69 145.39 1100.69 Q151.177 1100.69 154.556 1103.86 Q157.936 1107.04 157.936 1112.45 Q157.936 1118.03 154.464 1121.13 Q150.992 1124.21 144.672 1124.21 Q142.496 1124.21 140.228 1123.84 Q137.982 1123.47 135.575 1122.73 L135.575 1118.03 Q137.658 1119.17 139.881 1119.72 Q142.103 1120.28 144.58 1120.28 Q148.584 1120.28 150.922 1118.17 Q153.26 1116.06 153.26 1112.45 Q153.26 1108.84 150.922 1106.73 Q148.584 1104.63 144.58 1104.63 Q142.705 1104.63 140.83 1105.05 Q138.978 1105.46 137.033 1106.34 L137.033 1088.98 Z" fill="#000000" fill-rule="evenodd" fill-opacity="1" /><path clip-path="url(#clip360)" d="M100.76 752.587 Q97.1493 752.587 95.3206 756.152 Q93.515 759.693 93.515 766.823 Q93.515 773.929 95.3206 777.494 Q97.1493 781.036 100.76 781.036 Q104.395 781.036 106.2 777.494 Q108.029 773.929 108.029 766.823 Q108.029 759.693 106.2 756.152 Q104.395 752.587 100.76 752.587 M100.76 748.883 Q106.571 748.883 109.626 753.49 Q112.705 758.073 112.705 766.823 Q112.705 775.55 109.626 780.156 Q106.571 784.74 100.76 784.74 Q94.9502 784.74 91.8715 780.156 Q88.816 775.55 88.816 766.823 Q88.816 758.073 91.8715 753.49 Q94.9502 748.883 100.76 748.883 Z" fill="#000000" fill-rule="evenodd" fill-opacity="1" /><path clip-path="url(#clip360)" d="M120.922 778.189 L125.807 778.189 L125.807 784.068 L120.922 784.068 L120.922 778.189 Z" fill="#000000" fill-rule="evenodd" fill-opacity="1" /><path clip-path="url(#clip360)" d="M145.992 752.587 Q142.381 752.587 140.552 756.152 Q138.746 759.693 138.746 766.823 Q138.746 773.929 140.552 777.494 Q142.381 781.036 145.992 781.036 Q149.626 781.036 151.431 777.494 Q153.26 773.929 153.26 766.823 Q153.26 759.693 151.431 756.152 Q149.626 752.587 145.992 752.587 M145.992 748.883 Q151.802 748.883 154.857 753.49 Q157.936 758.073 157.936 766.823 Q157.936 775.55 154.857 780.156 Q151.802 784.74 145.992 784.74 Q140.181 784.74 137.103 780.156 Q134.047 775.55 134.047 766.823 Q134.047 758.073 137.103 753.49 Q140.181 748.883 145.992 748.883 Z" fill="#000000" fill-rule="evenodd" fill-opacity="1" /><path clip-path="url(#clip360)" d="M101.756 413.115 Q98.1447 413.115 96.316 416.68 Q94.5104 420.221 94.5104 427.351 Q94.5104 434.457 96.316 438.022 Q98.1447 441.564 101.756 441.564 Q105.39 441.564 107.196 438.022 Q109.024 434.457 109.024 427.351 Q109.024 420.221 107.196 416.68 Q105.39 413.115 101.756 413.115 M101.756 409.411 Q107.566 409.411 110.621 414.018 Q113.7 418.601 113.7 427.351 Q113.7 436.078 110.621 440.684 Q107.566 445.267 101.756 445.267 Q95.9456 445.267 92.8669 440.684 Q89.8114 436.078 89.8114 427.351 Q89.8114 418.601 92.8669 414.018 Q95.9456 409.411 101.756 409.411 Z" fill="#000000" fill-rule="evenodd" fill-opacity="1" /><path clip-path="url(#clip360)" d="M121.918 438.716 L126.802 438.716 L126.802 444.596 L121.918 444.596 L121.918 438.716 Z" fill="#000000" fill-rule="evenodd" fill-opacity="1" /><path clip-path="url(#clip360)" d="M137.033 410.036 L155.39 410.036 L155.39 413.971 L141.316 413.971 L141.316 422.443 Q142.334 422.096 143.353 421.934 Q144.371 421.749 145.39 421.749 Q151.177 421.749 154.556 424.92 Q157.936 428.092 157.936 433.508 Q157.936 439.087 154.464 442.189 Q150.992 445.267 144.672 445.267 Q142.496 445.267 140.228 444.897 Q137.982 444.527 135.575 443.786 L135.575 439.087 Q137.658 440.221 139.881 440.777 Q142.103 441.332 144.58 441.332 Q148.584 441.332 150.922 439.226 Q153.26 437.119 153.26 433.508 Q153.26 429.897 150.922 427.791 Q148.584 425.684 144.58 425.684 Q142.705 425.684 140.83 426.101 Q138.978 426.517 137.033 427.397 L137.033 410.036 Z" fill="#000000" fill-rule="evenodd" fill-opacity="1" /><path clip-path="url(#clip360)" d="M91.5706 101.189 L99.2095 101.189 L99.2095 74.8232 L90.8993 76.4899 L90.8993 72.2306 L99.1632 70.564 L103.839 70.564 L103.839 101.189 L111.478 101.189 L111.478 105.124 L91.5706 105.124 L91.5706 101.189 Z" fill="#000000" fill-rule="evenodd" fill-opacity="1" /><path clip-path="url(#clip360)" d="M120.922 99.2444 L125.807 99.2444 L125.807 105.124 L120.922 105.124 L120.922 99.2444 Z" fill="#000000" fill-rule="evenodd" fill-opacity="1" /><path clip-path="url(#clip360)" d="M145.992 73.6427 Q142.381 73.6427 140.552 77.2075 Q138.746 80.7491 138.746 87.8787 Q138.746 94.9851 140.552 98.5499 Q142.381 102.092 145.992 102.092 Q149.626 102.092 151.431 98.5499 Q153.26 94.9851 153.26 87.8787 Q153.26 80.7491 151.431 77.2075 Q149.626 73.6427 145.992 73.6427 M145.992 69.939 Q151.802 69.939 154.857 74.5454 Q157.936 79.1288 157.936 87.8787 Q157.936 96.6055 154.857 101.212 Q151.802 105.795 145.992 105.795 Q140.181 105.795 137.103 101.212 Q134.047 96.6055 134.047 87.8787 Q134.047 79.1288 137.103 74.5454 Q140.181 69.939 145.992 69.939 Z" fill="#000000" fill-rule="evenodd" fill-opacity="1" /><polyline clip-path="url(#clip362)" style="stroke:#009af9; stroke-linecap:butt; stroke-linejoin:round; stroke-width:4; stroke-opacity:1; fill:none" points="
  193.936,1210.58 199.207,1220.53 204.477,1230.3 209.748,1239.9 215.019,1249.32 263.754,1327.27 312.488,1386.98 336.856,1409.36 361.223,1426.52 385.591,1438.29 
  409.958,1444.6 439.246,1444.86 468.533,1437.15 497.821,1421.55 527.109,1398.24 551.871,1372.73 576.633,1342.11 601.396,1306.66 626.158,1266.66 679.956,1165.77 
  733.753,1049.07 783.35,931.468 832.946,808.317 886.119,674.844 939.292,544.93 1000.9,405.465 1062.5,284.749 1089.88,238.809 1117.25,198.297 1144.63,163.63 
  1172,135.165 1196,115.539 1220.01,101.063 1244.01,91.8508 1268.02,87.9763 1294.19,89.8684 1320.36,98.1227 1346.53,112.661 1372.7,133.348 1399.03,160.164 
  1425.36,192.749 1451.69,230.793 1478.01,273.935 1536.23,385.32 1594.44,514.39 1649.83,648.156 1705.23,786.903 1762.82,930.19 1820.41,1066.06 1868.89,1170.15 
  1917.38,1261.25 1946.97,1309.2 1976.57,1350.64 2006.16,1385.06 2035.76,1412.05 2063.58,1430.36 2091.4,1441.62 2119.22,1445.72 2147.04,1442.6 2191.61,1422.7 
  2236.18,1384.94 2280.75,1330.36 2325.32,1260.44 2332.18,1248.43 2339.04,1236.11 2345.9,1223.49 2352.76,1210.58 
  "/>
<polyline clip-path="url(#clip362)" style="stroke:#e26f46; stroke-linecap:butt; stroke-linejoin:round; stroke-width:4; stroke-opacity:1; fill:none" points="
  193.936,1235.51 199.207,1245 204.477,1254.32 209.748,1263.44 215.019,1272.38 263.754,1345.48 312.488,1399.75 336.856,1419.25 361.223,1433.43 385.591,1442.18 
  409.958,1445.43 439.246,1442.02 468.533,1430.66 497.821,1411.49 527.109,1384.73 551.871,1356.42 576.633,1323.14 601.396,1285.19 626.158,1242.87 679.956,1137.66 
  733.753,1017.75 783.35,898.288 832.946,774.392 886.119,641.391 939.292,513.242 1000.9,377.35 1062.5,261.666 1089.88,218.364 1117.25,180.7 1144.63,149.062 
  1172,123.776 1196,107.035 1220.01,95.511 1244.01,89.2956 1268.02,88.4375 1294.19,93.6135 1320.36,105.116 1346.53,122.838 1372.7,146.612 1399.03,176.407 
  1425.36,211.817 1451.69,252.506 1478.01,298.085 1536.23,414.014 1594.44,546.298 1649.83,681.751 1705.23,820.774 1762.82,962.84 1820.41,1096.01 1868.89,1196.76 
  1917.38,1283.67 1946.97,1328.7 1976.57,1366.98 2006.16,1398.04 2035.76,1421.53 2063.58,1436.43 2091.4,1444.22 2119.22,1444.82 2147.04,1438.22 2191.61,1412.84 
  2236.18,1369.88 2280.75,1310.5 2325.32,1236.33 2332.18,1223.72 2339.04,1210.82 2345.9,1197.63 2352.76,1184.17 
  "/>
<polyline clip-path="url(#clip362)" style="stroke:#3da44d; stroke-linecap:butt; stroke-linejoin:round; stroke-width:4; stroke-opacity:1; fill:none" points="
  193.936,1318.12 199.207,1325.51 204.477,1332.69 209.748,1339.66 215.019,1346.41 263.754,1398.02 312.488,1429.1 336.856,1436.6 361.223,1438.64 385.591,1435.2 
  409.958,1426.32 439.246,1408.55 468.533,1383.22 497.821,1350.63 527.109,1311.18 551.871,1272.81 576.633,1230.17 601.396,1183.64 626.158,1133.6 733.753,886.276 
  832.946,640.69 886.119,513.929 939.292,396.955 970.095,335.47 1000.9,279.598 1031.7,230.068 1062.5,187.523 1089.88,156.026 1117.25,130.809 1144.63,112.131 
  1172,100.184 1196,95.3443 1220.01,95.8147 1244.01,101.591 1268.02,112.627 1294.19,130.55 1320.36,154.453 1346.53,184.111 1372.7,219.245 1399.03,259.779 
  1425.36,305.135 1451.69,354.882 1478.01,408.546 1536.23,538.528 1594.44,679.092 1649.83,816.71 1705.23,952.232 1762.82,1084.81 1820.41,1202.96 1868.89,1287.26 
  1917.38,1354.81 1946.97,1386.86 1976.57,1411.46 2006.16,1428.31 2035.76,1437.21 2063.58,1438.23 2091.4,1432.12 2119.22,1418.95 2147.04,1398.85 2191.61,1352.77 
  2236.18,1290.75 2280.75,1214.47 2325.32,1126 2332.18,1111.45 2339.04,1096.68 2345.9,1081.7 2352.76,1066.51 
  "/>
<path clip-path="url(#clip360)" d="
M1934.38 302.578 L2280.8 302.578 L2280.8 95.2176 L1934.38 95.2176  Z
  " fill="#ffffff" fill-rule="evenodd" fill-opacity="1"/>
<polyline clip-path="url(#clip360)" style="stroke:#000000; stroke-linecap:butt; stroke-linejoin:round; stroke-width:4; stroke-opacity:1; fill:none" points="
  1934.38,302.578 2280.8,302.578 2280.8,95.2176 1934.38,95.2176 1934.38,302.578 
  "/>
<polyline clip-path="url(#clip360)" style="stroke:#009af9; stroke-linecap:butt; stroke-linejoin:round; stroke-width:4; stroke-opacity:1; fill:none" points="
  1958.36,147.058 2102.28,147.058 
  "/>
<path clip-path="url(#clip360)" d="M2146.78 139.407 L2146.78 143.389 Q2144.97 142.393 2143.15 141.907 Q2141.34 141.398 2139.49 141.398 Q2135.35 141.398 2133.05 144.037 Q2130.76 146.652 2130.76 151.398 Q2130.76 156.143 2133.05 158.782 Q2135.35 161.398 2139.49 161.398 Q2141.34 161.398 2143.15 160.912 Q2144.97 160.402 2146.78 159.407 L2146.78 163.342 Q2145 164.176 2143.08 164.592 Q2141.18 165.009 2139.03 165.009 Q2133.17 165.009 2129.72 161.328 Q2126.27 157.648 2126.27 151.398 Q2126.27 145.055 2129.74 141.421 Q2133.24 137.787 2139.3 137.787 Q2141.27 137.787 2143.15 138.203 Q2145.02 138.597 2146.78 139.407 Z" fill="#000000" fill-rule="evenodd" fill-opacity="1" /><path clip-path="url(#clip360)" d="M2164.23 141.398 Q2160.81 141.398 2158.82 144.083 Q2156.83 146.745 2156.83 151.398 Q2156.83 156.051 2158.79 158.736 Q2160.78 161.398 2164.23 161.398 Q2167.64 161.398 2169.63 158.713 Q2171.62 156.027 2171.62 151.398 Q2171.62 146.791 2169.63 144.106 Q2167.64 141.398 2164.23 141.398 M2164.23 137.787 Q2169.79 137.787 2172.96 141.398 Q2176.13 145.009 2176.13 151.398 Q2176.13 157.764 2172.96 161.398 Q2169.79 165.009 2164.23 165.009 Q2158.66 165.009 2155.48 161.398 Q2152.34 157.764 2152.34 151.398 Q2152.34 145.009 2155.48 141.398 Q2158.66 137.787 2164.23 137.787 Z" fill="#000000" fill-rule="evenodd" fill-opacity="1" /><path clip-path="url(#clip360)" d="M2199.72 139.176 L2199.72 143.203 Q2197.91 142.277 2195.97 141.815 Q2194.03 141.352 2191.94 141.352 Q2188.77 141.352 2187.17 142.324 Q2185.6 143.296 2185.6 145.24 Q2185.6 146.722 2186.73 147.578 Q2187.87 148.412 2191.29 149.176 L2192.75 149.5 Q2197.29 150.472 2199.19 152.254 Q2201.11 154.014 2201.11 157.185 Q2201.11 160.796 2198.24 162.902 Q2195.39 165.009 2190.39 165.009 Q2188.31 165.009 2186.04 164.592 Q2183.79 164.199 2181.29 163.388 L2181.29 158.99 Q2183.66 160.217 2185.95 160.842 Q2188.24 161.444 2190.48 161.444 Q2193.49 161.444 2195.11 160.426 Q2196.73 159.384 2196.73 157.509 Q2196.73 155.773 2195.55 154.847 Q2194.4 153.921 2190.44 153.064 L2188.96 152.717 Q2185 151.884 2183.24 150.171 Q2181.48 148.435 2181.48 145.426 Q2181.48 141.768 2184.07 139.778 Q2186.66 137.787 2191.43 137.787 Q2193.79 137.787 2195.88 138.134 Q2197.96 138.481 2199.72 139.176 Z" fill="#000000" fill-rule="evenodd" fill-opacity="1" /><polyline clip-path="url(#clip360)" style="stroke:#e26f46; stroke-linecap:butt; stroke-linejoin:round; stroke-width:4; stroke-opacity:1; fill:none" points="
  1958.36,198.898 2102.28,198.898 
  "/>
<path clip-path="url(#clip360)" d="M2147.98 200.529 L2147.98 216.178 L2143.72 216.178 L2143.72 200.668 Q2143.72 196.988 2142.29 195.159 Q2140.85 193.33 2137.98 193.33 Q2134.53 193.33 2132.54 195.53 Q2130.55 197.729 2130.55 201.525 L2130.55 216.178 L2126.27 216.178 L2126.27 180.159 L2130.55 180.159 L2130.55 194.28 Q2132.08 191.942 2134.14 190.784 Q2136.22 189.627 2138.93 189.627 Q2143.4 189.627 2145.69 192.405 Q2147.98 195.159 2147.98 200.529 Z" fill="#000000" fill-rule="evenodd" fill-opacity="1" /><path clip-path="url(#clip360)" d="M2157.03 194.65 L2186.71 194.65 L2186.71 198.539 L2157.03 198.539 L2157.03 194.65 M2157.03 204.094 L2186.71 204.094 L2186.71 208.029 L2157.03 208.029 L2157.03 204.094 Z" fill="#000000" fill-rule="evenodd" fill-opacity="1" /><path clip-path="url(#clip360)" d="M2196.8 210.298 L2201.69 210.298 L2201.69 216.178 L2196.8 216.178 L2196.8 210.298 Z" fill="#000000" fill-rule="evenodd" fill-opacity="1" /><path clip-path="url(#clip360)" d="M2212.68 212.242 L2220.32 212.242 L2220.32 185.877 L2212.01 187.543 L2212.01 183.284 L2220.28 181.618 L2224.95 181.618 L2224.95 212.242 L2232.59 212.242 L2232.59 216.178 L2212.68 216.178 L2212.68 212.242 Z" fill="#000000" fill-rule="evenodd" fill-opacity="1" /><polyline clip-path="url(#clip360)" style="stroke:#3da44d; stroke-linecap:butt; stroke-linejoin:round; stroke-width:4; stroke-opacity:1; fill:none" points="
  1958.36,250.738 2102.28,250.738 
  "/>
<path clip-path="url(#clip360)" d="M2147.98 252.369 L2147.98 268.018 L2143.72 268.018 L2143.72 252.508 Q2143.72 248.828 2142.29 246.999 Q2140.85 245.17 2137.98 245.17 Q2134.53 245.17 2132.54 247.37 Q2130.55 249.569 2130.55 253.365 L2130.55 268.018 L2126.27 268.018 L2126.27 231.999 L2130.55 231.999 L2130.55 246.12 Q2132.08 243.782 2134.14 242.624 Q2136.22 241.467 2138.93 241.467 Q2143.4 241.467 2145.69 244.245 Q2147.98 246.999 2147.98 252.369 Z" fill="#000000" fill-rule="evenodd" fill-opacity="1" /><path clip-path="url(#clip360)" d="M2157.03 246.49 L2186.71 246.49 L2186.71 250.379 L2157.03 250.379 L2157.03 246.49 M2157.03 255.934 L2186.71 255.934 L2186.71 259.869 L2157.03 259.869 L2157.03 255.934 Z" fill="#000000" fill-rule="evenodd" fill-opacity="1" /><path clip-path="url(#clip360)" d="M2196.8 262.138 L2201.69 262.138 L2201.69 268.018 L2196.8 268.018 L2196.8 262.138 Z" fill="#000000" fill-rule="evenodd" fill-opacity="1" /><path clip-path="url(#clip360)" d="M2211.92 233.458 L2230.28 233.458 L2230.28 237.393 L2216.2 237.393 L2216.2 245.865 Q2217.22 245.518 2218.24 245.356 Q2219.26 245.17 2220.28 245.17 Q2226.06 245.17 2229.44 248.342 Q2232.82 251.513 2232.82 256.93 Q2232.82 262.508 2229.35 265.61 Q2225.88 268.689 2219.56 268.689 Q2217.38 268.689 2215.11 268.318 Q2212.87 267.948 2210.46 267.207 L2210.46 262.508 Q2212.54 263.643 2214.77 264.198 Q2216.99 264.754 2219.47 264.754 Q2223.47 264.754 2225.81 262.647 Q2228.15 260.541 2228.15 256.93 Q2228.15 253.319 2225.81 251.212 Q2223.47 249.106 2219.47 249.106 Q2217.59 249.106 2215.72 249.522 Q2213.86 249.939 2211.92 250.819 L2211.92 233.458 Z" fill="#000000" fill-rule="evenodd" fill-opacity="1" /></svg>
