<?xml version="1.0" encoding="utf-8"?>
<svg xmlns="http://www.w3.org/2000/svg" xmlns:xlink="http://www.w3.org/1999/xlink" width="600" height="400" viewBox="0 0 2400 1600">
<defs>
  <clipPath id="clip610">
    <rect x="0" y="0" width="2400" height="1600"/>
  </clipPath>
</defs>
<path clip-path="url(#clip610)" d="
M0 1600 L2400 1600 L2400 0 L0 0  Z
  " fill="#ffffff" fill-rule="evenodd" fill-opacity="1"/>
<defs>
  <clipPath id="clip611">
    <rect x="480" y="0" width="1681" height="1600"/>
  </clipPath>
</defs>
<defs>
  <clipPath id="clip612">
    <rect x="193" y="47" width="2160" height="1440"/>
  </clipPath>
</defs>
<path clip-path="url(#clip610)" d="
M276.876 1427.71 L2352.76 1427.71 L2352.76 47.2441 L276.876 47.2441  Z
  " fill="#ffffff" fill-rule="evenodd" fill-opacity="1"/>
<defs>
  <clipPath id="clip613">
    <rect x="276" y="47" width="2077" height="1381"/>
  </clipPath>
</defs>
<polyline clip-path="url(#clip613)" style="stroke:#000000; stroke-linecap:butt; stroke-linejoin:round; stroke-width:2; stroke-opacity:0.1; fill:none" points="
  988.419,1427.71 988.419,47.2441 
  "/>
<polyline clip-path="url(#clip613)" style="stroke:#000000; stroke-linecap:butt; stroke-linejoin:round; stroke-width:2; stroke-opacity:0.1; fill:none" points="
  2294,1427.71 2294,47.2441 
  "/>
<polyline clip-path="url(#clip610)" style="stroke:#000000; stroke-linecap:butt; stroke-linejoin:round; stroke-width:4; stroke-opacity:1; fill:none" points="
  276.876,1427.71 2352.76,1427.71 
  "/>
<polyline clip-path="url(#clip610)" style="stroke:#000000; stroke-linecap:butt; stroke-linejoin:round; stroke-width:4; stroke-opacity:1; fill:none" points="
  988.419,1427.71 988.419,1408.81 
  "/>
<polyline clip-path="url(#clip610)" style="stroke:#000000; stroke-linecap:butt; stroke-linejoin:round; stroke-width:4; stroke-opacity:1; fill:none" points="
  2294,1427.71 2294,1408.81 
  "/>
<path clip-path="url(#clip610)" d="M925.783 1505.98 L933.422 1505.98 L933.422 1479.61 L925.112 1481.28 L925.112 1477.02 L933.376 1475.36 L938.051 1475.36 L938.051 1505.98 L945.69 1505.98 L945.69 1509.92 L925.783 1509.92 L925.783 1505.98 Z" fill="#000000" fill-rule="evenodd" fill-opacity="1" /><path clip-path="url(#clip610)" d="M965.135 1478.43 Q961.524 1478.43 959.695 1482 Q957.889 1485.54 957.889 1492.67 Q957.889 1499.78 959.695 1503.34 Q961.524 1506.88 965.135 1506.88 Q968.769 1506.88 970.574 1503.34 Q972.403 1499.78 972.403 1492.67 Q972.403 1485.54 970.574 1482 Q968.769 1478.43 965.135 1478.43 M965.135 1474.73 Q970.945 1474.73 974 1479.34 Q977.079 1483.92 977.079 1492.67 Q977.079 1501.4 974 1506 Q970.945 1510.59 965.135 1510.59 Q959.325 1510.59 956.246 1506 Q953.19 1501.4 953.19 1492.67 Q953.19 1483.92 956.246 1479.34 Q959.325 1474.73 965.135 1474.73 Z" fill="#000000" fill-rule="evenodd" fill-opacity="1" /><path clip-path="url(#clip610)" d="M977.079 1468.83 L1001.19 1468.83 L1001.19 1472.03 L977.079 1472.03 L977.079 1468.83 Z" fill="#000000" fill-rule="evenodd" fill-opacity="1" /><path clip-path="url(#clip610)" d="M1010.05 1479.31 L1016.26 1479.31 L1016.26 1457.89 L1009.5 1459.24 L1009.5 1455.78 L1016.22 1454.43 L1020.02 1454.43 L1020.02 1479.31 L1026.22 1479.31 L1026.22 1482.51 L1010.05 1482.51 L1010.05 1479.31 Z" fill="#000000" fill-rule="evenodd" fill-opacity="1" /><path clip-path="url(#clip610)" d="M1042.02 1456.93 Q1039.09 1456.93 1037.6 1459.82 Q1036.14 1462.7 1036.14 1468.49 Q1036.14 1474.27 1037.6 1477.16 Q1039.09 1480.04 1042.02 1480.04 Q1044.98 1480.04 1046.44 1477.16 Q1047.93 1474.27 1047.93 1468.49 Q1047.93 1462.7 1046.44 1459.82 Q1044.98 1456.93 1042.02 1456.93 M1042.02 1453.92 Q1046.74 1453.92 1049.23 1457.66 Q1051.73 1461.38 1051.73 1468.49 Q1051.73 1475.58 1049.23 1479.33 Q1046.74 1483.05 1042.02 1483.05 Q1037.3 1483.05 1034.8 1479.33 Q1032.32 1475.58 1032.32 1468.49 Q1032.32 1461.38 1034.8 1457.66 Q1037.3 1453.92 1042.02 1453.92 Z" fill="#000000" fill-rule="evenodd" fill-opacity="1" /><path clip-path="url(#clip610)" d="M2258.99 1505.98 L2266.63 1505.98 L2266.63 1479.61 L2258.32 1481.28 L2258.32 1477.02 L2266.58 1475.36 L2271.26 1475.36 L2271.26 1505.98 L2278.89 1505.98 L2278.89 1509.92 L2258.99 1509.92 L2258.99 1505.98 Z" fill="#000000" fill-rule="evenodd" fill-opacity="1" /><path clip-path="url(#clip610)" d="M2298.34 1478.43 Q2294.73 1478.43 2292.9 1482 Q2291.09 1485.54 2291.09 1492.67 Q2291.09 1499.78 2292.9 1503.34 Q2294.73 1506.88 2298.34 1506.88 Q2301.97 1506.88 2303.78 1503.34 Q2305.61 1499.78 2305.61 1492.67 Q2305.61 1485.54 2303.78 1482 Q2301.97 1478.43 2298.34 1478.43 M2298.34 1474.73 Q2304.15 1474.73 2307.2 1479.34 Q2310.28 1483.92 2310.28 1492.67 Q2310.28 1501.4 2307.2 1506 Q2304.15 1510.59 2298.34 1510.59 Q2292.53 1510.59 2289.45 1506 Q2286.39 1501.4 2286.39 1492.67 Q2286.39 1483.92 2289.45 1479.34 Q2292.53 1474.73 2298.34 1474.73 Z" fill="#000000" fill-rule="evenodd" fill-opacity="1" /><path clip-path="url(#clip610)" d="M2319.99 1456.93 Q2317.05 1456.93 2315.57 1459.82 Q2314.1 1462.7 2314.1 1468.49 Q2314.1 1474.27 2315.57 1477.16 Q2317.05 1480.04 2319.99 1480.04 Q2322.94 1480.04 2324.41 1477.16 Q2325.89 1474.27 2325.89 1468.49 Q2325.89 1462.7 2324.41 1459.82 Q2322.94 1456.93 2319.99 1456.93 M2319.99 1453.92 Q2324.71 1453.92 2327.19 1457.66 Q2329.69 1461.38 2329.69 1468.49 Q2329.69 1475.58 2327.19 1479.33 Q2324.71 1483.05 2319.99 1483.05 Q2315.27 1483.05 2312.77 1479.33 Q2310.28 1475.58 2310.28 1468.49 Q2310.28 1461.38 2312.77 1457.66 Q2315.27 1453.92 2319.99 1453.92 Z" fill="#000000" fill-rule="evenodd" fill-opacity="1" /><path clip-path="url(#clip610)" d="M1328.38 1565.26 Q1328.38 1565.52 1328.09 1566.51 Q1327.8 1567.51 1327.09 1569.06 Q1326.41 1570.6 1325.48 1572.02 Q1324.55 1573.41 1323 1574.44 Q1321.49 1575.44 1319.75 1575.44 Q1317.43 1575.44 1315.88 1573.89 Q1314.34 1572.34 1314.34 1570.03 Q1314.34 1569.7 1314.37 1569.38 Q1314.4 1569.06 1314.43 1568.87 Q1314.47 1568.64 1314.56 1568.29 Q1314.69 1567.9 1314.72 1567.74 Q1314.79 1567.58 1314.95 1567.09 Q1315.14 1566.58 1315.21 1566.39 Q1319.3 1555.95 1319.3 1551.6 Q1319.3 1547 1315.72 1547 Q1312.53 1547 1309.38 1549.32 Q1307.93 1550.48 1306.54 1552.54 Q1305.16 1554.6 1304.9 1555.37 Q1304.61 1557.05 1304.19 1558.33 Q1304 1559.24 1303.06 1562.75 L1301.62 1568.7 L1300.36 1573.7 Q1300.1 1574.41 1299.39 1574.92 Q1298.68 1575.44 1297.91 1575.44 Q1297.27 1575.44 1296.62 1574.98 Q1296.01 1574.57 1296.01 1573.57 Q1296.01 1573.05 1296.27 1572.12 L1305.83 1534.12 L1306.03 1532.83 Q1306.03 1532.44 1305.87 1532.25 Q1305.74 1532.02 1304.96 1531.86 Q1304.22 1531.7 1302.74 1531.7 Q1302.13 1531.7 1301.84 1531.67 Q1301.58 1531.64 1301.36 1531.47 Q1301.13 1531.28 1301.13 1530.9 Q1301.13 1530.35 1301.36 1530.06 Q1301.62 1529.74 1301.81 1529.67 Q1302 1529.61 1302.39 1529.57 Q1302.94 1529.54 1304.77 1529.38 Q1306.61 1529.19 1308.19 1529.06 Q1309.76 1528.93 1310.44 1528.93 Q1310.83 1528.93 1311.02 1529.12 Q1311.24 1529.28 1311.28 1529.48 L1311.31 1529.64 L1306.16 1550.6 Q1310.25 1545.55 1315.91 1545.55 Q1319.59 1545.55 1321.55 1547.45 Q1323.52 1549.32 1323.52 1552.6 Q1323.52 1556.37 1319.49 1567.09 Q1318.3 1570.09 1318.3 1571.8 Q1318.3 1572.92 1318.65 1573.44 Q1319.04 1573.95 1319.88 1573.95 Q1321.16 1573.95 1322.29 1573.21 Q1323.45 1572.44 1324.26 1571.18 Q1325.06 1569.9 1325.61 1568.61 Q1326.19 1567.29 1326.61 1565.81 Q1326.86 1565 1326.99 1564.81 Q1327.15 1564.61 1327.61 1564.61 Q1328.38 1564.61 1328.38 1565.26 Z" fill="#000000" fill-rule="evenodd" fill-opacity="1" /><polyline clip-path="url(#clip613)" style="stroke:#000000; stroke-linecap:butt; stroke-linejoin:round; stroke-width:2; stroke-opacity:0.1; fill:none" points="
  276.876,964.838 2352.76,964.838 
  "/>
<polyline clip-path="url(#clip613)" style="stroke:#000000; stroke-linecap:butt; stroke-linejoin:round; stroke-width:2; stroke-opacity:0.1; fill:none" points="
  276.876,117.236 2352.76,117.236 
  "/>
<polyline clip-path="url(#clip610)" style="stroke:#000000; stroke-linecap:butt; stroke-linejoin:round; stroke-width:4; stroke-opacity:1; fill:none" points="
  276.876,1427.71 276.876,47.2441 
  "/>
<polyline clip-path="url(#clip610)" style="stroke:#000000; stroke-linecap:butt; stroke-linejoin:round; stroke-width:4; stroke-opacity:1; fill:none" points="
  276.876,964.838 295.773,964.838 
  "/>
<polyline clip-path="url(#clip610)" style="stroke:#000000; stroke-linecap:butt; stroke-linejoin:round; stroke-width:4; stroke-opacity:1; fill:none" points="
  276.876,117.236 295.773,117.236 
  "/>
<path clip-path="url(#clip610)" d="M114.931 984.63 L122.57 984.63 L122.57 958.264 L114.26 959.931 L114.26 955.672 L122.524 954.005 L127.2 954.005 L127.2 984.63 L134.839 984.63 L134.839 988.565 L114.931 988.565 L114.931 984.63 Z" fill="#000000" fill-rule="evenodd" fill-opacity="1" /><path clip-path="url(#clip610)" d="M154.283 957.084 Q150.672 957.084 148.843 960.649 Q147.038 964.19 147.038 971.32 Q147.038 978.426 148.843 981.991 Q150.672 985.533 154.283 985.533 Q157.917 985.533 159.723 981.991 Q161.552 978.426 161.552 971.32 Q161.552 964.19 159.723 960.649 Q157.917 957.084 154.283 957.084 M154.283 953.38 Q160.093 953.38 163.149 957.987 Q166.227 962.57 166.227 971.32 Q166.227 980.047 163.149 984.653 Q160.093 989.236 154.283 989.236 Q148.473 989.236 145.394 984.653 Q142.339 980.047 142.339 971.32 Q142.339 962.57 145.394 957.987 Q148.473 953.38 154.283 953.38 Z" fill="#000000" fill-rule="evenodd" fill-opacity="1" /><path clip-path="url(#clip610)" d="M166.227 947.482 L190.339 947.482 L190.339 950.679 L166.227 950.679 L166.227 947.482 Z" fill="#000000" fill-rule="evenodd" fill-opacity="1" /><path clip-path="url(#clip610)" d="M199.197 957.957 L205.404 957.957 L205.404 936.535 L198.652 937.89 L198.652 934.429 L205.366 933.075 L209.166 933.075 L209.166 957.957 L215.372 957.957 L215.372 961.155 L199.197 961.155 L199.197 957.957 Z" fill="#000000" fill-rule="evenodd" fill-opacity="1" /><path clip-path="url(#clip610)" d="M231.171 935.576 Q228.237 935.576 226.751 938.473 Q225.284 941.35 225.284 947.143 Q225.284 952.917 226.751 955.813 Q228.237 958.691 231.171 958.691 Q234.124 958.691 235.591 955.813 Q237.076 952.917 237.076 947.143 Q237.076 941.35 235.591 938.473 Q234.124 935.576 231.171 935.576 M231.171 932.567 Q235.891 932.567 238.374 936.31 Q240.876 940.034 240.876 947.143 Q240.876 954.234 238.374 957.976 Q235.891 961.7 231.171 961.7 Q226.45 961.7 223.949 957.976 Q221.466 954.234 221.466 947.143 Q221.466 940.034 223.949 936.31 Q226.45 932.567 231.171 932.567 Z" fill="#000000" fill-rule="evenodd" fill-opacity="1" /><path clip-path="url(#clip610)" d="M170.17 137.028 L177.809 137.028 L177.809 110.663 L169.499 112.329 L169.499 108.07 L177.762 106.403 L182.438 106.403 L182.438 137.028 L190.077 137.028 L190.077 140.963 L170.17 140.963 L170.17 137.028 Z" fill="#000000" fill-rule="evenodd" fill-opacity="1" /><path clip-path="url(#clip610)" d="M209.522 109.482 Q205.91 109.482 204.082 113.047 Q202.276 116.588 202.276 123.718 Q202.276 130.824 204.082 134.389 Q205.91 137.931 209.522 137.931 Q213.156 137.931 214.961 134.389 Q216.79 130.824 216.79 123.718 Q216.79 116.588 214.961 113.047 Q213.156 109.482 209.522 109.482 M209.522 105.778 Q215.332 105.778 218.387 110.385 Q221.466 114.968 221.466 123.718 Q221.466 132.445 218.387 137.051 Q215.332 141.635 209.522 141.635 Q203.711 141.635 200.633 137.051 Q197.577 132.445 197.577 123.718 Q197.577 114.968 200.633 110.385 Q203.711 105.778 209.522 105.778 Z" fill="#000000" fill-rule="evenodd" fill-opacity="1" /><path clip-path="url(#clip610)" d="M231.171 87.9743 Q228.237 87.9743 226.751 90.8707 Q225.284 93.7483 225.284 99.5411 Q225.284 105.315 226.751 108.211 Q228.237 111.089 231.171 111.089 Q234.124 111.089 235.591 108.211 Q237.076 105.315 237.076 99.5411 Q237.076 93.7483 235.591 90.8707 Q234.124 87.9743 231.171 87.9743 M231.171 84.9651 Q235.891 84.9651 238.374 88.7078 Q240.876 92.4318 240.876 99.5411 Q240.876 106.632 238.374 110.374 Q235.891 114.098 231.171 114.098 Q226.45 114.098 223.949 110.374 Q221.466 106.632 221.466 99.5411 Q221.466 92.4318 223.949 88.7078 Q226.45 84.9651 231.171 84.9651 Z" fill="#000000" fill-rule="evenodd" fill-opacity="1" /><path clip-path="url(#clip610)" d="M44.7161 781.543 L47.5806 781.543 L47.5806 808.47 Q53.6281 808.088 56.8109 804.841 Q59.9619 801.563 59.9619 795.738 Q59.9619 792.365 59.1344 789.213 Q58.3069 786.031 56.6518 782.911 L62.1899 782.911 Q63.5267 786.062 64.227 789.373 Q64.9272 792.683 64.9272 796.088 Q64.9272 804.618 59.9619 809.616 Q54.9967 814.581 46.5303 814.581 Q37.7774 814.581 32.6531 809.87 Q27.4968 805.128 27.4968 797.107 Q27.4968 789.914 32.1438 785.744 Q36.7589 781.543 44.7161 781.543 M42.9973 787.399 Q38.1912 787.463 35.3266 790.105 Q32.4621 792.715 32.4621 797.043 Q32.4621 801.945 35.2312 804.905 Q38.0002 807.833 43.0292 808.279 L42.9973 787.399 Z" fill="#000000" fill-rule="evenodd" fill-opacity="1" /><path clip-path="url(#clip610)" d="M33.8307 751.274 Q33.2578 752.261 33.0032 753.438 Q32.7167 754.584 32.7167 755.984 Q32.7167 760.95 35.9632 763.623 Q39.1779 766.265 45.2253 766.265 L64.0042 766.265 L64.0042 772.153 L28.3562 772.153 L28.3562 766.265 L33.8944 766.265 Q30.6479 764.419 29.0883 761.459 Q27.4968 758.499 27.4968 754.266 Q27.4968 753.661 27.5923 752.929 Q27.656 752.197 27.8151 751.306 L33.8307 751.274 Z" fill="#000000" fill-rule="evenodd" fill-opacity="1" /><path clip-path="url(#clip610)" d="M33.8307 725.62 Q33.2578 726.607 33.0032 727.784 Q32.7167 728.93 32.7167 730.331 Q32.7167 735.296 35.9632 737.97 Q39.1779 740.611 45.2253 740.611 L64.0042 740.611 L64.0042 746.5 L28.3562 746.5 L28.3562 740.611 L33.8944 740.611 Q30.6479 738.765 29.0883 735.805 Q27.4968 732.845 27.4968 728.612 Q27.4968 728.007 27.5923 727.275 Q27.656 726.543 27.8151 725.652 L33.8307 725.62 Z" fill="#000000" fill-rule="evenodd" fill-opacity="1" /><path clip-path="url(#clip610)" d="M32.4621 707.096 Q32.4621 711.806 36.1542 714.544 Q39.8145 717.281 46.212 717.281 Q52.6095 717.281 56.3017 714.576 Q59.9619 711.838 59.9619 707.096 Q59.9619 702.417 56.2698 699.68 Q52.5777 696.943 46.212 696.943 Q39.8781 696.943 36.186 699.68 Q32.4621 702.417 32.4621 707.096 M27.4968 707.096 Q27.4968 699.457 32.4621 695.097 Q37.4273 690.736 46.212 690.736 Q54.9649 690.736 59.9619 695.097 Q64.9272 699.457 64.9272 707.096 Q64.9272 714.767 59.9619 719.127 Q54.9649 723.456 46.212 723.456 Q37.4273 723.456 32.4621 719.127 Q27.4968 714.767 27.4968 707.096 Z" fill="#000000" fill-rule="evenodd" fill-opacity="1" /><path clip-path="url(#clip610)" d="M33.8307 660.372 Q33.2578 661.358 33.0032 662.536 Q32.7167 663.682 32.7167 665.082 Q32.7167 670.047 35.9632 672.721 Q39.1779 675.363 45.2253 675.363 L64.0042 675.363 L64.0042 681.251 L28.3562 681.251 L28.3562 675.363 L33.8944 675.363 Q30.6479 673.517 29.0883 670.557 Q27.4968 667.597 27.4968 663.363 Q27.4968 662.759 27.5923 662.027 Q27.656 661.295 27.8151 660.403 L33.8307 660.372 Z" fill="#000000" fill-rule="evenodd" fill-opacity="1" /><circle clip-path="url(#clip613)" cx="335.627" cy="128.1" r="14" fill="#009af9" fill-rule="evenodd" fill-opacity="1" stroke="#000000" stroke-opacity="1" stroke-width="3.2"/>
<circle clip-path="url(#clip613)" cx="400.906" cy="139.62" r="14" fill="#009af9" fill-rule="evenodd" fill-opacity="1" stroke="#000000" stroke-opacity="1" stroke-width="3.2"/>
<circle clip-path="url(#clip613)" cx="466.185" cy="189.695" r="14" fill="#009af9" fill-rule="evenodd" fill-opacity="1" stroke="#000000" stroke-opacity="1" stroke-width="3.2"/>
<circle clip-path="url(#clip613)" cx="531.465" cy="227.421" r="14" fill="#009af9" fill-rule="evenodd" fill-opacity="1" stroke="#000000" stroke-opacity="1" stroke-width="3.2"/>
<circle clip-path="url(#clip613)" cx="596.744" cy="269.886" r="14" fill="#009af9" fill-rule="evenodd" fill-opacity="1" stroke="#000000" stroke-opacity="1" stroke-width="3.2"/>
<circle clip-path="url(#clip613)" cx="662.023" cy="341.988" r="14" fill="#009af9" fill-rule="evenodd" fill-opacity="1" stroke="#000000" stroke-opacity="1" stroke-width="3.2"/>
<circle clip-path="url(#clip613)" cx="727.302" cy="385.109" r="14" fill="#009af9" fill-rule="evenodd" fill-opacity="1" stroke="#000000" stroke-opacity="1" stroke-width="3.2"/>
<circle clip-path="url(#clip613)" cx="792.582" cy="397.067" r="14" fill="#009af9" fill-rule="evenodd" fill-opacity="1" stroke="#000000" stroke-opacity="1" stroke-width="3.2"/>
<circle clip-path="url(#clip613)" cx="857.861" cy="464.289" r="14" fill="#009af9" fill-rule="evenodd" fill-opacity="1" stroke="#000000" stroke-opacity="1" stroke-width="3.2"/>
<circle clip-path="url(#clip613)" cx="923.14" cy="514.809" r="14" fill="#009af9" fill-rule="evenodd" fill-opacity="1" stroke="#000000" stroke-opacity="1" stroke-width="3.2"/>
<circle clip-path="url(#clip613)" cx="988.419" cy="557.335" r="14" fill="#009af9" fill-rule="evenodd" fill-opacity="1" stroke="#000000" stroke-opacity="1" stroke-width="3.2"/>
<circle clip-path="url(#clip613)" cx="1053.7" cy="581.29" r="14" fill="#009af9" fill-rule="evenodd" fill-opacity="1" stroke="#000000" stroke-opacity="1" stroke-width="3.2"/>
<circle clip-path="url(#clip613)" cx="1118.98" cy="625.77" r="14" fill="#009af9" fill-rule="evenodd" fill-opacity="1" stroke="#000000" stroke-opacity="1" stroke-width="3.2"/>
<circle clip-path="url(#clip613)" cx="1184.26" cy="659.097" r="14" fill="#009af9" fill-rule="evenodd" fill-opacity="1" stroke="#000000" stroke-opacity="1" stroke-width="3.2"/>
<circle clip-path="url(#clip613)" cx="1249.54" cy="709.832" r="14" fill="#009af9" fill-rule="evenodd" fill-opacity="1" stroke="#000000" stroke-opacity="1" stroke-width="3.2"/>
<circle clip-path="url(#clip613)" cx="1314.82" cy="715.564" r="14" fill="#009af9" fill-rule="evenodd" fill-opacity="1" stroke="#000000" stroke-opacity="1" stroke-width="3.2"/>
<circle clip-path="url(#clip613)" cx="1380.09" cy="679.218" r="14" fill="#009af9" fill-rule="evenodd" fill-opacity="1" stroke="#000000" stroke-opacity="1" stroke-width="3.2"/>
<circle clip-path="url(#clip613)" cx="1445.37" cy="636.688" r="14" fill="#009af9" fill-rule="evenodd" fill-opacity="1" stroke="#000000" stroke-opacity="1" stroke-width="3.2"/>
<circle clip-path="url(#clip613)" cx="1510.65" cy="594.362" r="14" fill="#009af9" fill-rule="evenodd" fill-opacity="1" stroke="#000000" stroke-opacity="1" stroke-width="3.2"/>
<circle clip-path="url(#clip613)" cx="1575.93" cy="551.982" r="14" fill="#009af9" fill-rule="evenodd" fill-opacity="1" stroke="#000000" stroke-opacity="1" stroke-width="3.2"/>
<circle clip-path="url(#clip613)" cx="1641.21" cy="509.602" r="14" fill="#009af9" fill-rule="evenodd" fill-opacity="1" stroke="#000000" stroke-opacity="1" stroke-width="3.2"/>
<circle clip-path="url(#clip613)" cx="1706.49" cy="467.222" r="14" fill="#009af9" fill-rule="evenodd" fill-opacity="1" stroke="#000000" stroke-opacity="1" stroke-width="3.2"/>
<circle clip-path="url(#clip613)" cx="1771.77" cy="424.842" r="14" fill="#009af9" fill-rule="evenodd" fill-opacity="1" stroke="#000000" stroke-opacity="1" stroke-width="3.2"/>
<circle clip-path="url(#clip613)" cx="1837.05" cy="382.461" r="14" fill="#009af9" fill-rule="evenodd" fill-opacity="1" stroke="#000000" stroke-opacity="1" stroke-width="3.2"/>
<circle clip-path="url(#clip613)" cx="1902.33" cy="340.081" r="14" fill="#009af9" fill-rule="evenodd" fill-opacity="1" stroke="#000000" stroke-opacity="1" stroke-width="3.2"/>
<circle clip-path="url(#clip613)" cx="1967.61" cy="297.701" r="14" fill="#009af9" fill-rule="evenodd" fill-opacity="1" stroke="#000000" stroke-opacity="1" stroke-width="3.2"/>
<circle clip-path="url(#clip613)" cx="2032.89" cy="255.321" r="14" fill="#009af9" fill-rule="evenodd" fill-opacity="1" stroke="#000000" stroke-opacity="1" stroke-width="3.2"/>
<circle clip-path="url(#clip613)" cx="2098.17" cy="212.941" r="14" fill="#009af9" fill-rule="evenodd" fill-opacity="1" stroke="#000000" stroke-opacity="1" stroke-width="3.2"/>
<circle clip-path="url(#clip613)" cx="2163.45" cy="170.566" r="14" fill="#009af9" fill-rule="evenodd" fill-opacity="1" stroke="#000000" stroke-opacity="1" stroke-width="3.2"/>
<circle clip-path="url(#clip613)" cx="2228.73" cy="128.229" r="14" fill="#009af9" fill-rule="evenodd" fill-opacity="1" stroke="#000000" stroke-opacity="1" stroke-width="3.2"/>
<circle clip-path="url(#clip613)" cx="2294" cy="86.3138" r="14" fill="#009af9" fill-rule="evenodd" fill-opacity="1" stroke="#000000" stroke-opacity="1" stroke-width="3.2"/>
<polyline clip-path="url(#clip613)" style="stroke:#e26f46; stroke-linecap:butt; stroke-linejoin:round; stroke-width:4; stroke-opacity:1; fill:none" points="
  335.627,1388.64 400.906,1346.26 466.185,1303.88 531.465,1261.5 596.744,1219.12 662.023,1176.74 727.302,1134.36 792.582,1091.98 857.861,1049.6 923.14,1007.22 
  988.419,964.838 1053.7,922.458 1118.98,880.077 1184.26,837.697 1249.54,795.317 1314.82,752.937 1380.09,710.557 1445.37,668.177 1510.65,625.797 1575.93,583.417 
  1641.21,541.037 1706.49,498.657 1771.77,456.276 1837.05,413.896 1902.33,371.516 1967.61,329.136 2032.89,286.756 2098.17,244.376 2163.45,201.996 2228.73,159.616 
  2294,117.236 
  "/>
<polyline clip-path="url(#clip613)" style="stroke:#3da44d; stroke-linecap:butt; stroke-linejoin:round; stroke-width:4; stroke-opacity:1; fill:none" points="
  335.627,117.236 400.906,159.616 466.185,201.996 531.465,244.376 596.744,286.756 662.023,329.136 727.302,371.516 792.582,413.896 857.861,456.276 923.14,498.657 
  988.419,541.037 1053.7,583.417 1118.98,625.797 1184.26,668.177 1249.54,710.557 1314.82,752.937 1380.09,795.317 1445.37,837.697 1510.65,880.077 1575.93,922.458 
  1641.21,964.838 1706.49,1007.22 1771.77,1049.6 1837.05,1091.98 1902.33,1134.36 1967.61,1176.74 2032.89,1219.12 2098.17,1261.5 2163.45,1303.88 2228.73,1346.26 
  2294,1388.64 
  "/>
<path clip-path="url(#clip610)" d="
M1728.21 300.62 L2283.56 300.62 L2283.56 93.2596 L1728.21 93.2596  Z
  " fill="#ffffff" fill-rule="evenodd" fill-opacity="1"/>
<polyline clip-path="url(#clip610)" style="stroke:#000000; stroke-linecap:butt; stroke-linejoin:round; stroke-width:4; stroke-opacity:1; fill:none" points="
  1728.21,300.62 2283.56,300.62 2283.56,93.2596 1728.21,93.2596 1728.21,300.62 
  "/>
<circle clip-path="url(#clip610)" cx="1820.47" cy="145.1" r="23" fill="#009af9" fill-rule="evenodd" fill-opacity="1" stroke="#000000" stroke-opacity="1" stroke-width="5.12"/>
<path clip-path="url(#clip610)" d="M1934.44 146.732 L1934.44 162.38 L1930.19 162.38 L1930.19 146.87 Q1930.19 143.19 1928.75 141.361 Q1927.32 139.532 1924.44 139.532 Q1921 139.532 1919 141.732 Q1917.01 143.931 1917.01 147.727 L1917.01 162.38 L1912.73 162.38 L1912.73 136.454 L1917.01 136.454 L1917.01 140.482 Q1918.54 138.144 1920.6 136.986 Q1922.69 135.829 1925.39 135.829 Q1929.86 135.829 1932.15 138.607 Q1934.44 141.361 1934.44 146.732 Z" fill="#000000" fill-rule="evenodd" fill-opacity="1" /><path clip-path="url(#clip610)" d="M1942.5 152.148 L1942.5 136.454 L1946.76 136.454 L1946.76 151.986 Q1946.76 155.667 1948.19 157.518 Q1949.63 159.347 1952.5 159.347 Q1955.95 159.347 1957.94 157.148 Q1959.95 154.949 1959.95 151.153 L1959.95 136.454 L1964.21 136.454 L1964.21 162.38 L1959.95 162.38 L1959.95 158.398 Q1958.4 160.759 1956.34 161.917 Q1954.31 163.051 1951.6 163.051 Q1947.13 163.051 1944.82 160.273 Q1942.5 157.495 1942.5 152.148 M1953.22 135.829 L1953.22 135.829 Z" fill="#000000" fill-rule="evenodd" fill-opacity="1" /><path clip-path="url(#clip610)" d="M1993.17 141.431 Q1994.77 138.56 1996.99 137.195 Q1999.21 135.829 2002.22 135.829 Q2006.27 135.829 2008.47 138.676 Q2010.67 141.5 2010.67 146.732 L2010.67 162.38 L2006.39 162.38 L2006.39 146.87 Q2006.39 143.144 2005.07 141.338 Q2003.75 139.532 2001.04 139.532 Q1997.73 139.532 1995.81 141.732 Q1993.89 143.931 1993.89 147.727 L1993.89 162.38 L1989.61 162.38 L1989.61 146.87 Q1989.61 143.12 1988.29 141.338 Q1986.97 139.532 1984.21 139.532 Q1980.95 139.532 1979.03 141.755 Q1977.11 143.954 1977.11 147.727 L1977.11 162.38 L1972.82 162.38 L1972.82 136.454 L1977.11 136.454 L1977.11 140.482 Q1978.56 138.097 1980.6 136.963 Q1982.64 135.829 1985.44 135.829 Q1988.26 135.829 1990.23 137.264 Q1992.22 138.699 1993.17 141.431 Z" fill="#000000" fill-rule="evenodd" fill-opacity="1" /><path clip-path="url(#clip610)" d="M2041.34 148.352 L2041.34 150.435 L2021.76 150.435 Q2022.04 154.833 2024.4 157.148 Q2026.78 159.44 2031.02 159.44 Q2033.47 159.44 2035.76 158.838 Q2038.08 158.236 2040.35 157.032 L2040.35 161.06 Q2038.06 162.032 2035.65 162.542 Q2033.24 163.051 2030.76 163.051 Q2024.56 163.051 2020.93 159.44 Q2017.31 155.829 2017.31 149.671 Q2017.31 143.306 2020.74 139.579 Q2024.19 135.829 2030.02 135.829 Q2035.25 135.829 2038.29 139.208 Q2041.34 142.565 2041.34 148.352 M2037.08 147.102 Q2037.04 143.607 2035.12 141.523 Q2033.22 139.44 2030.07 139.44 Q2026.5 139.44 2024.35 141.454 Q2022.22 143.468 2021.9 147.125 L2037.08 147.102 Z" fill="#000000" fill-rule="evenodd" fill-opacity="1" /><path clip-path="url(#clip610)" d="M2063.36 140.435 Q2062.64 140.019 2061.78 139.833 Q2060.95 139.625 2059.93 139.625 Q2056.32 139.625 2054.37 141.986 Q2052.45 144.324 2052.45 148.722 L2052.45 162.38 L2048.17 162.38 L2048.17 136.454 L2052.45 136.454 L2052.45 140.482 Q2053.8 138.12 2055.95 136.986 Q2058.1 135.829 2061.18 135.829 Q2061.62 135.829 2062.15 135.898 Q2062.68 135.945 2063.33 136.06 L2063.36 140.435 Z" fill="#000000" fill-rule="evenodd" fill-opacity="1" /><path clip-path="url(#clip610)" d="M2067.82 136.454 L2072.08 136.454 L2072.08 162.38 L2067.82 162.38 L2067.82 136.454 M2067.82 126.361 L2072.08 126.361 L2072.08 131.755 L2067.82 131.755 L2067.82 126.361 Z" fill="#000000" fill-rule="evenodd" fill-opacity="1" /><path clip-path="url(#clip610)" d="M2099.65 137.449 L2099.65 141.431 Q2097.85 140.435 2096.02 139.949 Q2094.21 139.44 2092.36 139.44 Q2088.22 139.44 2085.93 142.079 Q2083.63 144.694 2083.63 149.44 Q2083.63 154.185 2085.93 156.824 Q2088.22 159.44 2092.36 159.44 Q2094.21 159.44 2096.02 158.954 Q2097.85 158.444 2099.65 157.449 L2099.65 161.384 Q2097.87 162.218 2095.95 162.634 Q2094.05 163.051 2091.9 163.051 Q2086.04 163.051 2082.59 159.37 Q2079.14 155.69 2079.14 149.44 Q2079.14 143.097 2082.62 139.463 Q2086.11 135.829 2092.18 135.829 Q2094.14 135.829 2096.02 136.245 Q2097.89 136.639 2099.65 137.449 Z" fill="#000000" fill-rule="evenodd" fill-opacity="1" /><path clip-path="url(#clip610)" d="M2118.84 149.347 Q2113.68 149.347 2111.69 150.528 Q2109.7 151.708 2109.7 154.556 Q2109.7 156.824 2111.18 158.167 Q2112.68 159.486 2115.25 159.486 Q2118.8 159.486 2120.93 156.986 Q2123.08 154.463 2123.08 150.296 L2123.08 149.347 L2118.84 149.347 M2127.34 147.588 L2127.34 162.38 L2123.08 162.38 L2123.08 158.444 Q2121.62 160.806 2119.44 161.94 Q2117.27 163.051 2114.12 163.051 Q2110.14 163.051 2107.78 160.829 Q2105.44 158.583 2105.44 154.833 Q2105.44 150.458 2108.36 148.236 Q2111.3 146.014 2117.11 146.014 L2123.08 146.014 L2123.08 145.597 Q2123.08 142.657 2121.13 141.06 Q2119.21 139.44 2115.72 139.44 Q2113.49 139.44 2111.39 139.972 Q2109.28 140.505 2107.34 141.569 L2107.34 137.634 Q2109.68 136.732 2111.87 136.292 Q2114.07 135.829 2116.16 135.829 Q2121.78 135.829 2124.56 138.745 Q2127.34 141.662 2127.34 147.588 Z" fill="#000000" fill-rule="evenodd" fill-opacity="1" /><path clip-path="url(#clip610)" d="M2136.11 126.361 L2140.37 126.361 L2140.37 162.38 L2136.11 162.38 L2136.11 126.361 Z" fill="#000000" fill-rule="evenodd" fill-opacity="1" /><path clip-path="url(#clip610)" d="M2181.41 140.389 L2181.41 126.361 L2185.67 126.361 L2185.67 162.38 L2181.41 162.38 L2181.41 158.491 Q2180.07 160.806 2178.01 161.94 Q2175.97 163.051 2173.1 163.051 Q2168.4 163.051 2165.44 159.301 Q2162.5 155.551 2162.5 149.44 Q2162.5 143.329 2165.44 139.579 Q2168.4 135.829 2173.1 135.829 Q2175.97 135.829 2178.01 136.963 Q2180.07 138.074 2181.41 140.389 M2166.9 149.44 Q2166.9 154.139 2168.82 156.824 Q2170.76 159.486 2174.14 159.486 Q2177.52 159.486 2179.47 156.824 Q2181.41 154.139 2181.41 149.44 Q2181.41 144.741 2179.47 142.079 Q2177.52 139.394 2174.14 139.394 Q2170.76 139.394 2168.82 142.079 Q2166.9 144.741 2166.9 149.44 Z" fill="#000000" fill-rule="evenodd" fill-opacity="1" /><path clip-path="url(#clip610)" d="M2194.44 136.454 L2198.7 136.454 L2198.7 162.38 L2194.44 162.38 L2194.44 136.454 M2194.44 126.361 L2198.7 126.361 L2198.7 131.755 L2194.44 131.755 L2194.44 126.361 Z" fill="#000000" fill-rule="evenodd" fill-opacity="1" /><path clip-path="url(#clip610)" d="M2220.74 126.361 L2220.74 129.903 L2216.67 129.903 Q2214.37 129.903 2213.47 130.829 Q2212.59 131.755 2212.59 134.162 L2212.59 136.454 L2219.61 136.454 L2219.61 139.764 L2212.59 139.764 L2212.59 162.38 L2208.31 162.38 L2208.31 139.764 L2204.23 139.764 L2204.23 136.454 L2208.31 136.454 L2208.31 134.648 Q2208.31 130.32 2210.32 128.352 Q2212.34 126.361 2216.71 126.361 L2220.74 126.361 Z" fill="#000000" fill-rule="evenodd" fill-opacity="1" /><path clip-path="url(#clip610)" d="M2237.43 126.361 L2237.43 129.903 L2233.36 129.903 Q2231.06 129.903 2230.16 130.829 Q2229.28 131.755 2229.28 134.162 L2229.28 136.454 L2236.29 136.454 L2236.29 139.764 L2229.28 139.764 L2229.28 162.38 L2225 162.38 L2225 139.764 L2220.92 139.764 L2220.92 136.454 L2225 136.454 L2225 134.648 Q2225 130.32 2227.01 128.352 Q2229.03 126.361 2233.4 126.361 L2237.43 126.361 Z" fill="#000000" fill-rule="evenodd" fill-opacity="1" /><polyline clip-path="url(#clip610)" style="stroke:#e26f46; stroke-linecap:butt; stroke-linejoin:round; stroke-width:4; stroke-opacity:1; fill:none" points="
  1751.27,196.94 1889.67,196.94 
  "/>
<path clip-path="url(#clip610)" d="M1945.9 187.898 Q1945.9 191.248 1944.7 194.574 Q1943.53 197.876 1941.47 200.593 Q1939.41 203.31 1936.79 205.418 Q1934.16 207.526 1931.1 208.697 Q1928.03 209.869 1925.03 209.869 Q1919.71 209.869 1916.22 206.379 Q1912.73 202.889 1912.73 197.057 Q1912.73 192.981 1914.56 188.929 Q1916.39 184.853 1919.29 181.832 Q1922.19 178.787 1926.01 176.89 Q1929.85 174.993 1933.65 174.993 Q1939.04 174.993 1942.45 178.576 Q1945.9 182.136 1945.9 187.898 M1941.61 186.025 Q1941.61 183.448 1940.89 181.504 Q1940.16 179.537 1938.94 178.412 Q1937.75 177.288 1936.32 176.749 Q1934.91 176.187 1933.37 176.187 Q1930.37 176.187 1927.16 178.131 Q1923.95 180.075 1921.56 183.682 Q1920.27 185.65 1919.34 188.015 Q1918.4 190.358 1917.98 192.442 Q1917.56 194.503 1917.37 195.956 Q1917.21 197.408 1917.21 198.415 Q1917.21 203.099 1919.45 205.863 Q1921.7 208.627 1925.31 208.627 Q1928.14 208.627 1930.91 206.964 Q1933.67 205.278 1935.57 202.865 Q1937.26 200.781 1938.5 198.274 Q1939.76 195.768 1940.39 193.473 Q1941.03 191.177 1941.31 189.327 Q1941.61 187.477 1941.61 186.025 Z" fill="#000000" fill-rule="evenodd" fill-opacity="1" /><path clip-path="url(#clip610)" d="M1948.96 196.822 Q1948.96 188.718 1951.98 182.183 Q1953.27 179.443 1955.07 177.147 Q1956.88 174.852 1958.07 173.845 Q1959.27 172.838 1959.59 172.838 Q1960.06 172.838 1960.09 173.306 Q1960.09 173.54 1959.45 174.126 Q1951.72 181.996 1951.75 196.822 Q1951.75 211.696 1959.27 219.261 Q1960.09 220.081 1960.09 220.338 Q1960.09 220.807 1959.59 220.807 Q1959.27 220.807 1958.12 219.847 Q1956.97 218.886 1955.19 216.685 Q1953.41 214.483 1952.12 211.789 Q1948.96 205.254 1948.96 196.822 Z" fill="#000000" fill-rule="evenodd" fill-opacity="1" /><path clip-path="url(#clip610)" d="M1990.91 201.952 Q1990.91 202.139 1990.7 202.865 Q1990.49 203.591 1989.98 204.716 Q1989.49 205.84 1988.81 206.871 Q1988.13 207.878 1987 208.627 Q1985.9 209.353 1984.64 209.353 Q1982.95 209.353 1981.83 208.229 Q1980.7 207.105 1980.7 205.418 Q1980.7 205.184 1980.73 204.95 Q1980.75 204.716 1980.77 204.575 Q1980.8 204.411 1980.87 204.154 Q1980.96 203.872 1980.98 203.755 Q1981.03 203.638 1981.15 203.287 Q1981.29 202.912 1981.34 202.772 Q1984.31 195.183 1984.31 192.021 Q1984.31 188.671 1981.71 188.671 Q1979.39 188.671 1977.1 190.358 Q1976.04 191.201 1975.03 192.7 Q1974.03 194.199 1973.84 194.761 Q1973.63 195.979 1973.32 196.916 Q1973.18 197.572 1972.5 200.125 L1971.45 204.458 L1970.54 208.088 Q1970.35 208.604 1969.83 208.979 Q1969.32 209.353 1968.76 209.353 Q1968.29 209.353 1967.82 209.025 Q1967.38 208.721 1967.38 207.995 Q1967.38 207.62 1967.56 206.941 L1974.52 179.302 L1974.66 178.365 Q1974.66 178.084 1974.54 177.944 Q1974.45 177.78 1973.89 177.663 Q1973.35 177.546 1972.27 177.546 Q1971.83 177.546 1971.61 177.522 Q1971.43 177.499 1971.26 177.382 Q1971.1 177.241 1971.1 176.96 Q1971.1 176.562 1971.26 176.351 Q1971.45 176.117 1971.59 176.07 Q1971.73 176.023 1972.01 176 Q1972.41 175.976 1973.75 175.859 Q1975.08 175.719 1976.23 175.625 Q1977.38 175.531 1977.87 175.531 Q1978.15 175.531 1978.29 175.672 Q1978.45 175.789 1978.48 175.929 L1978.5 176.047 L1974.75 191.295 Q1977.73 187.617 1981.85 187.617 Q1984.52 187.617 1985.95 188.999 Q1987.38 190.358 1987.38 192.747 Q1987.38 195.487 1984.45 203.287 Q1983.58 205.465 1983.58 206.707 Q1983.58 207.526 1983.84 207.901 Q1984.12 208.276 1984.73 208.276 Q1985.67 208.276 1986.49 207.737 Q1987.33 207.175 1987.92 206.262 Q1988.5 205.325 1988.9 204.388 Q1989.32 203.427 1989.63 202.35 Q1989.81 201.764 1989.91 201.624 Q1990.02 201.483 1990.35 201.483 Q1990.91 201.483 1990.91 201.952 Z" fill="#000000" fill-rule="evenodd" fill-opacity="1" /><path clip-path="url(#clip610)" d="M1994.72 220.338 Q1994.72 220.104 1995.33 219.519 Q2003.06 211.649 2003.06 196.822 Q2003.06 181.949 1995.63 174.43 Q1994.72 173.564 1994.72 173.306 Q1994.72 172.838 1995.19 172.838 Q1995.52 172.838 1996.66 173.798 Q1997.84 174.758 1999.59 176.96 Q2001.37 179.162 2002.68 181.855 Q2005.85 188.39 2005.85 196.822 Q2005.85 204.926 2002.82 211.461 Q2001.54 214.202 1999.73 216.497 Q1997.93 218.793 1996.73 219.8 Q1995.54 220.807 1995.19 220.807 Q1994.72 220.807 1994.72 220.338 Z" fill="#000000" fill-rule="evenodd" fill-opacity="1" /><polyline clip-path="url(#clip610)" style="stroke:#3da44d; stroke-linecap:butt; stroke-linejoin:round; stroke-width:4; stroke-opacity:1; fill:none" points="
  1751.27,248.78 1889.67,248.78 
  "/>
<path clip-path="url(#clip610)" d="M1945.9 239.738 Q1945.9 243.088 1944.7 246.414 Q1943.53 249.716 1941.47 252.433 Q1939.41 255.15 1936.79 257.258 Q1934.16 259.366 1931.1 260.537 Q1928.03 261.709 1925.03 261.709 Q1919.71 261.709 1916.22 258.219 Q1912.73 254.729 1912.73 248.897 Q1912.73 244.821 1914.56 240.769 Q1916.39 236.693 1919.29 233.672 Q1922.19 230.627 1926.01 228.73 Q1929.85 226.833 1933.65 226.833 Q1939.04 226.833 1942.45 230.416 Q1945.9 233.976 1945.9 239.738 M1941.61 237.865 Q1941.61 235.288 1940.89 233.344 Q1940.16 231.377 1938.94 230.252 Q1937.75 229.128 1936.32 228.589 Q1934.91 228.027 1933.37 228.027 Q1930.37 228.027 1927.16 229.971 Q1923.95 231.915 1921.56 235.522 Q1920.27 237.49 1919.34 239.855 Q1918.4 242.198 1917.98 244.282 Q1917.56 246.343 1917.37 247.796 Q1917.21 249.248 1917.21 250.255 Q1917.21 254.939 1919.45 257.703 Q1921.7 260.467 1925.31 260.467 Q1928.14 260.467 1930.91 258.804 Q1933.67 257.118 1935.57 254.705 Q1937.26 252.621 1938.5 250.114 Q1939.76 247.608 1940.39 245.313 Q1941.03 243.017 1941.31 241.167 Q1941.61 239.317 1941.61 237.865 Z" fill="#000000" fill-rule="evenodd" fill-opacity="1" /><path clip-path="url(#clip610)" d="M1948.96 248.662 Q1948.96 240.558 1951.98 234.023 Q1953.27 231.283 1955.07 228.987 Q1956.88 226.692 1958.07 225.685 Q1959.27 224.678 1959.59 224.678 Q1960.06 224.678 1960.09 225.146 Q1960.09 225.38 1959.45 225.966 Q1951.72 233.836 1951.75 248.662 Q1951.75 263.536 1959.27 271.101 Q1960.09 271.921 1960.09 272.178 Q1960.09 272.647 1959.59 272.647 Q1959.27 272.647 1958.12 271.687 Q1956.97 270.726 1955.19 268.525 Q1953.41 266.323 1952.12 263.629 Q1948.96 257.094 1948.96 248.662 Z" fill="#000000" fill-rule="evenodd" fill-opacity="1" /><path clip-path="url(#clip610)" d="M1967.38 233.274 L1967.38 231.775 Q1973.14 231.775 1976.11 228.706 Q1976.93 228.706 1977.07 228.894 Q1977.21 229.081 1977.21 229.948 L1977.21 256.86 Q1977.21 258.289 1977.92 258.734 Q1978.62 259.179 1981.69 259.179 L1983.21 259.179 L1983.21 260.655 Q1981.52 260.514 1975.43 260.514 Q1969.34 260.514 1967.68 260.655 L1967.68 259.179 L1969.2 259.179 Q1972.22 259.179 1972.95 258.757 Q1973.68 258.312 1973.68 256.86 L1973.68 232.009 Q1971.17 233.274 1967.38 233.274 Z" fill="#000000" fill-rule="evenodd" fill-opacity="1" /><path clip-path="url(#clip610)" d="M1991.13 271.968 Q1991.13 271.733 1991.31 271.218 L2008.25 225.966 Q2008.25 225.919 2008.36 225.661 Q2008.48 225.404 2008.55 225.24 Q2008.62 225.052 2008.76 224.912 Q2008.93 224.771 2009.11 224.771 Q2009.58 224.771 2009.58 225.357 Q2009.58 225.404 2009.44 225.966 L1992.46 271.265 Q1992.18 272.085 1991.99 272.319 Q1991.83 272.553 1991.55 272.553 Q1991.13 272.553 1991.13 271.968 Z" fill="#000000" fill-rule="evenodd" fill-opacity="1" /><path clip-path="url(#clip610)" d="M2038.41 253.792 Q2038.41 253.979 2038.2 254.705 Q2037.99 255.431 2037.48 256.556 Q2036.99 257.68 2036.31 258.711 Q2035.63 259.718 2034.5 260.467 Q2033.4 261.193 2032.14 261.193 Q2030.45 261.193 2029.33 260.069 Q2028.2 258.945 2028.2 257.258 Q2028.2 257.024 2028.23 256.79 Q2028.25 256.556 2028.27 256.415 Q2028.3 256.251 2028.37 255.994 Q2028.46 255.712 2028.48 255.595 Q2028.53 255.478 2028.65 255.127 Q2028.79 254.752 2028.84 254.612 Q2031.81 247.023 2031.81 243.861 Q2031.81 240.511 2029.21 240.511 Q2026.89 240.511 2024.6 242.198 Q2023.54 243.041 2022.53 244.54 Q2021.53 246.039 2021.34 246.601 Q2021.13 247.819 2020.82 248.756 Q2020.68 249.412 2020 251.965 L2018.95 256.298 L2018.04 259.928 Q2017.85 260.444 2017.33 260.819 Q2016.82 261.193 2016.26 261.193 Q2015.79 261.193 2015.32 260.865 Q2014.88 260.561 2014.88 259.835 Q2014.88 259.46 2015.06 258.781 L2022.02 231.142 L2022.16 230.205 Q2022.16 229.924 2022.04 229.784 Q2021.95 229.62 2021.39 229.503 Q2020.85 229.386 2019.77 229.386 Q2019.33 229.386 2019.11 229.362 Q2018.93 229.339 2018.76 229.222 Q2018.6 229.081 2018.6 228.8 Q2018.6 228.402 2018.76 228.191 Q2018.95 227.957 2019.09 227.91 Q2019.23 227.863 2019.51 227.84 Q2019.91 227.816 2021.25 227.699 Q2022.58 227.559 2023.73 227.465 Q2024.88 227.371 2025.37 227.371 Q2025.65 227.371 2025.79 227.512 Q2025.95 227.629 2025.98 227.769 L2026 227.887 L2022.25 243.135 Q2025.23 239.457 2029.35 239.457 Q2032.02 239.457 2033.45 240.839 Q2034.88 242.198 2034.88 244.587 Q2034.88 247.327 2031.95 255.127 Q2031.08 257.305 2031.08 258.547 Q2031.08 259.366 2031.34 259.741 Q2031.62 260.116 2032.23 260.116 Q2033.17 260.116 2033.99 259.577 Q2034.83 259.015 2035.42 258.102 Q2036 257.165 2036.4 256.228 Q2036.82 255.267 2037.13 254.19 Q2037.31 253.604 2037.41 253.464 Q2037.52 253.323 2037.85 253.323 Q2038.41 253.323 2038.41 253.792 Z" fill="#000000" fill-rule="evenodd" fill-opacity="1" /><path clip-path="url(#clip610)" d="M2042.22 272.178 Q2042.22 271.944 2042.83 271.359 Q2050.56 263.489 2050.56 248.662 Q2050.56 233.789 2043.13 226.27 Q2042.22 225.404 2042.22 225.146 Q2042.22 224.678 2042.69 224.678 Q2043.02 224.678 2044.16 225.638 Q2045.34 226.598 2047.09 228.8 Q2048.87 231.002 2050.18 233.695 Q2053.35 240.23 2053.35 248.662 Q2053.35 256.766 2050.32 263.301 Q2049.04 266.042 2047.23 268.337 Q2045.43 270.633 2044.23 271.64 Q2043.04 272.647 2042.69 272.647 Q2042.22 272.647 2042.22 272.178 Z" fill="#000000" fill-rule="evenodd" fill-opacity="1" /></svg>
