<?xml version="1.0" encoding="utf-8"?>
<svg xmlns="http://www.w3.org/2000/svg" xmlns:xlink="http://www.w3.org/1999/xlink" width="600" height="400" viewBox="0 0 2400 1600">
<defs>
  <clipPath id="clip220">
    <rect x="0" y="0" width="2400" height="1600"/>
  </clipPath>
</defs>
<path clip-path="url(#clip220)" d="
M0 1600 L2400 1600 L2400 0 L0 0  Z
  " fill="#ffffff" fill-rule="evenodd" fill-opacity="1"/>
<defs>
  <clipPath id="clip221">
    <rect x="480" y="0" width="1681" height="1600"/>
  </clipPath>
</defs>
<defs>
  <clipPath id="clip222">
    <rect x="276" y="47" width="2077" height="1381"/>
  </clipPath>
</defs>
<path clip-path="url(#clip220)" d="
M276.876 1427.71 L2352.76 1427.71 L2352.76 47.2441 L276.876 47.2441  Z
  " fill="#ffffff" fill-rule="evenodd" fill-opacity="1"/>
<polyline clip-path="url(#clip222)" style="stroke:#000000; stroke-linecap:butt; stroke-linejoin:round; stroke-width:2; stroke-opacity:0.1; fill:none" points="
  988.419,1427.71 988.419,47.2441 
  "/>
<polyline clip-path="url(#clip222)" style="stroke:#000000; stroke-linecap:butt; stroke-linejoin:round; stroke-width:2; stroke-opacity:0.1; fill:none" points="
  2294,1427.71 2294,47.2441 
  "/>
<polyline clip-path="url(#clip220)" style="stroke:#000000; stroke-linecap:butt; stroke-linejoin:round; stroke-width:4; stroke-opacity:1; fill:none" points="
  276.876,1427.71 2352.76,1427.71 
  "/>
<polyline clip-path="url(#clip220)" style="stroke:#000000; stroke-linecap:butt; stroke-linejoin:round; stroke-width:4; stroke-opacity:1; fill:none" points="
  988.419,1427.71 988.419,1408.81 
  "/>
<polyline clip-path="url(#clip220)" style="stroke:#000000; stroke-linecap:butt; stroke-linejoin:round; stroke-width:4; stroke-opacity:1; fill:none" points="
  2294,1427.71 2294,1408.81 
  "/>
<path clip-path="url(#clip220)" d="M925.783 1505.98 L933.422 1505.98 L933.422 1479.61 L925.112 1481.28 L925.112 1477.02 L933.376 1475.36 L938.051 1475.36 L938.051 1505.98 L945.69 1505.98 L945.69 1509.92 L925.783 1509.92 L925.783 1505.98 Z" fill="#000000" fill-rule="evenodd" fill-opacity="1" /><path clip-path="url(#clip220)" d="M965.135 1478.43 Q961.524 1478.43 959.695 1482 Q957.889 1485.54 957.889 1492.67 Q957.889 1499.78 959.695 1503.34 Q961.524 1506.88 965.135 1506.88 Q968.769 1506.88 970.574 1503.34 Q972.403 1499.78 972.403 1492.67 Q972.403 1485.54 970.574 1482 Q968.769 1478.43 965.135 1478.43 M965.135 1474.73 Q970.945 1474.73 974 1479.34 Q977.079 1483.92 977.079 1492.67 Q977.079 1501.4 974 1506 Q970.945 1510.59 965.135 1510.59 Q959.325 1510.59 956.246 1506 Q953.19 1501.4 953.19 1492.67 Q953.19 1483.92 956.246 1479.34 Q959.325 1474.73 965.135 1474.73 Z" fill="#000000" fill-rule="evenodd" fill-opacity="1" /><path clip-path="url(#clip220)" d="M977.079 1468.83 L1001.19 1468.83 L1001.19 1472.03 L977.079 1472.03 L977.079 1468.83 Z" fill="#000000" fill-rule="evenodd" fill-opacity="1" /><path clip-path="url(#clip220)" d="M1010.05 1479.31 L1016.26 1479.31 L1016.26 1457.89 L1009.5 1459.24 L1009.5 1455.78 L1016.22 1454.43 L1020.02 1454.43 L1020.02 1479.31 L1026.22 1479.31 L1026.22 1482.51 L1010.05 1482.51 L1010.05 1479.31 Z" fill="#000000" fill-rule="evenodd" fill-opacity="1" /><path clip-path="url(#clip220)" d="M1042.02 1456.93 Q1039.09 1456.93 1037.6 1459.82 Q1036.14 1462.7 1036.14 1468.49 Q1036.14 1474.27 1037.6 1477.16 Q1039.09 1480.04 1042.02 1480.04 Q1044.98 1480.04 1046.44 1477.16 Q1047.93 1474.27 1047.93 1468.49 Q1047.93 1462.7 1046.44 1459.82 Q1044.98 1456.93 1042.02 1456.93 M1042.02 1453.92 Q1046.74 1453.92 1049.23 1457.66 Q1051.73 1461.38 1051.73 1468.49 Q1051.73 1475.58 1049.23 1479.33 Q1046.74 1483.05 1042.02 1483.05 Q1037.3 1483.05 1034.8 1479.33 Q1032.32 1475.58 1032.32 1468.49 Q1032.32 1461.38 1034.8 1457.66 Q1037.3 1453.92 1042.02 1453.92 Z" fill="#000000" fill-rule="evenodd" fill-opacity="1" /><path clip-path="url(#clip220)" d="M2258.99 1505.98 L2266.63 1505.98 L2266.63 1479.61 L2258.32 1481.28 L2258.32 1477.02 L2266.58 1475.36 L2271.26 1475.36 L2271.26 1505.98 L2278.89 1505.98 L2278.89 1509.92 L2258.99 1509.92 L2258.99 1505.98 Z" fill="#000000" fill-rule="evenodd" fill-opacity="1" /><path clip-path="url(#clip220)" d="M2298.34 1478.43 Q2294.73 1478.43 2292.9 1482 Q2291.09 1485.54 2291.09 1492.67 Q2291.09 1499.78 2292.9 1503.34 Q2294.73 1506.88 2298.34 1506.88 Q2301.97 1506.88 2303.78 1503.34 Q2305.61 1499.78 2305.61 1492.67 Q2305.61 1485.54 2303.78 1482 Q2301.97 1478.43 2298.34 1478.43 M2298.34 1474.73 Q2304.15 1474.73 2307.2 1479.34 Q2310.28 1483.92 2310.28 1492.67 Q2310.28 1501.4 2307.2 1506 Q2304.15 1510.59 2298.34 1510.59 Q2292.53 1510.59 2289.45 1506 Q2286.39 1501.4 2286.39 1492.67 Q2286.39 1483.92 2289.45 1479.34 Q2292.53 1474.73 2298.34 1474.73 Z" fill="#000000" fill-rule="evenodd" fill-opacity="1" /><path clip-path="url(#clip220)" d="M2319.99 1456.93 Q2317.05 1456.93 2315.57 1459.82 Q2314.1 1462.7 2314.1 1468.49 Q2314.1 1474.27 2315.57 1477.16 Q2317.05 1480.04 2319.99 1480.04 Q2322.94 1480.04 2324.41 1477.16 Q2325.89 1474.27 2325.89 1468.49 Q2325.89 1462.7 2324.41 1459.82 Q2322.94 1456.93 2319.99 1456.93 M2319.99 1453.92 Q2324.71 1453.92 2327.19 1457.66 Q2329.69 1461.38 2329.69 1468.49 Q2329.69 1475.58 2327.19 1479.33 Q2324.71 1483.05 2319.99 1483.05 Q2315.27 1483.05 2312.77 1479.33 Q2310.28 1475.58 2310.28 1468.49 Q2310.28 1461.38 2312.77 1457.66 Q2315.27 1453.92 2319.99 1453.92 Z" fill="#000000" fill-rule="evenodd" fill-opacity="1" /><path clip-path="url(#clip220)" d="M1328.38 1565.26 Q1328.38 1565.52 1328.09 1566.51 Q1327.8 1567.51 1327.09 1569.06 Q1326.41 1570.6 1325.48 1572.02 Q1324.55 1573.41 1323 1574.44 Q1321.49 1575.44 1319.75 1575.44 Q1317.43 1575.44 1315.88 1573.89 Q1314.34 1572.34 1314.34 1570.03 Q1314.34 1569.7 1314.37 1569.38 Q1314.4 1569.06 1314.43 1568.87 Q1314.47 1568.64 1314.56 1568.29 Q1314.69 1567.9 1314.72 1567.74 Q1314.79 1567.58 1314.95 1567.09 Q1315.14 1566.58 1315.21 1566.39 Q1319.3 1555.95 1319.3 1551.6 Q1319.3 1547 1315.72 1547 Q1312.53 1547 1309.38 1549.32 Q1307.93 1550.48 1306.54 1552.54 Q1305.16 1554.6 1304.9 1555.37 Q1304.61 1557.05 1304.19 1558.33 Q1304 1559.24 1303.06 1562.75 L1301.62 1568.7 L1300.36 1573.7 Q1300.1 1574.41 1299.39 1574.92 Q1298.68 1575.44 1297.91 1575.44 Q1297.27 1575.44 1296.62 1574.98 Q1296.01 1574.57 1296.01 1573.57 Q1296.01 1573.05 1296.27 1572.12 L1305.83 1534.12 L1306.03 1532.83 Q1306.03 1532.44 1305.87 1532.25 Q1305.74 1532.02 1304.96 1531.86 Q1304.22 1531.7 1302.74 1531.7 Q1302.13 1531.7 1301.84 1531.67 Q1301.58 1531.64 1301.36 1531.47 Q1301.13 1531.28 1301.13 1530.9 Q1301.13 1530.35 1301.36 1530.06 Q1301.62 1529.74 1301.81 1529.67 Q1302 1529.61 1302.39 1529.57 Q1302.94 1529.54 1304.77 1529.38 Q1306.61 1529.19 1308.19 1529.06 Q1309.76 1528.93 1310.44 1528.93 Q1310.83 1528.93 1311.02 1529.12 Q1311.24 1529.28 1311.28 1529.48 L1311.31 1529.64 L1306.16 1550.6 Q1310.25 1545.55 1315.91 1545.55 Q1319.59 1545.55 1321.55 1547.45 Q1323.52 1549.32 1323.52 1552.6 Q1323.52 1556.37 1319.49 1567.09 Q1318.3 1570.09 1318.3 1571.8 Q1318.3 1572.92 1318.65 1573.44 Q1319.04 1573.95 1319.88 1573.95 Q1321.16 1573.95 1322.29 1573.21 Q1323.45 1572.44 1324.26 1571.18 Q1325.06 1569.9 1325.61 1568.61 Q1326.19 1567.29 1326.61 1565.81 Q1326.86 1565 1326.99 1564.81 Q1327.15 1564.61 1327.61 1564.61 Q1328.38 1564.61 1328.38 1565.26 Z" fill="#000000" fill-rule="evenodd" fill-opacity="1" /><polyline clip-path="url(#clip222)" style="stroke:#000000; stroke-linecap:butt; stroke-linejoin:round; stroke-width:2; stroke-opacity:0.1; fill:none" points="
  276.876,1215.33 2352.76,1215.33 
  "/>
<polyline clip-path="url(#clip222)" style="stroke:#000000; stroke-linecap:butt; stroke-linejoin:round; stroke-width:2; stroke-opacity:0.1; fill:none" points="
  276.876,684.381 2352.76,684.381 
  "/>
<polyline clip-path="url(#clip222)" style="stroke:#000000; stroke-linecap:butt; stroke-linejoin:round; stroke-width:2; stroke-opacity:0.1; fill:none" points="
  276.876,153.434 2352.76,153.434 
  "/>
<polyline clip-path="url(#clip220)" style="stroke:#000000; stroke-linecap:butt; stroke-linejoin:round; stroke-width:4; stroke-opacity:1; fill:none" points="
  276.876,1427.71 276.876,47.2441 
  "/>
<polyline clip-path="url(#clip220)" style="stroke:#000000; stroke-linecap:butt; stroke-linejoin:round; stroke-width:4; stroke-opacity:1; fill:none" points="
  276.876,1215.33 295.773,1215.33 
  "/>
<polyline clip-path="url(#clip220)" style="stroke:#000000; stroke-linecap:butt; stroke-linejoin:round; stroke-width:4; stroke-opacity:1; fill:none" points="
  276.876,684.381 295.773,684.381 
  "/>
<polyline clip-path="url(#clip220)" style="stroke:#000000; stroke-linecap:butt; stroke-linejoin:round; stroke-width:4; stroke-opacity:1; fill:none" points="
  276.876,153.434 295.773,153.434 
  "/>
<path clip-path="url(#clip220)" d="M114.931 1235.12 L122.57 1235.12 L122.57 1208.76 L114.26 1210.42 L114.26 1206.16 L122.524 1204.5 L127.2 1204.5 L127.2 1235.12 L134.839 1235.12 L134.839 1239.06 L114.931 1239.06 L114.931 1235.12 Z" fill="#000000" fill-rule="evenodd" fill-opacity="1" /><path clip-path="url(#clip220)" d="M154.283 1207.58 Q150.672 1207.58 148.843 1211.14 Q147.038 1214.68 147.038 1221.81 Q147.038 1228.92 148.843 1232.48 Q150.672 1236.02 154.283 1236.02 Q157.917 1236.02 159.723 1232.48 Q161.552 1228.92 161.552 1221.81 Q161.552 1214.68 159.723 1211.14 Q157.917 1207.58 154.283 1207.58 M154.283 1203.87 Q160.093 1203.87 163.149 1208.48 Q166.227 1213.06 166.227 1221.81 Q166.227 1230.54 163.149 1235.14 Q160.093 1239.73 154.283 1239.73 Q148.473 1239.73 145.394 1235.14 Q142.339 1230.54 142.339 1221.81 Q142.339 1213.06 145.394 1208.48 Q148.473 1203.87 154.283 1203.87 Z" fill="#000000" fill-rule="evenodd" fill-opacity="1" /><path clip-path="url(#clip220)" d="M166.227 1197.97 L190.339 1197.97 L190.339 1201.17 L166.227 1201.17 L166.227 1197.97 Z" fill="#000000" fill-rule="evenodd" fill-opacity="1" /><path clip-path="url(#clip220)" d="M199.197 1208.45 L205.404 1208.45 L205.404 1187.03 L198.652 1188.38 L198.652 1184.92 L205.366 1183.57 L209.166 1183.57 L209.166 1208.45 L215.372 1208.45 L215.372 1211.65 L199.197 1211.65 L199.197 1208.45 Z" fill="#000000" fill-rule="evenodd" fill-opacity="1" /><path clip-path="url(#clip220)" d="M231.171 1186.07 Q228.237 1186.07 226.751 1188.96 Q225.284 1191.84 225.284 1197.63 Q225.284 1203.41 226.751 1206.3 Q228.237 1209.18 231.171 1209.18 Q234.124 1209.18 235.591 1206.3 Q237.076 1203.41 237.076 1197.63 Q237.076 1191.84 235.591 1188.96 Q234.124 1186.07 231.171 1186.07 M231.171 1183.06 Q235.891 1183.06 238.374 1186.8 Q240.876 1190.53 240.876 1197.63 Q240.876 1204.73 238.374 1208.47 Q235.891 1212.19 231.171 1212.19 Q226.45 1212.19 223.949 1208.47 Q221.466 1204.73 221.466 1197.63 Q221.466 1190.53 223.949 1186.8 Q226.45 1183.06 231.171 1183.06 Z" fill="#000000" fill-rule="evenodd" fill-opacity="1" /><path clip-path="url(#clip220)" d="M140.247 704.174 L147.886 704.174 L147.886 677.808 L139.575 679.475 L139.575 675.216 L147.839 673.549 L152.515 673.549 L152.515 704.174 L160.154 704.174 L160.154 708.109 L140.247 708.109 L140.247 704.174 Z" fill="#000000" fill-rule="evenodd" fill-opacity="1" /><path clip-path="url(#clip220)" d="M179.598 676.628 Q175.987 676.628 174.159 680.193 Q172.353 683.734 172.353 690.864 Q172.353 697.97 174.159 701.535 Q175.987 705.077 179.598 705.077 Q183.233 705.077 185.038 701.535 Q186.867 697.97 186.867 690.864 Q186.867 683.734 185.038 680.193 Q183.233 676.628 179.598 676.628 M179.598 672.924 Q185.409 672.924 188.464 677.53 Q191.543 682.114 191.543 690.864 Q191.543 699.591 188.464 704.197 Q185.409 708.78 179.598 708.78 Q173.788 708.78 170.71 704.197 Q167.654 699.591 167.654 690.864 Q167.654 682.114 170.71 677.53 Q173.788 672.924 179.598 672.924 Z" fill="#000000" fill-rule="evenodd" fill-opacity="1" /><path clip-path="url(#clip220)" d="M191.543 667.025 L215.654 667.025 L215.654 670.223 L191.543 670.223 L191.543 667.025 Z" fill="#000000" fill-rule="evenodd" fill-opacity="1" /><path clip-path="url(#clip220)" d="M223.892 652.619 L238.807 652.619 L238.807 655.816 L227.372 655.816 L227.372 662.7 Q228.199 662.417 229.027 662.286 Q229.854 662.135 230.682 662.135 Q235.384 662.135 238.13 664.712 Q240.876 667.289 240.876 671.69 Q240.876 676.222 238.054 678.743 Q235.233 681.244 230.099 681.244 Q228.331 681.244 226.488 680.943 Q224.663 680.642 222.707 680.04 L222.707 676.222 Q224.4 677.144 226.205 677.595 Q228.011 678.047 230.023 678.047 Q233.277 678.047 235.177 676.335 Q237.076 674.624 237.076 671.69 Q237.076 668.756 235.177 667.044 Q233.277 665.333 230.023 665.333 Q228.5 665.333 226.977 665.671 Q225.472 666.01 223.892 666.724 L223.892 652.619 Z" fill="#000000" fill-rule="evenodd" fill-opacity="1" /><path clip-path="url(#clip220)" d="M170.17 173.226 L177.809 173.226 L177.809 146.86 L169.499 148.527 L169.499 144.268 L177.762 142.601 L182.438 142.601 L182.438 173.226 L190.077 173.226 L190.077 177.161 L170.17 177.161 L170.17 173.226 Z" fill="#000000" fill-rule="evenodd" fill-opacity="1" /><path clip-path="url(#clip220)" d="M209.522 145.68 Q205.91 145.68 204.082 149.245 Q202.276 152.786 202.276 159.916 Q202.276 167.022 204.082 170.587 Q205.91 174.129 209.522 174.129 Q213.156 174.129 214.961 170.587 Q216.79 167.022 216.79 159.916 Q216.79 152.786 214.961 149.245 Q213.156 145.68 209.522 145.68 M209.522 141.976 Q215.332 141.976 218.387 146.583 Q221.466 151.166 221.466 159.916 Q221.466 168.643 218.387 173.249 Q215.332 177.833 209.522 177.833 Q203.711 177.833 200.633 173.249 Q197.577 168.643 197.577 159.916 Q197.577 151.166 200.633 146.583 Q203.711 141.976 209.522 141.976 Z" fill="#000000" fill-rule="evenodd" fill-opacity="1" /><path clip-path="url(#clip220)" d="M231.171 124.172 Q228.237 124.172 226.751 127.069 Q225.284 129.946 225.284 135.739 Q225.284 141.513 226.751 144.409 Q228.237 147.287 231.171 147.287 Q234.124 147.287 235.591 144.409 Q237.076 141.513 237.076 135.739 Q237.076 129.946 235.591 127.069 Q234.124 124.172 231.171 124.172 M231.171 121.163 Q235.891 121.163 238.374 124.906 Q240.876 128.63 240.876 135.739 Q240.876 142.83 238.374 146.572 Q235.891 150.296 231.171 150.296 Q226.45 150.296 223.949 146.572 Q221.466 142.83 221.466 135.739 Q221.466 128.63 223.949 124.906 Q226.45 121.163 231.171 121.163 Z" fill="#000000" fill-rule="evenodd" fill-opacity="1" /><path clip-path="url(#clip220)" d="M44.7161 781.543 L47.5806 781.543 L47.5806 808.47 Q53.6281 808.088 56.8109 804.841 Q59.9619 801.563 59.9619 795.738 Q59.9619 792.365 59.1344 789.213 Q58.3069 786.031 56.6518 782.911 L62.1899 782.911 Q63.5267 786.062 64.227 789.373 Q64.9272 792.683 64.9272 796.088 Q64.9272 804.618 59.9619 809.616 Q54.9967 814.581 46.5303 814.581 Q37.7774 814.581 32.6531 809.87 Q27.4968 805.128 27.4968 797.107 Q27.4968 789.914 32.1438 785.744 Q36.7589 781.543 44.7161 781.543 M42.9973 787.399 Q38.1912 787.463 35.3266 790.105 Q32.4621 792.715 32.4621 797.043 Q32.4621 801.945 35.2312 804.905 Q38.0002 807.833 43.0292 808.279 L42.9973 787.399 Z" fill="#000000" fill-rule="evenodd" fill-opacity="1" /><path clip-path="url(#clip220)" d="M33.8307 751.274 Q33.2578 752.261 33.0032 753.438 Q32.7167 754.584 32.7167 755.984 Q32.7167 760.95 35.9632 763.623 Q39.1779 766.265 45.2253 766.265 L64.0042 766.265 L64.0042 772.153 L28.3562 772.153 L28.3562 766.265 L33.8944 766.265 Q30.6479 764.419 29.0883 761.459 Q27.4968 758.499 27.4968 754.266 Q27.4968 753.661 27.5923 752.929 Q27.656 752.197 27.8151 751.306 L33.8307 751.274 Z" fill="#000000" fill-rule="evenodd" fill-opacity="1" /><path clip-path="url(#clip220)" d="M33.8307 725.62 Q33.2578 726.607 33.0032 727.784 Q32.7167 728.93 32.7167 730.331 Q32.7167 735.296 35.9632 737.97 Q39.1779 740.611 45.2253 740.611 L64.0042 740.611 L64.0042 746.5 L28.3562 746.5 L28.3562 740.611 L33.8944 740.611 Q30.6479 738.765 29.0883 735.805 Q27.4968 732.845 27.4968 728.612 Q27.4968 728.007 27.5923 727.275 Q27.656 726.543 27.8151 725.652 L33.8307 725.62 Z" fill="#000000" fill-rule="evenodd" fill-opacity="1" /><path clip-path="url(#clip220)" d="M32.4621 707.096 Q32.4621 711.806 36.1542 714.544 Q39.8145 717.281 46.212 717.281 Q52.6095 717.281 56.3017 714.576 Q59.9619 711.838 59.9619 707.096 Q59.9619 702.417 56.2698 699.68 Q52.5777 696.943 46.212 696.943 Q39.8781 696.943 36.186 699.68 Q32.4621 702.417 32.4621 707.096 M27.4968 707.096 Q27.4968 699.457 32.4621 695.097 Q37.4273 690.736 46.212 690.736 Q54.9649 690.736 59.9619 695.097 Q64.9272 699.457 64.9272 707.096 Q64.9272 714.767 59.9619 719.127 Q54.9649 723.456 46.212 723.456 Q37.4273 723.456 32.4621 719.127 Q27.4968 714.767 27.4968 707.096 Z" fill="#000000" fill-rule="evenodd" fill-opacity="1" /><path clip-path="url(#clip220)" d="M33.8307 660.372 Q33.2578 661.358 33.0032 662.536 Q32.7167 663.682 32.7167 665.082 Q32.7167 670.047 35.9632 672.721 Q39.1779 675.363 45.2253 675.363 L64.0042 675.363 L64.0042 681.251 L28.3562 681.251 L28.3562 675.363 L33.8944 675.363 Q30.6479 673.517 29.0883 670.557 Q27.4968 667.597 27.4968 663.363 Q27.4968 662.759 27.5923 662.027 Q27.656 661.295 27.8151 660.403 L33.8307 660.372 Z" fill="#000000" fill-rule="evenodd" fill-opacity="1" /><circle clip-path="url(#clip222)" cx="335.627" cy="171.924" r="14" fill="#009af9" fill-rule="evenodd" fill-opacity="1" stroke="#000000" stroke-opacity="1" stroke-width="3.2"/>
<circle clip-path="url(#clip222)" cx="400.906" cy="191.19" r="14" fill="#009af9" fill-rule="evenodd" fill-opacity="1" stroke="#000000" stroke-opacity="1" stroke-width="3.2"/>
<circle clip-path="url(#clip222)" cx="466.185" cy="282.23" r="14" fill="#009af9" fill-rule="evenodd" fill-opacity="1" stroke="#000000" stroke-opacity="1" stroke-width="3.2"/>
<circle clip-path="url(#clip222)" cx="531.465" cy="306.647" r="14" fill="#009af9" fill-rule="evenodd" fill-opacity="1" stroke="#000000" stroke-opacity="1" stroke-width="3.2"/>
<circle clip-path="url(#clip222)" cx="596.744" cy="366.216" r="14" fill="#009af9" fill-rule="evenodd" fill-opacity="1" stroke="#000000" stroke-opacity="1" stroke-width="3.2"/>
<circle clip-path="url(#clip222)" cx="662.023" cy="433.614" r="14" fill="#009af9" fill-rule="evenodd" fill-opacity="1" stroke="#000000" stroke-opacity="1" stroke-width="3.2"/>
<circle clip-path="url(#clip222)" cx="727.302" cy="495.935" r="14" fill="#009af9" fill-rule="evenodd" fill-opacity="1" stroke="#000000" stroke-opacity="1" stroke-width="3.2"/>
<circle clip-path="url(#clip222)" cx="792.582" cy="520.795" r="14" fill="#009af9" fill-rule="evenodd" fill-opacity="1" stroke="#000000" stroke-opacity="1" stroke-width="3.2"/>
<circle clip-path="url(#clip222)" cx="857.861" cy="595.176" r="14" fill="#009af9" fill-rule="evenodd" fill-opacity="1" stroke="#000000" stroke-opacity="1" stroke-width="3.2"/>
<circle clip-path="url(#clip222)" cx="923.14" cy="644.733" r="14" fill="#009af9" fill-rule="evenodd" fill-opacity="1" stroke="#000000" stroke-opacity="1" stroke-width="3.2"/>
<circle clip-path="url(#clip222)" cx="988.419" cy="707.477" r="14" fill="#009af9" fill-rule="evenodd" fill-opacity="1" stroke="#000000" stroke-opacity="1" stroke-width="3.2"/>
<circle clip-path="url(#clip222)" cx="1053.7" cy="737.466" r="14" fill="#009af9" fill-rule="evenodd" fill-opacity="1" stroke="#000000" stroke-opacity="1" stroke-width="3.2"/>
<circle clip-path="url(#clip222)" cx="1118.98" cy="796.648" r="14" fill="#009af9" fill-rule="evenodd" fill-opacity="1" stroke="#000000" stroke-opacity="1" stroke-width="3.2"/>
<circle clip-path="url(#clip222)" cx="1184.26" cy="844.218" r="14" fill="#009af9" fill-rule="evenodd" fill-opacity="1" stroke="#000000" stroke-opacity="1" stroke-width="3.2"/>
<circle clip-path="url(#clip222)" cx="1249.54" cy="896.452" r="14" fill="#009af9" fill-rule="evenodd" fill-opacity="1" stroke="#000000" stroke-opacity="1" stroke-width="3.2"/>
<circle clip-path="url(#clip222)" cx="1314.82" cy="936.248" r="14" fill="#009af9" fill-rule="evenodd" fill-opacity="1" stroke="#000000" stroke-opacity="1" stroke-width="3.2"/>
<circle clip-path="url(#clip222)" cx="1380.09" cy="1033.29" r="14" fill="#009af9" fill-rule="evenodd" fill-opacity="1" stroke="#000000" stroke-opacity="1" stroke-width="3.2"/>
<circle clip-path="url(#clip222)" cx="1445.37" cy="1080.61" r="14" fill="#009af9" fill-rule="evenodd" fill-opacity="1" stroke="#000000" stroke-opacity="1" stroke-width="3.2"/>
<circle clip-path="url(#clip222)" cx="1510.65" cy="1111.66" r="14" fill="#009af9" fill-rule="evenodd" fill-opacity="1" stroke="#000000" stroke-opacity="1" stroke-width="3.2"/>
<circle clip-path="url(#clip222)" cx="1575.93" cy="1182.25" r="14" fill="#009af9" fill-rule="evenodd" fill-opacity="1" stroke="#000000" stroke-opacity="1" stroke-width="3.2"/>
<circle clip-path="url(#clip222)" cx="1641.21" cy="1188.87" r="14" fill="#009af9" fill-rule="evenodd" fill-opacity="1" stroke="#000000" stroke-opacity="1" stroke-width="3.2"/>
<circle clip-path="url(#clip222)" cx="1706.49" cy="1115.65" r="14" fill="#009af9" fill-rule="evenodd" fill-opacity="1" stroke="#000000" stroke-opacity="1" stroke-width="3.2"/>
<circle clip-path="url(#clip222)" cx="1771.77" cy="1008.79" r="14" fill="#009af9" fill-rule="evenodd" fill-opacity="1" stroke="#000000" stroke-opacity="1" stroke-width="3.2"/>
<circle clip-path="url(#clip222)" cx="1837.05" cy="902.612" r="14" fill="#009af9" fill-rule="evenodd" fill-opacity="1" stroke="#000000" stroke-opacity="1" stroke-width="3.2"/>
<circle clip-path="url(#clip222)" cx="1902.33" cy="796.424" r="14" fill="#009af9" fill-rule="evenodd" fill-opacity="1" stroke="#000000" stroke-opacity="1" stroke-width="3.2"/>
<circle clip-path="url(#clip222)" cx="1967.61" cy="690.234" r="14" fill="#009af9" fill-rule="evenodd" fill-opacity="1" stroke="#000000" stroke-opacity="1" stroke-width="3.2"/>
<circle clip-path="url(#clip222)" cx="2032.89" cy="584.045" r="14" fill="#009af9" fill-rule="evenodd" fill-opacity="1" stroke="#000000" stroke-opacity="1" stroke-width="3.2"/>
<circle clip-path="url(#clip222)" cx="2098.17" cy="477.857" r="14" fill="#009af9" fill-rule="evenodd" fill-opacity="1" stroke="#000000" stroke-opacity="1" stroke-width="3.2"/>
<circle clip-path="url(#clip222)" cx="2163.45" cy="371.688" r="14" fill="#009af9" fill-rule="evenodd" fill-opacity="1" stroke="#000000" stroke-opacity="1" stroke-width="3.2"/>
<circle clip-path="url(#clip222)" cx="2228.73" cy="265.706" r="14" fill="#009af9" fill-rule="evenodd" fill-opacity="1" stroke="#000000" stroke-opacity="1" stroke-width="3.2"/>
<circle clip-path="url(#clip222)" cx="2294" cy="161.595" r="14" fill="#009af9" fill-rule="evenodd" fill-opacity="1" stroke="#000000" stroke-opacity="1" stroke-width="3.2"/>
<polyline clip-path="url(#clip222)" style="stroke:#e26f46; stroke-linecap:butt; stroke-linejoin:round; stroke-width:4; stroke-opacity:1; fill:none" points="
  335.627,1746.28 400.906,1693.18 466.185,1640.09 531.465,1586.99 596.744,1533.9 662.023,1480.8 727.302,1427.71 792.582,1374.61 857.861,1321.52 923.14,1268.42 
  988.419,1215.33 1053.7,1162.23 1118.98,1109.14 1184.26,1056.04 1249.54,1002.95 1314.82,949.855 1380.09,896.761 1445.37,843.666 1510.65,790.571 1575.93,737.476 
  1641.21,684.381 1706.49,631.287 1771.77,578.192 1837.05,525.097 1902.33,472.002 1967.61,418.908 2032.89,365.813 2098.17,312.718 2163.45,259.623 2228.73,206.528 
  2294,153.434 
  "/>
<polyline clip-path="url(#clip222)" style="stroke:#3da44d; stroke-linecap:butt; stroke-linejoin:round; stroke-width:4; stroke-opacity:1; fill:none" points="
  335.627,3339.12 400.906,3232.93 466.185,3126.74 531.465,3020.55 596.744,2914.36 662.023,2808.17 727.302,2701.98 792.582,2595.79 857.861,2489.6 923.14,2383.41 
  988.419,2277.22 1053.7,2171.04 1118.98,2064.85 1184.26,1958.66 1249.54,1852.47 1314.82,1746.28 1380.09,1640.09 1445.37,1533.9 1510.65,1427.71 1575.93,1321.52 
  1641.21,1215.33 1706.49,1109.14 1771.77,1002.95 1837.05,896.761 1902.33,790.571 1967.61,684.381 2032.89,578.192 2098.17,472.002 2163.45,365.813 2228.73,259.623 
  2294,153.434 
  "/>
<polyline clip-path="url(#clip222)" style="stroke:#c271d2; stroke-linecap:butt; stroke-linejoin:round; stroke-width:4; stroke-opacity:1; fill:none" points="
  335.627,153.434 400.906,206.528 466.185,259.623 531.465,312.718 596.744,365.813 662.023,418.908 727.302,472.002 792.582,525.097 857.861,578.192 923.14,631.287 
  988.419,684.381 1053.7,737.476 1118.98,790.571 1184.26,843.666 1249.54,896.761 1314.82,949.855 1380.09,1002.95 1445.37,1056.04 1510.65,1109.14 1575.93,1162.23 
  1641.21,1215.33 1706.49,1268.42 1771.77,1321.52 1837.05,1374.61 1902.33,1427.71 1967.61,1480.8 2032.89,1533.9 2098.17,1586.99 2163.45,1640.09 2228.73,1693.18 
  2294,1746.28 
  "/>
<path clip-path="url(#clip220)" d="
M1703.7 394.92 L2283.56 394.92 L2283.56 93.2596 L1703.7 93.2596  Z
  " fill="#ffffff" fill-rule="evenodd" fill-opacity="1"/>
<polyline clip-path="url(#clip220)" style="stroke:#000000; stroke-linecap:butt; stroke-linejoin:round; stroke-width:4; stroke-opacity:1; fill:none" points="
  1703.7,394.92 2283.56,394.92 2283.56,93.2596 1703.7,93.2596 1703.7,394.92 
  "/>
<circle clip-path="url(#clip220)" cx="1795.96" cy="153.592" r="23" fill="#009af9" fill-rule="evenodd" fill-opacity="1" stroke="#000000" stroke-opacity="1" stroke-width="5.12"/>
<path clip-path="url(#clip220)" d="M1909.93 155.224 L1909.93 170.872 L1905.67 170.872 L1905.67 155.362 Q1905.67 151.682 1904.24 149.853 Q1902.8 148.024 1899.93 148.024 Q1896.48 148.024 1894.49 150.224 Q1892.5 152.423 1892.5 156.219 L1892.5 170.872 L1888.22 170.872 L1888.22 144.946 L1892.5 144.946 L1892.5 148.974 Q1894.03 146.636 1896.09 145.478 Q1898.17 144.321 1900.88 144.321 Q1905.35 144.321 1907.64 147.099 Q1909.93 149.853 1909.93 155.224 Z" fill="#000000" fill-rule="evenodd" fill-opacity="1" /><path clip-path="url(#clip220)" d="M1917.99 160.64 L1917.99 144.946 L1922.25 144.946 L1922.25 160.478 Q1922.25 164.159 1923.68 166.011 Q1925.12 167.839 1927.99 167.839 Q1931.44 167.839 1933.43 165.64 Q1935.44 163.441 1935.44 159.645 L1935.44 144.946 L1939.7 144.946 L1939.7 170.872 L1935.44 170.872 L1935.44 166.89 Q1933.89 169.251 1931.83 170.409 Q1929.79 171.543 1927.08 171.543 Q1922.62 171.543 1920.3 168.765 Q1917.99 165.987 1917.99 160.64 M1928.7 144.321 L1928.7 144.321 Z" fill="#000000" fill-rule="evenodd" fill-opacity="1" /><path clip-path="url(#clip220)" d="M1968.66 149.923 Q1970.25 147.052 1972.48 145.687 Q1974.7 144.321 1977.71 144.321 Q1981.76 144.321 1983.96 147.168 Q1986.16 149.992 1986.16 155.224 L1986.16 170.872 L1981.88 170.872 L1981.88 155.362 Q1981.88 151.636 1980.56 149.83 Q1979.24 148.024 1976.53 148.024 Q1973.22 148.024 1971.3 150.224 Q1969.38 152.423 1969.38 156.219 L1969.38 170.872 L1965.09 170.872 L1965.09 155.362 Q1965.09 151.612 1963.77 149.83 Q1962.45 148.024 1959.7 148.024 Q1956.44 148.024 1954.51 150.247 Q1952.59 152.446 1952.59 156.219 L1952.59 170.872 L1948.31 170.872 L1948.31 144.946 L1952.59 144.946 L1952.59 148.974 Q1954.05 146.589 1956.09 145.455 Q1958.13 144.321 1960.93 144.321 Q1963.75 144.321 1965.72 145.756 Q1967.71 147.191 1968.66 149.923 Z" fill="#000000" fill-rule="evenodd" fill-opacity="1" /><path clip-path="url(#clip220)" d="M2016.83 156.844 L2016.83 158.927 L1997.25 158.927 Q1997.52 163.325 1999.88 165.64 Q2002.27 167.932 2006.5 167.932 Q2008.96 167.932 2011.25 167.33 Q2013.56 166.728 2015.83 165.524 L2015.83 169.552 Q2013.54 170.524 2011.13 171.034 Q2008.73 171.543 2006.25 171.543 Q2000.05 171.543 1996.41 167.932 Q1992.8 164.321 1992.8 158.163 Q1992.8 151.798 1996.23 148.071 Q1999.68 144.321 2005.51 144.321 Q2010.74 144.321 2013.77 147.7 Q2016.83 151.057 2016.83 156.844 M2012.57 155.594 Q2012.52 152.099 2010.6 150.015 Q2008.7 147.932 2005.56 147.932 Q2001.99 147.932 1999.84 149.946 Q1997.71 151.96 1997.38 155.617 L2012.57 155.594 Z" fill="#000000" fill-rule="evenodd" fill-opacity="1" /><path clip-path="url(#clip220)" d="M2038.84 148.927 Q2038.12 148.511 2037.27 148.325 Q2036.43 148.117 2035.42 148.117 Q2031.81 148.117 2029.86 150.478 Q2027.94 152.816 2027.94 157.214 L2027.94 170.872 L2023.66 170.872 L2023.66 144.946 L2027.94 144.946 L2027.94 148.974 Q2029.28 146.612 2031.43 145.478 Q2033.59 144.321 2036.67 144.321 Q2037.11 144.321 2037.64 144.39 Q2038.17 144.437 2038.82 144.552 L2038.84 148.927 Z" fill="#000000" fill-rule="evenodd" fill-opacity="1" /><path clip-path="url(#clip220)" d="M2043.31 144.946 L2047.57 144.946 L2047.57 170.872 L2043.31 170.872 L2043.31 144.946 M2043.31 134.853 L2047.57 134.853 L2047.57 140.247 L2043.31 140.247 L2043.31 134.853 Z" fill="#000000" fill-rule="evenodd" fill-opacity="1" /><path clip-path="url(#clip220)" d="M2075.14 145.941 L2075.14 149.923 Q2073.33 148.927 2071.5 148.441 Q2069.7 147.932 2067.85 147.932 Q2063.7 147.932 2061.41 150.571 Q2059.12 153.187 2059.12 157.932 Q2059.12 162.677 2061.41 165.316 Q2063.7 167.932 2067.85 167.932 Q2069.7 167.932 2071.5 167.446 Q2073.33 166.936 2075.14 165.941 L2075.14 169.876 Q2073.36 170.71 2071.43 171.126 Q2069.54 171.543 2067.38 171.543 Q2061.53 171.543 2058.08 167.862 Q2054.63 164.182 2054.63 157.932 Q2054.63 151.589 2058.1 147.955 Q2061.6 144.321 2067.66 144.321 Q2069.63 144.321 2071.5 144.737 Q2073.38 145.131 2075.14 145.941 Z" fill="#000000" fill-rule="evenodd" fill-opacity="1" /><path clip-path="url(#clip220)" d="M2094.33 157.839 Q2089.17 157.839 2087.18 159.02 Q2085.18 160.2 2085.18 163.048 Q2085.18 165.316 2086.67 166.659 Q2088.17 167.978 2090.74 167.978 Q2094.28 167.978 2096.41 165.478 Q2098.56 162.955 2098.56 158.788 L2098.56 157.839 L2094.33 157.839 M2102.82 156.08 L2102.82 170.872 L2098.56 170.872 L2098.56 166.936 Q2097.11 169.298 2094.93 170.432 Q2092.75 171.543 2089.61 171.543 Q2085.62 171.543 2083.26 169.321 Q2080.93 167.075 2080.93 163.325 Q2080.93 158.95 2083.84 156.728 Q2086.78 154.506 2092.59 154.506 L2098.56 154.506 L2098.56 154.089 Q2098.56 151.149 2096.62 149.552 Q2094.7 147.932 2091.2 147.932 Q2088.98 147.932 2086.87 148.464 Q2084.77 148.997 2082.82 150.062 L2082.82 146.126 Q2085.16 145.224 2087.36 144.784 Q2089.56 144.321 2091.64 144.321 Q2097.27 144.321 2100.05 147.237 Q2102.82 150.154 2102.82 156.08 Z" fill="#000000" fill-rule="evenodd" fill-opacity="1" /><path clip-path="url(#clip220)" d="M2111.6 134.853 L2115.86 134.853 L2115.86 170.872 L2111.6 170.872 L2111.6 134.853 Z" fill="#000000" fill-rule="evenodd" fill-opacity="1" /><path clip-path="url(#clip220)" d="M2156.9 148.881 L2156.9 134.853 L2161.16 134.853 L2161.16 170.872 L2156.9 170.872 L2156.9 166.983 Q2155.55 169.298 2153.49 170.432 Q2151.46 171.543 2148.59 171.543 Q2143.89 171.543 2140.93 167.793 Q2137.99 164.043 2137.99 157.932 Q2137.99 151.821 2140.93 148.071 Q2143.89 144.321 2148.59 144.321 Q2151.46 144.321 2153.49 145.455 Q2155.55 146.566 2156.9 148.881 M2142.38 157.932 Q2142.38 162.631 2144.3 165.316 Q2146.25 167.978 2149.63 167.978 Q2153.01 167.978 2154.95 165.316 Q2156.9 162.631 2156.9 157.932 Q2156.9 153.233 2154.95 150.571 Q2153.01 147.886 2149.63 147.886 Q2146.25 147.886 2144.3 150.571 Q2142.38 153.233 2142.38 157.932 Z" fill="#000000" fill-rule="evenodd" fill-opacity="1" /><path clip-path="url(#clip220)" d="M2169.93 144.946 L2174.19 144.946 L2174.19 170.872 L2169.93 170.872 L2169.93 144.946 M2169.93 134.853 L2174.19 134.853 L2174.19 140.247 L2169.93 140.247 L2169.93 134.853 Z" fill="#000000" fill-rule="evenodd" fill-opacity="1" /><path clip-path="url(#clip220)" d="M2196.23 134.853 L2196.23 138.395 L2192.15 138.395 Q2189.86 138.395 2188.96 139.321 Q2188.08 140.247 2188.08 142.654 L2188.08 144.946 L2195.09 144.946 L2195.09 148.256 L2188.08 148.256 L2188.08 170.872 L2183.8 170.872 L2183.8 148.256 L2179.72 148.256 L2179.72 144.946 L2183.8 144.946 L2183.8 143.14 Q2183.8 138.812 2185.81 136.844 Q2187.82 134.853 2192.2 134.853 L2196.23 134.853 Z" fill="#000000" fill-rule="evenodd" fill-opacity="1" /><path clip-path="url(#clip220)" d="M2212.92 134.853 L2212.92 138.395 L2208.84 138.395 Q2206.55 138.395 2205.65 139.321 Q2204.77 140.247 2204.77 142.654 L2204.77 144.946 L2211.78 144.946 L2211.78 148.256 L2204.77 148.256 L2204.77 170.872 L2200.48 170.872 L2200.48 148.256 L2196.41 148.256 L2196.41 144.946 L2200.48 144.946 L2200.48 143.14 Q2200.48 138.812 2202.5 136.844 Q2204.51 134.853 2208.89 134.853 L2212.92 134.853 Z" fill="#000000" fill-rule="evenodd" fill-opacity="1" /><path clip-path="url(#clip220)" d="M2221.11 166.936 L2237.43 166.936 L2237.43 170.872 L2215.48 170.872 L2215.48 166.936 Q2218.15 164.182 2222.73 159.552 Q2227.34 154.899 2228.52 153.557 Q2230.76 151.034 2231.64 149.298 Q2232.54 147.538 2232.54 145.849 Q2232.54 143.094 2230.6 141.358 Q2228.68 139.622 2225.58 139.622 Q2223.38 139.622 2220.92 140.386 Q2218.49 141.15 2215.72 142.7 L2215.72 137.978 Q2218.54 136.844 2220.99 136.265 Q2223.45 135.687 2225.48 135.687 Q2230.86 135.687 2234.05 138.372 Q2237.24 141.057 2237.24 145.548 Q2237.24 147.677 2236.43 149.599 Q2235.65 151.497 2233.54 154.089 Q2232.96 154.761 2229.86 157.978 Q2226.76 161.173 2221.11 166.936 Z" fill="#000000" fill-rule="evenodd" fill-opacity="1" /><polyline clip-path="url(#clip220)" style="stroke:#e26f46; stroke-linecap:butt; stroke-linejoin:round; stroke-width:4; stroke-opacity:1; fill:none" points="
  1726.76,213.924 1865.15,213.924 
  "/>
<path clip-path="url(#clip220)" d="M1921.38 204.882 Q1921.38 208.232 1920.19 211.558 Q1919.02 214.86 1916.96 217.577 Q1914.9 220.294 1912.27 222.402 Q1909.65 224.51 1906.58 225.682 Q1903.51 226.853 1900.51 226.853 Q1895.2 226.853 1891.71 223.363 Q1888.22 219.873 1888.22 214.041 Q1888.22 209.965 1890.05 205.913 Q1891.87 201.837 1894.78 198.816 Q1897.68 195.771 1901.5 193.874 Q1905.34 191.977 1909.13 191.977 Q1914.52 191.977 1917.94 195.56 Q1921.38 199.12 1921.38 204.882 M1917.1 203.009 Q1917.1 200.432 1916.37 198.488 Q1915.65 196.521 1914.43 195.396 Q1913.23 194.272 1911.8 193.733 Q1910.4 193.171 1908.85 193.171 Q1905.86 193.171 1902.65 195.115 Q1899.44 197.059 1897.05 200.666 Q1895.76 202.634 1894.82 205 Q1893.89 207.342 1893.46 209.426 Q1893.04 211.488 1892.86 212.94 Q1892.69 214.392 1892.69 215.399 Q1892.69 220.084 1894.94 222.847 Q1897.19 225.611 1900.8 225.611 Q1903.63 225.611 1906.39 223.948 Q1909.16 222.262 1911.06 219.849 Q1912.74 217.765 1913.98 215.259 Q1915.25 212.752 1915.88 210.457 Q1916.51 208.162 1916.79 206.311 Q1917.1 204.461 1917.1 203.009 Z" fill="#000000" fill-rule="evenodd" fill-opacity="1" /><path clip-path="url(#clip220)" d="M1924.45 213.806 Q1924.45 205.702 1927.47 199.167 Q1928.76 196.427 1930.56 194.131 Q1932.36 191.836 1933.56 190.829 Q1934.75 189.822 1935.08 189.822 Q1935.55 189.822 1935.57 190.29 Q1935.57 190.524 1934.94 191.11 Q1927.21 198.98 1927.23 213.806 Q1927.23 228.68 1934.75 236.245 Q1935.57 237.065 1935.57 237.322 Q1935.57 237.791 1935.08 237.791 Q1934.75 237.791 1933.6 236.831 Q1932.46 235.87 1930.68 233.669 Q1928.9 231.467 1927.61 228.773 Q1924.45 222.238 1924.45 213.806 Z" fill="#000000" fill-rule="evenodd" fill-opacity="1" /><path clip-path="url(#clip220)" d="M1966.4 218.936 Q1966.4 219.123 1966.19 219.849 Q1965.98 220.575 1965.46 221.7 Q1964.97 222.824 1964.29 223.855 Q1963.61 224.862 1962.49 225.611 Q1961.39 226.337 1960.12 226.337 Q1958.44 226.337 1957.31 225.213 Q1956.19 224.089 1956.19 222.402 Q1956.19 222.168 1956.21 221.934 Q1956.24 221.7 1956.26 221.559 Q1956.28 221.395 1956.35 221.138 Q1956.45 220.856 1956.47 220.739 Q1956.52 220.622 1956.63 220.271 Q1956.77 219.896 1956.82 219.756 Q1959.8 212.167 1959.8 209.005 Q1959.8 205.655 1957.2 205.655 Q1954.88 205.655 1952.58 207.342 Q1951.53 208.185 1950.52 209.684 Q1949.51 211.183 1949.33 211.745 Q1949.12 212.963 1948.81 213.9 Q1948.67 214.556 1947.99 217.109 L1946.94 221.442 L1946.02 225.073 Q1945.84 225.588 1945.32 225.963 Q1944.81 226.337 1944.24 226.337 Q1943.78 226.337 1943.31 226.009 Q1942.86 225.705 1942.86 224.979 Q1942.86 224.604 1943.05 223.925 L1950.01 196.286 L1950.15 195.349 Q1950.15 195.068 1950.03 194.928 Q1949.94 194.764 1949.37 194.647 Q1948.83 194.53 1947.76 194.53 Q1947.31 194.53 1947.1 194.506 Q1946.91 194.483 1946.75 194.366 Q1946.59 194.225 1946.59 193.944 Q1946.59 193.546 1946.75 193.335 Q1946.94 193.101 1947.08 193.054 Q1947.22 193.007 1947.5 192.984 Q1947.9 192.96 1949.23 192.843 Q1950.57 192.703 1951.72 192.609 Q1952.86 192.515 1953.35 192.515 Q1953.64 192.515 1953.78 192.656 Q1953.94 192.773 1953.96 192.914 L1953.99 193.031 L1950.24 208.279 Q1953.21 204.601 1957.34 204.601 Q1960.01 204.601 1961.44 205.983 Q1962.86 207.342 1962.86 209.731 Q1962.86 212.471 1959.94 220.271 Q1959.07 222.449 1959.07 223.691 Q1959.07 224.51 1959.33 224.885 Q1959.61 225.26 1960.22 225.26 Q1961.15 225.26 1961.97 224.721 Q1962.82 224.159 1963.4 223.246 Q1963.99 222.309 1964.39 221.372 Q1964.81 220.411 1965.11 219.334 Q1965.3 218.748 1965.39 218.608 Q1965.51 218.467 1965.84 218.467 Q1966.4 218.467 1966.4 218.936 Z" fill="#000000" fill-rule="evenodd" fill-opacity="1" /><path clip-path="url(#clip220)" d="M1970.21 237.322 Q1970.21 237.088 1970.82 236.503 Q1978.55 228.633 1978.55 213.806 Q1978.55 198.933 1971.12 191.414 Q1970.21 190.548 1970.21 190.29 Q1970.21 189.822 1970.68 189.822 Q1971 189.822 1972.15 190.782 Q1973.32 191.742 1975.08 193.944 Q1976.86 196.146 1978.17 198.839 Q1981.33 205.374 1981.33 213.806 Q1981.33 221.911 1978.31 228.445 Q1977.02 231.186 1975.22 233.481 Q1973.42 235.777 1972.22 236.784 Q1971.03 237.791 1970.68 237.791 Q1970.21 237.791 1970.21 237.322 Z" fill="#000000" fill-rule="evenodd" fill-opacity="1" /><polyline clip-path="url(#clip220)" style="stroke:#3da44d; stroke-linecap:butt; stroke-linejoin:round; stroke-width:4; stroke-opacity:1; fill:none" points="
  1726.76,274.256 1865.15,274.256 
  "/>
<path clip-path="url(#clip220)" d="M1921.38 271.63 Q1921.38 274.98 1920.19 278.306 Q1919.02 281.608 1916.96 284.325 Q1914.9 287.042 1912.27 289.15 Q1909.65 291.258 1906.58 292.43 Q1903.51 293.601 1900.51 293.601 Q1895.2 293.601 1891.71 290.111 Q1888.22 286.621 1888.22 280.789 Q1888.22 276.713 1890.05 272.661 Q1891.87 268.586 1894.78 265.564 Q1897.68 262.519 1901.5 260.622 Q1905.34 258.725 1909.13 258.725 Q1914.52 258.725 1917.94 262.308 Q1921.38 265.869 1921.38 271.63 M1917.1 269.757 Q1917.1 267.18 1916.37 265.236 Q1915.65 263.269 1914.43 262.144 Q1913.23 261.02 1911.8 260.481 Q1910.4 259.919 1908.85 259.919 Q1905.86 259.919 1902.65 261.863 Q1899.44 263.807 1897.05 267.414 Q1895.76 269.382 1894.82 271.748 Q1893.89 274.09 1893.46 276.174 Q1893.04 278.236 1892.86 279.688 Q1892.69 281.14 1892.69 282.147 Q1892.69 286.832 1894.94 289.595 Q1897.19 292.359 1900.8 292.359 Q1903.63 292.359 1906.39 290.696 Q1909.16 289.01 1911.06 286.597 Q1912.74 284.513 1913.98 282.007 Q1915.25 279.5 1915.88 277.205 Q1916.51 274.91 1916.79 273.059 Q1917.1 271.209 1917.1 269.757 Z" fill="#000000" fill-rule="evenodd" fill-opacity="1" /><path clip-path="url(#clip220)" d="M1924.45 280.554 Q1924.45 272.45 1927.47 265.915 Q1928.76 263.175 1930.56 260.88 Q1932.36 258.584 1933.56 257.577 Q1934.75 256.57 1935.08 256.57 Q1935.55 256.57 1935.57 257.038 Q1935.57 257.272 1934.94 257.858 Q1927.21 265.728 1927.23 280.554 Q1927.23 295.428 1934.75 302.993 Q1935.57 303.813 1935.57 304.071 Q1935.57 304.539 1935.08 304.539 Q1934.75 304.539 1933.6 303.579 Q1932.46 302.618 1930.68 300.417 Q1928.9 298.215 1927.61 295.521 Q1924.45 288.986 1924.45 280.554 Z" fill="#000000" fill-rule="evenodd" fill-opacity="1" /><path clip-path="url(#clip220)" d="M1966.4 285.684 Q1966.4 285.871 1966.19 286.597 Q1965.98 287.323 1965.46 288.448 Q1964.97 289.572 1964.29 290.603 Q1963.61 291.61 1962.49 292.359 Q1961.39 293.085 1960.12 293.085 Q1958.44 293.085 1957.31 291.961 Q1956.19 290.837 1956.19 289.15 Q1956.19 288.916 1956.21 288.682 Q1956.24 288.448 1956.26 288.307 Q1956.28 288.143 1956.35 287.886 Q1956.45 287.605 1956.47 287.487 Q1956.52 287.37 1956.63 287.019 Q1956.77 286.644 1956.82 286.504 Q1959.8 278.915 1959.8 275.753 Q1959.8 272.403 1957.2 272.403 Q1954.88 272.403 1952.58 274.09 Q1951.53 274.933 1950.52 276.432 Q1949.51 277.931 1949.33 278.493 Q1949.12 279.711 1948.81 280.648 Q1948.67 281.304 1947.99 283.857 L1946.94 288.19 L1946.02 291.821 Q1945.84 292.336 1945.32 292.711 Q1944.81 293.085 1944.24 293.085 Q1943.78 293.085 1943.31 292.757 Q1942.86 292.453 1942.86 291.727 Q1942.86 291.352 1943.05 290.673 L1950.01 263.034 L1950.15 262.097 Q1950.15 261.816 1950.03 261.676 Q1949.94 261.512 1949.37 261.395 Q1948.83 261.278 1947.76 261.278 Q1947.31 261.278 1947.1 261.254 Q1946.91 261.231 1946.75 261.114 Q1946.59 260.973 1946.59 260.692 Q1946.59 260.294 1946.75 260.083 Q1946.94 259.849 1947.08 259.802 Q1947.22 259.755 1947.5 259.732 Q1947.9 259.708 1949.23 259.591 Q1950.57 259.451 1951.72 259.357 Q1952.86 259.263 1953.35 259.263 Q1953.64 259.263 1953.78 259.404 Q1953.94 259.521 1953.96 259.662 L1953.99 259.779 L1950.24 275.027 Q1953.21 271.349 1957.34 271.349 Q1960.01 271.349 1961.44 272.731 Q1962.86 274.09 1962.86 276.479 Q1962.86 279.219 1959.94 287.019 Q1959.07 289.197 1959.07 290.439 Q1959.07 291.258 1959.33 291.633 Q1959.61 292.008 1960.22 292.008 Q1961.15 292.008 1961.97 291.469 Q1962.82 290.907 1963.4 289.994 Q1963.99 289.057 1964.39 288.12 Q1964.81 287.16 1965.11 286.082 Q1965.3 285.497 1965.39 285.356 Q1965.51 285.215 1965.84 285.215 Q1966.4 285.215 1966.4 285.684 Z" fill="#000000" fill-rule="evenodd" fill-opacity="1" /><path clip-path="url(#clip220)" d="M1971.28 266.238 Q1971.28 265.631 1971.33 265.451 Q1971.39 265.271 1971.66 264.992 L1978.1 257.811 Q1981.62 253.843 1981.62 250.383 Q1981.62 248.137 1980.44 246.53 Q1979.28 244.924 1977.13 244.924 Q1975.66 244.924 1974.41 245.825 Q1973.16 246.727 1972.59 248.334 Q1972.69 248.301 1973.03 248.301 Q1973.87 248.301 1974.33 248.826 Q1974.8 249.351 1974.8 250.056 Q1974.8 250.957 1974.21 251.4 Q1973.64 251.826 1973.07 251.826 Q1972.84 251.826 1972.52 251.777 Q1972.23 251.728 1971.75 251.269 Q1971.28 250.793 1971.28 249.957 Q1971.28 247.613 1973.05 245.743 Q1974.84 243.874 1977.56 243.874 Q1980.64 243.874 1982.66 245.711 Q1984.69 247.531 1984.69 250.383 Q1984.69 251.384 1984.38 252.302 Q1984.08 253.203 1983.67 253.909 Q1983.28 254.614 1982.2 255.745 Q1981.12 256.876 1980.25 257.68 Q1979.38 258.483 1977.43 260.188 L1973.87 263.648 L1979.92 263.648 Q1982.87 263.648 1983.1 263.385 Q1983.43 262.91 1983.84 260.401 L1984.69 260.401 L1983.74 266.238 L1971.28 266.238 Z" fill="#000000" fill-rule="evenodd" fill-opacity="1" /><path clip-path="url(#clip220)" d="M1989.68 304.071 Q1989.68 303.836 1990.29 303.251 Q1998.02 295.381 1998.02 280.554 Q1998.02 265.681 1990.59 258.163 Q1989.68 257.296 1989.68 257.038 Q1989.68 256.57 1990.15 256.57 Q1990.47 256.57 1991.62 257.53 Q1992.79 258.49 1994.55 260.692 Q1996.33 262.894 1997.64 265.587 Q2000.8 272.122 2000.8 280.554 Q2000.8 288.659 1997.78 295.193 Q1996.49 297.934 1994.69 300.229 Q1992.89 302.525 1991.69 303.532 Q1990.5 304.539 1990.15 304.539 Q1989.68 304.539 1989.68 304.071 Z" fill="#000000" fill-rule="evenodd" fill-opacity="1" /><polyline clip-path="url(#clip220)" style="stroke:#c271d2; stroke-linecap:butt; stroke-linejoin:round; stroke-width:4; stroke-opacity:1; fill:none" points="
  1726.76,334.588 1865.15,334.588 
  "/>
<path clip-path="url(#clip220)" d="M1921.38 325.546 Q1921.38 328.896 1920.19 332.222 Q1919.02 335.524 1916.96 338.241 Q1914.9 340.958 1912.27 343.066 Q1909.65 345.174 1906.58 346.346 Q1903.51 347.517 1900.51 347.517 Q1895.2 347.517 1891.71 344.027 Q1888.22 340.537 1888.22 334.705 Q1888.22 330.629 1890.05 326.577 Q1891.87 322.502 1894.78 319.48 Q1897.68 316.435 1901.5 314.538 Q1905.34 312.641 1909.13 312.641 Q1914.52 312.641 1917.94 316.224 Q1921.38 319.785 1921.38 325.546 M1917.1 323.673 Q1917.1 321.096 1916.37 319.152 Q1915.65 317.185 1914.43 316.06 Q1913.23 314.936 1911.8 314.397 Q1910.4 313.835 1908.85 313.835 Q1905.86 313.835 1902.65 315.779 Q1899.44 317.723 1897.05 321.33 Q1895.76 323.298 1894.82 325.664 Q1893.89 328.006 1893.46 330.09 Q1893.04 332.152 1892.86 333.604 Q1892.69 335.056 1892.69 336.063 Q1892.69 340.748 1894.94 343.511 Q1897.19 346.275 1900.8 346.275 Q1903.63 346.275 1906.39 344.612 Q1909.16 342.926 1911.06 340.513 Q1912.74 338.429 1913.98 335.923 Q1915.25 333.416 1915.88 331.121 Q1916.51 328.826 1916.79 326.975 Q1917.1 325.125 1917.1 323.673 Z" fill="#000000" fill-rule="evenodd" fill-opacity="1" /><path clip-path="url(#clip220)" d="M1924.45 334.47 Q1924.45 326.366 1927.47 319.831 Q1928.76 317.091 1930.56 314.796 Q1932.36 312.5 1933.56 311.493 Q1934.75 310.486 1935.08 310.486 Q1935.55 310.486 1935.57 310.954 Q1935.57 311.188 1934.94 311.774 Q1927.21 319.644 1927.23 334.47 Q1927.23 349.344 1934.75 356.909 Q1935.57 357.729 1935.57 357.987 Q1935.57 358.455 1935.08 358.455 Q1934.75 358.455 1933.6 357.495 Q1932.46 356.534 1930.68 354.333 Q1928.9 352.131 1927.61 349.437 Q1924.45 342.902 1924.45 334.47 Z" fill="#000000" fill-rule="evenodd" fill-opacity="1" /><path clip-path="url(#clip220)" d="M1942.86 319.082 L1942.86 317.583 Q1948.62 317.583 1951.6 314.514 Q1952.42 314.514 1952.56 314.702 Q1952.7 314.889 1952.7 315.756 L1952.7 342.668 Q1952.7 344.097 1953.4 344.542 Q1954.1 344.987 1957.17 344.987 L1958.7 344.987 L1958.7 346.463 Q1957.01 346.322 1950.92 346.322 Q1944.83 346.322 1943.17 346.463 L1943.17 344.987 L1944.69 344.987 Q1947.71 344.987 1948.44 344.565 Q1949.16 344.12 1949.16 342.668 L1949.16 317.817 Q1946.66 319.082 1942.86 319.082 Z" fill="#000000" fill-rule="evenodd" fill-opacity="1" /><path clip-path="url(#clip220)" d="M1966.61 357.776 Q1966.61 357.542 1966.8 357.026 L1983.73 311.774 Q1983.73 311.727 1983.85 311.47 Q1983.97 311.212 1984.04 311.048 Q1984.11 310.861 1984.25 310.72 Q1984.41 310.58 1984.6 310.58 Q1985.07 310.58 1985.07 311.165 Q1985.07 311.212 1984.93 311.774 L1967.95 357.073 Q1967.67 357.893 1967.48 358.127 Q1967.31 358.361 1967.03 358.361 Q1966.61 358.361 1966.61 357.776 Z" fill="#000000" fill-rule="evenodd" fill-opacity="1" /><path clip-path="url(#clip220)" d="M2013.9 339.6 Q2013.9 339.787 2013.69 340.513 Q2013.48 341.239 2012.96 342.364 Q2012.47 343.488 2011.79 344.519 Q2011.11 345.526 2009.99 346.275 Q2008.89 347.001 2007.62 347.001 Q2005.94 347.001 2004.81 345.877 Q2003.69 344.753 2003.69 343.066 Q2003.69 342.832 2003.71 342.598 Q2003.74 342.364 2003.76 342.223 Q2003.78 342.059 2003.85 341.802 Q2003.95 341.521 2003.97 341.403 Q2004.02 341.286 2004.13 340.935 Q2004.27 340.56 2004.32 340.42 Q2007.3 332.831 2007.3 329.669 Q2007.3 326.319 2004.7 326.319 Q2002.38 326.319 2000.08 328.006 Q1999.03 328.849 1998.02 330.348 Q1997.01 331.847 1996.83 332.409 Q1996.62 333.627 1996.31 334.564 Q1996.17 335.22 1995.49 337.773 L1994.44 342.106 L1993.52 345.737 Q1993.34 346.252 1992.82 346.627 Q1992.31 347.001 1991.74 347.001 Q1991.28 347.001 1990.81 346.673 Q1990.36 346.369 1990.36 345.643 Q1990.36 345.268 1990.55 344.589 L1997.51 316.95 L1997.65 316.014 Q1997.65 315.732 1997.53 315.592 Q1997.44 315.428 1996.87 315.311 Q1996.33 315.194 1995.26 315.194 Q1994.81 315.194 1994.6 315.17 Q1994.41 315.147 1994.25 315.03 Q1994.09 314.889 1994.09 314.608 Q1994.09 314.21 1994.25 313.999 Q1994.44 313.765 1994.58 313.718 Q1994.72 313.671 1995 313.648 Q1995.4 313.624 1996.73 313.507 Q1998.07 313.367 1999.22 313.273 Q2000.36 313.179 2000.85 313.179 Q2001.14 313.179 2001.28 313.32 Q2001.44 313.437 2001.46 313.578 L2001.49 313.695 L1997.74 328.943 Q2000.71 325.265 2004.84 325.265 Q2007.51 325.265 2008.94 326.647 Q2010.36 328.006 2010.36 330.395 Q2010.36 333.135 2007.44 340.935 Q2006.57 343.113 2006.57 344.355 Q2006.57 345.174 2006.83 345.549 Q2007.11 345.924 2007.72 345.924 Q2008.65 345.924 2009.47 345.385 Q2010.32 344.823 2010.9 343.91 Q2011.49 342.973 2011.89 342.036 Q2012.31 341.076 2012.61 339.998 Q2012.8 339.413 2012.89 339.272 Q2013.01 339.131 2013.34 339.131 Q2013.9 339.131 2013.9 339.6 Z" fill="#000000" fill-rule="evenodd" fill-opacity="1" /><path clip-path="url(#clip220)" d="M2017.71 357.987 Q2017.71 357.752 2018.32 357.167 Q2026.05 349.297 2026.05 334.47 Q2026.05 319.597 2018.62 312.079 Q2017.71 311.212 2017.71 310.954 Q2017.71 310.486 2018.18 310.486 Q2018.5 310.486 2019.65 311.446 Q2020.82 312.406 2022.58 314.608 Q2024.36 316.81 2025.67 319.503 Q2028.83 326.038 2028.83 334.47 Q2028.83 342.575 2025.81 349.109 Q2024.52 351.85 2022.72 354.145 Q2020.92 356.441 2019.72 357.448 Q2018.53 358.455 2018.18 358.455 Q2017.71 358.455 2017.71 357.987 Z" fill="#000000" fill-rule="evenodd" fill-opacity="1" /></svg>
