<?xml version="1.0" encoding="utf-8"?>
<svg xmlns="http://www.w3.org/2000/svg" xmlns:xlink="http://www.w3.org/1999/xlink" width="600" height="400" viewBox="0 0 2400 1600">
<defs>
  <clipPath id="clip690">
    <rect x="0" y="0" width="2400" height="1600"/>
  </clipPath>
</defs>
<path clip-path="url(#clip690)" d="
M0 1600 L2400 1600 L2400 0 L0 0  Z
  " fill="#ffffff" fill-rule="evenodd" fill-opacity="1"/>
<defs>
  <clipPath id="clip691">
    <rect x="480" y="0" width="1681" height="1600"/>
  </clipPath>
</defs>
<defs>
  <clipPath id="clip692">
    <rect x="276" y="47" width="2077" height="1381"/>
  </clipPath>
</defs>
<path clip-path="url(#clip690)" d="
M276.876 1427.71 L2352.76 1427.71 L2352.76 47.2441 L276.876 47.2441  Z
  " fill="#ffffff" fill-rule="evenodd" fill-opacity="1"/>
<polyline clip-path="url(#clip692)" style="stroke:#000000; stroke-linecap:butt; stroke-linejoin:round; stroke-width:2; stroke-opacity:0.1; fill:none" points="
  988.419,1427.71 988.419,47.2441 
  "/>
<polyline clip-path="url(#clip692)" style="stroke:#000000; stroke-linecap:butt; stroke-linejoin:round; stroke-width:2; stroke-opacity:0.1; fill:none" points="
  2294,1427.71 2294,47.2441 
  "/>
<polyline clip-path="url(#clip690)" style="stroke:#000000; stroke-linecap:butt; stroke-linejoin:round; stroke-width:4; stroke-opacity:1; fill:none" points="
  276.876,1427.71 2352.76,1427.71 
  "/>
<polyline clip-path="url(#clip690)" style="stroke:#000000; stroke-linecap:butt; stroke-linejoin:round; stroke-width:4; stroke-opacity:1; fill:none" points="
  988.419,1427.71 988.419,1408.81 
  "/>
<polyline clip-path="url(#clip690)" style="stroke:#000000; stroke-linecap:butt; stroke-linejoin:round; stroke-width:4; stroke-opacity:1; fill:none" points="
  2294,1427.71 2294,1408.81 
  "/>
<path clip-path="url(#clip690)" d="M925.783 1505.98 L933.422 1505.98 L933.422 1479.61 L925.112 1481.28 L925.112 1477.02 L933.376 1475.36 L938.051 1475.36 L938.051 1505.98 L945.69 1505.98 L945.69 1509.92 L925.783 1509.92 L925.783 1505.98 Z" fill="#000000" fill-rule="evenodd" fill-opacity="1" /><path clip-path="url(#clip690)" d="M965.135 1478.43 Q961.524 1478.43 959.695 1482 Q957.889 1485.54 957.889 1492.67 Q957.889 1499.78 959.695 1503.34 Q961.524 1506.88 965.135 1506.88 Q968.769 1506.88 970.574 1503.34 Q972.403 1499.78 972.403 1492.67 Q972.403 1485.54 970.574 1482 Q968.769 1478.43 965.135 1478.43 M965.135 1474.73 Q970.945 1474.73 974 1479.34 Q977.079 1483.92 977.079 1492.67 Q977.079 1501.4 974 1506 Q970.945 1510.59 965.135 1510.59 Q959.325 1510.59 956.246 1506 Q953.19 1501.4 953.19 1492.67 Q953.19 1483.92 956.246 1479.34 Q959.325 1474.73 965.135 1474.73 Z" fill="#000000" fill-rule="evenodd" fill-opacity="1" /><path clip-path="url(#clip690)" d="M977.079 1468.83 L1001.19 1468.83 L1001.19 1472.03 L977.079 1472.03 L977.079 1468.83 Z" fill="#000000" fill-rule="evenodd" fill-opacity="1" /><path clip-path="url(#clip690)" d="M1010.05 1479.31 L1016.26 1479.31 L1016.26 1457.89 L1009.5 1459.24 L1009.5 1455.78 L1016.22 1454.43 L1020.02 1454.43 L1020.02 1479.31 L1026.22 1479.31 L1026.22 1482.51 L1010.05 1482.51 L1010.05 1479.31 Z" fill="#000000" fill-rule="evenodd" fill-opacity="1" /><path clip-path="url(#clip690)" d="M1042.02 1456.93 Q1039.09 1456.93 1037.6 1459.82 Q1036.14 1462.7 1036.14 1468.49 Q1036.14 1474.27 1037.6 1477.16 Q1039.09 1480.04 1042.02 1480.04 Q1044.98 1480.04 1046.44 1477.16 Q1047.93 1474.27 1047.93 1468.49 Q1047.93 1462.7 1046.44 1459.82 Q1044.98 1456.93 1042.02 1456.93 M1042.02 1453.92 Q1046.74 1453.92 1049.23 1457.66 Q1051.73 1461.38 1051.73 1468.49 Q1051.73 1475.58 1049.23 1479.33 Q1046.74 1483.05 1042.02 1483.05 Q1037.3 1483.05 1034.8 1479.33 Q1032.32 1475.58 1032.32 1468.49 Q1032.32 1461.38 1034.8 1457.66 Q1037.3 1453.92 1042.02 1453.92 Z" fill="#000000" fill-rule="evenodd" fill-opacity="1" /><path clip-path="url(#clip690)" d="M2258.99 1505.98 L2266.63 1505.98 L2266.63 1479.61 L2258.32 1481.28 L2258.32 1477.02 L2266.58 1475.36 L2271.26 1475.36 L2271.26 1505.98 L2278.89 1505.98 L2278.89 1509.92 L2258.99 1509.92 L2258.99 1505.98 Z" fill="#000000" fill-rule="evenodd" fill-opacity="1" /><path clip-path="url(#clip690)" d="M2298.34 1478.43 Q2294.73 1478.43 2292.9 1482 Q2291.09 1485.54 2291.09 1492.67 Q2291.09 1499.78 2292.9 1503.34 Q2294.73 1506.88 2298.34 1506.88 Q2301.97 1506.88 2303.78 1503.34 Q2305.61 1499.78 2305.61 1492.67 Q2305.61 1485.54 2303.78 1482 Q2301.97 1478.43 2298.34 1478.43 M2298.34 1474.73 Q2304.15 1474.73 2307.2 1479.34 Q2310.28 1483.92 2310.28 1492.67 Q2310.28 1501.4 2307.2 1506 Q2304.15 1510.59 2298.34 1510.59 Q2292.53 1510.59 2289.45 1506 Q2286.39 1501.4 2286.39 1492.67 Q2286.39 1483.92 2289.45 1479.34 Q2292.53 1474.73 2298.34 1474.73 Z" fill="#000000" fill-rule="evenodd" fill-opacity="1" /><path clip-path="url(#clip690)" d="M2319.99 1456.93 Q2317.05 1456.93 2315.57 1459.82 Q2314.1 1462.7 2314.1 1468.49 Q2314.1 1474.27 2315.57 1477.16 Q2317.05 1480.04 2319.99 1480.04 Q2322.94 1480.04 2324.41 1477.16 Q2325.89 1474.27 2325.89 1468.49 Q2325.89 1462.7 2324.41 1459.82 Q2322.94 1456.93 2319.99 1456.93 M2319.99 1453.92 Q2324.71 1453.92 2327.19 1457.66 Q2329.69 1461.38 2329.69 1468.49 Q2329.69 1475.58 2327.19 1479.33 Q2324.71 1483.05 2319.99 1483.05 Q2315.27 1483.05 2312.77 1479.33 Q2310.28 1475.58 2310.28 1468.49 Q2310.28 1461.38 2312.77 1457.66 Q2315.27 1453.92 2319.99 1453.92 Z" fill="#000000" fill-rule="evenodd" fill-opacity="1" /><path clip-path="url(#clip690)" d="M1328.38 1565.26 Q1328.38 1565.52 1328.09 1566.51 Q1327.8 1567.51 1327.09 1569.06 Q1326.41 1570.6 1325.48 1572.02 Q1324.55 1573.41 1323 1574.44 Q1321.49 1575.44 1319.75 1575.44 Q1317.43 1575.44 1315.88 1573.89 Q1314.34 1572.34 1314.34 1570.03 Q1314.34 1569.7 1314.37 1569.38 Q1314.4 1569.06 1314.43 1568.87 Q1314.47 1568.64 1314.56 1568.29 Q1314.69 1567.9 1314.72 1567.74 Q1314.79 1567.58 1314.95 1567.09 Q1315.14 1566.58 1315.21 1566.39 Q1319.3 1555.95 1319.3 1551.6 Q1319.3 1547 1315.72 1547 Q1312.53 1547 1309.38 1549.32 Q1307.93 1550.48 1306.54 1552.54 Q1305.16 1554.6 1304.9 1555.37 Q1304.61 1557.05 1304.19 1558.33 Q1304 1559.24 1303.06 1562.75 L1301.62 1568.7 L1300.36 1573.7 Q1300.1 1574.41 1299.39 1574.92 Q1298.68 1575.44 1297.91 1575.44 Q1297.27 1575.44 1296.62 1574.98 Q1296.01 1574.57 1296.01 1573.57 Q1296.01 1573.05 1296.27 1572.12 L1305.83 1534.12 L1306.03 1532.83 Q1306.03 1532.44 1305.87 1532.25 Q1305.74 1532.02 1304.96 1531.86 Q1304.22 1531.7 1302.74 1531.7 Q1302.13 1531.7 1301.84 1531.67 Q1301.58 1531.64 1301.36 1531.47 Q1301.13 1531.28 1301.13 1530.9 Q1301.13 1530.35 1301.36 1530.06 Q1301.62 1529.74 1301.81 1529.67 Q1302 1529.61 1302.39 1529.57 Q1302.94 1529.54 1304.77 1529.38 Q1306.61 1529.19 1308.19 1529.06 Q1309.76 1528.93 1310.44 1528.93 Q1310.83 1528.93 1311.02 1529.12 Q1311.24 1529.28 1311.28 1529.48 L1311.31 1529.64 L1306.16 1550.6 Q1310.25 1545.55 1315.91 1545.55 Q1319.59 1545.55 1321.55 1547.45 Q1323.52 1549.32 1323.52 1552.6 Q1323.52 1556.37 1319.49 1567.09 Q1318.3 1570.09 1318.3 1571.8 Q1318.3 1572.92 1318.65 1573.44 Q1319.04 1573.95 1319.88 1573.95 Q1321.16 1573.95 1322.29 1573.21 Q1323.45 1572.44 1324.26 1571.18 Q1325.06 1569.9 1325.61 1568.61 Q1326.19 1567.29 1326.61 1565.81 Q1326.86 1565 1326.99 1564.81 Q1327.15 1564.61 1327.61 1564.61 Q1328.38 1564.61 1328.38 1565.26 Z" fill="#000000" fill-rule="evenodd" fill-opacity="1" /><polyline clip-path="url(#clip692)" style="stroke:#000000; stroke-linecap:butt; stroke-linejoin:round; stroke-width:2; stroke-opacity:0.1; fill:none" points="
  276.876,1215.33 2352.76,1215.33 
  "/>
<polyline clip-path="url(#clip692)" style="stroke:#000000; stroke-linecap:butt; stroke-linejoin:round; stroke-width:2; stroke-opacity:0.1; fill:none" points="
  276.876,684.381 2352.76,684.381 
  "/>
<polyline clip-path="url(#clip692)" style="stroke:#000000; stroke-linecap:butt; stroke-linejoin:round; stroke-width:2; stroke-opacity:0.1; fill:none" points="
  276.876,153.434 2352.76,153.434 
  "/>
<polyline clip-path="url(#clip690)" style="stroke:#000000; stroke-linecap:butt; stroke-linejoin:round; stroke-width:4; stroke-opacity:1; fill:none" points="
  276.876,1427.71 276.876,47.2441 
  "/>
<polyline clip-path="url(#clip690)" style="stroke:#000000; stroke-linecap:butt; stroke-linejoin:round; stroke-width:4; stroke-opacity:1; fill:none" points="
  276.876,1215.33 295.773,1215.33 
  "/>
<polyline clip-path="url(#clip690)" style="stroke:#000000; stroke-linecap:butt; stroke-linejoin:round; stroke-width:4; stroke-opacity:1; fill:none" points="
  276.876,684.381 295.773,684.381 
  "/>
<polyline clip-path="url(#clip690)" style="stroke:#000000; stroke-linecap:butt; stroke-linejoin:round; stroke-width:4; stroke-opacity:1; fill:none" points="
  276.876,153.434 295.773,153.434 
  "/>
<path clip-path="url(#clip690)" d="M114.931 1235.12 L122.57 1235.12 L122.57 1208.76 L114.26 1210.42 L114.26 1206.16 L122.524 1204.5 L127.2 1204.5 L127.2 1235.12 L134.839 1235.12 L134.839 1239.06 L114.931 1239.06 L114.931 1235.12 Z" fill="#000000" fill-rule="evenodd" fill-opacity="1" /><path clip-path="url(#clip690)" d="M154.283 1207.58 Q150.672 1207.58 148.843 1211.14 Q147.038 1214.68 147.038 1221.81 Q147.038 1228.92 148.843 1232.48 Q150.672 1236.02 154.283 1236.02 Q157.917 1236.02 159.723 1232.48 Q161.552 1228.92 161.552 1221.81 Q161.552 1214.68 159.723 1211.14 Q157.917 1207.58 154.283 1207.58 M154.283 1203.87 Q160.093 1203.87 163.149 1208.48 Q166.227 1213.06 166.227 1221.81 Q166.227 1230.54 163.149 1235.14 Q160.093 1239.73 154.283 1239.73 Q148.473 1239.73 145.394 1235.14 Q142.339 1230.54 142.339 1221.81 Q142.339 1213.06 145.394 1208.48 Q148.473 1203.87 154.283 1203.87 Z" fill="#000000" fill-rule="evenodd" fill-opacity="1" /><path clip-path="url(#clip690)" d="M166.227 1197.97 L190.339 1197.97 L190.339 1201.17 L166.227 1201.17 L166.227 1197.97 Z" fill="#000000" fill-rule="evenodd" fill-opacity="1" /><path clip-path="url(#clip690)" d="M199.197 1208.45 L205.404 1208.45 L205.404 1187.03 L198.652 1188.38 L198.652 1184.92 L205.366 1183.57 L209.166 1183.57 L209.166 1208.45 L215.372 1208.45 L215.372 1211.65 L199.197 1211.65 L199.197 1208.45 Z" fill="#000000" fill-rule="evenodd" fill-opacity="1" /><path clip-path="url(#clip690)" d="M231.171 1186.07 Q228.237 1186.07 226.751 1188.96 Q225.284 1191.84 225.284 1197.63 Q225.284 1203.41 226.751 1206.3 Q228.237 1209.18 231.171 1209.18 Q234.124 1209.18 235.591 1206.3 Q237.076 1203.41 237.076 1197.63 Q237.076 1191.84 235.591 1188.96 Q234.124 1186.07 231.171 1186.07 M231.171 1183.06 Q235.891 1183.06 238.374 1186.8 Q240.876 1190.53 240.876 1197.63 Q240.876 1204.73 238.374 1208.47 Q235.891 1212.19 231.171 1212.19 Q226.45 1212.19 223.949 1208.47 Q221.466 1204.73 221.466 1197.63 Q221.466 1190.53 223.949 1186.8 Q226.45 1183.06 231.171 1183.06 Z" fill="#000000" fill-rule="evenodd" fill-opacity="1" /><path clip-path="url(#clip690)" d="M140.247 704.174 L147.886 704.174 L147.886 677.808 L139.575 679.475 L139.575 675.216 L147.839 673.549 L152.515 673.549 L152.515 704.174 L160.154 704.174 L160.154 708.109 L140.247 708.109 L140.247 704.174 Z" fill="#000000" fill-rule="evenodd" fill-opacity="1" /><path clip-path="url(#clip690)" d="M179.598 676.628 Q175.987 676.628 174.159 680.193 Q172.353 683.734 172.353 690.864 Q172.353 697.97 174.159 701.535 Q175.987 705.077 179.598 705.077 Q183.233 705.077 185.038 701.535 Q186.867 697.97 186.867 690.864 Q186.867 683.734 185.038 680.193 Q183.233 676.628 179.598 676.628 M179.598 672.924 Q185.409 672.924 188.464 677.53 Q191.543 682.114 191.543 690.864 Q191.543 699.591 188.464 704.197 Q185.409 708.78 179.598 708.78 Q173.788 708.78 170.71 704.197 Q167.654 699.591 167.654 690.864 Q167.654 682.114 170.71 677.53 Q173.788 672.924 179.598 672.924 Z" fill="#000000" fill-rule="evenodd" fill-opacity="1" /><path clip-path="url(#clip690)" d="M191.543 667.025 L215.654 667.025 L215.654 670.223 L191.543 670.223 L191.543 667.025 Z" fill="#000000" fill-rule="evenodd" fill-opacity="1" /><path clip-path="url(#clip690)" d="M223.892 652.619 L238.807 652.619 L238.807 655.816 L227.372 655.816 L227.372 662.7 Q228.199 662.417 229.027 662.286 Q229.854 662.135 230.682 662.135 Q235.384 662.135 238.13 664.712 Q240.876 667.289 240.876 671.69 Q240.876 676.222 238.054 678.743 Q235.233 681.244 230.099 681.244 Q228.331 681.244 226.488 680.943 Q224.663 680.642 222.707 680.04 L222.707 676.222 Q224.4 677.144 226.205 677.595 Q228.011 678.047 230.023 678.047 Q233.277 678.047 235.177 676.335 Q237.076 674.624 237.076 671.69 Q237.076 668.756 235.177 667.044 Q233.277 665.333 230.023 665.333 Q228.5 665.333 226.977 665.671 Q225.472 666.01 223.892 666.724 L223.892 652.619 Z" fill="#000000" fill-rule="evenodd" fill-opacity="1" /><path clip-path="url(#clip690)" d="M170.17 173.226 L177.809 173.226 L177.809 146.86 L169.499 148.527 L169.499 144.268 L177.762 142.601 L182.438 142.601 L182.438 173.226 L190.077 173.226 L190.077 177.161 L170.17 177.161 L170.17 173.226 Z" fill="#000000" fill-rule="evenodd" fill-opacity="1" /><path clip-path="url(#clip690)" d="M209.522 145.68 Q205.91 145.68 204.082 149.245 Q202.276 152.786 202.276 159.916 Q202.276 167.022 204.082 170.587 Q205.91 174.129 209.522 174.129 Q213.156 174.129 214.961 170.587 Q216.79 167.022 216.79 159.916 Q216.79 152.786 214.961 149.245 Q213.156 145.68 209.522 145.68 M209.522 141.976 Q215.332 141.976 218.387 146.583 Q221.466 151.166 221.466 159.916 Q221.466 168.643 218.387 173.249 Q215.332 177.833 209.522 177.833 Q203.711 177.833 200.633 173.249 Q197.577 168.643 197.577 159.916 Q197.577 151.166 200.633 146.583 Q203.711 141.976 209.522 141.976 Z" fill="#000000" fill-rule="evenodd" fill-opacity="1" /><path clip-path="url(#clip690)" d="M231.171 124.172 Q228.237 124.172 226.751 127.069 Q225.284 129.946 225.284 135.739 Q225.284 141.513 226.751 144.409 Q228.237 147.287 231.171 147.287 Q234.124 147.287 235.591 144.409 Q237.076 141.513 237.076 135.739 Q237.076 129.946 235.591 127.069 Q234.124 124.172 231.171 124.172 M231.171 121.163 Q235.891 121.163 238.374 124.906 Q240.876 128.63 240.876 135.739 Q240.876 142.83 238.374 146.572 Q235.891 150.296 231.171 150.296 Q226.45 150.296 223.949 146.572 Q221.466 142.83 221.466 135.739 Q221.466 128.63 223.949 124.906 Q226.45 121.163 231.171 121.163 Z" fill="#000000" fill-rule="evenodd" fill-opacity="1" /><path clip-path="url(#clip690)" d="M44.7161 781.543 L47.5806 781.543 L47.5806 808.47 Q53.6281 808.088 56.8109 804.841 Q59.9619 801.563 59.9619 795.738 Q59.9619 792.365 59.1344 789.213 Q58.3069 786.031 56.6518 782.911 L62.1899 782.911 Q63.5267 786.062 64.227 789.373 Q64.9272 792.683 64.9272 796.088 Q64.9272 804.618 59.9619 809.616 Q54.9967 814.581 46.5303 814.581 Q37.7774 814.581 32.6531 809.87 Q27.4968 805.128 27.4968 797.107 Q27.4968 789.914 32.1438 785.744 Q36.7589 781.543 44.7161 781.543 M42.9973 787.399 Q38.1912 787.463 35.3266 790.105 Q32.4621 792.715 32.4621 797.043 Q32.4621 801.945 35.2312 804.905 Q38.0002 807.833 43.0292 808.279 L42.9973 787.399 Z" fill="#000000" fill-rule="evenodd" fill-opacity="1" /><path clip-path="url(#clip690)" d="M33.8307 751.274 Q33.2578 752.261 33.0032 753.438 Q32.7167 754.584 32.7167 755.984 Q32.7167 760.95 35.9632 763.623 Q39.1779 766.265 45.2253 766.265 L64.0042 766.265 L64.0042 772.153 L28.3562 772.153 L28.3562 766.265 L33.8944 766.265 Q30.6479 764.419 29.0883 761.459 Q27.4968 758.499 27.4968 754.266 Q27.4968 753.661 27.5923 752.929 Q27.656 752.197 27.8151 751.306 L33.8307 751.274 Z" fill="#000000" fill-rule="evenodd" fill-opacity="1" /><path clip-path="url(#clip690)" d="M33.8307 725.62 Q33.2578 726.607 33.0032 727.784 Q32.7167 728.93 32.7167 730.331 Q32.7167 735.296 35.9632 737.97 Q39.1779 740.611 45.2253 740.611 L64.0042 740.611 L64.0042 746.5 L28.3562 746.5 L28.3562 740.611 L33.8944 740.611 Q30.6479 738.765 29.0883 735.805 Q27.4968 732.845 27.4968 728.612 Q27.4968 728.007 27.5923 727.275 Q27.656 726.543 27.8151 725.652 L33.8307 725.62 Z" fill="#000000" fill-rule="evenodd" fill-opacity="1" /><path clip-path="url(#clip690)" d="M32.4621 707.096 Q32.4621 711.806 36.1542 714.544 Q39.8145 717.281 46.212 717.281 Q52.6095 717.281 56.3017 714.576 Q59.9619 711.838 59.9619 707.096 Q59.9619 702.417 56.2698 699.68 Q52.5777 696.943 46.212 696.943 Q39.8781 696.943 36.186 699.68 Q32.4621 702.417 32.4621 707.096 M27.4968 707.096 Q27.4968 699.457 32.4621 695.097 Q37.4273 690.736 46.212 690.736 Q54.9649 690.736 59.9619 695.097 Q64.9272 699.457 64.9272 707.096 Q64.9272 714.767 59.9619 719.127 Q54.9649 723.456 46.212 723.456 Q37.4273 723.456 32.4621 719.127 Q27.4968 714.767 27.4968 707.096 Z" fill="#000000" fill-rule="evenodd" fill-opacity="1" /><path clip-path="url(#clip690)" d="M33.8307 660.372 Q33.2578 661.358 33.0032 662.536 Q32.7167 663.682 32.7167 665.082 Q32.7167 670.047 35.9632 672.721 Q39.1779 675.363 45.2253 675.363 L64.0042 675.363 L64.0042 681.251 L28.3562 681.251 L28.3562 675.363 L33.8944 675.363 Q30.6479 673.517 29.0883 670.557 Q27.4968 667.597 27.4968 663.363 Q27.4968 662.759 27.5923 662.027 Q27.656 661.295 27.8151 660.403 L33.8307 660.372 Z" fill="#000000" fill-rule="evenodd" fill-opacity="1" /><circle clip-path="url(#clip692)" cx="335.627" cy="76.6547" r="14" fill="#009af9" fill-rule="evenodd" fill-opacity="1" stroke="#000000" stroke-opacity="1" stroke-width="3.2"/>
<circle clip-path="url(#clip692)" cx="400.906" cy="76.6547" r="14" fill="#009af9" fill-rule="evenodd" fill-opacity="1" stroke="#000000" stroke-opacity="1" stroke-width="3.2"/>
<circle clip-path="url(#clip692)" cx="466.185" cy="76.6547" r="14" fill="#009af9" fill-rule="evenodd" fill-opacity="1" stroke="#000000" stroke-opacity="1" stroke-width="3.2"/>
<circle clip-path="url(#clip692)" cx="531.465" cy="76.6547" r="14" fill="#009af9" fill-rule="evenodd" fill-opacity="1" stroke="#000000" stroke-opacity="1" stroke-width="3.2"/>
<circle clip-path="url(#clip692)" cx="596.744" cy="76.6547" r="14" fill="#009af9" fill-rule="evenodd" fill-opacity="1" stroke="#000000" stroke-opacity="1" stroke-width="3.2"/>
<circle clip-path="url(#clip692)" cx="662.023" cy="76.6547" r="14" fill="#009af9" fill-rule="evenodd" fill-opacity="1" stroke="#000000" stroke-opacity="1" stroke-width="3.2"/>
<circle clip-path="url(#clip692)" cx="727.302" cy="76.6547" r="14" fill="#009af9" fill-rule="evenodd" fill-opacity="1" stroke="#000000" stroke-opacity="1" stroke-width="3.2"/>
<circle clip-path="url(#clip692)" cx="792.582" cy="76.6547" r="14" fill="#009af9" fill-rule="evenodd" fill-opacity="1" stroke="#000000" stroke-opacity="1" stroke-width="3.2"/>
<circle clip-path="url(#clip692)" cx="857.861" cy="76.6547" r="14" fill="#009af9" fill-rule="evenodd" fill-opacity="1" stroke="#000000" stroke-opacity="1" stroke-width="3.2"/>
<circle clip-path="url(#clip692)" cx="923.14" cy="68.2485" r="14" fill="#009af9" fill-rule="evenodd" fill-opacity="1" stroke="#000000" stroke-opacity="1" stroke-width="3.2"/>
<circle clip-path="url(#clip692)" cx="988.419" cy="129.574" r="14" fill="#009af9" fill-rule="evenodd" fill-opacity="1" stroke="#000000" stroke-opacity="1" stroke-width="3.2"/>
<circle clip-path="url(#clip692)" cx="1053.7" cy="170.655" r="14" fill="#009af9" fill-rule="evenodd" fill-opacity="1" stroke="#000000" stroke-opacity="1" stroke-width="3.2"/>
<circle clip-path="url(#clip692)" cx="1118.98" cy="230.081" r="14" fill="#009af9" fill-rule="evenodd" fill-opacity="1" stroke="#000000" stroke-opacity="1" stroke-width="3.2"/>
<circle clip-path="url(#clip692)" cx="1184.26" cy="285.918" r="14" fill="#009af9" fill-rule="evenodd" fill-opacity="1" stroke="#000000" stroke-opacity="1" stroke-width="3.2"/>
<circle clip-path="url(#clip692)" cx="1249.54" cy="340.039" r="14" fill="#009af9" fill-rule="evenodd" fill-opacity="1" stroke="#000000" stroke-opacity="1" stroke-width="3.2"/>
<circle clip-path="url(#clip692)" cx="1314.82" cy="390.094" r="14" fill="#009af9" fill-rule="evenodd" fill-opacity="1" stroke="#000000" stroke-opacity="1" stroke-width="3.2"/>
<circle clip-path="url(#clip692)" cx="1380.09" cy="464.389" r="14" fill="#009af9" fill-rule="evenodd" fill-opacity="1" stroke="#000000" stroke-opacity="1" stroke-width="3.2"/>
<circle clip-path="url(#clip692)" cx="1445.37" cy="489.093" r="14" fill="#009af9" fill-rule="evenodd" fill-opacity="1" stroke="#000000" stroke-opacity="1" stroke-width="3.2"/>
<circle clip-path="url(#clip692)" cx="1510.65" cy="559.368" r="14" fill="#009af9" fill-rule="evenodd" fill-opacity="1" stroke="#000000" stroke-opacity="1" stroke-width="3.2"/>
<circle clip-path="url(#clip692)" cx="1575.93" cy="596.204" r="14" fill="#009af9" fill-rule="evenodd" fill-opacity="1" stroke="#000000" stroke-opacity="1" stroke-width="3.2"/>
<circle clip-path="url(#clip692)" cx="1641.21" cy="631.46" r="14" fill="#009af9" fill-rule="evenodd" fill-opacity="1" stroke="#000000" stroke-opacity="1" stroke-width="3.2"/>
<circle clip-path="url(#clip692)" cx="1706.49" cy="591.405" r="14" fill="#009af9" fill-rule="evenodd" fill-opacity="1" stroke="#000000" stroke-opacity="1" stroke-width="3.2"/>
<circle clip-path="url(#clip692)" cx="1771.77" cy="538.769" r="14" fill="#009af9" fill-rule="evenodd" fill-opacity="1" stroke="#000000" stroke-opacity="1" stroke-width="3.2"/>
<circle clip-path="url(#clip692)" cx="1837.05" cy="485.714" r="14" fill="#009af9" fill-rule="evenodd" fill-opacity="1" stroke="#000000" stroke-opacity="1" stroke-width="3.2"/>
<circle clip-path="url(#clip692)" cx="1902.33" cy="432.62" r="14" fill="#009af9" fill-rule="evenodd" fill-opacity="1" stroke="#000000" stroke-opacity="1" stroke-width="3.2"/>
<circle clip-path="url(#clip692)" cx="1967.61" cy="379.525" r="14" fill="#009af9" fill-rule="evenodd" fill-opacity="1" stroke="#000000" stroke-opacity="1" stroke-width="3.2"/>
<circle clip-path="url(#clip692)" cx="2032.89" cy="326.43" r="14" fill="#009af9" fill-rule="evenodd" fill-opacity="1" stroke="#000000" stroke-opacity="1" stroke-width="3.2"/>
<circle clip-path="url(#clip692)" cx="2098.17" cy="273.336" r="14" fill="#009af9" fill-rule="evenodd" fill-opacity="1" stroke="#000000" stroke-opacity="1" stroke-width="3.2"/>
<circle clip-path="url(#clip692)" cx="2163.45" cy="220.247" r="14" fill="#009af9" fill-rule="evenodd" fill-opacity="1" stroke="#000000" stroke-opacity="1" stroke-width="3.2"/>
<circle clip-path="url(#clip692)" cx="2228.73" cy="167.206" r="14" fill="#009af9" fill-rule="evenodd" fill-opacity="1" stroke="#000000" stroke-opacity="1" stroke-width="3.2"/>
<circle clip-path="url(#clip692)" cx="2294" cy="114.694" r="14" fill="#009af9" fill-rule="evenodd" fill-opacity="1" stroke="#000000" stroke-opacity="1" stroke-width="3.2"/>
<circle clip-path="url(#clip692)" cx="335.627" cy="76.6547" r="14" fill="#e26f46" fill-rule="evenodd" fill-opacity="1" stroke="#000000" stroke-opacity="1" stroke-width="3.2"/>
<circle clip-path="url(#clip692)" cx="400.906" cy="76.6547" r="14" fill="#e26f46" fill-rule="evenodd" fill-opacity="1" stroke="#000000" stroke-opacity="1" stroke-width="3.2"/>
<circle clip-path="url(#clip692)" cx="466.185" cy="76.6547" r="14" fill="#e26f46" fill-rule="evenodd" fill-opacity="1" stroke="#000000" stroke-opacity="1" stroke-width="3.2"/>
<circle clip-path="url(#clip692)" cx="531.465" cy="76.6547" r="14" fill="#e26f46" fill-rule="evenodd" fill-opacity="1" stroke="#000000" stroke-opacity="1" stroke-width="3.2"/>
<circle clip-path="url(#clip692)" cx="596.744" cy="76.6547" r="14" fill="#e26f46" fill-rule="evenodd" fill-opacity="1" stroke="#000000" stroke-opacity="1" stroke-width="3.2"/>
<circle clip-path="url(#clip692)" cx="662.023" cy="76.6547" r="14" fill="#e26f46" fill-rule="evenodd" fill-opacity="1" stroke="#000000" stroke-opacity="1" stroke-width="3.2"/>
<circle clip-path="url(#clip692)" cx="727.302" cy="76.6547" r="14" fill="#e26f46" fill-rule="evenodd" fill-opacity="1" stroke="#000000" stroke-opacity="1" stroke-width="3.2"/>
<circle clip-path="url(#clip692)" cx="792.582" cy="76.6547" r="14" fill="#e26f46" fill-rule="evenodd" fill-opacity="1" stroke="#000000" stroke-opacity="1" stroke-width="3.2"/>
<circle clip-path="url(#clip692)" cx="857.861" cy="76.6547" r="14" fill="#e26f46" fill-rule="evenodd" fill-opacity="1" stroke="#000000" stroke-opacity="1" stroke-width="3.2"/>
<circle clip-path="url(#clip692)" cx="923.14" cy="81.2244" r="14" fill="#e26f46" fill-rule="evenodd" fill-opacity="1" stroke="#000000" stroke-opacity="1" stroke-width="3.2"/>
<circle clip-path="url(#clip692)" cx="988.419" cy="139.876" r="14" fill="#e26f46" fill-rule="evenodd" fill-opacity="1" stroke="#000000" stroke-opacity="1" stroke-width="3.2"/>
<circle clip-path="url(#clip692)" cx="1053.7" cy="185.88" r="14" fill="#e26f46" fill-rule="evenodd" fill-opacity="1" stroke="#000000" stroke-opacity="1" stroke-width="3.2"/>
<circle clip-path="url(#clip692)" cx="1118.98" cy="257.821" r="14" fill="#e26f46" fill-rule="evenodd" fill-opacity="1" stroke="#000000" stroke-opacity="1" stroke-width="3.2"/>
<circle clip-path="url(#clip692)" cx="1184.26" cy="302.101" r="14" fill="#e26f46" fill-rule="evenodd" fill-opacity="1" stroke="#000000" stroke-opacity="1" stroke-width="3.2"/>
<circle clip-path="url(#clip692)" cx="1249.54" cy="373.359" r="14" fill="#e26f46" fill-rule="evenodd" fill-opacity="1" stroke="#000000" stroke-opacity="1" stroke-width="3.2"/>
<circle clip-path="url(#clip692)" cx="1314.82" cy="406.852" r="14" fill="#e26f46" fill-rule="evenodd" fill-opacity="1" stroke="#000000" stroke-opacity="1" stroke-width="3.2"/>
<circle clip-path="url(#clip692)" cx="1380.09" cy="486.884" r="14" fill="#e26f46" fill-rule="evenodd" fill-opacity="1" stroke="#000000" stroke-opacity="1" stroke-width="3.2"/>
<circle clip-path="url(#clip692)" cx="1445.37" cy="516.432" r="14" fill="#e26f46" fill-rule="evenodd" fill-opacity="1" stroke="#000000" stroke-opacity="1" stroke-width="3.2"/>
<circle clip-path="url(#clip692)" cx="1510.65" cy="584.967" r="14" fill="#e26f46" fill-rule="evenodd" fill-opacity="1" stroke="#000000" stroke-opacity="1" stroke-width="3.2"/>
<circle clip-path="url(#clip692)" cx="1575.93" cy="606.063" r="14" fill="#e26f46" fill-rule="evenodd" fill-opacity="1" stroke="#000000" stroke-opacity="1" stroke-width="3.2"/>
<circle clip-path="url(#clip692)" cx="1641.21" cy="676.684" r="14" fill="#e26f46" fill-rule="evenodd" fill-opacity="1" stroke="#000000" stroke-opacity="1" stroke-width="3.2"/>
<circle clip-path="url(#clip692)" cx="1706.49" cy="730.409" r="14" fill="#e26f46" fill-rule="evenodd" fill-opacity="1" stroke="#000000" stroke-opacity="1" stroke-width="3.2"/>
<circle clip-path="url(#clip692)" cx="1771.77" cy="791.467" r="14" fill="#e26f46" fill-rule="evenodd" fill-opacity="1" stroke="#000000" stroke-opacity="1" stroke-width="3.2"/>
<circle clip-path="url(#clip692)" cx="1837.05" cy="844.248" r="14" fill="#e26f46" fill-rule="evenodd" fill-opacity="1" stroke="#000000" stroke-opacity="1" stroke-width="3.2"/>
<circle clip-path="url(#clip692)" cx="1902.33" cy="793.089" r="14" fill="#e26f46" fill-rule="evenodd" fill-opacity="1" stroke="#000000" stroke-opacity="1" stroke-width="3.2"/>
<circle clip-path="url(#clip692)" cx="1967.61" cy="690.438" r="14" fill="#e26f46" fill-rule="evenodd" fill-opacity="1" stroke="#000000" stroke-opacity="1" stroke-width="3.2"/>
<circle clip-path="url(#clip692)" cx="2032.89" cy="584.048" r="14" fill="#e26f46" fill-rule="evenodd" fill-opacity="1" stroke="#000000" stroke-opacity="1" stroke-width="3.2"/>
<circle clip-path="url(#clip692)" cx="2098.17" cy="477.857" r="14" fill="#e26f46" fill-rule="evenodd" fill-opacity="1" stroke="#000000" stroke-opacity="1" stroke-width="3.2"/>
<circle clip-path="url(#clip692)" cx="2163.45" cy="371.688" r="14" fill="#e26f46" fill-rule="evenodd" fill-opacity="1" stroke="#000000" stroke-opacity="1" stroke-width="3.2"/>
<circle clip-path="url(#clip692)" cx="2228.73" cy="265.706" r="14" fill="#e26f46" fill-rule="evenodd" fill-opacity="1" stroke="#000000" stroke-opacity="1" stroke-width="3.2"/>
<circle clip-path="url(#clip692)" cx="2294" cy="161.595" r="14" fill="#e26f46" fill-rule="evenodd" fill-opacity="1" stroke="#000000" stroke-opacity="1" stroke-width="3.2"/>
<polyline clip-path="url(#clip692)" style="stroke:#3da44d; stroke-linecap:butt; stroke-linejoin:round; stroke-width:4; stroke-opacity:1; fill:none" points="
  335.627,1746.28 400.906,1693.18 466.185,1640.09 531.465,1586.99 596.744,1533.9 662.023,1480.8 727.302,1427.71 792.582,1374.61 857.861,1321.52 923.14,1268.42 
  988.419,1215.33 1053.7,1162.23 1118.98,1109.14 1184.26,1056.04 1249.54,1002.95 1314.82,949.855 1380.09,896.761 1445.37,843.666 1510.65,790.571 1575.93,737.476 
  1641.21,684.381 1706.49,631.287 1771.77,578.192 1837.05,525.097 1902.33,472.002 1967.61,418.908 2032.89,365.813 2098.17,312.718 2163.45,259.623 2228.73,206.528 
  2294,153.434 
  "/>
<polyline clip-path="url(#clip692)" style="stroke:#c271d2; stroke-linecap:butt; stroke-linejoin:round; stroke-width:4; stroke-opacity:1; fill:none" points="
  335.627,3339.12 400.906,3232.93 466.185,3126.74 531.465,3020.55 596.744,2914.36 662.023,2808.17 727.302,2701.98 792.582,2595.79 857.861,2489.6 923.14,2383.41 
  988.419,2277.22 1053.7,2171.04 1118.98,2064.85 1184.26,1958.66 1249.54,1852.47 1314.82,1746.28 1380.09,1640.09 1445.37,1533.9 1510.65,1427.71 1575.93,1321.52 
  1641.21,1215.33 1706.49,1109.14 1771.77,1002.95 1837.05,896.761 1902.33,790.571 1967.61,684.381 2032.89,578.192 2098.17,472.002 2163.45,365.813 2228.73,259.623 
  2294,153.434 
  "/>
<polyline clip-path="url(#clip692)" style="stroke:#ac8d18; stroke-linecap:butt; stroke-linejoin:round; stroke-width:4; stroke-opacity:1; fill:none" points="
  335.627,153.434 400.906,206.528 466.185,259.623 531.465,312.718 596.744,365.813 662.023,418.908 727.302,472.002 792.582,525.097 857.861,578.192 923.14,631.287 
  988.419,684.381 1053.7,737.476 1118.98,790.571 1184.26,843.666 1249.54,896.761 1314.82,949.855 1380.09,1002.95 1445.37,1056.04 1510.65,1109.14 1575.93,1162.23 
  1641.21,1215.33 1706.49,1268.42 1771.77,1321.52 1837.05,1374.61 1902.33,1427.71 1967.61,1480.8 2032.89,1533.9 2098.17,1586.99 2163.45,1640.09 2228.73,1693.18 
  2294,1746.28 
  "/>
<path clip-path="url(#clip690)" d="
M1703.7 455.252 L2283.56 455.252 L2283.56 93.2596 L1703.7 93.2596  Z
  " fill="#ffffff" fill-rule="evenodd" fill-opacity="1"/>
<polyline clip-path="url(#clip690)" style="stroke:#000000; stroke-linecap:butt; stroke-linejoin:round; stroke-width:4; stroke-opacity:1; fill:none" points="
  1703.7,455.252 2283.56,455.252 2283.56,93.2596 1703.7,93.2596 1703.7,455.252 
  "/>
<circle clip-path="url(#clip690)" cx="1795.96" cy="153.592" r="23" fill="#009af9" fill-rule="evenodd" fill-opacity="1" stroke="#000000" stroke-opacity="1" stroke-width="5.12"/>
<path clip-path="url(#clip690)" d="M1909.93 155.224 L1909.93 170.872 L1905.67 170.872 L1905.67 155.362 Q1905.67 151.682 1904.24 149.853 Q1902.8 148.024 1899.93 148.024 Q1896.48 148.024 1894.49 150.224 Q1892.5 152.423 1892.5 156.219 L1892.5 170.872 L1888.22 170.872 L1888.22 144.946 L1892.5 144.946 L1892.5 148.974 Q1894.03 146.636 1896.09 145.478 Q1898.17 144.321 1900.88 144.321 Q1905.35 144.321 1907.64 147.099 Q1909.93 149.853 1909.93 155.224 Z" fill="#000000" fill-rule="evenodd" fill-opacity="1" /><path clip-path="url(#clip690)" d="M1917.99 160.64 L1917.99 144.946 L1922.25 144.946 L1922.25 160.478 Q1922.25 164.159 1923.68 166.011 Q1925.12 167.839 1927.99 167.839 Q1931.44 167.839 1933.43 165.64 Q1935.44 163.441 1935.44 159.645 L1935.44 144.946 L1939.7 144.946 L1939.7 170.872 L1935.44 170.872 L1935.44 166.89 Q1933.89 169.251 1931.83 170.409 Q1929.79 171.543 1927.08 171.543 Q1922.62 171.543 1920.3 168.765 Q1917.99 165.987 1917.99 160.64 M1928.7 144.321 L1928.7 144.321 Z" fill="#000000" fill-rule="evenodd" fill-opacity="1" /><path clip-path="url(#clip690)" d="M1968.66 149.923 Q1970.25 147.052 1972.48 145.687 Q1974.7 144.321 1977.71 144.321 Q1981.76 144.321 1983.96 147.168 Q1986.16 149.992 1986.16 155.224 L1986.16 170.872 L1981.88 170.872 L1981.88 155.362 Q1981.88 151.636 1980.56 149.83 Q1979.24 148.024 1976.53 148.024 Q1973.22 148.024 1971.3 150.224 Q1969.38 152.423 1969.38 156.219 L1969.38 170.872 L1965.09 170.872 L1965.09 155.362 Q1965.09 151.612 1963.77 149.83 Q1962.45 148.024 1959.7 148.024 Q1956.44 148.024 1954.51 150.247 Q1952.59 152.446 1952.59 156.219 L1952.59 170.872 L1948.31 170.872 L1948.31 144.946 L1952.59 144.946 L1952.59 148.974 Q1954.05 146.589 1956.09 145.455 Q1958.13 144.321 1960.93 144.321 Q1963.75 144.321 1965.72 145.756 Q1967.71 147.191 1968.66 149.923 Z" fill="#000000" fill-rule="evenodd" fill-opacity="1" /><path clip-path="url(#clip690)" d="M2016.83 156.844 L2016.83 158.927 L1997.25 158.927 Q1997.52 163.325 1999.88 165.64 Q2002.27 167.932 2006.5 167.932 Q2008.96 167.932 2011.25 167.33 Q2013.56 166.728 2015.83 165.524 L2015.83 169.552 Q2013.54 170.524 2011.13 171.034 Q2008.73 171.543 2006.25 171.543 Q2000.05 171.543 1996.41 167.932 Q1992.8 164.321 1992.8 158.163 Q1992.8 151.798 1996.23 148.071 Q1999.68 144.321 2005.51 144.321 Q2010.74 144.321 2013.77 147.7 Q2016.83 151.057 2016.83 156.844 M2012.57 155.594 Q2012.52 152.099 2010.6 150.015 Q2008.7 147.932 2005.56 147.932 Q2001.99 147.932 1999.84 149.946 Q1997.71 151.96 1997.38 155.617 L2012.57 155.594 Z" fill="#000000" fill-rule="evenodd" fill-opacity="1" /><path clip-path="url(#clip690)" d="M2038.84 148.927 Q2038.12 148.511 2037.27 148.325 Q2036.43 148.117 2035.42 148.117 Q2031.81 148.117 2029.86 150.478 Q2027.94 152.816 2027.94 157.214 L2027.94 170.872 L2023.66 170.872 L2023.66 144.946 L2027.94 144.946 L2027.94 148.974 Q2029.28 146.612 2031.43 145.478 Q2033.59 144.321 2036.67 144.321 Q2037.11 144.321 2037.64 144.39 Q2038.17 144.437 2038.82 144.552 L2038.84 148.927 Z" fill="#000000" fill-rule="evenodd" fill-opacity="1" /><path clip-path="url(#clip690)" d="M2043.31 144.946 L2047.57 144.946 L2047.57 170.872 L2043.31 170.872 L2043.31 144.946 M2043.31 134.853 L2047.57 134.853 L2047.57 140.247 L2043.31 140.247 L2043.31 134.853 Z" fill="#000000" fill-rule="evenodd" fill-opacity="1" /><path clip-path="url(#clip690)" d="M2075.14 145.941 L2075.14 149.923 Q2073.33 148.927 2071.5 148.441 Q2069.7 147.932 2067.85 147.932 Q2063.7 147.932 2061.41 150.571 Q2059.12 153.187 2059.12 157.932 Q2059.12 162.677 2061.41 165.316 Q2063.7 167.932 2067.85 167.932 Q2069.7 167.932 2071.5 167.446 Q2073.33 166.936 2075.14 165.941 L2075.14 169.876 Q2073.36 170.71 2071.43 171.126 Q2069.54 171.543 2067.38 171.543 Q2061.53 171.543 2058.08 167.862 Q2054.63 164.182 2054.63 157.932 Q2054.63 151.589 2058.1 147.955 Q2061.6 144.321 2067.66 144.321 Q2069.63 144.321 2071.5 144.737 Q2073.38 145.131 2075.14 145.941 Z" fill="#000000" fill-rule="evenodd" fill-opacity="1" /><path clip-path="url(#clip690)" d="M2094.33 157.839 Q2089.17 157.839 2087.18 159.02 Q2085.18 160.2 2085.18 163.048 Q2085.18 165.316 2086.67 166.659 Q2088.17 167.978 2090.74 167.978 Q2094.28 167.978 2096.41 165.478 Q2098.56 162.955 2098.56 158.788 L2098.56 157.839 L2094.33 157.839 M2102.82 156.08 L2102.82 170.872 L2098.56 170.872 L2098.56 166.936 Q2097.11 169.298 2094.93 170.432 Q2092.75 171.543 2089.61 171.543 Q2085.62 171.543 2083.26 169.321 Q2080.93 167.075 2080.93 163.325 Q2080.93 158.95 2083.84 156.728 Q2086.78 154.506 2092.59 154.506 L2098.56 154.506 L2098.56 154.089 Q2098.56 151.149 2096.62 149.552 Q2094.7 147.932 2091.2 147.932 Q2088.98 147.932 2086.87 148.464 Q2084.77 148.997 2082.82 150.062 L2082.82 146.126 Q2085.16 145.224 2087.36 144.784 Q2089.56 144.321 2091.64 144.321 Q2097.27 144.321 2100.05 147.237 Q2102.82 150.154 2102.82 156.08 Z" fill="#000000" fill-rule="evenodd" fill-opacity="1" /><path clip-path="url(#clip690)" d="M2111.6 134.853 L2115.86 134.853 L2115.86 170.872 L2111.6 170.872 L2111.6 134.853 Z" fill="#000000" fill-rule="evenodd" fill-opacity="1" /><path clip-path="url(#clip690)" d="M2156.9 148.881 L2156.9 134.853 L2161.16 134.853 L2161.16 170.872 L2156.9 170.872 L2156.9 166.983 Q2155.55 169.298 2153.49 170.432 Q2151.46 171.543 2148.59 171.543 Q2143.89 171.543 2140.93 167.793 Q2137.99 164.043 2137.99 157.932 Q2137.99 151.821 2140.93 148.071 Q2143.89 144.321 2148.59 144.321 Q2151.46 144.321 2153.49 145.455 Q2155.55 146.566 2156.9 148.881 M2142.38 157.932 Q2142.38 162.631 2144.3 165.316 Q2146.25 167.978 2149.63 167.978 Q2153.01 167.978 2154.95 165.316 Q2156.9 162.631 2156.9 157.932 Q2156.9 153.233 2154.95 150.571 Q2153.01 147.886 2149.63 147.886 Q2146.25 147.886 2144.3 150.571 Q2142.38 153.233 2142.38 157.932 Z" fill="#000000" fill-rule="evenodd" fill-opacity="1" /><path clip-path="url(#clip690)" d="M2169.93 144.946 L2174.19 144.946 L2174.19 170.872 L2169.93 170.872 L2169.93 144.946 M2169.93 134.853 L2174.19 134.853 L2174.19 140.247 L2169.93 140.247 L2169.93 134.853 Z" fill="#000000" fill-rule="evenodd" fill-opacity="1" /><path clip-path="url(#clip690)" d="M2196.23 134.853 L2196.23 138.395 L2192.15 138.395 Q2189.86 138.395 2188.96 139.321 Q2188.08 140.247 2188.08 142.654 L2188.08 144.946 L2195.09 144.946 L2195.09 148.256 L2188.08 148.256 L2188.08 170.872 L2183.8 170.872 L2183.8 148.256 L2179.72 148.256 L2179.72 144.946 L2183.8 144.946 L2183.8 143.14 Q2183.8 138.812 2185.81 136.844 Q2187.82 134.853 2192.2 134.853 L2196.23 134.853 Z" fill="#000000" fill-rule="evenodd" fill-opacity="1" /><path clip-path="url(#clip690)" d="M2212.92 134.853 L2212.92 138.395 L2208.84 138.395 Q2206.55 138.395 2205.65 139.321 Q2204.77 140.247 2204.77 142.654 L2204.77 144.946 L2211.78 144.946 L2211.78 148.256 L2204.77 148.256 L2204.77 170.872 L2200.48 170.872 L2200.48 148.256 L2196.41 148.256 L2196.41 144.946 L2200.48 144.946 L2200.48 143.14 Q2200.48 138.812 2202.5 136.844 Q2204.51 134.853 2208.89 134.853 L2212.92 134.853 Z" fill="#000000" fill-rule="evenodd" fill-opacity="1" /><circle clip-path="url(#clip690)" cx="1795.96" cy="213.924" r="23" fill="#e26f46" fill-rule="evenodd" fill-opacity="1" stroke="#000000" stroke-opacity="1" stroke-width="5.12"/>
<path clip-path="url(#clip690)" d="M1909.93 215.556 L1909.93 231.204 L1905.67 231.204 L1905.67 215.694 Q1905.67 212.014 1904.24 210.185 Q1902.8 208.357 1899.93 208.357 Q1896.48 208.357 1894.49 210.556 Q1892.5 212.755 1892.5 216.551 L1892.5 231.204 L1888.22 231.204 L1888.22 205.278 L1892.5 205.278 L1892.5 209.306 Q1894.03 206.968 1896.09 205.81 Q1898.17 204.653 1900.88 204.653 Q1905.35 204.653 1907.64 207.431 Q1909.93 210.185 1909.93 215.556 Z" fill="#000000" fill-rule="evenodd" fill-opacity="1" /><path clip-path="url(#clip690)" d="M1917.99 220.972 L1917.99 205.278 L1922.25 205.278 L1922.25 220.81 Q1922.25 224.491 1923.68 226.343 Q1925.12 228.171 1927.99 228.171 Q1931.44 228.171 1933.43 225.972 Q1935.44 223.773 1935.44 219.977 L1935.44 205.278 L1939.7 205.278 L1939.7 231.204 L1935.44 231.204 L1935.44 227.222 Q1933.89 229.583 1931.83 230.741 Q1929.79 231.875 1927.08 231.875 Q1922.62 231.875 1920.3 229.097 Q1917.99 226.319 1917.99 220.972 M1928.7 204.653 L1928.7 204.653 Z" fill="#000000" fill-rule="evenodd" fill-opacity="1" /><path clip-path="url(#clip690)" d="M1968.66 210.255 Q1970.25 207.384 1972.48 206.019 Q1974.7 204.653 1977.71 204.653 Q1981.76 204.653 1983.96 207.5 Q1986.16 210.324 1986.16 215.556 L1986.16 231.204 L1981.88 231.204 L1981.88 215.694 Q1981.88 211.968 1980.56 210.162 Q1979.24 208.357 1976.53 208.357 Q1973.22 208.357 1971.3 210.556 Q1969.38 212.755 1969.38 216.551 L1969.38 231.204 L1965.09 231.204 L1965.09 215.694 Q1965.09 211.944 1963.77 210.162 Q1962.45 208.357 1959.7 208.357 Q1956.44 208.357 1954.51 210.579 Q1952.59 212.778 1952.59 216.551 L1952.59 231.204 L1948.31 231.204 L1948.31 205.278 L1952.59 205.278 L1952.59 209.306 Q1954.05 206.921 1956.09 205.787 Q1958.13 204.653 1960.93 204.653 Q1963.75 204.653 1965.72 206.088 Q1967.71 207.523 1968.66 210.255 Z" fill="#000000" fill-rule="evenodd" fill-opacity="1" /><path clip-path="url(#clip690)" d="M2016.83 217.176 L2016.83 219.259 L1997.25 219.259 Q1997.52 223.657 1999.88 225.972 Q2002.27 228.264 2006.5 228.264 Q2008.96 228.264 2011.25 227.662 Q2013.56 227.06 2015.83 225.856 L2015.83 229.884 Q2013.54 230.856 2011.13 231.366 Q2008.73 231.875 2006.25 231.875 Q2000.05 231.875 1996.41 228.264 Q1992.8 224.653 1992.8 218.495 Q1992.8 212.13 1996.23 208.403 Q1999.68 204.653 2005.51 204.653 Q2010.74 204.653 2013.77 208.032 Q2016.83 211.389 2016.83 217.176 M2012.57 215.926 Q2012.52 212.431 2010.6 210.347 Q2008.7 208.264 2005.56 208.264 Q2001.99 208.264 1999.84 210.278 Q1997.71 212.292 1997.38 215.949 L2012.57 215.926 Z" fill="#000000" fill-rule="evenodd" fill-opacity="1" /><path clip-path="url(#clip690)" d="M2038.84 209.259 Q2038.12 208.843 2037.27 208.657 Q2036.43 208.449 2035.42 208.449 Q2031.81 208.449 2029.86 210.81 Q2027.94 213.148 2027.94 217.546 L2027.94 231.204 L2023.66 231.204 L2023.66 205.278 L2027.94 205.278 L2027.94 209.306 Q2029.28 206.945 2031.43 205.81 Q2033.59 204.653 2036.67 204.653 Q2037.11 204.653 2037.64 204.722 Q2038.17 204.769 2038.82 204.884 L2038.84 209.259 Z" fill="#000000" fill-rule="evenodd" fill-opacity="1" /><path clip-path="url(#clip690)" d="M2043.31 205.278 L2047.57 205.278 L2047.57 231.204 L2043.31 231.204 L2043.31 205.278 M2043.31 195.185 L2047.57 195.185 L2047.57 200.579 L2043.31 200.579 L2043.31 195.185 Z" fill="#000000" fill-rule="evenodd" fill-opacity="1" /><path clip-path="url(#clip690)" d="M2075.14 206.273 L2075.14 210.255 Q2073.33 209.259 2071.5 208.773 Q2069.7 208.264 2067.85 208.264 Q2063.7 208.264 2061.41 210.903 Q2059.12 213.519 2059.12 218.264 Q2059.12 223.009 2061.41 225.648 Q2063.7 228.264 2067.85 228.264 Q2069.7 228.264 2071.5 227.778 Q2073.33 227.268 2075.14 226.273 L2075.14 230.208 Q2073.36 231.042 2071.43 231.458 Q2069.54 231.875 2067.38 231.875 Q2061.53 231.875 2058.08 228.194 Q2054.63 224.514 2054.63 218.264 Q2054.63 211.921 2058.1 208.287 Q2061.6 204.653 2067.66 204.653 Q2069.63 204.653 2071.5 205.07 Q2073.38 205.463 2075.14 206.273 Z" fill="#000000" fill-rule="evenodd" fill-opacity="1" /><path clip-path="url(#clip690)" d="M2094.33 218.171 Q2089.17 218.171 2087.18 219.352 Q2085.18 220.532 2085.18 223.38 Q2085.18 225.648 2086.67 226.991 Q2088.17 228.31 2090.74 228.31 Q2094.28 228.31 2096.41 225.81 Q2098.56 223.287 2098.56 219.12 L2098.56 218.171 L2094.33 218.171 M2102.82 216.412 L2102.82 231.204 L2098.56 231.204 L2098.56 227.268 Q2097.11 229.63 2094.93 230.764 Q2092.75 231.875 2089.61 231.875 Q2085.62 231.875 2083.26 229.653 Q2080.93 227.407 2080.93 223.657 Q2080.93 219.282 2083.84 217.06 Q2086.78 214.838 2092.59 214.838 L2098.56 214.838 L2098.56 214.421 Q2098.56 211.482 2096.62 209.884 Q2094.7 208.264 2091.2 208.264 Q2088.98 208.264 2086.87 208.796 Q2084.77 209.329 2082.82 210.394 L2082.82 206.458 Q2085.16 205.556 2087.36 205.116 Q2089.56 204.653 2091.64 204.653 Q2097.27 204.653 2100.05 207.569 Q2102.82 210.486 2102.82 216.412 Z" fill="#000000" fill-rule="evenodd" fill-opacity="1" /><path clip-path="url(#clip690)" d="M2111.6 195.185 L2115.86 195.185 L2115.86 231.204 L2111.6 231.204 L2111.6 195.185 Z" fill="#000000" fill-rule="evenodd" fill-opacity="1" /><path clip-path="url(#clip690)" d="M2156.9 209.213 L2156.9 195.185 L2161.16 195.185 L2161.16 231.204 L2156.9 231.204 L2156.9 227.315 Q2155.55 229.63 2153.49 230.764 Q2151.46 231.875 2148.59 231.875 Q2143.89 231.875 2140.93 228.125 Q2137.99 224.375 2137.99 218.264 Q2137.99 212.153 2140.93 208.403 Q2143.89 204.653 2148.59 204.653 Q2151.46 204.653 2153.49 205.787 Q2155.55 206.898 2156.9 209.213 M2142.38 218.264 Q2142.38 222.963 2144.3 225.648 Q2146.25 228.31 2149.63 228.31 Q2153.01 228.31 2154.95 225.648 Q2156.9 222.963 2156.9 218.264 Q2156.9 213.565 2154.95 210.903 Q2153.01 208.218 2149.63 208.218 Q2146.25 208.218 2144.3 210.903 Q2142.38 213.565 2142.38 218.264 Z" fill="#000000" fill-rule="evenodd" fill-opacity="1" /><path clip-path="url(#clip690)" d="M2169.93 205.278 L2174.19 205.278 L2174.19 231.204 L2169.93 231.204 L2169.93 205.278 M2169.93 195.185 L2174.19 195.185 L2174.19 200.579 L2169.93 200.579 L2169.93 195.185 Z" fill="#000000" fill-rule="evenodd" fill-opacity="1" /><path clip-path="url(#clip690)" d="M2196.23 195.185 L2196.23 198.727 L2192.15 198.727 Q2189.86 198.727 2188.96 199.653 Q2188.08 200.579 2188.08 202.986 L2188.08 205.278 L2195.09 205.278 L2195.09 208.588 L2188.08 208.588 L2188.08 231.204 L2183.8 231.204 L2183.8 208.588 L2179.72 208.588 L2179.72 205.278 L2183.8 205.278 L2183.8 203.472 Q2183.8 199.144 2185.81 197.176 Q2187.82 195.185 2192.2 195.185 L2196.23 195.185 Z" fill="#000000" fill-rule="evenodd" fill-opacity="1" /><path clip-path="url(#clip690)" d="M2212.92 195.185 L2212.92 198.727 L2208.84 198.727 Q2206.55 198.727 2205.65 199.653 Q2204.77 200.579 2204.77 202.986 L2204.77 205.278 L2211.78 205.278 L2211.78 208.588 L2204.77 208.588 L2204.77 231.204 L2200.48 231.204 L2200.48 208.588 L2196.41 208.588 L2196.41 205.278 L2200.48 205.278 L2200.48 203.472 Q2200.48 199.144 2202.5 197.176 Q2204.51 195.185 2208.89 195.185 L2212.92 195.185 Z" fill="#000000" fill-rule="evenodd" fill-opacity="1" /><path clip-path="url(#clip690)" d="M2221.11 227.268 L2237.43 227.268 L2237.43 231.204 L2215.48 231.204 L2215.48 227.268 Q2218.15 224.514 2222.73 219.884 Q2227.34 215.231 2228.52 213.889 Q2230.76 211.366 2231.64 209.63 Q2232.54 207.87 2232.54 206.181 Q2232.54 203.426 2230.6 201.69 Q2228.68 199.954 2225.58 199.954 Q2223.38 199.954 2220.92 200.718 Q2218.49 201.482 2215.72 203.032 L2215.72 198.31 Q2218.54 197.176 2220.99 196.597 Q2223.45 196.019 2225.48 196.019 Q2230.86 196.019 2234.05 198.704 Q2237.24 201.389 2237.24 205.88 Q2237.24 208.009 2236.43 209.931 Q2235.65 211.829 2233.54 214.421 Q2232.96 215.093 2229.86 218.31 Q2226.76 221.505 2221.11 227.268 Z" fill="#000000" fill-rule="evenodd" fill-opacity="1" /><polyline clip-path="url(#clip690)" style="stroke:#3da44d; stroke-linecap:butt; stroke-linejoin:round; stroke-width:4; stroke-opacity:1; fill:none" points="
  1726.76,274.256 1865.15,274.256 
  "/>
<path clip-path="url(#clip690)" d="M1921.38 265.214 Q1921.38 268.564 1920.19 271.89 Q1919.02 275.192 1916.96 277.909 Q1914.9 280.626 1912.27 282.734 Q1909.65 284.842 1906.58 286.014 Q1903.51 287.185 1900.51 287.185 Q1895.2 287.185 1891.71 283.695 Q1888.22 280.205 1888.22 274.373 Q1888.22 270.297 1890.05 266.245 Q1891.87 262.17 1894.78 259.148 Q1897.68 256.103 1901.5 254.206 Q1905.34 252.309 1909.13 252.309 Q1914.52 252.309 1917.94 255.892 Q1921.38 259.452 1921.38 265.214 M1917.1 263.341 Q1917.1 260.764 1916.37 258.82 Q1915.65 256.853 1914.43 255.728 Q1913.23 254.604 1911.8 254.065 Q1910.4 253.503 1908.85 253.503 Q1905.86 253.503 1902.65 255.447 Q1899.44 257.391 1897.05 260.998 Q1895.76 262.966 1894.82 265.332 Q1893.89 267.674 1893.46 269.758 Q1893.04 271.82 1892.86 273.272 Q1892.69 274.724 1892.69 275.731 Q1892.69 280.416 1894.94 283.179 Q1897.19 285.943 1900.8 285.943 Q1903.63 285.943 1906.39 284.28 Q1909.16 282.594 1911.06 280.181 Q1912.74 278.097 1913.98 275.591 Q1915.25 273.084 1915.88 270.789 Q1916.51 268.494 1916.79 266.643 Q1917.1 264.793 1917.1 263.341 Z" fill="#000000" fill-rule="evenodd" fill-opacity="1" /><path clip-path="url(#clip690)" d="M1924.45 274.138 Q1924.45 266.034 1927.47 259.499 Q1928.76 256.759 1930.56 254.464 Q1932.36 252.168 1933.56 251.161 Q1934.75 250.154 1935.08 250.154 Q1935.55 250.154 1935.57 250.622 Q1935.57 250.856 1934.94 251.442 Q1927.21 259.312 1927.23 274.138 Q1927.23 289.012 1934.75 296.577 Q1935.57 297.397 1935.57 297.655 Q1935.57 298.123 1935.08 298.123 Q1934.75 298.123 1933.6 297.163 Q1932.46 296.202 1930.68 294.001 Q1928.9 291.799 1927.61 289.105 Q1924.45 282.57 1924.45 274.138 Z" fill="#000000" fill-rule="evenodd" fill-opacity="1" /><path clip-path="url(#clip690)" d="M1966.4 279.268 Q1966.4 279.455 1966.19 280.181 Q1965.98 280.907 1965.46 282.032 Q1964.97 283.156 1964.29 284.187 Q1963.61 285.194 1962.49 285.943 Q1961.39 286.669 1960.12 286.669 Q1958.44 286.669 1957.31 285.545 Q1956.19 284.421 1956.19 282.734 Q1956.19 282.5 1956.21 282.266 Q1956.24 282.032 1956.26 281.891 Q1956.28 281.727 1956.35 281.47 Q1956.45 281.189 1956.47 281.071 Q1956.52 280.954 1956.63 280.603 Q1956.77 280.228 1956.82 280.088 Q1959.8 272.499 1959.8 269.337 Q1959.8 265.987 1957.2 265.987 Q1954.88 265.987 1952.58 267.674 Q1951.53 268.517 1950.52 270.016 Q1949.51 271.515 1949.33 272.077 Q1949.12 273.295 1948.81 274.232 Q1948.67 274.888 1947.99 277.441 L1946.94 281.774 L1946.02 285.405 Q1945.84 285.92 1945.32 286.295 Q1944.81 286.669 1944.24 286.669 Q1943.78 286.669 1943.31 286.341 Q1942.86 286.037 1942.86 285.311 Q1942.86 284.936 1943.05 284.257 L1950.01 256.618 L1950.15 255.681 Q1950.15 255.4 1950.03 255.26 Q1949.94 255.096 1949.37 254.979 Q1948.83 254.862 1947.76 254.862 Q1947.31 254.862 1947.1 254.838 Q1946.91 254.815 1946.75 254.698 Q1946.59 254.557 1946.59 254.276 Q1946.59 253.878 1946.75 253.667 Q1946.94 253.433 1947.08 253.386 Q1947.22 253.339 1947.5 253.316 Q1947.9 253.292 1949.23 253.175 Q1950.57 253.035 1951.72 252.941 Q1952.86 252.847 1953.35 252.847 Q1953.64 252.847 1953.78 252.988 Q1953.94 253.105 1953.96 253.246 L1953.99 253.363 L1950.24 268.611 Q1953.21 264.933 1957.34 264.933 Q1960.01 264.933 1961.44 266.315 Q1962.86 267.674 1962.86 270.063 Q1962.86 272.803 1959.94 280.603 Q1959.07 282.781 1959.07 284.023 Q1959.07 284.842 1959.33 285.217 Q1959.61 285.592 1960.22 285.592 Q1961.15 285.592 1961.97 285.053 Q1962.82 284.491 1963.4 283.578 Q1963.99 282.641 1964.39 281.704 Q1964.81 280.743 1965.11 279.666 Q1965.3 279.081 1965.39 278.94 Q1965.51 278.799 1965.84 278.799 Q1966.4 278.799 1966.4 279.268 Z" fill="#000000" fill-rule="evenodd" fill-opacity="1" /><path clip-path="url(#clip690)" d="M1970.21 297.655 Q1970.21 297.42 1970.82 296.835 Q1978.55 288.965 1978.55 274.138 Q1978.55 259.265 1971.12 251.747 Q1970.21 250.88 1970.21 250.622 Q1970.21 250.154 1970.68 250.154 Q1971 250.154 1972.15 251.114 Q1973.32 252.074 1975.08 254.276 Q1976.86 256.478 1978.17 259.171 Q1981.33 265.706 1981.33 274.138 Q1981.33 282.243 1978.31 288.777 Q1977.02 291.518 1975.22 293.813 Q1973.42 296.109 1972.22 297.116 Q1971.03 298.123 1970.68 298.123 Q1970.21 298.123 1970.21 297.655 Z" fill="#000000" fill-rule="evenodd" fill-opacity="1" /><polyline clip-path="url(#clip690)" style="stroke:#c271d2; stroke-linecap:butt; stroke-linejoin:round; stroke-width:4; stroke-opacity:1; fill:none" points="
  1726.76,334.588 1865.15,334.588 
  "/>
<path clip-path="url(#clip690)" d="M1921.38 331.962 Q1921.38 335.312 1920.19 338.638 Q1919.02 341.94 1916.96 344.657 Q1914.9 347.374 1912.27 349.482 Q1909.65 351.59 1906.58 352.762 Q1903.51 353.933 1900.51 353.933 Q1895.2 353.933 1891.71 350.443 Q1888.22 346.953 1888.22 341.121 Q1888.22 337.045 1890.05 332.993 Q1891.87 328.918 1894.78 325.896 Q1897.68 322.851 1901.5 320.954 Q1905.34 319.057 1909.13 319.057 Q1914.52 319.057 1917.94 322.64 Q1921.38 326.201 1921.38 331.962 M1917.1 330.089 Q1917.1 327.512 1916.37 325.568 Q1915.65 323.601 1914.43 322.476 Q1913.23 321.352 1911.8 320.813 Q1910.4 320.251 1908.85 320.251 Q1905.86 320.251 1902.65 322.195 Q1899.44 324.139 1897.05 327.746 Q1895.76 329.714 1894.82 332.08 Q1893.89 334.422 1893.46 336.506 Q1893.04 338.568 1892.86 340.02 Q1892.69 341.472 1892.69 342.479 Q1892.69 347.164 1894.94 349.927 Q1897.19 352.691 1900.8 352.691 Q1903.63 352.691 1906.39 351.028 Q1909.16 349.342 1911.06 346.929 Q1912.74 344.845 1913.98 342.339 Q1915.25 339.832 1915.88 337.537 Q1916.51 335.242 1916.79 333.391 Q1917.1 331.541 1917.1 330.089 Z" fill="#000000" fill-rule="evenodd" fill-opacity="1" /><path clip-path="url(#clip690)" d="M1924.45 340.886 Q1924.45 332.782 1927.47 326.247 Q1928.76 323.507 1930.56 321.212 Q1932.36 318.916 1933.56 317.909 Q1934.75 316.902 1935.08 316.902 Q1935.55 316.902 1935.57 317.37 Q1935.57 317.605 1934.94 318.19 Q1927.21 326.06 1927.23 340.886 Q1927.23 355.76 1934.75 363.325 Q1935.57 364.145 1935.57 364.403 Q1935.57 364.871 1935.08 364.871 Q1934.75 364.871 1933.6 363.911 Q1932.46 362.95 1930.68 360.749 Q1928.9 358.547 1927.61 355.853 Q1924.45 349.318 1924.45 340.886 Z" fill="#000000" fill-rule="evenodd" fill-opacity="1" /><path clip-path="url(#clip690)" d="M1966.4 346.016 Q1966.4 346.203 1966.19 346.929 Q1965.98 347.656 1965.46 348.78 Q1964.97 349.904 1964.29 350.935 Q1963.61 351.942 1962.49 352.691 Q1961.39 353.417 1960.12 353.417 Q1958.44 353.417 1957.31 352.293 Q1956.19 351.169 1956.19 349.482 Q1956.19 349.248 1956.21 349.014 Q1956.24 348.78 1956.26 348.639 Q1956.28 348.475 1956.35 348.218 Q1956.45 347.937 1956.47 347.819 Q1956.52 347.702 1956.63 347.351 Q1956.77 346.976 1956.82 346.836 Q1959.8 339.247 1959.8 336.085 Q1959.8 332.735 1957.2 332.735 Q1954.88 332.735 1952.58 334.422 Q1951.53 335.265 1950.52 336.764 Q1949.51 338.263 1949.33 338.825 Q1949.12 340.043 1948.81 340.98 Q1948.67 341.636 1947.99 344.189 L1946.94 348.522 L1946.02 352.153 Q1945.84 352.668 1945.32 353.043 Q1944.81 353.417 1944.24 353.417 Q1943.78 353.417 1943.31 353.09 Q1942.86 352.785 1942.86 352.059 Q1942.86 351.684 1943.05 351.005 L1950.01 323.366 L1950.15 322.43 Q1950.15 322.148 1950.03 322.008 Q1949.94 321.844 1949.37 321.727 Q1948.83 321.61 1947.76 321.61 Q1947.31 321.61 1947.1 321.586 Q1946.91 321.563 1946.75 321.446 Q1946.59 321.305 1946.59 321.024 Q1946.59 320.626 1946.75 320.415 Q1946.94 320.181 1947.08 320.134 Q1947.22 320.087 1947.5 320.064 Q1947.9 320.04 1949.23 319.923 Q1950.57 319.783 1951.72 319.689 Q1952.86 319.595 1953.35 319.595 Q1953.64 319.595 1953.78 319.736 Q1953.94 319.853 1953.96 319.994 L1953.99 320.111 L1950.24 335.359 Q1953.21 331.681 1957.34 331.681 Q1960.01 331.681 1961.44 333.063 Q1962.86 334.422 1962.86 336.811 Q1962.86 339.551 1959.94 347.351 Q1959.07 349.529 1959.07 350.771 Q1959.07 351.59 1959.33 351.965 Q1959.61 352.34 1960.22 352.34 Q1961.15 352.34 1961.97 351.801 Q1962.82 351.239 1963.4 350.326 Q1963.99 349.389 1964.39 348.452 Q1964.81 347.492 1965.11 346.414 Q1965.3 345.829 1965.39 345.688 Q1965.51 345.547 1965.84 345.547 Q1966.4 345.547 1966.4 346.016 Z" fill="#000000" fill-rule="evenodd" fill-opacity="1" /><path clip-path="url(#clip690)" d="M1971.28 326.57 Q1971.28 325.963 1971.33 325.783 Q1971.39 325.603 1971.66 325.324 L1978.1 318.143 Q1981.62 314.175 1981.62 310.715 Q1981.62 308.469 1980.44 306.862 Q1979.28 305.256 1977.13 305.256 Q1975.66 305.256 1974.41 306.157 Q1973.16 307.059 1972.59 308.666 Q1972.69 308.633 1973.03 308.633 Q1973.87 308.633 1974.33 309.158 Q1974.8 309.683 1974.8 310.388 Q1974.8 311.289 1974.21 311.732 Q1973.64 312.158 1973.07 312.158 Q1972.84 312.158 1972.52 312.109 Q1972.23 312.06 1971.75 311.601 Q1971.28 311.125 1971.28 310.289 Q1971.28 307.945 1973.05 306.075 Q1974.84 304.206 1977.56 304.206 Q1980.64 304.206 1982.66 306.043 Q1984.69 307.863 1984.69 310.715 Q1984.69 311.716 1984.38 312.634 Q1984.08 313.536 1983.67 314.241 Q1983.28 314.946 1982.2 316.077 Q1981.12 317.208 1980.25 318.012 Q1979.38 318.815 1977.43 320.52 L1973.87 323.98 L1979.92 323.98 Q1982.87 323.98 1983.1 323.717 Q1983.43 323.242 1983.84 320.733 L1984.69 320.733 L1983.74 326.57 L1971.28 326.57 Z" fill="#000000" fill-rule="evenodd" fill-opacity="1" /><path clip-path="url(#clip690)" d="M1989.68 364.403 Q1989.68 364.168 1990.29 363.583 Q1998.02 355.713 1998.02 340.886 Q1998.02 326.013 1990.59 318.495 Q1989.68 317.628 1989.68 317.37 Q1989.68 316.902 1990.15 316.902 Q1990.47 316.902 1991.62 317.862 Q1992.79 318.822 1994.55 321.024 Q1996.33 323.226 1997.64 325.919 Q2000.8 332.454 2000.8 340.886 Q2000.8 348.991 1997.78 355.525 Q1996.49 358.266 1994.69 360.561 Q1992.89 362.857 1991.69 363.864 Q1990.5 364.871 1990.15 364.871 Q1989.68 364.871 1989.68 364.403 Z" fill="#000000" fill-rule="evenodd" fill-opacity="1" /><polyline clip-path="url(#clip690)" style="stroke:#ac8d18; stroke-linecap:butt; stroke-linejoin:round; stroke-width:4; stroke-opacity:1; fill:none" points="
  1726.76,394.92 1865.15,394.92 
  "/>
<path clip-path="url(#clip690)" d="M1921.38 385.878 Q1921.38 389.228 1920.19 392.554 Q1919.02 395.856 1916.96 398.573 Q1914.9 401.29 1912.27 403.398 Q1909.65 405.506 1906.58 406.678 Q1903.51 407.849 1900.51 407.849 Q1895.2 407.849 1891.71 404.359 Q1888.22 400.869 1888.22 395.037 Q1888.22 390.961 1890.05 386.909 Q1891.87 382.834 1894.78 379.812 Q1897.68 376.767 1901.5 374.87 Q1905.34 372.973 1909.13 372.973 Q1914.52 372.973 1917.94 376.556 Q1921.38 380.117 1921.38 385.878 M1917.1 384.005 Q1917.1 381.428 1916.37 379.484 Q1915.65 377.517 1914.43 376.392 Q1913.23 375.268 1911.8 374.729 Q1910.4 374.167 1908.85 374.167 Q1905.86 374.167 1902.65 376.111 Q1899.44 378.055 1897.05 381.662 Q1895.76 383.63 1894.82 385.996 Q1893.89 388.338 1893.46 390.422 Q1893.04 392.484 1892.86 393.936 Q1892.69 395.388 1892.69 396.395 Q1892.69 401.08 1894.94 403.843 Q1897.19 406.607 1900.8 406.607 Q1903.63 406.607 1906.39 404.944 Q1909.16 403.258 1911.06 400.845 Q1912.74 398.761 1913.98 396.255 Q1915.25 393.748 1915.88 391.453 Q1916.51 389.158 1916.79 387.307 Q1917.1 385.457 1917.1 384.005 Z" fill="#000000" fill-rule="evenodd" fill-opacity="1" /><path clip-path="url(#clip690)" d="M1924.45 394.802 Q1924.45 386.698 1927.47 380.163 Q1928.76 377.423 1930.56 375.128 Q1932.36 372.832 1933.56 371.825 Q1934.75 370.818 1935.08 370.818 Q1935.55 370.818 1935.57 371.286 Q1935.57 371.521 1934.94 372.106 Q1927.21 379.976 1927.23 394.802 Q1927.23 409.676 1934.75 417.241 Q1935.57 418.061 1935.57 418.319 Q1935.57 418.787 1935.08 418.787 Q1934.75 418.787 1933.6 417.827 Q1932.46 416.866 1930.68 414.665 Q1928.9 412.463 1927.61 409.769 Q1924.45 403.235 1924.45 394.802 Z" fill="#000000" fill-rule="evenodd" fill-opacity="1" /><path clip-path="url(#clip690)" d="M1942.86 379.414 L1942.86 377.915 Q1948.62 377.915 1951.6 374.847 Q1952.42 374.847 1952.56 375.034 Q1952.7 375.221 1952.7 376.088 L1952.7 403 Q1952.7 404.429 1953.4 404.874 Q1954.1 405.319 1957.17 405.319 L1958.7 405.319 L1958.7 406.795 Q1957.01 406.654 1950.92 406.654 Q1944.83 406.654 1943.17 406.795 L1943.17 405.319 L1944.69 405.319 Q1947.71 405.319 1948.44 404.898 Q1949.16 404.452 1949.16 403 L1949.16 378.149 Q1946.66 379.414 1942.86 379.414 Z" fill="#000000" fill-rule="evenodd" fill-opacity="1" /><path clip-path="url(#clip690)" d="M1966.61 418.108 Q1966.61 417.874 1966.8 417.358 L1983.73 372.106 Q1983.73 372.059 1983.85 371.802 Q1983.97 371.544 1984.04 371.38 Q1984.11 371.193 1984.25 371.052 Q1984.41 370.912 1984.6 370.912 Q1985.07 370.912 1985.07 371.497 Q1985.07 371.544 1984.93 372.106 L1967.95 417.405 Q1967.67 418.225 1967.48 418.459 Q1967.31 418.693 1967.03 418.693 Q1966.61 418.693 1966.61 418.108 Z" fill="#000000" fill-rule="evenodd" fill-opacity="1" /><path clip-path="url(#clip690)" d="M2013.9 399.932 Q2013.9 400.119 2013.69 400.845 Q2013.48 401.572 2012.96 402.696 Q2012.47 403.82 2011.79 404.851 Q2011.11 405.858 2009.99 406.607 Q2008.89 407.333 2007.62 407.333 Q2005.94 407.333 2004.81 406.209 Q2003.69 405.085 2003.69 403.398 Q2003.69 403.164 2003.71 402.93 Q2003.74 402.696 2003.76 402.555 Q2003.78 402.391 2003.85 402.134 Q2003.95 401.853 2003.97 401.735 Q2004.02 401.618 2004.13 401.267 Q2004.27 400.892 2004.32 400.752 Q2007.3 393.163 2007.3 390.001 Q2007.3 386.651 2004.7 386.651 Q2002.38 386.651 2000.08 388.338 Q1999.03 389.181 1998.02 390.68 Q1997.01 392.179 1996.83 392.741 Q1996.62 393.959 1996.31 394.896 Q1996.17 395.552 1995.49 398.105 L1994.44 402.438 L1993.52 406.069 Q1993.34 406.584 1992.82 406.959 Q1992.31 407.333 1991.74 407.333 Q1991.28 407.333 1990.81 407.006 Q1990.36 406.701 1990.36 405.975 Q1990.36 405.6 1990.55 404.921 L1997.51 377.282 L1997.65 376.346 Q1997.65 376.064 1997.53 375.924 Q1997.44 375.76 1996.87 375.643 Q1996.33 375.526 1995.26 375.526 Q1994.81 375.526 1994.6 375.502 Q1994.41 375.479 1994.25 375.362 Q1994.09 375.221 1994.09 374.94 Q1994.09 374.542 1994.25 374.331 Q1994.44 374.097 1994.58 374.05 Q1994.72 374.003 1995 373.98 Q1995.4 373.956 1996.73 373.839 Q1998.07 373.699 1999.22 373.605 Q2000.36 373.511 2000.85 373.511 Q2001.14 373.511 2001.28 373.652 Q2001.44 373.769 2001.46 373.91 L2001.49 374.027 L1997.74 389.275 Q2000.71 385.597 2004.84 385.597 Q2007.51 385.597 2008.94 386.979 Q2010.36 388.338 2010.36 390.727 Q2010.36 393.467 2007.44 401.267 Q2006.57 403.445 2006.57 404.687 Q2006.57 405.506 2006.83 405.881 Q2007.11 406.256 2007.72 406.256 Q2008.65 406.256 2009.47 405.717 Q2010.32 405.155 2010.9 404.242 Q2011.49 403.305 2011.89 402.368 Q2012.31 401.408 2012.61 400.33 Q2012.8 399.745 2012.89 399.604 Q2013.01 399.463 2013.34 399.463 Q2013.9 399.463 2013.9 399.932 Z" fill="#000000" fill-rule="evenodd" fill-opacity="1" /><path clip-path="url(#clip690)" d="M2017.71 418.319 Q2017.71 418.084 2018.32 417.499 Q2026.05 409.629 2026.05 394.802 Q2026.05 379.929 2018.62 372.411 Q2017.71 371.544 2017.71 371.286 Q2017.71 370.818 2018.18 370.818 Q2018.5 370.818 2019.65 371.778 Q2020.82 372.738 2022.58 374.94 Q2024.36 377.142 2025.67 379.835 Q2028.83 386.37 2028.83 394.802 Q2028.83 402.907 2025.81 409.441 Q2024.52 412.182 2022.72 414.477 Q2020.92 416.773 2019.72 417.78 Q2018.53 418.787 2018.18 418.787 Q2017.71 418.787 2017.71 418.319 Z" fill="#000000" fill-rule="evenodd" fill-opacity="1" /></svg>
